<?xml version="1.0" encoding="utf-8" standalone="no"?>
<!DOCTYPE svg PUBLIC "-//W3C//DTD SVG 1.1//EN"
  "http://www.w3.org/Graphics/SVG/1.1/DTD/svg11.dtd">
<svg xmlns:xlink="http://www.w3.org/1999/xlink" width="134.73pt" height="383.44pt" viewBox="0 0 134.73 383.44" xmlns="http://www.w3.org/2000/svg" version="1.1">
 <metadata>
  <rdf:RDF xmlns:dc="http://purl.org/dc/elements/1.1/" xmlns:cc="http://creativecommons.org/ns#" xmlns:rdf="http://www.w3.org/1999/02/22-rdf-syntax-ns#">
   <cc:Work>
    <dc:type rdf:resource="http://purl.org/dc/dcmitype/StillImage"/>
    <dc:date>2025-04-04T13:50:04.214089</dc:date>
    <dc:format>image/svg+xml</dc:format>
    <dc:creator>
     <cc:Agent>
      <dc:title>Matplotlib v3.10.1, https://matplotlib.org/</dc:title>
     </cc:Agent>
    </dc:creator>
   </cc:Work>
  </rdf:RDF>
 </metadata>
 <defs>
  <style type="text/css">*{stroke-linejoin: round; stroke-linecap: butt}</style>
 </defs>
 <g id="figure_1">
  <g id="patch_1">
   <path d="M 0 383.44 
L 134.73 383.44 
L 134.73 0 
L 0 0 
z
" style="fill: #ffffff"/>
  </g>
  <g id="axes_1">
   <g id="PathCollection_1">
    <defs>
     <path id="m336cf0bce3" d="M 0 -3.535534 
L -3.535534 3.535534 
L 3.535534 3.535534 
z
" style="stroke: #4c88ab; stroke-opacity: 0.9; stroke-width: 0.5"/>
    </defs>
    <g clip-path="url(#pe7d4635819)">
     <use xlink:href="#m336cf0bce3" x="67.365" y="191.72" style="fill: #6cc2f5; fill-opacity: 0.9; stroke: #4c88ab; stroke-opacity: 0.9; stroke-width: 0.5"/>
    </g>
   </g>
   <g id="PathCollection_2">
    <defs>
     <path id="me57bf7be66" d="M -3.535534 3.535534 
L 3.535534 3.535534 
L 3.535534 -3.535534 
L -3.535534 -3.535534 
z
" style="stroke: #b26c43; stroke-opacity: 0.9; stroke-width: 0.5"/>
    </defs>
    <g clip-path="url(#pe7d4635819)">
     <use xlink:href="#me57bf7be66" x="67.365" y="191.72" style="fill: #ff9a60; fill-opacity: 0.9; stroke: #b26c43; stroke-opacity: 0.9; stroke-width: 0.5"/>
    </g>
   </g>
   <g id="PathCollection_3">
    <defs>
     <path id="mdc6fdf012b" d="M -0 3.535534 
L 3.535534 -3.535534 
L -3.535534 -3.535534 
z
" style="stroke: #b24343; stroke-opacity: 0.9; stroke-width: 0.5"/>
    </defs>
    <g clip-path="url(#pe7d4635819)">
     <use xlink:href="#mdc6fdf012b" x="67.365" y="191.72" style="fill: #ff6060; fill-opacity: 0.9; stroke: #b24343; stroke-opacity: 0.9; stroke-width: 0.5"/>
    </g>
   </g>
   <g id="PathCollection_4">
    <defs>
     <path id="m394711310f" d="M 0 -3.535534 
L -3.535534 3.535534 
L 3.535534 3.535534 
z
" style="stroke: #8843b2; stroke-opacity: 0.9; stroke-width: 0.5"/>
    </defs>
    <g clip-path="url(#pe7d4635819)">
     <use xlink:href="#m394711310f" x="67.365" y="191.72" style="fill: #c260ff; fill-opacity: 0.9; stroke: #8843b2; stroke-opacity: 0.9; stroke-width: 0.5"/>
    </g>
   </g>
   <g id="PathCollection_5">
    <defs>
     <path id="mbbf61fe95f" d="M 0 -3.535534 
L -0.793777 -1.09254 
L -3.362493 -1.09254 
L -1.284358 0.417313 
L -2.078135 2.860307 
L -0 1.350454 
L 2.078135 2.860307 
L 1.284358 0.417313 
L 3.362493 -1.09254 
L 0.793777 -1.09254 
z
" style="stroke: #43b270; stroke-opacity: 0.9; stroke-width: 0.5"/>
    </defs>
    <g clip-path="url(#pe7d4635819)">
     <use xlink:href="#mbbf61fe95f" x="67.365" y="191.72" style="fill: #60ffa0; fill-opacity: 0.9; stroke: #43b270; stroke-opacity: 0.9; stroke-width: 0.5"/>
    </g>
   </g>
   <g id="PathCollection_6">
    <defs>
     <path id="m43474872e2" d="M 0 3.535534 
C 0.937635 3.535534 1.836992 3.163008 2.5 2.5 
C 3.163008 1.836992 3.535534 0.937635 3.535534 0 
C 3.535534 -0.937635 3.163008 -1.836992 2.5 -2.5 
C 1.836992 -3.163008 0.937635 -3.535534 0 -3.535534 
C -0.937635 -3.535534 -1.836992 -3.163008 -2.5 -2.5 
C -3.163008 -1.836992 -3.535534 -0.937635 -3.535534 0 
C -3.535534 0.937635 -3.163008 1.836992 -2.5 2.5 
C -1.836992 3.163008 -0.937635 3.535534 0 3.535534 
z
" style="stroke: #b2437d; stroke-opacity: 0.9; stroke-width: 0.5"/>
    </defs>
    <g clip-path="url(#pe7d4635819)">
     <use xlink:href="#m43474872e2" x="67.365" y="191.72" style="fill: #ff60b3; fill-opacity: 0.9; stroke: #b2437d; stroke-opacity: 0.9; stroke-width: 0.5"/>
    </g>
   </g>
   <g id="PathCollection_7">
    <defs>
     <path id="ma26471a258" d="M -3.535534 3.535534 
L 3.535534 3.535534 
L 3.535534 -3.535534 
L -3.535534 -3.535534 
z
" style="stroke: #43b270; stroke-opacity: 0.9; stroke-width: 0.5"/>
    </defs>
    <g clip-path="url(#pe7d4635819)">
     <use xlink:href="#ma26471a258" x="67.365" y="191.72" style="fill: #60ffa0; fill-opacity: 0.9; stroke: #43b270; stroke-opacity: 0.9; stroke-width: 0.5"/>
    </g>
   </g>
   <g id="PathCollection_8">
    <defs>
     <path id="m8f77d6a0cc" d="M 0 3.535534 
C 0.937635 3.535534 1.836992 3.163008 2.5 2.5 
C 3.163008 1.836992 3.535534 0.937635 3.535534 0 
C 3.535534 -0.937635 3.163008 -1.836992 2.5 -2.5 
C 1.836992 -3.163008 0.937635 -3.535534 0 -3.535534 
C -0.937635 -3.535534 -1.836992 -3.163008 -2.5 -2.5 
C -3.163008 -1.836992 -3.535534 -0.937635 -3.535534 0 
C -3.535534 0.937635 -3.163008 1.836992 -2.5 2.5 
C -1.836992 3.163008 -0.937635 3.535534 0 3.535534 
z
" style="stroke: #8843b2; stroke-opacity: 0.9; stroke-width: 0.5"/>
    </defs>
    <g clip-path="url(#pe7d4635819)">
     <use xlink:href="#m8f77d6a0cc" x="67.365" y="191.72" style="fill: #c260ff; fill-opacity: 0.9; stroke: #8843b2; stroke-opacity: 0.9; stroke-width: 0.5"/>
    </g>
   </g>
   <g id="PathCollection_9">
    <defs>
     <path id="m5bf6c32b03" d="M 0 -3.535534 
L -3.362493 -1.09254 
L -2.078135 2.860307 
L 2.078135 2.860307 
L 3.362493 -1.09254 
z
" style="stroke: #b2437d; stroke-opacity: 0.9; stroke-width: 0.5"/>
    </defs>
    <g clip-path="url(#pe7d4635819)">
     <use xlink:href="#m5bf6c32b03" x="67.365" y="191.72" style="fill: #ff60b3; fill-opacity: 0.9; stroke: #b2437d; stroke-opacity: 0.9; stroke-width: 0.5"/>
    </g>
   </g>
   <g id="PathCollection_10">
    <defs>
     <path id="mf2468b108b" d="M 0 -3.535534 
L -0.793777 -1.09254 
L -3.362493 -1.09254 
L -1.284358 0.417313 
L -2.078135 2.860307 
L -0 1.350454 
L 2.078135 2.860307 
L 1.284358 0.417313 
L 3.362493 -1.09254 
L 0.793777 -1.09254 
z
" style="stroke: #8843b2; stroke-opacity: 0.9; stroke-width: 0.5"/>
    </defs>
    <g clip-path="url(#pe7d4635819)">
     <use xlink:href="#mf2468b108b" x="67.365" y="191.72" style="fill: #c260ff; fill-opacity: 0.9; stroke: #8843b2; stroke-opacity: 0.9; stroke-width: 0.5"/>
    </g>
   </g>
   <g id="PathCollection_11">
    <defs>
     <path id="m77dbb2efca" d="M 0 3.535534 
C 0.937635 3.535534 1.836992 3.163008 2.5 2.5 
C 3.163008 1.836992 3.535534 0.937635 3.535534 0 
C 3.535534 -0.937635 3.163008 -1.836992 2.5 -2.5 
C 1.836992 -3.163008 0.937635 -3.535534 0 -3.535534 
C -0.937635 -3.535534 -1.836992 -3.163008 -2.5 -2.5 
C -3.163008 -1.836992 -3.535534 -0.937635 -3.535534 0 
C -3.535534 0.937635 -3.163008 1.836992 -2.5 2.5 
C -1.836992 3.163008 -0.937635 3.535534 0 3.535534 
z
" style="stroke: #43b270; stroke-opacity: 0.9; stroke-width: 0.5"/>
    </defs>
    <g clip-path="url(#pe7d4635819)">
     <use xlink:href="#m77dbb2efca" x="67.365" y="191.72" style="fill: #60ffa0; fill-opacity: 0.9; stroke: #43b270; stroke-opacity: 0.9; stroke-width: 0.5"/>
    </g>
   </g>
   <g id="PathCollection_12">
    <defs>
     <path id="mb0b7f30570" d="M 0 -3.535534 
L -3.362493 -1.09254 
L -2.078135 2.860307 
L 2.078135 2.860307 
L 3.362493 -1.09254 
z
" style="stroke: #4c88ab; stroke-opacity: 0.9; stroke-width: 0.5"/>
    </defs>
    <g clip-path="url(#pe7d4635819)">
     <use xlink:href="#mb0b7f30570" x="67.365" y="191.72" style="fill: #6cc2f5; fill-opacity: 0.9; stroke: #4c88ab; stroke-opacity: 0.9; stroke-width: 0.5"/>
    </g>
   </g>
   <g id="PathCollection_13">
    <defs>
     <path id="ma9098f557b" d="M -0 3.535534 
L 3.535534 -3.535534 
L -3.535534 -3.535534 
z
" style="stroke: #4c88ab; stroke-opacity: 0.9; stroke-width: 0.5"/>
    </defs>
    <g clip-path="url(#pe7d4635819)">
     <use xlink:href="#ma9098f557b" x="67.365" y="191.72" style="fill: #6cc2f5; fill-opacity: 0.9; stroke: #4c88ab; stroke-opacity: 0.9; stroke-width: 0.5"/>
    </g>
   </g>
   <g id="PathCollection_14">
    <defs>
     <path id="mf60da016dd" d="M 0 -3.535534 
L -3.362493 -1.09254 
L -2.078135 2.860307 
L 2.078135 2.860307 
L 3.362493 -1.09254 
z
" style="stroke: #8843b2; stroke-opacity: 0.9; stroke-width: 0.5"/>
    </defs>
    <g clip-path="url(#pe7d4635819)">
     <use xlink:href="#mf60da016dd" x="67.365" y="191.72" style="fill: #c260ff; fill-opacity: 0.9; stroke: #8843b2; stroke-opacity: 0.9; stroke-width: 0.5"/>
    </g>
   </g>
   <g id="PathCollection_15">
    <defs>
     <path id="m0b8775a0de" d="M 0 -3.535534 
L -0.793777 -1.09254 
L -3.362493 -1.09254 
L -1.284358 0.417313 
L -2.078135 2.860307 
L -0 1.350454 
L 2.078135 2.860307 
L 1.284358 0.417313 
L 3.362493 -1.09254 
L 0.793777 -1.09254 
z
" style="stroke: #4c88ab; stroke-opacity: 0.9; stroke-width: 0.5"/>
    </defs>
    <g clip-path="url(#pe7d4635819)">
     <use xlink:href="#m0b8775a0de" x="67.365" y="191.72" style="fill: #6cc2f5; fill-opacity: 0.9; stroke: #4c88ab; stroke-opacity: 0.9; stroke-width: 0.5"/>
    </g>
   </g>
   <g id="PathCollection_16">
    <defs>
     <path id="m29aa459b36" d="M 0 -3.535534 
L -0.793777 -1.09254 
L -3.362493 -1.09254 
L -1.284358 0.417313 
L -2.078135 2.860307 
L -0 1.350454 
L 2.078135 2.860307 
L 1.284358 0.417313 
L 3.362493 -1.09254 
L 0.793777 -1.09254 
z
" style="stroke: #b2437d; stroke-opacity: 0.9; stroke-width: 0.5"/>
    </defs>
    <g clip-path="url(#pe7d4635819)">
     <use xlink:href="#m29aa459b36" x="67.365" y="191.72" style="fill: #ff60b3; fill-opacity: 0.9; stroke: #b2437d; stroke-opacity: 0.9; stroke-width: 0.5"/>
    </g>
   </g>
   <g id="PathCollection_17">
    <defs>
     <path id="m2981da7bbd" d="M 0 -3.535534 
L -3.362493 -1.09254 
L -2.078135 2.860307 
L 2.078135 2.860307 
L 3.362493 -1.09254 
z
" style="stroke: #b26c43; stroke-opacity: 0.9; stroke-width: 0.5"/>
    </defs>
    <g clip-path="url(#pe7d4635819)">
     <use xlink:href="#m2981da7bbd" x="67.365" y="191.72" style="fill: #ff9a60; fill-opacity: 0.9; stroke: #b26c43; stroke-opacity: 0.9; stroke-width: 0.5"/>
    </g>
   </g>
   <g id="PathCollection_18">
    <defs>
     <path id="m4f3d35d817" d="M -0 3.535534 
L 3.535534 -3.535534 
L -3.535534 -3.535534 
z
" style="stroke: #43b270; stroke-opacity: 0.9; stroke-width: 0.5"/>
    </defs>
    <g clip-path="url(#pe7d4635819)">
     <use xlink:href="#m4f3d35d817" x="67.365" y="191.72" style="fill: #60ffa0; fill-opacity: 0.9; stroke: #43b270; stroke-opacity: 0.9; stroke-width: 0.5"/>
    </g>
   </g>
   <g id="legend_1">
    <g id="patch_2">
     <path d="M 2.965 382.12 
L 131.765 382.12 
Q 134.565 382.12 134.565 379.32 
L 134.565 4.12 
Q 134.565 1.32 131.765 1.32 
L 2.965 1.32 
Q 0.165 1.32 0.165 4.12 
L 0.165 379.32 
Q 0.165 382.12 2.965 382.12 
z
" style="fill: #ffffff; opacity: 0.8; stroke: #cccccc; stroke-linejoin: miter"/>
    </g>
    <g id="text_1">
     <!-- Cancer Type -->
     <g transform="translate(27.802969 17.111563) scale(0.14 -0.14)">
      <defs>
       <path id="ArialMT-43" d="M 3763 1606 
L 4369 1453 
Q 4178 706 3683 314 
Q 3188 -78 2472 -78 
Q 1731 -78 1267 223 
Q 803 525 561 1097 
Q 319 1669 319 2325 
Q 319 3041 592 3573 
Q 866 4106 1370 4382 
Q 1875 4659 2481 4659 
Q 3169 4659 3637 4309 
Q 4106 3959 4291 3325 
L 3694 3184 
Q 3534 3684 3231 3912 
Q 2928 4141 2469 4141 
Q 1941 4141 1586 3887 
Q 1231 3634 1087 3207 
Q 944 2781 944 2328 
Q 944 1744 1114 1308 
Q 1284 872 1643 656 
Q 2003 441 2422 441 
Q 2931 441 3284 734 
Q 3638 1028 3763 1606 
z
" transform="scale(0.015625)"/>
       <path id="ArialMT-61" d="M 2588 409 
Q 2275 144 1986 34 
Q 1697 -75 1366 -75 
Q 819 -75 525 192 
Q 231 459 231 875 
Q 231 1119 342 1320 
Q 453 1522 633 1644 
Q 813 1766 1038 1828 
Q 1203 1872 1538 1913 
Q 2219 1994 2541 2106 
Q 2544 2222 2544 2253 
Q 2544 2597 2384 2738 
Q 2169 2928 1744 2928 
Q 1347 2928 1158 2789 
Q 969 2650 878 2297 
L 328 2372 
Q 403 2725 575 2942 
Q 747 3159 1072 3276 
Q 1397 3394 1825 3394 
Q 2250 3394 2515 3294 
Q 2781 3194 2906 3042 
Q 3031 2891 3081 2659 
Q 3109 2516 3109 2141 
L 3109 1391 
Q 3109 606 3145 398 
Q 3181 191 3288 0 
L 2700 0 
Q 2613 175 2588 409 
z
M 2541 1666 
Q 2234 1541 1622 1453 
Q 1275 1403 1131 1340 
Q 988 1278 909 1158 
Q 831 1038 831 891 
Q 831 666 1001 516 
Q 1172 366 1500 366 
Q 1825 366 2078 508 
Q 2331 650 2450 897 
Q 2541 1088 2541 1459 
L 2541 1666 
z
" transform="scale(0.015625)"/>
       <path id="ArialMT-6e" d="M 422 0 
L 422 3319 
L 928 3319 
L 928 2847 
Q 1294 3394 1984 3394 
Q 2284 3394 2536 3286 
Q 2788 3178 2913 3003 
Q 3038 2828 3088 2588 
Q 3119 2431 3119 2041 
L 3119 0 
L 2556 0 
L 2556 2019 
Q 2556 2363 2490 2533 
Q 2425 2703 2258 2804 
Q 2091 2906 1866 2906 
Q 1506 2906 1245 2678 
Q 984 2450 984 1813 
L 984 0 
L 422 0 
z
" transform="scale(0.015625)"/>
       <path id="ArialMT-63" d="M 2588 1216 
L 3141 1144 
Q 3050 572 2676 248 
Q 2303 -75 1759 -75 
Q 1078 -75 664 370 
Q 250 816 250 1647 
Q 250 2184 428 2587 
Q 606 2991 970 3192 
Q 1334 3394 1763 3394 
Q 2303 3394 2647 3120 
Q 2991 2847 3088 2344 
L 2541 2259 
Q 2463 2594 2264 2762 
Q 2066 2931 1784 2931 
Q 1359 2931 1093 2626 
Q 828 2322 828 1663 
Q 828 994 1084 691 
Q 1341 388 1753 388 
Q 2084 388 2306 591 
Q 2528 794 2588 1216 
z
" transform="scale(0.015625)"/>
       <path id="ArialMT-65" d="M 2694 1069 
L 3275 997 
Q 3138 488 2766 206 
Q 2394 -75 1816 -75 
Q 1088 -75 661 373 
Q 234 822 234 1631 
Q 234 2469 665 2931 
Q 1097 3394 1784 3394 
Q 2450 3394 2872 2941 
Q 3294 2488 3294 1666 
Q 3294 1616 3291 1516 
L 816 1516 
Q 847 969 1125 678 
Q 1403 388 1819 388 
Q 2128 388 2347 550 
Q 2566 713 2694 1069 
z
M 847 1978 
L 2700 1978 
Q 2663 2397 2488 2606 
Q 2219 2931 1791 2931 
Q 1403 2931 1139 2672 
Q 875 2413 847 1978 
z
" transform="scale(0.015625)"/>
       <path id="ArialMT-72" d="M 416 0 
L 416 3319 
L 922 3319 
L 922 2816 
Q 1116 3169 1280 3281 
Q 1444 3394 1641 3394 
Q 1925 3394 2219 3213 
L 2025 2691 
Q 1819 2813 1613 2813 
Q 1428 2813 1281 2702 
Q 1134 2591 1072 2394 
Q 978 2094 978 1738 
L 978 0 
L 416 0 
z
" transform="scale(0.015625)"/>
       <path id="ArialMT-20" transform="scale(0.015625)"/>
       <path id="ArialMT-54" d="M 1659 0 
L 1659 4041 
L 150 4041 
L 150 4581 
L 3781 4581 
L 3781 4041 
L 2266 4041 
L 2266 0 
L 1659 0 
z
" transform="scale(0.015625)"/>
       <path id="ArialMT-79" d="M 397 -1278 
L 334 -750 
Q 519 -800 656 -800 
Q 844 -800 956 -737 
Q 1069 -675 1141 -563 
Q 1194 -478 1313 -144 
Q 1328 -97 1363 -6 
L 103 3319 
L 709 3319 
L 1400 1397 
Q 1534 1031 1641 628 
Q 1738 1016 1872 1384 
L 2581 3319 
L 3144 3319 
L 1881 -56 
Q 1678 -603 1566 -809 
Q 1416 -1088 1222 -1217 
Q 1028 -1347 759 -1347 
Q 597 -1347 397 -1278 
z
" transform="scale(0.015625)"/>
       <path id="ArialMT-70" d="M 422 -1272 
L 422 3319 
L 934 3319 
L 934 2888 
Q 1116 3141 1344 3267 
Q 1572 3394 1897 3394 
Q 2322 3394 2647 3175 
Q 2972 2956 3137 2557 
Q 3303 2159 3303 1684 
Q 3303 1175 3120 767 
Q 2938 359 2589 142 
Q 2241 -75 1856 -75 
Q 1575 -75 1351 44 
Q 1128 163 984 344 
L 984 -1272 
L 422 -1272 
z
M 931 1641 
Q 931 1000 1190 694 
Q 1450 388 1819 388 
Q 2194 388 2461 705 
Q 2728 1022 2728 1688 
Q 2728 2322 2467 2637 
Q 2206 2953 1844 2953 
Q 1484 2953 1207 2617 
Q 931 2281 931 1641 
z
" transform="scale(0.015625)"/>
      </defs>
      <use xlink:href="#ArialMT-43"/>
      <use xlink:href="#ArialMT-61" transform="translate(72.216797 0)"/>
      <use xlink:href="#ArialMT-6e" transform="translate(127.832031 0)"/>
      <use xlink:href="#ArialMT-63" transform="translate(183.447266 0)"/>
      <use xlink:href="#ArialMT-65" transform="translate(233.447266 0)"/>
      <use xlink:href="#ArialMT-72" transform="translate(289.0625 0)"/>
      <use xlink:href="#ArialMT-20" transform="translate(322.363281 0)"/>
      <use xlink:href="#ArialMT-54" transform="translate(348.396484 0)"/>
      <use xlink:href="#ArialMT-79" transform="translate(403.980469 0)"/>
      <use xlink:href="#ArialMT-70" transform="translate(453.980469 0)"/>
      <use xlink:href="#ArialMT-65" transform="translate(509.595703 0)"/>
     </g>
    </g>
    <g id="PathCollection_19">
     <g>
      <use xlink:href="#m336cf0bce3" x="19.765" y="33.404063" style="fill: #6cc2f5; fill-opacity: 0.9; stroke: #4c88ab; stroke-opacity: 0.9; stroke-width: 0.5"/>
     </g>
    </g>
    <g id="text_2">
     <!-- TCGA-BLCA -->
     <g transform="translate(44.965 37.079063) scale(0.14 -0.14)">
      <defs>
       <path id="ArialMT-47" d="M 2638 1797 
L 2638 2334 
L 4578 2338 
L 4578 638 
Q 4131 281 3656 101 
Q 3181 -78 2681 -78 
Q 2006 -78 1454 211 
Q 903 500 622 1047 
Q 341 1594 341 2269 
Q 341 2938 620 3517 
Q 900 4097 1425 4378 
Q 1950 4659 2634 4659 
Q 3131 4659 3532 4498 
Q 3934 4338 4162 4050 
Q 4391 3763 4509 3300 
L 3963 3150 
Q 3859 3500 3706 3700 
Q 3553 3900 3268 4020 
Q 2984 4141 2638 4141 
Q 2222 4141 1919 4014 
Q 1616 3888 1430 3681 
Q 1244 3475 1141 3228 
Q 966 2803 966 2306 
Q 966 1694 1177 1281 
Q 1388 869 1791 669 
Q 2194 469 2647 469 
Q 3041 469 3416 620 
Q 3791 772 3984 944 
L 3984 1797 
L 2638 1797 
z
" transform="scale(0.015625)"/>
       <path id="ArialMT-41" d="M -9 0 
L 1750 4581 
L 2403 4581 
L 4278 0 
L 3588 0 
L 3053 1388 
L 1138 1388 
L 634 0 
L -9 0 
z
M 1313 1881 
L 2866 1881 
L 2388 3150 
Q 2169 3728 2063 4100 
Q 1975 3659 1816 3225 
L 1313 1881 
z
" transform="scale(0.015625)"/>
       <path id="ArialMT-2d" d="M 203 1375 
L 203 1941 
L 1931 1941 
L 1931 1375 
L 203 1375 
z
" transform="scale(0.015625)"/>
       <path id="ArialMT-42" d="M 469 0 
L 469 4581 
L 2188 4581 
Q 2713 4581 3030 4442 
Q 3347 4303 3526 4014 
Q 3706 3725 3706 3409 
Q 3706 3116 3547 2856 
Q 3388 2597 3066 2438 
Q 3481 2316 3704 2022 
Q 3928 1728 3928 1328 
Q 3928 1006 3792 729 
Q 3656 453 3456 303 
Q 3256 153 2954 76 
Q 2653 0 2216 0 
L 469 0 
z
M 1075 2656 
L 2066 2656 
Q 2469 2656 2644 2709 
Q 2875 2778 2992 2937 
Q 3109 3097 3109 3338 
Q 3109 3566 3000 3739 
Q 2891 3913 2687 3977 
Q 2484 4041 1991 4041 
L 1075 4041 
L 1075 2656 
z
M 1075 541 
L 2216 541 
Q 2509 541 2628 563 
Q 2838 600 2978 687 
Q 3119 775 3209 942 
Q 3300 1109 3300 1328 
Q 3300 1584 3169 1773 
Q 3038 1963 2805 2039 
Q 2572 2116 2134 2116 
L 1075 2116 
L 1075 541 
z
" transform="scale(0.015625)"/>
       <path id="ArialMT-4c" d="M 469 0 
L 469 4581 
L 1075 4581 
L 1075 541 
L 3331 541 
L 3331 0 
L 469 0 
z
" transform="scale(0.015625)"/>
      </defs>
      <use xlink:href="#ArialMT-54"/>
      <use xlink:href="#ArialMT-43" transform="translate(61.083984 0)"/>
      <use xlink:href="#ArialMT-47" transform="translate(133.300781 0)"/>
      <use xlink:href="#ArialMT-41" transform="translate(211.083984 0)"/>
      <use xlink:href="#ArialMT-2d" transform="translate(277.783203 0)"/>
      <use xlink:href="#ArialMT-42" transform="translate(311.083984 0)"/>
      <use xlink:href="#ArialMT-4c" transform="translate(377.783203 0)"/>
      <use xlink:href="#ArialMT-43" transform="translate(433.398438 0)"/>
      <use xlink:href="#ArialMT-41" transform="translate(505.615234 0)"/>
     </g>
    </g>
    <g id="PathCollection_20">
     <g>
      <use xlink:href="#me57bf7be66" x="19.765" y="53.2075" style="fill: #ff9a60; fill-opacity: 0.9; stroke: #b26c43; stroke-opacity: 0.9; stroke-width: 0.5"/>
     </g>
    </g>
    <g id="text_3">
     <!-- TCGA-BRCA -->
     <g transform="translate(44.965 56.8825) scale(0.14 -0.14)">
      <defs>
       <path id="ArialMT-52" d="M 503 0 
L 503 4581 
L 2534 4581 
Q 3147 4581 3465 4457 
Q 3784 4334 3975 4021 
Q 4166 3709 4166 3331 
Q 4166 2844 3850 2509 
Q 3534 2175 2875 2084 
Q 3116 1969 3241 1856 
Q 3506 1613 3744 1247 
L 4541 0 
L 3778 0 
L 3172 953 
Q 2906 1366 2734 1584 
Q 2563 1803 2427 1890 
Q 2291 1978 2150 2013 
Q 2047 2034 1813 2034 
L 1109 2034 
L 1109 0 
L 503 0 
z
M 1109 2559 
L 2413 2559 
Q 2828 2559 3062 2645 
Q 3297 2731 3419 2920 
Q 3541 3109 3541 3331 
Q 3541 3656 3305 3865 
Q 3069 4075 2559 4075 
L 1109 4075 
L 1109 2559 
z
" transform="scale(0.015625)"/>
      </defs>
      <use xlink:href="#ArialMT-54"/>
      <use xlink:href="#ArialMT-43" transform="translate(61.083984 0)"/>
      <use xlink:href="#ArialMT-47" transform="translate(133.300781 0)"/>
      <use xlink:href="#ArialMT-41" transform="translate(211.083984 0)"/>
      <use xlink:href="#ArialMT-2d" transform="translate(277.783203 0)"/>
      <use xlink:href="#ArialMT-42" transform="translate(311.083984 0)"/>
      <use xlink:href="#ArialMT-52" transform="translate(377.783203 0)"/>
      <use xlink:href="#ArialMT-43" transform="translate(450 0)"/>
      <use xlink:href="#ArialMT-41" transform="translate(522.216797 0)"/>
     </g>
    </g>
    <g id="PathCollection_21">
     <g>
      <use xlink:href="#mdc6fdf012b" x="19.765" y="73.010938" style="fill: #ff6060; fill-opacity: 0.9; stroke: #b24343; stroke-opacity: 0.9; stroke-width: 0.5"/>
     </g>
    </g>
    <g id="text_4">
     <!-- TCGA-CESC -->
     <g transform="translate(44.965 76.685938) scale(0.14 -0.14)">
      <defs>
       <path id="ArialMT-45" d="M 506 0 
L 506 4581 
L 3819 4581 
L 3819 4041 
L 1113 4041 
L 1113 2638 
L 3647 2638 
L 3647 2100 
L 1113 2100 
L 1113 541 
L 3925 541 
L 3925 0 
L 506 0 
z
" transform="scale(0.015625)"/>
       <path id="ArialMT-53" d="M 288 1472 
L 859 1522 
Q 900 1178 1048 958 
Q 1197 738 1509 602 
Q 1822 466 2213 466 
Q 2559 466 2825 569 
Q 3091 672 3220 851 
Q 3350 1031 3350 1244 
Q 3350 1459 3225 1620 
Q 3100 1781 2813 1891 
Q 2628 1963 1997 2114 
Q 1366 2266 1113 2400 
Q 784 2572 623 2826 
Q 463 3081 463 3397 
Q 463 3744 659 4045 
Q 856 4347 1234 4503 
Q 1613 4659 2075 4659 
Q 2584 4659 2973 4495 
Q 3363 4331 3572 4012 
Q 3781 3694 3797 3291 
L 3216 3247 
Q 3169 3681 2898 3903 
Q 2628 4125 2100 4125 
Q 1550 4125 1298 3923 
Q 1047 3722 1047 3438 
Q 1047 3191 1225 3031 
Q 1400 2872 2139 2705 
Q 2878 2538 3153 2413 
Q 3553 2228 3743 1945 
Q 3934 1663 3934 1294 
Q 3934 928 3725 604 
Q 3516 281 3123 101 
Q 2731 -78 2241 -78 
Q 1619 -78 1198 103 
Q 778 284 539 648 
Q 300 1013 288 1472 
z
" transform="scale(0.015625)"/>
      </defs>
      <use xlink:href="#ArialMT-54"/>
      <use xlink:href="#ArialMT-43" transform="translate(61.083984 0)"/>
      <use xlink:href="#ArialMT-47" transform="translate(133.300781 0)"/>
      <use xlink:href="#ArialMT-41" transform="translate(211.083984 0)"/>
      <use xlink:href="#ArialMT-2d" transform="translate(277.783203 0)"/>
      <use xlink:href="#ArialMT-43" transform="translate(311.083984 0)"/>
      <use xlink:href="#ArialMT-45" transform="translate(383.300781 0)"/>
      <use xlink:href="#ArialMT-53" transform="translate(450 0)"/>
      <use xlink:href="#ArialMT-43" transform="translate(516.699219 0)"/>
     </g>
    </g>
    <g id="PathCollection_22">
     <g>
      <use xlink:href="#m394711310f" x="19.765" y="92.814375" style="fill: #c260ff; fill-opacity: 0.9; stroke: #8843b2; stroke-opacity: 0.9; stroke-width: 0.5"/>
     </g>
    </g>
    <g id="text_5">
     <!-- TCGA-COAD -->
     <g transform="translate(44.965 96.489375) scale(0.14 -0.14)">
      <defs>
       <path id="ArialMT-4f" d="M 309 2231 
Q 309 3372 921 4017 
Q 1534 4663 2503 4663 
Q 3138 4663 3647 4359 
Q 4156 4056 4423 3514 
Q 4691 2972 4691 2284 
Q 4691 1588 4409 1038 
Q 4128 488 3612 205 
Q 3097 -78 2500 -78 
Q 1853 -78 1343 234 
Q 834 547 571 1087 
Q 309 1628 309 2231 
z
M 934 2222 
Q 934 1394 1379 917 
Q 1825 441 2497 441 
Q 3181 441 3623 922 
Q 4066 1403 4066 2288 
Q 4066 2847 3877 3264 
Q 3688 3681 3323 3911 
Q 2959 4141 2506 4141 
Q 1863 4141 1398 3698 
Q 934 3256 934 2222 
z
" transform="scale(0.015625)"/>
       <path id="ArialMT-44" d="M 494 0 
L 494 4581 
L 2072 4581 
Q 2606 4581 2888 4516 
Q 3281 4425 3559 4188 
Q 3922 3881 4101 3404 
Q 4281 2928 4281 2316 
Q 4281 1794 4159 1391 
Q 4038 988 3847 723 
Q 3656 459 3429 307 
Q 3203 156 2883 78 
Q 2563 0 2147 0 
L 494 0 
z
M 1100 541 
L 2078 541 
Q 2531 541 2789 625 
Q 3047 709 3200 863 
Q 3416 1078 3536 1442 
Q 3656 1806 3656 2325 
Q 3656 3044 3420 3430 
Q 3184 3816 2847 3947 
Q 2603 4041 2063 4041 
L 1100 4041 
L 1100 541 
z
" transform="scale(0.015625)"/>
      </defs>
      <use xlink:href="#ArialMT-54"/>
      <use xlink:href="#ArialMT-43" transform="translate(61.083984 0)"/>
      <use xlink:href="#ArialMT-47" transform="translate(133.300781 0)"/>
      <use xlink:href="#ArialMT-41" transform="translate(211.083984 0)"/>
      <use xlink:href="#ArialMT-2d" transform="translate(277.783203 0)"/>
      <use xlink:href="#ArialMT-43" transform="translate(311.083984 0)"/>
      <use xlink:href="#ArialMT-4f" transform="translate(383.300781 0)"/>
      <use xlink:href="#ArialMT-41" transform="translate(461.083984 0)"/>
      <use xlink:href="#ArialMT-44" transform="translate(527.783203 0)"/>
     </g>
    </g>
    <g id="PathCollection_23">
     <g>
      <use xlink:href="#mbbf61fe95f" x="19.765" y="112.617813" style="fill: #60ffa0; fill-opacity: 0.9; stroke: #43b270; stroke-opacity: 0.9; stroke-width: 0.5"/>
     </g>
    </g>
    <g id="text_6">
     <!-- TCGA-ESCA -->
     <g transform="translate(44.965 116.292813) scale(0.14 -0.14)">
      <use xlink:href="#ArialMT-54"/>
      <use xlink:href="#ArialMT-43" transform="translate(61.083984 0)"/>
      <use xlink:href="#ArialMT-47" transform="translate(133.300781 0)"/>
      <use xlink:href="#ArialMT-41" transform="translate(211.083984 0)"/>
      <use xlink:href="#ArialMT-2d" transform="translate(277.783203 0)"/>
      <use xlink:href="#ArialMT-45" transform="translate(311.083984 0)"/>
      <use xlink:href="#ArialMT-53" transform="translate(377.783203 0)"/>
      <use xlink:href="#ArialMT-43" transform="translate(444.482422 0)"/>
      <use xlink:href="#ArialMT-41" transform="translate(516.699219 0)"/>
     </g>
    </g>
    <g id="PathCollection_24">
     <g>
      <use xlink:href="#m43474872e2" x="19.765" y="132.42125" style="fill: #ff60b3; fill-opacity: 0.9; stroke: #b2437d; stroke-opacity: 0.9; stroke-width: 0.5"/>
     </g>
    </g>
    <g id="text_7">
     <!-- TCGA-KICH -->
     <g transform="translate(44.965 136.09625) scale(0.14 -0.14)">
      <defs>
       <path id="ArialMT-4b" d="M 469 0 
L 469 4581 
L 1075 4581 
L 1075 2309 
L 3350 4581 
L 4172 4581 
L 2250 2725 
L 4256 0 
L 3456 0 
L 1825 2319 
L 1075 1588 
L 1075 0 
L 469 0 
z
" transform="scale(0.015625)"/>
       <path id="ArialMT-49" d="M 597 0 
L 597 4581 
L 1203 4581 
L 1203 0 
L 597 0 
z
" transform="scale(0.015625)"/>
       <path id="ArialMT-48" d="M 513 0 
L 513 4581 
L 1119 4581 
L 1119 2700 
L 3500 2700 
L 3500 4581 
L 4106 4581 
L 4106 0 
L 3500 0 
L 3500 2159 
L 1119 2159 
L 1119 0 
L 513 0 
z
" transform="scale(0.015625)"/>
      </defs>
      <use xlink:href="#ArialMT-54"/>
      <use xlink:href="#ArialMT-43" transform="translate(61.083984 0)"/>
      <use xlink:href="#ArialMT-47" transform="translate(133.300781 0)"/>
      <use xlink:href="#ArialMT-41" transform="translate(211.083984 0)"/>
      <use xlink:href="#ArialMT-2d" transform="translate(277.783203 0)"/>
      <use xlink:href="#ArialMT-4b" transform="translate(311.083984 0)"/>
      <use xlink:href="#ArialMT-49" transform="translate(377.783203 0)"/>
      <use xlink:href="#ArialMT-43" transform="translate(405.566406 0)"/>
      <use xlink:href="#ArialMT-48" transform="translate(477.783203 0)"/>
     </g>
    </g>
    <g id="PathCollection_25">
     <g>
      <use xlink:href="#ma26471a258" x="19.765" y="152.224688" style="fill: #60ffa0; fill-opacity: 0.9; stroke: #43b270; stroke-opacity: 0.9; stroke-width: 0.5"/>
     </g>
    </g>
    <g id="text_8">
     <!-- TCGA-KIRC -->
     <g transform="translate(44.965 155.899688) scale(0.14 -0.14)">
      <use xlink:href="#ArialMT-54"/>
      <use xlink:href="#ArialMT-43" transform="translate(61.083984 0)"/>
      <use xlink:href="#ArialMT-47" transform="translate(133.300781 0)"/>
      <use xlink:href="#ArialMT-41" transform="translate(211.083984 0)"/>
      <use xlink:href="#ArialMT-2d" transform="translate(277.783203 0)"/>
      <use xlink:href="#ArialMT-4b" transform="translate(311.083984 0)"/>
      <use xlink:href="#ArialMT-49" transform="translate(377.783203 0)"/>
      <use xlink:href="#ArialMT-52" transform="translate(405.566406 0)"/>
      <use xlink:href="#ArialMT-43" transform="translate(477.783203 0)"/>
     </g>
    </g>
    <g id="PathCollection_26">
     <g>
      <use xlink:href="#m8f77d6a0cc" x="19.765" y="172.028125" style="fill: #c260ff; fill-opacity: 0.9; stroke: #8843b2; stroke-opacity: 0.9; stroke-width: 0.5"/>
     </g>
    </g>
    <g id="text_9">
     <!-- TCGA-KIRP -->
     <g transform="translate(44.965 175.703125) scale(0.14 -0.14)">
      <defs>
       <path id="ArialMT-50" d="M 494 0 
L 494 4581 
L 2222 4581 
Q 2678 4581 2919 4538 
Q 3256 4481 3484 4323 
Q 3713 4166 3852 3881 
Q 3991 3597 3991 3256 
Q 3991 2672 3619 2267 
Q 3247 1863 2275 1863 
L 1100 1863 
L 1100 0 
L 494 0 
z
M 1100 2403 
L 2284 2403 
Q 2872 2403 3119 2622 
Q 3366 2841 3366 3238 
Q 3366 3525 3220 3729 
Q 3075 3934 2838 4000 
Q 2684 4041 2272 4041 
L 1100 4041 
L 1100 2403 
z
" transform="scale(0.015625)"/>
      </defs>
      <use xlink:href="#ArialMT-54"/>
      <use xlink:href="#ArialMT-43" transform="translate(61.083984 0)"/>
      <use xlink:href="#ArialMT-47" transform="translate(133.300781 0)"/>
      <use xlink:href="#ArialMT-41" transform="translate(211.083984 0)"/>
      <use xlink:href="#ArialMT-2d" transform="translate(277.783203 0)"/>
      <use xlink:href="#ArialMT-4b" transform="translate(311.083984 0)"/>
      <use xlink:href="#ArialMT-49" transform="translate(377.783203 0)"/>
      <use xlink:href="#ArialMT-52" transform="translate(405.566406 0)"/>
      <use xlink:href="#ArialMT-50" transform="translate(477.783203 0)"/>
     </g>
    </g>
    <g id="PathCollection_27">
     <g>
      <use xlink:href="#m5bf6c32b03" x="19.765" y="191.831563" style="fill: #ff60b3; fill-opacity: 0.9; stroke: #b2437d; stroke-opacity: 0.9; stroke-width: 0.5"/>
     </g>
    </g>
    <g id="text_10">
     <!-- TCGA-LIHC -->
     <g transform="translate(44.965 195.506563) scale(0.14 -0.14)">
      <use xlink:href="#ArialMT-54"/>
      <use xlink:href="#ArialMT-43" transform="translate(61.083984 0)"/>
      <use xlink:href="#ArialMT-47" transform="translate(133.300781 0)"/>
      <use xlink:href="#ArialMT-41" transform="translate(211.083984 0)"/>
      <use xlink:href="#ArialMT-2d" transform="translate(277.783203 0)"/>
      <use xlink:href="#ArialMT-4c" transform="translate(311.083984 0)"/>
      <use xlink:href="#ArialMT-49" transform="translate(366.699219 0)"/>
      <use xlink:href="#ArialMT-48" transform="translate(394.482422 0)"/>
      <use xlink:href="#ArialMT-43" transform="translate(466.699219 0)"/>
     </g>
    </g>
    <g id="PathCollection_28">
     <g>
      <use xlink:href="#mf2468b108b" x="19.765" y="211.635" style="fill: #c260ff; fill-opacity: 0.9; stroke: #8843b2; stroke-opacity: 0.9; stroke-width: 0.5"/>
     </g>
    </g>
    <g id="text_11">
     <!-- TCGA-LUAD -->
     <g transform="translate(44.965 215.31) scale(0.14 -0.14)">
      <defs>
       <path id="ArialMT-55" d="M 3500 4581 
L 4106 4581 
L 4106 1934 
Q 4106 1244 3950 837 
Q 3794 431 3386 176 
Q 2978 -78 2316 -78 
Q 1672 -78 1262 144 
Q 853 366 678 786 
Q 503 1206 503 1934 
L 503 4581 
L 1109 4581 
L 1109 1938 
Q 1109 1341 1220 1058 
Q 1331 775 1601 622 
Q 1872 469 2263 469 
Q 2931 469 3215 772 
Q 3500 1075 3500 1938 
L 3500 4581 
z
" transform="scale(0.015625)"/>
      </defs>
      <use xlink:href="#ArialMT-54"/>
      <use xlink:href="#ArialMT-43" transform="translate(61.083984 0)"/>
      <use xlink:href="#ArialMT-47" transform="translate(133.300781 0)"/>
      <use xlink:href="#ArialMT-41" transform="translate(211.083984 0)"/>
      <use xlink:href="#ArialMT-2d" transform="translate(277.783203 0)"/>
      <use xlink:href="#ArialMT-4c" transform="translate(311.083984 0)"/>
      <use xlink:href="#ArialMT-55" transform="translate(366.699219 0)"/>
      <use xlink:href="#ArialMT-41" transform="translate(438.916016 0)"/>
      <use xlink:href="#ArialMT-44" transform="translate(505.615234 0)"/>
     </g>
    </g>
    <g id="PathCollection_29">
     <g>
      <use xlink:href="#m77dbb2efca" x="19.765" y="231.438438" style="fill: #60ffa0; fill-opacity: 0.9; stroke: #43b270; stroke-opacity: 0.9; stroke-width: 0.5"/>
     </g>
    </g>
    <g id="text_12">
     <!-- TCGA-LUSC -->
     <g transform="translate(44.965 235.113438) scale(0.14 -0.14)">
      <use xlink:href="#ArialMT-54"/>
      <use xlink:href="#ArialMT-43" transform="translate(61.083984 0)"/>
      <use xlink:href="#ArialMT-47" transform="translate(133.300781 0)"/>
      <use xlink:href="#ArialMT-41" transform="translate(211.083984 0)"/>
      <use xlink:href="#ArialMT-2d" transform="translate(277.783203 0)"/>
      <use xlink:href="#ArialMT-4c" transform="translate(311.083984 0)"/>
      <use xlink:href="#ArialMT-55" transform="translate(366.699219 0)"/>
      <use xlink:href="#ArialMT-53" transform="translate(438.916016 0)"/>
      <use xlink:href="#ArialMT-43" transform="translate(505.615234 0)"/>
     </g>
    </g>
    <g id="PathCollection_30">
     <g>
      <use xlink:href="#mb0b7f30570" x="19.765" y="251.241875" style="fill: #6cc2f5; fill-opacity: 0.9; stroke: #4c88ab; stroke-opacity: 0.9; stroke-width: 0.5"/>
     </g>
    </g>
    <g id="text_13">
     <!-- TCGA-OV -->
     <g transform="translate(44.965 254.916875) scale(0.14 -0.14)">
      <defs>
       <path id="ArialMT-56" d="M 1803 0 
L 28 4581 
L 684 4581 
L 1875 1253 
Q 2019 853 2116 503 
Q 2222 878 2363 1253 
L 3600 4581 
L 4219 4581 
L 2425 0 
L 1803 0 
z
" transform="scale(0.015625)"/>
      </defs>
      <use xlink:href="#ArialMT-54"/>
      <use xlink:href="#ArialMT-43" transform="translate(61.083984 0)"/>
      <use xlink:href="#ArialMT-47" transform="translate(133.300781 0)"/>
      <use xlink:href="#ArialMT-41" transform="translate(211.083984 0)"/>
      <use xlink:href="#ArialMT-2d" transform="translate(277.783203 0)"/>
      <use xlink:href="#ArialMT-4f" transform="translate(311.083984 0)"/>
      <use xlink:href="#ArialMT-56" transform="translate(388.867188 0)"/>
     </g>
    </g>
    <g id="PathCollection_31">
     <g>
      <use xlink:href="#ma9098f557b" x="19.765" y="271.045313" style="fill: #6cc2f5; fill-opacity: 0.9; stroke: #4c88ab; stroke-opacity: 0.9; stroke-width: 0.5"/>
     </g>
    </g>
    <g id="text_14">
     <!-- TCGA-PRAD -->
     <g transform="translate(44.965 274.720313) scale(0.14 -0.14)">
      <use xlink:href="#ArialMT-54"/>
      <use xlink:href="#ArialMT-43" transform="translate(61.083984 0)"/>
      <use xlink:href="#ArialMT-47" transform="translate(133.300781 0)"/>
      <use xlink:href="#ArialMT-41" transform="translate(211.083984 0)"/>
      <use xlink:href="#ArialMT-2d" transform="translate(277.783203 0)"/>
      <use xlink:href="#ArialMT-50" transform="translate(311.083984 0)"/>
      <use xlink:href="#ArialMT-52" transform="translate(377.783203 0)"/>
      <use xlink:href="#ArialMT-41" transform="translate(450 0)"/>
      <use xlink:href="#ArialMT-44" transform="translate(516.699219 0)"/>
     </g>
    </g>
    <g id="PathCollection_32">
     <g>
      <use xlink:href="#mf60da016dd" x="19.765" y="290.84875" style="fill: #c260ff; fill-opacity: 0.9; stroke: #8843b2; stroke-opacity: 0.9; stroke-width: 0.5"/>
     </g>
    </g>
    <g id="text_15">
     <!-- TCGA-READ -->
     <g transform="translate(44.965 294.52375) scale(0.14 -0.14)">
      <use xlink:href="#ArialMT-54"/>
      <use xlink:href="#ArialMT-43" transform="translate(61.083984 0)"/>
      <use xlink:href="#ArialMT-47" transform="translate(133.300781 0)"/>
      <use xlink:href="#ArialMT-41" transform="translate(211.083984 0)"/>
      <use xlink:href="#ArialMT-2d" transform="translate(277.783203 0)"/>
      <use xlink:href="#ArialMT-52" transform="translate(311.083984 0)"/>
      <use xlink:href="#ArialMT-45" transform="translate(383.300781 0)"/>
      <use xlink:href="#ArialMT-41" transform="translate(450 0)"/>
      <use xlink:href="#ArialMT-44" transform="translate(516.699219 0)"/>
     </g>
    </g>
    <g id="PathCollection_33">
     <g>
      <use xlink:href="#m0b8775a0de" x="19.765" y="310.652188" style="fill: #6cc2f5; fill-opacity: 0.9; stroke: #4c88ab; stroke-opacity: 0.9; stroke-width: 0.5"/>
     </g>
    </g>
    <g id="text_16">
     <!-- TCGA-SARC -->
     <g transform="translate(44.965 314.327188) scale(0.14 -0.14)">
      <use xlink:href="#ArialMT-54"/>
      <use xlink:href="#ArialMT-43" transform="translate(61.083984 0)"/>
      <use xlink:href="#ArialMT-47" transform="translate(133.300781 0)"/>
      <use xlink:href="#ArialMT-41" transform="translate(211.083984 0)"/>
      <use xlink:href="#ArialMT-2d" transform="translate(277.783203 0)"/>
      <use xlink:href="#ArialMT-53" transform="translate(311.083984 0)"/>
      <use xlink:href="#ArialMT-41" transform="translate(377.783203 0)"/>
      <use xlink:href="#ArialMT-52" transform="translate(444.482422 0)"/>
      <use xlink:href="#ArialMT-43" transform="translate(516.699219 0)"/>
     </g>
    </g>
    <g id="PathCollection_34">
     <g>
      <use xlink:href="#m29aa459b36" x="19.765" y="330.455625" style="fill: #ff60b3; fill-opacity: 0.9; stroke: #b2437d; stroke-opacity: 0.9; stroke-width: 0.5"/>
     </g>
    </g>
    <g id="text_17">
     <!-- TCGA-STAD -->
     <g transform="translate(44.965 334.130625) scale(0.14 -0.14)">
      <use xlink:href="#ArialMT-54"/>
      <use xlink:href="#ArialMT-43" transform="translate(61.083984 0)"/>
      <use xlink:href="#ArialMT-47" transform="translate(133.300781 0)"/>
      <use xlink:href="#ArialMT-41" transform="translate(211.083984 0)"/>
      <use xlink:href="#ArialMT-2d" transform="translate(277.783203 0)"/>
      <use xlink:href="#ArialMT-53" transform="translate(311.083984 0)"/>
      <use xlink:href="#ArialMT-54" transform="translate(377.783203 0)"/>
      <use xlink:href="#ArialMT-41" transform="translate(431.492188 0)"/>
      <use xlink:href="#ArialMT-44" transform="translate(498.191406 0)"/>
     </g>
    </g>
    <g id="PathCollection_35">
     <g>
      <use xlink:href="#m2981da7bbd" x="19.765" y="350.259062" style="fill: #ff9a60; fill-opacity: 0.9; stroke: #b26c43; stroke-opacity: 0.9; stroke-width: 0.5"/>
     </g>
    </g>
    <g id="text_18">
     <!-- TCGA-THCA -->
     <g transform="translate(44.965 353.934062) scale(0.14 -0.14)">
      <use xlink:href="#ArialMT-54"/>
      <use xlink:href="#ArialMT-43" transform="translate(61.083984 0)"/>
      <use xlink:href="#ArialMT-47" transform="translate(133.300781 0)"/>
      <use xlink:href="#ArialMT-41" transform="translate(211.083984 0)"/>
      <use xlink:href="#ArialMT-2d" transform="translate(277.783203 0)"/>
      <use xlink:href="#ArialMT-54" transform="translate(311.083984 0)"/>
      <use xlink:href="#ArialMT-48" transform="translate(372.167969 0)"/>
      <use xlink:href="#ArialMT-43" transform="translate(444.384766 0)"/>
      <use xlink:href="#ArialMT-41" transform="translate(516.601562 0)"/>
     </g>
    </g>
    <g id="PathCollection_36">
     <g>
      <use xlink:href="#m4f3d35d817" x="19.765" y="370.0625" style="fill: #60ffa0; fill-opacity: 0.9; stroke: #43b270; stroke-opacity: 0.9; stroke-width: 0.5"/>
     </g>
    </g>
    <g id="text_19">
     <!-- TCGA-UCEC -->
     <g transform="translate(44.965 373.7375) scale(0.14 -0.14)">
      <use xlink:href="#ArialMT-54"/>
      <use xlink:href="#ArialMT-43" transform="translate(61.083984 0)"/>
      <use xlink:href="#ArialMT-47" transform="translate(133.300781 0)"/>
      <use xlink:href="#ArialMT-41" transform="translate(211.083984 0)"/>
      <use xlink:href="#ArialMT-2d" transform="translate(277.783203 0)"/>
      <use xlink:href="#ArialMT-55" transform="translate(311.083984 0)"/>
      <use xlink:href="#ArialMT-43" transform="translate(383.300781 0)"/>
      <use xlink:href="#ArialMT-45" transform="translate(455.517578 0)"/>
      <use xlink:href="#ArialMT-43" transform="translate(522.216797 0)"/>
     </g>
    </g>
   </g>
  </g>
 </g>
 <defs>
  <clipPath id="pe7d4635819">
   <rect x="-72.135" y="-30.04" width="279" height="443.52"/>
  </clipPath>
 </defs>
</svg>
