<?xml version="1.0" encoding="utf-8" standalone="no"?>
<!DOCTYPE svg PUBLIC "-//W3C//DTD SVG 1.1//EN"
  "http://www.w3.org/Graphics/SVG/1.1/DTD/svg11.dtd">
<svg xmlns:xlink="http://www.w3.org/1999/xlink" width="285.102812pt" height="213.012812pt" viewBox="0 0 285.102812 213.012812" xmlns="http://www.w3.org/2000/svg" version="1.1">
 <metadata>
  <rdf:RDF xmlns:dc="http://purl.org/dc/elements/1.1/" xmlns:cc="http://creativecommons.org/ns#" xmlns:rdf="http://www.w3.org/1999/02/22-rdf-syntax-ns#">
   <cc:Work>
    <dc:type rdf:resource="http://purl.org/dc/dcmitype/StillImage"/>
    <dc:date>2025-07-12T19:58:07.299850</dc:date>
    <dc:format>image/svg+xml</dc:format>
    <dc:creator>
     <cc:Agent>
      <dc:title>Matplotlib v3.10.3, https://matplotlib.org/</dc:title>
     </cc:Agent>
    </dc:creator>
   </cc:Work>
  </rdf:RDF>
 </metadata>
 <defs>
  <style type="text/css">*{stroke-linejoin: round; stroke-linecap: butt}</style>
 </defs>
 <g id="figure_1">
  <g id="patch_1">
   <path d="M 0 213.012812 
L 285.102812 213.012812 
L 285.102812 0 
L 0 0 
L 0 213.012812 
z
" style="fill: none"/>
  </g>
  <g id="axes_1">
   <g id="patch_2">
    <path d="M 39.632812 178.36 
L 277.902813 178.36 
L 277.902813 7.2 
L 39.632812 7.2 
L 39.632812 178.36 
z
" style="fill: none"/>
   </g>
   <g id="matplotlib.axis_1">
    <g id="xtick_1">
     <g id="line2d_1">
      <path d="M 39.632812 178.36 
L 39.632812 7.2 
" clip-path="url(#pa8f3b082ca)" style="fill: none; stroke: #cccccc; stroke-opacity: 0.3; stroke-width: 0.5; stroke-linecap: round"/>
     </g>
     <g id="line2d_2">
      <defs>
       <path id="m5c205f517c" d="M 0 0 
L 0 3.5 
" style="stroke: #262626; stroke-width: 0.8"/>
      </defs>
      <g>
       <use xlink:href="#m5c205f517c" x="39.632812" y="178.36" style="fill: #262626; stroke: #262626; stroke-width: 0.8"/>
      </g>
     </g>
     <g id="text_1">
      <!-- 0 -->
      <g style="fill: #262626" transform="translate(37.087812 191.43875) scale(0.08 -0.08)">
       <defs>
        <path id="DejaVuSans-30" d="M 2034 4250 
Q 1547 4250 1301 3770 
Q 1056 3291 1056 2328 
Q 1056 1369 1301 889 
Q 1547 409 2034 409 
Q 2525 409 2770 889 
Q 3016 1369 3016 2328 
Q 3016 3291 2770 3770 
Q 2525 4250 2034 4250 
z
M 2034 4750 
Q 2819 4750 3233 4129 
Q 3647 3509 3647 2328 
Q 3647 1150 3233 529 
Q 2819 -91 2034 -91 
Q 1250 -91 836 529 
Q 422 1150 422 2328 
Q 422 3509 836 4129 
Q 1250 4750 2034 4750 
z
" transform="scale(0.015625)"/>
       </defs>
       <use xlink:href="#DejaVuSans-30"/>
      </g>
     </g>
    </g>
    <g id="xtick_2">
     <g id="line2d_3">
      <path d="M 84.541119 178.36 
L 84.541119 7.2 
" clip-path="url(#pa8f3b082ca)" style="fill: none; stroke: #cccccc; stroke-opacity: 0.3; stroke-width: 0.5; stroke-linecap: round"/>
     </g>
     <g id="line2d_4">
      <g>
       <use xlink:href="#m5c205f517c" x="84.541119" y="178.36" style="fill: #262626; stroke: #262626; stroke-width: 0.8"/>
      </g>
     </g>
     <g id="text_2">
      <!-- 1000 -->
      <g style="fill: #262626" transform="translate(74.361119 191.43875) scale(0.08 -0.08)">
       <defs>
        <path id="DejaVuSans-31" d="M 794 531 
L 1825 531 
L 1825 4091 
L 703 3866 
L 703 4441 
L 1819 4666 
L 2450 4666 
L 2450 531 
L 3481 531 
L 3481 0 
L 794 0 
L 794 531 
z
" transform="scale(0.015625)"/>
       </defs>
       <use xlink:href="#DejaVuSans-31"/>
       <use xlink:href="#DejaVuSans-30" transform="translate(63.623047 0)"/>
       <use xlink:href="#DejaVuSans-30" transform="translate(127.246094 0)"/>
       <use xlink:href="#DejaVuSans-30" transform="translate(190.869141 0)"/>
      </g>
     </g>
    </g>
    <g id="xtick_3">
     <g id="line2d_5">
      <path d="M 129.449425 178.36 
L 129.449425 7.2 
" clip-path="url(#pa8f3b082ca)" style="fill: none; stroke: #cccccc; stroke-opacity: 0.3; stroke-width: 0.5; stroke-linecap: round"/>
     </g>
     <g id="line2d_6">
      <g>
       <use xlink:href="#m5c205f517c" x="129.449425" y="178.36" style="fill: #262626; stroke: #262626; stroke-width: 0.8"/>
      </g>
     </g>
     <g id="text_3">
      <!-- 2000 -->
      <g style="fill: #262626" transform="translate(119.269425 191.43875) scale(0.08 -0.08)">
       <defs>
        <path id="DejaVuSans-32" d="M 1228 531 
L 3431 531 
L 3431 0 
L 469 0 
L 469 531 
Q 828 903 1448 1529 
Q 2069 2156 2228 2338 
Q 2531 2678 2651 2914 
Q 2772 3150 2772 3378 
Q 2772 3750 2511 3984 
Q 2250 4219 1831 4219 
Q 1534 4219 1204 4116 
Q 875 4013 500 3803 
L 500 4441 
Q 881 4594 1212 4672 
Q 1544 4750 1819 4750 
Q 2544 4750 2975 4387 
Q 3406 4025 3406 3419 
Q 3406 3131 3298 2873 
Q 3191 2616 2906 2266 
Q 2828 2175 2409 1742 
Q 1991 1309 1228 531 
z
" transform="scale(0.015625)"/>
       </defs>
       <use xlink:href="#DejaVuSans-32"/>
       <use xlink:href="#DejaVuSans-30" transform="translate(63.623047 0)"/>
       <use xlink:href="#DejaVuSans-30" transform="translate(127.246094 0)"/>
       <use xlink:href="#DejaVuSans-30" transform="translate(190.869141 0)"/>
      </g>
     </g>
    </g>
    <g id="xtick_4">
     <g id="line2d_7">
      <path d="M 174.357731 178.36 
L 174.357731 7.2 
" clip-path="url(#pa8f3b082ca)" style="fill: none; stroke: #cccccc; stroke-opacity: 0.3; stroke-width: 0.5; stroke-linecap: round"/>
     </g>
     <g id="line2d_8">
      <g>
       <use xlink:href="#m5c205f517c" x="174.357731" y="178.36" style="fill: #262626; stroke: #262626; stroke-width: 0.8"/>
      </g>
     </g>
     <g id="text_4">
      <!-- 3000 -->
      <g style="fill: #262626" transform="translate(164.177731 191.43875) scale(0.08 -0.08)">
       <defs>
        <path id="DejaVuSans-33" d="M 2597 2516 
Q 3050 2419 3304 2112 
Q 3559 1806 3559 1356 
Q 3559 666 3084 287 
Q 2609 -91 1734 -91 
Q 1441 -91 1130 -33 
Q 819 25 488 141 
L 488 750 
Q 750 597 1062 519 
Q 1375 441 1716 441 
Q 2309 441 2620 675 
Q 2931 909 2931 1356 
Q 2931 1769 2642 2001 
Q 2353 2234 1838 2234 
L 1294 2234 
L 1294 2753 
L 1863 2753 
Q 2328 2753 2575 2939 
Q 2822 3125 2822 3475 
Q 2822 3834 2567 4026 
Q 2313 4219 1838 4219 
Q 1578 4219 1281 4162 
Q 984 4106 628 3988 
L 628 4550 
Q 988 4650 1302 4700 
Q 1616 4750 1894 4750 
Q 2613 4750 3031 4423 
Q 3450 4097 3450 3541 
Q 3450 3153 3228 2886 
Q 3006 2619 2597 2516 
z
" transform="scale(0.015625)"/>
       </defs>
       <use xlink:href="#DejaVuSans-33"/>
       <use xlink:href="#DejaVuSans-30" transform="translate(63.623047 0)"/>
       <use xlink:href="#DejaVuSans-30" transform="translate(127.246094 0)"/>
       <use xlink:href="#DejaVuSans-30" transform="translate(190.869141 0)"/>
      </g>
     </g>
    </g>
    <g id="xtick_5">
     <g id="line2d_9">
      <path d="M 219.266037 178.36 
L 219.266037 7.2 
" clip-path="url(#pa8f3b082ca)" style="fill: none; stroke: #cccccc; stroke-opacity: 0.3; stroke-width: 0.5; stroke-linecap: round"/>
     </g>
     <g id="line2d_10">
      <g>
       <use xlink:href="#m5c205f517c" x="219.266037" y="178.36" style="fill: #262626; stroke: #262626; stroke-width: 0.8"/>
      </g>
     </g>
     <g id="text_5">
      <!-- 4000 -->
      <g style="fill: #262626" transform="translate(209.086037 191.43875) scale(0.08 -0.08)">
       <defs>
        <path id="DejaVuSans-34" d="M 2419 4116 
L 825 1625 
L 2419 1625 
L 2419 4116 
z
M 2253 4666 
L 3047 4666 
L 3047 1625 
L 3713 1625 
L 3713 1100 
L 3047 1100 
L 3047 0 
L 2419 0 
L 2419 1100 
L 313 1100 
L 313 1709 
L 2253 4666 
z
" transform="scale(0.015625)"/>
       </defs>
       <use xlink:href="#DejaVuSans-34"/>
       <use xlink:href="#DejaVuSans-30" transform="translate(63.623047 0)"/>
       <use xlink:href="#DejaVuSans-30" transform="translate(127.246094 0)"/>
       <use xlink:href="#DejaVuSans-30" transform="translate(190.869141 0)"/>
      </g>
     </g>
    </g>
    <g id="xtick_6">
     <g id="line2d_11">
      <path d="M 264.174343 178.36 
L 264.174343 7.2 
" clip-path="url(#pa8f3b082ca)" style="fill: none; stroke: #cccccc; stroke-opacity: 0.3; stroke-width: 0.5; stroke-linecap: round"/>
     </g>
     <g id="line2d_12">
      <g>
       <use xlink:href="#m5c205f517c" x="264.174343" y="178.36" style="fill: #262626; stroke: #262626; stroke-width: 0.8"/>
      </g>
     </g>
     <g id="text_6">
      <!-- 5000 -->
      <g style="fill: #262626" transform="translate(253.994343 191.43875) scale(0.08 -0.08)">
       <defs>
        <path id="DejaVuSans-35" d="M 691 4666 
L 3169 4666 
L 3169 4134 
L 1269 4134 
L 1269 2991 
Q 1406 3038 1543 3061 
Q 1681 3084 1819 3084 
Q 2600 3084 3056 2656 
Q 3513 2228 3513 1497 
Q 3513 744 3044 326 
Q 2575 -91 1722 -91 
Q 1428 -91 1123 -41 
Q 819 9 494 109 
L 494 744 
Q 775 591 1075 516 
Q 1375 441 1709 441 
Q 2250 441 2565 725 
Q 2881 1009 2881 1497 
Q 2881 1984 2565 2268 
Q 2250 2553 1709 2553 
Q 1456 2553 1204 2497 
Q 953 2441 691 2322 
L 691 4666 
z
" transform="scale(0.015625)"/>
       </defs>
       <use xlink:href="#DejaVuSans-35"/>
       <use xlink:href="#DejaVuSans-30" transform="translate(63.623047 0)"/>
       <use xlink:href="#DejaVuSans-30" transform="translate(127.246094 0)"/>
       <use xlink:href="#DejaVuSans-30" transform="translate(190.869141 0)"/>
      </g>
     </g>
    </g>
    <g id="text_7">
     <!-- Time (days) -->
     <g style="fill: #262626" transform="translate(132.193906 203.941094) scale(0.09 -0.09)">
      <defs>
       <path id="DejaVuSans-54" d="M -19 4666 
L 3928 4666 
L 3928 4134 
L 2272 4134 
L 2272 0 
L 1638 0 
L 1638 4134 
L -19 4134 
L -19 4666 
z
" transform="scale(0.015625)"/>
       <path id="DejaVuSans-69" d="M 603 3500 
L 1178 3500 
L 1178 0 
L 603 0 
L 603 3500 
z
M 603 4863 
L 1178 4863 
L 1178 4134 
L 603 4134 
L 603 4863 
z
" transform="scale(0.015625)"/>
       <path id="DejaVuSans-6d" d="M 3328 2828 
Q 3544 3216 3844 3400 
Q 4144 3584 4550 3584 
Q 5097 3584 5394 3201 
Q 5691 2819 5691 2113 
L 5691 0 
L 5113 0 
L 5113 2094 
Q 5113 2597 4934 2840 
Q 4756 3084 4391 3084 
Q 3944 3084 3684 2787 
Q 3425 2491 3425 1978 
L 3425 0 
L 2847 0 
L 2847 2094 
Q 2847 2600 2669 2842 
Q 2491 3084 2119 3084 
Q 1678 3084 1418 2786 
Q 1159 2488 1159 1978 
L 1159 0 
L 581 0 
L 581 3500 
L 1159 3500 
L 1159 2956 
Q 1356 3278 1631 3431 
Q 1906 3584 2284 3584 
Q 2666 3584 2933 3390 
Q 3200 3197 3328 2828 
z
" transform="scale(0.015625)"/>
       <path id="DejaVuSans-65" d="M 3597 1894 
L 3597 1613 
L 953 1613 
Q 991 1019 1311 708 
Q 1631 397 2203 397 
Q 2534 397 2845 478 
Q 3156 559 3463 722 
L 3463 178 
Q 3153 47 2828 -22 
Q 2503 -91 2169 -91 
Q 1331 -91 842 396 
Q 353 884 353 1716 
Q 353 2575 817 3079 
Q 1281 3584 2069 3584 
Q 2775 3584 3186 3129 
Q 3597 2675 3597 1894 
z
M 3022 2063 
Q 3016 2534 2758 2815 
Q 2500 3097 2075 3097 
Q 1594 3097 1305 2825 
Q 1016 2553 972 2059 
L 3022 2063 
z
" transform="scale(0.015625)"/>
       <path id="DejaVuSans-20" transform="scale(0.015625)"/>
       <path id="DejaVuSans-28" d="M 1984 4856 
Q 1566 4138 1362 3434 
Q 1159 2731 1159 2009 
Q 1159 1288 1364 580 
Q 1569 -128 1984 -844 
L 1484 -844 
Q 1016 -109 783 600 
Q 550 1309 550 2009 
Q 550 2706 781 3412 
Q 1013 4119 1484 4856 
L 1984 4856 
z
" transform="scale(0.015625)"/>
       <path id="DejaVuSans-64" d="M 2906 2969 
L 2906 4863 
L 3481 4863 
L 3481 0 
L 2906 0 
L 2906 525 
Q 2725 213 2448 61 
Q 2172 -91 1784 -91 
Q 1150 -91 751 415 
Q 353 922 353 1747 
Q 353 2572 751 3078 
Q 1150 3584 1784 3584 
Q 2172 3584 2448 3432 
Q 2725 3281 2906 2969 
z
M 947 1747 
Q 947 1113 1208 752 
Q 1469 391 1925 391 
Q 2381 391 2643 752 
Q 2906 1113 2906 1747 
Q 2906 2381 2643 2742 
Q 2381 3103 1925 3103 
Q 1469 3103 1208 2742 
Q 947 2381 947 1747 
z
" transform="scale(0.015625)"/>
       <path id="DejaVuSans-61" d="M 2194 1759 
Q 1497 1759 1228 1600 
Q 959 1441 959 1056 
Q 959 750 1161 570 
Q 1363 391 1709 391 
Q 2188 391 2477 730 
Q 2766 1069 2766 1631 
L 2766 1759 
L 2194 1759 
z
M 3341 1997 
L 3341 0 
L 2766 0 
L 2766 531 
Q 2569 213 2275 61 
Q 1981 -91 1556 -91 
Q 1019 -91 701 211 
Q 384 513 384 1019 
Q 384 1609 779 1909 
Q 1175 2209 1959 2209 
L 2766 2209 
L 2766 2266 
Q 2766 2663 2505 2880 
Q 2244 3097 1772 3097 
Q 1472 3097 1187 3025 
Q 903 2953 641 2809 
L 641 3341 
Q 956 3463 1253 3523 
Q 1550 3584 1831 3584 
Q 2591 3584 2966 3190 
Q 3341 2797 3341 1997 
z
" transform="scale(0.015625)"/>
       <path id="DejaVuSans-79" d="M 2059 -325 
Q 1816 -950 1584 -1140 
Q 1353 -1331 966 -1331 
L 506 -1331 
L 506 -850 
L 844 -850 
Q 1081 -850 1212 -737 
Q 1344 -625 1503 -206 
L 1606 56 
L 191 3500 
L 800 3500 
L 1894 763 
L 2988 3500 
L 3597 3500 
L 2059 -325 
z
" transform="scale(0.015625)"/>
       <path id="DejaVuSans-73" d="M 2834 3397 
L 2834 2853 
Q 2591 2978 2328 3040 
Q 2066 3103 1784 3103 
Q 1356 3103 1142 2972 
Q 928 2841 928 2578 
Q 928 2378 1081 2264 
Q 1234 2150 1697 2047 
L 1894 2003 
Q 2506 1872 2764 1633 
Q 3022 1394 3022 966 
Q 3022 478 2636 193 
Q 2250 -91 1575 -91 
Q 1294 -91 989 -36 
Q 684 19 347 128 
L 347 722 
Q 666 556 975 473 
Q 1284 391 1588 391 
Q 1994 391 2212 530 
Q 2431 669 2431 922 
Q 2431 1156 2273 1281 
Q 2116 1406 1581 1522 
L 1381 1569 
Q 847 1681 609 1914 
Q 372 2147 372 2553 
Q 372 3047 722 3315 
Q 1072 3584 1716 3584 
Q 2034 3584 2315 3537 
Q 2597 3491 2834 3397 
z
" transform="scale(0.015625)"/>
       <path id="DejaVuSans-29" d="M 513 4856 
L 1013 4856 
Q 1481 4119 1714 3412 
Q 1947 2706 1947 2009 
Q 1947 1309 1714 600 
Q 1481 -109 1013 -844 
L 513 -844 
Q 928 -128 1133 580 
Q 1338 1288 1338 2009 
Q 1338 2731 1133 3434 
Q 928 4138 513 4856 
z
" transform="scale(0.015625)"/>
      </defs>
      <use xlink:href="#DejaVuSans-54"/>
      <use xlink:href="#DejaVuSans-69" transform="translate(57.958984 0)"/>
      <use xlink:href="#DejaVuSans-6d" transform="translate(85.742188 0)"/>
      <use xlink:href="#DejaVuSans-65" transform="translate(183.154297 0)"/>
      <use xlink:href="#DejaVuSans-20" transform="translate(244.677734 0)"/>
      <use xlink:href="#DejaVuSans-28" transform="translate(276.464844 0)"/>
      <use xlink:href="#DejaVuSans-64" transform="translate(315.478516 0)"/>
      <use xlink:href="#DejaVuSans-61" transform="translate(378.955078 0)"/>
      <use xlink:href="#DejaVuSans-79" transform="translate(440.234375 0)"/>
      <use xlink:href="#DejaVuSans-73" transform="translate(499.414062 0)"/>
      <use xlink:href="#DejaVuSans-29" transform="translate(551.513672 0)"/>
     </g>
    </g>
   </g>
   <g id="matplotlib.axis_2">
    <g id="ytick_1">
     <g id="line2d_13">
      <path d="M 39.632812 178.36 
L 277.902813 178.36 
" clip-path="url(#pa8f3b082ca)" style="fill: none; stroke: #cccccc; stroke-opacity: 0.3; stroke-width: 0.5; stroke-linecap: round"/>
     </g>
     <g id="line2d_14">
      <defs>
       <path id="m83e5cea30e" d="M 0 0 
L -3.5 0 
" style="stroke: #262626; stroke-width: 0.8"/>
      </defs>
      <g>
       <use xlink:href="#m83e5cea30e" x="39.632812" y="178.36" style="fill: #262626; stroke: #262626; stroke-width: 0.8"/>
      </g>
     </g>
     <g id="text_8">
      <!-- 0.0 -->
      <g style="fill: #262626" transform="translate(19.910312 181.399375) scale(0.08 -0.08)">
       <defs>
        <path id="DejaVuSans-2e" d="M 684 794 
L 1344 794 
L 1344 0 
L 684 0 
L 684 794 
z
" transform="scale(0.015625)"/>
       </defs>
       <use xlink:href="#DejaVuSans-30"/>
       <use xlink:href="#DejaVuSans-2e" transform="translate(63.623047 0)"/>
       <use xlink:href="#DejaVuSans-30" transform="translate(95.410156 0)"/>
      </g>
     </g>
    </g>
    <g id="ytick_2">
     <g id="line2d_15">
      <path d="M 39.632812 145.758095 
L 277.902813 145.758095 
" clip-path="url(#pa8f3b082ca)" style="fill: none; stroke: #cccccc; stroke-opacity: 0.3; stroke-width: 0.5; stroke-linecap: round"/>
     </g>
     <g id="line2d_16">
      <g>
       <use xlink:href="#m83e5cea30e" x="39.632812" y="145.758095" style="fill: #262626; stroke: #262626; stroke-width: 0.8"/>
      </g>
     </g>
     <g id="text_9">
      <!-- 0.2 -->
      <g style="fill: #262626" transform="translate(19.910312 148.79747) scale(0.08 -0.08)">
       <use xlink:href="#DejaVuSans-30"/>
       <use xlink:href="#DejaVuSans-2e" transform="translate(63.623047 0)"/>
       <use xlink:href="#DejaVuSans-32" transform="translate(95.410156 0)"/>
      </g>
     </g>
    </g>
    <g id="ytick_3">
     <g id="line2d_17">
      <path d="M 39.632812 113.15619 
L 277.902813 113.15619 
" clip-path="url(#pa8f3b082ca)" style="fill: none; stroke: #cccccc; stroke-opacity: 0.3; stroke-width: 0.5; stroke-linecap: round"/>
     </g>
     <g id="line2d_18">
      <g>
       <use xlink:href="#m83e5cea30e" x="39.632812" y="113.15619" style="fill: #262626; stroke: #262626; stroke-width: 0.8"/>
      </g>
     </g>
     <g id="text_10">
      <!-- 0.4 -->
      <g style="fill: #262626" transform="translate(19.910312 116.195565) scale(0.08 -0.08)">
       <use xlink:href="#DejaVuSans-30"/>
       <use xlink:href="#DejaVuSans-2e" transform="translate(63.623047 0)"/>
       <use xlink:href="#DejaVuSans-34" transform="translate(95.410156 0)"/>
      </g>
     </g>
    </g>
    <g id="ytick_4">
     <g id="line2d_19">
      <path d="M 39.632812 80.554286 
L 277.902813 80.554286 
" clip-path="url(#pa8f3b082ca)" style="fill: none; stroke: #cccccc; stroke-opacity: 0.3; stroke-width: 0.5; stroke-linecap: round"/>
     </g>
     <g id="line2d_20">
      <g>
       <use xlink:href="#m83e5cea30e" x="39.632812" y="80.554286" style="fill: #262626; stroke: #262626; stroke-width: 0.8"/>
      </g>
     </g>
     <g id="text_11">
      <!-- 0.6 -->
      <g style="fill: #262626" transform="translate(19.910312 83.593661) scale(0.08 -0.08)">
       <defs>
        <path id="DejaVuSans-36" d="M 2113 2584 
Q 1688 2584 1439 2293 
Q 1191 2003 1191 1497 
Q 1191 994 1439 701 
Q 1688 409 2113 409 
Q 2538 409 2786 701 
Q 3034 994 3034 1497 
Q 3034 2003 2786 2293 
Q 2538 2584 2113 2584 
z
M 3366 4563 
L 3366 3988 
Q 3128 4100 2886 4159 
Q 2644 4219 2406 4219 
Q 1781 4219 1451 3797 
Q 1122 3375 1075 2522 
Q 1259 2794 1537 2939 
Q 1816 3084 2150 3084 
Q 2853 3084 3261 2657 
Q 3669 2231 3669 1497 
Q 3669 778 3244 343 
Q 2819 -91 2113 -91 
Q 1303 -91 875 529 
Q 447 1150 447 2328 
Q 447 3434 972 4092 
Q 1497 4750 2381 4750 
Q 2619 4750 2861 4703 
Q 3103 4656 3366 4563 
z
" transform="scale(0.015625)"/>
       </defs>
       <use xlink:href="#DejaVuSans-30"/>
       <use xlink:href="#DejaVuSans-2e" transform="translate(63.623047 0)"/>
       <use xlink:href="#DejaVuSans-36" transform="translate(95.410156 0)"/>
      </g>
     </g>
    </g>
    <g id="ytick_5">
     <g id="line2d_21">
      <path d="M 39.632812 47.952381 
L 277.902813 47.952381 
" clip-path="url(#pa8f3b082ca)" style="fill: none; stroke: #cccccc; stroke-opacity: 0.3; stroke-width: 0.5; stroke-linecap: round"/>
     </g>
     <g id="line2d_22">
      <g>
       <use xlink:href="#m83e5cea30e" x="39.632812" y="47.952381" style="fill: #262626; stroke: #262626; stroke-width: 0.8"/>
      </g>
     </g>
     <g id="text_12">
      <!-- 0.8 -->
      <g style="fill: #262626" transform="translate(19.910312 50.991756) scale(0.08 -0.08)">
       <defs>
        <path id="DejaVuSans-38" d="M 2034 2216 
Q 1584 2216 1326 1975 
Q 1069 1734 1069 1313 
Q 1069 891 1326 650 
Q 1584 409 2034 409 
Q 2484 409 2743 651 
Q 3003 894 3003 1313 
Q 3003 1734 2745 1975 
Q 2488 2216 2034 2216 
z
M 1403 2484 
Q 997 2584 770 2862 
Q 544 3141 544 3541 
Q 544 4100 942 4425 
Q 1341 4750 2034 4750 
Q 2731 4750 3128 4425 
Q 3525 4100 3525 3541 
Q 3525 3141 3298 2862 
Q 3072 2584 2669 2484 
Q 3125 2378 3379 2068 
Q 3634 1759 3634 1313 
Q 3634 634 3220 271 
Q 2806 -91 2034 -91 
Q 1263 -91 848 271 
Q 434 634 434 1313 
Q 434 1759 690 2068 
Q 947 2378 1403 2484 
z
M 1172 3481 
Q 1172 3119 1398 2916 
Q 1625 2713 2034 2713 
Q 2441 2713 2670 2916 
Q 2900 3119 2900 3481 
Q 2900 3844 2670 4047 
Q 2441 4250 2034 4250 
Q 1625 4250 1398 4047 
Q 1172 3844 1172 3481 
z
" transform="scale(0.015625)"/>
       </defs>
       <use xlink:href="#DejaVuSans-30"/>
       <use xlink:href="#DejaVuSans-2e" transform="translate(63.623047 0)"/>
       <use xlink:href="#DejaVuSans-38" transform="translate(95.410156 0)"/>
      </g>
     </g>
    </g>
    <g id="ytick_6">
     <g id="line2d_23">
      <path d="M 39.632812 15.350476 
L 277.902813 15.350476 
" clip-path="url(#pa8f3b082ca)" style="fill: none; stroke: #cccccc; stroke-opacity: 0.3; stroke-width: 0.5; stroke-linecap: round"/>
     </g>
     <g id="line2d_24">
      <g>
       <use xlink:href="#m83e5cea30e" x="39.632812" y="15.350476" style="fill: #262626; stroke: #262626; stroke-width: 0.8"/>
      </g>
     </g>
     <g id="text_13">
      <!-- 1.0 -->
      <g style="fill: #262626" transform="translate(19.910312 18.389851) scale(0.08 -0.08)">
       <use xlink:href="#DejaVuSans-31"/>
       <use xlink:href="#DejaVuSans-2e" transform="translate(63.623047 0)"/>
       <use xlink:href="#DejaVuSans-30" transform="translate(95.410156 0)"/>
      </g>
     </g>
    </g>
    <g id="text_14">
     <!-- Survival probability -->
     <g style="fill: #262626" transform="translate(14.038594 136.361797) rotate(-90) scale(0.09 -0.09)">
      <defs>
       <path id="DejaVuSans-53" d="M 3425 4513 
L 3425 3897 
Q 3066 4069 2747 4153 
Q 2428 4238 2131 4238 
Q 1616 4238 1336 4038 
Q 1056 3838 1056 3469 
Q 1056 3159 1242 3001 
Q 1428 2844 1947 2747 
L 2328 2669 
Q 3034 2534 3370 2195 
Q 3706 1856 3706 1288 
Q 3706 609 3251 259 
Q 2797 -91 1919 -91 
Q 1588 -91 1214 -16 
Q 841 59 441 206 
L 441 856 
Q 825 641 1194 531 
Q 1563 422 1919 422 
Q 2459 422 2753 634 
Q 3047 847 3047 1241 
Q 3047 1584 2836 1778 
Q 2625 1972 2144 2069 
L 1759 2144 
Q 1053 2284 737 2584 
Q 422 2884 422 3419 
Q 422 4038 858 4394 
Q 1294 4750 2059 4750 
Q 2388 4750 2728 4690 
Q 3069 4631 3425 4513 
z
" transform="scale(0.015625)"/>
       <path id="DejaVuSans-75" d="M 544 1381 
L 544 3500 
L 1119 3500 
L 1119 1403 
Q 1119 906 1312 657 
Q 1506 409 1894 409 
Q 2359 409 2629 706 
Q 2900 1003 2900 1516 
L 2900 3500 
L 3475 3500 
L 3475 0 
L 2900 0 
L 2900 538 
Q 2691 219 2414 64 
Q 2138 -91 1772 -91 
Q 1169 -91 856 284 
Q 544 659 544 1381 
z
M 1991 3584 
L 1991 3584 
z
" transform="scale(0.015625)"/>
       <path id="DejaVuSans-72" d="M 2631 2963 
Q 2534 3019 2420 3045 
Q 2306 3072 2169 3072 
Q 1681 3072 1420 2755 
Q 1159 2438 1159 1844 
L 1159 0 
L 581 0 
L 581 3500 
L 1159 3500 
L 1159 2956 
Q 1341 3275 1631 3429 
Q 1922 3584 2338 3584 
Q 2397 3584 2469 3576 
Q 2541 3569 2628 3553 
L 2631 2963 
z
" transform="scale(0.015625)"/>
       <path id="DejaVuSans-76" d="M 191 3500 
L 800 3500 
L 1894 563 
L 2988 3500 
L 3597 3500 
L 2284 0 
L 1503 0 
L 191 3500 
z
" transform="scale(0.015625)"/>
       <path id="DejaVuSans-6c" d="M 603 4863 
L 1178 4863 
L 1178 0 
L 603 0 
L 603 4863 
z
" transform="scale(0.015625)"/>
       <path id="DejaVuSans-70" d="M 1159 525 
L 1159 -1331 
L 581 -1331 
L 581 3500 
L 1159 3500 
L 1159 2969 
Q 1341 3281 1617 3432 
Q 1894 3584 2278 3584 
Q 2916 3584 3314 3078 
Q 3713 2572 3713 1747 
Q 3713 922 3314 415 
Q 2916 -91 2278 -91 
Q 1894 -91 1617 61 
Q 1341 213 1159 525 
z
M 3116 1747 
Q 3116 2381 2855 2742 
Q 2594 3103 2138 3103 
Q 1681 3103 1420 2742 
Q 1159 2381 1159 1747 
Q 1159 1113 1420 752 
Q 1681 391 2138 391 
Q 2594 391 2855 752 
Q 3116 1113 3116 1747 
z
" transform="scale(0.015625)"/>
       <path id="DejaVuSans-6f" d="M 1959 3097 
Q 1497 3097 1228 2736 
Q 959 2375 959 1747 
Q 959 1119 1226 758 
Q 1494 397 1959 397 
Q 2419 397 2687 759 
Q 2956 1122 2956 1747 
Q 2956 2369 2687 2733 
Q 2419 3097 1959 3097 
z
M 1959 3584 
Q 2709 3584 3137 3096 
Q 3566 2609 3566 1747 
Q 3566 888 3137 398 
Q 2709 -91 1959 -91 
Q 1206 -91 779 398 
Q 353 888 353 1747 
Q 353 2609 779 3096 
Q 1206 3584 1959 3584 
z
" transform="scale(0.015625)"/>
       <path id="DejaVuSans-62" d="M 3116 1747 
Q 3116 2381 2855 2742 
Q 2594 3103 2138 3103 
Q 1681 3103 1420 2742 
Q 1159 2381 1159 1747 
Q 1159 1113 1420 752 
Q 1681 391 2138 391 
Q 2594 391 2855 752 
Q 3116 1113 3116 1747 
z
M 1159 2969 
Q 1341 3281 1617 3432 
Q 1894 3584 2278 3584 
Q 2916 3584 3314 3078 
Q 3713 2572 3713 1747 
Q 3713 922 3314 415 
Q 2916 -91 2278 -91 
Q 1894 -91 1617 61 
Q 1341 213 1159 525 
L 1159 0 
L 581 0 
L 581 4863 
L 1159 4863 
L 1159 2969 
z
" transform="scale(0.015625)"/>
       <path id="DejaVuSans-74" d="M 1172 4494 
L 1172 3500 
L 2356 3500 
L 2356 3053 
L 1172 3053 
L 1172 1153 
Q 1172 725 1289 603 
Q 1406 481 1766 481 
L 2356 481 
L 2356 0 
L 1766 0 
Q 1100 0 847 248 
Q 594 497 594 1153 
L 594 3053 
L 172 3053 
L 172 3500 
L 594 3500 
L 594 4494 
L 1172 4494 
z
" transform="scale(0.015625)"/>
      </defs>
      <use xlink:href="#DejaVuSans-53"/>
      <use xlink:href="#DejaVuSans-75" transform="translate(63.476562 0)"/>
      <use xlink:href="#DejaVuSans-72" transform="translate(126.855469 0)"/>
      <use xlink:href="#DejaVuSans-76" transform="translate(167.96875 0)"/>
      <use xlink:href="#DejaVuSans-69" transform="translate(227.148438 0)"/>
      <use xlink:href="#DejaVuSans-76" transform="translate(254.931641 0)"/>
      <use xlink:href="#DejaVuSans-61" transform="translate(314.111328 0)"/>
      <use xlink:href="#DejaVuSans-6c" transform="translate(375.390625 0)"/>
      <use xlink:href="#DejaVuSans-20" transform="translate(403.173828 0)"/>
      <use xlink:href="#DejaVuSans-70" transform="translate(434.960938 0)"/>
      <use xlink:href="#DejaVuSans-72" transform="translate(498.4375 0)"/>
      <use xlink:href="#DejaVuSans-6f" transform="translate(537.300781 0)"/>
      <use xlink:href="#DejaVuSans-62" transform="translate(598.482422 0)"/>
      <use xlink:href="#DejaVuSans-61" transform="translate(661.958984 0)"/>
      <use xlink:href="#DejaVuSans-62" transform="translate(723.238281 0)"/>
      <use xlink:href="#DejaVuSans-69" transform="translate(786.714844 0)"/>
      <use xlink:href="#DejaVuSans-6c" transform="translate(814.498047 0)"/>
      <use xlink:href="#DejaVuSans-69" transform="translate(842.28125 0)"/>
      <use xlink:href="#DejaVuSans-74" transform="translate(870.064453 0)"/>
      <use xlink:href="#DejaVuSans-79" transform="translate(909.273438 0)"/>
     </g>
    </g>
   </g>
   <g id="FillBetweenPolyCollection_1">
    <defs>
     <path id="md5bec7d6c5" d="M 36.758681 -197.662336 
L 36.758681 -197.662336 
L 40.21662 -197.662336 
L 40.21662 -197.662336 
L 40.306437 -197.662336 
L 40.306437 -197.662336 
L 40.396254 -197.662336 
L 40.396254 -197.662336 
L 40.530979 -197.662336 
L 40.530979 -197.662336 
L 41.204603 -197.662336 
L 41.204603 -197.662336 
L 41.698595 -197.662336 
L 41.698595 -197.662336 
L 42.192586 -197.662336 
L 42.192586 -191.907045 
L 42.506944 -191.907045 
L 42.506944 -191.907045 
L 42.551852 -191.907045 
L 42.551852 -191.161281 
L 42.641669 -191.161281 
L 42.641669 -191.161281 
L 42.686577 -191.161281 
L 42.686577 -190.087278 
L 43.40511 -190.087278 
L 43.40511 -190.087278 
L 43.899102 -190.087278 
L 43.899102 -190.087278 
L 44.078735 -190.087278 
L 44.078735 -188.94575 
L 44.348185 -188.94575 
L 44.348185 -188.94575 
L 44.887084 -188.94575 
L 44.887084 -188.94575 
L 45.425984 -188.94575 
L 45.425984 -188.94575 
L 46.548692 -188.94575 
L 46.548692 -187.783919 
L 46.728325 -187.783919 
L 46.728325 -187.783919 
L 46.952866 -187.783919 
L 46.952866 -186.63349 
L 48.120482 -186.63349 
L 48.120482 -186.63349 
L 48.210299 -186.63349 
L 48.210299 -185.493781 
L 48.614474 -185.493781 
L 48.614474 -184.372768 
L 48.839015 -184.372768 
L 48.839015 -183.267779 
L 49.692273 -183.267779 
L 49.692273 -183.267779 
L 50.276081 -183.267779 
L 50.276081 -182.167829 
L 50.904797 -182.167829 
L 50.904797 -182.167829 
L 51.039522 -182.167829 
L 51.039522 -181.071934 
L 51.937688 -181.071934 
L 51.937688 -179.987915 
L 52.117322 -179.987915 
L 52.117322 -178.914463 
L 52.790946 -178.914463 
L 52.790946 -178.914463 
L 54.183104 -178.914463 
L 54.183104 -177.842078 
L 54.452554 -177.842078 
L 54.452554 -177.842078 
L 55.126178 -177.842078 
L 55.126178 -177.842078 
L 55.844711 -177.842078 
L 55.844711 -177.842078 
L 55.889619 -177.842078 
L 55.889619 -176.735224 
L 55.979436 -176.735224 
L 55.979436 -175.638261 
L 56.159069 -175.638261 
L 56.159069 -175.638261 
L 56.203977 -175.638261 
L 56.203977 -175.638261 
L 56.248886 -175.638261 
L 56.248886 -174.523251 
L 56.338702 -174.523251 
L 56.338702 -174.523251 
L 56.383611 -174.523251 
L 56.383611 -174.523251 
L 56.518336 -174.523251 
L 56.518336 -174.523251 
L 56.653061 -174.523251 
L 56.653061 -174.523251 
L 56.832694 -174.523251 
L 56.832694 -174.523251 
L 56.877602 -174.523251 
L 56.877602 -174.523251 
L 57.102144 -174.523251 
L 57.102144 -174.523251 
L 57.281777 -174.523251 
L 57.281777 -173.329358 
L 57.326685 -173.329358 
L 57.326685 -173.329358 
L 57.506318 -173.329358 
L 57.506318 -173.329358 
L 57.596135 -173.329358 
L 57.596135 -172.114998 
L 57.955401 -172.114998 
L 57.955401 -170.912091 
L 58.179943 -170.912091 
L 58.179943 -168.536317 
L 58.26976 -168.536317 
L 58.26976 -167.361719 
L 58.314668 -167.361719 
L 58.314668 -167.361719 
L 58.718843 -167.361719 
L 58.718843 -167.361719 
L 58.853568 -167.361719 
L 58.853568 -167.361719 
L 59.078109 -167.361719 
L 59.078109 -167.361719 
L 60.066092 -167.361719 
L 60.066092 -166.128714 
L 60.155908 -166.128714 
L 60.155908 -166.128714 
L 60.560083 -166.128714 
L 60.560083 -166.128714 
L 60.604991 -166.128714 
L 60.604991 -163.642944 
L 60.694808 -163.642944 
L 60.694808 -163.642944 
L 60.91935 -163.642944 
L 60.91935 -162.388769 
L 60.964258 -162.388769 
L 60.964258 -162.388769 
L 61.054075 -162.388769 
L 61.054075 -162.388769 
L 61.188799 -162.388769 
L 61.188799 -162.388769 
L 61.233708 -162.388769 
L 61.233708 -162.388769 
L 61.368433 -162.388769 
L 61.368433 -162.388769 
L 61.862424 -162.388769 
L 61.862424 -162.388769 
L 62.22169 -162.388769 
L 62.22169 -162.388769 
L 62.401324 -162.388769 
L 62.401324 -162.388769 
L 62.446232 -162.388769 
L 62.446232 -161.022141 
L 63.164765 -161.022141 
L 63.164765 -161.022141 
L 63.703665 -161.022141 
L 63.703665 -161.022141 
L 63.83839 -161.022141 
L 63.83839 -161.022141 
L 63.883298 -161.022141 
L 63.883298 -161.022141 
L 63.973114 -161.022141 
L 63.973114 -161.022141 
L 64.062931 -161.022141 
L 64.062931 -159.573344 
L 64.152748 -159.573344 
L 64.152748 -159.573344 
L 64.197656 -159.573344 
L 64.197656 -158.120846 
L 64.332381 -158.120846 
L 64.332381 -156.680728 
L 64.781464 -156.680728 
L 64.781464 -156.680728 
L 64.871281 -156.680728 
L 64.871281 -156.680728 
L 65.320364 -156.680728 
L 65.320364 -156.680728 
L 65.365272 -156.680728 
L 65.365272 -156.680728 
L 65.589813 -156.680728 
L 65.589813 -156.680728 
L 65.634722 -156.680728 
L 65.634722 -155.14461 
L 65.724538 -155.14461 
L 65.724538 -155.14461 
L 65.769447 -155.14461 
L 65.769447 -155.14461 
L 66.038897 -155.14461 
L 66.038897 -155.14461 
L 66.263438 -155.14461 
L 66.263438 -153.562699 
L 66.667613 -153.562699 
L 66.667613 -151.995145 
L 66.712521 -151.995145 
L 66.712521 -151.995145 
L 67.026879 -151.995145 
L 67.026879 -151.995145 
L 67.386146 -151.995145 
L 67.386146 -151.995145 
L 68.194495 -151.995145 
L 68.194495 -151.995145 
L 68.284312 -151.995145 
L 68.284312 -151.995145 
L 68.374128 -151.995145 
L 68.374128 -151.995145 
L 68.419037 -151.995145 
L 68.419037 -151.995145 
L 68.463945 -151.995145 
L 68.463945 -151.995145 
L 68.643578 -151.995145 
L 68.643578 -151.995145 
L 68.733395 -151.995145 
L 68.733395 -151.995145 
L 68.778303 -151.995145 
L 68.778303 -151.995145 
L 69.496836 -151.995145 
L 69.496836 -150.180538 
L 70.395002 -150.180538 
L 70.395002 -148.358905 
L 70.664452 -148.358905 
L 70.664452 -148.358905 
L 70.888994 -148.358905 
L 70.888994 -146.528694 
L 71.023719 -146.528694 
L 71.023719 -146.528694 
L 71.607526 -146.528694 
L 71.607526 -144.688433 
L 72.595509 -144.688433 
L 72.595509 -142.866765 
L 73.314042 -142.866765 
L 73.314042 -142.866765 
L 73.673309 -142.866765 
L 73.673309 -142.866765 
L 74.346933 -142.866765 
L 74.346933 -142.866765 
L 74.796016 -142.866765 
L 74.796016 -142.866765 
L 75.065466 -142.866765 
L 75.065466 -142.866765 
L 75.469641 -142.866765 
L 75.469641 -142.866765 
L 75.514549 -142.866765 
L 75.514549 -142.866765 
L 76.143265 -142.866765 
L 76.143265 -142.866765 
L 76.457624 -142.866765 
L 76.457624 -142.866765 
L 76.996523 -142.866765 
L 76.996523 -142.866765 
L 77.445606 -142.866765 
L 77.445606 -142.866765 
L 77.849781 -142.866765 
L 77.849781 -142.866765 
L 78.837764 -142.866765 
L 78.837764 -142.866765 
L 79.73593 -142.866765 
L 79.73593 -142.866765 
L 80.00538 -142.866765 
L 80.00538 -142.866765 
L 80.319738 -142.866765 
L 80.319738 -142.866765 
L 82.071162 -142.866765 
L 82.071162 -142.866765 
L 84.675844 -142.866765 
L 84.675844 -142.866765 
L 85.84346 -142.866765 
L 85.84346 -142.866765 
L 86.696717 -142.866765 
L 86.696717 -142.866765 
L 87.774517 -142.866765 
L 87.774517 -142.866765 
L 88.582866 -142.866765 
L 88.582866 -142.866765 
L 89.391216 -142.866765 
L 89.391216 -142.866765 
L 89.481032 -142.866765 
L 89.481032 -142.866765 
L 90.244474 -142.866765 
L 90.244474 -142.866765 
L 92.669522 -142.866765 
L 92.669522 -142.866765 
L 92.894064 -142.866765 
L 92.894064 -142.866765 
L 94.376038 -142.866765 
L 94.376038 -142.866765 
L 99.181226 -142.866765 
L 99.181226 -142.866765 
L 100.259026 -142.866765 
L 100.259026 -142.866765 
L 101.157192 -142.866765 
L 101.157192 -142.866765 
L 103.537332 -142.866765 
L 103.537332 -139.226865 
L 104.92949 -139.226865 
L 104.92949 -139.226865 
L 104.974398 -139.226865 
L 104.974398 -139.226865 
L 105.198939 -139.226865 
L 105.198939 -139.226865 
L 106.052197 -139.226865 
L 106.052197 -139.226865 
L 108.297613 -139.226865 
L 108.297613 -139.226865 
L 108.881421 -139.226865 
L 108.881421 -139.226865 
L 109.734678 -139.226865 
L 109.734678 -139.226865 
L 110.677753 -139.226865 
L 110.677753 -139.226865 
L 111.665736 -139.226865 
L 111.665736 -139.226865 
L 113.686609 -139.226865 
L 113.686609 -139.226865 
L 116.336199 -139.226865 
L 116.336199 -139.226865 
L 116.605649 -139.226865 
L 116.605649 -139.226865 
L 118.71634 -139.226865 
L 118.71634 -139.226865 
L 119.839047 -139.226865 
L 119.839047 -139.226865 
L 120.647397 -139.226865 
L 120.647397 -133.310071 
L 121.815013 -133.310071 
L 121.815013 -133.310071 
L 124.240061 -133.310071 
L 124.240061 -133.310071 
L 125.497494 -133.310071 
L 125.497494 -133.310071 
L 127.069285 -133.310071 
L 127.069285 -133.310071 
L 127.159101 -133.310071 
L 127.159101 -133.310071 
L 127.293826 -133.310071 
L 127.293826 -133.310071 
L 129.808691 -133.310071 
L 129.808691 -133.310071 
L 129.8536 -133.310071 
L 129.8536 -133.310071 
L 130.527224 -133.310071 
L 130.527224 -133.310071 
L 130.661949 -133.310071 
L 130.661949 -133.310071 
L 134.34443 -133.310071 
L 134.34443 -133.310071 
L 142.607559 -133.310071 
L 142.607559 -133.310071 
L 143.460816 -133.310071 
L 143.460816 -133.310071 
L 144.269166 -133.310071 
L 144.269166 -133.310071 
L 145.257149 -133.310071 
L 145.257149 -133.310071 
L 146.514581 -133.310071 
L 146.514581 -133.310071 
L 148.445638 -133.310071 
L 148.445638 -133.310071 
L 157.517116 -133.310071 
L 157.517116 -133.310071 
L 158.909274 -133.310071 
L 158.909274 -133.310071 
L 161.019964 -133.310071 
L 161.019964 -133.310071 
L 164.926987 -133.310071 
L 164.926987 -133.310071 
L 169.238184 -133.310071 
L 169.238184 -133.310071 
L 172.741032 -133.310071 
L 172.741032 -133.310071 
L 174.851722 -133.310071 
L 174.851722 -133.310071 
L 193.21922 -133.310071 
L 193.21922 -133.310071 
L 211.047817 -133.310071 
L 211.047817 -133.310071 
L 218.412779 -133.310071 
L 218.412779 -133.310071 
L 262.692369 -133.310071 
L 262.692369 -133.310071 
L 266.419759 -133.310071 
L 266.419759 -133.310071 
L 266.419759 -162.147085 
L 266.419759 -162.147085 
L 266.419759 -162.147085 
L 262.692369 -162.147085 
L 262.692369 -162.147085 
L 218.412779 -162.147085 
L 218.412779 -162.147085 
L 211.047817 -162.147085 
L 211.047817 -162.147085 
L 193.21922 -162.147085 
L 193.21922 -162.147085 
L 174.851722 -162.147085 
L 174.851722 -162.147085 
L 172.741032 -162.147085 
L 172.741032 -162.147085 
L 169.238184 -162.147085 
L 169.238184 -162.147085 
L 164.926987 -162.147085 
L 164.926987 -162.147085 
L 161.019964 -162.147085 
L 161.019964 -162.147085 
L 158.909274 -162.147085 
L 158.909274 -162.147085 
L 157.517116 -162.147085 
L 157.517116 -162.147085 
L 148.445638 -162.147085 
L 148.445638 -162.147085 
L 146.514581 -162.147085 
L 146.514581 -162.147085 
L 145.257149 -162.147085 
L 145.257149 -162.147085 
L 144.269166 -162.147085 
L 144.269166 -162.147085 
L 143.460816 -162.147085 
L 143.460816 -162.147085 
L 142.607559 -162.147085 
L 142.607559 -162.147085 
L 134.34443 -162.147085 
L 134.34443 -162.147085 
L 130.661949 -162.147085 
L 130.661949 -162.147085 
L 130.527224 -162.147085 
L 130.527224 -162.147085 
L 129.8536 -162.147085 
L 129.8536 -162.147085 
L 129.808691 -162.147085 
L 129.808691 -162.147085 
L 127.293826 -162.147085 
L 127.293826 -162.147085 
L 127.159101 -162.147085 
L 127.159101 -162.147085 
L 127.069285 -162.147085 
L 127.069285 -162.147085 
L 125.497494 -162.147085 
L 125.497494 -162.147085 
L 124.240061 -162.147085 
L 124.240061 -162.147085 
L 121.815013 -162.147085 
L 121.815013 -162.147085 
L 120.647397 -162.147085 
L 120.647397 -164.569709 
L 119.839047 -164.569709 
L 119.839047 -164.569709 
L 118.71634 -164.569709 
L 118.71634 -164.569709 
L 116.605649 -164.569709 
L 116.605649 -164.569709 
L 116.336199 -164.569709 
L 116.336199 -164.569709 
L 113.686609 -164.569709 
L 113.686609 -164.569709 
L 111.665736 -164.569709 
L 111.665736 -164.569709 
L 110.677753 -164.569709 
L 110.677753 -164.569709 
L 109.734678 -164.569709 
L 109.734678 -164.569709 
L 108.881421 -164.569709 
L 108.881421 -164.569709 
L 108.297613 -164.569709 
L 108.297613 -164.569709 
L 106.052197 -164.569709 
L 106.052197 -164.569709 
L 105.198939 -164.569709 
L 105.198939 -164.569709 
L 104.974398 -164.569709 
L 104.974398 -164.569709 
L 104.92949 -164.569709 
L 104.92949 -164.569709 
L 103.537332 -164.569709 
L 103.537332 -166.48505 
L 101.157192 -166.48505 
L 101.157192 -166.48505 
L 100.259026 -166.48505 
L 100.259026 -166.48505 
L 99.181226 -166.48505 
L 99.181226 -166.48505 
L 94.376038 -166.48505 
L 94.376038 -166.48505 
L 92.894064 -166.48505 
L 92.894064 -166.48505 
L 92.669522 -166.48505 
L 92.669522 -166.48505 
L 90.244474 -166.48505 
L 90.244474 -166.48505 
L 89.481032 -166.48505 
L 89.481032 -166.48505 
L 89.391216 -166.48505 
L 89.391216 -166.48505 
L 88.582866 -166.48505 
L 88.582866 -166.48505 
L 87.774517 -166.48505 
L 87.774517 -166.48505 
L 86.696717 -166.48505 
L 86.696717 -166.48505 
L 85.84346 -166.48505 
L 85.84346 -166.48505 
L 84.675844 -166.48505 
L 84.675844 -166.48505 
L 82.071162 -166.48505 
L 82.071162 -166.48505 
L 80.319738 -166.48505 
L 80.319738 -166.48505 
L 80.00538 -166.48505 
L 80.00538 -166.48505 
L 79.73593 -166.48505 
L 79.73593 -166.48505 
L 78.837764 -166.48505 
L 78.837764 -166.48505 
L 77.849781 -166.48505 
L 77.849781 -166.48505 
L 77.445606 -166.48505 
L 77.445606 -166.48505 
L 76.996523 -166.48505 
L 76.996523 -166.48505 
L 76.457624 -166.48505 
L 76.457624 -166.48505 
L 76.143265 -166.48505 
L 76.143265 -166.48505 
L 75.514549 -166.48505 
L 75.514549 -166.48505 
L 75.469641 -166.48505 
L 75.469641 -166.48505 
L 75.065466 -166.48505 
L 75.065466 -166.48505 
L 74.796016 -166.48505 
L 74.796016 -166.48505 
L 74.346933 -166.48505 
L 74.346933 -166.48505 
L 73.673309 -166.48505 
L 73.673309 -166.48505 
L 73.314042 -166.48505 
L 73.314042 -166.48505 
L 72.595509 -166.48505 
L 72.595509 -167.799932 
L 71.607526 -167.799932 
L 71.607526 -169.103148 
L 71.023719 -169.103148 
L 71.023719 -169.103148 
L 70.888994 -169.103148 
L 70.888994 -170.382074 
L 70.664452 -170.382074 
L 70.664452 -170.382074 
L 70.395002 -170.382074 
L 70.395002 -171.637034 
L 69.496836 -171.637034 
L 69.496836 -172.868264 
L 68.778303 -172.868264 
L 68.778303 -172.868264 
L 68.733395 -172.868264 
L 68.733395 -172.868264 
L 68.643578 -172.868264 
L 68.643578 -172.868264 
L 68.463945 -172.868264 
L 68.463945 -172.868264 
L 68.419037 -172.868264 
L 68.419037 -172.868264 
L 68.374128 -172.868264 
L 68.374128 -172.868264 
L 68.284312 -172.868264 
L 68.284312 -172.868264 
L 68.194495 -172.868264 
L 68.194495 -172.868264 
L 67.386146 -172.868264 
L 67.386146 -172.868264 
L 67.026879 -172.868264 
L 67.026879 -172.868264 
L 66.712521 -172.868264 
L 66.712521 -172.868264 
L 66.667613 -172.868264 
L 66.667613 -173.981173 
L 66.263438 -173.981173 
L 66.263438 -175.084968 
L 66.038897 -175.084968 
L 66.038897 -175.084968 
L 65.769447 -175.084968 
L 65.769447 -175.084968 
L 65.724538 -175.084968 
L 65.724538 -175.084968 
L 65.634722 -175.084968 
L 65.634722 -176.154509 
L 65.589813 -176.154509 
L 65.589813 -176.154509 
L 65.365272 -176.154509 
L 65.365272 -176.154509 
L 65.320364 -176.154509 
L 65.320364 -176.154509 
L 64.871281 -176.154509 
L 64.871281 -176.154509 
L 64.781464 -176.154509 
L 64.781464 -176.154509 
L 64.332381 -176.154509 
L 64.332381 -177.169698 
L 64.197656 -177.169698 
L 64.197656 -178.176839 
L 64.152748 -178.176839 
L 64.152748 -178.176839 
L 64.062931 -178.176839 
L 64.062931 -179.168592 
L 63.973114 -179.168592 
L 63.973114 -179.168592 
L 63.883298 -179.168592 
L 63.883298 -179.168592 
L 63.83839 -179.168592 
L 63.83839 -179.168592 
L 63.703665 -179.168592 
L 63.703665 -179.168592 
L 63.164765 -179.168592 
L 63.164765 -179.168592 
L 62.446232 -179.168592 
L 62.446232 -180.113239 
L 62.401324 -180.113239 
L 62.401324 -180.113239 
L 62.22169 -180.113239 
L 62.22169 -180.113239 
L 61.862424 -180.113239 
L 61.862424 -180.113239 
L 61.368433 -180.113239 
L 61.368433 -180.113239 
L 61.233708 -180.113239 
L 61.233708 -180.113239 
L 61.188799 -180.113239 
L 61.188799 -180.113239 
L 61.054075 -180.113239 
L 61.054075 -180.113239 
L 60.964258 -180.113239 
L 60.964258 -180.113239 
L 60.91935 -180.113239 
L 60.91935 -180.998625 
L 60.694808 -180.998625 
L 60.694808 -180.998625 
L 60.604991 -180.998625 
L 60.604991 -182.728686 
L 60.560083 -182.728686 
L 60.560083 -182.728686 
L 60.155908 -182.728686 
L 60.155908 -182.728686 
L 60.066092 -182.728686 
L 60.066092 -183.573558 
L 59.078109 -183.573558 
L 59.078109 -183.573558 
L 58.853568 -183.573558 
L 58.853568 -183.573558 
L 58.718843 -183.573558 
L 58.718843 -183.573558 
L 58.314668 -183.573558 
L 58.314668 -183.573558 
L 58.26976 -183.573558 
L 58.26976 -184.383614 
L 58.179943 -184.383614 
L 58.179943 -185.98337 
L 57.955401 -185.98337 
L 57.955401 -186.772095 
L 57.596135 -186.772095 
L 57.596135 -187.552617 
L 57.506318 -187.552617 
L 57.506318 -187.552617 
L 57.326685 -187.552617 
L 57.326685 -187.552617 
L 57.281777 -187.552617 
L 57.281777 -188.312554 
L 57.102144 -188.312554 
L 57.102144 -188.312554 
L 56.877602 -188.312554 
L 56.877602 -188.312554 
L 56.832694 -188.312554 
L 56.832694 -188.312554 
L 56.653061 -188.312554 
L 56.653061 -188.312554 
L 56.518336 -188.312554 
L 56.518336 -188.312554 
L 56.383611 -188.312554 
L 56.383611 -188.312554 
L 56.338702 -188.312554 
L 56.338702 -188.312554 
L 56.248886 -188.312554 
L 56.248886 -189.031065 
L 56.203977 -189.031065 
L 56.203977 -189.031065 
L 56.159069 -189.031065 
L 56.159069 -189.031065 
L 55.979436 -189.031065 
L 55.979436 -189.731276 
L 55.889619 -189.731276 
L 55.889619 -190.422855 
L 55.844711 -190.422855 
L 55.844711 -190.422855 
L 55.126178 -190.422855 
L 55.126178 -190.422855 
L 54.452554 -190.422855 
L 54.452554 -190.422855 
L 54.183104 -190.422855 
L 54.183104 -191.089787 
L 52.790946 -191.089787 
L 52.790946 -191.089787 
L 52.117322 -191.089787 
L 52.117322 -191.744202 
L 51.937688 -191.744202 
L 51.937688 -192.388059 
L 51.039522 -192.388059 
L 51.039522 -193.020063 
L 50.904797 -193.020063 
L 50.904797 -193.020063 
L 50.276081 -193.020063 
L 50.276081 -193.636069 
L 49.692273 -193.636069 
L 49.692273 -193.636069 
L 48.839015 -193.636069 
L 48.839015 -194.234417 
L 48.614474 -194.234417 
L 48.614474 -194.815186 
L 48.210299 -194.815186 
L 48.210299 -195.374989 
L 48.120482 -195.374989 
L 48.120482 -195.374989 
L 46.952866 -195.374989 
L 46.952866 -195.907206 
L 46.728325 -195.907206 
L 46.728325 -195.907206 
L 46.548692 -195.907206 
L 46.548692 -196.405603 
L 45.425984 -196.405603 
L 45.425984 -196.405603 
L 44.887084 -196.405603 
L 44.887084 -196.405603 
L 44.348185 -196.405603 
L 44.348185 -196.405603 
L 44.078735 -196.405603 
L 44.078735 -196.857541 
L 43.899102 -196.857541 
L 43.899102 -196.857541 
L 43.40511 -196.857541 
L 43.40511 -196.857541 
L 42.686577 -196.857541 
L 42.686577 -197.247916 
L 42.641669 -197.247916 
L 42.641669 -197.247916 
L 42.551852 -197.247916 
L 42.551852 -197.546114 
L 42.506944 -197.546114 
L 42.506944 -197.546114 
L 42.192586 -197.546114 
L 42.192586 -197.662336 
L 41.698595 -197.662336 
L 41.698595 -197.662336 
L 41.204603 -197.662336 
L 41.204603 -197.662336 
L 40.530979 -197.662336 
L 40.530979 -197.662336 
L 40.396254 -197.662336 
L 40.396254 -197.662336 
L 40.306437 -197.662336 
L 40.306437 -197.662336 
L 40.21662 -197.662336 
L 40.21662 -197.662336 
L 36.758681 -197.662336 
z
" style="stroke: #2e86ab; stroke-opacity: 0.2"/>
    </defs>
    <g clip-path="url(#pa8f3b082ca)">
     <use xlink:href="#md5bec7d6c5" x="0" y="213.012812" style="fill: #2e86ab; fill-opacity: 0.2; stroke: #2e86ab; stroke-opacity: 0.2"/>
    </g>
   </g>
   <g id="FillBetweenPolyCollection_2">
    <defs>
     <path id="m8b83101fe2" d="M 39.632812 -197.265081 
L 39.632812 -191.425821 
L 40.48607 -191.425821 
L 40.48607 -190.40192 
L 40.530979 -190.40192 
L 40.530979 -189.344202 
L 40.890245 -189.344202 
L 40.890245 -189.344202 
L 41.29442 -189.344202 
L 41.29442 -189.344202 
L 42.102769 -189.344202 
L 42.102769 -189.344202 
L 42.147678 -189.344202 
L 42.147678 -187.196129 
L 42.282403 -187.196129 
L 42.282403 -187.196129 
L 42.417127 -187.196129 
L 42.417127 -186.137525 
L 42.506944 -186.137525 
L 42.506944 -186.137525 
L 42.731486 -186.137525 
L 42.731486 -185.085908 
L 43.045844 -185.085908 
L 43.045844 -184.048479 
L 43.270385 -184.048479 
L 43.270385 -183.023522 
L 43.315294 -183.023522 
L 43.315294 -183.023522 
L 43.584743 -183.023522 
L 43.584743 -182.001999 
L 43.629652 -182.001999 
L 43.629652 -182.001999 
L 43.67456 -182.001999 
L 43.67456 -180.983236 
L 43.809285 -180.983236 
L 43.809285 -179.974118 
L 44.033827 -179.974118 
L 44.033827 -178.973685 
L 44.393093 -178.973685 
L 44.393093 -177.98114 
L 44.572726 -177.98114 
L 44.572726 -177.98114 
L 44.931993 -177.98114 
L 44.931993 -176.988593 
L 45.111626 -176.988593 
L 45.111626 -176.002929 
L 45.381076 -176.002929 
L 45.381076 -175.023613 
L 45.515801 -175.023613 
L 45.515801 -174.050182 
L 46.009792 -174.050182 
L 46.009792 -173.082233 
L 46.099609 -173.082233 
L 46.099609 -172.11941 
L 46.189425 -172.11941 
L 46.189425 -171.161401 
L 46.32415 -171.161401 
L 46.32415 -170.207926 
L 46.548692 -170.207926 
L 46.548692 -169.258734 
L 46.952866 -169.258734 
L 46.952866 -169.258734 
L 47.177408 -169.258734 
L 47.177408 -167.358651 
L 47.401949 -167.358651 
L 47.401949 -166.414398 
L 47.806124 -166.414398 
L 47.806124 -165.47376 
L 48.030666 -165.47376 
L 48.030666 -165.47376 
L 48.614474 -165.47376 
L 48.614474 -164.529632 
L 48.883924 -164.529632 
L 48.883924 -163.588922 
L 49.108465 -163.588922 
L 49.108465 -162.651485 
L 49.198282 -162.651485 
L 49.198282 -161.717188 
L 49.333007 -161.717188 
L 49.333007 -160.78591 
L 49.51264 -160.78591 
L 49.51264 -159.857538 
L 49.647365 -159.857538 
L 49.647365 -158.931968 
L 50.05154 -158.931968 
L 50.05154 -157.088855 
L 50.680256 -157.088855 
L 50.680256 -156.171139 
L 50.770072 -156.171139 
L 50.770072 -155.255879 
L 50.859889 -155.255879 
L 50.859889 -154.343002 
L 50.904797 -154.343002 
L 50.904797 -153.43244 
L 50.994614 -153.43244 
L 50.994614 -152.52413 
L 51.039522 -152.52413 
L 51.039522 -151.618013 
L 51.219155 -151.618013 
L 51.219155 -150.714031 
L 51.264064 -150.714031 
L 51.264064 -149.812133 
L 51.35388 -149.812133 
L 51.35388 -148.91227 
L 51.398789 -148.91227 
L 51.398789 -148.014394 
L 51.847872 -148.014394 
L 51.847872 -146.224431 
L 51.89278 -146.224431 
L 51.89278 -145.332263 
L 52.027505 -145.332263 
L 52.027505 -145.332263 
L 52.835855 -145.332263 
L 52.835855 -143.538829 
L 53.240029 -143.538829 
L 53.240029 -142.644857 
L 53.599296 -142.644857 
L 53.599296 -141.752669 
L 54.048379 -141.752669 
L 54.048379 -140.862232 
L 54.183104 -140.862232 
L 54.183104 -139.973517 
L 54.362737 -139.973517 
L 54.362737 -139.086494 
L 54.407645 -139.086494 
L 54.407645 -138.201136 
L 54.54237 -138.201136 
L 54.54237 -137.317417 
L 54.587278 -137.317417 
L 54.587278 -137.317417 
L 54.766912 -137.317417 
L 54.766912 -137.317417 
L 54.901637 -137.317417 
L 54.901637 -136.419773 
L 55.08127 -136.419773 
L 55.08127 -134.629589 
L 55.620169 -134.629589 
L 55.620169 -133.736999 
L 55.754894 -133.736999 
L 55.754894 -133.736999 
L 55.979436 -133.736999 
L 55.979436 -133.736999 
L 56.024344 -133.736999 
L 56.024344 -133.736999 
L 56.069253 -133.736999 
L 56.069253 -133.736999 
L 56.248886 -133.736999 
L 56.248886 -132.812628 
L 56.338702 -132.812628 
L 56.338702 -132.812628 
L 56.563244 -132.812628 
L 56.563244 -132.812628 
L 56.787785 -132.812628 
L 56.787785 -132.812628 
L 56.92251 -132.812628 
L 56.92251 -130.915991 
L 56.967419 -130.915991 
L 56.967419 -129.970739 
L 57.057235 -129.970739 
L 57.057235 -129.027489 
L 57.19196 -129.027489 
L 57.19196 -128.086208 
L 57.551227 -128.086208 
L 57.551227 -128.086208 
L 57.865585 -128.086208 
L 57.865585 -127.137311 
L 58.045218 -127.137311 
L 58.045218 -127.137311 
L 58.179943 -127.137311 
L 58.179943 -126.1806 
L 58.26976 -126.1806 
L 58.26976 -126.1806 
L 58.404484 -126.1806 
L 58.404484 -125.215864 
L 59.123017 -125.215864 
L 59.123017 -124.253227 
L 59.257742 -124.253227 
L 59.257742 -123.292658 
L 59.976275 -123.292658 
L 59.976275 -122.334131 
L 60.021183 -122.334131 
L 60.021183 -121.377618 
L 60.066092 -121.377618 
L 60.066092 -121.377618 
L 60.290633 -121.377618 
L 60.290633 -120.412479 
L 60.560083 -120.412479 
L 60.560083 -120.412479 
L 61.413341 -120.412479 
L 61.413341 -120.412479 
L 61.458249 -120.412479 
L 61.458249 -119.415874 
L 61.682791 -119.415874 
L 61.682791 -119.415874 
L 61.727699 -119.415874 
L 61.727699 -118.409815 
L 61.862424 -118.409815 
L 61.862424 -117.406142 
L 62.536049 -117.406142 
L 62.536049 -115.381504 
L 62.625865 -115.381504 
L 62.625865 -115.381504 
L 63.074948 -115.381504 
L 63.074948 -114.360101 
L 63.434215 -114.360101 
L 63.434215 -113.328063 
L 63.613848 -113.328063 
L 63.613848 -112.29861 
L 63.703665 -112.29861 
L 63.703665 -111.271713 
L 63.83839 -111.271713 
L 63.83839 -110.233542 
L 64.062931 -110.233542 
L 64.062931 -109.198001 
L 64.197656 -109.198001 
L 64.197656 -108.165065 
L 65.006005 -108.165065 
L 65.006005 -106.106909 
L 65.455089 -106.106909 
L 65.455089 -105.081646 
L 65.544905 -105.081646 
L 65.544905 -104.058901 
L 65.589813 -104.058901 
L 65.589813 -104.058901 
L 65.67963 -104.058901 
L 65.67963 -104.058901 
L 66.128713 -104.058901 
L 66.128713 -103.007978 
L 66.532888 -103.007978 
L 66.532888 -101.943642 
L 67.116696 -101.943642 
L 67.116696 -100.882221 
L 67.251421 -100.882221 
L 67.251421 -99.823696 
L 67.341237 -99.823696 
L 67.341237 -98.768049 
L 67.610687 -98.768049 
L 67.610687 -97.715265 
L 67.925045 -97.715265 
L 67.925045 -96.665329 
L 68.05977 -96.665329 
L 68.05977 -96.665329 
L 68.86812 -96.665329 
L 68.86812 -95.600419 
L 69.901011 -95.600419 
L 69.901011 -94.538517 
L 70.170461 -94.538517 
L 70.170461 -93.479615 
L 70.619544 -93.479615 
L 70.619544 -92.423705 
L 71.068627 -92.423705 
L 71.068627 -92.423705 
L 71.338077 -92.423705 
L 71.338077 -91.351445 
L 71.921885 -91.351445 
L 71.921885 -90.282374 
L 72.460784 -90.282374 
L 72.460784 -90.282374 
L 72.820051 -90.282374 
L 72.820051 -89.195915 
L 73.808033 -89.195915 
L 73.808033 -89.195915 
L 74.571475 -89.195915 
L 74.571475 -88.091215 
L 75.334916 -88.091215 
L 75.334916 -86.990178 
L 76.098357 -86.990178 
L 76.098357 -86.990178 
L 76.412715 -86.990178 
L 76.412715 -85.86964 
L 76.592348 -85.86964 
L 76.592348 -84.75305 
L 77.131248 -84.75305 
L 77.131248 -83.64041 
L 77.35579 -83.64041 
L 77.35579 -83.64041 
L 78.209047 -83.64041 
L 78.209047 -82.506463 
L 78.433589 -82.506463 
L 78.433589 -81.376813 
L 79.46648 -81.376813 
L 79.46648 -81.376813 
L 79.915563 -81.376813 
L 79.915563 -81.376813 
L 80.229921 -81.376813 
L 80.229921 -80.165585 
L 80.993362 -80.165585 
L 80.993362 -80.165585 
L 81.891529 -80.165585 
L 81.891529 -78.927878 
L 82.250795 -78.927878 
L 82.250795 -77.696303 
L 83.373503 -77.696303 
L 83.373503 -76.470866 
L 84.406394 -76.470866 
L 84.406394 -76.470866 
L 84.720752 -76.470866 
L 84.720752 -75.215859 
L 84.76566 -75.215859 
L 84.76566 -73.967676 
L 84.900385 -73.967676 
L 84.900385 -72.726342 
L 86.157818 -72.726342 
L 86.157818 -71.491897 
L 87.41525 -71.491897 
L 87.41525 -70.264388 
L 87.999058 -70.264388 
L 87.999058 -69.04388 
L 88.762499 -69.04388 
L 88.762499 -69.04388 
L 89.705574 -69.04388 
L 89.705574 -69.04388 
L 91.861173 -69.04388 
L 91.861173 -67.74114 
L 92.355164 -67.74114 
L 92.355164 -67.74114 
L 96.666361 -67.74114 
L 96.666361 -66.396692 
L 100.169209 -66.396692 
L 100.169209 -65.062751 
L 101.022467 -65.062751 
L 101.022467 -63.73943 
L 103.402607 -63.73943 
L 103.402607 -62.426875 
L 107.983254 -62.426875 
L 107.983254 -62.426875 
L 108.701787 -62.426875 
L 108.701787 -62.426875 
L 109.510137 -62.426875 
L 109.510137 -60.996531 
L 112.429177 -60.996531 
L 112.429177 -60.996531 
L 113.237526 -60.996531 
L 113.237526 -60.996531 
L 114.629684 -60.996531 
L 114.629684 -59.42044 
L 116.785282 -59.42044 
L 116.785282 -57.866344 
L 120.108497 -57.866344 
L 120.108497 -57.866344 
L 120.737213 -57.866344 
L 120.737213 -57.866344 
L 122.488637 -57.866344 
L 122.488637 -57.866344 
L 123.566437 -57.866344 
L 123.566437 -55.987011 
L 128.147084 -55.987011 
L 128.147084 -54.150849 
L 130.347591 -54.150849 
L 130.347591 -52.358164 
L 131.42539 -52.358164 
L 131.42539 -52.358164 
L 131.649932 -52.358164 
L 131.649932 -52.358164 
L 135.691679 -52.358164 
L 135.691679 -52.358164 
L 137.398195 -52.358164 
L 137.398195 -52.358164 
L 158.235649 -52.358164 
L 158.235649 -49.261042 
L 166.633502 -49.261042 
L 166.633502 -46.405917 
L 168.429835 -46.405917 
L 168.429835 -46.405917 
L 172.291949 -46.405917 
L 172.291949 -43.203697 
L 182.575951 -43.203697 
L 182.575951 -40.416779 
L 190.704354 -40.416779 
L 190.704354 -40.416779 
L 193.758119 -40.416779 
L 193.758119 -40.416779 
L 211.856167 -40.416779 
L 211.856167 -40.416779 
L 266.015584 -40.416779 
L 266.015584 -40.416779 
L 266.015584 -62.593952 
L 266.015584 -62.593952 
L 266.015584 -62.593952 
L 211.856167 -62.593952 
L 211.856167 -62.593952 
L 193.758119 -62.593952 
L 193.758119 -62.593952 
L 190.704354 -62.593952 
L 190.704354 -62.593952 
L 182.575951 -62.593952 
L 182.575951 -65.989936 
L 172.291949 -65.989936 
L 172.291949 -69.065327 
L 168.429835 -69.065327 
L 168.429835 -69.065327 
L 166.633502 -69.065327 
L 166.633502 -71.793519 
L 158.235649 -71.793519 
L 158.235649 -74.33048 
L 137.398195 -74.33048 
L 137.398195 -74.33048 
L 135.691679 -74.33048 
L 135.691679 -74.33048 
L 131.649932 -74.33048 
L 131.649932 -74.33048 
L 131.42539 -74.33048 
L 131.42539 -74.33048 
L 130.347591 -74.33048 
L 130.347591 -76.309276 
L 128.147084 -76.309276 
L 128.147084 -78.253275 
L 123.566437 -78.253275 
L 123.566437 -80.162823 
L 122.488637 -80.162823 
L 122.488637 -80.162823 
L 120.737213 -80.162823 
L 120.737213 -80.162823 
L 120.108497 -80.162823 
L 120.108497 -80.162823 
L 116.785282 -80.162823 
L 116.785282 -81.855719 
L 114.629684 -81.855719 
L 114.629684 -83.530827 
L 113.237526 -83.530827 
L 113.237526 -83.530827 
L 112.429177 -83.530827 
L 112.429177 -83.530827 
L 109.510137 -83.530827 
L 109.510137 -85.091307 
L 108.701787 -85.091307 
L 108.701787 -85.091307 
L 107.983254 -85.091307 
L 107.983254 -85.091307 
L 103.402607 -85.091307 
L 103.402607 -86.555166 
L 101.022467 -86.555166 
L 101.022467 -88.010085 
L 100.169209 -88.010085 
L 100.169209 -89.456218 
L 96.666361 -89.456218 
L 96.666361 -90.893696 
L 92.355164 -90.893696 
L 92.355164 -90.893696 
L 91.861173 -90.893696 
L 91.861173 -92.288887 
L 89.705574 -92.288887 
L 89.705574 -92.288887 
L 88.762499 -92.288887 
L 88.762499 -92.288887 
L 87.999058 -92.288887 
L 87.999058 -93.615309 
L 87.41525 -93.615309 
L 87.41525 -94.935853 
L 86.157818 -94.935853 
L 86.157818 -96.250592 
L 84.900385 -96.250592 
L 84.900385 -97.559589 
L 84.76566 -97.559589 
L 84.76566 -98.862899 
L 84.720752 -98.862899 
L 84.720752 -100.160568 
L 84.406394 -100.160568 
L 84.406394 -100.160568 
L 83.373503 -100.160568 
L 83.373503 -101.428435 
L 82.250795 -101.428435 
L 82.250795 -102.69122 
L 81.891529 -102.69122 
L 81.891529 -103.94895 
L 80.993362 -103.94895 
L 80.993362 -103.94895 
L 80.229921 -103.94895 
L 80.229921 -105.180039 
L 79.915563 -105.180039 
L 79.915563 -105.180039 
L 79.46648 -105.180039 
L 79.46648 -105.180039 
L 78.433589 -105.180039 
L 78.433589 -106.347115 
L 78.209047 -106.347115 
L 78.209047 -107.510557 
L 77.35579 -107.510557 
L 77.35579 -107.510557 
L 77.131248 -107.510557 
L 77.131248 -108.652567 
L 76.592348 -108.652567 
L 76.592348 -109.791223 
L 76.412715 -109.791223 
L 76.412715 -110.92654 
L 76.098357 -110.92654 
L 76.098357 -110.92654 
L 75.334916 -110.92654 
L 75.334916 -112.042265 
L 74.571475 -112.042265 
L 74.571475 -113.154881 
L 73.808033 -113.154881 
L 73.808033 -113.154881 
L 72.820051 -113.154881 
L 72.820051 -114.249179 
L 72.460784 -114.249179 
L 72.460784 -114.249179 
L 71.921885 -114.249179 
L 71.921885 -115.32602 
L 71.338077 -115.32602 
L 71.338077 -116.400128 
L 71.068627 -116.400128 
L 71.068627 -116.400128 
L 70.619544 -116.400128 
L 70.619544 -117.457826 
L 70.170461 -117.457826 
L 70.170461 -118.512948 
L 69.901011 -118.512948 
L 69.901011 -119.565497 
L 68.86812 -119.565497 
L 68.86812 -120.615472 
L 68.05977 -120.615472 
L 68.05977 -120.615472 
L 67.925045 -120.615472 
L 67.925045 -121.650408 
L 67.610687 -121.650408 
L 67.610687 -122.682897 
L 67.341237 -122.682897 
L 67.341237 -123.712938 
L 67.251421 -123.712938 
L 67.251421 -124.740524 
L 67.116696 -124.740524 
L 67.116696 -125.76565 
L 66.532888 -125.76565 
L 66.532888 -126.788307 
L 66.128713 -126.788307 
L 66.128713 -127.797426 
L 65.67963 -127.797426 
L 65.67963 -127.797426 
L 65.589813 -127.797426 
L 65.589813 -127.797426 
L 65.544905 -127.797426 
L 65.544905 -128.783054 
L 65.455089 -128.783054 
L 65.455089 -129.76651 
L 65.006005 -129.76651 
L 65.006005 -131.726872 
L 64.197656 -131.726872 
L 64.197656 -132.703756 
L 64.062931 -132.703756 
L 64.062931 -133.678424 
L 63.83839 -133.678424 
L 63.83839 -134.650863 
L 63.703665 -134.650863 
L 63.703665 -135.611801 
L 63.613848 -135.611801 
L 63.613848 -136.57057 
L 63.434215 -136.57057 
L 63.434215 -137.527153 
L 63.074948 -137.527153 
L 63.074948 -138.472814 
L 62.625865 -138.472814 
L 62.625865 -138.472814 
L 62.536049 -138.472814 
L 62.536049 -140.34089 
L 61.862424 -140.34089 
L 61.862424 -141.26371 
L 61.727699 -141.26371 
L 61.727699 -142.184495 
L 61.682791 -142.184495 
L 61.682791 -142.184495 
L 61.458249 -142.184495 
L 61.458249 -143.095475 
L 61.413341 -143.095475 
L 61.413341 -143.095475 
L 60.560083 -143.095475 
L 60.560083 -143.095475 
L 60.290633 -143.095475 
L 60.290633 -143.982219 
L 60.066092 -143.982219 
L 60.066092 -143.982219 
L 60.021183 -143.982219 
L 60.021183 -144.860047 
L 59.976275 -144.860047 
L 59.976275 -145.736096 
L 59.257742 -145.736096 
L 59.257742 -146.610347 
L 59.123017 -146.610347 
L 59.123017 -147.482783 
L 58.404484 -147.482783 
L 58.404484 -148.353383 
L 58.26976 -148.353383 
L 58.26976 -148.353383 
L 58.179943 -148.353383 
L 58.179943 -149.215543 
L 58.045218 -149.215543 
L 58.045218 -149.215543 
L 57.865585 -149.215543 
L 57.865585 -150.069469 
L 57.551227 -150.069469 
L 57.551227 -150.069469 
L 57.19196 -150.069469 
L 57.19196 -150.915359 
L 57.057235 -150.915359 
L 57.057235 -151.759493 
L 56.967419 -151.759493 
L 56.967419 -152.601849 
L 56.92251 -152.601849 
L 56.92251 -154.281134 
L 56.787785 -154.281134 
L 56.787785 -154.281134 
L 56.563244 -154.281134 
L 56.563244 -154.281134 
L 56.338702 -154.281134 
L 56.338702 -154.281134 
L 56.248886 -154.281134 
L 56.248886 -155.100773 
L 56.069253 -155.100773 
L 56.069253 -155.100773 
L 56.024344 -155.100773 
L 56.024344 -155.100773 
L 55.979436 -155.100773 
L 55.979436 -155.100773 
L 55.754894 -155.100773 
L 55.754894 -155.100773 
L 55.620169 -155.100773 
L 55.620169 -155.896974 
L 55.08127 -155.896974 
L 55.08127 -157.484632 
L 54.901637 -157.484632 
L 54.901637 -158.276045 
L 54.766912 -158.276045 
L 54.766912 -158.276045 
L 54.587278 -158.276045 
L 54.587278 -158.276045 
L 54.54237 -158.276045 
L 54.54237 -159.055792 
L 54.407645 -159.055792 
L 54.407645 -159.833952 
L 54.362737 -159.833952 
L 54.362737 -160.610499 
L 54.183104 -160.610499 
L 54.183104 -161.385409 
L 54.048379 -161.385409 
L 54.048379 -162.158654 
L 53.599296 -162.158654 
L 53.599296 -162.930205 
L 53.240029 -162.930205 
L 53.240029 -163.700031 
L 52.835855 -163.700031 
L 52.835855 -165.234382 
L 52.027505 -165.234382 
L 52.027505 -165.234382 
L 51.89278 -165.234382 
L 51.89278 -165.994348 
L 51.847872 -165.994348 
L 51.847872 -167.508777 
L 51.398789 -167.508777 
L 51.398789 -168.263162 
L 51.35388 -168.263162 
L 51.35388 -169.015606 
L 51.264064 -169.015606 
L 51.264064 -169.766061 
L 51.219155 -169.766061 
L 51.219155 -170.514482 
L 51.039522 -170.514482 
L 51.039522 -171.260817 
L 50.994614 -171.260817 
L 50.994614 -172.005012 
L 50.904797 -172.005012 
L 50.904797 -172.747011 
L 50.859889 -172.747011 
L 50.859889 -173.486752 
L 50.770072 -173.486752 
L 50.770072 -174.22417 
L 50.680256 -174.22417 
L 50.680256 -174.959197 
L 50.05154 -174.959197 
L 50.05154 -176.421777 
L 49.647365 -176.421777 
L 49.647365 -177.149165 
L 49.51264 -177.149165 
L 49.51264 -177.873834 
L 49.333007 -177.873834 
L 49.333007 -178.595685 
L 49.198282 -178.595685 
L 49.198282 -179.314612 
L 49.108465 -179.314612 
L 49.108465 -180.030502 
L 48.883924 -180.030502 
L 48.883924 -180.743232 
L 48.614474 -180.743232 
L 48.614474 -181.452667 
L 48.030666 -181.452667 
L 48.030666 -181.452667 
L 47.806124 -181.452667 
L 47.806124 -182.155212 
L 47.401949 -182.155212 
L 47.401949 -182.854223 
L 47.177408 -182.854223 
L 47.177408 -184.240942 
L 46.952866 -184.240942 
L 46.952866 -184.240942 
L 46.548692 -184.240942 
L 46.548692 -184.925037 
L 46.32415 -184.925037 
L 46.32415 -185.60488 
L 46.189425 -185.60488 
L 46.189425 -186.280225 
L 46.099609 -186.280225 
L 46.099609 -186.950797 
L 46.009792 -186.950797 
L 46.009792 -187.616285 
L 45.515801 -187.616285 
L 45.515801 -188.276341 
L 45.381076 -188.276341 
L 45.381076 -188.930569 
L 45.111626 -188.930569 
L 45.111626 -189.578518 
L 44.931993 -189.578518 
L 44.931993 -190.219666 
L 44.572726 -190.219666 
L 44.572726 -190.219666 
L 44.393093 -190.219666 
L 44.393093 -190.850734 
L 44.033827 -190.850734 
L 44.033827 -191.473811 
L 43.809285 -191.473811 
L 43.809285 -192.088073 
L 43.67456 -192.088073 
L 43.67456 -192.692534 
L 43.629652 -192.692534 
L 43.629652 -192.692534 
L 43.584743 -192.692534 
L 43.584743 -193.283651 
L 43.315294 -193.283651 
L 43.315294 -193.283651 
L 43.270385 -193.283651 
L 43.270385 -193.860222 
L 43.045844 -193.860222 
L 43.045844 -194.422822 
L 42.731486 -194.422822 
L 42.731486 -194.969101 
L 42.506944 -194.969101 
L 42.506944 -194.969101 
L 42.417127 -194.969101 
L 42.417127 -195.49406 
L 42.282403 -195.49406 
L 42.282403 -195.49406 
L 42.147678 -195.49406 
L 42.147678 -196.46416 
L 42.102769 -196.46416 
L 42.102769 -196.46416 
L 41.29442 -196.46416 
L 41.29442 -196.46416 
L 40.890245 -196.46416 
L 40.890245 -196.46416 
L 40.530979 -196.46416 
L 40.530979 -196.891634 
L 40.48607 -196.891634 
L 40.48607 -197.265081 
L 39.632812 -197.265081 
z
" style="stroke: #e63946; stroke-opacity: 0.2"/>
    </defs>
    <g clip-path="url(#pa8f3b082ca)">
     <use xlink:href="#m8b83101fe2" x="0" y="213.012812" style="fill: #e63946; fill-opacity: 0.2; stroke: #e63946; stroke-opacity: 0.2"/>
    </g>
   </g>
   <g id="line2d_25">
    <defs>
     <path id="ma69aab3d43" d="M -3 3 
L 3 -3 
M -3 -3 
L 3 3 
" style="stroke: #2e86ab"/>
    </defs>
    <g clip-path="url(#pa8f3b082ca)">
     <use xlink:href="#ma69aab3d43" x="36.758681" y="15.350476" style="fill: #2e86ab; stroke: #2e86ab"/>
     <use xlink:href="#ma69aab3d43" x="40.21662" y="15.350476" style="fill: #2e86ab; stroke: #2e86ab"/>
     <use xlink:href="#ma69aab3d43" x="40.306437" y="15.350476" style="fill: #2e86ab; stroke: #2e86ab"/>
     <use xlink:href="#ma69aab3d43" x="40.396254" y="15.350476" style="fill: #2e86ab; stroke: #2e86ab"/>
     <use xlink:href="#ma69aab3d43" x="40.530979" y="15.350476" style="fill: #2e86ab; stroke: #2e86ab"/>
     <use xlink:href="#ma69aab3d43" x="41.204603" y="15.350476" style="fill: #2e86ab; stroke: #2e86ab"/>
     <use xlink:href="#ma69aab3d43" x="41.698595" y="15.350476" style="fill: #2e86ab; stroke: #2e86ab"/>
     <use xlink:href="#ma69aab3d43" x="42.506944" y="16.173757" style="fill: #2e86ab; stroke: #2e86ab"/>
     <use xlink:href="#ma69aab3d43" x="42.641669" y="17.001237" style="fill: #2e86ab; stroke: #2e86ab"/>
     <use xlink:href="#ma69aab3d43" x="42.686577" y="17.832984" style="fill: #2e86ab; stroke: #2e86ab"/>
     <use xlink:href="#ma69aab3d43" x="43.40511" y="17.832984" style="fill: #2e86ab; stroke: #2e86ab"/>
     <use xlink:href="#ma69aab3d43" x="43.899102" y="17.832984" style="fill: #2e86ab; stroke: #2e86ab"/>
     <use xlink:href="#ma69aab3d43" x="44.348185" y="18.677863" style="fill: #2e86ab; stroke: #2e86ab"/>
     <use xlink:href="#ma69aab3d43" x="44.887084" y="18.677863" style="fill: #2e86ab; stroke: #2e86ab"/>
     <use xlink:href="#ma69aab3d43" x="45.425984" y="18.677863" style="fill: #2e86ab; stroke: #2e86ab"/>
     <use xlink:href="#ma69aab3d43" x="46.728325" y="19.536369" style="fill: #2e86ab; stroke: #2e86ab"/>
     <use xlink:href="#ma69aab3d43" x="48.120482" y="20.399541" style="fill: #2e86ab; stroke: #2e86ab"/>
     <use xlink:href="#ma69aab3d43" x="49.692273" y="23.003285" style="fill: #2e86ab; stroke: #2e86ab"/>
     <use xlink:href="#ma69aab3d43" x="50.904797" y="23.876075" style="fill: #2e86ab; stroke: #2e86ab"/>
     <use xlink:href="#ma69aab3d43" x="52.790946" y="26.509324" style="fill: #2e86ab; stroke: #2e86ab"/>
     <use xlink:href="#ma69aab3d43" x="54.452554" y="27.392177" style="fill: #2e86ab; stroke: #2e86ab"/>
     <use xlink:href="#ma69aab3d43" x="55.126178" y="27.392177" style="fill: #2e86ab; stroke: #2e86ab"/>
     <use xlink:href="#ma69aab3d43" x="55.844711" y="27.392177" style="fill: #2e86ab; stroke: #2e86ab"/>
     <use xlink:href="#ma69aab3d43" x="56.159069" y="29.211066" style="fill: #2e86ab; stroke: #2e86ab"/>
     <use xlink:href="#ma69aab3d43" x="56.203977" y="29.211066" style="fill: #2e86ab; stroke: #2e86ab"/>
     <use xlink:href="#ma69aab3d43" x="56.248886" y="30.137457" style="fill: #2e86ab; stroke: #2e86ab"/>
     <use xlink:href="#ma69aab3d43" x="56.338702" y="30.137457" style="fill: #2e86ab; stroke: #2e86ab"/>
     <use xlink:href="#ma69aab3d43" x="56.383611" y="30.137457" style="fill: #2e86ab; stroke: #2e86ab"/>
     <use xlink:href="#ma69aab3d43" x="56.518336" y="30.137457" style="fill: #2e86ab; stroke: #2e86ab"/>
     <use xlink:href="#ma69aab3d43" x="56.653061" y="30.137457" style="fill: #2e86ab; stroke: #2e86ab"/>
     <use xlink:href="#ma69aab3d43" x="56.832694" y="30.137457" style="fill: #2e86ab; stroke: #2e86ab"/>
     <use xlink:href="#ma69aab3d43" x="56.877602" y="30.137457" style="fill: #2e86ab; stroke: #2e86ab"/>
     <use xlink:href="#ma69aab3d43" x="57.102144" y="30.137457" style="fill: #2e86ab; stroke: #2e86ab"/>
     <use xlink:href="#ma69aab3d43" x="57.326685" y="31.119063" style="fill: #2e86ab; stroke: #2e86ab"/>
     <use xlink:href="#ma69aab3d43" x="57.506318" y="31.119063" style="fill: #2e86ab; stroke: #2e86ab"/>
     <use xlink:href="#ma69aab3d43" x="58.26976" y="36.127258" style="fill: #2e86ab; stroke: #2e86ab"/>
     <use xlink:href="#ma69aab3d43" x="58.314668" y="36.127258" style="fill: #2e86ab; stroke: #2e86ab"/>
     <use xlink:href="#ma69aab3d43" x="58.718843" y="36.127258" style="fill: #2e86ab; stroke: #2e86ab"/>
     <use xlink:href="#ma69aab3d43" x="58.853568" y="36.127258" style="fill: #2e86ab; stroke: #2e86ab"/>
     <use xlink:href="#ma69aab3d43" x="59.078109" y="36.127258" style="fill: #2e86ab; stroke: #2e86ab"/>
     <use xlink:href="#ma69aab3d43" x="60.155908" y="37.173087" style="fill: #2e86ab; stroke: #2e86ab"/>
     <use xlink:href="#ma69aab3d43" x="60.560083" y="37.173087" style="fill: #2e86ab; stroke: #2e86ab"/>
     <use xlink:href="#ma69aab3d43" x="60.604991" y="39.296199" style="fill: #2e86ab; stroke: #2e86ab"/>
     <use xlink:href="#ma69aab3d43" x="60.694808" y="39.296199" style="fill: #2e86ab; stroke: #2e86ab"/>
     <use xlink:href="#ma69aab3d43" x="60.91935" y="40.374213" style="fill: #2e86ab; stroke: #2e86ab"/>
     <use xlink:href="#ma69aab3d43" x="60.964258" y="40.374213" style="fill: #2e86ab; stroke: #2e86ab"/>
     <use xlink:href="#ma69aab3d43" x="61.054075" y="40.374213" style="fill: #2e86ab; stroke: #2e86ab"/>
     <use xlink:href="#ma69aab3d43" x="61.188799" y="40.374213" style="fill: #2e86ab; stroke: #2e86ab"/>
     <use xlink:href="#ma69aab3d43" x="61.233708" y="40.374213" style="fill: #2e86ab; stroke: #2e86ab"/>
     <use xlink:href="#ma69aab3d43" x="61.368433" y="40.374213" style="fill: #2e86ab; stroke: #2e86ab"/>
     <use xlink:href="#ma69aab3d43" x="61.862424" y="40.374213" style="fill: #2e86ab; stroke: #2e86ab"/>
     <use xlink:href="#ma69aab3d43" x="62.22169" y="40.374213" style="fill: #2e86ab; stroke: #2e86ab"/>
     <use xlink:href="#ma69aab3d43" x="62.401324" y="40.374213" style="fill: #2e86ab; stroke: #2e86ab"/>
     <use xlink:href="#ma69aab3d43" x="62.446232" y="41.533757" style="fill: #2e86ab; stroke: #2e86ab"/>
     <use xlink:href="#ma69aab3d43" x="63.164765" y="41.533757" style="fill: #2e86ab; stroke: #2e86ab"/>
     <use xlink:href="#ma69aab3d43" x="63.703665" y="41.533757" style="fill: #2e86ab; stroke: #2e86ab"/>
     <use xlink:href="#ma69aab3d43" x="63.83839" y="41.533757" style="fill: #2e86ab; stroke: #2e86ab"/>
     <use xlink:href="#ma69aab3d43" x="63.883298" y="41.533757" style="fill: #2e86ab; stroke: #2e86ab"/>
     <use xlink:href="#ma69aab3d43" x="63.973114" y="41.533757" style="fill: #2e86ab; stroke: #2e86ab"/>
     <use xlink:href="#ma69aab3d43" x="64.152748" y="42.75542" style="fill: #2e86ab; stroke: #2e86ab"/>
     <use xlink:href="#ma69aab3d43" x="64.781464" y="45.220958" style="fill: #2e86ab; stroke: #2e86ab"/>
     <use xlink:href="#ma69aab3d43" x="64.871281" y="45.220958" style="fill: #2e86ab; stroke: #2e86ab"/>
     <use xlink:href="#ma69aab3d43" x="65.320364" y="45.220958" style="fill: #2e86ab; stroke: #2e86ab"/>
     <use xlink:href="#ma69aab3d43" x="65.365272" y="45.220958" style="fill: #2e86ab; stroke: #2e86ab"/>
     <use xlink:href="#ma69aab3d43" x="65.589813" y="45.220958" style="fill: #2e86ab; stroke: #2e86ab"/>
     <use xlink:href="#ma69aab3d43" x="65.724538" y="46.526243" style="fill: #2e86ab; stroke: #2e86ab"/>
     <use xlink:href="#ma69aab3d43" x="65.769447" y="46.526243" style="fill: #2e86ab; stroke: #2e86ab"/>
     <use xlink:href="#ma69aab3d43" x="66.038897" y="46.526243" style="fill: #2e86ab; stroke: #2e86ab"/>
     <use xlink:href="#ma69aab3d43" x="66.712521" y="49.216727" style="fill: #2e86ab; stroke: #2e86ab"/>
     <use xlink:href="#ma69aab3d43" x="67.026879" y="49.216727" style="fill: #2e86ab; stroke: #2e86ab"/>
     <use xlink:href="#ma69aab3d43" x="67.386146" y="49.216727" style="fill: #2e86ab; stroke: #2e86ab"/>
     <use xlink:href="#ma69aab3d43" x="68.194495" y="49.216727" style="fill: #2e86ab; stroke: #2e86ab"/>
     <use xlink:href="#ma69aab3d43" x="68.284312" y="49.216727" style="fill: #2e86ab; stroke: #2e86ab"/>
     <use xlink:href="#ma69aab3d43" x="68.374128" y="49.216727" style="fill: #2e86ab; stroke: #2e86ab"/>
     <use xlink:href="#ma69aab3d43" x="68.419037" y="49.216727" style="fill: #2e86ab; stroke: #2e86ab"/>
     <use xlink:href="#ma69aab3d43" x="68.463945" y="49.216727" style="fill: #2e86ab; stroke: #2e86ab"/>
     <use xlink:href="#ma69aab3d43" x="68.643578" y="49.216727" style="fill: #2e86ab; stroke: #2e86ab"/>
     <use xlink:href="#ma69aab3d43" x="68.733395" y="49.216727" style="fill: #2e86ab; stroke: #2e86ab"/>
     <use xlink:href="#ma69aab3d43" x="68.778303" y="49.216727" style="fill: #2e86ab; stroke: #2e86ab"/>
     <use xlink:href="#ma69aab3d43" x="69.496836" y="50.73606" style="fill: #2e86ab; stroke: #2e86ab"/>
     <use xlink:href="#ma69aab3d43" x="70.664452" y="52.273698" style="fill: #2e86ab; stroke: #2e86ab"/>
     <use xlink:href="#ma69aab3d43" x="71.023719" y="53.830319" style="fill: #2e86ab; stroke: #2e86ab"/>
     <use xlink:href="#ma69aab3d43" x="73.314042" y="56.982969" style="fill: #2e86ab; stroke: #2e86ab"/>
     <use xlink:href="#ma69aab3d43" x="73.673309" y="56.982969" style="fill: #2e86ab; stroke: #2e86ab"/>
     <use xlink:href="#ma69aab3d43" x="74.346933" y="56.982969" style="fill: #2e86ab; stroke: #2e86ab"/>
     <use xlink:href="#ma69aab3d43" x="74.796016" y="56.982969" style="fill: #2e86ab; stroke: #2e86ab"/>
     <use xlink:href="#ma69aab3d43" x="75.065466" y="56.982969" style="fill: #2e86ab; stroke: #2e86ab"/>
     <use xlink:href="#ma69aab3d43" x="75.469641" y="56.982969" style="fill: #2e86ab; stroke: #2e86ab"/>
     <use xlink:href="#ma69aab3d43" x="75.514549" y="56.982969" style="fill: #2e86ab; stroke: #2e86ab"/>
     <use xlink:href="#ma69aab3d43" x="76.143265" y="56.982969" style="fill: #2e86ab; stroke: #2e86ab"/>
     <use xlink:href="#ma69aab3d43" x="76.457624" y="56.982969" style="fill: #2e86ab; stroke: #2e86ab"/>
     <use xlink:href="#ma69aab3d43" x="76.996523" y="56.982969" style="fill: #2e86ab; stroke: #2e86ab"/>
     <use xlink:href="#ma69aab3d43" x="77.445606" y="56.982969" style="fill: #2e86ab; stroke: #2e86ab"/>
     <use xlink:href="#ma69aab3d43" x="77.849781" y="56.982969" style="fill: #2e86ab; stroke: #2e86ab"/>
     <use xlink:href="#ma69aab3d43" x="78.837764" y="56.982969" style="fill: #2e86ab; stroke: #2e86ab"/>
     <use xlink:href="#ma69aab3d43" x="79.73593" y="56.982969" style="fill: #2e86ab; stroke: #2e86ab"/>
     <use xlink:href="#ma69aab3d43" x="80.00538" y="56.982969" style="fill: #2e86ab; stroke: #2e86ab"/>
     <use xlink:href="#ma69aab3d43" x="80.319738" y="56.982969" style="fill: #2e86ab; stroke: #2e86ab"/>
     <use xlink:href="#ma69aab3d43" x="82.071162" y="56.982969" style="fill: #2e86ab; stroke: #2e86ab"/>
     <use xlink:href="#ma69aab3d43" x="84.675844" y="56.982969" style="fill: #2e86ab; stroke: #2e86ab"/>
     <use xlink:href="#ma69aab3d43" x="85.84346" y="56.982969" style="fill: #2e86ab; stroke: #2e86ab"/>
     <use xlink:href="#ma69aab3d43" x="86.696717" y="56.982969" style="fill: #2e86ab; stroke: #2e86ab"/>
     <use xlink:href="#ma69aab3d43" x="87.774517" y="56.982969" style="fill: #2e86ab; stroke: #2e86ab"/>
     <use xlink:href="#ma69aab3d43" x="88.582866" y="56.982969" style="fill: #2e86ab; stroke: #2e86ab"/>
     <use xlink:href="#ma69aab3d43" x="89.391216" y="56.982969" style="fill: #2e86ab; stroke: #2e86ab"/>
     <use xlink:href="#ma69aab3d43" x="89.481032" y="56.982969" style="fill: #2e86ab; stroke: #2e86ab"/>
     <use xlink:href="#ma69aab3d43" x="90.244474" y="56.982969" style="fill: #2e86ab; stroke: #2e86ab"/>
     <use xlink:href="#ma69aab3d43" x="92.669522" y="56.982969" style="fill: #2e86ab; stroke: #2e86ab"/>
     <use xlink:href="#ma69aab3d43" x="92.894064" y="56.982969" style="fill: #2e86ab; stroke: #2e86ab"/>
     <use xlink:href="#ma69aab3d43" x="94.376038" y="56.982969" style="fill: #2e86ab; stroke: #2e86ab"/>
     <use xlink:href="#ma69aab3d43" x="99.181226" y="56.982969" style="fill: #2e86ab; stroke: #2e86ab"/>
     <use xlink:href="#ma69aab3d43" x="100.259026" y="56.982969" style="fill: #2e86ab; stroke: #2e86ab"/>
     <use xlink:href="#ma69aab3d43" x="101.157192" y="56.982969" style="fill: #2e86ab; stroke: #2e86ab"/>
     <use xlink:href="#ma69aab3d43" x="104.92949" y="59.680236" style="fill: #2e86ab; stroke: #2e86ab"/>
     <use xlink:href="#ma69aab3d43" x="104.974398" y="59.680236" style="fill: #2e86ab; stroke: #2e86ab"/>
     <use xlink:href="#ma69aab3d43" x="105.198939" y="59.680236" style="fill: #2e86ab; stroke: #2e86ab"/>
     <use xlink:href="#ma69aab3d43" x="106.052197" y="59.680236" style="fill: #2e86ab; stroke: #2e86ab"/>
     <use xlink:href="#ma69aab3d43" x="108.297613" y="59.680236" style="fill: #2e86ab; stroke: #2e86ab"/>
     <use xlink:href="#ma69aab3d43" x="108.881421" y="59.680236" style="fill: #2e86ab; stroke: #2e86ab"/>
     <use xlink:href="#ma69aab3d43" x="109.734678" y="59.680236" style="fill: #2e86ab; stroke: #2e86ab"/>
     <use xlink:href="#ma69aab3d43" x="110.677753" y="59.680236" style="fill: #2e86ab; stroke: #2e86ab"/>
     <use xlink:href="#ma69aab3d43" x="111.665736" y="59.680236" style="fill: #2e86ab; stroke: #2e86ab"/>
     <use xlink:href="#ma69aab3d43" x="113.686609" y="59.680236" style="fill: #2e86ab; stroke: #2e86ab"/>
     <use xlink:href="#ma69aab3d43" x="116.336199" y="59.680236" style="fill: #2e86ab; stroke: #2e86ab"/>
     <use xlink:href="#ma69aab3d43" x="116.605649" y="59.680236" style="fill: #2e86ab; stroke: #2e86ab"/>
     <use xlink:href="#ma69aab3d43" x="118.71634" y="59.680236" style="fill: #2e86ab; stroke: #2e86ab"/>
     <use xlink:href="#ma69aab3d43" x="119.839047" y="59.680236" style="fill: #2e86ab; stroke: #2e86ab"/>
     <use xlink:href="#ma69aab3d43" x="121.815013" y="63.636228" style="fill: #2e86ab; stroke: #2e86ab"/>
     <use xlink:href="#ma69aab3d43" x="124.240061" y="63.636228" style="fill: #2e86ab; stroke: #2e86ab"/>
     <use xlink:href="#ma69aab3d43" x="125.497494" y="63.636228" style="fill: #2e86ab; stroke: #2e86ab"/>
     <use xlink:href="#ma69aab3d43" x="127.069285" y="63.636228" style="fill: #2e86ab; stroke: #2e86ab"/>
     <use xlink:href="#ma69aab3d43" x="127.159101" y="63.636228" style="fill: #2e86ab; stroke: #2e86ab"/>
     <use xlink:href="#ma69aab3d43" x="127.293826" y="63.636228" style="fill: #2e86ab; stroke: #2e86ab"/>
     <use xlink:href="#ma69aab3d43" x="129.808691" y="63.636228" style="fill: #2e86ab; stroke: #2e86ab"/>
     <use xlink:href="#ma69aab3d43" x="129.8536" y="63.636228" style="fill: #2e86ab; stroke: #2e86ab"/>
     <use xlink:href="#ma69aab3d43" x="130.527224" y="63.636228" style="fill: #2e86ab; stroke: #2e86ab"/>
     <use xlink:href="#ma69aab3d43" x="130.661949" y="63.636228" style="fill: #2e86ab; stroke: #2e86ab"/>
     <use xlink:href="#ma69aab3d43" x="134.34443" y="63.636228" style="fill: #2e86ab; stroke: #2e86ab"/>
     <use xlink:href="#ma69aab3d43" x="142.607559" y="63.636228" style="fill: #2e86ab; stroke: #2e86ab"/>
     <use xlink:href="#ma69aab3d43" x="143.460816" y="63.636228" style="fill: #2e86ab; stroke: #2e86ab"/>
     <use xlink:href="#ma69aab3d43" x="144.269166" y="63.636228" style="fill: #2e86ab; stroke: #2e86ab"/>
     <use xlink:href="#ma69aab3d43" x="145.257149" y="63.636228" style="fill: #2e86ab; stroke: #2e86ab"/>
     <use xlink:href="#ma69aab3d43" x="146.514581" y="63.636228" style="fill: #2e86ab; stroke: #2e86ab"/>
     <use xlink:href="#ma69aab3d43" x="148.445638" y="63.636228" style="fill: #2e86ab; stroke: #2e86ab"/>
     <use xlink:href="#ma69aab3d43" x="157.517116" y="63.636228" style="fill: #2e86ab; stroke: #2e86ab"/>
     <use xlink:href="#ma69aab3d43" x="158.909274" y="63.636228" style="fill: #2e86ab; stroke: #2e86ab"/>
     <use xlink:href="#ma69aab3d43" x="161.019964" y="63.636228" style="fill: #2e86ab; stroke: #2e86ab"/>
     <use xlink:href="#ma69aab3d43" x="164.926987" y="63.636228" style="fill: #2e86ab; stroke: #2e86ab"/>
     <use xlink:href="#ma69aab3d43" x="169.238184" y="63.636228" style="fill: #2e86ab; stroke: #2e86ab"/>
     <use xlink:href="#ma69aab3d43" x="172.741032" y="63.636228" style="fill: #2e86ab; stroke: #2e86ab"/>
     <use xlink:href="#ma69aab3d43" x="174.851722" y="63.636228" style="fill: #2e86ab; stroke: #2e86ab"/>
     <use xlink:href="#ma69aab3d43" x="193.21922" y="63.636228" style="fill: #2e86ab; stroke: #2e86ab"/>
     <use xlink:href="#ma69aab3d43" x="211.047817" y="63.636228" style="fill: #2e86ab; stroke: #2e86ab"/>
     <use xlink:href="#ma69aab3d43" x="218.412779" y="63.636228" style="fill: #2e86ab; stroke: #2e86ab"/>
     <use xlink:href="#ma69aab3d43" x="262.692369" y="63.636228" style="fill: #2e86ab; stroke: #2e86ab"/>
     <use xlink:href="#ma69aab3d43" x="266.419759" y="63.636228" style="fill: #2e86ab; stroke: #2e86ab"/>
    </g>
   </g>
   <g id="line2d_26">
    <path d="M 36.758681 15.350476 
L 42.192586 15.350476 
L 42.192586 16.173757 
L 42.551852 16.173757 
L 42.551852 17.001237 
L 42.641669 17.001237 
L 42.686577 17.001237 
L 42.686577 17.832984 
L 44.078735 17.832984 
L 44.078735 18.677863 
L 46.548692 18.677863 
L 46.548692 19.536369 
L 46.952866 19.536369 
L 46.952866 20.399541 
L 48.210299 20.399541 
L 48.210299 21.267455 
L 48.614474 21.267455 
L 48.614474 22.13537 
L 48.839015 22.13537 
L 48.839015 23.003285 
L 50.276081 23.003285 
L 50.276081 23.876075 
L 51.039522 23.876075 
L 51.039522 24.753825 
L 51.937688 24.753825 
L 51.937688 25.631574 
L 52.117322 25.631574 
L 52.117322 26.509324 
L 54.183104 26.509324 
L 54.183104 27.392177 
L 55.889619 27.392177 
L 55.979436 29.211066 
L 56.248886 29.211066 
L 56.248886 30.137457 
L 56.338702 30.137457 
L 57.281777 30.137457 
L 57.281777 31.119063 
L 57.326685 31.119063 
L 57.596135 31.119063 
L 57.596135 32.120702 
L 57.955401 32.120702 
L 57.955401 33.122341 
L 58.179943 33.122341 
L 58.26976 36.127258 
L 60.066092 36.127258 
L 60.066092 37.173087 
L 60.155908 37.173087 
L 60.604991 37.173087 
L 60.604991 39.296199 
L 60.694808 39.296199 
L 60.91935 39.296199 
L 60.91935 40.374213 
L 60.964258 40.374213 
L 62.446232 40.374213 
L 62.446232 41.533757 
L 64.062931 41.533757 
L 64.062931 42.75542 
L 64.152748 42.75542 
L 64.197656 42.75542 
L 64.197656 43.988189 
L 64.332381 43.988189 
L 64.332381 45.220958 
L 65.634722 45.220958 
L 65.634722 46.526243 
L 65.724538 46.526243 
L 66.263438 46.526243 
L 66.263438 47.871485 
L 66.667613 47.871485 
L 66.667613 49.216727 
L 66.712521 49.216727 
L 69.496836 49.216727 
L 69.496836 50.73606 
L 70.395002 50.73606 
L 70.395002 52.273698 
L 70.888994 52.273698 
L 70.888994 53.830319 
L 71.607526 53.830319 
L 71.607526 55.406644 
L 72.595509 55.406644 
L 72.595509 56.982969 
L 103.537332 56.982969 
L 103.537332 59.680236 
L 120.647397 59.680236 
L 120.647397 63.636228 
L 266.419759 63.636228 
L 266.419759 63.636228 
" clip-path="url(#pa8f3b082ca)" style="fill: none; stroke: #2e86ab; stroke-width: 2; stroke-linecap: round"/>
   </g>
   <g id="line2d_27">
    <defs>
     <path id="m4c39e8b1eb" d="M -3 3 
L 3 -3 
M -3 -3 
L 3 3 
" style="stroke: #e63946"/>
    </defs>
    <g clip-path="url(#pa8f3b082ca)">
     <use xlink:href="#m4c39e8b1eb" x="39.632812" y="16.933093" style="fill: #e63946; stroke: #e63946"/>
     <use xlink:href="#m4c39e8b1eb" x="40.890245" y="18.523506" style="fill: #e63946; stroke: #e63946"/>
     <use xlink:href="#m4c39e8b1eb" x="41.29442" y="18.523506" style="fill: #e63946; stroke: #e63946"/>
     <use xlink:href="#m4c39e8b1eb" x="42.102769" y="18.523506" style="fill: #e63946; stroke: #e63946"/>
     <use xlink:href="#m4c39e8b1eb" x="42.282403" y="20.138016" style="fill: #e63946; stroke: #e63946"/>
     <use xlink:href="#m4c39e8b1eb" x="42.506944" y="20.949411" style="fill: #e63946; stroke: #e63946"/>
     <use xlink:href="#m4c39e8b1eb" x="43.315294" y="23.396207" style="fill: #e63946; stroke: #e63946"/>
     <use xlink:href="#m4c39e8b1eb" x="43.629652" y="24.216122" style="fill: #e63946; stroke: #e63946"/>
     <use xlink:href="#m4c39e8b1eb" x="44.572726" y="27.513317" style="fill: #e63946; stroke: #e63946"/>
     <use xlink:href="#m4c39e8b1eb" x="46.952866" y="34.972768" style="fill: #e63946; stroke: #e63946"/>
     <use xlink:href="#m4c39e8b1eb" x="48.030666" y="38.307355" style="fill: #e63946; stroke: #e63946"/>
     <use xlink:href="#m4c39e8b1eb" x="52.027505" y="56.757404" style="fill: #e63946; stroke: #e63946"/>
     <use xlink:href="#m4c39e8b1eb" x="54.587278" y="64.357566" style="fill: #e63946; stroke: #e63946"/>
     <use xlink:href="#m4c39e8b1eb" x="54.766912" y="64.357566" style="fill: #e63946; stroke: #e63946"/>
     <use xlink:href="#m4c39e8b1eb" x="55.754894" y="67.786211" style="fill: #e63946; stroke: #e63946"/>
     <use xlink:href="#m4c39e8b1eb" x="55.979436" y="67.786211" style="fill: #e63946; stroke: #e63946"/>
     <use xlink:href="#m4c39e8b1eb" x="56.024344" y="67.786211" style="fill: #e63946; stroke: #e63946"/>
     <use xlink:href="#m4c39e8b1eb" x="56.069253" y="67.786211" style="fill: #e63946; stroke: #e63946"/>
     <use xlink:href="#m4c39e8b1eb" x="56.338702" y="68.670801" style="fill: #e63946; stroke: #e63946"/>
     <use xlink:href="#m4c39e8b1eb" x="56.563244" y="68.670801" style="fill: #e63946; stroke: #e63946"/>
     <use xlink:href="#m4c39e8b1eb" x="56.787785" y="68.670801" style="fill: #e63946; stroke: #e63946"/>
     <use xlink:href="#m4c39e8b1eb" x="57.551227" y="73.203413" style="fill: #e63946; stroke: #e63946"/>
     <use xlink:href="#m4c39e8b1eb" x="58.045218" y="74.117818" style="fill: #e63946; stroke: #e63946"/>
     <use xlink:href="#m4c39e8b1eb" x="58.26976" y="75.040315" style="fill: #e63946; stroke: #e63946"/>
     <use xlink:href="#m4c39e8b1eb" x="60.066092" y="79.694355" style="fill: #e63946; stroke: #e63946"/>
     <use xlink:href="#m4c39e8b1eb" x="60.290633" y="80.634028" style="fill: #e63946; stroke: #e63946"/>
     <use xlink:href="#m4c39e8b1eb" x="60.560083" y="80.634028" style="fill: #e63946; stroke: #e63946"/>
     <use xlink:href="#m4c39e8b1eb" x="61.413341" y="80.634028" style="fill: #e63946; stroke: #e63946"/>
     <use xlink:href="#m4c39e8b1eb" x="61.682791" y="81.601612" style="fill: #e63946; stroke: #e63946"/>
     <use xlink:href="#m4c39e8b1eb" x="61.862424" y="83.556327" style="fill: #e63946; stroke: #e63946"/>
     <use xlink:href="#m4c39e8b1eb" x="62.625865" y="85.531403" style="fill: #e63946; stroke: #e63946"/>
     <use xlink:href="#m4c39e8b1eb" x="63.074948" y="86.52956" style="fill: #e63946; stroke: #e63946"/>
     <use xlink:href="#m4c39e8b1eb" x="63.703665" y="89.556937" style="fill: #e63946; stroke: #e63946"/>
     <use xlink:href="#m4c39e8b1eb" x="65.589813" y="96.702011" style="fill: #e63946; stroke: #e63946"/>
     <use xlink:href="#m4c39e8b1eb" x="65.67963" y="96.702011" style="fill: #e63946; stroke: #e63946"/>
     <use xlink:href="#m4c39e8b1eb" x="66.128713" y="97.748908" style="fill: #e63946; stroke: #e63946"/>
     <use xlink:href="#m4c39e8b1eb" x="68.05977" y="104.112942" style="fill: #e63946; stroke: #e63946"/>
     <use xlink:href="#m4c39e8b1eb" x="71.068627" y="108.417119" style="fill: #e63946; stroke: #e63946"/>
     <use xlink:href="#m4c39e8b1eb" x="72.460784" y="110.602834" style="fill: #e63946; stroke: #e63946"/>
     <use xlink:href="#m4c39e8b1eb" x="73.808033" y="111.713608" style="fill: #e63946; stroke: #e63946"/>
     <use xlink:href="#m4c39e8b1eb" x="76.098357" y="113.972807" style="fill: #e63946; stroke: #e63946"/>
     <use xlink:href="#m4c39e8b1eb" x="77.35579" y="117.422121" style="fill: #e63946; stroke: #e63946"/>
     <use xlink:href="#m4c39e8b1eb" x="78.433589" y="119.765886" style="fill: #e63946; stroke: #e63946"/>
     <use xlink:href="#m4c39e8b1eb" x="79.46648" y="119.765886" style="fill: #e63946; stroke: #e63946"/>
     <use xlink:href="#m4c39e8b1eb" x="79.915563" y="119.765886" style="fill: #e63946; stroke: #e63946"/>
     <use xlink:href="#m4c39e8b1eb" x="80.993362" y="121.012569" style="fill: #e63946; stroke: #e63946"/>
     <use xlink:href="#m4c39e8b1eb" x="84.406394" y="124.835731" style="fill: #e63946; stroke: #e63946"/>
     <use xlink:href="#m4c39e8b1eb" x="88.762499" y="132.668551" style="fill: #e63946; stroke: #e63946"/>
     <use xlink:href="#m4c39e8b1eb" x="89.705574" y="132.668551" style="fill: #e63946; stroke: #e63946"/>
     <use xlink:href="#m4c39e8b1eb" x="92.355164" y="134.05314" style="fill: #e63946; stroke: #e63946"/>
     <use xlink:href="#m4c39e8b1eb" x="107.983254" y="139.770154" style="fill: #e63946; stroke: #e63946"/>
     <use xlink:href="#m4c39e8b1eb" x="108.701787" y="139.770154" style="fill: #e63946; stroke: #e63946"/>
     <use xlink:href="#m4c39e8b1eb" x="112.429177" y="141.313748" style="fill: #e63946; stroke: #e63946"/>
     <use xlink:href="#m4c39e8b1eb" x="113.237526" y="141.313748" style="fill: #e63946; stroke: #e63946"/>
     <use xlink:href="#m4c39e8b1eb" x="120.108497" y="144.681589" style="fill: #e63946; stroke: #e63946"/>
     <use xlink:href="#m4c39e8b1eb" x="120.737213" y="144.681589" style="fill: #e63946; stroke: #e63946"/>
     <use xlink:href="#m4c39e8b1eb" x="122.488637" y="144.681589" style="fill: #e63946; stroke: #e63946"/>
     <use xlink:href="#m4c39e8b1eb" x="130.347591" y="150.624838" style="fill: #e63946; stroke: #e63946"/>
     <use xlink:href="#m4c39e8b1eb" x="131.42539" y="150.624838" style="fill: #e63946; stroke: #e63946"/>
     <use xlink:href="#m4c39e8b1eb" x="131.649932" y="150.624838" style="fill: #e63946; stroke: #e63946"/>
     <use xlink:href="#m4c39e8b1eb" x="135.691679" y="150.624838" style="fill: #e63946; stroke: #e63946"/>
     <use xlink:href="#m4c39e8b1eb" x="137.398195" y="150.624838" style="fill: #e63946; stroke: #e63946"/>
     <use xlink:href="#m4c39e8b1eb" x="168.429835" y="156.788208" style="fill: #e63946; stroke: #e63946"/>
     <use xlink:href="#m4c39e8b1eb" x="190.704354" y="163.978805" style="fill: #e63946; stroke: #e63946"/>
     <use xlink:href="#m4c39e8b1eb" x="193.758119" y="163.978805" style="fill: #e63946; stroke: #e63946"/>
     <use xlink:href="#m4c39e8b1eb" x="211.856167" y="163.978805" style="fill: #e63946; stroke: #e63946"/>
     <use xlink:href="#m4c39e8b1eb" x="266.015584" y="163.978805" style="fill: #e63946; stroke: #e63946"/>
    </g>
   </g>
   <g id="line2d_28">
    <path d="M 39.632812 16.933093 
L 40.48607 16.933093 
L 40.530979 18.523506 
L 42.147678 18.523506 
L 42.147678 20.138016 
L 42.417127 20.138016 
L 42.417127 20.949411 
L 42.506944 20.949411 
L 42.731486 20.949411 
L 42.731486 21.76501 
L 43.045844 21.76501 
L 43.045844 22.580608 
L 43.270385 22.580608 
L 43.270385 23.396207 
L 43.315294 23.396207 
L 43.584743 23.396207 
L 43.67456 25.04042 
L 43.809285 25.04042 
L 43.809285 25.864719 
L 44.033827 25.864719 
L 44.033827 26.689018 
L 44.393093 26.689018 
L 44.393093 27.513317 
L 44.931993 27.513317 
L 44.931993 28.342145 
L 45.111626 28.342145 
L 45.111626 29.170973 
L 45.381076 29.170973 
L 45.381076 29.999801 
L 45.515801 29.999801 
L 45.515801 30.828629 
L 46.009792 30.828629 
L 46.099609 32.486284 
L 46.189425 32.486284 
L 46.189425 33.315112 
L 46.32415 33.315112 
L 46.32415 34.14394 
L 46.548692 34.14394 
L 46.548692 34.972768 
L 47.177408 34.972768 
L 47.177408 36.640062 
L 47.401949 36.640062 
L 47.401949 37.473708 
L 47.806124 37.473708 
L 47.806124 38.307355 
L 48.614474 38.307355 
L 48.614474 39.145994 
L 48.883924 39.145994 
L 48.883924 39.984632 
L 49.108465 39.984632 
L 49.198282 41.661909 
L 49.333007 41.661909 
L 49.333007 42.500548 
L 49.51264 42.500548 
L 49.51264 43.339187 
L 49.647365 43.339187 
L 49.647365 44.177825 
L 50.05154 44.177825 
L 50.05154 45.855102 
L 50.680256 45.855102 
L 50.770072 47.53238 
L 50.859889 47.53238 
L 50.904797 49.209657 
L 50.994614 49.209657 
L 51.039522 50.886934 
L 51.219155 50.886934 
L 51.264064 52.564211 
L 51.35388 52.564211 
L 51.398789 54.241488 
L 51.847872 54.241488 
L 51.89278 56.757404 
L 52.835855 56.757404 
L 52.835855 58.446329 
L 53.240029 58.446329 
L 53.240029 59.290791 
L 53.599296 59.290791 
L 53.599296 60.135254 
L 54.048379 60.135254 
L 54.048379 60.979716 
L 54.183104 60.979716 
L 54.183104 61.824179 
L 54.362737 61.824179 
L 54.407645 63.513104 
L 54.54237 63.513104 
L 54.54237 64.357566 
L 54.587278 64.357566 
L 54.901637 64.357566 
L 54.901637 65.214727 
L 55.08127 65.214727 
L 55.08127 66.92905 
L 55.620169 66.92905 
L 55.620169 67.786211 
L 56.248886 67.786211 
L 56.248886 68.670801 
L 56.338702 68.670801 
L 56.92251 68.670801 
L 56.967419 71.390368 
L 57.057235 71.390368 
L 57.057235 72.29689 
L 57.19196 72.29689 
L 57.19196 73.203413 
L 57.865585 73.203413 
L 57.865585 74.117818 
L 58.179943 74.117818 
L 58.179943 75.040315 
L 58.26976 75.040315 
L 58.404484 75.040315 
L 58.404484 75.971123 
L 59.123017 75.971123 
L 59.123017 76.901931 
L 59.257742 76.901931 
L 59.257742 77.832739 
L 59.976275 77.832739 
L 60.021183 79.694355 
L 60.066092 79.694355 
L 60.290633 79.694355 
L 60.290633 80.634028 
L 61.458249 80.634028 
L 61.458249 81.601612 
L 61.727699 81.601612 
L 61.727699 82.578969 
L 61.862424 82.578969 
L 61.862424 83.556327 
L 62.536049 83.556327 
L 62.536049 85.531403 
L 62.625865 85.531403 
L 63.074948 85.531403 
L 63.074948 86.52956 
L 63.434215 86.52956 
L 63.434215 87.538686 
L 63.613848 87.538686 
L 63.703665 89.556937 
L 63.83839 89.556937 
L 63.83839 90.577662 
L 64.062931 90.577662 
L 64.062931 91.598387 
L 64.197656 91.598387 
L 64.197656 92.619112 
L 65.006005 92.619112 
L 65.006005 94.660561 
L 65.455089 94.660561 
L 65.544905 96.702011 
L 66.128713 96.702011 
L 66.128713 97.748908 
L 66.532888 97.748908 
L 66.532888 98.809581 
L 67.116696 98.809581 
L 67.116696 99.870253 
L 67.251421 99.870253 
L 67.341237 101.991597 
L 67.610687 101.991597 
L 67.610687 103.05227 
L 67.925045 103.05227 
L 67.925045 104.112942 
L 68.86812 104.112942 
L 68.86812 105.188986 
L 69.901011 105.188986 
L 69.901011 106.265031 
L 70.170461 106.265031 
L 70.170461 107.341075 
L 70.619544 107.341075 
L 70.619544 108.417119 
L 71.338077 108.417119 
L 71.338077 109.509977 
L 71.921885 109.509977 
L 71.921885 110.602834 
L 72.820051 110.602834 
L 72.820051 111.713608 
L 74.571475 111.713608 
L 74.571475 112.843207 
L 75.334916 112.843207 
L 75.334916 113.972807 
L 76.412715 113.972807 
L 76.412715 115.122579 
L 76.592348 115.122579 
L 76.592348 116.27235 
L 77.131248 116.27235 
L 77.131248 117.422121 
L 78.209047 117.422121 
L 78.209047 118.594003 
L 78.433589 118.594003 
L 78.433589 119.765886 
L 80.229921 119.765886 
L 80.229921 121.012569 
L 81.891529 121.012569 
L 81.891529 122.286956 
L 82.250795 122.286956 
L 82.250795 123.561344 
L 83.373503 123.561344 
L 83.373503 124.835731 
L 84.720752 124.835731 
L 84.76566 127.446671 
L 84.900385 127.446671 
L 84.900385 128.752141 
L 86.157818 128.752141 
L 86.157818 130.057611 
L 87.41525 130.057611 
L 87.41525 131.363081 
L 87.999058 131.363081 
L 87.999058 132.668551 
L 91.861173 132.668551 
L 91.861173 134.05314 
L 96.666361 134.05314 
L 96.666361 135.482394 
L 100.169209 135.482394 
L 100.169209 136.911647 
L 101.022467 136.911647 
L 101.022467 138.340901 
L 103.402607 138.340901 
L 103.402607 139.770154 
L 109.510137 139.770154 
L 109.510137 141.313748 
L 114.629684 141.313748 
L 114.629684 142.997669 
L 116.785282 142.997669 
L 116.785282 144.681589 
L 123.566437 144.681589 
L 123.566437 146.662672 
L 128.147084 146.662672 
L 128.147084 148.643755 
L 130.347591 148.643755 
L 130.347591 150.624838 
L 158.235649 150.624838 
L 158.235649 153.706523 
L 166.633502 153.706523 
L 166.633502 156.788208 
L 172.291949 156.788208 
L 172.291949 160.383506 
L 182.575951 160.383506 
L 182.575951 163.978805 
L 266.015584 163.978805 
L 266.015584 163.978805 
" clip-path="url(#pa8f3b082ca)" style="fill: none; stroke: #e63946; stroke-width: 2; stroke-linecap: round"/>
   </g>
   <g id="patch_3">
    <path d="M 39.632812 178.36 
L 39.632812 7.2 
" style="fill: none; stroke: #262626; stroke-width: 0.8; stroke-linejoin: miter; stroke-linecap: square"/>
   </g>
   <g id="patch_4">
    <path d="M 277.902813 178.36 
L 277.902813 7.2 
" style="fill: none; stroke: #262626; stroke-width: 0.8; stroke-linejoin: miter; stroke-linecap: square"/>
   </g>
   <g id="patch_5">
    <path d="M 39.632812 178.36 
L 277.902813 178.36 
" style="fill: none; stroke: #262626; stroke-width: 0.8; stroke-linejoin: miter; stroke-linecap: square"/>
   </g>
   <g id="patch_6">
    <path d="M 39.632812 7.2 
L 277.902813 7.2 
" style="fill: none; stroke: #262626; stroke-width: 0.8; stroke-linejoin: miter; stroke-linecap: square"/>
   </g>
   <g id="text_15">
    <g id="patch_7">
     <path d="M 229.696163 25.9005 
L 273.137413 25.9005 
Q 275.537413 25.9005 275.537413 23.5005 
L 275.537413 15.758 
Q 275.537413 13.358 273.137413 13.358 
L 229.696163 13.358 
Q 227.296163 13.358 227.296163 15.758 
L 227.296163 23.5005 
Q 227.296163 25.9005 229.696163 25.9005 
z
" style="fill: #ffffff; opacity: 0.8; stroke: #ffffff; stroke-linejoin: miter"/>
    </g>
    <!-- P &lt; 0.001 -->
    <g style="fill: #262626" transform="translate(229.696163 21.83675) scale(0.08 -0.08)">
     <defs>
      <path id="DejaVuSans-Bold-50" d="M 588 4666 
L 2584 4666 
Q 3475 4666 3951 4270 
Q 4428 3875 4428 3144 
Q 4428 2409 3951 2014 
Q 3475 1619 2584 1619 
L 1791 1619 
L 1791 0 
L 588 0 
L 588 4666 
z
M 1791 3794 
L 1791 2491 
L 2456 2491 
Q 2806 2491 2997 2661 
Q 3188 2831 3188 3144 
Q 3188 3456 2997 3625 
Q 2806 3794 2456 3794 
L 1791 3794 
z
" transform="scale(0.015625)"/>
      <path id="DejaVuSans-Bold-20" transform="scale(0.015625)"/>
      <path id="DejaVuSans-Bold-3c" d="M 4684 3041 
L 1672 2003 
L 4684 972 
L 4684 191 
L 678 1638 
L 678 2375 
L 4684 3822 
L 4684 3041 
z
" transform="scale(0.015625)"/>
      <path id="DejaVuSans-Bold-30" d="M 2944 2338 
Q 2944 3213 2780 3570 
Q 2616 3928 2228 3928 
Q 1841 3928 1675 3570 
Q 1509 3213 1509 2338 
Q 1509 1453 1675 1090 
Q 1841 728 2228 728 
Q 2613 728 2778 1090 
Q 2944 1453 2944 2338 
z
M 4147 2328 
Q 4147 1169 3647 539 
Q 3147 -91 2228 -91 
Q 1306 -91 806 539 
Q 306 1169 306 2328 
Q 306 3491 806 4120 
Q 1306 4750 2228 4750 
Q 3147 4750 3647 4120 
Q 4147 3491 4147 2328 
z
" transform="scale(0.015625)"/>
      <path id="DejaVuSans-Bold-2e" d="M 653 1209 
L 1778 1209 
L 1778 0 
L 653 0 
L 653 1209 
z
" transform="scale(0.015625)"/>
      <path id="DejaVuSans-Bold-31" d="M 750 831 
L 1813 831 
L 1813 3847 
L 722 3622 
L 722 4441 
L 1806 4666 
L 2950 4666 
L 2950 831 
L 4013 831 
L 4013 0 
L 750 0 
L 750 831 
z
" transform="scale(0.015625)"/>
     </defs>
     <use xlink:href="#DejaVuSans-Bold-50"/>
     <use xlink:href="#DejaVuSans-Bold-20" transform="translate(73.291016 0)"/>
     <use xlink:href="#DejaVuSans-Bold-3c" transform="translate(108.105469 0)"/>
     <use xlink:href="#DejaVuSans-Bold-20" transform="translate(191.894531 0)"/>
     <use xlink:href="#DejaVuSans-Bold-30" transform="translate(226.708984 0)"/>
     <use xlink:href="#DejaVuSans-Bold-2e" transform="translate(296.289062 0)"/>
     <use xlink:href="#DejaVuSans-Bold-30" transform="translate(334.277344 0)"/>
     <use xlink:href="#DejaVuSans-Bold-30" transform="translate(403.857422 0)"/>
     <use xlink:href="#DejaVuSans-Bold-31" transform="translate(473.4375 0)"/>
    </g>
   </g>
  </g>
 </g>
 <defs>
  <clipPath id="pa8f3b082ca">
   <rect x="39.632812" y="7.2" width="238.27" height="171.16"/>
  </clipPath>
 </defs>
</svg>
