<?xml version="1.0" encoding="utf-8" standalone="no"?>
<!DOCTYPE svg PUBLIC "-//W3C//DTD SVG 1.1//EN"
  "http://www.w3.org/Graphics/SVG/1.1/DTD/svg11.dtd">
<svg xmlns:xlink="http://www.w3.org/1999/xlink" width="285.102812pt" height="213.012812pt" viewBox="0 0 285.102812 213.012812" xmlns="http://www.w3.org/2000/svg" version="1.1">
 <metadata>
  <rdf:RDF xmlns:dc="http://purl.org/dc/elements/1.1/" xmlns:cc="http://creativecommons.org/ns#" xmlns:rdf="http://www.w3.org/1999/02/22-rdf-syntax-ns#">
   <cc:Work>
    <dc:type rdf:resource="http://purl.org/dc/dcmitype/StillImage"/>
    <dc:date>2025-07-12T19:58:04.662049</dc:date>
    <dc:format>image/svg+xml</dc:format>
    <dc:creator>
     <cc:Agent>
      <dc:title>Matplotlib v3.10.3, https://matplotlib.org/</dc:title>
     </cc:Agent>
    </dc:creator>
   </cc:Work>
  </rdf:RDF>
 </metadata>
 <defs>
  <style type="text/css">*{stroke-linejoin: round; stroke-linecap: butt}</style>
 </defs>
 <g id="figure_1">
  <g id="patch_1">
   <path d="M 0 213.012812 
L 285.102812 213.012812 
L 285.102812 0 
L 0 0 
L 0 213.012812 
z
" style="fill: none"/>
  </g>
  <g id="axes_1">
   <g id="patch_2">
    <path d="M 39.632812 178.36 
L 277.902813 178.36 
L 277.902813 7.2 
L 39.632812 7.2 
L 39.632812 178.36 
z
" style="fill: none"/>
   </g>
   <g id="matplotlib.axis_1">
    <g id="xtick_1">
     <g id="line2d_1">
      <path d="M 39.632812 178.36 
L 39.632812 7.2 
" clip-path="url(#p97d3eca940)" style="fill: none; stroke: #cccccc; stroke-opacity: 0.3; stroke-width: 0.5; stroke-linecap: round"/>
     </g>
     <g id="line2d_2">
      <defs>
       <path id="mc268031a81" d="M 0 0 
L 0 3.5 
" style="stroke: #262626; stroke-width: 0.8"/>
      </defs>
      <g>
       <use xlink:href="#mc268031a81" x="39.632812" y="178.36" style="fill: #262626; stroke: #262626; stroke-width: 0.8"/>
      </g>
     </g>
     <g id="text_1">
      <!-- 0 -->
      <g style="fill: #262626" transform="translate(37.087812 191.43875) scale(0.08 -0.08)">
       <defs>
        <path id="DejaVuSans-30" d="M 2034 4250 
Q 1547 4250 1301 3770 
Q 1056 3291 1056 2328 
Q 1056 1369 1301 889 
Q 1547 409 2034 409 
Q 2525 409 2770 889 
Q 3016 1369 3016 2328 
Q 3016 3291 2770 3770 
Q 2525 4250 2034 4250 
z
M 2034 4750 
Q 2819 4750 3233 4129 
Q 3647 3509 3647 2328 
Q 3647 1150 3233 529 
Q 2819 -91 2034 -91 
Q 1250 -91 836 529 
Q 422 1150 422 2328 
Q 422 3509 836 4129 
Q 1250 4750 2034 4750 
z
" transform="scale(0.015625)"/>
       </defs>
       <use xlink:href="#DejaVuSans-30"/>
      </g>
     </g>
    </g>
    <g id="xtick_2">
     <g id="line2d_3">
      <path d="M 84.541119 178.36 
L 84.541119 7.2 
" clip-path="url(#p97d3eca940)" style="fill: none; stroke: #cccccc; stroke-opacity: 0.3; stroke-width: 0.5; stroke-linecap: round"/>
     </g>
     <g id="line2d_4">
      <g>
       <use xlink:href="#mc268031a81" x="84.541119" y="178.36" style="fill: #262626; stroke: #262626; stroke-width: 0.8"/>
      </g>
     </g>
     <g id="text_2">
      <!-- 1000 -->
      <g style="fill: #262626" transform="translate(74.361119 191.43875) scale(0.08 -0.08)">
       <defs>
        <path id="DejaVuSans-31" d="M 794 531 
L 1825 531 
L 1825 4091 
L 703 3866 
L 703 4441 
L 1819 4666 
L 2450 4666 
L 2450 531 
L 3481 531 
L 3481 0 
L 794 0 
L 794 531 
z
" transform="scale(0.015625)"/>
       </defs>
       <use xlink:href="#DejaVuSans-31"/>
       <use xlink:href="#DejaVuSans-30" transform="translate(63.623047 0)"/>
       <use xlink:href="#DejaVuSans-30" transform="translate(127.246094 0)"/>
       <use xlink:href="#DejaVuSans-30" transform="translate(190.869141 0)"/>
      </g>
     </g>
    </g>
    <g id="xtick_3">
     <g id="line2d_5">
      <path d="M 129.449425 178.36 
L 129.449425 7.2 
" clip-path="url(#p97d3eca940)" style="fill: none; stroke: #cccccc; stroke-opacity: 0.3; stroke-width: 0.5; stroke-linecap: round"/>
     </g>
     <g id="line2d_6">
      <g>
       <use xlink:href="#mc268031a81" x="129.449425" y="178.36" style="fill: #262626; stroke: #262626; stroke-width: 0.8"/>
      </g>
     </g>
     <g id="text_3">
      <!-- 2000 -->
      <g style="fill: #262626" transform="translate(119.269425 191.43875) scale(0.08 -0.08)">
       <defs>
        <path id="DejaVuSans-32" d="M 1228 531 
L 3431 531 
L 3431 0 
L 469 0 
L 469 531 
Q 828 903 1448 1529 
Q 2069 2156 2228 2338 
Q 2531 2678 2651 2914 
Q 2772 3150 2772 3378 
Q 2772 3750 2511 3984 
Q 2250 4219 1831 4219 
Q 1534 4219 1204 4116 
Q 875 4013 500 3803 
L 500 4441 
Q 881 4594 1212 4672 
Q 1544 4750 1819 4750 
Q 2544 4750 2975 4387 
Q 3406 4025 3406 3419 
Q 3406 3131 3298 2873 
Q 3191 2616 2906 2266 
Q 2828 2175 2409 1742 
Q 1991 1309 1228 531 
z
" transform="scale(0.015625)"/>
       </defs>
       <use xlink:href="#DejaVuSans-32"/>
       <use xlink:href="#DejaVuSans-30" transform="translate(63.623047 0)"/>
       <use xlink:href="#DejaVuSans-30" transform="translate(127.246094 0)"/>
       <use xlink:href="#DejaVuSans-30" transform="translate(190.869141 0)"/>
      </g>
     </g>
    </g>
    <g id="xtick_4">
     <g id="line2d_7">
      <path d="M 174.357731 178.36 
L 174.357731 7.2 
" clip-path="url(#p97d3eca940)" style="fill: none; stroke: #cccccc; stroke-opacity: 0.3; stroke-width: 0.5; stroke-linecap: round"/>
     </g>
     <g id="line2d_8">
      <g>
       <use xlink:href="#mc268031a81" x="174.357731" y="178.36" style="fill: #262626; stroke: #262626; stroke-width: 0.8"/>
      </g>
     </g>
     <g id="text_4">
      <!-- 3000 -->
      <g style="fill: #262626" transform="translate(164.177731 191.43875) scale(0.08 -0.08)">
       <defs>
        <path id="DejaVuSans-33" d="M 2597 2516 
Q 3050 2419 3304 2112 
Q 3559 1806 3559 1356 
Q 3559 666 3084 287 
Q 2609 -91 1734 -91 
Q 1441 -91 1130 -33 
Q 819 25 488 141 
L 488 750 
Q 750 597 1062 519 
Q 1375 441 1716 441 
Q 2309 441 2620 675 
Q 2931 909 2931 1356 
Q 2931 1769 2642 2001 
Q 2353 2234 1838 2234 
L 1294 2234 
L 1294 2753 
L 1863 2753 
Q 2328 2753 2575 2939 
Q 2822 3125 2822 3475 
Q 2822 3834 2567 4026 
Q 2313 4219 1838 4219 
Q 1578 4219 1281 4162 
Q 984 4106 628 3988 
L 628 4550 
Q 988 4650 1302 4700 
Q 1616 4750 1894 4750 
Q 2613 4750 3031 4423 
Q 3450 4097 3450 3541 
Q 3450 3153 3228 2886 
Q 3006 2619 2597 2516 
z
" transform="scale(0.015625)"/>
       </defs>
       <use xlink:href="#DejaVuSans-33"/>
       <use xlink:href="#DejaVuSans-30" transform="translate(63.623047 0)"/>
       <use xlink:href="#DejaVuSans-30" transform="translate(127.246094 0)"/>
       <use xlink:href="#DejaVuSans-30" transform="translate(190.869141 0)"/>
      </g>
     </g>
    </g>
    <g id="xtick_5">
     <g id="line2d_9">
      <path d="M 219.266037 178.36 
L 219.266037 7.2 
" clip-path="url(#p97d3eca940)" style="fill: none; stroke: #cccccc; stroke-opacity: 0.3; stroke-width: 0.5; stroke-linecap: round"/>
     </g>
     <g id="line2d_10">
      <g>
       <use xlink:href="#mc268031a81" x="219.266037" y="178.36" style="fill: #262626; stroke: #262626; stroke-width: 0.8"/>
      </g>
     </g>
     <g id="text_5">
      <!-- 4000 -->
      <g style="fill: #262626" transform="translate(209.086037 191.43875) scale(0.08 -0.08)">
       <defs>
        <path id="DejaVuSans-34" d="M 2419 4116 
L 825 1625 
L 2419 1625 
L 2419 4116 
z
M 2253 4666 
L 3047 4666 
L 3047 1625 
L 3713 1625 
L 3713 1100 
L 3047 1100 
L 3047 0 
L 2419 0 
L 2419 1100 
L 313 1100 
L 313 1709 
L 2253 4666 
z
" transform="scale(0.015625)"/>
       </defs>
       <use xlink:href="#DejaVuSans-34"/>
       <use xlink:href="#DejaVuSans-30" transform="translate(63.623047 0)"/>
       <use xlink:href="#DejaVuSans-30" transform="translate(127.246094 0)"/>
       <use xlink:href="#DejaVuSans-30" transform="translate(190.869141 0)"/>
      </g>
     </g>
    </g>
    <g id="xtick_6">
     <g id="line2d_11">
      <path d="M 264.174343 178.36 
L 264.174343 7.2 
" clip-path="url(#p97d3eca940)" style="fill: none; stroke: #cccccc; stroke-opacity: 0.3; stroke-width: 0.5; stroke-linecap: round"/>
     </g>
     <g id="line2d_12">
      <g>
       <use xlink:href="#mc268031a81" x="264.174343" y="178.36" style="fill: #262626; stroke: #262626; stroke-width: 0.8"/>
      </g>
     </g>
     <g id="text_6">
      <!-- 5000 -->
      <g style="fill: #262626" transform="translate(253.994343 191.43875) scale(0.08 -0.08)">
       <defs>
        <path id="DejaVuSans-35" d="M 691 4666 
L 3169 4666 
L 3169 4134 
L 1269 4134 
L 1269 2991 
Q 1406 3038 1543 3061 
Q 1681 3084 1819 3084 
Q 2600 3084 3056 2656 
Q 3513 2228 3513 1497 
Q 3513 744 3044 326 
Q 2575 -91 1722 -91 
Q 1428 -91 1123 -41 
Q 819 9 494 109 
L 494 744 
Q 775 591 1075 516 
Q 1375 441 1709 441 
Q 2250 441 2565 725 
Q 2881 1009 2881 1497 
Q 2881 1984 2565 2268 
Q 2250 2553 1709 2553 
Q 1456 2553 1204 2497 
Q 953 2441 691 2322 
L 691 4666 
z
" transform="scale(0.015625)"/>
       </defs>
       <use xlink:href="#DejaVuSans-35"/>
       <use xlink:href="#DejaVuSans-30" transform="translate(63.623047 0)"/>
       <use xlink:href="#DejaVuSans-30" transform="translate(127.246094 0)"/>
       <use xlink:href="#DejaVuSans-30" transform="translate(190.869141 0)"/>
      </g>
     </g>
    </g>
    <g id="text_7">
     <!-- Time (days) -->
     <g style="fill: #262626" transform="translate(132.193906 203.941094) scale(0.09 -0.09)">
      <defs>
       <path id="DejaVuSans-54" d="M -19 4666 
L 3928 4666 
L 3928 4134 
L 2272 4134 
L 2272 0 
L 1638 0 
L 1638 4134 
L -19 4134 
L -19 4666 
z
" transform="scale(0.015625)"/>
       <path id="DejaVuSans-69" d="M 603 3500 
L 1178 3500 
L 1178 0 
L 603 0 
L 603 3500 
z
M 603 4863 
L 1178 4863 
L 1178 4134 
L 603 4134 
L 603 4863 
z
" transform="scale(0.015625)"/>
       <path id="DejaVuSans-6d" d="M 3328 2828 
Q 3544 3216 3844 3400 
Q 4144 3584 4550 3584 
Q 5097 3584 5394 3201 
Q 5691 2819 5691 2113 
L 5691 0 
L 5113 0 
L 5113 2094 
Q 5113 2597 4934 2840 
Q 4756 3084 4391 3084 
Q 3944 3084 3684 2787 
Q 3425 2491 3425 1978 
L 3425 0 
L 2847 0 
L 2847 2094 
Q 2847 2600 2669 2842 
Q 2491 3084 2119 3084 
Q 1678 3084 1418 2786 
Q 1159 2488 1159 1978 
L 1159 0 
L 581 0 
L 581 3500 
L 1159 3500 
L 1159 2956 
Q 1356 3278 1631 3431 
Q 1906 3584 2284 3584 
Q 2666 3584 2933 3390 
Q 3200 3197 3328 2828 
z
" transform="scale(0.015625)"/>
       <path id="DejaVuSans-65" d="M 3597 1894 
L 3597 1613 
L 953 1613 
Q 991 1019 1311 708 
Q 1631 397 2203 397 
Q 2534 397 2845 478 
Q 3156 559 3463 722 
L 3463 178 
Q 3153 47 2828 -22 
Q 2503 -91 2169 -91 
Q 1331 -91 842 396 
Q 353 884 353 1716 
Q 353 2575 817 3079 
Q 1281 3584 2069 3584 
Q 2775 3584 3186 3129 
Q 3597 2675 3597 1894 
z
M 3022 2063 
Q 3016 2534 2758 2815 
Q 2500 3097 2075 3097 
Q 1594 3097 1305 2825 
Q 1016 2553 972 2059 
L 3022 2063 
z
" transform="scale(0.015625)"/>
       <path id="DejaVuSans-20" transform="scale(0.015625)"/>
       <path id="DejaVuSans-28" d="M 1984 4856 
Q 1566 4138 1362 3434 
Q 1159 2731 1159 2009 
Q 1159 1288 1364 580 
Q 1569 -128 1984 -844 
L 1484 -844 
Q 1016 -109 783 600 
Q 550 1309 550 2009 
Q 550 2706 781 3412 
Q 1013 4119 1484 4856 
L 1984 4856 
z
" transform="scale(0.015625)"/>
       <path id="DejaVuSans-64" d="M 2906 2969 
L 2906 4863 
L 3481 4863 
L 3481 0 
L 2906 0 
L 2906 525 
Q 2725 213 2448 61 
Q 2172 -91 1784 -91 
Q 1150 -91 751 415 
Q 353 922 353 1747 
Q 353 2572 751 3078 
Q 1150 3584 1784 3584 
Q 2172 3584 2448 3432 
Q 2725 3281 2906 2969 
z
M 947 1747 
Q 947 1113 1208 752 
Q 1469 391 1925 391 
Q 2381 391 2643 752 
Q 2906 1113 2906 1747 
Q 2906 2381 2643 2742 
Q 2381 3103 1925 3103 
Q 1469 3103 1208 2742 
Q 947 2381 947 1747 
z
" transform="scale(0.015625)"/>
       <path id="DejaVuSans-61" d="M 2194 1759 
Q 1497 1759 1228 1600 
Q 959 1441 959 1056 
Q 959 750 1161 570 
Q 1363 391 1709 391 
Q 2188 391 2477 730 
Q 2766 1069 2766 1631 
L 2766 1759 
L 2194 1759 
z
M 3341 1997 
L 3341 0 
L 2766 0 
L 2766 531 
Q 2569 213 2275 61 
Q 1981 -91 1556 -91 
Q 1019 -91 701 211 
Q 384 513 384 1019 
Q 384 1609 779 1909 
Q 1175 2209 1959 2209 
L 2766 2209 
L 2766 2266 
Q 2766 2663 2505 2880 
Q 2244 3097 1772 3097 
Q 1472 3097 1187 3025 
Q 903 2953 641 2809 
L 641 3341 
Q 956 3463 1253 3523 
Q 1550 3584 1831 3584 
Q 2591 3584 2966 3190 
Q 3341 2797 3341 1997 
z
" transform="scale(0.015625)"/>
       <path id="DejaVuSans-79" d="M 2059 -325 
Q 1816 -950 1584 -1140 
Q 1353 -1331 966 -1331 
L 506 -1331 
L 506 -850 
L 844 -850 
Q 1081 -850 1212 -737 
Q 1344 -625 1503 -206 
L 1606 56 
L 191 3500 
L 800 3500 
L 1894 763 
L 2988 3500 
L 3597 3500 
L 2059 -325 
z
" transform="scale(0.015625)"/>
       <path id="DejaVuSans-73" d="M 2834 3397 
L 2834 2853 
Q 2591 2978 2328 3040 
Q 2066 3103 1784 3103 
Q 1356 3103 1142 2972 
Q 928 2841 928 2578 
Q 928 2378 1081 2264 
Q 1234 2150 1697 2047 
L 1894 2003 
Q 2506 1872 2764 1633 
Q 3022 1394 3022 966 
Q 3022 478 2636 193 
Q 2250 -91 1575 -91 
Q 1294 -91 989 -36 
Q 684 19 347 128 
L 347 722 
Q 666 556 975 473 
Q 1284 391 1588 391 
Q 1994 391 2212 530 
Q 2431 669 2431 922 
Q 2431 1156 2273 1281 
Q 2116 1406 1581 1522 
L 1381 1569 
Q 847 1681 609 1914 
Q 372 2147 372 2553 
Q 372 3047 722 3315 
Q 1072 3584 1716 3584 
Q 2034 3584 2315 3537 
Q 2597 3491 2834 3397 
z
" transform="scale(0.015625)"/>
       <path id="DejaVuSans-29" d="M 513 4856 
L 1013 4856 
Q 1481 4119 1714 3412 
Q 1947 2706 1947 2009 
Q 1947 1309 1714 600 
Q 1481 -109 1013 -844 
L 513 -844 
Q 928 -128 1133 580 
Q 1338 1288 1338 2009 
Q 1338 2731 1133 3434 
Q 928 4138 513 4856 
z
" transform="scale(0.015625)"/>
      </defs>
      <use xlink:href="#DejaVuSans-54"/>
      <use xlink:href="#DejaVuSans-69" transform="translate(57.958984 0)"/>
      <use xlink:href="#DejaVuSans-6d" transform="translate(85.742188 0)"/>
      <use xlink:href="#DejaVuSans-65" transform="translate(183.154297 0)"/>
      <use xlink:href="#DejaVuSans-20" transform="translate(244.677734 0)"/>
      <use xlink:href="#DejaVuSans-28" transform="translate(276.464844 0)"/>
      <use xlink:href="#DejaVuSans-64" transform="translate(315.478516 0)"/>
      <use xlink:href="#DejaVuSans-61" transform="translate(378.955078 0)"/>
      <use xlink:href="#DejaVuSans-79" transform="translate(440.234375 0)"/>
      <use xlink:href="#DejaVuSans-73" transform="translate(499.414062 0)"/>
      <use xlink:href="#DejaVuSans-29" transform="translate(551.513672 0)"/>
     </g>
    </g>
   </g>
   <g id="matplotlib.axis_2">
    <g id="ytick_1">
     <g id="line2d_13">
      <path d="M 39.632812 178.36 
L 277.902813 178.36 
" clip-path="url(#p97d3eca940)" style="fill: none; stroke: #cccccc; stroke-opacity: 0.3; stroke-width: 0.5; stroke-linecap: round"/>
     </g>
     <g id="line2d_14">
      <defs>
       <path id="m5589e77387" d="M 0 0 
L -3.5 0 
" style="stroke: #262626; stroke-width: 0.8"/>
      </defs>
      <g>
       <use xlink:href="#m5589e77387" x="39.632812" y="178.36" style="fill: #262626; stroke: #262626; stroke-width: 0.8"/>
      </g>
     </g>
     <g id="text_8">
      <!-- 0.0 -->
      <g style="fill: #262626" transform="translate(19.910312 181.399375) scale(0.08 -0.08)">
       <defs>
        <path id="DejaVuSans-2e" d="M 684 794 
L 1344 794 
L 1344 0 
L 684 0 
L 684 794 
z
" transform="scale(0.015625)"/>
       </defs>
       <use xlink:href="#DejaVuSans-30"/>
       <use xlink:href="#DejaVuSans-2e" transform="translate(63.623047 0)"/>
       <use xlink:href="#DejaVuSans-30" transform="translate(95.410156 0)"/>
      </g>
     </g>
    </g>
    <g id="ytick_2">
     <g id="line2d_15">
      <path d="M 39.632812 145.758095 
L 277.902813 145.758095 
" clip-path="url(#p97d3eca940)" style="fill: none; stroke: #cccccc; stroke-opacity: 0.3; stroke-width: 0.5; stroke-linecap: round"/>
     </g>
     <g id="line2d_16">
      <g>
       <use xlink:href="#m5589e77387" x="39.632812" y="145.758095" style="fill: #262626; stroke: #262626; stroke-width: 0.8"/>
      </g>
     </g>
     <g id="text_9">
      <!-- 0.2 -->
      <g style="fill: #262626" transform="translate(19.910312 148.79747) scale(0.08 -0.08)">
       <use xlink:href="#DejaVuSans-30"/>
       <use xlink:href="#DejaVuSans-2e" transform="translate(63.623047 0)"/>
       <use xlink:href="#DejaVuSans-32" transform="translate(95.410156 0)"/>
      </g>
     </g>
    </g>
    <g id="ytick_3">
     <g id="line2d_17">
      <path d="M 39.632812 113.15619 
L 277.902813 113.15619 
" clip-path="url(#p97d3eca940)" style="fill: none; stroke: #cccccc; stroke-opacity: 0.3; stroke-width: 0.5; stroke-linecap: round"/>
     </g>
     <g id="line2d_18">
      <g>
       <use xlink:href="#m5589e77387" x="39.632812" y="113.15619" style="fill: #262626; stroke: #262626; stroke-width: 0.8"/>
      </g>
     </g>
     <g id="text_10">
      <!-- 0.4 -->
      <g style="fill: #262626" transform="translate(19.910312 116.195565) scale(0.08 -0.08)">
       <use xlink:href="#DejaVuSans-30"/>
       <use xlink:href="#DejaVuSans-2e" transform="translate(63.623047 0)"/>
       <use xlink:href="#DejaVuSans-34" transform="translate(95.410156 0)"/>
      </g>
     </g>
    </g>
    <g id="ytick_4">
     <g id="line2d_19">
      <path d="M 39.632812 80.554286 
L 277.902813 80.554286 
" clip-path="url(#p97d3eca940)" style="fill: none; stroke: #cccccc; stroke-opacity: 0.3; stroke-width: 0.5; stroke-linecap: round"/>
     </g>
     <g id="line2d_20">
      <g>
       <use xlink:href="#m5589e77387" x="39.632812" y="80.554286" style="fill: #262626; stroke: #262626; stroke-width: 0.8"/>
      </g>
     </g>
     <g id="text_11">
      <!-- 0.6 -->
      <g style="fill: #262626" transform="translate(19.910312 83.593661) scale(0.08 -0.08)">
       <defs>
        <path id="DejaVuSans-36" d="M 2113 2584 
Q 1688 2584 1439 2293 
Q 1191 2003 1191 1497 
Q 1191 994 1439 701 
Q 1688 409 2113 409 
Q 2538 409 2786 701 
Q 3034 994 3034 1497 
Q 3034 2003 2786 2293 
Q 2538 2584 2113 2584 
z
M 3366 4563 
L 3366 3988 
Q 3128 4100 2886 4159 
Q 2644 4219 2406 4219 
Q 1781 4219 1451 3797 
Q 1122 3375 1075 2522 
Q 1259 2794 1537 2939 
Q 1816 3084 2150 3084 
Q 2853 3084 3261 2657 
Q 3669 2231 3669 1497 
Q 3669 778 3244 343 
Q 2819 -91 2113 -91 
Q 1303 -91 875 529 
Q 447 1150 447 2328 
Q 447 3434 972 4092 
Q 1497 4750 2381 4750 
Q 2619 4750 2861 4703 
Q 3103 4656 3366 4563 
z
" transform="scale(0.015625)"/>
       </defs>
       <use xlink:href="#DejaVuSans-30"/>
       <use xlink:href="#DejaVuSans-2e" transform="translate(63.623047 0)"/>
       <use xlink:href="#DejaVuSans-36" transform="translate(95.410156 0)"/>
      </g>
     </g>
    </g>
    <g id="ytick_5">
     <g id="line2d_21">
      <path d="M 39.632812 47.952381 
L 277.902813 47.952381 
" clip-path="url(#p97d3eca940)" style="fill: none; stroke: #cccccc; stroke-opacity: 0.3; stroke-width: 0.5; stroke-linecap: round"/>
     </g>
     <g id="line2d_22">
      <g>
       <use xlink:href="#m5589e77387" x="39.632812" y="47.952381" style="fill: #262626; stroke: #262626; stroke-width: 0.8"/>
      </g>
     </g>
     <g id="text_12">
      <!-- 0.8 -->
      <g style="fill: #262626" transform="translate(19.910312 50.991756) scale(0.08 -0.08)">
       <defs>
        <path id="DejaVuSans-38" d="M 2034 2216 
Q 1584 2216 1326 1975 
Q 1069 1734 1069 1313 
Q 1069 891 1326 650 
Q 1584 409 2034 409 
Q 2484 409 2743 651 
Q 3003 894 3003 1313 
Q 3003 1734 2745 1975 
Q 2488 2216 2034 2216 
z
M 1403 2484 
Q 997 2584 770 2862 
Q 544 3141 544 3541 
Q 544 4100 942 4425 
Q 1341 4750 2034 4750 
Q 2731 4750 3128 4425 
Q 3525 4100 3525 3541 
Q 3525 3141 3298 2862 
Q 3072 2584 2669 2484 
Q 3125 2378 3379 2068 
Q 3634 1759 3634 1313 
Q 3634 634 3220 271 
Q 2806 -91 2034 -91 
Q 1263 -91 848 271 
Q 434 634 434 1313 
Q 434 1759 690 2068 
Q 947 2378 1403 2484 
z
M 1172 3481 
Q 1172 3119 1398 2916 
Q 1625 2713 2034 2713 
Q 2441 2713 2670 2916 
Q 2900 3119 2900 3481 
Q 2900 3844 2670 4047 
Q 2441 4250 2034 4250 
Q 1625 4250 1398 4047 
Q 1172 3844 1172 3481 
z
" transform="scale(0.015625)"/>
       </defs>
       <use xlink:href="#DejaVuSans-30"/>
       <use xlink:href="#DejaVuSans-2e" transform="translate(63.623047 0)"/>
       <use xlink:href="#DejaVuSans-38" transform="translate(95.410156 0)"/>
      </g>
     </g>
    </g>
    <g id="ytick_6">
     <g id="line2d_23">
      <path d="M 39.632812 15.350476 
L 277.902813 15.350476 
" clip-path="url(#p97d3eca940)" style="fill: none; stroke: #cccccc; stroke-opacity: 0.3; stroke-width: 0.5; stroke-linecap: round"/>
     </g>
     <g id="line2d_24">
      <g>
       <use xlink:href="#m5589e77387" x="39.632812" y="15.350476" style="fill: #262626; stroke: #262626; stroke-width: 0.8"/>
      </g>
     </g>
     <g id="text_13">
      <!-- 1.0 -->
      <g style="fill: #262626" transform="translate(19.910312 18.389851) scale(0.08 -0.08)">
       <use xlink:href="#DejaVuSans-31"/>
       <use xlink:href="#DejaVuSans-2e" transform="translate(63.623047 0)"/>
       <use xlink:href="#DejaVuSans-30" transform="translate(95.410156 0)"/>
      </g>
     </g>
    </g>
    <g id="text_14">
     <!-- Survival probability -->
     <g style="fill: #262626" transform="translate(14.038594 136.361797) rotate(-90) scale(0.09 -0.09)">
      <defs>
       <path id="DejaVuSans-53" d="M 3425 4513 
L 3425 3897 
Q 3066 4069 2747 4153 
Q 2428 4238 2131 4238 
Q 1616 4238 1336 4038 
Q 1056 3838 1056 3469 
Q 1056 3159 1242 3001 
Q 1428 2844 1947 2747 
L 2328 2669 
Q 3034 2534 3370 2195 
Q 3706 1856 3706 1288 
Q 3706 609 3251 259 
Q 2797 -91 1919 -91 
Q 1588 -91 1214 -16 
Q 841 59 441 206 
L 441 856 
Q 825 641 1194 531 
Q 1563 422 1919 422 
Q 2459 422 2753 634 
Q 3047 847 3047 1241 
Q 3047 1584 2836 1778 
Q 2625 1972 2144 2069 
L 1759 2144 
Q 1053 2284 737 2584 
Q 422 2884 422 3419 
Q 422 4038 858 4394 
Q 1294 4750 2059 4750 
Q 2388 4750 2728 4690 
Q 3069 4631 3425 4513 
z
" transform="scale(0.015625)"/>
       <path id="DejaVuSans-75" d="M 544 1381 
L 544 3500 
L 1119 3500 
L 1119 1403 
Q 1119 906 1312 657 
Q 1506 409 1894 409 
Q 2359 409 2629 706 
Q 2900 1003 2900 1516 
L 2900 3500 
L 3475 3500 
L 3475 0 
L 2900 0 
L 2900 538 
Q 2691 219 2414 64 
Q 2138 -91 1772 -91 
Q 1169 -91 856 284 
Q 544 659 544 1381 
z
M 1991 3584 
L 1991 3584 
z
" transform="scale(0.015625)"/>
       <path id="DejaVuSans-72" d="M 2631 2963 
Q 2534 3019 2420 3045 
Q 2306 3072 2169 3072 
Q 1681 3072 1420 2755 
Q 1159 2438 1159 1844 
L 1159 0 
L 581 0 
L 581 3500 
L 1159 3500 
L 1159 2956 
Q 1341 3275 1631 3429 
Q 1922 3584 2338 3584 
Q 2397 3584 2469 3576 
Q 2541 3569 2628 3553 
L 2631 2963 
z
" transform="scale(0.015625)"/>
       <path id="DejaVuSans-76" d="M 191 3500 
L 800 3500 
L 1894 563 
L 2988 3500 
L 3597 3500 
L 2284 0 
L 1503 0 
L 191 3500 
z
" transform="scale(0.015625)"/>
       <path id="DejaVuSans-6c" d="M 603 4863 
L 1178 4863 
L 1178 0 
L 603 0 
L 603 4863 
z
" transform="scale(0.015625)"/>
       <path id="DejaVuSans-70" d="M 1159 525 
L 1159 -1331 
L 581 -1331 
L 581 3500 
L 1159 3500 
L 1159 2969 
Q 1341 3281 1617 3432 
Q 1894 3584 2278 3584 
Q 2916 3584 3314 3078 
Q 3713 2572 3713 1747 
Q 3713 922 3314 415 
Q 2916 -91 2278 -91 
Q 1894 -91 1617 61 
Q 1341 213 1159 525 
z
M 3116 1747 
Q 3116 2381 2855 2742 
Q 2594 3103 2138 3103 
Q 1681 3103 1420 2742 
Q 1159 2381 1159 1747 
Q 1159 1113 1420 752 
Q 1681 391 2138 391 
Q 2594 391 2855 752 
Q 3116 1113 3116 1747 
z
" transform="scale(0.015625)"/>
       <path id="DejaVuSans-6f" d="M 1959 3097 
Q 1497 3097 1228 2736 
Q 959 2375 959 1747 
Q 959 1119 1226 758 
Q 1494 397 1959 397 
Q 2419 397 2687 759 
Q 2956 1122 2956 1747 
Q 2956 2369 2687 2733 
Q 2419 3097 1959 3097 
z
M 1959 3584 
Q 2709 3584 3137 3096 
Q 3566 2609 3566 1747 
Q 3566 888 3137 398 
Q 2709 -91 1959 -91 
Q 1206 -91 779 398 
Q 353 888 353 1747 
Q 353 2609 779 3096 
Q 1206 3584 1959 3584 
z
" transform="scale(0.015625)"/>
       <path id="DejaVuSans-62" d="M 3116 1747 
Q 3116 2381 2855 2742 
Q 2594 3103 2138 3103 
Q 1681 3103 1420 2742 
Q 1159 2381 1159 1747 
Q 1159 1113 1420 752 
Q 1681 391 2138 391 
Q 2594 391 2855 752 
Q 3116 1113 3116 1747 
z
M 1159 2969 
Q 1341 3281 1617 3432 
Q 1894 3584 2278 3584 
Q 2916 3584 3314 3078 
Q 3713 2572 3713 1747 
Q 3713 922 3314 415 
Q 2916 -91 2278 -91 
Q 1894 -91 1617 61 
Q 1341 213 1159 525 
L 1159 0 
L 581 0 
L 581 4863 
L 1159 4863 
L 1159 2969 
z
" transform="scale(0.015625)"/>
       <path id="DejaVuSans-74" d="M 1172 4494 
L 1172 3500 
L 2356 3500 
L 2356 3053 
L 1172 3053 
L 1172 1153 
Q 1172 725 1289 603 
Q 1406 481 1766 481 
L 2356 481 
L 2356 0 
L 1766 0 
Q 1100 0 847 248 
Q 594 497 594 1153 
L 594 3053 
L 172 3053 
L 172 3500 
L 594 3500 
L 594 4494 
L 1172 4494 
z
" transform="scale(0.015625)"/>
      </defs>
      <use xlink:href="#DejaVuSans-53"/>
      <use xlink:href="#DejaVuSans-75" transform="translate(63.476562 0)"/>
      <use xlink:href="#DejaVuSans-72" transform="translate(126.855469 0)"/>
      <use xlink:href="#DejaVuSans-76" transform="translate(167.96875 0)"/>
      <use xlink:href="#DejaVuSans-69" transform="translate(227.148438 0)"/>
      <use xlink:href="#DejaVuSans-76" transform="translate(254.931641 0)"/>
      <use xlink:href="#DejaVuSans-61" transform="translate(314.111328 0)"/>
      <use xlink:href="#DejaVuSans-6c" transform="translate(375.390625 0)"/>
      <use xlink:href="#DejaVuSans-20" transform="translate(403.173828 0)"/>
      <use xlink:href="#DejaVuSans-70" transform="translate(434.960938 0)"/>
      <use xlink:href="#DejaVuSans-72" transform="translate(498.4375 0)"/>
      <use xlink:href="#DejaVuSans-6f" transform="translate(537.300781 0)"/>
      <use xlink:href="#DejaVuSans-62" transform="translate(598.482422 0)"/>
      <use xlink:href="#DejaVuSans-61" transform="translate(661.958984 0)"/>
      <use xlink:href="#DejaVuSans-62" transform="translate(723.238281 0)"/>
      <use xlink:href="#DejaVuSans-69" transform="translate(786.714844 0)"/>
      <use xlink:href="#DejaVuSans-6c" transform="translate(814.498047 0)"/>
      <use xlink:href="#DejaVuSans-69" transform="translate(842.28125 0)"/>
      <use xlink:href="#DejaVuSans-74" transform="translate(870.064453 0)"/>
      <use xlink:href="#DejaVuSans-79" transform="translate(909.273438 0)"/>
     </g>
    </g>
   </g>
   <g id="FillBetweenPolyCollection_1">
    <defs>
     <path id="ma566e9a0aa" d="M 39.632812 -197.550091 
L 39.632812 -192.100649 
L 40.306437 -192.100649 
L 40.306437 -192.100649 
L 40.48607 -192.100649 
L 40.48607 -191.380558 
L 41.204603 -191.380558 
L 41.204603 -191.380558 
L 42.282403 -191.380558 
L 42.282403 -191.380558 
L 42.417127 -191.380558 
L 42.417127 -190.330991 
L 42.506944 -190.330991 
L 42.506944 -190.330991 
L 42.686577 -190.330991 
L 42.686577 -190.330991 
L 42.731486 -190.330991 
L 42.731486 -189.231191 
L 43.315294 -189.231191 
L 43.315294 -189.231191 
L 43.629652 -189.231191 
L 43.629652 -189.231191 
L 43.67456 -189.231191 
L 43.67456 -188.121979 
L 43.899102 -188.121979 
L 43.899102 -188.121979 
L 44.078735 -188.121979 
L 44.078735 -187.021856 
L 44.348185 -187.021856 
L 44.348185 -187.021856 
L 44.572726 -187.021856 
L 44.572726 -187.021856 
L 45.425984 -187.021856 
L 45.425984 -187.021856 
L 46.728325 -187.021856 
L 46.728325 -187.021856 
L 48.210299 -187.021856 
L 48.210299 -185.903256 
L 48.614474 -185.903256 
L 48.614474 -184.804624 
L 49.108465 -184.804624 
L 49.108465 -183.722743 
L 49.692273 -183.722743 
L 49.692273 -183.722743 
L 50.680256 -183.722743 
L 50.680256 -182.646751 
L 50.859889 -182.646751 
L 50.859889 -181.583834 
L 50.904797 -181.583834 
L 50.904797 -180.532404 
L 51.039522 -180.532404 
L 51.039522 -179.483159 
L 51.219155 -179.483159 
L 51.219155 -178.443462 
L 52.117322 -178.443462 
L 52.117322 -177.412386 
L 52.790946 -177.412386 
L 52.790946 -177.412386 
L 53.240029 -177.412386 
L 53.240029 -176.381353 
L 54.048379 -176.381353 
L 54.048379 -175.357785 
L 54.54237 -175.357785 
L 54.54237 -174.341078 
L 54.587278 -174.341078 
L 54.587278 -174.341078 
L 54.901637 -174.341078 
L 54.901637 -173.323025 
L 55.126178 -173.323025 
L 55.126178 -173.323025 
L 55.844711 -173.323025 
L 55.844711 -173.323025 
L 55.979436 -173.323025 
L 55.979436 -173.323025 
L 56.069253 -173.323025 
L 56.069253 -173.323025 
L 56.159069 -173.323025 
L 56.159069 -173.323025 
L 56.248886 -173.323025 
L 56.248886 -172.24584 
L 56.338702 -172.24584 
L 56.338702 -172.24584 
L 56.383611 -172.24584 
L 56.383611 -172.24584 
L 56.787785 -172.24584 
L 56.787785 -172.24584 
L 56.832694 -172.24584 
L 56.832694 -172.24584 
L 56.877602 -172.24584 
L 56.877602 -172.24584 
L 56.92251 -172.24584 
L 56.92251 -171.122274 
L 57.102144 -171.122274 
L 57.102144 -171.122274 
L 57.506318 -171.122274 
L 57.506318 -171.122274 
L 57.596135 -171.122274 
L 57.596135 -169.988272 
L 57.865585 -169.988272 
L 57.865585 -168.862655 
L 58.045218 -168.862655 
L 58.045218 -168.862655 
L 58.26976 -168.862655 
L 58.26976 -167.73515 
L 58.314668 -167.73515 
L 58.314668 -167.73515 
L 59.123017 -167.73515 
L 59.123017 -166.595455 
L 60.021183 -166.595455 
L 60.021183 -165.463099 
L 60.066092 -165.463099 
L 60.066092 -165.463099 
L 60.155908 -165.463099 
L 60.155908 -165.463099 
L 60.560083 -165.463099 
L 60.560083 -165.463099 
L 60.604991 -165.463099 
L 60.604991 -164.296762 
L 60.91935 -164.296762 
L 60.91935 -163.137761 
L 61.054075 -163.137761 
L 61.054075 -163.137761 
L 61.368433 -163.137761 
L 61.368433 -163.137761 
L 61.458249 -163.137761 
L 61.458249 -161.953321 
L 61.862424 -161.953321 
L 61.862424 -160.776014 
L 62.22169 -160.776014 
L 62.22169 -160.776014 
L 62.401324 -160.776014 
L 62.401324 -160.776014 
L 62.446232 -160.776014 
L 62.446232 -160.776014 
L 62.536049 -160.776014 
L 62.536049 -159.559784 
L 62.625865 -159.559784 
L 62.625865 -159.559784 
L 63.074948 -159.559784 
L 63.074948 -159.559784 
L 63.703665 -159.559784 
L 63.703665 -159.559784 
L 63.83839 -159.559784 
L 63.83839 -159.559784 
L 63.973114 -159.559784 
L 63.973114 -159.559784 
L 64.062931 -159.559784 
L 64.062931 -158.275855 
L 64.197656 -158.275855 
L 64.197656 -157.000463 
L 64.781464 -157.000463 
L 64.781464 -157.000463 
L 65.006005 -157.000463 
L 65.006005 -155.719736 
L 65.320364 -155.719736 
L 65.320364 -155.719736 
L 65.365272 -155.719736 
L 65.365272 -155.719736 
L 65.589813 -155.719736 
L 65.589813 -155.719736 
L 65.724538 -155.719736 
L 65.724538 -155.719736 
L 65.769447 -155.719736 
L 65.769447 -155.719736 
L 66.128713 -155.719736 
L 66.128713 -155.719736 
L 66.263438 -155.719736 
L 66.263438 -154.345678 
L 67.251421 -154.345678 
L 67.251421 -152.981263 
L 67.341237 -152.981263 
L 67.341237 -151.625861 
L 67.386146 -151.625861 
L 67.386146 -151.625861 
L 67.925045 -151.625861 
L 67.925045 -150.263256 
L 68.05977 -150.263256 
L 68.05977 -150.263256 
L 68.284312 -150.263256 
L 68.284312 -150.263256 
L 68.419037 -150.263256 
L 68.419037 -150.263256 
L 68.463945 -150.263256 
L 68.463945 -150.263256 
L 68.643578 -150.263256 
L 68.643578 -150.263256 
L 68.778303 -150.263256 
L 68.778303 -150.263256 
L 69.901011 -150.263256 
L 69.901011 -148.807111 
L 70.619544 -148.807111 
L 70.619544 -147.361114 
L 70.664452 -147.361114 
L 70.664452 -147.361114 
L 71.023719 -147.361114 
L 71.023719 -147.361114 
L 71.068627 -147.361114 
L 71.068627 -147.361114 
L 72.595509 -147.361114 
L 72.595509 -145.868008 
L 72.820051 -145.868008 
L 72.820051 -144.385191 
L 73.673309 -144.385191 
L 73.673309 -144.385191 
L 74.346933 -144.385191 
L 74.346933 -144.385191 
L 74.571475 -144.385191 
L 74.571475 -142.871788 
L 74.796016 -142.871788 
L 74.796016 -142.871788 
L 75.469641 -142.871788 
L 75.469641 -142.871788 
L 76.098357 -142.871788 
L 76.098357 -142.871788 
L 76.143265 -142.871788 
L 76.143265 -142.871788 
L 76.457624 -142.871788 
L 76.457624 -142.871788 
L 76.996523 -142.871788 
L 76.996523 -142.871788 
L 77.35579 -142.871788 
L 77.35579 -142.871788 
L 77.849781 -142.871788 
L 77.849781 -142.871788 
L 78.433589 -142.871788 
L 78.433589 -142.871788 
L 78.837764 -142.871788 
L 78.837764 -142.871788 
L 79.46648 -142.871788 
L 79.46648 -142.871788 
L 79.73593 -142.871788 
L 79.73593 -142.871788 
L 79.915563 -142.871788 
L 79.915563 -142.871788 
L 80.993362 -142.871788 
L 80.993362 -142.871788 
L 81.891529 -142.871788 
L 81.891529 -140.982322 
L 82.071162 -140.982322 
L 82.071162 -140.982322 
L 83.373503 -140.982322 
L 83.373503 -139.080807 
L 84.406394 -139.080807 
L 84.406394 -139.080807 
L 84.675844 -139.080807 
L 84.675844 -139.080807 
L 84.720752 -139.080807 
L 84.720752 -137.131002 
L 84.76566 -137.131002 
L 84.76566 -135.201929 
L 85.84346 -135.201929 
L 85.84346 -135.201929 
L 86.696717 -135.201929 
L 86.696717 -135.201929 
L 87.41525 -135.201929 
L 87.41525 -133.218856 
L 87.774517 -133.218856 
L 87.774517 -133.218856 
L 88.582866 -133.218856 
L 88.582866 -133.218856 
L 88.762499 -133.218856 
L 88.762499 -133.218856 
L 89.391216 -133.218856 
L 89.391216 -133.218856 
L 89.705574 -133.218856 
L 89.705574 -133.218856 
L 90.244474 -133.218856 
L 90.244474 -133.218856 
L 91.861173 -133.218856 
L 91.861173 -130.999819 
L 92.669522 -130.999819 
L 92.669522 -130.999819 
L 92.894064 -130.999819 
L 92.894064 -130.999819 
L 94.376038 -130.999819 
L 94.376038 -130.999819 
L 96.666361 -130.999819 
L 96.666361 -128.655317 
L 100.259026 -128.655317 
L 100.259026 -128.655317 
L 101.022467 -128.655317 
L 101.022467 -126.286981 
L 101.157192 -126.286981 
L 101.157192 -126.286981 
L 104.92949 -126.286981 
L 104.92949 -126.286981 
L 104.974398 -126.286981 
L 104.974398 -126.286981 
L 105.198939 -126.286981 
L 105.198939 -126.286981 
L 106.052197 -126.286981 
L 106.052197 -126.286981 
L 107.983254 -126.286981 
L 107.983254 -126.286981 
L 108.297613 -126.286981 
L 108.297613 -126.286981 
L 108.701787 -126.286981 
L 108.701787 -126.286981 
L 108.881421 -126.286981 
L 108.881421 -126.286981 
L 109.510137 -126.286981 
L 109.510137 -123.302136 
L 111.665736 -123.302136 
L 111.665736 -123.302136 
L 112.429177 -123.302136 
L 112.429177 -123.302136 
L 113.237526 -123.302136 
L 113.237526 -123.302136 
L 113.686609 -123.302136 
L 113.686609 -123.302136 
L 114.629684 -123.302136 
L 114.629684 -119.970902 
L 116.785282 -119.970902 
L 116.785282 -116.7209 
L 118.71634 -116.7209 
L 118.71634 -116.7209 
L 119.839047 -116.7209 
L 119.839047 -116.7209 
L 120.108497 -116.7209 
L 120.108497 -116.7209 
L 120.647397 -116.7209 
L 120.647397 -113.159955 
L 120.737213 -113.159955 
L 120.737213 -113.159955 
L 121.815013 -113.159955 
L 121.815013 -113.159955 
L 122.488637 -113.159955 
L 122.488637 -113.159955 
L 125.497494 -113.159955 
L 125.497494 -113.159955 
L 127.069285 -113.159955 
L 127.069285 -113.159955 
L 128.147084 -113.159955 
L 128.147084 -108.816164 
L 129.808691 -108.816164 
L 129.808691 -108.816164 
L 130.347591 -108.816164 
L 130.347591 -108.816164 
L 130.527224 -108.816164 
L 130.527224 -108.816164 
L 130.661949 -108.816164 
L 130.661949 -108.816164 
L 131.42539 -108.816164 
L 131.42539 -108.816164 
L 131.649932 -108.816164 
L 131.649932 -108.816164 
L 134.34443 -108.816164 
L 134.34443 -108.816164 
L 137.398195 -108.816164 
L 137.398195 -108.816164 
L 144.269166 -108.816164 
L 144.269166 -108.816164 
L 146.514581 -108.816164 
L 146.514581 -108.816164 
L 157.517116 -108.816164 
L 157.517116 -108.816164 
L 158.235649 -108.816164 
L 158.235649 -99.992416 
L 158.909274 -99.992416 
L 158.909274 -99.992416 
L 161.019964 -99.992416 
L 161.019964 -99.992416 
L 164.926987 -99.992416 
L 164.926987 -99.992416 
L 166.633502 -99.992416 
L 166.633502 -88.994757 
L 172.291949 -88.994757 
L 172.291949 -79.491933 
L 174.851722 -79.491933 
L 174.851722 -79.491933 
L 182.575951 -79.491933 
L 182.575951 -69.620605 
L 190.704354 -69.620605 
L 190.704354 -69.620605 
L 193.21922 -69.620605 
L 193.21922 -69.620605 
L 193.758119 -69.620605 
L 193.758119 -69.620605 
L 211.047817 -69.620605 
L 211.047817 -69.620605 
L 218.412779 -69.620605 
L 218.412779 -69.620605 
L 262.692369 -69.620605 
L 262.692369 -69.620605 
L 266.015584 -69.620605 
L 266.015584 -69.620605 
L 266.015584 -122.429008 
L 266.015584 -122.429008 
L 266.015584 -122.429008 
L 262.692369 -122.429008 
L 262.692369 -122.429008 
L 218.412779 -122.429008 
L 218.412779 -122.429008 
L 211.047817 -122.429008 
L 211.047817 -122.429008 
L 193.758119 -122.429008 
L 193.758119 -122.429008 
L 193.21922 -122.429008 
L 193.21922 -122.429008 
L 190.704354 -122.429008 
L 190.704354 -122.429008 
L 182.575951 -122.429008 
L 182.575951 -128.691127 
L 174.851722 -128.691127 
L 174.851722 -128.691127 
L 172.291949 -128.691127 
L 172.291949 -134.035562 
L 166.633502 -134.035562 
L 166.633502 -138.509725 
L 164.926987 -138.509725 
L 164.926987 -138.509725 
L 161.019964 -138.509725 
L 161.019964 -138.509725 
L 158.909274 -138.509725 
L 158.909274 -138.509725 
L 158.235649 -138.509725 
L 158.235649 -142.093793 
L 157.517116 -142.093793 
L 157.517116 -142.093793 
L 146.514581 -142.093793 
L 146.514581 -142.093793 
L 144.269166 -142.093793 
L 144.269166 -142.093793 
L 137.398195 -142.093793 
L 137.398195 -142.093793 
L 134.34443 -142.093793 
L 134.34443 -142.093793 
L 131.649932 -142.093793 
L 131.649932 -142.093793 
L 131.42539 -142.093793 
L 131.42539 -142.093793 
L 130.661949 -142.093793 
L 130.661949 -142.093793 
L 130.527224 -142.093793 
L 130.527224 -142.093793 
L 130.347591 -142.093793 
L 130.347591 -142.093793 
L 129.808691 -142.093793 
L 129.808691 -142.093793 
L 128.147084 -142.093793 
L 128.147084 -144.78816 
L 127.069285 -144.78816 
L 127.069285 -144.78816 
L 125.497494 -144.78816 
L 125.497494 -144.78816 
L 122.488637 -144.78816 
L 122.488637 -144.78816 
L 121.815013 -144.78816 
L 121.815013 -144.78816 
L 120.737213 -144.78816 
L 120.737213 -144.78816 
L 120.647397 -144.78816 
L 120.647397 -147.15633 
L 120.108497 -147.15633 
L 120.108497 -147.15633 
L 119.839047 -147.15633 
L 119.839047 -147.15633 
L 118.71634 -147.15633 
L 118.71634 -147.15633 
L 116.785282 -147.15633 
L 116.785282 -149.347978 
L 114.629684 -149.347978 
L 114.629684 -151.48971 
L 113.686609 -151.48971 
L 113.686609 -151.48971 
L 113.237526 -151.48971 
L 113.237526 -151.48971 
L 112.429177 -151.48971 
L 112.429177 -151.48971 
L 111.665736 -151.48971 
L 111.665736 -151.48971 
L 109.510137 -151.48971 
L 109.510137 -153.456134 
L 108.881421 -153.456134 
L 108.881421 -153.456134 
L 108.701787 -153.456134 
L 108.701787 -153.456134 
L 108.297613 -153.456134 
L 108.297613 -153.456134 
L 107.983254 -153.456134 
L 107.983254 -153.456134 
L 106.052197 -153.456134 
L 106.052197 -153.456134 
L 105.198939 -153.456134 
L 105.198939 -153.456134 
L 104.974398 -153.456134 
L 104.974398 -153.456134 
L 104.92949 -153.456134 
L 104.92949 -153.456134 
L 101.157192 -153.456134 
L 101.157192 -153.456134 
L 101.022467 -153.456134 
L 101.022467 -155.157393 
L 100.259026 -155.157393 
L 100.259026 -155.157393 
L 96.666361 -155.157393 
L 96.666361 -156.815613 
L 94.376038 -156.815613 
L 94.376038 -156.815613 
L 92.894064 -156.815613 
L 92.894064 -156.815613 
L 92.669522 -156.815613 
L 92.669522 -156.815613 
L 91.861173 -156.815613 
L 91.861173 -158.393163 
L 90.244474 -158.393163 
L 90.244474 -158.393163 
L 89.705574 -158.393163 
L 89.705574 -158.393163 
L 89.391216 -158.393163 
L 89.391216 -158.393163 
L 88.762499 -158.393163 
L 88.762499 -158.393163 
L 88.582866 -158.393163 
L 88.582866 -158.393163 
L 87.774517 -158.393163 
L 87.774517 -158.393163 
L 87.41525 -158.393163 
L 87.41525 -159.84787 
L 86.696717 -159.84787 
L 86.696717 -159.84787 
L 85.84346 -159.84787 
L 85.84346 -159.84787 
L 84.76566 -159.84787 
L 84.76566 -161.257706 
L 84.720752 -161.257706 
L 84.720752 -162.654441 
L 84.675844 -162.654441 
L 84.675844 -162.654441 
L 84.406394 -162.654441 
L 84.406394 -162.654441 
L 83.373503 -162.654441 
L 83.373503 -164.009301 
L 82.071162 -164.009301 
L 82.071162 -164.009301 
L 81.891529 -164.009301 
L 81.891529 -165.337644 
L 80.993362 -165.337644 
L 80.993362 -165.337644 
L 79.915563 -165.337644 
L 79.915563 -165.337644 
L 79.73593 -165.337644 
L 79.73593 -165.337644 
L 79.46648 -165.337644 
L 79.46648 -165.337644 
L 78.837764 -165.337644 
L 78.837764 -165.337644 
L 78.433589 -165.337644 
L 78.433589 -165.337644 
L 77.849781 -165.337644 
L 77.849781 -165.337644 
L 77.35579 -165.337644 
L 77.35579 -165.337644 
L 76.996523 -165.337644 
L 76.996523 -165.337644 
L 76.457624 -165.337644 
L 76.457624 -165.337644 
L 76.143265 -165.337644 
L 76.143265 -165.337644 
L 76.098357 -165.337644 
L 76.098357 -165.337644 
L 75.469641 -165.337644 
L 75.469641 -165.337644 
L 74.796016 -165.337644 
L 74.796016 -165.337644 
L 74.571475 -165.337644 
L 74.571475 -166.484588 
L 74.346933 -166.484588 
L 74.346933 -166.484588 
L 73.673309 -166.484588 
L 73.673309 -166.484588 
L 72.820051 -166.484588 
L 72.820051 -167.605213 
L 72.595509 -167.605213 
L 72.595509 -168.718856 
L 71.068627 -168.718856 
L 71.068627 -168.718856 
L 71.023719 -168.718856 
L 71.023719 -168.718856 
L 70.664452 -168.718856 
L 70.664452 -168.718856 
L 70.619544 -168.718856 
L 70.619544 -169.798822 
L 69.901011 -169.798822 
L 69.901011 -170.871938 
L 68.778303 -170.871938 
L 68.778303 -170.871938 
L 68.643578 -170.871938 
L 68.643578 -170.871938 
L 68.463945 -170.871938 
L 68.463945 -170.871938 
L 68.419037 -170.871938 
L 68.419037 -170.871938 
L 68.284312 -170.871938 
L 68.284312 -170.871938 
L 68.05977 -170.871938 
L 68.05977 -170.871938 
L 67.925045 -170.871938 
L 67.925045 -171.890541 
L 67.386146 -171.890541 
L 67.386146 -171.890541 
L 67.341237 -171.890541 
L 67.341237 -172.895659 
L 67.251421 -172.895659 
L 67.251421 -173.894576 
L 66.263438 -173.894576 
L 66.263438 -174.886983 
L 66.128713 -174.886983 
L 66.128713 -174.886983 
L 65.769447 -174.886983 
L 65.769447 -174.886983 
L 65.724538 -174.886983 
L 65.724538 -174.886983 
L 65.589813 -174.886983 
L 65.589813 -174.886983 
L 65.365272 -174.886983 
L 65.365272 -174.886983 
L 65.320364 -174.886983 
L 65.320364 -174.886983 
L 65.006005 -174.886983 
L 65.006005 -175.826571 
L 64.781464 -175.826571 
L 64.781464 -175.826571 
L 64.197656 -175.826571 
L 64.197656 -176.754212 
L 64.062931 -176.754212 
L 64.062931 -177.67591 
L 63.973114 -177.67591 
L 63.973114 -177.67591 
L 63.83839 -177.67591 
L 63.83839 -177.67591 
L 63.703665 -177.67591 
L 63.703665 -177.67591 
L 63.074948 -177.67591 
L 63.074948 -177.67591 
L 62.625865 -177.67591 
L 62.625865 -177.67591 
L 62.536049 -177.67591 
L 62.536049 -178.557482 
L 62.446232 -178.557482 
L 62.446232 -178.557482 
L 62.401324 -178.557482 
L 62.401324 -178.557482 
L 62.22169 -178.557482 
L 62.22169 -178.557482 
L 61.862424 -178.557482 
L 61.862424 -179.412529 
L 61.458249 -179.412529 
L 61.458249 -180.262256 
L 61.368433 -180.262256 
L 61.368433 -180.262256 
L 61.054075 -180.262256 
L 61.054075 -180.262256 
L 60.91935 -180.262256 
L 60.91935 -181.091838 
L 60.604991 -181.091838 
L 60.604991 -181.915919 
L 60.560083 -181.915919 
L 60.560083 -181.915919 
L 60.155908 -181.915919 
L 60.155908 -181.915919 
L 60.066092 -181.915919 
L 60.066092 -181.915919 
L 60.021183 -181.915919 
L 60.021183 -182.716211 
L 59.123017 -182.716211 
L 59.123017 -183.510881 
L 58.314668 -183.510881 
L 58.314668 -183.510881 
L 58.26976 -183.510881 
L 58.26976 -184.291212 
L 58.045218 -184.291212 
L 58.045218 -184.291212 
L 57.865585 -184.291212 
L 57.865585 -185.061428 
L 57.596135 -185.061428 
L 57.596135 -185.825305 
L 57.506318 -185.825305 
L 57.506318 -185.825305 
L 57.102144 -185.825305 
L 57.102144 -185.825305 
L 56.92251 -185.825305 
L 56.92251 -186.574777 
L 56.877602 -186.574777 
L 56.877602 -186.574777 
L 56.832694 -186.574777 
L 56.832694 -186.574777 
L 56.787785 -186.574777 
L 56.787785 -186.574777 
L 56.383611 -186.574777 
L 56.383611 -186.574777 
L 56.338702 -186.574777 
L 56.338702 -186.574777 
L 56.248886 -186.574777 
L 56.248886 -187.295701 
L 56.159069 -187.295701 
L 56.159069 -187.295701 
L 56.069253 -187.295701 
L 56.069253 -187.295701 
L 55.979436 -187.295701 
L 55.979436 -187.295701 
L 55.844711 -187.295701 
L 55.844711 -187.295701 
L 55.126178 -187.295701 
L 55.126178 -187.295701 
L 54.901637 -187.295701 
L 54.901637 -187.983493 
L 54.587278 -187.983493 
L 54.587278 -187.983493 
L 54.54237 -187.983493 
L 54.54237 -188.661926 
L 54.048379 -188.661926 
L 54.048379 -189.333738 
L 53.240029 -189.333738 
L 53.240029 -189.998376 
L 52.790946 -189.998376 
L 52.790946 -189.998376 
L 52.117322 -189.998376 
L 52.117322 -190.652328 
L 51.219155 -190.652328 
L 51.219155 -191.297852 
L 51.039522 -191.297852 
L 51.039522 -191.934073 
L 50.904797 -191.934073 
L 50.904797 -192.557343 
L 50.859889 -192.557343 
L 50.859889 -193.169158 
L 50.680256 -193.169158 
L 50.680256 -193.767964 
L 49.692273 -193.767964 
L 49.692273 -193.767964 
L 49.108465 -193.767964 
L 49.108465 -194.349527 
L 48.614474 -194.349527 
L 48.614474 -194.913806 
L 48.210299 -194.913806 
L 48.210299 -195.457443 
L 46.728325 -195.457443 
L 46.728325 -195.457443 
L 45.425984 -195.457443 
L 45.425984 -195.457443 
L 44.572726 -195.457443 
L 44.572726 -195.457443 
L 44.348185 -195.457443 
L 44.348185 -195.457443 
L 44.078735 -195.457443 
L 44.078735 -195.96863 
L 43.899102 -195.96863 
L 43.899102 -195.96863 
L 43.67456 -195.96863 
L 43.67456 -196.447705 
L 43.629652 -196.447705 
L 43.629652 -196.447705 
L 43.315294 -196.447705 
L 43.315294 -196.447705 
L 42.731486 -196.447705 
L 42.731486 -196.884006 
L 42.686577 -196.884006 
L 42.686577 -196.884006 
L 42.506944 -196.884006 
L 42.506944 -196.884006 
L 42.417127 -196.884006 
L 42.417127 -197.262154 
L 42.282403 -197.262154 
L 42.282403 -197.262154 
L 41.204603 -197.262154 
L 41.204603 -197.262154 
L 40.48607 -197.262154 
L 40.48607 -197.550091 
L 40.306437 -197.550091 
L 40.306437 -197.550091 
L 39.632812 -197.550091 
z
" style="stroke: #2e86ab; stroke-opacity: 0.2"/>
    </defs>
    <g clip-path="url(#p97d3eca940)">
     <use xlink:href="#ma566e9a0aa" x="0" y="213.012812" style="fill: #2e86ab; fill-opacity: 0.2; stroke: #2e86ab; stroke-opacity: 0.2"/>
    </g>
   </g>
   <g id="FillBetweenPolyCollection_2">
    <defs>
     <path id="m1e32eebd9e" d="M 36.758681 -197.662336 
L 36.758681 -197.662336 
L 39.632812 -197.662336 
L 39.632812 -192.100649 
L 40.21662 -192.100649 
L 40.21662 -192.100649 
L 40.396254 -192.100649 
L 40.396254 -192.100649 
L 40.530979 -192.100649 
L 40.530979 -191.349377 
L 40.890245 -191.349377 
L 40.890245 -191.349377 
L 41.29442 -191.349377 
L 41.29442 -191.349377 
L 41.698595 -191.349377 
L 41.698595 -191.349377 
L 42.102769 -191.349377 
L 42.102769 -191.349377 
L 42.147678 -191.349377 
L 42.147678 -189.124226 
L 42.192586 -189.124226 
L 42.192586 -188.016763 
L 42.506944 -188.016763 
L 42.506944 -188.016763 
L 42.551852 -188.016763 
L 42.551852 -186.916085 
L 42.641669 -186.916085 
L 42.641669 -186.916085 
L 42.686577 -186.916085 
L 42.686577 -185.823457 
L 43.045844 -185.823457 
L 43.045844 -184.74712 
L 43.270385 -184.74712 
L 43.270385 -183.685071 
L 43.40511 -183.685071 
L 43.40511 -183.685071 
L 43.584743 -183.685071 
L 43.584743 -182.627411 
L 43.809285 -182.627411 
L 43.809285 -181.581498 
L 44.033827 -181.581498 
L 44.033827 -180.546054 
L 44.393093 -180.546054 
L 44.393093 -179.520024 
L 44.887084 -179.520024 
L 44.887084 -179.520024 
L 44.931993 -179.520024 
L 44.931993 -178.494832 
L 45.111626 -178.494832 
L 45.111626 -177.477736 
L 45.381076 -177.477736 
L 45.381076 -176.468047 
L 45.515801 -176.468047 
L 45.515801 -175.465175 
L 46.009792 -175.465175 
L 46.009792 -174.468609 
L 46.099609 -174.468609 
L 46.099609 -173.477908 
L 46.189425 -173.477908 
L 46.189425 -172.49268 
L 46.32415 -172.49268 
L 46.32415 -171.512584 
L 46.548692 -171.512584 
L 46.548692 -169.566597 
L 46.952866 -169.566597 
L 46.952866 -168.600188 
L 47.177408 -168.600188 
L 47.177408 -166.665187 
L 47.401949 -166.665187 
L 47.401949 -165.703534 
L 47.806124 -165.703534 
L 47.806124 -164.745538 
L 48.030666 -164.745538 
L 48.030666 -164.745538 
L 48.120482 -164.745538 
L 48.120482 -164.745538 
L 48.614474 -164.745538 
L 48.614474 -163.776445 
L 48.839015 -163.776445 
L 48.839015 -162.810942 
L 48.883924 -162.810942 
L 48.883924 -161.848873 
L 49.198282 -161.848873 
L 49.198282 -160.890098 
L 49.333007 -160.890098 
L 49.333007 -159.934489 
L 49.51264 -159.934489 
L 49.51264 -158.981926 
L 49.647365 -158.981926 
L 49.647365 -158.0323 
L 50.05154 -158.0323 
L 50.05154 -156.141457 
L 50.276081 -156.141457 
L 50.276081 -155.20006 
L 50.770072 -155.20006 
L 50.770072 -154.261234 
L 50.994614 -154.261234 
L 50.994614 -153.324903 
L 51.039522 -153.324903 
L 51.039522 -152.390997 
L 51.264064 -152.390997 
L 51.264064 -151.459449 
L 51.35388 -151.459449 
L 51.35388 -150.530197 
L 51.398789 -150.530197 
L 51.398789 -149.603181 
L 51.847872 -149.603181 
L 51.847872 -147.755645 
L 51.89278 -147.755645 
L 51.89278 -146.835024 
L 51.937688 -146.835024 
L 51.937688 -145.916438 
L 52.027505 -145.916438 
L 52.027505 -145.916438 
L 52.835855 -145.916438 
L 52.835855 -144.06987 
L 53.599296 -144.06987 
L 53.599296 -143.149578 
L 54.183104 -143.149578 
L 54.183104 -141.314781 
L 54.362737 -141.314781 
L 54.362737 -140.400204 
L 54.407645 -140.400204 
L 54.407645 -139.487464 
L 54.452554 -139.487464 
L 54.452554 -139.487464 
L 54.766912 -139.487464 
L 54.766912 -139.487464 
L 55.08127 -139.487464 
L 55.08127 -137.635008 
L 55.620169 -137.635008 
L 55.620169 -136.711613 
L 55.754894 -136.711613 
L 55.754894 -136.711613 
L 55.889619 -136.711613 
L 55.889619 -135.78161 
L 55.979436 -135.78161 
L 55.979436 -134.853493 
L 56.024344 -134.853493 
L 56.024344 -134.853493 
L 56.203977 -134.853493 
L 56.203977 -134.853493 
L 56.248886 -134.853493 
L 56.248886 -133.909685 
L 56.518336 -133.909685 
L 56.518336 -133.909685 
L 56.563244 -133.909685 
L 56.563244 -133.909685 
L 56.653061 -133.909685 
L 56.653061 -133.909685 
L 56.877602 -133.909685 
L 56.877602 -133.909685 
L 56.92251 -133.909685 
L 56.92251 -132.920759 
L 56.967419 -132.920759 
L 56.967419 -131.934187 
L 57.057235 -131.934187 
L 57.057235 -130.949927 
L 57.19196 -130.949927 
L 57.19196 -129.967936 
L 57.281777 -129.967936 
L 57.281777 -128.988175 
L 57.326685 -128.988175 
L 57.326685 -128.988175 
L 57.506318 -128.988175 
L 57.506318 -128.988175 
L 57.551227 -128.988175 
L 57.551227 -128.988175 
L 57.955401 -128.988175 
L 57.955401 -127.97921 
L 58.179943 -127.97921 
L 58.179943 -124.966795 
L 58.26976 -124.966795 
L 58.26976 -124.966795 
L 58.404484 -124.966795 
L 58.404484 -123.956174 
L 58.718843 -123.956174 
L 58.718843 -123.956174 
L 58.853568 -123.956174 
L 58.853568 -123.956174 
L 59.078109 -123.956174 
L 59.078109 -123.956174 
L 59.257742 -123.956174 
L 59.257742 -122.900354 
L 59.976275 -122.900354 
L 59.976275 -121.847337 
L 60.066092 -121.847337 
L 60.066092 -120.797077 
L 60.290633 -120.797077 
L 60.290633 -119.749528 
L 60.604991 -119.749528 
L 60.604991 -118.691706 
L 60.694808 -118.691706 
L 60.694808 -118.691706 
L 60.964258 -118.691706 
L 60.964258 -118.691706 
L 61.188799 -118.691706 
L 61.188799 -118.691706 
L 61.233708 -118.691706 
L 61.233708 -118.691706 
L 61.413341 -118.691706 
L 61.413341 -118.691706 
L 61.682791 -118.691706 
L 61.682791 -118.691706 
L 61.727699 -118.691706 
L 61.727699 -117.535681 
L 61.862424 -117.535681 
L 61.862424 -117.535681 
L 62.446232 -117.535681 
L 62.446232 -116.367362 
L 62.536049 -116.367362 
L 62.536049 -115.202965 
L 63.074948 -115.202965 
L 63.074948 -114.042416 
L 63.164765 -114.042416 
L 63.164765 -114.042416 
L 63.434215 -114.042416 
L 63.434215 -112.868704 
L 63.613848 -112.868704 
L 63.613848 -111.698909 
L 63.703665 -111.698909 
L 63.703665 -110.532966 
L 63.83839 -110.532966 
L 63.83839 -109.370813 
L 63.883298 -109.370813 
L 63.883298 -109.370813 
L 64.062931 -109.370813 
L 64.062931 -108.194335 
L 64.152748 -108.194335 
L 64.152748 -108.194335 
L 64.197656 -108.194335 
L 64.197656 -107.002958 
L 64.332381 -107.002958 
L 64.332381 -105.815652 
L 64.871281 -105.815652 
L 64.871281 -105.815652 
L 65.006005 -105.815652 
L 65.006005 -104.612582 
L 65.455089 -104.612582 
L 65.455089 -103.413721 
L 65.544905 -103.413721 
L 65.544905 -102.219016 
L 65.589813 -102.219016 
L 65.589813 -102.219016 
L 65.634722 -102.219016 
L 65.634722 -101.007325 
L 65.67963 -101.007325 
L 65.67963 -101.007325 
L 66.038897 -101.007325 
L 66.038897 -101.007325 
L 66.128713 -101.007325 
L 66.128713 -99.755009 
L 66.532888 -99.755009 
L 66.532888 -98.507572 
L 66.667613 -98.507572 
L 66.667613 -97.264959 
L 66.712521 -97.264959 
L 66.712521 -97.264959 
L 67.026879 -97.264959 
L 67.026879 -97.264959 
L 67.116696 -97.264959 
L 67.116696 -95.976985 
L 67.610687 -95.976985 
L 67.610687 -94.694454 
L 68.194495 -94.694454 
L 68.194495 -94.694454 
L 68.374128 -94.694454 
L 68.374128 -94.694454 
L 68.733395 -94.694454 
L 68.733395 -94.694454 
L 68.86812 -94.694454 
L 68.86812 -93.331973 
L 69.496836 -93.331973 
L 69.496836 -91.97618 
L 70.170461 -91.97618 
L 70.170461 -90.595173 
L 70.395002 -90.595173 
L 70.395002 -89.221258 
L 70.888994 -89.221258 
L 70.888994 -87.854365 
L 71.338077 -87.854365 
L 71.338077 -86.494433 
L 71.607526 -86.494433 
L 71.607526 -85.141416 
L 71.921885 -85.141416 
L 71.921885 -83.795277 
L 72.460784 -83.795277 
L 72.460784 -83.795277 
L 73.314042 -83.795277 
L 73.314042 -83.795277 
L 73.808033 -83.795277 
L 73.808033 -83.795277 
L 75.065466 -83.795277 
L 75.065466 -83.795277 
L 75.334916 -83.795277 
L 75.334916 -82.296711 
L 75.514549 -82.296711 
L 75.514549 -82.296711 
L 76.412715 -82.296711 
L 76.412715 -80.761661 
L 76.592348 -80.761661 
L 76.592348 -79.237654 
L 77.131248 -79.237654 
L 77.131248 -77.724611 
L 77.445606 -77.724611 
L 77.445606 -77.724611 
L 78.209047 -77.724611 
L 78.209047 -76.169993 
L 78.433589 -76.169993 
L 78.433589 -74.62758 
L 80.00538 -74.62758 
L 80.00538 -74.62758 
L 80.229921 -74.62758 
L 80.229921 -73.038628 
L 80.319738 -73.038628 
L 80.319738 -73.038628 
L 82.250795 -73.038628 
L 82.250795 -71.398735 
L 84.900385 -71.398735 
L 84.900385 -69.774606 
L 86.157818 -69.774606 
L 86.157818 -68.166247 
L 87.999058 -68.166247 
L 87.999058 -66.573715 
L 89.481032 -66.573715 
L 89.481032 -66.573715 
L 92.355164 -66.573715 
L 92.355164 -66.573715 
L 99.181226 -66.573715 
L 99.181226 -66.573715 
L 100.169209 -66.573715 
L 100.169209 -64.737914 
L 103.402607 -64.737914 
L 103.402607 -62.928524 
L 103.537332 -62.928524 
L 103.537332 -61.145623 
L 109.734678 -61.145623 
L 109.734678 -61.145623 
L 110.677753 -61.145623 
L 110.677753 -61.145623 
L 116.336199 -61.145623 
L 116.336199 -61.145623 
L 116.605649 -61.145623 
L 116.605649 -61.145623 
L 123.566437 -61.145623 
L 123.566437 -58.815088 
L 124.240061 -58.815088 
L 124.240061 -58.815088 
L 127.159101 -58.815088 
L 127.159101 -58.815088 
L 127.293826 -58.815088 
L 127.293826 -58.815088 
L 129.8536 -58.815088 
L 129.8536 -58.815088 
L 130.347591 -58.815088 
L 130.347591 -55.425714 
L 135.691679 -55.425714 
L 135.691679 -55.425714 
L 142.607559 -55.425714 
L 142.607559 -55.425714 
L 143.460816 -55.425714 
L 143.460816 -55.425714 
L 145.257149 -55.425714 
L 145.257149 -55.425714 
L 148.445638 -55.425714 
L 148.445638 -55.425714 
L 168.429835 -55.425714 
L 168.429835 -55.425714 
L 169.238184 -55.425714 
L 169.238184 -55.425714 
L 172.741032 -55.425714 
L 172.741032 -55.425714 
L 211.856167 -55.425714 
L 211.856167 -55.425714 
L 266.419759 -55.425714 
L 266.419759 -55.425714 
L 266.419759 -81.198464 
L 266.419759 -81.198464 
L 266.419759 -81.198464 
L 211.856167 -81.198464 
L 211.856167 -81.198464 
L 172.741032 -81.198464 
L 172.741032 -81.198464 
L 169.238184 -81.198464 
L 169.238184 -81.198464 
L 168.429835 -81.198464 
L 168.429835 -81.198464 
L 148.445638 -81.198464 
L 148.445638 -81.198464 
L 145.257149 -81.198464 
L 145.257149 -81.198464 
L 143.460816 -81.198464 
L 143.460816 -81.198464 
L 142.607559 -81.198464 
L 142.607559 -81.198464 
L 135.691679 -81.198464 
L 135.691679 -81.198464 
L 130.347591 -81.198464 
L 130.347591 -83.902116 
L 129.8536 -83.902116 
L 129.8536 -83.902116 
L 127.293826 -83.902116 
L 127.293826 -83.902116 
L 127.159101 -83.902116 
L 127.159101 -83.902116 
L 124.240061 -83.902116 
L 124.240061 -83.902116 
L 123.566437 -83.902116 
L 123.566437 -86.139828 
L 116.605649 -86.139828 
L 116.605649 -86.139828 
L 116.336199 -86.139828 
L 116.336199 -86.139828 
L 110.677753 -86.139828 
L 110.677753 -86.139828 
L 109.734678 -86.139828 
L 109.734678 -86.139828 
L 103.537332 -86.139828 
L 103.537332 -88.048409 
L 103.402607 -88.048409 
L 103.402607 -89.936 
L 100.169209 -89.936 
L 100.169209 -91.802781 
L 99.181226 -91.802781 
L 99.181226 -91.802781 
L 92.355164 -91.802781 
L 92.355164 -91.802781 
L 89.481032 -91.802781 
L 89.481032 -91.802781 
L 87.999058 -91.802781 
L 87.999058 -93.497367 
L 86.157818 -93.497367 
L 86.157818 -95.179239 
L 84.900385 -95.179239 
L 84.900385 -96.848516 
L 82.250795 -96.848516 
L 82.250795 -98.505272 
L 80.319738 -98.505272 
L 80.319738 -98.505272 
L 80.229921 -98.505272 
L 80.229921 -100.110612 
L 80.00538 -100.110612 
L 80.00538 -100.110612 
L 78.433589 -100.110612 
L 78.433589 -101.669002 
L 78.209047 -101.669002 
L 78.209047 -103.21768 
L 77.445606 -103.21768 
L 77.445606 -103.21768 
L 77.131248 -103.21768 
L 77.131248 -104.72442 
L 76.592348 -104.72442 
L 76.592348 -106.222454 
L 76.412715 -106.222454 
L 76.412715 -107.711765 
L 75.514549 -107.711765 
L 75.514549 -107.711765 
L 75.334916 -107.711765 
L 75.334916 -109.164168 
L 75.065466 -109.164168 
L 75.065466 -109.164168 
L 73.808033 -109.164168 
L 73.808033 -109.164168 
L 73.314042 -109.164168 
L 73.314042 -109.164168 
L 72.460784 -109.164168 
L 72.460784 -109.164168 
L 71.921885 -109.164168 
L 71.921885 -110.508019 
L 71.607526 -110.508019 
L 71.607526 -111.846285 
L 71.338077 -111.846285 
L 71.338077 -113.178963 
L 70.888994 -113.178963 
L 70.888994 -114.506045 
L 70.395002 -114.506045 
L 70.395002 -115.827514 
L 70.170461 -115.827514 
L 70.170461 -117.143343 
L 69.496836 -117.143343 
L 69.496836 -118.433588 
L 68.86812 -118.433588 
L 68.86812 -119.718532 
L 68.733395 -119.718532 
L 68.733395 -119.718532 
L 68.374128 -119.718532 
L 68.374128 -119.718532 
L 68.194495 -119.718532 
L 68.194495 -119.718532 
L 67.610687 -119.718532 
L 67.610687 -120.944184 
L 67.116696 -120.944184 
L 67.116696 -122.16546 
L 67.026879 -122.16546 
L 67.026879 -122.16546 
L 66.712521 -122.16546 
L 66.712521 -122.16546 
L 66.667613 -122.16546 
L 66.667613 -123.350055 
L 66.532888 -123.350055 
L 66.532888 -124.530742 
L 66.128713 -124.530742 
L 66.128713 -125.707497 
L 66.038897 -125.707497 
L 66.038897 -125.707497 
L 65.67963 -125.707497 
L 65.67963 -125.707497 
L 65.634722 -125.707497 
L 65.634722 -126.851342 
L 65.589813 -126.851342 
L 65.589813 -126.851342 
L 65.544905 -126.851342 
L 65.544905 -127.977914 
L 65.455089 -127.977914 
L 65.455089 -129.1011 
L 65.006005 -129.1011 
L 65.006005 -130.220873 
L 64.871281 -130.220873 
L 64.871281 -130.220873 
L 64.332381 -130.220873 
L 64.332381 -131.324503 
L 64.197656 -131.324503 
L 64.197656 -132.424838 
L 64.152748 -132.424838 
L 64.152748 -132.424838 
L 64.062931 -132.424838 
L 64.062931 -133.50984 
L 63.883298 -133.50984 
L 63.883298 -133.50984 
L 63.83839 -133.50984 
L 63.83839 -134.580083 
L 63.703665 -134.580083 
L 63.703665 -135.647253 
L 63.613848 -135.647253 
L 63.613848 -136.711318 
L 63.434215 -136.711318 
L 63.434215 -137.772244 
L 63.164765 -137.772244 
L 63.164765 -137.772244 
L 63.074948 -137.772244 
L 63.074948 -138.819381 
L 62.536049 -138.819381 
L 62.536049 -139.863443 
L 62.446232 -139.863443 
L 62.446232 -140.904389 
L 61.862424 -140.904389 
L 61.862424 -140.904389 
L 61.727699 -140.904389 
L 61.727699 -141.932255 
L 61.682791 -141.932255 
L 61.682791 -141.932255 
L 61.413341 -141.932255 
L 61.413341 -141.932255 
L 61.233708 -141.932255 
L 61.233708 -141.932255 
L 61.188799 -141.932255 
L 61.188799 -141.932255 
L 60.964258 -141.932255 
L 60.964258 -141.932255 
L 60.694808 -141.932255 
L 60.694808 -141.932255 
L 60.604991 -141.932255 
L 60.604991 -142.893322 
L 60.290633 -142.893322 
L 60.290633 -143.843671 
L 60.066092 -143.843671 
L 60.066092 -144.791738 
L 59.976275 -144.791738 
L 59.976275 -145.737495 
L 59.257742 -145.737495 
L 59.257742 -146.680915 
L 59.078109 -146.680915 
L 59.078109 -146.680915 
L 58.853568 -146.680915 
L 58.853568 -146.680915 
L 58.718843 -146.680915 
L 58.718843 -146.680915 
L 58.404484 -146.680915 
L 58.404484 -147.591476 
L 58.26976 -147.591476 
L 58.26976 -147.591476 
L 58.179943 -147.591476 
L 58.179943 -150.289038 
L 57.955401 -150.289038 
L 57.955401 -151.184072 
L 57.551227 -151.184072 
L 57.551227 -151.184072 
L 57.506318 -151.184072 
L 57.506318 -151.184072 
L 57.326685 -151.184072 
L 57.326685 -151.184072 
L 57.281777 -151.184072 
L 57.281777 -152.056923 
L 57.19196 -152.056923 
L 57.19196 -152.927814 
L 57.057235 -152.927814 
L 57.057235 -153.796717 
L 56.967419 -153.796717 
L 56.967419 -154.663603 
L 56.92251 -154.663603 
L 56.92251 -155.528442 
L 56.877602 -155.528442 
L 56.877602 -155.528442 
L 56.653061 -155.528442 
L 56.653061 -155.528442 
L 56.563244 -155.528442 
L 56.563244 -155.528442 
L 56.518336 -155.528442 
L 56.518336 -155.528442 
L 56.248886 -155.528442 
L 56.248886 -156.361404 
L 56.203977 -156.361404 
L 56.203977 -156.361404 
L 56.024344 -156.361404 
L 56.024344 -156.361404 
L 55.979436 -156.361404 
L 55.979436 -157.181289 
L 55.889619 -157.181289 
L 55.889619 -157.999412 
L 55.754894 -157.999412 
L 55.754894 -157.999412 
L 55.620169 -157.999412 
L 55.620169 -158.810351 
L 55.08127 -158.810351 
L 55.08127 -160.426889 
L 54.766912 -160.426889 
L 54.766912 -160.426889 
L 54.452554 -160.426889 
L 54.452554 -160.426889 
L 54.407645 -160.426889 
L 54.407645 -161.222173 
L 54.362737 -161.222173 
L 54.362737 -162.015686 
L 54.183104 -162.015686 
L 54.183104 -163.597275 
L 53.599296 -163.597275 
L 53.599296 -164.385283 
L 52.835855 -164.385283 
L 52.835855 -165.955544 
L 52.027505 -165.955544 
L 52.027505 -165.955544 
L 51.937688 -165.955544 
L 51.937688 -166.733043 
L 51.89278 -166.733043 
L 51.89278 -167.508559 
L 51.847872 -167.508559 
L 51.847872 -169.053469 
L 51.398789 -169.053469 
L 51.398789 -169.822767 
L 51.35388 -169.822767 
L 51.35388 -170.58989 
L 51.264064 -170.58989 
L 51.264064 -171.354785 
L 51.039522 -171.354785 
L 51.039522 -172.11739 
L 50.994614 -172.11739 
L 50.994614 -172.877645 
L 50.770072 -172.877645 
L 50.770072 -173.635481 
L 50.276081 -173.635481 
L 50.276081 -174.390828 
L 50.05154 -174.390828 
L 50.05154 -175.89374 
L 49.647365 -175.89374 
L 49.647365 -176.641136 
L 49.51264 -176.641136 
L 49.51264 -177.385703 
L 49.333007 -177.385703 
L 49.333007 -178.127338 
L 49.198282 -178.127338 
L 49.198282 -178.865932 
L 48.883924 -178.865932 
L 48.883924 -179.601366 
L 48.839015 -179.601366 
L 48.839015 -180.333514 
L 48.614474 -180.333514 
L 48.614474 -181.062235 
L 48.120482 -181.062235 
L 48.120482 -181.062235 
L 48.030666 -181.062235 
L 48.030666 -181.062235 
L 47.806124 -181.062235 
L 47.806124 -181.780122 
L 47.401949 -181.780122 
L 47.401949 -182.494403 
L 47.177408 -182.494403 
L 47.177408 -183.911444 
L 46.952866 -183.911444 
L 46.952866 -184.610435 
L 46.548692 -184.610435 
L 46.548692 -185.995186 
L 46.32415 -185.995186 
L 46.32415 -186.680419 
L 46.189425 -186.680419 
L 46.189425 -187.360485 
L 46.099609 -187.360485 
L 46.099609 -188.035034 
L 46.009792 -188.035034 
L 46.009792 -188.703665 
L 45.515801 -188.703665 
L 45.515801 -189.365925 
L 45.381076 -189.365925 
L 45.381076 -190.021288 
L 45.111626 -190.021288 
L 45.111626 -190.669147 
L 44.931993 -190.669147 
L 44.931993 -191.308789 
L 44.887084 -191.308789 
L 44.887084 -191.308789 
L 44.393093 -191.308789 
L 44.393093 -191.936724 
L 44.033827 -191.936724 
L 44.033827 -192.554736 
L 43.809285 -192.554736 
L 43.809285 -193.161619 
L 43.584743 -193.161619 
L 43.584743 -193.755877 
L 43.40511 -193.755877 
L 43.40511 -193.755877 
L 43.270385 -193.755877 
L 43.270385 -194.33338 
L 43.045844 -194.33338 
L 43.045844 -194.894158 
L 42.686577 -194.894158 
L 42.686577 -195.435007 
L 42.641669 -195.435007 
L 42.641669 -195.435007 
L 42.551852 -195.435007 
L 42.551852 -195.949678 
L 42.506944 -195.949678 
L 42.506944 -195.949678 
L 42.192586 -195.949678 
L 42.192586 -196.432267 
L 42.147678 -196.432267 
L 42.147678 -197.260171 
L 42.102769 -197.260171 
L 42.102769 -197.260171 
L 41.698595 -197.260171 
L 41.698595 -197.260171 
L 41.29442 -197.260171 
L 41.29442 -197.260171 
L 40.890245 -197.260171 
L 40.890245 -197.260171 
L 40.530979 -197.260171 
L 40.530979 -197.550091 
L 40.396254 -197.550091 
L 40.396254 -197.550091 
L 40.21662 -197.550091 
L 40.21662 -197.550091 
L 39.632812 -197.550091 
L 39.632812 -197.662336 
L 36.758681 -197.662336 
z
" style="stroke: #e63946; stroke-opacity: 0.2"/>
    </defs>
    <g clip-path="url(#p97d3eca940)">
     <use xlink:href="#m1e32eebd9e" x="0" y="213.012812" style="fill: #e63946; fill-opacity: 0.2; stroke: #e63946; stroke-opacity: 0.2"/>
    </g>
   </g>
   <g id="line2d_25">
    <defs>
     <path id="m46d8540da4" d="M -3 3 
L 3 -3 
M -3 -3 
L 3 3 
" style="stroke: #2e86ab"/>
    </defs>
    <g clip-path="url(#p97d3eca940)">
     <use xlink:href="#m46d8540da4" x="40.306437" y="16.145645" style="fill: #2e86ab; stroke: #2e86ab"/>
     <use xlink:href="#m46d8540da4" x="41.204603" y="16.94473" style="fill: #2e86ab; stroke: #2e86ab"/>
     <use xlink:href="#m46d8540da4" x="42.282403" y="16.94473" style="fill: #2e86ab; stroke: #2e86ab"/>
     <use xlink:href="#m46d8540da4" x="42.506944" y="17.751806" style="fill: #2e86ab; stroke: #2e86ab"/>
     <use xlink:href="#m46d8540da4" x="42.686577" y="17.751806" style="fill: #2e86ab; stroke: #2e86ab"/>
     <use xlink:href="#m46d8540da4" x="43.315294" y="18.567076" style="fill: #2e86ab; stroke: #2e86ab"/>
     <use xlink:href="#m46d8540da4" x="43.629652" y="18.567076" style="fill: #2e86ab; stroke: #2e86ab"/>
     <use xlink:href="#m46d8540da4" x="43.899102" y="19.390751" style="fill: #2e86ab; stroke: #2e86ab"/>
     <use xlink:href="#m46d8540da4" x="44.348185" y="20.218716" style="fill: #2e86ab; stroke: #2e86ab"/>
     <use xlink:href="#m46d8540da4" x="44.572726" y="20.218716" style="fill: #2e86ab; stroke: #2e86ab"/>
     <use xlink:href="#m46d8540da4" x="45.425984" y="20.218716" style="fill: #2e86ab; stroke: #2e86ab"/>
     <use xlink:href="#m46d8540da4" x="46.728325" y="20.218716" style="fill: #2e86ab; stroke: #2e86ab"/>
     <use xlink:href="#m46d8540da4" x="49.692273" y="22.755742" style="fill: #2e86ab; stroke: #2e86ab"/>
     <use xlink:href="#m46d8540da4" x="50.904797" y="25.306632" style="fill: #2e86ab; stroke: #2e86ab"/>
     <use xlink:href="#m46d8540da4" x="52.790946" y="27.871772" style="fill: #2e86ab; stroke: #2e86ab"/>
     <use xlink:href="#m46d8540da4" x="54.587278" y="30.45157" style="fill: #2e86ab; stroke: #2e86ab"/>
     <use xlink:href="#m46d8540da4" x="55.126178" y="31.316532" style="fill: #2e86ab; stroke: #2e86ab"/>
     <use xlink:href="#m46d8540da4" x="55.844711" y="31.316532" style="fill: #2e86ab; stroke: #2e86ab"/>
     <use xlink:href="#m46d8540da4" x="55.979436" y="31.316532" style="fill: #2e86ab; stroke: #2e86ab"/>
     <use xlink:href="#m46d8540da4" x="56.069253" y="31.316532" style="fill: #2e86ab; stroke: #2e86ab"/>
     <use xlink:href="#m46d8540da4" x="56.159069" y="31.316532" style="fill: #2e86ab; stroke: #2e86ab"/>
     <use xlink:href="#m46d8540da4" x="56.338702" y="32.224207" style="fill: #2e86ab; stroke: #2e86ab"/>
     <use xlink:href="#m46d8540da4" x="56.383611" y="32.224207" style="fill: #2e86ab; stroke: #2e86ab"/>
     <use xlink:href="#m46d8540da4" x="56.787785" y="32.224207" style="fill: #2e86ab; stroke: #2e86ab"/>
     <use xlink:href="#m46d8540da4" x="56.832694" y="32.224207" style="fill: #2e86ab; stroke: #2e86ab"/>
     <use xlink:href="#m46d8540da4" x="56.877602" y="32.224207" style="fill: #2e86ab; stroke: #2e86ab"/>
     <use xlink:href="#m46d8540da4" x="57.102144" y="33.167019" style="fill: #2e86ab; stroke: #2e86ab"/>
     <use xlink:href="#m46d8540da4" x="57.506318" y="33.167019" style="fill: #2e86ab; stroke: #2e86ab"/>
     <use xlink:href="#m46d8540da4" x="58.045218" y="35.077453" style="fill: #2e86ab; stroke: #2e86ab"/>
     <use xlink:href="#m46d8540da4" x="58.26976" y="36.039081" style="fill: #2e86ab; stroke: #2e86ab"/>
     <use xlink:href="#m46d8540da4" x="58.314668" y="36.039081" style="fill: #2e86ab; stroke: #2e86ab"/>
     <use xlink:href="#m46d8540da4" x="60.066092" y="37.988682" style="fill: #2e86ab; stroke: #2e86ab"/>
     <use xlink:href="#m46d8540da4" x="60.155908" y="37.988682" style="fill: #2e86ab; stroke: #2e86ab"/>
     <use xlink:href="#m46d8540da4" x="60.560083" y="37.988682" style="fill: #2e86ab; stroke: #2e86ab"/>
     <use xlink:href="#m46d8540da4" x="60.91935" y="39.993987" style="fill: #2e86ab; stroke: #2e86ab"/>
     <use xlink:href="#m46d8540da4" x="61.054075" y="39.993987" style="fill: #2e86ab; stroke: #2e86ab"/>
     <use xlink:href="#m46d8540da4" x="61.368433" y="39.993987" style="fill: #2e86ab; stroke: #2e86ab"/>
     <use xlink:href="#m46d8540da4" x="61.862424" y="42.043854" style="fill: #2e86ab; stroke: #2e86ab"/>
     <use xlink:href="#m46d8540da4" x="62.22169" y="42.043854" style="fill: #2e86ab; stroke: #2e86ab"/>
     <use xlink:href="#m46d8540da4" x="62.401324" y="42.043854" style="fill: #2e86ab; stroke: #2e86ab"/>
     <use xlink:href="#m46d8540da4" x="62.446232" y="42.043854" style="fill: #2e86ab; stroke: #2e86ab"/>
     <use xlink:href="#m46d8540da4" x="62.625865" y="43.100568" style="fill: #2e86ab; stroke: #2e86ab"/>
     <use xlink:href="#m46d8540da4" x="63.074948" y="43.100568" style="fill: #2e86ab; stroke: #2e86ab"/>
     <use xlink:href="#m46d8540da4" x="63.703665" y="43.100568" style="fill: #2e86ab; stroke: #2e86ab"/>
     <use xlink:href="#m46d8540da4" x="63.83839" y="43.100568" style="fill: #2e86ab; stroke: #2e86ab"/>
     <use xlink:href="#m46d8540da4" x="63.973114" y="43.100568" style="fill: #2e86ab; stroke: #2e86ab"/>
     <use xlink:href="#m46d8540da4" x="64.781464" y="45.317936" style="fill: #2e86ab; stroke: #2e86ab"/>
     <use xlink:href="#m46d8540da4" x="65.320364" y="46.435936" style="fill: #2e86ab; stroke: #2e86ab"/>
     <use xlink:href="#m46d8540da4" x="65.365272" y="46.435936" style="fill: #2e86ab; stroke: #2e86ab"/>
     <use xlink:href="#m46d8540da4" x="65.589813" y="46.435936" style="fill: #2e86ab; stroke: #2e86ab"/>
     <use xlink:href="#m46d8540da4" x="65.724538" y="46.435936" style="fill: #2e86ab; stroke: #2e86ab"/>
     <use xlink:href="#m46d8540da4" x="65.769447" y="46.435936" style="fill: #2e86ab; stroke: #2e86ab"/>
     <use xlink:href="#m46d8540da4" x="66.128713" y="46.435936" style="fill: #2e86ab; stroke: #2e86ab"/>
     <use xlink:href="#m46d8540da4" x="67.386146" y="50.001452" style="fill: #2e86ab; stroke: #2e86ab"/>
     <use xlink:href="#m46d8540da4" x="68.05977" y="51.201064" style="fill: #2e86ab; stroke: #2e86ab"/>
     <use xlink:href="#m46d8540da4" x="68.284312" y="51.201064" style="fill: #2e86ab; stroke: #2e86ab"/>
     <use xlink:href="#m46d8540da4" x="68.419037" y="51.201064" style="fill: #2e86ab; stroke: #2e86ab"/>
     <use xlink:href="#m46d8540da4" x="68.463945" y="51.201064" style="fill: #2e86ab; stroke: #2e86ab"/>
     <use xlink:href="#m46d8540da4" x="68.643578" y="51.201064" style="fill: #2e86ab; stroke: #2e86ab"/>
     <use xlink:href="#m46d8540da4" x="68.778303" y="51.201064" style="fill: #2e86ab; stroke: #2e86ab"/>
     <use xlink:href="#m46d8540da4" x="70.664452" y="53.744243" style="fill: #2e86ab; stroke: #2e86ab"/>
     <use xlink:href="#m46d8540da4" x="71.023719" y="53.744243" style="fill: #2e86ab; stroke: #2e86ab"/>
     <use xlink:href="#m46d8540da4" x="71.068627" y="53.744243" style="fill: #2e86ab; stroke: #2e86ab"/>
     <use xlink:href="#m46d8540da4" x="73.673309" y="56.367732" style="fill: #2e86ab; stroke: #2e86ab"/>
     <use xlink:href="#m46d8540da4" x="74.346933" y="56.367732" style="fill: #2e86ab; stroke: #2e86ab"/>
     <use xlink:href="#m46d8540da4" x="74.796016" y="57.708307" style="fill: #2e86ab; stroke: #2e86ab"/>
     <use xlink:href="#m46d8540da4" x="75.469641" y="57.708307" style="fill: #2e86ab; stroke: #2e86ab"/>
     <use xlink:href="#m46d8540da4" x="76.098357" y="57.708307" style="fill: #2e86ab; stroke: #2e86ab"/>
     <use xlink:href="#m46d8540da4" x="76.143265" y="57.708307" style="fill: #2e86ab; stroke: #2e86ab"/>
     <use xlink:href="#m46d8540da4" x="76.457624" y="57.708307" style="fill: #2e86ab; stroke: #2e86ab"/>
     <use xlink:href="#m46d8540da4" x="76.996523" y="57.708307" style="fill: #2e86ab; stroke: #2e86ab"/>
     <use xlink:href="#m46d8540da4" x="77.35579" y="57.708307" style="fill: #2e86ab; stroke: #2e86ab"/>
     <use xlink:href="#m46d8540da4" x="77.849781" y="57.708307" style="fill: #2e86ab; stroke: #2e86ab"/>
     <use xlink:href="#m46d8540da4" x="78.433589" y="57.708307" style="fill: #2e86ab; stroke: #2e86ab"/>
     <use xlink:href="#m46d8540da4" x="78.837764" y="57.708307" style="fill: #2e86ab; stroke: #2e86ab"/>
     <use xlink:href="#m46d8540da4" x="79.46648" y="57.708307" style="fill: #2e86ab; stroke: #2e86ab"/>
     <use xlink:href="#m46d8540da4" x="79.73593" y="57.708307" style="fill: #2e86ab; stroke: #2e86ab"/>
     <use xlink:href="#m46d8540da4" x="79.915563" y="57.708307" style="fill: #2e86ab; stroke: #2e86ab"/>
     <use xlink:href="#m46d8540da4" x="80.993362" y="57.708307" style="fill: #2e86ab; stroke: #2e86ab"/>
     <use xlink:href="#m46d8540da4" x="82.071162" y="59.316996" style="fill: #2e86ab; stroke: #2e86ab"/>
     <use xlink:href="#m46d8540da4" x="84.406394" y="60.947722" style="fill: #2e86ab; stroke: #2e86ab"/>
     <use xlink:href="#m46d8540da4" x="84.675844" y="60.947722" style="fill: #2e86ab; stroke: #2e86ab"/>
     <use xlink:href="#m46d8540da4" x="85.84346" y="64.302359" style="fill: #2e86ab; stroke: #2e86ab"/>
     <use xlink:href="#m46d8540da4" x="86.696717" y="64.302359" style="fill: #2e86ab; stroke: #2e86ab"/>
     <use xlink:href="#m46d8540da4" x="87.774517" y="66.030505" style="fill: #2e86ab; stroke: #2e86ab"/>
     <use xlink:href="#m46d8540da4" x="88.582866" y="66.030505" style="fill: #2e86ab; stroke: #2e86ab"/>
     <use xlink:href="#m46d8540da4" x="88.762499" y="66.030505" style="fill: #2e86ab; stroke: #2e86ab"/>
     <use xlink:href="#m46d8540da4" x="89.391216" y="66.030505" style="fill: #2e86ab; stroke: #2e86ab"/>
     <use xlink:href="#m46d8540da4" x="89.705574" y="66.030505" style="fill: #2e86ab; stroke: #2e86ab"/>
     <use xlink:href="#m46d8540da4" x="90.244474" y="66.030505" style="fill: #2e86ab; stroke: #2e86ab"/>
     <use xlink:href="#m46d8540da4" x="92.669522" y="67.934395" style="fill: #2e86ab; stroke: #2e86ab"/>
     <use xlink:href="#m46d8540da4" x="92.894064" y="67.934395" style="fill: #2e86ab; stroke: #2e86ab"/>
     <use xlink:href="#m46d8540da4" x="94.376038" y="67.934395" style="fill: #2e86ab; stroke: #2e86ab"/>
     <use xlink:href="#m46d8540da4" x="100.259026" y="69.942133" style="fill: #2e86ab; stroke: #2e86ab"/>
     <use xlink:href="#m46d8540da4" x="101.157192" y="71.987753" style="fill: #2e86ab; stroke: #2e86ab"/>
     <use xlink:href="#m46d8540da4" x="104.92949" y="71.987753" style="fill: #2e86ab; stroke: #2e86ab"/>
     <use xlink:href="#m46d8540da4" x="104.974398" y="71.987753" style="fill: #2e86ab; stroke: #2e86ab"/>
     <use xlink:href="#m46d8540da4" x="105.198939" y="71.987753" style="fill: #2e86ab; stroke: #2e86ab"/>
     <use xlink:href="#m46d8540da4" x="106.052197" y="71.987753" style="fill: #2e86ab; stroke: #2e86ab"/>
     <use xlink:href="#m46d8540da4" x="107.983254" y="71.987753" style="fill: #2e86ab; stroke: #2e86ab"/>
     <use xlink:href="#m46d8540da4" x="108.297613" y="71.987753" style="fill: #2e86ab; stroke: #2e86ab"/>
     <use xlink:href="#m46d8540da4" x="108.701787" y="71.987753" style="fill: #2e86ab; stroke: #2e86ab"/>
     <use xlink:href="#m46d8540da4" x="108.881421" y="71.987753" style="fill: #2e86ab; stroke: #2e86ab"/>
     <use xlink:href="#m46d8540da4" x="111.665736" y="74.461526" style="fill: #2e86ab; stroke: #2e86ab"/>
     <use xlink:href="#m46d8540da4" x="112.429177" y="74.461526" style="fill: #2e86ab; stroke: #2e86ab"/>
     <use xlink:href="#m46d8540da4" x="113.237526" y="74.461526" style="fill: #2e86ab; stroke: #2e86ab"/>
     <use xlink:href="#m46d8540da4" x="113.686609" y="74.461526" style="fill: #2e86ab; stroke: #2e86ab"/>
     <use xlink:href="#m46d8540da4" x="118.71634" y="79.929867" style="fill: #2e86ab; stroke: #2e86ab"/>
     <use xlink:href="#m46d8540da4" x="119.839047" y="79.929867" style="fill: #2e86ab; stroke: #2e86ab"/>
     <use xlink:href="#m46d8540da4" x="120.108497" y="79.929867" style="fill: #2e86ab; stroke: #2e86ab"/>
     <use xlink:href="#m46d8540da4" x="120.737213" y="82.912598" style="fill: #2e86ab; stroke: #2e86ab"/>
     <use xlink:href="#m46d8540da4" x="121.815013" y="82.912598" style="fill: #2e86ab; stroke: #2e86ab"/>
     <use xlink:href="#m46d8540da4" x="122.488637" y="82.912598" style="fill: #2e86ab; stroke: #2e86ab"/>
     <use xlink:href="#m46d8540da4" x="125.497494" y="82.912598" style="fill: #2e86ab; stroke: #2e86ab"/>
     <use xlink:href="#m46d8540da4" x="127.069285" y="82.912598" style="fill: #2e86ab; stroke: #2e86ab"/>
     <use xlink:href="#m46d8540da4" x="129.808691" y="86.447687" style="fill: #2e86ab; stroke: #2e86ab"/>
     <use xlink:href="#m46d8540da4" x="130.347591" y="86.447687" style="fill: #2e86ab; stroke: #2e86ab"/>
     <use xlink:href="#m46d8540da4" x="130.527224" y="86.447687" style="fill: #2e86ab; stroke: #2e86ab"/>
     <use xlink:href="#m46d8540da4" x="130.661949" y="86.447687" style="fill: #2e86ab; stroke: #2e86ab"/>
     <use xlink:href="#m46d8540da4" x="131.42539" y="86.447687" style="fill: #2e86ab; stroke: #2e86ab"/>
     <use xlink:href="#m46d8540da4" x="131.649932" y="86.447687" style="fill: #2e86ab; stroke: #2e86ab"/>
     <use xlink:href="#m46d8540da4" x="134.34443" y="86.447687" style="fill: #2e86ab; stroke: #2e86ab"/>
     <use xlink:href="#m46d8540da4" x="137.398195" y="86.447687" style="fill: #2e86ab; stroke: #2e86ab"/>
     <use xlink:href="#m46d8540da4" x="144.269166" y="86.447687" style="fill: #2e86ab; stroke: #2e86ab"/>
     <use xlink:href="#m46d8540da4" x="146.514581" y="86.447687" style="fill: #2e86ab; stroke: #2e86ab"/>
     <use xlink:href="#m46d8540da4" x="157.517116" y="86.447687" style="fill: #2e86ab; stroke: #2e86ab"/>
     <use xlink:href="#m46d8540da4" x="158.909274" y="92.575175" style="fill: #2e86ab; stroke: #2e86ab"/>
     <use xlink:href="#m46d8540da4" x="161.019964" y="92.575175" style="fill: #2e86ab; stroke: #2e86ab"/>
     <use xlink:href="#m46d8540da4" x="164.926987" y="92.575175" style="fill: #2e86ab; stroke: #2e86ab"/>
     <use xlink:href="#m46d8540da4" x="174.851722" y="108.172416" style="fill: #2e86ab; stroke: #2e86ab"/>
     <use xlink:href="#m46d8540da4" x="190.704354" y="116.945864" style="fill: #2e86ab; stroke: #2e86ab"/>
     <use xlink:href="#m46d8540da4" x="193.21922" y="116.945864" style="fill: #2e86ab; stroke: #2e86ab"/>
     <use xlink:href="#m46d8540da4" x="193.758119" y="116.945864" style="fill: #2e86ab; stroke: #2e86ab"/>
     <use xlink:href="#m46d8540da4" x="211.047817" y="116.945864" style="fill: #2e86ab; stroke: #2e86ab"/>
     <use xlink:href="#m46d8540da4" x="218.412779" y="116.945864" style="fill: #2e86ab; stroke: #2e86ab"/>
     <use xlink:href="#m46d8540da4" x="262.692369" y="116.945864" style="fill: #2e86ab; stroke: #2e86ab"/>
     <use xlink:href="#m46d8540da4" x="266.015584" y="116.945864" style="fill: #2e86ab; stroke: #2e86ab"/>
    </g>
   </g>
   <g id="line2d_26">
    <path d="M 39.632812 16.145645 
L 40.48607 16.145645 
L 40.48607 16.94473 
L 42.417127 16.94473 
L 42.417127 17.751806 
L 42.506944 17.751806 
L 42.731486 17.751806 
L 42.731486 18.567076 
L 43.67456 18.567076 
L 43.67456 19.390751 
L 44.078735 19.390751 
L 44.078735 20.218716 
L 48.210299 20.218716 
L 48.210299 21.064391 
L 48.614474 21.064391 
L 48.614474 21.910067 
L 49.108465 21.910067 
L 49.108465 22.755742 
L 50.680256 22.755742 
L 50.680256 23.606039 
L 50.859889 23.606039 
L 50.904797 25.306632 
L 51.039522 25.306632 
L 51.039522 26.161678 
L 51.219155 26.161678 
L 51.219155 27.016725 
L 52.117322 27.016725 
L 52.117322 27.871772 
L 53.240029 27.871772 
L 53.240029 28.731705 
L 54.048379 28.731705 
L 54.048379 29.591637 
L 54.54237 29.591637 
L 54.54237 30.45157 
L 54.587278 30.45157 
L 54.901637 30.45157 
L 54.901637 31.316532 
L 56.248886 31.316532 
L 56.248886 32.224207 
L 56.338702 32.224207 
L 56.92251 32.224207 
L 56.92251 33.167019 
L 57.596135 33.167019 
L 57.596135 34.122236 
L 57.865585 34.122236 
L 57.865585 35.077453 
L 58.26976 35.077453 
L 58.26976 36.039081 
L 58.314668 36.039081 
L 59.123017 36.039081 
L 59.123017 37.013882 
L 60.021183 37.013882 
L 60.021183 37.988682 
L 60.066092 37.988682 
L 60.604991 37.988682 
L 60.604991 38.991335 
L 60.91935 38.991335 
L 60.91935 39.993987 
L 61.458249 39.993987 
L 61.458249 41.01892 
L 61.862424 41.01892 
L 61.862424 42.043854 
L 62.536049 42.043854 
L 62.536049 43.100568 
L 62.625865 43.100568 
L 64.062931 43.100568 
L 64.062931 44.209252 
L 64.197656 44.209252 
L 64.197656 45.317936 
L 65.006005 45.317936 
L 65.006005 46.435936 
L 66.263438 46.435936 
L 66.263438 47.624441 
L 67.251421 47.624441 
L 67.341237 50.001452 
L 67.925045 50.001452 
L 67.925045 51.201064 
L 69.901011 51.201064 
L 69.901011 52.472654 
L 70.619544 52.472654 
L 70.619544 53.744243 
L 70.664452 53.744243 
L 72.595509 53.744243 
L 72.595509 55.055988 
L 72.820051 55.055988 
L 72.820051 56.367732 
L 74.571475 56.367732 
L 74.571475 57.708307 
L 81.891529 57.708307 
L 81.891529 59.316996 
L 83.373503 59.316996 
L 83.373503 60.947722 
L 84.720752 60.947722 
L 84.76566 64.302359 
L 87.41525 64.302359 
L 87.41525 66.030505 
L 91.861173 66.030505 
L 91.861173 67.934395 
L 96.666361 67.934395 
L 96.666361 69.942133 
L 101.022467 69.942133 
L 101.022467 71.987753 
L 109.510137 71.987753 
L 109.510137 74.461526 
L 114.629684 74.461526 
L 114.629684 77.195696 
L 116.785282 77.195696 
L 116.785282 79.929867 
L 120.647397 79.929867 
L 120.647397 82.912598 
L 120.737213 82.912598 
L 128.147084 82.912598 
L 128.147084 86.447687 
L 158.235649 86.447687 
L 158.235649 92.575175 
L 166.633502 92.575175 
L 166.633502 100.373795 
L 172.291949 100.373795 
L 172.291949 108.172416 
L 182.575951 108.172416 
L 182.575951 116.945864 
L 266.015584 116.945864 
L 266.015584 116.945864 
" clip-path="url(#p97d3eca940)" style="fill: none; stroke: #2e86ab; stroke-width: 2; stroke-linecap: round"/>
   </g>
   <g id="line2d_27">
    <defs>
     <path id="m99c1b2919f" d="M -3 3 
L 3 -3 
M -3 -3 
L 3 3 
" style="stroke: #e63946"/>
    </defs>
    <g clip-path="url(#p97d3eca940)">
     <use xlink:href="#m99c1b2919f" x="36.758681" y="15.350476" style="fill: #e63946; stroke: #e63946"/>
     <use xlink:href="#m99c1b2919f" x="39.632812" y="16.145645" style="fill: #e63946; stroke: #e63946"/>
     <use xlink:href="#m99c1b2919f" x="40.21662" y="16.145645" style="fill: #e63946; stroke: #e63946"/>
     <use xlink:href="#m99c1b2919f" x="40.396254" y="16.145645" style="fill: #e63946; stroke: #e63946"/>
     <use xlink:href="#m99c1b2919f" x="40.530979" y="16.952681" style="fill: #e63946; stroke: #e63946"/>
     <use xlink:href="#m99c1b2919f" x="40.890245" y="16.952681" style="fill: #e63946; stroke: #e63946"/>
     <use xlink:href="#m99c1b2919f" x="41.29442" y="16.952681" style="fill: #e63946; stroke: #e63946"/>
     <use xlink:href="#m99c1b2919f" x="41.698595" y="16.952681" style="fill: #e63946; stroke: #e63946"/>
     <use xlink:href="#m99c1b2919f" x="42.102769" y="16.952681" style="fill: #e63946; stroke: #e63946"/>
     <use xlink:href="#m99c1b2919f" x="42.506944" y="19.435871" style="fill: #e63946; stroke: #e63946"/>
     <use xlink:href="#m99c1b2919f" x="42.641669" y="20.267934" style="fill: #e63946; stroke: #e63946"/>
     <use xlink:href="#m99c1b2919f" x="43.40511" y="22.777332" style="fill: #e63946; stroke: #e63946"/>
     <use xlink:href="#m99c1b2919f" x="44.887084" y="26.141282" style="fill: #e63946; stroke: #e63946"/>
     <use xlink:href="#m99c1b2919f" x="46.952866" y="35.443537" style="fill: #e63946; stroke: #e63946"/>
     <use xlink:href="#m99c1b2919f" x="48.030666" y="38.84631" style="fill: #e63946; stroke: #e63946"/>
     <use xlink:href="#m99c1b2919f" x="48.120482" y="38.84631" style="fill: #e63946; stroke: #e63946"/>
     <use xlink:href="#m99c1b2919f" x="52.027505" y="56.070222" style="fill: #e63946; stroke: #e63946"/>
     <use xlink:href="#m99c1b2919f" x="54.452554" y="62.141346" style="fill: #e63946; stroke: #e63946"/>
     <use xlink:href="#m99c1b2919f" x="54.766912" y="62.141346" style="fill: #e63946; stroke: #e63946"/>
     <use xlink:href="#m99c1b2919f" x="55.754894" y="64.782679" style="fill: #e63946; stroke: #e63946"/>
     <use xlink:href="#m99c1b2919f" x="56.024344" y="66.557324" style="fill: #e63946; stroke: #e63946"/>
     <use xlink:href="#m99c1b2919f" x="56.203977" y="66.557324" style="fill: #e63946; stroke: #e63946"/>
     <use xlink:href="#m99c1b2919f" x="56.248886" y="67.458959" style="fill: #e63946; stroke: #e63946"/>
     <use xlink:href="#m99c1b2919f" x="56.518336" y="67.458959" style="fill: #e63946; stroke: #e63946"/>
     <use xlink:href="#m99c1b2919f" x="56.563244" y="67.458959" style="fill: #e63946; stroke: #e63946"/>
     <use xlink:href="#m99c1b2919f" x="56.653061" y="67.458959" style="fill: #e63946; stroke: #e63946"/>
     <use xlink:href="#m99c1b2919f" x="56.877602" y="67.458959" style="fill: #e63946; stroke: #e63946"/>
     <use xlink:href="#m99c1b2919f" x="57.326685" y="72.158156" style="fill: #e63946; stroke: #e63946"/>
     <use xlink:href="#m99c1b2919f" x="57.506318" y="72.158156" style="fill: #e63946; stroke: #e63946"/>
     <use xlink:href="#m99c1b2919f" x="57.551227" y="72.158156" style="fill: #e63946; stroke: #e63946"/>
     <use xlink:href="#m99c1b2919f" x="58.26976" y="76.020041" style="fill: #e63946; stroke: #e63946"/>
     <use xlink:href="#m99c1b2919f" x="58.718843" y="76.994707" style="fill: #e63946; stroke: #e63946"/>
     <use xlink:href="#m99c1b2919f" x="58.853568" y="76.994707" style="fill: #e63946; stroke: #e63946"/>
     <use xlink:href="#m99c1b2919f" x="59.078109" y="76.994707" style="fill: #e63946; stroke: #e63946"/>
     <use xlink:href="#m99c1b2919f" x="60.290633" y="81.049319" style="fill: #e63946; stroke: #e63946"/>
     <use xlink:href="#m99c1b2919f" x="60.604991" y="82.073642" style="fill: #e63946; stroke: #e63946"/>
     <use xlink:href="#m99c1b2919f" x="60.694808" y="82.073642" style="fill: #e63946; stroke: #e63946"/>
     <use xlink:href="#m99c1b2919f" x="60.964258" y="82.073642" style="fill: #e63946; stroke: #e63946"/>
     <use xlink:href="#m99c1b2919f" x="61.188799" y="82.073642" style="fill: #e63946; stroke: #e63946"/>
     <use xlink:href="#m99c1b2919f" x="61.233708" y="82.073642" style="fill: #e63946; stroke: #e63946"/>
     <use xlink:href="#m99c1b2919f" x="61.413341" y="82.073642" style="fill: #e63946; stroke: #e63946"/>
     <use xlink:href="#m99c1b2919f" x="61.682791" y="82.073642" style="fill: #e63946; stroke: #e63946"/>
     <use xlink:href="#m99c1b2919f" x="61.862424" y="83.180382" style="fill: #e63946; stroke: #e63946"/>
     <use xlink:href="#m99c1b2919f" x="63.164765" y="86.539662" style="fill: #e63946; stroke: #e63946"/>
     <use xlink:href="#m99c1b2919f" x="63.883298" y="91.074" style="fill: #e63946; stroke: #e63946"/>
     <use xlink:href="#m99c1b2919f" x="64.152748" y="92.2225" style="fill: #e63946; stroke: #e63946"/>
     <use xlink:href="#m99c1b2919f" x="64.871281" y="94.55054" style="fill: #e63946; stroke: #e63946"/>
     <use xlink:href="#m99c1b2919f" x="65.589813" y="98.091785" style="fill: #e63946; stroke: #e63946"/>
     <use xlink:href="#m99c1b2919f" x="65.67963" y="99.289818" style="fill: #e63946; stroke: #e63946"/>
     <use xlink:href="#m99c1b2919f" x="66.038897" y="99.289818" style="fill: #e63946; stroke: #e63946"/>
     <use xlink:href="#m99c1b2919f" x="66.712521" y="102.996233" style="fill: #e63946; stroke: #e63946"/>
     <use xlink:href="#m99c1b2919f" x="67.026879" y="102.996233" style="fill: #e63946; stroke: #e63946"/>
     <use xlink:href="#m99c1b2919f" x="68.194495" y="105.550937" style="fill: #e63946; stroke: #e63946"/>
     <use xlink:href="#m99c1b2919f" x="68.374128" y="105.550937" style="fill: #e63946; stroke: #e63946"/>
     <use xlink:href="#m99c1b2919f" x="68.733395" y="105.550937" style="fill: #e63946; stroke: #e63946"/>
     <use xlink:href="#m99c1b2919f" x="69.496836" y="108.247569" style="fill: #e63946; stroke: #e63946"/>
     <use xlink:href="#m99c1b2919f" x="72.460784" y="116.49609" style="fill: #e63946; stroke: #e63946"/>
     <use xlink:href="#m99c1b2919f" x="73.314042" y="116.49609" style="fill: #e63946; stroke: #e63946"/>
     <use xlink:href="#m99c1b2919f" x="73.808033" y="116.49609" style="fill: #e63946; stroke: #e63946"/>
     <use xlink:href="#m99c1b2919f" x="75.065466" y="116.49609" style="fill: #e63946; stroke: #e63946"/>
     <use xlink:href="#m99c1b2919f" x="75.514549" y="118.004966" style="fill: #e63946; stroke: #e63946"/>
     <use xlink:href="#m99c1b2919f" x="77.445606" y="122.647661" style="fill: #e63946; stroke: #e63946"/>
     <use xlink:href="#m99c1b2919f" x="80.00538" y="125.831223" style="fill: #e63946; stroke: #e63946"/>
     <use xlink:href="#m99c1b2919f" x="80.319738" y="127.472747" style="fill: #e63946; stroke: #e63946"/>
     <use xlink:href="#m99c1b2919f" x="89.481032" y="134.257714" style="fill: #e63946; stroke: #e63946"/>
     <use xlink:href="#m99c1b2919f" x="92.355164" y="134.257714" style="fill: #e63946; stroke: #e63946"/>
     <use xlink:href="#m99c1b2919f" x="99.181226" y="134.257714" style="fill: #e63946; stroke: #e63946"/>
     <use xlink:href="#m99c1b2919f" x="109.734678" y="140.010187" style="fill: #e63946; stroke: #e63946"/>
     <use xlink:href="#m99c1b2919f" x="110.677753" y="140.010187" style="fill: #e63946; stroke: #e63946"/>
     <use xlink:href="#m99c1b2919f" x="116.336199" y="140.010187" style="fill: #e63946; stroke: #e63946"/>
     <use xlink:href="#m99c1b2919f" x="116.605649" y="140.010187" style="fill: #e63946; stroke: #e63946"/>
     <use xlink:href="#m99c1b2919f" x="124.240061" y="142.40705" style="fill: #e63946; stroke: #e63946"/>
     <use xlink:href="#m99c1b2919f" x="127.159101" y="142.40705" style="fill: #e63946; stroke: #e63946"/>
     <use xlink:href="#m99c1b2919f" x="127.293826" y="142.40705" style="fill: #e63946; stroke: #e63946"/>
     <use xlink:href="#m99c1b2919f" x="129.8536" y="142.40705" style="fill: #e63946; stroke: #e63946"/>
     <use xlink:href="#m99c1b2919f" x="135.691679" y="145.6755" style="fill: #e63946; stroke: #e63946"/>
     <use xlink:href="#m99c1b2919f" x="142.607559" y="145.6755" style="fill: #e63946; stroke: #e63946"/>
     <use xlink:href="#m99c1b2919f" x="143.460816" y="145.6755" style="fill: #e63946; stroke: #e63946"/>
     <use xlink:href="#m99c1b2919f" x="145.257149" y="145.6755" style="fill: #e63946; stroke: #e63946"/>
     <use xlink:href="#m99c1b2919f" x="148.445638" y="145.6755" style="fill: #e63946; stroke: #e63946"/>
     <use xlink:href="#m99c1b2919f" x="168.429835" y="145.6755" style="fill: #e63946; stroke: #e63946"/>
     <use xlink:href="#m99c1b2919f" x="169.238184" y="145.6755" style="fill: #e63946; stroke: #e63946"/>
     <use xlink:href="#m99c1b2919f" x="172.741032" y="145.6755" style="fill: #e63946; stroke: #e63946"/>
     <use xlink:href="#m99c1b2919f" x="211.856167" y="145.6755" style="fill: #e63946; stroke: #e63946"/>
     <use xlink:href="#m99c1b2919f" x="266.419759" y="145.6755" style="fill: #e63946; stroke: #e63946"/>
    </g>
   </g>
   <g id="line2d_28">
    <path d="M 36.758681 15.350476 
L 39.632812 15.350476 
L 39.632812 16.145645 
L 40.530979 16.145645 
L 40.530979 16.952681 
L 42.147678 16.952681 
L 42.192586 19.435871 
L 42.551852 19.435871 
L 42.551852 20.267934 
L 42.641669 20.267934 
L 42.686577 20.267934 
L 42.686577 21.1044 
L 43.045844 21.1044 
L 43.045844 21.940866 
L 43.270385 21.940866 
L 43.270385 22.777332 
L 43.584743 22.777332 
L 43.584743 23.618319 
L 43.809285 23.618319 
L 43.809285 24.459307 
L 44.033827 24.459307 
L 44.033827 25.300294 
L 44.393093 25.300294 
L 44.393093 26.141282 
L 44.931993 26.141282 
L 44.931993 26.986941 
L 45.111626 26.986941 
L 45.111626 27.832601 
L 45.381076 27.832601 
L 45.381076 28.67826 
L 45.515801 28.67826 
L 45.515801 29.52392 
L 46.009792 29.52392 
L 46.099609 31.215239 
L 46.189425 31.215239 
L 46.189425 32.060898 
L 46.32415 32.060898 
L 46.32415 32.906558 
L 46.548692 32.906558 
L 46.548692 34.597877 
L 46.952866 34.597877 
L 46.952866 35.443537 
L 47.177408 35.443537 
L 47.177408 37.144923 
L 47.401949 37.144923 
L 47.401949 37.995616 
L 47.806124 37.995616 
L 47.806124 38.84631 
L 48.614474 38.84631 
L 48.614474 39.707505 
L 48.839015 39.707505 
L 48.883924 41.429896 
L 49.198282 41.429896 
L 49.198282 42.291092 
L 49.333007 42.291092 
L 49.333007 43.152288 
L 49.51264 43.152288 
L 49.51264 44.013483 
L 49.647365 44.013483 
L 49.647365 44.874679 
L 50.05154 44.874679 
L 50.05154 46.59707 
L 50.276081 46.59707 
L 50.276081 47.458266 
L 50.770072 47.458266 
L 50.770072 48.319461 
L 50.994614 48.319461 
L 51.039522 50.041853 
L 51.264064 50.041853 
L 51.35388 51.764244 
L 51.398789 51.764244 
L 51.398789 52.62544 
L 51.847872 52.62544 
L 51.937688 56.070222 
L 52.835855 56.070222 
L 52.835855 57.804829 
L 53.599296 57.804829 
L 53.599296 58.672132 
L 54.183104 58.672132 
L 54.183104 60.406739 
L 54.362737 60.406739 
L 54.407645 62.141346 
L 54.452554 62.141346 
L 55.08127 62.141346 
L 55.08127 63.902234 
L 55.620169 63.902234 
L 55.620169 64.782679 
L 55.889619 64.782679 
L 55.979436 66.557324 
L 56.248886 66.557324 
L 56.248886 67.458959 
L 56.92251 67.458959 
L 56.967419 69.338638 
L 57.057235 69.338638 
L 57.057235 70.278477 
L 57.19196 70.278477 
L 57.281777 72.158156 
L 57.955401 72.158156 
L 57.955401 73.123627 
L 58.179943 73.123627 
L 58.179943 76.020041 
L 58.26976 76.020041 
L 58.404484 76.020041 
L 58.404484 76.994707 
L 59.257742 76.994707 
L 59.257742 78.00836 
L 59.976275 78.00836 
L 60.066092 80.035666 
L 60.290633 80.035666 
L 60.290633 81.049319 
L 60.604991 81.049319 
L 60.604991 82.073642 
L 60.694808 82.073642 
L 61.727699 82.073642 
L 61.727699 83.180382 
L 62.446232 83.180382 
L 62.536049 85.419902 
L 63.074948 85.419902 
L 63.074948 86.539662 
L 63.164765 86.539662 
L 63.434215 86.539662 
L 63.434215 87.673247 
L 63.613848 87.673247 
L 63.703665 89.940415 
L 63.83839 89.940415 
L 63.83839 91.074 
L 63.883298 91.074 
L 64.062931 91.074 
L 64.062931 92.2225 
L 64.152748 92.2225 
L 64.197656 92.2225 
L 64.197656 93.38652 
L 64.332381 93.38652 
L 64.332381 94.55054 
L 65.006005 94.55054 
L 65.006005 95.730955 
L 65.455089 95.730955 
L 65.544905 98.091785 
L 65.634722 98.091785 
L 65.634722 99.289818 
L 65.67963 99.289818 
L 66.128713 99.289818 
L 66.128713 100.52529 
L 66.532888 100.52529 
L 66.532888 101.760761 
L 66.667613 101.760761 
L 66.667613 102.996233 
L 66.712521 102.996233 
L 67.116696 102.996233 
L 67.116696 104.273585 
L 67.610687 104.273585 
L 67.610687 105.550937 
L 68.86812 105.550937 
L 68.86812 106.899253 
L 69.496836 106.899253 
L 69.496836 108.247569 
L 70.170461 108.247569 
L 70.170461 109.622322 
L 70.395002 109.622322 
L 70.395002 110.997076 
L 70.888994 110.997076 
L 70.888994 112.37183 
L 71.338077 112.37183 
L 71.338077 113.746583 
L 71.607526 113.746583 
L 71.607526 115.121337 
L 71.921885 115.121337 
L 71.921885 116.49609 
L 75.334916 116.49609 
L 75.334916 118.004966 
L 76.412715 118.004966 
L 76.412715 119.552531 
L 76.592348 119.552531 
L 76.592348 121.100096 
L 77.131248 121.100096 
L 77.131248 122.647661 
L 78.209047 122.647661 
L 78.209047 124.239442 
L 78.433589 124.239442 
L 78.433589 125.831223 
L 80.229921 125.831223 
L 80.229921 127.472747 
L 80.319738 127.472747 
L 82.250795 127.472747 
L 82.250795 129.168989 
L 84.900385 129.168989 
L 84.900385 130.865231 
L 86.157818 130.865231 
L 86.157818 132.561473 
L 87.999058 132.561473 
L 87.999058 134.257714 
L 100.169209 134.257714 
L 100.169209 136.175205 
L 103.402607 136.175205 
L 103.402607 138.092696 
L 103.537332 138.092696 
L 103.537332 140.010187 
L 123.566437 140.010187 
L 123.566437 142.40705 
L 130.347591 142.40705 
L 130.347591 145.6755 
L 266.419759 145.6755 
L 266.419759 145.6755 
" clip-path="url(#p97d3eca940)" style="fill: none; stroke: #e63946; stroke-width: 2; stroke-linecap: round"/>
   </g>
   <g id="patch_3">
    <path d="M 39.632812 178.36 
L 39.632812 7.2 
" style="fill: none; stroke: #262626; stroke-width: 0.8; stroke-linejoin: miter; stroke-linecap: square"/>
   </g>
   <g id="patch_4">
    <path d="M 277.902813 178.36 
L 277.902813 7.2 
" style="fill: none; stroke: #262626; stroke-width: 0.8; stroke-linejoin: miter; stroke-linecap: square"/>
   </g>
   <g id="patch_5">
    <path d="M 39.632812 178.36 
L 277.902813 178.36 
" style="fill: none; stroke: #262626; stroke-width: 0.8; stroke-linejoin: miter; stroke-linecap: square"/>
   </g>
   <g id="patch_6">
    <path d="M 39.632812 7.2 
L 277.902813 7.2 
" style="fill: none; stroke: #262626; stroke-width: 0.8; stroke-linejoin: miter; stroke-linecap: square"/>
   </g>
   <g id="text_15">
    <g id="patch_7">
     <path d="M 229.696163 25.9005 
L 273.137413 25.9005 
Q 275.537413 25.9005 275.537413 23.5005 
L 275.537413 15.758 
Q 275.537413 13.358 273.137413 13.358 
L 229.696163 13.358 
Q 227.296163 13.358 227.296163 15.758 
L 227.296163 23.5005 
Q 227.296163 25.9005 229.696163 25.9005 
z
" style="fill: #ffffff; opacity: 0.8; stroke: #ffffff; stroke-linejoin: miter"/>
    </g>
    <!-- P &lt; 0.001 -->
    <g style="fill: #262626" transform="translate(229.696163 21.83675) scale(0.08 -0.08)">
     <defs>
      <path id="DejaVuSans-Bold-50" d="M 588 4666 
L 2584 4666 
Q 3475 4666 3951 4270 
Q 4428 3875 4428 3144 
Q 4428 2409 3951 2014 
Q 3475 1619 2584 1619 
L 1791 1619 
L 1791 0 
L 588 0 
L 588 4666 
z
M 1791 3794 
L 1791 2491 
L 2456 2491 
Q 2806 2491 2997 2661 
Q 3188 2831 3188 3144 
Q 3188 3456 2997 3625 
Q 2806 3794 2456 3794 
L 1791 3794 
z
" transform="scale(0.015625)"/>
      <path id="DejaVuSans-Bold-20" transform="scale(0.015625)"/>
      <path id="DejaVuSans-Bold-3c" d="M 4684 3041 
L 1672 2003 
L 4684 972 
L 4684 191 
L 678 1638 
L 678 2375 
L 4684 3822 
L 4684 3041 
z
" transform="scale(0.015625)"/>
      <path id="DejaVuSans-Bold-30" d="M 2944 2338 
Q 2944 3213 2780 3570 
Q 2616 3928 2228 3928 
Q 1841 3928 1675 3570 
Q 1509 3213 1509 2338 
Q 1509 1453 1675 1090 
Q 1841 728 2228 728 
Q 2613 728 2778 1090 
Q 2944 1453 2944 2338 
z
M 4147 2328 
Q 4147 1169 3647 539 
Q 3147 -91 2228 -91 
Q 1306 -91 806 539 
Q 306 1169 306 2328 
Q 306 3491 806 4120 
Q 1306 4750 2228 4750 
Q 3147 4750 3647 4120 
Q 4147 3491 4147 2328 
z
" transform="scale(0.015625)"/>
      <path id="DejaVuSans-Bold-2e" d="M 653 1209 
L 1778 1209 
L 1778 0 
L 653 0 
L 653 1209 
z
" transform="scale(0.015625)"/>
      <path id="DejaVuSans-Bold-31" d="M 750 831 
L 1813 831 
L 1813 3847 
L 722 3622 
L 722 4441 
L 1806 4666 
L 2950 4666 
L 2950 831 
L 4013 831 
L 4013 0 
L 750 0 
L 750 831 
z
" transform="scale(0.015625)"/>
     </defs>
     <use xlink:href="#DejaVuSans-Bold-50"/>
     <use xlink:href="#DejaVuSans-Bold-20" transform="translate(73.291016 0)"/>
     <use xlink:href="#DejaVuSans-Bold-3c" transform="translate(108.105469 0)"/>
     <use xlink:href="#DejaVuSans-Bold-20" transform="translate(191.894531 0)"/>
     <use xlink:href="#DejaVuSans-Bold-30" transform="translate(226.708984 0)"/>
     <use xlink:href="#DejaVuSans-Bold-2e" transform="translate(296.289062 0)"/>
     <use xlink:href="#DejaVuSans-Bold-30" transform="translate(334.277344 0)"/>
     <use xlink:href="#DejaVuSans-Bold-30" transform="translate(403.857422 0)"/>
     <use xlink:href="#DejaVuSans-Bold-31" transform="translate(473.4375 0)"/>
    </g>
   </g>
  </g>
 </g>
 <defs>
  <clipPath id="p97d3eca940">
   <rect x="39.632812" y="7.2" width="238.27" height="171.16"/>
  </clipPath>
 </defs>
</svg>
