<?xml version="1.0" encoding="utf-8" standalone="no"?>
<!DOCTYPE svg PUBLIC "-//W3C//DTD SVG 1.1//EN"
  "http://www.w3.org/Graphics/SVG/1.1/DTD/svg11.dtd">
<svg xmlns:xlink="http://www.w3.org/1999/xlink" width="285.102812pt" height="213.012812pt" viewBox="0 0 285.102812 213.012812" xmlns="http://www.w3.org/2000/svg" version="1.1">
 <metadata>
  <rdf:RDF xmlns:dc="http://purl.org/dc/elements/1.1/" xmlns:cc="http://creativecommons.org/ns#" xmlns:rdf="http://www.w3.org/1999/02/22-rdf-syntax-ns#">
   <cc:Work>
    <dc:type rdf:resource="http://purl.org/dc/dcmitype/StillImage"/>
    <dc:date>2025-07-12T19:58:06.536413</dc:date>
    <dc:format>image/svg+xml</dc:format>
    <dc:creator>
     <cc:Agent>
      <dc:title>Matplotlib v3.10.3, https://matplotlib.org/</dc:title>
     </cc:Agent>
    </dc:creator>
   </cc:Work>
  </rdf:RDF>
 </metadata>
 <defs>
  <style type="text/css">*{stroke-linejoin: round; stroke-linecap: butt}</style>
 </defs>
 <g id="figure_1">
  <g id="patch_1">
   <path d="M 0 213.012812 
L 285.102812 213.012812 
L 285.102812 0 
L 0 0 
L 0 213.012812 
z
" style="fill: none"/>
  </g>
  <g id="axes_1">
   <g id="patch_2">
    <path d="M 39.632812 178.36 
L 277.902813 178.36 
L 277.902813 7.2 
L 39.632812 7.2 
L 39.632812 178.36 
z
" style="fill: none"/>
   </g>
   <g id="matplotlib.axis_1">
    <g id="xtick_1">
     <g id="line2d_1">
      <path d="M 39.632812 178.36 
L 39.632812 7.2 
" clip-path="url(#p84d30992c6)" style="fill: none; stroke: #cccccc; stroke-opacity: 0.3; stroke-width: 0.5; stroke-linecap: round"/>
     </g>
     <g id="line2d_2">
      <defs>
       <path id="m33e4a4984e" d="M 0 0 
L 0 3.5 
" style="stroke: #262626; stroke-width: 0.8"/>
      </defs>
      <g>
       <use xlink:href="#m33e4a4984e" x="39.632812" y="178.36" style="fill: #262626; stroke: #262626; stroke-width: 0.8"/>
      </g>
     </g>
     <g id="text_1">
      <!-- 0 -->
      <g style="fill: #262626" transform="translate(37.087812 191.43875) scale(0.08 -0.08)">
       <defs>
        <path id="DejaVuSans-30" d="M 2034 4250 
Q 1547 4250 1301 3770 
Q 1056 3291 1056 2328 
Q 1056 1369 1301 889 
Q 1547 409 2034 409 
Q 2525 409 2770 889 
Q 3016 1369 3016 2328 
Q 3016 3291 2770 3770 
Q 2525 4250 2034 4250 
z
M 2034 4750 
Q 2819 4750 3233 4129 
Q 3647 3509 3647 2328 
Q 3647 1150 3233 529 
Q 2819 -91 2034 -91 
Q 1250 -91 836 529 
Q 422 1150 422 2328 
Q 422 3509 836 4129 
Q 1250 4750 2034 4750 
z
" transform="scale(0.015625)"/>
       </defs>
       <use xlink:href="#DejaVuSans-30"/>
      </g>
     </g>
    </g>
    <g id="xtick_2">
     <g id="line2d_3">
      <path d="M 84.541119 178.36 
L 84.541119 7.2 
" clip-path="url(#p84d30992c6)" style="fill: none; stroke: #cccccc; stroke-opacity: 0.3; stroke-width: 0.5; stroke-linecap: round"/>
     </g>
     <g id="line2d_4">
      <g>
       <use xlink:href="#m33e4a4984e" x="84.541119" y="178.36" style="fill: #262626; stroke: #262626; stroke-width: 0.8"/>
      </g>
     </g>
     <g id="text_2">
      <!-- 1000 -->
      <g style="fill: #262626" transform="translate(74.361119 191.43875) scale(0.08 -0.08)">
       <defs>
        <path id="DejaVuSans-31" d="M 794 531 
L 1825 531 
L 1825 4091 
L 703 3866 
L 703 4441 
L 1819 4666 
L 2450 4666 
L 2450 531 
L 3481 531 
L 3481 0 
L 794 0 
L 794 531 
z
" transform="scale(0.015625)"/>
       </defs>
       <use xlink:href="#DejaVuSans-31"/>
       <use xlink:href="#DejaVuSans-30" transform="translate(63.623047 0)"/>
       <use xlink:href="#DejaVuSans-30" transform="translate(127.246094 0)"/>
       <use xlink:href="#DejaVuSans-30" transform="translate(190.869141 0)"/>
      </g>
     </g>
    </g>
    <g id="xtick_3">
     <g id="line2d_5">
      <path d="M 129.449425 178.36 
L 129.449425 7.2 
" clip-path="url(#p84d30992c6)" style="fill: none; stroke: #cccccc; stroke-opacity: 0.3; stroke-width: 0.5; stroke-linecap: round"/>
     </g>
     <g id="line2d_6">
      <g>
       <use xlink:href="#m33e4a4984e" x="129.449425" y="178.36" style="fill: #262626; stroke: #262626; stroke-width: 0.8"/>
      </g>
     </g>
     <g id="text_3">
      <!-- 2000 -->
      <g style="fill: #262626" transform="translate(119.269425 191.43875) scale(0.08 -0.08)">
       <defs>
        <path id="DejaVuSans-32" d="M 1228 531 
L 3431 531 
L 3431 0 
L 469 0 
L 469 531 
Q 828 903 1448 1529 
Q 2069 2156 2228 2338 
Q 2531 2678 2651 2914 
Q 2772 3150 2772 3378 
Q 2772 3750 2511 3984 
Q 2250 4219 1831 4219 
Q 1534 4219 1204 4116 
Q 875 4013 500 3803 
L 500 4441 
Q 881 4594 1212 4672 
Q 1544 4750 1819 4750 
Q 2544 4750 2975 4387 
Q 3406 4025 3406 3419 
Q 3406 3131 3298 2873 
Q 3191 2616 2906 2266 
Q 2828 2175 2409 1742 
Q 1991 1309 1228 531 
z
" transform="scale(0.015625)"/>
       </defs>
       <use xlink:href="#DejaVuSans-32"/>
       <use xlink:href="#DejaVuSans-30" transform="translate(63.623047 0)"/>
       <use xlink:href="#DejaVuSans-30" transform="translate(127.246094 0)"/>
       <use xlink:href="#DejaVuSans-30" transform="translate(190.869141 0)"/>
      </g>
     </g>
    </g>
    <g id="xtick_4">
     <g id="line2d_7">
      <path d="M 174.357731 178.36 
L 174.357731 7.2 
" clip-path="url(#p84d30992c6)" style="fill: none; stroke: #cccccc; stroke-opacity: 0.3; stroke-width: 0.5; stroke-linecap: round"/>
     </g>
     <g id="line2d_8">
      <g>
       <use xlink:href="#m33e4a4984e" x="174.357731" y="178.36" style="fill: #262626; stroke: #262626; stroke-width: 0.8"/>
      </g>
     </g>
     <g id="text_4">
      <!-- 3000 -->
      <g style="fill: #262626" transform="translate(164.177731 191.43875) scale(0.08 -0.08)">
       <defs>
        <path id="DejaVuSans-33" d="M 2597 2516 
Q 3050 2419 3304 2112 
Q 3559 1806 3559 1356 
Q 3559 666 3084 287 
Q 2609 -91 1734 -91 
Q 1441 -91 1130 -33 
Q 819 25 488 141 
L 488 750 
Q 750 597 1062 519 
Q 1375 441 1716 441 
Q 2309 441 2620 675 
Q 2931 909 2931 1356 
Q 2931 1769 2642 2001 
Q 2353 2234 1838 2234 
L 1294 2234 
L 1294 2753 
L 1863 2753 
Q 2328 2753 2575 2939 
Q 2822 3125 2822 3475 
Q 2822 3834 2567 4026 
Q 2313 4219 1838 4219 
Q 1578 4219 1281 4162 
Q 984 4106 628 3988 
L 628 4550 
Q 988 4650 1302 4700 
Q 1616 4750 1894 4750 
Q 2613 4750 3031 4423 
Q 3450 4097 3450 3541 
Q 3450 3153 3228 2886 
Q 3006 2619 2597 2516 
z
" transform="scale(0.015625)"/>
       </defs>
       <use xlink:href="#DejaVuSans-33"/>
       <use xlink:href="#DejaVuSans-30" transform="translate(63.623047 0)"/>
       <use xlink:href="#DejaVuSans-30" transform="translate(127.246094 0)"/>
       <use xlink:href="#DejaVuSans-30" transform="translate(190.869141 0)"/>
      </g>
     </g>
    </g>
    <g id="xtick_5">
     <g id="line2d_9">
      <path d="M 219.266037 178.36 
L 219.266037 7.2 
" clip-path="url(#p84d30992c6)" style="fill: none; stroke: #cccccc; stroke-opacity: 0.3; stroke-width: 0.5; stroke-linecap: round"/>
     </g>
     <g id="line2d_10">
      <g>
       <use xlink:href="#m33e4a4984e" x="219.266037" y="178.36" style="fill: #262626; stroke: #262626; stroke-width: 0.8"/>
      </g>
     </g>
     <g id="text_5">
      <!-- 4000 -->
      <g style="fill: #262626" transform="translate(209.086037 191.43875) scale(0.08 -0.08)">
       <defs>
        <path id="DejaVuSans-34" d="M 2419 4116 
L 825 1625 
L 2419 1625 
L 2419 4116 
z
M 2253 4666 
L 3047 4666 
L 3047 1625 
L 3713 1625 
L 3713 1100 
L 3047 1100 
L 3047 0 
L 2419 0 
L 2419 1100 
L 313 1100 
L 313 1709 
L 2253 4666 
z
" transform="scale(0.015625)"/>
       </defs>
       <use xlink:href="#DejaVuSans-34"/>
       <use xlink:href="#DejaVuSans-30" transform="translate(63.623047 0)"/>
       <use xlink:href="#DejaVuSans-30" transform="translate(127.246094 0)"/>
       <use xlink:href="#DejaVuSans-30" transform="translate(190.869141 0)"/>
      </g>
     </g>
    </g>
    <g id="xtick_6">
     <g id="line2d_11">
      <path d="M 264.174343 178.36 
L 264.174343 7.2 
" clip-path="url(#p84d30992c6)" style="fill: none; stroke: #cccccc; stroke-opacity: 0.3; stroke-width: 0.5; stroke-linecap: round"/>
     </g>
     <g id="line2d_12">
      <g>
       <use xlink:href="#m33e4a4984e" x="264.174343" y="178.36" style="fill: #262626; stroke: #262626; stroke-width: 0.8"/>
      </g>
     </g>
     <g id="text_6">
      <!-- 5000 -->
      <g style="fill: #262626" transform="translate(253.994343 191.43875) scale(0.08 -0.08)">
       <defs>
        <path id="DejaVuSans-35" d="M 691 4666 
L 3169 4666 
L 3169 4134 
L 1269 4134 
L 1269 2991 
Q 1406 3038 1543 3061 
Q 1681 3084 1819 3084 
Q 2600 3084 3056 2656 
Q 3513 2228 3513 1497 
Q 3513 744 3044 326 
Q 2575 -91 1722 -91 
Q 1428 -91 1123 -41 
Q 819 9 494 109 
L 494 744 
Q 775 591 1075 516 
Q 1375 441 1709 441 
Q 2250 441 2565 725 
Q 2881 1009 2881 1497 
Q 2881 1984 2565 2268 
Q 2250 2553 1709 2553 
Q 1456 2553 1204 2497 
Q 953 2441 691 2322 
L 691 4666 
z
" transform="scale(0.015625)"/>
       </defs>
       <use xlink:href="#DejaVuSans-35"/>
       <use xlink:href="#DejaVuSans-30" transform="translate(63.623047 0)"/>
       <use xlink:href="#DejaVuSans-30" transform="translate(127.246094 0)"/>
       <use xlink:href="#DejaVuSans-30" transform="translate(190.869141 0)"/>
      </g>
     </g>
    </g>
    <g id="text_7">
     <!-- Time (days) -->
     <g style="fill: #262626" transform="translate(132.193906 203.941094) scale(0.09 -0.09)">
      <defs>
       <path id="DejaVuSans-54" d="M -19 4666 
L 3928 4666 
L 3928 4134 
L 2272 4134 
L 2272 0 
L 1638 0 
L 1638 4134 
L -19 4134 
L -19 4666 
z
" transform="scale(0.015625)"/>
       <path id="DejaVuSans-69" d="M 603 3500 
L 1178 3500 
L 1178 0 
L 603 0 
L 603 3500 
z
M 603 4863 
L 1178 4863 
L 1178 4134 
L 603 4134 
L 603 4863 
z
" transform="scale(0.015625)"/>
       <path id="DejaVuSans-6d" d="M 3328 2828 
Q 3544 3216 3844 3400 
Q 4144 3584 4550 3584 
Q 5097 3584 5394 3201 
Q 5691 2819 5691 2113 
L 5691 0 
L 5113 0 
L 5113 2094 
Q 5113 2597 4934 2840 
Q 4756 3084 4391 3084 
Q 3944 3084 3684 2787 
Q 3425 2491 3425 1978 
L 3425 0 
L 2847 0 
L 2847 2094 
Q 2847 2600 2669 2842 
Q 2491 3084 2119 3084 
Q 1678 3084 1418 2786 
Q 1159 2488 1159 1978 
L 1159 0 
L 581 0 
L 581 3500 
L 1159 3500 
L 1159 2956 
Q 1356 3278 1631 3431 
Q 1906 3584 2284 3584 
Q 2666 3584 2933 3390 
Q 3200 3197 3328 2828 
z
" transform="scale(0.015625)"/>
       <path id="DejaVuSans-65" d="M 3597 1894 
L 3597 1613 
L 953 1613 
Q 991 1019 1311 708 
Q 1631 397 2203 397 
Q 2534 397 2845 478 
Q 3156 559 3463 722 
L 3463 178 
Q 3153 47 2828 -22 
Q 2503 -91 2169 -91 
Q 1331 -91 842 396 
Q 353 884 353 1716 
Q 353 2575 817 3079 
Q 1281 3584 2069 3584 
Q 2775 3584 3186 3129 
Q 3597 2675 3597 1894 
z
M 3022 2063 
Q 3016 2534 2758 2815 
Q 2500 3097 2075 3097 
Q 1594 3097 1305 2825 
Q 1016 2553 972 2059 
L 3022 2063 
z
" transform="scale(0.015625)"/>
       <path id="DejaVuSans-20" transform="scale(0.015625)"/>
       <path id="DejaVuSans-28" d="M 1984 4856 
Q 1566 4138 1362 3434 
Q 1159 2731 1159 2009 
Q 1159 1288 1364 580 
Q 1569 -128 1984 -844 
L 1484 -844 
Q 1016 -109 783 600 
Q 550 1309 550 2009 
Q 550 2706 781 3412 
Q 1013 4119 1484 4856 
L 1984 4856 
z
" transform="scale(0.015625)"/>
       <path id="DejaVuSans-64" d="M 2906 2969 
L 2906 4863 
L 3481 4863 
L 3481 0 
L 2906 0 
L 2906 525 
Q 2725 213 2448 61 
Q 2172 -91 1784 -91 
Q 1150 -91 751 415 
Q 353 922 353 1747 
Q 353 2572 751 3078 
Q 1150 3584 1784 3584 
Q 2172 3584 2448 3432 
Q 2725 3281 2906 2969 
z
M 947 1747 
Q 947 1113 1208 752 
Q 1469 391 1925 391 
Q 2381 391 2643 752 
Q 2906 1113 2906 1747 
Q 2906 2381 2643 2742 
Q 2381 3103 1925 3103 
Q 1469 3103 1208 2742 
Q 947 2381 947 1747 
z
" transform="scale(0.015625)"/>
       <path id="DejaVuSans-61" d="M 2194 1759 
Q 1497 1759 1228 1600 
Q 959 1441 959 1056 
Q 959 750 1161 570 
Q 1363 391 1709 391 
Q 2188 391 2477 730 
Q 2766 1069 2766 1631 
L 2766 1759 
L 2194 1759 
z
M 3341 1997 
L 3341 0 
L 2766 0 
L 2766 531 
Q 2569 213 2275 61 
Q 1981 -91 1556 -91 
Q 1019 -91 701 211 
Q 384 513 384 1019 
Q 384 1609 779 1909 
Q 1175 2209 1959 2209 
L 2766 2209 
L 2766 2266 
Q 2766 2663 2505 2880 
Q 2244 3097 1772 3097 
Q 1472 3097 1187 3025 
Q 903 2953 641 2809 
L 641 3341 
Q 956 3463 1253 3523 
Q 1550 3584 1831 3584 
Q 2591 3584 2966 3190 
Q 3341 2797 3341 1997 
z
" transform="scale(0.015625)"/>
       <path id="DejaVuSans-79" d="M 2059 -325 
Q 1816 -950 1584 -1140 
Q 1353 -1331 966 -1331 
L 506 -1331 
L 506 -850 
L 844 -850 
Q 1081 -850 1212 -737 
Q 1344 -625 1503 -206 
L 1606 56 
L 191 3500 
L 800 3500 
L 1894 763 
L 2988 3500 
L 3597 3500 
L 2059 -325 
z
" transform="scale(0.015625)"/>
       <path id="DejaVuSans-73" d="M 2834 3397 
L 2834 2853 
Q 2591 2978 2328 3040 
Q 2066 3103 1784 3103 
Q 1356 3103 1142 2972 
Q 928 2841 928 2578 
Q 928 2378 1081 2264 
Q 1234 2150 1697 2047 
L 1894 2003 
Q 2506 1872 2764 1633 
Q 3022 1394 3022 966 
Q 3022 478 2636 193 
Q 2250 -91 1575 -91 
Q 1294 -91 989 -36 
Q 684 19 347 128 
L 347 722 
Q 666 556 975 473 
Q 1284 391 1588 391 
Q 1994 391 2212 530 
Q 2431 669 2431 922 
Q 2431 1156 2273 1281 
Q 2116 1406 1581 1522 
L 1381 1569 
Q 847 1681 609 1914 
Q 372 2147 372 2553 
Q 372 3047 722 3315 
Q 1072 3584 1716 3584 
Q 2034 3584 2315 3537 
Q 2597 3491 2834 3397 
z
" transform="scale(0.015625)"/>
       <path id="DejaVuSans-29" d="M 513 4856 
L 1013 4856 
Q 1481 4119 1714 3412 
Q 1947 2706 1947 2009 
Q 1947 1309 1714 600 
Q 1481 -109 1013 -844 
L 513 -844 
Q 928 -128 1133 580 
Q 1338 1288 1338 2009 
Q 1338 2731 1133 3434 
Q 928 4138 513 4856 
z
" transform="scale(0.015625)"/>
      </defs>
      <use xlink:href="#DejaVuSans-54"/>
      <use xlink:href="#DejaVuSans-69" transform="translate(57.958984 0)"/>
      <use xlink:href="#DejaVuSans-6d" transform="translate(85.742188 0)"/>
      <use xlink:href="#DejaVuSans-65" transform="translate(183.154297 0)"/>
      <use xlink:href="#DejaVuSans-20" transform="translate(244.677734 0)"/>
      <use xlink:href="#DejaVuSans-28" transform="translate(276.464844 0)"/>
      <use xlink:href="#DejaVuSans-64" transform="translate(315.478516 0)"/>
      <use xlink:href="#DejaVuSans-61" transform="translate(378.955078 0)"/>
      <use xlink:href="#DejaVuSans-79" transform="translate(440.234375 0)"/>
      <use xlink:href="#DejaVuSans-73" transform="translate(499.414062 0)"/>
      <use xlink:href="#DejaVuSans-29" transform="translate(551.513672 0)"/>
     </g>
    </g>
   </g>
   <g id="matplotlib.axis_2">
    <g id="ytick_1">
     <g id="line2d_13">
      <path d="M 39.632812 178.36 
L 277.902813 178.36 
" clip-path="url(#p84d30992c6)" style="fill: none; stroke: #cccccc; stroke-opacity: 0.3; stroke-width: 0.5; stroke-linecap: round"/>
     </g>
     <g id="line2d_14">
      <defs>
       <path id="m9cfe082b97" d="M 0 0 
L -3.5 0 
" style="stroke: #262626; stroke-width: 0.8"/>
      </defs>
      <g>
       <use xlink:href="#m9cfe082b97" x="39.632812" y="178.36" style="fill: #262626; stroke: #262626; stroke-width: 0.8"/>
      </g>
     </g>
     <g id="text_8">
      <!-- 0.0 -->
      <g style="fill: #262626" transform="translate(19.910312 181.399375) scale(0.08 -0.08)">
       <defs>
        <path id="DejaVuSans-2e" d="M 684 794 
L 1344 794 
L 1344 0 
L 684 0 
L 684 794 
z
" transform="scale(0.015625)"/>
       </defs>
       <use xlink:href="#DejaVuSans-30"/>
       <use xlink:href="#DejaVuSans-2e" transform="translate(63.623047 0)"/>
       <use xlink:href="#DejaVuSans-30" transform="translate(95.410156 0)"/>
      </g>
     </g>
    </g>
    <g id="ytick_2">
     <g id="line2d_15">
      <path d="M 39.632812 145.758095 
L 277.902813 145.758095 
" clip-path="url(#p84d30992c6)" style="fill: none; stroke: #cccccc; stroke-opacity: 0.3; stroke-width: 0.5; stroke-linecap: round"/>
     </g>
     <g id="line2d_16">
      <g>
       <use xlink:href="#m9cfe082b97" x="39.632812" y="145.758095" style="fill: #262626; stroke: #262626; stroke-width: 0.8"/>
      </g>
     </g>
     <g id="text_9">
      <!-- 0.2 -->
      <g style="fill: #262626" transform="translate(19.910312 148.79747) scale(0.08 -0.08)">
       <use xlink:href="#DejaVuSans-30"/>
       <use xlink:href="#DejaVuSans-2e" transform="translate(63.623047 0)"/>
       <use xlink:href="#DejaVuSans-32" transform="translate(95.410156 0)"/>
      </g>
     </g>
    </g>
    <g id="ytick_3">
     <g id="line2d_17">
      <path d="M 39.632812 113.15619 
L 277.902813 113.15619 
" clip-path="url(#p84d30992c6)" style="fill: none; stroke: #cccccc; stroke-opacity: 0.3; stroke-width: 0.5; stroke-linecap: round"/>
     </g>
     <g id="line2d_18">
      <g>
       <use xlink:href="#m9cfe082b97" x="39.632812" y="113.15619" style="fill: #262626; stroke: #262626; stroke-width: 0.8"/>
      </g>
     </g>
     <g id="text_10">
      <!-- 0.4 -->
      <g style="fill: #262626" transform="translate(19.910312 116.195565) scale(0.08 -0.08)">
       <use xlink:href="#DejaVuSans-30"/>
       <use xlink:href="#DejaVuSans-2e" transform="translate(63.623047 0)"/>
       <use xlink:href="#DejaVuSans-34" transform="translate(95.410156 0)"/>
      </g>
     </g>
    </g>
    <g id="ytick_4">
     <g id="line2d_19">
      <path d="M 39.632812 80.554286 
L 277.902813 80.554286 
" clip-path="url(#p84d30992c6)" style="fill: none; stroke: #cccccc; stroke-opacity: 0.3; stroke-width: 0.5; stroke-linecap: round"/>
     </g>
     <g id="line2d_20">
      <g>
       <use xlink:href="#m9cfe082b97" x="39.632812" y="80.554286" style="fill: #262626; stroke: #262626; stroke-width: 0.8"/>
      </g>
     </g>
     <g id="text_11">
      <!-- 0.6 -->
      <g style="fill: #262626" transform="translate(19.910312 83.593661) scale(0.08 -0.08)">
       <defs>
        <path id="DejaVuSans-36" d="M 2113 2584 
Q 1688 2584 1439 2293 
Q 1191 2003 1191 1497 
Q 1191 994 1439 701 
Q 1688 409 2113 409 
Q 2538 409 2786 701 
Q 3034 994 3034 1497 
Q 3034 2003 2786 2293 
Q 2538 2584 2113 2584 
z
M 3366 4563 
L 3366 3988 
Q 3128 4100 2886 4159 
Q 2644 4219 2406 4219 
Q 1781 4219 1451 3797 
Q 1122 3375 1075 2522 
Q 1259 2794 1537 2939 
Q 1816 3084 2150 3084 
Q 2853 3084 3261 2657 
Q 3669 2231 3669 1497 
Q 3669 778 3244 343 
Q 2819 -91 2113 -91 
Q 1303 -91 875 529 
Q 447 1150 447 2328 
Q 447 3434 972 4092 
Q 1497 4750 2381 4750 
Q 2619 4750 2861 4703 
Q 3103 4656 3366 4563 
z
" transform="scale(0.015625)"/>
       </defs>
       <use xlink:href="#DejaVuSans-30"/>
       <use xlink:href="#DejaVuSans-2e" transform="translate(63.623047 0)"/>
       <use xlink:href="#DejaVuSans-36" transform="translate(95.410156 0)"/>
      </g>
     </g>
    </g>
    <g id="ytick_5">
     <g id="line2d_21">
      <path d="M 39.632812 47.952381 
L 277.902813 47.952381 
" clip-path="url(#p84d30992c6)" style="fill: none; stroke: #cccccc; stroke-opacity: 0.3; stroke-width: 0.5; stroke-linecap: round"/>
     </g>
     <g id="line2d_22">
      <g>
       <use xlink:href="#m9cfe082b97" x="39.632812" y="47.952381" style="fill: #262626; stroke: #262626; stroke-width: 0.8"/>
      </g>
     </g>
     <g id="text_12">
      <!-- 0.8 -->
      <g style="fill: #262626" transform="translate(19.910312 50.991756) scale(0.08 -0.08)">
       <defs>
        <path id="DejaVuSans-38" d="M 2034 2216 
Q 1584 2216 1326 1975 
Q 1069 1734 1069 1313 
Q 1069 891 1326 650 
Q 1584 409 2034 409 
Q 2484 409 2743 651 
Q 3003 894 3003 1313 
Q 3003 1734 2745 1975 
Q 2488 2216 2034 2216 
z
M 1403 2484 
Q 997 2584 770 2862 
Q 544 3141 544 3541 
Q 544 4100 942 4425 
Q 1341 4750 2034 4750 
Q 2731 4750 3128 4425 
Q 3525 4100 3525 3541 
Q 3525 3141 3298 2862 
Q 3072 2584 2669 2484 
Q 3125 2378 3379 2068 
Q 3634 1759 3634 1313 
Q 3634 634 3220 271 
Q 2806 -91 2034 -91 
Q 1263 -91 848 271 
Q 434 634 434 1313 
Q 434 1759 690 2068 
Q 947 2378 1403 2484 
z
M 1172 3481 
Q 1172 3119 1398 2916 
Q 1625 2713 2034 2713 
Q 2441 2713 2670 2916 
Q 2900 3119 2900 3481 
Q 2900 3844 2670 4047 
Q 2441 4250 2034 4250 
Q 1625 4250 1398 4047 
Q 1172 3844 1172 3481 
z
" transform="scale(0.015625)"/>
       </defs>
       <use xlink:href="#DejaVuSans-30"/>
       <use xlink:href="#DejaVuSans-2e" transform="translate(63.623047 0)"/>
       <use xlink:href="#DejaVuSans-38" transform="translate(95.410156 0)"/>
      </g>
     </g>
    </g>
    <g id="ytick_6">
     <g id="line2d_23">
      <path d="M 39.632812 15.350476 
L 277.902813 15.350476 
" clip-path="url(#p84d30992c6)" style="fill: none; stroke: #cccccc; stroke-opacity: 0.3; stroke-width: 0.5; stroke-linecap: round"/>
     </g>
     <g id="line2d_24">
      <g>
       <use xlink:href="#m9cfe082b97" x="39.632812" y="15.350476" style="fill: #262626; stroke: #262626; stroke-width: 0.8"/>
      </g>
     </g>
     <g id="text_13">
      <!-- 1.0 -->
      <g style="fill: #262626" transform="translate(19.910312 18.389851) scale(0.08 -0.08)">
       <use xlink:href="#DejaVuSans-31"/>
       <use xlink:href="#DejaVuSans-2e" transform="translate(63.623047 0)"/>
       <use xlink:href="#DejaVuSans-30" transform="translate(95.410156 0)"/>
      </g>
     </g>
    </g>
    <g id="text_14">
     <!-- Survival probability -->
     <g style="fill: #262626" transform="translate(14.038594 136.361797) rotate(-90) scale(0.09 -0.09)">
      <defs>
       <path id="DejaVuSans-53" d="M 3425 4513 
L 3425 3897 
Q 3066 4069 2747 4153 
Q 2428 4238 2131 4238 
Q 1616 4238 1336 4038 
Q 1056 3838 1056 3469 
Q 1056 3159 1242 3001 
Q 1428 2844 1947 2747 
L 2328 2669 
Q 3034 2534 3370 2195 
Q 3706 1856 3706 1288 
Q 3706 609 3251 259 
Q 2797 -91 1919 -91 
Q 1588 -91 1214 -16 
Q 841 59 441 206 
L 441 856 
Q 825 641 1194 531 
Q 1563 422 1919 422 
Q 2459 422 2753 634 
Q 3047 847 3047 1241 
Q 3047 1584 2836 1778 
Q 2625 1972 2144 2069 
L 1759 2144 
Q 1053 2284 737 2584 
Q 422 2884 422 3419 
Q 422 4038 858 4394 
Q 1294 4750 2059 4750 
Q 2388 4750 2728 4690 
Q 3069 4631 3425 4513 
z
" transform="scale(0.015625)"/>
       <path id="DejaVuSans-75" d="M 544 1381 
L 544 3500 
L 1119 3500 
L 1119 1403 
Q 1119 906 1312 657 
Q 1506 409 1894 409 
Q 2359 409 2629 706 
Q 2900 1003 2900 1516 
L 2900 3500 
L 3475 3500 
L 3475 0 
L 2900 0 
L 2900 538 
Q 2691 219 2414 64 
Q 2138 -91 1772 -91 
Q 1169 -91 856 284 
Q 544 659 544 1381 
z
M 1991 3584 
L 1991 3584 
z
" transform="scale(0.015625)"/>
       <path id="DejaVuSans-72" d="M 2631 2963 
Q 2534 3019 2420 3045 
Q 2306 3072 2169 3072 
Q 1681 3072 1420 2755 
Q 1159 2438 1159 1844 
L 1159 0 
L 581 0 
L 581 3500 
L 1159 3500 
L 1159 2956 
Q 1341 3275 1631 3429 
Q 1922 3584 2338 3584 
Q 2397 3584 2469 3576 
Q 2541 3569 2628 3553 
L 2631 2963 
z
" transform="scale(0.015625)"/>
       <path id="DejaVuSans-76" d="M 191 3500 
L 800 3500 
L 1894 563 
L 2988 3500 
L 3597 3500 
L 2284 0 
L 1503 0 
L 191 3500 
z
" transform="scale(0.015625)"/>
       <path id="DejaVuSans-6c" d="M 603 4863 
L 1178 4863 
L 1178 0 
L 603 0 
L 603 4863 
z
" transform="scale(0.015625)"/>
       <path id="DejaVuSans-70" d="M 1159 525 
L 1159 -1331 
L 581 -1331 
L 581 3500 
L 1159 3500 
L 1159 2969 
Q 1341 3281 1617 3432 
Q 1894 3584 2278 3584 
Q 2916 3584 3314 3078 
Q 3713 2572 3713 1747 
Q 3713 922 3314 415 
Q 2916 -91 2278 -91 
Q 1894 -91 1617 61 
Q 1341 213 1159 525 
z
M 3116 1747 
Q 3116 2381 2855 2742 
Q 2594 3103 2138 3103 
Q 1681 3103 1420 2742 
Q 1159 2381 1159 1747 
Q 1159 1113 1420 752 
Q 1681 391 2138 391 
Q 2594 391 2855 752 
Q 3116 1113 3116 1747 
z
" transform="scale(0.015625)"/>
       <path id="DejaVuSans-6f" d="M 1959 3097 
Q 1497 3097 1228 2736 
Q 959 2375 959 1747 
Q 959 1119 1226 758 
Q 1494 397 1959 397 
Q 2419 397 2687 759 
Q 2956 1122 2956 1747 
Q 2956 2369 2687 2733 
Q 2419 3097 1959 3097 
z
M 1959 3584 
Q 2709 3584 3137 3096 
Q 3566 2609 3566 1747 
Q 3566 888 3137 398 
Q 2709 -91 1959 -91 
Q 1206 -91 779 398 
Q 353 888 353 1747 
Q 353 2609 779 3096 
Q 1206 3584 1959 3584 
z
" transform="scale(0.015625)"/>
       <path id="DejaVuSans-62" d="M 3116 1747 
Q 3116 2381 2855 2742 
Q 2594 3103 2138 3103 
Q 1681 3103 1420 2742 
Q 1159 2381 1159 1747 
Q 1159 1113 1420 752 
Q 1681 391 2138 391 
Q 2594 391 2855 752 
Q 3116 1113 3116 1747 
z
M 1159 2969 
Q 1341 3281 1617 3432 
Q 1894 3584 2278 3584 
Q 2916 3584 3314 3078 
Q 3713 2572 3713 1747 
Q 3713 922 3314 415 
Q 2916 -91 2278 -91 
Q 1894 -91 1617 61 
Q 1341 213 1159 525 
L 1159 0 
L 581 0 
L 581 4863 
L 1159 4863 
L 1159 2969 
z
" transform="scale(0.015625)"/>
       <path id="DejaVuSans-74" d="M 1172 4494 
L 1172 3500 
L 2356 3500 
L 2356 3053 
L 1172 3053 
L 1172 1153 
Q 1172 725 1289 603 
Q 1406 481 1766 481 
L 2356 481 
L 2356 0 
L 1766 0 
Q 1100 0 847 248 
Q 594 497 594 1153 
L 594 3053 
L 172 3053 
L 172 3500 
L 594 3500 
L 594 4494 
L 1172 4494 
z
" transform="scale(0.015625)"/>
      </defs>
      <use xlink:href="#DejaVuSans-53"/>
      <use xlink:href="#DejaVuSans-75" transform="translate(63.476562 0)"/>
      <use xlink:href="#DejaVuSans-72" transform="translate(126.855469 0)"/>
      <use xlink:href="#DejaVuSans-76" transform="translate(167.96875 0)"/>
      <use xlink:href="#DejaVuSans-69" transform="translate(227.148438 0)"/>
      <use xlink:href="#DejaVuSans-76" transform="translate(254.931641 0)"/>
      <use xlink:href="#DejaVuSans-61" transform="translate(314.111328 0)"/>
      <use xlink:href="#DejaVuSans-6c" transform="translate(375.390625 0)"/>
      <use xlink:href="#DejaVuSans-20" transform="translate(403.173828 0)"/>
      <use xlink:href="#DejaVuSans-70" transform="translate(434.960938 0)"/>
      <use xlink:href="#DejaVuSans-72" transform="translate(498.4375 0)"/>
      <use xlink:href="#DejaVuSans-6f" transform="translate(537.300781 0)"/>
      <use xlink:href="#DejaVuSans-62" transform="translate(598.482422 0)"/>
      <use xlink:href="#DejaVuSans-61" transform="translate(661.958984 0)"/>
      <use xlink:href="#DejaVuSans-62" transform="translate(723.238281 0)"/>
      <use xlink:href="#DejaVuSans-69" transform="translate(786.714844 0)"/>
      <use xlink:href="#DejaVuSans-6c" transform="translate(814.498047 0)"/>
      <use xlink:href="#DejaVuSans-69" transform="translate(842.28125 0)"/>
      <use xlink:href="#DejaVuSans-74" transform="translate(870.064453 0)"/>
      <use xlink:href="#DejaVuSans-79" transform="translate(909.273438 0)"/>
     </g>
    </g>
   </g>
   <g id="FillBetweenPolyCollection_1">
    <defs>
     <path id="m1320a02a84" d="M 36.758681 -197.662336 
L 36.758681 -197.662336 
L 39.632812 -197.662336 
L 39.632812 -197.662336 
L 40.21662 -197.662336 
L 40.21662 -197.662336 
L 40.306437 -197.662336 
L 40.306437 -197.662336 
L 40.396254 -197.662336 
L 40.396254 -197.662336 
L 40.530979 -197.662336 
L 40.530979 -197.662336 
L 40.890245 -197.662336 
L 40.890245 -197.662336 
L 42.102769 -197.662336 
L 42.102769 -197.662336 
L 42.282403 -197.662336 
L 42.282403 -197.662336 
L 42.417127 -197.662336 
L 42.417127 -191.849229 
L 42.506944 -191.849229 
L 42.506944 -191.849229 
L 42.551852 -191.849229 
L 42.551852 -191.078849 
L 42.641669 -191.078849 
L 42.641669 -191.078849 
L 42.686577 -191.078849 
L 42.686577 -191.078849 
L 43.270385 -191.078849 
L 43.270385 -189.97097 
L 43.315294 -189.97097 
L 43.315294 -189.97097 
L 43.40511 -189.97097 
L 43.40511 -189.97097 
L 43.629652 -189.97097 
L 43.629652 -189.97097 
L 44.348185 -189.97097 
L 44.348185 -189.97097 
L 44.393093 -189.97097 
L 44.393093 -188.787155 
L 46.32415 -188.787155 
L 46.32415 -187.620898 
L 46.548692 -187.620898 
L 46.548692 -186.474078 
L 46.728325 -186.474078 
L 46.728325 -186.474078 
L 48.120482 -186.474078 
L 48.120482 -186.474078 
L 48.614474 -186.474078 
L 48.614474 -185.32544 
L 48.839015 -185.32544 
L 48.839015 -184.195024 
L 49.51264 -184.195024 
L 49.51264 -183.080364 
L 49.692273 -183.080364 
L 49.692273 -183.080364 
L 50.276081 -183.080364 
L 50.276081 -181.970408 
L 50.904797 -181.970408 
L 50.904797 -180.873225 
L 51.039522 -180.873225 
L 51.039522 -179.787374 
L 51.264064 -179.787374 
L 51.264064 -178.711678 
L 51.89278 -178.711678 
L 51.89278 -177.645162 
L 52.027505 -177.645162 
L 52.027505 -177.645162 
L 52.790946 -177.645162 
L 52.790946 -177.645162 
L 54.452554 -177.645162 
L 54.452554 -177.645162 
L 54.54237 -177.645162 
L 54.54237 -176.561494 
L 54.587278 -176.561494 
L 54.587278 -176.561494 
L 55.126178 -176.561494 
L 55.126178 -176.561494 
L 55.620169 -176.561494 
L 55.620169 -175.460127 
L 55.844711 -175.460127 
L 55.844711 -175.460127 
L 56.024344 -175.460127 
L 56.024344 -175.460127 
L 56.159069 -175.460127 
L 56.159069 -175.460127 
L 56.203977 -175.460127 
L 56.203977 -175.460127 
L 56.248886 -175.460127 
L 56.248886 -173.192578 
L 56.338702 -173.192578 
L 56.338702 -173.192578 
L 56.383611 -173.192578 
L 56.383611 -173.192578 
L 56.518336 -173.192578 
L 56.518336 -173.192578 
L 56.563244 -173.192578 
L 56.563244 -173.192578 
L 56.653061 -173.192578 
L 56.653061 -173.192578 
L 56.787785 -173.192578 
L 56.787785 -173.192578 
L 56.832694 -173.192578 
L 56.832694 -173.192578 
L 56.877602 -173.192578 
L 56.877602 -173.192578 
L 57.102144 -173.192578 
L 57.102144 -173.192578 
L 57.281777 -173.192578 
L 57.281777 -171.959468 
L 57.506318 -171.959468 
L 57.506318 -171.959468 
L 57.551227 -171.959468 
L 57.551227 -171.959468 
L 57.596135 -171.959468 
L 57.596135 -170.704138 
L 58.045218 -170.704138 
L 58.045218 -170.704138 
L 58.179943 -170.704138 
L 58.179943 -169.449142 
L 58.26976 -169.449142 
L 58.26976 -169.449142 
L 58.853568 -169.449142 
L 58.853568 -169.449142 
L 59.976275 -169.449142 
L 59.976275 -168.169359 
L 60.066092 -168.169359 
L 60.066092 -166.900977 
L 60.155908 -166.900977 
L 60.155908 -166.900977 
L 60.560083 -166.900977 
L 60.560083 -166.900977 
L 60.694808 -166.900977 
L 60.694808 -166.900977 
L 60.91935 -166.900977 
L 60.91935 -166.900977 
L 61.188799 -166.900977 
L 61.188799 -166.900977 
L 61.233708 -166.900977 
L 61.233708 -166.900977 
L 61.368433 -166.900977 
L 61.368433 -166.900977 
L 61.413341 -166.900977 
L 61.413341 -166.900977 
L 61.682791 -166.900977 
L 61.682791 -166.900977 
L 62.22169 -166.900977 
L 62.22169 -166.900977 
L 62.401324 -166.900977 
L 62.401324 -166.900977 
L 62.446232 -166.900977 
L 62.446232 -166.900977 
L 62.625865 -166.900977 
L 62.625865 -166.900977 
L 63.074948 -166.900977 
L 63.074948 -166.900977 
L 63.164765 -166.900977 
L 63.164765 -166.900977 
L 63.703665 -166.900977 
L 63.703665 -166.900977 
L 63.83839 -166.900977 
L 63.83839 -166.900977 
L 63.883298 -166.900977 
L 63.883298 -166.900977 
L 64.062931 -166.900977 
L 64.062931 -165.346204 
L 64.152748 -165.346204 
L 64.152748 -165.346204 
L 64.197656 -165.346204 
L 64.197656 -163.793572 
L 64.781464 -163.793572 
L 64.781464 -163.793572 
L 64.871281 -163.793572 
L 64.871281 -163.793572 
L 65.320364 -163.793572 
L 65.320364 -163.793572 
L 65.365272 -163.793572 
L 65.365272 -163.793572 
L 65.634722 -163.793572 
L 65.634722 -162.183869 
L 65.724538 -162.183869 
L 65.724538 -162.183869 
L 66.263438 -162.183869 
L 66.263438 -160.574015 
L 66.667613 -160.574015 
L 66.667613 -158.982602 
L 67.026879 -158.982602 
L 67.026879 -158.982602 
L 67.116696 -158.982602 
L 67.116696 -157.387764 
L 67.386146 -157.387764 
L 67.386146 -157.387764 
L 68.05977 -157.387764 
L 68.05977 -157.387764 
L 68.194495 -157.387764 
L 68.194495 -157.387764 
L 68.284312 -157.387764 
L 68.284312 -157.387764 
L 68.374128 -157.387764 
L 68.374128 -157.387764 
L 68.419037 -157.387764 
L 68.419037 -157.387764 
L 68.463945 -157.387764 
L 68.463945 -157.387764 
L 68.643578 -157.387764 
L 68.643578 -157.387764 
L 68.733395 -157.387764 
L 68.733395 -157.387764 
L 68.778303 -157.387764 
L 68.778303 -157.387764 
L 68.86812 -157.387764 
L 68.86812 -155.57907 
L 69.496836 -155.57907 
L 69.496836 -153.793168 
L 70.395002 -153.793168 
L 70.395002 -152.001695 
L 70.664452 -152.001695 
L 70.664452 -152.001695 
L 70.888994 -152.001695 
L 70.888994 -150.20309 
L 71.023719 -150.20309 
L 71.023719 -150.20309 
L 71.068627 -150.20309 
L 71.068627 -150.20309 
L 71.607526 -150.20309 
L 71.607526 -148.367643 
L 72.595509 -148.367643 
L 72.595509 -146.551375 
L 73.314042 -146.551375 
L 73.314042 -146.551375 
L 73.673309 -146.551375 
L 73.673309 -146.551375 
L 74.346933 -146.551375 
L 74.346933 -146.551375 
L 75.065466 -146.551375 
L 75.065466 -146.551375 
L 75.334916 -146.551375 
L 75.334916 -144.631264 
L 75.469641 -144.631264 
L 75.469641 -144.631264 
L 75.514549 -144.631264 
L 75.514549 -144.631264 
L 76.098357 -144.631264 
L 76.098357 -144.631264 
L 76.143265 -144.631264 
L 76.143265 -144.631264 
L 76.457624 -144.631264 
L 76.457624 -144.631264 
L 76.996523 -144.631264 
L 76.996523 -144.631264 
L 77.445606 -144.631264 
L 77.445606 -144.631264 
L 77.849781 -144.631264 
L 77.849781 -144.631264 
L 78.433589 -144.631264 
L 78.433589 -144.631264 
L 78.837764 -144.631264 
L 78.837764 -144.631264 
L 79.915563 -144.631264 
L 79.915563 -144.631264 
L 80.319738 -144.631264 
L 80.319738 -144.631264 
L 80.993362 -144.631264 
L 80.993362 -144.631264 
L 81.891529 -144.631264 
L 81.891529 -142.203146 
L 82.071162 -142.203146 
L 82.071162 -142.203146 
L 84.675844 -142.203146 
L 84.675844 -142.203146 
L 84.720752 -142.203146 
L 84.720752 -139.710034 
L 86.696717 -139.710034 
L 86.696717 -139.710034 
L 88.582866 -139.710034 
L 88.582866 -139.710034 
L 88.762499 -139.710034 
L 88.762499 -139.710034 
L 89.391216 -139.710034 
L 89.391216 -139.710034 
L 89.705574 -139.710034 
L 89.705574 -139.710034 
L 92.669522 -139.710034 
L 92.669522 -139.710034 
L 92.894064 -139.710034 
L 92.894064 -139.710034 
L 94.376038 -139.710034 
L 94.376038 -139.710034 
L 100.259026 -139.710034 
L 100.259026 -139.710034 
L 101.157192 -139.710034 
L 101.157192 -139.710034 
L 103.537332 -139.710034 
L 103.537332 -136.567444 
L 104.92949 -136.567444 
L 104.92949 -136.567444 
L 104.974398 -136.567444 
L 104.974398 -136.567444 
L 105.198939 -136.567444 
L 105.198939 -136.567444 
L 106.052197 -136.567444 
L 106.052197 -136.567444 
L 108.297613 -136.567444 
L 108.297613 -136.567444 
L 108.701787 -136.567444 
L 108.701787 -136.567444 
L 108.881421 -136.567444 
L 108.881421 -136.567444 
L 110.677753 -136.567444 
L 110.677753 -136.567444 
L 112.429177 -136.567444 
L 112.429177 -136.567444 
L 113.237526 -136.567444 
L 113.237526 -136.567444 
L 113.686609 -136.567444 
L 113.686609 -136.567444 
L 116.605649 -136.567444 
L 116.605649 -136.567444 
L 118.71634 -136.567444 
L 118.71634 -136.567444 
L 119.839047 -136.567444 
L 119.839047 -136.567444 
L 120.108497 -136.567444 
L 120.108497 -136.567444 
L 120.647397 -136.567444 
L 120.647397 -131.423859 
L 120.737213 -131.423859 
L 120.737213 -131.423859 
L 121.815013 -131.423859 
L 121.815013 -131.423859 
L 122.488637 -131.423859 
L 122.488637 -131.423859 
L 124.240061 -131.423859 
L 124.240061 -131.423859 
L 125.497494 -131.423859 
L 125.497494 -131.423859 
L 127.069285 -131.423859 
L 127.069285 -131.423859 
L 127.159101 -131.423859 
L 127.159101 -131.423859 
L 127.293826 -131.423859 
L 127.293826 -131.423859 
L 129.808691 -131.423859 
L 129.808691 -131.423859 
L 130.661949 -131.423859 
L 130.661949 -131.423859 
L 131.42539 -131.423859 
L 131.42539 -131.423859 
L 131.649932 -131.423859 
L 131.649932 -131.423859 
L 134.34443 -131.423859 
L 134.34443 -131.423859 
L 142.607559 -131.423859 
L 142.607559 -131.423859 
L 144.269166 -131.423859 
L 144.269166 -131.423859 
L 145.257149 -131.423859 
L 145.257149 -131.423859 
L 146.514581 -131.423859 
L 146.514581 -131.423859 
L 148.445638 -131.423859 
L 148.445638 -131.423859 
L 157.517116 -131.423859 
L 157.517116 -131.423859 
L 158.909274 -131.423859 
L 158.909274 -131.423859 
L 161.019964 -131.423859 
L 161.019964 -131.423859 
L 164.926987 -131.423859 
L 164.926987 -131.423859 
L 168.429835 -131.423859 
L 168.429835 -131.423859 
L 169.238184 -131.423859 
L 169.238184 -131.423859 
L 172.741032 -131.423859 
L 172.741032 -131.423859 
L 174.851722 -131.423859 
L 174.851722 -131.423859 
L 190.704354 -131.423859 
L 190.704354 -131.423859 
L 193.21922 -131.423859 
L 193.21922 -131.423859 
L 211.047817 -131.423859 
L 211.047817 -131.423859 
L 262.692369 -131.423859 
L 262.692369 -131.423859 
L 266.015584 -131.423859 
L 266.015584 -131.423859 
L 266.015584 -160.853527 
L 266.015584 -160.853527 
L 266.015584 -160.853527 
L 262.692369 -160.853527 
L 262.692369 -160.853527 
L 211.047817 -160.853527 
L 211.047817 -160.853527 
L 193.21922 -160.853527 
L 193.21922 -160.853527 
L 190.704354 -160.853527 
L 190.704354 -160.853527 
L 174.851722 -160.853527 
L 174.851722 -160.853527 
L 172.741032 -160.853527 
L 172.741032 -160.853527 
L 169.238184 -160.853527 
L 169.238184 -160.853527 
L 168.429835 -160.853527 
L 168.429835 -160.853527 
L 164.926987 -160.853527 
L 164.926987 -160.853527 
L 161.019964 -160.853527 
L 161.019964 -160.853527 
L 158.909274 -160.853527 
L 158.909274 -160.853527 
L 157.517116 -160.853527 
L 157.517116 -160.853527 
L 148.445638 -160.853527 
L 148.445638 -160.853527 
L 146.514581 -160.853527 
L 146.514581 -160.853527 
L 145.257149 -160.853527 
L 145.257149 -160.853527 
L 144.269166 -160.853527 
L 144.269166 -160.853527 
L 142.607559 -160.853527 
L 142.607559 -160.853527 
L 134.34443 -160.853527 
L 134.34443 -160.853527 
L 131.649932 -160.853527 
L 131.649932 -160.853527 
L 131.42539 -160.853527 
L 131.42539 -160.853527 
L 130.661949 -160.853527 
L 130.661949 -160.853527 
L 129.808691 -160.853527 
L 129.808691 -160.853527 
L 127.293826 -160.853527 
L 127.293826 -160.853527 
L 127.159101 -160.853527 
L 127.159101 -160.853527 
L 127.069285 -160.853527 
L 127.069285 -160.853527 
L 125.497494 -160.853527 
L 125.497494 -160.853527 
L 124.240061 -160.853527 
L 124.240061 -160.853527 
L 122.488637 -160.853527 
L 122.488637 -160.853527 
L 121.815013 -160.853527 
L 121.815013 -160.853527 
L 120.737213 -160.853527 
L 120.737213 -160.853527 
L 120.647397 -160.853527 
L 120.647397 -163.27726 
L 120.108497 -163.27726 
L 120.108497 -163.27726 
L 119.839047 -163.27726 
L 119.839047 -163.27726 
L 118.71634 -163.27726 
L 118.71634 -163.27726 
L 116.605649 -163.27726 
L 116.605649 -163.27726 
L 113.686609 -163.27726 
L 113.686609 -163.27726 
L 113.237526 -163.27726 
L 113.237526 -163.27726 
L 112.429177 -163.27726 
L 112.429177 -163.27726 
L 110.677753 -163.27726 
L 110.677753 -163.27726 
L 108.881421 -163.27726 
L 108.881421 -163.27726 
L 108.701787 -163.27726 
L 108.701787 -163.27726 
L 108.297613 -163.27726 
L 108.297613 -163.27726 
L 106.052197 -163.27726 
L 106.052197 -163.27726 
L 105.198939 -163.27726 
L 105.198939 -163.27726 
L 104.974398 -163.27726 
L 104.974398 -163.27726 
L 104.92949 -163.27726 
L 104.92949 -163.27726 
L 103.537332 -163.27726 
L 103.537332 -165.167082 
L 101.157192 -165.167082 
L 101.157192 -165.167082 
L 100.259026 -165.167082 
L 100.259026 -165.167082 
L 94.376038 -165.167082 
L 94.376038 -165.167082 
L 92.894064 -165.167082 
L 92.894064 -165.167082 
L 92.669522 -165.167082 
L 92.669522 -165.167082 
L 89.705574 -165.167082 
L 89.705574 -165.167082 
L 89.391216 -165.167082 
L 89.391216 -165.167082 
L 88.762499 -165.167082 
L 88.762499 -165.167082 
L 88.582866 -165.167082 
L 88.582866 -165.167082 
L 86.696717 -165.167082 
L 86.696717 -165.167082 
L 84.720752 -165.167082 
L 84.720752 -166.802383 
L 84.675844 -166.802383 
L 84.675844 -166.802383 
L 82.071162 -166.802383 
L 82.071162 -166.802383 
L 81.891529 -166.802383 
L 81.891529 -168.375744 
L 80.993362 -168.375744 
L 80.993362 -168.375744 
L 80.319738 -168.375744 
L 80.319738 -168.375744 
L 79.915563 -168.375744 
L 79.915563 -168.375744 
L 78.837764 -168.375744 
L 78.837764 -168.375744 
L 78.433589 -168.375744 
L 78.433589 -168.375744 
L 77.849781 -168.375744 
L 77.849781 -168.375744 
L 77.445606 -168.375744 
L 77.445606 -168.375744 
L 76.996523 -168.375744 
L 76.996523 -168.375744 
L 76.457624 -168.375744 
L 76.457624 -168.375744 
L 76.143265 -168.375744 
L 76.143265 -168.375744 
L 76.098357 -168.375744 
L 76.098357 -168.375744 
L 75.514549 -168.375744 
L 75.514549 -168.375744 
L 75.469641 -168.375744 
L 75.469641 -168.375744 
L 75.334916 -168.375744 
L 75.334916 -169.730414 
L 75.065466 -169.730414 
L 75.065466 -169.730414 
L 74.346933 -169.730414 
L 74.346933 -169.730414 
L 73.673309 -169.730414 
L 73.673309 -169.730414 
L 73.314042 -169.730414 
L 73.314042 -169.730414 
L 72.595509 -169.730414 
L 72.595509 -171.021671 
L 71.607526 -171.021671 
L 71.607526 -172.300979 
L 71.068627 -172.300979 
L 71.068627 -172.300979 
L 71.023719 -172.300979 
L 71.023719 -172.300979 
L 70.888994 -172.300979 
L 70.888994 -173.545248 
L 70.664452 -173.545248 
L 70.664452 -173.545248 
L 70.395002 -173.545248 
L 70.395002 -174.766476 
L 69.496836 -174.766476 
L 69.496836 -175.964804 
L 68.86812 -175.964804 
L 68.86812 -177.14983 
L 68.778303 -177.14983 
L 68.778303 -177.14983 
L 68.733395 -177.14983 
L 68.733395 -177.14983 
L 68.643578 -177.14983 
L 68.643578 -177.14983 
L 68.463945 -177.14983 
L 68.463945 -177.14983 
L 68.419037 -177.14983 
L 68.419037 -177.14983 
L 68.374128 -177.14983 
L 68.374128 -177.14983 
L 68.284312 -177.14983 
L 68.284312 -177.14983 
L 68.194495 -177.14983 
L 68.194495 -177.14983 
L 68.05977 -177.14983 
L 68.05977 -177.14983 
L 67.386146 -177.14983 
L 67.386146 -177.14983 
L 67.116696 -177.14983 
L 67.116696 -178.23367 
L 67.026879 -178.23367 
L 67.026879 -178.23367 
L 66.667613 -178.23367 
L 66.667613 -179.299051 
L 66.263438 -179.299051 
L 66.263438 -180.353397 
L 65.724538 -180.353397 
L 65.724538 -180.353397 
L 65.634722 -180.353397 
L 65.634722 -181.388569 
L 65.365272 -181.388569 
L 65.365272 -181.388569 
L 65.320364 -181.388569 
L 65.320364 -181.388569 
L 64.871281 -181.388569 
L 64.871281 -181.388569 
L 64.781464 -181.388569 
L 64.781464 -181.388569 
L 64.197656 -181.388569 
L 64.197656 -182.384063 
L 64.152748 -182.384063 
L 64.152748 -182.384063 
L 64.062931 -182.384063 
L 64.062931 -183.361208 
L 63.883298 -183.361208 
L 63.883298 -183.361208 
L 63.83839 -183.361208 
L 63.83839 -183.361208 
L 63.703665 -183.361208 
L 63.703665 -183.361208 
L 63.164765 -183.361208 
L 63.164765 -183.361208 
L 63.074948 -183.361208 
L 63.074948 -183.361208 
L 62.625865 -183.361208 
L 62.625865 -183.361208 
L 62.446232 -183.361208 
L 62.446232 -183.361208 
L 62.401324 -183.361208 
L 62.401324 -183.361208 
L 62.22169 -183.361208 
L 62.22169 -183.361208 
L 61.682791 -183.361208 
L 61.682791 -183.361208 
L 61.413341 -183.361208 
L 61.413341 -183.361208 
L 61.368433 -183.361208 
L 61.368433 -183.361208 
L 61.233708 -183.361208 
L 61.233708 -183.361208 
L 61.188799 -183.361208 
L 61.188799 -183.361208 
L 60.91935 -183.361208 
L 60.91935 -183.361208 
L 60.694808 -183.361208 
L 60.694808 -183.361208 
L 60.560083 -183.361208 
L 60.560083 -183.361208 
L 60.155908 -183.361208 
L 60.155908 -183.361208 
L 60.066092 -183.361208 
L 60.066092 -184.215627 
L 59.976275 -184.215627 
L 59.976275 -185.062163 
L 58.853568 -185.062163 
L 58.853568 -185.062163 
L 58.26976 -185.062163 
L 58.26976 -185.062163 
L 58.179943 -185.062163 
L 58.179943 -185.886334 
L 58.045218 -185.886334 
L 58.045218 -185.886334 
L 57.596135 -185.886334 
L 57.596135 -186.69757 
L 57.551227 -186.69757 
L 57.551227 -186.69757 
L 57.506318 -186.69757 
L 57.506318 -186.69757 
L 57.281777 -186.69757 
L 57.281777 -187.487155 
L 57.102144 -187.487155 
L 57.102144 -187.487155 
L 56.877602 -187.487155 
L 56.877602 -187.487155 
L 56.832694 -187.487155 
L 56.832694 -187.487155 
L 56.787785 -187.487155 
L 56.787785 -187.487155 
L 56.653061 -187.487155 
L 56.653061 -187.487155 
L 56.563244 -187.487155 
L 56.563244 -187.487155 
L 56.518336 -187.487155 
L 56.518336 -187.487155 
L 56.383611 -187.487155 
L 56.383611 -187.487155 
L 56.338702 -187.487155 
L 56.338702 -187.487155 
L 56.248886 -187.487155 
L 56.248886 -188.955513 
L 56.203977 -188.955513 
L 56.203977 -188.955513 
L 56.159069 -188.955513 
L 56.159069 -188.955513 
L 56.024344 -188.955513 
L 56.024344 -188.955513 
L 55.844711 -188.955513 
L 55.844711 -188.955513 
L 55.620169 -188.955513 
L 55.620169 -189.660086 
L 55.126178 -189.660086 
L 55.126178 -189.660086 
L 54.587278 -189.660086 
L 54.587278 -189.660086 
L 54.54237 -189.660086 
L 54.54237 -190.346442 
L 54.452554 -190.346442 
L 54.452554 -190.346442 
L 52.790946 -190.346442 
L 52.790946 -190.346442 
L 52.027505 -190.346442 
L 52.027505 -190.346442 
L 51.89278 -190.346442 
L 51.89278 -191.014707 
L 51.264064 -191.014707 
L 51.264064 -191.673513 
L 51.039522 -191.673513 
L 51.039522 -192.321809 
L 50.904797 -192.321809 
L 50.904797 -192.958317 
L 50.276081 -192.958317 
L 50.276081 -193.581453 
L 49.692273 -193.581453 
L 49.692273 -193.581453 
L 49.51264 -193.581453 
L 49.51264 -194.186753 
L 48.839015 -194.186753 
L 48.839015 -194.774349 
L 48.614474 -194.774349 
L 48.614474 -195.340841 
L 48.120482 -195.340841 
L 48.120482 -195.340841 
L 46.728325 -195.340841 
L 46.728325 -195.340841 
L 46.548692 -195.340841 
L 46.548692 -195.877583 
L 46.32415 -195.877583 
L 46.32415 -196.38246 
L 44.393093 -196.38246 
L 44.393093 -196.844998 
L 44.348185 -196.844998 
L 44.348185 -196.844998 
L 43.629652 -196.844998 
L 43.629652 -196.844998 
L 43.40511 -196.844998 
L 43.40511 -196.844998 
L 43.315294 -196.844998 
L 43.315294 -196.844998 
L 43.270385 -196.844998 
L 43.270385 -197.242578 
L 42.686577 -197.242578 
L 42.686577 -197.242578 
L 42.641669 -197.242578 
L 42.641669 -197.242578 
L 42.551852 -197.242578 
L 42.551852 -197.544925 
L 42.506944 -197.544925 
L 42.506944 -197.544925 
L 42.417127 -197.544925 
L 42.417127 -197.662336 
L 42.282403 -197.662336 
L 42.282403 -197.662336 
L 42.102769 -197.662336 
L 42.102769 -197.662336 
L 40.890245 -197.662336 
L 40.890245 -197.662336 
L 40.530979 -197.662336 
L 40.530979 -197.662336 
L 40.396254 -197.662336 
L 40.396254 -197.662336 
L 40.306437 -197.662336 
L 40.306437 -197.662336 
L 40.21662 -197.662336 
L 40.21662 -197.662336 
L 39.632812 -197.662336 
L 39.632812 -197.662336 
L 36.758681 -197.662336 
z
" style="stroke: #2e86ab; stroke-opacity: 0.2"/>
    </defs>
    <g clip-path="url(#p84d30992c6)">
     <use xlink:href="#m1320a02a84" x="0" y="213.012812" style="fill: #2e86ab; fill-opacity: 0.2; stroke: #2e86ab; stroke-opacity: 0.2"/>
    </g>
   </g>
   <g id="FillBetweenPolyCollection_2">
    <defs>
     <path id="m6640af2e97" d="M 39.632812 -197.265081 
L 39.632812 -191.425821 
L 40.48607 -191.425821 
L 40.48607 -190.413726 
L 40.530979 -190.413726 
L 40.530979 -189.364427 
L 41.204603 -189.364427 
L 41.204603 -189.364427 
L 41.29442 -189.364427 
L 41.29442 -189.364427 
L 41.698595 -189.364427 
L 41.698595 -189.364427 
L 42.147678 -189.364427 
L 42.147678 -187.230334 
L 42.192586 -187.230334 
L 42.192586 -186.186372 
L 42.686577 -186.186372 
L 42.686577 -185.156471 
L 42.731486 -185.156471 
L 42.731486 -184.139227 
L 43.045844 -184.139227 
L 43.045844 -183.13334 
L 43.584743 -183.13334 
L 43.584743 -182.137667 
L 43.67456 -182.137667 
L 43.67456 -181.151224 
L 43.809285 -181.151224 
L 43.809285 -180.173166 
L 43.899102 -180.173166 
L 43.899102 -180.173166 
L 44.033827 -180.173166 
L 44.033827 -179.195791 
L 44.078735 -179.195791 
L 44.078735 -178.225726 
L 44.572726 -178.225726 
L 44.572726 -178.225726 
L 44.887084 -178.225726 
L 44.887084 -178.225726 
L 44.931993 -178.225726 
L 44.931993 -177.248503 
L 45.111626 -177.248503 
L 45.111626 -176.277962 
L 45.381076 -176.277962 
L 45.381076 -175.313589 
L 45.425984 -175.313589 
L 45.425984 -175.313589 
L 45.515801 -175.313589 
L 45.515801 -174.348055 
L 46.009792 -174.348055 
L 46.009792 -173.388045 
L 46.099609 -173.388045 
L 46.099609 -172.433194 
L 46.189425 -172.433194 
L 46.189425 -171.483178 
L 46.548692 -171.483178 
L 46.548692 -170.537711 
L 46.952866 -170.537711 
L 46.952866 -169.596538 
L 47.177408 -169.596538 
L 47.177408 -167.712776 
L 47.401949 -167.712776 
L 47.401949 -166.776679 
L 47.806124 -166.776679 
L 47.806124 -165.844191 
L 48.030666 -165.844191 
L 48.030666 -165.844191 
L 48.210299 -165.844191 
L 48.210299 -164.908347 
L 48.614474 -164.908347 
L 48.614474 -163.975908 
L 48.883924 -163.975908 
L 48.883924 -163.04673 
L 49.108465 -163.04673 
L 49.108465 -162.120677 
L 49.198282 -162.120677 
L 49.198282 -161.197628 
L 49.333007 -161.197628 
L 49.333007 -160.277468 
L 49.647365 -160.277468 
L 49.647365 -159.360094 
L 50.05154 -159.360094 
L 50.05154 -157.53332 
L 50.680256 -157.53332 
L 50.680256 -156.623747 
L 50.770072 -156.623747 
L 50.770072 -155.716611 
L 50.859889 -155.716611 
L 50.859889 -154.811839 
L 50.904797 -154.811839 
L 50.904797 -154.811839 
L 50.994614 -154.811839 
L 50.994614 -153.902424 
L 51.039522 -153.902424 
L 51.039522 -152.995316 
L 51.219155 -152.995316 
L 51.219155 -152.090453 
L 51.35388 -152.090453 
L 51.35388 -151.187775 
L 51.398789 -151.187775 
L 51.398789 -150.287225 
L 51.847872 -150.287225 
L 51.847872 -148.492304 
L 51.937688 -148.492304 
L 51.937688 -147.597836 
L 52.117322 -147.597836 
L 52.117322 -146.705303 
L 52.835855 -146.705303 
L 52.835855 -144.92588 
L 53.240029 -144.92588 
L 53.240029 -144.038914 
L 53.599296 -144.038914 
L 53.599296 -143.153729 
L 54.048379 -143.153729 
L 54.048379 -142.270294 
L 54.183104 -142.270294 
L 54.183104 -140.508544 
L 54.362737 -140.508544 
L 54.362737 -139.630172 
L 54.407645 -139.630172 
L 54.407645 -138.753432 
L 54.766912 -138.753432 
L 54.766912 -138.753432 
L 54.901637 -138.753432 
L 54.901637 -137.870818 
L 55.08127 -137.870818 
L 55.08127 -136.110484 
L 55.754894 -136.110484 
L 55.754894 -136.110484 
L 55.844711 -136.110484 
L 55.844711 -136.110484 
L 55.889619 -136.110484 
L 55.889619 -135.217155 
L 55.979436 -135.217155 
L 55.979436 -134.325512 
L 56.069253 -134.325512 
L 56.069253 -134.325512 
L 56.338702 -134.325512 
L 56.338702 -134.325512 
L 56.92251 -134.325512 
L 56.92251 -132.498127 
L 56.967419 -132.498127 
L 56.967419 -131.587149 
L 57.057235 -131.587149 
L 57.057235 -130.677945 
L 57.19196 -130.677945 
L 57.19196 -129.77049 
L 57.326685 -129.77049 
L 57.326685 -129.77049 
L 57.865585 -129.77049 
L 57.865585 -128.856022 
L 57.955401 -128.856022 
L 57.955401 -127.943321 
L 58.179943 -127.943321 
L 58.179943 -126.123132 
L 58.26976 -126.123132 
L 58.26976 -125.2156 
L 58.314668 -125.2156 
L 58.314668 -125.2156 
L 58.404484 -125.2156 
L 58.404484 -124.291225 
L 58.718843 -124.291225 
L 58.718843 -124.291225 
L 59.078109 -124.291225 
L 59.078109 -124.291225 
L 59.123017 -124.291225 
L 59.123017 -123.349247 
L 59.257742 -123.349247 
L 59.257742 -122.4092 
L 60.021183 -122.4092 
L 60.021183 -121.471061 
L 60.066092 -121.471061 
L 60.066092 -121.471061 
L 60.290633 -121.471061 
L 60.290633 -120.524604 
L 60.604991 -120.524604 
L 60.604991 -118.616594 
L 60.91935 -118.616594 
L 60.91935 -117.654698 
L 60.964258 -117.654698 
L 60.964258 -117.654698 
L 61.054075 -117.654698 
L 61.054075 -117.654698 
L 61.458249 -117.654698 
L 61.458249 -116.672185 
L 61.727699 -116.672185 
L 61.727699 -115.691888 
L 61.862424 -115.691888 
L 61.862424 -114.713781 
L 62.446232 -114.713781 
L 62.446232 -113.71355 
L 62.536049 -113.71355 
L 62.536049 -111.720124 
L 63.074948 -111.720124 
L 63.074948 -110.72688 
L 63.434215 -110.72688 
L 63.434215 -109.735919 
L 63.613848 -109.735919 
L 63.613848 -108.747222 
L 63.703665 -108.747222 
L 63.703665 -107.76077 
L 63.83839 -107.76077 
L 63.83839 -106.776545 
L 63.973114 -106.776545 
L 63.973114 -106.776545 
L 64.062931 -106.776545 
L 64.062931 -105.781048 
L 64.197656 -105.781048 
L 64.197656 -104.787866 
L 64.332381 -104.787866 
L 64.332381 -103.796981 
L 65.006005 -103.796981 
L 65.006005 -101.822055 
L 65.320364 -101.822055 
L 65.320364 -101.822055 
L 65.455089 -101.822055 
L 65.455089 -100.823454 
L 65.544905 -100.823454 
L 65.544905 -99.827233 
L 65.589813 -99.827233 
L 65.589813 -99.827233 
L 65.67963 -99.827233 
L 65.67963 -99.827233 
L 65.769447 -99.827233 
L 65.769447 -99.827233 
L 66.038897 -99.827233 
L 66.038897 -99.827233 
L 66.128713 -99.827233 
L 66.128713 -98.752123 
L 66.532888 -98.752123 
L 66.532888 -97.66214 
L 66.712521 -97.66214 
L 66.712521 -97.66214 
L 67.251421 -97.66214 
L 67.251421 -96.556644 
L 67.341237 -96.556644 
L 67.341237 -95.454663 
L 67.610687 -95.454663 
L 67.610687 -94.356173 
L 67.925045 -94.356173 
L 67.925045 -93.261154 
L 69.901011 -93.261154 
L 69.901011 -92.169589 
L 70.170461 -92.169589 
L 70.170461 -91.081465 
L 70.619544 -91.081465 
L 70.619544 -89.99677 
L 71.338077 -89.99677 
L 71.338077 -88.915498 
L 71.921885 -88.915498 
L 71.921885 -87.837643 
L 72.460784 -87.837643 
L 72.460784 -87.837643 
L 72.820051 -87.837643 
L 72.820051 -86.741351 
L 73.808033 -86.741351 
L 73.808033 -86.741351 
L 74.571475 -86.741351 
L 74.571475 -85.62567 
L 74.796016 -85.62567 
L 74.796016 -85.62567 
L 76.412715 -85.62567 
L 76.412715 -84.489559 
L 76.592348 -84.489559 
L 76.592348 -83.357723 
L 76.996523 -83.357723 
L 76.996523 -83.357723 
L 77.131248 -83.357723 
L 77.131248 -82.203912 
L 77.35579 -82.203912 
L 77.35579 -82.203912 
L 78.209047 -82.203912 
L 78.209047 -81.026829 
L 78.433589 -81.026829 
L 78.433589 -79.854803 
L 79.46648 -79.854803 
L 79.46648 -79.854803 
L 79.73593 -79.854803 
L 79.73593 -79.854803 
L 80.00538 -79.854803 
L 80.00538 -79.854803 
L 80.229921 -79.854803 
L 80.229921 -78.592194 
L 82.250795 -78.592194 
L 82.250795 -77.336253 
L 83.373503 -77.336253 
L 83.373503 -76.086977 
L 84.406394 -76.086977 
L 84.406394 -76.086977 
L 84.76566 -76.086977 
L 84.76566 -74.806966 
L 84.900385 -74.806966 
L 84.900385 -73.534362 
L 85.84346 -73.534362 
L 85.84346 -73.534362 
L 86.157818 -73.534362 
L 86.157818 -72.227856 
L 87.41525 -72.227856 
L 87.41525 -70.929674 
L 87.774517 -70.929674 
L 87.774517 -70.929674 
L 87.999058 -70.929674 
L 87.999058 -69.593807 
L 89.481032 -69.593807 
L 89.481032 -69.593807 
L 90.244474 -69.593807 
L 90.244474 -69.593807 
L 91.861173 -69.593807 
L 91.861173 -68.162538 
L 92.355164 -68.162538 
L 92.355164 -68.162538 
L 96.666361 -68.162538 
L 96.666361 -66.683417 
L 99.181226 -66.683417 
L 99.181226 -66.683417 
L 100.169209 -66.683417 
L 100.169209 -65.151433 
L 101.022467 -65.151433 
L 101.022467 -63.635933 
L 103.402607 -63.635933 
L 103.402607 -62.137001 
L 107.983254 -62.137001 
L 107.983254 -62.137001 
L 109.510137 -62.137001 
L 109.510137 -60.574592 
L 109.734678 -60.574592 
L 109.734678 -60.574592 
L 111.665736 -60.574592 
L 111.665736 -60.574592 
L 114.629684 -60.574592 
L 114.629684 -58.837318 
L 116.336199 -58.837318 
L 116.336199 -58.837318 
L 116.785282 -58.837318 
L 116.785282 -57.009421 
L 123.566437 -57.009421 
L 123.566437 -55.218716 
L 128.147084 -55.218716 
L 128.147084 -53.465585 
L 129.8536 -53.465585 
L 129.8536 -53.465585 
L 130.347591 -53.465585 
L 130.347591 -51.5935 
L 130.527224 -51.5935 
L 130.527224 -51.5935 
L 135.691679 -51.5935 
L 135.691679 -51.5935 
L 137.398195 -51.5935 
L 137.398195 -51.5935 
L 143.460816 -51.5935 
L 143.460816 -51.5935 
L 158.235649 -51.5935 
L 158.235649 -48.175175 
L 166.633502 -48.175175 
L 166.633502 -45.085872 
L 172.291949 -45.085872 
L 172.291949 -42.311111 
L 182.575951 -42.311111 
L 182.575951 -39.85735 
L 193.758119 -39.85735 
L 193.758119 -39.85735 
L 211.856167 -39.85735 
L 211.856167 -39.85735 
L 218.412779 -39.85735 
L 218.412779 -39.85735 
L 266.419759 -39.85735 
L 266.419759 -39.85735 
L 266.419759 -61.601411 
L 266.419759 -61.601411 
L 266.419759 -61.601411 
L 218.412779 -61.601411 
L 218.412779 -61.601411 
L 211.856167 -61.601411 
L 211.856167 -61.601411 
L 193.758119 -61.601411 
L 193.758119 -61.601411 
L 182.575951 -61.601411 
L 182.575951 -65.029394 
L 172.291949 -65.029394 
L 172.291949 -68.211041 
L 166.633502 -68.211041 
L 166.633502 -71.148822 
L 158.235649 -71.148822 
L 158.235649 -73.827555 
L 143.460816 -73.827555 
L 143.460816 -73.827555 
L 137.398195 -73.827555 
L 137.398195 -73.827555 
L 135.691679 -73.827555 
L 135.691679 -73.827555 
L 130.527224 -73.827555 
L 130.527224 -73.827555 
L 130.347591 -73.827555 
L 130.347591 -75.900898 
L 129.8536 -75.900898 
L 129.8536 -75.900898 
L 128.147084 -75.900898 
L 128.147084 -77.853326 
L 123.566437 -77.853326 
L 123.566437 -79.775665 
L 116.785282 -79.775665 
L 116.785282 -81.668333 
L 116.336199 -81.668333 
L 116.336199 -81.668333 
L 114.629684 -81.668333 
L 114.629684 -83.469539 
L 111.665736 -83.469539 
L 111.665736 -83.469539 
L 109.734678 -83.469539 
L 109.734678 -83.469539 
L 109.510137 -83.469539 
L 109.510137 -85.138077 
L 107.983254 -85.138077 
L 107.983254 -85.138077 
L 103.402607 -85.138077 
L 103.402607 -86.742294 
L 101.022467 -86.742294 
L 101.022467 -88.333107 
L 100.169209 -88.333107 
L 100.169209 -89.910641 
L 99.181226 -89.910641 
L 99.181226 -89.910641 
L 96.666361 -89.910641 
L 96.666361 -91.434848 
L 92.355164 -91.434848 
L 92.355164 -91.434848 
L 91.861173 -91.434848 
L 91.861173 -92.91079 
L 90.244474 -92.91079 
L 90.244474 -92.91079 
L 89.481032 -92.91079 
L 89.481032 -92.91079 
L 87.999058 -92.91079 
L 87.999058 -94.310083 
L 87.774517 -94.310083 
L 87.774517 -94.310083 
L 87.41525 -94.310083 
L 87.41525 -95.671312 
L 86.157818 -95.671312 
L 86.157818 -97.025704 
L 85.84346 -97.025704 
L 85.84346 -97.025704 
L 84.900385 -97.025704 
L 84.900385 -98.345908 
L 84.76566 -98.345908 
L 84.76566 -99.660027 
L 84.406394 -99.660027 
L 84.406394 -99.660027 
L 83.373503 -99.660027 
L 83.373503 -100.943189 
L 82.250795 -100.943189 
L 82.250795 -102.220875 
L 80.229921 -102.220875 
L 80.229921 -103.493104 
L 80.00538 -103.493104 
L 80.00538 -103.493104 
L 79.73593 -103.493104 
L 79.73593 -103.493104 
L 79.46648 -103.493104 
L 79.46648 -103.493104 
L 78.433589 -103.493104 
L 78.433589 -104.695476 
L 78.209047 -104.695476 
L 78.209047 -105.893636 
L 77.35579 -105.893636 
L 77.35579 -105.893636 
L 77.131248 -105.893636 
L 77.131248 -107.068391 
L 76.996523 -107.068391 
L 76.996523 -107.068391 
L 76.592348 -107.068391 
L 76.592348 -108.221051 
L 76.412715 -108.221051 
L 76.412715 -109.370124 
L 74.796016 -109.370124 
L 74.796016 -109.370124 
L 74.571475 -109.370124 
L 74.571475 -110.498668 
L 73.808033 -110.498668 
L 73.808033 -110.498668 
L 72.820051 -110.498668 
L 72.820051 -111.607733 
L 72.460784 -111.607733 
L 72.460784 -111.607733 
L 71.921885 -111.607733 
L 71.921885 -112.698279 
L 71.338077 -112.698279 
L 71.338077 -113.785917 
L 70.619544 -113.785917 
L 70.619544 -114.870651 
L 70.170461 -114.870651 
L 70.170461 -115.952484 
L 69.901011 -115.952484 
L 69.901011 -117.031418 
L 67.925045 -117.031418 
L 67.925045 -118.107452 
L 67.610687 -118.107452 
L 67.610687 -119.180582 
L 67.341237 -119.180582 
L 67.341237 -120.250802 
L 67.251421 -120.250802 
L 67.251421 -121.318106 
L 66.712521 -121.318106 
L 66.712521 -121.318106 
L 66.532888 -121.318106 
L 66.532888 -122.369762 
L 66.128713 -122.369762 
L 66.128713 -123.406414 
L 66.038897 -123.406414 
L 66.038897 -123.406414 
L 65.769447 -123.406414 
L 65.769447 -123.406414 
L 65.67963 -123.406414 
L 65.67963 -123.406414 
L 65.589813 -123.406414 
L 65.589813 -123.406414 
L 65.544905 -123.406414 
L 65.544905 -124.384085 
L 65.455089 -124.384085 
L 65.455089 -125.359683 
L 65.320364 -125.359683 
L 65.320364 -125.359683 
L 65.006005 -125.359683 
L 65.006005 -127.284225 
L 64.332381 -127.284225 
L 64.332381 -128.24351 
L 64.197656 -128.24351 
L 64.197656 -129.200795 
L 64.062931 -129.200795 
L 64.062931 -130.156074 
L 63.973114 -130.156074 
L 63.973114 -130.156074 
L 63.83839 -130.156074 
L 63.83839 -131.09998 
L 63.703665 -131.09998 
L 63.703665 -132.041946 
L 63.613848 -132.041946 
L 63.613848 -132.981965 
L 63.434215 -132.981965 
L 63.434215 -133.920024 
L 63.074948 -133.920024 
L 63.074948 -134.856114 
L 62.536049 -134.856114 
L 62.536049 -136.722335 
L 62.446232 -136.722335 
L 62.446232 -137.652437 
L 61.862424 -137.652437 
L 61.862424 -138.564169 
L 61.727699 -138.564169 
L 61.727699 -139.474009 
L 61.458249 -139.474009 
L 61.458249 -140.381941 
L 61.054075 -140.381941 
L 61.054075 -140.381941 
L 60.964258 -140.381941 
L 60.964258 -140.381941 
L 60.91935 -140.381941 
L 60.91935 -141.27274 
L 60.604991 -141.27274 
L 60.604991 -143.034302 
L 60.290633 -143.034302 
L 60.290633 -143.905384 
L 60.066092 -143.905384 
L 60.066092 -143.905384 
L 60.021183 -143.905384 
L 60.021183 -144.76788 
L 59.257742 -144.76788 
L 59.257742 -145.628683 
L 59.123017 -145.628683 
L 59.123017 -146.487777 
L 59.078109 -146.487777 
L 59.078109 -146.487777 
L 58.718843 -146.487777 
L 58.718843 -146.487777 
L 58.404484 -146.487777 
L 58.404484 -147.332201 
L 58.314668 -147.332201 
L 58.314668 -147.332201 
L 58.26976 -147.332201 
L 58.26976 -148.162555 
L 58.179943 -148.162555 
L 58.179943 -149.818572 
L 57.955401 -149.818572 
L 57.955401 -150.644201 
L 57.865585 -150.644201 
L 57.865585 -151.46822 
L 57.326685 -151.46822 
L 57.326685 -151.46822 
L 57.19196 -151.46822 
L 57.19196 -152.284849 
L 57.057235 -152.284849 
L 57.057235 -153.099874 
L 56.967419 -153.099874 
L 56.967419 -153.913277 
L 56.92251 -153.913277 
L 56.92251 -155.535128 
L 56.338702 -155.535128 
L 56.338702 -155.535128 
L 56.069253 -155.535128 
L 56.069253 -155.535128 
L 55.979436 -155.535128 
L 55.979436 -156.327571 
L 55.889619 -156.327571 
L 55.889619 -157.11843 
L 55.844711 -157.11843 
L 55.844711 -157.11843 
L 55.754894 -157.11843 
L 55.754894 -157.11843 
L 55.08127 -157.11843 
L 55.08127 -158.675195 
L 54.901637 -158.675195 
L 54.901637 -159.451231 
L 54.766912 -159.451231 
L 54.766912 -159.451231 
L 54.407645 -159.451231 
L 54.407645 -160.220863 
L 54.362737 -160.220863 
L 54.362737 -160.988911 
L 54.183104 -160.988911 
L 54.183104 -162.520156 
L 54.048379 -162.520156 
L 54.048379 -163.283296 
L 53.599296 -163.283296 
L 53.599296 -164.044742 
L 53.240029 -164.044742 
L 53.240029 -164.804463 
L 52.835855 -164.804463 
L 52.835855 -166.318592 
L 52.117322 -166.318592 
L 52.117322 -167.072929 
L 51.937688 -167.072929 
L 51.937688 -167.825395 
L 51.847872 -167.825395 
L 51.847872 -169.324552 
L 51.398789 -169.324552 
L 51.398789 -170.071151 
L 51.35388 -170.071151 
L 51.35388 -170.815701 
L 51.219155 -170.815701 
L 51.219155 -171.558149 
L 51.039522 -171.558149 
L 51.039522 -172.29844 
L 50.994614 -172.29844 
L 50.994614 -173.036516 
L 50.904797 -173.036516 
L 50.904797 -173.036516 
L 50.859889 -173.036516 
L 50.859889 -173.768372 
L 50.770072 -173.768372 
L 50.770072 -174.497931 
L 50.680256 -174.497931 
L 50.680256 -175.225125 
L 50.05154 -175.225125 
L 50.05154 -176.672115 
L 49.647365 -176.672115 
L 49.647365 -177.39175 
L 49.333007 -177.39175 
L 49.333007 -178.108691 
L 49.198282 -178.108691 
L 49.198282 -178.822843 
L 49.108465 -178.822843 
L 49.108465 -179.534099 
L 48.883924 -179.534099 
L 48.883924 -180.242347 
L 48.614474 -180.242347 
L 48.614474 -180.947463 
L 48.210299 -180.947463 
L 48.210299 -181.649313 
L 48.030666 -181.649313 
L 48.030666 -181.649313 
L 47.806124 -181.649313 
L 47.806124 -182.344382 
L 47.401949 -182.344382 
L 47.401949 -183.035946 
L 47.177408 -183.035946 
L 47.177408 -184.407862 
L 46.952866 -184.407862 
L 46.952866 -185.084674 
L 46.548692 -185.084674 
L 46.548692 -185.757264 
L 46.189425 -185.757264 
L 46.189425 -186.425387 
L 46.099609 -186.425387 
L 46.099609 -187.088768 
L 46.009792 -187.088768 
L 46.009792 -187.747096 
L 45.515801 -187.747096 
L 45.515801 -188.400025 
L 45.425984 -188.400025 
L 45.425984 -188.400025 
L 45.381076 -188.400025 
L 45.381076 -189.044355 
L 45.111626 -189.044355 
L 45.111626 -189.682536 
L 44.931993 -189.682536 
L 44.931993 -190.314059 
L 44.887084 -190.314059 
L 44.887084 -190.314059 
L 44.572726 -190.314059 
L 44.572726 -190.314059 
L 44.078735 -190.314059 
L 44.078735 -190.93316 
L 44.033827 -190.93316 
L 44.033827 -191.544554 
L 43.899102 -191.544554 
L 43.899102 -191.544554 
L 43.809285 -191.544554 
L 43.809285 -192.145032 
L 43.67456 -192.145032 
L 43.67456 -192.736202 
L 43.584743 -192.736202 
L 43.584743 -193.316938 
L 43.045844 -193.316938 
L 43.045844 -193.885848 
L 42.731486 -193.885848 
L 42.731486 -194.441174 
L 42.686577 -194.441174 
L 42.686577 -194.980647 
L 42.192586 -194.980647 
L 42.192586 -195.50124 
L 42.147678 -195.50124 
L 42.147678 -196.467105 
L 41.698595 -196.467105 
L 41.698595 -196.467105 
L 41.29442 -196.467105 
L 41.29442 -196.467105 
L 41.204603 -196.467105 
L 41.204603 -196.467105 
L 40.530979 -196.467105 
L 40.530979 -196.892894 
L 40.48607 -196.892894 
L 40.48607 -197.265081 
L 39.632812 -197.265081 
z
" style="stroke: #e63946; stroke-opacity: 0.2"/>
    </defs>
    <g clip-path="url(#p84d30992c6)">
     <use xlink:href="#m6640af2e97" x="0" y="213.012812" style="fill: #e63946; fill-opacity: 0.2; stroke: #e63946; stroke-opacity: 0.2"/>
    </g>
   </g>
   <g id="line2d_25">
    <defs>
     <path id="m612e985062" d="M -3 3 
L 3 -3 
M -3 -3 
L 3 3 
" style="stroke: #2e86ab"/>
    </defs>
    <g clip-path="url(#p84d30992c6)">
     <use xlink:href="#m612e985062" x="36.758681" y="15.350476" style="fill: #2e86ab; stroke: #2e86ab"/>
     <use xlink:href="#m612e985062" x="39.632812" y="15.350476" style="fill: #2e86ab; stroke: #2e86ab"/>
     <use xlink:href="#m612e985062" x="40.21662" y="15.350476" style="fill: #2e86ab; stroke: #2e86ab"/>
     <use xlink:href="#m612e985062" x="40.306437" y="15.350476" style="fill: #2e86ab; stroke: #2e86ab"/>
     <use xlink:href="#m612e985062" x="40.396254" y="15.350476" style="fill: #2e86ab; stroke: #2e86ab"/>
     <use xlink:href="#m612e985062" x="40.530979" y="15.350476" style="fill: #2e86ab; stroke: #2e86ab"/>
     <use xlink:href="#m612e985062" x="40.890245" y="15.350476" style="fill: #2e86ab; stroke: #2e86ab"/>
     <use xlink:href="#m612e985062" x="42.102769" y="15.350476" style="fill: #2e86ab; stroke: #2e86ab"/>
     <use xlink:href="#m612e985062" x="42.282403" y="15.350476" style="fill: #2e86ab; stroke: #2e86ab"/>
     <use xlink:href="#m612e985062" x="42.506944" y="16.182157" style="fill: #2e86ab; stroke: #2e86ab"/>
     <use xlink:href="#m612e985062" x="42.641669" y="17.022457" style="fill: #2e86ab; stroke: #2e86ab"/>
     <use xlink:href="#m612e985062" x="42.686577" y="17.022457" style="fill: #2e86ab; stroke: #2e86ab"/>
     <use xlink:href="#m612e985062" x="43.315294" y="17.871602" style="fill: #2e86ab; stroke: #2e86ab"/>
     <use xlink:href="#m612e985062" x="43.40511" y="17.871602" style="fill: #2e86ab; stroke: #2e86ab"/>
     <use xlink:href="#m612e985062" x="43.629652" y="17.871602" style="fill: #2e86ab; stroke: #2e86ab"/>
     <use xlink:href="#m612e985062" x="44.348185" y="17.871602" style="fill: #2e86ab; stroke: #2e86ab"/>
     <use xlink:href="#m612e985062" x="46.728325" y="20.474117" style="fill: #2e86ab; stroke: #2e86ab"/>
     <use xlink:href="#m612e985062" x="48.120482" y="20.474117" style="fill: #2e86ab; stroke: #2e86ab"/>
     <use xlink:href="#m612e985062" x="49.692273" y="23.105548" style="fill: #2e86ab; stroke: #2e86ab"/>
     <use xlink:href="#m612e985062" x="52.027505" y="27.516186" style="fill: #2e86ab; stroke: #2e86ab"/>
     <use xlink:href="#m612e985062" x="52.790946" y="27.516186" style="fill: #2e86ab; stroke: #2e86ab"/>
     <use xlink:href="#m612e985062" x="54.452554" y="27.516186" style="fill: #2e86ab; stroke: #2e86ab"/>
     <use xlink:href="#m612e985062" x="54.587278" y="28.414066" style="fill: #2e86ab; stroke: #2e86ab"/>
     <use xlink:href="#m612e985062" x="55.126178" y="28.414066" style="fill: #2e86ab; stroke: #2e86ab"/>
     <use xlink:href="#m612e985062" x="55.844711" y="29.32837" style="fill: #2e86ab; stroke: #2e86ab"/>
     <use xlink:href="#m612e985062" x="56.024344" y="29.32837" style="fill: #2e86ab; stroke: #2e86ab"/>
     <use xlink:href="#m612e985062" x="56.159069" y="29.32837" style="fill: #2e86ab; stroke: #2e86ab"/>
     <use xlink:href="#m612e985062" x="56.203977" y="29.32837" style="fill: #2e86ab; stroke: #2e86ab"/>
     <use xlink:href="#m612e985062" x="56.248886" y="31.214847" style="fill: #2e86ab; stroke: #2e86ab"/>
     <use xlink:href="#m612e985062" x="56.338702" y="31.214847" style="fill: #2e86ab; stroke: #2e86ab"/>
     <use xlink:href="#m612e985062" x="56.383611" y="31.214847" style="fill: #2e86ab; stroke: #2e86ab"/>
     <use xlink:href="#m612e985062" x="56.518336" y="31.214847" style="fill: #2e86ab; stroke: #2e86ab"/>
     <use xlink:href="#m612e985062" x="56.563244" y="31.214847" style="fill: #2e86ab; stroke: #2e86ab"/>
     <use xlink:href="#m612e985062" x="56.653061" y="31.214847" style="fill: #2e86ab; stroke: #2e86ab"/>
     <use xlink:href="#m612e985062" x="56.787785" y="31.214847" style="fill: #2e86ab; stroke: #2e86ab"/>
     <use xlink:href="#m612e985062" x="56.832694" y="31.214847" style="fill: #2e86ab; stroke: #2e86ab"/>
     <use xlink:href="#m612e985062" x="56.877602" y="31.214847" style="fill: #2e86ab; stroke: #2e86ab"/>
     <use xlink:href="#m612e985062" x="57.102144" y="31.214847" style="fill: #2e86ab; stroke: #2e86ab"/>
     <use xlink:href="#m612e985062" x="57.506318" y="32.229641" style="fill: #2e86ab; stroke: #2e86ab"/>
     <use xlink:href="#m612e985062" x="57.551227" y="32.229641" style="fill: #2e86ab; stroke: #2e86ab"/>
     <use xlink:href="#m612e985062" x="58.045218" y="33.266026" style="fill: #2e86ab; stroke: #2e86ab"/>
     <use xlink:href="#m612e985062" x="58.26976" y="34.309868" style="fill: #2e86ab; stroke: #2e86ab"/>
     <use xlink:href="#m612e985062" x="58.853568" y="34.309868" style="fill: #2e86ab; stroke: #2e86ab"/>
     <use xlink:href="#m612e985062" x="60.155908" y="36.443944" style="fill: #2e86ab; stroke: #2e86ab"/>
     <use xlink:href="#m612e985062" x="60.560083" y="36.443944" style="fill: #2e86ab; stroke: #2e86ab"/>
     <use xlink:href="#m612e985062" x="60.694808" y="36.443944" style="fill: #2e86ab; stroke: #2e86ab"/>
     <use xlink:href="#m612e985062" x="60.91935" y="36.443944" style="fill: #2e86ab; stroke: #2e86ab"/>
     <use xlink:href="#m612e985062" x="61.188799" y="36.443944" style="fill: #2e86ab; stroke: #2e86ab"/>
     <use xlink:href="#m612e985062" x="61.233708" y="36.443944" style="fill: #2e86ab; stroke: #2e86ab"/>
     <use xlink:href="#m612e985062" x="61.368433" y="36.443944" style="fill: #2e86ab; stroke: #2e86ab"/>
     <use xlink:href="#m612e985062" x="61.413341" y="36.443944" style="fill: #2e86ab; stroke: #2e86ab"/>
     <use xlink:href="#m612e985062" x="61.682791" y="36.443944" style="fill: #2e86ab; stroke: #2e86ab"/>
     <use xlink:href="#m612e985062" x="62.22169" y="36.443944" style="fill: #2e86ab; stroke: #2e86ab"/>
     <use xlink:href="#m612e985062" x="62.401324" y="36.443944" style="fill: #2e86ab; stroke: #2e86ab"/>
     <use xlink:href="#m612e985062" x="62.446232" y="36.443944" style="fill: #2e86ab; stroke: #2e86ab"/>
     <use xlink:href="#m612e985062" x="62.625865" y="36.443944" style="fill: #2e86ab; stroke: #2e86ab"/>
     <use xlink:href="#m612e985062" x="63.074948" y="36.443944" style="fill: #2e86ab; stroke: #2e86ab"/>
     <use xlink:href="#m612e985062" x="63.164765" y="36.443944" style="fill: #2e86ab; stroke: #2e86ab"/>
     <use xlink:href="#m612e985062" x="63.703665" y="36.443944" style="fill: #2e86ab; stroke: #2e86ab"/>
     <use xlink:href="#m612e985062" x="63.83839" y="36.443944" style="fill: #2e86ab; stroke: #2e86ab"/>
     <use xlink:href="#m612e985062" x="63.883298" y="36.443944" style="fill: #2e86ab; stroke: #2e86ab"/>
     <use xlink:href="#m612e985062" x="64.152748" y="37.699838" style="fill: #2e86ab; stroke: #2e86ab"/>
     <use xlink:href="#m612e985062" x="64.781464" y="38.967047" style="fill: #2e86ab; stroke: #2e86ab"/>
     <use xlink:href="#m612e985062" x="64.871281" y="38.967047" style="fill: #2e86ab; stroke: #2e86ab"/>
     <use xlink:href="#m612e985062" x="65.320364" y="38.967047" style="fill: #2e86ab; stroke: #2e86ab"/>
     <use xlink:href="#m612e985062" x="65.365272" y="38.967047" style="fill: #2e86ab; stroke: #2e86ab"/>
     <use xlink:href="#m612e985062" x="65.724538" y="40.282075" style="fill: #2e86ab; stroke: #2e86ab"/>
     <use xlink:href="#m612e985062" x="67.026879" y="42.937419" style="fill: #2e86ab; stroke: #2e86ab"/>
     <use xlink:href="#m612e985062" x="67.386146" y="44.278237" style="fill: #2e86ab; stroke: #2e86ab"/>
     <use xlink:href="#m612e985062" x="68.05977" y="44.278237" style="fill: #2e86ab; stroke: #2e86ab"/>
     <use xlink:href="#m612e985062" x="68.194495" y="44.278237" style="fill: #2e86ab; stroke: #2e86ab"/>
     <use xlink:href="#m612e985062" x="68.284312" y="44.278237" style="fill: #2e86ab; stroke: #2e86ab"/>
     <use xlink:href="#m612e985062" x="68.374128" y="44.278237" style="fill: #2e86ab; stroke: #2e86ab"/>
     <use xlink:href="#m612e985062" x="68.419037" y="44.278237" style="fill: #2e86ab; stroke: #2e86ab"/>
     <use xlink:href="#m612e985062" x="68.463945" y="44.278237" style="fill: #2e86ab; stroke: #2e86ab"/>
     <use xlink:href="#m612e985062" x="68.643578" y="44.278237" style="fill: #2e86ab; stroke: #2e86ab"/>
     <use xlink:href="#m612e985062" x="68.733395" y="44.278237" style="fill: #2e86ab; stroke: #2e86ab"/>
     <use xlink:href="#m612e985062" x="68.778303" y="44.278237" style="fill: #2e86ab; stroke: #2e86ab"/>
     <use xlink:href="#m612e985062" x="69.496836" y="47.257832" style="fill: #2e86ab; stroke: #2e86ab"/>
     <use xlink:href="#m612e985062" x="70.664452" y="48.764753" style="fill: #2e86ab; stroke: #2e86ab"/>
     <use xlink:href="#m612e985062" x="71.023719" y="50.289403" style="fill: #2e86ab; stroke: #2e86ab"/>
     <use xlink:href="#m612e985062" x="71.068627" y="50.289403" style="fill: #2e86ab; stroke: #2e86ab"/>
     <use xlink:href="#m612e985062" x="73.314042" y="53.413076" style="fill: #2e86ab; stroke: #2e86ab"/>
     <use xlink:href="#m612e985062" x="73.673309" y="53.413076" style="fill: #2e86ab; stroke: #2e86ab"/>
     <use xlink:href="#m612e985062" x="74.346933" y="53.413076" style="fill: #2e86ab; stroke: #2e86ab"/>
     <use xlink:href="#m612e985062" x="75.065466" y="53.413076" style="fill: #2e86ab; stroke: #2e86ab"/>
     <use xlink:href="#m612e985062" x="75.469641" y="55.057115" style="fill: #2e86ab; stroke: #2e86ab"/>
     <use xlink:href="#m612e985062" x="75.514549" y="55.057115" style="fill: #2e86ab; stroke: #2e86ab"/>
     <use xlink:href="#m612e985062" x="76.098357" y="55.057115" style="fill: #2e86ab; stroke: #2e86ab"/>
     <use xlink:href="#m612e985062" x="76.143265" y="55.057115" style="fill: #2e86ab; stroke: #2e86ab"/>
     <use xlink:href="#m612e985062" x="76.457624" y="55.057115" style="fill: #2e86ab; stroke: #2e86ab"/>
     <use xlink:href="#m612e985062" x="76.996523" y="55.057115" style="fill: #2e86ab; stroke: #2e86ab"/>
     <use xlink:href="#m612e985062" x="77.445606" y="55.057115" style="fill: #2e86ab; stroke: #2e86ab"/>
     <use xlink:href="#m612e985062" x="77.849781" y="55.057115" style="fill: #2e86ab; stroke: #2e86ab"/>
     <use xlink:href="#m612e985062" x="78.433589" y="55.057115" style="fill: #2e86ab; stroke: #2e86ab"/>
     <use xlink:href="#m612e985062" x="78.837764" y="55.057115" style="fill: #2e86ab; stroke: #2e86ab"/>
     <use xlink:href="#m612e985062" x="79.915563" y="55.057115" style="fill: #2e86ab; stroke: #2e86ab"/>
     <use xlink:href="#m612e985062" x="80.319738" y="55.057115" style="fill: #2e86ab; stroke: #2e86ab"/>
     <use xlink:href="#m612e985062" x="80.993362" y="55.057115" style="fill: #2e86ab; stroke: #2e86ab"/>
     <use xlink:href="#m612e985062" x="82.071162" y="57.045871" style="fill: #2e86ab; stroke: #2e86ab"/>
     <use xlink:href="#m612e985062" x="84.675844" y="57.045871" style="fill: #2e86ab; stroke: #2e86ab"/>
     <use xlink:href="#m612e985062" x="86.696717" y="59.102043" style="fill: #2e86ab; stroke: #2e86ab"/>
     <use xlink:href="#m612e985062" x="88.582866" y="59.102043" style="fill: #2e86ab; stroke: #2e86ab"/>
     <use xlink:href="#m612e985062" x="88.762499" y="59.102043" style="fill: #2e86ab; stroke: #2e86ab"/>
     <use xlink:href="#m612e985062" x="89.391216" y="59.102043" style="fill: #2e86ab; stroke: #2e86ab"/>
     <use xlink:href="#m612e985062" x="89.705574" y="59.102043" style="fill: #2e86ab; stroke: #2e86ab"/>
     <use xlink:href="#m612e985062" x="92.669522" y="59.102043" style="fill: #2e86ab; stroke: #2e86ab"/>
     <use xlink:href="#m612e985062" x="92.894064" y="59.102043" style="fill: #2e86ab; stroke: #2e86ab"/>
     <use xlink:href="#m612e985062" x="94.376038" y="59.102043" style="fill: #2e86ab; stroke: #2e86ab"/>
     <use xlink:href="#m612e985062" x="100.259026" y="59.102043" style="fill: #2e86ab; stroke: #2e86ab"/>
     <use xlink:href="#m612e985062" x="101.157192" y="59.102043" style="fill: #2e86ab; stroke: #2e86ab"/>
     <use xlink:href="#m612e985062" x="104.92949" y="61.586583" style="fill: #2e86ab; stroke: #2e86ab"/>
     <use xlink:href="#m612e985062" x="104.974398" y="61.586583" style="fill: #2e86ab; stroke: #2e86ab"/>
     <use xlink:href="#m612e985062" x="105.198939" y="61.586583" style="fill: #2e86ab; stroke: #2e86ab"/>
     <use xlink:href="#m612e985062" x="106.052197" y="61.586583" style="fill: #2e86ab; stroke: #2e86ab"/>
     <use xlink:href="#m612e985062" x="108.297613" y="61.586583" style="fill: #2e86ab; stroke: #2e86ab"/>
     <use xlink:href="#m612e985062" x="108.701787" y="61.586583" style="fill: #2e86ab; stroke: #2e86ab"/>
     <use xlink:href="#m612e985062" x="108.881421" y="61.586583" style="fill: #2e86ab; stroke: #2e86ab"/>
     <use xlink:href="#m612e985062" x="110.677753" y="61.586583" style="fill: #2e86ab; stroke: #2e86ab"/>
     <use xlink:href="#m612e985062" x="112.429177" y="61.586583" style="fill: #2e86ab; stroke: #2e86ab"/>
     <use xlink:href="#m612e985062" x="113.237526" y="61.586583" style="fill: #2e86ab; stroke: #2e86ab"/>
     <use xlink:href="#m612e985062" x="113.686609" y="61.586583" style="fill: #2e86ab; stroke: #2e86ab"/>
     <use xlink:href="#m612e985062" x="116.605649" y="61.586583" style="fill: #2e86ab; stroke: #2e86ab"/>
     <use xlink:href="#m612e985062" x="118.71634" y="61.586583" style="fill: #2e86ab; stroke: #2e86ab"/>
     <use xlink:href="#m612e985062" x="119.839047" y="61.586583" style="fill: #2e86ab; stroke: #2e86ab"/>
     <use xlink:href="#m612e985062" x="120.108497" y="61.586583" style="fill: #2e86ab; stroke: #2e86ab"/>
     <use xlink:href="#m612e985062" x="120.737213" y="65.235753" style="fill: #2e86ab; stroke: #2e86ab"/>
     <use xlink:href="#m612e985062" x="121.815013" y="65.235753" style="fill: #2e86ab; stroke: #2e86ab"/>
     <use xlink:href="#m612e985062" x="122.488637" y="65.235753" style="fill: #2e86ab; stroke: #2e86ab"/>
     <use xlink:href="#m612e985062" x="124.240061" y="65.235753" style="fill: #2e86ab; stroke: #2e86ab"/>
     <use xlink:href="#m612e985062" x="125.497494" y="65.235753" style="fill: #2e86ab; stroke: #2e86ab"/>
     <use xlink:href="#m612e985062" x="127.069285" y="65.235753" style="fill: #2e86ab; stroke: #2e86ab"/>
     <use xlink:href="#m612e985062" x="127.159101" y="65.235753" style="fill: #2e86ab; stroke: #2e86ab"/>
     <use xlink:href="#m612e985062" x="127.293826" y="65.235753" style="fill: #2e86ab; stroke: #2e86ab"/>
     <use xlink:href="#m612e985062" x="129.808691" y="65.235753" style="fill: #2e86ab; stroke: #2e86ab"/>
     <use xlink:href="#m612e985062" x="130.661949" y="65.235753" style="fill: #2e86ab; stroke: #2e86ab"/>
     <use xlink:href="#m612e985062" x="131.42539" y="65.235753" style="fill: #2e86ab; stroke: #2e86ab"/>
     <use xlink:href="#m612e985062" x="131.649932" y="65.235753" style="fill: #2e86ab; stroke: #2e86ab"/>
     <use xlink:href="#m612e985062" x="134.34443" y="65.235753" style="fill: #2e86ab; stroke: #2e86ab"/>
     <use xlink:href="#m612e985062" x="142.607559" y="65.235753" style="fill: #2e86ab; stroke: #2e86ab"/>
     <use xlink:href="#m612e985062" x="144.269166" y="65.235753" style="fill: #2e86ab; stroke: #2e86ab"/>
     <use xlink:href="#m612e985062" x="145.257149" y="65.235753" style="fill: #2e86ab; stroke: #2e86ab"/>
     <use xlink:href="#m612e985062" x="146.514581" y="65.235753" style="fill: #2e86ab; stroke: #2e86ab"/>
     <use xlink:href="#m612e985062" x="148.445638" y="65.235753" style="fill: #2e86ab; stroke: #2e86ab"/>
     <use xlink:href="#m612e985062" x="157.517116" y="65.235753" style="fill: #2e86ab; stroke: #2e86ab"/>
     <use xlink:href="#m612e985062" x="158.909274" y="65.235753" style="fill: #2e86ab; stroke: #2e86ab"/>
     <use xlink:href="#m612e985062" x="161.019964" y="65.235753" style="fill: #2e86ab; stroke: #2e86ab"/>
     <use xlink:href="#m612e985062" x="164.926987" y="65.235753" style="fill: #2e86ab; stroke: #2e86ab"/>
     <use xlink:href="#m612e985062" x="168.429835" y="65.235753" style="fill: #2e86ab; stroke: #2e86ab"/>
     <use xlink:href="#m612e985062" x="169.238184" y="65.235753" style="fill: #2e86ab; stroke: #2e86ab"/>
     <use xlink:href="#m612e985062" x="172.741032" y="65.235753" style="fill: #2e86ab; stroke: #2e86ab"/>
     <use xlink:href="#m612e985062" x="174.851722" y="65.235753" style="fill: #2e86ab; stroke: #2e86ab"/>
     <use xlink:href="#m612e985062" x="190.704354" y="65.235753" style="fill: #2e86ab; stroke: #2e86ab"/>
     <use xlink:href="#m612e985062" x="193.21922" y="65.235753" style="fill: #2e86ab; stroke: #2e86ab"/>
     <use xlink:href="#m612e985062" x="211.047817" y="65.235753" style="fill: #2e86ab; stroke: #2e86ab"/>
     <use xlink:href="#m612e985062" x="262.692369" y="65.235753" style="fill: #2e86ab; stroke: #2e86ab"/>
     <use xlink:href="#m612e985062" x="266.015584" y="65.235753" style="fill: #2e86ab; stroke: #2e86ab"/>
    </g>
   </g>
   <g id="line2d_26">
    <path d="M 36.758681 15.350476 
L 42.417127 15.350476 
L 42.417127 16.182157 
L 42.506944 16.182157 
L 42.551852 16.182157 
L 42.641669 17.022457 
L 42.641669 17.022457 
L 43.270385 17.022457 
L 43.270385 17.871602 
L 43.315294 17.871602 
L 44.393093 17.871602 
L 44.393093 18.739107 
L 46.32415 18.739107 
L 46.32415 19.606612 
L 46.548692 19.606612 
L 46.548692 20.474117 
L 48.614474 20.474117 
L 48.614474 21.35126 
L 48.839015 21.35126 
L 48.839015 22.228404 
L 49.51264 22.228404 
L 49.51264 23.105548 
L 50.276081 23.105548 
L 50.276081 23.987676 
L 50.904797 23.987676 
L 50.904797 24.869803 
L 51.039522 24.869803 
L 51.039522 25.751931 
L 51.264064 25.751931 
L 51.264064 26.634058 
L 51.89278 26.634058 
L 51.89278 27.516186 
L 54.54237 27.516186 
L 54.54237 28.414066 
L 54.587278 28.414066 
L 55.620169 28.414066 
L 55.620169 29.32837 
L 56.248886 29.32837 
L 56.248886 31.214847 
L 56.338702 31.214847 
L 57.281777 31.214847 
L 57.281777 32.229641 
L 57.596135 32.229641 
L 57.596135 33.266026 
L 58.179943 33.266026 
L 58.179943 34.309868 
L 58.26976 34.309868 
L 59.976275 34.309868 
L 60.066092 36.443944 
L 64.062931 36.443944 
L 64.062931 37.699838 
L 64.152748 37.699838 
L 64.197656 37.699838 
L 64.197656 38.967047 
L 65.634722 38.967047 
L 65.634722 40.282075 
L 65.724538 40.282075 
L 66.263438 40.282075 
L 66.263438 41.609747 
L 66.667613 41.609747 
L 66.667613 42.937419 
L 67.116696 42.937419 
L 67.116696 44.278237 
L 68.86812 44.278237 
L 68.86812 45.768034 
L 69.496836 45.768034 
L 69.496836 47.257832 
L 70.395002 47.257832 
L 70.395002 48.764753 
L 70.888994 48.764753 
L 70.888994 50.289403 
L 71.607526 50.289403 
L 71.607526 51.85124 
L 72.595509 51.85124 
L 72.595509 53.413076 
L 75.334916 53.413076 
L 75.334916 55.057115 
L 81.891529 55.057115 
L 81.891529 57.045871 
L 84.720752 57.045871 
L 84.720752 59.102043 
L 103.537332 59.102043 
L 103.537332 61.586583 
L 120.647397 61.586583 
L 120.737213 65.235753 
L 120.737213 65.235753 
L 266.015584 65.235753 
L 266.015584 65.235753 
" clip-path="url(#p84d30992c6)" style="fill: none; stroke: #2e86ab; stroke-width: 2; stroke-linecap: round"/>
   </g>
   <g id="line2d_27">
    <defs>
     <path id="mfdcae0472c" d="M -3 3 
L 3 -3 
M -3 -3 
L 3 3 
" style="stroke: #e63946"/>
    </defs>
    <g clip-path="url(#p84d30992c6)">
     <use xlink:href="#mfdcae0472c" x="41.204603" y="18.51571" style="fill: #e63946; stroke: #e63946"/>
     <use xlink:href="#mfdcae0472c" x="41.29442" y="18.51571" style="fill: #e63946; stroke: #e63946"/>
     <use xlink:href="#mfdcae0472c" x="41.698595" y="18.51571" style="fill: #e63946; stroke: #e63946"/>
     <use xlink:href="#mfdcae0472c" x="43.899102" y="25.744848" style="fill: #e63946; stroke: #e63946"/>
     <use xlink:href="#mfdcae0472c" x="44.572726" y="27.359824" style="fill: #e63946; stroke: #e63946"/>
     <use xlink:href="#mfdcae0472c" x="44.887084" y="27.359824" style="fill: #e63946; stroke: #e63946"/>
     <use xlink:href="#mfdcae0472c" x="45.425984" y="29.808475" style="fill: #e63946; stroke: #e63946"/>
     <use xlink:href="#mfdcae0472c" x="46.952866" y="34.732835" style="fill: #e63946; stroke: #e63946"/>
     <use xlink:href="#mfdcae0472c" x="48.030666" y="38.034609" style="fill: #e63946; stroke: #e63946"/>
     <use xlink:href="#mfdcae0472c" x="50.904797" y="47.998542" style="fill: #e63946; stroke: #e63946"/>
     <use xlink:href="#mfdcae0472c" x="54.766912" y="63.040249" style="fill: #e63946; stroke: #e63946"/>
     <use xlink:href="#mfdcae0472c" x="55.754894" y="65.565499" style="fill: #e63946; stroke: #e63946"/>
     <use xlink:href="#mfdcae0472c" x="55.844711" y="65.565499" style="fill: #e63946; stroke: #e63946"/>
     <use xlink:href="#mfdcae0472c" x="55.979436" y="67.274506" style="fill: #e63946; stroke: #e63946"/>
     <use xlink:href="#mfdcae0472c" x="56.069253" y="67.274506" style="fill: #e63946; stroke: #e63946"/>
     <use xlink:href="#mfdcae0472c" x="56.338702" y="67.274506" style="fill: #e63946; stroke: #e63946"/>
     <use xlink:href="#mfdcae0472c" x="57.326685" y="71.647951" style="fill: #e63946; stroke: #e63946"/>
     <use xlink:href="#mfdcae0472c" x="58.26976" y="76.05754" style="fill: #e63946; stroke: #e63946"/>
     <use xlink:href="#mfdcae0472c" x="58.314668" y="76.05754" style="fill: #e63946; stroke: #e63946"/>
     <use xlink:href="#mfdcae0472c" x="58.718843" y="76.95493" style="fill: #e63946; stroke: #e63946"/>
     <use xlink:href="#mfdcae0472c" x="59.078109" y="76.95493" style="fill: #e63946; stroke: #e63946"/>
     <use xlink:href="#mfdcae0472c" x="60.066092" y="79.695607" style="fill: #e63946; stroke: #e63946"/>
     <use xlink:href="#mfdcae0472c" x="60.290633" y="80.617704" style="fill: #e63946; stroke: #e63946"/>
     <use xlink:href="#mfdcae0472c" x="60.604991" y="82.479462" style="fill: #e63946; stroke: #e63946"/>
     <use xlink:href="#mfdcae0472c" x="60.964258" y="83.419468" style="fill: #e63946; stroke: #e63946"/>
     <use xlink:href="#mfdcae0472c" x="61.054075" y="83.419468" style="fill: #e63946; stroke: #e63946"/>
     <use xlink:href="#mfdcae0472c" x="61.862424" y="86.296454" style="fill: #e63946; stroke: #e63946"/>
     <use xlink:href="#mfdcae0472c" x="63.973114" y="94.131649" style="fill: #e63946; stroke: #e63946"/>
     <use xlink:href="#mfdcae0472c" x="65.320364" y="99.086258" style="fill: #e63946; stroke: #e63946"/>
     <use xlink:href="#mfdcae0472c" x="65.589813" y="101.093188" style="fill: #e63946; stroke: #e63946"/>
     <use xlink:href="#mfdcae0472c" x="65.67963" y="101.093188" style="fill: #e63946; stroke: #e63946"/>
     <use xlink:href="#mfdcae0472c" x="65.769447" y="101.093188" style="fill: #e63946; stroke: #e63946"/>
     <use xlink:href="#mfdcae0472c" x="66.038897" y="101.093188" style="fill: #e63946; stroke: #e63946"/>
     <use xlink:href="#mfdcae0472c" x="66.128713" y="102.166338" style="fill: #e63946; stroke: #e63946"/>
     <use xlink:href="#mfdcae0472c" x="66.712521" y="103.254819" style="fill: #e63946; stroke: #e63946"/>
     <use xlink:href="#mfdcae0472c" x="72.460784" y="113.195211" style="fill: #e63946; stroke: #e63946"/>
     <use xlink:href="#mfdcae0472c" x="73.808033" y="114.318742" style="fill: #e63946; stroke: #e63946"/>
     <use xlink:href="#mfdcae0472c" x="74.796016" y="115.462335" style="fill: #e63946; stroke: #e63946"/>
     <use xlink:href="#mfdcae0472c" x="76.996523" y="117.791879" style="fill: #e63946; stroke: #e63946"/>
     <use xlink:href="#mfdcae0472c" x="77.35579" y="118.979489" style="fill: #e63946; stroke: #e63946"/>
     <use xlink:href="#mfdcae0472c" x="79.46648" y="121.403183" style="fill: #e63946; stroke: #e63946"/>
     <use xlink:href="#mfdcae0472c" x="79.73593" y="121.403183" style="fill: #e63946; stroke: #e63946"/>
     <use xlink:href="#mfdcae0472c" x="80.00538" y="121.403183" style="fill: #e63946; stroke: #e63946"/>
     <use xlink:href="#mfdcae0472c" x="84.406394" y="125.286602" style="fill: #e63946; stroke: #e63946"/>
     <use xlink:href="#mfdcae0472c" x="85.84346" y="127.940272" style="fill: #e63946; stroke: #e63946"/>
     <use xlink:href="#mfdcae0472c" x="87.774517" y="130.665663" style="fill: #e63946; stroke: #e63946"/>
     <use xlink:href="#mfdcae0472c" x="89.481032" y="132.068438" style="fill: #e63946; stroke: #e63946"/>
     <use xlink:href="#mfdcae0472c" x="90.244474" y="132.068438" style="fill: #e63946; stroke: #e63946"/>
     <use xlink:href="#mfdcae0472c" x="92.355164" y="133.561714" style="fill: #e63946; stroke: #e63946"/>
     <use xlink:href="#mfdcae0472c" x="99.181226" y="135.106482" style="fill: #e63946; stroke: #e63946"/>
     <use xlink:href="#mfdcae0472c" x="107.983254" y="139.912429" style="fill: #e63946; stroke: #e63946"/>
     <use xlink:href="#mfdcae0472c" x="109.734678" y="141.584062" style="fill: #e63946; stroke: #e63946"/>
     <use xlink:href="#mfdcae0472c" x="111.665736" y="141.584062" style="fill: #e63946; stroke: #e63946"/>
     <use xlink:href="#mfdcae0472c" x="116.336199" y="143.422859" style="fill: #e63946; stroke: #e63946"/>
     <use xlink:href="#mfdcae0472c" x="129.8536" y="149.245716" style="fill: #e63946; stroke: #e63946"/>
     <use xlink:href="#mfdcae0472c" x="130.347591" y="151.325308" style="fill: #e63946; stroke: #e63946"/>
     <use xlink:href="#mfdcae0472c" x="130.527224" y="151.325308" style="fill: #e63946; stroke: #e63946"/>
     <use xlink:href="#mfdcae0472c" x="135.691679" y="151.325308" style="fill: #e63946; stroke: #e63946"/>
     <use xlink:href="#mfdcae0472c" x="137.398195" y="151.325308" style="fill: #e63946; stroke: #e63946"/>
     <use xlink:href="#mfdcae0472c" x="143.460816" y="151.325308" style="fill: #e63946; stroke: #e63946"/>
     <use xlink:href="#mfdcae0472c" x="193.758119" y="164.842654" style="fill: #e63946; stroke: #e63946"/>
     <use xlink:href="#mfdcae0472c" x="211.856167" y="164.842654" style="fill: #e63946; stroke: #e63946"/>
     <use xlink:href="#mfdcae0472c" x="218.412779" y="164.842654" style="fill: #e63946; stroke: #e63946"/>
     <use xlink:href="#mfdcae0472c" x="266.419759" y="164.842654" style="fill: #e63946; stroke: #e63946"/>
    </g>
   </g>
   <g id="line2d_28">
    <path d="M 39.632812 16.933093 
L 40.48607 16.933093 
L 40.530979 18.51571 
L 42.147678 18.51571 
L 42.192586 20.925423 
L 42.686577 20.925423 
L 42.731486 22.531898 
L 43.045844 22.531898 
L 43.045844 23.335136 
L 43.584743 23.335136 
L 43.67456 24.941611 
L 43.809285 24.941611 
L 43.809285 25.744848 
L 43.899102 25.744848 
L 44.033827 25.744848 
L 44.078735 27.359824 
L 44.931993 27.359824 
L 44.931993 28.176041 
L 45.111626 28.176041 
L 45.111626 28.992258 
L 45.381076 28.992258 
L 45.381076 29.808475 
L 45.425984 29.808475 
L 45.515801 29.808475 
L 45.515801 30.629202 
L 46.009792 30.629202 
L 46.099609 32.270655 
L 46.189425 32.270655 
L 46.189425 33.091382 
L 46.548692 33.091382 
L 46.548692 33.912108 
L 46.952866 33.912108 
L 46.952866 34.732835 
L 47.177408 34.732835 
L 47.177408 36.383722 
L 47.401949 36.383722 
L 47.401949 37.209165 
L 47.806124 37.209165 
L 47.806124 38.034609 
L 48.210299 38.034609 
L 48.210299 38.864937 
L 48.614474 38.864937 
L 48.614474 39.695264 
L 48.883924 39.695264 
L 48.883924 40.525592 
L 49.108465 40.525592 
L 49.198282 42.186248 
L 49.333007 42.186248 
L 49.333007 43.016575 
L 49.647365 43.016575 
L 49.647365 43.846903 
L 50.05154 43.846903 
L 50.05154 45.507559 
L 50.680256 45.507559 
L 50.770072 47.168214 
L 50.859889 47.168214 
L 50.859889 47.998542 
L 50.904797 47.998542 
L 50.994614 47.998542 
L 51.039522 49.669843 
L 51.219155 49.669843 
L 51.219155 50.505493 
L 51.35388 50.505493 
L 51.398789 52.176794 
L 51.847872 52.176794 
L 51.937688 54.683745 
L 52.117322 54.683745 
L 52.117322 55.519395 
L 52.835855 55.519395 
L 52.835855 57.190696 
L 53.240029 57.190696 
L 53.240029 58.026346 
L 53.599296 58.026346 
L 53.599296 58.861997 
L 54.048379 58.861997 
L 54.048379 59.697647 
L 54.183104 59.697647 
L 54.183104 61.368948 
L 54.362737 61.368948 
L 54.407645 63.040249 
L 54.901637 63.040249 
L 54.901637 63.881999 
L 55.08127 63.881999 
L 55.08127 65.565499 
L 55.889619 65.565499 
L 55.979436 67.274506 
L 56.92251 67.274506 
L 56.967419 69.898573 
L 57.057235 69.898573 
L 57.057235 70.773262 
L 57.19196 70.773262 
L 57.19196 71.647951 
L 57.865585 71.647951 
L 57.955401 73.411786 
L 58.179943 73.411786 
L 58.26976 76.05754 
L 58.404484 76.05754 
L 58.404484 76.95493 
L 59.123017 76.95493 
L 59.123017 77.868489 
L 59.257742 77.868489 
L 59.257742 78.782048 
L 60.021183 78.782048 
L 60.021183 79.695607 
L 60.066092 79.695607 
L 60.290633 79.695607 
L 60.290633 80.617704 
L 60.604991 80.617704 
L 60.604991 82.479462 
L 60.91935 82.479462 
L 60.91935 83.419468 
L 60.964258 83.419468 
L 61.458249 83.419468 
L 61.458249 84.378463 
L 61.727699 84.378463 
L 61.727699 85.337458 
L 61.862424 85.337458 
L 61.862424 86.296454 
L 62.446232 86.296454 
L 62.536049 89.234652 
L 63.074948 89.234652 
L 63.074948 90.214051 
L 63.434215 90.214051 
L 63.434215 91.193451 
L 63.613848 91.193451 
L 63.703665 93.15225 
L 63.83839 93.15225 
L 63.83839 94.131649 
L 64.062931 94.131649 
L 64.062931 95.122571 
L 64.197656 95.122571 
L 64.197656 96.113493 
L 64.332381 96.113493 
L 64.332381 97.104414 
L 65.006005 97.104414 
L 65.006005 99.086258 
L 65.455089 99.086258 
L 65.544905 101.093188 
L 66.128713 101.093188 
L 66.128713 102.166338 
L 66.532888 102.166338 
L 66.532888 103.254819 
L 67.251421 103.254819 
L 67.341237 105.463795 
L 67.610687 105.463795 
L 67.610687 106.568283 
L 67.925045 106.568283 
L 67.925045 107.672771 
L 69.901011 107.672771 
L 69.901011 108.777259 
L 70.170461 108.777259 
L 70.170461 109.881747 
L 70.619544 109.881747 
L 70.619544 110.986235 
L 71.338077 110.986235 
L 71.338077 112.090723 
L 71.921885 112.090723 
L 71.921885 113.195211 
L 72.820051 113.195211 
L 72.820051 114.318742 
L 74.571475 114.318742 
L 74.571475 115.462335 
L 76.412715 115.462335 
L 76.412715 116.627107 
L 76.592348 116.627107 
L 76.592348 117.791879 
L 77.131248 117.791879 
L 77.131248 118.979489 
L 78.209047 118.979489 
L 78.209047 120.191336 
L 78.433589 120.191336 
L 78.433589 121.403183 
L 80.229921 121.403183 
L 80.229921 122.697656 
L 82.250795 122.697656 
L 82.250795 123.992129 
L 83.373503 123.992129 
L 83.373503 125.286602 
L 84.76566 125.286602 
L 84.76566 126.613437 
L 84.900385 126.613437 
L 84.900385 127.940272 
L 86.157818 127.940272 
L 86.157818 129.302968 
L 87.41525 129.302968 
L 87.41525 130.665663 
L 87.999058 130.665663 
L 87.999058 132.068438 
L 91.861173 132.068438 
L 91.861173 133.561714 
L 96.666361 133.561714 
L 96.666361 135.106482 
L 100.169209 135.106482 
L 100.169209 136.708464 
L 101.022467 136.708464 
L 101.022467 138.310447 
L 103.402607 138.310447 
L 103.402607 139.912429 
L 109.510137 139.912429 
L 109.510137 141.584062 
L 114.629684 141.584062 
L 114.629684 143.422859 
L 116.785282 143.422859 
L 116.785282 145.363811 
L 123.566437 145.363811 
L 123.566437 147.304764 
L 128.147084 147.304764 
L 128.147084 149.245716 
L 130.347591 149.245716 
L 130.347591 151.325308 
L 158.235649 151.325308 
L 158.235649 154.704644 
L 166.633502 154.704644 
L 166.633502 158.083981 
L 172.291949 158.083981 
L 172.291949 161.463317 
L 182.575951 161.463317 
L 182.575951 164.842654 
L 266.419759 164.842654 
L 266.419759 164.842654 
" clip-path="url(#p84d30992c6)" style="fill: none; stroke: #e63946; stroke-width: 2; stroke-linecap: round"/>
   </g>
   <g id="patch_3">
    <path d="M 39.632812 178.36 
L 39.632812 7.2 
" style="fill: none; stroke: #262626; stroke-width: 0.8; stroke-linejoin: miter; stroke-linecap: square"/>
   </g>
   <g id="patch_4">
    <path d="M 277.902813 178.36 
L 277.902813 7.2 
" style="fill: none; stroke: #262626; stroke-width: 0.8; stroke-linejoin: miter; stroke-linecap: square"/>
   </g>
   <g id="patch_5">
    <path d="M 39.632812 178.36 
L 277.902813 178.36 
" style="fill: none; stroke: #262626; stroke-width: 0.8; stroke-linejoin: miter; stroke-linecap: square"/>
   </g>
   <g id="patch_6">
    <path d="M 39.632812 7.2 
L 277.902813 7.2 
" style="fill: none; stroke: #262626; stroke-width: 0.8; stroke-linejoin: miter; stroke-linecap: square"/>
   </g>
   <g id="text_15">
    <g id="patch_7">
     <path d="M 229.696163 25.9005 
L 273.137413 25.9005 
Q 275.537413 25.9005 275.537413 23.5005 
L 275.537413 15.758 
Q 275.537413 13.358 273.137413 13.358 
L 229.696163 13.358 
Q 227.296163 13.358 227.296163 15.758 
L 227.296163 23.5005 
Q 227.296163 25.9005 229.696163 25.9005 
z
" style="fill: #ffffff; opacity: 0.8; stroke: #ffffff; stroke-linejoin: miter"/>
    </g>
    <!-- P &lt; 0.001 -->
    <g style="fill: #262626" transform="translate(229.696163 21.83675) scale(0.08 -0.08)">
     <defs>
      <path id="DejaVuSans-Bold-50" d="M 588 4666 
L 2584 4666 
Q 3475 4666 3951 4270 
Q 4428 3875 4428 3144 
Q 4428 2409 3951 2014 
Q 3475 1619 2584 1619 
L 1791 1619 
L 1791 0 
L 588 0 
L 588 4666 
z
M 1791 3794 
L 1791 2491 
L 2456 2491 
Q 2806 2491 2997 2661 
Q 3188 2831 3188 3144 
Q 3188 3456 2997 3625 
Q 2806 3794 2456 3794 
L 1791 3794 
z
" transform="scale(0.015625)"/>
      <path id="DejaVuSans-Bold-20" transform="scale(0.015625)"/>
      <path id="DejaVuSans-Bold-3c" d="M 4684 3041 
L 1672 2003 
L 4684 972 
L 4684 191 
L 678 1638 
L 678 2375 
L 4684 3822 
L 4684 3041 
z
" transform="scale(0.015625)"/>
      <path id="DejaVuSans-Bold-30" d="M 2944 2338 
Q 2944 3213 2780 3570 
Q 2616 3928 2228 3928 
Q 1841 3928 1675 3570 
Q 1509 3213 1509 2338 
Q 1509 1453 1675 1090 
Q 1841 728 2228 728 
Q 2613 728 2778 1090 
Q 2944 1453 2944 2338 
z
M 4147 2328 
Q 4147 1169 3647 539 
Q 3147 -91 2228 -91 
Q 1306 -91 806 539 
Q 306 1169 306 2328 
Q 306 3491 806 4120 
Q 1306 4750 2228 4750 
Q 3147 4750 3647 4120 
Q 4147 3491 4147 2328 
z
" transform="scale(0.015625)"/>
      <path id="DejaVuSans-Bold-2e" d="M 653 1209 
L 1778 1209 
L 1778 0 
L 653 0 
L 653 1209 
z
" transform="scale(0.015625)"/>
      <path id="DejaVuSans-Bold-31" d="M 750 831 
L 1813 831 
L 1813 3847 
L 722 3622 
L 722 4441 
L 1806 4666 
L 2950 4666 
L 2950 831 
L 4013 831 
L 4013 0 
L 750 0 
L 750 831 
z
" transform="scale(0.015625)"/>
     </defs>
     <use xlink:href="#DejaVuSans-Bold-50"/>
     <use xlink:href="#DejaVuSans-Bold-20" transform="translate(73.291016 0)"/>
     <use xlink:href="#DejaVuSans-Bold-3c" transform="translate(108.105469 0)"/>
     <use xlink:href="#DejaVuSans-Bold-20" transform="translate(191.894531 0)"/>
     <use xlink:href="#DejaVuSans-Bold-30" transform="translate(226.708984 0)"/>
     <use xlink:href="#DejaVuSans-Bold-2e" transform="translate(296.289062 0)"/>
     <use xlink:href="#DejaVuSans-Bold-30" transform="translate(334.277344 0)"/>
     <use xlink:href="#DejaVuSans-Bold-30" transform="translate(403.857422 0)"/>
     <use xlink:href="#DejaVuSans-Bold-31" transform="translate(473.4375 0)"/>
    </g>
   </g>
  </g>
 </g>
 <defs>
  <clipPath id="p84d30992c6">
   <rect x="39.632812" y="7.2" width="238.27" height="171.16"/>
  </clipPath>
 </defs>
</svg>
