<?xml version="1.0" encoding="utf-8" standalone="no"?>
<!DOCTYPE svg PUBLIC "-//W3C//DTD SVG 1.1//EN"
  "http://www.w3.org/Graphics/SVG/1.1/DTD/svg11.dtd">
<svg xmlns:xlink="http://www.w3.org/1999/xlink" width="285.102812pt" height="213.012812pt" viewBox="0 0 285.102812 213.012812" xmlns="http://www.w3.org/2000/svg" version="1.1">
 <metadata>
  <rdf:RDF xmlns:dc="http://purl.org/dc/elements/1.1/" xmlns:cc="http://creativecommons.org/ns#" xmlns:rdf="http://www.w3.org/1999/02/22-rdf-syntax-ns#">
   <cc:Work>
    <dc:type rdf:resource="http://purl.org/dc/dcmitype/StillImage"/>
    <dc:date>2025-07-12T19:58:06.917846</dc:date>
    <dc:format>image/svg+xml</dc:format>
    <dc:creator>
     <cc:Agent>
      <dc:title>Matplotlib v3.10.3, https://matplotlib.org/</dc:title>
     </cc:Agent>
    </dc:creator>
   </cc:Work>
  </rdf:RDF>
 </metadata>
 <defs>
  <style type="text/css">*{stroke-linejoin: round; stroke-linecap: butt}</style>
 </defs>
 <g id="figure_1">
  <g id="patch_1">
   <path d="M 0 213.012812 
L 285.102812 213.012812 
L 285.102812 0 
L 0 0 
L 0 213.012812 
z
" style="fill: none"/>
  </g>
  <g id="axes_1">
   <g id="patch_2">
    <path d="M 39.632812 178.36 
L 277.902813 178.36 
L 277.902813 7.2 
L 39.632812 7.2 
L 39.632812 178.36 
z
" style="fill: none"/>
   </g>
   <g id="matplotlib.axis_1">
    <g id="xtick_1">
     <g id="line2d_1">
      <path d="M 39.632812 178.36 
L 39.632812 7.2 
" clip-path="url(#pd8f2cc1846)" style="fill: none; stroke: #cccccc; stroke-opacity: 0.3; stroke-width: 0.5; stroke-linecap: round"/>
     </g>
     <g id="line2d_2">
      <defs>
       <path id="mdfe19848eb" d="M 0 0 
L 0 3.5 
" style="stroke: #262626; stroke-width: 0.8"/>
      </defs>
      <g>
       <use xlink:href="#mdfe19848eb" x="39.632812" y="178.36" style="fill: #262626; stroke: #262626; stroke-width: 0.8"/>
      </g>
     </g>
     <g id="text_1">
      <!-- 0 -->
      <g style="fill: #262626" transform="translate(37.087812 191.43875) scale(0.08 -0.08)">
       <defs>
        <path id="DejaVuSans-30" d="M 2034 4250 
Q 1547 4250 1301 3770 
Q 1056 3291 1056 2328 
Q 1056 1369 1301 889 
Q 1547 409 2034 409 
Q 2525 409 2770 889 
Q 3016 1369 3016 2328 
Q 3016 3291 2770 3770 
Q 2525 4250 2034 4250 
z
M 2034 4750 
Q 2819 4750 3233 4129 
Q 3647 3509 3647 2328 
Q 3647 1150 3233 529 
Q 2819 -91 2034 -91 
Q 1250 -91 836 529 
Q 422 1150 422 2328 
Q 422 3509 836 4129 
Q 1250 4750 2034 4750 
z
" transform="scale(0.015625)"/>
       </defs>
       <use xlink:href="#DejaVuSans-30"/>
      </g>
     </g>
    </g>
    <g id="xtick_2">
     <g id="line2d_3">
      <path d="M 84.541119 178.36 
L 84.541119 7.2 
" clip-path="url(#pd8f2cc1846)" style="fill: none; stroke: #cccccc; stroke-opacity: 0.3; stroke-width: 0.5; stroke-linecap: round"/>
     </g>
     <g id="line2d_4">
      <g>
       <use xlink:href="#mdfe19848eb" x="84.541119" y="178.36" style="fill: #262626; stroke: #262626; stroke-width: 0.8"/>
      </g>
     </g>
     <g id="text_2">
      <!-- 1000 -->
      <g style="fill: #262626" transform="translate(74.361119 191.43875) scale(0.08 -0.08)">
       <defs>
        <path id="DejaVuSans-31" d="M 794 531 
L 1825 531 
L 1825 4091 
L 703 3866 
L 703 4441 
L 1819 4666 
L 2450 4666 
L 2450 531 
L 3481 531 
L 3481 0 
L 794 0 
L 794 531 
z
" transform="scale(0.015625)"/>
       </defs>
       <use xlink:href="#DejaVuSans-31"/>
       <use xlink:href="#DejaVuSans-30" transform="translate(63.623047 0)"/>
       <use xlink:href="#DejaVuSans-30" transform="translate(127.246094 0)"/>
       <use xlink:href="#DejaVuSans-30" transform="translate(190.869141 0)"/>
      </g>
     </g>
    </g>
    <g id="xtick_3">
     <g id="line2d_5">
      <path d="M 129.449425 178.36 
L 129.449425 7.2 
" clip-path="url(#pd8f2cc1846)" style="fill: none; stroke: #cccccc; stroke-opacity: 0.3; stroke-width: 0.5; stroke-linecap: round"/>
     </g>
     <g id="line2d_6">
      <g>
       <use xlink:href="#mdfe19848eb" x="129.449425" y="178.36" style="fill: #262626; stroke: #262626; stroke-width: 0.8"/>
      </g>
     </g>
     <g id="text_3">
      <!-- 2000 -->
      <g style="fill: #262626" transform="translate(119.269425 191.43875) scale(0.08 -0.08)">
       <defs>
        <path id="DejaVuSans-32" d="M 1228 531 
L 3431 531 
L 3431 0 
L 469 0 
L 469 531 
Q 828 903 1448 1529 
Q 2069 2156 2228 2338 
Q 2531 2678 2651 2914 
Q 2772 3150 2772 3378 
Q 2772 3750 2511 3984 
Q 2250 4219 1831 4219 
Q 1534 4219 1204 4116 
Q 875 4013 500 3803 
L 500 4441 
Q 881 4594 1212 4672 
Q 1544 4750 1819 4750 
Q 2544 4750 2975 4387 
Q 3406 4025 3406 3419 
Q 3406 3131 3298 2873 
Q 3191 2616 2906 2266 
Q 2828 2175 2409 1742 
Q 1991 1309 1228 531 
z
" transform="scale(0.015625)"/>
       </defs>
       <use xlink:href="#DejaVuSans-32"/>
       <use xlink:href="#DejaVuSans-30" transform="translate(63.623047 0)"/>
       <use xlink:href="#DejaVuSans-30" transform="translate(127.246094 0)"/>
       <use xlink:href="#DejaVuSans-30" transform="translate(190.869141 0)"/>
      </g>
     </g>
    </g>
    <g id="xtick_4">
     <g id="line2d_7">
      <path d="M 174.357731 178.36 
L 174.357731 7.2 
" clip-path="url(#pd8f2cc1846)" style="fill: none; stroke: #cccccc; stroke-opacity: 0.3; stroke-width: 0.5; stroke-linecap: round"/>
     </g>
     <g id="line2d_8">
      <g>
       <use xlink:href="#mdfe19848eb" x="174.357731" y="178.36" style="fill: #262626; stroke: #262626; stroke-width: 0.8"/>
      </g>
     </g>
     <g id="text_4">
      <!-- 3000 -->
      <g style="fill: #262626" transform="translate(164.177731 191.43875) scale(0.08 -0.08)">
       <defs>
        <path id="DejaVuSans-33" d="M 2597 2516 
Q 3050 2419 3304 2112 
Q 3559 1806 3559 1356 
Q 3559 666 3084 287 
Q 2609 -91 1734 -91 
Q 1441 -91 1130 -33 
Q 819 25 488 141 
L 488 750 
Q 750 597 1062 519 
Q 1375 441 1716 441 
Q 2309 441 2620 675 
Q 2931 909 2931 1356 
Q 2931 1769 2642 2001 
Q 2353 2234 1838 2234 
L 1294 2234 
L 1294 2753 
L 1863 2753 
Q 2328 2753 2575 2939 
Q 2822 3125 2822 3475 
Q 2822 3834 2567 4026 
Q 2313 4219 1838 4219 
Q 1578 4219 1281 4162 
Q 984 4106 628 3988 
L 628 4550 
Q 988 4650 1302 4700 
Q 1616 4750 1894 4750 
Q 2613 4750 3031 4423 
Q 3450 4097 3450 3541 
Q 3450 3153 3228 2886 
Q 3006 2619 2597 2516 
z
" transform="scale(0.015625)"/>
       </defs>
       <use xlink:href="#DejaVuSans-33"/>
       <use xlink:href="#DejaVuSans-30" transform="translate(63.623047 0)"/>
       <use xlink:href="#DejaVuSans-30" transform="translate(127.246094 0)"/>
       <use xlink:href="#DejaVuSans-30" transform="translate(190.869141 0)"/>
      </g>
     </g>
    </g>
    <g id="xtick_5">
     <g id="line2d_9">
      <path d="M 219.266037 178.36 
L 219.266037 7.2 
" clip-path="url(#pd8f2cc1846)" style="fill: none; stroke: #cccccc; stroke-opacity: 0.3; stroke-width: 0.5; stroke-linecap: round"/>
     </g>
     <g id="line2d_10">
      <g>
       <use xlink:href="#mdfe19848eb" x="219.266037" y="178.36" style="fill: #262626; stroke: #262626; stroke-width: 0.8"/>
      </g>
     </g>
     <g id="text_5">
      <!-- 4000 -->
      <g style="fill: #262626" transform="translate(209.086037 191.43875) scale(0.08 -0.08)">
       <defs>
        <path id="DejaVuSans-34" d="M 2419 4116 
L 825 1625 
L 2419 1625 
L 2419 4116 
z
M 2253 4666 
L 3047 4666 
L 3047 1625 
L 3713 1625 
L 3713 1100 
L 3047 1100 
L 3047 0 
L 2419 0 
L 2419 1100 
L 313 1100 
L 313 1709 
L 2253 4666 
z
" transform="scale(0.015625)"/>
       </defs>
       <use xlink:href="#DejaVuSans-34"/>
       <use xlink:href="#DejaVuSans-30" transform="translate(63.623047 0)"/>
       <use xlink:href="#DejaVuSans-30" transform="translate(127.246094 0)"/>
       <use xlink:href="#DejaVuSans-30" transform="translate(190.869141 0)"/>
      </g>
     </g>
    </g>
    <g id="xtick_6">
     <g id="line2d_11">
      <path d="M 264.174343 178.36 
L 264.174343 7.2 
" clip-path="url(#pd8f2cc1846)" style="fill: none; stroke: #cccccc; stroke-opacity: 0.3; stroke-width: 0.5; stroke-linecap: round"/>
     </g>
     <g id="line2d_12">
      <g>
       <use xlink:href="#mdfe19848eb" x="264.174343" y="178.36" style="fill: #262626; stroke: #262626; stroke-width: 0.8"/>
      </g>
     </g>
     <g id="text_6">
      <!-- 5000 -->
      <g style="fill: #262626" transform="translate(253.994343 191.43875) scale(0.08 -0.08)">
       <defs>
        <path id="DejaVuSans-35" d="M 691 4666 
L 3169 4666 
L 3169 4134 
L 1269 4134 
L 1269 2991 
Q 1406 3038 1543 3061 
Q 1681 3084 1819 3084 
Q 2600 3084 3056 2656 
Q 3513 2228 3513 1497 
Q 3513 744 3044 326 
Q 2575 -91 1722 -91 
Q 1428 -91 1123 -41 
Q 819 9 494 109 
L 494 744 
Q 775 591 1075 516 
Q 1375 441 1709 441 
Q 2250 441 2565 725 
Q 2881 1009 2881 1497 
Q 2881 1984 2565 2268 
Q 2250 2553 1709 2553 
Q 1456 2553 1204 2497 
Q 953 2441 691 2322 
L 691 4666 
z
" transform="scale(0.015625)"/>
       </defs>
       <use xlink:href="#DejaVuSans-35"/>
       <use xlink:href="#DejaVuSans-30" transform="translate(63.623047 0)"/>
       <use xlink:href="#DejaVuSans-30" transform="translate(127.246094 0)"/>
       <use xlink:href="#DejaVuSans-30" transform="translate(190.869141 0)"/>
      </g>
     </g>
    </g>
    <g id="text_7">
     <!-- Time (days) -->
     <g style="fill: #262626" transform="translate(132.193906 203.941094) scale(0.09 -0.09)">
      <defs>
       <path id="DejaVuSans-54" d="M -19 4666 
L 3928 4666 
L 3928 4134 
L 2272 4134 
L 2272 0 
L 1638 0 
L 1638 4134 
L -19 4134 
L -19 4666 
z
" transform="scale(0.015625)"/>
       <path id="DejaVuSans-69" d="M 603 3500 
L 1178 3500 
L 1178 0 
L 603 0 
L 603 3500 
z
M 603 4863 
L 1178 4863 
L 1178 4134 
L 603 4134 
L 603 4863 
z
" transform="scale(0.015625)"/>
       <path id="DejaVuSans-6d" d="M 3328 2828 
Q 3544 3216 3844 3400 
Q 4144 3584 4550 3584 
Q 5097 3584 5394 3201 
Q 5691 2819 5691 2113 
L 5691 0 
L 5113 0 
L 5113 2094 
Q 5113 2597 4934 2840 
Q 4756 3084 4391 3084 
Q 3944 3084 3684 2787 
Q 3425 2491 3425 1978 
L 3425 0 
L 2847 0 
L 2847 2094 
Q 2847 2600 2669 2842 
Q 2491 3084 2119 3084 
Q 1678 3084 1418 2786 
Q 1159 2488 1159 1978 
L 1159 0 
L 581 0 
L 581 3500 
L 1159 3500 
L 1159 2956 
Q 1356 3278 1631 3431 
Q 1906 3584 2284 3584 
Q 2666 3584 2933 3390 
Q 3200 3197 3328 2828 
z
" transform="scale(0.015625)"/>
       <path id="DejaVuSans-65" d="M 3597 1894 
L 3597 1613 
L 953 1613 
Q 991 1019 1311 708 
Q 1631 397 2203 397 
Q 2534 397 2845 478 
Q 3156 559 3463 722 
L 3463 178 
Q 3153 47 2828 -22 
Q 2503 -91 2169 -91 
Q 1331 -91 842 396 
Q 353 884 353 1716 
Q 353 2575 817 3079 
Q 1281 3584 2069 3584 
Q 2775 3584 3186 3129 
Q 3597 2675 3597 1894 
z
M 3022 2063 
Q 3016 2534 2758 2815 
Q 2500 3097 2075 3097 
Q 1594 3097 1305 2825 
Q 1016 2553 972 2059 
L 3022 2063 
z
" transform="scale(0.015625)"/>
       <path id="DejaVuSans-20" transform="scale(0.015625)"/>
       <path id="DejaVuSans-28" d="M 1984 4856 
Q 1566 4138 1362 3434 
Q 1159 2731 1159 2009 
Q 1159 1288 1364 580 
Q 1569 -128 1984 -844 
L 1484 -844 
Q 1016 -109 783 600 
Q 550 1309 550 2009 
Q 550 2706 781 3412 
Q 1013 4119 1484 4856 
L 1984 4856 
z
" transform="scale(0.015625)"/>
       <path id="DejaVuSans-64" d="M 2906 2969 
L 2906 4863 
L 3481 4863 
L 3481 0 
L 2906 0 
L 2906 525 
Q 2725 213 2448 61 
Q 2172 -91 1784 -91 
Q 1150 -91 751 415 
Q 353 922 353 1747 
Q 353 2572 751 3078 
Q 1150 3584 1784 3584 
Q 2172 3584 2448 3432 
Q 2725 3281 2906 2969 
z
M 947 1747 
Q 947 1113 1208 752 
Q 1469 391 1925 391 
Q 2381 391 2643 752 
Q 2906 1113 2906 1747 
Q 2906 2381 2643 2742 
Q 2381 3103 1925 3103 
Q 1469 3103 1208 2742 
Q 947 2381 947 1747 
z
" transform="scale(0.015625)"/>
       <path id="DejaVuSans-61" d="M 2194 1759 
Q 1497 1759 1228 1600 
Q 959 1441 959 1056 
Q 959 750 1161 570 
Q 1363 391 1709 391 
Q 2188 391 2477 730 
Q 2766 1069 2766 1631 
L 2766 1759 
L 2194 1759 
z
M 3341 1997 
L 3341 0 
L 2766 0 
L 2766 531 
Q 2569 213 2275 61 
Q 1981 -91 1556 -91 
Q 1019 -91 701 211 
Q 384 513 384 1019 
Q 384 1609 779 1909 
Q 1175 2209 1959 2209 
L 2766 2209 
L 2766 2266 
Q 2766 2663 2505 2880 
Q 2244 3097 1772 3097 
Q 1472 3097 1187 3025 
Q 903 2953 641 2809 
L 641 3341 
Q 956 3463 1253 3523 
Q 1550 3584 1831 3584 
Q 2591 3584 2966 3190 
Q 3341 2797 3341 1997 
z
" transform="scale(0.015625)"/>
       <path id="DejaVuSans-79" d="M 2059 -325 
Q 1816 -950 1584 -1140 
Q 1353 -1331 966 -1331 
L 506 -1331 
L 506 -850 
L 844 -850 
Q 1081 -850 1212 -737 
Q 1344 -625 1503 -206 
L 1606 56 
L 191 3500 
L 800 3500 
L 1894 763 
L 2988 3500 
L 3597 3500 
L 2059 -325 
z
" transform="scale(0.015625)"/>
       <path id="DejaVuSans-73" d="M 2834 3397 
L 2834 2853 
Q 2591 2978 2328 3040 
Q 2066 3103 1784 3103 
Q 1356 3103 1142 2972 
Q 928 2841 928 2578 
Q 928 2378 1081 2264 
Q 1234 2150 1697 2047 
L 1894 2003 
Q 2506 1872 2764 1633 
Q 3022 1394 3022 966 
Q 3022 478 2636 193 
Q 2250 -91 1575 -91 
Q 1294 -91 989 -36 
Q 684 19 347 128 
L 347 722 
Q 666 556 975 473 
Q 1284 391 1588 391 
Q 1994 391 2212 530 
Q 2431 669 2431 922 
Q 2431 1156 2273 1281 
Q 2116 1406 1581 1522 
L 1381 1569 
Q 847 1681 609 1914 
Q 372 2147 372 2553 
Q 372 3047 722 3315 
Q 1072 3584 1716 3584 
Q 2034 3584 2315 3537 
Q 2597 3491 2834 3397 
z
" transform="scale(0.015625)"/>
       <path id="DejaVuSans-29" d="M 513 4856 
L 1013 4856 
Q 1481 4119 1714 3412 
Q 1947 2706 1947 2009 
Q 1947 1309 1714 600 
Q 1481 -109 1013 -844 
L 513 -844 
Q 928 -128 1133 580 
Q 1338 1288 1338 2009 
Q 1338 2731 1133 3434 
Q 928 4138 513 4856 
z
" transform="scale(0.015625)"/>
      </defs>
      <use xlink:href="#DejaVuSans-54"/>
      <use xlink:href="#DejaVuSans-69" transform="translate(57.958984 0)"/>
      <use xlink:href="#DejaVuSans-6d" transform="translate(85.742188 0)"/>
      <use xlink:href="#DejaVuSans-65" transform="translate(183.154297 0)"/>
      <use xlink:href="#DejaVuSans-20" transform="translate(244.677734 0)"/>
      <use xlink:href="#DejaVuSans-28" transform="translate(276.464844 0)"/>
      <use xlink:href="#DejaVuSans-64" transform="translate(315.478516 0)"/>
      <use xlink:href="#DejaVuSans-61" transform="translate(378.955078 0)"/>
      <use xlink:href="#DejaVuSans-79" transform="translate(440.234375 0)"/>
      <use xlink:href="#DejaVuSans-73" transform="translate(499.414062 0)"/>
      <use xlink:href="#DejaVuSans-29" transform="translate(551.513672 0)"/>
     </g>
    </g>
   </g>
   <g id="matplotlib.axis_2">
    <g id="ytick_1">
     <g id="line2d_13">
      <path d="M 39.632812 178.36 
L 277.902813 178.36 
" clip-path="url(#pd8f2cc1846)" style="fill: none; stroke: #cccccc; stroke-opacity: 0.3; stroke-width: 0.5; stroke-linecap: round"/>
     </g>
     <g id="line2d_14">
      <defs>
       <path id="ma3dc866736" d="M 0 0 
L -3.5 0 
" style="stroke: #262626; stroke-width: 0.8"/>
      </defs>
      <g>
       <use xlink:href="#ma3dc866736" x="39.632812" y="178.36" style="fill: #262626; stroke: #262626; stroke-width: 0.8"/>
      </g>
     </g>
     <g id="text_8">
      <!-- 0.0 -->
      <g style="fill: #262626" transform="translate(19.910312 181.399375) scale(0.08 -0.08)">
       <defs>
        <path id="DejaVuSans-2e" d="M 684 794 
L 1344 794 
L 1344 0 
L 684 0 
L 684 794 
z
" transform="scale(0.015625)"/>
       </defs>
       <use xlink:href="#DejaVuSans-30"/>
       <use xlink:href="#DejaVuSans-2e" transform="translate(63.623047 0)"/>
       <use xlink:href="#DejaVuSans-30" transform="translate(95.410156 0)"/>
      </g>
     </g>
    </g>
    <g id="ytick_2">
     <g id="line2d_15">
      <path d="M 39.632812 145.758095 
L 277.902813 145.758095 
" clip-path="url(#pd8f2cc1846)" style="fill: none; stroke: #cccccc; stroke-opacity: 0.3; stroke-width: 0.5; stroke-linecap: round"/>
     </g>
     <g id="line2d_16">
      <g>
       <use xlink:href="#ma3dc866736" x="39.632812" y="145.758095" style="fill: #262626; stroke: #262626; stroke-width: 0.8"/>
      </g>
     </g>
     <g id="text_9">
      <!-- 0.2 -->
      <g style="fill: #262626" transform="translate(19.910312 148.79747) scale(0.08 -0.08)">
       <use xlink:href="#DejaVuSans-30"/>
       <use xlink:href="#DejaVuSans-2e" transform="translate(63.623047 0)"/>
       <use xlink:href="#DejaVuSans-32" transform="translate(95.410156 0)"/>
      </g>
     </g>
    </g>
    <g id="ytick_3">
     <g id="line2d_17">
      <path d="M 39.632812 113.15619 
L 277.902813 113.15619 
" clip-path="url(#pd8f2cc1846)" style="fill: none; stroke: #cccccc; stroke-opacity: 0.3; stroke-width: 0.5; stroke-linecap: round"/>
     </g>
     <g id="line2d_18">
      <g>
       <use xlink:href="#ma3dc866736" x="39.632812" y="113.15619" style="fill: #262626; stroke: #262626; stroke-width: 0.8"/>
      </g>
     </g>
     <g id="text_10">
      <!-- 0.4 -->
      <g style="fill: #262626" transform="translate(19.910312 116.195565) scale(0.08 -0.08)">
       <use xlink:href="#DejaVuSans-30"/>
       <use xlink:href="#DejaVuSans-2e" transform="translate(63.623047 0)"/>
       <use xlink:href="#DejaVuSans-34" transform="translate(95.410156 0)"/>
      </g>
     </g>
    </g>
    <g id="ytick_4">
     <g id="line2d_19">
      <path d="M 39.632812 80.554286 
L 277.902813 80.554286 
" clip-path="url(#pd8f2cc1846)" style="fill: none; stroke: #cccccc; stroke-opacity: 0.3; stroke-width: 0.5; stroke-linecap: round"/>
     </g>
     <g id="line2d_20">
      <g>
       <use xlink:href="#ma3dc866736" x="39.632812" y="80.554286" style="fill: #262626; stroke: #262626; stroke-width: 0.8"/>
      </g>
     </g>
     <g id="text_11">
      <!-- 0.6 -->
      <g style="fill: #262626" transform="translate(19.910312 83.593661) scale(0.08 -0.08)">
       <defs>
        <path id="DejaVuSans-36" d="M 2113 2584 
Q 1688 2584 1439 2293 
Q 1191 2003 1191 1497 
Q 1191 994 1439 701 
Q 1688 409 2113 409 
Q 2538 409 2786 701 
Q 3034 994 3034 1497 
Q 3034 2003 2786 2293 
Q 2538 2584 2113 2584 
z
M 3366 4563 
L 3366 3988 
Q 3128 4100 2886 4159 
Q 2644 4219 2406 4219 
Q 1781 4219 1451 3797 
Q 1122 3375 1075 2522 
Q 1259 2794 1537 2939 
Q 1816 3084 2150 3084 
Q 2853 3084 3261 2657 
Q 3669 2231 3669 1497 
Q 3669 778 3244 343 
Q 2819 -91 2113 -91 
Q 1303 -91 875 529 
Q 447 1150 447 2328 
Q 447 3434 972 4092 
Q 1497 4750 2381 4750 
Q 2619 4750 2861 4703 
Q 3103 4656 3366 4563 
z
" transform="scale(0.015625)"/>
       </defs>
       <use xlink:href="#DejaVuSans-30"/>
       <use xlink:href="#DejaVuSans-2e" transform="translate(63.623047 0)"/>
       <use xlink:href="#DejaVuSans-36" transform="translate(95.410156 0)"/>
      </g>
     </g>
    </g>
    <g id="ytick_5">
     <g id="line2d_21">
      <path d="M 39.632812 47.952381 
L 277.902813 47.952381 
" clip-path="url(#pd8f2cc1846)" style="fill: none; stroke: #cccccc; stroke-opacity: 0.3; stroke-width: 0.5; stroke-linecap: round"/>
     </g>
     <g id="line2d_22">
      <g>
       <use xlink:href="#ma3dc866736" x="39.632812" y="47.952381" style="fill: #262626; stroke: #262626; stroke-width: 0.8"/>
      </g>
     </g>
     <g id="text_12">
      <!-- 0.8 -->
      <g style="fill: #262626" transform="translate(19.910312 50.991756) scale(0.08 -0.08)">
       <defs>
        <path id="DejaVuSans-38" d="M 2034 2216 
Q 1584 2216 1326 1975 
Q 1069 1734 1069 1313 
Q 1069 891 1326 650 
Q 1584 409 2034 409 
Q 2484 409 2743 651 
Q 3003 894 3003 1313 
Q 3003 1734 2745 1975 
Q 2488 2216 2034 2216 
z
M 1403 2484 
Q 997 2584 770 2862 
Q 544 3141 544 3541 
Q 544 4100 942 4425 
Q 1341 4750 2034 4750 
Q 2731 4750 3128 4425 
Q 3525 4100 3525 3541 
Q 3525 3141 3298 2862 
Q 3072 2584 2669 2484 
Q 3125 2378 3379 2068 
Q 3634 1759 3634 1313 
Q 3634 634 3220 271 
Q 2806 -91 2034 -91 
Q 1263 -91 848 271 
Q 434 634 434 1313 
Q 434 1759 690 2068 
Q 947 2378 1403 2484 
z
M 1172 3481 
Q 1172 3119 1398 2916 
Q 1625 2713 2034 2713 
Q 2441 2713 2670 2916 
Q 2900 3119 2900 3481 
Q 2900 3844 2670 4047 
Q 2441 4250 2034 4250 
Q 1625 4250 1398 4047 
Q 1172 3844 1172 3481 
z
" transform="scale(0.015625)"/>
       </defs>
       <use xlink:href="#DejaVuSans-30"/>
       <use xlink:href="#DejaVuSans-2e" transform="translate(63.623047 0)"/>
       <use xlink:href="#DejaVuSans-38" transform="translate(95.410156 0)"/>
      </g>
     </g>
    </g>
    <g id="ytick_6">
     <g id="line2d_23">
      <path d="M 39.632812 15.350476 
L 277.902813 15.350476 
" clip-path="url(#pd8f2cc1846)" style="fill: none; stroke: #cccccc; stroke-opacity: 0.3; stroke-width: 0.5; stroke-linecap: round"/>
     </g>
     <g id="line2d_24">
      <g>
       <use xlink:href="#ma3dc866736" x="39.632812" y="15.350476" style="fill: #262626; stroke: #262626; stroke-width: 0.8"/>
      </g>
     </g>
     <g id="text_13">
      <!-- 1.0 -->
      <g style="fill: #262626" transform="translate(19.910312 18.389851) scale(0.08 -0.08)">
       <use xlink:href="#DejaVuSans-31"/>
       <use xlink:href="#DejaVuSans-2e" transform="translate(63.623047 0)"/>
       <use xlink:href="#DejaVuSans-30" transform="translate(95.410156 0)"/>
      </g>
     </g>
    </g>
    <g id="text_14">
     <!-- Survival probability -->
     <g style="fill: #262626" transform="translate(14.038594 136.361797) rotate(-90) scale(0.09 -0.09)">
      <defs>
       <path id="DejaVuSans-53" d="M 3425 4513 
L 3425 3897 
Q 3066 4069 2747 4153 
Q 2428 4238 2131 4238 
Q 1616 4238 1336 4038 
Q 1056 3838 1056 3469 
Q 1056 3159 1242 3001 
Q 1428 2844 1947 2747 
L 2328 2669 
Q 3034 2534 3370 2195 
Q 3706 1856 3706 1288 
Q 3706 609 3251 259 
Q 2797 -91 1919 -91 
Q 1588 -91 1214 -16 
Q 841 59 441 206 
L 441 856 
Q 825 641 1194 531 
Q 1563 422 1919 422 
Q 2459 422 2753 634 
Q 3047 847 3047 1241 
Q 3047 1584 2836 1778 
Q 2625 1972 2144 2069 
L 1759 2144 
Q 1053 2284 737 2584 
Q 422 2884 422 3419 
Q 422 4038 858 4394 
Q 1294 4750 2059 4750 
Q 2388 4750 2728 4690 
Q 3069 4631 3425 4513 
z
" transform="scale(0.015625)"/>
       <path id="DejaVuSans-75" d="M 544 1381 
L 544 3500 
L 1119 3500 
L 1119 1403 
Q 1119 906 1312 657 
Q 1506 409 1894 409 
Q 2359 409 2629 706 
Q 2900 1003 2900 1516 
L 2900 3500 
L 3475 3500 
L 3475 0 
L 2900 0 
L 2900 538 
Q 2691 219 2414 64 
Q 2138 -91 1772 -91 
Q 1169 -91 856 284 
Q 544 659 544 1381 
z
M 1991 3584 
L 1991 3584 
z
" transform="scale(0.015625)"/>
       <path id="DejaVuSans-72" d="M 2631 2963 
Q 2534 3019 2420 3045 
Q 2306 3072 2169 3072 
Q 1681 3072 1420 2755 
Q 1159 2438 1159 1844 
L 1159 0 
L 581 0 
L 581 3500 
L 1159 3500 
L 1159 2956 
Q 1341 3275 1631 3429 
Q 1922 3584 2338 3584 
Q 2397 3584 2469 3576 
Q 2541 3569 2628 3553 
L 2631 2963 
z
" transform="scale(0.015625)"/>
       <path id="DejaVuSans-76" d="M 191 3500 
L 800 3500 
L 1894 563 
L 2988 3500 
L 3597 3500 
L 2284 0 
L 1503 0 
L 191 3500 
z
" transform="scale(0.015625)"/>
       <path id="DejaVuSans-6c" d="M 603 4863 
L 1178 4863 
L 1178 0 
L 603 0 
L 603 4863 
z
" transform="scale(0.015625)"/>
       <path id="DejaVuSans-70" d="M 1159 525 
L 1159 -1331 
L 581 -1331 
L 581 3500 
L 1159 3500 
L 1159 2969 
Q 1341 3281 1617 3432 
Q 1894 3584 2278 3584 
Q 2916 3584 3314 3078 
Q 3713 2572 3713 1747 
Q 3713 922 3314 415 
Q 2916 -91 2278 -91 
Q 1894 -91 1617 61 
Q 1341 213 1159 525 
z
M 3116 1747 
Q 3116 2381 2855 2742 
Q 2594 3103 2138 3103 
Q 1681 3103 1420 2742 
Q 1159 2381 1159 1747 
Q 1159 1113 1420 752 
Q 1681 391 2138 391 
Q 2594 391 2855 752 
Q 3116 1113 3116 1747 
z
" transform="scale(0.015625)"/>
       <path id="DejaVuSans-6f" d="M 1959 3097 
Q 1497 3097 1228 2736 
Q 959 2375 959 1747 
Q 959 1119 1226 758 
Q 1494 397 1959 397 
Q 2419 397 2687 759 
Q 2956 1122 2956 1747 
Q 2956 2369 2687 2733 
Q 2419 3097 1959 3097 
z
M 1959 3584 
Q 2709 3584 3137 3096 
Q 3566 2609 3566 1747 
Q 3566 888 3137 398 
Q 2709 -91 1959 -91 
Q 1206 -91 779 398 
Q 353 888 353 1747 
Q 353 2609 779 3096 
Q 1206 3584 1959 3584 
z
" transform="scale(0.015625)"/>
       <path id="DejaVuSans-62" d="M 3116 1747 
Q 3116 2381 2855 2742 
Q 2594 3103 2138 3103 
Q 1681 3103 1420 2742 
Q 1159 2381 1159 1747 
Q 1159 1113 1420 752 
Q 1681 391 2138 391 
Q 2594 391 2855 752 
Q 3116 1113 3116 1747 
z
M 1159 2969 
Q 1341 3281 1617 3432 
Q 1894 3584 2278 3584 
Q 2916 3584 3314 3078 
Q 3713 2572 3713 1747 
Q 3713 922 3314 415 
Q 2916 -91 2278 -91 
Q 1894 -91 1617 61 
Q 1341 213 1159 525 
L 1159 0 
L 581 0 
L 581 4863 
L 1159 4863 
L 1159 2969 
z
" transform="scale(0.015625)"/>
       <path id="DejaVuSans-74" d="M 1172 4494 
L 1172 3500 
L 2356 3500 
L 2356 3053 
L 1172 3053 
L 1172 1153 
Q 1172 725 1289 603 
Q 1406 481 1766 481 
L 2356 481 
L 2356 0 
L 1766 0 
Q 1100 0 847 248 
Q 594 497 594 1153 
L 594 3053 
L 172 3053 
L 172 3500 
L 594 3500 
L 594 4494 
L 1172 4494 
z
" transform="scale(0.015625)"/>
      </defs>
      <use xlink:href="#DejaVuSans-53"/>
      <use xlink:href="#DejaVuSans-75" transform="translate(63.476562 0)"/>
      <use xlink:href="#DejaVuSans-72" transform="translate(126.855469 0)"/>
      <use xlink:href="#DejaVuSans-76" transform="translate(167.96875 0)"/>
      <use xlink:href="#DejaVuSans-69" transform="translate(227.148438 0)"/>
      <use xlink:href="#DejaVuSans-76" transform="translate(254.931641 0)"/>
      <use xlink:href="#DejaVuSans-61" transform="translate(314.111328 0)"/>
      <use xlink:href="#DejaVuSans-6c" transform="translate(375.390625 0)"/>
      <use xlink:href="#DejaVuSans-20" transform="translate(403.173828 0)"/>
      <use xlink:href="#DejaVuSans-70" transform="translate(434.960938 0)"/>
      <use xlink:href="#DejaVuSans-72" transform="translate(498.4375 0)"/>
      <use xlink:href="#DejaVuSans-6f" transform="translate(537.300781 0)"/>
      <use xlink:href="#DejaVuSans-62" transform="translate(598.482422 0)"/>
      <use xlink:href="#DejaVuSans-61" transform="translate(661.958984 0)"/>
      <use xlink:href="#DejaVuSans-62" transform="translate(723.238281 0)"/>
      <use xlink:href="#DejaVuSans-69" transform="translate(786.714844 0)"/>
      <use xlink:href="#DejaVuSans-6c" transform="translate(814.498047 0)"/>
      <use xlink:href="#DejaVuSans-69" transform="translate(842.28125 0)"/>
      <use xlink:href="#DejaVuSans-74" transform="translate(870.064453 0)"/>
      <use xlink:href="#DejaVuSans-79" transform="translate(909.273438 0)"/>
     </g>
    </g>
   </g>
   <g id="FillBetweenPolyCollection_1">
    <defs>
     <path id="m36762c4d92" d="M 39.632812 -197.550091 
L 39.632812 -192.100649 
L 40.396254 -192.100649 
L 40.396254 -192.100649 
L 40.48607 -192.100649 
L 40.48607 -191.380558 
L 40.530979 -191.380558 
L 40.530979 -190.355276 
L 41.29442 -190.355276 
L 41.29442 -190.355276 
L 42.147678 -190.355276 
L 42.147678 -189.283814 
L 42.192586 -189.283814 
L 42.192586 -188.217737 
L 42.282403 -188.217737 
L 42.282403 -188.217737 
L 42.417127 -188.217737 
L 42.417127 -187.155518 
L 42.506944 -187.155518 
L 42.506944 -187.155518 
L 42.551852 -187.155518 
L 42.551852 -186.099623 
L 42.641669 -186.099623 
L 42.641669 -186.099623 
L 42.686577 -186.099623 
L 42.686577 -185.050118 
L 43.045844 -185.050118 
L 43.045844 -184.014383 
L 43.40511 -184.014383 
L 43.40511 -184.014383 
L 43.584743 -184.014383 
L 43.584743 -182.983017 
L 43.629652 -182.983017 
L 43.629652 -182.983017 
L 43.809285 -182.983017 
L 43.809285 -181.955277 
L 44.033827 -181.955277 
L 44.033827 -180.938091 
L 44.078735 -180.938091 
L 44.078735 -179.930351 
L 44.572726 -179.930351 
L 44.572726 -179.930351 
L 44.887084 -179.930351 
L 44.887084 -179.930351 
L 44.931993 -179.930351 
L 44.931993 -178.916259 
L 46.099609 -178.916259 
L 46.099609 -177.910544 
L 46.32415 -177.910544 
L 46.32415 -176.91245 
L 46.548692 -176.91245 
L 46.548692 -175.921338 
L 46.952866 -175.921338 
L 46.952866 -174.936661 
L 47.401949 -174.936661 
L 47.401949 -173.950756 
L 48.030666 -173.950756 
L 48.030666 -173.950756 
L 48.120482 -173.950756 
L 48.120482 -173.950756 
L 48.210299 -173.950756 
L 48.210299 -172.956022 
L 48.614474 -172.956022 
L 48.614474 -170.983425 
L 49.108465 -170.983425 
L 49.108465 -170.004836 
L 49.198282 -170.004836 
L 49.198282 -169.030974 
L 49.333007 -169.030974 
L 49.333007 -168.061571 
L 49.51264 -168.061571 
L 49.51264 -167.096389 
L 50.05154 -167.096389 
L 50.05154 -165.177842 
L 50.276081 -165.177842 
L 50.276081 -164.224107 
L 50.680256 -164.224107 
L 50.680256 -163.273845 
L 50.859889 -163.273845 
L 50.859889 -162.326908 
L 50.904797 -162.326908 
L 50.904797 -162.326908 
L 50.994614 -162.326908 
L 50.994614 -161.375974 
L 51.039522 -161.375974 
L 51.039522 -160.428212 
L 51.219155 -160.428212 
L 51.219155 -159.483501 
L 51.847872 -159.483501 
L 51.847872 -158.541729 
L 51.89278 -158.541729 
L 51.89278 -157.602791 
L 51.937688 -157.602791 
L 51.937688 -156.666592 
L 52.117322 -156.666592 
L 52.117322 -155.733042 
L 52.835855 -155.733042 
L 52.835855 -153.873565 
L 54.048379 -153.873565 
L 54.048379 -152.947488 
L 54.183104 -152.947488 
L 54.183104 -152.023759 
L 54.362737 -152.023759 
L 54.362737 -151.102317 
L 54.407645 -151.102317 
L 54.407645 -150.183101 
L 54.452554 -150.183101 
L 54.452554 -150.183101 
L 55.08127 -150.183101 
L 55.08127 -149.258619 
L 55.126178 -149.258619 
L 55.126178 -149.258619 
L 55.620169 -149.258619 
L 55.620169 -148.328755 
L 55.754894 -148.328755 
L 55.754894 -148.328755 
L 55.844711 -148.328755 
L 55.844711 -148.328755 
L 55.889619 -148.328755 
L 55.889619 -147.385538 
L 55.979436 -147.385538 
L 55.979436 -146.44464 
L 56.159069 -146.44464 
L 56.159069 -146.44464 
L 56.248886 -146.44464 
L 56.248886 -146.44464 
L 56.338702 -146.44464 
L 56.338702 -146.44464 
L 56.518336 -146.44464 
L 56.518336 -146.44464 
L 56.787785 -146.44464 
L 56.787785 -146.44464 
L 56.967419 -146.44464 
L 56.967419 -145.455759 
L 57.057235 -145.455759 
L 57.057235 -144.46961 
L 57.102144 -144.46961 
L 57.102144 -144.46961 
L 57.326685 -144.46961 
L 57.326685 -144.46961 
L 57.596135 -144.46961 
L 57.596135 -143.46807 
L 57.865585 -143.46807 
L 57.865585 -142.469312 
L 57.955401 -142.469312 
L 57.955401 -141.473261 
L 58.179943 -141.473261 
L 58.179943 -140.479849 
L 58.404484 -140.479849 
L 58.404484 -139.48901 
L 58.718843 -139.48901 
L 58.718843 -139.48901 
L 58.853568 -139.48901 
L 58.853568 -139.48901 
L 59.078109 -139.48901 
L 59.078109 -139.48901 
L 59.123017 -139.48901 
L 59.123017 -138.461803 
L 60.021183 -138.461803 
L 60.021183 -137.437452 
L 60.066092 -137.437452 
L 60.066092 -137.437452 
L 60.290633 -137.437452 
L 60.290633 -137.437452 
L 60.604991 -137.437452 
L 60.604991 -135.355745 
L 60.694808 -135.355745 
L 60.694808 -135.355745 
L 60.91935 -135.355745 
L 60.91935 -134.308439 
L 60.964258 -134.308439 
L 60.964258 -134.308439 
L 61.054075 -134.308439 
L 61.054075 -134.308439 
L 61.188799 -134.308439 
L 61.188799 -134.308439 
L 61.233708 -134.308439 
L 61.233708 -134.308439 
L 61.413341 -134.308439 
L 61.413341 -134.308439 
L 61.458249 -134.308439 
L 61.458249 -133.194061 
L 61.682791 -133.194061 
L 61.682791 -133.194061 
L 61.862424 -133.194061 
L 61.862424 -132.070701 
L 62.22169 -132.070701 
L 62.22169 -132.070701 
L 62.401324 -132.070701 
L 62.401324 -132.070701 
L 62.446232 -132.070701 
L 62.446232 -130.924802 
L 62.536049 -130.924802 
L 62.536049 -129.769182 
L 63.074948 -129.769182 
L 63.074948 -128.617544 
L 63.703665 -128.617544 
L 63.703665 -127.469783 
L 63.973114 -127.469783 
L 63.973114 -127.469783 
L 64.152748 -127.469783 
L 64.152748 -127.469783 
L 64.197656 -127.469783 
L 64.197656 -125.06841 
L 64.332381 -125.06841 
L 64.332381 -123.874255 
L 64.781464 -123.874255 
L 64.781464 -123.874255 
L 64.871281 -123.874255 
L 64.871281 -123.874255 
L 65.006005 -123.874255 
L 65.006005 -122.65197 
L 65.320364 -122.65197 
L 65.320364 -122.65197 
L 65.455089 -122.65197 
L 65.455089 -121.417282 
L 65.544905 -121.417282 
L 65.544905 -120.187238 
L 66.038897 -120.187238 
L 66.038897 -120.187238 
L 66.128713 -120.187238 
L 66.128713 -120.187238 
L 67.026879 -120.187238 
L 67.026879 -120.187238 
L 67.341237 -120.187238 
L 67.341237 -118.907278 
L 67.610687 -118.907278 
L 67.610687 -117.632493 
L 67.925045 -117.632493 
L 67.925045 -116.362757 
L 68.05977 -116.362757 
L 68.05977 -116.362757 
L 68.194495 -116.362757 
L 68.194495 -116.362757 
L 68.284312 -116.362757 
L 68.284312 -116.362757 
L 68.374128 -116.362757 
L 68.374128 -116.362757 
L 68.463945 -116.362757 
L 68.463945 -116.362757 
L 68.733395 -116.362757 
L 68.733395 -116.362757 
L 69.496836 -116.362757 
L 69.496836 -114.970432 
L 70.395002 -114.970432 
L 70.395002 -113.560969 
L 70.619544 -113.560969 
L 70.619544 -112.158487 
L 70.888994 -112.158487 
L 70.888994 -110.762801 
L 71.023719 -110.762801 
L 71.023719 -110.762801 
L 71.068627 -110.762801 
L 71.068627 -110.762801 
L 71.338077 -110.762801 
L 71.338077 -109.322077 
L 71.607526 -109.322077 
L 71.607526 -107.888699 
L 71.921885 -107.888699 
L 71.921885 -106.462492 
L 72.820051 -106.462492 
L 72.820051 -105.043294 
L 73.314042 -105.043294 
L 73.314042 -105.043294 
L 73.673309 -105.043294 
L 73.673309 -105.043294 
L 73.808033 -105.043294 
L 73.808033 -105.043294 
L 74.796016 -105.043294 
L 74.796016 -105.043294 
L 75.065466 -105.043294 
L 75.065466 -105.043294 
L 75.514549 -105.043294 
L 75.514549 -105.043294 
L 76.143265 -105.043294 
L 76.143265 -105.043294 
L 76.412715 -105.043294 
L 76.412715 -103.406122 
L 76.592348 -103.406122 
L 76.592348 -101.780073 
L 76.996523 -101.780073 
L 76.996523 -101.780073 
L 77.131248 -101.780073 
L 77.131248 -100.085573 
L 77.849781 -100.085573 
L 77.849781 -100.085573 
L 78.209047 -100.085573 
L 78.209047 -98.360407 
L 78.433589 -98.360407 
L 78.433589 -96.648303 
L 79.46648 -96.648303 
L 79.46648 -96.648303 
L 80.00538 -96.648303 
L 80.00538 -96.648303 
L 80.229921 -96.648303 
L 80.229921 -94.853638 
L 81.891529 -94.853638 
L 81.891529 -93.073824 
L 83.373503 -93.073824 
L 83.373503 -91.308473 
L 84.406394 -91.308473 
L 84.406394 -91.308473 
L 84.900385 -91.308473 
L 84.900385 -89.50329 
L 85.84346 -89.50329 
L 85.84346 -89.50329 
L 87.41525 -89.50329 
L 87.41525 -87.655202 
L 87.774517 -87.655202 
L 87.774517 -87.655202 
L 89.481032 -87.655202 
L 89.481032 -87.655202 
L 90.244474 -87.655202 
L 90.244474 -87.655202 
L 92.355164 -87.655202 
L 92.355164 -87.655202 
L 92.894064 -87.655202 
L 92.894064 -87.655202 
L 99.181226 -87.655202 
L 99.181226 -87.655202 
L 100.169209 -87.655202 
L 100.169209 -85.37183 
L 103.402607 -85.37183 
L 103.402607 -83.121483 
L 103.537332 -83.121483 
L 103.537332 -80.902948 
L 104.92949 -80.902948 
L 104.92949 -80.902948 
L 104.974398 -80.902948 
L 104.974398 -80.902948 
L 105.198939 -80.902948 
L 105.198939 -80.902948 
L 109.510137 -80.902948 
L 109.510137 -78.37818 
L 109.734678 -78.37818 
L 109.734678 -78.37818 
L 113.237526 -78.37818 
L 113.237526 -78.37818 
L 118.71634 -78.37818 
L 118.71634 -78.37818 
L 122.488637 -78.37818 
L 122.488637 -78.37818 
L 123.566437 -78.37818 
L 123.566437 -75.24657 
L 124.240061 -75.24657 
L 124.240061 -75.24657 
L 127.069285 -75.24657 
L 127.069285 -75.24657 
L 127.159101 -75.24657 
L 127.159101 -75.24657 
L 128.147084 -75.24657 
L 128.147084 -71.441843 
L 129.808691 -71.441843 
L 129.808691 -71.441843 
L 129.8536 -71.441843 
L 129.8536 -71.441843 
L 130.347591 -71.441843 
L 130.347591 -67.04471 
L 130.527224 -67.04471 
L 130.527224 -67.04471 
L 130.661949 -67.04471 
L 130.661949 -67.04471 
L 135.691679 -67.04471 
L 135.691679 -67.04471 
L 143.460816 -67.04471 
L 143.460816 -67.04471 
L 158.235649 -67.04471 
L 158.235649 -59.953432 
L 164.926987 -59.953432 
L 164.926987 -59.953432 
L 172.291949 -59.953432 
L 172.291949 -52.450344 
L 182.575951 -52.450344 
L 182.575951 -46.295278 
L 193.758119 -46.295278 
L 193.758119 -46.295278 
L 211.047817 -46.295278 
L 211.047817 -46.295278 
L 218.412779 -46.295278 
L 218.412779 -46.295278 
L 262.692369 -46.295278 
L 262.692369 -46.295278 
L 262.692369 -84.560425 
L 262.692369 -84.560425 
L 262.692369 -84.560425 
L 218.412779 -84.560425 
L 218.412779 -84.560425 
L 211.047817 -84.560425 
L 211.047817 -84.560425 
L 193.758119 -84.560425 
L 193.758119 -84.560425 
L 182.575951 -84.560425 
L 182.575951 -90.188486 
L 172.291949 -90.188486 
L 172.291949 -94.88022 
L 164.926987 -94.88022 
L 164.926987 -94.88022 
L 158.235649 -94.88022 
L 158.235649 -98.720608 
L 143.460816 -98.720608 
L 143.460816 -98.720608 
L 135.691679 -98.720608 
L 135.691679 -98.720608 
L 130.661949 -98.720608 
L 130.661949 -98.720608 
L 130.527224 -98.720608 
L 130.527224 -98.720608 
L 130.347591 -98.720608 
L 130.347591 -101.867257 
L 129.8536 -101.867257 
L 129.8536 -101.867257 
L 129.808691 -101.867257 
L 129.808691 -101.867257 
L 128.147084 -101.867257 
L 128.147084 -104.674255 
L 127.159101 -104.674255 
L 127.159101 -104.674255 
L 127.069285 -104.674255 
L 127.069285 -104.674255 
L 124.240061 -104.674255 
L 124.240061 -104.674255 
L 123.566437 -104.674255 
L 123.566437 -107.152164 
L 122.488637 -107.152164 
L 122.488637 -107.152164 
L 118.71634 -107.152164 
L 118.71634 -107.152164 
L 113.237526 -107.152164 
L 113.237526 -107.152164 
L 109.734678 -107.152164 
L 109.734678 -107.152164 
L 109.510137 -107.152164 
L 109.510137 -109.322149 
L 105.198939 -109.322149 
L 105.198939 -109.322149 
L 104.974398 -109.322149 
L 104.974398 -109.322149 
L 104.92949 -109.322149 
L 104.92949 -109.322149 
L 103.537332 -109.322149 
L 103.537332 -111.305164 
L 103.402607 -111.305164 
L 103.402607 -113.264692 
L 100.169209 -113.264692 
L 100.169209 -115.199971 
L 99.181226 -115.199971 
L 99.181226 -115.199971 
L 92.894064 -115.199971 
L 92.894064 -115.199971 
L 92.355164 -115.199971 
L 92.355164 -115.199971 
L 90.244474 -115.199971 
L 90.244474 -115.199971 
L 89.481032 -115.199971 
L 89.481032 -115.199971 
L 87.774517 -115.199971 
L 87.774517 -115.199971 
L 87.41525 -115.199971 
L 87.41525 -116.88824 
L 85.84346 -116.88824 
L 85.84346 -116.88824 
L 84.900385 -116.88824 
L 84.900385 -118.532012 
L 84.406394 -118.532012 
L 84.406394 -118.532012 
L 83.373503 -118.532012 
L 83.373503 -120.134396 
L 81.891529 -120.134396 
L 81.891529 -121.725924 
L 80.229921 -121.725924 
L 80.229921 -123.306386 
L 80.00538 -123.306386 
L 80.00538 -123.306386 
L 79.46648 -123.306386 
L 79.46648 -123.306386 
L 78.433589 -123.306386 
L 78.433589 -124.824349 
L 78.209047 -124.824349 
L 78.209047 -126.332592 
L 77.849781 -126.332592 
L 77.849781 -126.332592 
L 77.131248 -126.332592 
L 77.131248 -127.807858 
L 76.996523 -127.807858 
L 76.996523 -127.807858 
L 76.592348 -127.807858 
L 76.592348 -129.23078 
L 76.412715 -129.23078 
L 76.412715 -130.645451 
L 76.143265 -130.645451 
L 76.143265 -130.645451 
L 75.514549 -130.645451 
L 75.514549 -130.645451 
L 75.065466 -130.645451 
L 75.065466 -130.645451 
L 74.796016 -130.645451 
L 74.796016 -130.645451 
L 73.808033 -130.645451 
L 73.808033 -130.645451 
L 73.673309 -130.645451 
L 73.673309 -130.645451 
L 73.314042 -130.645451 
L 73.314042 -130.645451 
L 72.820051 -130.645451 
L 72.820051 -131.924581 
L 71.921885 -131.924581 
L 71.921885 -133.198326 
L 71.607526 -133.198326 
L 71.607526 -134.466599 
L 71.338077 -134.466599 
L 71.338077 -135.729309 
L 71.068627 -135.729309 
L 71.068627 -135.729309 
L 71.023719 -135.729309 
L 71.023719 -135.729309 
L 70.888994 -135.729309 
L 70.888994 -136.956549 
L 70.619544 -136.956549 
L 70.619544 -138.178641 
L 70.395002 -138.178641 
L 70.395002 -139.395487 
L 69.496836 -139.395487 
L 69.496836 -140.593441 
L 68.733395 -140.593441 
L 68.733395 -140.593441 
L 68.463945 -140.593441 
L 68.463945 -140.593441 
L 68.374128 -140.593441 
L 68.374128 -140.593441 
L 68.284312 -140.593441 
L 68.284312 -140.593441 
L 68.194495 -140.593441 
L 68.194495 -140.593441 
L 68.05977 -140.593441 
L 68.05977 -140.593441 
L 67.925045 -140.593441 
L 67.925045 -141.712048 
L 67.610687 -141.712048 
L 67.610687 -142.826743 
L 67.341237 -142.826743 
L 67.341237 -143.93746 
L 67.026879 -143.93746 
L 67.026879 -143.93746 
L 66.128713 -143.93746 
L 66.128713 -143.93746 
L 66.038897 -143.93746 
L 66.038897 -143.93746 
L 65.544905 -143.93746 
L 65.544905 -145.011934 
L 65.455089 -145.011934 
L 65.455089 -146.082802 
L 65.320364 -146.082802 
L 65.320364 -146.082802 
L 65.006005 -146.082802 
L 65.006005 -147.139998 
L 64.871281 -147.139998 
L 64.871281 -147.139998 
L 64.781464 -147.139998 
L 64.781464 -147.139998 
L 64.332381 -147.139998 
L 64.332381 -148.174443 
L 64.197656 -148.174443 
L 64.197656 -150.233184 
L 64.152748 -150.233184 
L 64.152748 -150.233184 
L 63.973114 -150.233184 
L 63.973114 -150.233184 
L 63.703665 -150.233184 
L 63.703665 -151.222594 
L 63.074948 -151.222594 
L 63.074948 -152.208948 
L 62.536049 -152.208948 
L 62.536049 -153.192186 
L 62.446232 -153.192186 
L 62.446232 -154.164268 
L 62.401324 -154.164268 
L 62.401324 -154.164268 
L 62.22169 -154.164268 
L 62.22169 -154.164268 
L 61.862424 -154.164268 
L 61.862424 -155.117856 
L 61.682791 -155.117856 
L 61.682791 -155.117856 
L 61.458249 -155.117856 
L 61.458249 -156.061062 
L 61.413341 -156.061062 
L 61.413341 -156.061062 
L 61.233708 -156.061062 
L 61.233708 -156.061062 
L 61.188799 -156.061062 
L 61.188799 -156.061062 
L 61.054075 -156.061062 
L 61.054075 -156.061062 
L 60.964258 -156.061062 
L 60.964258 -156.061062 
L 60.91935 -156.061062 
L 60.91935 -156.959698 
L 60.694808 -156.959698 
L 60.694808 -156.959698 
L 60.604991 -156.959698 
L 60.604991 -158.736552 
L 60.290633 -158.736552 
L 60.290633 -158.736552 
L 60.066092 -158.736552 
L 60.066092 -158.736552 
L 60.021183 -158.736552 
L 60.021183 -159.608823 
L 59.123017 -159.608823 
L 59.123017 -160.478698 
L 59.078109 -160.478698 
L 59.078109 -160.478698 
L 58.853568 -160.478698 
L 58.853568 -160.478698 
L 58.718843 -160.478698 
L 58.718843 -160.478698 
L 58.404484 -160.478698 
L 58.404484 -161.322803 
L 58.179943 -161.322803 
L 58.179943 -162.164676 
L 57.955401 -162.164676 
L 57.955401 -163.004272 
L 57.865585 -163.004272 
L 57.865585 -163.841542 
L 57.596135 -163.841542 
L 57.596135 -164.676436 
L 57.326685 -164.676436 
L 57.326685 -164.676436 
L 57.102144 -164.676436 
L 57.102144 -164.676436 
L 57.057235 -164.676436 
L 57.057235 -165.498331 
L 56.967419 -165.498331 
L 56.967419 -166.317863 
L 56.787785 -166.317863 
L 56.787785 -166.317863 
L 56.518336 -166.317863 
L 56.518336 -166.317863 
L 56.338702 -166.317863 
L 56.338702 -166.317863 
L 56.248886 -166.317863 
L 56.248886 -166.317863 
L 56.159069 -166.317863 
L 56.159069 -166.317863 
L 55.979436 -166.317863 
L 55.979436 -167.105455 
L 55.889619 -167.105455 
L 55.889619 -167.890907 
L 55.844711 -167.890907 
L 55.844711 -167.890907 
L 55.754894 -167.890907 
L 55.754894 -167.890907 
L 55.620169 -167.890907 
L 55.620169 -168.664984 
L 55.126178 -168.664984 
L 55.126178 -168.664984 
L 55.08127 -168.664984 
L 55.08127 -169.432453 
L 54.452554 -169.432453 
L 54.452554 -169.432453 
L 54.407645 -169.432453 
L 54.407645 -170.193406 
L 54.362737 -170.193406 
L 54.362737 -170.952205 
L 54.183104 -170.952205 
L 54.183104 -171.708795 
L 54.048379 -171.708795 
L 54.048379 -172.463116 
L 52.835855 -172.463116 
L 52.835855 -173.964696 
L 52.117322 -173.964696 
L 52.117322 -174.711816 
L 51.937688 -174.711816 
L 51.937688 -175.45639 
L 51.89278 -175.45639 
L 51.89278 -176.198334 
L 51.847872 -176.198334 
L 51.847872 -176.937562 
L 51.219155 -176.937562 
L 51.219155 -177.673978 
L 51.039522 -177.673978 
L 51.039522 -178.407481 
L 50.994614 -178.407481 
L 50.994614 -179.137961 
L 50.904797 -179.137961 
L 50.904797 -179.137961 
L 50.859889 -179.137961 
L 50.859889 -179.861592 
L 50.680256 -179.861592 
L 50.680256 -180.582015 
L 50.276081 -180.582015 
L 50.276081 -181.299094 
L 50.05154 -181.299094 
L 50.05154 -182.722616 
L 49.51264 -182.722616 
L 49.51264 -183.42872 
L 49.333007 -183.42872 
L 49.333007 -184.130799 
L 49.198282 -184.130799 
L 49.198282 -184.828639 
L 49.108465 -184.828639 
L 49.108465 -185.522002 
L 48.614474 -185.522002 
L 48.614474 -186.894207 
L 48.210299 -186.894207 
L 48.210299 -187.572421 
L 48.120482 -187.572421 
L 48.120482 -187.572421 
L 48.030666 -187.572421 
L 48.030666 -187.572421 
L 47.401949 -187.572421 
L 47.401949 -188.238851 
L 46.952866 -188.238851 
L 46.952866 -188.89639 
L 46.548692 -188.89639 
L 46.548692 -189.547598 
L 46.32415 -189.547598 
L 46.32415 -190.191949 
L 46.099609 -190.191949 
L 46.099609 -190.828832 
L 44.931993 -190.828832 
L 44.931993 -191.457532 
L 44.887084 -191.457532 
L 44.887084 -191.457532 
L 44.572726 -191.457532 
L 44.572726 -191.457532 
L 44.078735 -191.457532 
L 44.078735 -192.07212 
L 44.033827 -192.07212 
L 44.033827 -192.676952 
L 43.809285 -192.676952 
L 43.809285 -193.270834 
L 43.629652 -193.270834 
L 43.629652 -193.270834 
L 43.584743 -193.270834 
L 43.584743 -193.85004 
L 43.40511 -193.85004 
L 43.40511 -193.85004 
L 43.045844 -193.85004 
L 43.045844 -194.413019 
L 42.686577 -194.413019 
L 42.686577 -194.959747 
L 42.641669 -194.959747 
L 42.641669 -194.959747 
L 42.551852 -194.959747 
L 42.551852 -195.485239 
L 42.506944 -195.485239 
L 42.506944 -195.485239 
L 42.417127 -195.485239 
L 42.417127 -195.985637 
L 42.282403 -195.985637 
L 42.282403 -195.985637 
L 42.192586 -195.985637 
L 42.192586 -196.455284 
L 42.147678 -196.455284 
L 42.147678 -196.88658 
L 41.29442 -196.88658 
L 41.29442 -196.88658 
L 40.530979 -196.88658 
L 40.530979 -197.262154 
L 40.48607 -197.262154 
L 40.48607 -197.550091 
L 40.396254 -197.550091 
L 40.396254 -197.550091 
L 39.632812 -197.550091 
z
" style="stroke: #2e86ab; stroke-opacity: 0.2"/>
    </defs>
    <g clip-path="url(#pd8f2cc1846)">
     <use xlink:href="#m36762c4d92" x="0" y="213.012812" style="fill: #2e86ab; fill-opacity: 0.2; stroke: #2e86ab; stroke-opacity: 0.2"/>
    </g>
   </g>
   <g id="FillBetweenPolyCollection_2">
    <defs>
     <path id="m39633937af" d="M 36.758681 -197.662336 
L 36.758681 -197.662336 
L 39.632812 -197.662336 
L 39.632812 -192.100649 
L 40.21662 -192.100649 
L 40.21662 -192.100649 
L 40.306437 -192.100649 
L 40.306437 -192.100649 
L 40.530979 -192.100649 
L 40.530979 -192.100649 
L 40.890245 -192.100649 
L 40.890245 -192.100649 
L 41.204603 -192.100649 
L 41.204603 -192.100649 
L 41.698595 -192.100649 
L 41.698595 -192.100649 
L 42.102769 -192.100649 
L 42.102769 -192.100649 
L 42.147678 -192.100649 
L 42.147678 -191.267695 
L 42.506944 -191.267695 
L 42.506944 -191.267695 
L 42.686577 -191.267695 
L 42.686577 -191.267695 
L 42.731486 -191.267695 
L 42.731486 -190.155484 
L 43.270385 -190.155484 
L 43.270385 -189.026935 
L 43.315294 -189.026935 
L 43.315294 -189.026935 
L 43.67456 -189.026935 
L 43.67456 -187.899261 
L 43.899102 -187.899261 
L 43.899102 -187.899261 
L 44.348185 -187.899261 
L 44.348185 -187.899261 
L 44.393093 -187.899261 
L 44.393093 -186.76952 
L 45.111626 -186.76952 
L 45.111626 -185.659118 
L 45.381076 -185.659118 
L 45.381076 -184.56555 
L 45.425984 -184.56555 
L 45.425984 -184.56555 
L 45.515801 -184.56555 
L 45.515801 -183.477936 
L 46.009792 -183.477936 
L 46.009792 -182.403923 
L 46.189425 -182.403923 
L 46.189425 -181.341901 
L 46.548692 -181.341901 
L 46.548692 -180.290561 
L 46.728325 -180.290561 
L 46.728325 -180.290561 
L 47.177408 -180.290561 
L 47.177408 -178.200014 
L 47.806124 -178.200014 
L 47.806124 -177.167509 
L 48.839015 -177.167509 
L 48.839015 -176.14254 
L 48.883924 -176.14254 
L 48.883924 -175.124508 
L 49.647365 -175.124508 
L 49.647365 -174.112896 
L 49.692273 -174.112896 
L 49.692273 -174.112896 
L 50.770072 -174.112896 
L 50.770072 -173.099609 
L 50.904797 -173.099609 
L 50.904797 -172.092108 
L 51.039522 -172.092108 
L 51.039522 -171.090016 
L 51.264064 -171.090016 
L 51.264064 -170.093005 
L 51.35388 -170.093005 
L 51.35388 -169.100778 
L 51.398789 -169.100778 
L 51.398789 -168.113073 
L 51.847872 -168.113073 
L 51.847872 -167.129654 
L 52.027505 -167.129654 
L 52.027505 -167.129654 
L 52.790946 -167.129654 
L 52.790946 -167.129654 
L 53.240029 -167.129654 
L 53.240029 -166.135158 
L 53.599296 -166.135158 
L 53.599296 -165.144826 
L 54.183104 -165.144826 
L 54.183104 -164.158455 
L 54.54237 -164.158455 
L 54.54237 -163.175863 
L 54.587278 -163.175863 
L 54.587278 -163.175863 
L 54.766912 -163.175863 
L 54.766912 -163.175863 
L 54.901637 -163.175863 
L 54.901637 -162.181372 
L 55.08127 -162.181372 
L 55.08127 -161.190594 
L 55.126178 -161.190594 
L 55.126178 -161.190594 
L 55.844711 -161.190594 
L 55.844711 -161.190594 
L 56.024344 -161.190594 
L 56.024344 -161.190594 
L 56.069253 -161.190594 
L 56.069253 -161.190594 
L 56.159069 -161.190594 
L 56.159069 -161.190594 
L 56.203977 -161.190594 
L 56.203977 -161.190594 
L 56.248886 -161.190594 
L 56.248886 -159.121409 
L 56.338702 -159.121409 
L 56.338702 -159.121409 
L 56.383611 -159.121409 
L 56.383611 -159.121409 
L 56.563244 -159.121409 
L 56.563244 -159.121409 
L 56.653061 -159.121409 
L 56.653061 -159.121409 
L 56.832694 -159.121409 
L 56.832694 -159.121409 
L 56.877602 -159.121409 
L 56.877602 -159.121409 
L 56.92251 -159.121409 
L 56.92251 -156.941219 
L 57.19196 -156.941219 
L 57.19196 -155.858243 
L 57.281777 -155.858243 
L 57.281777 -154.779717 
L 57.506318 -154.779717 
L 57.506318 -154.779717 
L 57.551227 -154.779717 
L 57.551227 -154.779717 
L 58.045218 -154.779717 
L 58.045218 -154.779717 
L 58.179943 -154.779717 
L 58.179943 -152.555414 
L 58.26976 -152.555414 
L 58.26976 -151.450118 
L 58.314668 -151.450118 
L 58.314668 -151.450118 
L 59.257742 -151.450118 
L 59.257742 -150.316879 
L 59.976275 -150.316879 
L 59.976275 -149.188269 
L 60.066092 -149.188269 
L 60.066092 -148.064097 
L 60.155908 -148.064097 
L 60.155908 -148.064097 
L 60.290633 -148.064097 
L 60.290633 -146.932964 
L 60.560083 -146.932964 
L 60.560083 -146.932964 
L 60.604991 -146.932964 
L 60.604991 -146.932964 
L 61.368433 -146.932964 
L 61.368433 -146.932964 
L 61.727699 -146.932964 
L 61.727699 -145.758811 
L 61.862424 -145.758811 
L 61.862424 -145.758811 
L 62.536049 -145.758811 
L 62.536049 -144.564295 
L 62.625865 -144.564295 
L 62.625865 -144.564295 
L 63.074948 -144.564295 
L 63.074948 -144.564295 
L 63.164765 -144.564295 
L 63.164765 -144.564295 
L 63.434215 -144.564295 
L 63.434215 -143.334895 
L 63.613848 -143.334895 
L 63.613848 -142.11093 
L 63.83839 -142.11093 
L 63.83839 -140.892181 
L 63.883298 -140.892181 
L 63.883298 -140.892181 
L 64.062931 -140.892181 
L 64.062931 -138.413335 
L 65.006005 -138.413335 
L 65.006005 -137.181616 
L 65.320364 -137.181616 
L 65.320364 -137.181616 
L 65.365272 -137.181616 
L 65.365272 -137.181616 
L 65.589813 -137.181616 
L 65.589813 -137.181616 
L 65.634722 -137.181616 
L 65.634722 -135.893367 
L 65.67963 -135.893367 
L 65.67963 -135.893367 
L 65.724538 -135.893367 
L 65.724538 -135.893367 
L 65.769447 -135.893367 
L 65.769447 -135.893367 
L 66.128713 -135.893367 
L 66.128713 -134.560448 
L 66.263438 -134.560448 
L 66.263438 -133.233801 
L 66.532888 -133.233801 
L 66.532888 -131.913195 
L 66.667613 -131.913195 
L 66.667613 -130.598416 
L 66.712521 -130.598416 
L 66.712521 -130.598416 
L 67.116696 -130.598416 
L 67.116696 -129.271286 
L 67.251421 -129.271286 
L 67.251421 -127.949887 
L 67.386146 -127.949887 
L 67.386146 -127.949887 
L 68.419037 -127.949887 
L 68.419037 -127.949887 
L 68.643578 -127.949887 
L 68.643578 -127.949887 
L 68.778303 -127.949887 
L 68.778303 -127.949887 
L 68.86812 -127.949887 
L 68.86812 -126.556091 
L 69.901011 -126.556091 
L 69.901011 -125.168917 
L 70.170461 -125.168917 
L 70.170461 -123.788153 
L 70.664452 -123.788153 
L 70.664452 -123.788153 
L 72.460784 -123.788153 
L 72.460784 -123.788153 
L 72.595509 -123.788153 
L 72.595509 -122.370336 
L 74.346933 -122.370336 
L 74.346933 -122.370336 
L 74.571475 -122.370336 
L 74.571475 -120.936461 
L 75.334916 -120.936461 
L 75.334916 -119.509503 
L 75.469641 -119.509503 
L 75.469641 -119.509503 
L 76.098357 -119.509503 
L 76.098357 -119.509503 
L 76.457624 -119.509503 
L 76.457624 -119.509503 
L 77.35579 -119.509503 
L 77.35579 -119.509503 
L 77.445606 -119.509503 
L 77.445606 -119.509503 
L 78.433589 -119.509503 
L 78.433589 -119.509503 
L 78.837764 -119.509503 
L 78.837764 -119.509503 
L 79.73593 -119.509503 
L 79.73593 -119.509503 
L 79.915563 -119.509503 
L 79.915563 -119.509503 
L 80.319738 -119.509503 
L 80.319738 -119.509503 
L 80.993362 -119.509503 
L 80.993362 -119.509503 
L 82.071162 -119.509503 
L 82.071162 -119.509503 
L 82.250795 -119.509503 
L 82.250795 -117.740964 
L 84.675844 -117.740964 
L 84.675844 -117.740964 
L 84.720752 -117.740964 
L 84.720752 -115.949436 
L 84.76566 -115.949436 
L 84.76566 -114.172029 
L 86.157818 -114.172029 
L 86.157818 -112.408146 
L 86.696717 -112.408146 
L 86.696717 -112.408146 
L 87.999058 -112.408146 
L 87.999058 -110.617998 
L 88.582866 -110.617998 
L 88.582866 -110.617998 
L 88.762499 -110.617998 
L 88.762499 -110.617998 
L 89.391216 -110.617998 
L 89.391216 -110.617998 
L 89.705574 -110.617998 
L 89.705574 -110.617998 
L 91.861173 -110.617998 
L 91.861173 -108.664019 
L 92.669522 -108.664019 
L 92.669522 -108.664019 
L 94.376038 -108.664019 
L 94.376038 -108.664019 
L 96.666361 -108.664019 
L 96.666361 -106.624853 
L 100.259026 -106.624853 
L 100.259026 -106.624853 
L 101.022467 -106.624853 
L 101.022467 -104.549767 
L 101.157192 -104.549767 
L 101.157192 -104.549767 
L 106.052197 -104.549767 
L 106.052197 -104.549767 
L 107.983254 -104.549767 
L 107.983254 -104.549767 
L 108.297613 -104.549767 
L 108.297613 -104.549767 
L 108.701787 -104.549767 
L 108.701787 -104.549767 
L 108.881421 -104.549767 
L 108.881421 -104.549767 
L 110.677753 -104.549767 
L 110.677753 -104.549767 
L 111.665736 -104.549767 
L 111.665736 -104.549767 
L 112.429177 -104.549767 
L 112.429177 -104.549767 
L 113.686609 -104.549767 
L 113.686609 -104.549767 
L 114.629684 -104.549767 
L 114.629684 -101.703254 
L 116.336199 -101.703254 
L 116.336199 -101.703254 
L 116.605649 -101.703254 
L 116.605649 -101.703254 
L 116.785282 -101.703254 
L 116.785282 -98.678258 
L 119.839047 -98.678258 
L 119.839047 -98.678258 
L 120.108497 -98.678258 
L 120.108497 -98.678258 
L 120.647397 -98.678258 
L 120.647397 -95.442156 
L 120.737213 -95.442156 
L 120.737213 -95.442156 
L 121.815013 -95.442156 
L 121.815013 -95.442156 
L 125.497494 -95.442156 
L 125.497494 -95.442156 
L 127.293826 -95.442156 
L 127.293826 -95.442156 
L 130.347591 -95.442156 
L 130.347591 -95.442156 
L 131.42539 -95.442156 
L 131.42539 -95.442156 
L 131.649932 -95.442156 
L 131.649932 -95.442156 
L 134.34443 -95.442156 
L 134.34443 -95.442156 
L 137.398195 -95.442156 
L 137.398195 -95.442156 
L 142.607559 -95.442156 
L 142.607559 -95.442156 
L 144.269166 -95.442156 
L 144.269166 -95.442156 
L 145.257149 -95.442156 
L 145.257149 -95.442156 
L 146.514581 -95.442156 
L 146.514581 -95.442156 
L 148.445638 -95.442156 
L 148.445638 -95.442156 
L 157.517116 -95.442156 
L 157.517116 -95.442156 
L 158.909274 -95.442156 
L 158.909274 -95.442156 
L 161.019964 -95.442156 
L 161.019964 -95.442156 
L 166.633502 -95.442156 
L 166.633502 -83.562184 
L 168.429835 -83.562184 
L 168.429835 -83.562184 
L 169.238184 -83.562184 
L 169.238184 -83.562184 
L 172.741032 -83.562184 
L 172.741032 -83.562184 
L 174.851722 -83.562184 
L 174.851722 -83.562184 
L 190.704354 -83.562184 
L 190.704354 -83.562184 
L 193.21922 -83.562184 
L 193.21922 -83.562184 
L 211.856167 -83.562184 
L 211.856167 -83.562184 
L 266.015584 -83.562184 
L 266.015584 -83.562184 
L 266.419759 -83.562184 
L 266.419759 -83.562184 
L 266.419759 -122.642041 
L 266.419759 -122.642041 
L 266.419759 -122.642041 
L 266.015584 -122.642041 
L 266.015584 -122.642041 
L 211.856167 -122.642041 
L 211.856167 -122.642041 
L 193.21922 -122.642041 
L 193.21922 -122.642041 
L 190.704354 -122.642041 
L 190.704354 -122.642041 
L 174.851722 -122.642041 
L 174.851722 -122.642041 
L 172.741032 -122.642041 
L 172.741032 -122.642041 
L 169.238184 -122.642041 
L 169.238184 -122.642041 
L 168.429835 -122.642041 
L 168.429835 -122.642041 
L 166.633502 -122.642041 
L 166.633502 -125.947065 
L 161.019964 -125.947065 
L 161.019964 -125.947065 
L 158.909274 -125.947065 
L 158.909274 -125.947065 
L 157.517116 -125.947065 
L 157.517116 -125.947065 
L 148.445638 -125.947065 
L 148.445638 -125.947065 
L 146.514581 -125.947065 
L 146.514581 -125.947065 
L 145.257149 -125.947065 
L 145.257149 -125.947065 
L 144.269166 -125.947065 
L 144.269166 -125.947065 
L 142.607559 -125.947065 
L 142.607559 -125.947065 
L 137.398195 -125.947065 
L 137.398195 -125.947065 
L 134.34443 -125.947065 
L 134.34443 -125.947065 
L 131.649932 -125.947065 
L 131.649932 -125.947065 
L 131.42539 -125.947065 
L 131.42539 -125.947065 
L 130.347591 -125.947065 
L 130.347591 -125.947065 
L 127.293826 -125.947065 
L 127.293826 -125.947065 
L 125.497494 -125.947065 
L 125.497494 -125.947065 
L 121.815013 -125.947065 
L 121.815013 -125.947065 
L 120.737213 -125.947065 
L 120.737213 -125.947065 
L 120.647397 -125.947065 
L 120.647397 -128.283085 
L 120.108497 -128.283085 
L 120.108497 -128.283085 
L 119.839047 -128.283085 
L 119.839047 -128.283085 
L 116.785282 -128.283085 
L 116.785282 -130.472581 
L 116.605649 -130.472581 
L 116.605649 -130.472581 
L 116.336199 -130.472581 
L 116.336199 -130.472581 
L 114.629684 -130.472581 
L 114.629684 -132.535562 
L 113.686609 -132.535562 
L 113.686609 -132.535562 
L 112.429177 -132.535562 
L 112.429177 -132.535562 
L 111.665736 -132.535562 
L 111.665736 -132.535562 
L 110.677753 -132.535562 
L 110.677753 -132.535562 
L 108.881421 -132.535562 
L 108.881421 -132.535562 
L 108.701787 -132.535562 
L 108.701787 -132.535562 
L 108.297613 -132.535562 
L 108.297613 -132.535562 
L 107.983254 -132.535562 
L 107.983254 -132.535562 
L 106.052197 -132.535562 
L 106.052197 -132.535562 
L 101.157192 -132.535562 
L 101.157192 -132.535562 
L 101.022467 -132.535562 
L 101.022467 -134.239754 
L 100.259026 -134.239754 
L 100.259026 -134.239754 
L 96.666361 -134.239754 
L 96.666361 -135.901974 
L 94.376038 -135.901974 
L 94.376038 -135.901974 
L 92.669522 -135.901974 
L 92.669522 -135.901974 
L 91.861173 -135.901974 
L 91.861173 -137.500292 
L 89.705574 -137.500292 
L 89.705574 -137.500292 
L 89.391216 -137.500292 
L 89.391216 -137.500292 
L 88.762499 -137.500292 
L 88.762499 -137.500292 
L 88.582866 -137.500292 
L 88.582866 -137.500292 
L 87.999058 -137.500292 
L 87.999058 -138.997461 
L 86.696717 -138.997461 
L 86.696717 -138.997461 
L 86.157818 -138.997461 
L 86.157818 -140.464546 
L 84.76566 -140.464546 
L 84.76566 -141.922028 
L 84.720752 -141.922028 
L 84.720752 -143.36958 
L 84.675844 -143.36958 
L 84.675844 -143.36958 
L 82.250795 -143.36958 
L 82.250795 -144.78885 
L 82.071162 -144.78885 
L 82.071162 -144.78885 
L 80.993362 -144.78885 
L 80.993362 -144.78885 
L 80.319738 -144.78885 
L 80.319738 -144.78885 
L 79.915563 -144.78885 
L 79.915563 -144.78885 
L 79.73593 -144.78885 
L 79.73593 -144.78885 
L 78.837764 -144.78885 
L 78.837764 -144.78885 
L 78.433589 -144.78885 
L 78.433589 -144.78885 
L 77.445606 -144.78885 
L 77.445606 -144.78885 
L 77.35579 -144.78885 
L 77.35579 -144.78885 
L 76.457624 -144.78885 
L 76.457624 -144.78885 
L 76.098357 -144.78885 
L 76.098357 -144.78885 
L 75.469641 -144.78885 
L 75.469641 -144.78885 
L 75.334916 -144.78885 
L 75.334916 -146.015032 
L 74.571475 -146.015032 
L 74.571475 -147.236 
L 74.346933 -147.236 
L 74.346933 -147.236 
L 72.595509 -147.236 
L 72.595509 -148.438863 
L 72.460784 -148.438863 
L 72.460784 -148.438863 
L 70.664452 -148.438863 
L 70.664452 -148.438863 
L 70.170461 -148.438863 
L 70.170461 -149.612195 
L 69.901011 -149.612195 
L 69.901011 -150.780694 
L 68.86812 -150.780694 
L 68.86812 -151.944245 
L 68.778303 -151.944245 
L 68.778303 -151.944245 
L 68.643578 -151.944245 
L 68.643578 -151.944245 
L 68.419037 -151.944245 
L 68.419037 -151.944245 
L 67.386146 -151.944245 
L 67.386146 -151.944245 
L 67.251421 -151.944245 
L 67.251421 -153.059218 
L 67.116696 -153.059218 
L 67.116696 -154.169825 
L 66.712521 -154.169825 
L 66.712521 -154.169825 
L 66.667613 -154.169825 
L 66.667613 -155.26592 
L 66.532888 -155.26592 
L 66.532888 -156.357616 
L 66.263438 -156.357616 
L 66.263438 -157.444798 
L 66.128713 -157.444798 
L 66.128713 -158.527343 
L 65.769447 -158.527343 
L 65.769447 -158.527343 
L 65.724538 -158.527343 
L 65.724538 -158.527343 
L 65.67963 -158.527343 
L 65.67963 -158.527343 
L 65.634722 -158.527343 
L 65.634722 -159.577966 
L 65.589813 -159.577966 
L 65.589813 -159.577966 
L 65.365272 -159.577966 
L 65.365272 -159.577966 
L 65.320364 -159.577966 
L 65.320364 -159.577966 
L 65.006005 -159.577966 
L 65.006005 -160.590519 
L 64.062931 -160.590519 
L 64.062931 -162.603833 
L 63.883298 -162.603833 
L 63.883298 -162.603833 
L 63.83839 -162.603833 
L 63.83839 -163.589038 
L 63.613848 -163.589038 
L 63.613848 -164.570279 
L 63.434215 -164.570279 
L 63.434215 -165.547437 
L 63.164765 -165.547437 
L 63.164765 -165.547437 
L 63.074948 -165.547437 
L 63.074948 -165.547437 
L 62.625865 -165.547437 
L 62.625865 -165.547437 
L 62.536049 -165.547437 
L 62.536049 -166.499234 
L 61.862424 -166.499234 
L 61.862424 -166.499234 
L 61.727699 -166.499234 
L 61.727699 -167.433667 
L 61.368433 -167.433667 
L 61.368433 -167.433667 
L 60.604991 -167.433667 
L 60.604991 -167.433667 
L 60.560083 -167.433667 
L 60.560083 -167.433667 
L 60.290633 -167.433667 
L 60.290633 -168.338873 
L 60.155908 -168.338873 
L 60.155908 -168.338873 
L 60.066092 -168.338873 
L 60.066092 -169.234502 
L 59.976275 -169.234502 
L 59.976275 -170.126599 
L 59.257742 -170.126599 
L 59.257742 -171.015048 
L 58.314668 -171.015048 
L 58.314668 -171.015048 
L 58.26976 -171.015048 
L 58.26976 -171.882779 
L 58.179943 -171.882779 
L 58.179943 -173.607313 
L 58.045218 -173.607313 
L 58.045218 -173.607313 
L 57.551227 -173.607313 
L 57.551227 -173.607313 
L 57.506318 -173.607313 
L 57.506318 -173.607313 
L 57.281777 -173.607313 
L 57.281777 -174.443121 
L 57.19196 -174.443121 
L 57.19196 -175.275302 
L 56.92251 -175.275302 
L 56.92251 -176.928223 
L 56.877602 -176.928223 
L 56.877602 -176.928223 
L 56.832694 -176.928223 
L 56.832694 -176.928223 
L 56.653061 -176.928223 
L 56.653061 -176.928223 
L 56.563244 -176.928223 
L 56.563244 -176.928223 
L 56.383611 -176.928223 
L 56.383611 -176.928223 
L 56.338702 -176.928223 
L 56.338702 -176.928223 
L 56.248886 -176.928223 
L 56.248886 -178.501184 
L 56.203977 -178.501184 
L 56.203977 -178.501184 
L 56.159069 -178.501184 
L 56.159069 -178.501184 
L 56.069253 -178.501184 
L 56.069253 -178.501184 
L 56.024344 -178.501184 
L 56.024344 -178.501184 
L 55.844711 -178.501184 
L 55.844711 -178.501184 
L 55.126178 -178.501184 
L 55.126178 -178.501184 
L 55.08127 -178.501184 
L 55.08127 -179.257094 
L 54.901637 -179.257094 
L 54.901637 -180.009537 
L 54.766912 -180.009537 
L 54.766912 -180.009537 
L 54.587278 -180.009537 
L 54.587278 -180.009537 
L 54.54237 -180.009537 
L 54.54237 -180.750588 
L 54.183104 -180.750588 
L 54.183104 -181.488007 
L 53.599296 -181.488007 
L 53.599296 -182.22163 
L 53.240029 -182.22163 
L 53.240029 -182.951273 
L 52.790946 -182.951273 
L 52.790946 -182.951273 
L 52.027505 -182.951273 
L 52.027505 -182.951273 
L 51.847872 -182.951273 
L 51.847872 -183.669544 
L 51.398789 -183.669544 
L 51.398789 -184.383573 
L 51.35388 -184.383573 
L 51.35388 -185.093128 
L 51.264064 -185.093128 
L 51.264064 -185.79795 
L 51.039522 -185.79795 
L 51.039522 -186.497751 
L 50.904797 -186.497751 
L 50.904797 -187.192206 
L 50.770072 -187.192206 
L 50.770072 -187.880952 
L 49.692273 -187.880952 
L 49.692273 -187.880952 
L 49.647365 -187.880952 
L 49.647365 -188.560444 
L 48.883924 -188.560444 
L 48.883924 -189.233448 
L 48.839015 -189.233448 
L 48.839015 -189.899432 
L 47.806124 -189.899432 
L 47.806124 -190.557777 
L 47.177408 -190.557777 
L 47.177408 -191.848523 
L 46.728325 -191.848523 
L 46.728325 -191.848523 
L 46.548692 -191.848523 
L 46.548692 -192.476391 
L 46.189425 -192.476391 
L 46.189425 -193.09293 
L 46.009792 -193.09293 
L 46.009792 -193.696617 
L 45.515801 -193.696617 
L 45.515801 -194.285532 
L 45.425984 -194.285532 
L 45.425984 -194.285532 
L 45.381076 -194.285532 
L 45.381076 -194.855004 
L 45.111626 -194.855004 
L 45.111626 -195.404174 
L 44.393093 -195.404174 
L 44.393093 -195.928507 
L 44.348185 -195.928507 
L 44.348185 -195.928507 
L 43.899102 -195.928507 
L 43.899102 -195.928507 
L 43.67456 -195.928507 
L 43.67456 -196.418094 
L 43.315294 -196.418094 
L 43.315294 -196.418094 
L 43.270385 -196.418094 
L 43.270385 -196.865464 
L 42.731486 -196.865464 
L 42.731486 -197.255099 
L 42.686577 -197.255099 
L 42.686577 -197.255099 
L 42.506944 -197.255099 
L 42.506944 -197.255099 
L 42.147678 -197.255099 
L 42.147678 -197.550091 
L 42.102769 -197.550091 
L 42.102769 -197.550091 
L 41.698595 -197.550091 
L 41.698595 -197.550091 
L 41.204603 -197.550091 
L 41.204603 -197.550091 
L 40.890245 -197.550091 
L 40.890245 -197.550091 
L 40.530979 -197.550091 
L 40.530979 -197.550091 
L 40.306437 -197.550091 
L 40.306437 -197.550091 
L 40.21662 -197.550091 
L 40.21662 -197.550091 
L 39.632812 -197.550091 
L 39.632812 -197.662336 
L 36.758681 -197.662336 
z
" style="stroke: #e63946; stroke-opacity: 0.2"/>
    </defs>
    <g clip-path="url(#pd8f2cc1846)">
     <use xlink:href="#m39633937af" x="0" y="213.012812" style="fill: #e63946; fill-opacity: 0.2; stroke: #e63946; stroke-opacity: 0.2"/>
    </g>
   </g>
   <g id="line2d_25">
    <defs>
     <path id="m1f14a9e5f9" d="M -3 3 
L 3 -3 
M -3 -3 
L 3 3 
" style="stroke: #2e86ab"/>
    </defs>
    <g clip-path="url(#pd8f2cc1846)">
     <use xlink:href="#m1f14a9e5f9" x="40.396254" y="16.145645" style="fill: #2e86ab; stroke: #2e86ab"/>
     <use xlink:href="#m1f14a9e5f9" x="41.29442" y="17.743816" style="fill: #2e86ab; stroke: #2e86ab"/>
     <use xlink:href="#m1f14a9e5f9" x="42.282403" y="19.349977" style="fill: #2e86ab; stroke: #2e86ab"/>
     <use xlink:href="#m1f14a9e5f9" x="42.506944" y="20.157135" style="fill: #2e86ab; stroke: #2e86ab"/>
     <use xlink:href="#m1f14a9e5f9" x="42.641669" y="20.968432" style="fill: #2e86ab; stroke: #2e86ab"/>
     <use xlink:href="#m1f14a9e5f9" x="43.40511" y="22.599432" style="fill: #2e86ab; stroke: #2e86ab"/>
     <use xlink:href="#m1f14a9e5f9" x="43.629652" y="23.419225" style="fill: #2e86ab; stroke: #2e86ab"/>
     <use xlink:href="#m1f14a9e5f9" x="44.572726" y="25.891684" style="fill: #2e86ab; stroke: #2e86ab"/>
     <use xlink:href="#m1f14a9e5f9" x="44.887084" y="25.891684" style="fill: #2e86ab; stroke: #2e86ab"/>
     <use xlink:href="#m1f14a9e5f9" x="46.952866" y="30.057485" style="fill: #2e86ab; stroke: #2e86ab"/>
     <use xlink:href="#m1f14a9e5f9" x="48.030666" y="30.895352" style="fill: #2e86ab; stroke: #2e86ab"/>
     <use xlink:href="#m1f14a9e5f9" x="48.120482" y="30.895352" style="fill: #2e86ab; stroke: #2e86ab"/>
     <use xlink:href="#m1f14a9e5f9" x="50.904797" y="41.065328" style="fill: #2e86ab; stroke: #2e86ab"/>
     <use xlink:href="#m1f14a9e5f9" x="54.452554" y="52.151233" style="fill: #2e86ab; stroke: #2e86ab"/>
     <use xlink:href="#m1f14a9e5f9" x="55.126178" y="53.009796" style="fill: #2e86ab; stroke: #2e86ab"/>
     <use xlink:href="#m1f14a9e5f9" x="55.754894" y="53.87428" style="fill: #2e86ab; stroke: #2e86ab"/>
     <use xlink:href="#m1f14a9e5f9" x="55.844711" y="53.87428" style="fill: #2e86ab; stroke: #2e86ab"/>
     <use xlink:href="#m1f14a9e5f9" x="55.979436" y="55.6276" style="fill: #2e86ab; stroke: #2e86ab"/>
     <use xlink:href="#m1f14a9e5f9" x="56.159069" y="55.6276" style="fill: #2e86ab; stroke: #2e86ab"/>
     <use xlink:href="#m1f14a9e5f9" x="56.248886" y="55.6276" style="fill: #2e86ab; stroke: #2e86ab"/>
     <use xlink:href="#m1f14a9e5f9" x="56.338702" y="55.6276" style="fill: #2e86ab; stroke: #2e86ab"/>
     <use xlink:href="#m1f14a9e5f9" x="56.518336" y="55.6276" style="fill: #2e86ab; stroke: #2e86ab"/>
     <use xlink:href="#m1f14a9e5f9" x="56.787785" y="55.6276" style="fill: #2e86ab; stroke: #2e86ab"/>
     <use xlink:href="#m1f14a9e5f9" x="57.102144" y="57.459427" style="fill: #2e86ab; stroke: #2e86ab"/>
     <use xlink:href="#m1f14a9e5f9" x="57.326685" y="57.459427" style="fill: #2e86ab; stroke: #2e86ab"/>
     <use xlink:href="#m1f14a9e5f9" x="58.718843" y="62.109449" style="fill: #2e86ab; stroke: #2e86ab"/>
     <use xlink:href="#m1f14a9e5f9" x="58.853568" y="62.109449" style="fill: #2e86ab; stroke: #2e86ab"/>
     <use xlink:href="#m1f14a9e5f9" x="59.078109" y="62.109449" style="fill: #2e86ab; stroke: #2e86ab"/>
     <use xlink:href="#m1f14a9e5f9" x="60.066092" y="64.030946" style="fill: #2e86ab; stroke: #2e86ab"/>
     <use xlink:href="#m1f14a9e5f9" x="60.290633" y="64.030946" style="fill: #2e86ab; stroke: #2e86ab"/>
     <use xlink:href="#m1f14a9e5f9" x="60.694808" y="65.985289" style="fill: #2e86ab; stroke: #2e86ab"/>
     <use xlink:href="#m1f14a9e5f9" x="60.91935" y="66.971032" style="fill: #2e86ab; stroke: #2e86ab"/>
     <use xlink:href="#m1f14a9e5f9" x="60.964258" y="66.971032" style="fill: #2e86ab; stroke: #2e86ab"/>
     <use xlink:href="#m1f14a9e5f9" x="61.054075" y="66.971032" style="fill: #2e86ab; stroke: #2e86ab"/>
     <use xlink:href="#m1f14a9e5f9" x="61.188799" y="66.971032" style="fill: #2e86ab; stroke: #2e86ab"/>
     <use xlink:href="#m1f14a9e5f9" x="61.233708" y="66.971032" style="fill: #2e86ab; stroke: #2e86ab"/>
     <use xlink:href="#m1f14a9e5f9" x="61.413341" y="66.971032" style="fill: #2e86ab; stroke: #2e86ab"/>
     <use xlink:href="#m1f14a9e5f9" x="61.682791" y="68.01205" style="fill: #2e86ab; stroke: #2e86ab"/>
     <use xlink:href="#m1f14a9e5f9" x="62.22169" y="69.062983" style="fill: #2e86ab; stroke: #2e86ab"/>
     <use xlink:href="#m1f14a9e5f9" x="62.401324" y="69.062983" style="fill: #2e86ab; stroke: #2e86ab"/>
     <use xlink:href="#m1f14a9e5f9" x="62.446232" y="70.134523" style="fill: #2e86ab; stroke: #2e86ab"/>
     <use xlink:href="#m1f14a9e5f9" x="63.703665" y="73.381287" style="fill: #2e86ab; stroke: #2e86ab"/>
     <use xlink:href="#m1f14a9e5f9" x="63.973114" y="73.381287" style="fill: #2e86ab; stroke: #2e86ab"/>
     <use xlink:href="#m1f14a9e5f9" x="64.152748" y="73.381287" style="fill: #2e86ab; stroke: #2e86ab"/>
     <use xlink:href="#m1f14a9e5f9" x="64.781464" y="76.767697" style="fill: #2e86ab; stroke: #2e86ab"/>
     <use xlink:href="#m1f14a9e5f9" x="64.871281" y="76.767697" style="fill: #2e86ab; stroke: #2e86ab"/>
     <use xlink:href="#m1f14a9e5f9" x="65.320364" y="77.922155" style="fill: #2e86ab; stroke: #2e86ab"/>
     <use xlink:href="#m1f14a9e5f9" x="66.038897" y="80.257919" style="fill: #2e86ab; stroke: #2e86ab"/>
     <use xlink:href="#m1f14a9e5f9" x="66.128713" y="80.257919" style="fill: #2e86ab; stroke: #2e86ab"/>
     <use xlink:href="#m1f14a9e5f9" x="67.026879" y="80.257919" style="fill: #2e86ab; stroke: #2e86ab"/>
     <use xlink:href="#m1f14a9e5f9" x="68.05977" y="83.891329" style="fill: #2e86ab; stroke: #2e86ab"/>
     <use xlink:href="#m1f14a9e5f9" x="68.194495" y="83.891329" style="fill: #2e86ab; stroke: #2e86ab"/>
     <use xlink:href="#m1f14a9e5f9" x="68.284312" y="83.891329" style="fill: #2e86ab; stroke: #2e86ab"/>
     <use xlink:href="#m1f14a9e5f9" x="68.374128" y="83.891329" style="fill: #2e86ab; stroke: #2e86ab"/>
     <use xlink:href="#m1f14a9e5f9" x="68.463945" y="83.891329" style="fill: #2e86ab; stroke: #2e86ab"/>
     <use xlink:href="#m1f14a9e5f9" x="68.733395" y="83.891329" style="fill: #2e86ab; stroke: #2e86ab"/>
     <use xlink:href="#m1f14a9e5f9" x="69.496836" y="85.203394" style="fill: #2e86ab; stroke: #2e86ab"/>
     <use xlink:href="#m1f14a9e5f9" x="71.023719" y="89.19582" style="fill: #2e86ab; stroke: #2e86ab"/>
     <use xlink:href="#m1f14a9e5f9" x="71.068627" y="89.19582" style="fill: #2e86ab; stroke: #2e86ab"/>
     <use xlink:href="#m1f14a9e5f9" x="73.314042" y="94.682846" style="fill: #2e86ab; stroke: #2e86ab"/>
     <use xlink:href="#m1f14a9e5f9" x="73.673309" y="94.682846" style="fill: #2e86ab; stroke: #2e86ab"/>
     <use xlink:href="#m1f14a9e5f9" x="73.808033" y="94.682846" style="fill: #2e86ab; stroke: #2e86ab"/>
     <use xlink:href="#m1f14a9e5f9" x="74.796016" y="94.682846" style="fill: #2e86ab; stroke: #2e86ab"/>
     <use xlink:href="#m1f14a9e5f9" x="75.065466" y="94.682846" style="fill: #2e86ab; stroke: #2e86ab"/>
     <use xlink:href="#m1f14a9e5f9" x="75.514549" y="94.682846" style="fill: #2e86ab; stroke: #2e86ab"/>
     <use xlink:href="#m1f14a9e5f9" x="76.143265" y="94.682846" style="fill: #2e86ab; stroke: #2e86ab"/>
     <use xlink:href="#m1f14a9e5f9" x="76.996523" y="97.782" style="fill: #2e86ab; stroke: #2e86ab"/>
     <use xlink:href="#m1f14a9e5f9" x="77.849781" y="99.39356" style="fill: #2e86ab; stroke: #2e86ab"/>
     <use xlink:href="#m1f14a9e5f9" x="79.46648" y="102.683829" style="fill: #2e86ab; stroke: #2e86ab"/>
     <use xlink:href="#m1f14a9e5f9" x="80.00538" y="102.683829" style="fill: #2e86ab; stroke: #2e86ab"/>
     <use xlink:href="#m1f14a9e5f9" x="84.406394" y="107.843568" style="fill: #2e86ab; stroke: #2e86ab"/>
     <use xlink:href="#m1f14a9e5f9" x="85.84346" y="109.606478" style="fill: #2e86ab; stroke: #2e86ab"/>
     <use xlink:href="#m1f14a9e5f9" x="87.774517" y="111.415782" style="fill: #2e86ab; stroke: #2e86ab"/>
     <use xlink:href="#m1f14a9e5f9" x="89.481032" y="111.415782" style="fill: #2e86ab; stroke: #2e86ab"/>
     <use xlink:href="#m1f14a9e5f9" x="90.244474" y="111.415782" style="fill: #2e86ab; stroke: #2e86ab"/>
     <use xlink:href="#m1f14a9e5f9" x="92.355164" y="111.415782" style="fill: #2e86ab; stroke: #2e86ab"/>
     <use xlink:href="#m1f14a9e5f9" x="92.894064" y="111.415782" style="fill: #2e86ab; stroke: #2e86ab"/>
     <use xlink:href="#m1f14a9e5f9" x="99.181226" y="111.415782" style="fill: #2e86ab; stroke: #2e86ab"/>
     <use xlink:href="#m1f14a9e5f9" x="104.92949" y="117.894254" style="fill: #2e86ab; stroke: #2e86ab"/>
     <use xlink:href="#m1f14a9e5f9" x="104.974398" y="117.894254" style="fill: #2e86ab; stroke: #2e86ab"/>
     <use xlink:href="#m1f14a9e5f9" x="105.198939" y="117.894254" style="fill: #2e86ab; stroke: #2e86ab"/>
     <use xlink:href="#m1f14a9e5f9" x="109.734678" y="120.312884" style="fill: #2e86ab; stroke: #2e86ab"/>
     <use xlink:href="#m1f14a9e5f9" x="113.237526" y="120.312884" style="fill: #2e86ab; stroke: #2e86ab"/>
     <use xlink:href="#m1f14a9e5f9" x="118.71634" y="120.312884" style="fill: #2e86ab; stroke: #2e86ab"/>
     <use xlink:href="#m1f14a9e5f9" x="122.488637" y="120.312884" style="fill: #2e86ab; stroke: #2e86ab"/>
     <use xlink:href="#m1f14a9e5f9" x="124.240061" y="123.21524" style="fill: #2e86ab; stroke: #2e86ab"/>
     <use xlink:href="#m1f14a9e5f9" x="127.069285" y="123.21524" style="fill: #2e86ab; stroke: #2e86ab"/>
     <use xlink:href="#m1f14a9e5f9" x="127.159101" y="123.21524" style="fill: #2e86ab; stroke: #2e86ab"/>
     <use xlink:href="#m1f14a9e5f9" x="129.808691" y="126.661787" style="fill: #2e86ab; stroke: #2e86ab"/>
     <use xlink:href="#m1f14a9e5f9" x="129.8536" y="126.661787" style="fill: #2e86ab; stroke: #2e86ab"/>
     <use xlink:href="#m1f14a9e5f9" x="130.527224" y="130.638573" style="fill: #2e86ab; stroke: #2e86ab"/>
     <use xlink:href="#m1f14a9e5f9" x="130.661949" y="130.638573" style="fill: #2e86ab; stroke: #2e86ab"/>
     <use xlink:href="#m1f14a9e5f9" x="135.691679" y="130.638573" style="fill: #2e86ab; stroke: #2e86ab"/>
     <use xlink:href="#m1f14a9e5f9" x="143.460816" y="130.638573" style="fill: #2e86ab; stroke: #2e86ab"/>
     <use xlink:href="#m1f14a9e5f9" x="164.926987" y="136.603751" style="fill: #2e86ab; stroke: #2e86ab"/>
     <use xlink:href="#m1f14a9e5f9" x="193.758119" y="150.522501" style="fill: #2e86ab; stroke: #2e86ab"/>
     <use xlink:href="#m1f14a9e5f9" x="211.047817" y="150.522501" style="fill: #2e86ab; stroke: #2e86ab"/>
     <use xlink:href="#m1f14a9e5f9" x="218.412779" y="150.522501" style="fill: #2e86ab; stroke: #2e86ab"/>
     <use xlink:href="#m1f14a9e5f9" x="262.692369" y="150.522501" style="fill: #2e86ab; stroke: #2e86ab"/>
    </g>
   </g>
   <g id="line2d_26">
    <path d="M 39.632812 16.145645 
L 40.48607 16.145645 
L 40.530979 17.743816 
L 42.147678 17.743816 
L 42.192586 19.349977 
L 42.417127 19.349977 
L 42.417127 20.157135 
L 42.506944 20.157135 
L 42.551852 20.157135 
L 42.551852 20.968432 
L 42.641669 20.968432 
L 42.686577 20.968432 
L 42.686577 21.783932 
L 43.045844 21.783932 
L 43.045844 22.599432 
L 43.584743 22.599432 
L 43.584743 23.419225 
L 43.629652 23.419225 
L 43.809285 23.419225 
L 43.809285 24.243378 
L 44.033827 24.243378 
L 44.078735 25.891684 
L 44.931993 25.891684 
L 44.931993 26.724844 
L 46.099609 26.724844 
L 46.099609 27.558004 
L 46.32415 27.558004 
L 46.32415 28.391165 
L 46.548692 28.391165 
L 46.548692 29.224325 
L 46.952866 29.224325 
L 46.952866 30.057485 
L 47.401949 30.057485 
L 47.401949 30.895352 
L 48.210299 30.895352 
L 48.210299 31.74285 
L 48.614474 31.74285 
L 48.614474 33.437846 
L 49.108465 33.437846 
L 49.198282 35.132842 
L 49.333007 35.132842 
L 49.333007 35.98034 
L 49.51264 35.98034 
L 49.51264 36.827838 
L 50.05154 36.827838 
L 50.05154 38.522834 
L 50.276081 38.522834 
L 50.276081 39.370332 
L 50.680256 39.370332 
L 50.680256 40.21783 
L 50.859889 40.21783 
L 50.859889 41.065328 
L 50.904797 41.065328 
L 50.994614 41.065328 
L 51.039522 42.770852 
L 51.219155 42.770852 
L 51.219155 43.623614 
L 51.847872 43.623614 
L 51.937688 46.1819 
L 52.117322 46.1819 
L 52.117322 47.034662 
L 52.835855 47.034662 
L 52.835855 48.740185 
L 54.048379 48.740185 
L 54.048379 49.592947 
L 54.183104 49.592947 
L 54.183104 50.445709 
L 54.362737 50.445709 
L 54.407645 52.151233 
L 54.452554 52.151233 
L 55.08127 52.151233 
L 55.126178 53.009796 
L 55.126178 53.009796 
L 55.620169 53.009796 
L 55.620169 53.87428 
L 55.889619 53.87428 
L 55.979436 55.6276 
L 56.967419 55.6276 
L 57.057235 57.459427 
L 57.596135 57.459427 
L 57.596135 58.389432 
L 57.865585 58.389432 
L 57.955401 60.24944 
L 58.179943 60.24944 
L 58.179943 61.179445 
L 58.404484 61.179445 
L 58.404484 62.109449 
L 59.123017 62.109449 
L 59.123017 63.070198 
L 60.021183 63.070198 
L 60.021183 64.030946 
L 60.066092 64.030946 
L 60.604991 64.030946 
L 60.604991 65.985289 
L 60.694808 65.985289 
L 60.91935 65.985289 
L 60.91935 66.971032 
L 60.964258 66.971032 
L 61.458249 66.971032 
L 61.458249 68.01205 
L 61.862424 68.01205 
L 61.862424 69.062983 
L 62.446232 69.062983 
L 62.536049 71.216777 
L 63.074948 71.216777 
L 63.074948 72.299032 
L 63.703665 72.299032 
L 63.703665 73.381287 
L 64.197656 73.381287 
L 64.197656 75.638894 
L 64.332381 75.638894 
L 64.332381 76.767697 
L 65.006005 76.767697 
L 65.006005 77.922155 
L 65.455089 77.922155 
L 65.544905 80.257919 
L 67.341237 80.257919 
L 67.341237 81.469056 
L 67.610687 81.469056 
L 67.610687 82.680192 
L 67.925045 82.680192 
L 67.925045 83.891329 
L 69.496836 83.891329 
L 69.496836 85.203394 
L 70.395002 85.203394 
L 70.395002 86.534203 
L 70.619544 86.534203 
L 70.619544 87.865011 
L 70.888994 87.865011 
L 70.888994 89.19582 
L 71.338077 89.19582 
L 71.338077 90.567577 
L 71.607526 90.567577 
L 71.607526 91.939333 
L 71.921885 91.939333 
L 71.921885 93.31109 
L 72.820051 93.31109 
L 72.820051 94.682846 
L 76.412715 94.682846 
L 76.412715 96.232423 
L 76.592348 96.232423 
L 76.592348 97.782 
L 77.131248 97.782 
L 77.131248 99.39356 
L 78.209047 99.39356 
L 78.209047 101.038694 
L 78.433589 101.038694 
L 78.433589 102.683829 
L 80.229921 102.683829 
L 80.229921 104.403742 
L 81.891529 104.403742 
L 81.891529 106.123655 
L 83.373503 106.123655 
L 83.373503 107.843568 
L 84.900385 107.843568 
L 84.900385 109.606478 
L 87.41525 109.606478 
L 87.41525 111.415782 
L 100.169209 111.415782 
L 100.169209 113.575273 
L 103.402607 113.575273 
L 103.402607 115.734763 
L 103.537332 115.734763 
L 103.537332 117.894254 
L 109.510137 117.894254 
L 109.510137 120.312884 
L 123.566437 120.312884 
L 123.566437 123.21524 
L 128.147084 123.21524 
L 128.147084 126.661787 
L 130.347591 126.661787 
L 130.347591 130.638573 
L 158.235649 130.638573 
L 158.235649 136.603751 
L 172.291949 136.603751 
L 172.291949 143.563126 
L 182.575951 143.563126 
L 182.575951 150.522501 
L 262.692369 150.522501 
L 262.692369 150.522501 
" clip-path="url(#pd8f2cc1846)" style="fill: none; stroke: #2e86ab; stroke-width: 2; stroke-linecap: round"/>
   </g>
   <g id="line2d_27">
    <defs>
     <path id="m93985ea55a" d="M -3 3 
L 3 -3 
M -3 -3 
L 3 3 
" style="stroke: #e63946"/>
    </defs>
    <g clip-path="url(#pd8f2cc1846)">
     <use xlink:href="#m93985ea55a" x="36.758681" y="15.350476" style="fill: #e63946; stroke: #e63946"/>
     <use xlink:href="#m93985ea55a" x="39.632812" y="16.145645" style="fill: #e63946; stroke: #e63946"/>
     <use xlink:href="#m93985ea55a" x="40.21662" y="16.145645" style="fill: #e63946; stroke: #e63946"/>
     <use xlink:href="#m93985ea55a" x="40.306437" y="16.145645" style="fill: #e63946; stroke: #e63946"/>
     <use xlink:href="#m93985ea55a" x="40.530979" y="16.145645" style="fill: #e63946; stroke: #e63946"/>
     <use xlink:href="#m93985ea55a" x="40.890245" y="16.145645" style="fill: #e63946; stroke: #e63946"/>
     <use xlink:href="#m93985ea55a" x="41.204603" y="16.145645" style="fill: #e63946; stroke: #e63946"/>
     <use xlink:href="#m93985ea55a" x="41.698595" y="16.145645" style="fill: #e63946; stroke: #e63946"/>
     <use xlink:href="#m93985ea55a" x="42.102769" y="16.145645" style="fill: #e63946; stroke: #e63946"/>
     <use xlink:href="#m93985ea55a" x="42.506944" y="16.973269" style="fill: #e63946; stroke: #e63946"/>
     <use xlink:href="#m93985ea55a" x="42.686577" y="16.973269" style="fill: #e63946; stroke: #e63946"/>
     <use xlink:href="#m93985ea55a" x="43.315294" y="18.64567" style="fill: #e63946; stroke: #e63946"/>
     <use xlink:href="#m93985ea55a" x="43.899102" y="19.486272" style="fill: #e63946; stroke: #e63946"/>
     <use xlink:href="#m93985ea55a" x="44.348185" y="19.486272" style="fill: #e63946; stroke: #e63946"/>
     <use xlink:href="#m93985ea55a" x="45.425984" y="22.035048" style="fill: #e63946; stroke: #e63946"/>
     <use xlink:href="#m93985ea55a" x="46.728325" y="25.451987" style="fill: #e63946; stroke: #e63946"/>
     <use xlink:href="#m93985ea55a" x="49.692273" y="30.60619" style="fill: #e63946; stroke: #e63946"/>
     <use xlink:href="#m93985ea55a" x="52.027505" y="36.654591" style="fill: #e63946; stroke: #e63946"/>
     <use xlink:href="#m93985ea55a" x="52.790946" y="36.654591" style="fill: #e63946; stroke: #e63946"/>
     <use xlink:href="#m93985ea55a" x="54.587278" y="40.15349" style="fill: #e63946; stroke: #e63946"/>
     <use xlink:href="#m93985ea55a" x="54.766912" y="40.15349" style="fill: #e63946; stroke: #e63946"/>
     <use xlink:href="#m93985ea55a" x="55.126178" y="41.925369" style="fill: #e63946; stroke: #e63946"/>
     <use xlink:href="#m93985ea55a" x="55.844711" y="41.925369" style="fill: #e63946; stroke: #e63946"/>
     <use xlink:href="#m93985ea55a" x="56.024344" y="41.925369" style="fill: #e63946; stroke: #e63946"/>
     <use xlink:href="#m93985ea55a" x="56.069253" y="41.925369" style="fill: #e63946; stroke: #e63946"/>
     <use xlink:href="#m93985ea55a" x="56.159069" y="41.925369" style="fill: #e63946; stroke: #e63946"/>
     <use xlink:href="#m93985ea55a" x="56.203977" y="41.925369" style="fill: #e63946; stroke: #e63946"/>
     <use xlink:href="#m93985ea55a" x="56.338702" y="43.76908" style="fill: #e63946; stroke: #e63946"/>
     <use xlink:href="#m93985ea55a" x="56.383611" y="43.76908" style="fill: #e63946; stroke: #e63946"/>
     <use xlink:href="#m93985ea55a" x="56.563244" y="43.76908" style="fill: #e63946; stroke: #e63946"/>
     <use xlink:href="#m93985ea55a" x="56.653061" y="43.76908" style="fill: #e63946; stroke: #e63946"/>
     <use xlink:href="#m93985ea55a" x="56.832694" y="43.76908" style="fill: #e63946; stroke: #e63946"/>
     <use xlink:href="#m93985ea55a" x="56.877602" y="43.76908" style="fill: #e63946; stroke: #e63946"/>
     <use xlink:href="#m93985ea55a" x="57.506318" y="47.6422" style="fill: #e63946; stroke: #e63946"/>
     <use xlink:href="#m93985ea55a" x="57.551227" y="47.6422" style="fill: #e63946; stroke: #e63946"/>
     <use xlink:href="#m93985ea55a" x="58.045218" y="47.6422" style="fill: #e63946; stroke: #e63946"/>
     <use xlink:href="#m93985ea55a" x="58.26976" y="50.635737" style="fill: #e63946; stroke: #e63946"/>
     <use xlink:href="#m93985ea55a" x="58.314668" y="50.635737" style="fill: #e63946; stroke: #e63946"/>
     <use xlink:href="#m93985ea55a" x="60.155908" y="53.70112" style="fill: #e63946; stroke: #e63946"/>
     <use xlink:href="#m93985ea55a" x="60.560083" y="54.731358" style="fill: #e63946; stroke: #e63946"/>
     <use xlink:href="#m93985ea55a" x="60.604991" y="54.731358" style="fill: #e63946; stroke: #e63946"/>
     <use xlink:href="#m93985ea55a" x="61.368433" y="54.731358" style="fill: #e63946; stroke: #e63946"/>
     <use xlink:href="#m93985ea55a" x="61.862424" y="55.797123" style="fill: #e63946; stroke: #e63946"/>
     <use xlink:href="#m93985ea55a" x="62.625865" y="56.88175" style="fill: #e63946; stroke: #e63946"/>
     <use xlink:href="#m93985ea55a" x="63.074948" y="56.88175" style="fill: #e63946; stroke: #e63946"/>
     <use xlink:href="#m93985ea55a" x="63.164765" y="56.88175" style="fill: #e63946; stroke: #e63946"/>
     <use xlink:href="#m93985ea55a" x="63.83839" y="60.225188" style="fill: #e63946; stroke: #e63946"/>
     <use xlink:href="#m93985ea55a" x="63.883298" y="60.225188" style="fill: #e63946; stroke: #e63946"/>
     <use xlink:href="#m93985ea55a" x="65.320364" y="63.632923" style="fill: #e63946; stroke: #e63946"/>
     <use xlink:href="#m93985ea55a" x="65.365272" y="63.632923" style="fill: #e63946; stroke: #e63946"/>
     <use xlink:href="#m93985ea55a" x="65.589813" y="63.632923" style="fill: #e63946; stroke: #e63946"/>
     <use xlink:href="#m93985ea55a" x="65.67963" y="64.815676" style="fill: #e63946; stroke: #e63946"/>
     <use xlink:href="#m93985ea55a" x="65.724538" y="64.815676" style="fill: #e63946; stroke: #e63946"/>
     <use xlink:href="#m93985ea55a" x="65.769447" y="64.815676" style="fill: #e63946; stroke: #e63946"/>
     <use xlink:href="#m93985ea55a" x="66.712521" y="69.699303" style="fill: #e63946; stroke: #e63946"/>
     <use xlink:href="#m93985ea55a" x="67.386146" y="72.168864" style="fill: #e63946; stroke: #e63946"/>
     <use xlink:href="#m93985ea55a" x="68.419037" y="72.168864" style="fill: #e63946; stroke: #e63946"/>
     <use xlink:href="#m93985ea55a" x="68.643578" y="72.168864" style="fill: #e63946; stroke: #e63946"/>
     <use xlink:href="#m93985ea55a" x="68.778303" y="72.168864" style="fill: #e63946; stroke: #e63946"/>
     <use xlink:href="#m93985ea55a" x="70.664452" y="76.053906" style="fill: #e63946; stroke: #e63946"/>
     <use xlink:href="#m93985ea55a" x="72.460784" y="76.053906" style="fill: #e63946; stroke: #e63946"/>
     <use xlink:href="#m93985ea55a" x="74.346933" y="77.382556" style="fill: #e63946; stroke: #e63946"/>
     <use xlink:href="#m93985ea55a" x="75.469641" y="80.075288" style="fill: #e63946; stroke: #e63946"/>
     <use xlink:href="#m93985ea55a" x="76.098357" y="80.075288" style="fill: #e63946; stroke: #e63946"/>
     <use xlink:href="#m93985ea55a" x="76.457624" y="80.075288" style="fill: #e63946; stroke: #e63946"/>
     <use xlink:href="#m93985ea55a" x="77.35579" y="80.075288" style="fill: #e63946; stroke: #e63946"/>
     <use xlink:href="#m93985ea55a" x="77.445606" y="80.075288" style="fill: #e63946; stroke: #e63946"/>
     <use xlink:href="#m93985ea55a" x="78.433589" y="80.075288" style="fill: #e63946; stroke: #e63946"/>
     <use xlink:href="#m93985ea55a" x="78.837764" y="80.075288" style="fill: #e63946; stroke: #e63946"/>
     <use xlink:href="#m93985ea55a" x="79.73593" y="80.075288" style="fill: #e63946; stroke: #e63946"/>
     <use xlink:href="#m93985ea55a" x="79.915563" y="80.075288" style="fill: #e63946; stroke: #e63946"/>
     <use xlink:href="#m93985ea55a" x="80.319738" y="80.075288" style="fill: #e63946; stroke: #e63946"/>
     <use xlink:href="#m93985ea55a" x="80.993362" y="80.075288" style="fill: #e63946; stroke: #e63946"/>
     <use xlink:href="#m93985ea55a" x="82.071162" y="80.075288" style="fill: #e63946; stroke: #e63946"/>
     <use xlink:href="#m93985ea55a" x="84.675844" y="81.686513" style="fill: #e63946; stroke: #e63946"/>
     <use xlink:href="#m93985ea55a" x="86.696717" y="86.602114" style="fill: #e63946; stroke: #e63946"/>
     <use xlink:href="#m93985ea55a" x="88.582866" y="88.270439" style="fill: #e63946; stroke: #e63946"/>
     <use xlink:href="#m93985ea55a" x="88.762499" y="88.270439" style="fill: #e63946; stroke: #e63946"/>
     <use xlink:href="#m93985ea55a" x="89.391216" y="88.270439" style="fill: #e63946; stroke: #e63946"/>
     <use xlink:href="#m93985ea55a" x="89.705574" y="88.270439" style="fill: #e63946; stroke: #e63946"/>
     <use xlink:href="#m93985ea55a" x="92.669522" y="90.07223" style="fill: #e63946; stroke: #e63946"/>
     <use xlink:href="#m93985ea55a" x="94.376038" y="90.07223" style="fill: #e63946; stroke: #e63946"/>
     <use xlink:href="#m93985ea55a" x="100.259026" y="91.950694" style="fill: #e63946; stroke: #e63946"/>
     <use xlink:href="#m93985ea55a" x="101.157192" y="93.8709" style="fill: #e63946; stroke: #e63946"/>
     <use xlink:href="#m93985ea55a" x="106.052197" y="93.8709" style="fill: #e63946; stroke: #e63946"/>
     <use xlink:href="#m93985ea55a" x="107.983254" y="93.8709" style="fill: #e63946; stroke: #e63946"/>
     <use xlink:href="#m93985ea55a" x="108.297613" y="93.8709" style="fill: #e63946; stroke: #e63946"/>
     <use xlink:href="#m93985ea55a" x="108.701787" y="93.8709" style="fill: #e63946; stroke: #e63946"/>
     <use xlink:href="#m93985ea55a" x="108.881421" y="93.8709" style="fill: #e63946; stroke: #e63946"/>
     <use xlink:href="#m93985ea55a" x="110.677753" y="93.8709" style="fill: #e63946; stroke: #e63946"/>
     <use xlink:href="#m93985ea55a" x="111.665736" y="93.8709" style="fill: #e63946; stroke: #e63946"/>
     <use xlink:href="#m93985ea55a" x="112.429177" y="93.8709" style="fill: #e63946; stroke: #e63946"/>
     <use xlink:href="#m93985ea55a" x="113.686609" y="93.8709" style="fill: #e63946; stroke: #e63946"/>
     <use xlink:href="#m93985ea55a" x="116.336199" y="96.355874" style="fill: #e63946; stroke: #e63946"/>
     <use xlink:href="#m93985ea55a" x="116.605649" y="96.355874" style="fill: #e63946; stroke: #e63946"/>
     <use xlink:href="#m93985ea55a" x="119.839047" y="99.001168" style="fill: #e63946; stroke: #e63946"/>
     <use xlink:href="#m93985ea55a" x="120.108497" y="99.001168" style="fill: #e63946; stroke: #e63946"/>
     <use xlink:href="#m93985ea55a" x="120.737213" y="101.835412" style="fill: #e63946; stroke: #e63946"/>
     <use xlink:href="#m93985ea55a" x="121.815013" y="101.835412" style="fill: #e63946; stroke: #e63946"/>
     <use xlink:href="#m93985ea55a" x="125.497494" y="101.835412" style="fill: #e63946; stroke: #e63946"/>
     <use xlink:href="#m93985ea55a" x="127.293826" y="101.835412" style="fill: #e63946; stroke: #e63946"/>
     <use xlink:href="#m93985ea55a" x="130.347591" y="101.835412" style="fill: #e63946; stroke: #e63946"/>
     <use xlink:href="#m93985ea55a" x="131.42539" y="101.835412" style="fill: #e63946; stroke: #e63946"/>
     <use xlink:href="#m93985ea55a" x="131.649932" y="101.835412" style="fill: #e63946; stroke: #e63946"/>
     <use xlink:href="#m93985ea55a" x="134.34443" y="101.835412" style="fill: #e63946; stroke: #e63946"/>
     <use xlink:href="#m93985ea55a" x="137.398195" y="101.835412" style="fill: #e63946; stroke: #e63946"/>
     <use xlink:href="#m93985ea55a" x="142.607559" y="101.835412" style="fill: #e63946; stroke: #e63946"/>
     <use xlink:href="#m93985ea55a" x="144.269166" y="101.835412" style="fill: #e63946; stroke: #e63946"/>
     <use xlink:href="#m93985ea55a" x="145.257149" y="101.835412" style="fill: #e63946; stroke: #e63946"/>
     <use xlink:href="#m93985ea55a" x="146.514581" y="101.835412" style="fill: #e63946; stroke: #e63946"/>
     <use xlink:href="#m93985ea55a" x="148.445638" y="101.835412" style="fill: #e63946; stroke: #e63946"/>
     <use xlink:href="#m93985ea55a" x="157.517116" y="101.835412" style="fill: #e63946; stroke: #e63946"/>
     <use xlink:href="#m93985ea55a" x="158.909274" y="101.835412" style="fill: #e63946; stroke: #e63946"/>
     <use xlink:href="#m93985ea55a" x="161.019964" y="101.835412" style="fill: #e63946; stroke: #e63946"/>
     <use xlink:href="#m93985ea55a" x="168.429835" y="109.487871" style="fill: #e63946; stroke: #e63946"/>
     <use xlink:href="#m93985ea55a" x="169.238184" y="109.487871" style="fill: #e63946; stroke: #e63946"/>
     <use xlink:href="#m93985ea55a" x="172.741032" y="109.487871" style="fill: #e63946; stroke: #e63946"/>
     <use xlink:href="#m93985ea55a" x="174.851722" y="109.487871" style="fill: #e63946; stroke: #e63946"/>
     <use xlink:href="#m93985ea55a" x="190.704354" y="109.487871" style="fill: #e63946; stroke: #e63946"/>
     <use xlink:href="#m93985ea55a" x="193.21922" y="109.487871" style="fill: #e63946; stroke: #e63946"/>
     <use xlink:href="#m93985ea55a" x="211.856167" y="109.487871" style="fill: #e63946; stroke: #e63946"/>
     <use xlink:href="#m93985ea55a" x="266.015584" y="109.487871" style="fill: #e63946; stroke: #e63946"/>
     <use xlink:href="#m93985ea55a" x="266.419759" y="109.487871" style="fill: #e63946; stroke: #e63946"/>
    </g>
   </g>
   <g id="line2d_28">
    <path d="M 36.758681 15.350476 
L 39.632812 15.350476 
L 39.632812 16.145645 
L 42.147678 16.145645 
L 42.147678 16.973269 
L 42.731486 16.973269 
L 42.731486 17.80947 
L 43.270385 17.80947 
L 43.270385 18.64567 
L 43.315294 18.64567 
L 43.67456 18.64567 
L 43.67456 19.486272 
L 44.393093 19.486272 
L 44.393093 20.335864 
L 45.111626 20.335864 
L 45.111626 21.185456 
L 45.381076 21.185456 
L 45.381076 22.035048 
L 45.425984 22.035048 
L 45.515801 22.035048 
L 45.515801 22.889283 
L 46.009792 22.889283 
L 46.009792 23.743518 
L 46.189425 23.743518 
L 46.189425 24.597752 
L 46.548692 24.597752 
L 46.548692 25.451987 
L 47.177408 25.451987 
L 47.177408 27.170055 
L 47.806124 27.170055 
L 47.806124 28.029089 
L 48.839015 28.029089 
L 48.883924 29.747156 
L 49.647365 29.747156 
L 49.647365 30.60619 
L 49.692273 30.60619 
L 50.770072 30.60619 
L 50.770072 31.470247 
L 50.904797 31.470247 
L 50.904797 32.334305 
L 51.039522 32.334305 
L 51.039522 33.198362 
L 51.264064 33.198362 
L 51.35388 34.926477 
L 51.398789 34.926477 
L 51.398789 35.790534 
L 51.847872 35.790534 
L 51.847872 36.654591 
L 53.240029 36.654591 
L 53.240029 37.529316 
L 53.599296 37.529316 
L 53.599296 38.404041 
L 54.183104 38.404041 
L 54.183104 39.278766 
L 54.54237 39.278766 
L 54.54237 40.15349 
L 54.587278 40.15349 
L 54.901637 40.15349 
L 54.901637 41.03943 
L 55.08127 41.03943 
L 55.08127 41.925369 
L 55.126178 41.925369 
L 56.248886 41.925369 
L 56.248886 43.76908 
L 56.338702 43.76908 
L 56.92251 43.76908 
L 56.92251 45.70564 
L 57.19196 45.70564 
L 57.281777 47.6422 
L 58.179943 47.6422 
L 58.26976 50.635737 
L 59.257742 50.635737 
L 59.257742 51.657531 
L 59.976275 51.657531 
L 60.066092 53.70112 
L 60.290633 53.70112 
L 60.290633 54.731358 
L 61.727699 54.731358 
L 61.727699 55.797123 
L 62.536049 55.797123 
L 62.536049 56.88175 
L 62.625865 56.88175 
L 63.434215 56.88175 
L 63.434215 57.996229 
L 63.613848 57.996229 
L 63.613848 59.110708 
L 63.83839 59.110708 
L 63.83839 60.225188 
L 63.883298 60.225188 
L 64.062931 60.225188 
L 64.062931 62.497011 
L 65.006005 62.497011 
L 65.006005 63.632923 
L 65.634722 63.632923 
L 65.634722 64.815676 
L 65.724538 64.815676 
L 66.128713 64.815676 
L 66.128713 66.036583 
L 66.263438 66.036583 
L 66.263438 67.25749 
L 66.532888 67.25749 
L 66.532888 68.478396 
L 66.667613 68.478396 
L 66.667613 69.699303 
L 66.712521 69.699303 
L 67.116696 69.699303 
L 67.116696 70.934084 
L 67.251421 70.934084 
L 67.251421 72.168864 
L 68.86812 72.168864 
L 68.86812 73.463878 
L 69.901011 73.463878 
L 69.901011 74.758892 
L 70.170461 74.758892 
L 70.170461 76.053906 
L 72.595509 76.053906 
L 72.595509 77.382556 
L 74.571475 77.382556 
L 74.571475 78.728922 
L 75.334916 78.728922 
L 75.334916 80.075288 
L 82.250795 80.075288 
L 82.250795 81.686513 
L 84.720752 81.686513 
L 84.76566 84.96358 
L 86.157818 84.96358 
L 86.157818 86.602114 
L 87.999058 86.602114 
L 87.999058 88.270439 
L 91.861173 88.270439 
L 91.861173 90.07223 
L 96.666361 90.07223 
L 96.666361 91.950694 
L 101.022467 91.950694 
L 101.022467 93.8709 
L 114.629684 93.8709 
L 114.629684 96.355874 
L 116.785282 96.355874 
L 116.785282 99.001168 
L 120.647397 99.001168 
L 120.647397 101.835412 
L 120.737213 101.835412 
L 166.633502 101.835412 
L 166.633502 109.487871 
L 266.419759 109.487871 
L 266.419759 109.487871 
" clip-path="url(#pd8f2cc1846)" style="fill: none; stroke: #e63946; stroke-width: 2; stroke-linecap: round"/>
   </g>
   <g id="patch_3">
    <path d="M 39.632812 178.36 
L 39.632812 7.2 
" style="fill: none; stroke: #262626; stroke-width: 0.8; stroke-linejoin: miter; stroke-linecap: square"/>
   </g>
   <g id="patch_4">
    <path d="M 277.902813 178.36 
L 277.902813 7.2 
" style="fill: none; stroke: #262626; stroke-width: 0.8; stroke-linejoin: miter; stroke-linecap: square"/>
   </g>
   <g id="patch_5">
    <path d="M 39.632812 178.36 
L 277.902813 178.36 
" style="fill: none; stroke: #262626; stroke-width: 0.8; stroke-linejoin: miter; stroke-linecap: square"/>
   </g>
   <g id="patch_6">
    <path d="M 39.632812 7.2 
L 277.902813 7.2 
" style="fill: none; stroke: #262626; stroke-width: 0.8; stroke-linejoin: miter; stroke-linecap: square"/>
   </g>
   <g id="text_15">
    <g id="patch_7">
     <path d="M 235.262413 25.9005 
L 273.137413 25.9005 
Q 275.537413 25.9005 275.537413 23.5005 
L 275.537413 15.758 
Q 275.537413 13.358 273.137413 13.358 
L 235.262413 13.358 
Q 232.862413 13.358 232.862413 15.758 
L 232.862413 23.5005 
Q 232.862413 25.9005 235.262413 25.9005 
z
" style="fill: #ffffff; opacity: 0.8; stroke: #ffffff; stroke-linejoin: miter"/>
    </g>
    <!-- P &lt; 0.01 -->
    <g style="fill: #262626" transform="translate(235.262413 21.83675) scale(0.08 -0.08)">
     <defs>
      <path id="DejaVuSans-Bold-50" d="M 588 4666 
L 2584 4666 
Q 3475 4666 3951 4270 
Q 4428 3875 4428 3144 
Q 4428 2409 3951 2014 
Q 3475 1619 2584 1619 
L 1791 1619 
L 1791 0 
L 588 0 
L 588 4666 
z
M 1791 3794 
L 1791 2491 
L 2456 2491 
Q 2806 2491 2997 2661 
Q 3188 2831 3188 3144 
Q 3188 3456 2997 3625 
Q 2806 3794 2456 3794 
L 1791 3794 
z
" transform="scale(0.015625)"/>
      <path id="DejaVuSans-Bold-20" transform="scale(0.015625)"/>
      <path id="DejaVuSans-Bold-3c" d="M 4684 3041 
L 1672 2003 
L 4684 972 
L 4684 191 
L 678 1638 
L 678 2375 
L 4684 3822 
L 4684 3041 
z
" transform="scale(0.015625)"/>
      <path id="DejaVuSans-Bold-30" d="M 2944 2338 
Q 2944 3213 2780 3570 
Q 2616 3928 2228 3928 
Q 1841 3928 1675 3570 
Q 1509 3213 1509 2338 
Q 1509 1453 1675 1090 
Q 1841 728 2228 728 
Q 2613 728 2778 1090 
Q 2944 1453 2944 2338 
z
M 4147 2328 
Q 4147 1169 3647 539 
Q 3147 -91 2228 -91 
Q 1306 -91 806 539 
Q 306 1169 306 2328 
Q 306 3491 806 4120 
Q 1306 4750 2228 4750 
Q 3147 4750 3647 4120 
Q 4147 3491 4147 2328 
z
" transform="scale(0.015625)"/>
      <path id="DejaVuSans-Bold-2e" d="M 653 1209 
L 1778 1209 
L 1778 0 
L 653 0 
L 653 1209 
z
" transform="scale(0.015625)"/>
      <path id="DejaVuSans-Bold-31" d="M 750 831 
L 1813 831 
L 1813 3847 
L 722 3622 
L 722 4441 
L 1806 4666 
L 2950 4666 
L 2950 831 
L 4013 831 
L 4013 0 
L 750 0 
L 750 831 
z
" transform="scale(0.015625)"/>
     </defs>
     <use xlink:href="#DejaVuSans-Bold-50"/>
     <use xlink:href="#DejaVuSans-Bold-20" transform="translate(73.291016 0)"/>
     <use xlink:href="#DejaVuSans-Bold-3c" transform="translate(108.105469 0)"/>
     <use xlink:href="#DejaVuSans-Bold-20" transform="translate(191.894531 0)"/>
     <use xlink:href="#DejaVuSans-Bold-30" transform="translate(226.708984 0)"/>
     <use xlink:href="#DejaVuSans-Bold-2e" transform="translate(296.289062 0)"/>
     <use xlink:href="#DejaVuSans-Bold-30" transform="translate(334.277344 0)"/>
     <use xlink:href="#DejaVuSans-Bold-31" transform="translate(403.857422 0)"/>
    </g>
   </g>
  </g>
 </g>
 <defs>
  <clipPath id="pd8f2cc1846">
   <rect x="39.632812" y="7.2" width="238.27" height="171.16"/>
  </clipPath>
 </defs>
</svg>
