<?xml version="1.0" encoding="utf-8" standalone="no"?>
<!DOCTYPE svg PUBLIC "-//W3C//DTD SVG 1.1//EN"
  "http://www.w3.org/Graphics/SVG/1.1/DTD/svg11.dtd">
<svg xmlns:xlink="http://www.w3.org/1999/xlink" width="285.102812pt" height="213.012812pt" viewBox="0 0 285.102812 213.012812" xmlns="http://www.w3.org/2000/svg" version="1.1">
 <metadata>
  <rdf:RDF xmlns:dc="http://purl.org/dc/elements/1.1/" xmlns:cc="http://creativecommons.org/ns#" xmlns:rdf="http://www.w3.org/1999/02/22-rdf-syntax-ns#">
   <cc:Work>
    <dc:type rdf:resource="http://purl.org/dc/dcmitype/StillImage"/>
    <dc:date>2025-07-12T19:58:06.168440</dc:date>
    <dc:format>image/svg+xml</dc:format>
    <dc:creator>
     <cc:Agent>
      <dc:title>Matplotlib v3.10.3, https://matplotlib.org/</dc:title>
     </cc:Agent>
    </dc:creator>
   </cc:Work>
  </rdf:RDF>
 </metadata>
 <defs>
  <style type="text/css">*{stroke-linejoin: round; stroke-linecap: butt}</style>
 </defs>
 <g id="figure_1">
  <g id="patch_1">
   <path d="M 0 213.012812 
L 285.102812 213.012812 
L 285.102812 0 
L 0 0 
L 0 213.012812 
z
" style="fill: none"/>
  </g>
  <g id="axes_1">
   <g id="patch_2">
    <path d="M 39.632812 178.36 
L 277.902813 178.36 
L 277.902813 7.2 
L 39.632812 7.2 
L 39.632812 178.36 
z
" style="fill: none"/>
   </g>
   <g id="matplotlib.axis_1">
    <g id="xtick_1">
     <g id="line2d_1">
      <path d="M 39.632812 178.36 
L 39.632812 7.2 
" clip-path="url(#pe768065569)" style="fill: none; stroke: #cccccc; stroke-opacity: 0.3; stroke-width: 0.5; stroke-linecap: round"/>
     </g>
     <g id="line2d_2">
      <defs>
       <path id="mf30c6d417f" d="M 0 0 
L 0 3.5 
" style="stroke: #262626; stroke-width: 0.8"/>
      </defs>
      <g>
       <use xlink:href="#mf30c6d417f" x="39.632812" y="178.36" style="fill: #262626; stroke: #262626; stroke-width: 0.8"/>
      </g>
     </g>
     <g id="text_1">
      <!-- 0 -->
      <g style="fill: #262626" transform="translate(37.087812 191.43875) scale(0.08 -0.08)">
       <defs>
        <path id="DejaVuSans-30" d="M 2034 4250 
Q 1547 4250 1301 3770 
Q 1056 3291 1056 2328 
Q 1056 1369 1301 889 
Q 1547 409 2034 409 
Q 2525 409 2770 889 
Q 3016 1369 3016 2328 
Q 3016 3291 2770 3770 
Q 2525 4250 2034 4250 
z
M 2034 4750 
Q 2819 4750 3233 4129 
Q 3647 3509 3647 2328 
Q 3647 1150 3233 529 
Q 2819 -91 2034 -91 
Q 1250 -91 836 529 
Q 422 1150 422 2328 
Q 422 3509 836 4129 
Q 1250 4750 2034 4750 
z
" transform="scale(0.015625)"/>
       </defs>
       <use xlink:href="#DejaVuSans-30"/>
      </g>
     </g>
    </g>
    <g id="xtick_2">
     <g id="line2d_3">
      <path d="M 84.541119 178.36 
L 84.541119 7.2 
" clip-path="url(#pe768065569)" style="fill: none; stroke: #cccccc; stroke-opacity: 0.3; stroke-width: 0.5; stroke-linecap: round"/>
     </g>
     <g id="line2d_4">
      <g>
       <use xlink:href="#mf30c6d417f" x="84.541119" y="178.36" style="fill: #262626; stroke: #262626; stroke-width: 0.8"/>
      </g>
     </g>
     <g id="text_2">
      <!-- 1000 -->
      <g style="fill: #262626" transform="translate(74.361119 191.43875) scale(0.08 -0.08)">
       <defs>
        <path id="DejaVuSans-31" d="M 794 531 
L 1825 531 
L 1825 4091 
L 703 3866 
L 703 4441 
L 1819 4666 
L 2450 4666 
L 2450 531 
L 3481 531 
L 3481 0 
L 794 0 
L 794 531 
z
" transform="scale(0.015625)"/>
       </defs>
       <use xlink:href="#DejaVuSans-31"/>
       <use xlink:href="#DejaVuSans-30" transform="translate(63.623047 0)"/>
       <use xlink:href="#DejaVuSans-30" transform="translate(127.246094 0)"/>
       <use xlink:href="#DejaVuSans-30" transform="translate(190.869141 0)"/>
      </g>
     </g>
    </g>
    <g id="xtick_3">
     <g id="line2d_5">
      <path d="M 129.449425 178.36 
L 129.449425 7.2 
" clip-path="url(#pe768065569)" style="fill: none; stroke: #cccccc; stroke-opacity: 0.3; stroke-width: 0.5; stroke-linecap: round"/>
     </g>
     <g id="line2d_6">
      <g>
       <use xlink:href="#mf30c6d417f" x="129.449425" y="178.36" style="fill: #262626; stroke: #262626; stroke-width: 0.8"/>
      </g>
     </g>
     <g id="text_3">
      <!-- 2000 -->
      <g style="fill: #262626" transform="translate(119.269425 191.43875) scale(0.08 -0.08)">
       <defs>
        <path id="DejaVuSans-32" d="M 1228 531 
L 3431 531 
L 3431 0 
L 469 0 
L 469 531 
Q 828 903 1448 1529 
Q 2069 2156 2228 2338 
Q 2531 2678 2651 2914 
Q 2772 3150 2772 3378 
Q 2772 3750 2511 3984 
Q 2250 4219 1831 4219 
Q 1534 4219 1204 4116 
Q 875 4013 500 3803 
L 500 4441 
Q 881 4594 1212 4672 
Q 1544 4750 1819 4750 
Q 2544 4750 2975 4387 
Q 3406 4025 3406 3419 
Q 3406 3131 3298 2873 
Q 3191 2616 2906 2266 
Q 2828 2175 2409 1742 
Q 1991 1309 1228 531 
z
" transform="scale(0.015625)"/>
       </defs>
       <use xlink:href="#DejaVuSans-32"/>
       <use xlink:href="#DejaVuSans-30" transform="translate(63.623047 0)"/>
       <use xlink:href="#DejaVuSans-30" transform="translate(127.246094 0)"/>
       <use xlink:href="#DejaVuSans-30" transform="translate(190.869141 0)"/>
      </g>
     </g>
    </g>
    <g id="xtick_4">
     <g id="line2d_7">
      <path d="M 174.357731 178.36 
L 174.357731 7.2 
" clip-path="url(#pe768065569)" style="fill: none; stroke: #cccccc; stroke-opacity: 0.3; stroke-width: 0.5; stroke-linecap: round"/>
     </g>
     <g id="line2d_8">
      <g>
       <use xlink:href="#mf30c6d417f" x="174.357731" y="178.36" style="fill: #262626; stroke: #262626; stroke-width: 0.8"/>
      </g>
     </g>
     <g id="text_4">
      <!-- 3000 -->
      <g style="fill: #262626" transform="translate(164.177731 191.43875) scale(0.08 -0.08)">
       <defs>
        <path id="DejaVuSans-33" d="M 2597 2516 
Q 3050 2419 3304 2112 
Q 3559 1806 3559 1356 
Q 3559 666 3084 287 
Q 2609 -91 1734 -91 
Q 1441 -91 1130 -33 
Q 819 25 488 141 
L 488 750 
Q 750 597 1062 519 
Q 1375 441 1716 441 
Q 2309 441 2620 675 
Q 2931 909 2931 1356 
Q 2931 1769 2642 2001 
Q 2353 2234 1838 2234 
L 1294 2234 
L 1294 2753 
L 1863 2753 
Q 2328 2753 2575 2939 
Q 2822 3125 2822 3475 
Q 2822 3834 2567 4026 
Q 2313 4219 1838 4219 
Q 1578 4219 1281 4162 
Q 984 4106 628 3988 
L 628 4550 
Q 988 4650 1302 4700 
Q 1616 4750 1894 4750 
Q 2613 4750 3031 4423 
Q 3450 4097 3450 3541 
Q 3450 3153 3228 2886 
Q 3006 2619 2597 2516 
z
" transform="scale(0.015625)"/>
       </defs>
       <use xlink:href="#DejaVuSans-33"/>
       <use xlink:href="#DejaVuSans-30" transform="translate(63.623047 0)"/>
       <use xlink:href="#DejaVuSans-30" transform="translate(127.246094 0)"/>
       <use xlink:href="#DejaVuSans-30" transform="translate(190.869141 0)"/>
      </g>
     </g>
    </g>
    <g id="xtick_5">
     <g id="line2d_9">
      <path d="M 219.266037 178.36 
L 219.266037 7.2 
" clip-path="url(#pe768065569)" style="fill: none; stroke: #cccccc; stroke-opacity: 0.3; stroke-width: 0.5; stroke-linecap: round"/>
     </g>
     <g id="line2d_10">
      <g>
       <use xlink:href="#mf30c6d417f" x="219.266037" y="178.36" style="fill: #262626; stroke: #262626; stroke-width: 0.8"/>
      </g>
     </g>
     <g id="text_5">
      <!-- 4000 -->
      <g style="fill: #262626" transform="translate(209.086037 191.43875) scale(0.08 -0.08)">
       <defs>
        <path id="DejaVuSans-34" d="M 2419 4116 
L 825 1625 
L 2419 1625 
L 2419 4116 
z
M 2253 4666 
L 3047 4666 
L 3047 1625 
L 3713 1625 
L 3713 1100 
L 3047 1100 
L 3047 0 
L 2419 0 
L 2419 1100 
L 313 1100 
L 313 1709 
L 2253 4666 
z
" transform="scale(0.015625)"/>
       </defs>
       <use xlink:href="#DejaVuSans-34"/>
       <use xlink:href="#DejaVuSans-30" transform="translate(63.623047 0)"/>
       <use xlink:href="#DejaVuSans-30" transform="translate(127.246094 0)"/>
       <use xlink:href="#DejaVuSans-30" transform="translate(190.869141 0)"/>
      </g>
     </g>
    </g>
    <g id="xtick_6">
     <g id="line2d_11">
      <path d="M 264.174343 178.36 
L 264.174343 7.2 
" clip-path="url(#pe768065569)" style="fill: none; stroke: #cccccc; stroke-opacity: 0.3; stroke-width: 0.5; stroke-linecap: round"/>
     </g>
     <g id="line2d_12">
      <g>
       <use xlink:href="#mf30c6d417f" x="264.174343" y="178.36" style="fill: #262626; stroke: #262626; stroke-width: 0.8"/>
      </g>
     </g>
     <g id="text_6">
      <!-- 5000 -->
      <g style="fill: #262626" transform="translate(253.994343 191.43875) scale(0.08 -0.08)">
       <defs>
        <path id="DejaVuSans-35" d="M 691 4666 
L 3169 4666 
L 3169 4134 
L 1269 4134 
L 1269 2991 
Q 1406 3038 1543 3061 
Q 1681 3084 1819 3084 
Q 2600 3084 3056 2656 
Q 3513 2228 3513 1497 
Q 3513 744 3044 326 
Q 2575 -91 1722 -91 
Q 1428 -91 1123 -41 
Q 819 9 494 109 
L 494 744 
Q 775 591 1075 516 
Q 1375 441 1709 441 
Q 2250 441 2565 725 
Q 2881 1009 2881 1497 
Q 2881 1984 2565 2268 
Q 2250 2553 1709 2553 
Q 1456 2553 1204 2497 
Q 953 2441 691 2322 
L 691 4666 
z
" transform="scale(0.015625)"/>
       </defs>
       <use xlink:href="#DejaVuSans-35"/>
       <use xlink:href="#DejaVuSans-30" transform="translate(63.623047 0)"/>
       <use xlink:href="#DejaVuSans-30" transform="translate(127.246094 0)"/>
       <use xlink:href="#DejaVuSans-30" transform="translate(190.869141 0)"/>
      </g>
     </g>
    </g>
    <g id="text_7">
     <!-- Time (days) -->
     <g style="fill: #262626" transform="translate(132.193906 203.941094) scale(0.09 -0.09)">
      <defs>
       <path id="DejaVuSans-54" d="M -19 4666 
L 3928 4666 
L 3928 4134 
L 2272 4134 
L 2272 0 
L 1638 0 
L 1638 4134 
L -19 4134 
L -19 4666 
z
" transform="scale(0.015625)"/>
       <path id="DejaVuSans-69" d="M 603 3500 
L 1178 3500 
L 1178 0 
L 603 0 
L 603 3500 
z
M 603 4863 
L 1178 4863 
L 1178 4134 
L 603 4134 
L 603 4863 
z
" transform="scale(0.015625)"/>
       <path id="DejaVuSans-6d" d="M 3328 2828 
Q 3544 3216 3844 3400 
Q 4144 3584 4550 3584 
Q 5097 3584 5394 3201 
Q 5691 2819 5691 2113 
L 5691 0 
L 5113 0 
L 5113 2094 
Q 5113 2597 4934 2840 
Q 4756 3084 4391 3084 
Q 3944 3084 3684 2787 
Q 3425 2491 3425 1978 
L 3425 0 
L 2847 0 
L 2847 2094 
Q 2847 2600 2669 2842 
Q 2491 3084 2119 3084 
Q 1678 3084 1418 2786 
Q 1159 2488 1159 1978 
L 1159 0 
L 581 0 
L 581 3500 
L 1159 3500 
L 1159 2956 
Q 1356 3278 1631 3431 
Q 1906 3584 2284 3584 
Q 2666 3584 2933 3390 
Q 3200 3197 3328 2828 
z
" transform="scale(0.015625)"/>
       <path id="DejaVuSans-65" d="M 3597 1894 
L 3597 1613 
L 953 1613 
Q 991 1019 1311 708 
Q 1631 397 2203 397 
Q 2534 397 2845 478 
Q 3156 559 3463 722 
L 3463 178 
Q 3153 47 2828 -22 
Q 2503 -91 2169 -91 
Q 1331 -91 842 396 
Q 353 884 353 1716 
Q 353 2575 817 3079 
Q 1281 3584 2069 3584 
Q 2775 3584 3186 3129 
Q 3597 2675 3597 1894 
z
M 3022 2063 
Q 3016 2534 2758 2815 
Q 2500 3097 2075 3097 
Q 1594 3097 1305 2825 
Q 1016 2553 972 2059 
L 3022 2063 
z
" transform="scale(0.015625)"/>
       <path id="DejaVuSans-20" transform="scale(0.015625)"/>
       <path id="DejaVuSans-28" d="M 1984 4856 
Q 1566 4138 1362 3434 
Q 1159 2731 1159 2009 
Q 1159 1288 1364 580 
Q 1569 -128 1984 -844 
L 1484 -844 
Q 1016 -109 783 600 
Q 550 1309 550 2009 
Q 550 2706 781 3412 
Q 1013 4119 1484 4856 
L 1984 4856 
z
" transform="scale(0.015625)"/>
       <path id="DejaVuSans-64" d="M 2906 2969 
L 2906 4863 
L 3481 4863 
L 3481 0 
L 2906 0 
L 2906 525 
Q 2725 213 2448 61 
Q 2172 -91 1784 -91 
Q 1150 -91 751 415 
Q 353 922 353 1747 
Q 353 2572 751 3078 
Q 1150 3584 1784 3584 
Q 2172 3584 2448 3432 
Q 2725 3281 2906 2969 
z
M 947 1747 
Q 947 1113 1208 752 
Q 1469 391 1925 391 
Q 2381 391 2643 752 
Q 2906 1113 2906 1747 
Q 2906 2381 2643 2742 
Q 2381 3103 1925 3103 
Q 1469 3103 1208 2742 
Q 947 2381 947 1747 
z
" transform="scale(0.015625)"/>
       <path id="DejaVuSans-61" d="M 2194 1759 
Q 1497 1759 1228 1600 
Q 959 1441 959 1056 
Q 959 750 1161 570 
Q 1363 391 1709 391 
Q 2188 391 2477 730 
Q 2766 1069 2766 1631 
L 2766 1759 
L 2194 1759 
z
M 3341 1997 
L 3341 0 
L 2766 0 
L 2766 531 
Q 2569 213 2275 61 
Q 1981 -91 1556 -91 
Q 1019 -91 701 211 
Q 384 513 384 1019 
Q 384 1609 779 1909 
Q 1175 2209 1959 2209 
L 2766 2209 
L 2766 2266 
Q 2766 2663 2505 2880 
Q 2244 3097 1772 3097 
Q 1472 3097 1187 3025 
Q 903 2953 641 2809 
L 641 3341 
Q 956 3463 1253 3523 
Q 1550 3584 1831 3584 
Q 2591 3584 2966 3190 
Q 3341 2797 3341 1997 
z
" transform="scale(0.015625)"/>
       <path id="DejaVuSans-79" d="M 2059 -325 
Q 1816 -950 1584 -1140 
Q 1353 -1331 966 -1331 
L 506 -1331 
L 506 -850 
L 844 -850 
Q 1081 -850 1212 -737 
Q 1344 -625 1503 -206 
L 1606 56 
L 191 3500 
L 800 3500 
L 1894 763 
L 2988 3500 
L 3597 3500 
L 2059 -325 
z
" transform="scale(0.015625)"/>
       <path id="DejaVuSans-73" d="M 2834 3397 
L 2834 2853 
Q 2591 2978 2328 3040 
Q 2066 3103 1784 3103 
Q 1356 3103 1142 2972 
Q 928 2841 928 2578 
Q 928 2378 1081 2264 
Q 1234 2150 1697 2047 
L 1894 2003 
Q 2506 1872 2764 1633 
Q 3022 1394 3022 966 
Q 3022 478 2636 193 
Q 2250 -91 1575 -91 
Q 1294 -91 989 -36 
Q 684 19 347 128 
L 347 722 
Q 666 556 975 473 
Q 1284 391 1588 391 
Q 1994 391 2212 530 
Q 2431 669 2431 922 
Q 2431 1156 2273 1281 
Q 2116 1406 1581 1522 
L 1381 1569 
Q 847 1681 609 1914 
Q 372 2147 372 2553 
Q 372 3047 722 3315 
Q 1072 3584 1716 3584 
Q 2034 3584 2315 3537 
Q 2597 3491 2834 3397 
z
" transform="scale(0.015625)"/>
       <path id="DejaVuSans-29" d="M 513 4856 
L 1013 4856 
Q 1481 4119 1714 3412 
Q 1947 2706 1947 2009 
Q 1947 1309 1714 600 
Q 1481 -109 1013 -844 
L 513 -844 
Q 928 -128 1133 580 
Q 1338 1288 1338 2009 
Q 1338 2731 1133 3434 
Q 928 4138 513 4856 
z
" transform="scale(0.015625)"/>
      </defs>
      <use xlink:href="#DejaVuSans-54"/>
      <use xlink:href="#DejaVuSans-69" transform="translate(57.958984 0)"/>
      <use xlink:href="#DejaVuSans-6d" transform="translate(85.742188 0)"/>
      <use xlink:href="#DejaVuSans-65" transform="translate(183.154297 0)"/>
      <use xlink:href="#DejaVuSans-20" transform="translate(244.677734 0)"/>
      <use xlink:href="#DejaVuSans-28" transform="translate(276.464844 0)"/>
      <use xlink:href="#DejaVuSans-64" transform="translate(315.478516 0)"/>
      <use xlink:href="#DejaVuSans-61" transform="translate(378.955078 0)"/>
      <use xlink:href="#DejaVuSans-79" transform="translate(440.234375 0)"/>
      <use xlink:href="#DejaVuSans-73" transform="translate(499.414062 0)"/>
      <use xlink:href="#DejaVuSans-29" transform="translate(551.513672 0)"/>
     </g>
    </g>
   </g>
   <g id="matplotlib.axis_2">
    <g id="ytick_1">
     <g id="line2d_13">
      <path d="M 39.632812 178.36 
L 277.902813 178.36 
" clip-path="url(#pe768065569)" style="fill: none; stroke: #cccccc; stroke-opacity: 0.3; stroke-width: 0.5; stroke-linecap: round"/>
     </g>
     <g id="line2d_14">
      <defs>
       <path id="me4db99f20d" d="M 0 0 
L -3.5 0 
" style="stroke: #262626; stroke-width: 0.8"/>
      </defs>
      <g>
       <use xlink:href="#me4db99f20d" x="39.632812" y="178.36" style="fill: #262626; stroke: #262626; stroke-width: 0.8"/>
      </g>
     </g>
     <g id="text_8">
      <!-- 0.0 -->
      <g style="fill: #262626" transform="translate(19.910312 181.399375) scale(0.08 -0.08)">
       <defs>
        <path id="DejaVuSans-2e" d="M 684 794 
L 1344 794 
L 1344 0 
L 684 0 
L 684 794 
z
" transform="scale(0.015625)"/>
       </defs>
       <use xlink:href="#DejaVuSans-30"/>
       <use xlink:href="#DejaVuSans-2e" transform="translate(63.623047 0)"/>
       <use xlink:href="#DejaVuSans-30" transform="translate(95.410156 0)"/>
      </g>
     </g>
    </g>
    <g id="ytick_2">
     <g id="line2d_15">
      <path d="M 39.632812 145.758095 
L 277.902813 145.758095 
" clip-path="url(#pe768065569)" style="fill: none; stroke: #cccccc; stroke-opacity: 0.3; stroke-width: 0.5; stroke-linecap: round"/>
     </g>
     <g id="line2d_16">
      <g>
       <use xlink:href="#me4db99f20d" x="39.632812" y="145.758095" style="fill: #262626; stroke: #262626; stroke-width: 0.8"/>
      </g>
     </g>
     <g id="text_9">
      <!-- 0.2 -->
      <g style="fill: #262626" transform="translate(19.910312 148.79747) scale(0.08 -0.08)">
       <use xlink:href="#DejaVuSans-30"/>
       <use xlink:href="#DejaVuSans-2e" transform="translate(63.623047 0)"/>
       <use xlink:href="#DejaVuSans-32" transform="translate(95.410156 0)"/>
      </g>
     </g>
    </g>
    <g id="ytick_3">
     <g id="line2d_17">
      <path d="M 39.632812 113.15619 
L 277.902813 113.15619 
" clip-path="url(#pe768065569)" style="fill: none; stroke: #cccccc; stroke-opacity: 0.3; stroke-width: 0.5; stroke-linecap: round"/>
     </g>
     <g id="line2d_18">
      <g>
       <use xlink:href="#me4db99f20d" x="39.632812" y="113.15619" style="fill: #262626; stroke: #262626; stroke-width: 0.8"/>
      </g>
     </g>
     <g id="text_10">
      <!-- 0.4 -->
      <g style="fill: #262626" transform="translate(19.910312 116.195565) scale(0.08 -0.08)">
       <use xlink:href="#DejaVuSans-30"/>
       <use xlink:href="#DejaVuSans-2e" transform="translate(63.623047 0)"/>
       <use xlink:href="#DejaVuSans-34" transform="translate(95.410156 0)"/>
      </g>
     </g>
    </g>
    <g id="ytick_4">
     <g id="line2d_19">
      <path d="M 39.632812 80.554286 
L 277.902813 80.554286 
" clip-path="url(#pe768065569)" style="fill: none; stroke: #cccccc; stroke-opacity: 0.3; stroke-width: 0.5; stroke-linecap: round"/>
     </g>
     <g id="line2d_20">
      <g>
       <use xlink:href="#me4db99f20d" x="39.632812" y="80.554286" style="fill: #262626; stroke: #262626; stroke-width: 0.8"/>
      </g>
     </g>
     <g id="text_11">
      <!-- 0.6 -->
      <g style="fill: #262626" transform="translate(19.910312 83.593661) scale(0.08 -0.08)">
       <defs>
        <path id="DejaVuSans-36" d="M 2113 2584 
Q 1688 2584 1439 2293 
Q 1191 2003 1191 1497 
Q 1191 994 1439 701 
Q 1688 409 2113 409 
Q 2538 409 2786 701 
Q 3034 994 3034 1497 
Q 3034 2003 2786 2293 
Q 2538 2584 2113 2584 
z
M 3366 4563 
L 3366 3988 
Q 3128 4100 2886 4159 
Q 2644 4219 2406 4219 
Q 1781 4219 1451 3797 
Q 1122 3375 1075 2522 
Q 1259 2794 1537 2939 
Q 1816 3084 2150 3084 
Q 2853 3084 3261 2657 
Q 3669 2231 3669 1497 
Q 3669 778 3244 343 
Q 2819 -91 2113 -91 
Q 1303 -91 875 529 
Q 447 1150 447 2328 
Q 447 3434 972 4092 
Q 1497 4750 2381 4750 
Q 2619 4750 2861 4703 
Q 3103 4656 3366 4563 
z
" transform="scale(0.015625)"/>
       </defs>
       <use xlink:href="#DejaVuSans-30"/>
       <use xlink:href="#DejaVuSans-2e" transform="translate(63.623047 0)"/>
       <use xlink:href="#DejaVuSans-36" transform="translate(95.410156 0)"/>
      </g>
     </g>
    </g>
    <g id="ytick_5">
     <g id="line2d_21">
      <path d="M 39.632812 47.952381 
L 277.902813 47.952381 
" clip-path="url(#pe768065569)" style="fill: none; stroke: #cccccc; stroke-opacity: 0.3; stroke-width: 0.5; stroke-linecap: round"/>
     </g>
     <g id="line2d_22">
      <g>
       <use xlink:href="#me4db99f20d" x="39.632812" y="47.952381" style="fill: #262626; stroke: #262626; stroke-width: 0.8"/>
      </g>
     </g>
     <g id="text_12">
      <!-- 0.8 -->
      <g style="fill: #262626" transform="translate(19.910312 50.991756) scale(0.08 -0.08)">
       <defs>
        <path id="DejaVuSans-38" d="M 2034 2216 
Q 1584 2216 1326 1975 
Q 1069 1734 1069 1313 
Q 1069 891 1326 650 
Q 1584 409 2034 409 
Q 2484 409 2743 651 
Q 3003 894 3003 1313 
Q 3003 1734 2745 1975 
Q 2488 2216 2034 2216 
z
M 1403 2484 
Q 997 2584 770 2862 
Q 544 3141 544 3541 
Q 544 4100 942 4425 
Q 1341 4750 2034 4750 
Q 2731 4750 3128 4425 
Q 3525 4100 3525 3541 
Q 3525 3141 3298 2862 
Q 3072 2584 2669 2484 
Q 3125 2378 3379 2068 
Q 3634 1759 3634 1313 
Q 3634 634 3220 271 
Q 2806 -91 2034 -91 
Q 1263 -91 848 271 
Q 434 634 434 1313 
Q 434 1759 690 2068 
Q 947 2378 1403 2484 
z
M 1172 3481 
Q 1172 3119 1398 2916 
Q 1625 2713 2034 2713 
Q 2441 2713 2670 2916 
Q 2900 3119 2900 3481 
Q 2900 3844 2670 4047 
Q 2441 4250 2034 4250 
Q 1625 4250 1398 4047 
Q 1172 3844 1172 3481 
z
" transform="scale(0.015625)"/>
       </defs>
       <use xlink:href="#DejaVuSans-30"/>
       <use xlink:href="#DejaVuSans-2e" transform="translate(63.623047 0)"/>
       <use xlink:href="#DejaVuSans-38" transform="translate(95.410156 0)"/>
      </g>
     </g>
    </g>
    <g id="ytick_6">
     <g id="line2d_23">
      <path d="M 39.632812 15.350476 
L 277.902813 15.350476 
" clip-path="url(#pe768065569)" style="fill: none; stroke: #cccccc; stroke-opacity: 0.3; stroke-width: 0.5; stroke-linecap: round"/>
     </g>
     <g id="line2d_24">
      <g>
       <use xlink:href="#me4db99f20d" x="39.632812" y="15.350476" style="fill: #262626; stroke: #262626; stroke-width: 0.8"/>
      </g>
     </g>
     <g id="text_13">
      <!-- 1.0 -->
      <g style="fill: #262626" transform="translate(19.910312 18.389851) scale(0.08 -0.08)">
       <use xlink:href="#DejaVuSans-31"/>
       <use xlink:href="#DejaVuSans-2e" transform="translate(63.623047 0)"/>
       <use xlink:href="#DejaVuSans-30" transform="translate(95.410156 0)"/>
      </g>
     </g>
    </g>
    <g id="text_14">
     <!-- Survival probability -->
     <g style="fill: #262626" transform="translate(14.038594 136.361797) rotate(-90) scale(0.09 -0.09)">
      <defs>
       <path id="DejaVuSans-53" d="M 3425 4513 
L 3425 3897 
Q 3066 4069 2747 4153 
Q 2428 4238 2131 4238 
Q 1616 4238 1336 4038 
Q 1056 3838 1056 3469 
Q 1056 3159 1242 3001 
Q 1428 2844 1947 2747 
L 2328 2669 
Q 3034 2534 3370 2195 
Q 3706 1856 3706 1288 
Q 3706 609 3251 259 
Q 2797 -91 1919 -91 
Q 1588 -91 1214 -16 
Q 841 59 441 206 
L 441 856 
Q 825 641 1194 531 
Q 1563 422 1919 422 
Q 2459 422 2753 634 
Q 3047 847 3047 1241 
Q 3047 1584 2836 1778 
Q 2625 1972 2144 2069 
L 1759 2144 
Q 1053 2284 737 2584 
Q 422 2884 422 3419 
Q 422 4038 858 4394 
Q 1294 4750 2059 4750 
Q 2388 4750 2728 4690 
Q 3069 4631 3425 4513 
z
" transform="scale(0.015625)"/>
       <path id="DejaVuSans-75" d="M 544 1381 
L 544 3500 
L 1119 3500 
L 1119 1403 
Q 1119 906 1312 657 
Q 1506 409 1894 409 
Q 2359 409 2629 706 
Q 2900 1003 2900 1516 
L 2900 3500 
L 3475 3500 
L 3475 0 
L 2900 0 
L 2900 538 
Q 2691 219 2414 64 
Q 2138 -91 1772 -91 
Q 1169 -91 856 284 
Q 544 659 544 1381 
z
M 1991 3584 
L 1991 3584 
z
" transform="scale(0.015625)"/>
       <path id="DejaVuSans-72" d="M 2631 2963 
Q 2534 3019 2420 3045 
Q 2306 3072 2169 3072 
Q 1681 3072 1420 2755 
Q 1159 2438 1159 1844 
L 1159 0 
L 581 0 
L 581 3500 
L 1159 3500 
L 1159 2956 
Q 1341 3275 1631 3429 
Q 1922 3584 2338 3584 
Q 2397 3584 2469 3576 
Q 2541 3569 2628 3553 
L 2631 2963 
z
" transform="scale(0.015625)"/>
       <path id="DejaVuSans-76" d="M 191 3500 
L 800 3500 
L 1894 563 
L 2988 3500 
L 3597 3500 
L 2284 0 
L 1503 0 
L 191 3500 
z
" transform="scale(0.015625)"/>
       <path id="DejaVuSans-6c" d="M 603 4863 
L 1178 4863 
L 1178 0 
L 603 0 
L 603 4863 
z
" transform="scale(0.015625)"/>
       <path id="DejaVuSans-70" d="M 1159 525 
L 1159 -1331 
L 581 -1331 
L 581 3500 
L 1159 3500 
L 1159 2969 
Q 1341 3281 1617 3432 
Q 1894 3584 2278 3584 
Q 2916 3584 3314 3078 
Q 3713 2572 3713 1747 
Q 3713 922 3314 415 
Q 2916 -91 2278 -91 
Q 1894 -91 1617 61 
Q 1341 213 1159 525 
z
M 3116 1747 
Q 3116 2381 2855 2742 
Q 2594 3103 2138 3103 
Q 1681 3103 1420 2742 
Q 1159 2381 1159 1747 
Q 1159 1113 1420 752 
Q 1681 391 2138 391 
Q 2594 391 2855 752 
Q 3116 1113 3116 1747 
z
" transform="scale(0.015625)"/>
       <path id="DejaVuSans-6f" d="M 1959 3097 
Q 1497 3097 1228 2736 
Q 959 2375 959 1747 
Q 959 1119 1226 758 
Q 1494 397 1959 397 
Q 2419 397 2687 759 
Q 2956 1122 2956 1747 
Q 2956 2369 2687 2733 
Q 2419 3097 1959 3097 
z
M 1959 3584 
Q 2709 3584 3137 3096 
Q 3566 2609 3566 1747 
Q 3566 888 3137 398 
Q 2709 -91 1959 -91 
Q 1206 -91 779 398 
Q 353 888 353 1747 
Q 353 2609 779 3096 
Q 1206 3584 1959 3584 
z
" transform="scale(0.015625)"/>
       <path id="DejaVuSans-62" d="M 3116 1747 
Q 3116 2381 2855 2742 
Q 2594 3103 2138 3103 
Q 1681 3103 1420 2742 
Q 1159 2381 1159 1747 
Q 1159 1113 1420 752 
Q 1681 391 2138 391 
Q 2594 391 2855 752 
Q 3116 1113 3116 1747 
z
M 1159 2969 
Q 1341 3281 1617 3432 
Q 1894 3584 2278 3584 
Q 2916 3584 3314 3078 
Q 3713 2572 3713 1747 
Q 3713 922 3314 415 
Q 2916 -91 2278 -91 
Q 1894 -91 1617 61 
Q 1341 213 1159 525 
L 1159 0 
L 581 0 
L 581 4863 
L 1159 4863 
L 1159 2969 
z
" transform="scale(0.015625)"/>
       <path id="DejaVuSans-74" d="M 1172 4494 
L 1172 3500 
L 2356 3500 
L 2356 3053 
L 1172 3053 
L 1172 1153 
Q 1172 725 1289 603 
Q 1406 481 1766 481 
L 2356 481 
L 2356 0 
L 1766 0 
Q 1100 0 847 248 
Q 594 497 594 1153 
L 594 3053 
L 172 3053 
L 172 3500 
L 594 3500 
L 594 4494 
L 1172 4494 
z
" transform="scale(0.015625)"/>
      </defs>
      <use xlink:href="#DejaVuSans-53"/>
      <use xlink:href="#DejaVuSans-75" transform="translate(63.476562 0)"/>
      <use xlink:href="#DejaVuSans-72" transform="translate(126.855469 0)"/>
      <use xlink:href="#DejaVuSans-76" transform="translate(167.96875 0)"/>
      <use xlink:href="#DejaVuSans-69" transform="translate(227.148438 0)"/>
      <use xlink:href="#DejaVuSans-76" transform="translate(254.931641 0)"/>
      <use xlink:href="#DejaVuSans-61" transform="translate(314.111328 0)"/>
      <use xlink:href="#DejaVuSans-6c" transform="translate(375.390625 0)"/>
      <use xlink:href="#DejaVuSans-20" transform="translate(403.173828 0)"/>
      <use xlink:href="#DejaVuSans-70" transform="translate(434.960938 0)"/>
      <use xlink:href="#DejaVuSans-72" transform="translate(498.4375 0)"/>
      <use xlink:href="#DejaVuSans-6f" transform="translate(537.300781 0)"/>
      <use xlink:href="#DejaVuSans-62" transform="translate(598.482422 0)"/>
      <use xlink:href="#DejaVuSans-61" transform="translate(661.958984 0)"/>
      <use xlink:href="#DejaVuSans-62" transform="translate(723.238281 0)"/>
      <use xlink:href="#DejaVuSans-69" transform="translate(786.714844 0)"/>
      <use xlink:href="#DejaVuSans-6c" transform="translate(814.498047 0)"/>
      <use xlink:href="#DejaVuSans-69" transform="translate(842.28125 0)"/>
      <use xlink:href="#DejaVuSans-74" transform="translate(870.064453 0)"/>
      <use xlink:href="#DejaVuSans-79" transform="translate(909.273438 0)"/>
     </g>
    </g>
   </g>
   <g id="FillBetweenPolyCollection_1">
    <defs>
     <path id="maf22333ce6" d="M 39.632812 -197.263136 
L 39.632812 -191.395844 
L 40.21662 -191.395844 
L 40.21662 -191.395844 
L 40.306437 -191.395844 
L 40.306437 -191.395844 
L 40.396254 -191.395844 
L 40.396254 -191.395844 
L 40.530979 -191.395844 
L 40.530979 -190.330241 
L 40.890245 -190.330241 
L 40.890245 -190.330241 
L 41.204603 -190.330241 
L 41.204603 -190.330241 
L 42.192586 -190.330241 
L 42.192586 -189.208507 
L 42.282403 -189.208507 
L 42.282403 -189.208507 
L 42.506944 -189.208507 
L 42.506944 -189.208507 
L 42.686577 -189.208507 
L 42.686577 -189.208507 
L 43.40511 -189.208507 
L 43.40511 -189.208507 
L 43.629652 -189.208507 
L 43.629652 -189.208507 
L 43.67456 -189.208507 
L 43.67456 -188.049663 
L 43.899102 -188.049663 
L 43.899102 -188.049663 
L 44.033827 -188.049663 
L 44.033827 -186.906944 
L 44.572726 -186.906944 
L 44.572726 -186.906944 
L 46.728325 -186.906944 
L 46.728325 -186.906944 
L 46.952866 -186.906944 
L 46.952866 -186.906944 
L 48.030666 -186.906944 
L 48.030666 -186.906944 
L 48.120482 -186.906944 
L 48.120482 -186.906944 
L 50.680256 -186.906944 
L 50.680256 -185.73775 
L 52.790946 -185.73775 
L 52.790946 -185.73775 
L 54.587278 -185.73775 
L 54.587278 -185.73775 
L 55.126178 -185.73775 
L 55.126178 -185.73775 
L 55.754894 -185.73775 
L 55.754894 -185.73775 
L 55.844711 -185.73775 
L 55.844711 -185.73775 
L 55.979436 -185.73775 
L 55.979436 -185.73775 
L 56.024344 -185.73775 
L 56.024344 -185.73775 
L 56.159069 -185.73775 
L 56.159069 -185.73775 
L 56.248886 -185.73775 
L 56.248886 -185.73775 
L 56.338702 -185.73775 
L 56.338702 -185.73775 
L 56.383611 -185.73775 
L 56.383611 -185.73775 
L 56.877602 -185.73775 
L 56.877602 -185.73775 
L 56.92251 -185.73775 
L 56.92251 -184.429438 
L 56.967419 -184.429438 
L 56.967419 -183.157702 
L 57.057235 -183.157702 
L 57.057235 -181.914053 
L 57.506318 -181.914053 
L 57.506318 -181.914053 
L 57.865585 -181.914053 
L 57.865585 -180.670982 
L 58.045218 -180.670982 
L 58.045218 -180.670982 
L 58.718843 -180.670982 
L 58.718843 -180.670982 
L 59.078109 -180.670982 
L 59.078109 -180.670982 
L 59.976275 -180.670982 
L 59.976275 -179.414754 
L 60.021183 -179.414754 
L 60.021183 -178.177653 
L 60.066092 -178.177653 
L 60.066092 -178.177653 
L 60.155908 -178.177653 
L 60.155908 -178.177653 
L 60.290633 -178.177653 
L 60.290633 -178.177653 
L 60.560083 -178.177653 
L 60.560083 -178.177653 
L 60.604991 -178.177653 
L 60.604991 -178.177653 
L 60.694808 -178.177653 
L 60.694808 -178.177653 
L 60.91935 -178.177653 
L 60.91935 -178.177653 
L 61.054075 -178.177653 
L 61.054075 -178.177653 
L 61.368433 -178.177653 
L 61.368433 -178.177653 
L 61.413341 -178.177653 
L 61.413341 -178.177653 
L 61.458249 -178.177653 
L 61.458249 -176.825277 
L 61.862424 -176.825277 
L 61.862424 -175.494264 
L 62.22169 -175.494264 
L 62.22169 -175.494264 
L 62.401324 -175.494264 
L 62.401324 -175.494264 
L 62.446232 -175.494264 
L 62.446232 -175.494264 
L 62.625865 -175.494264 
L 62.625865 -175.494264 
L 63.164765 -175.494264 
L 63.164765 -175.494264 
L 63.613848 -175.494264 
L 63.613848 -174.115502 
L 63.703665 -174.115502 
L 63.703665 -174.115502 
L 63.83839 -174.115502 
L 63.83839 -172.742161 
L 64.062931 -172.742161 
L 64.062931 -171.386094 
L 64.871281 -171.386094 
L 64.871281 -171.386094 
L 65.320364 -171.386094 
L 65.320364 -171.386094 
L 65.365272 -171.386094 
L 65.365272 -171.386094 
L 65.589813 -171.386094 
L 65.589813 -171.386094 
L 65.67963 -171.386094 
L 65.67963 -171.386094 
L 65.769447 -171.386094 
L 65.769447 -171.386094 
L 66.128713 -171.386094 
L 66.128713 -171.386094 
L 66.712521 -171.386094 
L 66.712521 -171.386094 
L 67.116696 -171.386094 
L 67.116696 -169.896909 
L 67.925045 -169.896909 
L 67.925045 -168.42767 
L 68.284312 -168.42767 
L 68.284312 -168.42767 
L 68.374128 -168.42767 
L 68.374128 -168.42767 
L 68.419037 -168.42767 
L 68.419037 -168.42767 
L 68.463945 -168.42767 
L 68.463945 -168.42767 
L 68.643578 -168.42767 
L 68.643578 -168.42767 
L 68.733395 -168.42767 
L 68.733395 -168.42767 
L 68.778303 -168.42767 
L 68.778303 -168.42767 
L 68.86812 -168.42767 
L 68.86812 -166.855887 
L 69.496836 -166.855887 
L 69.496836 -165.304802 
L 70.170461 -165.304802 
L 70.170461 -163.772031 
L 70.619544 -163.772031 
L 70.619544 -162.255638 
L 70.664452 -162.255638 
L 70.664452 -162.255638 
L 70.888994 -162.255638 
L 70.888994 -160.736019 
L 71.023719 -160.736019 
L 71.023719 -160.736019 
L 71.068627 -160.736019 
L 71.068627 -160.736019 
L 72.460784 -160.736019 
L 72.460784 -160.736019 
L 72.820051 -160.736019 
L 72.820051 -159.174225 
L 73.314042 -159.174225 
L 73.314042 -159.174225 
L 73.673309 -159.174225 
L 73.673309 -159.174225 
L 73.808033 -159.174225 
L 73.808033 -159.174225 
L 74.346933 -159.174225 
L 74.346933 -159.174225 
L 75.469641 -159.174225 
L 75.469641 -159.174225 
L 75.514549 -159.174225 
L 75.514549 -159.174225 
L 76.143265 -159.174225 
L 76.143265 -159.174225 
L 76.457624 -159.174225 
L 76.457624 -159.174225 
L 76.996523 -159.174225 
L 76.996523 -159.174225 
L 77.35579 -159.174225 
L 77.35579 -159.174225 
L 77.445606 -159.174225 
L 77.445606 -159.174225 
L 78.837764 -159.174225 
L 78.837764 -159.174225 
L 79.46648 -159.174225 
L 79.46648 -159.174225 
L 80.00538 -159.174225 
L 80.00538 -159.174225 
L 80.319738 -159.174225 
L 80.319738 -159.174225 
L 80.993362 -159.174225 
L 80.993362 -159.174225 
L 82.071162 -159.174225 
L 82.071162 -159.174225 
L 82.250795 -159.174225 
L 82.250795 -157.187884 
L 84.406394 -157.187884 
L 84.406394 -157.187884 
L 84.720752 -157.187884 
L 84.720752 -155.201729 
L 84.76566 -155.201729 
L 84.76566 -153.244532 
L 84.900385 -153.244532 
L 84.900385 -151.313173 
L 85.84346 -151.313173 
L 85.84346 -151.313173 
L 86.157818 -151.313173 
L 86.157818 -149.373848 
L 86.696717 -149.373848 
L 86.696717 -149.373848 
L 87.41525 -149.373848 
L 87.41525 -147.424738 
L 87.774517 -147.424738 
L 87.774517 -147.424738 
L 87.999058 -147.424738 
L 87.999058 -145.464119 
L 88.582866 -145.464119 
L 88.582866 -145.464119 
L 88.762499 -145.464119 
L 88.762499 -145.464119 
L 89.391216 -145.464119 
L 89.391216 -145.464119 
L 89.705574 -145.464119 
L 89.705574 -145.464119 
L 90.244474 -145.464119 
L 90.244474 -145.464119 
L 92.355164 -145.464119 
L 92.355164 -145.464119 
L 92.669522 -145.464119 
L 92.669522 -145.464119 
L 92.894064 -145.464119 
L 92.894064 -145.464119 
L 94.376038 -145.464119 
L 94.376038 -145.464119 
L 99.181226 -145.464119 
L 99.181226 -145.464119 
L 100.169209 -145.464119 
L 100.169209 -143.124691 
L 100.259026 -143.124691 
L 100.259026 -143.124691 
L 101.022467 -143.124691 
L 101.022467 -140.772323 
L 101.157192 -140.772323 
L 101.157192 -140.772323 
L 103.402607 -140.772323 
L 103.402607 -138.403924 
L 104.92949 -138.403924 
L 104.92949 -138.403924 
L 104.974398 -138.403924 
L 104.974398 -138.403924 
L 105.198939 -138.403924 
L 105.198939 -138.403924 
L 106.052197 -138.403924 
L 106.052197 -138.403924 
L 107.983254 -138.403924 
L 107.983254 -138.403924 
L 108.297613 -138.403924 
L 108.297613 -138.403924 
L 108.701787 -138.403924 
L 108.701787 -138.403924 
L 108.881421 -138.403924 
L 108.881421 -138.403924 
L 109.734678 -138.403924 
L 109.734678 -138.403924 
L 111.665736 -138.403924 
L 111.665736 -138.403924 
L 112.429177 -138.403924 
L 112.429177 -138.403924 
L 113.237526 -138.403924 
L 113.237526 -138.403924 
L 113.686609 -138.403924 
L 113.686609 -138.403924 
L 114.629684 -138.403924 
L 114.629684 -135.168414 
L 116.336199 -135.168414 
L 116.336199 -135.168414 
L 116.605649 -135.168414 
L 116.605649 -135.168414 
L 116.785282 -135.168414 
L 116.785282 -131.817823 
L 118.71634 -131.817823 
L 118.71634 -131.817823 
L 119.839047 -131.817823 
L 119.839047 -131.817823 
L 120.108497 -131.817823 
L 120.108497 -131.817823 
L 120.737213 -131.817823 
L 120.737213 -131.817823 
L 121.815013 -131.817823 
L 121.815013 -131.817823 
L 123.566437 -131.817823 
L 123.566437 -127.950669 
L 124.240061 -127.950669 
L 124.240061 -127.950669 
L 125.497494 -127.950669 
L 125.497494 -127.950669 
L 127.159101 -127.950669 
L 127.159101 -127.950669 
L 129.8536 -127.950669 
L 129.8536 -127.950669 
L 130.347591 -127.950669 
L 130.347591 -123.561147 
L 130.527224 -123.561147 
L 130.527224 -123.561147 
L 130.661949 -123.561147 
L 130.661949 -123.561147 
L 131.42539 -123.561147 
L 131.42539 -123.561147 
L 131.649932 -123.561147 
L 131.649932 -123.561147 
L 134.34443 -123.561147 
L 134.34443 -123.561147 
L 137.398195 -123.561147 
L 137.398195 -123.561147 
L 142.607559 -123.561147 
L 142.607559 -123.561147 
L 143.460816 -123.561147 
L 143.460816 -123.561147 
L 144.269166 -123.561147 
L 144.269166 -123.561147 
L 145.257149 -123.561147 
L 145.257149 -123.561147 
L 146.514581 -123.561147 
L 146.514581 -123.561147 
L 148.445638 -123.561147 
L 148.445638 -123.561147 
L 157.517116 -123.561147 
L 157.517116 -123.561147 
L 158.235649 -123.561147 
L 158.235649 -113.91932 
L 161.019964 -113.91932 
L 161.019964 -113.91932 
L 164.926987 -113.91932 
L 164.926987 -113.91932 
L 166.633502 -113.91932 
L 166.633502 -103.616531 
L 168.429835 -103.616531 
L 168.429835 -103.616531 
L 169.238184 -103.616531 
L 169.238184 -103.616531 
L 172.291949 -103.616531 
L 172.291949 -92.120212 
L 172.741032 -92.120212 
L 172.741032 -92.120212 
L 174.851722 -92.120212 
L 174.851722 -92.120212 
L 182.575951 -92.120212 
L 182.575951 -78.548974 
L 193.21922 -78.548974 
L 193.21922 -78.548974 
L 211.047817 -78.548974 
L 211.047817 -78.548974 
L 211.856167 -78.548974 
L 211.856167 -78.548974 
L 218.412779 -78.548974 
L 218.412779 -78.548974 
L 262.692369 -78.548974 
L 262.692369 -78.548974 
L 266.015584 -78.548974 
L 266.015584 -78.548974 
L 266.419759 -78.548974 
L 266.419759 -78.548974 
L 266.419759 -136.360974 
L 266.419759 -136.360974 
L 266.419759 -136.360974 
L 266.015584 -136.360974 
L 266.015584 -136.360974 
L 262.692369 -136.360974 
L 262.692369 -136.360974 
L 218.412779 -136.360974 
L 218.412779 -136.360974 
L 211.856167 -136.360974 
L 211.856167 -136.360974 
L 211.047817 -136.360974 
L 211.047817 -136.360974 
L 193.21922 -136.360974 
L 193.21922 -136.360974 
L 182.575951 -136.360974 
L 182.575951 -142.923497 
L 174.851722 -142.923497 
L 174.851722 -142.923497 
L 172.741032 -142.923497 
L 172.741032 -142.923497 
L 172.291949 -142.923497 
L 172.291949 -148.182557 
L 169.238184 -148.182557 
L 169.238184 -148.182557 
L 168.429835 -148.182557 
L 168.429835 -148.182557 
L 166.633502 -148.182557 
L 166.633502 -152.485395 
L 164.926987 -152.485395 
L 164.926987 -152.485395 
L 161.019964 -152.485395 
L 161.019964 -152.485395 
L 158.235649 -152.485395 
L 158.235649 -155.98101 
L 157.517116 -155.98101 
L 157.517116 -155.98101 
L 148.445638 -155.98101 
L 148.445638 -155.98101 
L 146.514581 -155.98101 
L 146.514581 -155.98101 
L 145.257149 -155.98101 
L 145.257149 -155.98101 
L 144.269166 -155.98101 
L 144.269166 -155.98101 
L 143.460816 -155.98101 
L 143.460816 -155.98101 
L 142.607559 -155.98101 
L 142.607559 -155.98101 
L 137.398195 -155.98101 
L 137.398195 -155.98101 
L 134.34443 -155.98101 
L 134.34443 -155.98101 
L 131.649932 -155.98101 
L 131.649932 -155.98101 
L 131.42539 -155.98101 
L 131.42539 -155.98101 
L 130.661949 -155.98101 
L 130.661949 -155.98101 
L 130.527224 -155.98101 
L 130.527224 -155.98101 
L 130.347591 -155.98101 
L 130.347591 -158.535524 
L 129.8536 -158.535524 
L 129.8536 -158.535524 
L 127.159101 -158.535524 
L 127.159101 -158.535524 
L 125.497494 -158.535524 
L 125.497494 -158.535524 
L 124.240061 -158.535524 
L 124.240061 -158.535524 
L 123.566437 -158.535524 
L 123.566437 -160.842731 
L 121.815013 -160.842731 
L 121.815013 -160.842731 
L 120.737213 -160.842731 
L 120.737213 -160.842731 
L 120.108497 -160.842731 
L 120.108497 -160.842731 
L 119.839047 -160.842731 
L 119.839047 -160.842731 
L 118.71634 -160.842731 
L 118.71634 -160.842731 
L 116.785282 -160.842731 
L 116.785282 -162.920148 
L 116.605649 -162.920148 
L 116.605649 -162.920148 
L 116.336199 -162.920148 
L 116.336199 -162.920148 
L 114.629684 -162.920148 
L 114.629684 -164.890427 
L 113.686609 -164.890427 
L 113.686609 -164.890427 
L 113.237526 -164.890427 
L 113.237526 -164.890427 
L 112.429177 -164.890427 
L 112.429177 -164.890427 
L 111.665736 -164.890427 
L 111.665736 -164.890427 
L 109.734678 -164.890427 
L 109.734678 -164.890427 
L 108.881421 -164.890427 
L 108.881421 -164.890427 
L 108.701787 -164.890427 
L 108.701787 -164.890427 
L 108.297613 -164.890427 
L 108.297613 -164.890427 
L 107.983254 -164.890427 
L 107.983254 -164.890427 
L 106.052197 -164.890427 
L 106.052197 -164.890427 
L 105.198939 -164.890427 
L 105.198939 -164.890427 
L 104.974398 -164.890427 
L 104.974398 -164.890427 
L 104.92949 -164.890427 
L 104.92949 -164.890427 
L 103.402607 -164.890427 
L 103.402607 -166.525642 
L 101.157192 -166.525642 
L 101.157192 -166.525642 
L 101.022467 -166.525642 
L 101.022467 -168.120917 
L 100.259026 -168.120917 
L 100.259026 -168.120917 
L 100.169209 -168.120917 
L 100.169209 -169.677016 
L 99.181226 -169.677016 
L 99.181226 -169.677016 
L 94.376038 -169.677016 
L 94.376038 -169.677016 
L 92.894064 -169.677016 
L 92.894064 -169.677016 
L 92.669522 -169.677016 
L 92.669522 -169.677016 
L 92.355164 -169.677016 
L 92.355164 -169.677016 
L 90.244474 -169.677016 
L 90.244474 -169.677016 
L 89.705574 -169.677016 
L 89.705574 -169.677016 
L 89.391216 -169.677016 
L 89.391216 -169.677016 
L 88.762499 -169.677016 
L 88.762499 -169.677016 
L 88.582866 -169.677016 
L 88.582866 -169.677016 
L 87.999058 -169.677016 
L 87.999058 -171.060119 
L 87.774517 -171.060119 
L 87.774517 -171.060119 
L 87.41525 -171.060119 
L 87.41525 -172.415904 
L 86.696717 -172.415904 
L 86.696717 -172.415904 
L 86.157818 -172.415904 
L 86.157818 -173.744766 
L 85.84346 -173.744766 
L 85.84346 -173.744766 
L 84.900385 -173.744766 
L 84.900385 -175.046994 
L 84.76566 -175.046994 
L 84.76566 -176.3341 
L 84.720752 -176.3341 
L 84.720752 -177.604789 
L 84.406394 -177.604789 
L 84.406394 -177.604789 
L 82.250795 -177.604789 
L 82.250795 -178.847107 
L 82.071162 -178.847107 
L 82.071162 -178.847107 
L 80.993362 -178.847107 
L 80.993362 -178.847107 
L 80.319738 -178.847107 
L 80.319738 -178.847107 
L 80.00538 -178.847107 
L 80.00538 -178.847107 
L 79.46648 -178.847107 
L 79.46648 -178.847107 
L 78.837764 -178.847107 
L 78.837764 -178.847107 
L 77.445606 -178.847107 
L 77.445606 -178.847107 
L 77.35579 -178.847107 
L 77.35579 -178.847107 
L 76.996523 -178.847107 
L 76.996523 -178.847107 
L 76.457624 -178.847107 
L 76.457624 -178.847107 
L 76.143265 -178.847107 
L 76.143265 -178.847107 
L 75.514549 -178.847107 
L 75.514549 -178.847107 
L 75.469641 -178.847107 
L 75.469641 -178.847107 
L 74.346933 -178.847107 
L 74.346933 -178.847107 
L 73.808033 -178.847107 
L 73.808033 -178.847107 
L 73.673309 -178.847107 
L 73.673309 -178.847107 
L 73.314042 -178.847107 
L 73.314042 -178.847107 
L 72.820051 -178.847107 
L 72.820051 -179.911994 
L 72.460784 -179.911994 
L 72.460784 -179.911994 
L 71.068627 -179.911994 
L 71.068627 -179.911994 
L 71.023719 -179.911994 
L 71.023719 -179.911994 
L 70.888994 -179.911994 
L 70.888994 -180.944136 
L 70.664452 -180.944136 
L 70.664452 -180.944136 
L 70.619544 -180.944136 
L 70.619544 -181.959131 
L 70.170461 -181.959131 
L 70.170461 -182.96364 
L 69.496836 -182.96364 
L 69.496836 -183.956831 
L 68.86812 -183.956831 
L 68.86812 -184.937723 
L 68.778303 -184.937723 
L 68.778303 -184.937723 
L 68.733395 -184.937723 
L 68.733395 -184.937723 
L 68.643578 -184.937723 
L 68.643578 -184.937723 
L 68.463945 -184.937723 
L 68.463945 -184.937723 
L 68.419037 -184.937723 
L 68.419037 -184.937723 
L 68.374128 -184.937723 
L 68.374128 -184.937723 
L 68.284312 -184.937723 
L 68.284312 -184.937723 
L 67.925045 -184.937723 
L 67.925045 -185.863717 
L 67.116696 -185.863717 
L 67.116696 -186.777656 
L 66.712521 -186.777656 
L 66.712521 -186.777656 
L 66.128713 -186.777656 
L 66.128713 -186.777656 
L 65.769447 -186.777656 
L 65.769447 -186.777656 
L 65.67963 -186.777656 
L 65.67963 -186.777656 
L 65.589813 -186.777656 
L 65.589813 -186.777656 
L 65.365272 -186.777656 
L 65.365272 -186.777656 
L 65.320364 -186.777656 
L 65.320364 -186.777656 
L 64.871281 -186.777656 
L 64.871281 -186.777656 
L 64.062931 -186.777656 
L 64.062931 -187.627879 
L 63.83839 -187.627879 
L 63.83839 -188.466818 
L 63.703665 -188.466818 
L 63.703665 -188.466818 
L 63.613848 -188.466818 
L 63.613848 -189.288884 
L 63.164765 -189.288884 
L 63.164765 -189.288884 
L 62.625865 -189.288884 
L 62.625865 -189.288884 
L 62.446232 -189.288884 
L 62.446232 -189.288884 
L 62.401324 -189.288884 
L 62.401324 -189.288884 
L 62.22169 -189.288884 
L 62.22169 -189.288884 
L 61.862424 -189.288884 
L 61.862424 -190.076672 
L 61.458249 -190.076672 
L 61.458249 -190.851037 
L 61.413341 -190.851037 
L 61.413341 -190.851037 
L 61.368433 -190.851037 
L 61.368433 -190.851037 
L 61.054075 -190.851037 
L 61.054075 -190.851037 
L 60.91935 -190.851037 
L 60.91935 -190.851037 
L 60.694808 -190.851037 
L 60.694808 -190.851037 
L 60.604991 -190.851037 
L 60.604991 -190.851037 
L 60.560083 -190.851037 
L 60.560083 -190.851037 
L 60.290633 -190.851037 
L 60.290633 -190.851037 
L 60.155908 -190.851037 
L 60.155908 -190.851037 
L 60.066092 -190.851037 
L 60.066092 -190.851037 
L 60.021183 -190.851037 
L 60.021183 -191.571059 
L 59.976275 -191.571059 
L 59.976275 -192.277437 
L 59.078109 -192.277437 
L 59.078109 -192.277437 
L 58.718843 -192.277437 
L 58.718843 -192.277437 
L 58.045218 -192.277437 
L 58.045218 -192.277437 
L 57.865585 -192.277437 
L 57.865585 -192.959089 
L 57.506318 -192.959089 
L 57.506318 -192.959089 
L 57.057235 -192.959089 
L 57.057235 -193.618166 
L 56.967419 -193.618166 
L 56.967419 -194.2583 
L 56.92251 -194.2583 
L 56.92251 -194.875967 
L 56.877602 -194.875967 
L 56.877602 -194.875967 
L 56.383611 -194.875967 
L 56.383611 -194.875967 
L 56.338702 -194.875967 
L 56.338702 -194.875967 
L 56.248886 -194.875967 
L 56.248886 -194.875967 
L 56.159069 -194.875967 
L 56.159069 -194.875967 
L 56.024344 -194.875967 
L 56.024344 -194.875967 
L 55.979436 -194.875967 
L 55.979436 -194.875967 
L 55.844711 -194.875967 
L 55.844711 -194.875967 
L 55.754894 -194.875967 
L 55.754894 -194.875967 
L 55.126178 -194.875967 
L 55.126178 -194.875967 
L 54.587278 -194.875967 
L 54.587278 -194.875967 
L 52.790946 -194.875967 
L 52.790946 -194.875967 
L 50.680256 -194.875967 
L 50.680256 -195.434193 
L 48.120482 -195.434193 
L 48.120482 -195.434193 
L 48.030666 -195.434193 
L 48.030666 -195.434193 
L 46.952866 -195.434193 
L 46.952866 -195.434193 
L 46.728325 -195.434193 
L 46.728325 -195.434193 
L 44.572726 -195.434193 
L 44.572726 -195.434193 
L 44.033827 -195.434193 
L 44.033827 -195.956234 
L 43.899102 -195.956234 
L 43.899102 -195.956234 
L 43.67456 -195.956234 
L 43.67456 -196.444575 
L 43.629652 -196.444575 
L 43.629652 -196.444575 
L 43.40511 -196.444575 
L 43.40511 -196.444575 
L 42.686577 -196.444575 
L 42.686577 -196.444575 
L 42.506944 -196.444575 
L 42.506944 -196.444575 
L 42.282403 -196.444575 
L 42.282403 -196.444575 
L 42.192586 -196.444575 
L 42.192586 -196.883984 
L 41.204603 -196.883984 
L 41.204603 -196.883984 
L 40.890245 -196.883984 
L 40.890245 -196.883984 
L 40.530979 -196.883984 
L 40.530979 -197.263136 
L 40.396254 -197.263136 
L 40.396254 -197.263136 
L 40.306437 -197.263136 
L 40.306437 -197.263136 
L 40.21662 -197.263136 
L 40.21662 -197.263136 
L 39.632812 -197.263136 
z
" style="stroke: #2e86ab; stroke-opacity: 0.2"/>
    </defs>
    <g clip-path="url(#pe768065569)">
     <use xlink:href="#maf22333ce6" x="0" y="213.012812" style="fill: #2e86ab; fill-opacity: 0.2; stroke: #2e86ab; stroke-opacity: 0.2"/>
    </g>
   </g>
   <g id="FillBetweenPolyCollection_2">
    <defs>
     <path id="m9b697125e2" d="M 36.758681 -197.662336 
L 36.758681 -197.662336 
L 40.48607 -197.662336 
L 40.48607 -192.100649 
L 41.29442 -192.100649 
L 41.29442 -192.100649 
L 41.698595 -192.100649 
L 41.698595 -192.100649 
L 42.102769 -192.100649 
L 42.102769 -192.100649 
L 42.147678 -192.100649 
L 42.147678 -190.307174 
L 42.417127 -190.307174 
L 42.417127 -189.232436 
L 42.506944 -189.232436 
L 42.506944 -189.232436 
L 42.551852 -189.232436 
L 42.551852 -188.152735 
L 42.641669 -188.152735 
L 42.641669 -188.152735 
L 42.686577 -188.152735 
L 42.686577 -187.077879 
L 42.731486 -187.077879 
L 42.731486 -186.018619 
L 43.045844 -186.018619 
L 43.045844 -184.973666 
L 43.270385 -184.973666 
L 43.270385 -183.941587 
L 43.315294 -183.941587 
L 43.315294 -183.941587 
L 43.584743 -183.941587 
L 43.584743 -182.913275 
L 43.809285 -182.913275 
L 43.809285 -181.895837 
L 44.078735 -181.895837 
L 44.078735 -180.888163 
L 44.348185 -180.888163 
L 44.348185 -180.888163 
L 44.393093 -180.888163 
L 44.393093 -179.881923 
L 44.887084 -179.881923 
L 44.887084 -179.881923 
L 44.931993 -179.881923 
L 44.931993 -178.876667 
L 45.111626 -178.876667 
L 45.111626 -177.879338 
L 45.381076 -177.879338 
L 45.381076 -176.889259 
L 45.425984 -176.889259 
L 45.425984 -176.889259 
L 45.515801 -176.889259 
L 45.515801 -175.898636 
L 46.009792 -175.898636 
L 46.009792 -174.914411 
L 46.099609 -174.914411 
L 46.099609 -173.936116 
L 46.189425 -173.936116 
L 46.189425 -172.963344 
L 46.32415 -172.963344 
L 46.32415 -171.995738 
L 46.548692 -171.995738 
L 46.548692 -170.074791 
L 46.952866 -170.074791 
L 46.952866 -169.120916 
L 47.177408 -169.120916 
L 47.177408 -167.225227 
L 47.401949 -167.225227 
L 47.401949 -166.283023 
L 47.806124 -166.283023 
L 47.806124 -165.344349 
L 48.210299 -165.344349 
L 48.210299 -164.409051 
L 48.614474 -164.409051 
L 48.614474 -162.548028 
L 48.839015 -162.548028 
L 48.839015 -161.622054 
L 48.883924 -161.622054 
L 48.883924 -160.698956 
L 49.108465 -160.698956 
L 49.108465 -159.77863 
L 49.198282 -159.77863 
L 49.198282 -158.860983 
L 49.333007 -158.860983 
L 49.333007 -157.945926 
L 49.51264 -157.945926 
L 49.51264 -157.033378 
L 49.647365 -157.033378 
L 49.647365 -156.123261 
L 49.692273 -156.123261 
L 49.692273 -156.123261 
L 50.05154 -156.123261 
L 50.05154 -154.296205 
L 50.276081 -154.296205 
L 50.276081 -153.386168 
L 50.770072 -153.386168 
L 50.770072 -152.478373 
L 50.859889 -152.478373 
L 50.859889 -151.572761 
L 50.904797 -151.572761 
L 50.904797 -150.669277 
L 50.994614 -150.669277 
L 50.994614 -149.760711 
L 51.039522 -149.760711 
L 51.039522 -147.949822 
L 51.219155 -147.949822 
L 51.219155 -147.047402 
L 51.264064 -147.047402 
L 51.264064 -146.146939 
L 51.35388 -146.146939 
L 51.35388 -145.248391 
L 51.398789 -145.248391 
L 51.398789 -144.351719 
L 51.847872 -144.351719 
L 51.847872 -142.563857 
L 51.89278 -142.563857 
L 51.89278 -141.672598 
L 51.937688 -141.672598 
L 51.937688 -140.783078 
L 52.027505 -140.783078 
L 52.027505 -140.783078 
L 52.117322 -140.783078 
L 52.117322 -139.88771 
L 52.835855 -139.88771 
L 52.835855 -138.10217 
L 53.240029 -138.10217 
L 53.240029 -137.211941 
L 53.599296 -137.211941 
L 53.599296 -136.323371 
L 54.048379 -136.323371 
L 54.048379 -135.436436 
L 54.183104 -135.436436 
L 54.183104 -133.667374 
L 54.362737 -133.667374 
L 54.362737 -132.785204 
L 54.407645 -132.785204 
L 54.407645 -131.904581 
L 54.452554 -131.904581 
L 54.452554 -131.904581 
L 54.54237 -131.904581 
L 54.54237 -131.017421 
L 54.766912 -131.017421 
L 54.766912 -131.017421 
L 54.901637 -131.017421 
L 54.901637 -130.123572 
L 55.08127 -130.123572 
L 55.08127 -128.340681 
L 55.620169 -128.340681 
L 55.620169 -127.451601 
L 55.844711 -127.451601 
L 55.844711 -127.451601 
L 55.889619 -127.451601 
L 55.889619 -126.555471 
L 55.979436 -126.555471 
L 55.979436 -125.660938 
L 56.069253 -125.660938 
L 56.069253 -125.660938 
L 56.203977 -125.660938 
L 56.203977 -125.660938 
L 56.248886 -125.660938 
L 56.248886 -123.840882 
L 56.338702 -123.840882 
L 56.338702 -123.840882 
L 56.518336 -123.840882 
L 56.518336 -123.840882 
L 56.563244 -123.840882 
L 56.563244 -123.840882 
L 56.653061 -123.840882 
L 56.653061 -123.840882 
L 56.787785 -123.840882 
L 56.787785 -123.840882 
L 56.832694 -123.840882 
L 56.832694 -123.840882 
L 56.92251 -123.840882 
L 56.92251 -122.874334 
L 57.102144 -122.874334 
L 57.102144 -122.874334 
L 57.19196 -122.874334 
L 57.19196 -121.89926 
L 57.281777 -121.89926 
L 57.281777 -120.926369 
L 57.326685 -120.926369 
L 57.326685 -120.926369 
L 57.551227 -120.926369 
L 57.551227 -120.926369 
L 57.596135 -120.926369 
L 57.596135 -119.933331 
L 57.955401 -119.933331 
L 57.955401 -118.942609 
L 58.179943 -118.942609 
L 58.179943 -115.984045 
L 58.26976 -115.984045 
L 58.26976 -115.002298 
L 58.314668 -115.002298 
L 58.314668 -115.002298 
L 58.404484 -115.002298 
L 58.404484 -113.985698 
L 58.853568 -113.985698 
L 58.853568 -113.985698 
L 59.123017 -113.985698 
L 59.123017 -112.945121 
L 59.257742 -112.945121 
L 59.257742 -111.907243 
L 60.066092 -111.907243 
L 60.066092 -110.872032 
L 60.290633 -110.872032 
L 60.290633 -109.839458 
L 60.604991 -109.839458 
L 60.604991 -107.782107 
L 60.91935 -107.782107 
L 60.91935 -106.757281 
L 60.964258 -106.757281 
L 60.964258 -106.757281 
L 61.188799 -106.757281 
L 61.188799 -106.757281 
L 61.233708 -106.757281 
L 61.233708 -106.757281 
L 61.682791 -106.757281 
L 61.682791 -106.757281 
L 61.727699 -106.757281 
L 61.727699 -105.674031 
L 61.862424 -105.674031 
L 61.862424 -105.674031 
L 62.446232 -105.674031 
L 62.446232 -104.560353 
L 62.536049 -104.560353 
L 62.536049 -102.343288 
L 63.074948 -102.343288 
L 63.074948 -101.239829 
L 63.434215 -101.239829 
L 63.434215 -100.121435 
L 63.703665 -100.121435 
L 63.703665 -99.006555 
L 63.83839 -99.006555 
L 63.83839 -99.006555 
L 63.883298 -99.006555 
L 63.883298 -99.006555 
L 63.973114 -99.006555 
L 63.973114 -99.006555 
L 64.062931 -99.006555 
L 64.062931 -97.81386 
L 64.152748 -97.81386 
L 64.152748 -97.81386 
L 64.197656 -97.81386 
L 64.197656 -95.39723 
L 64.332381 -95.39723 
L 64.332381 -94.195921 
L 64.781464 -94.195921 
L 64.781464 -94.195921 
L 65.006005 -94.195921 
L 65.006005 -91.759168 
L 65.455089 -91.759168 
L 65.455089 -90.548114 
L 65.544905 -90.548114 
L 65.544905 -89.341896 
L 65.634722 -89.341896 
L 65.634722 -88.140485 
L 65.724538 -88.140485 
L 65.724538 -88.140485 
L 66.038897 -88.140485 
L 66.038897 -88.140485 
L 66.128713 -88.140485 
L 66.128713 -86.888875 
L 66.263438 -86.888875 
L 66.263438 -85.642847 
L 66.532888 -85.642847 
L 66.532888 -84.402375 
L 66.667613 -84.402375 
L 66.667613 -83.167442 
L 67.026879 -83.167442 
L 67.026879 -83.167442 
L 67.251421 -83.167442 
L 67.251421 -81.906736 
L 67.341237 -81.906736 
L 67.341237 -80.652058 
L 67.386146 -80.652058 
L 67.386146 -80.652058 
L 67.610687 -80.652058 
L 67.610687 -79.369352 
L 68.05977 -79.369352 
L 68.05977 -79.369352 
L 68.194495 -79.369352 
L 68.194495 -79.369352 
L 69.496836 -79.369352 
L 69.496836 -79.369352 
L 69.901011 -79.369352 
L 69.901011 -77.977149 
L 70.395002 -77.977149 
L 70.395002 -76.59386 
L 71.338077 -76.59386 
L 71.338077 -75.219459 
L 71.607526 -75.219459 
L 71.607526 -73.853941 
L 71.921885 -73.853941 
L 71.921885 -72.497316 
L 72.595509 -72.497316 
L 72.595509 -71.149615 
L 74.571475 -71.149615 
L 74.571475 -69.810886 
L 74.796016 -69.810886 
L 74.796016 -69.810886 
L 75.065466 -69.810886 
L 75.065466 -69.810886 
L 75.334916 -69.810886 
L 75.334916 -68.376189 
L 76.098357 -68.376189 
L 76.098357 -68.376189 
L 76.412715 -68.376189 
L 76.412715 -66.893031 
L 76.592348 -66.893031 
L 76.592348 -65.423511 
L 77.131248 -65.423511 
L 77.131248 -63.967732 
L 77.849781 -63.967732 
L 77.849781 -63.967732 
L 78.209047 -63.967732 
L 78.209047 -62.454536 
L 78.433589 -62.454536 
L 78.433589 -60.957865 
L 79.73593 -60.957865 
L 79.73593 -60.957865 
L 79.915563 -60.957865 
L 79.915563 -60.957865 
L 80.229921 -60.957865 
L 80.229921 -59.1965 
L 81.891529 -59.1965 
L 81.891529 -57.46505 
L 83.373503 -57.46505 
L 83.373503 -55.763822 
L 84.675844 -55.763822 
L 84.675844 -55.763822 
L 89.481032 -55.763822 
L 89.481032 -55.763822 
L 91.861173 -55.763822 
L 91.861173 -53.806168 
L 96.666361 -53.806168 
L 96.666361 -51.900178 
L 103.537332 -51.900178 
L 103.537332 -50.046804 
L 109.510137 -50.046804 
L 109.510137 -48.247671 
L 110.677753 -48.247671 
L 110.677753 -48.247671 
L 120.647397 -48.247671 
L 120.647397 -46.277915 
L 122.488637 -46.277915 
L 122.488637 -46.277915 
L 127.069285 -46.277915 
L 127.069285 -46.277915 
L 127.293826 -46.277915 
L 127.293826 -46.277915 
L 128.147084 -46.277915 
L 128.147084 -43.093168 
L 129.808691 -43.093168 
L 129.808691 -43.093168 
L 135.691679 -43.093168 
L 135.691679 -43.093168 
L 158.909274 -43.093168 
L 158.909274 -43.093168 
L 190.704354 -43.093168 
L 190.704354 -43.093168 
L 193.758119 -43.093168 
L 193.758119 -43.093168 
L 193.758119 -64.935097 
L 193.758119 -64.935097 
L 193.758119 -64.935097 
L 190.704354 -64.935097 
L 190.704354 -64.935097 
L 158.909274 -64.935097 
L 158.909274 -64.935097 
L 135.691679 -64.935097 
L 135.691679 -64.935097 
L 129.808691 -64.935097 
L 129.808691 -64.935097 
L 128.147084 -64.935097 
L 128.147084 -67.840429 
L 127.293826 -67.840429 
L 127.293826 -67.840429 
L 127.069285 -67.840429 
L 127.069285 -67.840429 
L 122.488637 -67.840429 
L 122.488637 -67.840429 
L 120.647397 -67.840429 
L 120.647397 -70.216455 
L 110.677753 -70.216455 
L 110.677753 -70.216455 
L 109.510137 -70.216455 
L 109.510137 -72.416323 
L 103.537332 -72.416323 
L 103.537332 -74.572723 
L 96.666361 -74.572723 
L 96.666361 -76.687147 
L 91.861173 -76.687147 
L 91.861173 -78.760515 
L 89.481032 -78.760515 
L 89.481032 -78.760515 
L 84.675844 -78.760515 
L 84.675844 -78.760515 
L 83.373503 -78.760515 
L 83.373503 -80.645271 
L 81.891529 -80.645271 
L 81.891529 -82.505795 
L 80.229921 -82.505795 
L 80.229921 -84.342438 
L 79.915563 -84.342438 
L 79.915563 -84.342438 
L 79.73593 -84.342438 
L 79.73593 -84.342438 
L 78.433589 -84.342438 
L 78.433589 -85.991601 
L 78.209047 -85.991601 
L 78.209047 -87.627321 
L 77.849781 -87.627321 
L 77.849781 -87.627321 
L 77.131248 -87.627321 
L 77.131248 -89.204678 
L 76.592348 -89.204678 
L 76.592348 -90.770842 
L 76.412715 -90.770842 
L 76.412715 -92.325951 
L 76.098357 -92.325951 
L 76.098357 -92.325951 
L 75.334916 -92.325951 
L 75.334916 -93.832071 
L 75.065466 -93.832071 
L 75.065466 -93.832071 
L 74.796016 -93.832071 
L 74.796016 -93.832071 
L 74.571475 -93.832071 
L 74.571475 -95.259877 
L 72.595509 -95.259877 
L 72.595509 -96.680291 
L 71.921885 -96.680291 
L 71.921885 -98.093385 
L 71.607526 -98.093385 
L 71.607526 -99.499216 
L 71.338077 -99.499216 
L 71.338077 -100.897829 
L 70.395002 -100.897829 
L 70.395002 -102.289251 
L 69.901011 -102.289251 
L 69.901011 -103.673497 
L 69.496836 -103.673497 
L 69.496836 -103.673497 
L 68.194495 -103.673497 
L 68.194495 -103.673497 
L 68.05977 -103.673497 
L 68.05977 -103.673497 
L 67.610687 -103.673497 
L 67.610687 -104.975454 
L 67.386146 -104.975454 
L 67.386146 -104.975454 
L 67.341237 -104.975454 
L 67.341237 -106.249205 
L 67.251421 -106.249205 
L 67.251421 -107.517999 
L 67.026879 -107.517999 
L 67.026879 -107.517999 
L 66.667613 -107.517999 
L 66.667613 -108.76087 
L 66.532888 -108.76087 
L 66.532888 -109.999185 
L 66.263438 -109.999185 
L 66.263438 -111.232947 
L 66.128713 -111.232947 
L 66.128713 -112.462155 
L 66.038897 -112.462155 
L 66.038897 -112.462155 
L 65.724538 -112.462155 
L 65.724538 -112.462155 
L 65.634722 -112.462155 
L 65.634722 -113.650297 
L 65.544905 -113.650297 
L 65.544905 -114.834484 
L 65.455089 -114.834484 
L 65.455089 -116.014712 
L 65.006005 -116.014712 
L 65.006005 -118.363248 
L 64.781464 -118.363248 
L 64.781464 -118.363248 
L 64.332381 -118.363248 
L 64.332381 -119.515786 
L 64.197656 -119.515786 
L 64.197656 -121.809528 
L 64.152748 -121.809528 
L 64.152748 -121.809528 
L 64.062931 -121.809528 
L 64.062931 -122.936235 
L 63.973114 -122.936235 
L 63.973114 -122.936235 
L 63.883298 -122.936235 
L 63.883298 -122.936235 
L 63.83839 -122.936235 
L 63.83839 -122.936235 
L 63.703665 -122.936235 
L 63.703665 -124.00582 
L 63.434215 -124.00582 
L 63.434215 -125.072497 
L 63.074948 -125.072497 
L 63.074948 -126.124054 
L 62.536049 -126.124054 
L 62.536049 -128.218786 
L 62.446232 -128.218786 
L 62.446232 -129.261928 
L 61.862424 -129.261928 
L 61.862424 -129.261928 
L 61.727699 -129.261928 
L 61.727699 -130.280117 
L 61.682791 -130.280117 
L 61.682791 -130.280117 
L 61.233708 -130.280117 
L 61.233708 -130.280117 
L 61.188799 -130.280117 
L 61.188799 -130.280117 
L 60.964258 -130.280117 
L 60.964258 -130.280117 
L 60.91935 -130.280117 
L 60.91935 -131.254706 
L 60.604991 -131.254706 
L 60.604991 -133.197328 
L 60.290633 -133.197328 
L 60.290633 -134.165335 
L 60.066092 -134.165335 
L 60.066092 -135.131119 
L 59.257742 -135.131119 
L 59.257742 -136.094664 
L 59.123017 -136.094664 
L 59.123017 -137.055951 
L 58.853568 -137.055951 
L 58.853568 -137.055951 
L 58.404484 -137.055951 
L 58.404484 -137.997453 
L 58.314668 -137.997453 
L 58.314668 -137.997453 
L 58.26976 -137.997453 
L 58.26976 -138.912027 
L 58.179943 -138.912027 
L 58.179943 -141.644248 
L 57.955401 -141.644248 
L 57.955401 -142.551099 
L 57.596135 -142.551099 
L 57.596135 -143.455974 
L 57.551227 -143.455974 
L 57.551227 -143.455974 
L 57.326685 -143.455974 
L 57.326685 -143.455974 
L 57.281777 -143.455974 
L 57.281777 -144.344164 
L 57.19196 -144.344164 
L 57.19196 -145.230472 
L 57.102144 -145.230472 
L 57.102144 -145.230472 
L 56.92251 -145.230472 
L 56.92251 -146.107879 
L 56.832694 -146.107879 
L 56.832694 -146.107879 
L 56.787785 -146.107879 
L 56.787785 -146.107879 
L 56.653061 -146.107879 
L 56.653061 -146.107879 
L 56.563244 -146.107879 
L 56.563244 -146.107879 
L 56.518336 -146.107879 
L 56.518336 -146.107879 
L 56.338702 -146.107879 
L 56.338702 -146.107879 
L 56.248886 -146.107879 
L 56.248886 -147.778637 
L 56.203977 -147.778637 
L 56.203977 -147.778637 
L 56.069253 -147.778637 
L 56.069253 -147.778637 
L 55.979436 -147.778637 
L 55.979436 -148.599558 
L 55.889619 -148.599558 
L 55.889619 -149.418986 
L 55.844711 -149.418986 
L 55.844711 -149.418986 
L 55.620169 -149.418986 
L 55.620169 -150.2311 
L 55.08127 -150.2311 
L 55.08127 -151.850863 
L 54.901637 -151.850863 
L 54.901637 -152.658481 
L 54.766912 -152.658481 
L 54.766912 -152.658481 
L 54.54237 -152.658481 
L 54.54237 -153.459074 
L 54.452554 -153.459074 
L 54.452554 -153.459074 
L 54.407645 -153.459074 
L 54.407645 -154.252794 
L 54.362737 -154.252794 
L 54.362737 -155.045024 
L 54.183104 -155.045024 
L 54.183104 -156.624942 
L 54.048379 -156.624942 
L 54.048379 -157.412588 
L 53.599296 -157.412588 
L 53.599296 -158.198663 
L 53.240029 -158.198663 
L 53.240029 -158.983145 
L 52.835855 -158.983145 
L 52.835855 -160.54723 
L 52.117322 -160.54723 
L 52.117322 -161.326782 
L 52.027505 -161.326782 
L 52.027505 -161.326782 
L 51.937688 -161.326782 
L 51.937688 -162.099853 
L 51.89278 -162.099853 
L 51.89278 -162.871237 
L 51.847872 -162.871237 
L 51.847872 -164.408824 
L 51.398789 -164.408824 
L 51.398789 -165.174961 
L 51.35388 -165.174961 
L 51.35388 -165.939281 
L 51.264064 -165.939281 
L 51.264064 -166.701748 
L 51.219155 -166.701748 
L 51.219155 -167.462321 
L 51.039522 -167.462321 
L 51.039522 -168.97762 
L 50.994614 -168.97762 
L 50.994614 -169.732256 
L 50.904797 -169.732256 
L 50.904797 -170.480601 
L 50.859889 -170.480601 
L 50.859889 -171.226866 
L 50.770072 -171.226866 
L 50.770072 -171.970997 
L 50.276081 -171.970997 
L 50.276081 -172.712937 
L 50.05154 -172.712937 
L 50.05154 -174.189997 
L 49.692273 -174.189997 
L 49.692273 -174.189997 
L 49.647365 -174.189997 
L 49.647365 -174.921077 
L 49.51264 -174.921077 
L 49.51264 -175.649749 
L 49.333007 -175.649749 
L 49.333007 -176.375934 
L 49.198282 -176.375934 
L 49.198282 -177.099552 
L 49.108465 -177.099552 
L 49.108465 -177.820515 
L 48.883924 -177.820515 
L 48.883924 -178.538728 
L 48.839015 -178.538728 
L 48.839015 -179.25409 
L 48.614474 -179.25409 
L 48.614474 -180.675813 
L 48.210299 -180.675813 
L 48.210299 -181.381926 
L 47.806124 -181.381926 
L 47.806124 -182.084691 
L 47.401949 -182.084691 
L 47.401949 -182.783954 
L 47.177408 -182.783954 
L 47.177408 -184.171292 
L 46.952866 -184.171292 
L 46.952866 -184.85898 
L 46.548692 -184.85898 
L 46.548692 -186.221274 
L 46.32415 -186.221274 
L 46.32415 -186.895355 
L 46.189425 -186.895355 
L 46.189425 -187.56432 
L 46.099609 -187.56432 
L 46.099609 -188.22782 
L 46.009792 -188.22782 
L 46.009792 -188.885456 
L 45.515801 -188.885456 
L 45.515801 -189.536774 
L 45.425984 -189.536774 
L 45.425984 -189.536774 
L 45.381076 -189.536774 
L 45.381076 -190.178478 
L 45.111626 -190.178478 
L 45.111626 -190.812849 
L 44.931993 -190.812849 
L 44.931993 -191.439187 
L 44.887084 -191.439187 
L 44.887084 -191.439187 
L 44.393093 -191.439187 
L 44.393093 -192.054131 
L 44.348185 -192.054131 
L 44.348185 -192.054131 
L 44.078735 -192.054131 
L 44.078735 -192.656932 
L 43.809285 -192.656932 
L 43.809285 -193.249001 
L 43.584743 -193.249001 
L 43.584743 -193.8289 
L 43.315294 -193.8289 
L 43.315294 -193.8289 
L 43.270385 -193.8289 
L 43.270385 -194.392679 
L 43.045844 -194.392679 
L 43.045844 -194.94035 
L 42.731486 -194.94035 
L 42.731486 -195.468841 
L 42.686577 -195.468841 
L 42.686577 -195.973896 
L 42.641669 -195.973896 
L 42.641669 -195.973896 
L 42.551852 -195.973896 
L 42.551852 -196.447766 
L 42.506944 -196.447766 
L 42.506944 -196.447766 
L 42.417127 -196.447766 
L 42.417127 -196.881433 
L 42.147678 -196.881433 
L 42.147678 -197.550091 
L 42.102769 -197.550091 
L 42.102769 -197.550091 
L 41.698595 -197.550091 
L 41.698595 -197.550091 
L 41.29442 -197.550091 
L 41.29442 -197.550091 
L 40.48607 -197.550091 
L 40.48607 -197.662336 
L 36.758681 -197.662336 
z
" style="stroke: #e63946; stroke-opacity: 0.2"/>
    </defs>
    <g clip-path="url(#pe768065569)">
     <use xlink:href="#m9b697125e2" x="0" y="213.012812" style="fill: #e63946; fill-opacity: 0.2; stroke: #e63946; stroke-opacity: 0.2"/>
    </g>
   </g>
   <g id="line2d_25">
    <defs>
     <path id="md174bc3c1a" d="M -3 3 
L 3 -3 
M -3 -3 
L 3 3 
" style="stroke: #2e86ab"/>
    </defs>
    <g clip-path="url(#pe768065569)">
     <use xlink:href="#md174bc3c1a" x="39.632812" y="16.940813" style="fill: #2e86ab; stroke: #2e86ab"/>
     <use xlink:href="#md174bc3c1a" x="40.21662" y="16.940813" style="fill: #2e86ab; stroke: #2e86ab"/>
     <use xlink:href="#md174bc3c1a" x="40.306437" y="16.940813" style="fill: #2e86ab; stroke: #2e86ab"/>
     <use xlink:href="#md174bc3c1a" x="40.396254" y="16.940813" style="fill: #2e86ab; stroke: #2e86ab"/>
     <use xlink:href="#md174bc3c1a" x="40.530979" y="17.751965" style="fill: #2e86ab; stroke: #2e86ab"/>
     <use xlink:href="#md174bc3c1a" x="40.890245" y="17.751965" style="fill: #2e86ab; stroke: #2e86ab"/>
     <use xlink:href="#md174bc3c1a" x="41.204603" y="17.751965" style="fill: #2e86ab; stroke: #2e86ab"/>
     <use xlink:href="#md174bc3c1a" x="42.282403" y="18.575596" style="fill: #2e86ab; stroke: #2e86ab"/>
     <use xlink:href="#md174bc3c1a" x="42.506944" y="18.575596" style="fill: #2e86ab; stroke: #2e86ab"/>
     <use xlink:href="#md174bc3c1a" x="42.686577" y="18.575596" style="fill: #2e86ab; stroke: #2e86ab"/>
     <use xlink:href="#md174bc3c1a" x="43.40511" y="18.575596" style="fill: #2e86ab; stroke: #2e86ab"/>
     <use xlink:href="#md174bc3c1a" x="43.629652" y="18.575596" style="fill: #2e86ab; stroke: #2e86ab"/>
     <use xlink:href="#md174bc3c1a" x="43.899102" y="19.421016" style="fill: #2e86ab; stroke: #2e86ab"/>
     <use xlink:href="#md174bc3c1a" x="44.572726" y="20.270957" style="fill: #2e86ab; stroke: #2e86ab"/>
     <use xlink:href="#md174bc3c1a" x="46.728325" y="20.270957" style="fill: #2e86ab; stroke: #2e86ab"/>
     <use xlink:href="#md174bc3c1a" x="46.952866" y="20.270957" style="fill: #2e86ab; stroke: #2e86ab"/>
     <use xlink:href="#md174bc3c1a" x="48.030666" y="20.270957" style="fill: #2e86ab; stroke: #2e86ab"/>
     <use xlink:href="#md174bc3c1a" x="48.120482" y="20.270957" style="fill: #2e86ab; stroke: #2e86ab"/>
     <use xlink:href="#md174bc3c1a" x="52.790946" y="21.144377" style="fill: #2e86ab; stroke: #2e86ab"/>
     <use xlink:href="#md174bc3c1a" x="54.587278" y="21.144377" style="fill: #2e86ab; stroke: #2e86ab"/>
     <use xlink:href="#md174bc3c1a" x="55.126178" y="21.144377" style="fill: #2e86ab; stroke: #2e86ab"/>
     <use xlink:href="#md174bc3c1a" x="55.754894" y="21.144377" style="fill: #2e86ab; stroke: #2e86ab"/>
     <use xlink:href="#md174bc3c1a" x="55.844711" y="21.144377" style="fill: #2e86ab; stroke: #2e86ab"/>
     <use xlink:href="#md174bc3c1a" x="55.979436" y="21.144377" style="fill: #2e86ab; stroke: #2e86ab"/>
     <use xlink:href="#md174bc3c1a" x="56.024344" y="21.144377" style="fill: #2e86ab; stroke: #2e86ab"/>
     <use xlink:href="#md174bc3c1a" x="56.159069" y="21.144377" style="fill: #2e86ab; stroke: #2e86ab"/>
     <use xlink:href="#md174bc3c1a" x="56.248886" y="21.144377" style="fill: #2e86ab; stroke: #2e86ab"/>
     <use xlink:href="#md174bc3c1a" x="56.338702" y="21.144377" style="fill: #2e86ab; stroke: #2e86ab"/>
     <use xlink:href="#md174bc3c1a" x="56.383611" y="21.144377" style="fill: #2e86ab; stroke: #2e86ab"/>
     <use xlink:href="#md174bc3c1a" x="56.877602" y="21.144377" style="fill: #2e86ab; stroke: #2e86ab"/>
     <use xlink:href="#md174bc3c1a" x="57.506318" y="24.002843" style="fill: #2e86ab; stroke: #2e86ab"/>
     <use xlink:href="#md174bc3c1a" x="58.045218" y="24.967575" style="fill: #2e86ab; stroke: #2e86ab"/>
     <use xlink:href="#md174bc3c1a" x="58.718843" y="24.967575" style="fill: #2e86ab; stroke: #2e86ab"/>
     <use xlink:href="#md174bc3c1a" x="59.078109" y="24.967575" style="fill: #2e86ab; stroke: #2e86ab"/>
     <use xlink:href="#md174bc3c1a" x="60.066092" y="26.934145" style="fill: #2e86ab; stroke: #2e86ab"/>
     <use xlink:href="#md174bc3c1a" x="60.155908" y="26.934145" style="fill: #2e86ab; stroke: #2e86ab"/>
     <use xlink:href="#md174bc3c1a" x="60.290633" y="26.934145" style="fill: #2e86ab; stroke: #2e86ab"/>
     <use xlink:href="#md174bc3c1a" x="60.560083" y="26.934145" style="fill: #2e86ab; stroke: #2e86ab"/>
     <use xlink:href="#md174bc3c1a" x="60.604991" y="26.934145" style="fill: #2e86ab; stroke: #2e86ab"/>
     <use xlink:href="#md174bc3c1a" x="60.694808" y="26.934145" style="fill: #2e86ab; stroke: #2e86ab"/>
     <use xlink:href="#md174bc3c1a" x="60.91935" y="26.934145" style="fill: #2e86ab; stroke: #2e86ab"/>
     <use xlink:href="#md174bc3c1a" x="61.054075" y="26.934145" style="fill: #2e86ab; stroke: #2e86ab"/>
     <use xlink:href="#md174bc3c1a" x="61.368433" y="26.934145" style="fill: #2e86ab; stroke: #2e86ab"/>
     <use xlink:href="#md174bc3c1a" x="61.413341" y="26.934145" style="fill: #2e86ab; stroke: #2e86ab"/>
     <use xlink:href="#md174bc3c1a" x="62.22169" y="29.051989" style="fill: #2e86ab; stroke: #2e86ab"/>
     <use xlink:href="#md174bc3c1a" x="62.401324" y="29.051989" style="fill: #2e86ab; stroke: #2e86ab"/>
     <use xlink:href="#md174bc3c1a" x="62.446232" y="29.051989" style="fill: #2e86ab; stroke: #2e86ab"/>
     <use xlink:href="#md174bc3c1a" x="62.625865" y="29.051989" style="fill: #2e86ab; stroke: #2e86ab"/>
     <use xlink:href="#md174bc3c1a" x="63.164765" y="29.051989" style="fill: #2e86ab; stroke: #2e86ab"/>
     <use xlink:href="#md174bc3c1a" x="63.703665" y="30.149842" style="fill: #2e86ab; stroke: #2e86ab"/>
     <use xlink:href="#md174bc3c1a" x="64.871281" y="32.361934" style="fill: #2e86ab; stroke: #2e86ab"/>
     <use xlink:href="#md174bc3c1a" x="65.320364" y="32.361934" style="fill: #2e86ab; stroke: #2e86ab"/>
     <use xlink:href="#md174bc3c1a" x="65.365272" y="32.361934" style="fill: #2e86ab; stroke: #2e86ab"/>
     <use xlink:href="#md174bc3c1a" x="65.589813" y="32.361934" style="fill: #2e86ab; stroke: #2e86ab"/>
     <use xlink:href="#md174bc3c1a" x="65.67963" y="32.361934" style="fill: #2e86ab; stroke: #2e86ab"/>
     <use xlink:href="#md174bc3c1a" x="65.769447" y="32.361934" style="fill: #2e86ab; stroke: #2e86ab"/>
     <use xlink:href="#md174bc3c1a" x="66.128713" y="32.361934" style="fill: #2e86ab; stroke: #2e86ab"/>
     <use xlink:href="#md174bc3c1a" x="66.712521" y="32.361934" style="fill: #2e86ab; stroke: #2e86ab"/>
     <use xlink:href="#md174bc3c1a" x="68.284312" y="34.755345" style="fill: #2e86ab; stroke: #2e86ab"/>
     <use xlink:href="#md174bc3c1a" x="68.374128" y="34.755345" style="fill: #2e86ab; stroke: #2e86ab"/>
     <use xlink:href="#md174bc3c1a" x="68.419037" y="34.755345" style="fill: #2e86ab; stroke: #2e86ab"/>
     <use xlink:href="#md174bc3c1a" x="68.463945" y="34.755345" style="fill: #2e86ab; stroke: #2e86ab"/>
     <use xlink:href="#md174bc3c1a" x="68.643578" y="34.755345" style="fill: #2e86ab; stroke: #2e86ab"/>
     <use xlink:href="#md174bc3c1a" x="68.733395" y="34.755345" style="fill: #2e86ab; stroke: #2e86ab"/>
     <use xlink:href="#md174bc3c1a" x="68.778303" y="34.755345" style="fill: #2e86ab; stroke: #2e86ab"/>
     <use xlink:href="#md174bc3c1a" x="70.664452" y="39.838695" style="fill: #2e86ab; stroke: #2e86ab"/>
     <use xlink:href="#md174bc3c1a" x="71.023719" y="41.1213" style="fill: #2e86ab; stroke: #2e86ab"/>
     <use xlink:href="#md174bc3c1a" x="71.068627" y="41.1213" style="fill: #2e86ab; stroke: #2e86ab"/>
     <use xlink:href="#md174bc3c1a" x="72.460784" y="41.1213" style="fill: #2e86ab; stroke: #2e86ab"/>
     <use xlink:href="#md174bc3c1a" x="73.314042" y="42.440903" style="fill: #2e86ab; stroke: #2e86ab"/>
     <use xlink:href="#md174bc3c1a" x="73.673309" y="42.440903" style="fill: #2e86ab; stroke: #2e86ab"/>
     <use xlink:href="#md174bc3c1a" x="73.808033" y="42.440903" style="fill: #2e86ab; stroke: #2e86ab"/>
     <use xlink:href="#md174bc3c1a" x="74.346933" y="42.440903" style="fill: #2e86ab; stroke: #2e86ab"/>
     <use xlink:href="#md174bc3c1a" x="75.469641" y="42.440903" style="fill: #2e86ab; stroke: #2e86ab"/>
     <use xlink:href="#md174bc3c1a" x="75.514549" y="42.440903" style="fill: #2e86ab; stroke: #2e86ab"/>
     <use xlink:href="#md174bc3c1a" x="76.143265" y="42.440903" style="fill: #2e86ab; stroke: #2e86ab"/>
     <use xlink:href="#md174bc3c1a" x="76.457624" y="42.440903" style="fill: #2e86ab; stroke: #2e86ab"/>
     <use xlink:href="#md174bc3c1a" x="76.996523" y="42.440903" style="fill: #2e86ab; stroke: #2e86ab"/>
     <use xlink:href="#md174bc3c1a" x="77.35579" y="42.440903" style="fill: #2e86ab; stroke: #2e86ab"/>
     <use xlink:href="#md174bc3c1a" x="77.445606" y="42.440903" style="fill: #2e86ab; stroke: #2e86ab"/>
     <use xlink:href="#md174bc3c1a" x="78.837764" y="42.440903" style="fill: #2e86ab; stroke: #2e86ab"/>
     <use xlink:href="#md174bc3c1a" x="79.46648" y="42.440903" style="fill: #2e86ab; stroke: #2e86ab"/>
     <use xlink:href="#md174bc3c1a" x="80.00538" y="42.440903" style="fill: #2e86ab; stroke: #2e86ab"/>
     <use xlink:href="#md174bc3c1a" x="80.319738" y="42.440903" style="fill: #2e86ab; stroke: #2e86ab"/>
     <use xlink:href="#md174bc3c1a" x="80.993362" y="42.440903" style="fill: #2e86ab; stroke: #2e86ab"/>
     <use xlink:href="#md174bc3c1a" x="82.071162" y="42.440903" style="fill: #2e86ab; stroke: #2e86ab"/>
     <use xlink:href="#md174bc3c1a" x="84.406394" y="44.039951" style="fill: #2e86ab; stroke: #2e86ab"/>
     <use xlink:href="#md174bc3c1a" x="85.84346" y="48.894893" style="fill: #2e86ab; stroke: #2e86ab"/>
     <use xlink:href="#md174bc3c1a" x="86.696717" y="50.533691" style="fill: #2e86ab; stroke: #2e86ab"/>
     <use xlink:href="#md174bc3c1a" x="87.774517" y="52.193773" style="fill: #2e86ab; stroke: #2e86ab"/>
     <use xlink:href="#md174bc3c1a" x="88.582866" y="53.87599" style="fill: #2e86ab; stroke: #2e86ab"/>
     <use xlink:href="#md174bc3c1a" x="88.762499" y="53.87599" style="fill: #2e86ab; stroke: #2e86ab"/>
     <use xlink:href="#md174bc3c1a" x="89.391216" y="53.87599" style="fill: #2e86ab; stroke: #2e86ab"/>
     <use xlink:href="#md174bc3c1a" x="89.705574" y="53.87599" style="fill: #2e86ab; stroke: #2e86ab"/>
     <use xlink:href="#md174bc3c1a" x="90.244474" y="53.87599" style="fill: #2e86ab; stroke: #2e86ab"/>
     <use xlink:href="#md174bc3c1a" x="92.355164" y="53.87599" style="fill: #2e86ab; stroke: #2e86ab"/>
     <use xlink:href="#md174bc3c1a" x="92.669522" y="53.87599" style="fill: #2e86ab; stroke: #2e86ab"/>
     <use xlink:href="#md174bc3c1a" x="92.894064" y="53.87599" style="fill: #2e86ab; stroke: #2e86ab"/>
     <use xlink:href="#md174bc3c1a" x="94.376038" y="53.87599" style="fill: #2e86ab; stroke: #2e86ab"/>
     <use xlink:href="#md174bc3c1a" x="99.181226" y="53.87599" style="fill: #2e86ab; stroke: #2e86ab"/>
     <use xlink:href="#md174bc3c1a" x="100.259026" y="55.821052" style="fill: #2e86ab; stroke: #2e86ab"/>
     <use xlink:href="#md174bc3c1a" x="101.157192" y="57.797487" style="fill: #2e86ab; stroke: #2e86ab"/>
     <use xlink:href="#md174bc3c1a" x="104.92949" y="59.806862" style="fill: #2e86ab; stroke: #2e86ab"/>
     <use xlink:href="#md174bc3c1a" x="104.974398" y="59.806862" style="fill: #2e86ab; stroke: #2e86ab"/>
     <use xlink:href="#md174bc3c1a" x="105.198939" y="59.806862" style="fill: #2e86ab; stroke: #2e86ab"/>
     <use xlink:href="#md174bc3c1a" x="106.052197" y="59.806862" style="fill: #2e86ab; stroke: #2e86ab"/>
     <use xlink:href="#md174bc3c1a" x="107.983254" y="59.806862" style="fill: #2e86ab; stroke: #2e86ab"/>
     <use xlink:href="#md174bc3c1a" x="108.297613" y="59.806862" style="fill: #2e86ab; stroke: #2e86ab"/>
     <use xlink:href="#md174bc3c1a" x="108.701787" y="59.806862" style="fill: #2e86ab; stroke: #2e86ab"/>
     <use xlink:href="#md174bc3c1a" x="108.881421" y="59.806862" style="fill: #2e86ab; stroke: #2e86ab"/>
     <use xlink:href="#md174bc3c1a" x="109.734678" y="59.806862" style="fill: #2e86ab; stroke: #2e86ab"/>
     <use xlink:href="#md174bc3c1a" x="111.665736" y="59.806862" style="fill: #2e86ab; stroke: #2e86ab"/>
     <use xlink:href="#md174bc3c1a" x="112.429177" y="59.806862" style="fill: #2e86ab; stroke: #2e86ab"/>
     <use xlink:href="#md174bc3c1a" x="113.237526" y="59.806862" style="fill: #2e86ab; stroke: #2e86ab"/>
     <use xlink:href="#md174bc3c1a" x="113.686609" y="59.806862" style="fill: #2e86ab; stroke: #2e86ab"/>
     <use xlink:href="#md174bc3c1a" x="116.336199" y="62.384104" style="fill: #2e86ab; stroke: #2e86ab"/>
     <use xlink:href="#md174bc3c1a" x="116.605649" y="62.384104" style="fill: #2e86ab; stroke: #2e86ab"/>
     <use xlink:href="#md174bc3c1a" x="118.71634" y="65.081218" style="fill: #2e86ab; stroke: #2e86ab"/>
     <use xlink:href="#md174bc3c1a" x="119.839047" y="65.081218" style="fill: #2e86ab; stroke: #2e86ab"/>
     <use xlink:href="#md174bc3c1a" x="120.108497" y="65.081218" style="fill: #2e86ab; stroke: #2e86ab"/>
     <use xlink:href="#md174bc3c1a" x="120.737213" y="65.081218" style="fill: #2e86ab; stroke: #2e86ab"/>
     <use xlink:href="#md174bc3c1a" x="121.815013" y="65.081218" style="fill: #2e86ab; stroke: #2e86ab"/>
     <use xlink:href="#md174bc3c1a" x="124.240061" y="68.142807" style="fill: #2e86ab; stroke: #2e86ab"/>
     <use xlink:href="#md174bc3c1a" x="125.497494" y="68.142807" style="fill: #2e86ab; stroke: #2e86ab"/>
     <use xlink:href="#md174bc3c1a" x="127.159101" y="68.142807" style="fill: #2e86ab; stroke: #2e86ab"/>
     <use xlink:href="#md174bc3c1a" x="129.8536" y="68.142807" style="fill: #2e86ab; stroke: #2e86ab"/>
     <use xlink:href="#md174bc3c1a" x="130.347591" y="71.587094" style="fill: #2e86ab; stroke: #2e86ab"/>
     <use xlink:href="#md174bc3c1a" x="130.527224" y="71.587094" style="fill: #2e86ab; stroke: #2e86ab"/>
     <use xlink:href="#md174bc3c1a" x="130.661949" y="71.587094" style="fill: #2e86ab; stroke: #2e86ab"/>
     <use xlink:href="#md174bc3c1a" x="131.42539" y="71.587094" style="fill: #2e86ab; stroke: #2e86ab"/>
     <use xlink:href="#md174bc3c1a" x="131.649932" y="71.587094" style="fill: #2e86ab; stroke: #2e86ab"/>
     <use xlink:href="#md174bc3c1a" x="134.34443" y="71.587094" style="fill: #2e86ab; stroke: #2e86ab"/>
     <use xlink:href="#md174bc3c1a" x="137.398195" y="71.587094" style="fill: #2e86ab; stroke: #2e86ab"/>
     <use xlink:href="#md174bc3c1a" x="142.607559" y="71.587094" style="fill: #2e86ab; stroke: #2e86ab"/>
     <use xlink:href="#md174bc3c1a" x="143.460816" y="71.587094" style="fill: #2e86ab; stroke: #2e86ab"/>
     <use xlink:href="#md174bc3c1a" x="144.269166" y="71.587094" style="fill: #2e86ab; stroke: #2e86ab"/>
     <use xlink:href="#md174bc3c1a" x="145.257149" y="71.587094" style="fill: #2e86ab; stroke: #2e86ab"/>
     <use xlink:href="#md174bc3c1a" x="146.514581" y="71.587094" style="fill: #2e86ab; stroke: #2e86ab"/>
     <use xlink:href="#md174bc3c1a" x="148.445638" y="71.587094" style="fill: #2e86ab; stroke: #2e86ab"/>
     <use xlink:href="#md174bc3c1a" x="157.517116" y="71.587094" style="fill: #2e86ab; stroke: #2e86ab"/>
     <use xlink:href="#md174bc3c1a" x="161.019964" y="77.867853" style="fill: #2e86ab; stroke: #2e86ab"/>
     <use xlink:href="#md174bc3c1a" x="164.926987" y="77.867853" style="fill: #2e86ab; stroke: #2e86ab"/>
     <use xlink:href="#md174bc3c1a" x="168.429835" y="85.045864" style="fill: #2e86ab; stroke: #2e86ab"/>
     <use xlink:href="#md174bc3c1a" x="169.238184" y="85.045864" style="fill: #2e86ab; stroke: #2e86ab"/>
     <use xlink:href="#md174bc3c1a" x="172.741032" y="93.528967" style="fill: #2e86ab; stroke: #2e86ab"/>
     <use xlink:href="#md174bc3c1a" x="174.851722" y="93.528967" style="fill: #2e86ab; stroke: #2e86ab"/>
     <use xlink:href="#md174bc3c1a" x="193.21922" y="104.132846" style="fill: #2e86ab; stroke: #2e86ab"/>
     <use xlink:href="#md174bc3c1a" x="211.047817" y="104.132846" style="fill: #2e86ab; stroke: #2e86ab"/>
     <use xlink:href="#md174bc3c1a" x="211.856167" y="104.132846" style="fill: #2e86ab; stroke: #2e86ab"/>
     <use xlink:href="#md174bc3c1a" x="218.412779" y="104.132846" style="fill: #2e86ab; stroke: #2e86ab"/>
     <use xlink:href="#md174bc3c1a" x="262.692369" y="104.132846" style="fill: #2e86ab; stroke: #2e86ab"/>
     <use xlink:href="#md174bc3c1a" x="266.015584" y="104.132846" style="fill: #2e86ab; stroke: #2e86ab"/>
     <use xlink:href="#md174bc3c1a" x="266.419759" y="104.132846" style="fill: #2e86ab; stroke: #2e86ab"/>
    </g>
   </g>
   <g id="line2d_26">
    <path d="M 39.632812 16.940813 
L 40.530979 16.940813 
L 40.530979 17.751965 
L 42.192586 17.751965 
L 42.192586 18.575596 
L 42.282403 18.575596 
L 43.67456 18.575596 
L 43.67456 19.421016 
L 44.033827 19.421016 
L 44.033827 20.270957 
L 50.680256 20.270957 
L 50.680256 21.144377 
L 56.92251 21.144377 
L 56.967419 23.050021 
L 57.057235 23.050021 
L 57.057235 24.002843 
L 57.865585 24.002843 
L 57.865585 24.967575 
L 59.976275 24.967575 
L 60.021183 26.934145 
L 60.066092 26.934145 
L 61.458249 26.934145 
L 61.458249 27.993067 
L 61.862424 27.993067 
L 61.862424 29.051989 
L 63.613848 29.051989 
L 63.613848 30.149842 
L 63.703665 30.149842 
L 63.83839 30.149842 
L 63.83839 31.255888 
L 64.062931 31.255888 
L 64.062931 32.361934 
L 67.116696 32.361934 
L 67.116696 33.558639 
L 67.925045 33.558639 
L 67.925045 34.755345 
L 68.86812 34.755345 
L 68.86812 36.026182 
L 69.496836 36.026182 
L 69.496836 37.29702 
L 70.170461 37.29702 
L 70.170461 38.567858 
L 70.619544 38.567858 
L 70.619544 39.838695 
L 70.664452 39.838695 
L 70.888994 39.838695 
L 70.888994 41.1213 
L 72.820051 41.1213 
L 72.820051 42.440903 
L 82.250795 42.440903 
L 82.250795 44.039951 
L 84.720752 44.039951 
L 84.76566 47.276579 
L 84.900385 47.276579 
L 84.900385 48.894893 
L 86.157818 48.894893 
L 86.157818 50.533691 
L 87.41525 50.533691 
L 87.41525 52.193773 
L 87.999058 52.193773 
L 87.999058 53.87599 
L 100.169209 53.87599 
L 100.259026 55.821052 
L 100.259026 55.821052 
L 101.022467 55.821052 
L 101.022467 57.797487 
L 103.402607 57.797487 
L 103.402607 59.806862 
L 114.629684 59.806862 
L 114.629684 62.384104 
L 116.785282 62.384104 
L 116.785282 65.081218 
L 123.566437 65.081218 
L 123.566437 68.142807 
L 130.347591 68.142807 
L 130.347591 71.587094 
L 158.235649 71.587094 
L 158.235649 77.867853 
L 166.633502 77.867853 
L 166.633502 85.045864 
L 172.291949 85.045864 
L 172.291949 93.528967 
L 182.575951 93.528967 
L 182.575951 104.132846 
L 266.419759 104.132846 
L 266.419759 104.132846 
" clip-path="url(#pe768065569)" style="fill: none; stroke: #2e86ab; stroke-width: 2; stroke-linecap: round"/>
   </g>
   <g id="line2d_27">
    <defs>
     <path id="m2b69b26e09" d="M -3 3 
L 3 -3 
M -3 -3 
L 3 3 
" style="stroke: #e63946"/>
    </defs>
    <g clip-path="url(#pe768065569)">
     <use xlink:href="#m2b69b26e09" x="36.758681" y="15.350476" style="fill: #e63946; stroke: #e63946"/>
     <use xlink:href="#m2b69b26e09" x="41.29442" y="16.145645" style="fill: #e63946; stroke: #e63946"/>
     <use xlink:href="#m2b69b26e09" x="41.698595" y="16.145645" style="fill: #e63946; stroke: #e63946"/>
     <use xlink:href="#m2b69b26e09" x="42.102769" y="16.145645" style="fill: #e63946; stroke: #e63946"/>
     <use xlink:href="#m2b69b26e09" x="42.506944" y="18.566754" style="fill: #e63946; stroke: #e63946"/>
     <use xlink:href="#m2b69b26e09" x="42.641669" y="19.377888" style="fill: #e63946; stroke: #e63946"/>
     <use xlink:href="#m2b69b26e09" x="43.315294" y="22.639059" style="fill: #e63946; stroke: #e63946"/>
     <use xlink:href="#m2b69b26e09" x="44.348185" y="25.097811" style="fill: #e63946; stroke: #e63946"/>
     <use xlink:href="#m2b69b26e09" x="44.887084" y="25.921801" style="fill: #e63946; stroke: #e63946"/>
     <use xlink:href="#m2b69b26e09" x="45.425984" y="28.407207" style="fill: #e63946; stroke: #e63946"/>
     <use xlink:href="#m2b69b26e09" x="49.692273" y="46.73477" style="fill: #e63946; stroke: #e63946"/>
     <use xlink:href="#m2b69b26e09" x="50.904797" y="51.765034" style="fill: #e63946; stroke: #e63946"/>
     <use xlink:href="#m2b69b26e09" x="52.027505" y="61.048665" style="fill: #e63946; stroke: #e63946"/>
     <use xlink:href="#m2b69b26e09" x="54.452554" y="69.549486" style="fill: #e63946; stroke: #e63946"/>
     <use xlink:href="#m2b69b26e09" x="54.766912" y="70.406262" style="fill: #e63946; stroke: #e63946"/>
     <use xlink:href="#m2b69b26e09" x="55.844711" y="73.860781" style="fill: #e63946; stroke: #e63946"/>
     <use xlink:href="#m2b69b26e09" x="56.069253" y="75.602435" style="fill: #e63946; stroke: #e63946"/>
     <use xlink:href="#m2b69b26e09" x="56.203977" y="75.602435" style="fill: #e63946; stroke: #e63946"/>
     <use xlink:href="#m2b69b26e09" x="56.338702" y="77.374117" style="fill: #e63946; stroke: #e63946"/>
     <use xlink:href="#m2b69b26e09" x="56.518336" y="77.374117" style="fill: #e63946; stroke: #e63946"/>
     <use xlink:href="#m2b69b26e09" x="56.563244" y="77.374117" style="fill: #e63946; stroke: #e63946"/>
     <use xlink:href="#m2b69b26e09" x="56.653061" y="77.374117" style="fill: #e63946; stroke: #e63946"/>
     <use xlink:href="#m2b69b26e09" x="56.787785" y="77.374117" style="fill: #e63946; stroke: #e63946"/>
     <use xlink:href="#m2b69b26e09" x="56.832694" y="77.374117" style="fill: #e63946; stroke: #e63946"/>
     <use xlink:href="#m2b69b26e09" x="57.102144" y="78.309172" style="fill: #e63946; stroke: #e63946"/>
     <use xlink:href="#m2b69b26e09" x="57.326685" y="80.196923" style="fill: #e63946; stroke: #e63946"/>
     <use xlink:href="#m2b69b26e09" x="57.551227" y="80.196923" style="fill: #e63946; stroke: #e63946"/>
     <use xlink:href="#m2b69b26e09" x="58.26976" y="85.971222" style="fill: #e63946; stroke: #e63946"/>
     <use xlink:href="#m2b69b26e09" x="58.314668" y="85.971222" style="fill: #e63946; stroke: #e63946"/>
     <use xlink:href="#m2b69b26e09" x="58.853568" y="86.964649" style="fill: #e63946; stroke: #e63946"/>
     <use xlink:href="#m2b69b26e09" x="60.964258" y="94.073177" style="fill: #e63946; stroke: #e63946"/>
     <use xlink:href="#m2b69b26e09" x="61.188799" y="94.073177" style="fill: #e63946; stroke: #e63946"/>
     <use xlink:href="#m2b69b26e09" x="61.233708" y="94.073177" style="fill: #e63946; stroke: #e63946"/>
     <use xlink:href="#m2b69b26e09" x="61.682791" y="94.073177" style="fill: #e63946; stroke: #e63946"/>
     <use xlink:href="#m2b69b26e09" x="61.862424" y="95.140099" style="fill: #e63946; stroke: #e63946"/>
     <use xlink:href="#m2b69b26e09" x="63.074948" y="99.520093" style="fill: #e63946; stroke: #e63946"/>
     <use xlink:href="#m2b69b26e09" x="63.703665" y="101.740936" style="fill: #e63946; stroke: #e63946"/>
     <use xlink:href="#m2b69b26e09" x="63.83839" y="101.740936" style="fill: #e63946; stroke: #e63946"/>
     <use xlink:href="#m2b69b26e09" x="63.883298" y="101.740936" style="fill: #e63946; stroke: #e63946"/>
     <use xlink:href="#m2b69b26e09" x="63.973114" y="101.740936" style="fill: #e63946; stroke: #e63946"/>
     <use xlink:href="#m2b69b26e09" x="64.152748" y="102.919691" style="fill: #e63946; stroke: #e63946"/>
     <use xlink:href="#m2b69b26e09" x="64.781464" y="106.512086" style="fill: #e63946; stroke: #e63946"/>
     <use xlink:href="#m2b69b26e09" x="65.724538" y="112.600893" style="fill: #e63946; stroke: #e63946"/>
     <use xlink:href="#m2b69b26e09" x="66.038897" y="112.600893" style="fill: #e63946; stroke: #e63946"/>
     <use xlink:href="#m2b69b26e09" x="67.026879" y="117.659285" style="fill: #e63946; stroke: #e63946"/>
     <use xlink:href="#m2b69b26e09" x="67.386146" y="120.242295" style="fill: #e63946; stroke: #e63946"/>
     <use xlink:href="#m2b69b26e09" x="68.05977" y="121.563151" style="fill: #e63946; stroke: #e63946"/>
     <use xlink:href="#m2b69b26e09" x="68.194495" y="121.563151" style="fill: #e63946; stroke: #e63946"/>
     <use xlink:href="#m2b69b26e09" x="69.496836" y="121.563151" style="fill: #e63946; stroke: #e63946"/>
     <use xlink:href="#m2b69b26e09" x="74.796016" y="131.5026" style="fill: #e63946; stroke: #e63946"/>
     <use xlink:href="#m2b69b26e09" x="75.065466" y="131.5026" style="fill: #e63946; stroke: #e63946"/>
     <use xlink:href="#m2b69b26e09" x="76.098357" y="133.014129" style="fill: #e63946; stroke: #e63946"/>
     <use xlink:href="#m2b69b26e09" x="77.849781" y="137.705081" style="fill: #e63946; stroke: #e63946"/>
     <use xlink:href="#m2b69b26e09" x="78.433589" y="140.957475" style="fill: #e63946; stroke: #e63946"/>
     <use xlink:href="#m2b69b26e09" x="79.73593" y="140.957475" style="fill: #e63946; stroke: #e63946"/>
     <use xlink:href="#m2b69b26e09" x="79.915563" y="140.957475" style="fill: #e63946; stroke: #e63946"/>
     <use xlink:href="#m2b69b26e09" x="84.675844" y="146.567853" style="fill: #e63946; stroke: #e63946"/>
     <use xlink:href="#m2b69b26e09" x="89.481032" y="146.567853" style="fill: #e63946; stroke: #e63946"/>
     <use xlink:href="#m2b69b26e09" x="110.677753" y="155.045759" style="fill: #e63946; stroke: #e63946"/>
     <use xlink:href="#m2b69b26e09" x="122.488637" y="157.377183" style="fill: #e63946; stroke: #e63946"/>
     <use xlink:href="#m2b69b26e09" x="127.069285" y="157.377183" style="fill: #e63946; stroke: #e63946"/>
     <use xlink:href="#m2b69b26e09" x="127.293826" y="157.377183" style="fill: #e63946; stroke: #e63946"/>
     <use xlink:href="#m2b69b26e09" x="129.808691" y="160.874319" style="fill: #e63946; stroke: #e63946"/>
     <use xlink:href="#m2b69b26e09" x="135.691679" y="160.874319" style="fill: #e63946; stroke: #e63946"/>
     <use xlink:href="#m2b69b26e09" x="158.909274" y="160.874319" style="fill: #e63946; stroke: #e63946"/>
     <use xlink:href="#m2b69b26e09" x="190.704354" y="160.874319" style="fill: #e63946; stroke: #e63946"/>
     <use xlink:href="#m2b69b26e09" x="193.758119" y="160.874319" style="fill: #e63946; stroke: #e63946"/>
    </g>
   </g>
   <g id="line2d_28">
    <path d="M 36.758681 15.350476 
L 40.48607 15.350476 
L 40.48607 16.145645 
L 42.147678 16.145645 
L 42.147678 17.759718 
L 42.417127 17.759718 
L 42.506944 18.566754 
L 42.506944 18.566754 
L 42.551852 18.566754 
L 42.551852 19.377888 
L 42.641669 19.377888 
L 42.686577 19.377888 
L 42.731486 21.008473 
L 43.045844 21.008473 
L 43.045844 21.823766 
L 43.270385 21.823766 
L 43.270385 22.639059 
L 43.315294 22.639059 
L 43.584743 22.639059 
L 43.584743 23.458643 
L 43.809285 23.458643 
L 43.809285 24.278227 
L 44.078735 24.278227 
L 44.078735 25.097811 
L 44.393093 25.097811 
L 44.393093 25.921801 
L 44.931993 25.921801 
L 44.931993 26.75027 
L 45.111626 26.75027 
L 45.111626 27.578738 
L 45.381076 27.578738 
L 45.381076 28.407207 
L 45.425984 28.407207 
L 45.515801 28.407207 
L 45.515801 29.240278 
L 46.009792 29.240278 
L 46.099609 30.90642 
L 46.189425 30.90642 
L 46.189425 31.739491 
L 46.32415 31.739491 
L 46.32415 32.572562 
L 46.548692 32.572562 
L 46.548692 34.238704 
L 46.952866 34.238704 
L 46.952866 35.071775 
L 47.177408 35.071775 
L 47.177408 36.737917 
L 47.401949 36.737917 
L 47.401949 37.570988 
L 47.806124 37.570988 
L 47.806124 38.404059 
L 48.210299 38.404059 
L 48.210299 39.23713 
L 48.614474 39.23713 
L 48.614474 40.903273 
L 48.839015 40.903273 
L 48.883924 42.569415 
L 49.108465 42.569415 
L 49.198282 44.235557 
L 49.333007 44.235557 
L 49.333007 45.068628 
L 49.51264 45.068628 
L 49.51264 45.901699 
L 49.647365 45.901699 
L 49.692273 46.73477 
L 49.692273 46.73477 
L 50.05154 46.73477 
L 50.05154 48.411525 
L 50.276081 48.411525 
L 50.276081 49.249902 
L 50.770072 49.249902 
L 50.859889 50.926656 
L 50.904797 50.926656 
L 50.994614 52.609 
L 51.039522 52.609 
L 51.039522 54.296933 
L 51.219155 54.296933 
L 51.264064 55.984866 
L 51.35388 55.984866 
L 51.398789 57.672799 
L 51.847872 57.672799 
L 51.937688 61.048665 
L 52.117322 61.048665 
L 52.117322 61.898747 
L 52.835855 61.898747 
L 52.835855 63.598911 
L 53.240029 63.598911 
L 53.240029 64.448993 
L 53.599296 64.448993 
L 53.599296 65.299075 
L 54.048379 65.299075 
L 54.048379 66.149157 
L 54.183104 66.149157 
L 54.183104 67.849322 
L 54.362737 67.849322 
L 54.407645 69.549486 
L 54.452554 69.549486 
L 54.54237 69.549486 
L 54.54237 70.406262 
L 54.901637 70.406262 
L 54.901637 71.269892 
L 55.08127 71.269892 
L 55.08127 72.997151 
L 55.620169 72.997151 
L 55.620169 73.860781 
L 55.889619 73.860781 
L 55.979436 75.602435 
L 56.248886 75.602435 
L 56.248886 77.374117 
L 56.338702 77.374117 
L 56.92251 77.374117 
L 56.92251 78.309172 
L 57.19196 78.309172 
L 57.281777 80.196923 
L 57.596135 80.196923 
L 57.596135 81.159306 
L 57.955401 81.159306 
L 57.955401 82.121689 
L 58.179943 82.121689 
L 58.26976 85.971222 
L 58.404484 85.971222 
L 58.404484 86.964649 
L 59.123017 86.964649 
L 59.123017 87.980153 
L 59.257742 87.980153 
L 59.257742 88.995657 
L 60.066092 88.995657 
L 60.066092 90.011161 
L 60.290633 90.011161 
L 60.290633 91.026665 
L 60.604991 91.026665 
L 60.604991 93.057673 
L 60.91935 93.057673 
L 60.91935 94.073177 
L 60.964258 94.073177 
L 61.727699 94.073177 
L 61.727699 95.140099 
L 62.446232 95.140099 
L 62.536049 98.425095 
L 63.074948 98.425095 
L 63.074948 99.520093 
L 63.434215 99.520093 
L 63.434215 100.630515 
L 63.703665 100.630515 
L 63.703665 101.740936 
L 64.062931 101.740936 
L 64.062931 102.919691 
L 64.152748 102.919691 
L 64.197656 102.919691 
L 64.197656 105.314621 
L 64.332381 105.314621 
L 64.332381 106.512086 
L 65.006005 106.512086 
L 65.006005 108.947609 
L 65.455089 108.947609 
L 65.544905 111.383131 
L 65.634722 111.383131 
L 65.634722 112.600893 
L 65.724538 112.600893 
L 66.128713 112.600893 
L 66.128713 113.865491 
L 66.263438 113.865491 
L 66.263438 115.130089 
L 66.532888 115.130089 
L 66.532888 116.394687 
L 66.667613 116.394687 
L 66.667613 117.659285 
L 67.251421 117.659285 
L 67.341237 120.242295 
L 67.610687 120.242295 
L 67.610687 121.563151 
L 69.901011 121.563151 
L 69.901011 122.983073 
L 70.395002 122.983073 
L 70.395002 124.402994 
L 71.338077 124.402994 
L 71.338077 125.822915 
L 71.607526 125.822915 
L 71.607526 127.242836 
L 71.921885 127.242836 
L 71.921885 128.662758 
L 72.595509 128.662758 
L 72.595509 130.082679 
L 74.571475 130.082679 
L 74.571475 131.5026 
L 75.334916 131.5026 
L 75.334916 133.014129 
L 76.412715 133.014129 
L 76.412715 134.57778 
L 76.592348 134.57778 
L 76.592348 136.14143 
L 77.131248 136.14143 
L 77.131248 137.705081 
L 78.209047 137.705081 
L 78.209047 139.331278 
L 78.433589 139.331278 
L 78.433589 140.957475 
L 80.229921 140.957475 
L 80.229921 142.827601 
L 81.891529 142.827601 
L 81.891529 144.697727 
L 83.373503 144.697727 
L 83.373503 146.567853 
L 91.861173 146.567853 
L 91.861173 148.68733 
L 96.666361 148.68733 
L 96.666361 150.806806 
L 103.537332 150.806806 
L 103.537332 152.926283 
L 109.510137 152.926283 
L 109.510137 155.045759 
L 120.647397 155.045759 
L 120.647397 157.377183 
L 128.147084 157.377183 
L 128.147084 160.874319 
L 193.758119 160.874319 
L 193.758119 160.874319 
" clip-path="url(#pe768065569)" style="fill: none; stroke: #e63946; stroke-width: 2; stroke-linecap: round"/>
   </g>
   <g id="patch_3">
    <path d="M 39.632812 178.36 
L 39.632812 7.2 
" style="fill: none; stroke: #262626; stroke-width: 0.8; stroke-linejoin: miter; stroke-linecap: square"/>
   </g>
   <g id="patch_4">
    <path d="M 277.902813 178.36 
L 277.902813 7.2 
" style="fill: none; stroke: #262626; stroke-width: 0.8; stroke-linejoin: miter; stroke-linecap: square"/>
   </g>
   <g id="patch_5">
    <path d="M 39.632812 178.36 
L 277.902813 178.36 
" style="fill: none; stroke: #262626; stroke-width: 0.8; stroke-linejoin: miter; stroke-linecap: square"/>
   </g>
   <g id="patch_6">
    <path d="M 39.632812 7.2 
L 277.902813 7.2 
" style="fill: none; stroke: #262626; stroke-width: 0.8; stroke-linejoin: miter; stroke-linecap: square"/>
   </g>
   <g id="text_15">
    <g id="patch_7">
     <path d="M 229.696163 25.9005 
L 273.137413 25.9005 
Q 275.537413 25.9005 275.537413 23.5005 
L 275.537413 15.758 
Q 275.537413 13.358 273.137413 13.358 
L 229.696163 13.358 
Q 227.296163 13.358 227.296163 15.758 
L 227.296163 23.5005 
Q 227.296163 25.9005 229.696163 25.9005 
z
" style="fill: #ffffff; opacity: 0.8; stroke: #ffffff; stroke-linejoin: miter"/>
    </g>
    <!-- P &lt; 0.001 -->
    <g style="fill: #262626" transform="translate(229.696163 21.83675) scale(0.08 -0.08)">
     <defs>
      <path id="DejaVuSans-Bold-50" d="M 588 4666 
L 2584 4666 
Q 3475 4666 3951 4270 
Q 4428 3875 4428 3144 
Q 4428 2409 3951 2014 
Q 3475 1619 2584 1619 
L 1791 1619 
L 1791 0 
L 588 0 
L 588 4666 
z
M 1791 3794 
L 1791 2491 
L 2456 2491 
Q 2806 2491 2997 2661 
Q 3188 2831 3188 3144 
Q 3188 3456 2997 3625 
Q 2806 3794 2456 3794 
L 1791 3794 
z
" transform="scale(0.015625)"/>
      <path id="DejaVuSans-Bold-20" transform="scale(0.015625)"/>
      <path id="DejaVuSans-Bold-3c" d="M 4684 3041 
L 1672 2003 
L 4684 972 
L 4684 191 
L 678 1638 
L 678 2375 
L 4684 3822 
L 4684 3041 
z
" transform="scale(0.015625)"/>
      <path id="DejaVuSans-Bold-30" d="M 2944 2338 
Q 2944 3213 2780 3570 
Q 2616 3928 2228 3928 
Q 1841 3928 1675 3570 
Q 1509 3213 1509 2338 
Q 1509 1453 1675 1090 
Q 1841 728 2228 728 
Q 2613 728 2778 1090 
Q 2944 1453 2944 2338 
z
M 4147 2328 
Q 4147 1169 3647 539 
Q 3147 -91 2228 -91 
Q 1306 -91 806 539 
Q 306 1169 306 2328 
Q 306 3491 806 4120 
Q 1306 4750 2228 4750 
Q 3147 4750 3647 4120 
Q 4147 3491 4147 2328 
z
" transform="scale(0.015625)"/>
      <path id="DejaVuSans-Bold-2e" d="M 653 1209 
L 1778 1209 
L 1778 0 
L 653 0 
L 653 1209 
z
" transform="scale(0.015625)"/>
      <path id="DejaVuSans-Bold-31" d="M 750 831 
L 1813 831 
L 1813 3847 
L 722 3622 
L 722 4441 
L 1806 4666 
L 2950 4666 
L 2950 831 
L 4013 831 
L 4013 0 
L 750 0 
L 750 831 
z
" transform="scale(0.015625)"/>
     </defs>
     <use xlink:href="#DejaVuSans-Bold-50"/>
     <use xlink:href="#DejaVuSans-Bold-20" transform="translate(73.291016 0)"/>
     <use xlink:href="#DejaVuSans-Bold-3c" transform="translate(108.105469 0)"/>
     <use xlink:href="#DejaVuSans-Bold-20" transform="translate(191.894531 0)"/>
     <use xlink:href="#DejaVuSans-Bold-30" transform="translate(226.708984 0)"/>
     <use xlink:href="#DejaVuSans-Bold-2e" transform="translate(296.289062 0)"/>
     <use xlink:href="#DejaVuSans-Bold-30" transform="translate(334.277344 0)"/>
     <use xlink:href="#DejaVuSans-Bold-30" transform="translate(403.857422 0)"/>
     <use xlink:href="#DejaVuSans-Bold-31" transform="translate(473.4375 0)"/>
    </g>
   </g>
  </g>
 </g>
 <defs>
  <clipPath id="pe768065569">
   <rect x="39.632812" y="7.2" width="238.27" height="171.16"/>
  </clipPath>
 </defs>
</svg>
