<?xml version="1.0" encoding="utf-8" standalone="no"?>
<!DOCTYPE svg PUBLIC "-//W3C//DTD SVG 1.1//EN"
  "http://www.w3.org/Graphics/SVG/1.1/DTD/svg11.dtd">
<svg xmlns:xlink="http://www.w3.org/1999/xlink" width="285.102812pt" height="213.012812pt" viewBox="0 0 285.102812 213.012812" xmlns="http://www.w3.org/2000/svg" version="1.1">
 <metadata>
  <rdf:RDF xmlns:dc="http://purl.org/dc/elements/1.1/" xmlns:cc="http://creativecommons.org/ns#" xmlns:rdf="http://www.w3.org/1999/02/22-rdf-syntax-ns#">
   <cc:Work>
    <dc:type rdf:resource="http://purl.org/dc/dcmitype/StillImage"/>
    <dc:date>2025-07-12T19:58:02.368384</dc:date>
    <dc:format>image/svg+xml</dc:format>
    <dc:creator>
     <cc:Agent>
      <dc:title>Matplotlib v3.10.3, https://matplotlib.org/</dc:title>
     </cc:Agent>
    </dc:creator>
   </cc:Work>
  </rdf:RDF>
 </metadata>
 <defs>
  <style type="text/css">*{stroke-linejoin: round; stroke-linecap: butt}</style>
 </defs>
 <g id="figure_1">
  <g id="patch_1">
   <path d="M 0 213.012812 
L 285.102812 213.012812 
L 285.102812 0 
L 0 0 
L 0 213.012812 
z
" style="fill: none"/>
  </g>
  <g id="axes_1">
   <g id="patch_2">
    <path d="M 39.632812 178.36 
L 277.902813 178.36 
L 277.902813 7.2 
L 39.632812 7.2 
L 39.632812 178.36 
z
" style="fill: none"/>
   </g>
   <g id="matplotlib.axis_1">
    <g id="xtick_1">
     <g id="line2d_1">
      <path d="M 39.632812 178.36 
L 39.632812 7.2 
" clip-path="url(#p275ef0e849)" style="fill: none; stroke: #cccccc; stroke-opacity: 0.3; stroke-width: 0.5; stroke-linecap: round"/>
     </g>
     <g id="line2d_2">
      <defs>
       <path id="m4a3cd762b1" d="M 0 0 
L 0 3.5 
" style="stroke: #262626; stroke-width: 0.8"/>
      </defs>
      <g>
       <use xlink:href="#m4a3cd762b1" x="39.632812" y="178.36" style="fill: #262626; stroke: #262626; stroke-width: 0.8"/>
      </g>
     </g>
     <g id="text_1">
      <!-- 0 -->
      <g style="fill: #262626" transform="translate(37.087812 191.43875) scale(0.08 -0.08)">
       <defs>
        <path id="DejaVuSans-30" d="M 2034 4250 
Q 1547 4250 1301 3770 
Q 1056 3291 1056 2328 
Q 1056 1369 1301 889 
Q 1547 409 2034 409 
Q 2525 409 2770 889 
Q 3016 1369 3016 2328 
Q 3016 3291 2770 3770 
Q 2525 4250 2034 4250 
z
M 2034 4750 
Q 2819 4750 3233 4129 
Q 3647 3509 3647 2328 
Q 3647 1150 3233 529 
Q 2819 -91 2034 -91 
Q 1250 -91 836 529 
Q 422 1150 422 2328 
Q 422 3509 836 4129 
Q 1250 4750 2034 4750 
z
" transform="scale(0.015625)"/>
       </defs>
       <use xlink:href="#DejaVuSans-30"/>
      </g>
     </g>
    </g>
    <g id="xtick_2">
     <g id="line2d_3">
      <path d="M 84.541119 178.36 
L 84.541119 7.2 
" clip-path="url(#p275ef0e849)" style="fill: none; stroke: #cccccc; stroke-opacity: 0.3; stroke-width: 0.5; stroke-linecap: round"/>
     </g>
     <g id="line2d_4">
      <g>
       <use xlink:href="#m4a3cd762b1" x="84.541119" y="178.36" style="fill: #262626; stroke: #262626; stroke-width: 0.8"/>
      </g>
     </g>
     <g id="text_2">
      <!-- 1000 -->
      <g style="fill: #262626" transform="translate(74.361119 191.43875) scale(0.08 -0.08)">
       <defs>
        <path id="DejaVuSans-31" d="M 794 531 
L 1825 531 
L 1825 4091 
L 703 3866 
L 703 4441 
L 1819 4666 
L 2450 4666 
L 2450 531 
L 3481 531 
L 3481 0 
L 794 0 
L 794 531 
z
" transform="scale(0.015625)"/>
       </defs>
       <use xlink:href="#DejaVuSans-31"/>
       <use xlink:href="#DejaVuSans-30" transform="translate(63.623047 0)"/>
       <use xlink:href="#DejaVuSans-30" transform="translate(127.246094 0)"/>
       <use xlink:href="#DejaVuSans-30" transform="translate(190.869141 0)"/>
      </g>
     </g>
    </g>
    <g id="xtick_3">
     <g id="line2d_5">
      <path d="M 129.449425 178.36 
L 129.449425 7.2 
" clip-path="url(#p275ef0e849)" style="fill: none; stroke: #cccccc; stroke-opacity: 0.3; stroke-width: 0.5; stroke-linecap: round"/>
     </g>
     <g id="line2d_6">
      <g>
       <use xlink:href="#m4a3cd762b1" x="129.449425" y="178.36" style="fill: #262626; stroke: #262626; stroke-width: 0.8"/>
      </g>
     </g>
     <g id="text_3">
      <!-- 2000 -->
      <g style="fill: #262626" transform="translate(119.269425 191.43875) scale(0.08 -0.08)">
       <defs>
        <path id="DejaVuSans-32" d="M 1228 531 
L 3431 531 
L 3431 0 
L 469 0 
L 469 531 
Q 828 903 1448 1529 
Q 2069 2156 2228 2338 
Q 2531 2678 2651 2914 
Q 2772 3150 2772 3378 
Q 2772 3750 2511 3984 
Q 2250 4219 1831 4219 
Q 1534 4219 1204 4116 
Q 875 4013 500 3803 
L 500 4441 
Q 881 4594 1212 4672 
Q 1544 4750 1819 4750 
Q 2544 4750 2975 4387 
Q 3406 4025 3406 3419 
Q 3406 3131 3298 2873 
Q 3191 2616 2906 2266 
Q 2828 2175 2409 1742 
Q 1991 1309 1228 531 
z
" transform="scale(0.015625)"/>
       </defs>
       <use xlink:href="#DejaVuSans-32"/>
       <use xlink:href="#DejaVuSans-30" transform="translate(63.623047 0)"/>
       <use xlink:href="#DejaVuSans-30" transform="translate(127.246094 0)"/>
       <use xlink:href="#DejaVuSans-30" transform="translate(190.869141 0)"/>
      </g>
     </g>
    </g>
    <g id="xtick_4">
     <g id="line2d_7">
      <path d="M 174.357731 178.36 
L 174.357731 7.2 
" clip-path="url(#p275ef0e849)" style="fill: none; stroke: #cccccc; stroke-opacity: 0.3; stroke-width: 0.5; stroke-linecap: round"/>
     </g>
     <g id="line2d_8">
      <g>
       <use xlink:href="#m4a3cd762b1" x="174.357731" y="178.36" style="fill: #262626; stroke: #262626; stroke-width: 0.8"/>
      </g>
     </g>
     <g id="text_4">
      <!-- 3000 -->
      <g style="fill: #262626" transform="translate(164.177731 191.43875) scale(0.08 -0.08)">
       <defs>
        <path id="DejaVuSans-33" d="M 2597 2516 
Q 3050 2419 3304 2112 
Q 3559 1806 3559 1356 
Q 3559 666 3084 287 
Q 2609 -91 1734 -91 
Q 1441 -91 1130 -33 
Q 819 25 488 141 
L 488 750 
Q 750 597 1062 519 
Q 1375 441 1716 441 
Q 2309 441 2620 675 
Q 2931 909 2931 1356 
Q 2931 1769 2642 2001 
Q 2353 2234 1838 2234 
L 1294 2234 
L 1294 2753 
L 1863 2753 
Q 2328 2753 2575 2939 
Q 2822 3125 2822 3475 
Q 2822 3834 2567 4026 
Q 2313 4219 1838 4219 
Q 1578 4219 1281 4162 
Q 984 4106 628 3988 
L 628 4550 
Q 988 4650 1302 4700 
Q 1616 4750 1894 4750 
Q 2613 4750 3031 4423 
Q 3450 4097 3450 3541 
Q 3450 3153 3228 2886 
Q 3006 2619 2597 2516 
z
" transform="scale(0.015625)"/>
       </defs>
       <use xlink:href="#DejaVuSans-33"/>
       <use xlink:href="#DejaVuSans-30" transform="translate(63.623047 0)"/>
       <use xlink:href="#DejaVuSans-30" transform="translate(127.246094 0)"/>
       <use xlink:href="#DejaVuSans-30" transform="translate(190.869141 0)"/>
      </g>
     </g>
    </g>
    <g id="xtick_5">
     <g id="line2d_9">
      <path d="M 219.266037 178.36 
L 219.266037 7.2 
" clip-path="url(#p275ef0e849)" style="fill: none; stroke: #cccccc; stroke-opacity: 0.3; stroke-width: 0.5; stroke-linecap: round"/>
     </g>
     <g id="line2d_10">
      <g>
       <use xlink:href="#m4a3cd762b1" x="219.266037" y="178.36" style="fill: #262626; stroke: #262626; stroke-width: 0.8"/>
      </g>
     </g>
     <g id="text_5">
      <!-- 4000 -->
      <g style="fill: #262626" transform="translate(209.086037 191.43875) scale(0.08 -0.08)">
       <defs>
        <path id="DejaVuSans-34" d="M 2419 4116 
L 825 1625 
L 2419 1625 
L 2419 4116 
z
M 2253 4666 
L 3047 4666 
L 3047 1625 
L 3713 1625 
L 3713 1100 
L 3047 1100 
L 3047 0 
L 2419 0 
L 2419 1100 
L 313 1100 
L 313 1709 
L 2253 4666 
z
" transform="scale(0.015625)"/>
       </defs>
       <use xlink:href="#DejaVuSans-34"/>
       <use xlink:href="#DejaVuSans-30" transform="translate(63.623047 0)"/>
       <use xlink:href="#DejaVuSans-30" transform="translate(127.246094 0)"/>
       <use xlink:href="#DejaVuSans-30" transform="translate(190.869141 0)"/>
      </g>
     </g>
    </g>
    <g id="xtick_6">
     <g id="line2d_11">
      <path d="M 264.174343 178.36 
L 264.174343 7.2 
" clip-path="url(#p275ef0e849)" style="fill: none; stroke: #cccccc; stroke-opacity: 0.3; stroke-width: 0.5; stroke-linecap: round"/>
     </g>
     <g id="line2d_12">
      <g>
       <use xlink:href="#m4a3cd762b1" x="264.174343" y="178.36" style="fill: #262626; stroke: #262626; stroke-width: 0.8"/>
      </g>
     </g>
     <g id="text_6">
      <!-- 5000 -->
      <g style="fill: #262626" transform="translate(253.994343 191.43875) scale(0.08 -0.08)">
       <defs>
        <path id="DejaVuSans-35" d="M 691 4666 
L 3169 4666 
L 3169 4134 
L 1269 4134 
L 1269 2991 
Q 1406 3038 1543 3061 
Q 1681 3084 1819 3084 
Q 2600 3084 3056 2656 
Q 3513 2228 3513 1497 
Q 3513 744 3044 326 
Q 2575 -91 1722 -91 
Q 1428 -91 1123 -41 
Q 819 9 494 109 
L 494 744 
Q 775 591 1075 516 
Q 1375 441 1709 441 
Q 2250 441 2565 725 
Q 2881 1009 2881 1497 
Q 2881 1984 2565 2268 
Q 2250 2553 1709 2553 
Q 1456 2553 1204 2497 
Q 953 2441 691 2322 
L 691 4666 
z
" transform="scale(0.015625)"/>
       </defs>
       <use xlink:href="#DejaVuSans-35"/>
       <use xlink:href="#DejaVuSans-30" transform="translate(63.623047 0)"/>
       <use xlink:href="#DejaVuSans-30" transform="translate(127.246094 0)"/>
       <use xlink:href="#DejaVuSans-30" transform="translate(190.869141 0)"/>
      </g>
     </g>
    </g>
    <g id="text_7">
     <!-- Time (days) -->
     <g style="fill: #262626" transform="translate(132.193906 203.941094) scale(0.09 -0.09)">
      <defs>
       <path id="DejaVuSans-54" d="M -19 4666 
L 3928 4666 
L 3928 4134 
L 2272 4134 
L 2272 0 
L 1638 0 
L 1638 4134 
L -19 4134 
L -19 4666 
z
" transform="scale(0.015625)"/>
       <path id="DejaVuSans-69" d="M 603 3500 
L 1178 3500 
L 1178 0 
L 603 0 
L 603 3500 
z
M 603 4863 
L 1178 4863 
L 1178 4134 
L 603 4134 
L 603 4863 
z
" transform="scale(0.015625)"/>
       <path id="DejaVuSans-6d" d="M 3328 2828 
Q 3544 3216 3844 3400 
Q 4144 3584 4550 3584 
Q 5097 3584 5394 3201 
Q 5691 2819 5691 2113 
L 5691 0 
L 5113 0 
L 5113 2094 
Q 5113 2597 4934 2840 
Q 4756 3084 4391 3084 
Q 3944 3084 3684 2787 
Q 3425 2491 3425 1978 
L 3425 0 
L 2847 0 
L 2847 2094 
Q 2847 2600 2669 2842 
Q 2491 3084 2119 3084 
Q 1678 3084 1418 2786 
Q 1159 2488 1159 1978 
L 1159 0 
L 581 0 
L 581 3500 
L 1159 3500 
L 1159 2956 
Q 1356 3278 1631 3431 
Q 1906 3584 2284 3584 
Q 2666 3584 2933 3390 
Q 3200 3197 3328 2828 
z
" transform="scale(0.015625)"/>
       <path id="DejaVuSans-65" d="M 3597 1894 
L 3597 1613 
L 953 1613 
Q 991 1019 1311 708 
Q 1631 397 2203 397 
Q 2534 397 2845 478 
Q 3156 559 3463 722 
L 3463 178 
Q 3153 47 2828 -22 
Q 2503 -91 2169 -91 
Q 1331 -91 842 396 
Q 353 884 353 1716 
Q 353 2575 817 3079 
Q 1281 3584 2069 3584 
Q 2775 3584 3186 3129 
Q 3597 2675 3597 1894 
z
M 3022 2063 
Q 3016 2534 2758 2815 
Q 2500 3097 2075 3097 
Q 1594 3097 1305 2825 
Q 1016 2553 972 2059 
L 3022 2063 
z
" transform="scale(0.015625)"/>
       <path id="DejaVuSans-20" transform="scale(0.015625)"/>
       <path id="DejaVuSans-28" d="M 1984 4856 
Q 1566 4138 1362 3434 
Q 1159 2731 1159 2009 
Q 1159 1288 1364 580 
Q 1569 -128 1984 -844 
L 1484 -844 
Q 1016 -109 783 600 
Q 550 1309 550 2009 
Q 550 2706 781 3412 
Q 1013 4119 1484 4856 
L 1984 4856 
z
" transform="scale(0.015625)"/>
       <path id="DejaVuSans-64" d="M 2906 2969 
L 2906 4863 
L 3481 4863 
L 3481 0 
L 2906 0 
L 2906 525 
Q 2725 213 2448 61 
Q 2172 -91 1784 -91 
Q 1150 -91 751 415 
Q 353 922 353 1747 
Q 353 2572 751 3078 
Q 1150 3584 1784 3584 
Q 2172 3584 2448 3432 
Q 2725 3281 2906 2969 
z
M 947 1747 
Q 947 1113 1208 752 
Q 1469 391 1925 391 
Q 2381 391 2643 752 
Q 2906 1113 2906 1747 
Q 2906 2381 2643 2742 
Q 2381 3103 1925 3103 
Q 1469 3103 1208 2742 
Q 947 2381 947 1747 
z
" transform="scale(0.015625)"/>
       <path id="DejaVuSans-61" d="M 2194 1759 
Q 1497 1759 1228 1600 
Q 959 1441 959 1056 
Q 959 750 1161 570 
Q 1363 391 1709 391 
Q 2188 391 2477 730 
Q 2766 1069 2766 1631 
L 2766 1759 
L 2194 1759 
z
M 3341 1997 
L 3341 0 
L 2766 0 
L 2766 531 
Q 2569 213 2275 61 
Q 1981 -91 1556 -91 
Q 1019 -91 701 211 
Q 384 513 384 1019 
Q 384 1609 779 1909 
Q 1175 2209 1959 2209 
L 2766 2209 
L 2766 2266 
Q 2766 2663 2505 2880 
Q 2244 3097 1772 3097 
Q 1472 3097 1187 3025 
Q 903 2953 641 2809 
L 641 3341 
Q 956 3463 1253 3523 
Q 1550 3584 1831 3584 
Q 2591 3584 2966 3190 
Q 3341 2797 3341 1997 
z
" transform="scale(0.015625)"/>
       <path id="DejaVuSans-79" d="M 2059 -325 
Q 1816 -950 1584 -1140 
Q 1353 -1331 966 -1331 
L 506 -1331 
L 506 -850 
L 844 -850 
Q 1081 -850 1212 -737 
Q 1344 -625 1503 -206 
L 1606 56 
L 191 3500 
L 800 3500 
L 1894 763 
L 2988 3500 
L 3597 3500 
L 2059 -325 
z
" transform="scale(0.015625)"/>
       <path id="DejaVuSans-73" d="M 2834 3397 
L 2834 2853 
Q 2591 2978 2328 3040 
Q 2066 3103 1784 3103 
Q 1356 3103 1142 2972 
Q 928 2841 928 2578 
Q 928 2378 1081 2264 
Q 1234 2150 1697 2047 
L 1894 2003 
Q 2506 1872 2764 1633 
Q 3022 1394 3022 966 
Q 3022 478 2636 193 
Q 2250 -91 1575 -91 
Q 1294 -91 989 -36 
Q 684 19 347 128 
L 347 722 
Q 666 556 975 473 
Q 1284 391 1588 391 
Q 1994 391 2212 530 
Q 2431 669 2431 922 
Q 2431 1156 2273 1281 
Q 2116 1406 1581 1522 
L 1381 1569 
Q 847 1681 609 1914 
Q 372 2147 372 2553 
Q 372 3047 722 3315 
Q 1072 3584 1716 3584 
Q 2034 3584 2315 3537 
Q 2597 3491 2834 3397 
z
" transform="scale(0.015625)"/>
       <path id="DejaVuSans-29" d="M 513 4856 
L 1013 4856 
Q 1481 4119 1714 3412 
Q 1947 2706 1947 2009 
Q 1947 1309 1714 600 
Q 1481 -109 1013 -844 
L 513 -844 
Q 928 -128 1133 580 
Q 1338 1288 1338 2009 
Q 1338 2731 1133 3434 
Q 928 4138 513 4856 
z
" transform="scale(0.015625)"/>
      </defs>
      <use xlink:href="#DejaVuSans-54"/>
      <use xlink:href="#DejaVuSans-69" transform="translate(57.958984 0)"/>
      <use xlink:href="#DejaVuSans-6d" transform="translate(85.742188 0)"/>
      <use xlink:href="#DejaVuSans-65" transform="translate(183.154297 0)"/>
      <use xlink:href="#DejaVuSans-20" transform="translate(244.677734 0)"/>
      <use xlink:href="#DejaVuSans-28" transform="translate(276.464844 0)"/>
      <use xlink:href="#DejaVuSans-64" transform="translate(315.478516 0)"/>
      <use xlink:href="#DejaVuSans-61" transform="translate(378.955078 0)"/>
      <use xlink:href="#DejaVuSans-79" transform="translate(440.234375 0)"/>
      <use xlink:href="#DejaVuSans-73" transform="translate(499.414062 0)"/>
      <use xlink:href="#DejaVuSans-29" transform="translate(551.513672 0)"/>
     </g>
    </g>
   </g>
   <g id="matplotlib.axis_2">
    <g id="ytick_1">
     <g id="line2d_13">
      <path d="M 39.632812 178.36 
L 277.902813 178.36 
" clip-path="url(#p275ef0e849)" style="fill: none; stroke: #cccccc; stroke-opacity: 0.3; stroke-width: 0.5; stroke-linecap: round"/>
     </g>
     <g id="line2d_14">
      <defs>
       <path id="m5bded64a6f" d="M 0 0 
L -3.5 0 
" style="stroke: #262626; stroke-width: 0.8"/>
      </defs>
      <g>
       <use xlink:href="#m5bded64a6f" x="39.632812" y="178.36" style="fill: #262626; stroke: #262626; stroke-width: 0.8"/>
      </g>
     </g>
     <g id="text_8">
      <!-- 0.0 -->
      <g style="fill: #262626" transform="translate(19.910312 181.399375) scale(0.08 -0.08)">
       <defs>
        <path id="DejaVuSans-2e" d="M 684 794 
L 1344 794 
L 1344 0 
L 684 0 
L 684 794 
z
" transform="scale(0.015625)"/>
       </defs>
       <use xlink:href="#DejaVuSans-30"/>
       <use xlink:href="#DejaVuSans-2e" transform="translate(63.623047 0)"/>
       <use xlink:href="#DejaVuSans-30" transform="translate(95.410156 0)"/>
      </g>
     </g>
    </g>
    <g id="ytick_2">
     <g id="line2d_15">
      <path d="M 39.632812 145.758095 
L 277.902813 145.758095 
" clip-path="url(#p275ef0e849)" style="fill: none; stroke: #cccccc; stroke-opacity: 0.3; stroke-width: 0.5; stroke-linecap: round"/>
     </g>
     <g id="line2d_16">
      <g>
       <use xlink:href="#m5bded64a6f" x="39.632812" y="145.758095" style="fill: #262626; stroke: #262626; stroke-width: 0.8"/>
      </g>
     </g>
     <g id="text_9">
      <!-- 0.2 -->
      <g style="fill: #262626" transform="translate(19.910312 148.79747) scale(0.08 -0.08)">
       <use xlink:href="#DejaVuSans-30"/>
       <use xlink:href="#DejaVuSans-2e" transform="translate(63.623047 0)"/>
       <use xlink:href="#DejaVuSans-32" transform="translate(95.410156 0)"/>
      </g>
     </g>
    </g>
    <g id="ytick_3">
     <g id="line2d_17">
      <path d="M 39.632812 113.15619 
L 277.902813 113.15619 
" clip-path="url(#p275ef0e849)" style="fill: none; stroke: #cccccc; stroke-opacity: 0.3; stroke-width: 0.5; stroke-linecap: round"/>
     </g>
     <g id="line2d_18">
      <g>
       <use xlink:href="#m5bded64a6f" x="39.632812" y="113.15619" style="fill: #262626; stroke: #262626; stroke-width: 0.8"/>
      </g>
     </g>
     <g id="text_10">
      <!-- 0.4 -->
      <g style="fill: #262626" transform="translate(19.910312 116.195565) scale(0.08 -0.08)">
       <use xlink:href="#DejaVuSans-30"/>
       <use xlink:href="#DejaVuSans-2e" transform="translate(63.623047 0)"/>
       <use xlink:href="#DejaVuSans-34" transform="translate(95.410156 0)"/>
      </g>
     </g>
    </g>
    <g id="ytick_4">
     <g id="line2d_19">
      <path d="M 39.632812 80.554286 
L 277.902813 80.554286 
" clip-path="url(#p275ef0e849)" style="fill: none; stroke: #cccccc; stroke-opacity: 0.3; stroke-width: 0.5; stroke-linecap: round"/>
     </g>
     <g id="line2d_20">
      <g>
       <use xlink:href="#m5bded64a6f" x="39.632812" y="80.554286" style="fill: #262626; stroke: #262626; stroke-width: 0.8"/>
      </g>
     </g>
     <g id="text_11">
      <!-- 0.6 -->
      <g style="fill: #262626" transform="translate(19.910312 83.593661) scale(0.08 -0.08)">
       <defs>
        <path id="DejaVuSans-36" d="M 2113 2584 
Q 1688 2584 1439 2293 
Q 1191 2003 1191 1497 
Q 1191 994 1439 701 
Q 1688 409 2113 409 
Q 2538 409 2786 701 
Q 3034 994 3034 1497 
Q 3034 2003 2786 2293 
Q 2538 2584 2113 2584 
z
M 3366 4563 
L 3366 3988 
Q 3128 4100 2886 4159 
Q 2644 4219 2406 4219 
Q 1781 4219 1451 3797 
Q 1122 3375 1075 2522 
Q 1259 2794 1537 2939 
Q 1816 3084 2150 3084 
Q 2853 3084 3261 2657 
Q 3669 2231 3669 1497 
Q 3669 778 3244 343 
Q 2819 -91 2113 -91 
Q 1303 -91 875 529 
Q 447 1150 447 2328 
Q 447 3434 972 4092 
Q 1497 4750 2381 4750 
Q 2619 4750 2861 4703 
Q 3103 4656 3366 4563 
z
" transform="scale(0.015625)"/>
       </defs>
       <use xlink:href="#DejaVuSans-30"/>
       <use xlink:href="#DejaVuSans-2e" transform="translate(63.623047 0)"/>
       <use xlink:href="#DejaVuSans-36" transform="translate(95.410156 0)"/>
      </g>
     </g>
    </g>
    <g id="ytick_5">
     <g id="line2d_21">
      <path d="M 39.632812 47.952381 
L 277.902813 47.952381 
" clip-path="url(#p275ef0e849)" style="fill: none; stroke: #cccccc; stroke-opacity: 0.3; stroke-width: 0.5; stroke-linecap: round"/>
     </g>
     <g id="line2d_22">
      <g>
       <use xlink:href="#m5bded64a6f" x="39.632812" y="47.952381" style="fill: #262626; stroke: #262626; stroke-width: 0.8"/>
      </g>
     </g>
     <g id="text_12">
      <!-- 0.8 -->
      <g style="fill: #262626" transform="translate(19.910312 50.991756) scale(0.08 -0.08)">
       <defs>
        <path id="DejaVuSans-38" d="M 2034 2216 
Q 1584 2216 1326 1975 
Q 1069 1734 1069 1313 
Q 1069 891 1326 650 
Q 1584 409 2034 409 
Q 2484 409 2743 651 
Q 3003 894 3003 1313 
Q 3003 1734 2745 1975 
Q 2488 2216 2034 2216 
z
M 1403 2484 
Q 997 2584 770 2862 
Q 544 3141 544 3541 
Q 544 4100 942 4425 
Q 1341 4750 2034 4750 
Q 2731 4750 3128 4425 
Q 3525 4100 3525 3541 
Q 3525 3141 3298 2862 
Q 3072 2584 2669 2484 
Q 3125 2378 3379 2068 
Q 3634 1759 3634 1313 
Q 3634 634 3220 271 
Q 2806 -91 2034 -91 
Q 1263 -91 848 271 
Q 434 634 434 1313 
Q 434 1759 690 2068 
Q 947 2378 1403 2484 
z
M 1172 3481 
Q 1172 3119 1398 2916 
Q 1625 2713 2034 2713 
Q 2441 2713 2670 2916 
Q 2900 3119 2900 3481 
Q 2900 3844 2670 4047 
Q 2441 4250 2034 4250 
Q 1625 4250 1398 4047 
Q 1172 3844 1172 3481 
z
" transform="scale(0.015625)"/>
       </defs>
       <use xlink:href="#DejaVuSans-30"/>
       <use xlink:href="#DejaVuSans-2e" transform="translate(63.623047 0)"/>
       <use xlink:href="#DejaVuSans-38" transform="translate(95.410156 0)"/>
      </g>
     </g>
    </g>
    <g id="ytick_6">
     <g id="line2d_23">
      <path d="M 39.632812 15.350476 
L 277.902813 15.350476 
" clip-path="url(#p275ef0e849)" style="fill: none; stroke: #cccccc; stroke-opacity: 0.3; stroke-width: 0.5; stroke-linecap: round"/>
     </g>
     <g id="line2d_24">
      <g>
       <use xlink:href="#m5bded64a6f" x="39.632812" y="15.350476" style="fill: #262626; stroke: #262626; stroke-width: 0.8"/>
      </g>
     </g>
     <g id="text_13">
      <!-- 1.0 -->
      <g style="fill: #262626" transform="translate(19.910312 18.389851) scale(0.08 -0.08)">
       <use xlink:href="#DejaVuSans-31"/>
       <use xlink:href="#DejaVuSans-2e" transform="translate(63.623047 0)"/>
       <use xlink:href="#DejaVuSans-30" transform="translate(95.410156 0)"/>
      </g>
     </g>
    </g>
    <g id="text_14">
     <!-- Survival probability -->
     <g style="fill: #262626" transform="translate(14.038594 136.361797) rotate(-90) scale(0.09 -0.09)">
      <defs>
       <path id="DejaVuSans-53" d="M 3425 4513 
L 3425 3897 
Q 3066 4069 2747 4153 
Q 2428 4238 2131 4238 
Q 1616 4238 1336 4038 
Q 1056 3838 1056 3469 
Q 1056 3159 1242 3001 
Q 1428 2844 1947 2747 
L 2328 2669 
Q 3034 2534 3370 2195 
Q 3706 1856 3706 1288 
Q 3706 609 3251 259 
Q 2797 -91 1919 -91 
Q 1588 -91 1214 -16 
Q 841 59 441 206 
L 441 856 
Q 825 641 1194 531 
Q 1563 422 1919 422 
Q 2459 422 2753 634 
Q 3047 847 3047 1241 
Q 3047 1584 2836 1778 
Q 2625 1972 2144 2069 
L 1759 2144 
Q 1053 2284 737 2584 
Q 422 2884 422 3419 
Q 422 4038 858 4394 
Q 1294 4750 2059 4750 
Q 2388 4750 2728 4690 
Q 3069 4631 3425 4513 
z
" transform="scale(0.015625)"/>
       <path id="DejaVuSans-75" d="M 544 1381 
L 544 3500 
L 1119 3500 
L 1119 1403 
Q 1119 906 1312 657 
Q 1506 409 1894 409 
Q 2359 409 2629 706 
Q 2900 1003 2900 1516 
L 2900 3500 
L 3475 3500 
L 3475 0 
L 2900 0 
L 2900 538 
Q 2691 219 2414 64 
Q 2138 -91 1772 -91 
Q 1169 -91 856 284 
Q 544 659 544 1381 
z
M 1991 3584 
L 1991 3584 
z
" transform="scale(0.015625)"/>
       <path id="DejaVuSans-72" d="M 2631 2963 
Q 2534 3019 2420 3045 
Q 2306 3072 2169 3072 
Q 1681 3072 1420 2755 
Q 1159 2438 1159 1844 
L 1159 0 
L 581 0 
L 581 3500 
L 1159 3500 
L 1159 2956 
Q 1341 3275 1631 3429 
Q 1922 3584 2338 3584 
Q 2397 3584 2469 3576 
Q 2541 3569 2628 3553 
L 2631 2963 
z
" transform="scale(0.015625)"/>
       <path id="DejaVuSans-76" d="M 191 3500 
L 800 3500 
L 1894 563 
L 2988 3500 
L 3597 3500 
L 2284 0 
L 1503 0 
L 191 3500 
z
" transform="scale(0.015625)"/>
       <path id="DejaVuSans-6c" d="M 603 4863 
L 1178 4863 
L 1178 0 
L 603 0 
L 603 4863 
z
" transform="scale(0.015625)"/>
       <path id="DejaVuSans-70" d="M 1159 525 
L 1159 -1331 
L 581 -1331 
L 581 3500 
L 1159 3500 
L 1159 2969 
Q 1341 3281 1617 3432 
Q 1894 3584 2278 3584 
Q 2916 3584 3314 3078 
Q 3713 2572 3713 1747 
Q 3713 922 3314 415 
Q 2916 -91 2278 -91 
Q 1894 -91 1617 61 
Q 1341 213 1159 525 
z
M 3116 1747 
Q 3116 2381 2855 2742 
Q 2594 3103 2138 3103 
Q 1681 3103 1420 2742 
Q 1159 2381 1159 1747 
Q 1159 1113 1420 752 
Q 1681 391 2138 391 
Q 2594 391 2855 752 
Q 3116 1113 3116 1747 
z
" transform="scale(0.015625)"/>
       <path id="DejaVuSans-6f" d="M 1959 3097 
Q 1497 3097 1228 2736 
Q 959 2375 959 1747 
Q 959 1119 1226 758 
Q 1494 397 1959 397 
Q 2419 397 2687 759 
Q 2956 1122 2956 1747 
Q 2956 2369 2687 2733 
Q 2419 3097 1959 3097 
z
M 1959 3584 
Q 2709 3584 3137 3096 
Q 3566 2609 3566 1747 
Q 3566 888 3137 398 
Q 2709 -91 1959 -91 
Q 1206 -91 779 398 
Q 353 888 353 1747 
Q 353 2609 779 3096 
Q 1206 3584 1959 3584 
z
" transform="scale(0.015625)"/>
       <path id="DejaVuSans-62" d="M 3116 1747 
Q 3116 2381 2855 2742 
Q 2594 3103 2138 3103 
Q 1681 3103 1420 2742 
Q 1159 2381 1159 1747 
Q 1159 1113 1420 752 
Q 1681 391 2138 391 
Q 2594 391 2855 752 
Q 3116 1113 3116 1747 
z
M 1159 2969 
Q 1341 3281 1617 3432 
Q 1894 3584 2278 3584 
Q 2916 3584 3314 3078 
Q 3713 2572 3713 1747 
Q 3713 922 3314 415 
Q 2916 -91 2278 -91 
Q 1894 -91 1617 61 
Q 1341 213 1159 525 
L 1159 0 
L 581 0 
L 581 4863 
L 1159 4863 
L 1159 2969 
z
" transform="scale(0.015625)"/>
       <path id="DejaVuSans-74" d="M 1172 4494 
L 1172 3500 
L 2356 3500 
L 2356 3053 
L 1172 3053 
L 1172 1153 
Q 1172 725 1289 603 
Q 1406 481 1766 481 
L 2356 481 
L 2356 0 
L 1766 0 
Q 1100 0 847 248 
Q 594 497 594 1153 
L 594 3053 
L 172 3053 
L 172 3500 
L 594 3500 
L 594 4494 
L 1172 4494 
z
" transform="scale(0.015625)"/>
      </defs>
      <use xlink:href="#DejaVuSans-53"/>
      <use xlink:href="#DejaVuSans-75" transform="translate(63.476562 0)"/>
      <use xlink:href="#DejaVuSans-72" transform="translate(126.855469 0)"/>
      <use xlink:href="#DejaVuSans-76" transform="translate(167.96875 0)"/>
      <use xlink:href="#DejaVuSans-69" transform="translate(227.148438 0)"/>
      <use xlink:href="#DejaVuSans-76" transform="translate(254.931641 0)"/>
      <use xlink:href="#DejaVuSans-61" transform="translate(314.111328 0)"/>
      <use xlink:href="#DejaVuSans-6c" transform="translate(375.390625 0)"/>
      <use xlink:href="#DejaVuSans-20" transform="translate(403.173828 0)"/>
      <use xlink:href="#DejaVuSans-70" transform="translate(434.960938 0)"/>
      <use xlink:href="#DejaVuSans-72" transform="translate(498.4375 0)"/>
      <use xlink:href="#DejaVuSans-6f" transform="translate(537.300781 0)"/>
      <use xlink:href="#DejaVuSans-62" transform="translate(598.482422 0)"/>
      <use xlink:href="#DejaVuSans-61" transform="translate(661.958984 0)"/>
      <use xlink:href="#DejaVuSans-62" transform="translate(723.238281 0)"/>
      <use xlink:href="#DejaVuSans-69" transform="translate(786.714844 0)"/>
      <use xlink:href="#DejaVuSans-6c" transform="translate(814.498047 0)"/>
      <use xlink:href="#DejaVuSans-69" transform="translate(842.28125 0)"/>
      <use xlink:href="#DejaVuSans-74" transform="translate(870.064453 0)"/>
      <use xlink:href="#DejaVuSans-79" transform="translate(909.273438 0)"/>
     </g>
    </g>
   </g>
   <g id="FillBetweenPolyCollection_1">
    <defs>
     <path id="mea529ab132" d="M 36.758681 -197.662336 
L 36.758681 -197.662336 
L 40.21662 -197.662336 
L 40.21662 -197.662336 
L 40.306437 -197.662336 
L 40.306437 -197.662336 
L 40.396254 -197.662336 
L 40.396254 -197.662336 
L 40.530979 -197.662336 
L 40.530979 -197.662336 
L 40.890245 -197.662336 
L 40.890245 -197.662336 
L 41.204603 -197.662336 
L 41.204603 -197.662336 
L 41.29442 -197.662336 
L 41.29442 -197.662336 
L 41.698595 -197.662336 
L 41.698595 -197.662336 
L 42.102769 -197.662336 
L 42.102769 -197.662336 
L 42.282403 -197.662336 
L 42.282403 -197.662336 
L 42.506944 -197.662336 
L 42.506944 -197.662336 
L 42.641669 -197.662336 
L 42.641669 -197.662336 
L 42.686577 -197.662336 
L 42.686577 -197.662336 
L 43.315294 -197.662336 
L 43.315294 -197.662336 
L 43.40511 -197.662336 
L 43.40511 -197.662336 
L 43.629652 -197.662336 
L 43.629652 -197.662336 
L 44.348185 -197.662336 
L 44.348185 -197.662336 
L 45.425984 -197.662336 
L 45.425984 -197.662336 
L 46.728325 -197.662336 
L 46.728325 -197.662336 
L 46.952866 -197.662336 
L 46.952866 -197.662336 
L 50.904797 -197.662336 
L 50.904797 -197.662336 
L 52.027505 -197.662336 
L 52.027505 -197.662336 
L 52.790946 -197.662336 
L 52.790946 -197.662336 
L 54.452554 -197.662336 
L 54.452554 -197.662336 
L 54.587278 -197.662336 
L 54.587278 -197.662336 
L 54.766912 -197.662336 
L 54.766912 -197.662336 
L 55.126178 -197.662336 
L 55.126178 -197.662336 
L 55.844711 -197.662336 
L 55.844711 -197.662336 
L 55.979436 -197.662336 
L 55.979436 -197.662336 
L 56.024344 -197.662336 
L 56.024344 -197.662336 
L 56.069253 -197.662336 
L 56.069253 -197.662336 
L 56.159069 -197.662336 
L 56.159069 -197.662336 
L 56.203977 -197.662336 
L 56.203977 -197.662336 
L 56.248886 -197.662336 
L 56.248886 -197.662336 
L 56.338702 -197.662336 
L 56.338702 -197.662336 
L 56.383611 -197.662336 
L 56.383611 -197.662336 
L 56.518336 -197.662336 
L 56.518336 -197.662336 
L 56.563244 -197.662336 
L 56.563244 -197.662336 
L 56.653061 -197.662336 
L 56.653061 -197.662336 
L 56.832694 -197.662336 
L 56.832694 -197.662336 
L 56.877602 -197.662336 
L 56.877602 -197.662336 
L 57.102144 -197.662336 
L 57.102144 -197.662336 
L 57.326685 -197.662336 
L 57.326685 -197.662336 
L 57.506318 -197.662336 
L 57.506318 -197.662336 
L 57.551227 -197.662336 
L 57.551227 -197.662336 
L 58.045218 -197.662336 
L 58.045218 -197.662336 
L 58.26976 -197.662336 
L 58.26976 -197.662336 
L 58.314668 -197.662336 
L 58.314668 -197.662336 
L 58.853568 -197.662336 
L 58.853568 -197.662336 
L 59.078109 -197.662336 
L 59.078109 -197.662336 
L 60.066092 -197.662336 
L 60.066092 -197.662336 
L 60.155908 -197.662336 
L 60.155908 -197.662336 
L 60.290633 -197.662336 
L 60.290633 -197.662336 
L 60.560083 -197.662336 
L 60.560083 -197.662336 
L 60.604991 -197.662336 
L 60.604991 -197.662336 
L 60.694808 -197.662336 
L 60.694808 -197.662336 
L 60.91935 -197.662336 
L 60.91935 -197.662336 
L 60.964258 -197.662336 
L 60.964258 -197.662336 
L 61.188799 -197.662336 
L 61.188799 -197.662336 
L 61.233708 -197.662336 
L 61.233708 -197.662336 
L 61.368433 -197.662336 
L 61.368433 -197.662336 
L 61.682791 -197.662336 
L 61.682791 -197.662336 
L 61.862424 -197.662336 
L 61.862424 -197.662336 
L 62.22169 -197.662336 
L 62.22169 -197.662336 
L 62.401324 -197.662336 
L 62.401324 -197.662336 
L 62.446232 -197.662336 
L 62.446232 -197.662336 
L 62.625865 -197.662336 
L 62.625865 -197.662336 
L 63.164765 -197.662336 
L 63.164765 -197.662336 
L 63.703665 -197.662336 
L 63.703665 -197.662336 
L 63.83839 -197.662336 
L 63.83839 -197.662336 
L 63.973114 -197.662336 
L 63.973114 -197.662336 
L 64.152748 -197.662336 
L 64.152748 -197.662336 
L 64.781464 -197.662336 
L 64.781464 -197.662336 
L 64.871281 -197.662336 
L 64.871281 -197.662336 
L 65.320364 -197.662336 
L 65.320364 -197.662336 
L 65.365272 -197.662336 
L 65.365272 -197.662336 
L 65.589813 -197.662336 
L 65.589813 -197.662336 
L 65.67963 -197.662336 
L 65.67963 -197.662336 
L 65.724538 -197.662336 
L 65.724538 -197.662336 
L 65.769447 -197.662336 
L 65.769447 -197.662336 
L 66.038897 -197.662336 
L 66.038897 -197.662336 
L 66.128713 -197.662336 
L 66.128713 -197.662336 
L 66.712521 -197.662336 
L 66.712521 -197.662336 
L 67.386146 -197.662336 
L 67.386146 -197.662336 
L 68.05977 -197.662336 
L 68.05977 -197.662336 
L 68.194495 -197.662336 
L 68.194495 -197.662336 
L 68.374128 -197.662336 
L 68.374128 -197.662336 
L 68.419037 -197.662336 
L 68.419037 -197.662336 
L 68.463945 -197.662336 
L 68.463945 -197.662336 
L 68.643578 -197.662336 
L 68.643578 -197.662336 
L 68.733395 -197.662336 
L 68.733395 -197.662336 
L 68.778303 -197.662336 
L 68.778303 -197.662336 
L 69.496836 -197.662336 
L 69.496836 -197.662336 
L 70.664452 -197.662336 
L 70.664452 -197.662336 
L 71.023719 -197.662336 
L 71.023719 -197.662336 
L 71.068627 -197.662336 
L 71.068627 -197.662336 
L 72.595509 -197.662336 
L 72.595509 -186.100735 
L 73.314042 -186.100735 
L 73.314042 -186.100735 
L 73.808033 -186.100735 
L 73.808033 -186.100735 
L 74.346933 -186.100735 
L 74.346933 -186.100735 
L 74.796016 -186.100735 
L 74.796016 -186.100735 
L 75.065466 -186.100735 
L 75.065466 -186.100735 
L 75.469641 -186.100735 
L 75.469641 -186.100735 
L 75.514549 -186.100735 
L 75.514549 -186.100735 
L 76.098357 -186.100735 
L 76.098357 -186.100735 
L 76.143265 -186.100735 
L 76.143265 -186.100735 
L 76.457624 -186.100735 
L 76.457624 -186.100735 
L 76.996523 -186.100735 
L 76.996523 -186.100735 
L 77.35579 -186.100735 
L 77.35579 -186.100735 
L 77.445606 -186.100735 
L 77.445606 -186.100735 
L 78.433589 -186.100735 
L 78.433589 -186.100735 
L 78.837764 -186.100735 
L 78.837764 -186.100735 
L 79.46648 -186.100735 
L 79.46648 -186.100735 
L 79.73593 -186.100735 
L 79.73593 -186.100735 
L 79.915563 -186.100735 
L 79.915563 -186.100735 
L 80.00538 -186.100735 
L 80.00538 -186.100735 
L 80.319738 -186.100735 
L 80.319738 -186.100735 
L 80.993362 -186.100735 
L 80.993362 -186.100735 
L 82.071162 -186.100735 
L 82.071162 -186.100735 
L 84.675844 -186.100735 
L 84.675844 -186.100735 
L 85.84346 -186.100735 
L 85.84346 -186.100735 
L 86.696717 -186.100735 
L 86.696717 -186.100735 
L 87.774517 -186.100735 
L 87.774517 -186.100735 
L 88.582866 -186.100735 
L 88.582866 -186.100735 
L 88.762499 -186.100735 
L 88.762499 -186.100735 
L 89.391216 -186.100735 
L 89.391216 -186.100735 
L 89.705574 -186.100735 
L 89.705574 -186.100735 
L 90.244474 -186.100735 
L 90.244474 -186.100735 
L 91.861173 -186.100735 
L 91.861173 -181.048478 
L 92.355164 -181.048478 
L 92.355164 -181.048478 
L 92.669522 -181.048478 
L 92.669522 -181.048478 
L 92.894064 -181.048478 
L 92.894064 -181.048478 
L 94.376038 -181.048478 
L 94.376038 -181.048478 
L 99.181226 -181.048478 
L 99.181226 -181.048478 
L 100.259026 -181.048478 
L 100.259026 -181.048478 
L 101.157192 -181.048478 
L 101.157192 -181.048478 
L 104.92949 -181.048478 
L 104.92949 -181.048478 
L 104.974398 -181.048478 
L 104.974398 -181.048478 
L 105.198939 -181.048478 
L 105.198939 -181.048478 
L 106.052197 -181.048478 
L 106.052197 -181.048478 
L 107.983254 -181.048478 
L 107.983254 -181.048478 
L 108.297613 -181.048478 
L 108.297613 -181.048478 
L 108.701787 -181.048478 
L 108.701787 -181.048478 
L 108.881421 -181.048478 
L 108.881421 -181.048478 
L 109.734678 -181.048478 
L 109.734678 -181.048478 
L 110.677753 -181.048478 
L 110.677753 -181.048478 
L 111.665736 -181.048478 
L 111.665736 -181.048478 
L 112.429177 -181.048478 
L 112.429177 -181.048478 
L 113.237526 -181.048478 
L 113.237526 -181.048478 
L 113.686609 -181.048478 
L 113.686609 -181.048478 
L 116.336199 -181.048478 
L 116.336199 -181.048478 
L 116.605649 -181.048478 
L 116.605649 -181.048478 
L 118.71634 -181.048478 
L 118.71634 -181.048478 
L 119.839047 -181.048478 
L 119.839047 -181.048478 
L 120.108497 -181.048478 
L 120.108497 -181.048478 
L 120.737213 -181.048478 
L 120.737213 -181.048478 
L 121.815013 -181.048478 
L 121.815013 -181.048478 
L 122.488637 -181.048478 
L 122.488637 -181.048478 
L 127.159101 -181.048478 
L 127.159101 -181.048478 
L 127.293826 -181.048478 
L 127.293826 -181.048478 
L 129.808691 -181.048478 
L 129.808691 -181.048478 
L 129.8536 -181.048478 
L 129.8536 -181.048478 
L 130.347591 -181.048478 
L 130.347591 -181.048478 
L 130.527224 -181.048478 
L 130.527224 -181.048478 
L 130.661949 -181.048478 
L 130.661949 -181.048478 
L 131.42539 -181.048478 
L 131.42539 -181.048478 
L 131.649932 -181.048478 
L 131.649932 -181.048478 
L 134.34443 -181.048478 
L 134.34443 -181.048478 
L 135.691679 -181.048478 
L 135.691679 -181.048478 
L 137.398195 -181.048478 
L 137.398195 -181.048478 
L 143.460816 -181.048478 
L 143.460816 -181.048478 
L 144.269166 -181.048478 
L 144.269166 -181.048478 
L 145.257149 -181.048478 
L 145.257149 -181.048478 
L 146.514581 -181.048478 
L 146.514581 -181.048478 
L 148.445638 -181.048478 
L 148.445638 -181.048478 
L 157.517116 -181.048478 
L 157.517116 -181.048478 
L 158.909274 -181.048478 
L 158.909274 -181.048478 
L 161.019964 -181.048478 
L 161.019964 -181.048478 
L 164.926987 -181.048478 
L 164.926987 -181.048478 
L 168.429835 -181.048478 
L 168.429835 -181.048478 
L 169.238184 -181.048478 
L 169.238184 -181.048478 
L 172.741032 -181.048478 
L 172.741032 -181.048478 
L 174.851722 -181.048478 
L 174.851722 -181.048478 
L 190.704354 -181.048478 
L 190.704354 -181.048478 
L 193.21922 -181.048478 
L 193.21922 -181.048478 
L 193.758119 -181.048478 
L 193.758119 -181.048478 
L 211.047817 -181.048478 
L 211.047817 -181.048478 
L 211.856167 -181.048478 
L 211.856167 -181.048478 
L 218.412779 -181.048478 
L 218.412779 -181.048478 
L 262.692369 -181.048478 
L 262.692369 -181.048478 
L 266.015584 -181.048478 
L 266.015584 -181.048478 
L 266.419759 -181.048478 
L 266.419759 -181.048478 
L 266.419759 -196.631719 
L 266.419759 -196.631719 
L 266.419759 -196.631719 
L 266.015584 -196.631719 
L 266.015584 -196.631719 
L 262.692369 -196.631719 
L 262.692369 -196.631719 
L 218.412779 -196.631719 
L 218.412779 -196.631719 
L 211.856167 -196.631719 
L 211.856167 -196.631719 
L 211.047817 -196.631719 
L 211.047817 -196.631719 
L 193.758119 -196.631719 
L 193.758119 -196.631719 
L 193.21922 -196.631719 
L 193.21922 -196.631719 
L 190.704354 -196.631719 
L 190.704354 -196.631719 
L 174.851722 -196.631719 
L 174.851722 -196.631719 
L 172.741032 -196.631719 
L 172.741032 -196.631719 
L 169.238184 -196.631719 
L 169.238184 -196.631719 
L 168.429835 -196.631719 
L 168.429835 -196.631719 
L 164.926987 -196.631719 
L 164.926987 -196.631719 
L 161.019964 -196.631719 
L 161.019964 -196.631719 
L 158.909274 -196.631719 
L 158.909274 -196.631719 
L 157.517116 -196.631719 
L 157.517116 -196.631719 
L 148.445638 -196.631719 
L 148.445638 -196.631719 
L 146.514581 -196.631719 
L 146.514581 -196.631719 
L 145.257149 -196.631719 
L 145.257149 -196.631719 
L 144.269166 -196.631719 
L 144.269166 -196.631719 
L 143.460816 -196.631719 
L 143.460816 -196.631719 
L 137.398195 -196.631719 
L 137.398195 -196.631719 
L 135.691679 -196.631719 
L 135.691679 -196.631719 
L 134.34443 -196.631719 
L 134.34443 -196.631719 
L 131.649932 -196.631719 
L 131.649932 -196.631719 
L 131.42539 -196.631719 
L 131.42539 -196.631719 
L 130.661949 -196.631719 
L 130.661949 -196.631719 
L 130.527224 -196.631719 
L 130.527224 -196.631719 
L 130.347591 -196.631719 
L 130.347591 -196.631719 
L 129.8536 -196.631719 
L 129.8536 -196.631719 
L 129.808691 -196.631719 
L 129.808691 -196.631719 
L 127.293826 -196.631719 
L 127.293826 -196.631719 
L 127.159101 -196.631719 
L 127.159101 -196.631719 
L 122.488637 -196.631719 
L 122.488637 -196.631719 
L 121.815013 -196.631719 
L 121.815013 -196.631719 
L 120.737213 -196.631719 
L 120.737213 -196.631719 
L 120.108497 -196.631719 
L 120.108497 -196.631719 
L 119.839047 -196.631719 
L 119.839047 -196.631719 
L 118.71634 -196.631719 
L 118.71634 -196.631719 
L 116.605649 -196.631719 
L 116.605649 -196.631719 
L 116.336199 -196.631719 
L 116.336199 -196.631719 
L 113.686609 -196.631719 
L 113.686609 -196.631719 
L 113.237526 -196.631719 
L 113.237526 -196.631719 
L 112.429177 -196.631719 
L 112.429177 -196.631719 
L 111.665736 -196.631719 
L 111.665736 -196.631719 
L 110.677753 -196.631719 
L 110.677753 -196.631719 
L 109.734678 -196.631719 
L 109.734678 -196.631719 
L 108.881421 -196.631719 
L 108.881421 -196.631719 
L 108.701787 -196.631719 
L 108.701787 -196.631719 
L 108.297613 -196.631719 
L 108.297613 -196.631719 
L 107.983254 -196.631719 
L 107.983254 -196.631719 
L 106.052197 -196.631719 
L 106.052197 -196.631719 
L 105.198939 -196.631719 
L 105.198939 -196.631719 
L 104.974398 -196.631719 
L 104.974398 -196.631719 
L 104.92949 -196.631719 
L 104.92949 -196.631719 
L 101.157192 -196.631719 
L 101.157192 -196.631719 
L 100.259026 -196.631719 
L 100.259026 -196.631719 
L 99.181226 -196.631719 
L 99.181226 -196.631719 
L 94.376038 -196.631719 
L 94.376038 -196.631719 
L 92.894064 -196.631719 
L 92.894064 -196.631719 
L 92.669522 -196.631719 
L 92.669522 -196.631719 
L 92.355164 -196.631719 
L 92.355164 -196.631719 
L 91.861173 -196.631719 
L 91.861173 -197.424561 
L 90.244474 -197.424561 
L 90.244474 -197.424561 
L 89.705574 -197.424561 
L 89.705574 -197.424561 
L 89.391216 -197.424561 
L 89.391216 -197.424561 
L 88.762499 -197.424561 
L 88.762499 -197.424561 
L 88.582866 -197.424561 
L 88.582866 -197.424561 
L 87.774517 -197.424561 
L 87.774517 -197.424561 
L 86.696717 -197.424561 
L 86.696717 -197.424561 
L 85.84346 -197.424561 
L 85.84346 -197.424561 
L 84.675844 -197.424561 
L 84.675844 -197.424561 
L 82.071162 -197.424561 
L 82.071162 -197.424561 
L 80.993362 -197.424561 
L 80.993362 -197.424561 
L 80.319738 -197.424561 
L 80.319738 -197.424561 
L 80.00538 -197.424561 
L 80.00538 -197.424561 
L 79.915563 -197.424561 
L 79.915563 -197.424561 
L 79.73593 -197.424561 
L 79.73593 -197.424561 
L 79.46648 -197.424561 
L 79.46648 -197.424561 
L 78.837764 -197.424561 
L 78.837764 -197.424561 
L 78.433589 -197.424561 
L 78.433589 -197.424561 
L 77.445606 -197.424561 
L 77.445606 -197.424561 
L 77.35579 -197.424561 
L 77.35579 -197.424561 
L 76.996523 -197.424561 
L 76.996523 -197.424561 
L 76.457624 -197.424561 
L 76.457624 -197.424561 
L 76.143265 -197.424561 
L 76.143265 -197.424561 
L 76.098357 -197.424561 
L 76.098357 -197.424561 
L 75.514549 -197.424561 
L 75.514549 -197.424561 
L 75.469641 -197.424561 
L 75.469641 -197.424561 
L 75.065466 -197.424561 
L 75.065466 -197.424561 
L 74.796016 -197.424561 
L 74.796016 -197.424561 
L 74.346933 -197.424561 
L 74.346933 -197.424561 
L 73.808033 -197.424561 
L 73.808033 -197.424561 
L 73.314042 -197.424561 
L 73.314042 -197.424561 
L 72.595509 -197.424561 
L 72.595509 -197.662336 
L 71.068627 -197.662336 
L 71.068627 -197.662336 
L 71.023719 -197.662336 
L 71.023719 -197.662336 
L 70.664452 -197.662336 
L 70.664452 -197.662336 
L 69.496836 -197.662336 
L 69.496836 -197.662336 
L 68.778303 -197.662336 
L 68.778303 -197.662336 
L 68.733395 -197.662336 
L 68.733395 -197.662336 
L 68.643578 -197.662336 
L 68.643578 -197.662336 
L 68.463945 -197.662336 
L 68.463945 -197.662336 
L 68.419037 -197.662336 
L 68.419037 -197.662336 
L 68.374128 -197.662336 
L 68.374128 -197.662336 
L 68.194495 -197.662336 
L 68.194495 -197.662336 
L 68.05977 -197.662336 
L 68.05977 -197.662336 
L 67.386146 -197.662336 
L 67.386146 -197.662336 
L 66.712521 -197.662336 
L 66.712521 -197.662336 
L 66.128713 -197.662336 
L 66.128713 -197.662336 
L 66.038897 -197.662336 
L 66.038897 -197.662336 
L 65.769447 -197.662336 
L 65.769447 -197.662336 
L 65.724538 -197.662336 
L 65.724538 -197.662336 
L 65.67963 -197.662336 
L 65.67963 -197.662336 
L 65.589813 -197.662336 
L 65.589813 -197.662336 
L 65.365272 -197.662336 
L 65.365272 -197.662336 
L 65.320364 -197.662336 
L 65.320364 -197.662336 
L 64.871281 -197.662336 
L 64.871281 -197.662336 
L 64.781464 -197.662336 
L 64.781464 -197.662336 
L 64.152748 -197.662336 
L 64.152748 -197.662336 
L 63.973114 -197.662336 
L 63.973114 -197.662336 
L 63.83839 -197.662336 
L 63.83839 -197.662336 
L 63.703665 -197.662336 
L 63.703665 -197.662336 
L 63.164765 -197.662336 
L 63.164765 -197.662336 
L 62.625865 -197.662336 
L 62.625865 -197.662336 
L 62.446232 -197.662336 
L 62.446232 -197.662336 
L 62.401324 -197.662336 
L 62.401324 -197.662336 
L 62.22169 -197.662336 
L 62.22169 -197.662336 
L 61.862424 -197.662336 
L 61.862424 -197.662336 
L 61.682791 -197.662336 
L 61.682791 -197.662336 
L 61.368433 -197.662336 
L 61.368433 -197.662336 
L 61.233708 -197.662336 
L 61.233708 -197.662336 
L 61.188799 -197.662336 
L 61.188799 -197.662336 
L 60.964258 -197.662336 
L 60.964258 -197.662336 
L 60.91935 -197.662336 
L 60.91935 -197.662336 
L 60.694808 -197.662336 
L 60.694808 -197.662336 
L 60.604991 -197.662336 
L 60.604991 -197.662336 
L 60.560083 -197.662336 
L 60.560083 -197.662336 
L 60.290633 -197.662336 
L 60.290633 -197.662336 
L 60.155908 -197.662336 
L 60.155908 -197.662336 
L 60.066092 -197.662336 
L 60.066092 -197.662336 
L 59.078109 -197.662336 
L 59.078109 -197.662336 
L 58.853568 -197.662336 
L 58.853568 -197.662336 
L 58.314668 -197.662336 
L 58.314668 -197.662336 
L 58.26976 -197.662336 
L 58.26976 -197.662336 
L 58.045218 -197.662336 
L 58.045218 -197.662336 
L 57.551227 -197.662336 
L 57.551227 -197.662336 
L 57.506318 -197.662336 
L 57.506318 -197.662336 
L 57.326685 -197.662336 
L 57.326685 -197.662336 
L 57.102144 -197.662336 
L 57.102144 -197.662336 
L 56.877602 -197.662336 
L 56.877602 -197.662336 
L 56.832694 -197.662336 
L 56.832694 -197.662336 
L 56.653061 -197.662336 
L 56.653061 -197.662336 
L 56.563244 -197.662336 
L 56.563244 -197.662336 
L 56.518336 -197.662336 
L 56.518336 -197.662336 
L 56.383611 -197.662336 
L 56.383611 -197.662336 
L 56.338702 -197.662336 
L 56.338702 -197.662336 
L 56.248886 -197.662336 
L 56.248886 -197.662336 
L 56.203977 -197.662336 
L 56.203977 -197.662336 
L 56.159069 -197.662336 
L 56.159069 -197.662336 
L 56.069253 -197.662336 
L 56.069253 -197.662336 
L 56.024344 -197.662336 
L 56.024344 -197.662336 
L 55.979436 -197.662336 
L 55.979436 -197.662336 
L 55.844711 -197.662336 
L 55.844711 -197.662336 
L 55.126178 -197.662336 
L 55.126178 -197.662336 
L 54.766912 -197.662336 
L 54.766912 -197.662336 
L 54.587278 -197.662336 
L 54.587278 -197.662336 
L 54.452554 -197.662336 
L 54.452554 -197.662336 
L 52.790946 -197.662336 
L 52.790946 -197.662336 
L 52.027505 -197.662336 
L 52.027505 -197.662336 
L 50.904797 -197.662336 
L 50.904797 -197.662336 
L 46.952866 -197.662336 
L 46.952866 -197.662336 
L 46.728325 -197.662336 
L 46.728325 -197.662336 
L 45.425984 -197.662336 
L 45.425984 -197.662336 
L 44.348185 -197.662336 
L 44.348185 -197.662336 
L 43.629652 -197.662336 
L 43.629652 -197.662336 
L 43.40511 -197.662336 
L 43.40511 -197.662336 
L 43.315294 -197.662336 
L 43.315294 -197.662336 
L 42.686577 -197.662336 
L 42.686577 -197.662336 
L 42.641669 -197.662336 
L 42.641669 -197.662336 
L 42.506944 -197.662336 
L 42.506944 -197.662336 
L 42.282403 -197.662336 
L 42.282403 -197.662336 
L 42.102769 -197.662336 
L 42.102769 -197.662336 
L 41.698595 -197.662336 
L 41.698595 -197.662336 
L 41.29442 -197.662336 
L 41.29442 -197.662336 
L 41.204603 -197.662336 
L 41.204603 -197.662336 
L 40.890245 -197.662336 
L 40.890245 -197.662336 
L 40.530979 -197.662336 
L 40.530979 -197.662336 
L 40.396254 -197.662336 
L 40.396254 -197.662336 
L 40.306437 -197.662336 
L 40.306437 -197.662336 
L 40.21662 -197.662336 
L 40.21662 -197.662336 
L 36.758681 -197.662336 
z
" style="stroke: #2e86ab; stroke-opacity: 0.2"/>
    </defs>
    <g clip-path="url(#p275ef0e849)">
     <use xlink:href="#mea529ab132" x="0" y="213.012812" style="fill: #2e86ab; fill-opacity: 0.2; stroke: #2e86ab; stroke-opacity: 0.2"/>
    </g>
   </g>
   <g id="FillBetweenPolyCollection_2">
    <defs>
     <path id="m74469caf5f" d="M 39.632812 -197.265081 
L 39.632812 -191.425821 
L 40.48607 -191.425821 
L 40.48607 -190.40192 
L 40.530979 -190.40192 
L 40.530979 -189.344202 
L 42.147678 -189.344202 
L 42.147678 -187.248532 
L 42.192586 -187.248532 
L 42.192586 -186.219871 
L 42.417127 -186.219871 
L 42.417127 -185.203911 
L 42.551852 -185.203911 
L 42.551852 -184.199663 
L 42.686577 -184.199663 
L 42.686577 -183.206078 
L 42.731486 -183.206078 
L 42.731486 -182.222178 
L 43.045844 -182.222178 
L 43.045844 -181.247089 
L 43.270385 -181.247089 
L 43.270385 -180.280046 
L 43.584743 -180.280046 
L 43.584743 -179.320381 
L 43.67456 -179.320381 
L 43.67456 -178.367511 
L 43.809285 -178.367511 
L 43.809285 -177.420925 
L 43.899102 -177.420925 
L 43.899102 -177.420925 
L 44.033827 -177.420925 
L 44.033827 -176.473583 
L 44.078735 -176.473583 
L 44.078735 -175.531881 
L 44.393093 -175.531881 
L 44.393093 -174.595442 
L 44.572726 -174.595442 
L 44.572726 -174.595442 
L 44.887084 -174.595442 
L 44.887084 -174.595442 
L 44.931993 -174.595442 
L 44.931993 -173.650795 
L 45.111626 -173.650795 
L 45.111626 -172.711108 
L 45.381076 -172.711108 
L 45.381076 -171.776079 
L 45.515801 -171.776079 
L 45.515801 -170.845437 
L 46.009792 -170.845437 
L 46.009792 -169.918939 
L 46.099609 -169.918939 
L 46.099609 -168.996368 
L 46.189425 -168.996368 
L 46.189425 -168.077526 
L 46.32415 -168.077526 
L 46.32415 -167.162236 
L 46.548692 -167.162236 
L 46.548692 -165.341674 
L 46.952866 -165.341674 
L 46.952866 -164.436118 
L 47.177408 -164.436118 
L 47.177408 -162.633829 
L 47.401949 -162.633829 
L 47.401949 -161.736874 
L 47.806124 -161.736874 
L 47.806124 -160.842579 
L 48.030666 -160.842579 
L 48.030666 -160.842579 
L 48.120482 -160.842579 
L 48.120482 -160.842579 
L 48.210299 -160.842579 
L 48.210299 -159.937797 
L 48.614474 -159.937797 
L 48.614474 -158.136094 
L 48.839015 -158.136094 
L 48.839015 -157.238999 
L 48.883924 -157.238999 
L 48.883924 -156.344303 
L 49.108465 -156.344303 
L 49.108465 -155.451933 
L 49.198282 -155.451933 
L 49.198282 -154.561822 
L 49.333007 -154.561822 
L 49.333007 -153.673906 
L 49.51264 -153.673906 
L 49.51264 -152.788125 
L 49.647365 -152.788125 
L 49.647365 -151.904425 
L 49.692273 -151.904425 
L 49.692273 -151.904425 
L 50.05154 -151.904425 
L 50.05154 -150.129576 
L 50.276081 -150.129576 
L 50.276081 -149.245168 
L 50.680256 -149.245168 
L 50.680256 -148.362709 
L 50.770072 -148.362709 
L 50.770072 -147.482153 
L 50.859889 -147.482153 
L 50.859889 -146.603459 
L 50.904797 -146.603459 
L 50.904797 -145.726588 
L 50.994614 -145.726588 
L 50.994614 -144.851502 
L 51.039522 -144.851502 
L 51.039522 -143.106548 
L 51.219155 -143.106548 
L 51.219155 -142.236615 
L 51.264064 -142.236615 
L 51.264064 -141.368337 
L 51.35388 -141.368337 
L 51.35388 -140.501685 
L 51.398789 -140.501685 
L 51.398789 -139.636634 
L 51.847872 -139.636634 
L 51.847872 -137.911228 
L 51.89278 -137.911228 
L 51.89278 -137.050826 
L 51.937688 -137.050826 
L 51.937688 -136.191929 
L 52.117322 -136.191929 
L 52.117322 -135.334516 
L 52.835855 -135.334516 
L 52.835855 -133.62406 
L 53.240029 -133.62406 
L 53.240029 -132.770981 
L 53.599296 -132.770981 
L 53.599296 -131.919311 
L 54.048379 -131.919311 
L 54.048379 -131.069034 
L 54.183104 -131.069034 
L 54.183104 -129.372598 
L 54.362737 -129.372598 
L 54.362737 -128.52641 
L 54.407645 -128.52641 
L 54.407645 -127.681558 
L 54.54237 -127.681558 
L 54.54237 -126.838028 
L 54.901637 -126.838028 
L 54.901637 -125.995808 
L 55.08127 -125.995808 
L 55.08127 -124.315257 
L 55.620169 -124.315257 
L 55.620169 -123.476903 
L 55.754894 -123.476903 
L 55.754894 -123.476903 
L 55.889619 -123.476903 
L 55.889619 -122.631826 
L 55.979436 -122.631826 
L 55.979436 -121.788058 
L 56.248886 -121.788058 
L 56.248886 -120.10441 
L 56.787785 -120.10441 
L 56.787785 -120.10441 
L 56.92251 -120.10441 
L 56.92251 -118.409228 
L 56.967419 -118.409228 
L 56.967419 -117.563617 
L 57.057235 -117.563617 
L 57.057235 -116.719314 
L 57.19196 -116.719314 
L 57.19196 -115.876314 
L 57.281777 -115.876314 
L 57.281777 -115.034608 
L 57.596135 -115.034608 
L 57.596135 -114.19419 
L 57.865585 -114.19419 
L 57.865585 -113.355055 
L 57.955401 -113.355055 
L 57.955401 -112.517197 
L 58.179943 -112.517197 
L 58.179943 -110.01124 
L 58.26976 -110.01124 
L 58.26976 -109.178445 
L 58.404484 -109.178445 
L 58.404484 -108.346908 
L 58.718843 -108.346908 
L 58.718843 -108.346908 
L 59.123017 -108.346908 
L 59.123017 -107.507168 
L 59.257742 -107.507168 
L 59.257742 -106.668738 
L 59.976275 -106.668738 
L 59.976275 -105.831614 
L 60.021183 -105.831614 
L 60.021183 -104.995794 
L 60.066092 -104.995794 
L 60.066092 -104.161277 
L 60.290633 -104.161277 
L 60.290633 -103.328062 
L 60.604991 -103.328062 
L 60.604991 -101.665534 
L 60.91935 -101.665534 
L 60.91935 -100.83622 
L 61.054075 -100.83622 
L 61.054075 -100.83622 
L 61.413341 -100.83622 
L 61.413341 -100.83622 
L 61.458249 -100.83622 
L 61.458249 -99.987015 
L 61.727699 -99.987015 
L 61.727699 -99.139247 
L 61.862424 -99.139247 
L 61.862424 -98.292915 
L 62.446232 -98.292915 
L 62.446232 -97.436696 
L 62.536049 -97.436696 
L 62.536049 -95.728802 
L 63.074948 -95.728802 
L 63.074948 -94.87713 
L 63.434215 -94.87713 
L 63.434215 -94.014865 
L 63.613848 -94.014865 
L 63.613848 -93.154208 
L 63.703665 -93.154208 
L 63.703665 -92.29516 
L 63.83839 -92.29516 
L 63.83839 -91.424858 
L 63.883298 -91.424858 
L 63.883298 -91.424858 
L 64.062931 -91.424858 
L 64.062931 -89.662689 
L 64.197656 -89.662689 
L 64.197656 -87.907811 
L 64.332381 -87.907811 
L 64.332381 -87.033121 
L 65.006005 -87.033121 
L 65.006005 -85.289275 
L 65.455089 -85.289275 
L 65.455089 -84.420138 
L 65.544905 -84.420138 
L 65.544905 -83.552871 
L 65.589813 -83.552871 
L 65.589813 -83.552871 
L 65.634722 -83.552871 
L 65.634722 -82.672038 
L 66.128713 -82.672038 
L 66.128713 -81.793228 
L 66.263438 -81.793228 
L 66.263438 -80.916455 
L 66.532888 -80.916455 
L 66.532888 -80.041733 
L 66.667613 -80.041733 
L 66.667613 -79.169077 
L 67.026879 -79.169077 
L 67.026879 -79.169077 
L 67.116696 -79.169077 
L 67.116696 -78.281332 
L 67.251421 -78.281332 
L 67.251421 -77.395847 
L 67.341237 -77.395847 
L 67.341237 -76.51264 
L 67.610687 -76.51264 
L 67.610687 -75.631735 
L 67.925045 -75.631735 
L 67.925045 -74.753155 
L 68.284312 -74.753155 
L 68.284312 -74.753155 
L 68.86812 -74.753155 
L 68.86812 -73.857608 
L 69.496836 -73.857608 
L 69.496836 -72.964635 
L 69.901011 -72.964635 
L 69.901011 -72.074265 
L 70.170461 -72.074265 
L 70.170461 -71.18653 
L 70.395002 -71.18653 
L 70.395002 -70.301466 
L 70.619544 -70.301466 
L 70.619544 -69.41911 
L 70.888994 -69.41911 
L 70.888994 -68.539501 
L 71.338077 -68.539501 
L 71.338077 -67.662683 
L 71.607526 -67.662683 
L 71.607526 -66.788703 
L 71.921885 -66.788703 
L 71.921885 -65.917609 
L 72.460784 -65.917609 
L 72.460784 -65.917609 
L 72.820051 -65.917609 
L 72.820051 -65.025102 
L 73.673309 -65.025102 
L 73.673309 -65.025102 
L 74.571475 -65.025102 
L 74.571475 -64.109618 
L 75.334916 -64.109618 
L 75.334916 -63.197876 
L 76.412715 -63.197876 
L 76.412715 -62.289949 
L 76.592348 -62.289949 
L 76.592348 -61.385917 
L 77.131248 -61.385917 
L 77.131248 -60.485867 
L 77.849781 -60.485867 
L 77.849781 -60.485867 
L 78.209047 -60.485867 
L 78.209047 -59.558485 
L 78.433589 -59.558485 
L 78.433589 -58.635817 
L 80.229921 -58.635817 
L 80.229921 -57.717984 
L 81.891529 -57.717984 
L 81.891529 -56.805117 
L 82.250795 -56.805117 
L 82.250795 -55.89736 
L 83.373503 -55.89736 
L 83.373503 -54.994871 
L 84.406394 -54.994871 
L 84.406394 -54.994871 
L 84.720752 -54.994871 
L 84.720752 -54.05775 
L 84.76566 -54.05775 
L 84.76566 -53.127177 
L 84.900385 -53.127177 
L 84.900385 -52.203384 
L 86.157818 -52.203384 
L 86.157818 -51.286634 
L 87.41525 -51.286634 
L 87.41525 -50.37722 
L 87.999058 -50.37722 
L 87.999058 -49.475467 
L 89.481032 -49.475467 
L 89.481032 -49.475467 
L 96.666361 -49.475467 
L 96.666361 -48.52692 
L 100.169209 -48.52692 
L 100.169209 -47.58869 
L 101.022467 -47.58869 
L 101.022467 -46.661328 
L 103.402607 -46.661328 
L 103.402607 -45.74547 
L 103.537332 -45.74547 
L 103.537332 -44.841853 
L 109.510137 -44.841853 
L 109.510137 -43.951338 
L 114.629684 -43.951338 
L 114.629684 -43.074939 
L 116.785282 -43.074939 
L 116.785282 -42.213859 
L 120.647397 -42.213859 
L 120.647397 -41.369548 
L 123.566437 -41.369548 
L 123.566437 -40.543771 
L 124.240061 -40.543771 
L 124.240061 -40.543771 
L 125.497494 -40.543771 
L 125.497494 -40.543771 
L 127.069285 -40.543771 
L 127.069285 -40.543771 
L 128.147084 -40.543771 
L 128.147084 -39.27514 
L 130.347591 -39.27514 
L 130.347591 -38.102706 
L 142.607559 -38.102706 
L 142.607559 -38.102706 
L 158.235649 -38.102706 
L 158.235649 -36.695438 
L 166.633502 -36.695438 
L 166.633502 -35.585292 
L 172.291949 -35.585292 
L 172.291949 -34.853001 
L 182.575951 -34.853001 
L 182.575951 -34.652812 
L 182.575951 -34.652812 
L 182.575951 -34.652812 
L 182.575951 -43.763488 
L 172.291949 -43.763488 
L 172.291949 -46.095804 
L 166.633502 -46.095804 
L 166.633502 -48.251763 
L 158.235649 -48.251763 
L 158.235649 -50.187564 
L 142.607559 -50.187564 
L 142.607559 -50.187564 
L 130.347591 -50.187564 
L 130.347591 -51.920489 
L 128.147084 -51.920489 
L 128.147084 -53.574474 
L 127.069285 -53.574474 
L 127.069285 -53.574474 
L 125.497494 -53.574474 
L 125.497494 -53.574474 
L 124.240061 -53.574474 
L 124.240061 -53.574474 
L 123.566437 -53.574474 
L 123.566437 -54.91398 
L 120.647397 -54.91398 
L 120.647397 -56.237361 
L 116.785282 -56.237361 
L 116.785282 -57.546126 
L 114.629684 -57.546126 
L 114.629684 -58.841524 
L 109.510137 -58.841524 
L 109.510137 -60.124602 
L 103.537332 -60.124602 
L 103.537332 -61.396246 
L 103.402607 -61.396246 
L 103.402607 -62.657214 
L 101.022467 -62.657214 
L 101.022467 -63.908158 
L 100.169209 -63.908158 
L 100.169209 -65.149643 
L 96.666361 -65.149643 
L 96.666361 -66.382162 
L 89.481032 -66.382162 
L 89.481032 -66.382162 
L 87.999058 -66.382162 
L 87.999058 -67.563475 
L 87.41525 -67.563475 
L 87.41525 -68.738046 
L 86.157818 -68.738046 
L 86.157818 -69.906168 
L 84.900385 -69.906168 
L 84.900385 -71.068108 
L 84.76566 -71.068108 
L 84.76566 -72.224103 
L 84.720752 -72.224103 
L 84.720752 -73.374369 
L 84.406394 -73.374369 
L 84.406394 -73.374369 
L 83.373503 -73.374369 
L 83.373503 -74.487599 
L 82.250795 -74.487599 
L 82.250795 -75.596171 
L 81.891529 -75.596171 
L 81.891529 -76.700231 
L 80.229921 -76.700231 
L 80.229921 -77.799911 
L 78.433589 -77.799911 
L 78.433589 -78.895335 
L 78.209047 -78.895335 
L 78.209047 -79.986615 
L 77.849781 -79.986615 
L 77.849781 -79.986615 
L 77.131248 -79.986615 
L 77.131248 -81.049172 
L 76.592348 -81.049172 
L 76.592348 -82.108198 
L 76.412715 -82.108198 
L 76.412715 -83.163774 
L 75.334916 -83.163774 
L 75.334916 -84.215976 
L 74.571475 -84.215976 
L 74.571475 -85.264874 
L 73.673309 -85.264874 
L 73.673309 -85.264874 
L 72.820051 -85.264874 
L 72.820051 -86.289883 
L 72.460784 -86.289883 
L 72.460784 -86.289883 
L 71.921885 -86.289883 
L 71.921885 -87.292587 
L 71.607526 -87.292587 
L 71.607526 -88.292693 
L 71.338077 -88.292693 
L 71.338077 -89.290247 
L 70.888994 -89.290247 
L 70.888994 -90.285292 
L 70.619544 -90.285292 
L 70.619544 -91.277872 
L 70.395002 -91.277872 
L 70.395002 -92.268024 
L 70.170461 -92.268024 
L 70.170461 -93.255784 
L 69.901011 -93.255784 
L 69.901011 -94.241187 
L 69.496836 -94.241187 
L 69.496836 -95.224265 
L 68.86812 -95.224265 
L 68.86812 -96.205047 
L 68.284312 -96.205047 
L 68.284312 -96.205047 
L 67.925045 -96.205047 
L 67.925045 -97.168486 
L 67.610687 -97.168486 
L 67.610687 -98.129836 
L 67.341237 -98.129836 
L 67.341237 -99.089118 
L 67.251421 -99.089118 
L 67.251421 -100.046355 
L 67.116696 -100.046355 
L 67.116696 -101.001568 
L 67.026879 -101.001568 
L 67.026879 -101.001568 
L 66.667613 -101.001568 
L 66.667613 -101.941449 
L 66.532888 -101.941449 
L 66.532888 -102.879463 
L 66.263438 -102.879463 
L 66.263438 -103.815627 
L 66.128713 -103.815627 
L 66.128713 -104.749956 
L 65.634722 -104.749956 
L 65.634722 -105.682464 
L 65.589813 -105.682464 
L 65.589813 -105.682464 
L 65.544905 -105.682464 
L 65.544905 -106.601255 
L 65.455089 -106.601255 
L 65.455089 -107.51835 
L 65.006005 -107.51835 
L 65.006005 -109.347492 
L 64.332381 -109.347492 
L 64.332381 -110.259561 
L 64.197656 -110.259561 
L 64.197656 -112.078736 
L 64.062931 -112.078736 
L 64.062931 -113.891344 
L 63.883298 -113.891344 
L 63.883298 -113.891344 
L 63.83839 -113.891344 
L 63.83839 -114.78509 
L 63.703665 -114.78509 
L 63.703665 -115.667535 
L 63.613848 -115.667535 
L 63.613848 -116.548508 
L 63.434215 -116.548508 
L 63.434215 -117.428015 
L 63.074948 -117.428015 
L 63.074948 -118.296897 
L 62.536049 -118.296897 
L 62.536049 -120.030474 
L 62.446232 -120.030474 
L 62.446232 -120.895175 
L 61.862424 -120.895175 
L 61.862424 -121.74997 
L 61.727699 -121.74997 
L 61.727699 -122.603434 
L 61.458249 -122.603434 
L 61.458249 -123.455567 
L 61.413341 -123.455567 
L 61.413341 -123.455567 
L 61.054075 -123.455567 
L 61.054075 -123.455567 
L 60.91935 -123.455567 
L 60.91935 -124.290429 
L 60.604991 -124.290429 
L 60.604991 -125.956466 
L 60.290633 -125.956466 
L 60.290633 -126.787642 
L 60.066092 -126.787642 
L 60.066092 -127.61759 
L 60.021183 -127.61759 
L 60.021183 -128.446309 
L 59.976275 -128.446309 
L 59.976275 -129.273796 
L 59.257742 -129.273796 
L 59.257742 -130.100052 
L 59.123017 -130.100052 
L 59.123017 -130.925073 
L 58.718843 -130.925073 
L 58.718843 -130.925073 
L 58.404484 -130.925073 
L 58.404484 -131.741877 
L 58.26976 -131.741877 
L 58.26976 -132.557483 
L 58.179943 -132.557483 
L 58.179943 -134.99709 
L 57.955401 -134.99709 
L 57.955401 -135.807876 
L 57.865585 -135.807876 
L 57.865585 -136.617446 
L 57.596135 -136.617446 
L 57.596135 -137.425797 
L 57.281777 -137.425797 
L 57.281777 -138.232922 
L 57.19196 -138.232922 
L 57.19196 -139.038816 
L 57.057235 -139.038816 
L 57.057235 -139.843472 
L 56.967419 -139.843472 
L 56.967419 -140.646885 
L 56.92251 -140.646885 
L 56.92251 -142.24995 
L 56.787785 -142.24995 
L 56.787785 -142.24995 
L 56.248886 -142.24995 
L 56.248886 -143.83617 
L 55.979436 -143.83617 
L 55.979436 -144.627414 
L 55.889619 -144.627414 
L 55.889619 -145.417404 
L 55.754894 -145.417404 
L 55.754894 -145.417404 
L 55.620169 -145.417404 
L 55.620169 -146.200538 
L 55.08127 -146.200538 
L 55.08127 -147.763077 
L 54.901637 -147.763077 
L 54.901637 -148.542462 
L 54.54237 -148.542462 
L 54.54237 -149.320576 
L 54.407645 -149.320576 
L 54.407645 -150.097407 
L 54.362737 -150.097407 
L 54.362737 -150.872943 
L 54.183104 -150.872943 
L 54.183104 -152.420078 
L 54.048379 -152.420078 
L 54.048379 -153.191648 
L 53.599296 -153.191648 
L 53.599296 -153.961868 
L 53.240029 -153.961868 
L 53.240029 -154.730721 
L 52.835855 -154.730721 
L 52.835855 -156.264259 
L 52.117322 -156.264259 
L 52.117322 -157.028909 
L 51.937688 -157.028909 
L 51.937688 -157.792121 
L 51.89278 -157.792121 
L 51.89278 -158.553876 
L 51.847872 -158.553876 
L 51.847872 -160.072926 
L 51.398789 -160.072926 
L 51.398789 -160.830176 
L 51.35388 -160.830176 
L 51.35388 -161.585877 
L 51.264064 -161.585877 
L 51.264064 -162.340005 
L 51.219155 -162.340005 
L 51.219155 -163.092531 
L 51.039522 -163.092531 
L 51.039522 -164.592667 
L 50.994614 -164.592667 
L 50.994614 -165.340215 
L 50.904797 -165.340215 
L 50.904797 -166.086039 
L 50.859889 -166.086039 
L 50.859889 -166.830105 
L 50.770072 -166.830105 
L 50.770072 -167.572377 
L 50.680256 -167.572377 
L 50.680256 -168.312815 
L 50.276081 -168.312815 
L 50.276081 -169.051378 
L 50.05154 -169.051378 
L 50.05154 -170.522706 
L 49.692273 -170.522706 
L 49.692273 -170.522706 
L 49.647365 -170.522706 
L 49.647365 -171.251402 
L 49.51264 -171.251402 
L 49.51264 -171.978078 
L 49.333007 -171.978078 
L 49.333007 -172.702679 
L 49.198282 -172.702679 
L 49.198282 -173.42515 
L 49.108465 -173.42515 
L 49.108465 -174.14543 
L 48.883924 -174.14543 
L 48.883924 -174.863457 
L 48.839015 -174.863457 
L 48.839015 -175.579163 
L 48.614474 -175.579163 
L 48.614474 -177.003312 
L 48.210299 -177.003312 
L 48.210299 -177.711595 
L 48.120482 -177.711595 
L 48.120482 -177.711595 
L 48.030666 -177.711595 
L 48.030666 -177.711595 
L 47.806124 -177.711595 
L 47.806124 -178.410226 
L 47.401949 -178.410226 
L 47.401949 -179.106217 
L 47.177408 -179.106217 
L 47.177408 -180.489874 
L 46.952866 -180.489874 
L 46.952866 -181.17732 
L 46.548692 -181.17732 
L 46.548692 -182.542823 
L 46.32415 -182.542823 
L 46.32415 -183.220597 
L 46.189425 -183.220597 
L 46.189425 -183.894841 
L 46.099609 -183.894841 
L 46.099609 -184.565378 
L 46.009792 -184.565378 
L 46.009792 -185.232012 
L 45.515801 -185.232012 
L 45.515801 -185.894528 
L 45.381076 -185.894528 
L 45.381076 -186.552686 
L 45.111626 -186.552686 
L 45.111626 -187.206217 
L 44.931993 -187.206217 
L 44.931993 -187.854821 
L 44.887084 -187.854821 
L 44.887084 -187.854821 
L 44.572726 -187.854821 
L 44.572726 -187.854821 
L 44.393093 -187.854821 
L 44.393093 -188.492626 
L 44.078735 -188.492626 
L 44.078735 -189.124955 
L 44.033827 -189.124955 
L 44.033827 -189.751388 
L 43.899102 -189.751388 
L 43.899102 -189.751388 
L 43.809285 -189.751388 
L 43.809285 -190.368874 
L 43.67456 -190.368874 
L 43.67456 -190.979522 
L 43.584743 -190.979522 
L 43.584743 -191.582691 
L 43.270385 -191.582691 
L 43.270385 -192.177619 
L 43.045844 -192.177619 
L 43.045844 -192.763398 
L 42.731486 -192.763398 
L 42.731486 -193.338923 
L 42.686577 -193.338923 
L 42.686577 -193.902831 
L 42.551852 -193.902831 
L 42.551852 -194.453402 
L 42.417127 -194.453402 
L 42.417127 -194.988416 
L 42.192586 -194.988416 
L 42.192586 -195.504918 
L 42.147678 -195.504918 
L 42.147678 -196.46416 
L 40.530979 -196.46416 
L 40.530979 -196.891634 
L 40.48607 -196.891634 
L 40.48607 -197.265081 
L 39.632812 -197.265081 
z
" style="stroke: #e63946; stroke-opacity: 0.2"/>
    </defs>
    <g clip-path="url(#p275ef0e849)">
     <use xlink:href="#m74469caf5f" x="0" y="213.012812" style="fill: #e63946; fill-opacity: 0.2; stroke: #e63946; stroke-opacity: 0.2"/>
    </g>
   </g>
   <g id="line2d_25">
    <defs>
     <path id="m134f06eace" d="M -3 3 
L 3 -3 
M -3 -3 
L 3 3 
" style="stroke: #2e86ab"/>
    </defs>
    <g clip-path="url(#p275ef0e849)">
     <use xlink:href="#m134f06eace" x="36.758681" y="15.350476" style="fill: #2e86ab; stroke: #2e86ab"/>
     <use xlink:href="#m134f06eace" x="40.21662" y="15.350476" style="fill: #2e86ab; stroke: #2e86ab"/>
     <use xlink:href="#m134f06eace" x="40.306437" y="15.350476" style="fill: #2e86ab; stroke: #2e86ab"/>
     <use xlink:href="#m134f06eace" x="40.396254" y="15.350476" style="fill: #2e86ab; stroke: #2e86ab"/>
     <use xlink:href="#m134f06eace" x="40.530979" y="15.350476" style="fill: #2e86ab; stroke: #2e86ab"/>
     <use xlink:href="#m134f06eace" x="40.890245" y="15.350476" style="fill: #2e86ab; stroke: #2e86ab"/>
     <use xlink:href="#m134f06eace" x="41.204603" y="15.350476" style="fill: #2e86ab; stroke: #2e86ab"/>
     <use xlink:href="#m134f06eace" x="41.29442" y="15.350476" style="fill: #2e86ab; stroke: #2e86ab"/>
     <use xlink:href="#m134f06eace" x="41.698595" y="15.350476" style="fill: #2e86ab; stroke: #2e86ab"/>
     <use xlink:href="#m134f06eace" x="42.102769" y="15.350476" style="fill: #2e86ab; stroke: #2e86ab"/>
     <use xlink:href="#m134f06eace" x="42.282403" y="15.350476" style="fill: #2e86ab; stroke: #2e86ab"/>
     <use xlink:href="#m134f06eace" x="42.506944" y="15.350476" style="fill: #2e86ab; stroke: #2e86ab"/>
     <use xlink:href="#m134f06eace" x="42.641669" y="15.350476" style="fill: #2e86ab; stroke: #2e86ab"/>
     <use xlink:href="#m134f06eace" x="42.686577" y="15.350476" style="fill: #2e86ab; stroke: #2e86ab"/>
     <use xlink:href="#m134f06eace" x="43.315294" y="15.350476" style="fill: #2e86ab; stroke: #2e86ab"/>
     <use xlink:href="#m134f06eace" x="43.40511" y="15.350476" style="fill: #2e86ab; stroke: #2e86ab"/>
     <use xlink:href="#m134f06eace" x="43.629652" y="15.350476" style="fill: #2e86ab; stroke: #2e86ab"/>
     <use xlink:href="#m134f06eace" x="44.348185" y="15.350476" style="fill: #2e86ab; stroke: #2e86ab"/>
     <use xlink:href="#m134f06eace" x="45.425984" y="15.350476" style="fill: #2e86ab; stroke: #2e86ab"/>
     <use xlink:href="#m134f06eace" x="46.728325" y="15.350476" style="fill: #2e86ab; stroke: #2e86ab"/>
     <use xlink:href="#m134f06eace" x="46.952866" y="15.350476" style="fill: #2e86ab; stroke: #2e86ab"/>
     <use xlink:href="#m134f06eace" x="50.904797" y="15.350476" style="fill: #2e86ab; stroke: #2e86ab"/>
     <use xlink:href="#m134f06eace" x="52.027505" y="15.350476" style="fill: #2e86ab; stroke: #2e86ab"/>
     <use xlink:href="#m134f06eace" x="52.790946" y="15.350476" style="fill: #2e86ab; stroke: #2e86ab"/>
     <use xlink:href="#m134f06eace" x="54.452554" y="15.350476" style="fill: #2e86ab; stroke: #2e86ab"/>
     <use xlink:href="#m134f06eace" x="54.587278" y="15.350476" style="fill: #2e86ab; stroke: #2e86ab"/>
     <use xlink:href="#m134f06eace" x="54.766912" y="15.350476" style="fill: #2e86ab; stroke: #2e86ab"/>
     <use xlink:href="#m134f06eace" x="55.126178" y="15.350476" style="fill: #2e86ab; stroke: #2e86ab"/>
     <use xlink:href="#m134f06eace" x="55.844711" y="15.350476" style="fill: #2e86ab; stroke: #2e86ab"/>
     <use xlink:href="#m134f06eace" x="55.979436" y="15.350476" style="fill: #2e86ab; stroke: #2e86ab"/>
     <use xlink:href="#m134f06eace" x="56.024344" y="15.350476" style="fill: #2e86ab; stroke: #2e86ab"/>
     <use xlink:href="#m134f06eace" x="56.069253" y="15.350476" style="fill: #2e86ab; stroke: #2e86ab"/>
     <use xlink:href="#m134f06eace" x="56.159069" y="15.350476" style="fill: #2e86ab; stroke: #2e86ab"/>
     <use xlink:href="#m134f06eace" x="56.203977" y="15.350476" style="fill: #2e86ab; stroke: #2e86ab"/>
     <use xlink:href="#m134f06eace" x="56.248886" y="15.350476" style="fill: #2e86ab; stroke: #2e86ab"/>
     <use xlink:href="#m134f06eace" x="56.338702" y="15.350476" style="fill: #2e86ab; stroke: #2e86ab"/>
     <use xlink:href="#m134f06eace" x="56.383611" y="15.350476" style="fill: #2e86ab; stroke: #2e86ab"/>
     <use xlink:href="#m134f06eace" x="56.518336" y="15.350476" style="fill: #2e86ab; stroke: #2e86ab"/>
     <use xlink:href="#m134f06eace" x="56.563244" y="15.350476" style="fill: #2e86ab; stroke: #2e86ab"/>
     <use xlink:href="#m134f06eace" x="56.653061" y="15.350476" style="fill: #2e86ab; stroke: #2e86ab"/>
     <use xlink:href="#m134f06eace" x="56.832694" y="15.350476" style="fill: #2e86ab; stroke: #2e86ab"/>
     <use xlink:href="#m134f06eace" x="56.877602" y="15.350476" style="fill: #2e86ab; stroke: #2e86ab"/>
     <use xlink:href="#m134f06eace" x="57.102144" y="15.350476" style="fill: #2e86ab; stroke: #2e86ab"/>
     <use xlink:href="#m134f06eace" x="57.326685" y="15.350476" style="fill: #2e86ab; stroke: #2e86ab"/>
     <use xlink:href="#m134f06eace" x="57.506318" y="15.350476" style="fill: #2e86ab; stroke: #2e86ab"/>
     <use xlink:href="#m134f06eace" x="57.551227" y="15.350476" style="fill: #2e86ab; stroke: #2e86ab"/>
     <use xlink:href="#m134f06eace" x="58.045218" y="15.350476" style="fill: #2e86ab; stroke: #2e86ab"/>
     <use xlink:href="#m134f06eace" x="58.26976" y="15.350476" style="fill: #2e86ab; stroke: #2e86ab"/>
     <use xlink:href="#m134f06eace" x="58.314668" y="15.350476" style="fill: #2e86ab; stroke: #2e86ab"/>
     <use xlink:href="#m134f06eace" x="58.853568" y="15.350476" style="fill: #2e86ab; stroke: #2e86ab"/>
     <use xlink:href="#m134f06eace" x="59.078109" y="15.350476" style="fill: #2e86ab; stroke: #2e86ab"/>
     <use xlink:href="#m134f06eace" x="60.066092" y="15.350476" style="fill: #2e86ab; stroke: #2e86ab"/>
     <use xlink:href="#m134f06eace" x="60.155908" y="15.350476" style="fill: #2e86ab; stroke: #2e86ab"/>
     <use xlink:href="#m134f06eace" x="60.290633" y="15.350476" style="fill: #2e86ab; stroke: #2e86ab"/>
     <use xlink:href="#m134f06eace" x="60.560083" y="15.350476" style="fill: #2e86ab; stroke: #2e86ab"/>
     <use xlink:href="#m134f06eace" x="60.604991" y="15.350476" style="fill: #2e86ab; stroke: #2e86ab"/>
     <use xlink:href="#m134f06eace" x="60.694808" y="15.350476" style="fill: #2e86ab; stroke: #2e86ab"/>
     <use xlink:href="#m134f06eace" x="60.91935" y="15.350476" style="fill: #2e86ab; stroke: #2e86ab"/>
     <use xlink:href="#m134f06eace" x="60.964258" y="15.350476" style="fill: #2e86ab; stroke: #2e86ab"/>
     <use xlink:href="#m134f06eace" x="61.188799" y="15.350476" style="fill: #2e86ab; stroke: #2e86ab"/>
     <use xlink:href="#m134f06eace" x="61.233708" y="15.350476" style="fill: #2e86ab; stroke: #2e86ab"/>
     <use xlink:href="#m134f06eace" x="61.368433" y="15.350476" style="fill: #2e86ab; stroke: #2e86ab"/>
     <use xlink:href="#m134f06eace" x="61.682791" y="15.350476" style="fill: #2e86ab; stroke: #2e86ab"/>
     <use xlink:href="#m134f06eace" x="61.862424" y="15.350476" style="fill: #2e86ab; stroke: #2e86ab"/>
     <use xlink:href="#m134f06eace" x="62.22169" y="15.350476" style="fill: #2e86ab; stroke: #2e86ab"/>
     <use xlink:href="#m134f06eace" x="62.401324" y="15.350476" style="fill: #2e86ab; stroke: #2e86ab"/>
     <use xlink:href="#m134f06eace" x="62.446232" y="15.350476" style="fill: #2e86ab; stroke: #2e86ab"/>
     <use xlink:href="#m134f06eace" x="62.625865" y="15.350476" style="fill: #2e86ab; stroke: #2e86ab"/>
     <use xlink:href="#m134f06eace" x="63.164765" y="15.350476" style="fill: #2e86ab; stroke: #2e86ab"/>
     <use xlink:href="#m134f06eace" x="63.703665" y="15.350476" style="fill: #2e86ab; stroke: #2e86ab"/>
     <use xlink:href="#m134f06eace" x="63.83839" y="15.350476" style="fill: #2e86ab; stroke: #2e86ab"/>
     <use xlink:href="#m134f06eace" x="63.973114" y="15.350476" style="fill: #2e86ab; stroke: #2e86ab"/>
     <use xlink:href="#m134f06eace" x="64.152748" y="15.350476" style="fill: #2e86ab; stroke: #2e86ab"/>
     <use xlink:href="#m134f06eace" x="64.781464" y="15.350476" style="fill: #2e86ab; stroke: #2e86ab"/>
     <use xlink:href="#m134f06eace" x="64.871281" y="15.350476" style="fill: #2e86ab; stroke: #2e86ab"/>
     <use xlink:href="#m134f06eace" x="65.320364" y="15.350476" style="fill: #2e86ab; stroke: #2e86ab"/>
     <use xlink:href="#m134f06eace" x="65.365272" y="15.350476" style="fill: #2e86ab; stroke: #2e86ab"/>
     <use xlink:href="#m134f06eace" x="65.589813" y="15.350476" style="fill: #2e86ab; stroke: #2e86ab"/>
     <use xlink:href="#m134f06eace" x="65.67963" y="15.350476" style="fill: #2e86ab; stroke: #2e86ab"/>
     <use xlink:href="#m134f06eace" x="65.724538" y="15.350476" style="fill: #2e86ab; stroke: #2e86ab"/>
     <use xlink:href="#m134f06eace" x="65.769447" y="15.350476" style="fill: #2e86ab; stroke: #2e86ab"/>
     <use xlink:href="#m134f06eace" x="66.038897" y="15.350476" style="fill: #2e86ab; stroke: #2e86ab"/>
     <use xlink:href="#m134f06eace" x="66.128713" y="15.350476" style="fill: #2e86ab; stroke: #2e86ab"/>
     <use xlink:href="#m134f06eace" x="66.712521" y="15.350476" style="fill: #2e86ab; stroke: #2e86ab"/>
     <use xlink:href="#m134f06eace" x="67.386146" y="15.350476" style="fill: #2e86ab; stroke: #2e86ab"/>
     <use xlink:href="#m134f06eace" x="68.05977" y="15.350476" style="fill: #2e86ab; stroke: #2e86ab"/>
     <use xlink:href="#m134f06eace" x="68.194495" y="15.350476" style="fill: #2e86ab; stroke: #2e86ab"/>
     <use xlink:href="#m134f06eace" x="68.374128" y="15.350476" style="fill: #2e86ab; stroke: #2e86ab"/>
     <use xlink:href="#m134f06eace" x="68.419037" y="15.350476" style="fill: #2e86ab; stroke: #2e86ab"/>
     <use xlink:href="#m134f06eace" x="68.463945" y="15.350476" style="fill: #2e86ab; stroke: #2e86ab"/>
     <use xlink:href="#m134f06eace" x="68.643578" y="15.350476" style="fill: #2e86ab; stroke: #2e86ab"/>
     <use xlink:href="#m134f06eace" x="68.733395" y="15.350476" style="fill: #2e86ab; stroke: #2e86ab"/>
     <use xlink:href="#m134f06eace" x="68.778303" y="15.350476" style="fill: #2e86ab; stroke: #2e86ab"/>
     <use xlink:href="#m134f06eace" x="69.496836" y="15.350476" style="fill: #2e86ab; stroke: #2e86ab"/>
     <use xlink:href="#m134f06eace" x="70.664452" y="15.350476" style="fill: #2e86ab; stroke: #2e86ab"/>
     <use xlink:href="#m134f06eace" x="71.023719" y="15.350476" style="fill: #2e86ab; stroke: #2e86ab"/>
     <use xlink:href="#m134f06eace" x="71.068627" y="15.350476" style="fill: #2e86ab; stroke: #2e86ab"/>
     <use xlink:href="#m134f06eace" x="73.314042" y="17.030987" style="fill: #2e86ab; stroke: #2e86ab"/>
     <use xlink:href="#m134f06eace" x="73.808033" y="17.030987" style="fill: #2e86ab; stroke: #2e86ab"/>
     <use xlink:href="#m134f06eace" x="74.346933" y="17.030987" style="fill: #2e86ab; stroke: #2e86ab"/>
     <use xlink:href="#m134f06eace" x="74.796016" y="17.030987" style="fill: #2e86ab; stroke: #2e86ab"/>
     <use xlink:href="#m134f06eace" x="75.065466" y="17.030987" style="fill: #2e86ab; stroke: #2e86ab"/>
     <use xlink:href="#m134f06eace" x="75.469641" y="17.030987" style="fill: #2e86ab; stroke: #2e86ab"/>
     <use xlink:href="#m134f06eace" x="75.514549" y="17.030987" style="fill: #2e86ab; stroke: #2e86ab"/>
     <use xlink:href="#m134f06eace" x="76.098357" y="17.030987" style="fill: #2e86ab; stroke: #2e86ab"/>
     <use xlink:href="#m134f06eace" x="76.143265" y="17.030987" style="fill: #2e86ab; stroke: #2e86ab"/>
     <use xlink:href="#m134f06eace" x="76.457624" y="17.030987" style="fill: #2e86ab; stroke: #2e86ab"/>
     <use xlink:href="#m134f06eace" x="76.996523" y="17.030987" style="fill: #2e86ab; stroke: #2e86ab"/>
     <use xlink:href="#m134f06eace" x="77.35579" y="17.030987" style="fill: #2e86ab; stroke: #2e86ab"/>
     <use xlink:href="#m134f06eace" x="77.445606" y="17.030987" style="fill: #2e86ab; stroke: #2e86ab"/>
     <use xlink:href="#m134f06eace" x="78.433589" y="17.030987" style="fill: #2e86ab; stroke: #2e86ab"/>
     <use xlink:href="#m134f06eace" x="78.837764" y="17.030987" style="fill: #2e86ab; stroke: #2e86ab"/>
     <use xlink:href="#m134f06eace" x="79.46648" y="17.030987" style="fill: #2e86ab; stroke: #2e86ab"/>
     <use xlink:href="#m134f06eace" x="79.73593" y="17.030987" style="fill: #2e86ab; stroke: #2e86ab"/>
     <use xlink:href="#m134f06eace" x="79.915563" y="17.030987" style="fill: #2e86ab; stroke: #2e86ab"/>
     <use xlink:href="#m134f06eace" x="80.00538" y="17.030987" style="fill: #2e86ab; stroke: #2e86ab"/>
     <use xlink:href="#m134f06eace" x="80.319738" y="17.030987" style="fill: #2e86ab; stroke: #2e86ab"/>
     <use xlink:href="#m134f06eace" x="80.993362" y="17.030987" style="fill: #2e86ab; stroke: #2e86ab"/>
     <use xlink:href="#m134f06eace" x="82.071162" y="17.030987" style="fill: #2e86ab; stroke: #2e86ab"/>
     <use xlink:href="#m134f06eace" x="84.675844" y="17.030987" style="fill: #2e86ab; stroke: #2e86ab"/>
     <use xlink:href="#m134f06eace" x="85.84346" y="17.030987" style="fill: #2e86ab; stroke: #2e86ab"/>
     <use xlink:href="#m134f06eace" x="86.696717" y="17.030987" style="fill: #2e86ab; stroke: #2e86ab"/>
     <use xlink:href="#m134f06eace" x="87.774517" y="17.030987" style="fill: #2e86ab; stroke: #2e86ab"/>
     <use xlink:href="#m134f06eace" x="88.582866" y="17.030987" style="fill: #2e86ab; stroke: #2e86ab"/>
     <use xlink:href="#m134f06eace" x="88.762499" y="17.030987" style="fill: #2e86ab; stroke: #2e86ab"/>
     <use xlink:href="#m134f06eace" x="89.391216" y="17.030987" style="fill: #2e86ab; stroke: #2e86ab"/>
     <use xlink:href="#m134f06eace" x="89.705574" y="17.030987" style="fill: #2e86ab; stroke: #2e86ab"/>
     <use xlink:href="#m134f06eace" x="90.244474" y="17.030987" style="fill: #2e86ab; stroke: #2e86ab"/>
     <use xlink:href="#m134f06eace" x="92.355164" y="19.551753" style="fill: #2e86ab; stroke: #2e86ab"/>
     <use xlink:href="#m134f06eace" x="92.669522" y="19.551753" style="fill: #2e86ab; stroke: #2e86ab"/>
     <use xlink:href="#m134f06eace" x="92.894064" y="19.551753" style="fill: #2e86ab; stroke: #2e86ab"/>
     <use xlink:href="#m134f06eace" x="94.376038" y="19.551753" style="fill: #2e86ab; stroke: #2e86ab"/>
     <use xlink:href="#m134f06eace" x="99.181226" y="19.551753" style="fill: #2e86ab; stroke: #2e86ab"/>
     <use xlink:href="#m134f06eace" x="100.259026" y="19.551753" style="fill: #2e86ab; stroke: #2e86ab"/>
     <use xlink:href="#m134f06eace" x="101.157192" y="19.551753" style="fill: #2e86ab; stroke: #2e86ab"/>
     <use xlink:href="#m134f06eace" x="104.92949" y="19.551753" style="fill: #2e86ab; stroke: #2e86ab"/>
     <use xlink:href="#m134f06eace" x="104.974398" y="19.551753" style="fill: #2e86ab; stroke: #2e86ab"/>
     <use xlink:href="#m134f06eace" x="105.198939" y="19.551753" style="fill: #2e86ab; stroke: #2e86ab"/>
     <use xlink:href="#m134f06eace" x="106.052197" y="19.551753" style="fill: #2e86ab; stroke: #2e86ab"/>
     <use xlink:href="#m134f06eace" x="107.983254" y="19.551753" style="fill: #2e86ab; stroke: #2e86ab"/>
     <use xlink:href="#m134f06eace" x="108.297613" y="19.551753" style="fill: #2e86ab; stroke: #2e86ab"/>
     <use xlink:href="#m134f06eace" x="108.701787" y="19.551753" style="fill: #2e86ab; stroke: #2e86ab"/>
     <use xlink:href="#m134f06eace" x="108.881421" y="19.551753" style="fill: #2e86ab; stroke: #2e86ab"/>
     <use xlink:href="#m134f06eace" x="109.734678" y="19.551753" style="fill: #2e86ab; stroke: #2e86ab"/>
     <use xlink:href="#m134f06eace" x="110.677753" y="19.551753" style="fill: #2e86ab; stroke: #2e86ab"/>
     <use xlink:href="#m134f06eace" x="111.665736" y="19.551753" style="fill: #2e86ab; stroke: #2e86ab"/>
     <use xlink:href="#m134f06eace" x="112.429177" y="19.551753" style="fill: #2e86ab; stroke: #2e86ab"/>
     <use xlink:href="#m134f06eace" x="113.237526" y="19.551753" style="fill: #2e86ab; stroke: #2e86ab"/>
     <use xlink:href="#m134f06eace" x="113.686609" y="19.551753" style="fill: #2e86ab; stroke: #2e86ab"/>
     <use xlink:href="#m134f06eace" x="116.336199" y="19.551753" style="fill: #2e86ab; stroke: #2e86ab"/>
     <use xlink:href="#m134f06eace" x="116.605649" y="19.551753" style="fill: #2e86ab; stroke: #2e86ab"/>
     <use xlink:href="#m134f06eace" x="118.71634" y="19.551753" style="fill: #2e86ab; stroke: #2e86ab"/>
     <use xlink:href="#m134f06eace" x="119.839047" y="19.551753" style="fill: #2e86ab; stroke: #2e86ab"/>
     <use xlink:href="#m134f06eace" x="120.108497" y="19.551753" style="fill: #2e86ab; stroke: #2e86ab"/>
     <use xlink:href="#m134f06eace" x="120.737213" y="19.551753" style="fill: #2e86ab; stroke: #2e86ab"/>
     <use xlink:href="#m134f06eace" x="121.815013" y="19.551753" style="fill: #2e86ab; stroke: #2e86ab"/>
     <use xlink:href="#m134f06eace" x="122.488637" y="19.551753" style="fill: #2e86ab; stroke: #2e86ab"/>
     <use xlink:href="#m134f06eace" x="127.159101" y="19.551753" style="fill: #2e86ab; stroke: #2e86ab"/>
     <use xlink:href="#m134f06eace" x="127.293826" y="19.551753" style="fill: #2e86ab; stroke: #2e86ab"/>
     <use xlink:href="#m134f06eace" x="129.808691" y="19.551753" style="fill: #2e86ab; stroke: #2e86ab"/>
     <use xlink:href="#m134f06eace" x="129.8536" y="19.551753" style="fill: #2e86ab; stroke: #2e86ab"/>
     <use xlink:href="#m134f06eace" x="130.347591" y="19.551753" style="fill: #2e86ab; stroke: #2e86ab"/>
     <use xlink:href="#m134f06eace" x="130.527224" y="19.551753" style="fill: #2e86ab; stroke: #2e86ab"/>
     <use xlink:href="#m134f06eace" x="130.661949" y="19.551753" style="fill: #2e86ab; stroke: #2e86ab"/>
     <use xlink:href="#m134f06eace" x="131.42539" y="19.551753" style="fill: #2e86ab; stroke: #2e86ab"/>
     <use xlink:href="#m134f06eace" x="131.649932" y="19.551753" style="fill: #2e86ab; stroke: #2e86ab"/>
     <use xlink:href="#m134f06eace" x="134.34443" y="19.551753" style="fill: #2e86ab; stroke: #2e86ab"/>
     <use xlink:href="#m134f06eace" x="135.691679" y="19.551753" style="fill: #2e86ab; stroke: #2e86ab"/>
     <use xlink:href="#m134f06eace" x="137.398195" y="19.551753" style="fill: #2e86ab; stroke: #2e86ab"/>
     <use xlink:href="#m134f06eace" x="143.460816" y="19.551753" style="fill: #2e86ab; stroke: #2e86ab"/>
     <use xlink:href="#m134f06eace" x="144.269166" y="19.551753" style="fill: #2e86ab; stroke: #2e86ab"/>
     <use xlink:href="#m134f06eace" x="145.257149" y="19.551753" style="fill: #2e86ab; stroke: #2e86ab"/>
     <use xlink:href="#m134f06eace" x="146.514581" y="19.551753" style="fill: #2e86ab; stroke: #2e86ab"/>
     <use xlink:href="#m134f06eace" x="148.445638" y="19.551753" style="fill: #2e86ab; stroke: #2e86ab"/>
     <use xlink:href="#m134f06eace" x="157.517116" y="19.551753" style="fill: #2e86ab; stroke: #2e86ab"/>
     <use xlink:href="#m134f06eace" x="158.909274" y="19.551753" style="fill: #2e86ab; stroke: #2e86ab"/>
     <use xlink:href="#m134f06eace" x="161.019964" y="19.551753" style="fill: #2e86ab; stroke: #2e86ab"/>
     <use xlink:href="#m134f06eace" x="164.926987" y="19.551753" style="fill: #2e86ab; stroke: #2e86ab"/>
     <use xlink:href="#m134f06eace" x="168.429835" y="19.551753" style="fill: #2e86ab; stroke: #2e86ab"/>
     <use xlink:href="#m134f06eace" x="169.238184" y="19.551753" style="fill: #2e86ab; stroke: #2e86ab"/>
     <use xlink:href="#m134f06eace" x="172.741032" y="19.551753" style="fill: #2e86ab; stroke: #2e86ab"/>
     <use xlink:href="#m134f06eace" x="174.851722" y="19.551753" style="fill: #2e86ab; stroke: #2e86ab"/>
     <use xlink:href="#m134f06eace" x="190.704354" y="19.551753" style="fill: #2e86ab; stroke: #2e86ab"/>
     <use xlink:href="#m134f06eace" x="193.21922" y="19.551753" style="fill: #2e86ab; stroke: #2e86ab"/>
     <use xlink:href="#m134f06eace" x="193.758119" y="19.551753" style="fill: #2e86ab; stroke: #2e86ab"/>
     <use xlink:href="#m134f06eace" x="211.047817" y="19.551753" style="fill: #2e86ab; stroke: #2e86ab"/>
     <use xlink:href="#m134f06eace" x="211.856167" y="19.551753" style="fill: #2e86ab; stroke: #2e86ab"/>
     <use xlink:href="#m134f06eace" x="218.412779" y="19.551753" style="fill: #2e86ab; stroke: #2e86ab"/>
     <use xlink:href="#m134f06eace" x="262.692369" y="19.551753" style="fill: #2e86ab; stroke: #2e86ab"/>
     <use xlink:href="#m134f06eace" x="266.015584" y="19.551753" style="fill: #2e86ab; stroke: #2e86ab"/>
     <use xlink:href="#m134f06eace" x="266.419759" y="19.551753" style="fill: #2e86ab; stroke: #2e86ab"/>
    </g>
   </g>
   <g id="line2d_26">
    <path d="M 36.758681 15.350476 
L 72.595509 15.350476 
L 72.595509 17.030987 
L 91.861173 17.030987 
L 91.861173 19.551753 
L 266.419759 19.551753 
L 266.419759 19.551753 
" clip-path="url(#p275ef0e849)" style="fill: none; stroke: #2e86ab; stroke-width: 2; stroke-linecap: round"/>
   </g>
   <g id="line2d_27">
    <defs>
     <path id="m3254a586f7" d="M -3 3 
L 3 -3 
M -3 -3 
L 3 3 
" style="stroke: #e63946"/>
    </defs>
    <g clip-path="url(#p275ef0e849)">
     <use xlink:href="#m3254a586f7" x="39.632812" y="16.933093" style="fill: #e63946; stroke: #e63946"/>
     <use xlink:href="#m3254a586f7" x="43.899102" y="28.065983" style="fill: #e63946; stroke: #e63946"/>
     <use xlink:href="#m3254a586f7" x="44.572726" y="30.464292" style="fill: #e63946; stroke: #e63946"/>
     <use xlink:href="#m3254a586f7" x="44.887084" y="30.464292" style="fill: #e63946; stroke: #e63946"/>
     <use xlink:href="#m3254a586f7" x="48.030666" y="42.586891" style="fill: #e63946; stroke: #e63946"/>
     <use xlink:href="#m3254a586f7" x="48.120482" y="42.586891" style="fill: #e63946; stroke: #e63946"/>
     <use xlink:href="#m3254a586f7" x="49.692273" y="50.765994" style="fill: #e63946; stroke: #e63946"/>
     <use xlink:href="#m3254a586f7" x="55.754894" y="77.931169" style="fill: #e63946; stroke: #e63946"/>
     <use xlink:href="#m3254a586f7" x="56.787785" y="81.251131" style="fill: #e63946; stroke: #e63946"/>
     <use xlink:href="#m3254a586f7" x="58.718843" y="92.971167" style="fill: #e63946; stroke: #e63946"/>
     <use xlink:href="#m3254a586f7" x="61.054075" y="100.580073" style="fill: #e63946; stroke: #e63946"/>
     <use xlink:href="#m3254a586f7" x="61.413341" y="100.580073" style="fill: #e63946; stroke: #e63946"/>
     <use xlink:href="#m3254a586f7" x="61.862424" y="103.172737" style="fill: #e63946; stroke: #e63946"/>
     <use xlink:href="#m3254a586f7" x="63.074948" y="106.669819" style="fill: #e63946; stroke: #e63946"/>
     <use xlink:href="#m3254a586f7" x="63.703665" y="109.325011" style="fill: #e63946; stroke: #e63946"/>
     <use xlink:href="#m3254a586f7" x="63.883298" y="110.221569" style="fill: #e63946; stroke: #e63946"/>
     <use xlink:href="#m3254a586f7" x="65.589813" y="118.398181" style="fill: #e63946; stroke: #e63946"/>
     <use xlink:href="#m3254a586f7" x="67.026879" y="123.010628" style="fill: #e63946; stroke: #e63946"/>
     <use xlink:href="#m3254a586f7" x="68.284312" y="127.701253" style="fill: #e63946; stroke: #e63946"/>
     <use xlink:href="#m3254a586f7" x="72.460784" y="137.259507" style="fill: #e63946; stroke: #e63946"/>
     <use xlink:href="#m3254a586f7" x="73.673309" y="138.23809" style="fill: #e63946; stroke: #e63946"/>
     <use xlink:href="#m3254a586f7" x="77.849781" y="143.253329" style="fill: #e63946; stroke: #e63946"/>
     <use xlink:href="#m3254a586f7" x="84.406394" y="149.448624" style="fill: #e63946; stroke: #e63946"/>
     <use xlink:href="#m3254a586f7" x="89.481032" y="155.873374" style="fill: #e63946; stroke: #e63946"/>
     <use xlink:href="#m3254a586f7" x="124.240061" y="167.116687" style="fill: #e63946; stroke: #e63946"/>
     <use xlink:href="#m3254a586f7" x="125.497494" y="167.116687" style="fill: #e63946; stroke: #e63946"/>
     <use xlink:href="#m3254a586f7" x="127.069285" y="167.116687" style="fill: #e63946; stroke: #e63946"/>
     <use xlink:href="#m3254a586f7" x="142.607559" y="170.329062" style="fill: #e63946; stroke: #e63946"/>
    </g>
   </g>
   <g id="line2d_28">
    <path d="M 39.632812 16.933093 
L 40.48607 16.933093 
L 40.530979 18.523506 
L 42.147678 18.523506 
L 42.192586 20.909125 
L 42.417127 20.909125 
L 42.417127 21.704332 
L 42.551852 21.704332 
L 42.551852 22.499538 
L 42.686577 22.499538 
L 42.731486 24.089951 
L 43.045844 24.089951 
L 43.045844 24.885157 
L 43.270385 24.885157 
L 43.270385 25.680364 
L 43.584743 25.680364 
L 43.67456 27.270777 
L 43.809285 27.270777 
L 43.899102 28.065983 
L 43.899102 28.065983 
L 44.033827 28.065983 
L 44.078735 29.664856 
L 44.393093 29.664856 
L 44.393093 30.464292 
L 44.931993 30.464292 
L 44.931993 31.272465 
L 45.111626 31.272465 
L 45.111626 32.080638 
L 45.381076 32.080638 
L 45.381076 32.888812 
L 45.515801 32.888812 
L 45.515801 33.696985 
L 46.009792 33.696985 
L 46.099609 35.313331 
L 46.189425 35.313331 
L 46.189425 36.121505 
L 46.32415 36.121505 
L 46.32415 36.929678 
L 46.548692 36.929678 
L 46.548692 38.546025 
L 46.952866 38.546025 
L 46.952866 39.354198 
L 47.177408 39.354198 
L 47.177408 40.970544 
L 47.401949 40.970544 
L 47.401949 41.778718 
L 47.806124 41.778718 
L 47.806124 42.586891 
L 48.210299 42.586891 
L 48.210299 43.404801 
L 48.614474 43.404801 
L 48.614474 45.040622 
L 48.839015 45.040622 
L 48.883924 46.676442 
L 49.108465 46.676442 
L 49.198282 48.312263 
L 49.333007 48.312263 
L 49.333007 49.130173 
L 49.51264 49.130173 
L 49.51264 49.948084 
L 49.647365 49.948084 
L 49.647365 50.765994 
L 49.692273 50.765994 
L 50.05154 50.765994 
L 50.05154 52.412368 
L 50.276081 52.412368 
L 50.276081 53.235555 
L 50.680256 53.235555 
L 50.770072 54.88193 
L 50.859889 54.88193 
L 50.904797 56.528304 
L 50.994614 56.528304 
L 51.039522 58.997865 
L 51.219155 58.997865 
L 51.264064 60.644239 
L 51.35388 60.644239 
L 51.398789 62.290614 
L 51.847872 62.290614 
L 51.937688 65.583362 
L 52.117322 65.583362 
L 52.117322 66.406549 
L 52.835855 66.406549 
L 52.835855 68.052924 
L 53.240029 68.052924 
L 53.240029 68.876111 
L 53.599296 68.876111 
L 53.599296 69.699298 
L 54.048379 69.699298 
L 54.048379 70.522485 
L 54.183104 70.522485 
L 54.183104 72.168859 
L 54.362737 72.168859 
L 54.407645 73.815234 
L 54.54237 73.815234 
L 54.54237 74.638421 
L 54.901637 74.638421 
L 54.901637 75.461608 
L 55.08127 75.461608 
L 55.08127 77.107982 
L 55.620169 77.107982 
L 55.620169 77.931169 
L 55.889619 77.931169 
L 55.979436 79.59115 
L 56.248886 79.59115 
L 56.248886 81.251131 
L 56.92251 81.251131 
L 56.967419 83.762567 
L 57.057235 83.762567 
L 57.057235 84.599712 
L 57.19196 84.599712 
L 57.281777 86.274003 
L 57.596135 86.274003 
L 57.596135 87.111149 
L 57.865585 87.111149 
L 57.955401 88.78544 
L 58.179943 88.78544 
L 58.26976 92.134021 
L 58.404484 92.134021 
L 58.404484 92.971167 
L 59.123017 92.971167 
L 59.123017 93.816601 
L 59.257742 93.816601 
L 59.257742 94.662035 
L 59.976275 94.662035 
L 60.066092 97.198337 
L 60.290633 97.198337 
L 60.290633 98.043771 
L 60.604991 98.043771 
L 60.604991 99.734639 
L 60.91935 99.734639 
L 60.91935 100.580073 
L 61.458249 100.580073 
L 61.458249 101.444294 
L 61.727699 101.444294 
L 61.727699 102.308515 
L 61.862424 102.308515 
L 61.862424 103.172737 
L 62.446232 103.172737 
L 62.536049 105.795548 
L 63.074948 105.795548 
L 63.074948 106.669819 
L 63.434215 106.669819 
L 63.434215 107.554883 
L 63.613848 107.554883 
L 63.703665 109.325011 
L 63.83839 109.325011 
L 63.83839 110.221569 
L 63.883298 110.221569 
L 64.062931 110.221569 
L 64.062931 112.038594 
L 64.197656 112.038594 
L 64.197656 113.855619 
L 64.332381 113.855619 
L 64.332381 114.764131 
L 65.006005 114.764131 
L 65.006005 116.581156 
L 65.455089 116.581156 
L 65.544905 118.398181 
L 65.634722 118.398181 
L 65.634722 119.32067 
L 66.128713 119.32067 
L 66.128713 120.24316 
L 66.263438 120.24316 
L 66.263438 121.165649 
L 66.532888 121.165649 
L 66.532888 122.088139 
L 66.667613 122.088139 
L 66.667613 123.010628 
L 67.116696 123.010628 
L 67.116696 123.948753 
L 67.251421 123.948753 
L 67.341237 125.825003 
L 67.610687 125.825003 
L 67.610687 126.763128 
L 67.925045 126.763128 
L 67.925045 127.701253 
L 68.86812 127.701253 
L 68.86812 128.657079 
L 69.496836 128.657079 
L 69.496836 129.612904 
L 69.901011 129.612904 
L 69.901011 130.568729 
L 70.170461 130.568729 
L 70.170461 131.524555 
L 70.395002 131.524555 
L 70.395002 132.48038 
L 70.619544 132.48038 
L 70.619544 133.436206 
L 70.888994 133.436206 
L 70.888994 134.392031 
L 71.338077 134.392031 
L 71.338077 135.347856 
L 71.607526 135.347856 
L 71.607526 136.303682 
L 71.921885 136.303682 
L 71.921885 137.259507 
L 72.820051 137.259507 
L 72.820051 138.23809 
L 74.571475 138.23809 
L 74.571475 139.241138 
L 75.334916 139.241138 
L 75.334916 140.244186 
L 76.412715 140.244186 
L 76.412715 141.247234 
L 76.592348 141.247234 
L 76.592348 142.250281 
L 77.131248 142.250281 
L 77.131248 143.253329 
L 78.209047 143.253329 
L 78.209047 144.285878 
L 78.433589 144.285878 
L 78.433589 145.318427 
L 80.229921 145.318427 
L 80.229921 146.350977 
L 81.891529 146.350977 
L 81.891529 147.383526 
L 82.250795 147.383526 
L 82.250795 148.416075 
L 83.373503 148.416075 
L 83.373503 149.448624 
L 84.720752 149.448624 
L 84.76566 151.590207 
L 84.900385 151.590207 
L 84.900385 152.660999 
L 86.157818 152.660999 
L 86.157818 153.731791 
L 87.41525 153.731791 
L 87.41525 154.802582 
L 87.999058 154.802582 
L 87.999058 155.873374 
L 96.666361 155.873374 
L 96.666361 156.997705 
L 100.169209 156.997705 
L 100.169209 158.122037 
L 101.022467 158.122037 
L 101.022467 159.246368 
L 103.402607 159.246368 
L 103.402607 160.370699 
L 103.537332 160.370699 
L 103.537332 161.495031 
L 109.510137 161.495031 
L 109.510137 162.619362 
L 114.629684 162.619362 
L 114.629684 163.743693 
L 116.785282 163.743693 
L 116.785282 164.868025 
L 120.647397 164.868025 
L 120.647397 165.992356 
L 123.566437 165.992356 
L 123.566437 167.116687 
L 128.147084 167.116687 
L 128.147084 168.722875 
L 130.347591 168.722875 
L 130.347591 170.329062 
L 158.235649 170.329062 
L 158.235649 172.336797 
L 166.633502 172.336797 
L 166.633502 174.344531 
L 172.291949 174.344531 
L 172.291949 176.352266 
L 182.575951 176.352266 
L 182.575951 178.36 
L 182.575951 178.36 
" clip-path="url(#p275ef0e849)" style="fill: none; stroke: #e63946; stroke-width: 2; stroke-linecap: round"/>
   </g>
   <g id="patch_3">
    <path d="M 39.632812 178.36 
L 39.632812 7.2 
" style="fill: none; stroke: #262626; stroke-width: 0.8; stroke-linejoin: miter; stroke-linecap: square"/>
   </g>
   <g id="patch_4">
    <path d="M 277.902813 178.36 
L 277.902813 7.2 
" style="fill: none; stroke: #262626; stroke-width: 0.8; stroke-linejoin: miter; stroke-linecap: square"/>
   </g>
   <g id="patch_5">
    <path d="M 39.632812 178.36 
L 277.902813 178.36 
" style="fill: none; stroke: #262626; stroke-width: 0.8; stroke-linejoin: miter; stroke-linecap: square"/>
   </g>
   <g id="patch_6">
    <path d="M 39.632812 7.2 
L 277.902813 7.2 
" style="fill: none; stroke: #262626; stroke-width: 0.8; stroke-linejoin: miter; stroke-linecap: square"/>
   </g>
   <g id="text_15">
    <g id="patch_7">
     <path d="M 229.696163 25.9005 
L 273.137413 25.9005 
Q 275.537413 25.9005 275.537413 23.5005 
L 275.537413 15.758 
Q 275.537413 13.358 273.137413 13.358 
L 229.696163 13.358 
Q 227.296163 13.358 227.296163 15.758 
L 227.296163 23.5005 
Q 227.296163 25.9005 229.696163 25.9005 
z
" style="fill: #ffffff; opacity: 0.8; stroke: #ffffff; stroke-linejoin: miter"/>
    </g>
    <!-- P &lt; 0.001 -->
    <g style="fill: #262626" transform="translate(229.696163 21.83675) scale(0.08 -0.08)">
     <defs>
      <path id="DejaVuSans-Bold-50" d="M 588 4666 
L 2584 4666 
Q 3475 4666 3951 4270 
Q 4428 3875 4428 3144 
Q 4428 2409 3951 2014 
Q 3475 1619 2584 1619 
L 1791 1619 
L 1791 0 
L 588 0 
L 588 4666 
z
M 1791 3794 
L 1791 2491 
L 2456 2491 
Q 2806 2491 2997 2661 
Q 3188 2831 3188 3144 
Q 3188 3456 2997 3625 
Q 2806 3794 2456 3794 
L 1791 3794 
z
" transform="scale(0.015625)"/>
      <path id="DejaVuSans-Bold-20" transform="scale(0.015625)"/>
      <path id="DejaVuSans-Bold-3c" d="M 4684 3041 
L 1672 2003 
L 4684 972 
L 4684 191 
L 678 1638 
L 678 2375 
L 4684 3822 
L 4684 3041 
z
" transform="scale(0.015625)"/>
      <path id="DejaVuSans-Bold-30" d="M 2944 2338 
Q 2944 3213 2780 3570 
Q 2616 3928 2228 3928 
Q 1841 3928 1675 3570 
Q 1509 3213 1509 2338 
Q 1509 1453 1675 1090 
Q 1841 728 2228 728 
Q 2613 728 2778 1090 
Q 2944 1453 2944 2338 
z
M 4147 2328 
Q 4147 1169 3647 539 
Q 3147 -91 2228 -91 
Q 1306 -91 806 539 
Q 306 1169 306 2328 
Q 306 3491 806 4120 
Q 1306 4750 2228 4750 
Q 3147 4750 3647 4120 
Q 4147 3491 4147 2328 
z
" transform="scale(0.015625)"/>
      <path id="DejaVuSans-Bold-2e" d="M 653 1209 
L 1778 1209 
L 1778 0 
L 653 0 
L 653 1209 
z
" transform="scale(0.015625)"/>
      <path id="DejaVuSans-Bold-31" d="M 750 831 
L 1813 831 
L 1813 3847 
L 722 3622 
L 722 4441 
L 1806 4666 
L 2950 4666 
L 2950 831 
L 4013 831 
L 4013 0 
L 750 0 
L 750 831 
z
" transform="scale(0.015625)"/>
     </defs>
     <use xlink:href="#DejaVuSans-Bold-50"/>
     <use xlink:href="#DejaVuSans-Bold-20" transform="translate(73.291016 0)"/>
     <use xlink:href="#DejaVuSans-Bold-3c" transform="translate(108.105469 0)"/>
     <use xlink:href="#DejaVuSans-Bold-20" transform="translate(191.894531 0)"/>
     <use xlink:href="#DejaVuSans-Bold-30" transform="translate(226.708984 0)"/>
     <use xlink:href="#DejaVuSans-Bold-2e" transform="translate(296.289062 0)"/>
     <use xlink:href="#DejaVuSans-Bold-30" transform="translate(334.277344 0)"/>
     <use xlink:href="#DejaVuSans-Bold-30" transform="translate(403.857422 0)"/>
     <use xlink:href="#DejaVuSans-Bold-31" transform="translate(473.4375 0)"/>
    </g>
   </g>
  </g>
 </g>
 <defs>
  <clipPath id="p275ef0e849">
   <rect x="39.632812" y="7.2" width="238.27" height="171.16"/>
  </clipPath>
 </defs>
</svg>
