<?xml version="1.0" encoding="utf-8" standalone="no"?>
<!DOCTYPE svg PUBLIC "-//W3C//DTD SVG 1.1//EN"
  "http://www.w3.org/Graphics/SVG/1.1/DTD/svg11.dtd">
<svg xmlns:xlink="http://www.w3.org/1999/xlink" width="285.102812pt" height="213.012812pt" viewBox="0 0 285.102812 213.012812" xmlns="http://www.w3.org/2000/svg" version="1.1">
 <metadata>
  <rdf:RDF xmlns:dc="http://purl.org/dc/elements/1.1/" xmlns:cc="http://creativecommons.org/ns#" xmlns:rdf="http://www.w3.org/1999/02/22-rdf-syntax-ns#">
   <cc:Work>
    <dc:type rdf:resource="http://purl.org/dc/dcmitype/StillImage"/>
    <dc:date>2025-07-12T20:17:39.259094</dc:date>
    <dc:format>image/svg+xml</dc:format>
    <dc:creator>
     <cc:Agent>
      <dc:title>Matplotlib v3.10.3, https://matplotlib.org/</dc:title>
     </cc:Agent>
    </dc:creator>
   </cc:Work>
  </rdf:RDF>
 </metadata>
 <defs>
  <style type="text/css">*{stroke-linejoin: round; stroke-linecap: butt}</style>
 </defs>
 <g id="figure_1">
  <g id="patch_1">
   <path d="M 0 213.012812 
L 285.102812 213.012812 
L 285.102812 0 
L 0 0 
L 0 213.012812 
z
" style="fill: none"/>
  </g>
  <g id="axes_1">
   <g id="patch_2">
    <path d="M 39.632812 178.36 
L 277.902813 178.36 
L 277.902813 7.2 
L 39.632812 7.2 
L 39.632812 178.36 
z
" style="fill: none"/>
   </g>
   <g id="matplotlib.axis_1">
    <g id="xtick_1">
     <g id="line2d_1">
      <path d="M 39.632812 178.36 
L 39.632812 7.2 
" clip-path="url(#pc08949d245)" style="fill: none; stroke: #cccccc; stroke-opacity: 0.3; stroke-width: 0.5; stroke-linecap: round"/>
     </g>
     <g id="line2d_2">
      <defs>
       <path id="mc4c7752d13" d="M 0 0 
L 0 3.5 
" style="stroke: #262626; stroke-width: 0.8"/>
      </defs>
      <g>
       <use xlink:href="#mc4c7752d13" x="39.632812" y="178.36" style="fill: #262626; stroke: #262626; stroke-width: 0.8"/>
      </g>
     </g>
     <g id="text_1">
      <!-- 0 -->
      <g style="fill: #262626" transform="translate(37.087812 191.43875) scale(0.08 -0.08)">
       <defs>
        <path id="DejaVuSans-30" d="M 2034 4250 
Q 1547 4250 1301 3770 
Q 1056 3291 1056 2328 
Q 1056 1369 1301 889 
Q 1547 409 2034 409 
Q 2525 409 2770 889 
Q 3016 1369 3016 2328 
Q 3016 3291 2770 3770 
Q 2525 4250 2034 4250 
z
M 2034 4750 
Q 2819 4750 3233 4129 
Q 3647 3509 3647 2328 
Q 3647 1150 3233 529 
Q 2819 -91 2034 -91 
Q 1250 -91 836 529 
Q 422 1150 422 2328 
Q 422 3509 836 4129 
Q 1250 4750 2034 4750 
z
" transform="scale(0.015625)"/>
       </defs>
       <use xlink:href="#DejaVuSans-30"/>
      </g>
     </g>
    </g>
    <g id="xtick_2">
     <g id="line2d_3">
      <path d="M 84.541119 178.36 
L 84.541119 7.2 
" clip-path="url(#pc08949d245)" style="fill: none; stroke: #cccccc; stroke-opacity: 0.3; stroke-width: 0.5; stroke-linecap: round"/>
     </g>
     <g id="line2d_4">
      <g>
       <use xlink:href="#mc4c7752d13" x="84.541119" y="178.36" style="fill: #262626; stroke: #262626; stroke-width: 0.8"/>
      </g>
     </g>
     <g id="text_2">
      <!-- 1000 -->
      <g style="fill: #262626" transform="translate(74.361119 191.43875) scale(0.08 -0.08)">
       <defs>
        <path id="DejaVuSans-31" d="M 794 531 
L 1825 531 
L 1825 4091 
L 703 3866 
L 703 4441 
L 1819 4666 
L 2450 4666 
L 2450 531 
L 3481 531 
L 3481 0 
L 794 0 
L 794 531 
z
" transform="scale(0.015625)"/>
       </defs>
       <use xlink:href="#DejaVuSans-31"/>
       <use xlink:href="#DejaVuSans-30" transform="translate(63.623047 0)"/>
       <use xlink:href="#DejaVuSans-30" transform="translate(127.246094 0)"/>
       <use xlink:href="#DejaVuSans-30" transform="translate(190.869141 0)"/>
      </g>
     </g>
    </g>
    <g id="xtick_3">
     <g id="line2d_5">
      <path d="M 129.449425 178.36 
L 129.449425 7.2 
" clip-path="url(#pc08949d245)" style="fill: none; stroke: #cccccc; stroke-opacity: 0.3; stroke-width: 0.5; stroke-linecap: round"/>
     </g>
     <g id="line2d_6">
      <g>
       <use xlink:href="#mc4c7752d13" x="129.449425" y="178.36" style="fill: #262626; stroke: #262626; stroke-width: 0.8"/>
      </g>
     </g>
     <g id="text_3">
      <!-- 2000 -->
      <g style="fill: #262626" transform="translate(119.269425 191.43875) scale(0.08 -0.08)">
       <defs>
        <path id="DejaVuSans-32" d="M 1228 531 
L 3431 531 
L 3431 0 
L 469 0 
L 469 531 
Q 828 903 1448 1529 
Q 2069 2156 2228 2338 
Q 2531 2678 2651 2914 
Q 2772 3150 2772 3378 
Q 2772 3750 2511 3984 
Q 2250 4219 1831 4219 
Q 1534 4219 1204 4116 
Q 875 4013 500 3803 
L 500 4441 
Q 881 4594 1212 4672 
Q 1544 4750 1819 4750 
Q 2544 4750 2975 4387 
Q 3406 4025 3406 3419 
Q 3406 3131 3298 2873 
Q 3191 2616 2906 2266 
Q 2828 2175 2409 1742 
Q 1991 1309 1228 531 
z
" transform="scale(0.015625)"/>
       </defs>
       <use xlink:href="#DejaVuSans-32"/>
       <use xlink:href="#DejaVuSans-30" transform="translate(63.623047 0)"/>
       <use xlink:href="#DejaVuSans-30" transform="translate(127.246094 0)"/>
       <use xlink:href="#DejaVuSans-30" transform="translate(190.869141 0)"/>
      </g>
     </g>
    </g>
    <g id="xtick_4">
     <g id="line2d_7">
      <path d="M 174.357731 178.36 
L 174.357731 7.2 
" clip-path="url(#pc08949d245)" style="fill: none; stroke: #cccccc; stroke-opacity: 0.3; stroke-width: 0.5; stroke-linecap: round"/>
     </g>
     <g id="line2d_8">
      <g>
       <use xlink:href="#mc4c7752d13" x="174.357731" y="178.36" style="fill: #262626; stroke: #262626; stroke-width: 0.8"/>
      </g>
     </g>
     <g id="text_4">
      <!-- 3000 -->
      <g style="fill: #262626" transform="translate(164.177731 191.43875) scale(0.08 -0.08)">
       <defs>
        <path id="DejaVuSans-33" d="M 2597 2516 
Q 3050 2419 3304 2112 
Q 3559 1806 3559 1356 
Q 3559 666 3084 287 
Q 2609 -91 1734 -91 
Q 1441 -91 1130 -33 
Q 819 25 488 141 
L 488 750 
Q 750 597 1062 519 
Q 1375 441 1716 441 
Q 2309 441 2620 675 
Q 2931 909 2931 1356 
Q 2931 1769 2642 2001 
Q 2353 2234 1838 2234 
L 1294 2234 
L 1294 2753 
L 1863 2753 
Q 2328 2753 2575 2939 
Q 2822 3125 2822 3475 
Q 2822 3834 2567 4026 
Q 2313 4219 1838 4219 
Q 1578 4219 1281 4162 
Q 984 4106 628 3988 
L 628 4550 
Q 988 4650 1302 4700 
Q 1616 4750 1894 4750 
Q 2613 4750 3031 4423 
Q 3450 4097 3450 3541 
Q 3450 3153 3228 2886 
Q 3006 2619 2597 2516 
z
" transform="scale(0.015625)"/>
       </defs>
       <use xlink:href="#DejaVuSans-33"/>
       <use xlink:href="#DejaVuSans-30" transform="translate(63.623047 0)"/>
       <use xlink:href="#DejaVuSans-30" transform="translate(127.246094 0)"/>
       <use xlink:href="#DejaVuSans-30" transform="translate(190.869141 0)"/>
      </g>
     </g>
    </g>
    <g id="xtick_5">
     <g id="line2d_9">
      <path d="M 219.266037 178.36 
L 219.266037 7.2 
" clip-path="url(#pc08949d245)" style="fill: none; stroke: #cccccc; stroke-opacity: 0.3; stroke-width: 0.5; stroke-linecap: round"/>
     </g>
     <g id="line2d_10">
      <g>
       <use xlink:href="#mc4c7752d13" x="219.266037" y="178.36" style="fill: #262626; stroke: #262626; stroke-width: 0.8"/>
      </g>
     </g>
     <g id="text_5">
      <!-- 4000 -->
      <g style="fill: #262626" transform="translate(209.086037 191.43875) scale(0.08 -0.08)">
       <defs>
        <path id="DejaVuSans-34" d="M 2419 4116 
L 825 1625 
L 2419 1625 
L 2419 4116 
z
M 2253 4666 
L 3047 4666 
L 3047 1625 
L 3713 1625 
L 3713 1100 
L 3047 1100 
L 3047 0 
L 2419 0 
L 2419 1100 
L 313 1100 
L 313 1709 
L 2253 4666 
z
" transform="scale(0.015625)"/>
       </defs>
       <use xlink:href="#DejaVuSans-34"/>
       <use xlink:href="#DejaVuSans-30" transform="translate(63.623047 0)"/>
       <use xlink:href="#DejaVuSans-30" transform="translate(127.246094 0)"/>
       <use xlink:href="#DejaVuSans-30" transform="translate(190.869141 0)"/>
      </g>
     </g>
    </g>
    <g id="xtick_6">
     <g id="line2d_11">
      <path d="M 264.174343 178.36 
L 264.174343 7.2 
" clip-path="url(#pc08949d245)" style="fill: none; stroke: #cccccc; stroke-opacity: 0.3; stroke-width: 0.5; stroke-linecap: round"/>
     </g>
     <g id="line2d_12">
      <g>
       <use xlink:href="#mc4c7752d13" x="264.174343" y="178.36" style="fill: #262626; stroke: #262626; stroke-width: 0.8"/>
      </g>
     </g>
     <g id="text_6">
      <!-- 5000 -->
      <g style="fill: #262626" transform="translate(253.994343 191.43875) scale(0.08 -0.08)">
       <defs>
        <path id="DejaVuSans-35" d="M 691 4666 
L 3169 4666 
L 3169 4134 
L 1269 4134 
L 1269 2991 
Q 1406 3038 1543 3061 
Q 1681 3084 1819 3084 
Q 2600 3084 3056 2656 
Q 3513 2228 3513 1497 
Q 3513 744 3044 326 
Q 2575 -91 1722 -91 
Q 1428 -91 1123 -41 
Q 819 9 494 109 
L 494 744 
Q 775 591 1075 516 
Q 1375 441 1709 441 
Q 2250 441 2565 725 
Q 2881 1009 2881 1497 
Q 2881 1984 2565 2268 
Q 2250 2553 1709 2553 
Q 1456 2553 1204 2497 
Q 953 2441 691 2322 
L 691 4666 
z
" transform="scale(0.015625)"/>
       </defs>
       <use xlink:href="#DejaVuSans-35"/>
       <use xlink:href="#DejaVuSans-30" transform="translate(63.623047 0)"/>
       <use xlink:href="#DejaVuSans-30" transform="translate(127.246094 0)"/>
       <use xlink:href="#DejaVuSans-30" transform="translate(190.869141 0)"/>
      </g>
     </g>
    </g>
    <g id="text_7">
     <!-- Time (days) -->
     <g style="fill: #262626" transform="translate(132.193906 203.941094) scale(0.09 -0.09)">
      <defs>
       <path id="DejaVuSans-54" d="M -19 4666 
L 3928 4666 
L 3928 4134 
L 2272 4134 
L 2272 0 
L 1638 0 
L 1638 4134 
L -19 4134 
L -19 4666 
z
" transform="scale(0.015625)"/>
       <path id="DejaVuSans-69" d="M 603 3500 
L 1178 3500 
L 1178 0 
L 603 0 
L 603 3500 
z
M 603 4863 
L 1178 4863 
L 1178 4134 
L 603 4134 
L 603 4863 
z
" transform="scale(0.015625)"/>
       <path id="DejaVuSans-6d" d="M 3328 2828 
Q 3544 3216 3844 3400 
Q 4144 3584 4550 3584 
Q 5097 3584 5394 3201 
Q 5691 2819 5691 2113 
L 5691 0 
L 5113 0 
L 5113 2094 
Q 5113 2597 4934 2840 
Q 4756 3084 4391 3084 
Q 3944 3084 3684 2787 
Q 3425 2491 3425 1978 
L 3425 0 
L 2847 0 
L 2847 2094 
Q 2847 2600 2669 2842 
Q 2491 3084 2119 3084 
Q 1678 3084 1418 2786 
Q 1159 2488 1159 1978 
L 1159 0 
L 581 0 
L 581 3500 
L 1159 3500 
L 1159 2956 
Q 1356 3278 1631 3431 
Q 1906 3584 2284 3584 
Q 2666 3584 2933 3390 
Q 3200 3197 3328 2828 
z
" transform="scale(0.015625)"/>
       <path id="DejaVuSans-65" d="M 3597 1894 
L 3597 1613 
L 953 1613 
Q 991 1019 1311 708 
Q 1631 397 2203 397 
Q 2534 397 2845 478 
Q 3156 559 3463 722 
L 3463 178 
Q 3153 47 2828 -22 
Q 2503 -91 2169 -91 
Q 1331 -91 842 396 
Q 353 884 353 1716 
Q 353 2575 817 3079 
Q 1281 3584 2069 3584 
Q 2775 3584 3186 3129 
Q 3597 2675 3597 1894 
z
M 3022 2063 
Q 3016 2534 2758 2815 
Q 2500 3097 2075 3097 
Q 1594 3097 1305 2825 
Q 1016 2553 972 2059 
L 3022 2063 
z
" transform="scale(0.015625)"/>
       <path id="DejaVuSans-20" transform="scale(0.015625)"/>
       <path id="DejaVuSans-28" d="M 1984 4856 
Q 1566 4138 1362 3434 
Q 1159 2731 1159 2009 
Q 1159 1288 1364 580 
Q 1569 -128 1984 -844 
L 1484 -844 
Q 1016 -109 783 600 
Q 550 1309 550 2009 
Q 550 2706 781 3412 
Q 1013 4119 1484 4856 
L 1984 4856 
z
" transform="scale(0.015625)"/>
       <path id="DejaVuSans-64" d="M 2906 2969 
L 2906 4863 
L 3481 4863 
L 3481 0 
L 2906 0 
L 2906 525 
Q 2725 213 2448 61 
Q 2172 -91 1784 -91 
Q 1150 -91 751 415 
Q 353 922 353 1747 
Q 353 2572 751 3078 
Q 1150 3584 1784 3584 
Q 2172 3584 2448 3432 
Q 2725 3281 2906 2969 
z
M 947 1747 
Q 947 1113 1208 752 
Q 1469 391 1925 391 
Q 2381 391 2643 752 
Q 2906 1113 2906 1747 
Q 2906 2381 2643 2742 
Q 2381 3103 1925 3103 
Q 1469 3103 1208 2742 
Q 947 2381 947 1747 
z
" transform="scale(0.015625)"/>
       <path id="DejaVuSans-61" d="M 2194 1759 
Q 1497 1759 1228 1600 
Q 959 1441 959 1056 
Q 959 750 1161 570 
Q 1363 391 1709 391 
Q 2188 391 2477 730 
Q 2766 1069 2766 1631 
L 2766 1759 
L 2194 1759 
z
M 3341 1997 
L 3341 0 
L 2766 0 
L 2766 531 
Q 2569 213 2275 61 
Q 1981 -91 1556 -91 
Q 1019 -91 701 211 
Q 384 513 384 1019 
Q 384 1609 779 1909 
Q 1175 2209 1959 2209 
L 2766 2209 
L 2766 2266 
Q 2766 2663 2505 2880 
Q 2244 3097 1772 3097 
Q 1472 3097 1187 3025 
Q 903 2953 641 2809 
L 641 3341 
Q 956 3463 1253 3523 
Q 1550 3584 1831 3584 
Q 2591 3584 2966 3190 
Q 3341 2797 3341 1997 
z
" transform="scale(0.015625)"/>
       <path id="DejaVuSans-79" d="M 2059 -325 
Q 1816 -950 1584 -1140 
Q 1353 -1331 966 -1331 
L 506 -1331 
L 506 -850 
L 844 -850 
Q 1081 -850 1212 -737 
Q 1344 -625 1503 -206 
L 1606 56 
L 191 3500 
L 800 3500 
L 1894 763 
L 2988 3500 
L 3597 3500 
L 2059 -325 
z
" transform="scale(0.015625)"/>
       <path id="DejaVuSans-73" d="M 2834 3397 
L 2834 2853 
Q 2591 2978 2328 3040 
Q 2066 3103 1784 3103 
Q 1356 3103 1142 2972 
Q 928 2841 928 2578 
Q 928 2378 1081 2264 
Q 1234 2150 1697 2047 
L 1894 2003 
Q 2506 1872 2764 1633 
Q 3022 1394 3022 966 
Q 3022 478 2636 193 
Q 2250 -91 1575 -91 
Q 1294 -91 989 -36 
Q 684 19 347 128 
L 347 722 
Q 666 556 975 473 
Q 1284 391 1588 391 
Q 1994 391 2212 530 
Q 2431 669 2431 922 
Q 2431 1156 2273 1281 
Q 2116 1406 1581 1522 
L 1381 1569 
Q 847 1681 609 1914 
Q 372 2147 372 2553 
Q 372 3047 722 3315 
Q 1072 3584 1716 3584 
Q 2034 3584 2315 3537 
Q 2597 3491 2834 3397 
z
" transform="scale(0.015625)"/>
       <path id="DejaVuSans-29" d="M 513 4856 
L 1013 4856 
Q 1481 4119 1714 3412 
Q 1947 2706 1947 2009 
Q 1947 1309 1714 600 
Q 1481 -109 1013 -844 
L 513 -844 
Q 928 -128 1133 580 
Q 1338 1288 1338 2009 
Q 1338 2731 1133 3434 
Q 928 4138 513 4856 
z
" transform="scale(0.015625)"/>
      </defs>
      <use xlink:href="#DejaVuSans-54"/>
      <use xlink:href="#DejaVuSans-69" transform="translate(57.958984 0)"/>
      <use xlink:href="#DejaVuSans-6d" transform="translate(85.742188 0)"/>
      <use xlink:href="#DejaVuSans-65" transform="translate(183.154297 0)"/>
      <use xlink:href="#DejaVuSans-20" transform="translate(244.677734 0)"/>
      <use xlink:href="#DejaVuSans-28" transform="translate(276.464844 0)"/>
      <use xlink:href="#DejaVuSans-64" transform="translate(315.478516 0)"/>
      <use xlink:href="#DejaVuSans-61" transform="translate(378.955078 0)"/>
      <use xlink:href="#DejaVuSans-79" transform="translate(440.234375 0)"/>
      <use xlink:href="#DejaVuSans-73" transform="translate(499.414062 0)"/>
      <use xlink:href="#DejaVuSans-29" transform="translate(551.513672 0)"/>
     </g>
    </g>
   </g>
   <g id="matplotlib.axis_2">
    <g id="ytick_1">
     <g id="line2d_13">
      <path d="M 39.632812 178.36 
L 277.902813 178.36 
" clip-path="url(#pc08949d245)" style="fill: none; stroke: #cccccc; stroke-opacity: 0.3; stroke-width: 0.5; stroke-linecap: round"/>
     </g>
     <g id="line2d_14">
      <defs>
       <path id="m0a08d7ce0c" d="M 0 0 
L -3.5 0 
" style="stroke: #262626; stroke-width: 0.8"/>
      </defs>
      <g>
       <use xlink:href="#m0a08d7ce0c" x="39.632812" y="178.36" style="fill: #262626; stroke: #262626; stroke-width: 0.8"/>
      </g>
     </g>
     <g id="text_8">
      <!-- 0.0 -->
      <g style="fill: #262626" transform="translate(19.910312 181.399375) scale(0.08 -0.08)">
       <defs>
        <path id="DejaVuSans-2e" d="M 684 794 
L 1344 794 
L 1344 0 
L 684 0 
L 684 794 
z
" transform="scale(0.015625)"/>
       </defs>
       <use xlink:href="#DejaVuSans-30"/>
       <use xlink:href="#DejaVuSans-2e" transform="translate(63.623047 0)"/>
       <use xlink:href="#DejaVuSans-30" transform="translate(95.410156 0)"/>
      </g>
     </g>
    </g>
    <g id="ytick_2">
     <g id="line2d_15">
      <path d="M 39.632812 145.758095 
L 277.902813 145.758095 
" clip-path="url(#pc08949d245)" style="fill: none; stroke: #cccccc; stroke-opacity: 0.3; stroke-width: 0.5; stroke-linecap: round"/>
     </g>
     <g id="line2d_16">
      <g>
       <use xlink:href="#m0a08d7ce0c" x="39.632812" y="145.758095" style="fill: #262626; stroke: #262626; stroke-width: 0.8"/>
      </g>
     </g>
     <g id="text_9">
      <!-- 0.2 -->
      <g style="fill: #262626" transform="translate(19.910312 148.79747) scale(0.08 -0.08)">
       <use xlink:href="#DejaVuSans-30"/>
       <use xlink:href="#DejaVuSans-2e" transform="translate(63.623047 0)"/>
       <use xlink:href="#DejaVuSans-32" transform="translate(95.410156 0)"/>
      </g>
     </g>
    </g>
    <g id="ytick_3">
     <g id="line2d_17">
      <path d="M 39.632812 113.15619 
L 277.902813 113.15619 
" clip-path="url(#pc08949d245)" style="fill: none; stroke: #cccccc; stroke-opacity: 0.3; stroke-width: 0.5; stroke-linecap: round"/>
     </g>
     <g id="line2d_18">
      <g>
       <use xlink:href="#m0a08d7ce0c" x="39.632812" y="113.15619" style="fill: #262626; stroke: #262626; stroke-width: 0.8"/>
      </g>
     </g>
     <g id="text_10">
      <!-- 0.4 -->
      <g style="fill: #262626" transform="translate(19.910312 116.195565) scale(0.08 -0.08)">
       <use xlink:href="#DejaVuSans-30"/>
       <use xlink:href="#DejaVuSans-2e" transform="translate(63.623047 0)"/>
       <use xlink:href="#DejaVuSans-34" transform="translate(95.410156 0)"/>
      </g>
     </g>
    </g>
    <g id="ytick_4">
     <g id="line2d_19">
      <path d="M 39.632812 80.554286 
L 277.902813 80.554286 
" clip-path="url(#pc08949d245)" style="fill: none; stroke: #cccccc; stroke-opacity: 0.3; stroke-width: 0.5; stroke-linecap: round"/>
     </g>
     <g id="line2d_20">
      <g>
       <use xlink:href="#m0a08d7ce0c" x="39.632812" y="80.554286" style="fill: #262626; stroke: #262626; stroke-width: 0.8"/>
      </g>
     </g>
     <g id="text_11">
      <!-- 0.6 -->
      <g style="fill: #262626" transform="translate(19.910312 83.593661) scale(0.08 -0.08)">
       <defs>
        <path id="DejaVuSans-36" d="M 2113 2584 
Q 1688 2584 1439 2293 
Q 1191 2003 1191 1497 
Q 1191 994 1439 701 
Q 1688 409 2113 409 
Q 2538 409 2786 701 
Q 3034 994 3034 1497 
Q 3034 2003 2786 2293 
Q 2538 2584 2113 2584 
z
M 3366 4563 
L 3366 3988 
Q 3128 4100 2886 4159 
Q 2644 4219 2406 4219 
Q 1781 4219 1451 3797 
Q 1122 3375 1075 2522 
Q 1259 2794 1537 2939 
Q 1816 3084 2150 3084 
Q 2853 3084 3261 2657 
Q 3669 2231 3669 1497 
Q 3669 778 3244 343 
Q 2819 -91 2113 -91 
Q 1303 -91 875 529 
Q 447 1150 447 2328 
Q 447 3434 972 4092 
Q 1497 4750 2381 4750 
Q 2619 4750 2861 4703 
Q 3103 4656 3366 4563 
z
" transform="scale(0.015625)"/>
       </defs>
       <use xlink:href="#DejaVuSans-30"/>
       <use xlink:href="#DejaVuSans-2e" transform="translate(63.623047 0)"/>
       <use xlink:href="#DejaVuSans-36" transform="translate(95.410156 0)"/>
      </g>
     </g>
    </g>
    <g id="ytick_5">
     <g id="line2d_21">
      <path d="M 39.632812 47.952381 
L 277.902813 47.952381 
" clip-path="url(#pc08949d245)" style="fill: none; stroke: #cccccc; stroke-opacity: 0.3; stroke-width: 0.5; stroke-linecap: round"/>
     </g>
     <g id="line2d_22">
      <g>
       <use xlink:href="#m0a08d7ce0c" x="39.632812" y="47.952381" style="fill: #262626; stroke: #262626; stroke-width: 0.8"/>
      </g>
     </g>
     <g id="text_12">
      <!-- 0.8 -->
      <g style="fill: #262626" transform="translate(19.910312 50.991756) scale(0.08 -0.08)">
       <defs>
        <path id="DejaVuSans-38" d="M 2034 2216 
Q 1584 2216 1326 1975 
Q 1069 1734 1069 1313 
Q 1069 891 1326 650 
Q 1584 409 2034 409 
Q 2484 409 2743 651 
Q 3003 894 3003 1313 
Q 3003 1734 2745 1975 
Q 2488 2216 2034 2216 
z
M 1403 2484 
Q 997 2584 770 2862 
Q 544 3141 544 3541 
Q 544 4100 942 4425 
Q 1341 4750 2034 4750 
Q 2731 4750 3128 4425 
Q 3525 4100 3525 3541 
Q 3525 3141 3298 2862 
Q 3072 2584 2669 2484 
Q 3125 2378 3379 2068 
Q 3634 1759 3634 1313 
Q 3634 634 3220 271 
Q 2806 -91 2034 -91 
Q 1263 -91 848 271 
Q 434 634 434 1313 
Q 434 1759 690 2068 
Q 947 2378 1403 2484 
z
M 1172 3481 
Q 1172 3119 1398 2916 
Q 1625 2713 2034 2713 
Q 2441 2713 2670 2916 
Q 2900 3119 2900 3481 
Q 2900 3844 2670 4047 
Q 2441 4250 2034 4250 
Q 1625 4250 1398 4047 
Q 1172 3844 1172 3481 
z
" transform="scale(0.015625)"/>
       </defs>
       <use xlink:href="#DejaVuSans-30"/>
       <use xlink:href="#DejaVuSans-2e" transform="translate(63.623047 0)"/>
       <use xlink:href="#DejaVuSans-38" transform="translate(95.410156 0)"/>
      </g>
     </g>
    </g>
    <g id="ytick_6">
     <g id="line2d_23">
      <path d="M 39.632812 15.350476 
L 277.902813 15.350476 
" clip-path="url(#pc08949d245)" style="fill: none; stroke: #cccccc; stroke-opacity: 0.3; stroke-width: 0.5; stroke-linecap: round"/>
     </g>
     <g id="line2d_24">
      <g>
       <use xlink:href="#m0a08d7ce0c" x="39.632812" y="15.350476" style="fill: #262626; stroke: #262626; stroke-width: 0.8"/>
      </g>
     </g>
     <g id="text_13">
      <!-- 1.0 -->
      <g style="fill: #262626" transform="translate(19.910312 18.389851) scale(0.08 -0.08)">
       <use xlink:href="#DejaVuSans-31"/>
       <use xlink:href="#DejaVuSans-2e" transform="translate(63.623047 0)"/>
       <use xlink:href="#DejaVuSans-30" transform="translate(95.410156 0)"/>
      </g>
     </g>
    </g>
    <g id="text_14">
     <!-- Survival probability -->
     <g style="fill: #262626" transform="translate(14.038594 136.361797) rotate(-90) scale(0.09 -0.09)">
      <defs>
       <path id="DejaVuSans-53" d="M 3425 4513 
L 3425 3897 
Q 3066 4069 2747 4153 
Q 2428 4238 2131 4238 
Q 1616 4238 1336 4038 
Q 1056 3838 1056 3469 
Q 1056 3159 1242 3001 
Q 1428 2844 1947 2747 
L 2328 2669 
Q 3034 2534 3370 2195 
Q 3706 1856 3706 1288 
Q 3706 609 3251 259 
Q 2797 -91 1919 -91 
Q 1588 -91 1214 -16 
Q 841 59 441 206 
L 441 856 
Q 825 641 1194 531 
Q 1563 422 1919 422 
Q 2459 422 2753 634 
Q 3047 847 3047 1241 
Q 3047 1584 2836 1778 
Q 2625 1972 2144 2069 
L 1759 2144 
Q 1053 2284 737 2584 
Q 422 2884 422 3419 
Q 422 4038 858 4394 
Q 1294 4750 2059 4750 
Q 2388 4750 2728 4690 
Q 3069 4631 3425 4513 
z
" transform="scale(0.015625)"/>
       <path id="DejaVuSans-75" d="M 544 1381 
L 544 3500 
L 1119 3500 
L 1119 1403 
Q 1119 906 1312 657 
Q 1506 409 1894 409 
Q 2359 409 2629 706 
Q 2900 1003 2900 1516 
L 2900 3500 
L 3475 3500 
L 3475 0 
L 2900 0 
L 2900 538 
Q 2691 219 2414 64 
Q 2138 -91 1772 -91 
Q 1169 -91 856 284 
Q 544 659 544 1381 
z
M 1991 3584 
L 1991 3584 
z
" transform="scale(0.015625)"/>
       <path id="DejaVuSans-72" d="M 2631 2963 
Q 2534 3019 2420 3045 
Q 2306 3072 2169 3072 
Q 1681 3072 1420 2755 
Q 1159 2438 1159 1844 
L 1159 0 
L 581 0 
L 581 3500 
L 1159 3500 
L 1159 2956 
Q 1341 3275 1631 3429 
Q 1922 3584 2338 3584 
Q 2397 3584 2469 3576 
Q 2541 3569 2628 3553 
L 2631 2963 
z
" transform="scale(0.015625)"/>
       <path id="DejaVuSans-76" d="M 191 3500 
L 800 3500 
L 1894 563 
L 2988 3500 
L 3597 3500 
L 2284 0 
L 1503 0 
L 191 3500 
z
" transform="scale(0.015625)"/>
       <path id="DejaVuSans-6c" d="M 603 4863 
L 1178 4863 
L 1178 0 
L 603 0 
L 603 4863 
z
" transform="scale(0.015625)"/>
       <path id="DejaVuSans-70" d="M 1159 525 
L 1159 -1331 
L 581 -1331 
L 581 3500 
L 1159 3500 
L 1159 2969 
Q 1341 3281 1617 3432 
Q 1894 3584 2278 3584 
Q 2916 3584 3314 3078 
Q 3713 2572 3713 1747 
Q 3713 922 3314 415 
Q 2916 -91 2278 -91 
Q 1894 -91 1617 61 
Q 1341 213 1159 525 
z
M 3116 1747 
Q 3116 2381 2855 2742 
Q 2594 3103 2138 3103 
Q 1681 3103 1420 2742 
Q 1159 2381 1159 1747 
Q 1159 1113 1420 752 
Q 1681 391 2138 391 
Q 2594 391 2855 752 
Q 3116 1113 3116 1747 
z
" transform="scale(0.015625)"/>
       <path id="DejaVuSans-6f" d="M 1959 3097 
Q 1497 3097 1228 2736 
Q 959 2375 959 1747 
Q 959 1119 1226 758 
Q 1494 397 1959 397 
Q 2419 397 2687 759 
Q 2956 1122 2956 1747 
Q 2956 2369 2687 2733 
Q 2419 3097 1959 3097 
z
M 1959 3584 
Q 2709 3584 3137 3096 
Q 3566 2609 3566 1747 
Q 3566 888 3137 398 
Q 2709 -91 1959 -91 
Q 1206 -91 779 398 
Q 353 888 353 1747 
Q 353 2609 779 3096 
Q 1206 3584 1959 3584 
z
" transform="scale(0.015625)"/>
       <path id="DejaVuSans-62" d="M 3116 1747 
Q 3116 2381 2855 2742 
Q 2594 3103 2138 3103 
Q 1681 3103 1420 2742 
Q 1159 2381 1159 1747 
Q 1159 1113 1420 752 
Q 1681 391 2138 391 
Q 2594 391 2855 752 
Q 3116 1113 3116 1747 
z
M 1159 2969 
Q 1341 3281 1617 3432 
Q 1894 3584 2278 3584 
Q 2916 3584 3314 3078 
Q 3713 2572 3713 1747 
Q 3713 922 3314 415 
Q 2916 -91 2278 -91 
Q 1894 -91 1617 61 
Q 1341 213 1159 525 
L 1159 0 
L 581 0 
L 581 4863 
L 1159 4863 
L 1159 2969 
z
" transform="scale(0.015625)"/>
       <path id="DejaVuSans-74" d="M 1172 4494 
L 1172 3500 
L 2356 3500 
L 2356 3053 
L 1172 3053 
L 1172 1153 
Q 1172 725 1289 603 
Q 1406 481 1766 481 
L 2356 481 
L 2356 0 
L 1766 0 
Q 1100 0 847 248 
Q 594 497 594 1153 
L 594 3053 
L 172 3053 
L 172 3500 
L 594 3500 
L 594 4494 
L 1172 4494 
z
" transform="scale(0.015625)"/>
      </defs>
      <use xlink:href="#DejaVuSans-53"/>
      <use xlink:href="#DejaVuSans-75" transform="translate(63.476562 0)"/>
      <use xlink:href="#DejaVuSans-72" transform="translate(126.855469 0)"/>
      <use xlink:href="#DejaVuSans-76" transform="translate(167.96875 0)"/>
      <use xlink:href="#DejaVuSans-69" transform="translate(227.148438 0)"/>
      <use xlink:href="#DejaVuSans-76" transform="translate(254.931641 0)"/>
      <use xlink:href="#DejaVuSans-61" transform="translate(314.111328 0)"/>
      <use xlink:href="#DejaVuSans-6c" transform="translate(375.390625 0)"/>
      <use xlink:href="#DejaVuSans-20" transform="translate(403.173828 0)"/>
      <use xlink:href="#DejaVuSans-70" transform="translate(434.960938 0)"/>
      <use xlink:href="#DejaVuSans-72" transform="translate(498.4375 0)"/>
      <use xlink:href="#DejaVuSans-6f" transform="translate(537.300781 0)"/>
      <use xlink:href="#DejaVuSans-62" transform="translate(598.482422 0)"/>
      <use xlink:href="#DejaVuSans-61" transform="translate(661.958984 0)"/>
      <use xlink:href="#DejaVuSans-62" transform="translate(723.238281 0)"/>
      <use xlink:href="#DejaVuSans-69" transform="translate(786.714844 0)"/>
      <use xlink:href="#DejaVuSans-6c" transform="translate(814.498047 0)"/>
      <use xlink:href="#DejaVuSans-69" transform="translate(842.28125 0)"/>
      <use xlink:href="#DejaVuSans-74" transform="translate(870.064453 0)"/>
      <use xlink:href="#DejaVuSans-79" transform="translate(909.273438 0)"/>
     </g>
    </g>
   </g>
   <g id="FillBetweenPolyCollection_1">
    <defs>
     <path id="m37a1082a38" d="M 39.632812 -197.550091 
L 39.632812 -192.100649 
L 40.306437 -192.100649 
L 40.306437 -192.100649 
L 41.204603 -192.100649 
L 41.204603 -192.100649 
L 42.102769 -192.100649 
L 42.102769 -192.100649 
L 42.282403 -192.100649 
L 42.282403 -192.100649 
L 42.506944 -192.100649 
L 42.506944 -192.100649 
L 42.686577 -192.100649 
L 42.686577 -192.100649 
L 43.315294 -192.100649 
L 43.315294 -192.100649 
L 43.629652 -192.100649 
L 43.629652 -192.100649 
L 43.67456 -192.100649 
L 43.67456 -191.250691 
L 44.348185 -191.250691 
L 44.348185 -191.250691 
L 44.887084 -191.250691 
L 44.887084 -191.250691 
L 46.189425 -191.250691 
L 46.189425 -190.129201 
L 46.728325 -190.129201 
L 46.728325 -190.129201 
L 48.030666 -190.129201 
L 48.030666 -190.129201 
L 50.904797 -190.129201 
L 50.904797 -190.129201 
L 52.027505 -190.129201 
L 52.027505 -190.129201 
L 52.117322 -190.129201 
L 52.117322 -188.945481 
L 54.048379 -188.945481 
L 54.048379 -187.784023 
L 54.452554 -187.784023 
L 54.452554 -187.784023 
L 54.587278 -187.784023 
L 54.587278 -187.784023 
L 55.126178 -187.784023 
L 55.126178 -187.784023 
L 55.754894 -187.784023 
L 55.754894 -187.784023 
L 55.844711 -187.784023 
L 55.844711 -187.784023 
L 55.979436 -187.784023 
L 55.979436 -187.784023 
L 56.069253 -187.784023 
L 56.069253 -187.784023 
L 56.159069 -187.784023 
L 56.159069 -187.784023 
L 56.203977 -187.784023 
L 56.203977 -187.784023 
L 56.248886 -187.784023 
L 56.248886 -187.784023 
L 56.338702 -187.784023 
L 56.338702 -187.784023 
L 56.383611 -187.784023 
L 56.383611 -187.784023 
L 56.787785 -187.784023 
L 56.787785 -187.784023 
L 56.832694 -187.784023 
L 56.832694 -187.784023 
L 56.877602 -187.784023 
L 56.877602 -187.784023 
L 57.326685 -187.784023 
L 57.326685 -187.784023 
L 57.506318 -187.784023 
L 57.506318 -187.784023 
L 57.865585 -187.784023 
L 57.865585 -186.39228 
L 58.045218 -186.39228 
L 58.045218 -186.39228 
L 58.26976 -186.39228 
L 58.26976 -186.39228 
L 58.314668 -186.39228 
L 58.314668 -186.39228 
L 58.853568 -186.39228 
L 58.853568 -186.39228 
L 59.078109 -186.39228 
L 59.078109 -186.39228 
L 60.066092 -186.39228 
L 60.066092 -186.39228 
L 60.155908 -186.39228 
L 60.155908 -186.39228 
L 60.560083 -186.39228 
L 60.560083 -186.39228 
L 60.604991 -186.39228 
L 60.604991 -186.39228 
L 60.694808 -186.39228 
L 60.694808 -186.39228 
L 61.054075 -186.39228 
L 61.054075 -186.39228 
L 61.368433 -186.39228 
L 61.368433 -186.39228 
L 61.413341 -186.39228 
L 61.413341 -186.39228 
L 61.682791 -186.39228 
L 61.682791 -186.39228 
L 61.862424 -186.39228 
L 61.862424 -186.39228 
L 62.22169 -186.39228 
L 62.22169 -186.39228 
L 62.401324 -186.39228 
L 62.401324 -186.39228 
L 62.446232 -186.39228 
L 62.446232 -186.39228 
L 62.536049 -186.39228 
L 62.536049 -184.782511 
L 62.625865 -184.782511 
L 62.625865 -184.782511 
L 63.074948 -184.782511 
L 63.074948 -184.782511 
L 63.164765 -184.782511 
L 63.164765 -184.782511 
L 63.703665 -184.782511 
L 63.703665 -184.782511 
L 63.883298 -184.782511 
L 63.883298 -184.782511 
L 63.973114 -184.782511 
L 63.973114 -184.782511 
L 64.152748 -184.782511 
L 64.152748 -184.782511 
L 64.781464 -184.782511 
L 64.781464 -184.782511 
L 65.320364 -184.782511 
L 65.320364 -184.782511 
L 65.365272 -184.782511 
L 65.365272 -184.782511 
L 65.589813 -184.782511 
L 65.589813 -184.782511 
L 65.67963 -184.782511 
L 65.67963 -184.782511 
L 65.724538 -184.782511 
L 65.724538 -184.782511 
L 65.769447 -184.782511 
L 65.769447 -184.782511 
L 66.128713 -184.782511 
L 66.128713 -184.782511 
L 66.712521 -184.782511 
L 66.712521 -184.782511 
L 67.341237 -184.782511 
L 67.341237 -182.921072 
L 67.386146 -182.921072 
L 67.386146 -182.921072 
L 67.610687 -182.921072 
L 67.610687 -181.138182 
L 67.925045 -181.138182 
L 67.925045 -179.426669 
L 68.05977 -179.426669 
L 68.05977 -179.426669 
L 68.284312 -179.426669 
L 68.284312 -179.426669 
L 68.419037 -179.426669 
L 68.419037 -179.426669 
L 68.463945 -179.426669 
L 68.463945 -179.426669 
L 68.643578 -179.426669 
L 68.643578 -179.426669 
L 68.778303 -179.426669 
L 68.778303 -179.426669 
L 69.496836 -179.426669 
L 69.496836 -179.426669 
L 69.901011 -179.426669 
L 69.901011 -177.619252 
L 70.619544 -177.619252 
L 70.619544 -175.866166 
L 70.664452 -175.866166 
L 70.664452 -175.866166 
L 71.023719 -175.866166 
L 71.023719 -175.866166 
L 71.068627 -175.866166 
L 71.068627 -175.866166 
L 71.921885 -175.866166 
L 71.921885 -174.089592 
L 72.460784 -174.089592 
L 72.460784 -174.089592 
L 73.673309 -174.089592 
L 73.673309 -174.089592 
L 74.346933 -174.089592 
L 74.346933 -174.089592 
L 74.571475 -174.089592 
L 74.571475 -172.283639 
L 74.796016 -172.283639 
L 74.796016 -172.283639 
L 75.469641 -172.283639 
L 75.469641 -172.283639 
L 75.514549 -172.283639 
L 75.514549 -172.283639 
L 76.098357 -172.283639 
L 76.098357 -172.283639 
L 76.143265 -172.283639 
L 76.143265 -172.283639 
L 76.457624 -172.283639 
L 76.457624 -172.283639 
L 76.996523 -172.283639 
L 76.996523 -172.283639 
L 77.35579 -172.283639 
L 77.35579 -172.283639 
L 77.445606 -172.283639 
L 77.445606 -172.283639 
L 77.849781 -172.283639 
L 77.849781 -172.283639 
L 78.433589 -172.283639 
L 78.433589 -172.283639 
L 78.837764 -172.283639 
L 78.837764 -172.283639 
L 79.46648 -172.283639 
L 79.46648 -172.283639 
L 79.73593 -172.283639 
L 79.73593 -172.283639 
L 79.915563 -172.283639 
L 79.915563 -172.283639 
L 80.00538 -172.283639 
L 80.00538 -172.283639 
L 80.319738 -172.283639 
L 80.319738 -172.283639 
L 80.993362 -172.283639 
L 80.993362 -172.283639 
L 81.891529 -172.283639 
L 81.891529 -169.950278 
L 82.071162 -169.950278 
L 82.071162 -169.950278 
L 82.250795 -169.950278 
L 82.250795 -167.655189 
L 83.373503 -167.655189 
L 83.373503 -165.423374 
L 84.406394 -165.423374 
L 84.406394 -165.423374 
L 84.675844 -165.423374 
L 84.675844 -165.423374 
L 84.76566 -165.423374 
L 84.76566 -163.168953 
L 85.84346 -163.168953 
L 85.84346 -163.168953 
L 86.696717 -163.168953 
L 86.696717 -163.168953 
L 87.41525 -163.168953 
L 87.41525 -160.885187 
L 87.774517 -160.885187 
L 87.774517 -160.885187 
L 88.582866 -160.885187 
L 88.582866 -160.885187 
L 88.762499 -160.885187 
L 88.762499 -160.885187 
L 89.481032 -160.885187 
L 89.481032 -160.885187 
L 89.705574 -160.885187 
L 89.705574 -160.885187 
L 90.244474 -160.885187 
L 90.244474 -160.885187 
L 91.861173 -160.885187 
L 91.861173 -158.386017 
L 92.669522 -158.386017 
L 92.669522 -158.386017 
L 92.894064 -158.386017 
L 92.894064 -158.386017 
L 96.666361 -158.386017 
L 96.666361 -155.84457 
L 99.181226 -155.84457 
L 99.181226 -155.84457 
L 100.169209 -155.84457 
L 100.169209 -153.305865 
L 100.259026 -153.305865 
L 100.259026 -153.305865 
L 101.022467 -153.305865 
L 101.022467 -150.764102 
L 101.157192 -150.764102 
L 101.157192 -150.764102 
L 103.402607 -150.764102 
L 103.402607 -148.21429 
L 104.92949 -148.21429 
L 104.92949 -148.21429 
L 104.974398 -148.21429 
L 104.974398 -148.21429 
L 105.198939 -148.21429 
L 105.198939 -148.21429 
L 106.052197 -148.21429 
L 106.052197 -148.21429 
L 107.983254 -148.21429 
L 107.983254 -148.21429 
L 108.297613 -148.21429 
L 108.297613 -148.21429 
L 108.701787 -148.21429 
L 108.701787 -148.21429 
L 108.881421 -148.21429 
L 108.881421 -148.21429 
L 109.734678 -148.21429 
L 109.734678 -148.21429 
L 110.677753 -148.21429 
L 110.677753 -148.21429 
L 111.665736 -148.21429 
L 111.665736 -148.21429 
L 112.429177 -148.21429 
L 112.429177 -148.21429 
L 113.237526 -148.21429 
L 113.237526 -148.21429 
L 114.629684 -148.21429 
L 114.629684 -144.753471 
L 116.785282 -144.753471 
L 116.785282 -141.395451 
L 118.71634 -141.395451 
L 118.71634 -141.395451 
L 119.839047 -141.395451 
L 119.839047 -141.395451 
L 120.108497 -141.395451 
L 120.108497 -141.395451 
L 120.647397 -141.395451 
L 120.647397 -137.812351 
L 120.737213 -137.812351 
L 120.737213 -137.812351 
L 121.815013 -137.812351 
L 121.815013 -137.812351 
L 122.488637 -137.812351 
L 122.488637 -137.812351 
L 124.240061 -137.812351 
L 124.240061 -137.812351 
L 125.497494 -137.812351 
L 125.497494 -137.812351 
L 127.069285 -137.812351 
L 127.069285 -137.812351 
L 127.159101 -137.812351 
L 127.159101 -137.812351 
L 127.293826 -137.812351 
L 127.293826 -137.812351 
L 128.147084 -137.812351 
L 128.147084 -133.165266 
L 129.808691 -133.165266 
L 129.808691 -133.165266 
L 129.8536 -133.165266 
L 129.8536 -133.165266 
L 130.347591 -133.165266 
L 130.347591 -128.310093 
L 130.661949 -128.310093 
L 130.661949 -128.310093 
L 131.42539 -128.310093 
L 131.42539 -128.310093 
L 131.649932 -128.310093 
L 131.649932 -128.310093 
L 134.34443 -128.310093 
L 134.34443 -128.310093 
L 135.691679 -128.310093 
L 135.691679 -128.310093 
L 137.398195 -128.310093 
L 137.398195 -128.310093 
L 144.269166 -128.310093 
L 144.269166 -128.310093 
L 146.514581 -128.310093 
L 146.514581 -128.310093 
L 148.445638 -128.310093 
L 148.445638 -128.310093 
L 157.517116 -128.310093 
L 157.517116 -128.310093 
L 158.235649 -128.310093 
L 158.235649 -119.53161 
L 158.909274 -119.53161 
L 158.909274 -119.53161 
L 164.926987 -119.53161 
L 164.926987 -119.53161 
L 166.633502 -119.53161 
L 166.633502 -110.169006 
L 168.429835 -110.169006 
L 168.429835 -110.169006 
L 169.238184 -110.169006 
L 169.238184 -110.169006 
L 172.291949 -110.169006 
L 172.291949 -99.848265 
L 172.741032 -99.848265 
L 172.741032 -99.848265 
L 174.851722 -99.848265 
L 174.851722 -99.848265 
L 182.575951 -99.848265 
L 182.575951 -87.985112 
L 190.704354 -87.985112 
L 190.704354 -87.985112 
L 193.21922 -87.985112 
L 193.21922 -87.985112 
L 193.758119 -87.985112 
L 193.758119 -87.985112 
L 211.047817 -87.985112 
L 211.047817 -87.985112 
L 211.856167 -87.985112 
L 211.856167 -87.985112 
L 218.412779 -87.985112 
L 218.412779 -87.985112 
L 262.692369 -87.985112 
L 262.692369 -87.985112 
L 266.015584 -87.985112 
L 266.015584 -87.985112 
L 266.419759 -87.985112 
L 266.419759 -87.985112 
L 266.419759 -143.906553 
L 266.419759 -143.906553 
L 266.419759 -143.906553 
L 266.015584 -143.906553 
L 266.015584 -143.906553 
L 262.692369 -143.906553 
L 262.692369 -143.906553 
L 218.412779 -143.906553 
L 218.412779 -143.906553 
L 211.856167 -143.906553 
L 211.856167 -143.906553 
L 211.047817 -143.906553 
L 211.047817 -143.906553 
L 193.758119 -143.906553 
L 193.758119 -143.906553 
L 193.21922 -143.906553 
L 193.21922 -143.906553 
L 190.704354 -143.906553 
L 190.704354 -143.906553 
L 182.575951 -143.906553 
L 182.575951 -149.96083 
L 174.851722 -149.96083 
L 174.851722 -149.96083 
L 172.741032 -149.96083 
L 172.741032 -149.96083 
L 172.291949 -149.96083 
L 172.291949 -154.99589 
L 169.238184 -154.99589 
L 169.238184 -154.99589 
L 168.429835 -154.99589 
L 168.429835 -154.99589 
L 166.633502 -154.99589 
L 166.633502 -159.263235 
L 164.926987 -159.263235 
L 164.926987 -159.263235 
L 158.909274 -159.263235 
L 158.909274 -159.263235 
L 158.235649 -159.263235 
L 158.235649 -162.893564 
L 157.517116 -162.893564 
L 157.517116 -162.893564 
L 148.445638 -162.893564 
L 148.445638 -162.893564 
L 146.514581 -162.893564 
L 146.514581 -162.893564 
L 144.269166 -162.893564 
L 144.269166 -162.893564 
L 137.398195 -162.893564 
L 137.398195 -162.893564 
L 135.691679 -162.893564 
L 135.691679 -162.893564 
L 134.34443 -162.893564 
L 134.34443 -162.893564 
L 131.649932 -162.893564 
L 131.649932 -162.893564 
L 131.42539 -162.893564 
L 131.42539 -162.893564 
L 130.661949 -162.893564 
L 130.661949 -162.893564 
L 130.347591 -162.893564 
L 130.347591 -165.650287 
L 129.8536 -165.650287 
L 129.8536 -165.650287 
L 129.808691 -165.650287 
L 129.808691 -165.650287 
L 128.147084 -165.650287 
L 128.147084 -168.206849 
L 127.293826 -168.206849 
L 127.293826 -168.206849 
L 127.159101 -168.206849 
L 127.159101 -168.206849 
L 127.069285 -168.206849 
L 127.069285 -168.206849 
L 125.497494 -168.206849 
L 125.497494 -168.206849 
L 124.240061 -168.206849 
L 124.240061 -168.206849 
L 122.488637 -168.206849 
L 122.488637 -168.206849 
L 121.815013 -168.206849 
L 121.815013 -168.206849 
L 120.737213 -168.206849 
L 120.737213 -168.206849 
L 120.647397 -168.206849 
L 120.647397 -170.385982 
L 120.108497 -170.385982 
L 120.108497 -170.385982 
L 119.839047 -170.385982 
L 119.839047 -170.385982 
L 118.71634 -170.385982 
L 118.71634 -170.385982 
L 116.785282 -170.385982 
L 116.785282 -172.421801 
L 114.629684 -172.421801 
L 114.629684 -174.406027 
L 113.237526 -174.406027 
L 113.237526 -174.406027 
L 112.429177 -174.406027 
L 112.429177 -174.406027 
L 111.665736 -174.406027 
L 111.665736 -174.406027 
L 110.677753 -174.406027 
L 110.677753 -174.406027 
L 109.734678 -174.406027 
L 109.734678 -174.406027 
L 108.881421 -174.406027 
L 108.881421 -174.406027 
L 108.701787 -174.406027 
L 108.701787 -174.406027 
L 108.297613 -174.406027 
L 108.297613 -174.406027 
L 107.983254 -174.406027 
L 107.983254 -174.406027 
L 106.052197 -174.406027 
L 106.052197 -174.406027 
L 105.198939 -174.406027 
L 105.198939 -174.406027 
L 104.974398 -174.406027 
L 104.974398 -174.406027 
L 104.92949 -174.406027 
L 104.92949 -174.406027 
L 103.402607 -174.406027 
L 103.402607 -176.058828 
L 101.157192 -176.058828 
L 101.157192 -176.058828 
L 101.022467 -176.058828 
L 101.022467 -177.666547 
L 100.259026 -177.666547 
L 100.259026 -177.666547 
L 100.169209 -177.666547 
L 100.169209 -179.229293 
L 99.181226 -179.229293 
L 99.181226 -179.229293 
L 96.666361 -179.229293 
L 96.666361 -180.746786 
L 92.894064 -180.746786 
L 92.894064 -180.746786 
L 92.669522 -180.746786 
L 92.669522 -180.746786 
L 91.861173 -180.746786 
L 91.861173 -182.20435 
L 90.244474 -182.20435 
L 90.244474 -182.20435 
L 89.705574 -182.20435 
L 89.705574 -182.20435 
L 89.481032 -182.20435 
L 89.481032 -182.20435 
L 88.762499 -182.20435 
L 88.762499 -182.20435 
L 88.582866 -182.20435 
L 88.582866 -182.20435 
L 87.774517 -182.20435 
L 87.774517 -182.20435 
L 87.41525 -182.20435 
L 87.41525 -183.554746 
L 86.696717 -183.554746 
L 86.696717 -183.554746 
L 85.84346 -183.554746 
L 85.84346 -183.554746 
L 84.76566 -183.554746 
L 84.76566 -184.855302 
L 84.675844 -184.855302 
L 84.675844 -184.855302 
L 84.406394 -184.855302 
L 84.406394 -184.855302 
L 83.373503 -184.855302 
L 83.373503 -186.10691 
L 82.250795 -186.10691 
L 82.250795 -187.328435 
L 82.071162 -187.328435 
L 82.071162 -187.328435 
L 81.891529 -187.328435 
L 81.891529 -188.506402 
L 80.993362 -188.506402 
L 80.993362 -188.506402 
L 80.319738 -188.506402 
L 80.319738 -188.506402 
L 80.00538 -188.506402 
L 80.00538 -188.506402 
L 79.915563 -188.506402 
L 79.915563 -188.506402 
L 79.73593 -188.506402 
L 79.73593 -188.506402 
L 79.46648 -188.506402 
L 79.46648 -188.506402 
L 78.837764 -188.506402 
L 78.837764 -188.506402 
L 78.433589 -188.506402 
L 78.433589 -188.506402 
L 77.849781 -188.506402 
L 77.849781 -188.506402 
L 77.445606 -188.506402 
L 77.445606 -188.506402 
L 77.35579 -188.506402 
L 77.35579 -188.506402 
L 76.996523 -188.506402 
L 76.996523 -188.506402 
L 76.457624 -188.506402 
L 76.457624 -188.506402 
L 76.143265 -188.506402 
L 76.143265 -188.506402 
L 76.098357 -188.506402 
L 76.098357 -188.506402 
L 75.514549 -188.506402 
L 75.514549 -188.506402 
L 75.469641 -188.506402 
L 75.469641 -188.506402 
L 74.796016 -188.506402 
L 74.796016 -188.506402 
L 74.571475 -188.506402 
L 74.571475 -189.510112 
L 74.346933 -189.510112 
L 74.346933 -189.510112 
L 73.673309 -189.510112 
L 73.673309 -189.510112 
L 72.460784 -189.510112 
L 72.460784 -189.510112 
L 71.921885 -189.510112 
L 71.921885 -190.472004 
L 71.068627 -190.472004 
L 71.068627 -190.472004 
L 71.023719 -190.472004 
L 71.023719 -190.472004 
L 70.664452 -190.472004 
L 70.664452 -190.472004 
L 70.619544 -190.472004 
L 70.619544 -191.392426 
L 69.901011 -191.392426 
L 69.901011 -192.286052 
L 69.496836 -192.286052 
L 69.496836 -192.286052 
L 68.778303 -192.286052 
L 68.778303 -192.286052 
L 68.643578 -192.286052 
L 68.643578 -192.286052 
L 68.463945 -192.286052 
L 68.463945 -192.286052 
L 68.419037 -192.286052 
L 68.419037 -192.286052 
L 68.284312 -192.286052 
L 68.284312 -192.286052 
L 68.05977 -192.286052 
L 68.05977 -192.286052 
L 67.925045 -192.286052 
L 67.925045 -193.11676 
L 67.610687 -193.11676 
L 67.610687 -193.915495 
L 67.386146 -193.915495 
L 67.386146 -193.915495 
L 67.341237 -193.915495 
L 67.341237 -194.67123 
L 66.712521 -194.67123 
L 66.712521 -194.67123 
L 66.128713 -194.67123 
L 66.128713 -194.67123 
L 65.769447 -194.67123 
L 65.769447 -194.67123 
L 65.724538 -194.67123 
L 65.724538 -194.67123 
L 65.67963 -194.67123 
L 65.67963 -194.67123 
L 65.589813 -194.67123 
L 65.589813 -194.67123 
L 65.365272 -194.67123 
L 65.365272 -194.67123 
L 65.320364 -194.67123 
L 65.320364 -194.67123 
L 64.781464 -194.67123 
L 64.781464 -194.67123 
L 64.152748 -194.67123 
L 64.152748 -194.67123 
L 63.973114 -194.67123 
L 63.973114 -194.67123 
L 63.883298 -194.67123 
L 63.883298 -194.67123 
L 63.703665 -194.67123 
L 63.703665 -194.67123 
L 63.164765 -194.67123 
L 63.164765 -194.67123 
L 63.074948 -194.67123 
L 63.074948 -194.67123 
L 62.625865 -194.67123 
L 62.625865 -194.67123 
L 62.536049 -194.67123 
L 62.536049 -195.331422 
L 62.446232 -195.331422 
L 62.446232 -195.331422 
L 62.401324 -195.331422 
L 62.401324 -195.331422 
L 62.22169 -195.331422 
L 62.22169 -195.331422 
L 61.862424 -195.331422 
L 61.862424 -195.331422 
L 61.682791 -195.331422 
L 61.682791 -195.331422 
L 61.413341 -195.331422 
L 61.413341 -195.331422 
L 61.368433 -195.331422 
L 61.368433 -195.331422 
L 61.054075 -195.331422 
L 61.054075 -195.331422 
L 60.694808 -195.331422 
L 60.694808 -195.331422 
L 60.604991 -195.331422 
L 60.604991 -195.331422 
L 60.560083 -195.331422 
L 60.560083 -195.331422 
L 60.155908 -195.331422 
L 60.155908 -195.331422 
L 60.066092 -195.331422 
L 60.066092 -195.331422 
L 59.078109 -195.331422 
L 59.078109 -195.331422 
L 58.853568 -195.331422 
L 58.853568 -195.331422 
L 58.314668 -195.331422 
L 58.314668 -195.331422 
L 58.26976 -195.331422 
L 58.26976 -195.331422 
L 58.045218 -195.331422 
L 58.045218 -195.331422 
L 57.865585 -195.331422 
L 57.865585 -195.908281 
L 57.506318 -195.908281 
L 57.506318 -195.908281 
L 57.326685 -195.908281 
L 57.326685 -195.908281 
L 56.877602 -195.908281 
L 56.877602 -195.908281 
L 56.832694 -195.908281 
L 56.832694 -195.908281 
L 56.787785 -195.908281 
L 56.787785 -195.908281 
L 56.383611 -195.908281 
L 56.383611 -195.908281 
L 56.338702 -195.908281 
L 56.338702 -195.908281 
L 56.248886 -195.908281 
L 56.248886 -195.908281 
L 56.203977 -195.908281 
L 56.203977 -195.908281 
L 56.159069 -195.908281 
L 56.159069 -195.908281 
L 56.069253 -195.908281 
L 56.069253 -195.908281 
L 55.979436 -195.908281 
L 55.979436 -195.908281 
L 55.844711 -195.908281 
L 55.844711 -195.908281 
L 55.754894 -195.908281 
L 55.754894 -195.908281 
L 55.126178 -195.908281 
L 55.126178 -195.908281 
L 54.587278 -195.908281 
L 54.587278 -195.908281 
L 54.452554 -195.908281 
L 54.452554 -195.908281 
L 54.048379 -195.908281 
L 54.048379 -196.406633 
L 52.117322 -196.406633 
L 52.117322 -196.862726 
L 52.027505 -196.862726 
L 52.027505 -196.862726 
L 50.904797 -196.862726 
L 50.904797 -196.862726 
L 48.030666 -196.862726 
L 48.030666 -196.862726 
L 46.728325 -196.862726 
L 46.728325 -196.862726 
L 46.189425 -196.862726 
L 46.189425 -197.254064 
L 44.887084 -197.254064 
L 44.887084 -197.254064 
L 44.348185 -197.254064 
L 44.348185 -197.254064 
L 43.67456 -197.254064 
L 43.67456 -197.550091 
L 43.629652 -197.550091 
L 43.629652 -197.550091 
L 43.315294 -197.550091 
L 43.315294 -197.550091 
L 42.686577 -197.550091 
L 42.686577 -197.550091 
L 42.506944 -197.550091 
L 42.506944 -197.550091 
L 42.282403 -197.550091 
L 42.282403 -197.550091 
L 42.102769 -197.550091 
L 42.102769 -197.550091 
L 41.204603 -197.550091 
L 41.204603 -197.550091 
L 40.306437 -197.550091 
L 40.306437 -197.550091 
L 39.632812 -197.550091 
z
" style="stroke: #2e86ab; stroke-opacity: 0.2"/>
    </defs>
    <g clip-path="url(#pc08949d245)">
     <use xlink:href="#m37a1082a38" x="0" y="213.012812" style="fill: #2e86ab; fill-opacity: 0.2; stroke: #2e86ab; stroke-opacity: 0.2"/>
    </g>
   </g>
   <g id="FillBetweenPolyCollection_2">
    <defs>
     <path id="mb0ff1390e6" d="M 36.758681 -197.662336 
L 36.758681 -197.662336 
L 39.632812 -197.662336 
L 39.632812 -192.100649 
L 40.21662 -192.100649 
L 40.21662 -192.100649 
L 40.396254 -192.100649 
L 40.396254 -192.100649 
L 40.48607 -192.100649 
L 40.48607 -191.349377 
L 40.530979 -191.349377 
L 40.530979 -190.307174 
L 40.890245 -190.307174 
L 40.890245 -190.307174 
L 41.29442 -190.307174 
L 41.29442 -190.307174 
L 41.698595 -190.307174 
L 41.698595 -190.307174 
L 42.147678 -190.307174 
L 42.147678 -188.084456 
L 42.192586 -188.084456 
L 42.192586 -186.996924 
L 42.417127 -186.996924 
L 42.417127 -185.925717 
L 42.551852 -185.925717 
L 42.551852 -184.869319 
L 42.641669 -184.869319 
L 42.641669 -184.869319 
L 42.686577 -184.869319 
L 42.686577 -183.817979 
L 42.731486 -183.817979 
L 42.731486 -182.779072 
L 43.045844 -182.779072 
L 43.045844 -181.751234 
L 43.270385 -181.751234 
L 43.270385 -180.733324 
L 43.40511 -180.733324 
L 43.40511 -180.733324 
L 43.584743 -180.733324 
L 43.584743 -179.716832 
L 43.809285 -179.716832 
L 43.809285 -178.708838 
L 43.899102 -178.708838 
L 43.899102 -178.708838 
L 44.033827 -178.708838 
L 44.033827 -177.701153 
L 44.078735 -177.701153 
L 44.078735 -176.70085 
L 44.393093 -176.70085 
L 44.393093 -175.707334 
L 44.572726 -175.707334 
L 44.572726 -175.707334 
L 44.931993 -175.707334 
L 44.931993 -174.712788 
L 45.111626 -174.712788 
L 45.111626 -173.724288 
L 45.381076 -173.724288 
L 45.381076 -172.741415 
L 45.425984 -172.741415 
L 45.425984 -172.741415 
L 45.515801 -172.741415 
L 45.515801 -171.756551 
L 46.009792 -171.756551 
L 46.009792 -170.7768 
L 46.099609 -170.7768 
L 46.099609 -169.801855 
L 46.32415 -169.801855 
L 46.32415 -168.831441 
L 46.548692 -168.831441 
L 46.548692 -166.903254 
L 46.952866 -166.903254 
L 46.952866 -165.94506 
L 47.177408 -165.94506 
L 47.177408 -164.025318 
L 47.401949 -164.025318 
L 47.401949 -163.070752 
L 47.806124 -163.070752 
L 47.806124 -162.119522 
L 48.120482 -162.119522 
L 48.120482 -162.119522 
L 48.210299 -162.119522 
L 48.210299 -161.164229 
L 48.614474 -161.164229 
L 48.614474 -159.263074 
L 48.839015 -159.263074 
L 48.839015 -158.316979 
L 48.883924 -158.316979 
L 48.883924 -157.373731 
L 49.108465 -157.373731 
L 49.108465 -156.433235 
L 49.198282 -156.433235 
L 49.198282 -155.4954 
L 49.333007 -155.4954 
L 49.333007 -154.560145 
L 49.51264 -154.560145 
L 49.51264 -153.627391 
L 49.647365 -153.627391 
L 49.647365 -152.697066 
L 49.692273 -152.697066 
L 49.692273 -152.697066 
L 50.05154 -152.697066 
L 50.05154 -150.828592 
L 50.276081 -150.828592 
L 50.276081 -149.897861 
L 50.680256 -149.897861 
L 50.680256 -148.969385 
L 50.770072 -148.969385 
L 50.770072 -148.04311 
L 50.859889 -148.04311 
L 50.859889 -147.118983 
L 50.904797 -147.118983 
L 50.904797 -146.196953 
L 50.994614 -146.196953 
L 50.994614 -145.276976 
L 51.039522 -145.276976 
L 51.039522 -143.443002 
L 51.219155 -143.443002 
L 51.219155 -142.528925 
L 51.264064 -142.528925 
L 51.264064 -141.616738 
L 51.35388 -141.616738 
L 51.35388 -140.706406 
L 51.398789 -140.706406 
L 51.398789 -139.797896 
L 51.847872 -139.797896 
L 51.847872 -137.986217 
L 51.89278 -137.986217 
L 51.89278 -137.08299 
L 51.937688 -137.08299 
L 51.937688 -136.181469 
L 52.790946 -136.181469 
L 52.790946 -136.181469 
L 52.835855 -136.181469 
L 52.835855 -134.367293 
L 53.240029 -134.367293 
L 53.240029 -133.46276 
L 53.599296 -133.46276 
L 53.599296 -132.559897 
L 54.183104 -132.559897 
L 54.183104 -130.759095 
L 54.362737 -130.759095 
L 54.362737 -129.861116 
L 54.407645 -129.861116 
L 54.407645 -128.964725 
L 54.54237 -128.964725 
L 54.54237 -128.069904 
L 54.766912 -128.069904 
L 54.766912 -128.069904 
L 54.901637 -128.069904 
L 54.901637 -127.167972 
L 55.08127 -127.167972 
L 55.08127 -125.368889 
L 55.620169 -125.368889 
L 55.620169 -124.471705 
L 55.844711 -124.471705 
L 55.844711 -124.471705 
L 55.889619 -124.471705 
L 55.889619 -123.567021 
L 55.979436 -123.567021 
L 55.979436 -122.663938 
L 56.024344 -122.663938 
L 56.024344 -122.663938 
L 56.248886 -122.663938 
L 56.248886 -120.843877 
L 56.518336 -120.843877 
L 56.518336 -120.843877 
L 56.563244 -120.843877 
L 56.563244 -120.843877 
L 56.653061 -120.843877 
L 56.653061 -120.843877 
L 56.92251 -120.843877 
L 56.92251 -118.971246 
L 56.967419 -118.971246 
L 56.967419 -118.037654 
L 57.057235 -118.037654 
L 57.057235 -117.105856 
L 57.102144 -117.105856 
L 57.102144 -117.105856 
L 57.19196 -117.105856 
L 57.19196 -116.165229 
L 57.281777 -116.165229 
L 57.281777 -115.226445 
L 57.506318 -115.226445 
L 57.506318 -115.226445 
L 57.551227 -115.226445 
L 57.551227 -115.226445 
L 57.596135 -115.226445 
L 57.596135 -114.267211 
L 57.955401 -114.267211 
L 57.955401 -113.309961 
L 58.179943 -113.309961 
L 58.179943 -110.449964 
L 58.26976 -110.449964 
L 58.26976 -109.5005 
L 58.404484 -109.5005 
L 58.404484 -108.540835 
L 58.718843 -108.540835 
L 58.718843 -108.540835 
L 58.853568 -108.540835 
L 58.853568 -108.540835 
L 59.123017 -108.540835 
L 59.123017 -107.557784 
L 59.257742 -107.557784 
L 59.257742 -106.576925 
L 59.976275 -106.576925 
L 59.976275 -105.598244 
L 60.021183 -105.598244 
L 60.021183 -104.621727 
L 60.066092 -104.621727 
L 60.066092 -103.647362 
L 60.290633 -103.647362 
L 60.290633 -102.67514 
L 60.560083 -102.67514 
L 60.560083 -102.67514 
L 60.604991 -102.67514 
L 60.604991 -100.680702 
L 60.91935 -100.680702 
L 60.91935 -99.687023 
L 60.964258 -99.687023 
L 60.964258 -99.687023 
L 61.188799 -99.687023 
L 61.188799 -99.687023 
L 61.233708 -99.687023 
L 61.233708 -99.687023 
L 61.458249 -99.687023 
L 61.458249 -98.631883 
L 61.727699 -98.631883 
L 61.727699 -97.579686 
L 61.862424 -97.579686 
L 61.862424 -96.530417 
L 62.446232 -96.530417 
L 62.446232 -95.466252 
L 62.536049 -95.466252 
L 62.536049 -94.405171 
L 63.074948 -94.405171 
L 63.074948 -93.347164 
L 63.434215 -93.347164 
L 63.434215 -92.292219 
L 63.613848 -92.292219 
L 63.613848 -91.240328 
L 63.703665 -91.240328 
L 63.703665 -90.191487 
L 63.83839 -90.191487 
L 63.83839 -89.12586 
L 64.062931 -89.12586 
L 64.062931 -86.962906 
L 64.197656 -86.962906 
L 64.197656 -84.813932 
L 64.332381 -84.813932 
L 64.332381 -83.744694 
L 64.871281 -83.744694 
L 64.871281 -83.744694 
L 65.006005 -83.744694 
L 65.006005 -81.570435 
L 65.320364 -81.570435 
L 65.320364 -81.570435 
L 65.455089 -81.570435 
L 65.455089 -80.463923 
L 65.544905 -80.463923 
L 65.544905 -79.361568 
L 65.634722 -79.361568 
L 65.634722 -78.263387 
L 66.038897 -78.263387 
L 66.038897 -78.263387 
L 66.128713 -78.263387 
L 66.128713 -77.141763 
L 66.263438 -77.141763 
L 66.263438 -76.024749 
L 66.532888 -76.024749 
L 66.532888 -74.912372 
L 66.667613 -74.912372 
L 66.667613 -73.804667 
L 67.026879 -73.804667 
L 67.026879 -73.804667 
L 67.116696 -73.804667 
L 67.116696 -72.670363 
L 67.251421 -72.670363 
L 67.251421 -71.541307 
L 68.194495 -71.541307 
L 68.194495 -71.541307 
L 68.374128 -71.541307 
L 68.374128 -71.541307 
L 68.733395 -71.541307 
L 68.733395 -71.541307 
L 68.86812 -71.541307 
L 68.86812 -70.307561 
L 69.496836 -70.307561 
L 69.496836 -69.081212 
L 70.170461 -69.081212 
L 70.170461 -67.862322 
L 70.395002 -67.862322 
L 70.395002 -66.650964 
L 70.888994 -66.650964 
L 70.888994 -65.447228 
L 71.338077 -65.447228 
L 71.338077 -64.251219 
L 71.607526 -64.251219 
L 71.607526 -63.063062 
L 72.595509 -63.063062 
L 72.595509 -61.882897 
L 72.820051 -61.882897 
L 72.820051 -60.710888 
L 73.314042 -60.710888 
L 73.314042 -60.710888 
L 73.808033 -60.710888 
L 73.808033 -60.710888 
L 75.065466 -60.710888 
L 75.065466 -60.710888 
L 75.334916 -60.710888 
L 75.334916 -59.374807 
L 76.412715 -59.374807 
L 76.412715 -58.052318 
L 76.592348 -58.052318 
L 76.592348 -56.743699 
L 77.131248 -56.743699 
L 77.131248 -55.449285 
L 78.209047 -55.449285 
L 78.209047 -54.169476 
L 78.433589 -54.169476 
L 78.433589 -52.904748 
L 80.229921 -52.904748 
L 80.229921 -51.65566 
L 84.720752 -51.65566 
L 84.720752 -50.42287 
L 84.900385 -50.42287 
L 84.900385 -49.207153 
L 86.157818 -49.207153 
L 86.157818 -48.009421 
L 87.999058 -48.009421 
L 87.999058 -46.830753 
L 89.391216 -46.830753 
L 89.391216 -46.830753 
L 92.355164 -46.830753 
L 92.355164 -46.830753 
L 94.376038 -46.830753 
L 94.376038 -46.830753 
L 103.537332 -46.830753 
L 103.537332 -45.258766 
L 109.510137 -45.258766 
L 109.510137 -43.744261 
L 113.686609 -43.744261 
L 113.686609 -43.744261 
L 116.336199 -43.744261 
L 116.336199 -43.744261 
L 116.605649 -43.744261 
L 116.605649 -43.744261 
L 123.566437 -43.744261 
L 123.566437 -41.291589 
L 130.527224 -41.291589 
L 130.527224 -41.291589 
L 142.607559 -41.291589 
L 142.607559 -41.291589 
L 143.460816 -41.291589 
L 143.460816 -41.291589 
L 145.257149 -41.291589 
L 145.257149 -41.291589 
L 161.019964 -41.291589 
L 161.019964 -41.291589 
L 161.019964 -59.183253 
L 161.019964 -59.183253 
L 161.019964 -59.183253 
L 145.257149 -59.183253 
L 145.257149 -59.183253 
L 143.460816 -59.183253 
L 143.460816 -59.183253 
L 142.607559 -59.183253 
L 142.607559 -59.183253 
L 130.527224 -59.183253 
L 130.527224 -59.183253 
L 123.566437 -59.183253 
L 123.566437 -61.580246 
L 116.605649 -61.580246 
L 116.605649 -61.580246 
L 116.336199 -61.580246 
L 116.336199 -61.580246 
L 113.686609 -61.580246 
L 113.686609 -61.580246 
L 109.510137 -61.580246 
L 109.510137 -63.538928 
L 103.537332 -63.538928 
L 103.537332 -65.450666 
L 94.376038 -65.450666 
L 94.376038 -65.450666 
L 92.355164 -65.450666 
L 92.355164 -65.450666 
L 89.391216 -65.450666 
L 89.391216 -65.450666 
L 87.999058 -65.450666 
L 87.999058 -67.06979 
L 86.157818 -67.06979 
L 86.157818 -68.672647 
L 84.900385 -68.672647 
L 84.900385 -70.260193 
L 84.720752 -70.260193 
L 84.720752 -71.833245 
L 80.229921 -71.833245 
L 80.229921 -73.392502 
L 78.433589 -73.392502 
L 78.433589 -74.938565 
L 78.209047 -74.938565 
L 78.209047 -76.471949 
L 77.131248 -76.471949 
L 77.131248 -77.993098 
L 76.592348 -77.993098 
L 76.592348 -79.502392 
L 76.412715 -79.502392 
L 76.412715 -81.000155 
L 75.334916 -81.000155 
L 75.334916 -82.486661 
L 75.065466 -82.486661 
L 75.065466 -82.486661 
L 73.808033 -82.486661 
L 73.808033 -82.486661 
L 73.314042 -82.486661 
L 73.314042 -82.486661 
L 72.820051 -82.486661 
L 72.820051 -83.843534 
L 72.595509 -83.843534 
L 72.595509 -85.193458 
L 71.607526 -85.193458 
L 71.607526 -86.536595 
L 71.338077 -86.536595 
L 71.338077 -87.873085 
L 70.888994 -87.873085 
L 70.888994 -89.203056 
L 70.395002 -89.203056 
L 70.395002 -90.52662 
L 70.170461 -90.52662 
L 70.170461 -91.843874 
L 69.496836 -91.843874 
L 69.496836 -93.154903 
L 68.86812 -93.154903 
L 68.86812 -94.459782 
L 68.733395 -94.459782 
L 68.733395 -94.459782 
L 68.374128 -94.459782 
L 68.374128 -94.459782 
L 68.194495 -94.459782 
L 68.194495 -94.459782 
L 67.251421 -94.459782 
L 67.251421 -95.681637 
L 67.116696 -95.681637 
L 67.116696 -96.899024 
L 67.026879 -96.899024 
L 67.026879 -96.899024 
L 66.667613 -96.899024 
L 66.667613 -98.089415 
L 66.532888 -98.089415 
L 66.532888 -99.27581 
L 66.263438 -99.27581 
L 66.263438 -100.458251 
L 66.128713 -100.458251 
L 66.128713 -101.636773 
L 66.038897 -101.636773 
L 66.038897 -101.636773 
L 65.634722 -101.636773 
L 65.634722 -102.791623 
L 65.544905 -102.791623 
L 65.544905 -103.942911 
L 65.455089 -103.942911 
L 65.455089 -105.090662 
L 65.320364 -105.090662 
L 65.320364 -105.090662 
L 65.006005 -105.090662 
L 65.006005 -107.340036 
L 64.871281 -107.340036 
L 64.871281 -107.340036 
L 64.332381 -107.340036 
L 64.332381 -108.443181 
L 64.197656 -108.443181 
L 64.197656 -110.640479 
L 64.062931 -110.640479 
L 64.062931 -112.825863 
L 63.83839 -112.825863 
L 63.83839 -113.899401 
L 63.703665 -113.899401 
L 63.703665 -114.956087 
L 63.613848 -114.956087 
L 63.613848 -116.010157 
L 63.434215 -116.010157 
L 63.434215 -117.061614 
L 63.074948 -117.061614 
L 63.074948 -118.110461 
L 62.536049 -118.110461 
L 62.536049 -119.156696 
L 62.446232 -119.156696 
L 62.446232 -120.200319 
L 61.862424 -120.200319 
L 61.862424 -121.228968 
L 61.727699 -121.228968 
L 61.727699 -122.255132 
L 61.458249 -122.255132 
L 61.458249 -123.278807 
L 61.233708 -123.278807 
L 61.233708 -123.278807 
L 61.188799 -123.278807 
L 61.188799 -123.278807 
L 60.964258 -123.278807 
L 60.964258 -123.278807 
L 60.91935 -123.278807 
L 60.91935 -124.255431 
L 60.604991 -124.255431 
L 60.604991 -126.202506 
L 60.560083 -126.202506 
L 60.560083 -126.202506 
L 60.290633 -126.202506 
L 60.290633 -127.152946 
L 60.066092 -127.152946 
L 60.066092 -128.101493 
L 60.021183 -128.101493 
L 60.021183 -129.048143 
L 59.976275 -129.048143 
L 59.976275 -129.992891 
L 59.257742 -129.992891 
L 59.257742 -130.935729 
L 59.123017 -130.935729 
L 59.123017 -131.876651 
L 58.853568 -131.876651 
L 58.853568 -131.876651 
L 58.718843 -131.876651 
L 58.718843 -131.876651 
L 58.404484 -131.876651 
L 58.404484 -132.797944 
L 58.26976 -132.797944 
L 58.26976 -133.708952 
L 58.179943 -133.708952 
L 58.179943 -136.431605 
L 57.955401 -136.431605 
L 57.955401 -137.335669 
L 57.596135 -137.335669 
L 57.596135 -138.237973 
L 57.551227 -138.237973 
L 57.551227 -138.237973 
L 57.506318 -138.237973 
L 57.506318 -138.237973 
L 57.281777 -138.237973 
L 57.281777 -139.123151 
L 57.19196 -139.123151 
L 57.19196 -140.006669 
L 57.102144 -140.006669 
L 57.102144 -140.006669 
L 57.057235 -140.006669 
L 57.057235 -140.881205 
L 56.967419 -140.881205 
L 56.967419 -141.754113 
L 56.92251 -141.754113 
L 56.92251 -143.495001 
L 56.653061 -143.495001 
L 56.653061 -143.495001 
L 56.563244 -143.495001 
L 56.563244 -143.495001 
L 56.518336 -143.495001 
L 56.518336 -143.495001 
L 56.248886 -143.495001 
L 56.248886 -145.188814 
L 56.024344 -145.188814 
L 56.024344 -145.188814 
L 55.979436 -145.188814 
L 55.979436 -146.027006 
L 55.889619 -146.027006 
L 55.889619 -146.863693 
L 55.844711 -146.863693 
L 55.844711 -146.863693 
L 55.620169 -146.863693 
L 55.620169 -147.692678 
L 55.08127 -147.692678 
L 55.08127 -149.346174 
L 54.901637 -149.346174 
L 54.901637 -150.170655 
L 54.766912 -150.170655 
L 54.766912 -150.170655 
L 54.54237 -150.170655 
L 54.54237 -150.987762 
L 54.407645 -150.987762 
L 54.407645 -151.803364 
L 54.362737 -151.803364 
L 54.362737 -152.617444 
L 54.183104 -152.617444 
L 54.183104 -154.240968 
L 53.599296 -154.240968 
L 53.599296 -155.050374 
L 53.240029 -155.050374 
L 53.240029 -155.858181 
L 52.835855 -155.858181 
L 52.835855 -157.468917 
L 52.790946 -157.468917 
L 52.790946 -157.468917 
L 51.937688 -157.468917 
L 51.937688 -158.266553 
L 51.89278 -158.266553 
L 51.89278 -159.06254 
L 51.847872 -159.06254 
L 51.847872 -160.64947 
L 51.398789 -160.64947 
L 51.398789 -161.440358 
L 51.35388 -161.440358 
L 51.35388 -162.229488 
L 51.264064 -162.229488 
L 51.264064 -163.01683 
L 51.219155 -163.01683 
L 51.219155 -163.802351 
L 51.039522 -163.802351 
L 51.039522 -165.367791 
L 50.994614 -165.367791 
L 50.994614 -166.147635 
L 50.904797 -166.147635 
L 50.904797 -166.925509 
L 50.859889 -166.925509 
L 50.859889 -167.701368 
L 50.770072 -167.701368 
L 50.770072 -168.475169 
L 50.680256 -168.475169 
L 50.680256 -169.246862 
L 50.276081 -169.246862 
L 50.276081 -170.016397 
L 50.05154 -170.016397 
L 50.05154 -171.548772 
L 49.692273 -171.548772 
L 49.692273 -171.548772 
L 49.647365 -171.548772 
L 49.647365 -172.307217 
L 49.51264 -172.307217 
L 49.51264 -173.063317 
L 49.333007 -173.063317 
L 49.333007 -173.817004 
L 49.198282 -173.817004 
L 49.198282 -174.568206 
L 49.108465 -174.568206 
L 49.108465 -175.316848 
L 48.883924 -175.316848 
L 48.883924 -176.062846 
L 48.839015 -176.062846 
L 48.839015 -176.806113 
L 48.614474 -176.806113 
L 48.614474 -178.284066 
L 48.210299 -178.284066 
L 48.210299 -179.01854 
L 48.120482 -179.01854 
L 48.120482 -179.01854 
L 47.806124 -179.01854 
L 47.806124 -179.746107 
L 47.401949 -179.746107 
L 47.401949 -180.47045 
L 47.177408 -180.47045 
L 47.177408 -181.908911 
L 46.952866 -181.908911 
L 46.952866 -182.619203 
L 46.548692 -182.619203 
L 46.548692 -184.028267 
L 46.32415 -184.028267 
L 46.32415 -184.726642 
L 46.099609 -184.726642 
L 46.099609 -185.42061 
L 46.009792 -185.42061 
L 46.009792 -186.109914 
L 45.515801 -186.109914 
L 45.515801 -186.794267 
L 45.425984 -186.794267 
L 45.425984 -186.794267 
L 45.381076 -186.794267 
L 45.381076 -187.470239 
L 45.111626 -187.470239 
L 45.111626 -188.140669 
L 44.931993 -188.140669 
L 44.931993 -188.805151 
L 44.572726 -188.805151 
L 44.572726 -188.805151 
L 44.393093 -188.805151 
L 44.393093 -189.460328 
L 44.078735 -189.460328 
L 44.078735 -190.108676 
L 44.033827 -190.108676 
L 44.033827 -190.749592 
L 43.899102 -190.749592 
L 43.899102 -190.749592 
L 43.809285 -190.749592 
L 43.809285 -191.379701 
L 43.584743 -191.379701 
L 43.584743 -192.000969 
L 43.40511 -192.000969 
L 43.40511 -192.000969 
L 43.270385 -192.000969 
L 43.270385 -192.609923 
L 43.045844 -192.609923 
L 43.045844 -193.208011 
L 42.731486 -193.208011 
L 42.731486 -193.793779 
L 42.686577 -193.793779 
L 42.686577 -194.365392 
L 42.641669 -194.365392 
L 42.641669 -194.365392 
L 42.551852 -194.365392 
L 42.551852 -194.918412 
L 42.417127 -194.918412 
L 42.417127 -195.451995 
L 42.192586 -195.451995 
L 42.192586 -195.961821 
L 42.147678 -195.961821 
L 42.147678 -196.881433 
L 41.698595 -196.881433 
L 41.698595 -196.881433 
L 41.29442 -196.881433 
L 41.29442 -196.881433 
L 40.890245 -196.881433 
L 40.890245 -196.881433 
L 40.530979 -196.881433 
L 40.530979 -197.260171 
L 40.48607 -197.260171 
L 40.48607 -197.550091 
L 40.396254 -197.550091 
L 40.396254 -197.550091 
L 40.21662 -197.550091 
L 40.21662 -197.550091 
L 39.632812 -197.550091 
L 39.632812 -197.662336 
L 36.758681 -197.662336 
z
" style="stroke: #e63946; stroke-opacity: 0.2"/>
    </defs>
    <g clip-path="url(#pc08949d245)">
     <use xlink:href="#mb0ff1390e6" x="0" y="213.012812" style="fill: #e63946; fill-opacity: 0.2; stroke: #e63946; stroke-opacity: 0.2"/>
    </g>
   </g>
   <g id="line2d_25">
    <defs>
     <path id="m0835d32676" d="M -3 3 
L 3 -3 
M -3 -3 
L 3 3 
" style="stroke: #2e86ab"/>
    </defs>
    <g clip-path="url(#pc08949d245)">
     <use xlink:href="#m0835d32676" x="40.306437" y="16.145645" style="fill: #2e86ab; stroke: #2e86ab"/>
     <use xlink:href="#m0835d32676" x="41.204603" y="16.145645" style="fill: #2e86ab; stroke: #2e86ab"/>
     <use xlink:href="#m0835d32676" x="42.102769" y="16.145645" style="fill: #2e86ab; stroke: #2e86ab"/>
     <use xlink:href="#m0835d32676" x="42.282403" y="16.145645" style="fill: #2e86ab; stroke: #2e86ab"/>
     <use xlink:href="#m0835d32676" x="42.506944" y="16.145645" style="fill: #2e86ab; stroke: #2e86ab"/>
     <use xlink:href="#m0835d32676" x="42.686577" y="16.145645" style="fill: #2e86ab; stroke: #2e86ab"/>
     <use xlink:href="#m0835d32676" x="43.315294" y="16.145645" style="fill: #2e86ab; stroke: #2e86ab"/>
     <use xlink:href="#m0835d32676" x="43.629652" y="16.145645" style="fill: #2e86ab; stroke: #2e86ab"/>
     <use xlink:href="#m0835d32676" x="44.348185" y="16.977513" style="fill: #2e86ab; stroke: #2e86ab"/>
     <use xlink:href="#m0835d32676" x="44.887084" y="16.977513" style="fill: #2e86ab; stroke: #2e86ab"/>
     <use xlink:href="#m0835d32676" x="46.728325" y="17.818047" style="fill: #2e86ab; stroke: #2e86ab"/>
     <use xlink:href="#m0835d32676" x="48.030666" y="17.818047" style="fill: #2e86ab; stroke: #2e86ab"/>
     <use xlink:href="#m0835d32676" x="50.904797" y="17.818047" style="fill: #2e86ab; stroke: #2e86ab"/>
     <use xlink:href="#m0835d32676" x="52.027505" y="17.818047" style="fill: #2e86ab; stroke: #2e86ab"/>
     <use xlink:href="#m0835d32676" x="54.452554" y="19.535073" style="fill: #2e86ab; stroke: #2e86ab"/>
     <use xlink:href="#m0835d32676" x="54.587278" y="19.535073" style="fill: #2e86ab; stroke: #2e86ab"/>
     <use xlink:href="#m0835d32676" x="55.126178" y="19.535073" style="fill: #2e86ab; stroke: #2e86ab"/>
     <use xlink:href="#m0835d32676" x="55.754894" y="19.535073" style="fill: #2e86ab; stroke: #2e86ab"/>
     <use xlink:href="#m0835d32676" x="55.844711" y="19.535073" style="fill: #2e86ab; stroke: #2e86ab"/>
     <use xlink:href="#m0835d32676" x="55.979436" y="19.535073" style="fill: #2e86ab; stroke: #2e86ab"/>
     <use xlink:href="#m0835d32676" x="56.069253" y="19.535073" style="fill: #2e86ab; stroke: #2e86ab"/>
     <use xlink:href="#m0835d32676" x="56.159069" y="19.535073" style="fill: #2e86ab; stroke: #2e86ab"/>
     <use xlink:href="#m0835d32676" x="56.203977" y="19.535073" style="fill: #2e86ab; stroke: #2e86ab"/>
     <use xlink:href="#m0835d32676" x="56.248886" y="19.535073" style="fill: #2e86ab; stroke: #2e86ab"/>
     <use xlink:href="#m0835d32676" x="56.338702" y="19.535073" style="fill: #2e86ab; stroke: #2e86ab"/>
     <use xlink:href="#m0835d32676" x="56.383611" y="19.535073" style="fill: #2e86ab; stroke: #2e86ab"/>
     <use xlink:href="#m0835d32676" x="56.787785" y="19.535073" style="fill: #2e86ab; stroke: #2e86ab"/>
     <use xlink:href="#m0835d32676" x="56.832694" y="19.535073" style="fill: #2e86ab; stroke: #2e86ab"/>
     <use xlink:href="#m0835d32676" x="56.877602" y="19.535073" style="fill: #2e86ab; stroke: #2e86ab"/>
     <use xlink:href="#m0835d32676" x="57.326685" y="19.535073" style="fill: #2e86ab; stroke: #2e86ab"/>
     <use xlink:href="#m0835d32676" x="57.506318" y="19.535073" style="fill: #2e86ab; stroke: #2e86ab"/>
     <use xlink:href="#m0835d32676" x="58.045218" y="20.503518" style="fill: #2e86ab; stroke: #2e86ab"/>
     <use xlink:href="#m0835d32676" x="58.26976" y="20.503518" style="fill: #2e86ab; stroke: #2e86ab"/>
     <use xlink:href="#m0835d32676" x="58.314668" y="20.503518" style="fill: #2e86ab; stroke: #2e86ab"/>
     <use xlink:href="#m0835d32676" x="58.853568" y="20.503518" style="fill: #2e86ab; stroke: #2e86ab"/>
     <use xlink:href="#m0835d32676" x="59.078109" y="20.503518" style="fill: #2e86ab; stroke: #2e86ab"/>
     <use xlink:href="#m0835d32676" x="60.066092" y="20.503518" style="fill: #2e86ab; stroke: #2e86ab"/>
     <use xlink:href="#m0835d32676" x="60.155908" y="20.503518" style="fill: #2e86ab; stroke: #2e86ab"/>
     <use xlink:href="#m0835d32676" x="60.560083" y="20.503518" style="fill: #2e86ab; stroke: #2e86ab"/>
     <use xlink:href="#m0835d32676" x="60.604991" y="20.503518" style="fill: #2e86ab; stroke: #2e86ab"/>
     <use xlink:href="#m0835d32676" x="60.694808" y="20.503518" style="fill: #2e86ab; stroke: #2e86ab"/>
     <use xlink:href="#m0835d32676" x="61.054075" y="20.503518" style="fill: #2e86ab; stroke: #2e86ab"/>
     <use xlink:href="#m0835d32676" x="61.368433" y="20.503518" style="fill: #2e86ab; stroke: #2e86ab"/>
     <use xlink:href="#m0835d32676" x="61.413341" y="20.503518" style="fill: #2e86ab; stroke: #2e86ab"/>
     <use xlink:href="#m0835d32676" x="61.682791" y="20.503518" style="fill: #2e86ab; stroke: #2e86ab"/>
     <use xlink:href="#m0835d32676" x="61.862424" y="20.503518" style="fill: #2e86ab; stroke: #2e86ab"/>
     <use xlink:href="#m0835d32676" x="62.22169" y="20.503518" style="fill: #2e86ab; stroke: #2e86ab"/>
     <use xlink:href="#m0835d32676" x="62.401324" y="20.503518" style="fill: #2e86ab; stroke: #2e86ab"/>
     <use xlink:href="#m0835d32676" x="62.446232" y="20.503518" style="fill: #2e86ab; stroke: #2e86ab"/>
     <use xlink:href="#m0835d32676" x="62.625865" y="21.592183" style="fill: #2e86ab; stroke: #2e86ab"/>
     <use xlink:href="#m0835d32676" x="63.074948" y="21.592183" style="fill: #2e86ab; stroke: #2e86ab"/>
     <use xlink:href="#m0835d32676" x="63.164765" y="21.592183" style="fill: #2e86ab; stroke: #2e86ab"/>
     <use xlink:href="#m0835d32676" x="63.703665" y="21.592183" style="fill: #2e86ab; stroke: #2e86ab"/>
     <use xlink:href="#m0835d32676" x="63.883298" y="21.592183" style="fill: #2e86ab; stroke: #2e86ab"/>
     <use xlink:href="#m0835d32676" x="63.973114" y="21.592183" style="fill: #2e86ab; stroke: #2e86ab"/>
     <use xlink:href="#m0835d32676" x="64.152748" y="21.592183" style="fill: #2e86ab; stroke: #2e86ab"/>
     <use xlink:href="#m0835d32676" x="64.781464" y="21.592183" style="fill: #2e86ab; stroke: #2e86ab"/>
     <use xlink:href="#m0835d32676" x="65.320364" y="21.592183" style="fill: #2e86ab; stroke: #2e86ab"/>
     <use xlink:href="#m0835d32676" x="65.365272" y="21.592183" style="fill: #2e86ab; stroke: #2e86ab"/>
     <use xlink:href="#m0835d32676" x="65.589813" y="21.592183" style="fill: #2e86ab; stroke: #2e86ab"/>
     <use xlink:href="#m0835d32676" x="65.67963" y="21.592183" style="fill: #2e86ab; stroke: #2e86ab"/>
     <use xlink:href="#m0835d32676" x="65.724538" y="21.592183" style="fill: #2e86ab; stroke: #2e86ab"/>
     <use xlink:href="#m0835d32676" x="65.769447" y="21.592183" style="fill: #2e86ab; stroke: #2e86ab"/>
     <use xlink:href="#m0835d32676" x="66.128713" y="21.592183" style="fill: #2e86ab; stroke: #2e86ab"/>
     <use xlink:href="#m0835d32676" x="66.712521" y="21.592183" style="fill: #2e86ab; stroke: #2e86ab"/>
     <use xlink:href="#m0835d32676" x="67.386146" y="22.826575" style="fill: #2e86ab; stroke: #2e86ab"/>
     <use xlink:href="#m0835d32676" x="68.05977" y="25.31511" style="fill: #2e86ab; stroke: #2e86ab"/>
     <use xlink:href="#m0835d32676" x="68.284312" y="25.31511" style="fill: #2e86ab; stroke: #2e86ab"/>
     <use xlink:href="#m0835d32676" x="68.419037" y="25.31511" style="fill: #2e86ab; stroke: #2e86ab"/>
     <use xlink:href="#m0835d32676" x="68.463945" y="25.31511" style="fill: #2e86ab; stroke: #2e86ab"/>
     <use xlink:href="#m0835d32676" x="68.643578" y="25.31511" style="fill: #2e86ab; stroke: #2e86ab"/>
     <use xlink:href="#m0835d32676" x="68.778303" y="25.31511" style="fill: #2e86ab; stroke: #2e86ab"/>
     <use xlink:href="#m0835d32676" x="69.496836" y="25.31511" style="fill: #2e86ab; stroke: #2e86ab"/>
     <use xlink:href="#m0835d32676" x="70.664452" y="27.953815" style="fill: #2e86ab; stroke: #2e86ab"/>
     <use xlink:href="#m0835d32676" x="71.023719" y="27.953815" style="fill: #2e86ab; stroke: #2e86ab"/>
     <use xlink:href="#m0835d32676" x="71.068627" y="27.953815" style="fill: #2e86ab; stroke: #2e86ab"/>
     <use xlink:href="#m0835d32676" x="72.460784" y="29.308826" style="fill: #2e86ab; stroke: #2e86ab"/>
     <use xlink:href="#m0835d32676" x="73.673309" y="29.308826" style="fill: #2e86ab; stroke: #2e86ab"/>
     <use xlink:href="#m0835d32676" x="74.346933" y="29.308826" style="fill: #2e86ab; stroke: #2e86ab"/>
     <use xlink:href="#m0835d32676" x="74.796016" y="30.701828" style="fill: #2e86ab; stroke: #2e86ab"/>
     <use xlink:href="#m0835d32676" x="75.469641" y="30.701828" style="fill: #2e86ab; stroke: #2e86ab"/>
     <use xlink:href="#m0835d32676" x="75.514549" y="30.701828" style="fill: #2e86ab; stroke: #2e86ab"/>
     <use xlink:href="#m0835d32676" x="76.098357" y="30.701828" style="fill: #2e86ab; stroke: #2e86ab"/>
     <use xlink:href="#m0835d32676" x="76.143265" y="30.701828" style="fill: #2e86ab; stroke: #2e86ab"/>
     <use xlink:href="#m0835d32676" x="76.457624" y="30.701828" style="fill: #2e86ab; stroke: #2e86ab"/>
     <use xlink:href="#m0835d32676" x="76.996523" y="30.701828" style="fill: #2e86ab; stroke: #2e86ab"/>
     <use xlink:href="#m0835d32676" x="77.35579" y="30.701828" style="fill: #2e86ab; stroke: #2e86ab"/>
     <use xlink:href="#m0835d32676" x="77.445606" y="30.701828" style="fill: #2e86ab; stroke: #2e86ab"/>
     <use xlink:href="#m0835d32676" x="77.849781" y="30.701828" style="fill: #2e86ab; stroke: #2e86ab"/>
     <use xlink:href="#m0835d32676" x="78.433589" y="30.701828" style="fill: #2e86ab; stroke: #2e86ab"/>
     <use xlink:href="#m0835d32676" x="78.837764" y="30.701828" style="fill: #2e86ab; stroke: #2e86ab"/>
     <use xlink:href="#m0835d32676" x="79.46648" y="30.701828" style="fill: #2e86ab; stroke: #2e86ab"/>
     <use xlink:href="#m0835d32676" x="79.73593" y="30.701828" style="fill: #2e86ab; stroke: #2e86ab"/>
     <use xlink:href="#m0835d32676" x="79.915563" y="30.701828" style="fill: #2e86ab; stroke: #2e86ab"/>
     <use xlink:href="#m0835d32676" x="80.00538" y="30.701828" style="fill: #2e86ab; stroke: #2e86ab"/>
     <use xlink:href="#m0835d32676" x="80.319738" y="30.701828" style="fill: #2e86ab; stroke: #2e86ab"/>
     <use xlink:href="#m0835d32676" x="80.993362" y="30.701828" style="fill: #2e86ab; stroke: #2e86ab"/>
     <use xlink:href="#m0835d32676" x="82.071162" y="32.399048" style="fill: #2e86ab; stroke: #2e86ab"/>
     <use xlink:href="#m0835d32676" x="84.406394" y="35.833423" style="fill: #2e86ab; stroke: #2e86ab"/>
     <use xlink:href="#m0835d32676" x="84.675844" y="35.833423" style="fill: #2e86ab; stroke: #2e86ab"/>
     <use xlink:href="#m0835d32676" x="85.84346" y="37.593011" style="fill: #2e86ab; stroke: #2e86ab"/>
     <use xlink:href="#m0835d32676" x="86.696717" y="37.593011" style="fill: #2e86ab; stroke: #2e86ab"/>
     <use xlink:href="#m0835d32676" x="87.774517" y="39.397716" style="fill: #2e86ab; stroke: #2e86ab"/>
     <use xlink:href="#m0835d32676" x="88.582866" y="39.397716" style="fill: #2e86ab; stroke: #2e86ab"/>
     <use xlink:href="#m0835d32676" x="88.762499" y="39.397716" style="fill: #2e86ab; stroke: #2e86ab"/>
     <use xlink:href="#m0835d32676" x="89.481032" y="39.397716" style="fill: #2e86ab; stroke: #2e86ab"/>
     <use xlink:href="#m0835d32676" x="89.705574" y="39.397716" style="fill: #2e86ab; stroke: #2e86ab"/>
     <use xlink:href="#m0835d32676" x="90.244474" y="39.397716" style="fill: #2e86ab; stroke: #2e86ab"/>
     <use xlink:href="#m0835d32676" x="92.669522" y="41.354931" style="fill: #2e86ab; stroke: #2e86ab"/>
     <use xlink:href="#m0835d32676" x="92.894064" y="41.354931" style="fill: #2e86ab; stroke: #2e86ab"/>
     <use xlink:href="#m0835d32676" x="99.181226" y="43.369711" style="fill: #2e86ab; stroke: #2e86ab"/>
     <use xlink:href="#m0835d32676" x="100.259026" y="45.415019" style="fill: #2e86ab; stroke: #2e86ab"/>
     <use xlink:href="#m0835d32676" x="101.157192" y="47.492284" style="fill: #2e86ab; stroke: #2e86ab"/>
     <use xlink:href="#m0835d32676" x="104.92949" y="49.603054" style="fill: #2e86ab; stroke: #2e86ab"/>
     <use xlink:href="#m0835d32676" x="104.974398" y="49.603054" style="fill: #2e86ab; stroke: #2e86ab"/>
     <use xlink:href="#m0835d32676" x="105.198939" y="49.603054" style="fill: #2e86ab; stroke: #2e86ab"/>
     <use xlink:href="#m0835d32676" x="106.052197" y="49.603054" style="fill: #2e86ab; stroke: #2e86ab"/>
     <use xlink:href="#m0835d32676" x="107.983254" y="49.603054" style="fill: #2e86ab; stroke: #2e86ab"/>
     <use xlink:href="#m0835d32676" x="108.297613" y="49.603054" style="fill: #2e86ab; stroke: #2e86ab"/>
     <use xlink:href="#m0835d32676" x="108.701787" y="49.603054" style="fill: #2e86ab; stroke: #2e86ab"/>
     <use xlink:href="#m0835d32676" x="108.881421" y="49.603054" style="fill: #2e86ab; stroke: #2e86ab"/>
     <use xlink:href="#m0835d32676" x="109.734678" y="49.603054" style="fill: #2e86ab; stroke: #2e86ab"/>
     <use xlink:href="#m0835d32676" x="110.677753" y="49.603054" style="fill: #2e86ab; stroke: #2e86ab"/>
     <use xlink:href="#m0835d32676" x="111.665736" y="49.603054" style="fill: #2e86ab; stroke: #2e86ab"/>
     <use xlink:href="#m0835d32676" x="112.429177" y="49.603054" style="fill: #2e86ab; stroke: #2e86ab"/>
     <use xlink:href="#m0835d32676" x="113.237526" y="49.603054" style="fill: #2e86ab; stroke: #2e86ab"/>
     <use xlink:href="#m0835d32676" x="118.71634" y="54.967926" style="fill: #2e86ab; stroke: #2e86ab"/>
     <use xlink:href="#m0835d32676" x="119.839047" y="54.967926" style="fill: #2e86ab; stroke: #2e86ab"/>
     <use xlink:href="#m0835d32676" x="120.108497" y="54.967926" style="fill: #2e86ab; stroke: #2e86ab"/>
     <use xlink:href="#m0835d32676" x="120.737213" y="57.83751" style="fill: #2e86ab; stroke: #2e86ab"/>
     <use xlink:href="#m0835d32676" x="121.815013" y="57.83751" style="fill: #2e86ab; stroke: #2e86ab"/>
     <use xlink:href="#m0835d32676" x="122.488637" y="57.83751" style="fill: #2e86ab; stroke: #2e86ab"/>
     <use xlink:href="#m0835d32676" x="124.240061" y="57.83751" style="fill: #2e86ab; stroke: #2e86ab"/>
     <use xlink:href="#m0835d32676" x="125.497494" y="57.83751" style="fill: #2e86ab; stroke: #2e86ab"/>
     <use xlink:href="#m0835d32676" x="127.069285" y="57.83751" style="fill: #2e86ab; stroke: #2e86ab"/>
     <use xlink:href="#m0835d32676" x="127.159101" y="57.83751" style="fill: #2e86ab; stroke: #2e86ab"/>
     <use xlink:href="#m0835d32676" x="127.293826" y="57.83751" style="fill: #2e86ab; stroke: #2e86ab"/>
     <use xlink:href="#m0835d32676" x="129.808691" y="61.382289" style="fill: #2e86ab; stroke: #2e86ab"/>
     <use xlink:href="#m0835d32676" x="129.8536" y="61.382289" style="fill: #2e86ab; stroke: #2e86ab"/>
     <use xlink:href="#m0835d32676" x="130.347591" y="65.155763" style="fill: #2e86ab; stroke: #2e86ab"/>
     <use xlink:href="#m0835d32676" x="130.661949" y="65.155763" style="fill: #2e86ab; stroke: #2e86ab"/>
     <use xlink:href="#m0835d32676" x="131.42539" y="65.155763" style="fill: #2e86ab; stroke: #2e86ab"/>
     <use xlink:href="#m0835d32676" x="131.649932" y="65.155763" style="fill: #2e86ab; stroke: #2e86ab"/>
     <use xlink:href="#m0835d32676" x="134.34443" y="65.155763" style="fill: #2e86ab; stroke: #2e86ab"/>
     <use xlink:href="#m0835d32676" x="135.691679" y="65.155763" style="fill: #2e86ab; stroke: #2e86ab"/>
     <use xlink:href="#m0835d32676" x="137.398195" y="65.155763" style="fill: #2e86ab; stroke: #2e86ab"/>
     <use xlink:href="#m0835d32676" x="144.269166" y="65.155763" style="fill: #2e86ab; stroke: #2e86ab"/>
     <use xlink:href="#m0835d32676" x="146.514581" y="65.155763" style="fill: #2e86ab; stroke: #2e86ab"/>
     <use xlink:href="#m0835d32676" x="148.445638" y="65.155763" style="fill: #2e86ab; stroke: #2e86ab"/>
     <use xlink:href="#m0835d32676" x="157.517116" y="65.155763" style="fill: #2e86ab; stroke: #2e86ab"/>
     <use xlink:href="#m0835d32676" x="158.909274" y="71.113881" style="fill: #2e86ab; stroke: #2e86ab"/>
     <use xlink:href="#m0835d32676" x="164.926987" y="71.113881" style="fill: #2e86ab; stroke: #2e86ab"/>
     <use xlink:href="#m0835d32676" x="168.429835" y="77.816763" style="fill: #2e86ab; stroke: #2e86ab"/>
     <use xlink:href="#m0835d32676" x="169.238184" y="77.816763" style="fill: #2e86ab; stroke: #2e86ab"/>
     <use xlink:href="#m0835d32676" x="172.741032" y="85.550859" style="fill: #2e86ab; stroke: #2e86ab"/>
     <use xlink:href="#m0835d32676" x="174.851722" y="85.550859" style="fill: #2e86ab; stroke: #2e86ab"/>
     <use xlink:href="#m0835d32676" x="190.704354" y="94.831773" style="fill: #2e86ab; stroke: #2e86ab"/>
     <use xlink:href="#m0835d32676" x="193.21922" y="94.831773" style="fill: #2e86ab; stroke: #2e86ab"/>
     <use xlink:href="#m0835d32676" x="193.758119" y="94.831773" style="fill: #2e86ab; stroke: #2e86ab"/>
     <use xlink:href="#m0835d32676" x="211.047817" y="94.831773" style="fill: #2e86ab; stroke: #2e86ab"/>
     <use xlink:href="#m0835d32676" x="211.856167" y="94.831773" style="fill: #2e86ab; stroke: #2e86ab"/>
     <use xlink:href="#m0835d32676" x="218.412779" y="94.831773" style="fill: #2e86ab; stroke: #2e86ab"/>
     <use xlink:href="#m0835d32676" x="262.692369" y="94.831773" style="fill: #2e86ab; stroke: #2e86ab"/>
     <use xlink:href="#m0835d32676" x="266.015584" y="94.831773" style="fill: #2e86ab; stroke: #2e86ab"/>
     <use xlink:href="#m0835d32676" x="266.419759" y="94.831773" style="fill: #2e86ab; stroke: #2e86ab"/>
    </g>
   </g>
   <g id="line2d_26">
    <path d="M 39.632812 16.145645 
L 43.67456 16.145645 
L 43.67456 16.977513 
L 46.189425 16.977513 
L 46.189425 17.818047 
L 52.117322 17.818047 
L 52.117322 18.67656 
L 54.048379 18.67656 
L 54.048379 19.535073 
L 57.865585 19.535073 
L 57.865585 20.503518 
L 62.536049 20.503518 
L 62.536049 21.592183 
L 62.625865 21.592183 
L 67.341237 21.592183 
L 67.341237 22.826575 
L 67.386146 22.826575 
L 67.610687 22.826575 
L 67.610687 24.070843 
L 67.925045 24.070843 
L 67.925045 25.31511 
L 69.901011 25.31511 
L 69.901011 26.634463 
L 70.619544 26.634463 
L 70.619544 27.953815 
L 70.664452 27.953815 
L 71.921885 27.953815 
L 71.921885 29.308826 
L 74.571475 29.308826 
L 74.571475 30.701828 
L 81.891529 30.701828 
L 81.891529 32.399048 
L 82.250795 32.399048 
L 82.250795 34.116236 
L 83.373503 34.116236 
L 83.373503 35.833423 
L 84.76566 35.833423 
L 84.76566 37.593011 
L 87.41525 37.593011 
L 87.41525 39.397716 
L 91.861173 39.397716 
L 91.861173 41.354931 
L 96.666361 41.354931 
L 96.666361 43.369711 
L 100.169209 43.369711 
L 100.169209 45.415019 
L 100.259026 45.415019 
L 101.022467 45.415019 
L 101.022467 47.492284 
L 103.402607 47.492284 
L 103.402607 49.603054 
L 114.629684 49.603054 
L 114.629684 52.28549 
L 116.785282 52.28549 
L 116.785282 54.967926 
L 120.647397 54.967926 
L 120.647397 57.83751 
L 120.737213 57.83751 
L 128.147084 57.83751 
L 128.147084 61.382289 
L 130.347591 61.382289 
L 130.347591 65.155763 
L 158.235649 65.155763 
L 158.235649 71.113881 
L 166.633502 71.113881 
L 166.633502 77.816763 
L 172.291949 77.816763 
L 172.291949 85.550859 
L 182.575951 85.550859 
L 182.575951 94.831773 
L 266.419759 94.831773 
L 266.419759 94.831773 
" clip-path="url(#pc08949d245)" style="fill: none; stroke: #2e86ab; stroke-width: 2; stroke-linecap: round"/>
   </g>
   <g id="line2d_27">
    <defs>
     <path id="mee5289f0db" d="M -3 3 
L 3 -3 
M -3 -3 
L 3 3 
" style="stroke: #e63946"/>
    </defs>
    <g clip-path="url(#pc08949d245)">
     <use xlink:href="#mee5289f0db" x="36.758681" y="15.350476" style="fill: #e63946; stroke: #e63946"/>
     <use xlink:href="#mee5289f0db" x="39.632812" y="16.145645" style="fill: #e63946; stroke: #e63946"/>
     <use xlink:href="#mee5289f0db" x="40.21662" y="16.145645" style="fill: #e63946; stroke: #e63946"/>
     <use xlink:href="#mee5289f0db" x="40.396254" y="16.145645" style="fill: #e63946; stroke: #e63946"/>
     <use xlink:href="#mee5289f0db" x="40.530979" y="17.759718" style="fill: #e63946; stroke: #e63946"/>
     <use xlink:href="#mee5289f0db" x="40.890245" y="17.759718" style="fill: #e63946; stroke: #e63946"/>
     <use xlink:href="#mee5289f0db" x="41.29442" y="17.759718" style="fill: #e63946; stroke: #e63946"/>
     <use xlink:href="#mee5289f0db" x="41.698595" y="17.759718" style="fill: #e63946; stroke: #e63946"/>
     <use xlink:href="#mee5289f0db" x="42.641669" y="21.877674" style="fill: #e63946; stroke: #e63946"/>
     <use xlink:href="#mee5289f0db" x="43.40511" y="25.189469" style="fill: #e63946; stroke: #e63946"/>
     <use xlink:href="#mee5289f0db" x="43.899102" y="26.854366" style="fill: #e63946; stroke: #e63946"/>
     <use xlink:href="#mee5289f0db" x="44.572726" y="29.365509" style="fill: #e63946; stroke: #e63946"/>
     <use xlink:href="#mee5289f0db" x="45.425984" y="31.89084" style="fill: #e63946; stroke: #e63946"/>
     <use xlink:href="#mee5289f0db" x="46.952866" y="37.817337" style="fill: #e63946; stroke: #e63946"/>
     <use xlink:href="#mee5289f0db" x="48.120482" y="41.224432" style="fill: #e63946; stroke: #e63946"/>
     <use xlink:href="#mee5289f0db" x="49.692273" y="49.795405" style="fill: #e63946; stroke: #e63946"/>
     <use xlink:href="#mee5289f0db" x="52.790946" y="65.326699" style="fill: #e63946; stroke: #e63946"/>
     <use xlink:href="#mee5289f0db" x="54.766912" y="73.152081" style="fill: #e63946; stroke: #e63946"/>
     <use xlink:href="#mee5289f0db" x="55.844711" y="76.659012" style="fill: #e63946; stroke: #e63946"/>
     <use xlink:href="#mee5289f0db" x="56.024344" y="78.427724" style="fill: #e63946; stroke: #e63946"/>
     <use xlink:href="#mee5289f0db" x="56.518336" y="80.212229" style="fill: #e63946; stroke: #e63946"/>
     <use xlink:href="#mee5289f0db" x="56.563244" y="80.212229" style="fill: #e63946; stroke: #e63946"/>
     <use xlink:href="#mee5289f0db" x="56.653061" y="80.212229" style="fill: #e63946; stroke: #e63946"/>
     <use xlink:href="#mee5289f0db" x="57.102144" y="83.881305" style="fill: #e63946; stroke: #e63946"/>
     <use xlink:href="#mee5289f0db" x="57.506318" y="85.733828" style="fill: #e63946; stroke: #e63946"/>
     <use xlink:href="#mee5289f0db" x="57.551227" y="85.733828" style="fill: #e63946; stroke: #e63946"/>
     <use xlink:href="#mee5289f0db" x="58.26976" y="91.404818" style="fill: #e63946; stroke: #e63946"/>
     <use xlink:href="#mee5289f0db" x="58.718843" y="92.36037" style="fill: #e63946; stroke: #e63946"/>
     <use xlink:href="#mee5289f0db" x="58.853568" y="92.36037" style="fill: #e63946; stroke: #e63946"/>
     <use xlink:href="#mee5289f0db" x="60.290633" y="98.223981" style="fill: #e63946; stroke: #e63946"/>
     <use xlink:href="#mee5289f0db" x="60.560083" y="98.223981" style="fill: #e63946; stroke: #e63946"/>
     <use xlink:href="#mee5289f0db" x="60.91935" y="101.229082" style="fill: #e63946; stroke: #e63946"/>
     <use xlink:href="#mee5289f0db" x="60.964258" y="101.229082" style="fill: #e63946; stroke: #e63946"/>
     <use xlink:href="#mee5289f0db" x="61.188799" y="101.229082" style="fill: #e63946; stroke: #e63946"/>
     <use xlink:href="#mee5289f0db" x="61.233708" y="101.229082" style="fill: #e63946; stroke: #e63946"/>
     <use xlink:href="#mee5289f0db" x="61.862424" y="104.398845" style="fill: #e63946; stroke: #e63946"/>
     <use xlink:href="#mee5289f0db" x="63.703665" y="110.83025" style="fill: #e63946; stroke: #e63946"/>
     <use xlink:href="#mee5289f0db" x="63.83839" y="111.91944" style="fill: #e63946; stroke: #e63946"/>
     <use xlink:href="#mee5289f0db" x="64.871281" y="117.456153" style="fill: #e63946; stroke: #e63946"/>
     <use xlink:href="#mee5289f0db" x="65.320364" y="119.711851" style="fill: #e63946; stroke: #e63946"/>
     <use xlink:href="#mee5289f0db" x="66.038897" y="123.161742" style="fill: #e63946; stroke: #e63946"/>
     <use xlink:href="#mee5289f0db" x="67.026879" y="127.859466" style="fill: #e63946; stroke: #e63946"/>
     <use xlink:href="#mee5289f0db" x="68.194495" y="130.264254" style="fill: #e63946; stroke: #e63946"/>
     <use xlink:href="#mee5289f0db" x="68.374128" y="130.264254" style="fill: #e63946; stroke: #e63946"/>
     <use xlink:href="#mee5289f0db" x="68.733395" y="130.264254" style="fill: #e63946; stroke: #e63946"/>
     <use xlink:href="#mee5289f0db" x="73.314042" y="141.963219" style="fill: #e63946; stroke: #e63946"/>
     <use xlink:href="#mee5289f0db" x="73.808033" y="141.963219" style="fill: #e63946; stroke: #e63946"/>
     <use xlink:href="#mee5289f0db" x="75.065466" y="141.963219" style="fill: #e63946; stroke: #e63946"/>
     <use xlink:href="#mee5289f0db" x="89.391216" y="157.977803" style="fill: #e63946; stroke: #e63946"/>
     <use xlink:href="#mee5289f0db" x="92.355164" y="157.977803" style="fill: #e63946; stroke: #e63946"/>
     <use xlink:href="#mee5289f0db" x="94.376038" y="157.977803" style="fill: #e63946; stroke: #e63946"/>
     <use xlink:href="#mee5289f0db" x="113.686609" y="161.683657" style="fill: #e63946; stroke: #e63946"/>
     <use xlink:href="#mee5289f0db" x="116.336199" y="161.683657" style="fill: #e63946; stroke: #e63946"/>
     <use xlink:href="#mee5289f0db" x="116.605649" y="161.683657" style="fill: #e63946; stroke: #e63946"/>
     <use xlink:href="#mee5289f0db" x="130.527224" y="164.463047" style="fill: #e63946; stroke: #e63946"/>
     <use xlink:href="#mee5289f0db" x="142.607559" y="164.463047" style="fill: #e63946; stroke: #e63946"/>
     <use xlink:href="#mee5289f0db" x="143.460816" y="164.463047" style="fill: #e63946; stroke: #e63946"/>
     <use xlink:href="#mee5289f0db" x="145.257149" y="164.463047" style="fill: #e63946; stroke: #e63946"/>
     <use xlink:href="#mee5289f0db" x="161.019964" y="164.463047" style="fill: #e63946; stroke: #e63946"/>
    </g>
   </g>
   <g id="line2d_28">
    <path d="M 36.758681 15.350476 
L 39.632812 15.350476 
L 39.632812 16.145645 
L 40.48607 16.145645 
L 40.530979 17.759718 
L 42.147678 17.759718 
L 42.192586 20.230491 
L 42.417127 20.230491 
L 42.417127 21.054083 
L 42.551852 21.054083 
L 42.551852 21.877674 
L 42.641669 21.877674 
L 42.686577 21.877674 
L 42.731486 23.533571 
L 43.045844 23.533571 
L 43.045844 24.36152 
L 43.270385 24.36152 
L 43.270385 25.189469 
L 43.584743 25.189469 
L 43.584743 26.021918 
L 43.809285 26.021918 
L 43.809285 26.854366 
L 43.899102 26.854366 
L 44.033827 26.854366 
L 44.078735 28.528461 
L 44.393093 28.528461 
L 44.393093 29.365509 
L 44.931993 29.365509 
L 44.931993 30.207286 
L 45.111626 30.207286 
L 45.111626 31.049063 
L 45.381076 31.049063 
L 45.381076 31.89084 
L 45.425984 31.89084 
L 45.515801 31.89084 
L 45.515801 32.737482 
L 46.009792 32.737482 
L 46.099609 34.430767 
L 46.32415 34.430767 
L 46.32415 35.27741 
L 46.548692 35.27741 
L 46.548692 36.970695 
L 46.952866 36.970695 
L 46.952866 37.817337 
L 47.177408 37.817337 
L 47.177408 39.520885 
L 47.401949 39.520885 
L 47.401949 40.372658 
L 47.806124 40.372658 
L 47.806124 41.224432 
L 48.210299 41.224432 
L 48.210299 42.08153 
L 48.614474 42.08153 
L 48.614474 43.795724 
L 48.839015 43.795724 
L 48.883924 45.509919 
L 49.108465 45.509919 
L 49.198282 47.224113 
L 49.333007 47.224113 
L 49.333007 48.081211 
L 49.51264 48.081211 
L 49.51264 48.938308 
L 49.647365 48.938308 
L 49.647365 49.795405 
L 49.692273 49.795405 
L 50.05154 49.795405 
L 50.05154 51.521104 
L 50.276081 51.521104 
L 50.276081 52.383954 
L 50.680256 52.383954 
L 50.770072 54.109653 
L 50.859889 54.109653 
L 50.904797 55.835353 
L 50.994614 55.835353 
L 51.039522 58.423901 
L 51.219155 58.423901 
L 51.264064 60.149601 
L 51.35388 60.149601 
L 51.398789 61.8753 
L 51.847872 61.8753 
L 51.937688 65.326699 
L 52.835855 65.326699 
L 52.835855 67.065672 
L 53.240029 67.065672 
L 53.240029 67.935159 
L 53.599296 67.935159 
L 53.599296 68.804646 
L 54.183104 68.804646 
L 54.183104 70.54362 
L 54.362737 70.54362 
L 54.407645 72.282594 
L 54.54237 72.282594 
L 54.54237 73.152081 
L 54.901637 73.152081 
L 54.901637 74.028814 
L 55.08127 74.028814 
L 55.08127 75.782279 
L 55.620169 75.782279 
L 55.620169 76.659012 
L 55.889619 76.659012 
L 55.979436 78.427724 
L 56.248886 78.427724 
L 56.248886 80.212229 
L 56.92251 80.212229 
L 56.967419 82.964036 
L 57.057235 82.964036 
L 57.057235 83.881305 
L 57.102144 83.881305 
L 57.19196 83.881305 
L 57.281777 85.733828 
L 57.596135 85.733828 
L 57.596135 86.678993 
L 57.955401 86.678993 
L 57.955401 87.624158 
L 58.179943 87.624158 
L 58.26976 91.404818 
L 58.404484 91.404818 
L 58.404484 92.36037 
L 59.123017 92.36037 
L 59.123017 93.337638 
L 59.257742 93.337638 
L 59.257742 94.314907 
L 59.976275 94.314907 
L 60.066092 97.246712 
L 60.290633 97.246712 
L 60.290633 98.223981 
L 60.604991 98.223981 
L 60.604991 100.227381 
L 60.91935 100.227381 
L 60.91935 101.229082 
L 60.964258 101.229082 
L 61.458249 101.229082 
L 61.458249 102.28567 
L 61.727699 102.28567 
L 61.727699 103.342258 
L 61.862424 103.342258 
L 61.862424 104.398845 
L 62.446232 104.398845 
L 62.536049 106.542647 
L 63.074948 106.542647 
L 63.074948 107.614548 
L 63.434215 107.614548 
L 63.434215 108.686449 
L 63.613848 108.686449 
L 63.703665 110.83025 
L 63.83839 110.83025 
L 63.83839 111.91944 
L 64.062931 111.91944 
L 64.062931 114.134125 
L 64.197656 114.134125 
L 64.197656 116.34881 
L 64.332381 116.34881 
L 64.332381 117.456153 
L 65.006005 117.456153 
L 65.006005 119.711851 
L 65.455089 119.711851 
L 65.544905 122.011779 
L 65.634722 122.011779 
L 65.634722 123.161742 
L 66.128713 123.161742 
L 66.128713 124.336173 
L 66.263438 124.336173 
L 66.263438 125.510604 
L 66.532888 125.510604 
L 66.532888 126.685035 
L 66.667613 126.685035 
L 66.667613 127.859466 
L 67.116696 127.859466 
L 67.116696 129.06186 
L 67.251421 129.06186 
L 67.251421 130.264254 
L 68.86812 130.264254 
L 68.86812 131.564139 
L 69.496836 131.564139 
L 69.496836 132.864024 
L 70.170461 132.864024 
L 70.170461 134.163909 
L 70.395002 134.163909 
L 70.395002 135.463794 
L 70.888994 135.463794 
L 70.888994 136.763679 
L 71.338077 136.763679 
L 71.338077 138.063564 
L 71.607526 138.063564 
L 71.607526 139.363449 
L 72.595509 139.363449 
L 72.595509 140.663334 
L 72.820051 140.663334 
L 72.820051 141.963219 
L 75.334916 141.963219 
L 75.334916 143.41909 
L 76.412715 143.41909 
L 76.412715 144.874961 
L 76.592348 144.874961 
L 76.592348 146.330833 
L 77.131248 146.330833 
L 77.131248 147.786704 
L 78.209047 147.786704 
L 78.209047 149.242575 
L 78.433589 149.242575 
L 78.433589 150.698446 
L 80.229921 150.698446 
L 80.229921 152.154318 
L 84.720752 152.154318 
L 84.720752 153.610189 
L 84.900385 153.610189 
L 84.900385 155.06606 
L 86.157818 155.06606 
L 86.157818 156.521931 
L 87.999058 156.521931 
L 87.999058 157.977803 
L 103.537332 157.977803 
L 103.537332 159.83073 
L 109.510137 159.83073 
L 109.510137 161.683657 
L 123.566437 161.683657 
L 123.566437 164.463047 
L 161.019964 164.463047 
L 161.019964 164.463047 
" clip-path="url(#pc08949d245)" style="fill: none; stroke: #e63946; stroke-width: 2; stroke-linecap: round"/>
   </g>
   <g id="patch_3">
    <path d="M 39.632812 178.36 
L 39.632812 7.2 
" style="fill: none; stroke: #262626; stroke-width: 0.8; stroke-linejoin: miter; stroke-linecap: square"/>
   </g>
   <g id="patch_4">
    <path d="M 277.902813 178.36 
L 277.902813 7.2 
" style="fill: none; stroke: #262626; stroke-width: 0.8; stroke-linejoin: miter; stroke-linecap: square"/>
   </g>
   <g id="patch_5">
    <path d="M 39.632812 178.36 
L 277.902813 178.36 
" style="fill: none; stroke: #262626; stroke-width: 0.8; stroke-linejoin: miter; stroke-linecap: square"/>
   </g>
   <g id="patch_6">
    <path d="M 39.632812 7.2 
L 277.902813 7.2 
" style="fill: none; stroke: #262626; stroke-width: 0.8; stroke-linejoin: miter; stroke-linecap: square"/>
   </g>
   <g id="text_15">
    <g id="patch_7">
     <path d="M 229.696163 25.9005 
L 273.137413 25.9005 
Q 275.537413 25.9005 275.537413 23.5005 
L 275.537413 15.758 
Q 275.537413 13.358 273.137413 13.358 
L 229.696163 13.358 
Q 227.296163 13.358 227.296163 15.758 
L 227.296163 23.5005 
Q 227.296163 25.9005 229.696163 25.9005 
z
" style="fill: #ffffff; opacity: 0.8; stroke: #ffffff; stroke-linejoin: miter"/>
    </g>
    <!-- P &lt; 0.001 -->
    <g style="fill: #262626" transform="translate(229.696163 21.83675) scale(0.08 -0.08)">
     <defs>
      <path id="DejaVuSans-Bold-50" d="M 588 4666 
L 2584 4666 
Q 3475 4666 3951 4270 
Q 4428 3875 4428 3144 
Q 4428 2409 3951 2014 
Q 3475 1619 2584 1619 
L 1791 1619 
L 1791 0 
L 588 0 
L 588 4666 
z
M 1791 3794 
L 1791 2491 
L 2456 2491 
Q 2806 2491 2997 2661 
Q 3188 2831 3188 3144 
Q 3188 3456 2997 3625 
Q 2806 3794 2456 3794 
L 1791 3794 
z
" transform="scale(0.015625)"/>
      <path id="DejaVuSans-Bold-20" transform="scale(0.015625)"/>
      <path id="DejaVuSans-Bold-3c" d="M 4684 3041 
L 1672 2003 
L 4684 972 
L 4684 191 
L 678 1638 
L 678 2375 
L 4684 3822 
L 4684 3041 
z
" transform="scale(0.015625)"/>
      <path id="DejaVuSans-Bold-30" d="M 2944 2338 
Q 2944 3213 2780 3570 
Q 2616 3928 2228 3928 
Q 1841 3928 1675 3570 
Q 1509 3213 1509 2338 
Q 1509 1453 1675 1090 
Q 1841 728 2228 728 
Q 2613 728 2778 1090 
Q 2944 1453 2944 2338 
z
M 4147 2328 
Q 4147 1169 3647 539 
Q 3147 -91 2228 -91 
Q 1306 -91 806 539 
Q 306 1169 306 2328 
Q 306 3491 806 4120 
Q 1306 4750 2228 4750 
Q 3147 4750 3647 4120 
Q 4147 3491 4147 2328 
z
" transform="scale(0.015625)"/>
      <path id="DejaVuSans-Bold-2e" d="M 653 1209 
L 1778 1209 
L 1778 0 
L 653 0 
L 653 1209 
z
" transform="scale(0.015625)"/>
      <path id="DejaVuSans-Bold-31" d="M 750 831 
L 1813 831 
L 1813 3847 
L 722 3622 
L 722 4441 
L 1806 4666 
L 2950 4666 
L 2950 831 
L 4013 831 
L 4013 0 
L 750 0 
L 750 831 
z
" transform="scale(0.015625)"/>
     </defs>
     <use xlink:href="#DejaVuSans-Bold-50"/>
     <use xlink:href="#DejaVuSans-Bold-20" transform="translate(73.291016 0)"/>
     <use xlink:href="#DejaVuSans-Bold-3c" transform="translate(108.105469 0)"/>
     <use xlink:href="#DejaVuSans-Bold-20" transform="translate(191.894531 0)"/>
     <use xlink:href="#DejaVuSans-Bold-30" transform="translate(226.708984 0)"/>
     <use xlink:href="#DejaVuSans-Bold-2e" transform="translate(296.289062 0)"/>
     <use xlink:href="#DejaVuSans-Bold-30" transform="translate(334.277344 0)"/>
     <use xlink:href="#DejaVuSans-Bold-30" transform="translate(403.857422 0)"/>
     <use xlink:href="#DejaVuSans-Bold-31" transform="translate(473.4375 0)"/>
    </g>
   </g>
  </g>
 </g>
 <defs>
  <clipPath id="pc08949d245">
   <rect x="39.632812" y="7.2" width="238.27" height="171.16"/>
  </clipPath>
 </defs>
</svg>
