<?xml version="1.0" encoding="utf-8" standalone="no"?>
<!DOCTYPE svg PUBLIC "-//W3C//DTD SVG 1.1//EN"
  "http://www.w3.org/Graphics/SVG/1.1/DTD/svg11.dtd">
<svg xmlns:xlink="http://www.w3.org/1999/xlink" width="285.102812pt" height="213.012812pt" viewBox="0 0 285.102812 213.012812" xmlns="http://www.w3.org/2000/svg" version="1.1">
 <metadata>
  <rdf:RDF xmlns:dc="http://purl.org/dc/elements/1.1/" xmlns:cc="http://creativecommons.org/ns#" xmlns:rdf="http://www.w3.org/1999/02/22-rdf-syntax-ns#">
   <cc:Work>
    <dc:type rdf:resource="http://purl.org/dc/dcmitype/StillImage"/>
    <dc:date>2025-07-12T20:17:36.278883</dc:date>
    <dc:format>image/svg+xml</dc:format>
    <dc:creator>
     <cc:Agent>
      <dc:title>Matplotlib v3.10.3, https://matplotlib.org/</dc:title>
     </cc:Agent>
    </dc:creator>
   </cc:Work>
  </rdf:RDF>
 </metadata>
 <defs>
  <style type="text/css">*{stroke-linejoin: round; stroke-linecap: butt}</style>
 </defs>
 <g id="figure_1">
  <g id="patch_1">
   <path d="M 0 213.012812 
L 285.102812 213.012812 
L 285.102812 0 
L 0 0 
L 0 213.012812 
z
" style="fill: none"/>
  </g>
  <g id="axes_1">
   <g id="patch_2">
    <path d="M 39.632812 178.36 
L 277.902813 178.36 
L 277.902813 7.2 
L 39.632812 7.2 
L 39.632812 178.36 
z
" style="fill: none"/>
   </g>
   <g id="matplotlib.axis_1">
    <g id="xtick_1">
     <g id="line2d_1">
      <path d="M 39.632812 178.36 
L 39.632812 7.2 
" clip-path="url(#p976e98014e)" style="fill: none; stroke: #cccccc; stroke-opacity: 0.3; stroke-width: 0.5; stroke-linecap: round"/>
     </g>
     <g id="line2d_2">
      <defs>
       <path id="m84ea463bb2" d="M 0 0 
L 0 3.5 
" style="stroke: #262626; stroke-width: 0.8"/>
      </defs>
      <g>
       <use xlink:href="#m84ea463bb2" x="39.632812" y="178.36" style="fill: #262626; stroke: #262626; stroke-width: 0.8"/>
      </g>
     </g>
     <g id="text_1">
      <!-- 0 -->
      <g style="fill: #262626" transform="translate(37.087812 191.43875) scale(0.08 -0.08)">
       <defs>
        <path id="DejaVuSans-30" d="M 2034 4250 
Q 1547 4250 1301 3770 
Q 1056 3291 1056 2328 
Q 1056 1369 1301 889 
Q 1547 409 2034 409 
Q 2525 409 2770 889 
Q 3016 1369 3016 2328 
Q 3016 3291 2770 3770 
Q 2525 4250 2034 4250 
z
M 2034 4750 
Q 2819 4750 3233 4129 
Q 3647 3509 3647 2328 
Q 3647 1150 3233 529 
Q 2819 -91 2034 -91 
Q 1250 -91 836 529 
Q 422 1150 422 2328 
Q 422 3509 836 4129 
Q 1250 4750 2034 4750 
z
" transform="scale(0.015625)"/>
       </defs>
       <use xlink:href="#DejaVuSans-30"/>
      </g>
     </g>
    </g>
    <g id="xtick_2">
     <g id="line2d_3">
      <path d="M 84.541119 178.36 
L 84.541119 7.2 
" clip-path="url(#p976e98014e)" style="fill: none; stroke: #cccccc; stroke-opacity: 0.3; stroke-width: 0.5; stroke-linecap: round"/>
     </g>
     <g id="line2d_4">
      <g>
       <use xlink:href="#m84ea463bb2" x="84.541119" y="178.36" style="fill: #262626; stroke: #262626; stroke-width: 0.8"/>
      </g>
     </g>
     <g id="text_2">
      <!-- 1000 -->
      <g style="fill: #262626" transform="translate(74.361119 191.43875) scale(0.08 -0.08)">
       <defs>
        <path id="DejaVuSans-31" d="M 794 531 
L 1825 531 
L 1825 4091 
L 703 3866 
L 703 4441 
L 1819 4666 
L 2450 4666 
L 2450 531 
L 3481 531 
L 3481 0 
L 794 0 
L 794 531 
z
" transform="scale(0.015625)"/>
       </defs>
       <use xlink:href="#DejaVuSans-31"/>
       <use xlink:href="#DejaVuSans-30" transform="translate(63.623047 0)"/>
       <use xlink:href="#DejaVuSans-30" transform="translate(127.246094 0)"/>
       <use xlink:href="#DejaVuSans-30" transform="translate(190.869141 0)"/>
      </g>
     </g>
    </g>
    <g id="xtick_3">
     <g id="line2d_5">
      <path d="M 129.449425 178.36 
L 129.449425 7.2 
" clip-path="url(#p976e98014e)" style="fill: none; stroke: #cccccc; stroke-opacity: 0.3; stroke-width: 0.5; stroke-linecap: round"/>
     </g>
     <g id="line2d_6">
      <g>
       <use xlink:href="#m84ea463bb2" x="129.449425" y="178.36" style="fill: #262626; stroke: #262626; stroke-width: 0.8"/>
      </g>
     </g>
     <g id="text_3">
      <!-- 2000 -->
      <g style="fill: #262626" transform="translate(119.269425 191.43875) scale(0.08 -0.08)">
       <defs>
        <path id="DejaVuSans-32" d="M 1228 531 
L 3431 531 
L 3431 0 
L 469 0 
L 469 531 
Q 828 903 1448 1529 
Q 2069 2156 2228 2338 
Q 2531 2678 2651 2914 
Q 2772 3150 2772 3378 
Q 2772 3750 2511 3984 
Q 2250 4219 1831 4219 
Q 1534 4219 1204 4116 
Q 875 4013 500 3803 
L 500 4441 
Q 881 4594 1212 4672 
Q 1544 4750 1819 4750 
Q 2544 4750 2975 4387 
Q 3406 4025 3406 3419 
Q 3406 3131 3298 2873 
Q 3191 2616 2906 2266 
Q 2828 2175 2409 1742 
Q 1991 1309 1228 531 
z
" transform="scale(0.015625)"/>
       </defs>
       <use xlink:href="#DejaVuSans-32"/>
       <use xlink:href="#DejaVuSans-30" transform="translate(63.623047 0)"/>
       <use xlink:href="#DejaVuSans-30" transform="translate(127.246094 0)"/>
       <use xlink:href="#DejaVuSans-30" transform="translate(190.869141 0)"/>
      </g>
     </g>
    </g>
    <g id="xtick_4">
     <g id="line2d_7">
      <path d="M 174.357731 178.36 
L 174.357731 7.2 
" clip-path="url(#p976e98014e)" style="fill: none; stroke: #cccccc; stroke-opacity: 0.3; stroke-width: 0.5; stroke-linecap: round"/>
     </g>
     <g id="line2d_8">
      <g>
       <use xlink:href="#m84ea463bb2" x="174.357731" y="178.36" style="fill: #262626; stroke: #262626; stroke-width: 0.8"/>
      </g>
     </g>
     <g id="text_4">
      <!-- 3000 -->
      <g style="fill: #262626" transform="translate(164.177731 191.43875) scale(0.08 -0.08)">
       <defs>
        <path id="DejaVuSans-33" d="M 2597 2516 
Q 3050 2419 3304 2112 
Q 3559 1806 3559 1356 
Q 3559 666 3084 287 
Q 2609 -91 1734 -91 
Q 1441 -91 1130 -33 
Q 819 25 488 141 
L 488 750 
Q 750 597 1062 519 
Q 1375 441 1716 441 
Q 2309 441 2620 675 
Q 2931 909 2931 1356 
Q 2931 1769 2642 2001 
Q 2353 2234 1838 2234 
L 1294 2234 
L 1294 2753 
L 1863 2753 
Q 2328 2753 2575 2939 
Q 2822 3125 2822 3475 
Q 2822 3834 2567 4026 
Q 2313 4219 1838 4219 
Q 1578 4219 1281 4162 
Q 984 4106 628 3988 
L 628 4550 
Q 988 4650 1302 4700 
Q 1616 4750 1894 4750 
Q 2613 4750 3031 4423 
Q 3450 4097 3450 3541 
Q 3450 3153 3228 2886 
Q 3006 2619 2597 2516 
z
" transform="scale(0.015625)"/>
       </defs>
       <use xlink:href="#DejaVuSans-33"/>
       <use xlink:href="#DejaVuSans-30" transform="translate(63.623047 0)"/>
       <use xlink:href="#DejaVuSans-30" transform="translate(127.246094 0)"/>
       <use xlink:href="#DejaVuSans-30" transform="translate(190.869141 0)"/>
      </g>
     </g>
    </g>
    <g id="xtick_5">
     <g id="line2d_9">
      <path d="M 219.266037 178.36 
L 219.266037 7.2 
" clip-path="url(#p976e98014e)" style="fill: none; stroke: #cccccc; stroke-opacity: 0.3; stroke-width: 0.5; stroke-linecap: round"/>
     </g>
     <g id="line2d_10">
      <g>
       <use xlink:href="#m84ea463bb2" x="219.266037" y="178.36" style="fill: #262626; stroke: #262626; stroke-width: 0.8"/>
      </g>
     </g>
     <g id="text_5">
      <!-- 4000 -->
      <g style="fill: #262626" transform="translate(209.086037 191.43875) scale(0.08 -0.08)">
       <defs>
        <path id="DejaVuSans-34" d="M 2419 4116 
L 825 1625 
L 2419 1625 
L 2419 4116 
z
M 2253 4666 
L 3047 4666 
L 3047 1625 
L 3713 1625 
L 3713 1100 
L 3047 1100 
L 3047 0 
L 2419 0 
L 2419 1100 
L 313 1100 
L 313 1709 
L 2253 4666 
z
" transform="scale(0.015625)"/>
       </defs>
       <use xlink:href="#DejaVuSans-34"/>
       <use xlink:href="#DejaVuSans-30" transform="translate(63.623047 0)"/>
       <use xlink:href="#DejaVuSans-30" transform="translate(127.246094 0)"/>
       <use xlink:href="#DejaVuSans-30" transform="translate(190.869141 0)"/>
      </g>
     </g>
    </g>
    <g id="xtick_6">
     <g id="line2d_11">
      <path d="M 264.174343 178.36 
L 264.174343 7.2 
" clip-path="url(#p976e98014e)" style="fill: none; stroke: #cccccc; stroke-opacity: 0.3; stroke-width: 0.5; stroke-linecap: round"/>
     </g>
     <g id="line2d_12">
      <g>
       <use xlink:href="#m84ea463bb2" x="264.174343" y="178.36" style="fill: #262626; stroke: #262626; stroke-width: 0.8"/>
      </g>
     </g>
     <g id="text_6">
      <!-- 5000 -->
      <g style="fill: #262626" transform="translate(253.994343 191.43875) scale(0.08 -0.08)">
       <defs>
        <path id="DejaVuSans-35" d="M 691 4666 
L 3169 4666 
L 3169 4134 
L 1269 4134 
L 1269 2991 
Q 1406 3038 1543 3061 
Q 1681 3084 1819 3084 
Q 2600 3084 3056 2656 
Q 3513 2228 3513 1497 
Q 3513 744 3044 326 
Q 2575 -91 1722 -91 
Q 1428 -91 1123 -41 
Q 819 9 494 109 
L 494 744 
Q 775 591 1075 516 
Q 1375 441 1709 441 
Q 2250 441 2565 725 
Q 2881 1009 2881 1497 
Q 2881 1984 2565 2268 
Q 2250 2553 1709 2553 
Q 1456 2553 1204 2497 
Q 953 2441 691 2322 
L 691 4666 
z
" transform="scale(0.015625)"/>
       </defs>
       <use xlink:href="#DejaVuSans-35"/>
       <use xlink:href="#DejaVuSans-30" transform="translate(63.623047 0)"/>
       <use xlink:href="#DejaVuSans-30" transform="translate(127.246094 0)"/>
       <use xlink:href="#DejaVuSans-30" transform="translate(190.869141 0)"/>
      </g>
     </g>
    </g>
    <g id="text_7">
     <!-- Time (days) -->
     <g style="fill: #262626" transform="translate(132.193906 203.941094) scale(0.09 -0.09)">
      <defs>
       <path id="DejaVuSans-54" d="M -19 4666 
L 3928 4666 
L 3928 4134 
L 2272 4134 
L 2272 0 
L 1638 0 
L 1638 4134 
L -19 4134 
L -19 4666 
z
" transform="scale(0.015625)"/>
       <path id="DejaVuSans-69" d="M 603 3500 
L 1178 3500 
L 1178 0 
L 603 0 
L 603 3500 
z
M 603 4863 
L 1178 4863 
L 1178 4134 
L 603 4134 
L 603 4863 
z
" transform="scale(0.015625)"/>
       <path id="DejaVuSans-6d" d="M 3328 2828 
Q 3544 3216 3844 3400 
Q 4144 3584 4550 3584 
Q 5097 3584 5394 3201 
Q 5691 2819 5691 2113 
L 5691 0 
L 5113 0 
L 5113 2094 
Q 5113 2597 4934 2840 
Q 4756 3084 4391 3084 
Q 3944 3084 3684 2787 
Q 3425 2491 3425 1978 
L 3425 0 
L 2847 0 
L 2847 2094 
Q 2847 2600 2669 2842 
Q 2491 3084 2119 3084 
Q 1678 3084 1418 2786 
Q 1159 2488 1159 1978 
L 1159 0 
L 581 0 
L 581 3500 
L 1159 3500 
L 1159 2956 
Q 1356 3278 1631 3431 
Q 1906 3584 2284 3584 
Q 2666 3584 2933 3390 
Q 3200 3197 3328 2828 
z
" transform="scale(0.015625)"/>
       <path id="DejaVuSans-65" d="M 3597 1894 
L 3597 1613 
L 953 1613 
Q 991 1019 1311 708 
Q 1631 397 2203 397 
Q 2534 397 2845 478 
Q 3156 559 3463 722 
L 3463 178 
Q 3153 47 2828 -22 
Q 2503 -91 2169 -91 
Q 1331 -91 842 396 
Q 353 884 353 1716 
Q 353 2575 817 3079 
Q 1281 3584 2069 3584 
Q 2775 3584 3186 3129 
Q 3597 2675 3597 1894 
z
M 3022 2063 
Q 3016 2534 2758 2815 
Q 2500 3097 2075 3097 
Q 1594 3097 1305 2825 
Q 1016 2553 972 2059 
L 3022 2063 
z
" transform="scale(0.015625)"/>
       <path id="DejaVuSans-20" transform="scale(0.015625)"/>
       <path id="DejaVuSans-28" d="M 1984 4856 
Q 1566 4138 1362 3434 
Q 1159 2731 1159 2009 
Q 1159 1288 1364 580 
Q 1569 -128 1984 -844 
L 1484 -844 
Q 1016 -109 783 600 
Q 550 1309 550 2009 
Q 550 2706 781 3412 
Q 1013 4119 1484 4856 
L 1984 4856 
z
" transform="scale(0.015625)"/>
       <path id="DejaVuSans-64" d="M 2906 2969 
L 2906 4863 
L 3481 4863 
L 3481 0 
L 2906 0 
L 2906 525 
Q 2725 213 2448 61 
Q 2172 -91 1784 -91 
Q 1150 -91 751 415 
Q 353 922 353 1747 
Q 353 2572 751 3078 
Q 1150 3584 1784 3584 
Q 2172 3584 2448 3432 
Q 2725 3281 2906 2969 
z
M 947 1747 
Q 947 1113 1208 752 
Q 1469 391 1925 391 
Q 2381 391 2643 752 
Q 2906 1113 2906 1747 
Q 2906 2381 2643 2742 
Q 2381 3103 1925 3103 
Q 1469 3103 1208 2742 
Q 947 2381 947 1747 
z
" transform="scale(0.015625)"/>
       <path id="DejaVuSans-61" d="M 2194 1759 
Q 1497 1759 1228 1600 
Q 959 1441 959 1056 
Q 959 750 1161 570 
Q 1363 391 1709 391 
Q 2188 391 2477 730 
Q 2766 1069 2766 1631 
L 2766 1759 
L 2194 1759 
z
M 3341 1997 
L 3341 0 
L 2766 0 
L 2766 531 
Q 2569 213 2275 61 
Q 1981 -91 1556 -91 
Q 1019 -91 701 211 
Q 384 513 384 1019 
Q 384 1609 779 1909 
Q 1175 2209 1959 2209 
L 2766 2209 
L 2766 2266 
Q 2766 2663 2505 2880 
Q 2244 3097 1772 3097 
Q 1472 3097 1187 3025 
Q 903 2953 641 2809 
L 641 3341 
Q 956 3463 1253 3523 
Q 1550 3584 1831 3584 
Q 2591 3584 2966 3190 
Q 3341 2797 3341 1997 
z
" transform="scale(0.015625)"/>
       <path id="DejaVuSans-79" d="M 2059 -325 
Q 1816 -950 1584 -1140 
Q 1353 -1331 966 -1331 
L 506 -1331 
L 506 -850 
L 844 -850 
Q 1081 -850 1212 -737 
Q 1344 -625 1503 -206 
L 1606 56 
L 191 3500 
L 800 3500 
L 1894 763 
L 2988 3500 
L 3597 3500 
L 2059 -325 
z
" transform="scale(0.015625)"/>
       <path id="DejaVuSans-73" d="M 2834 3397 
L 2834 2853 
Q 2591 2978 2328 3040 
Q 2066 3103 1784 3103 
Q 1356 3103 1142 2972 
Q 928 2841 928 2578 
Q 928 2378 1081 2264 
Q 1234 2150 1697 2047 
L 1894 2003 
Q 2506 1872 2764 1633 
Q 3022 1394 3022 966 
Q 3022 478 2636 193 
Q 2250 -91 1575 -91 
Q 1294 -91 989 -36 
Q 684 19 347 128 
L 347 722 
Q 666 556 975 473 
Q 1284 391 1588 391 
Q 1994 391 2212 530 
Q 2431 669 2431 922 
Q 2431 1156 2273 1281 
Q 2116 1406 1581 1522 
L 1381 1569 
Q 847 1681 609 1914 
Q 372 2147 372 2553 
Q 372 3047 722 3315 
Q 1072 3584 1716 3584 
Q 2034 3584 2315 3537 
Q 2597 3491 2834 3397 
z
" transform="scale(0.015625)"/>
       <path id="DejaVuSans-29" d="M 513 4856 
L 1013 4856 
Q 1481 4119 1714 3412 
Q 1947 2706 1947 2009 
Q 1947 1309 1714 600 
Q 1481 -109 1013 -844 
L 513 -844 
Q 928 -128 1133 580 
Q 1338 1288 1338 2009 
Q 1338 2731 1133 3434 
Q 928 4138 513 4856 
z
" transform="scale(0.015625)"/>
      </defs>
      <use xlink:href="#DejaVuSans-54"/>
      <use xlink:href="#DejaVuSans-69" transform="translate(57.958984 0)"/>
      <use xlink:href="#DejaVuSans-6d" transform="translate(85.742188 0)"/>
      <use xlink:href="#DejaVuSans-65" transform="translate(183.154297 0)"/>
      <use xlink:href="#DejaVuSans-20" transform="translate(244.677734 0)"/>
      <use xlink:href="#DejaVuSans-28" transform="translate(276.464844 0)"/>
      <use xlink:href="#DejaVuSans-64" transform="translate(315.478516 0)"/>
      <use xlink:href="#DejaVuSans-61" transform="translate(378.955078 0)"/>
      <use xlink:href="#DejaVuSans-79" transform="translate(440.234375 0)"/>
      <use xlink:href="#DejaVuSans-73" transform="translate(499.414062 0)"/>
      <use xlink:href="#DejaVuSans-29" transform="translate(551.513672 0)"/>
     </g>
    </g>
   </g>
   <g id="matplotlib.axis_2">
    <g id="ytick_1">
     <g id="line2d_13">
      <path d="M 39.632812 178.36 
L 277.902813 178.36 
" clip-path="url(#p976e98014e)" style="fill: none; stroke: #cccccc; stroke-opacity: 0.3; stroke-width: 0.5; stroke-linecap: round"/>
     </g>
     <g id="line2d_14">
      <defs>
       <path id="m72ae7331b1" d="M 0 0 
L -3.5 0 
" style="stroke: #262626; stroke-width: 0.8"/>
      </defs>
      <g>
       <use xlink:href="#m72ae7331b1" x="39.632812" y="178.36" style="fill: #262626; stroke: #262626; stroke-width: 0.8"/>
      </g>
     </g>
     <g id="text_8">
      <!-- 0.0 -->
      <g style="fill: #262626" transform="translate(19.910312 181.399375) scale(0.08 -0.08)">
       <defs>
        <path id="DejaVuSans-2e" d="M 684 794 
L 1344 794 
L 1344 0 
L 684 0 
L 684 794 
z
" transform="scale(0.015625)"/>
       </defs>
       <use xlink:href="#DejaVuSans-30"/>
       <use xlink:href="#DejaVuSans-2e" transform="translate(63.623047 0)"/>
       <use xlink:href="#DejaVuSans-30" transform="translate(95.410156 0)"/>
      </g>
     </g>
    </g>
    <g id="ytick_2">
     <g id="line2d_15">
      <path d="M 39.632812 145.758095 
L 277.902813 145.758095 
" clip-path="url(#p976e98014e)" style="fill: none; stroke: #cccccc; stroke-opacity: 0.3; stroke-width: 0.5; stroke-linecap: round"/>
     </g>
     <g id="line2d_16">
      <g>
       <use xlink:href="#m72ae7331b1" x="39.632812" y="145.758095" style="fill: #262626; stroke: #262626; stroke-width: 0.8"/>
      </g>
     </g>
     <g id="text_9">
      <!-- 0.2 -->
      <g style="fill: #262626" transform="translate(19.910312 148.79747) scale(0.08 -0.08)">
       <use xlink:href="#DejaVuSans-30"/>
       <use xlink:href="#DejaVuSans-2e" transform="translate(63.623047 0)"/>
       <use xlink:href="#DejaVuSans-32" transform="translate(95.410156 0)"/>
      </g>
     </g>
    </g>
    <g id="ytick_3">
     <g id="line2d_17">
      <path d="M 39.632812 113.15619 
L 277.902813 113.15619 
" clip-path="url(#p976e98014e)" style="fill: none; stroke: #cccccc; stroke-opacity: 0.3; stroke-width: 0.5; stroke-linecap: round"/>
     </g>
     <g id="line2d_18">
      <g>
       <use xlink:href="#m72ae7331b1" x="39.632812" y="113.15619" style="fill: #262626; stroke: #262626; stroke-width: 0.8"/>
      </g>
     </g>
     <g id="text_10">
      <!-- 0.4 -->
      <g style="fill: #262626" transform="translate(19.910312 116.195565) scale(0.08 -0.08)">
       <use xlink:href="#DejaVuSans-30"/>
       <use xlink:href="#DejaVuSans-2e" transform="translate(63.623047 0)"/>
       <use xlink:href="#DejaVuSans-34" transform="translate(95.410156 0)"/>
      </g>
     </g>
    </g>
    <g id="ytick_4">
     <g id="line2d_19">
      <path d="M 39.632812 80.554286 
L 277.902813 80.554286 
" clip-path="url(#p976e98014e)" style="fill: none; stroke: #cccccc; stroke-opacity: 0.3; stroke-width: 0.5; stroke-linecap: round"/>
     </g>
     <g id="line2d_20">
      <g>
       <use xlink:href="#m72ae7331b1" x="39.632812" y="80.554286" style="fill: #262626; stroke: #262626; stroke-width: 0.8"/>
      </g>
     </g>
     <g id="text_11">
      <!-- 0.6 -->
      <g style="fill: #262626" transform="translate(19.910312 83.593661) scale(0.08 -0.08)">
       <defs>
        <path id="DejaVuSans-36" d="M 2113 2584 
Q 1688 2584 1439 2293 
Q 1191 2003 1191 1497 
Q 1191 994 1439 701 
Q 1688 409 2113 409 
Q 2538 409 2786 701 
Q 3034 994 3034 1497 
Q 3034 2003 2786 2293 
Q 2538 2584 2113 2584 
z
M 3366 4563 
L 3366 3988 
Q 3128 4100 2886 4159 
Q 2644 4219 2406 4219 
Q 1781 4219 1451 3797 
Q 1122 3375 1075 2522 
Q 1259 2794 1537 2939 
Q 1816 3084 2150 3084 
Q 2853 3084 3261 2657 
Q 3669 2231 3669 1497 
Q 3669 778 3244 343 
Q 2819 -91 2113 -91 
Q 1303 -91 875 529 
Q 447 1150 447 2328 
Q 447 3434 972 4092 
Q 1497 4750 2381 4750 
Q 2619 4750 2861 4703 
Q 3103 4656 3366 4563 
z
" transform="scale(0.015625)"/>
       </defs>
       <use xlink:href="#DejaVuSans-30"/>
       <use xlink:href="#DejaVuSans-2e" transform="translate(63.623047 0)"/>
       <use xlink:href="#DejaVuSans-36" transform="translate(95.410156 0)"/>
      </g>
     </g>
    </g>
    <g id="ytick_5">
     <g id="line2d_21">
      <path d="M 39.632812 47.952381 
L 277.902813 47.952381 
" clip-path="url(#p976e98014e)" style="fill: none; stroke: #cccccc; stroke-opacity: 0.3; stroke-width: 0.5; stroke-linecap: round"/>
     </g>
     <g id="line2d_22">
      <g>
       <use xlink:href="#m72ae7331b1" x="39.632812" y="47.952381" style="fill: #262626; stroke: #262626; stroke-width: 0.8"/>
      </g>
     </g>
     <g id="text_12">
      <!-- 0.8 -->
      <g style="fill: #262626" transform="translate(19.910312 50.991756) scale(0.08 -0.08)">
       <defs>
        <path id="DejaVuSans-38" d="M 2034 2216 
Q 1584 2216 1326 1975 
Q 1069 1734 1069 1313 
Q 1069 891 1326 650 
Q 1584 409 2034 409 
Q 2484 409 2743 651 
Q 3003 894 3003 1313 
Q 3003 1734 2745 1975 
Q 2488 2216 2034 2216 
z
M 1403 2484 
Q 997 2584 770 2862 
Q 544 3141 544 3541 
Q 544 4100 942 4425 
Q 1341 4750 2034 4750 
Q 2731 4750 3128 4425 
Q 3525 4100 3525 3541 
Q 3525 3141 3298 2862 
Q 3072 2584 2669 2484 
Q 3125 2378 3379 2068 
Q 3634 1759 3634 1313 
Q 3634 634 3220 271 
Q 2806 -91 2034 -91 
Q 1263 -91 848 271 
Q 434 634 434 1313 
Q 434 1759 690 2068 
Q 947 2378 1403 2484 
z
M 1172 3481 
Q 1172 3119 1398 2916 
Q 1625 2713 2034 2713 
Q 2441 2713 2670 2916 
Q 2900 3119 2900 3481 
Q 2900 3844 2670 4047 
Q 2441 4250 2034 4250 
Q 1625 4250 1398 4047 
Q 1172 3844 1172 3481 
z
" transform="scale(0.015625)"/>
       </defs>
       <use xlink:href="#DejaVuSans-30"/>
       <use xlink:href="#DejaVuSans-2e" transform="translate(63.623047 0)"/>
       <use xlink:href="#DejaVuSans-38" transform="translate(95.410156 0)"/>
      </g>
     </g>
    </g>
    <g id="ytick_6">
     <g id="line2d_23">
      <path d="M 39.632812 15.350476 
L 277.902813 15.350476 
" clip-path="url(#p976e98014e)" style="fill: none; stroke: #cccccc; stroke-opacity: 0.3; stroke-width: 0.5; stroke-linecap: round"/>
     </g>
     <g id="line2d_24">
      <g>
       <use xlink:href="#m72ae7331b1" x="39.632812" y="15.350476" style="fill: #262626; stroke: #262626; stroke-width: 0.8"/>
      </g>
     </g>
     <g id="text_13">
      <!-- 1.0 -->
      <g style="fill: #262626" transform="translate(19.910312 18.389851) scale(0.08 -0.08)">
       <use xlink:href="#DejaVuSans-31"/>
       <use xlink:href="#DejaVuSans-2e" transform="translate(63.623047 0)"/>
       <use xlink:href="#DejaVuSans-30" transform="translate(95.410156 0)"/>
      </g>
     </g>
    </g>
    <g id="text_14">
     <!-- Survival probability -->
     <g style="fill: #262626" transform="translate(14.038594 136.361797) rotate(-90) scale(0.09 -0.09)">
      <defs>
       <path id="DejaVuSans-53" d="M 3425 4513 
L 3425 3897 
Q 3066 4069 2747 4153 
Q 2428 4238 2131 4238 
Q 1616 4238 1336 4038 
Q 1056 3838 1056 3469 
Q 1056 3159 1242 3001 
Q 1428 2844 1947 2747 
L 2328 2669 
Q 3034 2534 3370 2195 
Q 3706 1856 3706 1288 
Q 3706 609 3251 259 
Q 2797 -91 1919 -91 
Q 1588 -91 1214 -16 
Q 841 59 441 206 
L 441 856 
Q 825 641 1194 531 
Q 1563 422 1919 422 
Q 2459 422 2753 634 
Q 3047 847 3047 1241 
Q 3047 1584 2836 1778 
Q 2625 1972 2144 2069 
L 1759 2144 
Q 1053 2284 737 2584 
Q 422 2884 422 3419 
Q 422 4038 858 4394 
Q 1294 4750 2059 4750 
Q 2388 4750 2728 4690 
Q 3069 4631 3425 4513 
z
" transform="scale(0.015625)"/>
       <path id="DejaVuSans-75" d="M 544 1381 
L 544 3500 
L 1119 3500 
L 1119 1403 
Q 1119 906 1312 657 
Q 1506 409 1894 409 
Q 2359 409 2629 706 
Q 2900 1003 2900 1516 
L 2900 3500 
L 3475 3500 
L 3475 0 
L 2900 0 
L 2900 538 
Q 2691 219 2414 64 
Q 2138 -91 1772 -91 
Q 1169 -91 856 284 
Q 544 659 544 1381 
z
M 1991 3584 
L 1991 3584 
z
" transform="scale(0.015625)"/>
       <path id="DejaVuSans-72" d="M 2631 2963 
Q 2534 3019 2420 3045 
Q 2306 3072 2169 3072 
Q 1681 3072 1420 2755 
Q 1159 2438 1159 1844 
L 1159 0 
L 581 0 
L 581 3500 
L 1159 3500 
L 1159 2956 
Q 1341 3275 1631 3429 
Q 1922 3584 2338 3584 
Q 2397 3584 2469 3576 
Q 2541 3569 2628 3553 
L 2631 2963 
z
" transform="scale(0.015625)"/>
       <path id="DejaVuSans-76" d="M 191 3500 
L 800 3500 
L 1894 563 
L 2988 3500 
L 3597 3500 
L 2284 0 
L 1503 0 
L 191 3500 
z
" transform="scale(0.015625)"/>
       <path id="DejaVuSans-6c" d="M 603 4863 
L 1178 4863 
L 1178 0 
L 603 0 
L 603 4863 
z
" transform="scale(0.015625)"/>
       <path id="DejaVuSans-70" d="M 1159 525 
L 1159 -1331 
L 581 -1331 
L 581 3500 
L 1159 3500 
L 1159 2969 
Q 1341 3281 1617 3432 
Q 1894 3584 2278 3584 
Q 2916 3584 3314 3078 
Q 3713 2572 3713 1747 
Q 3713 922 3314 415 
Q 2916 -91 2278 -91 
Q 1894 -91 1617 61 
Q 1341 213 1159 525 
z
M 3116 1747 
Q 3116 2381 2855 2742 
Q 2594 3103 2138 3103 
Q 1681 3103 1420 2742 
Q 1159 2381 1159 1747 
Q 1159 1113 1420 752 
Q 1681 391 2138 391 
Q 2594 391 2855 752 
Q 3116 1113 3116 1747 
z
" transform="scale(0.015625)"/>
       <path id="DejaVuSans-6f" d="M 1959 3097 
Q 1497 3097 1228 2736 
Q 959 2375 959 1747 
Q 959 1119 1226 758 
Q 1494 397 1959 397 
Q 2419 397 2687 759 
Q 2956 1122 2956 1747 
Q 2956 2369 2687 2733 
Q 2419 3097 1959 3097 
z
M 1959 3584 
Q 2709 3584 3137 3096 
Q 3566 2609 3566 1747 
Q 3566 888 3137 398 
Q 2709 -91 1959 -91 
Q 1206 -91 779 398 
Q 353 888 353 1747 
Q 353 2609 779 3096 
Q 1206 3584 1959 3584 
z
" transform="scale(0.015625)"/>
       <path id="DejaVuSans-62" d="M 3116 1747 
Q 3116 2381 2855 2742 
Q 2594 3103 2138 3103 
Q 1681 3103 1420 2742 
Q 1159 2381 1159 1747 
Q 1159 1113 1420 752 
Q 1681 391 2138 391 
Q 2594 391 2855 752 
Q 3116 1113 3116 1747 
z
M 1159 2969 
Q 1341 3281 1617 3432 
Q 1894 3584 2278 3584 
Q 2916 3584 3314 3078 
Q 3713 2572 3713 1747 
Q 3713 922 3314 415 
Q 2916 -91 2278 -91 
Q 1894 -91 1617 61 
Q 1341 213 1159 525 
L 1159 0 
L 581 0 
L 581 4863 
L 1159 4863 
L 1159 2969 
z
" transform="scale(0.015625)"/>
       <path id="DejaVuSans-74" d="M 1172 4494 
L 1172 3500 
L 2356 3500 
L 2356 3053 
L 1172 3053 
L 1172 1153 
Q 1172 725 1289 603 
Q 1406 481 1766 481 
L 2356 481 
L 2356 0 
L 1766 0 
Q 1100 0 847 248 
Q 594 497 594 1153 
L 594 3053 
L 172 3053 
L 172 3500 
L 594 3500 
L 594 4494 
L 1172 4494 
z
" transform="scale(0.015625)"/>
      </defs>
      <use xlink:href="#DejaVuSans-53"/>
      <use xlink:href="#DejaVuSans-75" transform="translate(63.476562 0)"/>
      <use xlink:href="#DejaVuSans-72" transform="translate(126.855469 0)"/>
      <use xlink:href="#DejaVuSans-76" transform="translate(167.96875 0)"/>
      <use xlink:href="#DejaVuSans-69" transform="translate(227.148438 0)"/>
      <use xlink:href="#DejaVuSans-76" transform="translate(254.931641 0)"/>
      <use xlink:href="#DejaVuSans-61" transform="translate(314.111328 0)"/>
      <use xlink:href="#DejaVuSans-6c" transform="translate(375.390625 0)"/>
      <use xlink:href="#DejaVuSans-20" transform="translate(403.173828 0)"/>
      <use xlink:href="#DejaVuSans-70" transform="translate(434.960938 0)"/>
      <use xlink:href="#DejaVuSans-72" transform="translate(498.4375 0)"/>
      <use xlink:href="#DejaVuSans-6f" transform="translate(537.300781 0)"/>
      <use xlink:href="#DejaVuSans-62" transform="translate(598.482422 0)"/>
      <use xlink:href="#DejaVuSans-61" transform="translate(661.958984 0)"/>
      <use xlink:href="#DejaVuSans-62" transform="translate(723.238281 0)"/>
      <use xlink:href="#DejaVuSans-69" transform="translate(786.714844 0)"/>
      <use xlink:href="#DejaVuSans-6c" transform="translate(814.498047 0)"/>
      <use xlink:href="#DejaVuSans-69" transform="translate(842.28125 0)"/>
      <use xlink:href="#DejaVuSans-74" transform="translate(870.064453 0)"/>
      <use xlink:href="#DejaVuSans-79" transform="translate(909.273438 0)"/>
     </g>
    </g>
   </g>
   <g id="FillBetweenPolyCollection_1">
    <defs>
     <path id="ma5b7eee435" d="M 36.758681 -197.662336 
L 36.758681 -197.662336 
L 40.21662 -197.662336 
L 40.21662 -197.662336 
L 40.306437 -197.662336 
L 40.306437 -197.662336 
L 40.396254 -197.662336 
L 40.396254 -197.662336 
L 40.530979 -197.662336 
L 40.530979 -197.662336 
L 40.890245 -197.662336 
L 40.890245 -197.662336 
L 41.204603 -197.662336 
L 41.204603 -197.662336 
L 41.29442 -197.662336 
L 41.29442 -197.662336 
L 41.698595 -197.662336 
L 41.698595 -197.662336 
L 42.102769 -197.662336 
L 42.102769 -197.662336 
L 42.282403 -197.662336 
L 42.282403 -197.662336 
L 42.506944 -197.662336 
L 42.506944 -197.662336 
L 42.641669 -197.662336 
L 42.641669 -197.662336 
L 42.686577 -197.662336 
L 42.686577 -197.662336 
L 43.315294 -197.662336 
L 43.315294 -197.662336 
L 43.629652 -197.662336 
L 43.629652 -197.662336 
L 43.899102 -197.662336 
L 43.899102 -197.662336 
L 44.348185 -197.662336 
L 44.348185 -197.662336 
L 44.572726 -197.662336 
L 44.572726 -197.662336 
L 44.887084 -197.662336 
L 44.887084 -197.662336 
L 45.425984 -197.662336 
L 45.425984 -197.662336 
L 46.728325 -197.662336 
L 46.728325 -197.662336 
L 46.952866 -197.662336 
L 46.952866 -197.662336 
L 48.120482 -197.662336 
L 48.120482 -197.662336 
L 50.904797 -197.662336 
L 50.904797 -197.662336 
L 52.790946 -197.662336 
L 52.790946 -197.662336 
L 54.452554 -197.662336 
L 54.452554 -197.662336 
L 54.587278 -197.662336 
L 54.587278 -197.662336 
L 54.766912 -197.662336 
L 54.766912 -197.662336 
L 55.126178 -197.662336 
L 55.126178 -197.662336 
L 55.844711 -197.662336 
L 55.844711 -197.662336 
L 55.979436 -197.662336 
L 55.979436 -197.662336 
L 56.069253 -197.662336 
L 56.069253 -197.662336 
L 56.159069 -197.662336 
L 56.159069 -197.662336 
L 56.203977 -197.662336 
L 56.203977 -197.662336 
L 56.338702 -197.662336 
L 56.338702 -197.662336 
L 56.383611 -197.662336 
L 56.383611 -197.662336 
L 56.518336 -197.662336 
L 56.518336 -197.662336 
L 56.653061 -197.662336 
L 56.653061 -197.662336 
L 56.832694 -197.662336 
L 56.832694 -197.662336 
L 56.877602 -197.662336 
L 56.877602 -197.662336 
L 57.102144 -197.662336 
L 57.102144 -197.662336 
L 57.326685 -197.662336 
L 57.326685 -197.662336 
L 57.506318 -197.662336 
L 57.506318 -197.662336 
L 57.551227 -197.662336 
L 57.551227 -197.662336 
L 58.045218 -197.662336 
L 58.045218 -197.662336 
L 58.26976 -197.662336 
L 58.26976 -197.662336 
L 58.314668 -197.662336 
L 58.314668 -197.662336 
L 58.853568 -197.662336 
L 58.853568 -197.662336 
L 59.078109 -197.662336 
L 59.078109 -197.662336 
L 60.155908 -197.662336 
L 60.155908 -197.662336 
L 60.290633 -197.662336 
L 60.290633 -197.662336 
L 60.560083 -197.662336 
L 60.560083 -197.662336 
L 60.694808 -197.662336 
L 60.694808 -197.662336 
L 60.91935 -197.662336 
L 60.91935 -197.662336 
L 60.964258 -197.662336 
L 60.964258 -197.662336 
L 61.054075 -197.662336 
L 61.054075 -197.662336 
L 61.188799 -197.662336 
L 61.188799 -197.662336 
L 61.233708 -197.662336 
L 61.233708 -197.662336 
L 61.368433 -197.662336 
L 61.368433 -197.662336 
L 61.413341 -197.662336 
L 61.413341 -197.662336 
L 61.682791 -197.662336 
L 61.682791 -197.662336 
L 61.862424 -197.662336 
L 61.862424 -197.662336 
L 62.22169 -197.662336 
L 62.22169 -197.662336 
L 62.401324 -197.662336 
L 62.401324 -197.662336 
L 62.446232 -197.662336 
L 62.446232 -197.662336 
L 62.625865 -197.662336 
L 62.625865 -197.662336 
L 63.074948 -197.662336 
L 63.074948 -197.662336 
L 63.164765 -197.662336 
L 63.164765 -197.662336 
L 63.703665 -197.662336 
L 63.703665 -197.662336 
L 63.83839 -197.662336 
L 63.83839 -197.662336 
L 63.973114 -197.662336 
L 63.973114 -197.662336 
L 64.152748 -197.662336 
L 64.152748 -197.662336 
L 65.320364 -197.662336 
L 65.320364 -197.662336 
L 65.365272 -197.662336 
L 65.365272 -197.662336 
L 65.589813 -197.662336 
L 65.589813 -197.662336 
L 65.724538 -197.662336 
L 65.724538 -197.662336 
L 65.769447 -197.662336 
L 65.769447 -197.662336 
L 66.038897 -197.662336 
L 66.038897 -197.662336 
L 66.712521 -197.662336 
L 66.712521 -197.662336 
L 67.026879 -197.662336 
L 67.026879 -197.662336 
L 67.386146 -197.662336 
L 67.386146 -197.662336 
L 68.05977 -197.662336 
L 68.05977 -197.662336 
L 68.194495 -197.662336 
L 68.194495 -197.662336 
L 68.284312 -197.662336 
L 68.284312 -197.662336 
L 68.374128 -197.662336 
L 68.374128 -197.662336 
L 68.419037 -197.662336 
L 68.419037 -197.662336 
L 68.463945 -197.662336 
L 68.463945 -197.662336 
L 68.643578 -197.662336 
L 68.643578 -197.662336 
L 68.733395 -197.662336 
L 68.733395 -197.662336 
L 68.778303 -197.662336 
L 68.778303 -197.662336 
L 69.496836 -197.662336 
L 69.496836 -197.662336 
L 70.664452 -197.662336 
L 70.664452 -197.662336 
L 71.023719 -197.662336 
L 71.023719 -197.662336 
L 72.595509 -197.662336 
L 72.595509 -186.544844 
L 73.314042 -186.544844 
L 73.314042 -186.544844 
L 73.673309 -186.544844 
L 73.673309 -186.544844 
L 73.808033 -186.544844 
L 73.808033 -186.544844 
L 74.346933 -186.544844 
L 74.346933 -186.544844 
L 74.796016 -186.544844 
L 74.796016 -186.544844 
L 75.065466 -186.544844 
L 75.065466 -186.544844 
L 75.469641 -186.544844 
L 75.469641 -186.544844 
L 75.514549 -186.544844 
L 75.514549 -186.544844 
L 76.098357 -186.544844 
L 76.098357 -186.544844 
L 76.143265 -186.544844 
L 76.143265 -186.544844 
L 76.457624 -186.544844 
L 76.457624 -186.544844 
L 76.996523 -186.544844 
L 76.996523 -186.544844 
L 77.35579 -186.544844 
L 77.35579 -186.544844 
L 77.445606 -186.544844 
L 77.445606 -186.544844 
L 77.849781 -186.544844 
L 77.849781 -186.544844 
L 78.433589 -186.544844 
L 78.433589 -186.544844 
L 78.837764 -186.544844 
L 78.837764 -186.544844 
L 79.46648 -186.544844 
L 79.46648 -186.544844 
L 79.73593 -186.544844 
L 79.73593 -186.544844 
L 79.915563 -186.544844 
L 79.915563 -186.544844 
L 80.00538 -186.544844 
L 80.00538 -186.544844 
L 80.319738 -186.544844 
L 80.319738 -186.544844 
L 80.993362 -186.544844 
L 80.993362 -186.544844 
L 82.071162 -186.544844 
L 82.071162 -186.544844 
L 84.406394 -186.544844 
L 84.406394 -186.544844 
L 84.675844 -186.544844 
L 84.675844 -186.544844 
L 85.84346 -186.544844 
L 85.84346 -186.544844 
L 86.696717 -186.544844 
L 86.696717 -186.544844 
L 87.774517 -186.544844 
L 87.774517 -186.544844 
L 88.582866 -186.544844 
L 88.582866 -186.544844 
L 89.391216 -186.544844 
L 89.391216 -186.544844 
L 89.481032 -186.544844 
L 89.481032 -186.544844 
L 89.705574 -186.544844 
L 89.705574 -186.544844 
L 90.244474 -186.544844 
L 90.244474 -186.544844 
L 92.355164 -186.544844 
L 92.355164 -186.544844 
L 92.669522 -186.544844 
L 92.669522 -186.544844 
L 92.894064 -186.544844 
L 92.894064 -186.544844 
L 94.376038 -186.544844 
L 94.376038 -186.544844 
L 99.181226 -186.544844 
L 99.181226 -186.544844 
L 100.259026 -186.544844 
L 100.259026 -186.544844 
L 101.157192 -186.544844 
L 101.157192 -186.544844 
L 104.92949 -186.544844 
L 104.92949 -186.544844 
L 104.974398 -186.544844 
L 104.974398 -186.544844 
L 105.198939 -186.544844 
L 105.198939 -186.544844 
L 106.052197 -186.544844 
L 106.052197 -186.544844 
L 107.983254 -186.544844 
L 107.983254 -186.544844 
L 108.297613 -186.544844 
L 108.297613 -186.544844 
L 108.701787 -186.544844 
L 108.701787 -186.544844 
L 108.881421 -186.544844 
L 108.881421 -186.544844 
L 109.734678 -186.544844 
L 109.734678 -186.544844 
L 110.677753 -186.544844 
L 110.677753 -186.544844 
L 111.665736 -186.544844 
L 111.665736 -186.544844 
L 112.429177 -186.544844 
L 112.429177 -186.544844 
L 113.237526 -186.544844 
L 113.237526 -186.544844 
L 113.686609 -186.544844 
L 113.686609 -186.544844 
L 116.336199 -186.544844 
L 116.336199 -186.544844 
L 116.605649 -186.544844 
L 116.605649 -186.544844 
L 118.71634 -186.544844 
L 118.71634 -186.544844 
L 119.839047 -186.544844 
L 119.839047 -186.544844 
L 120.108497 -186.544844 
L 120.108497 -186.544844 
L 120.737213 -186.544844 
L 120.737213 -186.544844 
L 121.815013 -186.544844 
L 121.815013 -186.544844 
L 124.240061 -186.544844 
L 124.240061 -186.544844 
L 125.497494 -186.544844 
L 125.497494 -186.544844 
L 127.069285 -186.544844 
L 127.069285 -186.544844 
L 127.159101 -186.544844 
L 127.159101 -186.544844 
L 127.293826 -186.544844 
L 127.293826 -186.544844 
L 129.808691 -186.544844 
L 129.808691 -186.544844 
L 129.8536 -186.544844 
L 129.8536 -186.544844 
L 130.347591 -186.544844 
L 130.347591 -186.544844 
L 130.527224 -186.544844 
L 130.527224 -186.544844 
L 130.661949 -186.544844 
L 130.661949 -186.544844 
L 131.42539 -186.544844 
L 131.42539 -186.544844 
L 131.649932 -186.544844 
L 131.649932 -186.544844 
L 134.34443 -186.544844 
L 134.34443 -186.544844 
L 135.691679 -186.544844 
L 135.691679 -186.544844 
L 137.398195 -186.544844 
L 137.398195 -186.544844 
L 142.607559 -186.544844 
L 142.607559 -186.544844 
L 143.460816 -186.544844 
L 143.460816 -186.544844 
L 144.269166 -186.544844 
L 144.269166 -186.544844 
L 145.257149 -186.544844 
L 145.257149 -186.544844 
L 148.445638 -186.544844 
L 148.445638 -186.544844 
L 157.517116 -186.544844 
L 157.517116 -186.544844 
L 158.909274 -186.544844 
L 158.909274 -186.544844 
L 161.019964 -186.544844 
L 161.019964 -186.544844 
L 164.926987 -186.544844 
L 164.926987 -186.544844 
L 168.429835 -186.544844 
L 168.429835 -186.544844 
L 169.238184 -186.544844 
L 169.238184 -186.544844 
L 172.741032 -186.544844 
L 172.741032 -186.544844 
L 174.851722 -186.544844 
L 174.851722 -186.544844 
L 190.704354 -186.544844 
L 190.704354 -186.544844 
L 193.21922 -186.544844 
L 193.21922 -186.544844 
L 193.758119 -186.544844 
L 193.758119 -186.544844 
L 211.047817 -186.544844 
L 211.047817 -186.544844 
L 211.856167 -186.544844 
L 211.856167 -186.544844 
L 218.412779 -186.544844 
L 218.412779 -186.544844 
L 262.692369 -186.544844 
L 262.692369 -186.544844 
L 266.015584 -186.544844 
L 266.015584 -186.544844 
L 266.419759 -186.544844 
L 266.419759 -186.544844 
L 266.419759 -197.434018 
L 266.419759 -197.434018 
L 266.419759 -197.434018 
L 266.015584 -197.434018 
L 266.015584 -197.434018 
L 262.692369 -197.434018 
L 262.692369 -197.434018 
L 218.412779 -197.434018 
L 218.412779 -197.434018 
L 211.856167 -197.434018 
L 211.856167 -197.434018 
L 211.047817 -197.434018 
L 211.047817 -197.434018 
L 193.758119 -197.434018 
L 193.758119 -197.434018 
L 193.21922 -197.434018 
L 193.21922 -197.434018 
L 190.704354 -197.434018 
L 190.704354 -197.434018 
L 174.851722 -197.434018 
L 174.851722 -197.434018 
L 172.741032 -197.434018 
L 172.741032 -197.434018 
L 169.238184 -197.434018 
L 169.238184 -197.434018 
L 168.429835 -197.434018 
L 168.429835 -197.434018 
L 164.926987 -197.434018 
L 164.926987 -197.434018 
L 161.019964 -197.434018 
L 161.019964 -197.434018 
L 158.909274 -197.434018 
L 158.909274 -197.434018 
L 157.517116 -197.434018 
L 157.517116 -197.434018 
L 148.445638 -197.434018 
L 148.445638 -197.434018 
L 145.257149 -197.434018 
L 145.257149 -197.434018 
L 144.269166 -197.434018 
L 144.269166 -197.434018 
L 143.460816 -197.434018 
L 143.460816 -197.434018 
L 142.607559 -197.434018 
L 142.607559 -197.434018 
L 137.398195 -197.434018 
L 137.398195 -197.434018 
L 135.691679 -197.434018 
L 135.691679 -197.434018 
L 134.34443 -197.434018 
L 134.34443 -197.434018 
L 131.649932 -197.434018 
L 131.649932 -197.434018 
L 131.42539 -197.434018 
L 131.42539 -197.434018 
L 130.661949 -197.434018 
L 130.661949 -197.434018 
L 130.527224 -197.434018 
L 130.527224 -197.434018 
L 130.347591 -197.434018 
L 130.347591 -197.434018 
L 129.8536 -197.434018 
L 129.8536 -197.434018 
L 129.808691 -197.434018 
L 129.808691 -197.434018 
L 127.293826 -197.434018 
L 127.293826 -197.434018 
L 127.159101 -197.434018 
L 127.159101 -197.434018 
L 127.069285 -197.434018 
L 127.069285 -197.434018 
L 125.497494 -197.434018 
L 125.497494 -197.434018 
L 124.240061 -197.434018 
L 124.240061 -197.434018 
L 121.815013 -197.434018 
L 121.815013 -197.434018 
L 120.737213 -197.434018 
L 120.737213 -197.434018 
L 120.108497 -197.434018 
L 120.108497 -197.434018 
L 119.839047 -197.434018 
L 119.839047 -197.434018 
L 118.71634 -197.434018 
L 118.71634 -197.434018 
L 116.605649 -197.434018 
L 116.605649 -197.434018 
L 116.336199 -197.434018 
L 116.336199 -197.434018 
L 113.686609 -197.434018 
L 113.686609 -197.434018 
L 113.237526 -197.434018 
L 113.237526 -197.434018 
L 112.429177 -197.434018 
L 112.429177 -197.434018 
L 111.665736 -197.434018 
L 111.665736 -197.434018 
L 110.677753 -197.434018 
L 110.677753 -197.434018 
L 109.734678 -197.434018 
L 109.734678 -197.434018 
L 108.881421 -197.434018 
L 108.881421 -197.434018 
L 108.701787 -197.434018 
L 108.701787 -197.434018 
L 108.297613 -197.434018 
L 108.297613 -197.434018 
L 107.983254 -197.434018 
L 107.983254 -197.434018 
L 106.052197 -197.434018 
L 106.052197 -197.434018 
L 105.198939 -197.434018 
L 105.198939 -197.434018 
L 104.974398 -197.434018 
L 104.974398 -197.434018 
L 104.92949 -197.434018 
L 104.92949 -197.434018 
L 101.157192 -197.434018 
L 101.157192 -197.434018 
L 100.259026 -197.434018 
L 100.259026 -197.434018 
L 99.181226 -197.434018 
L 99.181226 -197.434018 
L 94.376038 -197.434018 
L 94.376038 -197.434018 
L 92.894064 -197.434018 
L 92.894064 -197.434018 
L 92.669522 -197.434018 
L 92.669522 -197.434018 
L 92.355164 -197.434018 
L 92.355164 -197.434018 
L 90.244474 -197.434018 
L 90.244474 -197.434018 
L 89.705574 -197.434018 
L 89.705574 -197.434018 
L 89.481032 -197.434018 
L 89.481032 -197.434018 
L 89.391216 -197.434018 
L 89.391216 -197.434018 
L 88.582866 -197.434018 
L 88.582866 -197.434018 
L 87.774517 -197.434018 
L 87.774517 -197.434018 
L 86.696717 -197.434018 
L 86.696717 -197.434018 
L 85.84346 -197.434018 
L 85.84346 -197.434018 
L 84.675844 -197.434018 
L 84.675844 -197.434018 
L 84.406394 -197.434018 
L 84.406394 -197.434018 
L 82.071162 -197.434018 
L 82.071162 -197.434018 
L 80.993362 -197.434018 
L 80.993362 -197.434018 
L 80.319738 -197.434018 
L 80.319738 -197.434018 
L 80.00538 -197.434018 
L 80.00538 -197.434018 
L 79.915563 -197.434018 
L 79.915563 -197.434018 
L 79.73593 -197.434018 
L 79.73593 -197.434018 
L 79.46648 -197.434018 
L 79.46648 -197.434018 
L 78.837764 -197.434018 
L 78.837764 -197.434018 
L 78.433589 -197.434018 
L 78.433589 -197.434018 
L 77.849781 -197.434018 
L 77.849781 -197.434018 
L 77.445606 -197.434018 
L 77.445606 -197.434018 
L 77.35579 -197.434018 
L 77.35579 -197.434018 
L 76.996523 -197.434018 
L 76.996523 -197.434018 
L 76.457624 -197.434018 
L 76.457624 -197.434018 
L 76.143265 -197.434018 
L 76.143265 -197.434018 
L 76.098357 -197.434018 
L 76.098357 -197.434018 
L 75.514549 -197.434018 
L 75.514549 -197.434018 
L 75.469641 -197.434018 
L 75.469641 -197.434018 
L 75.065466 -197.434018 
L 75.065466 -197.434018 
L 74.796016 -197.434018 
L 74.796016 -197.434018 
L 74.346933 -197.434018 
L 74.346933 -197.434018 
L 73.808033 -197.434018 
L 73.808033 -197.434018 
L 73.673309 -197.434018 
L 73.673309 -197.434018 
L 73.314042 -197.434018 
L 73.314042 -197.434018 
L 72.595509 -197.434018 
L 72.595509 -197.662336 
L 71.023719 -197.662336 
L 71.023719 -197.662336 
L 70.664452 -197.662336 
L 70.664452 -197.662336 
L 69.496836 -197.662336 
L 69.496836 -197.662336 
L 68.778303 -197.662336 
L 68.778303 -197.662336 
L 68.733395 -197.662336 
L 68.733395 -197.662336 
L 68.643578 -197.662336 
L 68.643578 -197.662336 
L 68.463945 -197.662336 
L 68.463945 -197.662336 
L 68.419037 -197.662336 
L 68.419037 -197.662336 
L 68.374128 -197.662336 
L 68.374128 -197.662336 
L 68.284312 -197.662336 
L 68.284312 -197.662336 
L 68.194495 -197.662336 
L 68.194495 -197.662336 
L 68.05977 -197.662336 
L 68.05977 -197.662336 
L 67.386146 -197.662336 
L 67.386146 -197.662336 
L 67.026879 -197.662336 
L 67.026879 -197.662336 
L 66.712521 -197.662336 
L 66.712521 -197.662336 
L 66.038897 -197.662336 
L 66.038897 -197.662336 
L 65.769447 -197.662336 
L 65.769447 -197.662336 
L 65.724538 -197.662336 
L 65.724538 -197.662336 
L 65.589813 -197.662336 
L 65.589813 -197.662336 
L 65.365272 -197.662336 
L 65.365272 -197.662336 
L 65.320364 -197.662336 
L 65.320364 -197.662336 
L 64.152748 -197.662336 
L 64.152748 -197.662336 
L 63.973114 -197.662336 
L 63.973114 -197.662336 
L 63.83839 -197.662336 
L 63.83839 -197.662336 
L 63.703665 -197.662336 
L 63.703665 -197.662336 
L 63.164765 -197.662336 
L 63.164765 -197.662336 
L 63.074948 -197.662336 
L 63.074948 -197.662336 
L 62.625865 -197.662336 
L 62.625865 -197.662336 
L 62.446232 -197.662336 
L 62.446232 -197.662336 
L 62.401324 -197.662336 
L 62.401324 -197.662336 
L 62.22169 -197.662336 
L 62.22169 -197.662336 
L 61.862424 -197.662336 
L 61.862424 -197.662336 
L 61.682791 -197.662336 
L 61.682791 -197.662336 
L 61.413341 -197.662336 
L 61.413341 -197.662336 
L 61.368433 -197.662336 
L 61.368433 -197.662336 
L 61.233708 -197.662336 
L 61.233708 -197.662336 
L 61.188799 -197.662336 
L 61.188799 -197.662336 
L 61.054075 -197.662336 
L 61.054075 -197.662336 
L 60.964258 -197.662336 
L 60.964258 -197.662336 
L 60.91935 -197.662336 
L 60.91935 -197.662336 
L 60.694808 -197.662336 
L 60.694808 -197.662336 
L 60.560083 -197.662336 
L 60.560083 -197.662336 
L 60.290633 -197.662336 
L 60.290633 -197.662336 
L 60.155908 -197.662336 
L 60.155908 -197.662336 
L 59.078109 -197.662336 
L 59.078109 -197.662336 
L 58.853568 -197.662336 
L 58.853568 -197.662336 
L 58.314668 -197.662336 
L 58.314668 -197.662336 
L 58.26976 -197.662336 
L 58.26976 -197.662336 
L 58.045218 -197.662336 
L 58.045218 -197.662336 
L 57.551227 -197.662336 
L 57.551227 -197.662336 
L 57.506318 -197.662336 
L 57.506318 -197.662336 
L 57.326685 -197.662336 
L 57.326685 -197.662336 
L 57.102144 -197.662336 
L 57.102144 -197.662336 
L 56.877602 -197.662336 
L 56.877602 -197.662336 
L 56.832694 -197.662336 
L 56.832694 -197.662336 
L 56.653061 -197.662336 
L 56.653061 -197.662336 
L 56.518336 -197.662336 
L 56.518336 -197.662336 
L 56.383611 -197.662336 
L 56.383611 -197.662336 
L 56.338702 -197.662336 
L 56.338702 -197.662336 
L 56.203977 -197.662336 
L 56.203977 -197.662336 
L 56.159069 -197.662336 
L 56.159069 -197.662336 
L 56.069253 -197.662336 
L 56.069253 -197.662336 
L 55.979436 -197.662336 
L 55.979436 -197.662336 
L 55.844711 -197.662336 
L 55.844711 -197.662336 
L 55.126178 -197.662336 
L 55.126178 -197.662336 
L 54.766912 -197.662336 
L 54.766912 -197.662336 
L 54.587278 -197.662336 
L 54.587278 -197.662336 
L 54.452554 -197.662336 
L 54.452554 -197.662336 
L 52.790946 -197.662336 
L 52.790946 -197.662336 
L 50.904797 -197.662336 
L 50.904797 -197.662336 
L 48.120482 -197.662336 
L 48.120482 -197.662336 
L 46.952866 -197.662336 
L 46.952866 -197.662336 
L 46.728325 -197.662336 
L 46.728325 -197.662336 
L 45.425984 -197.662336 
L 45.425984 -197.662336 
L 44.887084 -197.662336 
L 44.887084 -197.662336 
L 44.572726 -197.662336 
L 44.572726 -197.662336 
L 44.348185 -197.662336 
L 44.348185 -197.662336 
L 43.899102 -197.662336 
L 43.899102 -197.662336 
L 43.629652 -197.662336 
L 43.629652 -197.662336 
L 43.315294 -197.662336 
L 43.315294 -197.662336 
L 42.686577 -197.662336 
L 42.686577 -197.662336 
L 42.641669 -197.662336 
L 42.641669 -197.662336 
L 42.506944 -197.662336 
L 42.506944 -197.662336 
L 42.282403 -197.662336 
L 42.282403 -197.662336 
L 42.102769 -197.662336 
L 42.102769 -197.662336 
L 41.698595 -197.662336 
L 41.698595 -197.662336 
L 41.29442 -197.662336 
L 41.29442 -197.662336 
L 41.204603 -197.662336 
L 41.204603 -197.662336 
L 40.890245 -197.662336 
L 40.890245 -197.662336 
L 40.530979 -197.662336 
L 40.530979 -197.662336 
L 40.396254 -197.662336 
L 40.396254 -197.662336 
L 40.306437 -197.662336 
L 40.306437 -197.662336 
L 40.21662 -197.662336 
L 40.21662 -197.662336 
L 36.758681 -197.662336 
z
" style="stroke: #2e86ab; stroke-opacity: 0.2"/>
    </defs>
    <g clip-path="url(#p976e98014e)">
     <use xlink:href="#ma5b7eee435" x="0" y="213.012812" style="fill: #2e86ab; fill-opacity: 0.2; stroke: #2e86ab; stroke-opacity: 0.2"/>
    </g>
   </g>
   <g id="FillBetweenPolyCollection_2">
    <defs>
     <path id="m00ed2c30be" d="M 39.632812 -197.265081 
L 39.632812 -191.425821 
L 40.48607 -191.425821 
L 40.48607 -190.40192 
L 40.530979 -190.40192 
L 40.530979 -189.344202 
L 42.147678 -189.344202 
L 42.147678 -187.248532 
L 42.192586 -187.248532 
L 42.192586 -186.219871 
L 42.417127 -186.219871 
L 42.417127 -185.203911 
L 42.551852 -185.203911 
L 42.551852 -184.199663 
L 42.686577 -184.199663 
L 42.686577 -183.206078 
L 42.731486 -183.206078 
L 42.731486 -182.222178 
L 43.045844 -182.222178 
L 43.045844 -181.247089 
L 43.270385 -181.247089 
L 43.270385 -180.280046 
L 43.40511 -180.280046 
L 43.40511 -180.280046 
L 43.584743 -180.280046 
L 43.584743 -179.313557 
L 43.67456 -179.313557 
L 43.67456 -178.354132 
L 43.809285 -178.354132 
L 43.809285 -177.401216 
L 44.033827 -177.401216 
L 44.033827 -176.454327 
L 44.078735 -176.454327 
L 44.078735 -175.513042 
L 44.393093 -175.513042 
L 44.393093 -174.576989 
L 44.931993 -174.576989 
L 44.931993 -173.645837 
L 45.111626 -173.645837 
L 45.111626 -172.719293 
L 45.381076 -172.719293 
L 45.381076 -171.797093 
L 45.515801 -171.797093 
L 45.515801 -170.879001 
L 46.009792 -170.879001 
L 46.009792 -169.964803 
L 46.099609 -169.964803 
L 46.099609 -169.054307 
L 46.189425 -169.054307 
L 46.189425 -168.147336 
L 46.32415 -168.147336 
L 46.32415 -167.243729 
L 46.548692 -167.243729 
L 46.548692 -165.446034 
L 46.952866 -165.446034 
L 46.952866 -164.551686 
L 47.177408 -164.551686 
L 47.177408 -162.771419 
L 47.401949 -162.771419 
L 47.401949 -161.885295 
L 47.806124 -161.885295 
L 47.806124 -161.00172 
L 48.030666 -161.00172 
L 48.030666 -161.00172 
L 48.210299 -161.00172 
L 48.210299 -160.114287 
L 48.614474 -160.114287 
L 48.614474 -158.346735 
L 48.839015 -158.346735 
L 48.839015 -157.466464 
L 48.883924 -157.466464 
L 48.883924 -156.588435 
L 49.108465 -156.588435 
L 49.108465 -155.712586 
L 49.198282 -155.712586 
L 49.198282 -154.838855 
L 49.333007 -154.838855 
L 49.333007 -153.967186 
L 49.51264 -153.967186 
L 49.51264 -153.097526 
L 49.647365 -153.097526 
L 49.647365 -152.229824 
L 49.692273 -152.229824 
L 49.692273 -152.229824 
L 50.05154 -152.229824 
L 50.05154 -150.487138 
L 50.276081 -150.487138 
L 50.276081 -149.618644 
L 50.680256 -149.618644 
L 50.680256 -148.75199 
L 50.770072 -148.75199 
L 50.770072 -147.887137 
L 50.859889 -147.887137 
L 50.859889 -147.024048 
L 50.904797 -147.024048 
L 50.904797 -146.162686 
L 50.994614 -146.162686 
L 50.994614 -145.303016 
L 51.039522 -145.303016 
L 51.039522 -143.588629 
L 51.219155 -143.588629 
L 51.219155 -142.733852 
L 51.264064 -142.733852 
L 51.264064 -141.880648 
L 51.35388 -141.880648 
L 51.35388 -141.028991 
L 51.398789 -141.028991 
L 51.398789 -140.178856 
L 51.847872 -140.178856 
L 51.847872 -138.483059 
L 51.89278 -138.483059 
L 51.89278 -137.637353 
L 51.937688 -137.637353 
L 51.937688 -136.79308 
L 52.027505 -136.79308 
L 52.027505 -136.79308 
L 52.117322 -136.79308 
L 52.117322 -135.943156 
L 52.835855 -135.943156 
L 52.835855 -134.247626 
L 53.240029 -134.247626 
L 53.240029 -133.401981 
L 53.599296 -133.401981 
L 53.599296 -132.557728 
L 54.048379 -132.557728 
L 54.048379 -131.714848 
L 54.183104 -131.714848 
L 54.183104 -130.033149 
L 54.362737 -130.033149 
L 54.362737 -129.194301 
L 54.407645 -129.194301 
L 54.407645 -128.356768 
L 54.54237 -128.356768 
L 54.54237 -127.520538 
L 54.901637 -127.520538 
L 54.901637 -126.685599 
L 55.08127 -126.685599 
L 55.08127 -125.019548 
L 55.620169 -125.019548 
L 55.620169 -124.188414 
L 55.754894 -124.188414 
L 55.754894 -124.188414 
L 55.844711 -124.188414 
L 55.844711 -124.188414 
L 55.889619 -124.188414 
L 55.889619 -123.342799 
L 55.979436 -123.342799 
L 55.979436 -122.49852 
L 56.024344 -122.49852 
L 56.024344 -122.49852 
L 56.159069 -122.49852 
L 56.159069 -122.49852 
L 56.248886 -122.49852 
L 56.248886 -120.780971 
L 56.338702 -120.780971 
L 56.338702 -120.780971 
L 56.563244 -120.780971 
L 56.563244 -120.780971 
L 56.787785 -120.780971 
L 56.787785 -120.780971 
L 56.92251 -120.780971 
L 56.92251 -118.998264 
L 56.967419 -118.998264 
L 56.967419 -118.109356 
L 57.057235 -118.109356 
L 57.057235 -117.222058 
L 57.19196 -117.222058 
L 57.19196 -116.336357 
L 57.281777 -116.336357 
L 57.281777 -115.452239 
L 57.596135 -115.452239 
L 57.596135 -114.569693 
L 57.865585 -114.569693 
L 57.865585 -113.688707 
L 57.955401 -113.688707 
L 57.955401 -112.80927 
L 58.179943 -112.80927 
L 58.179943 -110.180159 
L 58.26976 -110.180159 
L 58.26976 -109.306828 
L 58.404484 -109.306828 
L 58.404484 -108.435004 
L 58.718843 -108.435004 
L 58.718843 -108.435004 
L 59.123017 -108.435004 
L 59.123017 -107.554315 
L 59.257742 -107.554315 
L 59.257742 -106.675191 
L 59.976275 -106.675191 
L 59.976275 -105.797625 
L 60.021183 -105.797625 
L 60.021183 -104.921614 
L 60.066092 -104.921614 
L 60.066092 -104.047151 
L 60.290633 -104.047151 
L 60.290633 -103.163149 
L 60.604991 -103.163149 
L 60.604991 -101.399996 
L 60.91935 -101.399996 
L 60.91935 -100.509152 
L 61.458249 -100.509152 
L 61.458249 -99.62 
L 61.727699 -99.62 
L 61.727699 -98.732537 
L 61.862424 -98.732537 
L 61.862424 -97.846761 
L 62.446232 -97.846761 
L 62.446232 -96.962671 
L 62.536049 -96.962671 
L 62.536049 -95.199549 
L 63.074948 -95.199549 
L 63.074948 -94.320518 
L 63.434215 -94.320518 
L 63.434215 -93.443177 
L 63.613848 -93.443177 
L 63.613848 -92.567528 
L 63.703665 -92.567528 
L 63.703665 -91.693574 
L 63.83839 -91.693574 
L 63.83839 -90.807862 
L 63.883298 -90.807862 
L 63.883298 -90.807862 
L 64.062931 -90.807862 
L 64.062931 -89.013906 
L 64.197656 -89.013906 
L 64.197656 -87.227657 
L 64.332381 -87.227657 
L 64.332381 -86.33744 
L 64.781464 -86.33744 
L 64.781464 -86.33744 
L 64.871281 -86.33744 
L 64.871281 -86.33744 
L 65.006005 -86.33744 
L 65.006005 -84.500482 
L 65.455089 -84.500482 
L 65.455089 -83.585351 
L 65.544905 -83.585351 
L 65.544905 -82.672467 
L 65.634722 -82.672467 
L 65.634722 -81.761842 
L 65.67963 -81.761842 
L 65.67963 -81.761842 
L 66.128713 -81.761842 
L 66.128713 -80.83583 
L 66.263438 -80.83583 
L 66.263438 -79.89366 
L 66.532888 -79.89366 
L 66.532888 -78.954146 
L 66.667613 -78.954146 
L 66.667613 -78.017304 
L 67.116696 -78.017304 
L 67.116696 -77.083155 
L 67.251421 -77.083155 
L 67.251421 -76.15172 
L 67.341237 -76.15172 
L 67.341237 -75.223023 
L 67.610687 -75.223023 
L 67.610687 -74.297089 
L 67.925045 -74.297089 
L 67.925045 -73.373948 
L 68.86812 -73.373948 
L 68.86812 -72.45363 
L 69.496836 -72.45363 
L 69.496836 -71.53617 
L 69.901011 -71.53617 
L 69.901011 -70.621604 
L 70.170461 -70.621604 
L 70.170461 -69.709971 
L 70.395002 -69.709971 
L 70.395002 -68.801314 
L 70.619544 -68.801314 
L 70.619544 -67.895681 
L 70.888994 -67.895681 
L 70.888994 -66.993119 
L 71.068627 -66.993119 
L 71.068627 -66.993119 
L 71.338077 -66.993119 
L 71.338077 -66.068416 
L 71.607526 -66.068416 
L 71.607526 -65.147228 
L 71.921885 -65.147228 
L 71.921885 -64.22962 
L 72.460784 -64.22962 
L 72.460784 -64.22962 
L 72.820051 -64.22962 
L 72.820051 -63.287132 
L 74.571475 -63.287132 
L 74.571475 -62.348798 
L 75.334916 -62.348798 
L 75.334916 -61.414706 
L 76.412715 -61.414706 
L 76.412715 -60.484952 
L 76.592348 -60.484952 
L 76.592348 -59.559639 
L 77.131248 -59.559639 
L 77.131248 -58.63888 
L 78.209047 -58.63888 
L 78.209047 -57.722799 
L 78.433589 -57.722799 
L 78.433589 -56.811531 
L 80.229921 -56.811531 
L 80.229921 -55.905223 
L 81.891529 -55.905223 
L 81.891529 -55.004035 
L 82.250795 -55.004035 
L 82.250795 -54.108146 
L 83.373503 -54.108146 
L 83.373503 -53.217747 
L 84.720752 -53.217747 
L 84.720752 -52.333054 
L 84.76566 -52.333054 
L 84.76566 -51.454301 
L 84.900385 -51.454301 
L 84.900385 -50.581749 
L 86.157818 -50.581749 
L 86.157818 -49.715688 
L 87.41525 -49.715688 
L 87.41525 -48.856441 
L 87.999058 -48.856441 
L 87.999058 -48.004367 
L 88.762499 -48.004367 
L 88.762499 -48.004367 
L 91.861173 -48.004367 
L 91.861173 -47.105338 
L 96.666361 -47.105338 
L 96.666361 -46.216244 
L 100.169209 -46.216244 
L 100.169209 -45.337708 
L 101.022467 -45.337708 
L 101.022467 -44.470452 
L 103.402607 -44.470452 
L 103.402607 -43.615314 
L 103.537332 -43.615314 
L 103.537332 -42.773281 
L 109.510137 -42.773281 
L 109.510137 -41.945523 
L 114.629684 -41.945523 
L 114.629684 -41.133444 
L 116.785282 -41.133444 
L 116.785282 -40.338755 
L 120.647397 -40.338755 
L 120.647397 -39.563574 
L 122.488637 -39.563574 
L 122.488637 -39.563574 
L 123.566437 -39.563574 
L 123.566437 -38.68923 
L 128.147084 -38.68923 
L 128.147084 -37.856183 
L 130.347591 -37.856183 
L 130.347591 -37.071721 
L 146.514581 -37.071721 
L 146.514581 -37.071721 
L 158.235649 -37.071721 
L 158.235649 -36.112051 
L 166.633502 -36.112051 
L 166.633502 -35.332884 
L 172.291949 -35.332884 
L 172.291949 -34.803229 
L 182.575951 -34.803229 
L 182.575951 -34.652812 
L 182.575951 -34.652812 
L 182.575951 -34.652812 
L 182.575951 -41.887844 
L 172.291949 -41.887844 
L 172.291949 -43.804481 
L 166.633502 -43.804481 
L 166.633502 -45.63113 
L 158.235649 -45.63113 
L 158.235649 -47.330571 
L 146.514581 -47.330571 
L 146.514581 -47.330571 
L 130.347591 -47.330571 
L 130.347591 -48.851179 
L 128.147084 -48.851179 
L 128.147084 -50.331729 
L 123.566437 -50.331729 
L 123.566437 -51.77774 
L 122.488637 -51.77774 
L 122.488637 -51.77774 
L 120.647397 -51.77774 
L 120.647397 -53.105568 
L 116.785282 -53.105568 
L 116.785282 -54.416406 
L 114.629684 -54.416406 
L 114.629684 -55.712042 
L 109.510137 -55.712042 
L 109.510137 -56.993935 
L 103.537332 -56.993935 
L 103.537332 -58.263297 
L 103.402607 -58.263297 
L 103.402607 -59.521144 
L 101.022467 -59.521144 
L 101.022467 -60.768337 
L 100.169209 -60.768337 
L 100.169209 -62.005614 
L 96.666361 -62.005614 
L 96.666361 -63.233611 
L 91.861173 -63.233611 
L 91.861173 -64.452883 
L 88.762499 -64.452883 
L 88.762499 -64.452883 
L 87.999058 -64.452883 
L 87.999058 -65.619437 
L 87.41525 -65.619437 
L 87.41525 -66.779577 
L 86.157818 -66.779577 
L 86.157818 -67.933627 
L 84.900385 -67.933627 
L 84.900385 -69.081876 
L 84.76566 -69.081876 
L 84.76566 -70.224585 
L 84.720752 -70.224585 
L 84.720752 -71.36199 
L 83.373503 -71.36199 
L 83.373503 -72.494303 
L 82.250795 -72.494303 
L 82.250795 -73.621719 
L 81.891529 -73.621719 
L 81.891529 -74.744415 
L 80.229921 -74.744415 
L 80.229921 -75.862552 
L 78.433589 -75.862552 
L 78.433589 -76.976278 
L 78.209047 -76.976278 
L 78.209047 -78.085729 
L 77.131248 -78.085729 
L 77.131248 -79.191029 
L 76.592348 -79.191029 
L 76.592348 -80.292293 
L 76.412715 -80.292293 
L 76.412715 -81.389626 
L 75.334916 -81.389626 
L 75.334916 -82.483127 
L 74.571475 -82.483127 
L 74.571475 -83.572884 
L 72.820051 -83.572884 
L 72.820051 -84.658982 
L 72.460784 -84.658982 
L 72.460784 -84.658982 
L 71.921885 -84.658982 
L 71.921885 -85.719156 
L 71.607526 -85.719156 
L 71.607526 -86.776149 
L 71.338077 -86.776149 
L 71.338077 -87.830022 
L 71.068627 -87.830022 
L 71.068627 -87.830022 
L 70.888994 -87.830022 
L 70.888994 -88.860916 
L 70.619544 -88.860916 
L 70.619544 -89.889057 
L 70.395002 -89.889057 
L 70.395002 -90.914493 
L 70.170461 -90.914493 
L 70.170461 -91.93727 
L 69.901011 -91.93727 
L 69.901011 -92.957428 
L 69.496836 -92.957428 
L 69.496836 -93.975006 
L 68.86812 -93.975006 
L 68.86812 -94.99004 
L 67.925045 -94.99004 
L 67.925045 -96.002565 
L 67.610687 -96.002565 
L 67.610687 -97.012611 
L 67.341237 -97.012611 
L 67.341237 -98.020209 
L 67.251421 -98.020209 
L 67.251421 -99.025385 
L 67.116696 -99.025385 
L 67.116696 -100.028164 
L 66.667613 -100.028164 
L 66.667613 -101.02857 
L 66.532888 -101.02857 
L 66.532888 -102.026624 
L 66.263438 -102.026624 
L 66.263438 -103.022347 
L 66.128713 -103.022347 
L 66.128713 -104.001738 
L 65.67963 -104.001738 
L 65.67963 -104.001738 
L 65.634722 -104.001738 
L 65.634722 -104.965575 
L 65.544905 -104.965575 
L 65.544905 -105.927402 
L 65.455089 -105.927402 
L 65.455089 -106.88723 
L 65.006005 -106.88723 
L 65.006005 -108.800945 
L 64.871281 -108.800945 
L 64.871281 -108.800945 
L 64.781464 -108.800945 
L 64.781464 -108.800945 
L 64.332381 -108.800945 
L 64.332381 -109.73118 
L 64.197656 -109.73118 
L 64.197656 -111.586412 
L 64.062931 -111.586412 
L 64.062931 -113.434717 
L 63.883298 -113.434717 
L 63.883298 -113.434717 
L 63.83839 -113.434717 
L 63.83839 -114.345725 
L 63.703665 -114.345725 
L 63.703665 -115.244922 
L 63.613848 -115.244922 
L 63.613848 -116.142572 
L 63.434215 -116.142572 
L 63.434215 -117.03868 
L 63.074948 -117.03868 
L 63.074948 -117.933252 
L 62.536049 -117.933252 
L 62.536049 -119.717796 
L 62.446232 -119.717796 
L 62.446232 -120.607774 
L 61.862424 -120.607774 
L 61.862424 -121.496226 
L 61.727699 -121.496226 
L 61.727699 -122.383152 
L 61.458249 -122.383152 
L 61.458249 -123.268553 
L 60.91935 -123.268553 
L 60.91935 -124.152429 
L 60.604991 -124.152429 
L 60.604991 -125.898526 
L 60.290633 -125.898526 
L 60.290633 -126.769376 
L 60.066092 -126.769376 
L 60.066092 -127.630663 
L 60.021183 -127.630663 
L 60.021183 -128.490536 
L 59.976275 -128.490536 
L 59.976275 -129.348993 
L 59.257742 -129.348993 
L 59.257742 -130.20603 
L 59.123017 -130.20603 
L 59.123017 -131.061645 
L 58.718843 -131.061645 
L 58.718843 -131.061645 
L 58.404484 -131.061645 
L 58.404484 -131.908353 
L 58.26976 -131.908353 
L 58.26976 -132.753681 
L 58.179943 -132.753681 
L 58.179943 -135.281338 
L 57.955401 -135.281338 
L 57.955401 -136.121095 
L 57.865585 -136.121095 
L 57.865585 -136.959444 
L 57.596135 -136.959444 
L 57.596135 -137.796378 
L 57.281777 -137.796378 
L 57.281777 -138.631889 
L 57.19196 -138.631889 
L 57.19196 -139.465967 
L 57.057235 -139.465967 
L 57.057235 -140.298605 
L 56.967419 -140.298605 
L 56.967419 -141.129793 
L 56.92251 -141.129793 
L 56.92251 -142.787774 
L 56.787785 -142.787774 
L 56.787785 -142.787774 
L 56.563244 -142.787774 
L 56.563244 -142.787774 
L 56.338702 -142.787774 
L 56.338702 -142.787774 
L 56.248886 -142.787774 
L 56.248886 -144.390932 
L 56.159069 -144.390932 
L 56.159069 -144.390932 
L 56.024344 -144.390932 
L 56.024344 -144.390932 
L 55.979436 -144.390932 
L 55.979436 -145.179016 
L 55.889619 -145.179016 
L 55.889619 -145.965833 
L 55.844711 -145.965833 
L 55.844711 -145.965833 
L 55.754894 -145.965833 
L 55.754894 -145.965833 
L 55.620169 -145.965833 
L 55.620169 -146.740413 
L 55.08127 -146.740413 
L 55.08127 -148.28591 
L 54.901637 -148.28591 
L 54.901637 -149.056806 
L 54.54237 -149.056806 
L 54.54237 -149.826452 
L 54.407645 -149.826452 
L 54.407645 -150.594836 
L 54.362737 -150.594836 
L 54.362737 -151.361947 
L 54.183104 -151.361947 
L 54.183104 -152.892294 
L 54.048379 -152.892294 
L 54.048379 -153.655502 
L 53.599296 -153.655502 
L 53.599296 -154.41738 
L 53.240029 -154.41738 
L 53.240029 -155.177913 
L 52.835855 -155.177913 
L 52.835855 -156.694874 
L 52.117322 -156.694874 
L 52.117322 -157.451267 
L 52.027505 -157.451267 
L 52.027505 -157.451267 
L 51.937688 -157.451267 
L 51.937688 -158.201602 
L 51.89278 -158.201602 
L 51.89278 -158.950534 
L 51.847872 -158.950534 
L 51.847872 -160.444109 
L 51.398789 -160.444109 
L 51.398789 -161.188707 
L 51.35388 -161.188707 
L 51.35388 -161.931816 
L 51.264064 -161.931816 
L 51.264064 -162.673411 
L 51.219155 -162.673411 
L 51.219155 -163.413466 
L 51.039522 -163.413466 
L 51.039522 -164.888847 
L 50.994614 -164.888847 
L 50.994614 -165.624114 
L 50.904797 -165.624114 
L 50.904797 -166.357725 
L 50.859889 -166.357725 
L 50.859889 -167.089645 
L 50.770072 -167.089645 
L 50.770072 -167.819841 
L 50.680256 -167.819841 
L 50.680256 -168.548275 
L 50.276081 -168.548275 
L 50.276081 -169.274908 
L 50.05154 -169.274908 
L 50.05154 -170.722606 
L 49.692273 -170.722606 
L 49.692273 -170.722606 
L 49.647365 -170.722606 
L 49.647365 -171.439735 
L 49.51264 -171.439735 
L 49.51264 -172.154924 
L 49.333007 -172.154924 
L 49.333007 -172.868122 
L 49.198282 -172.868122 
L 49.198282 -173.579276 
L 49.108465 -173.579276 
L 49.108465 -174.288329 
L 48.883924 -174.288329 
L 48.883924 -174.995221 
L 48.839015 -174.995221 
L 48.839015 -175.699887 
L 48.614474 -175.699887 
L 48.614474 -177.102263 
L 48.210299 -177.102263 
L 48.210299 -177.799821 
L 48.030666 -177.799821 
L 48.030666 -177.799821 
L 47.806124 -177.799821 
L 47.806124 -178.491431 
L 47.401949 -178.491431 
L 47.401949 -179.180468 
L 47.177408 -179.180468 
L 47.177408 -180.550432 
L 46.952866 -180.550432 
L 46.952866 -181.231145 
L 46.548692 -181.231145 
L 46.548692 -182.583431 
L 46.32415 -182.583431 
L 46.32415 -183.254731 
L 46.189425 -183.254731 
L 46.189425 -183.922599 
L 46.099609 -183.922599 
L 46.099609 -184.586864 
L 46.009792 -184.586864 
L 46.009792 -185.247337 
L 45.515801 -185.247337 
L 45.515801 -185.903812 
L 45.381076 -185.903812 
L 45.381076 -186.556056 
L 45.111626 -186.556056 
L 45.111626 -187.203814 
L 44.931993 -187.203814 
L 44.931993 -187.846798 
L 44.393093 -187.846798 
L 44.393093 -188.484682 
L 44.078735 -188.484682 
L 44.078735 -189.117099 
L 44.033827 -189.117099 
L 44.033827 -189.743631 
L 43.809285 -189.743631 
L 43.809285 -190.363795 
L 43.67456 -190.363795 
L 43.67456 -190.977033 
L 43.584743 -190.977033 
L 43.584743 -191.582691 
L 43.40511 -191.582691 
L 43.40511 -191.582691 
L 43.270385 -191.582691 
L 43.270385 -192.177619 
L 43.045844 -192.177619 
L 43.045844 -192.763398 
L 42.731486 -192.763398 
L 42.731486 -193.338923 
L 42.686577 -193.338923 
L 42.686577 -193.902831 
L 42.551852 -193.902831 
L 42.551852 -194.453402 
L 42.417127 -194.453402 
L 42.417127 -194.988416 
L 42.192586 -194.988416 
L 42.192586 -195.504918 
L 42.147678 -195.504918 
L 42.147678 -196.46416 
L 40.530979 -196.46416 
L 40.530979 -196.891634 
L 40.48607 -196.891634 
L 40.48607 -197.265081 
L 39.632812 -197.265081 
z
" style="stroke: #e63946; stroke-opacity: 0.2"/>
    </defs>
    <g clip-path="url(#p976e98014e)">
     <use xlink:href="#m00ed2c30be" x="0" y="213.012812" style="fill: #e63946; fill-opacity: 0.2; stroke: #e63946; stroke-opacity: 0.2"/>
    </g>
   </g>
   <g id="line2d_25">
    <defs>
     <path id="mce24000058" d="M -3 3 
L 3 -3 
M -3 -3 
L 3 3 
" style="stroke: #2e86ab"/>
    </defs>
    <g clip-path="url(#p976e98014e)">
     <use xlink:href="#mce24000058" x="36.758681" y="15.350476" style="fill: #2e86ab; stroke: #2e86ab"/>
     <use xlink:href="#mce24000058" x="40.21662" y="15.350476" style="fill: #2e86ab; stroke: #2e86ab"/>
     <use xlink:href="#mce24000058" x="40.306437" y="15.350476" style="fill: #2e86ab; stroke: #2e86ab"/>
     <use xlink:href="#mce24000058" x="40.396254" y="15.350476" style="fill: #2e86ab; stroke: #2e86ab"/>
     <use xlink:href="#mce24000058" x="40.530979" y="15.350476" style="fill: #2e86ab; stroke: #2e86ab"/>
     <use xlink:href="#mce24000058" x="40.890245" y="15.350476" style="fill: #2e86ab; stroke: #2e86ab"/>
     <use xlink:href="#mce24000058" x="41.204603" y="15.350476" style="fill: #2e86ab; stroke: #2e86ab"/>
     <use xlink:href="#mce24000058" x="41.29442" y="15.350476" style="fill: #2e86ab; stroke: #2e86ab"/>
     <use xlink:href="#mce24000058" x="41.698595" y="15.350476" style="fill: #2e86ab; stroke: #2e86ab"/>
     <use xlink:href="#mce24000058" x="42.102769" y="15.350476" style="fill: #2e86ab; stroke: #2e86ab"/>
     <use xlink:href="#mce24000058" x="42.282403" y="15.350476" style="fill: #2e86ab; stroke: #2e86ab"/>
     <use xlink:href="#mce24000058" x="42.506944" y="15.350476" style="fill: #2e86ab; stroke: #2e86ab"/>
     <use xlink:href="#mce24000058" x="42.641669" y="15.350476" style="fill: #2e86ab; stroke: #2e86ab"/>
     <use xlink:href="#mce24000058" x="42.686577" y="15.350476" style="fill: #2e86ab; stroke: #2e86ab"/>
     <use xlink:href="#mce24000058" x="43.315294" y="15.350476" style="fill: #2e86ab; stroke: #2e86ab"/>
     <use xlink:href="#mce24000058" x="43.629652" y="15.350476" style="fill: #2e86ab; stroke: #2e86ab"/>
     <use xlink:href="#mce24000058" x="43.899102" y="15.350476" style="fill: #2e86ab; stroke: #2e86ab"/>
     <use xlink:href="#mce24000058" x="44.348185" y="15.350476" style="fill: #2e86ab; stroke: #2e86ab"/>
     <use xlink:href="#mce24000058" x="44.572726" y="15.350476" style="fill: #2e86ab; stroke: #2e86ab"/>
     <use xlink:href="#mce24000058" x="44.887084" y="15.350476" style="fill: #2e86ab; stroke: #2e86ab"/>
     <use xlink:href="#mce24000058" x="45.425984" y="15.350476" style="fill: #2e86ab; stroke: #2e86ab"/>
     <use xlink:href="#mce24000058" x="46.728325" y="15.350476" style="fill: #2e86ab; stroke: #2e86ab"/>
     <use xlink:href="#mce24000058" x="46.952866" y="15.350476" style="fill: #2e86ab; stroke: #2e86ab"/>
     <use xlink:href="#mce24000058" x="48.120482" y="15.350476" style="fill: #2e86ab; stroke: #2e86ab"/>
     <use xlink:href="#mce24000058" x="50.904797" y="15.350476" style="fill: #2e86ab; stroke: #2e86ab"/>
     <use xlink:href="#mce24000058" x="52.790946" y="15.350476" style="fill: #2e86ab; stroke: #2e86ab"/>
     <use xlink:href="#mce24000058" x="54.452554" y="15.350476" style="fill: #2e86ab; stroke: #2e86ab"/>
     <use xlink:href="#mce24000058" x="54.587278" y="15.350476" style="fill: #2e86ab; stroke: #2e86ab"/>
     <use xlink:href="#mce24000058" x="54.766912" y="15.350476" style="fill: #2e86ab; stroke: #2e86ab"/>
     <use xlink:href="#mce24000058" x="55.126178" y="15.350476" style="fill: #2e86ab; stroke: #2e86ab"/>
     <use xlink:href="#mce24000058" x="55.844711" y="15.350476" style="fill: #2e86ab; stroke: #2e86ab"/>
     <use xlink:href="#mce24000058" x="55.979436" y="15.350476" style="fill: #2e86ab; stroke: #2e86ab"/>
     <use xlink:href="#mce24000058" x="56.069253" y="15.350476" style="fill: #2e86ab; stroke: #2e86ab"/>
     <use xlink:href="#mce24000058" x="56.159069" y="15.350476" style="fill: #2e86ab; stroke: #2e86ab"/>
     <use xlink:href="#mce24000058" x="56.203977" y="15.350476" style="fill: #2e86ab; stroke: #2e86ab"/>
     <use xlink:href="#mce24000058" x="56.338702" y="15.350476" style="fill: #2e86ab; stroke: #2e86ab"/>
     <use xlink:href="#mce24000058" x="56.383611" y="15.350476" style="fill: #2e86ab; stroke: #2e86ab"/>
     <use xlink:href="#mce24000058" x="56.518336" y="15.350476" style="fill: #2e86ab; stroke: #2e86ab"/>
     <use xlink:href="#mce24000058" x="56.653061" y="15.350476" style="fill: #2e86ab; stroke: #2e86ab"/>
     <use xlink:href="#mce24000058" x="56.832694" y="15.350476" style="fill: #2e86ab; stroke: #2e86ab"/>
     <use xlink:href="#mce24000058" x="56.877602" y="15.350476" style="fill: #2e86ab; stroke: #2e86ab"/>
     <use xlink:href="#mce24000058" x="57.102144" y="15.350476" style="fill: #2e86ab; stroke: #2e86ab"/>
     <use xlink:href="#mce24000058" x="57.326685" y="15.350476" style="fill: #2e86ab; stroke: #2e86ab"/>
     <use xlink:href="#mce24000058" x="57.506318" y="15.350476" style="fill: #2e86ab; stroke: #2e86ab"/>
     <use xlink:href="#mce24000058" x="57.551227" y="15.350476" style="fill: #2e86ab; stroke: #2e86ab"/>
     <use xlink:href="#mce24000058" x="58.045218" y="15.350476" style="fill: #2e86ab; stroke: #2e86ab"/>
     <use xlink:href="#mce24000058" x="58.26976" y="15.350476" style="fill: #2e86ab; stroke: #2e86ab"/>
     <use xlink:href="#mce24000058" x="58.314668" y="15.350476" style="fill: #2e86ab; stroke: #2e86ab"/>
     <use xlink:href="#mce24000058" x="58.853568" y="15.350476" style="fill: #2e86ab; stroke: #2e86ab"/>
     <use xlink:href="#mce24000058" x="59.078109" y="15.350476" style="fill: #2e86ab; stroke: #2e86ab"/>
     <use xlink:href="#mce24000058" x="60.155908" y="15.350476" style="fill: #2e86ab; stroke: #2e86ab"/>
     <use xlink:href="#mce24000058" x="60.290633" y="15.350476" style="fill: #2e86ab; stroke: #2e86ab"/>
     <use xlink:href="#mce24000058" x="60.560083" y="15.350476" style="fill: #2e86ab; stroke: #2e86ab"/>
     <use xlink:href="#mce24000058" x="60.694808" y="15.350476" style="fill: #2e86ab; stroke: #2e86ab"/>
     <use xlink:href="#mce24000058" x="60.91935" y="15.350476" style="fill: #2e86ab; stroke: #2e86ab"/>
     <use xlink:href="#mce24000058" x="60.964258" y="15.350476" style="fill: #2e86ab; stroke: #2e86ab"/>
     <use xlink:href="#mce24000058" x="61.054075" y="15.350476" style="fill: #2e86ab; stroke: #2e86ab"/>
     <use xlink:href="#mce24000058" x="61.188799" y="15.350476" style="fill: #2e86ab; stroke: #2e86ab"/>
     <use xlink:href="#mce24000058" x="61.233708" y="15.350476" style="fill: #2e86ab; stroke: #2e86ab"/>
     <use xlink:href="#mce24000058" x="61.368433" y="15.350476" style="fill: #2e86ab; stroke: #2e86ab"/>
     <use xlink:href="#mce24000058" x="61.413341" y="15.350476" style="fill: #2e86ab; stroke: #2e86ab"/>
     <use xlink:href="#mce24000058" x="61.682791" y="15.350476" style="fill: #2e86ab; stroke: #2e86ab"/>
     <use xlink:href="#mce24000058" x="61.862424" y="15.350476" style="fill: #2e86ab; stroke: #2e86ab"/>
     <use xlink:href="#mce24000058" x="62.22169" y="15.350476" style="fill: #2e86ab; stroke: #2e86ab"/>
     <use xlink:href="#mce24000058" x="62.401324" y="15.350476" style="fill: #2e86ab; stroke: #2e86ab"/>
     <use xlink:href="#mce24000058" x="62.446232" y="15.350476" style="fill: #2e86ab; stroke: #2e86ab"/>
     <use xlink:href="#mce24000058" x="62.625865" y="15.350476" style="fill: #2e86ab; stroke: #2e86ab"/>
     <use xlink:href="#mce24000058" x="63.074948" y="15.350476" style="fill: #2e86ab; stroke: #2e86ab"/>
     <use xlink:href="#mce24000058" x="63.164765" y="15.350476" style="fill: #2e86ab; stroke: #2e86ab"/>
     <use xlink:href="#mce24000058" x="63.703665" y="15.350476" style="fill: #2e86ab; stroke: #2e86ab"/>
     <use xlink:href="#mce24000058" x="63.83839" y="15.350476" style="fill: #2e86ab; stroke: #2e86ab"/>
     <use xlink:href="#mce24000058" x="63.973114" y="15.350476" style="fill: #2e86ab; stroke: #2e86ab"/>
     <use xlink:href="#mce24000058" x="64.152748" y="15.350476" style="fill: #2e86ab; stroke: #2e86ab"/>
     <use xlink:href="#mce24000058" x="65.320364" y="15.350476" style="fill: #2e86ab; stroke: #2e86ab"/>
     <use xlink:href="#mce24000058" x="65.365272" y="15.350476" style="fill: #2e86ab; stroke: #2e86ab"/>
     <use xlink:href="#mce24000058" x="65.589813" y="15.350476" style="fill: #2e86ab; stroke: #2e86ab"/>
     <use xlink:href="#mce24000058" x="65.724538" y="15.350476" style="fill: #2e86ab; stroke: #2e86ab"/>
     <use xlink:href="#mce24000058" x="65.769447" y="15.350476" style="fill: #2e86ab; stroke: #2e86ab"/>
     <use xlink:href="#mce24000058" x="66.038897" y="15.350476" style="fill: #2e86ab; stroke: #2e86ab"/>
     <use xlink:href="#mce24000058" x="66.712521" y="15.350476" style="fill: #2e86ab; stroke: #2e86ab"/>
     <use xlink:href="#mce24000058" x="67.026879" y="15.350476" style="fill: #2e86ab; stroke: #2e86ab"/>
     <use xlink:href="#mce24000058" x="67.386146" y="15.350476" style="fill: #2e86ab; stroke: #2e86ab"/>
     <use xlink:href="#mce24000058" x="68.05977" y="15.350476" style="fill: #2e86ab; stroke: #2e86ab"/>
     <use xlink:href="#mce24000058" x="68.194495" y="15.350476" style="fill: #2e86ab; stroke: #2e86ab"/>
     <use xlink:href="#mce24000058" x="68.284312" y="15.350476" style="fill: #2e86ab; stroke: #2e86ab"/>
     <use xlink:href="#mce24000058" x="68.374128" y="15.350476" style="fill: #2e86ab; stroke: #2e86ab"/>
     <use xlink:href="#mce24000058" x="68.419037" y="15.350476" style="fill: #2e86ab; stroke: #2e86ab"/>
     <use xlink:href="#mce24000058" x="68.463945" y="15.350476" style="fill: #2e86ab; stroke: #2e86ab"/>
     <use xlink:href="#mce24000058" x="68.643578" y="15.350476" style="fill: #2e86ab; stroke: #2e86ab"/>
     <use xlink:href="#mce24000058" x="68.733395" y="15.350476" style="fill: #2e86ab; stroke: #2e86ab"/>
     <use xlink:href="#mce24000058" x="68.778303" y="15.350476" style="fill: #2e86ab; stroke: #2e86ab"/>
     <use xlink:href="#mce24000058" x="69.496836" y="15.350476" style="fill: #2e86ab; stroke: #2e86ab"/>
     <use xlink:href="#mce24000058" x="70.664452" y="15.350476" style="fill: #2e86ab; stroke: #2e86ab"/>
     <use xlink:href="#mce24000058" x="71.023719" y="15.350476" style="fill: #2e86ab; stroke: #2e86ab"/>
     <use xlink:href="#mce24000058" x="73.314042" y="16.964432" style="fill: #2e86ab; stroke: #2e86ab"/>
     <use xlink:href="#mce24000058" x="73.673309" y="16.964432" style="fill: #2e86ab; stroke: #2e86ab"/>
     <use xlink:href="#mce24000058" x="73.808033" y="16.964432" style="fill: #2e86ab; stroke: #2e86ab"/>
     <use xlink:href="#mce24000058" x="74.346933" y="16.964432" style="fill: #2e86ab; stroke: #2e86ab"/>
     <use xlink:href="#mce24000058" x="74.796016" y="16.964432" style="fill: #2e86ab; stroke: #2e86ab"/>
     <use xlink:href="#mce24000058" x="75.065466" y="16.964432" style="fill: #2e86ab; stroke: #2e86ab"/>
     <use xlink:href="#mce24000058" x="75.469641" y="16.964432" style="fill: #2e86ab; stroke: #2e86ab"/>
     <use xlink:href="#mce24000058" x="75.514549" y="16.964432" style="fill: #2e86ab; stroke: #2e86ab"/>
     <use xlink:href="#mce24000058" x="76.098357" y="16.964432" style="fill: #2e86ab; stroke: #2e86ab"/>
     <use xlink:href="#mce24000058" x="76.143265" y="16.964432" style="fill: #2e86ab; stroke: #2e86ab"/>
     <use xlink:href="#mce24000058" x="76.457624" y="16.964432" style="fill: #2e86ab; stroke: #2e86ab"/>
     <use xlink:href="#mce24000058" x="76.996523" y="16.964432" style="fill: #2e86ab; stroke: #2e86ab"/>
     <use xlink:href="#mce24000058" x="77.35579" y="16.964432" style="fill: #2e86ab; stroke: #2e86ab"/>
     <use xlink:href="#mce24000058" x="77.445606" y="16.964432" style="fill: #2e86ab; stroke: #2e86ab"/>
     <use xlink:href="#mce24000058" x="77.849781" y="16.964432" style="fill: #2e86ab; stroke: #2e86ab"/>
     <use xlink:href="#mce24000058" x="78.433589" y="16.964432" style="fill: #2e86ab; stroke: #2e86ab"/>
     <use xlink:href="#mce24000058" x="78.837764" y="16.964432" style="fill: #2e86ab; stroke: #2e86ab"/>
     <use xlink:href="#mce24000058" x="79.46648" y="16.964432" style="fill: #2e86ab; stroke: #2e86ab"/>
     <use xlink:href="#mce24000058" x="79.73593" y="16.964432" style="fill: #2e86ab; stroke: #2e86ab"/>
     <use xlink:href="#mce24000058" x="79.915563" y="16.964432" style="fill: #2e86ab; stroke: #2e86ab"/>
     <use xlink:href="#mce24000058" x="80.00538" y="16.964432" style="fill: #2e86ab; stroke: #2e86ab"/>
     <use xlink:href="#mce24000058" x="80.319738" y="16.964432" style="fill: #2e86ab; stroke: #2e86ab"/>
     <use xlink:href="#mce24000058" x="80.993362" y="16.964432" style="fill: #2e86ab; stroke: #2e86ab"/>
     <use xlink:href="#mce24000058" x="82.071162" y="16.964432" style="fill: #2e86ab; stroke: #2e86ab"/>
     <use xlink:href="#mce24000058" x="84.406394" y="16.964432" style="fill: #2e86ab; stroke: #2e86ab"/>
     <use xlink:href="#mce24000058" x="84.675844" y="16.964432" style="fill: #2e86ab; stroke: #2e86ab"/>
     <use xlink:href="#mce24000058" x="85.84346" y="16.964432" style="fill: #2e86ab; stroke: #2e86ab"/>
     <use xlink:href="#mce24000058" x="86.696717" y="16.964432" style="fill: #2e86ab; stroke: #2e86ab"/>
     <use xlink:href="#mce24000058" x="87.774517" y="16.964432" style="fill: #2e86ab; stroke: #2e86ab"/>
     <use xlink:href="#mce24000058" x="88.582866" y="16.964432" style="fill: #2e86ab; stroke: #2e86ab"/>
     <use xlink:href="#mce24000058" x="89.391216" y="16.964432" style="fill: #2e86ab; stroke: #2e86ab"/>
     <use xlink:href="#mce24000058" x="89.481032" y="16.964432" style="fill: #2e86ab; stroke: #2e86ab"/>
     <use xlink:href="#mce24000058" x="89.705574" y="16.964432" style="fill: #2e86ab; stroke: #2e86ab"/>
     <use xlink:href="#mce24000058" x="90.244474" y="16.964432" style="fill: #2e86ab; stroke: #2e86ab"/>
     <use xlink:href="#mce24000058" x="92.355164" y="16.964432" style="fill: #2e86ab; stroke: #2e86ab"/>
     <use xlink:href="#mce24000058" x="92.669522" y="16.964432" style="fill: #2e86ab; stroke: #2e86ab"/>
     <use xlink:href="#mce24000058" x="92.894064" y="16.964432" style="fill: #2e86ab; stroke: #2e86ab"/>
     <use xlink:href="#mce24000058" x="94.376038" y="16.964432" style="fill: #2e86ab; stroke: #2e86ab"/>
     <use xlink:href="#mce24000058" x="99.181226" y="16.964432" style="fill: #2e86ab; stroke: #2e86ab"/>
     <use xlink:href="#mce24000058" x="100.259026" y="16.964432" style="fill: #2e86ab; stroke: #2e86ab"/>
     <use xlink:href="#mce24000058" x="101.157192" y="16.964432" style="fill: #2e86ab; stroke: #2e86ab"/>
     <use xlink:href="#mce24000058" x="104.92949" y="16.964432" style="fill: #2e86ab; stroke: #2e86ab"/>
     <use xlink:href="#mce24000058" x="104.974398" y="16.964432" style="fill: #2e86ab; stroke: #2e86ab"/>
     <use xlink:href="#mce24000058" x="105.198939" y="16.964432" style="fill: #2e86ab; stroke: #2e86ab"/>
     <use xlink:href="#mce24000058" x="106.052197" y="16.964432" style="fill: #2e86ab; stroke: #2e86ab"/>
     <use xlink:href="#mce24000058" x="107.983254" y="16.964432" style="fill: #2e86ab; stroke: #2e86ab"/>
     <use xlink:href="#mce24000058" x="108.297613" y="16.964432" style="fill: #2e86ab; stroke: #2e86ab"/>
     <use xlink:href="#mce24000058" x="108.701787" y="16.964432" style="fill: #2e86ab; stroke: #2e86ab"/>
     <use xlink:href="#mce24000058" x="108.881421" y="16.964432" style="fill: #2e86ab; stroke: #2e86ab"/>
     <use xlink:href="#mce24000058" x="109.734678" y="16.964432" style="fill: #2e86ab; stroke: #2e86ab"/>
     <use xlink:href="#mce24000058" x="110.677753" y="16.964432" style="fill: #2e86ab; stroke: #2e86ab"/>
     <use xlink:href="#mce24000058" x="111.665736" y="16.964432" style="fill: #2e86ab; stroke: #2e86ab"/>
     <use xlink:href="#mce24000058" x="112.429177" y="16.964432" style="fill: #2e86ab; stroke: #2e86ab"/>
     <use xlink:href="#mce24000058" x="113.237526" y="16.964432" style="fill: #2e86ab; stroke: #2e86ab"/>
     <use xlink:href="#mce24000058" x="113.686609" y="16.964432" style="fill: #2e86ab; stroke: #2e86ab"/>
     <use xlink:href="#mce24000058" x="116.336199" y="16.964432" style="fill: #2e86ab; stroke: #2e86ab"/>
     <use xlink:href="#mce24000058" x="116.605649" y="16.964432" style="fill: #2e86ab; stroke: #2e86ab"/>
     <use xlink:href="#mce24000058" x="118.71634" y="16.964432" style="fill: #2e86ab; stroke: #2e86ab"/>
     <use xlink:href="#mce24000058" x="119.839047" y="16.964432" style="fill: #2e86ab; stroke: #2e86ab"/>
     <use xlink:href="#mce24000058" x="120.108497" y="16.964432" style="fill: #2e86ab; stroke: #2e86ab"/>
     <use xlink:href="#mce24000058" x="120.737213" y="16.964432" style="fill: #2e86ab; stroke: #2e86ab"/>
     <use xlink:href="#mce24000058" x="121.815013" y="16.964432" style="fill: #2e86ab; stroke: #2e86ab"/>
     <use xlink:href="#mce24000058" x="124.240061" y="16.964432" style="fill: #2e86ab; stroke: #2e86ab"/>
     <use xlink:href="#mce24000058" x="125.497494" y="16.964432" style="fill: #2e86ab; stroke: #2e86ab"/>
     <use xlink:href="#mce24000058" x="127.069285" y="16.964432" style="fill: #2e86ab; stroke: #2e86ab"/>
     <use xlink:href="#mce24000058" x="127.159101" y="16.964432" style="fill: #2e86ab; stroke: #2e86ab"/>
     <use xlink:href="#mce24000058" x="127.293826" y="16.964432" style="fill: #2e86ab; stroke: #2e86ab"/>
     <use xlink:href="#mce24000058" x="129.808691" y="16.964432" style="fill: #2e86ab; stroke: #2e86ab"/>
     <use xlink:href="#mce24000058" x="129.8536" y="16.964432" style="fill: #2e86ab; stroke: #2e86ab"/>
     <use xlink:href="#mce24000058" x="130.347591" y="16.964432" style="fill: #2e86ab; stroke: #2e86ab"/>
     <use xlink:href="#mce24000058" x="130.527224" y="16.964432" style="fill: #2e86ab; stroke: #2e86ab"/>
     <use xlink:href="#mce24000058" x="130.661949" y="16.964432" style="fill: #2e86ab; stroke: #2e86ab"/>
     <use xlink:href="#mce24000058" x="131.42539" y="16.964432" style="fill: #2e86ab; stroke: #2e86ab"/>
     <use xlink:href="#mce24000058" x="131.649932" y="16.964432" style="fill: #2e86ab; stroke: #2e86ab"/>
     <use xlink:href="#mce24000058" x="134.34443" y="16.964432" style="fill: #2e86ab; stroke: #2e86ab"/>
     <use xlink:href="#mce24000058" x="135.691679" y="16.964432" style="fill: #2e86ab; stroke: #2e86ab"/>
     <use xlink:href="#mce24000058" x="137.398195" y="16.964432" style="fill: #2e86ab; stroke: #2e86ab"/>
     <use xlink:href="#mce24000058" x="142.607559" y="16.964432" style="fill: #2e86ab; stroke: #2e86ab"/>
     <use xlink:href="#mce24000058" x="143.460816" y="16.964432" style="fill: #2e86ab; stroke: #2e86ab"/>
     <use xlink:href="#mce24000058" x="144.269166" y="16.964432" style="fill: #2e86ab; stroke: #2e86ab"/>
     <use xlink:href="#mce24000058" x="145.257149" y="16.964432" style="fill: #2e86ab; stroke: #2e86ab"/>
     <use xlink:href="#mce24000058" x="148.445638" y="16.964432" style="fill: #2e86ab; stroke: #2e86ab"/>
     <use xlink:href="#mce24000058" x="157.517116" y="16.964432" style="fill: #2e86ab; stroke: #2e86ab"/>
     <use xlink:href="#mce24000058" x="158.909274" y="16.964432" style="fill: #2e86ab; stroke: #2e86ab"/>
     <use xlink:href="#mce24000058" x="161.019964" y="16.964432" style="fill: #2e86ab; stroke: #2e86ab"/>
     <use xlink:href="#mce24000058" x="164.926987" y="16.964432" style="fill: #2e86ab; stroke: #2e86ab"/>
     <use xlink:href="#mce24000058" x="168.429835" y="16.964432" style="fill: #2e86ab; stroke: #2e86ab"/>
     <use xlink:href="#mce24000058" x="169.238184" y="16.964432" style="fill: #2e86ab; stroke: #2e86ab"/>
     <use xlink:href="#mce24000058" x="172.741032" y="16.964432" style="fill: #2e86ab; stroke: #2e86ab"/>
     <use xlink:href="#mce24000058" x="174.851722" y="16.964432" style="fill: #2e86ab; stroke: #2e86ab"/>
     <use xlink:href="#mce24000058" x="190.704354" y="16.964432" style="fill: #2e86ab; stroke: #2e86ab"/>
     <use xlink:href="#mce24000058" x="193.21922" y="16.964432" style="fill: #2e86ab; stroke: #2e86ab"/>
     <use xlink:href="#mce24000058" x="193.758119" y="16.964432" style="fill: #2e86ab; stroke: #2e86ab"/>
     <use xlink:href="#mce24000058" x="211.047817" y="16.964432" style="fill: #2e86ab; stroke: #2e86ab"/>
     <use xlink:href="#mce24000058" x="211.856167" y="16.964432" style="fill: #2e86ab; stroke: #2e86ab"/>
     <use xlink:href="#mce24000058" x="218.412779" y="16.964432" style="fill: #2e86ab; stroke: #2e86ab"/>
     <use xlink:href="#mce24000058" x="262.692369" y="16.964432" style="fill: #2e86ab; stroke: #2e86ab"/>
     <use xlink:href="#mce24000058" x="266.015584" y="16.964432" style="fill: #2e86ab; stroke: #2e86ab"/>
     <use xlink:href="#mce24000058" x="266.419759" y="16.964432" style="fill: #2e86ab; stroke: #2e86ab"/>
    </g>
   </g>
   <g id="line2d_26">
    <path d="M 36.758681 15.350476 
L 72.595509 15.350476 
L 72.595509 16.964432 
L 266.419759 16.964432 
L 266.419759 16.964432 
" clip-path="url(#p976e98014e)" style="fill: none; stroke: #2e86ab; stroke-width: 2; stroke-linecap: round"/>
   </g>
   <g id="line2d_27">
    <defs>
     <path id="mc4e4d49034" d="M -3 3 
L 3 -3 
M -3 -3 
L 3 3 
" style="stroke: #e63946"/>
    </defs>
    <g clip-path="url(#p976e98014e)">
     <use xlink:href="#mc4e4d49034" x="39.632812" y="16.933093" style="fill: #e63946; stroke: #e63946"/>
     <use xlink:href="#mc4e4d49034" x="43.40511" y="25.680364" style="fill: #e63946; stroke: #e63946"/>
     <use xlink:href="#mc4e4d49034" x="48.030666" y="42.46713" style="fill: #e63946; stroke: #e63946"/>
     <use xlink:href="#mc4e4d49034" x="49.692273" y="50.508128" style="fill: #e63946; stroke: #e63946"/>
     <use xlink:href="#mc4e4d49034" x="52.027505" y="65.073531" style="fill: #e63946; stroke: #e63946"/>
     <use xlink:href="#mc4e4d49034" x="55.754894" y="77.29869" style="fill: #e63946; stroke: #e63946"/>
     <use xlink:href="#mc4e4d49034" x="55.844711" y="77.29869" style="fill: #e63946; stroke: #e63946"/>
     <use xlink:href="#mc4e4d49034" x="56.024344" y="78.955433" style="fill: #e63946; stroke: #e63946"/>
     <use xlink:href="#mc4e4d49034" x="56.159069" y="78.955433" style="fill: #e63946; stroke: #e63946"/>
     <use xlink:href="#mc4e4d49034" x="56.248886" y="80.640256" style="fill: #e63946; stroke: #e63946"/>
     <use xlink:href="#mc4e4d49034" x="56.338702" y="80.640256" style="fill: #e63946; stroke: #e63946"/>
     <use xlink:href="#mc4e4d49034" x="56.563244" y="80.640256" style="fill: #e63946; stroke: #e63946"/>
     <use xlink:href="#mc4e4d49034" x="56.787785" y="80.640256" style="fill: #e63946; stroke: #e63946"/>
     <use xlink:href="#mc4e4d49034" x="58.718843" y="92.855224" style="fill: #e63946; stroke: #e63946"/>
     <use xlink:href="#mc4e4d49034" x="60.066092" y="97.262687" style="fill: #e63946; stroke: #e63946"/>
     <use xlink:href="#mc4e4d49034" x="60.604991" y="99.936224" style="fill: #e63946; stroke: #e63946"/>
     <use xlink:href="#mc4e4d49034" x="63.703665" y="109.851874" style="fill: #e63946; stroke: #e63946"/>
     <use xlink:href="#mc4e4d49034" x="63.883298" y="110.765316" style="fill: #e63946; stroke: #e63946"/>
     <use xlink:href="#mc4e4d49034" x="64.781464" y="115.395089" style="fill: #e63946; stroke: #e63946"/>
     <use xlink:href="#mc4e4d49034" x="64.871281" y="115.395089" style="fill: #e63946; stroke: #e63946"/>
     <use xlink:href="#mc4e4d49034" x="65.67963" y="120.165158" style="fill: #e63946; stroke: #e63946"/>
     <use xlink:href="#mc4e4d49034" x="66.128713" y="121.135072" style="fill: #e63946; stroke: #e63946"/>
     <use xlink:href="#mc4e4d49034" x="71.068627" y="135.934622" style="fill: #e63946; stroke: #e63946"/>
     <use xlink:href="#mc4e4d49034" x="72.460784" y="138.965006" style="fill: #e63946; stroke: #e63946"/>
     <use xlink:href="#mc4e4d49034" x="88.762499" y="157.625793" style="fill: #e63946; stroke: #e63946"/>
     <use xlink:href="#mc4e4d49034" x="122.488637" y="168.538533" style="fill: #e63946; stroke: #e63946"/>
     <use xlink:href="#mc4e4d49034" x="146.514581" y="172.221583" style="fill: #e63946; stroke: #e63946"/>
    </g>
   </g>
   <g id="line2d_28">
    <path d="M 39.632812 16.933093 
L 40.48607 16.933093 
L 40.530979 18.523506 
L 42.147678 18.523506 
L 42.192586 20.909125 
L 42.417127 20.909125 
L 42.417127 21.704332 
L 42.551852 21.704332 
L 42.551852 22.499538 
L 42.686577 22.499538 
L 42.731486 24.089951 
L 43.045844 24.089951 
L 43.045844 24.885157 
L 43.270385 24.885157 
L 43.270385 25.680364 
L 43.584743 25.680364 
L 43.67456 27.279103 
L 43.809285 27.279103 
L 43.809285 28.078473 
L 44.033827 28.078473 
L 44.078735 29.677213 
L 44.393093 29.677213 
L 44.393093 30.476583 
L 44.931993 30.476583 
L 44.931993 31.275953 
L 45.111626 31.275953 
L 45.111626 32.075322 
L 45.381076 32.075322 
L 45.381076 32.874692 
L 45.515801 32.874692 
L 45.515801 33.674062 
L 46.009792 33.674062 
L 46.099609 35.272802 
L 46.189425 35.272802 
L 46.189425 36.072171 
L 46.32415 36.072171 
L 46.32415 36.871541 
L 46.548692 36.871541 
L 46.548692 38.470281 
L 46.952866 38.470281 
L 46.952866 39.269651 
L 47.177408 39.269651 
L 47.177408 40.86839 
L 47.401949 40.86839 
L 47.401949 41.66776 
L 47.806124 41.66776 
L 47.806124 42.46713 
L 48.210299 42.46713 
L 48.210299 43.27123 
L 48.614474 43.27123 
L 48.614474 44.87943 
L 48.839015 44.87943 
L 48.883924 46.487629 
L 49.108465 46.487629 
L 49.198282 48.095829 
L 49.333007 48.095829 
L 49.333007 48.899929 
L 49.51264 48.899929 
L 49.51264 49.704028 
L 49.647365 49.704028 
L 49.692273 50.508128 
L 49.692273 50.508128 
L 50.05154 50.508128 
L 50.05154 52.126506 
L 50.276081 52.126506 
L 50.276081 52.935695 
L 50.680256 52.935695 
L 50.770072 54.554074 
L 50.859889 54.554074 
L 50.904797 56.172452 
L 50.994614 56.172452 
L 51.039522 58.600019 
L 51.219155 58.600019 
L 51.264064 60.218397 
L 51.35388 60.218397 
L 51.398789 61.836775 
L 51.847872 61.836775 
L 51.937688 65.073531 
L 52.117322 65.073531 
L 52.117322 65.888542 
L 52.835855 65.888542 
L 52.835855 67.518563 
L 53.240029 67.518563 
L 53.240029 68.333574 
L 53.599296 68.333574 
L 53.599296 69.148584 
L 54.048379 69.148584 
L 54.048379 69.963595 
L 54.183104 69.963595 
L 54.183104 71.593616 
L 54.362737 71.593616 
L 54.407645 73.223637 
L 54.54237 73.223637 
L 54.54237 74.038648 
L 54.901637 74.038648 
L 54.901637 74.853658 
L 55.08127 74.853658 
L 55.08127 76.483679 
L 55.620169 76.483679 
L 55.620169 77.29869 
L 55.889619 77.29869 
L 55.979436 78.955433 
L 56.248886 78.955433 
L 56.248886 80.640256 
L 56.338702 80.640256 
L 56.92251 80.640256 
L 56.967419 83.257749 
L 57.057235 83.257749 
L 57.057235 84.130247 
L 57.19196 84.130247 
L 57.281777 85.875242 
L 57.596135 85.875242 
L 57.596135 86.74774 
L 57.865585 86.74774 
L 57.955401 88.492735 
L 58.179943 88.492735 
L 58.26976 91.982726 
L 58.404484 91.982726 
L 58.404484 92.855224 
L 59.123017 92.855224 
L 59.123017 93.736716 
L 59.257742 93.736716 
L 59.257742 94.618209 
L 59.976275 94.618209 
L 60.066092 97.262687 
L 60.290633 97.262687 
L 60.290633 98.153866 
L 60.604991 98.153866 
L 60.604991 99.936224 
L 60.91935 99.936224 
L 60.91935 100.837647 
L 61.458249 100.837647 
L 61.458249 101.73907 
L 61.727699 101.73907 
L 61.727699 102.640492 
L 61.862424 102.640492 
L 61.862424 103.541915 
L 62.446232 103.541915 
L 62.536049 106.246183 
L 63.074948 106.246183 
L 63.074948 107.147606 
L 63.434215 107.147606 
L 63.434215 108.049029 
L 63.613848 108.049029 
L 63.703665 109.851874 
L 63.83839 109.851874 
L 63.83839 110.765316 
L 63.883298 110.765316 
L 64.062931 110.765316 
L 64.062931 112.617225 
L 64.197656 112.617225 
L 64.197656 114.469134 
L 64.332381 114.469134 
L 64.332381 115.395089 
L 65.006005 115.395089 
L 65.006005 117.303116 
L 65.455089 117.303116 
L 65.544905 119.211144 
L 65.634722 119.211144 
L 65.634722 120.165158 
L 65.67963 120.165158 
L 66.128713 120.165158 
L 66.128713 121.135072 
L 66.263438 121.135072 
L 66.263438 122.121708 
L 66.532888 122.121708 
L 66.532888 123.108345 
L 66.667613 123.108345 
L 66.667613 124.094982 
L 67.116696 124.094982 
L 67.116696 125.081619 
L 67.251421 125.081619 
L 67.341237 127.054892 
L 67.610687 127.054892 
L 67.610687 128.041529 
L 67.925045 128.041529 
L 67.925045 129.028165 
L 68.86812 129.028165 
L 68.86812 130.014802 
L 69.496836 130.014802 
L 69.496836 131.001439 
L 69.901011 131.001439 
L 69.901011 131.988075 
L 70.170461 131.988075 
L 70.170461 132.974712 
L 70.395002 132.974712 
L 70.395002 133.961349 
L 70.619544 133.961349 
L 70.619544 134.947985 
L 70.888994 134.947985 
L 70.888994 135.934622 
L 71.338077 135.934622 
L 71.338077 136.94475 
L 71.607526 136.94475 
L 71.607526 137.954878 
L 71.921885 137.954878 
L 71.921885 138.965006 
L 72.820051 138.965006 
L 72.820051 140.001717 
L 74.571475 140.001717 
L 74.571475 141.038427 
L 75.334916 141.038427 
L 75.334916 142.075137 
L 76.412715 142.075137 
L 76.412715 143.111848 
L 76.592348 143.111848 
L 76.592348 144.148558 
L 77.131248 144.148558 
L 77.131248 145.185268 
L 78.209047 145.185268 
L 78.209047 146.221979 
L 78.433589 146.221979 
L 78.433589 147.258689 
L 80.229921 147.258689 
L 80.229921 148.2954 
L 81.891529 148.2954 
L 81.891529 149.33211 
L 82.250795 149.33211 
L 82.250795 150.36882 
L 83.373503 150.36882 
L 83.373503 151.405531 
L 84.720752 151.405531 
L 84.76566 153.478951 
L 84.900385 153.478951 
L 84.900385 154.515662 
L 86.157818 154.515662 
L 86.157818 155.552372 
L 87.41525 155.552372 
L 87.41525 156.589082 
L 87.999058 156.589082 
L 87.999058 157.625793 
L 91.861173 157.625793 
L 91.861173 158.717067 
L 96.666361 158.717067 
L 96.666361 159.808341 
L 100.169209 159.808341 
L 100.169209 160.899615 
L 101.022467 160.899615 
L 101.022467 161.990889 
L 103.402607 161.990889 
L 103.402607 163.082163 
L 103.537332 163.082163 
L 103.537332 164.173437 
L 109.510137 164.173437 
L 109.510137 165.264711 
L 114.629684 165.264711 
L 114.629684 166.355985 
L 116.785282 166.355985 
L 116.785282 167.447259 
L 120.647397 167.447259 
L 120.647397 168.538533 
L 123.566437 168.538533 
L 123.566437 169.766217 
L 128.147084 169.766217 
L 128.147084 170.9939 
L 130.347591 170.9939 
L 130.347591 172.221583 
L 158.235649 172.221583 
L 158.235649 173.756188 
L 166.633502 173.756188 
L 166.633502 175.290792 
L 172.291949 175.290792 
L 172.291949 176.825396 
L 182.575951 176.825396 
L 182.575951 178.36 
L 182.575951 178.36 
" clip-path="url(#p976e98014e)" style="fill: none; stroke: #e63946; stroke-width: 2; stroke-linecap: round"/>
   </g>
   <g id="patch_3">
    <path d="M 39.632812 178.36 
L 39.632812 7.2 
" style="fill: none; stroke: #262626; stroke-width: 0.8; stroke-linejoin: miter; stroke-linecap: square"/>
   </g>
   <g id="patch_4">
    <path d="M 277.902813 178.36 
L 277.902813 7.2 
" style="fill: none; stroke: #262626; stroke-width: 0.8; stroke-linejoin: miter; stroke-linecap: square"/>
   </g>
   <g id="patch_5">
    <path d="M 39.632812 178.36 
L 277.902813 178.36 
" style="fill: none; stroke: #262626; stroke-width: 0.8; stroke-linejoin: miter; stroke-linecap: square"/>
   </g>
   <g id="patch_6">
    <path d="M 39.632812 7.2 
L 277.902813 7.2 
" style="fill: none; stroke: #262626; stroke-width: 0.8; stroke-linejoin: miter; stroke-linecap: square"/>
   </g>
   <g id="text_15">
    <g id="patch_7">
     <path d="M 229.696163 25.9005 
L 273.137413 25.9005 
Q 275.537413 25.9005 275.537413 23.5005 
L 275.537413 15.758 
Q 275.537413 13.358 273.137413 13.358 
L 229.696163 13.358 
Q 227.296163 13.358 227.296163 15.758 
L 227.296163 23.5005 
Q 227.296163 25.9005 229.696163 25.9005 
z
" style="fill: #ffffff; opacity: 0.8; stroke: #ffffff; stroke-linejoin: miter"/>
    </g>
    <!-- P &lt; 0.001 -->
    <g style="fill: #262626" transform="translate(229.696163 21.83675) scale(0.08 -0.08)">
     <defs>
      <path id="DejaVuSans-Bold-50" d="M 588 4666 
L 2584 4666 
Q 3475 4666 3951 4270 
Q 4428 3875 4428 3144 
Q 4428 2409 3951 2014 
Q 3475 1619 2584 1619 
L 1791 1619 
L 1791 0 
L 588 0 
L 588 4666 
z
M 1791 3794 
L 1791 2491 
L 2456 2491 
Q 2806 2491 2997 2661 
Q 3188 2831 3188 3144 
Q 3188 3456 2997 3625 
Q 2806 3794 2456 3794 
L 1791 3794 
z
" transform="scale(0.015625)"/>
      <path id="DejaVuSans-Bold-20" transform="scale(0.015625)"/>
      <path id="DejaVuSans-Bold-3c" d="M 4684 3041 
L 1672 2003 
L 4684 972 
L 4684 191 
L 678 1638 
L 678 2375 
L 4684 3822 
L 4684 3041 
z
" transform="scale(0.015625)"/>
      <path id="DejaVuSans-Bold-30" d="M 2944 2338 
Q 2944 3213 2780 3570 
Q 2616 3928 2228 3928 
Q 1841 3928 1675 3570 
Q 1509 3213 1509 2338 
Q 1509 1453 1675 1090 
Q 1841 728 2228 728 
Q 2613 728 2778 1090 
Q 2944 1453 2944 2338 
z
M 4147 2328 
Q 4147 1169 3647 539 
Q 3147 -91 2228 -91 
Q 1306 -91 806 539 
Q 306 1169 306 2328 
Q 306 3491 806 4120 
Q 1306 4750 2228 4750 
Q 3147 4750 3647 4120 
Q 4147 3491 4147 2328 
z
" transform="scale(0.015625)"/>
      <path id="DejaVuSans-Bold-2e" d="M 653 1209 
L 1778 1209 
L 1778 0 
L 653 0 
L 653 1209 
z
" transform="scale(0.015625)"/>
      <path id="DejaVuSans-Bold-31" d="M 750 831 
L 1813 831 
L 1813 3847 
L 722 3622 
L 722 4441 
L 1806 4666 
L 2950 4666 
L 2950 831 
L 4013 831 
L 4013 0 
L 750 0 
L 750 831 
z
" transform="scale(0.015625)"/>
     </defs>
     <use xlink:href="#DejaVuSans-Bold-50"/>
     <use xlink:href="#DejaVuSans-Bold-20" transform="translate(73.291016 0)"/>
     <use xlink:href="#DejaVuSans-Bold-3c" transform="translate(108.105469 0)"/>
     <use xlink:href="#DejaVuSans-Bold-20" transform="translate(191.894531 0)"/>
     <use xlink:href="#DejaVuSans-Bold-30" transform="translate(226.708984 0)"/>
     <use xlink:href="#DejaVuSans-Bold-2e" transform="translate(296.289062 0)"/>
     <use xlink:href="#DejaVuSans-Bold-30" transform="translate(334.277344 0)"/>
     <use xlink:href="#DejaVuSans-Bold-30" transform="translate(403.857422 0)"/>
     <use xlink:href="#DejaVuSans-Bold-31" transform="translate(473.4375 0)"/>
    </g>
   </g>
  </g>
 </g>
 <defs>
  <clipPath id="p976e98014e">
   <rect x="39.632812" y="7.2" width="238.27" height="171.16"/>
  </clipPath>
 </defs>
</svg>
