<?xml version="1.0" encoding="utf-8" standalone="no"?>
<!DOCTYPE svg PUBLIC "-//W3C//DTD SVG 1.1//EN"
  "http://www.w3.org/Graphics/SVG/1.1/DTD/svg11.dtd">
<svg xmlns:xlink="http://www.w3.org/1999/xlink" width="285.102812pt" height="213.012812pt" viewBox="0 0 285.102812 213.012812" xmlns="http://www.w3.org/2000/svg" version="1.1">
 <metadata>
  <rdf:RDF xmlns:dc="http://purl.org/dc/elements/1.1/" xmlns:cc="http://creativecommons.org/ns#" xmlns:rdf="http://www.w3.org/1999/02/22-rdf-syntax-ns#">
   <cc:Work>
    <dc:type rdf:resource="http://purl.org/dc/dcmitype/StillImage"/>
    <dc:date>2025-07-12T20:17:42.615222</dc:date>
    <dc:format>image/svg+xml</dc:format>
    <dc:creator>
     <cc:Agent>
      <dc:title>Matplotlib v3.10.3, https://matplotlib.org/</dc:title>
     </cc:Agent>
    </dc:creator>
   </cc:Work>
  </rdf:RDF>
 </metadata>
 <defs>
  <style type="text/css">*{stroke-linejoin: round; stroke-linecap: butt}</style>
 </defs>
 <g id="figure_1">
  <g id="patch_1">
   <path d="M 0 213.012812 
L 285.102812 213.012812 
L 285.102812 0 
L 0 0 
L 0 213.012812 
z
" style="fill: none"/>
  </g>
  <g id="axes_1">
   <g id="patch_2">
    <path d="M 39.632812 178.36 
L 277.902813 178.36 
L 277.902813 7.2 
L 39.632812 7.2 
L 39.632812 178.36 
z
" style="fill: none"/>
   </g>
   <g id="matplotlib.axis_1">
    <g id="xtick_1">
     <g id="line2d_1">
      <path d="M 39.632812 178.36 
L 39.632812 7.2 
" clip-path="url(#pec8999e7aa)" style="fill: none; stroke: #cccccc; stroke-opacity: 0.3; stroke-width: 0.5; stroke-linecap: round"/>
     </g>
     <g id="line2d_2">
      <defs>
       <path id="mb962fd9af2" d="M 0 0 
L 0 3.5 
" style="stroke: #262626; stroke-width: 0.8"/>
      </defs>
      <g>
       <use xlink:href="#mb962fd9af2" x="39.632812" y="178.36" style="fill: #262626; stroke: #262626; stroke-width: 0.8"/>
      </g>
     </g>
     <g id="text_1">
      <!-- 0 -->
      <g style="fill: #262626" transform="translate(37.087812 191.43875) scale(0.08 -0.08)">
       <defs>
        <path id="DejaVuSans-30" d="M 2034 4250 
Q 1547 4250 1301 3770 
Q 1056 3291 1056 2328 
Q 1056 1369 1301 889 
Q 1547 409 2034 409 
Q 2525 409 2770 889 
Q 3016 1369 3016 2328 
Q 3016 3291 2770 3770 
Q 2525 4250 2034 4250 
z
M 2034 4750 
Q 2819 4750 3233 4129 
Q 3647 3509 3647 2328 
Q 3647 1150 3233 529 
Q 2819 -91 2034 -91 
Q 1250 -91 836 529 
Q 422 1150 422 2328 
Q 422 3509 836 4129 
Q 1250 4750 2034 4750 
z
" transform="scale(0.015625)"/>
       </defs>
       <use xlink:href="#DejaVuSans-30"/>
      </g>
     </g>
    </g>
    <g id="xtick_2">
     <g id="line2d_3">
      <path d="M 84.541119 178.36 
L 84.541119 7.2 
" clip-path="url(#pec8999e7aa)" style="fill: none; stroke: #cccccc; stroke-opacity: 0.3; stroke-width: 0.5; stroke-linecap: round"/>
     </g>
     <g id="line2d_4">
      <g>
       <use xlink:href="#mb962fd9af2" x="84.541119" y="178.36" style="fill: #262626; stroke: #262626; stroke-width: 0.8"/>
      </g>
     </g>
     <g id="text_2">
      <!-- 1000 -->
      <g style="fill: #262626" transform="translate(74.361119 191.43875) scale(0.08 -0.08)">
       <defs>
        <path id="DejaVuSans-31" d="M 794 531 
L 1825 531 
L 1825 4091 
L 703 3866 
L 703 4441 
L 1819 4666 
L 2450 4666 
L 2450 531 
L 3481 531 
L 3481 0 
L 794 0 
L 794 531 
z
" transform="scale(0.015625)"/>
       </defs>
       <use xlink:href="#DejaVuSans-31"/>
       <use xlink:href="#DejaVuSans-30" transform="translate(63.623047 0)"/>
       <use xlink:href="#DejaVuSans-30" transform="translate(127.246094 0)"/>
       <use xlink:href="#DejaVuSans-30" transform="translate(190.869141 0)"/>
      </g>
     </g>
    </g>
    <g id="xtick_3">
     <g id="line2d_5">
      <path d="M 129.449425 178.36 
L 129.449425 7.2 
" clip-path="url(#pec8999e7aa)" style="fill: none; stroke: #cccccc; stroke-opacity: 0.3; stroke-width: 0.5; stroke-linecap: round"/>
     </g>
     <g id="line2d_6">
      <g>
       <use xlink:href="#mb962fd9af2" x="129.449425" y="178.36" style="fill: #262626; stroke: #262626; stroke-width: 0.8"/>
      </g>
     </g>
     <g id="text_3">
      <!-- 2000 -->
      <g style="fill: #262626" transform="translate(119.269425 191.43875) scale(0.08 -0.08)">
       <defs>
        <path id="DejaVuSans-32" d="M 1228 531 
L 3431 531 
L 3431 0 
L 469 0 
L 469 531 
Q 828 903 1448 1529 
Q 2069 2156 2228 2338 
Q 2531 2678 2651 2914 
Q 2772 3150 2772 3378 
Q 2772 3750 2511 3984 
Q 2250 4219 1831 4219 
Q 1534 4219 1204 4116 
Q 875 4013 500 3803 
L 500 4441 
Q 881 4594 1212 4672 
Q 1544 4750 1819 4750 
Q 2544 4750 2975 4387 
Q 3406 4025 3406 3419 
Q 3406 3131 3298 2873 
Q 3191 2616 2906 2266 
Q 2828 2175 2409 1742 
Q 1991 1309 1228 531 
z
" transform="scale(0.015625)"/>
       </defs>
       <use xlink:href="#DejaVuSans-32"/>
       <use xlink:href="#DejaVuSans-30" transform="translate(63.623047 0)"/>
       <use xlink:href="#DejaVuSans-30" transform="translate(127.246094 0)"/>
       <use xlink:href="#DejaVuSans-30" transform="translate(190.869141 0)"/>
      </g>
     </g>
    </g>
    <g id="xtick_4">
     <g id="line2d_7">
      <path d="M 174.357731 178.36 
L 174.357731 7.2 
" clip-path="url(#pec8999e7aa)" style="fill: none; stroke: #cccccc; stroke-opacity: 0.3; stroke-width: 0.5; stroke-linecap: round"/>
     </g>
     <g id="line2d_8">
      <g>
       <use xlink:href="#mb962fd9af2" x="174.357731" y="178.36" style="fill: #262626; stroke: #262626; stroke-width: 0.8"/>
      </g>
     </g>
     <g id="text_4">
      <!-- 3000 -->
      <g style="fill: #262626" transform="translate(164.177731 191.43875) scale(0.08 -0.08)">
       <defs>
        <path id="DejaVuSans-33" d="M 2597 2516 
Q 3050 2419 3304 2112 
Q 3559 1806 3559 1356 
Q 3559 666 3084 287 
Q 2609 -91 1734 -91 
Q 1441 -91 1130 -33 
Q 819 25 488 141 
L 488 750 
Q 750 597 1062 519 
Q 1375 441 1716 441 
Q 2309 441 2620 675 
Q 2931 909 2931 1356 
Q 2931 1769 2642 2001 
Q 2353 2234 1838 2234 
L 1294 2234 
L 1294 2753 
L 1863 2753 
Q 2328 2753 2575 2939 
Q 2822 3125 2822 3475 
Q 2822 3834 2567 4026 
Q 2313 4219 1838 4219 
Q 1578 4219 1281 4162 
Q 984 4106 628 3988 
L 628 4550 
Q 988 4650 1302 4700 
Q 1616 4750 1894 4750 
Q 2613 4750 3031 4423 
Q 3450 4097 3450 3541 
Q 3450 3153 3228 2886 
Q 3006 2619 2597 2516 
z
" transform="scale(0.015625)"/>
       </defs>
       <use xlink:href="#DejaVuSans-33"/>
       <use xlink:href="#DejaVuSans-30" transform="translate(63.623047 0)"/>
       <use xlink:href="#DejaVuSans-30" transform="translate(127.246094 0)"/>
       <use xlink:href="#DejaVuSans-30" transform="translate(190.869141 0)"/>
      </g>
     </g>
    </g>
    <g id="xtick_5">
     <g id="line2d_9">
      <path d="M 219.266037 178.36 
L 219.266037 7.2 
" clip-path="url(#pec8999e7aa)" style="fill: none; stroke: #cccccc; stroke-opacity: 0.3; stroke-width: 0.5; stroke-linecap: round"/>
     </g>
     <g id="line2d_10">
      <g>
       <use xlink:href="#mb962fd9af2" x="219.266037" y="178.36" style="fill: #262626; stroke: #262626; stroke-width: 0.8"/>
      </g>
     </g>
     <g id="text_5">
      <!-- 4000 -->
      <g style="fill: #262626" transform="translate(209.086037 191.43875) scale(0.08 -0.08)">
       <defs>
        <path id="DejaVuSans-34" d="M 2419 4116 
L 825 1625 
L 2419 1625 
L 2419 4116 
z
M 2253 4666 
L 3047 4666 
L 3047 1625 
L 3713 1625 
L 3713 1100 
L 3047 1100 
L 3047 0 
L 2419 0 
L 2419 1100 
L 313 1100 
L 313 1709 
L 2253 4666 
z
" transform="scale(0.015625)"/>
       </defs>
       <use xlink:href="#DejaVuSans-34"/>
       <use xlink:href="#DejaVuSans-30" transform="translate(63.623047 0)"/>
       <use xlink:href="#DejaVuSans-30" transform="translate(127.246094 0)"/>
       <use xlink:href="#DejaVuSans-30" transform="translate(190.869141 0)"/>
      </g>
     </g>
    </g>
    <g id="xtick_6">
     <g id="line2d_11">
      <path d="M 264.174343 178.36 
L 264.174343 7.2 
" clip-path="url(#pec8999e7aa)" style="fill: none; stroke: #cccccc; stroke-opacity: 0.3; stroke-width: 0.5; stroke-linecap: round"/>
     </g>
     <g id="line2d_12">
      <g>
       <use xlink:href="#mb962fd9af2" x="264.174343" y="178.36" style="fill: #262626; stroke: #262626; stroke-width: 0.8"/>
      </g>
     </g>
     <g id="text_6">
      <!-- 5000 -->
      <g style="fill: #262626" transform="translate(253.994343 191.43875) scale(0.08 -0.08)">
       <defs>
        <path id="DejaVuSans-35" d="M 691 4666 
L 3169 4666 
L 3169 4134 
L 1269 4134 
L 1269 2991 
Q 1406 3038 1543 3061 
Q 1681 3084 1819 3084 
Q 2600 3084 3056 2656 
Q 3513 2228 3513 1497 
Q 3513 744 3044 326 
Q 2575 -91 1722 -91 
Q 1428 -91 1123 -41 
Q 819 9 494 109 
L 494 744 
Q 775 591 1075 516 
Q 1375 441 1709 441 
Q 2250 441 2565 725 
Q 2881 1009 2881 1497 
Q 2881 1984 2565 2268 
Q 2250 2553 1709 2553 
Q 1456 2553 1204 2497 
Q 953 2441 691 2322 
L 691 4666 
z
" transform="scale(0.015625)"/>
       </defs>
       <use xlink:href="#DejaVuSans-35"/>
       <use xlink:href="#DejaVuSans-30" transform="translate(63.623047 0)"/>
       <use xlink:href="#DejaVuSans-30" transform="translate(127.246094 0)"/>
       <use xlink:href="#DejaVuSans-30" transform="translate(190.869141 0)"/>
      </g>
     </g>
    </g>
    <g id="text_7">
     <!-- Time (days) -->
     <g style="fill: #262626" transform="translate(132.193906 203.941094) scale(0.09 -0.09)">
      <defs>
       <path id="DejaVuSans-54" d="M -19 4666 
L 3928 4666 
L 3928 4134 
L 2272 4134 
L 2272 0 
L 1638 0 
L 1638 4134 
L -19 4134 
L -19 4666 
z
" transform="scale(0.015625)"/>
       <path id="DejaVuSans-69" d="M 603 3500 
L 1178 3500 
L 1178 0 
L 603 0 
L 603 3500 
z
M 603 4863 
L 1178 4863 
L 1178 4134 
L 603 4134 
L 603 4863 
z
" transform="scale(0.015625)"/>
       <path id="DejaVuSans-6d" d="M 3328 2828 
Q 3544 3216 3844 3400 
Q 4144 3584 4550 3584 
Q 5097 3584 5394 3201 
Q 5691 2819 5691 2113 
L 5691 0 
L 5113 0 
L 5113 2094 
Q 5113 2597 4934 2840 
Q 4756 3084 4391 3084 
Q 3944 3084 3684 2787 
Q 3425 2491 3425 1978 
L 3425 0 
L 2847 0 
L 2847 2094 
Q 2847 2600 2669 2842 
Q 2491 3084 2119 3084 
Q 1678 3084 1418 2786 
Q 1159 2488 1159 1978 
L 1159 0 
L 581 0 
L 581 3500 
L 1159 3500 
L 1159 2956 
Q 1356 3278 1631 3431 
Q 1906 3584 2284 3584 
Q 2666 3584 2933 3390 
Q 3200 3197 3328 2828 
z
" transform="scale(0.015625)"/>
       <path id="DejaVuSans-65" d="M 3597 1894 
L 3597 1613 
L 953 1613 
Q 991 1019 1311 708 
Q 1631 397 2203 397 
Q 2534 397 2845 478 
Q 3156 559 3463 722 
L 3463 178 
Q 3153 47 2828 -22 
Q 2503 -91 2169 -91 
Q 1331 -91 842 396 
Q 353 884 353 1716 
Q 353 2575 817 3079 
Q 1281 3584 2069 3584 
Q 2775 3584 3186 3129 
Q 3597 2675 3597 1894 
z
M 3022 2063 
Q 3016 2534 2758 2815 
Q 2500 3097 2075 3097 
Q 1594 3097 1305 2825 
Q 1016 2553 972 2059 
L 3022 2063 
z
" transform="scale(0.015625)"/>
       <path id="DejaVuSans-20" transform="scale(0.015625)"/>
       <path id="DejaVuSans-28" d="M 1984 4856 
Q 1566 4138 1362 3434 
Q 1159 2731 1159 2009 
Q 1159 1288 1364 580 
Q 1569 -128 1984 -844 
L 1484 -844 
Q 1016 -109 783 600 
Q 550 1309 550 2009 
Q 550 2706 781 3412 
Q 1013 4119 1484 4856 
L 1984 4856 
z
" transform="scale(0.015625)"/>
       <path id="DejaVuSans-64" d="M 2906 2969 
L 2906 4863 
L 3481 4863 
L 3481 0 
L 2906 0 
L 2906 525 
Q 2725 213 2448 61 
Q 2172 -91 1784 -91 
Q 1150 -91 751 415 
Q 353 922 353 1747 
Q 353 2572 751 3078 
Q 1150 3584 1784 3584 
Q 2172 3584 2448 3432 
Q 2725 3281 2906 2969 
z
M 947 1747 
Q 947 1113 1208 752 
Q 1469 391 1925 391 
Q 2381 391 2643 752 
Q 2906 1113 2906 1747 
Q 2906 2381 2643 2742 
Q 2381 3103 1925 3103 
Q 1469 3103 1208 2742 
Q 947 2381 947 1747 
z
" transform="scale(0.015625)"/>
       <path id="DejaVuSans-61" d="M 2194 1759 
Q 1497 1759 1228 1600 
Q 959 1441 959 1056 
Q 959 750 1161 570 
Q 1363 391 1709 391 
Q 2188 391 2477 730 
Q 2766 1069 2766 1631 
L 2766 1759 
L 2194 1759 
z
M 3341 1997 
L 3341 0 
L 2766 0 
L 2766 531 
Q 2569 213 2275 61 
Q 1981 -91 1556 -91 
Q 1019 -91 701 211 
Q 384 513 384 1019 
Q 384 1609 779 1909 
Q 1175 2209 1959 2209 
L 2766 2209 
L 2766 2266 
Q 2766 2663 2505 2880 
Q 2244 3097 1772 3097 
Q 1472 3097 1187 3025 
Q 903 2953 641 2809 
L 641 3341 
Q 956 3463 1253 3523 
Q 1550 3584 1831 3584 
Q 2591 3584 2966 3190 
Q 3341 2797 3341 1997 
z
" transform="scale(0.015625)"/>
       <path id="DejaVuSans-79" d="M 2059 -325 
Q 1816 -950 1584 -1140 
Q 1353 -1331 966 -1331 
L 506 -1331 
L 506 -850 
L 844 -850 
Q 1081 -850 1212 -737 
Q 1344 -625 1503 -206 
L 1606 56 
L 191 3500 
L 800 3500 
L 1894 763 
L 2988 3500 
L 3597 3500 
L 2059 -325 
z
" transform="scale(0.015625)"/>
       <path id="DejaVuSans-73" d="M 2834 3397 
L 2834 2853 
Q 2591 2978 2328 3040 
Q 2066 3103 1784 3103 
Q 1356 3103 1142 2972 
Q 928 2841 928 2578 
Q 928 2378 1081 2264 
Q 1234 2150 1697 2047 
L 1894 2003 
Q 2506 1872 2764 1633 
Q 3022 1394 3022 966 
Q 3022 478 2636 193 
Q 2250 -91 1575 -91 
Q 1294 -91 989 -36 
Q 684 19 347 128 
L 347 722 
Q 666 556 975 473 
Q 1284 391 1588 391 
Q 1994 391 2212 530 
Q 2431 669 2431 922 
Q 2431 1156 2273 1281 
Q 2116 1406 1581 1522 
L 1381 1569 
Q 847 1681 609 1914 
Q 372 2147 372 2553 
Q 372 3047 722 3315 
Q 1072 3584 1716 3584 
Q 2034 3584 2315 3537 
Q 2597 3491 2834 3397 
z
" transform="scale(0.015625)"/>
       <path id="DejaVuSans-29" d="M 513 4856 
L 1013 4856 
Q 1481 4119 1714 3412 
Q 1947 2706 1947 2009 
Q 1947 1309 1714 600 
Q 1481 -109 1013 -844 
L 513 -844 
Q 928 -128 1133 580 
Q 1338 1288 1338 2009 
Q 1338 2731 1133 3434 
Q 928 4138 513 4856 
z
" transform="scale(0.015625)"/>
      </defs>
      <use xlink:href="#DejaVuSans-54"/>
      <use xlink:href="#DejaVuSans-69" transform="translate(57.958984 0)"/>
      <use xlink:href="#DejaVuSans-6d" transform="translate(85.742188 0)"/>
      <use xlink:href="#DejaVuSans-65" transform="translate(183.154297 0)"/>
      <use xlink:href="#DejaVuSans-20" transform="translate(244.677734 0)"/>
      <use xlink:href="#DejaVuSans-28" transform="translate(276.464844 0)"/>
      <use xlink:href="#DejaVuSans-64" transform="translate(315.478516 0)"/>
      <use xlink:href="#DejaVuSans-61" transform="translate(378.955078 0)"/>
      <use xlink:href="#DejaVuSans-79" transform="translate(440.234375 0)"/>
      <use xlink:href="#DejaVuSans-73" transform="translate(499.414062 0)"/>
      <use xlink:href="#DejaVuSans-29" transform="translate(551.513672 0)"/>
     </g>
    </g>
   </g>
   <g id="matplotlib.axis_2">
    <g id="ytick_1">
     <g id="line2d_13">
      <path d="M 39.632812 178.36 
L 277.902813 178.36 
" clip-path="url(#pec8999e7aa)" style="fill: none; stroke: #cccccc; stroke-opacity: 0.3; stroke-width: 0.5; stroke-linecap: round"/>
     </g>
     <g id="line2d_14">
      <defs>
       <path id="m1b8fc2e2be" d="M 0 0 
L -3.5 0 
" style="stroke: #262626; stroke-width: 0.8"/>
      </defs>
      <g>
       <use xlink:href="#m1b8fc2e2be" x="39.632812" y="178.36" style="fill: #262626; stroke: #262626; stroke-width: 0.8"/>
      </g>
     </g>
     <g id="text_8">
      <!-- 0.0 -->
      <g style="fill: #262626" transform="translate(19.910312 181.399375) scale(0.08 -0.08)">
       <defs>
        <path id="DejaVuSans-2e" d="M 684 794 
L 1344 794 
L 1344 0 
L 684 0 
L 684 794 
z
" transform="scale(0.015625)"/>
       </defs>
       <use xlink:href="#DejaVuSans-30"/>
       <use xlink:href="#DejaVuSans-2e" transform="translate(63.623047 0)"/>
       <use xlink:href="#DejaVuSans-30" transform="translate(95.410156 0)"/>
      </g>
     </g>
    </g>
    <g id="ytick_2">
     <g id="line2d_15">
      <path d="M 39.632812 145.758095 
L 277.902813 145.758095 
" clip-path="url(#pec8999e7aa)" style="fill: none; stroke: #cccccc; stroke-opacity: 0.3; stroke-width: 0.5; stroke-linecap: round"/>
     </g>
     <g id="line2d_16">
      <g>
       <use xlink:href="#m1b8fc2e2be" x="39.632812" y="145.758095" style="fill: #262626; stroke: #262626; stroke-width: 0.8"/>
      </g>
     </g>
     <g id="text_9">
      <!-- 0.2 -->
      <g style="fill: #262626" transform="translate(19.910312 148.79747) scale(0.08 -0.08)">
       <use xlink:href="#DejaVuSans-30"/>
       <use xlink:href="#DejaVuSans-2e" transform="translate(63.623047 0)"/>
       <use xlink:href="#DejaVuSans-32" transform="translate(95.410156 0)"/>
      </g>
     </g>
    </g>
    <g id="ytick_3">
     <g id="line2d_17">
      <path d="M 39.632812 113.15619 
L 277.902813 113.15619 
" clip-path="url(#pec8999e7aa)" style="fill: none; stroke: #cccccc; stroke-opacity: 0.3; stroke-width: 0.5; stroke-linecap: round"/>
     </g>
     <g id="line2d_18">
      <g>
       <use xlink:href="#m1b8fc2e2be" x="39.632812" y="113.15619" style="fill: #262626; stroke: #262626; stroke-width: 0.8"/>
      </g>
     </g>
     <g id="text_10">
      <!-- 0.4 -->
      <g style="fill: #262626" transform="translate(19.910312 116.195565) scale(0.08 -0.08)">
       <use xlink:href="#DejaVuSans-30"/>
       <use xlink:href="#DejaVuSans-2e" transform="translate(63.623047 0)"/>
       <use xlink:href="#DejaVuSans-34" transform="translate(95.410156 0)"/>
      </g>
     </g>
    </g>
    <g id="ytick_4">
     <g id="line2d_19">
      <path d="M 39.632812 80.554286 
L 277.902813 80.554286 
" clip-path="url(#pec8999e7aa)" style="fill: none; stroke: #cccccc; stroke-opacity: 0.3; stroke-width: 0.5; stroke-linecap: round"/>
     </g>
     <g id="line2d_20">
      <g>
       <use xlink:href="#m1b8fc2e2be" x="39.632812" y="80.554286" style="fill: #262626; stroke: #262626; stroke-width: 0.8"/>
      </g>
     </g>
     <g id="text_11">
      <!-- 0.6 -->
      <g style="fill: #262626" transform="translate(19.910312 83.593661) scale(0.08 -0.08)">
       <defs>
        <path id="DejaVuSans-36" d="M 2113 2584 
Q 1688 2584 1439 2293 
Q 1191 2003 1191 1497 
Q 1191 994 1439 701 
Q 1688 409 2113 409 
Q 2538 409 2786 701 
Q 3034 994 3034 1497 
Q 3034 2003 2786 2293 
Q 2538 2584 2113 2584 
z
M 3366 4563 
L 3366 3988 
Q 3128 4100 2886 4159 
Q 2644 4219 2406 4219 
Q 1781 4219 1451 3797 
Q 1122 3375 1075 2522 
Q 1259 2794 1537 2939 
Q 1816 3084 2150 3084 
Q 2853 3084 3261 2657 
Q 3669 2231 3669 1497 
Q 3669 778 3244 343 
Q 2819 -91 2113 -91 
Q 1303 -91 875 529 
Q 447 1150 447 2328 
Q 447 3434 972 4092 
Q 1497 4750 2381 4750 
Q 2619 4750 2861 4703 
Q 3103 4656 3366 4563 
z
" transform="scale(0.015625)"/>
       </defs>
       <use xlink:href="#DejaVuSans-30"/>
       <use xlink:href="#DejaVuSans-2e" transform="translate(63.623047 0)"/>
       <use xlink:href="#DejaVuSans-36" transform="translate(95.410156 0)"/>
      </g>
     </g>
    </g>
    <g id="ytick_5">
     <g id="line2d_21">
      <path d="M 39.632812 47.952381 
L 277.902813 47.952381 
" clip-path="url(#pec8999e7aa)" style="fill: none; stroke: #cccccc; stroke-opacity: 0.3; stroke-width: 0.5; stroke-linecap: round"/>
     </g>
     <g id="line2d_22">
      <g>
       <use xlink:href="#m1b8fc2e2be" x="39.632812" y="47.952381" style="fill: #262626; stroke: #262626; stroke-width: 0.8"/>
      </g>
     </g>
     <g id="text_12">
      <!-- 0.8 -->
      <g style="fill: #262626" transform="translate(19.910312 50.991756) scale(0.08 -0.08)">
       <defs>
        <path id="DejaVuSans-38" d="M 2034 2216 
Q 1584 2216 1326 1975 
Q 1069 1734 1069 1313 
Q 1069 891 1326 650 
Q 1584 409 2034 409 
Q 2484 409 2743 651 
Q 3003 894 3003 1313 
Q 3003 1734 2745 1975 
Q 2488 2216 2034 2216 
z
M 1403 2484 
Q 997 2584 770 2862 
Q 544 3141 544 3541 
Q 544 4100 942 4425 
Q 1341 4750 2034 4750 
Q 2731 4750 3128 4425 
Q 3525 4100 3525 3541 
Q 3525 3141 3298 2862 
Q 3072 2584 2669 2484 
Q 3125 2378 3379 2068 
Q 3634 1759 3634 1313 
Q 3634 634 3220 271 
Q 2806 -91 2034 -91 
Q 1263 -91 848 271 
Q 434 634 434 1313 
Q 434 1759 690 2068 
Q 947 2378 1403 2484 
z
M 1172 3481 
Q 1172 3119 1398 2916 
Q 1625 2713 2034 2713 
Q 2441 2713 2670 2916 
Q 2900 3119 2900 3481 
Q 2900 3844 2670 4047 
Q 2441 4250 2034 4250 
Q 1625 4250 1398 4047 
Q 1172 3844 1172 3481 
z
" transform="scale(0.015625)"/>
       </defs>
       <use xlink:href="#DejaVuSans-30"/>
       <use xlink:href="#DejaVuSans-2e" transform="translate(63.623047 0)"/>
       <use xlink:href="#DejaVuSans-38" transform="translate(95.410156 0)"/>
      </g>
     </g>
    </g>
    <g id="ytick_6">
     <g id="line2d_23">
      <path d="M 39.632812 15.350476 
L 277.902813 15.350476 
" clip-path="url(#pec8999e7aa)" style="fill: none; stroke: #cccccc; stroke-opacity: 0.3; stroke-width: 0.5; stroke-linecap: round"/>
     </g>
     <g id="line2d_24">
      <g>
       <use xlink:href="#m1b8fc2e2be" x="39.632812" y="15.350476" style="fill: #262626; stroke: #262626; stroke-width: 0.8"/>
      </g>
     </g>
     <g id="text_13">
      <!-- 1.0 -->
      <g style="fill: #262626" transform="translate(19.910312 18.389851) scale(0.08 -0.08)">
       <use xlink:href="#DejaVuSans-31"/>
       <use xlink:href="#DejaVuSans-2e" transform="translate(63.623047 0)"/>
       <use xlink:href="#DejaVuSans-30" transform="translate(95.410156 0)"/>
      </g>
     </g>
    </g>
    <g id="text_14">
     <!-- Survival probability -->
     <g style="fill: #262626" transform="translate(14.038594 136.361797) rotate(-90) scale(0.09 -0.09)">
      <defs>
       <path id="DejaVuSans-53" d="M 3425 4513 
L 3425 3897 
Q 3066 4069 2747 4153 
Q 2428 4238 2131 4238 
Q 1616 4238 1336 4038 
Q 1056 3838 1056 3469 
Q 1056 3159 1242 3001 
Q 1428 2844 1947 2747 
L 2328 2669 
Q 3034 2534 3370 2195 
Q 3706 1856 3706 1288 
Q 3706 609 3251 259 
Q 2797 -91 1919 -91 
Q 1588 -91 1214 -16 
Q 841 59 441 206 
L 441 856 
Q 825 641 1194 531 
Q 1563 422 1919 422 
Q 2459 422 2753 634 
Q 3047 847 3047 1241 
Q 3047 1584 2836 1778 
Q 2625 1972 2144 2069 
L 1759 2144 
Q 1053 2284 737 2584 
Q 422 2884 422 3419 
Q 422 4038 858 4394 
Q 1294 4750 2059 4750 
Q 2388 4750 2728 4690 
Q 3069 4631 3425 4513 
z
" transform="scale(0.015625)"/>
       <path id="DejaVuSans-75" d="M 544 1381 
L 544 3500 
L 1119 3500 
L 1119 1403 
Q 1119 906 1312 657 
Q 1506 409 1894 409 
Q 2359 409 2629 706 
Q 2900 1003 2900 1516 
L 2900 3500 
L 3475 3500 
L 3475 0 
L 2900 0 
L 2900 538 
Q 2691 219 2414 64 
Q 2138 -91 1772 -91 
Q 1169 -91 856 284 
Q 544 659 544 1381 
z
M 1991 3584 
L 1991 3584 
z
" transform="scale(0.015625)"/>
       <path id="DejaVuSans-72" d="M 2631 2963 
Q 2534 3019 2420 3045 
Q 2306 3072 2169 3072 
Q 1681 3072 1420 2755 
Q 1159 2438 1159 1844 
L 1159 0 
L 581 0 
L 581 3500 
L 1159 3500 
L 1159 2956 
Q 1341 3275 1631 3429 
Q 1922 3584 2338 3584 
Q 2397 3584 2469 3576 
Q 2541 3569 2628 3553 
L 2631 2963 
z
" transform="scale(0.015625)"/>
       <path id="DejaVuSans-76" d="M 191 3500 
L 800 3500 
L 1894 563 
L 2988 3500 
L 3597 3500 
L 2284 0 
L 1503 0 
L 191 3500 
z
" transform="scale(0.015625)"/>
       <path id="DejaVuSans-6c" d="M 603 4863 
L 1178 4863 
L 1178 0 
L 603 0 
L 603 4863 
z
" transform="scale(0.015625)"/>
       <path id="DejaVuSans-70" d="M 1159 525 
L 1159 -1331 
L 581 -1331 
L 581 3500 
L 1159 3500 
L 1159 2969 
Q 1341 3281 1617 3432 
Q 1894 3584 2278 3584 
Q 2916 3584 3314 3078 
Q 3713 2572 3713 1747 
Q 3713 922 3314 415 
Q 2916 -91 2278 -91 
Q 1894 -91 1617 61 
Q 1341 213 1159 525 
z
M 3116 1747 
Q 3116 2381 2855 2742 
Q 2594 3103 2138 3103 
Q 1681 3103 1420 2742 
Q 1159 2381 1159 1747 
Q 1159 1113 1420 752 
Q 1681 391 2138 391 
Q 2594 391 2855 752 
Q 3116 1113 3116 1747 
z
" transform="scale(0.015625)"/>
       <path id="DejaVuSans-6f" d="M 1959 3097 
Q 1497 3097 1228 2736 
Q 959 2375 959 1747 
Q 959 1119 1226 758 
Q 1494 397 1959 397 
Q 2419 397 2687 759 
Q 2956 1122 2956 1747 
Q 2956 2369 2687 2733 
Q 2419 3097 1959 3097 
z
M 1959 3584 
Q 2709 3584 3137 3096 
Q 3566 2609 3566 1747 
Q 3566 888 3137 398 
Q 2709 -91 1959 -91 
Q 1206 -91 779 398 
Q 353 888 353 1747 
Q 353 2609 779 3096 
Q 1206 3584 1959 3584 
z
" transform="scale(0.015625)"/>
       <path id="DejaVuSans-62" d="M 3116 1747 
Q 3116 2381 2855 2742 
Q 2594 3103 2138 3103 
Q 1681 3103 1420 2742 
Q 1159 2381 1159 1747 
Q 1159 1113 1420 752 
Q 1681 391 2138 391 
Q 2594 391 2855 752 
Q 3116 1113 3116 1747 
z
M 1159 2969 
Q 1341 3281 1617 3432 
Q 1894 3584 2278 3584 
Q 2916 3584 3314 3078 
Q 3713 2572 3713 1747 
Q 3713 922 3314 415 
Q 2916 -91 2278 -91 
Q 1894 -91 1617 61 
Q 1341 213 1159 525 
L 1159 0 
L 581 0 
L 581 4863 
L 1159 4863 
L 1159 2969 
z
" transform="scale(0.015625)"/>
       <path id="DejaVuSans-74" d="M 1172 4494 
L 1172 3500 
L 2356 3500 
L 2356 3053 
L 1172 3053 
L 1172 1153 
Q 1172 725 1289 603 
Q 1406 481 1766 481 
L 2356 481 
L 2356 0 
L 1766 0 
Q 1100 0 847 248 
Q 594 497 594 1153 
L 594 3053 
L 172 3053 
L 172 3500 
L 594 3500 
L 594 4494 
L 1172 4494 
z
" transform="scale(0.015625)"/>
      </defs>
      <use xlink:href="#DejaVuSans-53"/>
      <use xlink:href="#DejaVuSans-75" transform="translate(63.476562 0)"/>
      <use xlink:href="#DejaVuSans-72" transform="translate(126.855469 0)"/>
      <use xlink:href="#DejaVuSans-76" transform="translate(167.96875 0)"/>
      <use xlink:href="#DejaVuSans-69" transform="translate(227.148438 0)"/>
      <use xlink:href="#DejaVuSans-76" transform="translate(254.931641 0)"/>
      <use xlink:href="#DejaVuSans-61" transform="translate(314.111328 0)"/>
      <use xlink:href="#DejaVuSans-6c" transform="translate(375.390625 0)"/>
      <use xlink:href="#DejaVuSans-20" transform="translate(403.173828 0)"/>
      <use xlink:href="#DejaVuSans-70" transform="translate(434.960938 0)"/>
      <use xlink:href="#DejaVuSans-72" transform="translate(498.4375 0)"/>
      <use xlink:href="#DejaVuSans-6f" transform="translate(537.300781 0)"/>
      <use xlink:href="#DejaVuSans-62" transform="translate(598.482422 0)"/>
      <use xlink:href="#DejaVuSans-61" transform="translate(661.958984 0)"/>
      <use xlink:href="#DejaVuSans-62" transform="translate(723.238281 0)"/>
      <use xlink:href="#DejaVuSans-69" transform="translate(786.714844 0)"/>
      <use xlink:href="#DejaVuSans-6c" transform="translate(814.498047 0)"/>
      <use xlink:href="#DejaVuSans-69" transform="translate(842.28125 0)"/>
      <use xlink:href="#DejaVuSans-74" transform="translate(870.064453 0)"/>
      <use xlink:href="#DejaVuSans-79" transform="translate(909.273438 0)"/>
     </g>
    </g>
   </g>
   <g id="FillBetweenPolyCollection_1">
    <defs>
     <path id="me08d78df52" d="M 36.758681 -197.662336 
L 36.758681 -197.662336 
L 40.21662 -197.662336 
L 40.21662 -197.662336 
L 40.306437 -197.662336 
L 40.306437 -197.662336 
L 40.396254 -197.662336 
L 40.396254 -197.662336 
L 40.530979 -197.662336 
L 40.530979 -197.662336 
L 40.890245 -197.662336 
L 40.890245 -197.662336 
L 41.204603 -197.662336 
L 41.204603 -197.662336 
L 41.29442 -197.662336 
L 41.29442 -197.662336 
L 42.102769 -197.662336 
L 42.102769 -197.662336 
L 42.506944 -197.662336 
L 42.506944 -197.662336 
L 42.641669 -197.662336 
L 42.641669 -197.662336 
L 42.686577 -197.662336 
L 42.686577 -197.662336 
L 43.315294 -197.662336 
L 43.315294 -197.662336 
L 43.40511 -197.662336 
L 43.40511 -197.662336 
L 44.348185 -197.662336 
L 44.348185 -197.662336 
L 44.887084 -197.662336 
L 44.887084 -197.662336 
L 45.425984 -197.662336 
L 45.425984 -197.662336 
L 46.728325 -197.662336 
L 46.728325 -197.662336 
L 46.952866 -197.662336 
L 46.952866 -197.662336 
L 51.264064 -197.662336 
L 51.264064 -191.541808 
L 52.790946 -191.541808 
L 52.790946 -191.541808 
L 54.452554 -191.541808 
L 54.452554 -191.541808 
L 54.587278 -191.541808 
L 54.587278 -191.541808 
L 54.766912 -191.541808 
L 54.766912 -191.541808 
L 55.126178 -191.541808 
L 55.126178 -191.541808 
L 55.754894 -191.541808 
L 55.754894 -191.541808 
L 55.844711 -191.541808 
L 55.844711 -191.541808 
L 56.069253 -191.541808 
L 56.069253 -191.541808 
L 56.159069 -191.541808 
L 56.159069 -191.541808 
L 56.203977 -191.541808 
L 56.203977 -191.541808 
L 56.248886 -191.541808 
L 56.248886 -191.541808 
L 56.338702 -191.541808 
L 56.338702 -191.541808 
L 56.383611 -191.541808 
L 56.383611 -191.541808 
L 56.653061 -191.541808 
L 56.653061 -191.541808 
L 56.832694 -191.541808 
L 56.832694 -191.541808 
L 56.877602 -191.541808 
L 56.877602 -191.541808 
L 56.92251 -191.541808 
L 56.92251 -190.337453 
L 57.102144 -190.337453 
L 57.102144 -190.337453 
L 57.326685 -190.337453 
L 57.326685 -190.337453 
L 57.506318 -190.337453 
L 57.506318 -190.337453 
L 57.551227 -190.337453 
L 57.551227 -190.337453 
L 58.045218 -190.337453 
L 58.045218 -190.337453 
L 58.26976 -190.337453 
L 58.26976 -190.337453 
L 58.314668 -190.337453 
L 58.314668 -190.337453 
L 58.853568 -190.337453 
L 58.853568 -190.337453 
L 59.078109 -190.337453 
L 59.078109 -190.337453 
L 60.066092 -190.337453 
L 60.066092 -190.337453 
L 60.155908 -190.337453 
L 60.155908 -190.337453 
L 60.290633 -190.337453 
L 60.290633 -190.337453 
L 60.560083 -190.337453 
L 60.560083 -190.337453 
L 60.604991 -190.337453 
L 60.604991 -190.337453 
L 60.694808 -190.337453 
L 60.694808 -190.337453 
L 60.91935 -190.337453 
L 60.91935 -190.337453 
L 60.964258 -190.337453 
L 60.964258 -190.337453 
L 61.054075 -190.337453 
L 61.054075 -190.337453 
L 61.188799 -190.337453 
L 61.188799 -190.337453 
L 61.233708 -190.337453 
L 61.233708 -190.337453 
L 61.368433 -190.337453 
L 61.368433 -190.337453 
L 61.413341 -190.337453 
L 61.413341 -190.337453 
L 61.682791 -190.337453 
L 61.682791 -190.337453 
L 61.862424 -190.337453 
L 61.862424 -190.337453 
L 62.401324 -190.337453 
L 62.401324 -190.337453 
L 62.446232 -190.337453 
L 62.446232 -190.337453 
L 62.625865 -190.337453 
L 62.625865 -190.337453 
L 63.164765 -190.337453 
L 63.164765 -190.337453 
L 63.703665 -190.337453 
L 63.703665 -190.337453 
L 63.83839 -190.337453 
L 63.83839 -190.337453 
L 63.883298 -190.337453 
L 63.883298 -190.337453 
L 63.973114 -190.337453 
L 63.973114 -190.337453 
L 64.152748 -190.337453 
L 64.152748 -190.337453 
L 64.781464 -190.337453 
L 64.781464 -190.337453 
L 64.871281 -190.337453 
L 64.871281 -190.337453 
L 65.320364 -190.337453 
L 65.320364 -190.337453 
L 65.365272 -190.337453 
L 65.365272 -190.337453 
L 65.589813 -190.337453 
L 65.589813 -190.337453 
L 65.67963 -190.337453 
L 65.67963 -190.337453 
L 65.724538 -190.337453 
L 65.724538 -190.337453 
L 65.769447 -190.337453 
L 65.769447 -190.337453 
L 66.128713 -190.337453 
L 66.128713 -190.337453 
L 66.712521 -190.337453 
L 66.712521 -190.337453 
L 67.026879 -190.337453 
L 67.026879 -190.337453 
L 67.386146 -190.337453 
L 67.386146 -190.337453 
L 68.05977 -190.337453 
L 68.05977 -190.337453 
L 68.194495 -190.337453 
L 68.194495 -190.337453 
L 68.284312 -190.337453 
L 68.284312 -190.337453 
L 68.374128 -190.337453 
L 68.374128 -190.337453 
L 68.419037 -190.337453 
L 68.419037 -190.337453 
L 68.463945 -190.337453 
L 68.463945 -190.337453 
L 68.643578 -190.337453 
L 68.643578 -190.337453 
L 68.733395 -190.337453 
L 68.733395 -190.337453 
L 68.778303 -190.337453 
L 68.778303 -190.337453 
L 69.496836 -190.337453 
L 69.496836 -190.337453 
L 70.664452 -190.337453 
L 70.664452 -190.337453 
L 71.023719 -190.337453 
L 71.023719 -190.337453 
L 73.314042 -190.337453 
L 73.314042 -190.337453 
L 73.673309 -190.337453 
L 73.673309 -190.337453 
L 73.808033 -190.337453 
L 73.808033 -190.337453 
L 74.346933 -190.337453 
L 74.346933 -190.337453 
L 74.796016 -190.337453 
L 74.796016 -190.337453 
L 75.065466 -190.337453 
L 75.065466 -190.337453 
L 75.469641 -190.337453 
L 75.469641 -190.337453 
L 75.514549 -190.337453 
L 75.514549 -190.337453 
L 76.143265 -190.337453 
L 76.143265 -190.337453 
L 76.457624 -190.337453 
L 76.457624 -190.337453 
L 76.996523 -190.337453 
L 76.996523 -190.337453 
L 77.35579 -190.337453 
L 77.35579 -190.337453 
L 77.849781 -190.337453 
L 77.849781 -190.337453 
L 78.433589 -190.337453 
L 78.433589 -190.337453 
L 78.837764 -190.337453 
L 78.837764 -190.337453 
L 79.46648 -190.337453 
L 79.46648 -190.337453 
L 79.73593 -190.337453 
L 79.73593 -190.337453 
L 79.915563 -190.337453 
L 79.915563 -190.337453 
L 80.00538 -190.337453 
L 80.00538 -190.337453 
L 80.319738 -190.337453 
L 80.319738 -190.337453 
L 80.993362 -190.337453 
L 80.993362 -190.337453 
L 82.071162 -190.337453 
L 82.071162 -190.337453 
L 84.406394 -190.337453 
L 84.406394 -190.337453 
L 84.675844 -190.337453 
L 84.675844 -190.337453 
L 85.84346 -190.337453 
L 85.84346 -190.337453 
L 86.696717 -190.337453 
L 86.696717 -190.337453 
L 88.582866 -190.337453 
L 88.582866 -190.337453 
L 88.762499 -190.337453 
L 88.762499 -190.337453 
L 89.391216 -190.337453 
L 89.391216 -190.337453 
L 89.481032 -190.337453 
L 89.481032 -190.337453 
L 89.705574 -190.337453 
L 89.705574 -190.337453 
L 90.244474 -190.337453 
L 90.244474 -190.337453 
L 91.861173 -190.337453 
L 91.861173 -183.066008 
L 92.355164 -183.066008 
L 92.355164 -183.066008 
L 92.669522 -183.066008 
L 92.669522 -183.066008 
L 92.894064 -183.066008 
L 92.894064 -183.066008 
L 96.666361 -183.066008 
L 96.666361 -178.491775 
L 99.181226 -178.491775 
L 99.181226 -178.491775 
L 100.259026 -178.491775 
L 100.259026 -178.491775 
L 101.157192 -178.491775 
L 101.157192 -178.491775 
L 104.92949 -178.491775 
L 104.92949 -178.491775 
L 104.974398 -178.491775 
L 104.974398 -178.491775 
L 105.198939 -178.491775 
L 105.198939 -178.491775 
L 106.052197 -178.491775 
L 106.052197 -178.491775 
L 107.983254 -178.491775 
L 107.983254 -178.491775 
L 108.297613 -178.491775 
L 108.297613 -178.491775 
L 108.701787 -178.491775 
L 108.701787 -178.491775 
L 108.881421 -178.491775 
L 108.881421 -178.491775 
L 109.734678 -178.491775 
L 109.734678 -178.491775 
L 110.677753 -178.491775 
L 110.677753 -178.491775 
L 111.665736 -178.491775 
L 111.665736 -178.491775 
L 112.429177 -178.491775 
L 112.429177 -178.491775 
L 113.237526 -178.491775 
L 113.237526 -178.491775 
L 113.686609 -178.491775 
L 113.686609 -178.491775 
L 116.336199 -178.491775 
L 116.336199 -178.491775 
L 116.605649 -178.491775 
L 116.605649 -178.491775 
L 118.71634 -178.491775 
L 118.71634 -178.491775 
L 119.839047 -178.491775 
L 119.839047 -178.491775 
L 120.108497 -178.491775 
L 120.108497 -178.491775 
L 120.737213 -178.491775 
L 120.737213 -178.491775 
L 121.815013 -178.491775 
L 121.815013 -178.491775 
L 122.488637 -178.491775 
L 122.488637 -178.491775 
L 124.240061 -178.491775 
L 124.240061 -178.491775 
L 125.497494 -178.491775 
L 125.497494 -178.491775 
L 127.159101 -178.491775 
L 127.159101 -178.491775 
L 127.293826 -178.491775 
L 127.293826 -178.491775 
L 129.808691 -178.491775 
L 129.808691 -178.491775 
L 129.8536 -178.491775 
L 129.8536 -178.491775 
L 130.527224 -178.491775 
L 130.527224 -178.491775 
L 130.661949 -178.491775 
L 130.661949 -178.491775 
L 131.42539 -178.491775 
L 131.42539 -178.491775 
L 131.649932 -178.491775 
L 131.649932 -178.491775 
L 134.34443 -178.491775 
L 134.34443 -178.491775 
L 135.691679 -178.491775 
L 135.691679 -178.491775 
L 137.398195 -178.491775 
L 137.398195 -178.491775 
L 142.607559 -178.491775 
L 142.607559 -178.491775 
L 143.460816 -178.491775 
L 143.460816 -178.491775 
L 144.269166 -178.491775 
L 144.269166 -178.491775 
L 145.257149 -178.491775 
L 145.257149 -178.491775 
L 146.514581 -178.491775 
L 146.514581 -178.491775 
L 148.445638 -178.491775 
L 148.445638 -178.491775 
L 157.517116 -178.491775 
L 157.517116 -178.491775 
L 158.909274 -178.491775 
L 158.909274 -178.491775 
L 161.019964 -178.491775 
L 161.019964 -178.491775 
L 164.926987 -178.491775 
L 164.926987 -178.491775 
L 168.429835 -178.491775 
L 168.429835 -178.491775 
L 169.238184 -178.491775 
L 169.238184 -178.491775 
L 172.741032 -178.491775 
L 172.741032 -178.491775 
L 174.851722 -178.491775 
L 174.851722 -178.491775 
L 182.575951 -178.491775 
L 182.575951 -122.460803 
L 190.704354 -122.460803 
L 190.704354 -122.460803 
L 193.21922 -122.460803 
L 193.21922 -122.460803 
L 193.758119 -122.460803 
L 193.758119 -122.460803 
L 211.047817 -122.460803 
L 211.047817 -122.460803 
L 211.856167 -122.460803 
L 211.856167 -122.460803 
L 218.412779 -122.460803 
L 218.412779 -122.460803 
L 262.692369 -122.460803 
L 262.692369 -122.460803 
L 266.015584 -122.460803 
L 266.015584 -122.460803 
L 266.419759 -122.460803 
L 266.419759 -122.460803 
L 266.419759 -192.00172 
L 266.419759 -192.00172 
L 266.419759 -192.00172 
L 266.015584 -192.00172 
L 266.015584 -192.00172 
L 262.692369 -192.00172 
L 262.692369 -192.00172 
L 218.412779 -192.00172 
L 218.412779 -192.00172 
L 211.856167 -192.00172 
L 211.856167 -192.00172 
L 211.047817 -192.00172 
L 211.047817 -192.00172 
L 193.758119 -192.00172 
L 193.758119 -192.00172 
L 193.21922 -192.00172 
L 193.21922 -192.00172 
L 190.704354 -192.00172 
L 190.704354 -192.00172 
L 182.575951 -192.00172 
L 182.575951 -195.32502 
L 174.851722 -195.32502 
L 174.851722 -195.32502 
L 172.741032 -195.32502 
L 172.741032 -195.32502 
L 169.238184 -195.32502 
L 169.238184 -195.32502 
L 168.429835 -195.32502 
L 168.429835 -195.32502 
L 164.926987 -195.32502 
L 164.926987 -195.32502 
L 161.019964 -195.32502 
L 161.019964 -195.32502 
L 158.909274 -195.32502 
L 158.909274 -195.32502 
L 157.517116 -195.32502 
L 157.517116 -195.32502 
L 148.445638 -195.32502 
L 148.445638 -195.32502 
L 146.514581 -195.32502 
L 146.514581 -195.32502 
L 145.257149 -195.32502 
L 145.257149 -195.32502 
L 144.269166 -195.32502 
L 144.269166 -195.32502 
L 143.460816 -195.32502 
L 143.460816 -195.32502 
L 142.607559 -195.32502 
L 142.607559 -195.32502 
L 137.398195 -195.32502 
L 137.398195 -195.32502 
L 135.691679 -195.32502 
L 135.691679 -195.32502 
L 134.34443 -195.32502 
L 134.34443 -195.32502 
L 131.649932 -195.32502 
L 131.649932 -195.32502 
L 131.42539 -195.32502 
L 131.42539 -195.32502 
L 130.661949 -195.32502 
L 130.661949 -195.32502 
L 130.527224 -195.32502 
L 130.527224 -195.32502 
L 129.8536 -195.32502 
L 129.8536 -195.32502 
L 129.808691 -195.32502 
L 129.808691 -195.32502 
L 127.293826 -195.32502 
L 127.293826 -195.32502 
L 127.159101 -195.32502 
L 127.159101 -195.32502 
L 125.497494 -195.32502 
L 125.497494 -195.32502 
L 124.240061 -195.32502 
L 124.240061 -195.32502 
L 122.488637 -195.32502 
L 122.488637 -195.32502 
L 121.815013 -195.32502 
L 121.815013 -195.32502 
L 120.737213 -195.32502 
L 120.737213 -195.32502 
L 120.108497 -195.32502 
L 120.108497 -195.32502 
L 119.839047 -195.32502 
L 119.839047 -195.32502 
L 118.71634 -195.32502 
L 118.71634 -195.32502 
L 116.605649 -195.32502 
L 116.605649 -195.32502 
L 116.336199 -195.32502 
L 116.336199 -195.32502 
L 113.686609 -195.32502 
L 113.686609 -195.32502 
L 113.237526 -195.32502 
L 113.237526 -195.32502 
L 112.429177 -195.32502 
L 112.429177 -195.32502 
L 111.665736 -195.32502 
L 111.665736 -195.32502 
L 110.677753 -195.32502 
L 110.677753 -195.32502 
L 109.734678 -195.32502 
L 109.734678 -195.32502 
L 108.881421 -195.32502 
L 108.881421 -195.32502 
L 108.701787 -195.32502 
L 108.701787 -195.32502 
L 108.297613 -195.32502 
L 108.297613 -195.32502 
L 107.983254 -195.32502 
L 107.983254 -195.32502 
L 106.052197 -195.32502 
L 106.052197 -195.32502 
L 105.198939 -195.32502 
L 105.198939 -195.32502 
L 104.974398 -195.32502 
L 104.974398 -195.32502 
L 104.92949 -195.32502 
L 104.92949 -195.32502 
L 101.157192 -195.32502 
L 101.157192 -195.32502 
L 100.259026 -195.32502 
L 100.259026 -195.32502 
L 99.181226 -195.32502 
L 99.181226 -195.32502 
L 96.666361 -195.32502 
L 96.666361 -196.445892 
L 92.894064 -196.445892 
L 92.894064 -196.445892 
L 92.669522 -196.445892 
L 92.669522 -196.445892 
L 92.355164 -196.445892 
L 92.355164 -196.445892 
L 91.861173 -196.445892 
L 91.861173 -197.19656 
L 90.244474 -197.19656 
L 90.244474 -197.19656 
L 89.705574 -197.19656 
L 89.705574 -197.19656 
L 89.481032 -197.19656 
L 89.481032 -197.19656 
L 89.391216 -197.19656 
L 89.391216 -197.19656 
L 88.762499 -197.19656 
L 88.762499 -197.19656 
L 88.582866 -197.19656 
L 88.582866 -197.19656 
L 86.696717 -197.19656 
L 86.696717 -197.19656 
L 85.84346 -197.19656 
L 85.84346 -197.19656 
L 84.675844 -197.19656 
L 84.675844 -197.19656 
L 84.406394 -197.19656 
L 84.406394 -197.19656 
L 82.071162 -197.19656 
L 82.071162 -197.19656 
L 80.993362 -197.19656 
L 80.993362 -197.19656 
L 80.319738 -197.19656 
L 80.319738 -197.19656 
L 80.00538 -197.19656 
L 80.00538 -197.19656 
L 79.915563 -197.19656 
L 79.915563 -197.19656 
L 79.73593 -197.19656 
L 79.73593 -197.19656 
L 79.46648 -197.19656 
L 79.46648 -197.19656 
L 78.837764 -197.19656 
L 78.837764 -197.19656 
L 78.433589 -197.19656 
L 78.433589 -197.19656 
L 77.849781 -197.19656 
L 77.849781 -197.19656 
L 77.35579 -197.19656 
L 77.35579 -197.19656 
L 76.996523 -197.19656 
L 76.996523 -197.19656 
L 76.457624 -197.19656 
L 76.457624 -197.19656 
L 76.143265 -197.19656 
L 76.143265 -197.19656 
L 75.514549 -197.19656 
L 75.514549 -197.19656 
L 75.469641 -197.19656 
L 75.469641 -197.19656 
L 75.065466 -197.19656 
L 75.065466 -197.19656 
L 74.796016 -197.19656 
L 74.796016 -197.19656 
L 74.346933 -197.19656 
L 74.346933 -197.19656 
L 73.808033 -197.19656 
L 73.808033 -197.19656 
L 73.673309 -197.19656 
L 73.673309 -197.19656 
L 73.314042 -197.19656 
L 73.314042 -197.19656 
L 71.023719 -197.19656 
L 71.023719 -197.19656 
L 70.664452 -197.19656 
L 70.664452 -197.19656 
L 69.496836 -197.19656 
L 69.496836 -197.19656 
L 68.778303 -197.19656 
L 68.778303 -197.19656 
L 68.733395 -197.19656 
L 68.733395 -197.19656 
L 68.643578 -197.19656 
L 68.643578 -197.19656 
L 68.463945 -197.19656 
L 68.463945 -197.19656 
L 68.419037 -197.19656 
L 68.419037 -197.19656 
L 68.374128 -197.19656 
L 68.374128 -197.19656 
L 68.284312 -197.19656 
L 68.284312 -197.19656 
L 68.194495 -197.19656 
L 68.194495 -197.19656 
L 68.05977 -197.19656 
L 68.05977 -197.19656 
L 67.386146 -197.19656 
L 67.386146 -197.19656 
L 67.026879 -197.19656 
L 67.026879 -197.19656 
L 66.712521 -197.19656 
L 66.712521 -197.19656 
L 66.128713 -197.19656 
L 66.128713 -197.19656 
L 65.769447 -197.19656 
L 65.769447 -197.19656 
L 65.724538 -197.19656 
L 65.724538 -197.19656 
L 65.67963 -197.19656 
L 65.67963 -197.19656 
L 65.589813 -197.19656 
L 65.589813 -197.19656 
L 65.365272 -197.19656 
L 65.365272 -197.19656 
L 65.320364 -197.19656 
L 65.320364 -197.19656 
L 64.871281 -197.19656 
L 64.871281 -197.19656 
L 64.781464 -197.19656 
L 64.781464 -197.19656 
L 64.152748 -197.19656 
L 64.152748 -197.19656 
L 63.973114 -197.19656 
L 63.973114 -197.19656 
L 63.883298 -197.19656 
L 63.883298 -197.19656 
L 63.83839 -197.19656 
L 63.83839 -197.19656 
L 63.703665 -197.19656 
L 63.703665 -197.19656 
L 63.164765 -197.19656 
L 63.164765 -197.19656 
L 62.625865 -197.19656 
L 62.625865 -197.19656 
L 62.446232 -197.19656 
L 62.446232 -197.19656 
L 62.401324 -197.19656 
L 62.401324 -197.19656 
L 61.862424 -197.19656 
L 61.862424 -197.19656 
L 61.682791 -197.19656 
L 61.682791 -197.19656 
L 61.413341 -197.19656 
L 61.413341 -197.19656 
L 61.368433 -197.19656 
L 61.368433 -197.19656 
L 61.233708 -197.19656 
L 61.233708 -197.19656 
L 61.188799 -197.19656 
L 61.188799 -197.19656 
L 61.054075 -197.19656 
L 61.054075 -197.19656 
L 60.964258 -197.19656 
L 60.964258 -197.19656 
L 60.91935 -197.19656 
L 60.91935 -197.19656 
L 60.694808 -197.19656 
L 60.694808 -197.19656 
L 60.604991 -197.19656 
L 60.604991 -197.19656 
L 60.560083 -197.19656 
L 60.560083 -197.19656 
L 60.290633 -197.19656 
L 60.290633 -197.19656 
L 60.155908 -197.19656 
L 60.155908 -197.19656 
L 60.066092 -197.19656 
L 60.066092 -197.19656 
L 59.078109 -197.19656 
L 59.078109 -197.19656 
L 58.853568 -197.19656 
L 58.853568 -197.19656 
L 58.314668 -197.19656 
L 58.314668 -197.19656 
L 58.26976 -197.19656 
L 58.26976 -197.19656 
L 58.045218 -197.19656 
L 58.045218 -197.19656 
L 57.551227 -197.19656 
L 57.551227 -197.19656 
L 57.506318 -197.19656 
L 57.506318 -197.19656 
L 57.326685 -197.19656 
L 57.326685 -197.19656 
L 57.102144 -197.19656 
L 57.102144 -197.19656 
L 56.92251 -197.19656 
L 56.92251 -197.538598 
L 56.877602 -197.538598 
L 56.877602 -197.538598 
L 56.832694 -197.538598 
L 56.832694 -197.538598 
L 56.653061 -197.538598 
L 56.653061 -197.538598 
L 56.383611 -197.538598 
L 56.383611 -197.538598 
L 56.338702 -197.538598 
L 56.338702 -197.538598 
L 56.248886 -197.538598 
L 56.248886 -197.538598 
L 56.203977 -197.538598 
L 56.203977 -197.538598 
L 56.159069 -197.538598 
L 56.159069 -197.538598 
L 56.069253 -197.538598 
L 56.069253 -197.538598 
L 55.844711 -197.538598 
L 55.844711 -197.538598 
L 55.754894 -197.538598 
L 55.754894 -197.538598 
L 55.126178 -197.538598 
L 55.126178 -197.538598 
L 54.766912 -197.538598 
L 54.766912 -197.538598 
L 54.587278 -197.538598 
L 54.587278 -197.538598 
L 54.452554 -197.538598 
L 54.452554 -197.538598 
L 52.790946 -197.538598 
L 52.790946 -197.538598 
L 51.264064 -197.538598 
L 51.264064 -197.662336 
L 46.952866 -197.662336 
L 46.952866 -197.662336 
L 46.728325 -197.662336 
L 46.728325 -197.662336 
L 45.425984 -197.662336 
L 45.425984 -197.662336 
L 44.887084 -197.662336 
L 44.887084 -197.662336 
L 44.348185 -197.662336 
L 44.348185 -197.662336 
L 43.40511 -197.662336 
L 43.40511 -197.662336 
L 43.315294 -197.662336 
L 43.315294 -197.662336 
L 42.686577 -197.662336 
L 42.686577 -197.662336 
L 42.641669 -197.662336 
L 42.641669 -197.662336 
L 42.506944 -197.662336 
L 42.506944 -197.662336 
L 42.102769 -197.662336 
L 42.102769 -197.662336 
L 41.29442 -197.662336 
L 41.29442 -197.662336 
L 41.204603 -197.662336 
L 41.204603 -197.662336 
L 40.890245 -197.662336 
L 40.890245 -197.662336 
L 40.530979 -197.662336 
L 40.530979 -197.662336 
L 40.396254 -197.662336 
L 40.396254 -197.662336 
L 40.306437 -197.662336 
L 40.306437 -197.662336 
L 40.21662 -197.662336 
L 40.21662 -197.662336 
L 36.758681 -197.662336 
z
" style="stroke: #2e86ab; stroke-opacity: 0.2"/>
    </defs>
    <g clip-path="url(#pec8999e7aa)">
     <use xlink:href="#me08d78df52" x="0" y="213.012812" style="fill: #2e86ab; fill-opacity: 0.2; stroke: #2e86ab; stroke-opacity: 0.2"/>
    </g>
   </g>
   <g id="FillBetweenPolyCollection_2">
    <defs>
     <path id="m8273feca52" d="M 39.632812 -197.265081 
L 39.632812 -191.425821 
L 40.48607 -191.425821 
L 40.48607 -190.40192 
L 40.530979 -190.40192 
L 40.530979 -189.344202 
L 41.698595 -189.344202 
L 41.698595 -189.344202 
L 42.147678 -189.344202 
L 42.147678 -187.231284 
L 42.192586 -187.231284 
L 42.192586 -186.19556 
L 42.282403 -186.19556 
L 42.282403 -186.19556 
L 42.417127 -186.19556 
L 42.417127 -185.165125 
L 42.506944 -185.165125 
L 42.506944 -185.165125 
L 42.551852 -185.165125 
L 42.551852 -184.139671 
L 42.686577 -184.139671 
L 42.686577 -183.126209 
L 42.731486 -183.126209 
L 42.731486 -182.123436 
L 43.045844 -182.123436 
L 43.045844 -181.130261 
L 43.270385 -181.130261 
L 43.270385 -180.145764 
L 43.584743 -180.145764 
L 43.584743 -179.169166 
L 43.629652 -179.169166 
L 43.629652 -179.169166 
L 43.67456 -179.169166 
L 43.67456 -178.192829 
L 43.809285 -178.192829 
L 43.809285 -177.223403 
L 43.899102 -177.223403 
L 43.899102 -177.223403 
L 44.033827 -177.223403 
L 44.033827 -176.253443 
L 44.078735 -176.253443 
L 44.078735 -175.289604 
L 44.393093 -175.289604 
L 44.393093 -174.331448 
L 44.572726 -174.331448 
L 44.572726 -174.331448 
L 44.931993 -174.331448 
L 44.931993 -173.371761 
L 45.111626 -173.371761 
L 45.111626 -172.417212 
L 45.381076 -172.417212 
L 45.381076 -171.46748 
L 45.515801 -171.46748 
L 45.515801 -170.522281 
L 46.009792 -170.522281 
L 46.009792 -169.581362 
L 46.099609 -169.581362 
L 46.099609 -168.644494 
L 46.189425 -168.644494 
L 46.189425 -167.711473 
L 46.32415 -167.711473 
L 46.32415 -166.782113 
L 46.548692 -166.782113 
L 46.548692 -164.933711 
L 46.952866 -164.933711 
L 46.952866 -164.014373 
L 47.177408 -164.014373 
L 47.177408 -162.184777 
L 47.401949 -162.184777 
L 47.401949 -161.274289 
L 47.806124 -161.274289 
L 47.806124 -160.366535 
L 48.030666 -160.366535 
L 48.030666 -160.366535 
L 48.120482 -160.366535 
L 48.120482 -160.366535 
L 48.210299 -160.366535 
L 48.210299 -159.447921 
L 48.614474 -159.447921 
L 48.614474 -157.618779 
L 48.839015 -157.618779 
L 48.839015 -156.708072 
L 48.883924 -156.708072 
L 48.883924 -155.799831 
L 49.108465 -155.799831 
L 49.108465 -154.893984 
L 49.198282 -154.893984 
L 49.198282 -153.990458 
L 49.333007 -153.990458 
L 49.333007 -153.08919 
L 49.51264 -153.08919 
L 49.51264 -152.190118 
L 49.647365 -152.190118 
L 49.647365 -151.293183 
L 49.692273 -151.293183 
L 49.692273 -151.293183 
L 50.05154 -151.293183 
L 50.05154 -149.49156 
L 50.276081 -149.49156 
L 50.276081 -148.593851 
L 50.680256 -148.593851 
L 50.680256 -147.698146 
L 50.770072 -147.698146 
L 50.770072 -146.8044 
L 50.859889 -146.8044 
L 50.859889 -145.912569 
L 50.904797 -145.912569 
L 50.904797 -145.022613 
L 50.994614 -145.022613 
L 50.994614 -144.127215 
L 51.039522 -144.127215 
L 51.039522 -142.341974 
L 51.219155 -142.341974 
L 51.219155 -141.45206 
L 51.35388 -141.45206 
L 51.35388 -140.563906 
L 51.398789 -140.563906 
L 51.398789 -139.67748 
L 51.847872 -139.67748 
L 51.847872 -137.909697 
L 51.89278 -137.909697 
L 51.89278 -137.028286 
L 51.937688 -137.028286 
L 51.937688 -136.148494 
L 52.027505 -136.148494 
L 52.027505 -136.148494 
L 52.117322 -136.148494 
L 52.117322 -135.26258 
L 52.835855 -135.26258 
L 52.835855 -133.495621 
L 53.240029 -133.495621 
L 53.240029 -132.61453 
L 53.599296 -132.61453 
L 53.599296 -131.735004 
L 54.048379 -131.735004 
L 54.048379 -130.857022 
L 54.183104 -130.857022 
L 54.183104 -129.105616 
L 54.362737 -129.105616 
L 54.362737 -128.232157 
L 54.407645 -128.232157 
L 54.407645 -127.360173 
L 54.54237 -127.360173 
L 54.54237 -126.489647 
L 54.901637 -126.489647 
L 54.901637 -125.620566 
L 55.08127 -125.620566 
L 55.08127 -123.886683 
L 55.620169 -123.886683 
L 55.620169 -123.021856 
L 55.889619 -123.021856 
L 55.889619 -122.158423 
L 55.979436 -122.158423 
L 55.979436 -121.296372 
L 56.024344 -121.296372 
L 56.024344 -121.296372 
L 56.159069 -121.296372 
L 56.159069 -121.296372 
L 56.248886 -121.296372 
L 56.248886 -119.523562 
L 56.518336 -119.523562 
L 56.518336 -119.523562 
L 56.563244 -119.523562 
L 56.563244 -119.523562 
L 56.787785 -119.523562 
L 56.787785 -119.523562 
L 56.92251 -119.523562 
L 56.92251 -118.610915 
L 56.967419 -118.610915 
L 56.967419 -117.699983 
L 57.057235 -117.699983 
L 57.057235 -116.790751 
L 57.19196 -116.790751 
L 57.19196 -115.883205 
L 57.281777 -115.883205 
L 57.281777 -114.97733 
L 57.596135 -114.97733 
L 57.596135 -114.073115 
L 57.865585 -114.073115 
L 57.865585 -113.170547 
L 57.955401 -113.170547 
L 57.955401 -112.269616 
L 58.179943 -112.269616 
L 58.179943 -109.576544 
L 58.26976 -109.576544 
L 58.26976 -108.682066 
L 58.404484 -108.682066 
L 58.404484 -107.789181 
L 58.718843 -107.789181 
L 58.718843 -107.789181 
L 59.123017 -107.789181 
L 59.123017 -106.886912 
L 59.257742 -106.886912 
L 59.257742 -105.986301 
L 59.976275 -105.986301 
L 59.976275 -105.087343 
L 60.021183 -105.087343 
L 60.021183 -104.190031 
L 60.066092 -104.190031 
L 60.066092 -103.294362 
L 60.290633 -103.294362 
L 60.290633 -102.400332 
L 60.604991 -102.400332 
L 60.604991 -100.617177 
L 60.91935 -100.617177 
L 60.91935 -99.728048 
L 61.458249 -99.728048 
L 61.458249 -98.840549 
L 61.727699 -98.840549 
L 61.727699 -97.954681 
L 61.862424 -97.954681 
L 61.862424 -97.070445 
L 62.22169 -97.070445 
L 62.22169 -97.070445 
L 62.446232 -97.070445 
L 62.446232 -96.175238 
L 62.536049 -96.175238 
L 62.536049 -94.390002 
L 63.074948 -94.390002 
L 63.074948 -93.499977 
L 63.434215 -93.499977 
L 63.434215 -92.598149 
L 63.613848 -92.598149 
L 63.613848 -91.69816 
L 63.703665 -91.69816 
L 63.703665 -90.800015 
L 63.83839 -90.800015 
L 63.83839 -89.889279 
L 64.062931 -89.889279 
L 64.062931 -88.073721 
L 64.197656 -88.073721 
L 64.197656 -86.266093 
L 64.332381 -86.266093 
L 64.332381 -85.365275 
L 65.006005 -85.365275 
L 65.006005 -83.569684 
L 65.455089 -83.569684 
L 65.455089 -82.674935 
L 65.544905 -82.674935 
L 65.544905 -81.782236 
L 65.634722 -81.782236 
L 65.634722 -80.891602 
L 66.038897 -80.891602 
L 66.038897 -80.891602 
L 66.128713 -80.891602 
L 66.128713 -79.985814 
L 66.263438 -79.985814 
L 66.263438 -79.08228 
L 66.532888 -79.08228 
L 66.532888 -78.181021 
L 66.667613 -78.181021 
L 66.667613 -77.282057 
L 67.116696 -77.282057 
L 67.116696 -76.385411 
L 67.251421 -76.385411 
L 67.251421 -75.491107 
L 67.341237 -75.491107 
L 67.341237 -74.599172 
L 67.610687 -74.599172 
L 67.610687 -73.709635 
L 67.925045 -73.709635 
L 67.925045 -72.822524 
L 68.86812 -72.822524 
L 68.86812 -71.937874 
L 69.496836 -71.937874 
L 69.496836 -71.055719 
L 69.901011 -71.055719 
L 69.901011 -70.176095 
L 70.170461 -70.176095 
L 70.170461 -69.299043 
L 70.395002 -69.299043 
L 70.395002 -68.424606 
L 70.619544 -68.424606 
L 70.619544 -67.552828 
L 70.888994 -67.552828 
L 70.888994 -66.683758 
L 71.068627 -66.683758 
L 71.068627 -66.683758 
L 71.338077 -66.683758 
L 71.338077 -65.793756 
L 71.607526 -65.793756 
L 71.607526 -64.906857 
L 71.921885 -64.906857 
L 71.921885 -64.023124 
L 72.460784 -64.023124 
L 72.460784 -64.023124 
L 72.595509 -64.023124 
L 72.595509 -63.115931 
L 72.820051 -63.115931 
L 72.820051 -62.212415 
L 74.571475 -62.212415 
L 74.571475 -61.312656 
L 75.334916 -61.312656 
L 75.334916 -60.416744 
L 76.098357 -60.416744 
L 76.098357 -60.416744 
L 76.412715 -60.416744 
L 76.412715 -59.493536 
L 76.592348 -59.493536 
L 76.592348 -58.574896 
L 77.131248 -58.574896 
L 77.131248 -57.660948 
L 77.445606 -57.660948 
L 77.445606 -57.660948 
L 78.209047 -57.660948 
L 78.209047 -56.71547 
L 78.433589 -56.71547 
L 78.433589 -55.775689 
L 80.229921 -55.775689 
L 80.229921 -54.84178 
L 81.891529 -54.84178 
L 81.891529 -53.913937 
L 82.250795 -53.913937 
L 82.250795 -52.992376 
L 83.373503 -52.992376 
L 83.373503 -52.077334 
L 84.720752 -52.077334 
L 84.720752 -51.169074 
L 84.76566 -51.169074 
L 84.76566 -50.267892 
L 84.900385 -50.267892 
L 84.900385 -49.374115 
L 86.157818 -49.374115 
L 86.157818 -48.488114 
L 87.41525 -48.488114 
L 87.41525 -47.610304 
L 87.774517 -47.610304 
L 87.774517 -47.610304 
L 87.999058 -47.610304 
L 87.999058 -46.681633 
L 94.376038 -46.681633 
L 94.376038 -46.681633 
L 100.169209 -46.681633 
L 100.169209 -45.693072 
L 101.022467 -45.693072 
L 101.022467 -44.72016 
L 103.402607 -44.72016 
L 103.402607 -43.763955 
L 103.537332 -43.763955 
L 103.537332 -42.825723 
L 109.510137 -42.825723 
L 109.510137 -41.906993 
L 114.629684 -41.906993 
L 114.629684 -41.009643 
L 116.785282 -41.009643 
L 116.785282 -40.136003 
L 120.647397 -40.136003 
L 120.647397 -39.289027 
L 123.566437 -39.289027 
L 123.566437 -38.472542 
L 127.069285 -38.472542 
L 127.069285 -38.472542 
L 128.147084 -38.472542 
L 128.147084 -37.521911 
L 130.347591 -37.521911 
L 130.347591 -36.650262 
L 158.235649 -36.650262 
L 158.235649 -35.556773 
L 166.633502 -35.556773 
L 166.633502 -34.845491 
L 172.291949 -34.845491 
L 172.291949 -34.652812 
L 172.291949 -34.652812 
L 172.291949 -34.652812 
L 172.291949 -43.043258 
L 166.633502 -43.043258 
L 166.633502 -45.08812 
L 158.235649 -45.08812 
L 158.235649 -46.944252 
L 130.347591 -46.944252 
L 130.347591 -48.631234 
L 128.147084 -48.631234 
L 128.147084 -50.254813 
L 127.069285 -50.254813 
L 127.069285 -50.254813 
L 123.566437 -50.254813 
L 123.566437 -51.723211 
L 120.647397 -51.723211 
L 120.647397 -53.165648 
L 116.785282 -53.165648 
L 116.785282 -54.585251 
L 114.629684 -54.585251 
L 114.629684 -55.984478 
L 109.510137 -55.984478 
L 109.510137 -57.365301 
L 103.537332 -57.365301 
L 103.537332 -58.729325 
L 103.402607 -58.729325 
L 103.402607 -60.077872 
L 101.022467 -60.077872 
L 101.022467 -61.412043 
L 100.169209 -61.412043 
L 100.169209 -62.732763 
L 94.376038 -62.732763 
L 94.376038 -62.732763 
L 87.999058 -62.732763 
L 87.999058 -63.987565 
L 87.774517 -63.987565 
L 87.774517 -63.987565 
L 87.41525 -63.987565 
L 87.41525 -65.18558 
L 86.157818 -65.18558 
L 86.157818 -66.376337 
L 84.900385 -66.376337 
L 84.900385 -67.560208 
L 84.76566 -67.560208 
L 84.76566 -68.737526 
L 84.720752 -68.737526 
L 84.720752 -69.908586 
L 83.373503 -69.908586 
L 83.373503 -71.073654 
L 82.250795 -71.073654 
L 82.250795 -72.232972 
L 81.891529 -72.232972 
L 81.891529 -73.386756 
L 80.229921 -73.386756 
L 80.229921 -74.535202 
L 78.433589 -74.535202 
L 78.433589 -75.678488 
L 78.209047 -75.678488 
L 78.209047 -76.816777 
L 77.445606 -76.816777 
L 77.445606 -76.816777 
L 77.131248 -76.816777 
L 77.131248 -77.921612 
L 76.592348 -77.921612 
L 76.592348 -79.02229 
L 76.412715 -79.02229 
L 76.412715 -80.118925 
L 76.098357 -80.118925 
L 76.098357 -80.118925 
L 75.334916 -80.118925 
L 75.334916 -81.186725 
L 74.571475 -81.186725 
L 74.571475 -82.251086 
L 72.820051 -82.251086 
L 72.820051 -83.31209 
L 72.595509 -83.31209 
L 72.595509 -84.369814 
L 72.460784 -84.369814 
L 72.460784 -84.369814 
L 71.921885 -84.369814 
L 71.921885 -85.40294 
L 71.607526 -85.40294 
L 71.607526 -86.433211 
L 71.338077 -86.433211 
L 71.338077 -87.460685 
L 71.068627 -87.460685 
L 71.068627 -87.460685 
L 70.888994 -87.460685 
L 70.888994 -88.466289 
L 70.619544 -88.466289 
L 70.619544 -89.469423 
L 70.395002 -89.469423 
L 70.395002 -90.470135 
L 70.170461 -90.470135 
L 70.170461 -91.468465 
L 69.901011 -91.468465 
L 69.901011 -92.464454 
L 69.496836 -92.464454 
L 69.496836 -93.458139 
L 68.86812 -93.458139 
L 68.86812 -94.449556 
L 67.925045 -94.449556 
L 67.925045 -95.438737 
L 67.610687 -95.438737 
L 67.610687 -96.425715 
L 67.341237 -96.425715 
L 67.341237 -97.410518 
L 67.251421 -97.410518 
L 67.251421 -98.393173 
L 67.116696 -98.393173 
L 67.116696 -99.373707 
L 66.667613 -99.373707 
L 66.667613 -100.352144 
L 66.532888 -100.352144 
L 66.532888 -101.328506 
L 66.263438 -101.328506 
L 66.263438 -102.302815 
L 66.128713 -102.302815 
L 66.128713 -103.275089 
L 66.038897 -103.275089 
L 66.038897 -103.275089 
L 65.634722 -103.275089 
L 65.634722 -104.231979 
L 65.544905 -104.231979 
L 65.544905 -105.186988 
L 65.455089 -105.186988 
L 65.455089 -106.140133 
L 65.006005 -106.140133 
L 65.006005 -108.040889 
L 64.332381 -108.040889 
L 64.332381 -108.988526 
L 64.197656 -108.988526 
L 64.197656 -110.878376 
L 64.062931 -110.878376 
L 64.062931 -112.761059 
L 63.83839 -112.761059 
L 63.83839 -113.699735 
L 63.703665 -113.699735 
L 63.703665 -114.625759 
L 63.613848 -114.625759 
L 63.613848 -115.550109 
L 63.434215 -115.550109 
L 63.434215 -116.47279 
L 63.074948 -116.47279 
L 63.074948 -117.383626 
L 62.536049 -117.383626 
L 62.536049 -119.200555 
L 62.446232 -119.200555 
L 62.446232 -120.106656 
L 62.22169 -120.106656 
L 62.22169 -120.106656 
L 61.862424 -120.106656 
L 61.862424 -121.001761 
L 61.727699 -121.001761 
L 61.727699 -121.895365 
L 61.458249 -121.895365 
L 61.458249 -122.787468 
L 60.91935 -122.787468 
L 60.91935 -123.678073 
L 60.604991 -123.678073 
L 60.604991 -125.454785 
L 60.290633 -125.454785 
L 60.290633 -126.340893 
L 60.066092 -126.340893 
L 60.066092 -127.225501 
L 60.021183 -127.225501 
L 60.021183 -128.108608 
L 59.976275 -128.108608 
L 59.976275 -128.99021 
L 59.257742 -128.99021 
L 59.257742 -129.870305 
L 59.123017 -129.870305 
L 59.123017 -130.74889 
L 58.718843 -130.74889 
L 58.718843 -130.74889 
L 58.404484 -130.74889 
L 58.404484 -131.618052 
L 58.26976 -131.618052 
L 58.26976 -132.485752 
L 58.179943 -132.485752 
L 58.179943 -135.080026 
L 57.955401 -135.080026 
L 57.955401 -135.941823 
L 57.865585 -135.941823 
L 57.865585 -136.802129 
L 57.596135 -136.802129 
L 57.596135 -137.660936 
L 57.281777 -137.660936 
L 57.281777 -138.518236 
L 57.19196 -138.518236 
L 57.19196 -139.37402 
L 57.057235 -139.37402 
L 57.057235 -140.228278 
L 56.967419 -140.228278 
L 56.967419 -141.081 
L 56.92251 -141.081 
L 56.92251 -141.932176 
L 56.787785 -141.932176 
L 56.787785 -141.932176 
L 56.563244 -141.932176 
L 56.563244 -141.932176 
L 56.518336 -141.932176 
L 56.518336 -141.932176 
L 56.248886 -141.932176 
L 56.248886 -143.590562 
L 56.159069 -143.590562 
L 56.159069 -143.590562 
L 56.024344 -143.590562 
L 56.024344 -143.590562 
L 55.979436 -143.590562 
L 55.979436 -144.399163 
L 55.889619 -144.399163 
L 55.889619 -145.206441 
L 55.620169 -145.206441 
L 55.620169 -146.012386 
L 55.08127 -146.012386 
L 55.08127 -147.620234 
L 54.901637 -147.620234 
L 54.901637 -148.422113 
L 54.54237 -148.422113 
L 54.54237 -149.222614 
L 54.407645 -149.222614 
L 54.407645 -150.021722 
L 54.362737 -150.021722 
L 54.362737 -150.819424 
L 54.183104 -150.819424 
L 54.183104 -152.410548 
L 54.048379 -152.410548 
L 54.048379 -153.20394 
L 53.599296 -153.20394 
L 53.599296 -153.995861 
L 53.240029 -153.995861 
L 53.240029 -154.786295 
L 52.835855 -154.786295 
L 52.835855 -156.362625 
L 52.117322 -156.362625 
L 52.117322 -157.14848 
L 52.027505 -157.14848 
L 52.027505 -157.14848 
L 51.937688 -157.14848 
L 51.937688 -157.927749 
L 51.89278 -157.927749 
L 51.89278 -158.705466 
L 51.847872 -158.705466 
L 51.847872 -160.25615 
L 51.398789 -160.25615 
L 51.398789 -161.029067 
L 51.35388 -161.029067 
L 51.35388 -161.800333 
L 51.219155 -161.800333 
L 51.219155 -162.569918 
L 51.039522 -162.569918 
L 51.039522 -164.103927 
L 50.994614 -164.103927 
L 50.994614 -164.868287 
L 50.904797 -164.868287 
L 50.904797 -165.62636 
L 50.859889 -165.62636 
L 50.859889 -166.38263 
L 50.770072 -166.38263 
L 50.770072 -167.137058 
L 50.680256 -167.137058 
L 50.680256 -167.889604 
L 50.276081 -167.889604 
L 50.276081 -168.640228 
L 50.05154 -168.640228 
L 50.05154 -170.135527 
L 49.692273 -170.135527 
L 49.692273 -170.135527 
L 49.647365 -170.135527 
L 49.647365 -170.875992 
L 49.51264 -170.875992 
L 49.51264 -171.614385 
L 49.333007 -171.614385 
L 49.333007 -172.350653 
L 49.198282 -172.350653 
L 49.198282 -173.084738 
L 49.108465 -173.084738 
L 49.108465 -173.816578 
L 48.883924 -173.816578 
L 48.883924 -174.546109 
L 48.839015 -174.546109 
L 48.839015 -175.273262 
L 48.614474 -175.273262 
L 48.614474 -176.720129 
L 48.210299 -176.720129 
L 48.210299 -177.439678 
L 48.120482 -177.439678 
L 48.120482 -177.439678 
L 48.030666 -177.439678 
L 48.030666 -177.439678 
L 47.806124 -177.439678 
L 47.806124 -178.149276 
L 47.401949 -178.149276 
L 47.401949 -178.856171 
L 47.177408 -178.856171 
L 47.177408 -180.261442 
L 46.952866 -180.261442 
L 46.952866 -180.959593 
L 46.548692 -180.959593 
L 46.548692 -182.346284 
L 46.32415 -182.346284 
L 46.32415 -183.034536 
L 46.189425 -183.034536 
L 46.189425 -183.719175 
L 46.099609 -183.719175 
L 46.099609 -184.40002 
L 46.009792 -184.40002 
L 46.009792 -185.076871 
L 45.515801 -185.076871 
L 45.515801 -185.749507 
L 45.381076 -185.749507 
L 45.381076 -186.417681 
L 45.111626 -186.417681 
L 45.111626 -187.081118 
L 44.931993 -187.081118 
L 44.931993 -187.739511 
L 44.572726 -187.739511 
L 44.572726 -187.739511 
L 44.393093 -187.739511 
L 44.393093 -188.389649 
L 44.078735 -188.389649 
L 44.078735 -189.034093 
L 44.033827 -189.034093 
L 44.033827 -189.672401 
L 43.899102 -189.672401 
L 43.899102 -189.672401 
L 43.809285 -189.672401 
L 43.809285 -190.301404 
L 43.67456 -190.301404 
L 43.67456 -190.923284 
L 43.629652 -190.923284 
L 43.629652 -190.923284 
L 43.584743 -190.923284 
L 43.584743 -191.534856 
L 43.270385 -191.534856 
L 43.270385 -192.137954 
L 43.045844 -192.137954 
L 43.045844 -192.731637 
L 42.731486 -192.731637 
L 42.731486 -193.314763 
L 42.686577 -193.314763 
L 42.686577 -193.885916 
L 42.551852 -193.885916 
L 42.551852 -194.443312 
L 42.506944 -194.443312 
L 42.506944 -194.443312 
L 42.417127 -194.443312 
L 42.417127 -194.98268 
L 42.282403 -194.98268 
L 42.282403 -194.98268 
L 42.192586 -194.98268 
L 42.192586 -195.501325 
L 42.147678 -195.501325 
L 42.147678 -196.46416 
L 41.698595 -196.46416 
L 41.698595 -196.46416 
L 40.530979 -196.46416 
L 40.530979 -196.891634 
L 40.48607 -196.891634 
L 40.48607 -197.265081 
L 39.632812 -197.265081 
z
" style="stroke: #e63946; stroke-opacity: 0.2"/>
    </defs>
    <g clip-path="url(#pec8999e7aa)">
     <use xlink:href="#m8273feca52" x="0" y="213.012812" style="fill: #e63946; fill-opacity: 0.2; stroke: #e63946; stroke-opacity: 0.2"/>
    </g>
   </g>
   <g id="line2d_25">
    <defs>
     <path id="m8287ff024c" d="M -3 3 
L 3 -3 
M -3 -3 
L 3 3 
" style="stroke: #2e86ab"/>
    </defs>
    <g clip-path="url(#pec8999e7aa)">
     <use xlink:href="#m8287ff024c" x="36.758681" y="15.350476" style="fill: #2e86ab; stroke: #2e86ab"/>
     <use xlink:href="#m8287ff024c" x="40.21662" y="15.350476" style="fill: #2e86ab; stroke: #2e86ab"/>
     <use xlink:href="#m8287ff024c" x="40.306437" y="15.350476" style="fill: #2e86ab; stroke: #2e86ab"/>
     <use xlink:href="#m8287ff024c" x="40.396254" y="15.350476" style="fill: #2e86ab; stroke: #2e86ab"/>
     <use xlink:href="#m8287ff024c" x="40.530979" y="15.350476" style="fill: #2e86ab; stroke: #2e86ab"/>
     <use xlink:href="#m8287ff024c" x="40.890245" y="15.350476" style="fill: #2e86ab; stroke: #2e86ab"/>
     <use xlink:href="#m8287ff024c" x="41.204603" y="15.350476" style="fill: #2e86ab; stroke: #2e86ab"/>
     <use xlink:href="#m8287ff024c" x="41.29442" y="15.350476" style="fill: #2e86ab; stroke: #2e86ab"/>
     <use xlink:href="#m8287ff024c" x="42.102769" y="15.350476" style="fill: #2e86ab; stroke: #2e86ab"/>
     <use xlink:href="#m8287ff024c" x="42.506944" y="15.350476" style="fill: #2e86ab; stroke: #2e86ab"/>
     <use xlink:href="#m8287ff024c" x="42.641669" y="15.350476" style="fill: #2e86ab; stroke: #2e86ab"/>
     <use xlink:href="#m8287ff024c" x="42.686577" y="15.350476" style="fill: #2e86ab; stroke: #2e86ab"/>
     <use xlink:href="#m8287ff024c" x="43.315294" y="15.350476" style="fill: #2e86ab; stroke: #2e86ab"/>
     <use xlink:href="#m8287ff024c" x="43.40511" y="15.350476" style="fill: #2e86ab; stroke: #2e86ab"/>
     <use xlink:href="#m8287ff024c" x="44.348185" y="15.350476" style="fill: #2e86ab; stroke: #2e86ab"/>
     <use xlink:href="#m8287ff024c" x="44.887084" y="15.350476" style="fill: #2e86ab; stroke: #2e86ab"/>
     <use xlink:href="#m8287ff024c" x="45.425984" y="15.350476" style="fill: #2e86ab; stroke: #2e86ab"/>
     <use xlink:href="#m8287ff024c" x="46.728325" y="15.350476" style="fill: #2e86ab; stroke: #2e86ab"/>
     <use xlink:href="#m8287ff024c" x="46.952866" y="15.350476" style="fill: #2e86ab; stroke: #2e86ab"/>
     <use xlink:href="#m8287ff024c" x="52.790946" y="16.226871" style="fill: #2e86ab; stroke: #2e86ab"/>
     <use xlink:href="#m8287ff024c" x="54.452554" y="16.226871" style="fill: #2e86ab; stroke: #2e86ab"/>
     <use xlink:href="#m8287ff024c" x="54.587278" y="16.226871" style="fill: #2e86ab; stroke: #2e86ab"/>
     <use xlink:href="#m8287ff024c" x="54.766912" y="16.226871" style="fill: #2e86ab; stroke: #2e86ab"/>
     <use xlink:href="#m8287ff024c" x="55.126178" y="16.226871" style="fill: #2e86ab; stroke: #2e86ab"/>
     <use xlink:href="#m8287ff024c" x="55.754894" y="16.226871" style="fill: #2e86ab; stroke: #2e86ab"/>
     <use xlink:href="#m8287ff024c" x="55.844711" y="16.226871" style="fill: #2e86ab; stroke: #2e86ab"/>
     <use xlink:href="#m8287ff024c" x="56.069253" y="16.226871" style="fill: #2e86ab; stroke: #2e86ab"/>
     <use xlink:href="#m8287ff024c" x="56.159069" y="16.226871" style="fill: #2e86ab; stroke: #2e86ab"/>
     <use xlink:href="#m8287ff024c" x="56.203977" y="16.226871" style="fill: #2e86ab; stroke: #2e86ab"/>
     <use xlink:href="#m8287ff024c" x="56.248886" y="16.226871" style="fill: #2e86ab; stroke: #2e86ab"/>
     <use xlink:href="#m8287ff024c" x="56.338702" y="16.226871" style="fill: #2e86ab; stroke: #2e86ab"/>
     <use xlink:href="#m8287ff024c" x="56.383611" y="16.226871" style="fill: #2e86ab; stroke: #2e86ab"/>
     <use xlink:href="#m8287ff024c" x="56.653061" y="16.226871" style="fill: #2e86ab; stroke: #2e86ab"/>
     <use xlink:href="#m8287ff024c" x="56.832694" y="16.226871" style="fill: #2e86ab; stroke: #2e86ab"/>
     <use xlink:href="#m8287ff024c" x="56.877602" y="16.226871" style="fill: #2e86ab; stroke: #2e86ab"/>
     <use xlink:href="#m8287ff024c" x="57.102144" y="17.209497" style="fill: #2e86ab; stroke: #2e86ab"/>
     <use xlink:href="#m8287ff024c" x="57.326685" y="17.209497" style="fill: #2e86ab; stroke: #2e86ab"/>
     <use xlink:href="#m8287ff024c" x="57.506318" y="17.209497" style="fill: #2e86ab; stroke: #2e86ab"/>
     <use xlink:href="#m8287ff024c" x="57.551227" y="17.209497" style="fill: #2e86ab; stroke: #2e86ab"/>
     <use xlink:href="#m8287ff024c" x="58.045218" y="17.209497" style="fill: #2e86ab; stroke: #2e86ab"/>
     <use xlink:href="#m8287ff024c" x="58.26976" y="17.209497" style="fill: #2e86ab; stroke: #2e86ab"/>
     <use xlink:href="#m8287ff024c" x="58.314668" y="17.209497" style="fill: #2e86ab; stroke: #2e86ab"/>
     <use xlink:href="#m8287ff024c" x="58.853568" y="17.209497" style="fill: #2e86ab; stroke: #2e86ab"/>
     <use xlink:href="#m8287ff024c" x="59.078109" y="17.209497" style="fill: #2e86ab; stroke: #2e86ab"/>
     <use xlink:href="#m8287ff024c" x="60.066092" y="17.209497" style="fill: #2e86ab; stroke: #2e86ab"/>
     <use xlink:href="#m8287ff024c" x="60.155908" y="17.209497" style="fill: #2e86ab; stroke: #2e86ab"/>
     <use xlink:href="#m8287ff024c" x="60.290633" y="17.209497" style="fill: #2e86ab; stroke: #2e86ab"/>
     <use xlink:href="#m8287ff024c" x="60.560083" y="17.209497" style="fill: #2e86ab; stroke: #2e86ab"/>
     <use xlink:href="#m8287ff024c" x="60.604991" y="17.209497" style="fill: #2e86ab; stroke: #2e86ab"/>
     <use xlink:href="#m8287ff024c" x="60.694808" y="17.209497" style="fill: #2e86ab; stroke: #2e86ab"/>
     <use xlink:href="#m8287ff024c" x="60.91935" y="17.209497" style="fill: #2e86ab; stroke: #2e86ab"/>
     <use xlink:href="#m8287ff024c" x="60.964258" y="17.209497" style="fill: #2e86ab; stroke: #2e86ab"/>
     <use xlink:href="#m8287ff024c" x="61.054075" y="17.209497" style="fill: #2e86ab; stroke: #2e86ab"/>
     <use xlink:href="#m8287ff024c" x="61.188799" y="17.209497" style="fill: #2e86ab; stroke: #2e86ab"/>
     <use xlink:href="#m8287ff024c" x="61.233708" y="17.209497" style="fill: #2e86ab; stroke: #2e86ab"/>
     <use xlink:href="#m8287ff024c" x="61.368433" y="17.209497" style="fill: #2e86ab; stroke: #2e86ab"/>
     <use xlink:href="#m8287ff024c" x="61.413341" y="17.209497" style="fill: #2e86ab; stroke: #2e86ab"/>
     <use xlink:href="#m8287ff024c" x="61.682791" y="17.209497" style="fill: #2e86ab; stroke: #2e86ab"/>
     <use xlink:href="#m8287ff024c" x="61.862424" y="17.209497" style="fill: #2e86ab; stroke: #2e86ab"/>
     <use xlink:href="#m8287ff024c" x="62.401324" y="17.209497" style="fill: #2e86ab; stroke: #2e86ab"/>
     <use xlink:href="#m8287ff024c" x="62.446232" y="17.209497" style="fill: #2e86ab; stroke: #2e86ab"/>
     <use xlink:href="#m8287ff024c" x="62.625865" y="17.209497" style="fill: #2e86ab; stroke: #2e86ab"/>
     <use xlink:href="#m8287ff024c" x="63.164765" y="17.209497" style="fill: #2e86ab; stroke: #2e86ab"/>
     <use xlink:href="#m8287ff024c" x="63.703665" y="17.209497" style="fill: #2e86ab; stroke: #2e86ab"/>
     <use xlink:href="#m8287ff024c" x="63.83839" y="17.209497" style="fill: #2e86ab; stroke: #2e86ab"/>
     <use xlink:href="#m8287ff024c" x="63.883298" y="17.209497" style="fill: #2e86ab; stroke: #2e86ab"/>
     <use xlink:href="#m8287ff024c" x="63.973114" y="17.209497" style="fill: #2e86ab; stroke: #2e86ab"/>
     <use xlink:href="#m8287ff024c" x="64.152748" y="17.209497" style="fill: #2e86ab; stroke: #2e86ab"/>
     <use xlink:href="#m8287ff024c" x="64.781464" y="17.209497" style="fill: #2e86ab; stroke: #2e86ab"/>
     <use xlink:href="#m8287ff024c" x="64.871281" y="17.209497" style="fill: #2e86ab; stroke: #2e86ab"/>
     <use xlink:href="#m8287ff024c" x="65.320364" y="17.209497" style="fill: #2e86ab; stroke: #2e86ab"/>
     <use xlink:href="#m8287ff024c" x="65.365272" y="17.209497" style="fill: #2e86ab; stroke: #2e86ab"/>
     <use xlink:href="#m8287ff024c" x="65.589813" y="17.209497" style="fill: #2e86ab; stroke: #2e86ab"/>
     <use xlink:href="#m8287ff024c" x="65.67963" y="17.209497" style="fill: #2e86ab; stroke: #2e86ab"/>
     <use xlink:href="#m8287ff024c" x="65.724538" y="17.209497" style="fill: #2e86ab; stroke: #2e86ab"/>
     <use xlink:href="#m8287ff024c" x="65.769447" y="17.209497" style="fill: #2e86ab; stroke: #2e86ab"/>
     <use xlink:href="#m8287ff024c" x="66.128713" y="17.209497" style="fill: #2e86ab; stroke: #2e86ab"/>
     <use xlink:href="#m8287ff024c" x="66.712521" y="17.209497" style="fill: #2e86ab; stroke: #2e86ab"/>
     <use xlink:href="#m8287ff024c" x="67.026879" y="17.209497" style="fill: #2e86ab; stroke: #2e86ab"/>
     <use xlink:href="#m8287ff024c" x="67.386146" y="17.209497" style="fill: #2e86ab; stroke: #2e86ab"/>
     <use xlink:href="#m8287ff024c" x="68.05977" y="17.209497" style="fill: #2e86ab; stroke: #2e86ab"/>
     <use xlink:href="#m8287ff024c" x="68.194495" y="17.209497" style="fill: #2e86ab; stroke: #2e86ab"/>
     <use xlink:href="#m8287ff024c" x="68.284312" y="17.209497" style="fill: #2e86ab; stroke: #2e86ab"/>
     <use xlink:href="#m8287ff024c" x="68.374128" y="17.209497" style="fill: #2e86ab; stroke: #2e86ab"/>
     <use xlink:href="#m8287ff024c" x="68.419037" y="17.209497" style="fill: #2e86ab; stroke: #2e86ab"/>
     <use xlink:href="#m8287ff024c" x="68.463945" y="17.209497" style="fill: #2e86ab; stroke: #2e86ab"/>
     <use xlink:href="#m8287ff024c" x="68.643578" y="17.209497" style="fill: #2e86ab; stroke: #2e86ab"/>
     <use xlink:href="#m8287ff024c" x="68.733395" y="17.209497" style="fill: #2e86ab; stroke: #2e86ab"/>
     <use xlink:href="#m8287ff024c" x="68.778303" y="17.209497" style="fill: #2e86ab; stroke: #2e86ab"/>
     <use xlink:href="#m8287ff024c" x="69.496836" y="17.209497" style="fill: #2e86ab; stroke: #2e86ab"/>
     <use xlink:href="#m8287ff024c" x="70.664452" y="17.209497" style="fill: #2e86ab; stroke: #2e86ab"/>
     <use xlink:href="#m8287ff024c" x="71.023719" y="17.209497" style="fill: #2e86ab; stroke: #2e86ab"/>
     <use xlink:href="#m8287ff024c" x="73.314042" y="17.209497" style="fill: #2e86ab; stroke: #2e86ab"/>
     <use xlink:href="#m8287ff024c" x="73.673309" y="17.209497" style="fill: #2e86ab; stroke: #2e86ab"/>
     <use xlink:href="#m8287ff024c" x="73.808033" y="17.209497" style="fill: #2e86ab; stroke: #2e86ab"/>
     <use xlink:href="#m8287ff024c" x="74.346933" y="17.209497" style="fill: #2e86ab; stroke: #2e86ab"/>
     <use xlink:href="#m8287ff024c" x="74.796016" y="17.209497" style="fill: #2e86ab; stroke: #2e86ab"/>
     <use xlink:href="#m8287ff024c" x="75.065466" y="17.209497" style="fill: #2e86ab; stroke: #2e86ab"/>
     <use xlink:href="#m8287ff024c" x="75.469641" y="17.209497" style="fill: #2e86ab; stroke: #2e86ab"/>
     <use xlink:href="#m8287ff024c" x="75.514549" y="17.209497" style="fill: #2e86ab; stroke: #2e86ab"/>
     <use xlink:href="#m8287ff024c" x="76.143265" y="17.209497" style="fill: #2e86ab; stroke: #2e86ab"/>
     <use xlink:href="#m8287ff024c" x="76.457624" y="17.209497" style="fill: #2e86ab; stroke: #2e86ab"/>
     <use xlink:href="#m8287ff024c" x="76.996523" y="17.209497" style="fill: #2e86ab; stroke: #2e86ab"/>
     <use xlink:href="#m8287ff024c" x="77.35579" y="17.209497" style="fill: #2e86ab; stroke: #2e86ab"/>
     <use xlink:href="#m8287ff024c" x="77.849781" y="17.209497" style="fill: #2e86ab; stroke: #2e86ab"/>
     <use xlink:href="#m8287ff024c" x="78.433589" y="17.209497" style="fill: #2e86ab; stroke: #2e86ab"/>
     <use xlink:href="#m8287ff024c" x="78.837764" y="17.209497" style="fill: #2e86ab; stroke: #2e86ab"/>
     <use xlink:href="#m8287ff024c" x="79.46648" y="17.209497" style="fill: #2e86ab; stroke: #2e86ab"/>
     <use xlink:href="#m8287ff024c" x="79.73593" y="17.209497" style="fill: #2e86ab; stroke: #2e86ab"/>
     <use xlink:href="#m8287ff024c" x="79.915563" y="17.209497" style="fill: #2e86ab; stroke: #2e86ab"/>
     <use xlink:href="#m8287ff024c" x="80.00538" y="17.209497" style="fill: #2e86ab; stroke: #2e86ab"/>
     <use xlink:href="#m8287ff024c" x="80.319738" y="17.209497" style="fill: #2e86ab; stroke: #2e86ab"/>
     <use xlink:href="#m8287ff024c" x="80.993362" y="17.209497" style="fill: #2e86ab; stroke: #2e86ab"/>
     <use xlink:href="#m8287ff024c" x="82.071162" y="17.209497" style="fill: #2e86ab; stroke: #2e86ab"/>
     <use xlink:href="#m8287ff024c" x="84.406394" y="17.209497" style="fill: #2e86ab; stroke: #2e86ab"/>
     <use xlink:href="#m8287ff024c" x="84.675844" y="17.209497" style="fill: #2e86ab; stroke: #2e86ab"/>
     <use xlink:href="#m8287ff024c" x="85.84346" y="17.209497" style="fill: #2e86ab; stroke: #2e86ab"/>
     <use xlink:href="#m8287ff024c" x="86.696717" y="17.209497" style="fill: #2e86ab; stroke: #2e86ab"/>
     <use xlink:href="#m8287ff024c" x="88.582866" y="17.209497" style="fill: #2e86ab; stroke: #2e86ab"/>
     <use xlink:href="#m8287ff024c" x="88.762499" y="17.209497" style="fill: #2e86ab; stroke: #2e86ab"/>
     <use xlink:href="#m8287ff024c" x="89.391216" y="17.209497" style="fill: #2e86ab; stroke: #2e86ab"/>
     <use xlink:href="#m8287ff024c" x="89.481032" y="17.209497" style="fill: #2e86ab; stroke: #2e86ab"/>
     <use xlink:href="#m8287ff024c" x="89.705574" y="17.209497" style="fill: #2e86ab; stroke: #2e86ab"/>
     <use xlink:href="#m8287ff024c" x="90.244474" y="17.209497" style="fill: #2e86ab; stroke: #2e86ab"/>
     <use xlink:href="#m8287ff024c" x="92.355164" y="19.614728" style="fill: #2e86ab; stroke: #2e86ab"/>
     <use xlink:href="#m8287ff024c" x="92.669522" y="19.614728" style="fill: #2e86ab; stroke: #2e86ab"/>
     <use xlink:href="#m8287ff024c" x="92.894064" y="19.614728" style="fill: #2e86ab; stroke: #2e86ab"/>
     <use xlink:href="#m8287ff024c" x="99.181226" y="22.134494" style="fill: #2e86ab; stroke: #2e86ab"/>
     <use xlink:href="#m8287ff024c" x="100.259026" y="22.134494" style="fill: #2e86ab; stroke: #2e86ab"/>
     <use xlink:href="#m8287ff024c" x="101.157192" y="22.134494" style="fill: #2e86ab; stroke: #2e86ab"/>
     <use xlink:href="#m8287ff024c" x="104.92949" y="22.134494" style="fill: #2e86ab; stroke: #2e86ab"/>
     <use xlink:href="#m8287ff024c" x="104.974398" y="22.134494" style="fill: #2e86ab; stroke: #2e86ab"/>
     <use xlink:href="#m8287ff024c" x="105.198939" y="22.134494" style="fill: #2e86ab; stroke: #2e86ab"/>
     <use xlink:href="#m8287ff024c" x="106.052197" y="22.134494" style="fill: #2e86ab; stroke: #2e86ab"/>
     <use xlink:href="#m8287ff024c" x="107.983254" y="22.134494" style="fill: #2e86ab; stroke: #2e86ab"/>
     <use xlink:href="#m8287ff024c" x="108.297613" y="22.134494" style="fill: #2e86ab; stroke: #2e86ab"/>
     <use xlink:href="#m8287ff024c" x="108.701787" y="22.134494" style="fill: #2e86ab; stroke: #2e86ab"/>
     <use xlink:href="#m8287ff024c" x="108.881421" y="22.134494" style="fill: #2e86ab; stroke: #2e86ab"/>
     <use xlink:href="#m8287ff024c" x="109.734678" y="22.134494" style="fill: #2e86ab; stroke: #2e86ab"/>
     <use xlink:href="#m8287ff024c" x="110.677753" y="22.134494" style="fill: #2e86ab; stroke: #2e86ab"/>
     <use xlink:href="#m8287ff024c" x="111.665736" y="22.134494" style="fill: #2e86ab; stroke: #2e86ab"/>
     <use xlink:href="#m8287ff024c" x="112.429177" y="22.134494" style="fill: #2e86ab; stroke: #2e86ab"/>
     <use xlink:href="#m8287ff024c" x="113.237526" y="22.134494" style="fill: #2e86ab; stroke: #2e86ab"/>
     <use xlink:href="#m8287ff024c" x="113.686609" y="22.134494" style="fill: #2e86ab; stroke: #2e86ab"/>
     <use xlink:href="#m8287ff024c" x="116.336199" y="22.134494" style="fill: #2e86ab; stroke: #2e86ab"/>
     <use xlink:href="#m8287ff024c" x="116.605649" y="22.134494" style="fill: #2e86ab; stroke: #2e86ab"/>
     <use xlink:href="#m8287ff024c" x="118.71634" y="22.134494" style="fill: #2e86ab; stroke: #2e86ab"/>
     <use xlink:href="#m8287ff024c" x="119.839047" y="22.134494" style="fill: #2e86ab; stroke: #2e86ab"/>
     <use xlink:href="#m8287ff024c" x="120.108497" y="22.134494" style="fill: #2e86ab; stroke: #2e86ab"/>
     <use xlink:href="#m8287ff024c" x="120.737213" y="22.134494" style="fill: #2e86ab; stroke: #2e86ab"/>
     <use xlink:href="#m8287ff024c" x="121.815013" y="22.134494" style="fill: #2e86ab; stroke: #2e86ab"/>
     <use xlink:href="#m8287ff024c" x="122.488637" y="22.134494" style="fill: #2e86ab; stroke: #2e86ab"/>
     <use xlink:href="#m8287ff024c" x="124.240061" y="22.134494" style="fill: #2e86ab; stroke: #2e86ab"/>
     <use xlink:href="#m8287ff024c" x="125.497494" y="22.134494" style="fill: #2e86ab; stroke: #2e86ab"/>
     <use xlink:href="#m8287ff024c" x="127.159101" y="22.134494" style="fill: #2e86ab; stroke: #2e86ab"/>
     <use xlink:href="#m8287ff024c" x="127.293826" y="22.134494" style="fill: #2e86ab; stroke: #2e86ab"/>
     <use xlink:href="#m8287ff024c" x="129.808691" y="22.134494" style="fill: #2e86ab; stroke: #2e86ab"/>
     <use xlink:href="#m8287ff024c" x="129.8536" y="22.134494" style="fill: #2e86ab; stroke: #2e86ab"/>
     <use xlink:href="#m8287ff024c" x="130.527224" y="22.134494" style="fill: #2e86ab; stroke: #2e86ab"/>
     <use xlink:href="#m8287ff024c" x="130.661949" y="22.134494" style="fill: #2e86ab; stroke: #2e86ab"/>
     <use xlink:href="#m8287ff024c" x="131.42539" y="22.134494" style="fill: #2e86ab; stroke: #2e86ab"/>
     <use xlink:href="#m8287ff024c" x="131.649932" y="22.134494" style="fill: #2e86ab; stroke: #2e86ab"/>
     <use xlink:href="#m8287ff024c" x="134.34443" y="22.134494" style="fill: #2e86ab; stroke: #2e86ab"/>
     <use xlink:href="#m8287ff024c" x="135.691679" y="22.134494" style="fill: #2e86ab; stroke: #2e86ab"/>
     <use xlink:href="#m8287ff024c" x="137.398195" y="22.134494" style="fill: #2e86ab; stroke: #2e86ab"/>
     <use xlink:href="#m8287ff024c" x="142.607559" y="22.134494" style="fill: #2e86ab; stroke: #2e86ab"/>
     <use xlink:href="#m8287ff024c" x="143.460816" y="22.134494" style="fill: #2e86ab; stroke: #2e86ab"/>
     <use xlink:href="#m8287ff024c" x="144.269166" y="22.134494" style="fill: #2e86ab; stroke: #2e86ab"/>
     <use xlink:href="#m8287ff024c" x="145.257149" y="22.134494" style="fill: #2e86ab; stroke: #2e86ab"/>
     <use xlink:href="#m8287ff024c" x="146.514581" y="22.134494" style="fill: #2e86ab; stroke: #2e86ab"/>
     <use xlink:href="#m8287ff024c" x="148.445638" y="22.134494" style="fill: #2e86ab; stroke: #2e86ab"/>
     <use xlink:href="#m8287ff024c" x="157.517116" y="22.134494" style="fill: #2e86ab; stroke: #2e86ab"/>
     <use xlink:href="#m8287ff024c" x="158.909274" y="22.134494" style="fill: #2e86ab; stroke: #2e86ab"/>
     <use xlink:href="#m8287ff024c" x="161.019964" y="22.134494" style="fill: #2e86ab; stroke: #2e86ab"/>
     <use xlink:href="#m8287ff024c" x="164.926987" y="22.134494" style="fill: #2e86ab; stroke: #2e86ab"/>
     <use xlink:href="#m8287ff024c" x="168.429835" y="22.134494" style="fill: #2e86ab; stroke: #2e86ab"/>
     <use xlink:href="#m8287ff024c" x="169.238184" y="22.134494" style="fill: #2e86ab; stroke: #2e86ab"/>
     <use xlink:href="#m8287ff024c" x="172.741032" y="22.134494" style="fill: #2e86ab; stroke: #2e86ab"/>
     <use xlink:href="#m8287ff024c" x="174.851722" y="22.134494" style="fill: #2e86ab; stroke: #2e86ab"/>
     <use xlink:href="#m8287ff024c" x="190.704354" y="37.757045" style="fill: #2e86ab; stroke: #2e86ab"/>
     <use xlink:href="#m8287ff024c" x="193.21922" y="37.757045" style="fill: #2e86ab; stroke: #2e86ab"/>
     <use xlink:href="#m8287ff024c" x="193.758119" y="37.757045" style="fill: #2e86ab; stroke: #2e86ab"/>
     <use xlink:href="#m8287ff024c" x="211.047817" y="37.757045" style="fill: #2e86ab; stroke: #2e86ab"/>
     <use xlink:href="#m8287ff024c" x="211.856167" y="37.757045" style="fill: #2e86ab; stroke: #2e86ab"/>
     <use xlink:href="#m8287ff024c" x="218.412779" y="37.757045" style="fill: #2e86ab; stroke: #2e86ab"/>
     <use xlink:href="#m8287ff024c" x="262.692369" y="37.757045" style="fill: #2e86ab; stroke: #2e86ab"/>
     <use xlink:href="#m8287ff024c" x="266.015584" y="37.757045" style="fill: #2e86ab; stroke: #2e86ab"/>
     <use xlink:href="#m8287ff024c" x="266.419759" y="37.757045" style="fill: #2e86ab; stroke: #2e86ab"/>
    </g>
   </g>
   <g id="line2d_26">
    <path d="M 36.758681 15.350476 
L 51.264064 15.350476 
L 51.264064 16.226871 
L 56.92251 16.226871 
L 56.92251 17.209497 
L 91.861173 17.209497 
L 91.861173 19.614728 
L 96.666361 19.614728 
L 96.666361 22.134494 
L 182.575951 22.134494 
L 182.575951 37.757045 
L 266.419759 37.757045 
L 266.419759 37.757045 
" clip-path="url(#pec8999e7aa)" style="fill: none; stroke: #2e86ab; stroke-width: 2; stroke-linecap: round"/>
   </g>
   <g id="line2d_27">
    <defs>
     <path id="ma3c84ff960" d="M -3 3 
L 3 -3 
M -3 -3 
L 3 3 
" style="stroke: #e63946"/>
    </defs>
    <g clip-path="url(#pec8999e7aa)">
     <use xlink:href="#ma3c84ff960" x="39.632812" y="16.933093" style="fill: #e63946; stroke: #e63946"/>
     <use xlink:href="#ma3c84ff960" x="41.698595" y="18.523506" style="fill: #e63946; stroke: #e63946"/>
     <use xlink:href="#ma3c84ff960" x="42.282403" y="20.921053" style="fill: #e63946; stroke: #e63946"/>
     <use xlink:href="#ma3c84ff960" x="42.506944" y="21.724313" style="fill: #e63946; stroke: #e63946"/>
     <use xlink:href="#ma3c84ff960" x="43.629652" y="26.568716" style="fill: #e63946; stroke: #e63946"/>
     <use xlink:href="#ma3c84ff960" x="43.899102" y="28.192152" style="fill: #e63946; stroke: #e63946"/>
     <use xlink:href="#ma3c84ff960" x="44.572726" y="30.640541" style="fill: #e63946; stroke: #e63946"/>
     <use xlink:href="#ma3c84ff960" x="48.030666" y="42.950496" style="fill: #e63946; stroke: #e63946"/>
     <use xlink:href="#ma3c84ff960" x="48.120482" y="42.950496" style="fill: #e63946; stroke: #e63946"/>
     <use xlink:href="#ma3c84ff960" x="49.692273" y="51.257827" style="fill: #e63946; stroke: #e63946"/>
     <use xlink:href="#ma3c84ff960" x="50.904797" y="57.111217" style="fill: #e63946; stroke: #e63946"/>
     <use xlink:href="#ma3c84ff960" x="52.027505" y="65.531271" style="fill: #e63946; stroke: #e63946"/>
     <use xlink:href="#ma3c84ff960" x="55.979436" y="79.952988" style="fill: #e63946; stroke: #e63946"/>
     <use xlink:href="#ma3c84ff960" x="56.024344" y="79.952988" style="fill: #e63946; stroke: #e63946"/>
     <use xlink:href="#ma3c84ff960" x="56.159069" y="79.952988" style="fill: #e63946; stroke: #e63946"/>
     <use xlink:href="#ma3c84ff960" x="56.518336" y="81.694705" style="fill: #e63946; stroke: #e63946"/>
     <use xlink:href="#ma3c84ff960" x="56.563244" y="81.694705" style="fill: #e63946; stroke: #e63946"/>
     <use xlink:href="#ma3c84ff960" x="56.787785" y="81.694705" style="fill: #e63946; stroke: #e63946"/>
     <use xlink:href="#ma3c84ff960" x="58.718843" y="93.330343" style="fill: #e63946; stroke: #e63946"/>
     <use xlink:href="#ma3c84ff960" x="62.22169" y="104.185193" style="fill: #e63946; stroke: #e63946"/>
     <use xlink:href="#ma3c84ff960" x="63.074948" y="107.848146" style="fill: #e63946; stroke: #e63946"/>
     <use xlink:href="#ma3c84ff960" x="63.703665" y="110.631509" style="fill: #e63946; stroke: #e63946"/>
     <use xlink:href="#ma3c84ff960" x="66.038897" y="120.978917" style="fill: #e63946; stroke: #e63946"/>
     <use xlink:href="#ma3c84ff960" x="71.068627" y="136.280539" style="fill: #e63946; stroke: #e63946"/>
     <use xlink:href="#ma3c84ff960" x="72.460784" y="139.216316" style="fill: #e63946; stroke: #e63946"/>
     <use xlink:href="#ma3c84ff960" x="76.098357" y="143.231052" style="fill: #e63946; stroke: #e63946"/>
     <use xlink:href="#ma3c84ff960" x="77.445606" y="146.330665" style="fill: #e63946; stroke: #e63946"/>
     <use xlink:href="#ma3c84ff960" x="87.774517" y="158.074755" style="fill: #e63946; stroke: #e63946"/>
     <use xlink:href="#ma3c84ff960" x="94.376038" y="159.201713" style="fill: #e63946; stroke: #e63946"/>
     <use xlink:href="#ma3c84ff960" x="127.069285" y="169.978249" style="fill: #e63946; stroke: #e63946"/>
     <use xlink:href="#ma3c84ff960" x="130.347591" y="172.772166" style="fill: #e63946; stroke: #e63946"/>
    </g>
   </g>
   <g id="line2d_28">
    <path d="M 39.632812 16.933093 
L 40.48607 16.933093 
L 40.530979 18.523506 
L 42.147678 18.523506 
L 42.192586 20.921053 
L 42.417127 20.921053 
L 42.417127 21.724313 
L 42.506944 21.724313 
L 42.551852 21.724313 
L 42.551852 22.531714 
L 42.686577 22.531714 
L 42.731486 24.146514 
L 43.045844 24.146514 
L 43.045844 24.953915 
L 43.270385 24.953915 
L 43.270385 25.761315 
L 43.584743 25.761315 
L 43.67456 27.380434 
L 43.809285 27.380434 
L 43.899102 28.192152 
L 43.899102 28.192152 
L 44.033827 28.192152 
L 44.078735 29.824411 
L 44.393093 29.824411 
L 44.393093 30.640541 
L 44.931993 30.640541 
L 44.931993 31.461205 
L 45.111626 31.461205 
L 45.111626 32.281868 
L 45.381076 32.281868 
L 45.381076 33.102532 
L 45.515801 33.102532 
L 45.515801 33.923196 
L 46.009792 33.923196 
L 46.099609 35.564523 
L 46.189425 35.564523 
L 46.189425 36.385186 
L 46.32415 36.385186 
L 46.32415 37.20585 
L 46.548692 37.20585 
L 46.548692 38.847177 
L 46.952866 38.847177 
L 46.952866 39.667841 
L 47.177408 39.667841 
L 47.177408 41.309168 
L 47.401949 41.309168 
L 47.401949 42.129832 
L 47.806124 42.129832 
L 47.806124 42.950496 
L 48.210299 42.950496 
L 48.210299 43.781229 
L 48.614474 43.781229 
L 48.614474 45.442695 
L 48.839015 45.442695 
L 48.883924 47.104162 
L 49.108465 47.104162 
L 49.198282 48.765628 
L 49.333007 48.765628 
L 49.333007 49.596361 
L 49.51264 49.596361 
L 49.51264 50.427094 
L 49.647365 50.427094 
L 49.647365 51.257827 
L 49.692273 51.257827 
L 50.05154 51.257827 
L 50.05154 52.930224 
L 50.276081 52.930224 
L 50.276081 53.766423 
L 50.680256 53.766423 
L 50.770072 55.43882 
L 50.859889 55.43882 
L 50.904797 57.111217 
L 50.994614 57.111217 
L 51.039522 59.637233 
L 51.219155 59.637233 
L 51.219155 60.479239 
L 51.35388 60.479239 
L 51.398789 62.163249 
L 51.847872 62.163249 
L 51.937688 65.531271 
L 52.117322 65.531271 
L 52.117322 66.379608 
L 52.835855 66.379608 
L 52.835855 68.07628 
L 53.240029 68.07628 
L 53.240029 68.924616 
L 53.599296 68.924616 
L 53.599296 69.772953 
L 54.048379 69.772953 
L 54.048379 70.621289 
L 54.183104 70.621289 
L 54.183104 72.317962 
L 54.362737 72.317962 
L 54.407645 74.014634 
L 54.54237 74.014634 
L 54.54237 74.862971 
L 54.901637 74.862971 
L 54.901637 75.711307 
L 55.08127 75.711307 
L 55.08127 77.40798 
L 55.620169 77.40798 
L 55.620169 78.256316 
L 55.889619 78.256316 
L 55.979436 79.952988 
L 56.248886 79.952988 
L 56.248886 81.694705 
L 56.92251 81.694705 
L 56.967419 83.484804 
L 57.057235 83.484804 
L 57.057235 84.379853 
L 57.19196 84.379853 
L 57.281777 86.169951 
L 57.596135 86.169951 
L 57.596135 87.065 
L 57.865585 87.065 
L 57.955401 88.855098 
L 58.179943 88.855098 
L 58.26976 92.435294 
L 58.404484 92.435294 
L 58.404484 93.330343 
L 59.123017 93.330343 
L 59.123017 94.234914 
L 59.257742 94.234914 
L 59.257742 95.139484 
L 59.976275 95.139484 
L 60.066092 97.853197 
L 60.290633 97.853197 
L 60.290633 98.757768 
L 60.604991 98.757768 
L 60.604991 100.566909 
L 60.91935 100.566909 
L 60.91935 101.47148 
L 61.458249 101.47148 
L 61.458249 102.376051 
L 61.727699 102.376051 
L 61.727699 103.280622 
L 61.862424 103.280622 
L 61.862424 104.185193 
L 62.446232 104.185193 
L 62.536049 106.932408 
L 63.074948 106.932408 
L 63.074948 107.848146 
L 63.434215 107.848146 
L 63.434215 108.775934 
L 63.613848 108.775934 
L 63.703665 110.631509 
L 63.83839 110.631509 
L 63.83839 111.572182 
L 64.062931 111.572182 
L 64.062931 113.453529 
L 64.197656 113.453529 
L 64.197656 115.334876 
L 64.332381 115.334876 
L 64.332381 116.27555 
L 65.006005 116.27555 
L 65.006005 118.156897 
L 65.455089 118.156897 
L 65.544905 120.038244 
L 65.634722 120.038244 
L 65.634722 120.978917 
L 66.128713 120.978917 
L 66.128713 121.935269 
L 66.263438 121.935269 
L 66.263438 122.89162 
L 66.532888 122.89162 
L 66.532888 123.847971 
L 66.667613 123.847971 
L 66.667613 124.804323 
L 67.116696 124.804323 
L 67.116696 125.760674 
L 67.251421 125.760674 
L 67.341237 127.673377 
L 67.610687 127.673377 
L 67.610687 128.629728 
L 67.925045 128.629728 
L 67.925045 129.58608 
L 68.86812 129.58608 
L 68.86812 130.542431 
L 69.496836 130.542431 
L 69.496836 131.498782 
L 69.901011 131.498782 
L 69.901011 132.455134 
L 70.170461 132.455134 
L 70.170461 133.411485 
L 70.395002 133.411485 
L 70.395002 134.367836 
L 70.619544 134.367836 
L 70.619544 135.324188 
L 70.888994 135.324188 
L 70.888994 136.280539 
L 71.338077 136.280539 
L 71.338077 137.259131 
L 71.607526 137.259131 
L 71.607526 138.237723 
L 71.921885 138.237723 
L 71.921885 139.216316 
L 72.595509 139.216316 
L 72.595509 140.22 
L 72.820051 140.22 
L 72.820051 141.223684 
L 74.571475 141.223684 
L 74.571475 142.227368 
L 75.334916 142.227368 
L 75.334916 143.231052 
L 76.412715 143.231052 
L 76.412715 144.264257 
L 76.592348 144.264257 
L 76.592348 145.297461 
L 77.131248 145.297461 
L 77.131248 146.330665 
L 78.209047 146.330665 
L 78.209047 147.39831 
L 78.433589 147.39831 
L 78.433589 148.465954 
L 80.229921 148.465954 
L 80.229921 149.533599 
L 81.891529 149.533599 
L 81.891529 150.601243 
L 82.250795 150.601243 
L 82.250795 151.668888 
L 83.373503 151.668888 
L 83.373503 152.736532 
L 84.720752 152.736532 
L 84.76566 154.871821 
L 84.900385 154.871821 
L 84.900385 155.939466 
L 86.157818 155.939466 
L 86.157818 157.00711 
L 87.41525 157.00711 
L 87.41525 158.074755 
L 87.999058 158.074755 
L 87.999058 159.201713 
L 100.169209 159.201713 
L 100.169209 160.399106 
L 101.022467 160.399106 
L 101.022467 161.596499 
L 103.402607 161.596499 
L 103.402607 162.793892 
L 103.537332 162.793892 
L 103.537332 163.991285 
L 109.510137 163.991285 
L 109.510137 165.188678 
L 114.629684 165.188678 
L 114.629684 166.386071 
L 116.785282 166.386071 
L 116.785282 167.583463 
L 120.647397 167.583463 
L 120.647397 168.780856 
L 123.566437 168.780856 
L 123.566437 169.978249 
L 128.147084 169.978249 
L 128.147084 171.375208 
L 130.347591 171.375208 
L 130.347591 172.772166 
L 158.235649 172.772166 
L 158.235649 174.634777 
L 166.633502 174.634777 
L 166.633502 176.497389 
L 172.291949 176.497389 
L 172.291949 178.36 
L 172.291949 178.36 
" clip-path="url(#pec8999e7aa)" style="fill: none; stroke: #e63946; stroke-width: 2; stroke-linecap: round"/>
   </g>
   <g id="patch_3">
    <path d="M 39.632812 178.36 
L 39.632812 7.2 
" style="fill: none; stroke: #262626; stroke-width: 0.8; stroke-linejoin: miter; stroke-linecap: square"/>
   </g>
   <g id="patch_4">
    <path d="M 277.902813 178.36 
L 277.902813 7.2 
" style="fill: none; stroke: #262626; stroke-width: 0.8; stroke-linejoin: miter; stroke-linecap: square"/>
   </g>
   <g id="patch_5">
    <path d="M 39.632812 178.36 
L 277.902813 178.36 
" style="fill: none; stroke: #262626; stroke-width: 0.8; stroke-linejoin: miter; stroke-linecap: square"/>
   </g>
   <g id="patch_6">
    <path d="M 39.632812 7.2 
L 277.902813 7.2 
" style="fill: none; stroke: #262626; stroke-width: 0.8; stroke-linejoin: miter; stroke-linecap: square"/>
   </g>
   <g id="text_15">
    <g id="patch_7">
     <path d="M 229.696163 25.9005 
L 273.137413 25.9005 
Q 275.537413 25.9005 275.537413 23.5005 
L 275.537413 15.758 
Q 275.537413 13.358 273.137413 13.358 
L 229.696163 13.358 
Q 227.296163 13.358 227.296163 15.758 
L 227.296163 23.5005 
Q 227.296163 25.9005 229.696163 25.9005 
z
" style="fill: #ffffff; opacity: 0.8; stroke: #ffffff; stroke-linejoin: miter"/>
    </g>
    <!-- P &lt; 0.001 -->
    <g style="fill: #262626" transform="translate(229.696163 21.83675) scale(0.08 -0.08)">
     <defs>
      <path id="DejaVuSans-Bold-50" d="M 588 4666 
L 2584 4666 
Q 3475 4666 3951 4270 
Q 4428 3875 4428 3144 
Q 4428 2409 3951 2014 
Q 3475 1619 2584 1619 
L 1791 1619 
L 1791 0 
L 588 0 
L 588 4666 
z
M 1791 3794 
L 1791 2491 
L 2456 2491 
Q 2806 2491 2997 2661 
Q 3188 2831 3188 3144 
Q 3188 3456 2997 3625 
Q 2806 3794 2456 3794 
L 1791 3794 
z
" transform="scale(0.015625)"/>
      <path id="DejaVuSans-Bold-20" transform="scale(0.015625)"/>
      <path id="DejaVuSans-Bold-3c" d="M 4684 3041 
L 1672 2003 
L 4684 972 
L 4684 191 
L 678 1638 
L 678 2375 
L 4684 3822 
L 4684 3041 
z
" transform="scale(0.015625)"/>
      <path id="DejaVuSans-Bold-30" d="M 2944 2338 
Q 2944 3213 2780 3570 
Q 2616 3928 2228 3928 
Q 1841 3928 1675 3570 
Q 1509 3213 1509 2338 
Q 1509 1453 1675 1090 
Q 1841 728 2228 728 
Q 2613 728 2778 1090 
Q 2944 1453 2944 2338 
z
M 4147 2328 
Q 4147 1169 3647 539 
Q 3147 -91 2228 -91 
Q 1306 -91 806 539 
Q 306 1169 306 2328 
Q 306 3491 806 4120 
Q 1306 4750 2228 4750 
Q 3147 4750 3647 4120 
Q 4147 3491 4147 2328 
z
" transform="scale(0.015625)"/>
      <path id="DejaVuSans-Bold-2e" d="M 653 1209 
L 1778 1209 
L 1778 0 
L 653 0 
L 653 1209 
z
" transform="scale(0.015625)"/>
      <path id="DejaVuSans-Bold-31" d="M 750 831 
L 1813 831 
L 1813 3847 
L 722 3622 
L 722 4441 
L 1806 4666 
L 2950 4666 
L 2950 831 
L 4013 831 
L 4013 0 
L 750 0 
L 750 831 
z
" transform="scale(0.015625)"/>
     </defs>
     <use xlink:href="#DejaVuSans-Bold-50"/>
     <use xlink:href="#DejaVuSans-Bold-20" transform="translate(73.291016 0)"/>
     <use xlink:href="#DejaVuSans-Bold-3c" transform="translate(108.105469 0)"/>
     <use xlink:href="#DejaVuSans-Bold-20" transform="translate(191.894531 0)"/>
     <use xlink:href="#DejaVuSans-Bold-30" transform="translate(226.708984 0)"/>
     <use xlink:href="#DejaVuSans-Bold-2e" transform="translate(296.289062 0)"/>
     <use xlink:href="#DejaVuSans-Bold-30" transform="translate(334.277344 0)"/>
     <use xlink:href="#DejaVuSans-Bold-30" transform="translate(403.857422 0)"/>
     <use xlink:href="#DejaVuSans-Bold-31" transform="translate(473.4375 0)"/>
    </g>
   </g>
  </g>
 </g>
 <defs>
  <clipPath id="pec8999e7aa">
   <rect x="39.632812" y="7.2" width="238.27" height="171.16"/>
  </clipPath>
 </defs>
</svg>
