<?xml version="1.0" encoding="utf-8" standalone="no"?>
<!DOCTYPE svg PUBLIC "-//W3C//DTD SVG 1.1//EN"
  "http://www.w3.org/Graphics/SVG/1.1/DTD/svg11.dtd">
<svg xmlns:xlink="http://www.w3.org/1999/xlink" width="285.102812pt" height="213.012812pt" viewBox="0 0 285.102812 213.012812" xmlns="http://www.w3.org/2000/svg" version="1.1">
 <metadata>
  <rdf:RDF xmlns:dc="http://purl.org/dc/elements/1.1/" xmlns:cc="http://creativecommons.org/ns#" xmlns:rdf="http://www.w3.org/1999/02/22-rdf-syntax-ns#">
   <cc:Work>
    <dc:type rdf:resource="http://purl.org/dc/dcmitype/StillImage"/>
    <dc:date>2025-07-12T20:17:42.987759</dc:date>
    <dc:format>image/svg+xml</dc:format>
    <dc:creator>
     <cc:Agent>
      <dc:title>Matplotlib v3.10.3, https://matplotlib.org/</dc:title>
     </cc:Agent>
    </dc:creator>
   </cc:Work>
  </rdf:RDF>
 </metadata>
 <defs>
  <style type="text/css">*{stroke-linejoin: round; stroke-linecap: butt}</style>
 </defs>
 <g id="figure_1">
  <g id="patch_1">
   <path d="M 0 213.012812 
L 285.102812 213.012812 
L 285.102812 0 
L 0 0 
L 0 213.012812 
z
" style="fill: none"/>
  </g>
  <g id="axes_1">
   <g id="patch_2">
    <path d="M 39.632812 178.36 
L 277.902813 178.36 
L 277.902813 7.2 
L 39.632812 7.2 
L 39.632812 178.36 
z
" style="fill: none"/>
   </g>
   <g id="matplotlib.axis_1">
    <g id="xtick_1">
     <g id="line2d_1">
      <path d="M 39.632812 178.36 
L 39.632812 7.2 
" clip-path="url(#pcb06246496)" style="fill: none; stroke: #cccccc; stroke-opacity: 0.3; stroke-width: 0.5; stroke-linecap: round"/>
     </g>
     <g id="line2d_2">
      <defs>
       <path id="m19b251b9e6" d="M 0 0 
L 0 3.5 
" style="stroke: #262626; stroke-width: 0.8"/>
      </defs>
      <g>
       <use xlink:href="#m19b251b9e6" x="39.632812" y="178.36" style="fill: #262626; stroke: #262626; stroke-width: 0.8"/>
      </g>
     </g>
     <g id="text_1">
      <!-- 0 -->
      <g style="fill: #262626" transform="translate(37.087812 191.43875) scale(0.08 -0.08)">
       <defs>
        <path id="DejaVuSans-30" d="M 2034 4250 
Q 1547 4250 1301 3770 
Q 1056 3291 1056 2328 
Q 1056 1369 1301 889 
Q 1547 409 2034 409 
Q 2525 409 2770 889 
Q 3016 1369 3016 2328 
Q 3016 3291 2770 3770 
Q 2525 4250 2034 4250 
z
M 2034 4750 
Q 2819 4750 3233 4129 
Q 3647 3509 3647 2328 
Q 3647 1150 3233 529 
Q 2819 -91 2034 -91 
Q 1250 -91 836 529 
Q 422 1150 422 2328 
Q 422 3509 836 4129 
Q 1250 4750 2034 4750 
z
" transform="scale(0.015625)"/>
       </defs>
       <use xlink:href="#DejaVuSans-30"/>
      </g>
     </g>
    </g>
    <g id="xtick_2">
     <g id="line2d_3">
      <path d="M 84.541119 178.36 
L 84.541119 7.2 
" clip-path="url(#pcb06246496)" style="fill: none; stroke: #cccccc; stroke-opacity: 0.3; stroke-width: 0.5; stroke-linecap: round"/>
     </g>
     <g id="line2d_4">
      <g>
       <use xlink:href="#m19b251b9e6" x="84.541119" y="178.36" style="fill: #262626; stroke: #262626; stroke-width: 0.8"/>
      </g>
     </g>
     <g id="text_2">
      <!-- 1000 -->
      <g style="fill: #262626" transform="translate(74.361119 191.43875) scale(0.08 -0.08)">
       <defs>
        <path id="DejaVuSans-31" d="M 794 531 
L 1825 531 
L 1825 4091 
L 703 3866 
L 703 4441 
L 1819 4666 
L 2450 4666 
L 2450 531 
L 3481 531 
L 3481 0 
L 794 0 
L 794 531 
z
" transform="scale(0.015625)"/>
       </defs>
       <use xlink:href="#DejaVuSans-31"/>
       <use xlink:href="#DejaVuSans-30" transform="translate(63.623047 0)"/>
       <use xlink:href="#DejaVuSans-30" transform="translate(127.246094 0)"/>
       <use xlink:href="#DejaVuSans-30" transform="translate(190.869141 0)"/>
      </g>
     </g>
    </g>
    <g id="xtick_3">
     <g id="line2d_5">
      <path d="M 129.449425 178.36 
L 129.449425 7.2 
" clip-path="url(#pcb06246496)" style="fill: none; stroke: #cccccc; stroke-opacity: 0.3; stroke-width: 0.5; stroke-linecap: round"/>
     </g>
     <g id="line2d_6">
      <g>
       <use xlink:href="#m19b251b9e6" x="129.449425" y="178.36" style="fill: #262626; stroke: #262626; stroke-width: 0.8"/>
      </g>
     </g>
     <g id="text_3">
      <!-- 2000 -->
      <g style="fill: #262626" transform="translate(119.269425 191.43875) scale(0.08 -0.08)">
       <defs>
        <path id="DejaVuSans-32" d="M 1228 531 
L 3431 531 
L 3431 0 
L 469 0 
L 469 531 
Q 828 903 1448 1529 
Q 2069 2156 2228 2338 
Q 2531 2678 2651 2914 
Q 2772 3150 2772 3378 
Q 2772 3750 2511 3984 
Q 2250 4219 1831 4219 
Q 1534 4219 1204 4116 
Q 875 4013 500 3803 
L 500 4441 
Q 881 4594 1212 4672 
Q 1544 4750 1819 4750 
Q 2544 4750 2975 4387 
Q 3406 4025 3406 3419 
Q 3406 3131 3298 2873 
Q 3191 2616 2906 2266 
Q 2828 2175 2409 1742 
Q 1991 1309 1228 531 
z
" transform="scale(0.015625)"/>
       </defs>
       <use xlink:href="#DejaVuSans-32"/>
       <use xlink:href="#DejaVuSans-30" transform="translate(63.623047 0)"/>
       <use xlink:href="#DejaVuSans-30" transform="translate(127.246094 0)"/>
       <use xlink:href="#DejaVuSans-30" transform="translate(190.869141 0)"/>
      </g>
     </g>
    </g>
    <g id="xtick_4">
     <g id="line2d_7">
      <path d="M 174.357731 178.36 
L 174.357731 7.2 
" clip-path="url(#pcb06246496)" style="fill: none; stroke: #cccccc; stroke-opacity: 0.3; stroke-width: 0.5; stroke-linecap: round"/>
     </g>
     <g id="line2d_8">
      <g>
       <use xlink:href="#m19b251b9e6" x="174.357731" y="178.36" style="fill: #262626; stroke: #262626; stroke-width: 0.8"/>
      </g>
     </g>
     <g id="text_4">
      <!-- 3000 -->
      <g style="fill: #262626" transform="translate(164.177731 191.43875) scale(0.08 -0.08)">
       <defs>
        <path id="DejaVuSans-33" d="M 2597 2516 
Q 3050 2419 3304 2112 
Q 3559 1806 3559 1356 
Q 3559 666 3084 287 
Q 2609 -91 1734 -91 
Q 1441 -91 1130 -33 
Q 819 25 488 141 
L 488 750 
Q 750 597 1062 519 
Q 1375 441 1716 441 
Q 2309 441 2620 675 
Q 2931 909 2931 1356 
Q 2931 1769 2642 2001 
Q 2353 2234 1838 2234 
L 1294 2234 
L 1294 2753 
L 1863 2753 
Q 2328 2753 2575 2939 
Q 2822 3125 2822 3475 
Q 2822 3834 2567 4026 
Q 2313 4219 1838 4219 
Q 1578 4219 1281 4162 
Q 984 4106 628 3988 
L 628 4550 
Q 988 4650 1302 4700 
Q 1616 4750 1894 4750 
Q 2613 4750 3031 4423 
Q 3450 4097 3450 3541 
Q 3450 3153 3228 2886 
Q 3006 2619 2597 2516 
z
" transform="scale(0.015625)"/>
       </defs>
       <use xlink:href="#DejaVuSans-33"/>
       <use xlink:href="#DejaVuSans-30" transform="translate(63.623047 0)"/>
       <use xlink:href="#DejaVuSans-30" transform="translate(127.246094 0)"/>
       <use xlink:href="#DejaVuSans-30" transform="translate(190.869141 0)"/>
      </g>
     </g>
    </g>
    <g id="xtick_5">
     <g id="line2d_9">
      <path d="M 219.266037 178.36 
L 219.266037 7.2 
" clip-path="url(#pcb06246496)" style="fill: none; stroke: #cccccc; stroke-opacity: 0.3; stroke-width: 0.5; stroke-linecap: round"/>
     </g>
     <g id="line2d_10">
      <g>
       <use xlink:href="#m19b251b9e6" x="219.266037" y="178.36" style="fill: #262626; stroke: #262626; stroke-width: 0.8"/>
      </g>
     </g>
     <g id="text_5">
      <!-- 4000 -->
      <g style="fill: #262626" transform="translate(209.086037 191.43875) scale(0.08 -0.08)">
       <defs>
        <path id="DejaVuSans-34" d="M 2419 4116 
L 825 1625 
L 2419 1625 
L 2419 4116 
z
M 2253 4666 
L 3047 4666 
L 3047 1625 
L 3713 1625 
L 3713 1100 
L 3047 1100 
L 3047 0 
L 2419 0 
L 2419 1100 
L 313 1100 
L 313 1709 
L 2253 4666 
z
" transform="scale(0.015625)"/>
       </defs>
       <use xlink:href="#DejaVuSans-34"/>
       <use xlink:href="#DejaVuSans-30" transform="translate(63.623047 0)"/>
       <use xlink:href="#DejaVuSans-30" transform="translate(127.246094 0)"/>
       <use xlink:href="#DejaVuSans-30" transform="translate(190.869141 0)"/>
      </g>
     </g>
    </g>
    <g id="xtick_6">
     <g id="line2d_11">
      <path d="M 264.174343 178.36 
L 264.174343 7.2 
" clip-path="url(#pcb06246496)" style="fill: none; stroke: #cccccc; stroke-opacity: 0.3; stroke-width: 0.5; stroke-linecap: round"/>
     </g>
     <g id="line2d_12">
      <g>
       <use xlink:href="#m19b251b9e6" x="264.174343" y="178.36" style="fill: #262626; stroke: #262626; stroke-width: 0.8"/>
      </g>
     </g>
     <g id="text_6">
      <!-- 5000 -->
      <g style="fill: #262626" transform="translate(253.994343 191.43875) scale(0.08 -0.08)">
       <defs>
        <path id="DejaVuSans-35" d="M 691 4666 
L 3169 4666 
L 3169 4134 
L 1269 4134 
L 1269 2991 
Q 1406 3038 1543 3061 
Q 1681 3084 1819 3084 
Q 2600 3084 3056 2656 
Q 3513 2228 3513 1497 
Q 3513 744 3044 326 
Q 2575 -91 1722 -91 
Q 1428 -91 1123 -41 
Q 819 9 494 109 
L 494 744 
Q 775 591 1075 516 
Q 1375 441 1709 441 
Q 2250 441 2565 725 
Q 2881 1009 2881 1497 
Q 2881 1984 2565 2268 
Q 2250 2553 1709 2553 
Q 1456 2553 1204 2497 
Q 953 2441 691 2322 
L 691 4666 
z
" transform="scale(0.015625)"/>
       </defs>
       <use xlink:href="#DejaVuSans-35"/>
       <use xlink:href="#DejaVuSans-30" transform="translate(63.623047 0)"/>
       <use xlink:href="#DejaVuSans-30" transform="translate(127.246094 0)"/>
       <use xlink:href="#DejaVuSans-30" transform="translate(190.869141 0)"/>
      </g>
     </g>
    </g>
    <g id="text_7">
     <!-- Time (days) -->
     <g style="fill: #262626" transform="translate(132.193906 203.941094) scale(0.09 -0.09)">
      <defs>
       <path id="DejaVuSans-54" d="M -19 4666 
L 3928 4666 
L 3928 4134 
L 2272 4134 
L 2272 0 
L 1638 0 
L 1638 4134 
L -19 4134 
L -19 4666 
z
" transform="scale(0.015625)"/>
       <path id="DejaVuSans-69" d="M 603 3500 
L 1178 3500 
L 1178 0 
L 603 0 
L 603 3500 
z
M 603 4863 
L 1178 4863 
L 1178 4134 
L 603 4134 
L 603 4863 
z
" transform="scale(0.015625)"/>
       <path id="DejaVuSans-6d" d="M 3328 2828 
Q 3544 3216 3844 3400 
Q 4144 3584 4550 3584 
Q 5097 3584 5394 3201 
Q 5691 2819 5691 2113 
L 5691 0 
L 5113 0 
L 5113 2094 
Q 5113 2597 4934 2840 
Q 4756 3084 4391 3084 
Q 3944 3084 3684 2787 
Q 3425 2491 3425 1978 
L 3425 0 
L 2847 0 
L 2847 2094 
Q 2847 2600 2669 2842 
Q 2491 3084 2119 3084 
Q 1678 3084 1418 2786 
Q 1159 2488 1159 1978 
L 1159 0 
L 581 0 
L 581 3500 
L 1159 3500 
L 1159 2956 
Q 1356 3278 1631 3431 
Q 1906 3584 2284 3584 
Q 2666 3584 2933 3390 
Q 3200 3197 3328 2828 
z
" transform="scale(0.015625)"/>
       <path id="DejaVuSans-65" d="M 3597 1894 
L 3597 1613 
L 953 1613 
Q 991 1019 1311 708 
Q 1631 397 2203 397 
Q 2534 397 2845 478 
Q 3156 559 3463 722 
L 3463 178 
Q 3153 47 2828 -22 
Q 2503 -91 2169 -91 
Q 1331 -91 842 396 
Q 353 884 353 1716 
Q 353 2575 817 3079 
Q 1281 3584 2069 3584 
Q 2775 3584 3186 3129 
Q 3597 2675 3597 1894 
z
M 3022 2063 
Q 3016 2534 2758 2815 
Q 2500 3097 2075 3097 
Q 1594 3097 1305 2825 
Q 1016 2553 972 2059 
L 3022 2063 
z
" transform="scale(0.015625)"/>
       <path id="DejaVuSans-20" transform="scale(0.015625)"/>
       <path id="DejaVuSans-28" d="M 1984 4856 
Q 1566 4138 1362 3434 
Q 1159 2731 1159 2009 
Q 1159 1288 1364 580 
Q 1569 -128 1984 -844 
L 1484 -844 
Q 1016 -109 783 600 
Q 550 1309 550 2009 
Q 550 2706 781 3412 
Q 1013 4119 1484 4856 
L 1984 4856 
z
" transform="scale(0.015625)"/>
       <path id="DejaVuSans-64" d="M 2906 2969 
L 2906 4863 
L 3481 4863 
L 3481 0 
L 2906 0 
L 2906 525 
Q 2725 213 2448 61 
Q 2172 -91 1784 -91 
Q 1150 -91 751 415 
Q 353 922 353 1747 
Q 353 2572 751 3078 
Q 1150 3584 1784 3584 
Q 2172 3584 2448 3432 
Q 2725 3281 2906 2969 
z
M 947 1747 
Q 947 1113 1208 752 
Q 1469 391 1925 391 
Q 2381 391 2643 752 
Q 2906 1113 2906 1747 
Q 2906 2381 2643 2742 
Q 2381 3103 1925 3103 
Q 1469 3103 1208 2742 
Q 947 2381 947 1747 
z
" transform="scale(0.015625)"/>
       <path id="DejaVuSans-61" d="M 2194 1759 
Q 1497 1759 1228 1600 
Q 959 1441 959 1056 
Q 959 750 1161 570 
Q 1363 391 1709 391 
Q 2188 391 2477 730 
Q 2766 1069 2766 1631 
L 2766 1759 
L 2194 1759 
z
M 3341 1997 
L 3341 0 
L 2766 0 
L 2766 531 
Q 2569 213 2275 61 
Q 1981 -91 1556 -91 
Q 1019 -91 701 211 
Q 384 513 384 1019 
Q 384 1609 779 1909 
Q 1175 2209 1959 2209 
L 2766 2209 
L 2766 2266 
Q 2766 2663 2505 2880 
Q 2244 3097 1772 3097 
Q 1472 3097 1187 3025 
Q 903 2953 641 2809 
L 641 3341 
Q 956 3463 1253 3523 
Q 1550 3584 1831 3584 
Q 2591 3584 2966 3190 
Q 3341 2797 3341 1997 
z
" transform="scale(0.015625)"/>
       <path id="DejaVuSans-79" d="M 2059 -325 
Q 1816 -950 1584 -1140 
Q 1353 -1331 966 -1331 
L 506 -1331 
L 506 -850 
L 844 -850 
Q 1081 -850 1212 -737 
Q 1344 -625 1503 -206 
L 1606 56 
L 191 3500 
L 800 3500 
L 1894 763 
L 2988 3500 
L 3597 3500 
L 2059 -325 
z
" transform="scale(0.015625)"/>
       <path id="DejaVuSans-73" d="M 2834 3397 
L 2834 2853 
Q 2591 2978 2328 3040 
Q 2066 3103 1784 3103 
Q 1356 3103 1142 2972 
Q 928 2841 928 2578 
Q 928 2378 1081 2264 
Q 1234 2150 1697 2047 
L 1894 2003 
Q 2506 1872 2764 1633 
Q 3022 1394 3022 966 
Q 3022 478 2636 193 
Q 2250 -91 1575 -91 
Q 1294 -91 989 -36 
Q 684 19 347 128 
L 347 722 
Q 666 556 975 473 
Q 1284 391 1588 391 
Q 1994 391 2212 530 
Q 2431 669 2431 922 
Q 2431 1156 2273 1281 
Q 2116 1406 1581 1522 
L 1381 1569 
Q 847 1681 609 1914 
Q 372 2147 372 2553 
Q 372 3047 722 3315 
Q 1072 3584 1716 3584 
Q 2034 3584 2315 3537 
Q 2597 3491 2834 3397 
z
" transform="scale(0.015625)"/>
       <path id="DejaVuSans-29" d="M 513 4856 
L 1013 4856 
Q 1481 4119 1714 3412 
Q 1947 2706 1947 2009 
Q 1947 1309 1714 600 
Q 1481 -109 1013 -844 
L 513 -844 
Q 928 -128 1133 580 
Q 1338 1288 1338 2009 
Q 1338 2731 1133 3434 
Q 928 4138 513 4856 
z
" transform="scale(0.015625)"/>
      </defs>
      <use xlink:href="#DejaVuSans-54"/>
      <use xlink:href="#DejaVuSans-69" transform="translate(57.958984 0)"/>
      <use xlink:href="#DejaVuSans-6d" transform="translate(85.742188 0)"/>
      <use xlink:href="#DejaVuSans-65" transform="translate(183.154297 0)"/>
      <use xlink:href="#DejaVuSans-20" transform="translate(244.677734 0)"/>
      <use xlink:href="#DejaVuSans-28" transform="translate(276.464844 0)"/>
      <use xlink:href="#DejaVuSans-64" transform="translate(315.478516 0)"/>
      <use xlink:href="#DejaVuSans-61" transform="translate(378.955078 0)"/>
      <use xlink:href="#DejaVuSans-79" transform="translate(440.234375 0)"/>
      <use xlink:href="#DejaVuSans-73" transform="translate(499.414062 0)"/>
      <use xlink:href="#DejaVuSans-29" transform="translate(551.513672 0)"/>
     </g>
    </g>
   </g>
   <g id="matplotlib.axis_2">
    <g id="ytick_1">
     <g id="line2d_13">
      <path d="M 39.632812 178.36 
L 277.902813 178.36 
" clip-path="url(#pcb06246496)" style="fill: none; stroke: #cccccc; stroke-opacity: 0.3; stroke-width: 0.5; stroke-linecap: round"/>
     </g>
     <g id="line2d_14">
      <defs>
       <path id="m270d5acbde" d="M 0 0 
L -3.5 0 
" style="stroke: #262626; stroke-width: 0.8"/>
      </defs>
      <g>
       <use xlink:href="#m270d5acbde" x="39.632812" y="178.36" style="fill: #262626; stroke: #262626; stroke-width: 0.8"/>
      </g>
     </g>
     <g id="text_8">
      <!-- 0.0 -->
      <g style="fill: #262626" transform="translate(19.910312 181.399375) scale(0.08 -0.08)">
       <defs>
        <path id="DejaVuSans-2e" d="M 684 794 
L 1344 794 
L 1344 0 
L 684 0 
L 684 794 
z
" transform="scale(0.015625)"/>
       </defs>
       <use xlink:href="#DejaVuSans-30"/>
       <use xlink:href="#DejaVuSans-2e" transform="translate(63.623047 0)"/>
       <use xlink:href="#DejaVuSans-30" transform="translate(95.410156 0)"/>
      </g>
     </g>
    </g>
    <g id="ytick_2">
     <g id="line2d_15">
      <path d="M 39.632812 145.758095 
L 277.902813 145.758095 
" clip-path="url(#pcb06246496)" style="fill: none; stroke: #cccccc; stroke-opacity: 0.3; stroke-width: 0.5; stroke-linecap: round"/>
     </g>
     <g id="line2d_16">
      <g>
       <use xlink:href="#m270d5acbde" x="39.632812" y="145.758095" style="fill: #262626; stroke: #262626; stroke-width: 0.8"/>
      </g>
     </g>
     <g id="text_9">
      <!-- 0.2 -->
      <g style="fill: #262626" transform="translate(19.910312 148.79747) scale(0.08 -0.08)">
       <use xlink:href="#DejaVuSans-30"/>
       <use xlink:href="#DejaVuSans-2e" transform="translate(63.623047 0)"/>
       <use xlink:href="#DejaVuSans-32" transform="translate(95.410156 0)"/>
      </g>
     </g>
    </g>
    <g id="ytick_3">
     <g id="line2d_17">
      <path d="M 39.632812 113.15619 
L 277.902813 113.15619 
" clip-path="url(#pcb06246496)" style="fill: none; stroke: #cccccc; stroke-opacity: 0.3; stroke-width: 0.5; stroke-linecap: round"/>
     </g>
     <g id="line2d_18">
      <g>
       <use xlink:href="#m270d5acbde" x="39.632812" y="113.15619" style="fill: #262626; stroke: #262626; stroke-width: 0.8"/>
      </g>
     </g>
     <g id="text_10">
      <!-- 0.4 -->
      <g style="fill: #262626" transform="translate(19.910312 116.195565) scale(0.08 -0.08)">
       <use xlink:href="#DejaVuSans-30"/>
       <use xlink:href="#DejaVuSans-2e" transform="translate(63.623047 0)"/>
       <use xlink:href="#DejaVuSans-34" transform="translate(95.410156 0)"/>
      </g>
     </g>
    </g>
    <g id="ytick_4">
     <g id="line2d_19">
      <path d="M 39.632812 80.554286 
L 277.902813 80.554286 
" clip-path="url(#pcb06246496)" style="fill: none; stroke: #cccccc; stroke-opacity: 0.3; stroke-width: 0.5; stroke-linecap: round"/>
     </g>
     <g id="line2d_20">
      <g>
       <use xlink:href="#m270d5acbde" x="39.632812" y="80.554286" style="fill: #262626; stroke: #262626; stroke-width: 0.8"/>
      </g>
     </g>
     <g id="text_11">
      <!-- 0.6 -->
      <g style="fill: #262626" transform="translate(19.910312 83.593661) scale(0.08 -0.08)">
       <defs>
        <path id="DejaVuSans-36" d="M 2113 2584 
Q 1688 2584 1439 2293 
Q 1191 2003 1191 1497 
Q 1191 994 1439 701 
Q 1688 409 2113 409 
Q 2538 409 2786 701 
Q 3034 994 3034 1497 
Q 3034 2003 2786 2293 
Q 2538 2584 2113 2584 
z
M 3366 4563 
L 3366 3988 
Q 3128 4100 2886 4159 
Q 2644 4219 2406 4219 
Q 1781 4219 1451 3797 
Q 1122 3375 1075 2522 
Q 1259 2794 1537 2939 
Q 1816 3084 2150 3084 
Q 2853 3084 3261 2657 
Q 3669 2231 3669 1497 
Q 3669 778 3244 343 
Q 2819 -91 2113 -91 
Q 1303 -91 875 529 
Q 447 1150 447 2328 
Q 447 3434 972 4092 
Q 1497 4750 2381 4750 
Q 2619 4750 2861 4703 
Q 3103 4656 3366 4563 
z
" transform="scale(0.015625)"/>
       </defs>
       <use xlink:href="#DejaVuSans-30"/>
       <use xlink:href="#DejaVuSans-2e" transform="translate(63.623047 0)"/>
       <use xlink:href="#DejaVuSans-36" transform="translate(95.410156 0)"/>
      </g>
     </g>
    </g>
    <g id="ytick_5">
     <g id="line2d_21">
      <path d="M 39.632812 47.952381 
L 277.902813 47.952381 
" clip-path="url(#pcb06246496)" style="fill: none; stroke: #cccccc; stroke-opacity: 0.3; stroke-width: 0.5; stroke-linecap: round"/>
     </g>
     <g id="line2d_22">
      <g>
       <use xlink:href="#m270d5acbde" x="39.632812" y="47.952381" style="fill: #262626; stroke: #262626; stroke-width: 0.8"/>
      </g>
     </g>
     <g id="text_12">
      <!-- 0.8 -->
      <g style="fill: #262626" transform="translate(19.910312 50.991756) scale(0.08 -0.08)">
       <defs>
        <path id="DejaVuSans-38" d="M 2034 2216 
Q 1584 2216 1326 1975 
Q 1069 1734 1069 1313 
Q 1069 891 1326 650 
Q 1584 409 2034 409 
Q 2484 409 2743 651 
Q 3003 894 3003 1313 
Q 3003 1734 2745 1975 
Q 2488 2216 2034 2216 
z
M 1403 2484 
Q 997 2584 770 2862 
Q 544 3141 544 3541 
Q 544 4100 942 4425 
Q 1341 4750 2034 4750 
Q 2731 4750 3128 4425 
Q 3525 4100 3525 3541 
Q 3525 3141 3298 2862 
Q 3072 2584 2669 2484 
Q 3125 2378 3379 2068 
Q 3634 1759 3634 1313 
Q 3634 634 3220 271 
Q 2806 -91 2034 -91 
Q 1263 -91 848 271 
Q 434 634 434 1313 
Q 434 1759 690 2068 
Q 947 2378 1403 2484 
z
M 1172 3481 
Q 1172 3119 1398 2916 
Q 1625 2713 2034 2713 
Q 2441 2713 2670 2916 
Q 2900 3119 2900 3481 
Q 2900 3844 2670 4047 
Q 2441 4250 2034 4250 
Q 1625 4250 1398 4047 
Q 1172 3844 1172 3481 
z
" transform="scale(0.015625)"/>
       </defs>
       <use xlink:href="#DejaVuSans-30"/>
       <use xlink:href="#DejaVuSans-2e" transform="translate(63.623047 0)"/>
       <use xlink:href="#DejaVuSans-38" transform="translate(95.410156 0)"/>
      </g>
     </g>
    </g>
    <g id="ytick_6">
     <g id="line2d_23">
      <path d="M 39.632812 15.350476 
L 277.902813 15.350476 
" clip-path="url(#pcb06246496)" style="fill: none; stroke: #cccccc; stroke-opacity: 0.3; stroke-width: 0.5; stroke-linecap: round"/>
     </g>
     <g id="line2d_24">
      <g>
       <use xlink:href="#m270d5acbde" x="39.632812" y="15.350476" style="fill: #262626; stroke: #262626; stroke-width: 0.8"/>
      </g>
     </g>
     <g id="text_13">
      <!-- 1.0 -->
      <g style="fill: #262626" transform="translate(19.910312 18.389851) scale(0.08 -0.08)">
       <use xlink:href="#DejaVuSans-31"/>
       <use xlink:href="#DejaVuSans-2e" transform="translate(63.623047 0)"/>
       <use xlink:href="#DejaVuSans-30" transform="translate(95.410156 0)"/>
      </g>
     </g>
    </g>
    <g id="text_14">
     <!-- Survival probability -->
     <g style="fill: #262626" transform="translate(14.038594 136.361797) rotate(-90) scale(0.09 -0.09)">
      <defs>
       <path id="DejaVuSans-53" d="M 3425 4513 
L 3425 3897 
Q 3066 4069 2747 4153 
Q 2428 4238 2131 4238 
Q 1616 4238 1336 4038 
Q 1056 3838 1056 3469 
Q 1056 3159 1242 3001 
Q 1428 2844 1947 2747 
L 2328 2669 
Q 3034 2534 3370 2195 
Q 3706 1856 3706 1288 
Q 3706 609 3251 259 
Q 2797 -91 1919 -91 
Q 1588 -91 1214 -16 
Q 841 59 441 206 
L 441 856 
Q 825 641 1194 531 
Q 1563 422 1919 422 
Q 2459 422 2753 634 
Q 3047 847 3047 1241 
Q 3047 1584 2836 1778 
Q 2625 1972 2144 2069 
L 1759 2144 
Q 1053 2284 737 2584 
Q 422 2884 422 3419 
Q 422 4038 858 4394 
Q 1294 4750 2059 4750 
Q 2388 4750 2728 4690 
Q 3069 4631 3425 4513 
z
" transform="scale(0.015625)"/>
       <path id="DejaVuSans-75" d="M 544 1381 
L 544 3500 
L 1119 3500 
L 1119 1403 
Q 1119 906 1312 657 
Q 1506 409 1894 409 
Q 2359 409 2629 706 
Q 2900 1003 2900 1516 
L 2900 3500 
L 3475 3500 
L 3475 0 
L 2900 0 
L 2900 538 
Q 2691 219 2414 64 
Q 2138 -91 1772 -91 
Q 1169 -91 856 284 
Q 544 659 544 1381 
z
M 1991 3584 
L 1991 3584 
z
" transform="scale(0.015625)"/>
       <path id="DejaVuSans-72" d="M 2631 2963 
Q 2534 3019 2420 3045 
Q 2306 3072 2169 3072 
Q 1681 3072 1420 2755 
Q 1159 2438 1159 1844 
L 1159 0 
L 581 0 
L 581 3500 
L 1159 3500 
L 1159 2956 
Q 1341 3275 1631 3429 
Q 1922 3584 2338 3584 
Q 2397 3584 2469 3576 
Q 2541 3569 2628 3553 
L 2631 2963 
z
" transform="scale(0.015625)"/>
       <path id="DejaVuSans-76" d="M 191 3500 
L 800 3500 
L 1894 563 
L 2988 3500 
L 3597 3500 
L 2284 0 
L 1503 0 
L 191 3500 
z
" transform="scale(0.015625)"/>
       <path id="DejaVuSans-6c" d="M 603 4863 
L 1178 4863 
L 1178 0 
L 603 0 
L 603 4863 
z
" transform="scale(0.015625)"/>
       <path id="DejaVuSans-70" d="M 1159 525 
L 1159 -1331 
L 581 -1331 
L 581 3500 
L 1159 3500 
L 1159 2969 
Q 1341 3281 1617 3432 
Q 1894 3584 2278 3584 
Q 2916 3584 3314 3078 
Q 3713 2572 3713 1747 
Q 3713 922 3314 415 
Q 2916 -91 2278 -91 
Q 1894 -91 1617 61 
Q 1341 213 1159 525 
z
M 3116 1747 
Q 3116 2381 2855 2742 
Q 2594 3103 2138 3103 
Q 1681 3103 1420 2742 
Q 1159 2381 1159 1747 
Q 1159 1113 1420 752 
Q 1681 391 2138 391 
Q 2594 391 2855 752 
Q 3116 1113 3116 1747 
z
" transform="scale(0.015625)"/>
       <path id="DejaVuSans-6f" d="M 1959 3097 
Q 1497 3097 1228 2736 
Q 959 2375 959 1747 
Q 959 1119 1226 758 
Q 1494 397 1959 397 
Q 2419 397 2687 759 
Q 2956 1122 2956 1747 
Q 2956 2369 2687 2733 
Q 2419 3097 1959 3097 
z
M 1959 3584 
Q 2709 3584 3137 3096 
Q 3566 2609 3566 1747 
Q 3566 888 3137 398 
Q 2709 -91 1959 -91 
Q 1206 -91 779 398 
Q 353 888 353 1747 
Q 353 2609 779 3096 
Q 1206 3584 1959 3584 
z
" transform="scale(0.015625)"/>
       <path id="DejaVuSans-62" d="M 3116 1747 
Q 3116 2381 2855 2742 
Q 2594 3103 2138 3103 
Q 1681 3103 1420 2742 
Q 1159 2381 1159 1747 
Q 1159 1113 1420 752 
Q 1681 391 2138 391 
Q 2594 391 2855 752 
Q 3116 1113 3116 1747 
z
M 1159 2969 
Q 1341 3281 1617 3432 
Q 1894 3584 2278 3584 
Q 2916 3584 3314 3078 
Q 3713 2572 3713 1747 
Q 3713 922 3314 415 
Q 2916 -91 2278 -91 
Q 1894 -91 1617 61 
Q 1341 213 1159 525 
L 1159 0 
L 581 0 
L 581 4863 
L 1159 4863 
L 1159 2969 
z
" transform="scale(0.015625)"/>
       <path id="DejaVuSans-74" d="M 1172 4494 
L 1172 3500 
L 2356 3500 
L 2356 3053 
L 1172 3053 
L 1172 1153 
Q 1172 725 1289 603 
Q 1406 481 1766 481 
L 2356 481 
L 2356 0 
L 1766 0 
Q 1100 0 847 248 
Q 594 497 594 1153 
L 594 3053 
L 172 3053 
L 172 3500 
L 594 3500 
L 594 4494 
L 1172 4494 
z
" transform="scale(0.015625)"/>
      </defs>
      <use xlink:href="#DejaVuSans-53"/>
      <use xlink:href="#DejaVuSans-75" transform="translate(63.476562 0)"/>
      <use xlink:href="#DejaVuSans-72" transform="translate(126.855469 0)"/>
      <use xlink:href="#DejaVuSans-76" transform="translate(167.96875 0)"/>
      <use xlink:href="#DejaVuSans-69" transform="translate(227.148438 0)"/>
      <use xlink:href="#DejaVuSans-76" transform="translate(254.931641 0)"/>
      <use xlink:href="#DejaVuSans-61" transform="translate(314.111328 0)"/>
      <use xlink:href="#DejaVuSans-6c" transform="translate(375.390625 0)"/>
      <use xlink:href="#DejaVuSans-20" transform="translate(403.173828 0)"/>
      <use xlink:href="#DejaVuSans-70" transform="translate(434.960938 0)"/>
      <use xlink:href="#DejaVuSans-72" transform="translate(498.4375 0)"/>
      <use xlink:href="#DejaVuSans-6f" transform="translate(537.300781 0)"/>
      <use xlink:href="#DejaVuSans-62" transform="translate(598.482422 0)"/>
      <use xlink:href="#DejaVuSans-61" transform="translate(661.958984 0)"/>
      <use xlink:href="#DejaVuSans-62" transform="translate(723.238281 0)"/>
      <use xlink:href="#DejaVuSans-69" transform="translate(786.714844 0)"/>
      <use xlink:href="#DejaVuSans-6c" transform="translate(814.498047 0)"/>
      <use xlink:href="#DejaVuSans-69" transform="translate(842.28125 0)"/>
      <use xlink:href="#DejaVuSans-74" transform="translate(870.064453 0)"/>
      <use xlink:href="#DejaVuSans-79" transform="translate(909.273438 0)"/>
     </g>
    </g>
   </g>
   <g id="FillBetweenPolyCollection_1">
    <defs>
     <path id="mef33018cf4" d="M 36.758681 -197.662336 
L 36.758681 -197.662336 
L 40.21662 -197.662336 
L 40.21662 -197.662336 
L 40.306437 -197.662336 
L 40.306437 -197.662336 
L 41.204603 -197.662336 
L 41.204603 -197.662336 
L 41.29442 -197.662336 
L 41.29442 -197.662336 
L 41.698595 -197.662336 
L 41.698595 -197.662336 
L 42.147678 -197.662336 
L 42.147678 -191.935524 
L 42.506944 -191.935524 
L 42.506944 -191.935524 
L 42.551852 -191.935524 
L 42.551852 -191.193539 
L 43.315294 -191.193539 
L 43.315294 -191.193539 
L 43.40511 -191.193539 
L 43.40511 -191.193539 
L 44.348185 -191.193539 
L 44.348185 -191.193539 
L 44.572726 -191.193539 
L 44.572726 -191.193539 
L 45.111626 -191.193539 
L 45.111626 -190.085434 
L 45.425984 -190.085434 
L 45.425984 -190.085434 
L 46.728325 -190.085434 
L 46.728325 -190.085434 
L 46.952866 -190.085434 
L 46.952866 -190.085434 
L 48.614474 -190.085434 
L 48.614474 -188.920509 
L 48.839015 -188.920509 
L 48.839015 -187.772534 
L 50.994614 -187.772534 
L 50.994614 -186.643526 
L 51.219155 -186.643526 
L 51.219155 -185.532212 
L 51.89278 -185.532212 
L 51.89278 -184.436745 
L 51.937688 -184.436745 
L 51.937688 -183.355354 
L 52.027505 -183.355354 
L 52.027505 -183.355354 
L 52.790946 -183.355354 
L 52.790946 -183.355354 
L 52.835855 -183.355354 
L 52.835855 -182.269242 
L 54.048379 -182.269242 
L 54.048379 -181.195435 
L 54.452554 -181.195435 
L 54.452554 -181.195435 
L 54.587278 -181.195435 
L 54.587278 -181.195435 
L 54.766912 -181.195435 
L 54.766912 -181.195435 
L 54.901637 -181.195435 
L 54.901637 -180.106995 
L 55.08127 -180.106995 
L 55.08127 -179.029686 
L 55.126178 -179.029686 
L 55.126178 -179.029686 
L 55.979436 -179.029686 
L 55.979436 -179.029686 
L 56.024344 -179.029686 
L 56.024344 -179.029686 
L 56.069253 -179.029686 
L 56.069253 -179.029686 
L 56.159069 -179.029686 
L 56.159069 -179.029686 
L 56.203977 -179.029686 
L 56.203977 -179.029686 
L 56.338702 -179.029686 
L 56.338702 -179.029686 
L 56.383611 -179.029686 
L 56.383611 -179.029686 
L 56.653061 -179.029686 
L 56.653061 -179.029686 
L 56.787785 -179.029686 
L 56.787785 -179.029686 
L 56.877602 -179.029686 
L 56.877602 -179.029686 
L 56.92251 -179.029686 
L 56.92251 -177.851995 
L 56.967419 -177.851995 
L 56.967419 -176.688398 
L 57.102144 -176.688398 
L 57.102144 -176.688398 
L 57.19196 -176.688398 
L 57.19196 -175.527355 
L 57.326685 -175.527355 
L 57.326685 -175.527355 
L 57.506318 -175.527355 
L 57.506318 -175.527355 
L 57.596135 -175.527355 
L 57.596135 -174.347732 
L 58.045218 -174.347732 
L 58.045218 -174.347732 
L 58.179943 -174.347732 
L 58.179943 -173.169289 
L 58.26976 -173.169289 
L 58.26976 -172.00143 
L 58.314668 -172.00143 
L 58.314668 -172.00143 
L 58.404484 -172.00143 
L 58.404484 -170.822665 
L 58.853568 -170.822665 
L 58.853568 -170.822665 
L 59.123017 -170.822665 
L 59.123017 -169.63229 
L 60.066092 -169.63229 
L 60.066092 -169.63229 
L 60.155908 -169.63229 
L 60.155908 -169.63229 
L 60.290633 -169.63229 
L 60.290633 -168.429589 
L 60.560083 -168.429589 
L 60.560083 -168.429589 
L 60.604991 -168.429589 
L 60.604991 -167.213834 
L 60.694808 -167.213834 
L 60.694808 -167.213834 
L 60.91935 -167.213834 
L 60.91935 -165.984275 
L 61.054075 -165.984275 
L 61.054075 -165.984275 
L 61.233708 -165.984275 
L 61.233708 -165.984275 
L 61.368433 -165.984275 
L 61.368433 -165.984275 
L 61.413341 -165.984275 
L 61.413341 -165.984275 
L 61.682791 -165.984275 
L 61.682791 -165.984275 
L 61.727699 -165.984275 
L 61.727699 -164.70324 
L 61.862424 -164.70324 
L 61.862424 -164.70324 
L 62.22169 -164.70324 
L 62.22169 -164.70324 
L 62.401324 -164.70324 
L 62.401324 -164.70324 
L 62.446232 -164.70324 
L 62.446232 -164.70324 
L 62.625865 -164.70324 
L 62.625865 -164.70324 
L 63.074948 -164.70324 
L 63.074948 -163.366189 
L 63.164765 -163.366189 
L 63.164765 -163.366189 
L 63.434215 -163.366189 
L 63.434215 -162.012128 
L 63.703665 -162.012128 
L 63.703665 -162.012128 
L 63.83839 -162.012128 
L 63.83839 -162.012128 
L 64.062931 -162.012128 
L 64.062931 -160.639966 
L 64.152748 -160.639966 
L 64.152748 -160.639966 
L 64.332381 -160.639966 
L 64.332381 -159.263812 
L 64.781464 -159.263812 
L 64.781464 -159.263812 
L 64.871281 -159.263812 
L 64.871281 -159.263812 
L 65.320364 -159.263812 
L 65.320364 -159.263812 
L 65.365272 -159.263812 
L 65.365272 -159.263812 
L 65.589813 -159.263812 
L 65.589813 -159.263812 
L 65.67963 -159.263812 
L 65.67963 -159.263812 
L 65.724538 -159.263812 
L 65.724538 -159.263812 
L 65.769447 -159.263812 
L 65.769447 -159.263812 
L 66.038897 -159.263812 
L 66.038897 -159.263812 
L 66.712521 -159.263812 
L 66.712521 -159.263812 
L 67.026879 -159.263812 
L 67.026879 -159.263812 
L 67.341237 -159.263812 
L 67.341237 -157.711531 
L 67.386146 -157.711531 
L 67.386146 -157.711531 
L 67.610687 -157.711531 
L 67.610687 -156.15527 
L 68.05977 -156.15527 
L 68.05977 -156.15527 
L 68.284312 -156.15527 
L 68.284312 -156.15527 
L 68.374128 -156.15527 
L 68.374128 -156.15527 
L 68.463945 -156.15527 
L 68.463945 -156.15527 
L 68.643578 -156.15527 
L 68.643578 -156.15527 
L 68.733395 -156.15527 
L 68.733395 -156.15527 
L 68.778303 -156.15527 
L 68.778303 -156.15527 
L 69.496836 -156.15527 
L 69.496836 -156.15527 
L 70.170461 -156.15527 
L 70.170461 -154.441967 
L 70.619544 -154.441967 
L 70.619544 -152.747786 
L 70.664452 -152.747786 
L 70.664452 -152.747786 
L 70.888994 -152.747786 
L 70.888994 -151.047223 
L 71.023719 -151.047223 
L 71.023719 -151.047223 
L 71.338077 -151.047223 
L 71.338077 -149.339028 
L 71.921885 -149.339028 
L 71.921885 -147.647004 
L 72.460784 -147.647004 
L 72.460784 -147.647004 
L 72.595509 -147.647004 
L 72.595509 -145.944955 
L 73.314042 -145.944955 
L 73.314042 -145.944955 
L 73.808033 -145.944955 
L 73.808033 -145.944955 
L 74.346933 -145.944955 
L 74.346933 -145.944955 
L 75.065466 -145.944955 
L 75.065466 -145.944955 
L 75.469641 -145.944955 
L 75.469641 -145.944955 
L 75.514549 -145.944955 
L 75.514549 -145.944955 
L 76.143265 -145.944955 
L 76.143265 -145.944955 
L 76.996523 -145.944955 
L 76.996523 -145.944955 
L 77.35579 -145.944955 
L 77.35579 -145.944955 
L 77.445606 -145.944955 
L 77.445606 -145.944955 
L 78.433589 -145.944955 
L 78.433589 -143.962702 
L 78.837764 -143.962702 
L 78.837764 -143.962702 
L 79.46648 -143.962702 
L 79.46648 -143.962702 
L 79.73593 -143.962702 
L 79.73593 -143.962702 
L 79.915563 -143.962702 
L 79.915563 -143.962702 
L 80.229921 -143.962702 
L 80.229921 -141.817204 
L 80.319738 -141.817204 
L 80.319738 -141.817204 
L 80.993362 -141.817204 
L 80.993362 -141.817204 
L 82.250795 -141.817204 
L 82.250795 -139.616147 
L 84.406394 -139.616147 
L 84.406394 -139.616147 
L 84.675844 -139.616147 
L 84.675844 -139.616147 
L 84.76566 -139.616147 
L 84.76566 -137.354077 
L 84.900385 -137.354077 
L 84.900385 -135.122496 
L 85.84346 -135.122496 
L 85.84346 -135.122496 
L 88.582866 -135.122496 
L 88.582866 -135.122496 
L 88.762499 -135.122496 
L 88.762499 -135.122496 
L 89.391216 -135.122496 
L 89.391216 -135.122496 
L 89.481032 -135.122496 
L 89.481032 -135.122496 
L 90.244474 -135.122496 
L 90.244474 -135.122496 
L 92.355164 -135.122496 
L 92.355164 -135.122496 
L 92.894064 -135.122496 
L 92.894064 -135.122496 
L 96.666361 -135.122496 
L 96.666361 -132.472746 
L 100.259026 -132.472746 
L 100.259026 -132.472746 
L 101.022467 -132.472746 
L 101.022467 -129.800921 
L 101.157192 -129.800921 
L 101.157192 -129.800921 
L 104.92949 -129.800921 
L 104.92949 -129.800921 
L 104.974398 -129.800921 
L 104.974398 -129.800921 
L 105.198939 -129.800921 
L 105.198939 -129.800921 
L 106.052197 -129.800921 
L 106.052197 -129.800921 
L 107.983254 -129.800921 
L 107.983254 -129.800921 
L 108.297613 -129.800921 
L 108.297613 -129.800921 
L 108.701787 -129.800921 
L 108.701787 -129.800921 
L 108.881421 -129.800921 
L 108.881421 -129.800921 
L 110.677753 -129.800921 
L 110.677753 -129.800921 
L 111.665736 -129.800921 
L 111.665736 -129.800921 
L 112.429177 -129.800921 
L 112.429177 -129.800921 
L 113.237526 -129.800921 
L 113.237526 -129.800921 
L 116.336199 -129.800921 
L 116.336199 -129.800921 
L 116.605649 -129.800921 
L 116.605649 -129.800921 
L 119.839047 -129.800921 
L 119.839047 -129.800921 
L 120.108497 -129.800921 
L 120.108497 -129.800921 
L 120.737213 -129.800921 
L 120.737213 -129.800921 
L 121.815013 -129.800921 
L 121.815013 -129.800921 
L 122.488637 -129.800921 
L 122.488637 -129.800921 
L 124.240061 -129.800921 
L 124.240061 -129.800921 
L 125.497494 -129.800921 
L 125.497494 -129.800921 
L 127.069285 -129.800921 
L 127.069285 -129.800921 
L 127.159101 -129.800921 
L 127.159101 -129.800921 
L 127.293826 -129.800921 
L 127.293826 -129.800921 
L 129.808691 -129.800921 
L 129.808691 -129.800921 
L 130.347591 -129.800921 
L 130.347591 -122.541987 
L 130.661949 -122.541987 
L 130.661949 -122.541987 
L 131.42539 -122.541987 
L 131.42539 -122.541987 
L 131.649932 -122.541987 
L 131.649932 -122.541987 
L 134.34443 -122.541987 
L 134.34443 -122.541987 
L 135.691679 -122.541987 
L 135.691679 -122.541987 
L 137.398195 -122.541987 
L 137.398195 -122.541987 
L 144.269166 -122.541987 
L 144.269166 -122.541987 
L 145.257149 -122.541987 
L 145.257149 -122.541987 
L 148.445638 -122.541987 
L 148.445638 -122.541987 
L 157.517116 -122.541987 
L 157.517116 -122.541987 
L 158.909274 -122.541987 
L 158.909274 -122.541987 
L 161.019964 -122.541987 
L 161.019964 -122.541987 
L 164.926987 -122.541987 
L 164.926987 -122.541987 
L 168.429835 -122.541987 
L 168.429835 -122.541987 
L 169.238184 -122.541987 
L 169.238184 -122.541987 
L 172.741032 -122.541987 
L 172.741032 -122.541987 
L 190.704354 -122.541987 
L 190.704354 -122.541987 
L 193.758119 -122.541987 
L 193.758119 -122.541987 
L 211.047817 -122.541987 
L 211.047817 -122.541987 
L 262.692369 -122.541987 
L 262.692369 -122.541987 
L 266.015584 -122.541987 
L 266.015584 -122.541987 
L 266.419759 -122.541987 
L 266.419759 -122.541987 
L 266.419759 -154.862591 
L 266.419759 -154.862591 
L 266.419759 -154.862591 
L 266.015584 -154.862591 
L 266.015584 -154.862591 
L 262.692369 -154.862591 
L 262.692369 -154.862591 
L 211.047817 -154.862591 
L 211.047817 -154.862591 
L 193.758119 -154.862591 
L 193.758119 -154.862591 
L 190.704354 -154.862591 
L 190.704354 -154.862591 
L 172.741032 -154.862591 
L 172.741032 -154.862591 
L 169.238184 -154.862591 
L 169.238184 -154.862591 
L 168.429835 -154.862591 
L 168.429835 -154.862591 
L 164.926987 -154.862591 
L 164.926987 -154.862591 
L 161.019964 -154.862591 
L 161.019964 -154.862591 
L 158.909274 -154.862591 
L 158.909274 -154.862591 
L 157.517116 -154.862591 
L 157.517116 -154.862591 
L 148.445638 -154.862591 
L 148.445638 -154.862591 
L 145.257149 -154.862591 
L 145.257149 -154.862591 
L 144.269166 -154.862591 
L 144.269166 -154.862591 
L 137.398195 -154.862591 
L 137.398195 -154.862591 
L 135.691679 -154.862591 
L 135.691679 -154.862591 
L 134.34443 -154.862591 
L 134.34443 -154.862591 
L 131.649932 -154.862591 
L 131.649932 -154.862591 
L 131.42539 -154.862591 
L 131.42539 -154.862591 
L 130.661949 -154.862591 
L 130.661949 -154.862591 
L 130.347591 -154.862591 
L 130.347591 -157.667137 
L 129.808691 -157.667137 
L 129.808691 -157.667137 
L 127.293826 -157.667137 
L 127.293826 -157.667137 
L 127.159101 -157.667137 
L 127.159101 -157.667137 
L 127.069285 -157.667137 
L 127.069285 -157.667137 
L 125.497494 -157.667137 
L 125.497494 -157.667137 
L 124.240061 -157.667137 
L 124.240061 -157.667137 
L 122.488637 -157.667137 
L 122.488637 -157.667137 
L 121.815013 -157.667137 
L 121.815013 -157.667137 
L 120.737213 -157.667137 
L 120.737213 -157.667137 
L 120.108497 -157.667137 
L 120.108497 -157.667137 
L 119.839047 -157.667137 
L 119.839047 -157.667137 
L 116.605649 -157.667137 
L 116.605649 -157.667137 
L 116.336199 -157.667137 
L 116.336199 -157.667137 
L 113.237526 -157.667137 
L 113.237526 -157.667137 
L 112.429177 -157.667137 
L 112.429177 -157.667137 
L 111.665736 -157.667137 
L 111.665736 -157.667137 
L 110.677753 -157.667137 
L 110.677753 -157.667137 
L 108.881421 -157.667137 
L 108.881421 -157.667137 
L 108.701787 -157.667137 
L 108.701787 -157.667137 
L 108.297613 -157.667137 
L 108.297613 -157.667137 
L 107.983254 -157.667137 
L 107.983254 -157.667137 
L 106.052197 -157.667137 
L 106.052197 -157.667137 
L 105.198939 -157.667137 
L 105.198939 -157.667137 
L 104.974398 -157.667137 
L 104.974398 -157.667137 
L 104.92949 -157.667137 
L 104.92949 -157.667137 
L 101.157192 -157.667137 
L 101.157192 -157.667137 
L 101.022467 -157.667137 
L 101.022467 -159.4934 
L 100.259026 -159.4934 
L 100.259026 -159.4934 
L 96.666361 -159.4934 
L 96.666361 -161.267028 
L 92.894064 -161.267028 
L 92.894064 -161.267028 
L 92.355164 -161.267028 
L 92.355164 -161.267028 
L 90.244474 -161.267028 
L 90.244474 -161.267028 
L 89.481032 -161.267028 
L 89.481032 -161.267028 
L 89.391216 -161.267028 
L 89.391216 -161.267028 
L 88.762499 -161.267028 
L 88.762499 -161.267028 
L 88.582866 -161.267028 
L 88.582866 -161.267028 
L 85.84346 -161.267028 
L 85.84346 -161.267028 
L 84.900385 -161.267028 
L 84.900385 -162.848913 
L 84.76566 -162.848913 
L 84.76566 -164.412302 
L 84.675844 -164.412302 
L 84.675844 -164.412302 
L 84.406394 -164.412302 
L 84.406394 -164.412302 
L 82.250795 -164.412302 
L 82.250795 -165.921921 
L 80.993362 -165.921921 
L 80.993362 -165.921921 
L 80.319738 -165.921921 
L 80.319738 -165.921921 
L 80.229921 -165.921921 
L 80.229921 -167.381168 
L 79.915563 -167.381168 
L 79.915563 -167.381168 
L 79.73593 -167.381168 
L 79.73593 -167.381168 
L 79.46648 -167.381168 
L 79.46648 -167.381168 
L 78.837764 -167.381168 
L 78.837764 -167.381168 
L 78.433589 -167.381168 
L 78.433589 -168.75134 
L 77.445606 -168.75134 
L 77.445606 -168.75134 
L 77.35579 -168.75134 
L 77.35579 -168.75134 
L 76.996523 -168.75134 
L 76.996523 -168.75134 
L 76.143265 -168.75134 
L 76.143265 -168.75134 
L 75.514549 -168.75134 
L 75.514549 -168.75134 
L 75.469641 -168.75134 
L 75.469641 -168.75134 
L 75.065466 -168.75134 
L 75.065466 -168.75134 
L 74.346933 -168.75134 
L 74.346933 -168.75134 
L 73.808033 -168.75134 
L 73.808033 -168.75134 
L 73.314042 -168.75134 
L 73.314042 -168.75134 
L 72.595509 -168.75134 
L 72.595509 -169.985577 
L 72.460784 -169.985577 
L 72.460784 -169.985577 
L 71.921885 -169.985577 
L 71.921885 -171.198978 
L 71.338077 -171.198978 
L 71.338077 -172.402143 
L 71.023719 -172.402143 
L 71.023719 -172.402143 
L 70.888994 -172.402143 
L 70.888994 -173.584442 
L 70.664452 -173.584442 
L 70.664452 -173.584442 
L 70.619544 -173.584442 
L 70.619544 -174.746054 
L 70.170461 -174.746054 
L 70.170461 -175.896197 
L 69.496836 -175.896197 
L 69.496836 -175.896197 
L 68.778303 -175.896197 
L 68.778303 -175.896197 
L 68.733395 -175.896197 
L 68.733395 -175.896197 
L 68.643578 -175.896197 
L 68.643578 -175.896197 
L 68.463945 -175.896197 
L 68.463945 -175.896197 
L 68.374128 -175.896197 
L 68.374128 -175.896197 
L 68.284312 -175.896197 
L 68.284312 -175.896197 
L 68.05977 -175.896197 
L 68.05977 -175.896197 
L 67.610687 -175.896197 
L 67.610687 -176.966689 
L 67.386146 -176.966689 
L 67.386146 -176.966689 
L 67.341237 -176.966689 
L 67.341237 -178.019664 
L 67.026879 -178.019664 
L 67.026879 -178.019664 
L 66.712521 -178.019664 
L 66.712521 -178.019664 
L 66.038897 -178.019664 
L 66.038897 -178.019664 
L 65.769447 -178.019664 
L 65.769447 -178.019664 
L 65.724538 -178.019664 
L 65.724538 -178.019664 
L 65.67963 -178.019664 
L 65.67963 -178.019664 
L 65.589813 -178.019664 
L 65.589813 -178.019664 
L 65.365272 -178.019664 
L 65.365272 -178.019664 
L 65.320364 -178.019664 
L 65.320364 -178.019664 
L 64.871281 -178.019664 
L 64.871281 -178.019664 
L 64.781464 -178.019664 
L 64.781464 -178.019664 
L 64.332381 -178.019664 
L 64.332381 -178.985997 
L 64.152748 -178.985997 
L 64.152748 -178.985997 
L 64.062931 -178.985997 
L 64.062931 -179.938416 
L 63.83839 -179.938416 
L 63.83839 -179.938416 
L 63.703665 -179.938416 
L 63.703665 -179.938416 
L 63.434215 -179.938416 
L 63.434215 -180.870887 
L 63.164765 -180.870887 
L 63.164765 -180.870887 
L 63.074948 -180.870887 
L 63.074948 -181.783925 
L 62.625865 -181.783925 
L 62.625865 -181.783925 
L 62.446232 -181.783925 
L 62.446232 -181.783925 
L 62.401324 -181.783925 
L 62.401324 -181.783925 
L 62.22169 -181.783925 
L 62.22169 -181.783925 
L 61.862424 -181.783925 
L 61.862424 -181.783925 
L 61.727699 -181.783925 
L 61.727699 -182.66192 
L 61.682791 -182.66192 
L 61.682791 -182.66192 
L 61.413341 -182.66192 
L 61.413341 -182.66192 
L 61.368433 -182.66192 
L 61.368433 -182.66192 
L 61.233708 -182.66192 
L 61.233708 -182.66192 
L 61.054075 -182.66192 
L 61.054075 -182.66192 
L 60.91935 -182.66192 
L 60.91935 -183.507398 
L 60.694808 -183.507398 
L 60.694808 -183.507398 
L 60.604991 -183.507398 
L 60.604991 -184.336388 
L 60.560083 -184.336388 
L 60.560083 -184.336388 
L 60.290633 -184.336388 
L 60.290633 -185.149157 
L 60.155908 -185.149157 
L 60.155908 -185.149157 
L 60.066092 -185.149157 
L 60.066092 -185.149157 
L 59.123017 -185.149157 
L 59.123017 -185.945921 
L 58.853568 -185.945921 
L 58.853568 -185.945921 
L 58.404484 -185.945921 
L 58.404484 -186.726849 
L 58.314668 -186.726849 
L 58.314668 -186.726849 
L 58.26976 -186.726849 
L 58.26976 -187.492053 
L 58.179943 -187.492053 
L 58.179943 -188.249179 
L 58.045218 -188.249179 
L 58.045218 -188.249179 
L 57.596135 -188.249179 
L 57.596135 -188.99383 
L 57.506318 -188.99383 
L 57.506318 -188.99383 
L 57.326685 -188.99383 
L 57.326685 -188.99383 
L 57.19196 -188.99383 
L 57.19196 -189.718491 
L 57.102144 -189.718491 
L 57.102144 -189.718491 
L 56.967419 -189.718491 
L 56.967419 -190.430064 
L 56.92251 -190.430064 
L 56.92251 -191.131109 
L 56.877602 -191.131109 
L 56.877602 -191.131109 
L 56.787785 -191.131109 
L 56.787785 -191.131109 
L 56.653061 -191.131109 
L 56.653061 -191.131109 
L 56.383611 -191.131109 
L 56.383611 -191.131109 
L 56.338702 -191.131109 
L 56.338702 -191.131109 
L 56.203977 -191.131109 
L 56.203977 -191.131109 
L 56.159069 -191.131109 
L 56.159069 -191.131109 
L 56.069253 -191.131109 
L 56.069253 -191.131109 
L 56.024344 -191.131109 
L 56.024344 -191.131109 
L 55.979436 -191.131109 
L 55.979436 -191.131109 
L 55.126178 -191.131109 
L 55.126178 -191.131109 
L 55.08127 -191.131109 
L 55.08127 -191.784649 
L 54.901637 -191.784649 
L 54.901637 -192.427506 
L 54.766912 -192.427506 
L 54.766912 -192.427506 
L 54.587278 -192.427506 
L 54.587278 -192.427506 
L 54.452554 -192.427506 
L 54.452554 -192.427506 
L 54.048379 -192.427506 
L 54.048379 -193.050498 
L 52.835855 -193.050498 
L 52.835855 -193.660461 
L 52.790946 -193.660461 
L 52.790946 -193.660461 
L 52.027505 -193.660461 
L 52.027505 -193.660461 
L 51.937688 -193.660461 
L 51.937688 -194.250742 
L 51.89278 -194.250742 
L 51.89278 -194.824013 
L 51.219155 -194.824013 
L 51.219155 -195.377026 
L 50.994614 -195.377026 
L 50.994614 -195.90528 
L 48.839015 -195.90528 
L 48.839015 -196.402201 
L 48.614474 -196.402201 
L 48.614474 -196.857487 
L 46.952866 -196.857487 
L 46.952866 -196.857487 
L 46.728325 -196.857487 
L 46.728325 -196.857487 
L 45.425984 -196.857487 
L 45.425984 -196.857487 
L 45.111626 -196.857487 
L 45.111626 -197.250012 
L 44.572726 -197.250012 
L 44.572726 -197.250012 
L 44.348185 -197.250012 
L 44.348185 -197.250012 
L 43.40511 -197.250012 
L 43.40511 -197.250012 
L 43.315294 -197.250012 
L 43.315294 -197.250012 
L 42.551852 -197.250012 
L 42.551852 -197.546699 
L 42.506944 -197.546699 
L 42.506944 -197.546699 
L 42.147678 -197.546699 
L 42.147678 -197.662336 
L 41.698595 -197.662336 
L 41.698595 -197.662336 
L 41.29442 -197.662336 
L 41.29442 -197.662336 
L 41.204603 -197.662336 
L 41.204603 -197.662336 
L 40.306437 -197.662336 
L 40.306437 -197.662336 
L 40.21662 -197.662336 
L 40.21662 -197.662336 
L 36.758681 -197.662336 
z
" style="stroke: #2e86ab; stroke-opacity: 0.2"/>
    </defs>
    <g clip-path="url(#pcb06246496)">
     <use xlink:href="#mef33018cf4" x="0" y="213.012812" style="fill: #2e86ab; fill-opacity: 0.2; stroke: #2e86ab; stroke-opacity: 0.2"/>
    </g>
   </g>
   <g id="FillBetweenPolyCollection_2">
    <defs>
     <path id="md9cc61ea20" d="M 39.632812 -197.265081 
L 39.632812 -191.425821 
L 40.396254 -191.425821 
L 40.396254 -191.425821 
L 40.48607 -191.425821 
L 40.48607 -190.389954 
L 40.530979 -190.389954 
L 40.530979 -189.32373 
L 40.890245 -189.32373 
L 40.890245 -189.32373 
L 42.102769 -189.32373 
L 42.102769 -189.32373 
L 42.147678 -189.32373 
L 42.147678 -188.234077 
L 42.192586 -188.234077 
L 42.192586 -187.161543 
L 42.282403 -187.161543 
L 42.282403 -187.161543 
L 42.417127 -187.161543 
L 42.417127 -186.096669 
L 42.506944 -186.096669 
L 42.506944 -186.096669 
L 42.641669 -186.096669 
L 42.641669 -186.096669 
L 42.686577 -186.096669 
L 42.686577 -185.030567 
L 42.731486 -185.030567 
L 42.731486 -183.971379 
L 43.045844 -183.971379 
L 43.045844 -182.925998 
L 43.270385 -182.925998 
L 43.270385 -181.892685 
L 43.584743 -181.892685 
L 43.584743 -180.870054 
L 43.629652 -180.870054 
L 43.629652 -180.870054 
L 43.67456 -180.870054 
L 43.67456 -179.849384 
L 43.809285 -179.849384 
L 43.809285 -178.837682 
L 43.899102 -178.837682 
L 43.899102 -178.837682 
L 44.033827 -178.837682 
L 44.033827 -177.826637 
L 44.078735 -177.826637 
L 44.078735 -176.823291 
L 44.393093 -176.823291 
L 44.393093 -175.826995 
L 44.887084 -175.826995 
L 44.887084 -175.826995 
L 44.931993 -175.826995 
L 44.931993 -174.829866 
L 45.381076 -174.829866 
L 45.381076 -173.838974 
L 45.515801 -173.838974 
L 45.515801 -172.853874 
L 46.009792 -172.853874 
L 46.009792 -171.874176 
L 46.099609 -171.874176 
L 46.099609 -170.899539 
L 46.189425 -170.899539 
L 46.189425 -169.929659 
L 46.32415 -169.929659 
L 46.32415 -168.964266 
L 46.548692 -168.964266 
L 46.548692 -167.045996 
L 46.952866 -167.045996 
L 46.952866 -166.092704 
L 47.177408 -166.092704 
L 47.177408 -164.196912 
L 47.401949 -164.196912 
L 47.401949 -163.254099 
L 47.806124 -163.254099 
L 47.806124 -162.314489 
L 48.030666 -162.314489 
L 48.030666 -162.314489 
L 48.120482 -162.314489 
L 48.120482 -162.314489 
L 48.210299 -162.314489 
L 48.210299 -161.363688 
L 48.614474 -161.363688 
L 48.614474 -160.416056 
L 48.883924 -160.416056 
L 48.883924 -159.471472 
L 49.108465 -159.471472 
L 49.108465 -158.529825 
L 49.198282 -158.529825 
L 49.198282 -157.59101 
L 49.333007 -157.59101 
L 49.333007 -156.654932 
L 49.51264 -156.654932 
L 49.51264 -155.721501 
L 49.647365 -155.721501 
L 49.647365 -154.790635 
L 49.692273 -154.790635 
L 49.692273 -154.790635 
L 50.05154 -154.790635 
L 50.05154 -152.921681 
L 50.276081 -152.921681 
L 50.276081 -151.990881 
L 50.680256 -151.990881 
L 50.680256 -151.062441 
L 50.770072 -151.062441 
L 50.770072 -150.136298 
L 50.859889 -150.136298 
L 50.859889 -149.212392 
L 50.904797 -149.212392 
L 50.904797 -148.290668 
L 51.039522 -148.290668 
L 51.039522 -146.438447 
L 51.264064 -146.438447 
L 51.264064 -145.515518 
L 51.35388 -145.515518 
L 51.35388 -144.594648 
L 51.398789 -144.594648 
L 51.398789 -143.675792 
L 51.847872 -143.675792 
L 51.847872 -141.843959 
L 52.117322 -141.843959 
L 52.117322 -140.930905 
L 52.835855 -140.930905 
L 52.835855 -140.019712 
L 53.240029 -140.019712 
L 53.240029 -139.110348 
L 53.599296 -139.110348 
L 53.599296 -138.20278 
L 54.183104 -138.20278 
L 54.183104 -136.392916 
L 54.362737 -136.392916 
L 54.362737 -135.490565 
L 54.407645 -135.490565 
L 54.407645 -134.589901 
L 54.54237 -134.589901 
L 54.54237 -133.6909 
L 55.08127 -133.6909 
L 55.08127 -132.793538 
L 55.126178 -132.793538 
L 55.126178 -132.793538 
L 55.620169 -132.793538 
L 55.620169 -131.889493 
L 55.754894 -131.889493 
L 55.754894 -131.889493 
L 55.844711 -131.889493 
L 55.844711 -131.889493 
L 55.889619 -131.889493 
L 55.889619 -130.961134 
L 55.979436 -130.961134 
L 55.979436 -130.034614 
L 56.159069 -130.034614 
L 56.159069 -130.034614 
L 56.248886 -130.034614 
L 56.248886 -128.168886 
L 56.338702 -128.168886 
L 56.338702 -128.168886 
L 56.518336 -128.168886 
L 56.518336 -128.168886 
L 56.563244 -128.168886 
L 56.563244 -128.168886 
L 56.832694 -128.168886 
L 56.832694 -128.168886 
L 56.92251 -128.168886 
L 56.92251 -127.190019 
L 57.057235 -127.190019 
L 57.057235 -126.213365 
L 57.281777 -126.213365 
L 57.281777 -125.238889 
L 57.551227 -125.238889 
L 57.551227 -125.238889 
L 57.865585 -125.238889 
L 57.865585 -124.256009 
L 57.955401 -124.256009 
L 57.955401 -123.275336 
L 58.179943 -123.275336 
L 58.179943 -121.320483 
L 58.26976 -121.320483 
L 58.26976 -121.320483 
L 58.718843 -121.320483 
L 58.718843 -121.320483 
L 59.078109 -121.320483 
L 59.078109 -121.320483 
L 59.257742 -121.320483 
L 59.257742 -120.312297 
L 59.976275 -120.312297 
L 59.976275 -119.306496 
L 60.021183 -119.306496 
L 60.021183 -118.303048 
L 60.066092 -118.303048 
L 60.066092 -117.301923 
L 60.290633 -117.301923 
L 60.290633 -117.301923 
L 60.604991 -117.301923 
L 60.604991 -116.290908 
L 60.91935 -116.290908 
L 60.91935 -116.290908 
L 60.964258 -116.290908 
L 60.964258 -116.290908 
L 61.188799 -116.290908 
L 61.188799 -116.290908 
L 61.458249 -116.290908 
L 61.458249 -115.243609 
L 61.862424 -115.243609 
L 61.862424 -114.199014 
L 62.446232 -114.199014 
L 62.446232 -113.143334 
L 62.536049 -113.143334 
L 62.536049 -111.040244 
L 63.613848 -111.040244 
L 63.613848 -109.99277 
L 63.703665 -109.99277 
L 63.703665 -108.94797 
L 63.83839 -108.94797 
L 63.83839 -107.891086 
L 63.883298 -107.891086 
L 63.883298 -107.891086 
L 63.973114 -107.891086 
L 63.973114 -107.891086 
L 64.062931 -107.891086 
L 64.062931 -106.805958 
L 64.197656 -106.805958 
L 64.197656 -104.644813 
L 65.006005 -104.644813 
L 65.006005 -102.49563 
L 65.320364 -102.49563 
L 65.320364 -102.49563 
L 65.455089 -102.49563 
L 65.455089 -101.408459 
L 65.544905 -101.408459 
L 65.544905 -100.324384 
L 65.589813 -100.324384 
L 65.589813 -100.324384 
L 65.634722 -100.324384 
L 65.634722 -99.225464 
L 66.128713 -99.225464 
L 66.128713 -98.129788 
L 66.263438 -98.129788 
L 66.263438 -97.018407 
L 66.532888 -97.018407 
L 66.532888 -95.910439 
L 66.667613 -95.910439 
L 66.667613 -94.805865 
L 67.116696 -94.805865 
L 67.116696 -93.70467 
L 67.251421 -93.70467 
L 67.251421 -92.60684 
L 67.925045 -92.60684 
L 67.925045 -91.512366 
L 68.194495 -91.512366 
L 68.194495 -91.512366 
L 68.419037 -91.512366 
L 68.419037 -91.512366 
L 68.86812 -91.512366 
L 68.86812 -90.378249 
L 69.496836 -90.378249 
L 69.496836 -89.247977 
L 69.901011 -89.247977 
L 69.901011 -88.121542 
L 70.395002 -88.121542 
L 70.395002 -86.998938 
L 71.068627 -86.998938 
L 71.068627 -86.998938 
L 71.607526 -86.998938 
L 71.607526 -85.856086 
L 72.820051 -85.856086 
L 72.820051 -84.71737 
L 73.673309 -84.71737 
L 73.673309 -84.71737 
L 74.571475 -84.71737 
L 74.571475 -83.556906 
L 74.796016 -83.556906 
L 74.796016 -83.556906 
L 75.334916 -83.556906 
L 75.334916 -82.373437 
L 76.098357 -82.373437 
L 76.098357 -82.373437 
L 76.412715 -82.373437 
L 76.412715 -81.165579 
L 76.457624 -81.165579 
L 76.457624 -81.165579 
L 76.592348 -81.165579 
L 76.592348 -79.931803 
L 76.996523 -79.931803 
L 76.996523 -79.931803 
L 77.131248 -79.931803 
L 77.131248 -78.67041 
L 77.849781 -78.67041 
L 77.849781 -78.67041 
L 78.209047 -78.67041 
L 78.209047 -77.379508 
L 80.00538 -77.379508 
L 80.00538 -77.379508 
L 81.891529 -77.379508 
L 81.891529 -76.056976 
L 82.071162 -76.056976 
L 82.071162 -76.056976 
L 83.373503 -76.056976 
L 83.373503 -74.700426 
L 84.720752 -74.700426 
L 84.720752 -73.352622 
L 86.157818 -73.352622 
L 86.157818 -72.013578 
L 86.696717 -72.013578 
L 86.696717 -72.013578 
L 87.41525 -72.013578 
L 87.41525 -70.635767 
L 87.774517 -70.635767 
L 87.774517 -70.635767 
L 87.999058 -70.635767 
L 87.999058 -69.215733 
L 89.705574 -69.215733 
L 89.705574 -69.215733 
L 91.861173 -69.215733 
L 91.861173 -67.749474 
L 92.669522 -67.749474 
L 92.669522 -67.749474 
L 94.376038 -67.749474 
L 94.376038 -67.749474 
L 99.181226 -67.749474 
L 99.181226 -67.749474 
L 100.169209 -67.749474 
L 100.169209 -66.086887 
L 103.402607 -66.086887 
L 103.402607 -64.444642 
L 103.537332 -64.444642 
L 103.537332 -62.822731 
L 109.510137 -62.822731 
L 109.510137 -61.221237 
L 109.734678 -61.221237 
L 109.734678 -61.221237 
L 113.686609 -61.221237 
L 113.686609 -61.221237 
L 114.629684 -61.221237 
L 114.629684 -59.440371 
L 116.785282 -59.440371 
L 116.785282 -57.690038 
L 118.71634 -57.690038 
L 118.71634 -57.690038 
L 120.647397 -57.690038 
L 120.647397 -55.841883 
L 123.566437 -55.841883 
L 123.566437 -54.033005 
L 128.147084 -54.033005 
L 128.147084 -52.264091 
L 129.8536 -52.264091 
L 129.8536 -52.264091 
L 130.347591 -52.264091 
L 130.347591 -52.264091 
L 130.527224 -52.264091 
L 130.527224 -52.264091 
L 142.607559 -52.264091 
L 142.607559 -52.264091 
L 143.460816 -52.264091 
L 143.460816 -52.264091 
L 146.514581 -52.264091 
L 146.514581 -52.264091 
L 158.235649 -52.264091 
L 158.235649 -48.695329 
L 166.633502 -48.695329 
L 166.633502 -45.476861 
L 172.291949 -45.476861 
L 172.291949 -42.590933 
L 174.851722 -42.590933 
L 174.851722 -42.590933 
L 182.575951 -42.590933 
L 182.575951 -39.216291 
L 193.21922 -39.216291 
L 193.21922 -39.216291 
L 211.856167 -39.216291 
L 211.856167 -39.216291 
L 218.412779 -39.216291 
L 218.412779 -39.216291 
L 218.412779 -62.229405 
L 218.412779 -62.229405 
L 218.412779 -62.229405 
L 211.856167 -62.229405 
L 211.856167 -62.229405 
L 193.21922 -62.229405 
L 193.21922 -62.229405 
L 182.575951 -62.229405 
L 182.575951 -65.964312 
L 174.851722 -65.964312 
L 174.851722 -65.964312 
L 172.291949 -65.964312 
L 172.291949 -69.234134 
L 166.633502 -69.234134 
L 166.633502 -72.247208 
L 158.235649 -72.247208 
L 158.235649 -74.985482 
L 146.514581 -74.985482 
L 146.514581 -74.985482 
L 143.460816 -74.985482 
L 143.460816 -74.985482 
L 142.607559 -74.985482 
L 142.607559 -74.985482 
L 130.527224 -74.985482 
L 130.527224 -74.985482 
L 130.347591 -74.985482 
L 130.347591 -74.985482 
L 129.8536 -74.985482 
L 129.8536 -74.985482 
L 128.147084 -74.985482 
L 128.147084 -77.020446 
L 123.566437 -77.020446 
L 123.566437 -79.023403 
L 120.647397 -79.023403 
L 120.647397 -80.995047 
L 118.71634 -80.995047 
L 118.71634 -80.995047 
L 116.785282 -80.995047 
L 116.785282 -82.867629 
L 114.629684 -82.867629 
L 114.629684 -84.715878 
L 113.686609 -84.715878 
L 113.686609 -84.715878 
L 109.734678 -84.715878 
L 109.734678 -84.715878 
L 109.510137 -84.715878 
L 109.510137 -86.427824 
L 103.537332 -86.427824 
L 103.537332 -88.123375 
L 103.402607 -88.123375 
L 103.402607 -89.802676 
L 100.169209 -89.802676 
L 100.169209 -91.465791 
L 99.181226 -91.465791 
L 99.181226 -91.465791 
L 94.376038 -91.465791 
L 94.376038 -91.465791 
L 92.669522 -91.465791 
L 92.669522 -91.465791 
L 91.861173 -91.465791 
L 91.861173 -92.989721 
L 89.705574 -92.989721 
L 89.705574 -92.989721 
L 87.999058 -92.989721 
L 87.999058 -94.466981 
L 87.774517 -94.466981 
L 87.774517 -94.466981 
L 87.41525 -94.466981 
L 87.41525 -95.901616 
L 86.696717 -95.901616 
L 86.696717 -95.901616 
L 86.157818 -95.901616 
L 86.157818 -97.297117 
L 84.720752 -97.297117 
L 84.720752 -98.685458 
L 83.373503 -98.685458 
L 83.373503 -100.066682 
L 82.071162 -100.066682 
L 82.071162 -100.066682 
L 81.891529 -100.066682 
L 81.891529 -101.413644 
L 80.00538 -101.413644 
L 80.00538 -101.413644 
L 78.209047 -101.413644 
L 78.209047 -102.728758 
L 77.849781 -102.728758 
L 77.849781 -102.728758 
L 77.131248 -102.728758 
L 77.131248 -104.014167 
L 76.996523 -104.014167 
L 76.996523 -104.014167 
L 76.592348 -104.014167 
L 76.592348 -105.271783 
L 76.457624 -105.271783 
L 76.457624 -105.271783 
L 76.412715 -105.271783 
L 76.412715 -106.503321 
L 76.098357 -106.503321 
L 76.098357 -106.503321 
L 75.334916 -106.503321 
L 75.334916 -107.710325 
L 74.796016 -107.710325 
L 74.796016 -107.710325 
L 74.571475 -107.710325 
L 74.571475 -108.894193 
L 73.673309 -108.894193 
L 73.673309 -108.894193 
L 72.820051 -108.894193 
L 72.820051 -110.056193 
L 71.607526 -110.056193 
L 71.607526 -111.214697 
L 71.068627 -111.214697 
L 71.068627 -111.214697 
L 70.395002 -111.214697 
L 70.395002 -112.352855 
L 69.901011 -112.352855 
L 69.901011 -113.487765 
L 69.496836 -113.487765 
L 69.496836 -114.619432 
L 68.86812 -114.619432 
L 68.86812 -115.74786 
L 68.419037 -115.74786 
L 68.419037 -115.74786 
L 68.194495 -115.74786 
L 68.194495 -115.74786 
L 67.925045 -115.74786 
L 67.925045 -116.843128 
L 67.251421 -116.843128 
L 67.251421 -117.935534 
L 67.116696 -117.935534 
L 67.116696 -119.025077 
L 66.667613 -119.025077 
L 66.667613 -120.111758 
L 66.532888 -120.111758 
L 66.532888 -121.195574 
L 66.263438 -121.195574 
L 66.263438 -122.276519 
L 66.128713 -122.276519 
L 66.128713 -123.341654 
L 65.634722 -123.341654 
L 65.634722 -124.404056 
L 65.589813 -124.404056 
L 65.589813 -124.404056 
L 65.544905 -124.404056 
L 65.544905 -125.451495 
L 65.455089 -125.451495 
L 65.455089 -126.496322 
L 65.320364 -126.496322 
L 65.320364 -126.496322 
L 65.006005 -126.496322 
L 65.006005 -128.555082 
L 64.197656 -128.555082 
L 64.197656 -130.603763 
L 64.062931 -130.603763 
L 64.062931 -131.62429 
L 63.973114 -131.62429 
L 63.973114 -131.62429 
L 63.883298 -131.62429 
L 63.883298 -131.62429 
L 63.83839 -131.62429 
L 63.83839 -132.62151 
L 63.703665 -132.62151 
L 63.703665 -133.60645 
L 63.613848 -133.60645 
L 63.613848 -134.589117 
L 62.536049 -134.589117 
L 62.536049 -136.547572 
L 62.446232 -136.547572 
L 62.446232 -137.523323 
L 61.862424 -137.523323 
L 61.862424 -138.487671 
L 61.458249 -138.487671 
L 61.458249 -139.449747 
L 61.188799 -139.449747 
L 61.188799 -139.449747 
L 60.964258 -139.449747 
L 60.964258 -139.449747 
L 60.91935 -139.449747 
L 60.91935 -139.449747 
L 60.604991 -139.449747 
L 60.604991 -140.384006 
L 60.290633 -140.384006 
L 60.290633 -140.384006 
L 60.066092 -140.384006 
L 60.066092 -141.308092 
L 60.021183 -141.308092 
L 60.021183 -142.230173 
L 59.976275 -142.230173 
L 59.976275 -143.150233 
L 59.257742 -143.150233 
L 59.257742 -144.068251 
L 59.078109 -144.068251 
L 59.078109 -144.068251 
L 58.718843 -144.068251 
L 58.718843 -144.068251 
L 58.26976 -144.068251 
L 58.26976 -144.068251 
L 58.179943 -144.068251 
L 58.179943 -145.853518 
L 57.955401 -145.853518 
L 57.955401 -146.743313 
L 57.865585 -146.743313 
L 57.865585 -147.631189 
L 57.551227 -147.631189 
L 57.551227 -147.631189 
L 57.281777 -147.631189 
L 57.281777 -148.510239 
L 57.057235 -148.510239 
L 57.057235 -149.387386 
L 56.92251 -149.387386 
L 56.92251 -150.262608 
L 56.832694 -150.262608 
L 56.832694 -150.262608 
L 56.563244 -150.262608 
L 56.563244 -150.262608 
L 56.518336 -150.262608 
L 56.518336 -150.262608 
L 56.338702 -150.262608 
L 56.338702 -150.262608 
L 56.248886 -150.262608 
L 56.248886 -151.943854 
L 56.159069 -151.943854 
L 56.159069 -151.943854 
L 55.979436 -151.943854 
L 55.979436 -152.775952 
L 55.889619 -152.775952 
L 55.889619 -153.60636 
L 55.844711 -153.60636 
L 55.844711 -153.60636 
L 55.754894 -153.60636 
L 55.754894 -153.60636 
L 55.620169 -153.60636 
L 55.620169 -154.41803 
L 55.126178 -154.41803 
L 55.126178 -154.41803 
L 55.08127 -154.41803 
L 55.08127 -155.222635 
L 54.54237 -155.222635 
L 54.54237 -156.025665 
L 54.407645 -156.025665 
L 54.407645 -156.827099 
L 54.362737 -156.827099 
L 54.362737 -157.626914 
L 54.183104 -157.626914 
L 54.183104 -159.221594 
L 53.599296 -159.221594 
L 53.599296 -160.016409 
L 53.240029 -160.016409 
L 53.240029 -160.809504 
L 52.835855 -160.809504 
L 52.835855 -161.600851 
L 52.117322 -161.600851 
L 52.117322 -162.390419 
L 51.847872 -162.390419 
L 51.847872 -163.964091 
L 51.398789 -163.964091 
L 51.398789 -164.748126 
L 51.35388 -164.748126 
L 51.35388 -165.530243 
L 51.264064 -165.530243 
L 51.264064 -166.310404 
L 51.039522 -166.310404 
L 51.039522 -167.864688 
L 50.904797 -167.864688 
L 50.904797 -168.634205 
L 50.859889 -168.634205 
L 50.859889 -169.401631 
L 50.770072 -169.401631 
L 50.770072 -170.166915 
L 50.680256 -170.166915 
L 50.680256 -170.930004 
L 50.276081 -170.930004 
L 50.276081 -171.69084 
L 50.05154 -171.69084 
L 50.05154 -173.205508 
L 49.692273 -173.205508 
L 49.692273 -173.205508 
L 49.647365 -173.205508 
L 49.647365 -173.955074 
L 49.51264 -173.955074 
L 49.51264 -174.702172 
L 49.333007 -174.702172 
L 49.333007 -175.446725 
L 49.198282 -175.446725 
L 49.198282 -176.18865 
L 49.108465 -176.18865 
L 49.108465 -176.92786 
L 48.883924 -176.92786 
L 48.883924 -177.664261 
L 48.614474 -177.664261 
L 48.614474 -178.39775 
L 48.210299 -178.39775 
L 48.210299 -179.128219 
L 48.120482 -179.128219 
L 48.120482 -179.128219 
L 48.030666 -179.128219 
L 48.030666 -179.128219 
L 47.806124 -179.128219 
L 47.806124 -179.848168 
L 47.401949 -179.848168 
L 47.401949 -180.564973 
L 47.177408 -180.564973 
L 47.177408 -181.988608 
L 46.952866 -181.988608 
L 46.952866 -182.695137 
L 46.548692 -182.695137 
L 46.548692 -184.096761 
L 46.32415 -184.096761 
L 46.32415 -184.79146 
L 46.189425 -184.79146 
L 46.189425 -185.481783 
L 46.099609 -185.481783 
L 46.099609 -186.167475 
L 46.009792 -186.167475 
L 46.009792 -186.848252 
L 45.515801 -186.848252 
L 45.515801 -187.523792 
L 45.381076 -187.523792 
L 45.381076 -188.193735 
L 44.931993 -188.193735 
L 44.931993 -188.857669 
L 44.887084 -188.857669 
L 44.887084 -188.857669 
L 44.393093 -188.857669 
L 44.393093 -189.512238 
L 44.078735 -189.512238 
L 44.078735 -190.159901 
L 44.033827 -190.159901 
L 44.033827 -190.800042 
L 43.899102 -190.800042 
L 43.899102 -190.800042 
L 43.809285 -190.800042 
L 43.809285 -191.429286 
L 43.67456 -191.429286 
L 43.67456 -192.04957 
L 43.629652 -192.04957 
L 43.629652 -192.04957 
L 43.584743 -192.04957 
L 43.584743 -192.657414 
L 43.270385 -192.657414 
L 43.270385 -193.254229 
L 43.045844 -193.254229 
L 43.045844 -193.838523 
L 42.731486 -193.838523 
L 42.731486 -194.408414 
L 42.686577 -194.408414 
L 42.686577 -194.95942 
L 42.641669 -194.95942 
L 42.641669 -194.95942 
L 42.506944 -194.95942 
L 42.506944 -194.95942 
L 42.417127 -194.95942 
L 42.417127 -195.486816 
L 42.282403 -195.486816 
L 42.282403 -195.486816 
L 42.192586 -195.486816 
L 42.192586 -195.988817 
L 42.147678 -195.988817 
L 42.147678 -196.461194 
L 42.102769 -196.461194 
L 42.102769 -196.461194 
L 40.890245 -196.461194 
L 40.890245 -196.461194 
L 40.530979 -196.461194 
L 40.530979 -196.890366 
L 40.48607 -196.890366 
L 40.48607 -197.265081 
L 40.396254 -197.265081 
L 40.396254 -197.265081 
L 39.632812 -197.265081 
z
" style="stroke: #e63946; stroke-opacity: 0.2"/>
    </defs>
    <g clip-path="url(#pcb06246496)">
     <use xlink:href="#md9cc61ea20" x="0" y="213.012812" style="fill: #e63946; fill-opacity: 0.2; stroke: #e63946; stroke-opacity: 0.2"/>
    </g>
   </g>
   <g id="line2d_25">
    <defs>
     <path id="m4cf3bb309f" d="M -3 3 
L 3 -3 
M -3 -3 
L 3 3 
" style="stroke: #2e86ab"/>
    </defs>
    <g clip-path="url(#pcb06246496)">
     <use xlink:href="#m4cf3bb309f" x="36.758681" y="15.350476" style="fill: #2e86ab; stroke: #2e86ab"/>
     <use xlink:href="#m4cf3bb309f" x="40.21662" y="15.350476" style="fill: #2e86ab; stroke: #2e86ab"/>
     <use xlink:href="#m4cf3bb309f" x="40.306437" y="15.350476" style="fill: #2e86ab; stroke: #2e86ab"/>
     <use xlink:href="#m4cf3bb309f" x="41.204603" y="15.350476" style="fill: #2e86ab; stroke: #2e86ab"/>
     <use xlink:href="#m4cf3bb309f" x="41.29442" y="15.350476" style="fill: #2e86ab; stroke: #2e86ab"/>
     <use xlink:href="#m4cf3bb309f" x="41.698595" y="15.350476" style="fill: #2e86ab; stroke: #2e86ab"/>
     <use xlink:href="#m4cf3bb309f" x="42.506944" y="16.16962" style="fill: #2e86ab; stroke: #2e86ab"/>
     <use xlink:href="#m4cf3bb309f" x="43.315294" y="16.992921" style="fill: #2e86ab; stroke: #2e86ab"/>
     <use xlink:href="#m4cf3bb309f" x="43.40511" y="16.992921" style="fill: #2e86ab; stroke: #2e86ab"/>
     <use xlink:href="#m4cf3bb309f" x="44.348185" y="16.992921" style="fill: #2e86ab; stroke: #2e86ab"/>
     <use xlink:href="#m4cf3bb309f" x="44.572726" y="16.992921" style="fill: #2e86ab; stroke: #2e86ab"/>
     <use xlink:href="#m4cf3bb309f" x="45.425984" y="17.833374" style="fill: #2e86ab; stroke: #2e86ab"/>
     <use xlink:href="#m4cf3bb309f" x="46.728325" y="17.833374" style="fill: #2e86ab; stroke: #2e86ab"/>
     <use xlink:href="#m4cf3bb309f" x="46.952866" y="17.833374" style="fill: #2e86ab; stroke: #2e86ab"/>
     <use xlink:href="#m4cf3bb309f" x="52.027505" y="22.956565" style="fill: #2e86ab; stroke: #2e86ab"/>
     <use xlink:href="#m4cf3bb309f" x="52.790946" y="22.956565" style="fill: #2e86ab; stroke: #2e86ab"/>
     <use xlink:href="#m4cf3bb309f" x="54.452554" y="24.683269" style="fill: #2e86ab; stroke: #2e86ab"/>
     <use xlink:href="#m4cf3bb309f" x="54.587278" y="24.683269" style="fill: #2e86ab; stroke: #2e86ab"/>
     <use xlink:href="#m4cf3bb309f" x="54.766912" y="24.683269" style="fill: #2e86ab; stroke: #2e86ab"/>
     <use xlink:href="#m4cf3bb309f" x="55.126178" y="26.439575" style="fill: #2e86ab; stroke: #2e86ab"/>
     <use xlink:href="#m4cf3bb309f" x="55.979436" y="26.439575" style="fill: #2e86ab; stroke: #2e86ab"/>
     <use xlink:href="#m4cf3bb309f" x="56.024344" y="26.439575" style="fill: #2e86ab; stroke: #2e86ab"/>
     <use xlink:href="#m4cf3bb309f" x="56.069253" y="26.439575" style="fill: #2e86ab; stroke: #2e86ab"/>
     <use xlink:href="#m4cf3bb309f" x="56.159069" y="26.439575" style="fill: #2e86ab; stroke: #2e86ab"/>
     <use xlink:href="#m4cf3bb309f" x="56.203977" y="26.439575" style="fill: #2e86ab; stroke: #2e86ab"/>
     <use xlink:href="#m4cf3bb309f" x="56.338702" y="26.439575" style="fill: #2e86ab; stroke: #2e86ab"/>
     <use xlink:href="#m4cf3bb309f" x="56.383611" y="26.439575" style="fill: #2e86ab; stroke: #2e86ab"/>
     <use xlink:href="#m4cf3bb309f" x="56.653061" y="26.439575" style="fill: #2e86ab; stroke: #2e86ab"/>
     <use xlink:href="#m4cf3bb309f" x="56.787785" y="26.439575" style="fill: #2e86ab; stroke: #2e86ab"/>
     <use xlink:href="#m4cf3bb309f" x="56.877602" y="26.439575" style="fill: #2e86ab; stroke: #2e86ab"/>
     <use xlink:href="#m4cf3bb309f" x="57.102144" y="28.326785" style="fill: #2e86ab; stroke: #2e86ab"/>
     <use xlink:href="#m4cf3bb309f" x="57.326685" y="29.276363" style="fill: #2e86ab; stroke: #2e86ab"/>
     <use xlink:href="#m4cf3bb309f" x="57.506318" y="29.276363" style="fill: #2e86ab; stroke: #2e86ab"/>
     <use xlink:href="#m4cf3bb309f" x="58.045218" y="30.244438" style="fill: #2e86ab; stroke: #2e86ab"/>
     <use xlink:href="#m4cf3bb309f" x="58.26976" y="32.193327" style="fill: #2e86ab; stroke: #2e86ab"/>
     <use xlink:href="#m4cf3bb309f" x="58.314668" y="32.193327" style="fill: #2e86ab; stroke: #2e86ab"/>
     <use xlink:href="#m4cf3bb309f" x="58.853568" y="33.18094" style="fill: #2e86ab; stroke: #2e86ab"/>
     <use xlink:href="#m4cf3bb309f" x="60.066092" y="34.182175" style="fill: #2e86ab; stroke: #2e86ab"/>
     <use xlink:href="#m4cf3bb309f" x="60.155908" y="34.182175" style="fill: #2e86ab; stroke: #2e86ab"/>
     <use xlink:href="#m4cf3bb309f" x="60.560083" y="35.197511" style="fill: #2e86ab; stroke: #2e86ab"/>
     <use xlink:href="#m4cf3bb309f" x="60.604991" y="36.227457" style="fill: #2e86ab; stroke: #2e86ab"/>
     <use xlink:href="#m4cf3bb309f" x="60.694808" y="36.227457" style="fill: #2e86ab; stroke: #2e86ab"/>
     <use xlink:href="#m4cf3bb309f" x="61.054075" y="37.27255" style="fill: #2e86ab; stroke: #2e86ab"/>
     <use xlink:href="#m4cf3bb309f" x="61.233708" y="37.27255" style="fill: #2e86ab; stroke: #2e86ab"/>
     <use xlink:href="#m4cf3bb309f" x="61.368433" y="37.27255" style="fill: #2e86ab; stroke: #2e86ab"/>
     <use xlink:href="#m4cf3bb309f" x="61.413341" y="37.27255" style="fill: #2e86ab; stroke: #2e86ab"/>
     <use xlink:href="#m4cf3bb309f" x="61.682791" y="37.27255" style="fill: #2e86ab; stroke: #2e86ab"/>
     <use xlink:href="#m4cf3bb309f" x="61.862424" y="38.357838" style="fill: #2e86ab; stroke: #2e86ab"/>
     <use xlink:href="#m4cf3bb309f" x="62.22169" y="38.357838" style="fill: #2e86ab; stroke: #2e86ab"/>
     <use xlink:href="#m4cf3bb309f" x="62.401324" y="38.357838" style="fill: #2e86ab; stroke: #2e86ab"/>
     <use xlink:href="#m4cf3bb309f" x="62.446232" y="38.357838" style="fill: #2e86ab; stroke: #2e86ab"/>
     <use xlink:href="#m4cf3bb309f" x="62.625865" y="38.357838" style="fill: #2e86ab; stroke: #2e86ab"/>
     <use xlink:href="#m4cf3bb309f" x="63.074948" y="39.486887" style="fill: #2e86ab; stroke: #2e86ab"/>
     <use xlink:href="#m4cf3bb309f" x="63.164765" y="39.486887" style="fill: #2e86ab; stroke: #2e86ab"/>
     <use xlink:href="#m4cf3bb309f" x="63.703665" y="40.634599" style="fill: #2e86ab; stroke: #2e86ab"/>
     <use xlink:href="#m4cf3bb309f" x="63.83839" y="40.634599" style="fill: #2e86ab; stroke: #2e86ab"/>
     <use xlink:href="#m4cf3bb309f" x="64.152748" y="41.801763" style="fill: #2e86ab; stroke: #2e86ab"/>
     <use xlink:href="#m4cf3bb309f" x="64.781464" y="42.97899" style="fill: #2e86ab; stroke: #2e86ab"/>
     <use xlink:href="#m4cf3bb309f" x="64.871281" y="42.97899" style="fill: #2e86ab; stroke: #2e86ab"/>
     <use xlink:href="#m4cf3bb309f" x="65.320364" y="42.97899" style="fill: #2e86ab; stroke: #2e86ab"/>
     <use xlink:href="#m4cf3bb309f" x="65.365272" y="42.97899" style="fill: #2e86ab; stroke: #2e86ab"/>
     <use xlink:href="#m4cf3bb309f" x="65.589813" y="42.97899" style="fill: #2e86ab; stroke: #2e86ab"/>
     <use xlink:href="#m4cf3bb309f" x="65.67963" y="42.97899" style="fill: #2e86ab; stroke: #2e86ab"/>
     <use xlink:href="#m4cf3bb309f" x="65.724538" y="42.97899" style="fill: #2e86ab; stroke: #2e86ab"/>
     <use xlink:href="#m4cf3bb309f" x="65.769447" y="42.97899" style="fill: #2e86ab; stroke: #2e86ab"/>
     <use xlink:href="#m4cf3bb309f" x="66.038897" y="42.97899" style="fill: #2e86ab; stroke: #2e86ab"/>
     <use xlink:href="#m4cf3bb309f" x="66.712521" y="42.97899" style="fill: #2e86ab; stroke: #2e86ab"/>
     <use xlink:href="#m4cf3bb309f" x="67.026879" y="42.97899" style="fill: #2e86ab; stroke: #2e86ab"/>
     <use xlink:href="#m4cf3bb309f" x="67.386146" y="44.28073" style="fill: #2e86ab; stroke: #2e86ab"/>
     <use xlink:href="#m4cf3bb309f" x="68.05977" y="45.595233" style="fill: #2e86ab; stroke: #2e86ab"/>
     <use xlink:href="#m4cf3bb309f" x="68.284312" y="45.595233" style="fill: #2e86ab; stroke: #2e86ab"/>
     <use xlink:href="#m4cf3bb309f" x="68.374128" y="45.595233" style="fill: #2e86ab; stroke: #2e86ab"/>
     <use xlink:href="#m4cf3bb309f" x="68.463945" y="45.595233" style="fill: #2e86ab; stroke: #2e86ab"/>
     <use xlink:href="#m4cf3bb309f" x="68.643578" y="45.595233" style="fill: #2e86ab; stroke: #2e86ab"/>
     <use xlink:href="#m4cf3bb309f" x="68.733395" y="45.595233" style="fill: #2e86ab; stroke: #2e86ab"/>
     <use xlink:href="#m4cf3bb309f" x="68.778303" y="45.595233" style="fill: #2e86ab; stroke: #2e86ab"/>
     <use xlink:href="#m4cf3bb309f" x="69.496836" y="45.595233" style="fill: #2e86ab; stroke: #2e86ab"/>
     <use xlink:href="#m4cf3bb309f" x="70.664452" y="48.450389" style="fill: #2e86ab; stroke: #2e86ab"/>
     <use xlink:href="#m4cf3bb309f" x="71.023719" y="49.893829" style="fill: #2e86ab; stroke: #2e86ab"/>
     <use xlink:href="#m4cf3bb309f" x="72.460784" y="52.813515" style="fill: #2e86ab; stroke: #2e86ab"/>
     <use xlink:href="#m4cf3bb309f" x="73.314042" y="54.290532" style="fill: #2e86ab; stroke: #2e86ab"/>
     <use xlink:href="#m4cf3bb309f" x="73.808033" y="54.290532" style="fill: #2e86ab; stroke: #2e86ab"/>
     <use xlink:href="#m4cf3bb309f" x="74.346933" y="54.290532" style="fill: #2e86ab; stroke: #2e86ab"/>
     <use xlink:href="#m4cf3bb309f" x="75.065466" y="54.290532" style="fill: #2e86ab; stroke: #2e86ab"/>
     <use xlink:href="#m4cf3bb309f" x="75.469641" y="54.290532" style="fill: #2e86ab; stroke: #2e86ab"/>
     <use xlink:href="#m4cf3bb309f" x="75.514549" y="54.290532" style="fill: #2e86ab; stroke: #2e86ab"/>
     <use xlink:href="#m4cf3bb309f" x="76.143265" y="54.290532" style="fill: #2e86ab; stroke: #2e86ab"/>
     <use xlink:href="#m4cf3bb309f" x="76.996523" y="54.290532" style="fill: #2e86ab; stroke: #2e86ab"/>
     <use xlink:href="#m4cf3bb309f" x="77.35579" y="54.290532" style="fill: #2e86ab; stroke: #2e86ab"/>
     <use xlink:href="#m4cf3bb309f" x="77.445606" y="54.290532" style="fill: #2e86ab; stroke: #2e86ab"/>
     <use xlink:href="#m4cf3bb309f" x="78.433589" y="55.967147" style="fill: #2e86ab; stroke: #2e86ab"/>
     <use xlink:href="#m4cf3bb309f" x="78.837764" y="55.967147" style="fill: #2e86ab; stroke: #2e86ab"/>
     <use xlink:href="#m4cf3bb309f" x="79.46648" y="55.967147" style="fill: #2e86ab; stroke: #2e86ab"/>
     <use xlink:href="#m4cf3bb309f" x="79.73593" y="55.967147" style="fill: #2e86ab; stroke: #2e86ab"/>
     <use xlink:href="#m4cf3bb309f" x="79.915563" y="55.967147" style="fill: #2e86ab; stroke: #2e86ab"/>
     <use xlink:href="#m4cf3bb309f" x="80.319738" y="57.767042" style="fill: #2e86ab; stroke: #2e86ab"/>
     <use xlink:href="#m4cf3bb309f" x="80.993362" y="57.767042" style="fill: #2e86ab; stroke: #2e86ab"/>
     <use xlink:href="#m4cf3bb309f" x="84.406394" y="59.622318" style="fill: #2e86ab; stroke: #2e86ab"/>
     <use xlink:href="#m4cf3bb309f" x="84.675844" y="59.622318" style="fill: #2e86ab; stroke: #2e86ab"/>
     <use xlink:href="#m4cf3bb309f" x="85.84346" y="63.452566" style="fill: #2e86ab; stroke: #2e86ab"/>
     <use xlink:href="#m4cf3bb309f" x="88.582866" y="63.452566" style="fill: #2e86ab; stroke: #2e86ab"/>
     <use xlink:href="#m4cf3bb309f" x="88.762499" y="63.452566" style="fill: #2e86ab; stroke: #2e86ab"/>
     <use xlink:href="#m4cf3bb309f" x="89.391216" y="63.452566" style="fill: #2e86ab; stroke: #2e86ab"/>
     <use xlink:href="#m4cf3bb309f" x="89.481032" y="63.452566" style="fill: #2e86ab; stroke: #2e86ab"/>
     <use xlink:href="#m4cf3bb309f" x="90.244474" y="63.452566" style="fill: #2e86ab; stroke: #2e86ab"/>
     <use xlink:href="#m4cf3bb309f" x="92.355164" y="63.452566" style="fill: #2e86ab; stroke: #2e86ab"/>
     <use xlink:href="#m4cf3bb309f" x="92.894064" y="63.452566" style="fill: #2e86ab; stroke: #2e86ab"/>
     <use xlink:href="#m4cf3bb309f" x="100.259026" y="65.662324" style="fill: #2e86ab; stroke: #2e86ab"/>
     <use xlink:href="#m4cf3bb309f" x="101.157192" y="67.916278" style="fill: #2e86ab; stroke: #2e86ab"/>
     <use xlink:href="#m4cf3bb309f" x="104.92949" y="67.916278" style="fill: #2e86ab; stroke: #2e86ab"/>
     <use xlink:href="#m4cf3bb309f" x="104.974398" y="67.916278" style="fill: #2e86ab; stroke: #2e86ab"/>
     <use xlink:href="#m4cf3bb309f" x="105.198939" y="67.916278" style="fill: #2e86ab; stroke: #2e86ab"/>
     <use xlink:href="#m4cf3bb309f" x="106.052197" y="67.916278" style="fill: #2e86ab; stroke: #2e86ab"/>
     <use xlink:href="#m4cf3bb309f" x="107.983254" y="67.916278" style="fill: #2e86ab; stroke: #2e86ab"/>
     <use xlink:href="#m4cf3bb309f" x="108.297613" y="67.916278" style="fill: #2e86ab; stroke: #2e86ab"/>
     <use xlink:href="#m4cf3bb309f" x="108.701787" y="67.916278" style="fill: #2e86ab; stroke: #2e86ab"/>
     <use xlink:href="#m4cf3bb309f" x="108.881421" y="67.916278" style="fill: #2e86ab; stroke: #2e86ab"/>
     <use xlink:href="#m4cf3bb309f" x="110.677753" y="67.916278" style="fill: #2e86ab; stroke: #2e86ab"/>
     <use xlink:href="#m4cf3bb309f" x="111.665736" y="67.916278" style="fill: #2e86ab; stroke: #2e86ab"/>
     <use xlink:href="#m4cf3bb309f" x="112.429177" y="67.916278" style="fill: #2e86ab; stroke: #2e86ab"/>
     <use xlink:href="#m4cf3bb309f" x="113.237526" y="67.916278" style="fill: #2e86ab; stroke: #2e86ab"/>
     <use xlink:href="#m4cf3bb309f" x="116.336199" y="67.916278" style="fill: #2e86ab; stroke: #2e86ab"/>
     <use xlink:href="#m4cf3bb309f" x="116.605649" y="67.916278" style="fill: #2e86ab; stroke: #2e86ab"/>
     <use xlink:href="#m4cf3bb309f" x="119.839047" y="67.916278" style="fill: #2e86ab; stroke: #2e86ab"/>
     <use xlink:href="#m4cf3bb309f" x="120.108497" y="67.916278" style="fill: #2e86ab; stroke: #2e86ab"/>
     <use xlink:href="#m4cf3bb309f" x="120.737213" y="67.916278" style="fill: #2e86ab; stroke: #2e86ab"/>
     <use xlink:href="#m4cf3bb309f" x="121.815013" y="67.916278" style="fill: #2e86ab; stroke: #2e86ab"/>
     <use xlink:href="#m4cf3bb309f" x="122.488637" y="67.916278" style="fill: #2e86ab; stroke: #2e86ab"/>
     <use xlink:href="#m4cf3bb309f" x="124.240061" y="67.916278" style="fill: #2e86ab; stroke: #2e86ab"/>
     <use xlink:href="#m4cf3bb309f" x="125.497494" y="67.916278" style="fill: #2e86ab; stroke: #2e86ab"/>
     <use xlink:href="#m4cf3bb309f" x="127.069285" y="67.916278" style="fill: #2e86ab; stroke: #2e86ab"/>
     <use xlink:href="#m4cf3bb309f" x="127.159101" y="67.916278" style="fill: #2e86ab; stroke: #2e86ab"/>
     <use xlink:href="#m4cf3bb309f" x="127.293826" y="67.916278" style="fill: #2e86ab; stroke: #2e86ab"/>
     <use xlink:href="#m4cf3bb309f" x="129.808691" y="67.916278" style="fill: #2e86ab; stroke: #2e86ab"/>
     <use xlink:href="#m4cf3bb309f" x="130.661949" y="72.718179" style="fill: #2e86ab; stroke: #2e86ab"/>
     <use xlink:href="#m4cf3bb309f" x="131.42539" y="72.718179" style="fill: #2e86ab; stroke: #2e86ab"/>
     <use xlink:href="#m4cf3bb309f" x="131.649932" y="72.718179" style="fill: #2e86ab; stroke: #2e86ab"/>
     <use xlink:href="#m4cf3bb309f" x="134.34443" y="72.718179" style="fill: #2e86ab; stroke: #2e86ab"/>
     <use xlink:href="#m4cf3bb309f" x="135.691679" y="72.718179" style="fill: #2e86ab; stroke: #2e86ab"/>
     <use xlink:href="#m4cf3bb309f" x="137.398195" y="72.718179" style="fill: #2e86ab; stroke: #2e86ab"/>
     <use xlink:href="#m4cf3bb309f" x="144.269166" y="72.718179" style="fill: #2e86ab; stroke: #2e86ab"/>
     <use xlink:href="#m4cf3bb309f" x="145.257149" y="72.718179" style="fill: #2e86ab; stroke: #2e86ab"/>
     <use xlink:href="#m4cf3bb309f" x="148.445638" y="72.718179" style="fill: #2e86ab; stroke: #2e86ab"/>
     <use xlink:href="#m4cf3bb309f" x="157.517116" y="72.718179" style="fill: #2e86ab; stroke: #2e86ab"/>
     <use xlink:href="#m4cf3bb309f" x="158.909274" y="72.718179" style="fill: #2e86ab; stroke: #2e86ab"/>
     <use xlink:href="#m4cf3bb309f" x="161.019964" y="72.718179" style="fill: #2e86ab; stroke: #2e86ab"/>
     <use xlink:href="#m4cf3bb309f" x="164.926987" y="72.718179" style="fill: #2e86ab; stroke: #2e86ab"/>
     <use xlink:href="#m4cf3bb309f" x="168.429835" y="72.718179" style="fill: #2e86ab; stroke: #2e86ab"/>
     <use xlink:href="#m4cf3bb309f" x="169.238184" y="72.718179" style="fill: #2e86ab; stroke: #2e86ab"/>
     <use xlink:href="#m4cf3bb309f" x="172.741032" y="72.718179" style="fill: #2e86ab; stroke: #2e86ab"/>
     <use xlink:href="#m4cf3bb309f" x="190.704354" y="72.718179" style="fill: #2e86ab; stroke: #2e86ab"/>
     <use xlink:href="#m4cf3bb309f" x="193.758119" y="72.718179" style="fill: #2e86ab; stroke: #2e86ab"/>
     <use xlink:href="#m4cf3bb309f" x="211.047817" y="72.718179" style="fill: #2e86ab; stroke: #2e86ab"/>
     <use xlink:href="#m4cf3bb309f" x="262.692369" y="72.718179" style="fill: #2e86ab; stroke: #2e86ab"/>
     <use xlink:href="#m4cf3bb309f" x="266.015584" y="72.718179" style="fill: #2e86ab; stroke: #2e86ab"/>
     <use xlink:href="#m4cf3bb309f" x="266.419759" y="72.718179" style="fill: #2e86ab; stroke: #2e86ab"/>
    </g>
   </g>
   <g id="line2d_26">
    <path d="M 36.758681 15.350476 
L 42.147678 15.350476 
L 42.147678 16.16962 
L 42.551852 16.16962 
L 42.551852 16.992921 
L 45.111626 16.992921 
L 45.111626 17.833374 
L 48.614474 17.833374 
L 48.614474 18.68724 
L 48.839015 18.68724 
L 48.839015 19.541105 
L 50.994614 19.541105 
L 50.994614 20.39497 
L 51.219155 20.39497 
L 51.219155 21.248835 
L 51.89278 21.248835 
L 51.937688 22.956565 
L 52.835855 22.956565 
L 52.835855 23.819917 
L 54.048379 23.819917 
L 54.048379 24.683269 
L 54.901637 24.683269 
L 54.901637 25.561422 
L 55.08127 25.561422 
L 55.08127 26.439575 
L 55.126178 26.439575 
L 56.92251 26.439575 
L 56.967419 28.326785 
L 57.19196 28.326785 
L 57.19196 29.276363 
L 57.596135 29.276363 
L 57.596135 30.244438 
L 58.179943 30.244438 
L 58.26976 32.193327 
L 58.404484 32.193327 
L 58.404484 33.18094 
L 59.123017 33.18094 
L 59.123017 34.182175 
L 60.290633 34.182175 
L 60.290633 35.197511 
L 60.604991 35.197511 
L 60.604991 36.227457 
L 60.694808 36.227457 
L 60.91935 36.227457 
L 60.91935 37.27255 
L 61.727699 37.27255 
L 61.727699 38.357838 
L 63.074948 38.357838 
L 63.074948 39.486887 
L 63.164765 39.486887 
L 63.434215 39.486887 
L 63.434215 40.634599 
L 64.062931 40.634599 
L 64.062931 41.801763 
L 64.152748 41.801763 
L 64.332381 41.801763 
L 64.332381 42.97899 
L 67.341237 42.97899 
L 67.341237 44.28073 
L 67.386146 44.28073 
L 67.610687 44.28073 
L 67.610687 45.595233 
L 70.170461 45.595233 
L 70.170461 47.022811 
L 70.619544 47.022811 
L 70.619544 48.450389 
L 70.664452 48.450389 
L 70.888994 48.450389 
L 70.888994 49.893829 
L 71.338077 49.893829 
L 71.338077 51.353672 
L 71.921885 51.353672 
L 71.921885 52.813515 
L 72.595509 52.813515 
L 72.595509 54.290532 
L 78.433589 54.290532 
L 78.433589 55.967147 
L 80.229921 55.967147 
L 80.229921 57.767042 
L 80.319738 57.767042 
L 82.250795 57.767042 
L 82.250795 59.622318 
L 84.76566 59.622318 
L 84.76566 61.537442 
L 84.900385 61.537442 
L 84.900385 63.452566 
L 96.666361 63.452566 
L 96.666361 65.662324 
L 101.022467 65.662324 
L 101.022467 67.916278 
L 130.347591 67.916278 
L 130.347591 72.718179 
L 266.419759 72.718179 
L 266.419759 72.718179 
" clip-path="url(#pcb06246496)" style="fill: none; stroke: #2e86ab; stroke-width: 2; stroke-linecap: round"/>
   </g>
   <g id="line2d_27">
    <defs>
     <path id="m43a73a921f" d="M -3 3 
L 3 -3 
M -3 -3 
L 3 3 
" style="stroke: #e63946"/>
    </defs>
    <g clip-path="url(#pcb06246496)">
     <use xlink:href="#m43a73a921f" x="39.632812" y="16.933093" style="fill: #e63946; stroke: #e63946"/>
     <use xlink:href="#m43a73a921f" x="40.396254" y="16.933093" style="fill: #e63946; stroke: #e63946"/>
     <use xlink:href="#m43a73a921f" x="40.530979" y="18.531379" style="fill: #e63946; stroke: #e63946"/>
     <use xlink:href="#m43a73a921f" x="40.890245" y="18.531379" style="fill: #e63946; stroke: #e63946"/>
     <use xlink:href="#m43a73a921f" x="42.102769" y="18.531379" style="fill: #e63946; stroke: #e63946"/>
     <use xlink:href="#m43a73a921f" x="42.282403" y="20.154005" style="fill: #e63946; stroke: #e63946"/>
     <use xlink:href="#m43a73a921f" x="42.506944" y="20.9695" style="fill: #e63946; stroke: #e63946"/>
     <use xlink:href="#m43a73a921f" x="42.641669" y="20.9695" style="fill: #e63946; stroke: #e63946"/>
     <use xlink:href="#m43a73a921f" x="42.686577" y="21.793534" style="fill: #e63946; stroke: #e63946"/>
     <use xlink:href="#m43a73a921f" x="43.629652" y="25.10711" style="fill: #e63946; stroke: #e63946"/>
     <use xlink:href="#m43a73a921f" x="43.899102" y="26.772902" style="fill: #e63946; stroke: #e63946"/>
     <use xlink:href="#m43a73a921f" x="44.887084" y="29.285395" style="fill: #e63946; stroke: #e63946"/>
     <use xlink:href="#m43a73a921f" x="48.030666" y="41.076607" style="fill: #e63946; stroke: #e63946"/>
     <use xlink:href="#m43a73a921f" x="48.120482" y="41.076607" style="fill: #e63946; stroke: #e63946"/>
     <use xlink:href="#m43a73a921f" x="49.692273" y="47.898142" style="fill: #e63946; stroke: #e63946"/>
     <use xlink:href="#m43a73a921f" x="50.904797" y="53.906254" style="fill: #e63946; stroke: #e63946"/>
     <use xlink:href="#m43a73a921f" x="55.126178" y="68.59871" style="fill: #e63946; stroke: #e63946"/>
     <use xlink:href="#m43a73a921f" x="55.754894" y="69.469831" style="fill: #e63946; stroke: #e63946"/>
     <use xlink:href="#m43a73a921f" x="55.844711" y="69.469831" style="fill: #e63946; stroke: #e63946"/>
     <use xlink:href="#m43a73a921f" x="56.159069" y="71.254916" style="fill: #e63946; stroke: #e63946"/>
     <use xlink:href="#m43a73a921f" x="56.248886" y="73.055002" style="fill: #e63946; stroke: #e63946"/>
     <use xlink:href="#m43a73a921f" x="56.338702" y="73.055002" style="fill: #e63946; stroke: #e63946"/>
     <use xlink:href="#m43a73a921f" x="56.518336" y="73.055002" style="fill: #e63946; stroke: #e63946"/>
     <use xlink:href="#m43a73a921f" x="56.563244" y="73.055002" style="fill: #e63946; stroke: #e63946"/>
     <use xlink:href="#m43a73a921f" x="56.832694" y="73.055002" style="fill: #e63946; stroke: #e63946"/>
     <use xlink:href="#m43a73a921f" x="57.551227" y="75.875671" style="fill: #e63946; stroke: #e63946"/>
     <use xlink:href="#m43a73a921f" x="58.26976" y="79.671387" style="fill: #e63946; stroke: #e63946"/>
     <use xlink:href="#m43a73a921f" x="58.718843" y="79.671387" style="fill: #e63946; stroke: #e63946"/>
     <use xlink:href="#m43a73a921f" x="59.078109" y="79.671387" style="fill: #e63946; stroke: #e63946"/>
     <use xlink:href="#m43a73a921f" x="60.290633" y="83.579847" style="fill: #e63946; stroke: #e63946"/>
     <use xlink:href="#m43a73a921f" x="60.91935" y="84.56714" style="fill: #e63946; stroke: #e63946"/>
     <use xlink:href="#m43a73a921f" x="60.964258" y="84.56714" style="fill: #e63946; stroke: #e63946"/>
     <use xlink:href="#m43a73a921f" x="61.188799" y="84.56714" style="fill: #e63946; stroke: #e63946"/>
     <use xlink:href="#m43a73a921f" x="61.862424" y="86.606115" style="fill: #e63946; stroke: #e63946"/>
     <use xlink:href="#m43a73a921f" x="63.703665" y="91.760828" style="fill: #e63946; stroke: #e63946"/>
     <use xlink:href="#m43a73a921f" x="63.883298" y="92.804192" style="fill: #e63946; stroke: #e63946"/>
     <use xlink:href="#m43a73a921f" x="63.973114" y="92.804192" style="fill: #e63946; stroke: #e63946"/>
     <use xlink:href="#m43a73a921f" x="65.320364" y="98.15143" style="fill: #e63946; stroke: #e63946"/>
     <use xlink:href="#m43a73a921f" x="65.589813" y="100.319229" style="fill: #e63946; stroke: #e63946"/>
     <use xlink:href="#m43a73a921f" x="66.128713" y="102.51756" style="fill: #e63946; stroke: #e63946"/>
     <use xlink:href="#m43a73a921f" x="68.194495" y="109.20954" style="fill: #e63946; stroke: #e63946"/>
     <use xlink:href="#m43a73a921f" x="68.419037" y="109.20954" style="fill: #e63946; stroke: #e63946"/>
     <use xlink:href="#m43a73a921f" x="71.068627" y="113.819571" style="fill: #e63946; stroke: #e63946"/>
     <use xlink:href="#m43a73a921f" x="73.673309" y="116.166496" style="fill: #e63946; stroke: #e63946"/>
     <use xlink:href="#m43a73a921f" x="74.796016" y="117.362525" style="fill: #e63946; stroke: #e63946"/>
     <use xlink:href="#m43a73a921f" x="76.098357" y="118.582474" style="fill: #e63946; stroke: #e63946"/>
     <use xlink:href="#m43a73a921f" x="76.457624" y="119.827839" style="fill: #e63946; stroke: #e63946"/>
     <use xlink:href="#m43a73a921f" x="76.996523" y="121.100277" style="fill: #e63946; stroke: #e63946"/>
     <use xlink:href="#m43a73a921f" x="77.849781" y="122.401635" style="fill: #e63946; stroke: #e63946"/>
     <use xlink:href="#m43a73a921f" x="80.00538" y="123.733977" style="fill: #e63946; stroke: #e63946"/>
     <use xlink:href="#m43a73a921f" x="82.071162" y="125.099627" style="fill: #e63946; stroke: #e63946"/>
     <use xlink:href="#m43a73a921f" x="86.696717" y="129.304394" style="fill: #e63946; stroke: #e63946"/>
     <use xlink:href="#m43a73a921f" x="87.774517" y="130.747206" style="fill: #e63946; stroke: #e63946"/>
     <use xlink:href="#m43a73a921f" x="89.705574" y="132.235105" style="fill: #e63946; stroke: #e63946"/>
     <use xlink:href="#m43a73a921f" x="92.669522" y="133.772602" style="fill: #e63946; stroke: #e63946"/>
     <use xlink:href="#m43a73a921f" x="94.376038" y="133.772602" style="fill: #e63946; stroke: #e63946"/>
     <use xlink:href="#m43a73a921f" x="99.181226" y="133.772602" style="fill: #e63946; stroke: #e63946"/>
     <use xlink:href="#m43a73a921f" x="109.734678" y="140.632202" style="fill: #e63946; stroke: #e63946"/>
     <use xlink:href="#m43a73a921f" x="113.686609" y="140.632202" style="fill: #e63946; stroke: #e63946"/>
     <use xlink:href="#m43a73a921f" x="118.71634" y="144.404981" style="fill: #e63946; stroke: #e63946"/>
     <use xlink:href="#m43a73a921f" x="129.8536" y="150.397044" style="fill: #e63946; stroke: #e63946"/>
     <use xlink:href="#m43a73a921f" x="130.347591" y="150.397044" style="fill: #e63946; stroke: #e63946"/>
     <use xlink:href="#m43a73a921f" x="130.527224" y="150.397044" style="fill: #e63946; stroke: #e63946"/>
     <use xlink:href="#m43a73a921f" x="142.607559" y="150.397044" style="fill: #e63946; stroke: #e63946"/>
     <use xlink:href="#m43a73a921f" x="143.460816" y="150.397044" style="fill: #e63946; stroke: #e63946"/>
     <use xlink:href="#m43a73a921f" x="146.514581" y="150.397044" style="fill: #e63946; stroke: #e63946"/>
     <use xlink:href="#m43a73a921f" x="174.851722" y="160.883152" style="fill: #e63946; stroke: #e63946"/>
     <use xlink:href="#m43a73a921f" x="193.21922" y="165.252364" style="fill: #e63946; stroke: #e63946"/>
     <use xlink:href="#m43a73a921f" x="211.856167" y="165.252364" style="fill: #e63946; stroke: #e63946"/>
     <use xlink:href="#m43a73a921f" x="218.412779" y="165.252364" style="fill: #e63946; stroke: #e63946"/>
    </g>
   </g>
   <g id="line2d_28">
    <path d="M 39.632812 16.933093 
L 40.48607 16.933093 
L 40.530979 18.531379 
L 42.147678 18.531379 
L 42.192586 20.154005 
L 42.417127 20.154005 
L 42.417127 20.9695 
L 42.506944 20.9695 
L 42.686577 20.9695 
L 42.731486 22.621928 
L 43.045844 22.621928 
L 43.045844 23.450322 
L 43.270385 23.450322 
L 43.270385 24.278716 
L 43.584743 24.278716 
L 43.67456 25.940006 
L 43.809285 25.940006 
L 43.809285 26.772902 
L 43.899102 26.772902 
L 44.033827 26.772902 
L 44.078735 28.447897 
L 44.393093 28.447897 
L 44.393093 29.285395 
L 44.931993 29.285395 
L 44.931993 30.127625 
L 45.381076 30.127625 
L 45.381076 30.969854 
L 45.515801 30.969854 
L 45.515801 31.812083 
L 46.009792 31.812083 
L 46.099609 33.496542 
L 46.189425 33.496542 
L 46.189425 34.338772 
L 46.32415 34.338772 
L 46.32415 35.181001 
L 46.548692 35.181001 
L 46.548692 36.86546 
L 46.952866 36.86546 
L 46.952866 37.707689 
L 47.177408 37.707689 
L 47.177408 39.392148 
L 47.401949 39.392148 
L 47.401949 40.234377 
L 47.806124 40.234377 
L 47.806124 41.076607 
L 48.210299 41.076607 
L 48.210299 41.929299 
L 48.614474 41.929299 
L 48.614474 42.781991 
L 48.883924 42.781991 
L 48.883924 43.634683 
L 49.108465 43.634683 
L 49.198282 45.340066 
L 49.333007 45.340066 
L 49.333007 46.192758 
L 49.51264 46.192758 
L 49.51264 47.04545 
L 49.647365 47.04545 
L 49.647365 47.898142 
L 49.692273 47.898142 
L 50.05154 47.898142 
L 50.05154 49.614745 
L 50.276081 49.614745 
L 50.276081 50.473047 
L 50.680256 50.473047 
L 50.770072 52.18965 
L 50.859889 52.18965 
L 50.904797 53.906254 
L 51.039522 53.906254 
L 51.039522 55.634778 
L 51.264064 55.634778 
L 51.35388 57.363302 
L 51.398789 57.363302 
L 51.398789 58.227564 
L 51.847872 58.227564 
L 51.847872 59.956089 
L 52.117322 59.956089 
L 52.117322 60.820351 
L 52.835855 60.820351 
L 52.835855 61.684613 
L 53.240029 61.684613 
L 53.240029 62.548875 
L 53.599296 62.548875 
L 53.599296 63.413137 
L 54.183104 63.413137 
L 54.183104 65.141661 
L 54.362737 65.141661 
L 54.407645 66.870186 
L 54.54237 66.870186 
L 54.54237 67.734448 
L 55.08127 67.734448 
L 55.08127 68.59871 
L 55.126178 68.59871 
L 55.620169 68.59871 
L 55.620169 69.469831 
L 55.889619 69.469831 
L 55.979436 71.254916 
L 56.248886 71.254916 
L 56.248886 73.055002 
L 56.338702 73.055002 
L 56.92251 73.055002 
L 56.92251 73.995225 
L 57.057235 73.995225 
L 57.057235 74.935448 
L 57.281777 74.935448 
L 57.281777 75.875671 
L 57.865585 75.875671 
L 57.955401 77.773529 
L 58.179943 77.773529 
L 58.179943 79.671387 
L 58.26976 79.671387 
L 59.257742 79.671387 
L 59.257742 80.648502 
L 59.976275 80.648502 
L 60.066092 83.579847 
L 60.604991 83.579847 
L 60.604991 84.56714 
L 61.458249 84.56714 
L 61.458249 85.586628 
L 61.862424 85.586628 
L 61.862424 86.606115 
L 62.446232 86.606115 
L 62.536049 89.698943 
L 63.613848 89.698943 
L 63.703665 91.760828 
L 63.83839 91.760828 
L 63.83839 92.804192 
L 63.883298 92.804192 
L 64.062931 92.804192 
L 64.062931 93.873639 
L 64.197656 93.873639 
L 64.197656 96.012534 
L 65.006005 96.012534 
L 65.006005 98.15143 
L 65.455089 98.15143 
L 65.544905 100.319229 
L 65.634722 100.319229 
L 65.634722 101.418395 
L 66.128713 101.418395 
L 66.128713 102.51756 
L 66.263438 102.51756 
L 66.263438 103.63289 
L 66.532888 103.63289 
L 66.532888 104.74822 
L 66.667613 104.74822 
L 66.667613 105.86355 
L 67.116696 105.86355 
L 67.116696 106.97888 
L 67.251421 106.97888 
L 67.251421 108.09421 
L 67.925045 108.09421 
L 67.925045 109.20954 
L 68.86812 109.20954 
L 68.86812 110.362048 
L 69.496836 110.362048 
L 69.496836 111.514556 
L 69.901011 111.514556 
L 69.901011 112.667063 
L 70.395002 112.667063 
L 70.395002 113.819571 
L 71.607526 113.819571 
L 71.607526 114.993033 
L 72.820051 114.993033 
L 72.820051 116.166496 
L 74.571475 116.166496 
L 74.571475 117.362525 
L 75.334916 117.362525 
L 75.334916 118.582474 
L 76.412715 118.582474 
L 76.412715 119.827839 
L 76.457624 119.827839 
L 76.592348 119.827839 
L 76.592348 121.100277 
L 77.131248 121.100277 
L 77.131248 122.401635 
L 78.209047 122.401635 
L 78.209047 123.733977 
L 81.891529 123.733977 
L 81.891529 125.099627 
L 83.373503 125.099627 
L 83.373503 126.501216 
L 84.720752 126.501216 
L 84.720752 127.902805 
L 86.157818 127.902805 
L 86.157818 129.304394 
L 87.41525 129.304394 
L 87.41525 130.747206 
L 87.999058 130.747206 
L 87.999058 132.235105 
L 91.861173 132.235105 
L 91.861173 133.772602 
L 100.169209 133.772602 
L 100.169209 135.487502 
L 103.402607 135.487502 
L 103.402607 137.202402 
L 103.537332 137.202402 
L 103.537332 138.917302 
L 109.510137 138.917302 
L 109.510137 140.632202 
L 114.629684 140.632202 
L 114.629684 142.518592 
L 116.785282 142.518592 
L 116.785282 144.404981 
L 120.647397 144.404981 
L 120.647397 146.402336 
L 123.566437 146.402336 
L 123.566437 148.39969 
L 128.147084 148.39969 
L 128.147084 150.397044 
L 158.235649 150.397044 
L 158.235649 153.892413 
L 166.633502 153.892413 
L 166.633502 157.387783 
L 172.291949 157.387783 
L 172.291949 160.883152 
L 182.575951 160.883152 
L 182.575951 165.252364 
L 218.412779 165.252364 
L 218.412779 165.252364 
" clip-path="url(#pcb06246496)" style="fill: none; stroke: #e63946; stroke-width: 2; stroke-linecap: round"/>
   </g>
   <g id="patch_3">
    <path d="M 39.632812 178.36 
L 39.632812 7.2 
" style="fill: none; stroke: #262626; stroke-width: 0.8; stroke-linejoin: miter; stroke-linecap: square"/>
   </g>
   <g id="patch_4">
    <path d="M 277.902813 178.36 
L 277.902813 7.2 
" style="fill: none; stroke: #262626; stroke-width: 0.8; stroke-linejoin: miter; stroke-linecap: square"/>
   </g>
   <g id="patch_5">
    <path d="M 39.632812 178.36 
L 277.902813 178.36 
" style="fill: none; stroke: #262626; stroke-width: 0.8; stroke-linejoin: miter; stroke-linecap: square"/>
   </g>
   <g id="patch_6">
    <path d="M 39.632812 7.2 
L 277.902813 7.2 
" style="fill: none; stroke: #262626; stroke-width: 0.8; stroke-linejoin: miter; stroke-linecap: square"/>
   </g>
   <g id="text_15">
    <g id="patch_7">
     <path d="M 229.696163 25.9005 
L 273.137413 25.9005 
Q 275.537413 25.9005 275.537413 23.5005 
L 275.537413 15.758 
Q 275.537413 13.358 273.137413 13.358 
L 229.696163 13.358 
Q 227.296163 13.358 227.296163 15.758 
L 227.296163 23.5005 
Q 227.296163 25.9005 229.696163 25.9005 
z
" style="fill: #ffffff; opacity: 0.8; stroke: #ffffff; stroke-linejoin: miter"/>
    </g>
    <!-- P &lt; 0.001 -->
    <g style="fill: #262626" transform="translate(229.696163 21.83675) scale(0.08 -0.08)">
     <defs>
      <path id="DejaVuSans-Bold-50" d="M 588 4666 
L 2584 4666 
Q 3475 4666 3951 4270 
Q 4428 3875 4428 3144 
Q 4428 2409 3951 2014 
Q 3475 1619 2584 1619 
L 1791 1619 
L 1791 0 
L 588 0 
L 588 4666 
z
M 1791 3794 
L 1791 2491 
L 2456 2491 
Q 2806 2491 2997 2661 
Q 3188 2831 3188 3144 
Q 3188 3456 2997 3625 
Q 2806 3794 2456 3794 
L 1791 3794 
z
" transform="scale(0.015625)"/>
      <path id="DejaVuSans-Bold-20" transform="scale(0.015625)"/>
      <path id="DejaVuSans-Bold-3c" d="M 4684 3041 
L 1672 2003 
L 4684 972 
L 4684 191 
L 678 1638 
L 678 2375 
L 4684 3822 
L 4684 3041 
z
" transform="scale(0.015625)"/>
      <path id="DejaVuSans-Bold-30" d="M 2944 2338 
Q 2944 3213 2780 3570 
Q 2616 3928 2228 3928 
Q 1841 3928 1675 3570 
Q 1509 3213 1509 2338 
Q 1509 1453 1675 1090 
Q 1841 728 2228 728 
Q 2613 728 2778 1090 
Q 2944 1453 2944 2338 
z
M 4147 2328 
Q 4147 1169 3647 539 
Q 3147 -91 2228 -91 
Q 1306 -91 806 539 
Q 306 1169 306 2328 
Q 306 3491 806 4120 
Q 1306 4750 2228 4750 
Q 3147 4750 3647 4120 
Q 4147 3491 4147 2328 
z
" transform="scale(0.015625)"/>
      <path id="DejaVuSans-Bold-2e" d="M 653 1209 
L 1778 1209 
L 1778 0 
L 653 0 
L 653 1209 
z
" transform="scale(0.015625)"/>
      <path id="DejaVuSans-Bold-31" d="M 750 831 
L 1813 831 
L 1813 3847 
L 722 3622 
L 722 4441 
L 1806 4666 
L 2950 4666 
L 2950 831 
L 4013 831 
L 4013 0 
L 750 0 
L 750 831 
z
" transform="scale(0.015625)"/>
     </defs>
     <use xlink:href="#DejaVuSans-Bold-50"/>
     <use xlink:href="#DejaVuSans-Bold-20" transform="translate(73.291016 0)"/>
     <use xlink:href="#DejaVuSans-Bold-3c" transform="translate(108.105469 0)"/>
     <use xlink:href="#DejaVuSans-Bold-20" transform="translate(191.894531 0)"/>
     <use xlink:href="#DejaVuSans-Bold-30" transform="translate(226.708984 0)"/>
     <use xlink:href="#DejaVuSans-Bold-2e" transform="translate(296.289062 0)"/>
     <use xlink:href="#DejaVuSans-Bold-30" transform="translate(334.277344 0)"/>
     <use xlink:href="#DejaVuSans-Bold-30" transform="translate(403.857422 0)"/>
     <use xlink:href="#DejaVuSans-Bold-31" transform="translate(473.4375 0)"/>
    </g>
   </g>
  </g>
 </g>
 <defs>
  <clipPath id="pcb06246496">
   <rect x="39.632812" y="7.2" width="238.27" height="171.16"/>
  </clipPath>
 </defs>
</svg>
