<?xml version="1.0" encoding="utf-8" standalone="no"?>
<!DOCTYPE svg PUBLIC "-//W3C//DTD SVG 1.1//EN"
  "http://www.w3.org/Graphics/SVG/1.1/DTD/svg11.dtd">
<svg xmlns:xlink="http://www.w3.org/1999/xlink" width="285.102812pt" height="213.012812pt" viewBox="0 0 285.102812 213.012812" xmlns="http://www.w3.org/2000/svg" version="1.1">
 <metadata>
  <rdf:RDF xmlns:dc="http://purl.org/dc/elements/1.1/" xmlns:cc="http://creativecommons.org/ns#" xmlns:rdf="http://www.w3.org/1999/02/22-rdf-syntax-ns#">
   <cc:Work>
    <dc:type rdf:resource="http://purl.org/dc/dcmitype/StillImage"/>
    <dc:date>2025-07-12T20:17:43.361060</dc:date>
    <dc:format>image/svg+xml</dc:format>
    <dc:creator>
     <cc:Agent>
      <dc:title>Matplotlib v3.10.3, https://matplotlib.org/</dc:title>
     </cc:Agent>
    </dc:creator>
   </cc:Work>
  </rdf:RDF>
 </metadata>
 <defs>
  <style type="text/css">*{stroke-linejoin: round; stroke-linecap: butt}</style>
 </defs>
 <g id="figure_1">
  <g id="patch_1">
   <path d="M 0 213.012812 
L 285.102812 213.012812 
L 285.102812 0 
L 0 0 
L 0 213.012812 
z
" style="fill: none"/>
  </g>
  <g id="axes_1">
   <g id="patch_2">
    <path d="M 39.632812 178.36 
L 277.902813 178.36 
L 277.902813 7.2 
L 39.632812 7.2 
L 39.632812 178.36 
z
" style="fill: none"/>
   </g>
   <g id="matplotlib.axis_1">
    <g id="xtick_1">
     <g id="line2d_1">
      <path d="M 39.632812 178.36 
L 39.632812 7.2 
" clip-path="url(#p00a3c7e054)" style="fill: none; stroke: #cccccc; stroke-opacity: 0.3; stroke-width: 0.5; stroke-linecap: round"/>
     </g>
     <g id="line2d_2">
      <defs>
       <path id="m85096d9cb4" d="M 0 0 
L 0 3.5 
" style="stroke: #262626; stroke-width: 0.8"/>
      </defs>
      <g>
       <use xlink:href="#m85096d9cb4" x="39.632812" y="178.36" style="fill: #262626; stroke: #262626; stroke-width: 0.8"/>
      </g>
     </g>
     <g id="text_1">
      <!-- 0 -->
      <g style="fill: #262626" transform="translate(37.087812 191.43875) scale(0.08 -0.08)">
       <defs>
        <path id="DejaVuSans-30" d="M 2034 4250 
Q 1547 4250 1301 3770 
Q 1056 3291 1056 2328 
Q 1056 1369 1301 889 
Q 1547 409 2034 409 
Q 2525 409 2770 889 
Q 3016 1369 3016 2328 
Q 3016 3291 2770 3770 
Q 2525 4250 2034 4250 
z
M 2034 4750 
Q 2819 4750 3233 4129 
Q 3647 3509 3647 2328 
Q 3647 1150 3233 529 
Q 2819 -91 2034 -91 
Q 1250 -91 836 529 
Q 422 1150 422 2328 
Q 422 3509 836 4129 
Q 1250 4750 2034 4750 
z
" transform="scale(0.015625)"/>
       </defs>
       <use xlink:href="#DejaVuSans-30"/>
      </g>
     </g>
    </g>
    <g id="xtick_2">
     <g id="line2d_3">
      <path d="M 84.541119 178.36 
L 84.541119 7.2 
" clip-path="url(#p00a3c7e054)" style="fill: none; stroke: #cccccc; stroke-opacity: 0.3; stroke-width: 0.5; stroke-linecap: round"/>
     </g>
     <g id="line2d_4">
      <g>
       <use xlink:href="#m85096d9cb4" x="84.541119" y="178.36" style="fill: #262626; stroke: #262626; stroke-width: 0.8"/>
      </g>
     </g>
     <g id="text_2">
      <!-- 1000 -->
      <g style="fill: #262626" transform="translate(74.361119 191.43875) scale(0.08 -0.08)">
       <defs>
        <path id="DejaVuSans-31" d="M 794 531 
L 1825 531 
L 1825 4091 
L 703 3866 
L 703 4441 
L 1819 4666 
L 2450 4666 
L 2450 531 
L 3481 531 
L 3481 0 
L 794 0 
L 794 531 
z
" transform="scale(0.015625)"/>
       </defs>
       <use xlink:href="#DejaVuSans-31"/>
       <use xlink:href="#DejaVuSans-30" transform="translate(63.623047 0)"/>
       <use xlink:href="#DejaVuSans-30" transform="translate(127.246094 0)"/>
       <use xlink:href="#DejaVuSans-30" transform="translate(190.869141 0)"/>
      </g>
     </g>
    </g>
    <g id="xtick_3">
     <g id="line2d_5">
      <path d="M 129.449425 178.36 
L 129.449425 7.2 
" clip-path="url(#p00a3c7e054)" style="fill: none; stroke: #cccccc; stroke-opacity: 0.3; stroke-width: 0.5; stroke-linecap: round"/>
     </g>
     <g id="line2d_6">
      <g>
       <use xlink:href="#m85096d9cb4" x="129.449425" y="178.36" style="fill: #262626; stroke: #262626; stroke-width: 0.8"/>
      </g>
     </g>
     <g id="text_3">
      <!-- 2000 -->
      <g style="fill: #262626" transform="translate(119.269425 191.43875) scale(0.08 -0.08)">
       <defs>
        <path id="DejaVuSans-32" d="M 1228 531 
L 3431 531 
L 3431 0 
L 469 0 
L 469 531 
Q 828 903 1448 1529 
Q 2069 2156 2228 2338 
Q 2531 2678 2651 2914 
Q 2772 3150 2772 3378 
Q 2772 3750 2511 3984 
Q 2250 4219 1831 4219 
Q 1534 4219 1204 4116 
Q 875 4013 500 3803 
L 500 4441 
Q 881 4594 1212 4672 
Q 1544 4750 1819 4750 
Q 2544 4750 2975 4387 
Q 3406 4025 3406 3419 
Q 3406 3131 3298 2873 
Q 3191 2616 2906 2266 
Q 2828 2175 2409 1742 
Q 1991 1309 1228 531 
z
" transform="scale(0.015625)"/>
       </defs>
       <use xlink:href="#DejaVuSans-32"/>
       <use xlink:href="#DejaVuSans-30" transform="translate(63.623047 0)"/>
       <use xlink:href="#DejaVuSans-30" transform="translate(127.246094 0)"/>
       <use xlink:href="#DejaVuSans-30" transform="translate(190.869141 0)"/>
      </g>
     </g>
    </g>
    <g id="xtick_4">
     <g id="line2d_7">
      <path d="M 174.357731 178.36 
L 174.357731 7.2 
" clip-path="url(#p00a3c7e054)" style="fill: none; stroke: #cccccc; stroke-opacity: 0.3; stroke-width: 0.5; stroke-linecap: round"/>
     </g>
     <g id="line2d_8">
      <g>
       <use xlink:href="#m85096d9cb4" x="174.357731" y="178.36" style="fill: #262626; stroke: #262626; stroke-width: 0.8"/>
      </g>
     </g>
     <g id="text_4">
      <!-- 3000 -->
      <g style="fill: #262626" transform="translate(164.177731 191.43875) scale(0.08 -0.08)">
       <defs>
        <path id="DejaVuSans-33" d="M 2597 2516 
Q 3050 2419 3304 2112 
Q 3559 1806 3559 1356 
Q 3559 666 3084 287 
Q 2609 -91 1734 -91 
Q 1441 -91 1130 -33 
Q 819 25 488 141 
L 488 750 
Q 750 597 1062 519 
Q 1375 441 1716 441 
Q 2309 441 2620 675 
Q 2931 909 2931 1356 
Q 2931 1769 2642 2001 
Q 2353 2234 1838 2234 
L 1294 2234 
L 1294 2753 
L 1863 2753 
Q 2328 2753 2575 2939 
Q 2822 3125 2822 3475 
Q 2822 3834 2567 4026 
Q 2313 4219 1838 4219 
Q 1578 4219 1281 4162 
Q 984 4106 628 3988 
L 628 4550 
Q 988 4650 1302 4700 
Q 1616 4750 1894 4750 
Q 2613 4750 3031 4423 
Q 3450 4097 3450 3541 
Q 3450 3153 3228 2886 
Q 3006 2619 2597 2516 
z
" transform="scale(0.015625)"/>
       </defs>
       <use xlink:href="#DejaVuSans-33"/>
       <use xlink:href="#DejaVuSans-30" transform="translate(63.623047 0)"/>
       <use xlink:href="#DejaVuSans-30" transform="translate(127.246094 0)"/>
       <use xlink:href="#DejaVuSans-30" transform="translate(190.869141 0)"/>
      </g>
     </g>
    </g>
    <g id="xtick_5">
     <g id="line2d_9">
      <path d="M 219.266037 178.36 
L 219.266037 7.2 
" clip-path="url(#p00a3c7e054)" style="fill: none; stroke: #cccccc; stroke-opacity: 0.3; stroke-width: 0.5; stroke-linecap: round"/>
     </g>
     <g id="line2d_10">
      <g>
       <use xlink:href="#m85096d9cb4" x="219.266037" y="178.36" style="fill: #262626; stroke: #262626; stroke-width: 0.8"/>
      </g>
     </g>
     <g id="text_5">
      <!-- 4000 -->
      <g style="fill: #262626" transform="translate(209.086037 191.43875) scale(0.08 -0.08)">
       <defs>
        <path id="DejaVuSans-34" d="M 2419 4116 
L 825 1625 
L 2419 1625 
L 2419 4116 
z
M 2253 4666 
L 3047 4666 
L 3047 1625 
L 3713 1625 
L 3713 1100 
L 3047 1100 
L 3047 0 
L 2419 0 
L 2419 1100 
L 313 1100 
L 313 1709 
L 2253 4666 
z
" transform="scale(0.015625)"/>
       </defs>
       <use xlink:href="#DejaVuSans-34"/>
       <use xlink:href="#DejaVuSans-30" transform="translate(63.623047 0)"/>
       <use xlink:href="#DejaVuSans-30" transform="translate(127.246094 0)"/>
       <use xlink:href="#DejaVuSans-30" transform="translate(190.869141 0)"/>
      </g>
     </g>
    </g>
    <g id="xtick_6">
     <g id="line2d_11">
      <path d="M 264.174343 178.36 
L 264.174343 7.2 
" clip-path="url(#p00a3c7e054)" style="fill: none; stroke: #cccccc; stroke-opacity: 0.3; stroke-width: 0.5; stroke-linecap: round"/>
     </g>
     <g id="line2d_12">
      <g>
       <use xlink:href="#m85096d9cb4" x="264.174343" y="178.36" style="fill: #262626; stroke: #262626; stroke-width: 0.8"/>
      </g>
     </g>
     <g id="text_6">
      <!-- 5000 -->
      <g style="fill: #262626" transform="translate(253.994343 191.43875) scale(0.08 -0.08)">
       <defs>
        <path id="DejaVuSans-35" d="M 691 4666 
L 3169 4666 
L 3169 4134 
L 1269 4134 
L 1269 2991 
Q 1406 3038 1543 3061 
Q 1681 3084 1819 3084 
Q 2600 3084 3056 2656 
Q 3513 2228 3513 1497 
Q 3513 744 3044 326 
Q 2575 -91 1722 -91 
Q 1428 -91 1123 -41 
Q 819 9 494 109 
L 494 744 
Q 775 591 1075 516 
Q 1375 441 1709 441 
Q 2250 441 2565 725 
Q 2881 1009 2881 1497 
Q 2881 1984 2565 2268 
Q 2250 2553 1709 2553 
Q 1456 2553 1204 2497 
Q 953 2441 691 2322 
L 691 4666 
z
" transform="scale(0.015625)"/>
       </defs>
       <use xlink:href="#DejaVuSans-35"/>
       <use xlink:href="#DejaVuSans-30" transform="translate(63.623047 0)"/>
       <use xlink:href="#DejaVuSans-30" transform="translate(127.246094 0)"/>
       <use xlink:href="#DejaVuSans-30" transform="translate(190.869141 0)"/>
      </g>
     </g>
    </g>
    <g id="text_7">
     <!-- Time (days) -->
     <g style="fill: #262626" transform="translate(132.193906 203.941094) scale(0.09 -0.09)">
      <defs>
       <path id="DejaVuSans-54" d="M -19 4666 
L 3928 4666 
L 3928 4134 
L 2272 4134 
L 2272 0 
L 1638 0 
L 1638 4134 
L -19 4134 
L -19 4666 
z
" transform="scale(0.015625)"/>
       <path id="DejaVuSans-69" d="M 603 3500 
L 1178 3500 
L 1178 0 
L 603 0 
L 603 3500 
z
M 603 4863 
L 1178 4863 
L 1178 4134 
L 603 4134 
L 603 4863 
z
" transform="scale(0.015625)"/>
       <path id="DejaVuSans-6d" d="M 3328 2828 
Q 3544 3216 3844 3400 
Q 4144 3584 4550 3584 
Q 5097 3584 5394 3201 
Q 5691 2819 5691 2113 
L 5691 0 
L 5113 0 
L 5113 2094 
Q 5113 2597 4934 2840 
Q 4756 3084 4391 3084 
Q 3944 3084 3684 2787 
Q 3425 2491 3425 1978 
L 3425 0 
L 2847 0 
L 2847 2094 
Q 2847 2600 2669 2842 
Q 2491 3084 2119 3084 
Q 1678 3084 1418 2786 
Q 1159 2488 1159 1978 
L 1159 0 
L 581 0 
L 581 3500 
L 1159 3500 
L 1159 2956 
Q 1356 3278 1631 3431 
Q 1906 3584 2284 3584 
Q 2666 3584 2933 3390 
Q 3200 3197 3328 2828 
z
" transform="scale(0.015625)"/>
       <path id="DejaVuSans-65" d="M 3597 1894 
L 3597 1613 
L 953 1613 
Q 991 1019 1311 708 
Q 1631 397 2203 397 
Q 2534 397 2845 478 
Q 3156 559 3463 722 
L 3463 178 
Q 3153 47 2828 -22 
Q 2503 -91 2169 -91 
Q 1331 -91 842 396 
Q 353 884 353 1716 
Q 353 2575 817 3079 
Q 1281 3584 2069 3584 
Q 2775 3584 3186 3129 
Q 3597 2675 3597 1894 
z
M 3022 2063 
Q 3016 2534 2758 2815 
Q 2500 3097 2075 3097 
Q 1594 3097 1305 2825 
Q 1016 2553 972 2059 
L 3022 2063 
z
" transform="scale(0.015625)"/>
       <path id="DejaVuSans-20" transform="scale(0.015625)"/>
       <path id="DejaVuSans-28" d="M 1984 4856 
Q 1566 4138 1362 3434 
Q 1159 2731 1159 2009 
Q 1159 1288 1364 580 
Q 1569 -128 1984 -844 
L 1484 -844 
Q 1016 -109 783 600 
Q 550 1309 550 2009 
Q 550 2706 781 3412 
Q 1013 4119 1484 4856 
L 1984 4856 
z
" transform="scale(0.015625)"/>
       <path id="DejaVuSans-64" d="M 2906 2969 
L 2906 4863 
L 3481 4863 
L 3481 0 
L 2906 0 
L 2906 525 
Q 2725 213 2448 61 
Q 2172 -91 1784 -91 
Q 1150 -91 751 415 
Q 353 922 353 1747 
Q 353 2572 751 3078 
Q 1150 3584 1784 3584 
Q 2172 3584 2448 3432 
Q 2725 3281 2906 2969 
z
M 947 1747 
Q 947 1113 1208 752 
Q 1469 391 1925 391 
Q 2381 391 2643 752 
Q 2906 1113 2906 1747 
Q 2906 2381 2643 2742 
Q 2381 3103 1925 3103 
Q 1469 3103 1208 2742 
Q 947 2381 947 1747 
z
" transform="scale(0.015625)"/>
       <path id="DejaVuSans-61" d="M 2194 1759 
Q 1497 1759 1228 1600 
Q 959 1441 959 1056 
Q 959 750 1161 570 
Q 1363 391 1709 391 
Q 2188 391 2477 730 
Q 2766 1069 2766 1631 
L 2766 1759 
L 2194 1759 
z
M 3341 1997 
L 3341 0 
L 2766 0 
L 2766 531 
Q 2569 213 2275 61 
Q 1981 -91 1556 -91 
Q 1019 -91 701 211 
Q 384 513 384 1019 
Q 384 1609 779 1909 
Q 1175 2209 1959 2209 
L 2766 2209 
L 2766 2266 
Q 2766 2663 2505 2880 
Q 2244 3097 1772 3097 
Q 1472 3097 1187 3025 
Q 903 2953 641 2809 
L 641 3341 
Q 956 3463 1253 3523 
Q 1550 3584 1831 3584 
Q 2591 3584 2966 3190 
Q 3341 2797 3341 1997 
z
" transform="scale(0.015625)"/>
       <path id="DejaVuSans-79" d="M 2059 -325 
Q 1816 -950 1584 -1140 
Q 1353 -1331 966 -1331 
L 506 -1331 
L 506 -850 
L 844 -850 
Q 1081 -850 1212 -737 
Q 1344 -625 1503 -206 
L 1606 56 
L 191 3500 
L 800 3500 
L 1894 763 
L 2988 3500 
L 3597 3500 
L 2059 -325 
z
" transform="scale(0.015625)"/>
       <path id="DejaVuSans-73" d="M 2834 3397 
L 2834 2853 
Q 2591 2978 2328 3040 
Q 2066 3103 1784 3103 
Q 1356 3103 1142 2972 
Q 928 2841 928 2578 
Q 928 2378 1081 2264 
Q 1234 2150 1697 2047 
L 1894 2003 
Q 2506 1872 2764 1633 
Q 3022 1394 3022 966 
Q 3022 478 2636 193 
Q 2250 -91 1575 -91 
Q 1294 -91 989 -36 
Q 684 19 347 128 
L 347 722 
Q 666 556 975 473 
Q 1284 391 1588 391 
Q 1994 391 2212 530 
Q 2431 669 2431 922 
Q 2431 1156 2273 1281 
Q 2116 1406 1581 1522 
L 1381 1569 
Q 847 1681 609 1914 
Q 372 2147 372 2553 
Q 372 3047 722 3315 
Q 1072 3584 1716 3584 
Q 2034 3584 2315 3537 
Q 2597 3491 2834 3397 
z
" transform="scale(0.015625)"/>
       <path id="DejaVuSans-29" d="M 513 4856 
L 1013 4856 
Q 1481 4119 1714 3412 
Q 1947 2706 1947 2009 
Q 1947 1309 1714 600 
Q 1481 -109 1013 -844 
L 513 -844 
Q 928 -128 1133 580 
Q 1338 1288 1338 2009 
Q 1338 2731 1133 3434 
Q 928 4138 513 4856 
z
" transform="scale(0.015625)"/>
      </defs>
      <use xlink:href="#DejaVuSans-54"/>
      <use xlink:href="#DejaVuSans-69" transform="translate(57.958984 0)"/>
      <use xlink:href="#DejaVuSans-6d" transform="translate(85.742188 0)"/>
      <use xlink:href="#DejaVuSans-65" transform="translate(183.154297 0)"/>
      <use xlink:href="#DejaVuSans-20" transform="translate(244.677734 0)"/>
      <use xlink:href="#DejaVuSans-28" transform="translate(276.464844 0)"/>
      <use xlink:href="#DejaVuSans-64" transform="translate(315.478516 0)"/>
      <use xlink:href="#DejaVuSans-61" transform="translate(378.955078 0)"/>
      <use xlink:href="#DejaVuSans-79" transform="translate(440.234375 0)"/>
      <use xlink:href="#DejaVuSans-73" transform="translate(499.414062 0)"/>
      <use xlink:href="#DejaVuSans-29" transform="translate(551.513672 0)"/>
     </g>
    </g>
   </g>
   <g id="matplotlib.axis_2">
    <g id="ytick_1">
     <g id="line2d_13">
      <path d="M 39.632812 178.36 
L 277.902813 178.36 
" clip-path="url(#p00a3c7e054)" style="fill: none; stroke: #cccccc; stroke-opacity: 0.3; stroke-width: 0.5; stroke-linecap: round"/>
     </g>
     <g id="line2d_14">
      <defs>
       <path id="m342f812989" d="M 0 0 
L -3.5 0 
" style="stroke: #262626; stroke-width: 0.8"/>
      </defs>
      <g>
       <use xlink:href="#m342f812989" x="39.632812" y="178.36" style="fill: #262626; stroke: #262626; stroke-width: 0.8"/>
      </g>
     </g>
     <g id="text_8">
      <!-- 0.0 -->
      <g style="fill: #262626" transform="translate(19.910312 181.399375) scale(0.08 -0.08)">
       <defs>
        <path id="DejaVuSans-2e" d="M 684 794 
L 1344 794 
L 1344 0 
L 684 0 
L 684 794 
z
" transform="scale(0.015625)"/>
       </defs>
       <use xlink:href="#DejaVuSans-30"/>
       <use xlink:href="#DejaVuSans-2e" transform="translate(63.623047 0)"/>
       <use xlink:href="#DejaVuSans-30" transform="translate(95.410156 0)"/>
      </g>
     </g>
    </g>
    <g id="ytick_2">
     <g id="line2d_15">
      <path d="M 39.632812 145.758095 
L 277.902813 145.758095 
" clip-path="url(#p00a3c7e054)" style="fill: none; stroke: #cccccc; stroke-opacity: 0.3; stroke-width: 0.5; stroke-linecap: round"/>
     </g>
     <g id="line2d_16">
      <g>
       <use xlink:href="#m342f812989" x="39.632812" y="145.758095" style="fill: #262626; stroke: #262626; stroke-width: 0.8"/>
      </g>
     </g>
     <g id="text_9">
      <!-- 0.2 -->
      <g style="fill: #262626" transform="translate(19.910312 148.79747) scale(0.08 -0.08)">
       <use xlink:href="#DejaVuSans-30"/>
       <use xlink:href="#DejaVuSans-2e" transform="translate(63.623047 0)"/>
       <use xlink:href="#DejaVuSans-32" transform="translate(95.410156 0)"/>
      </g>
     </g>
    </g>
    <g id="ytick_3">
     <g id="line2d_17">
      <path d="M 39.632812 113.15619 
L 277.902813 113.15619 
" clip-path="url(#p00a3c7e054)" style="fill: none; stroke: #cccccc; stroke-opacity: 0.3; stroke-width: 0.5; stroke-linecap: round"/>
     </g>
     <g id="line2d_18">
      <g>
       <use xlink:href="#m342f812989" x="39.632812" y="113.15619" style="fill: #262626; stroke: #262626; stroke-width: 0.8"/>
      </g>
     </g>
     <g id="text_10">
      <!-- 0.4 -->
      <g style="fill: #262626" transform="translate(19.910312 116.195565) scale(0.08 -0.08)">
       <use xlink:href="#DejaVuSans-30"/>
       <use xlink:href="#DejaVuSans-2e" transform="translate(63.623047 0)"/>
       <use xlink:href="#DejaVuSans-34" transform="translate(95.410156 0)"/>
      </g>
     </g>
    </g>
    <g id="ytick_4">
     <g id="line2d_19">
      <path d="M 39.632812 80.554286 
L 277.902813 80.554286 
" clip-path="url(#p00a3c7e054)" style="fill: none; stroke: #cccccc; stroke-opacity: 0.3; stroke-width: 0.5; stroke-linecap: round"/>
     </g>
     <g id="line2d_20">
      <g>
       <use xlink:href="#m342f812989" x="39.632812" y="80.554286" style="fill: #262626; stroke: #262626; stroke-width: 0.8"/>
      </g>
     </g>
     <g id="text_11">
      <!-- 0.6 -->
      <g style="fill: #262626" transform="translate(19.910312 83.593661) scale(0.08 -0.08)">
       <defs>
        <path id="DejaVuSans-36" d="M 2113 2584 
Q 1688 2584 1439 2293 
Q 1191 2003 1191 1497 
Q 1191 994 1439 701 
Q 1688 409 2113 409 
Q 2538 409 2786 701 
Q 3034 994 3034 1497 
Q 3034 2003 2786 2293 
Q 2538 2584 2113 2584 
z
M 3366 4563 
L 3366 3988 
Q 3128 4100 2886 4159 
Q 2644 4219 2406 4219 
Q 1781 4219 1451 3797 
Q 1122 3375 1075 2522 
Q 1259 2794 1537 2939 
Q 1816 3084 2150 3084 
Q 2853 3084 3261 2657 
Q 3669 2231 3669 1497 
Q 3669 778 3244 343 
Q 2819 -91 2113 -91 
Q 1303 -91 875 529 
Q 447 1150 447 2328 
Q 447 3434 972 4092 
Q 1497 4750 2381 4750 
Q 2619 4750 2861 4703 
Q 3103 4656 3366 4563 
z
" transform="scale(0.015625)"/>
       </defs>
       <use xlink:href="#DejaVuSans-30"/>
       <use xlink:href="#DejaVuSans-2e" transform="translate(63.623047 0)"/>
       <use xlink:href="#DejaVuSans-36" transform="translate(95.410156 0)"/>
      </g>
     </g>
    </g>
    <g id="ytick_5">
     <g id="line2d_21">
      <path d="M 39.632812 47.952381 
L 277.902813 47.952381 
" clip-path="url(#p00a3c7e054)" style="fill: none; stroke: #cccccc; stroke-opacity: 0.3; stroke-width: 0.5; stroke-linecap: round"/>
     </g>
     <g id="line2d_22">
      <g>
       <use xlink:href="#m342f812989" x="39.632812" y="47.952381" style="fill: #262626; stroke: #262626; stroke-width: 0.8"/>
      </g>
     </g>
     <g id="text_12">
      <!-- 0.8 -->
      <g style="fill: #262626" transform="translate(19.910312 50.991756) scale(0.08 -0.08)">
       <defs>
        <path id="DejaVuSans-38" d="M 2034 2216 
Q 1584 2216 1326 1975 
Q 1069 1734 1069 1313 
Q 1069 891 1326 650 
Q 1584 409 2034 409 
Q 2484 409 2743 651 
Q 3003 894 3003 1313 
Q 3003 1734 2745 1975 
Q 2488 2216 2034 2216 
z
M 1403 2484 
Q 997 2584 770 2862 
Q 544 3141 544 3541 
Q 544 4100 942 4425 
Q 1341 4750 2034 4750 
Q 2731 4750 3128 4425 
Q 3525 4100 3525 3541 
Q 3525 3141 3298 2862 
Q 3072 2584 2669 2484 
Q 3125 2378 3379 2068 
Q 3634 1759 3634 1313 
Q 3634 634 3220 271 
Q 2806 -91 2034 -91 
Q 1263 -91 848 271 
Q 434 634 434 1313 
Q 434 1759 690 2068 
Q 947 2378 1403 2484 
z
M 1172 3481 
Q 1172 3119 1398 2916 
Q 1625 2713 2034 2713 
Q 2441 2713 2670 2916 
Q 2900 3119 2900 3481 
Q 2900 3844 2670 4047 
Q 2441 4250 2034 4250 
Q 1625 4250 1398 4047 
Q 1172 3844 1172 3481 
z
" transform="scale(0.015625)"/>
       </defs>
       <use xlink:href="#DejaVuSans-30"/>
       <use xlink:href="#DejaVuSans-2e" transform="translate(63.623047 0)"/>
       <use xlink:href="#DejaVuSans-38" transform="translate(95.410156 0)"/>
      </g>
     </g>
    </g>
    <g id="ytick_6">
     <g id="line2d_23">
      <path d="M 39.632812 15.350476 
L 277.902813 15.350476 
" clip-path="url(#p00a3c7e054)" style="fill: none; stroke: #cccccc; stroke-opacity: 0.3; stroke-width: 0.5; stroke-linecap: round"/>
     </g>
     <g id="line2d_24">
      <g>
       <use xlink:href="#m342f812989" x="39.632812" y="15.350476" style="fill: #262626; stroke: #262626; stroke-width: 0.8"/>
      </g>
     </g>
     <g id="text_13">
      <!-- 1.0 -->
      <g style="fill: #262626" transform="translate(19.910312 18.389851) scale(0.08 -0.08)">
       <use xlink:href="#DejaVuSans-31"/>
       <use xlink:href="#DejaVuSans-2e" transform="translate(63.623047 0)"/>
       <use xlink:href="#DejaVuSans-30" transform="translate(95.410156 0)"/>
      </g>
     </g>
    </g>
    <g id="text_14">
     <!-- Survival probability -->
     <g style="fill: #262626" transform="translate(14.038594 136.361797) rotate(-90) scale(0.09 -0.09)">
      <defs>
       <path id="DejaVuSans-53" d="M 3425 4513 
L 3425 3897 
Q 3066 4069 2747 4153 
Q 2428 4238 2131 4238 
Q 1616 4238 1336 4038 
Q 1056 3838 1056 3469 
Q 1056 3159 1242 3001 
Q 1428 2844 1947 2747 
L 2328 2669 
Q 3034 2534 3370 2195 
Q 3706 1856 3706 1288 
Q 3706 609 3251 259 
Q 2797 -91 1919 -91 
Q 1588 -91 1214 -16 
Q 841 59 441 206 
L 441 856 
Q 825 641 1194 531 
Q 1563 422 1919 422 
Q 2459 422 2753 634 
Q 3047 847 3047 1241 
Q 3047 1584 2836 1778 
Q 2625 1972 2144 2069 
L 1759 2144 
Q 1053 2284 737 2584 
Q 422 2884 422 3419 
Q 422 4038 858 4394 
Q 1294 4750 2059 4750 
Q 2388 4750 2728 4690 
Q 3069 4631 3425 4513 
z
" transform="scale(0.015625)"/>
       <path id="DejaVuSans-75" d="M 544 1381 
L 544 3500 
L 1119 3500 
L 1119 1403 
Q 1119 906 1312 657 
Q 1506 409 1894 409 
Q 2359 409 2629 706 
Q 2900 1003 2900 1516 
L 2900 3500 
L 3475 3500 
L 3475 0 
L 2900 0 
L 2900 538 
Q 2691 219 2414 64 
Q 2138 -91 1772 -91 
Q 1169 -91 856 284 
Q 544 659 544 1381 
z
M 1991 3584 
L 1991 3584 
z
" transform="scale(0.015625)"/>
       <path id="DejaVuSans-72" d="M 2631 2963 
Q 2534 3019 2420 3045 
Q 2306 3072 2169 3072 
Q 1681 3072 1420 2755 
Q 1159 2438 1159 1844 
L 1159 0 
L 581 0 
L 581 3500 
L 1159 3500 
L 1159 2956 
Q 1341 3275 1631 3429 
Q 1922 3584 2338 3584 
Q 2397 3584 2469 3576 
Q 2541 3569 2628 3553 
L 2631 2963 
z
" transform="scale(0.015625)"/>
       <path id="DejaVuSans-76" d="M 191 3500 
L 800 3500 
L 1894 563 
L 2988 3500 
L 3597 3500 
L 2284 0 
L 1503 0 
L 191 3500 
z
" transform="scale(0.015625)"/>
       <path id="DejaVuSans-6c" d="M 603 4863 
L 1178 4863 
L 1178 0 
L 603 0 
L 603 4863 
z
" transform="scale(0.015625)"/>
       <path id="DejaVuSans-70" d="M 1159 525 
L 1159 -1331 
L 581 -1331 
L 581 3500 
L 1159 3500 
L 1159 2969 
Q 1341 3281 1617 3432 
Q 1894 3584 2278 3584 
Q 2916 3584 3314 3078 
Q 3713 2572 3713 1747 
Q 3713 922 3314 415 
Q 2916 -91 2278 -91 
Q 1894 -91 1617 61 
Q 1341 213 1159 525 
z
M 3116 1747 
Q 3116 2381 2855 2742 
Q 2594 3103 2138 3103 
Q 1681 3103 1420 2742 
Q 1159 2381 1159 1747 
Q 1159 1113 1420 752 
Q 1681 391 2138 391 
Q 2594 391 2855 752 
Q 3116 1113 3116 1747 
z
" transform="scale(0.015625)"/>
       <path id="DejaVuSans-6f" d="M 1959 3097 
Q 1497 3097 1228 2736 
Q 959 2375 959 1747 
Q 959 1119 1226 758 
Q 1494 397 1959 397 
Q 2419 397 2687 759 
Q 2956 1122 2956 1747 
Q 2956 2369 2687 2733 
Q 2419 3097 1959 3097 
z
M 1959 3584 
Q 2709 3584 3137 3096 
Q 3566 2609 3566 1747 
Q 3566 888 3137 398 
Q 2709 -91 1959 -91 
Q 1206 -91 779 398 
Q 353 888 353 1747 
Q 353 2609 779 3096 
Q 1206 3584 1959 3584 
z
" transform="scale(0.015625)"/>
       <path id="DejaVuSans-62" d="M 3116 1747 
Q 3116 2381 2855 2742 
Q 2594 3103 2138 3103 
Q 1681 3103 1420 2742 
Q 1159 2381 1159 1747 
Q 1159 1113 1420 752 
Q 1681 391 2138 391 
Q 2594 391 2855 752 
Q 3116 1113 3116 1747 
z
M 1159 2969 
Q 1341 3281 1617 3432 
Q 1894 3584 2278 3584 
Q 2916 3584 3314 3078 
Q 3713 2572 3713 1747 
Q 3713 922 3314 415 
Q 2916 -91 2278 -91 
Q 1894 -91 1617 61 
Q 1341 213 1159 525 
L 1159 0 
L 581 0 
L 581 4863 
L 1159 4863 
L 1159 2969 
z
" transform="scale(0.015625)"/>
       <path id="DejaVuSans-74" d="M 1172 4494 
L 1172 3500 
L 2356 3500 
L 2356 3053 
L 1172 3053 
L 1172 1153 
Q 1172 725 1289 603 
Q 1406 481 1766 481 
L 2356 481 
L 2356 0 
L 1766 0 
Q 1100 0 847 248 
Q 594 497 594 1153 
L 594 3053 
L 172 3053 
L 172 3500 
L 594 3500 
L 594 4494 
L 1172 4494 
z
" transform="scale(0.015625)"/>
      </defs>
      <use xlink:href="#DejaVuSans-53"/>
      <use xlink:href="#DejaVuSans-75" transform="translate(63.476562 0)"/>
      <use xlink:href="#DejaVuSans-72" transform="translate(126.855469 0)"/>
      <use xlink:href="#DejaVuSans-76" transform="translate(167.96875 0)"/>
      <use xlink:href="#DejaVuSans-69" transform="translate(227.148438 0)"/>
      <use xlink:href="#DejaVuSans-76" transform="translate(254.931641 0)"/>
      <use xlink:href="#DejaVuSans-61" transform="translate(314.111328 0)"/>
      <use xlink:href="#DejaVuSans-6c" transform="translate(375.390625 0)"/>
      <use xlink:href="#DejaVuSans-20" transform="translate(403.173828 0)"/>
      <use xlink:href="#DejaVuSans-70" transform="translate(434.960938 0)"/>
      <use xlink:href="#DejaVuSans-72" transform="translate(498.4375 0)"/>
      <use xlink:href="#DejaVuSans-6f" transform="translate(537.300781 0)"/>
      <use xlink:href="#DejaVuSans-62" transform="translate(598.482422 0)"/>
      <use xlink:href="#DejaVuSans-61" transform="translate(661.958984 0)"/>
      <use xlink:href="#DejaVuSans-62" transform="translate(723.238281 0)"/>
      <use xlink:href="#DejaVuSans-69" transform="translate(786.714844 0)"/>
      <use xlink:href="#DejaVuSans-6c" transform="translate(814.498047 0)"/>
      <use xlink:href="#DejaVuSans-69" transform="translate(842.28125 0)"/>
      <use xlink:href="#DejaVuSans-74" transform="translate(870.064453 0)"/>
      <use xlink:href="#DejaVuSans-79" transform="translate(909.273438 0)"/>
     </g>
    </g>
   </g>
   <g id="FillBetweenPolyCollection_1">
    <defs>
     <path id="mf0623059a9" d="M 36.758681 -197.662336 
L 36.758681 -197.662336 
L 40.21662 -197.662336 
L 40.21662 -197.662336 
L 40.306437 -197.662336 
L 40.306437 -197.662336 
L 40.530979 -197.662336 
L 40.530979 -197.662336 
L 41.204603 -197.662336 
L 41.204603 -197.662336 
L 41.698595 -197.662336 
L 41.698595 -197.662336 
L 42.506944 -197.662336 
L 42.506944 -197.662336 
L 42.641669 -197.662336 
L 42.641669 -197.662336 
L 42.686577 -197.662336 
L 42.686577 -197.662336 
L 43.629652 -197.662336 
L 43.629652 -197.662336 
L 43.899102 -197.662336 
L 43.899102 -197.662336 
L 44.348185 -197.662336 
L 44.348185 -197.662336 
L 44.887084 -197.662336 
L 44.887084 -197.662336 
L 46.952866 -197.662336 
L 46.952866 -197.662336 
L 48.030666 -197.662336 
L 48.030666 -197.662336 
L 48.120482 -197.662336 
L 48.120482 -197.662336 
L 49.51264 -197.662336 
L 49.51264 -191.605866 
L 50.770072 -191.605866 
L 50.770072 -190.838233 
L 52.027505 -190.838233 
L 52.027505 -190.838233 
L 52.790946 -190.838233 
L 52.790946 -190.838233 
L 54.452554 -190.838233 
L 54.452554 -190.838233 
L 54.587278 -190.838233 
L 54.587278 -190.838233 
L 54.766912 -190.838233 
L 54.766912 -190.838233 
L 55.08127 -190.838233 
L 55.08127 -189.658408 
L 55.126178 -189.658408 
L 55.126178 -189.658408 
L 55.844711 -189.658408 
L 55.844711 -189.658408 
L 55.889619 -189.658408 
L 55.889619 -188.433122 
L 55.979436 -188.433122 
L 55.979436 -188.433122 
L 56.024344 -188.433122 
L 56.024344 -188.433122 
L 56.069253 -188.433122 
L 56.069253 -188.433122 
L 56.159069 -188.433122 
L 56.159069 -188.433122 
L 56.203977 -188.433122 
L 56.203977 -188.433122 
L 56.338702 -188.433122 
L 56.338702 -188.433122 
L 56.383611 -188.433122 
L 56.383611 -188.433122 
L 56.653061 -188.433122 
L 56.653061 -188.433122 
L 56.787785 -188.433122 
L 56.787785 -188.433122 
L 56.832694 -188.433122 
L 56.832694 -188.433122 
L 56.877602 -188.433122 
L 56.877602 -188.433122 
L 57.102144 -188.433122 
L 57.102144 -188.433122 
L 57.326685 -188.433122 
L 57.326685 -188.433122 
L 57.506318 -188.433122 
L 57.506318 -188.433122 
L 57.551227 -188.433122 
L 57.551227 -188.433122 
L 58.045218 -188.433122 
L 58.045218 -188.433122 
L 58.26976 -188.433122 
L 58.26976 -188.433122 
L 58.314668 -188.433122 
L 58.314668 -188.433122 
L 58.718843 -188.433122 
L 58.718843 -188.433122 
L 58.853568 -188.433122 
L 58.853568 -188.433122 
L 59.078109 -188.433122 
L 59.078109 -188.433122 
L 60.066092 -188.433122 
L 60.066092 -188.433122 
L 60.155908 -188.433122 
L 60.155908 -188.433122 
L 60.290633 -188.433122 
L 60.290633 -188.433122 
L 60.560083 -188.433122 
L 60.560083 -188.433122 
L 60.604991 -188.433122 
L 60.604991 -188.433122 
L 60.694808 -188.433122 
L 60.694808 -188.433122 
L 60.91935 -188.433122 
L 60.91935 -188.433122 
L 61.054075 -188.433122 
L 61.054075 -188.433122 
L 61.233708 -188.433122 
L 61.233708 -188.433122 
L 61.368433 -188.433122 
L 61.368433 -188.433122 
L 61.413341 -188.433122 
L 61.413341 -188.433122 
L 61.682791 -188.433122 
L 61.682791 -188.433122 
L 61.862424 -188.433122 
L 61.862424 -188.433122 
L 62.22169 -188.433122 
L 62.22169 -188.433122 
L 62.401324 -188.433122 
L 62.401324 -188.433122 
L 62.446232 -188.433122 
L 62.446232 -188.433122 
L 62.625865 -188.433122 
L 62.625865 -188.433122 
L 63.074948 -188.433122 
L 63.074948 -188.433122 
L 63.164765 -188.433122 
L 63.164765 -188.433122 
L 63.703665 -188.433122 
L 63.703665 -188.433122 
L 63.83839 -188.433122 
L 63.83839 -188.433122 
L 63.883298 -188.433122 
L 63.883298 -188.433122 
L 63.973114 -188.433122 
L 63.973114 -188.433122 
L 64.152748 -188.433122 
L 64.152748 -188.433122 
L 64.781464 -188.433122 
L 64.781464 -188.433122 
L 65.320364 -188.433122 
L 65.320364 -188.433122 
L 65.365272 -188.433122 
L 65.365272 -188.433122 
L 65.589813 -188.433122 
L 65.589813 -188.433122 
L 65.67963 -188.433122 
L 65.67963 -188.433122 
L 65.724538 -188.433122 
L 65.724538 -188.433122 
L 65.769447 -188.433122 
L 65.769447 -188.433122 
L 66.038897 -188.433122 
L 66.038897 -188.433122 
L 66.712521 -188.433122 
L 66.712521 -188.433122 
L 67.026879 -188.433122 
L 67.026879 -188.433122 
L 67.386146 -188.433122 
L 67.386146 -188.433122 
L 68.05977 -188.433122 
L 68.05977 -188.433122 
L 68.194495 -188.433122 
L 68.194495 -188.433122 
L 68.284312 -188.433122 
L 68.284312 -188.433122 
L 68.419037 -188.433122 
L 68.419037 -188.433122 
L 68.463945 -188.433122 
L 68.463945 -188.433122 
L 68.643578 -188.433122 
L 68.643578 -188.433122 
L 68.733395 -188.433122 
L 68.733395 -188.433122 
L 68.778303 -188.433122 
L 68.778303 -188.433122 
L 69.496836 -188.433122 
L 69.496836 -188.433122 
L 70.664452 -188.433122 
L 70.664452 -188.433122 
L 71.023719 -188.433122 
L 71.023719 -188.433122 
L 71.068627 -188.433122 
L 71.068627 -188.433122 
L 72.460784 -188.433122 
L 72.460784 -188.433122 
L 73.314042 -188.433122 
L 73.314042 -188.433122 
L 73.808033 -188.433122 
L 73.808033 -188.433122 
L 74.346933 -188.433122 
L 74.346933 -188.433122 
L 74.796016 -188.433122 
L 74.796016 -188.433122 
L 75.065466 -188.433122 
L 75.065466 -188.433122 
L 75.469641 -188.433122 
L 75.469641 -188.433122 
L 75.514549 -188.433122 
L 75.514549 -188.433122 
L 76.098357 -188.433122 
L 76.098357 -188.433122 
L 76.143265 -188.433122 
L 76.143265 -188.433122 
L 76.457624 -188.433122 
L 76.457624 -188.433122 
L 76.996523 -188.433122 
L 76.996523 -188.433122 
L 77.35579 -188.433122 
L 77.35579 -188.433122 
L 77.445606 -188.433122 
L 77.445606 -188.433122 
L 77.849781 -188.433122 
L 77.849781 -188.433122 
L 78.433589 -188.433122 
L 78.433589 -188.433122 
L 78.837764 -188.433122 
L 78.837764 -188.433122 
L 79.46648 -188.433122 
L 79.46648 -188.433122 
L 79.73593 -188.433122 
L 79.73593 -188.433122 
L 79.915563 -188.433122 
L 79.915563 -188.433122 
L 80.00538 -188.433122 
L 80.00538 -188.433122 
L 80.319738 -188.433122 
L 80.319738 -188.433122 
L 80.993362 -188.433122 
L 80.993362 -188.433122 
L 82.071162 -188.433122 
L 82.071162 -188.433122 
L 84.406394 -188.433122 
L 84.406394 -188.433122 
L 84.675844 -188.433122 
L 84.675844 -188.433122 
L 85.84346 -188.433122 
L 85.84346 -188.433122 
L 86.696717 -188.433122 
L 86.696717 -188.433122 
L 87.774517 -188.433122 
L 87.774517 -188.433122 
L 88.582866 -188.433122 
L 88.582866 -188.433122 
L 88.762499 -188.433122 
L 88.762499 -188.433122 
L 89.391216 -188.433122 
L 89.391216 -188.433122 
L 89.481032 -188.433122 
L 89.481032 -188.433122 
L 89.705574 -188.433122 
L 89.705574 -188.433122 
L 90.244474 -188.433122 
L 90.244474 -188.433122 
L 92.355164 -188.433122 
L 92.355164 -188.433122 
L 92.669522 -188.433122 
L 92.669522 -188.433122 
L 92.894064 -188.433122 
L 92.894064 -188.433122 
L 94.376038 -188.433122 
L 94.376038 -188.433122 
L 99.181226 -188.433122 
L 99.181226 -188.433122 
L 100.259026 -188.433122 
L 100.259026 -188.433122 
L 101.157192 -188.433122 
L 101.157192 -188.433122 
L 104.92949 -188.433122 
L 104.92949 -188.433122 
L 104.974398 -188.433122 
L 104.974398 -188.433122 
L 105.198939 -188.433122 
L 105.198939 -188.433122 
L 106.052197 -188.433122 
L 106.052197 -188.433122 
L 107.983254 -188.433122 
L 107.983254 -188.433122 
L 108.297613 -188.433122 
L 108.297613 -188.433122 
L 108.701787 -188.433122 
L 108.701787 -188.433122 
L 108.881421 -188.433122 
L 108.881421 -188.433122 
L 109.734678 -188.433122 
L 109.734678 -188.433122 
L 110.677753 -188.433122 
L 110.677753 -188.433122 
L 112.429177 -188.433122 
L 112.429177 -188.433122 
L 113.237526 -188.433122 
L 113.237526 -188.433122 
L 113.686609 -188.433122 
L 113.686609 -188.433122 
L 116.336199 -188.433122 
L 116.336199 -188.433122 
L 118.71634 -188.433122 
L 118.71634 -188.433122 
L 119.839047 -188.433122 
L 119.839047 -188.433122 
L 120.108497 -188.433122 
L 120.108497 -188.433122 
L 121.815013 -188.433122 
L 121.815013 -188.433122 
L 122.488637 -188.433122 
L 122.488637 -188.433122 
L 124.240061 -188.433122 
L 124.240061 -188.433122 
L 125.497494 -188.433122 
L 125.497494 -188.433122 
L 127.069285 -188.433122 
L 127.069285 -188.433122 
L 127.159101 -188.433122 
L 127.159101 -188.433122 
L 127.293826 -188.433122 
L 127.293826 -188.433122 
L 128.147084 -188.433122 
L 128.147084 -172.474102 
L 129.808691 -172.474102 
L 129.808691 -172.474102 
L 129.8536 -172.474102 
L 129.8536 -172.474102 
L 130.347591 -172.474102 
L 130.347591 -172.474102 
L 130.661949 -172.474102 
L 130.661949 -172.474102 
L 131.42539 -172.474102 
L 131.42539 -172.474102 
L 131.649932 -172.474102 
L 131.649932 -172.474102 
L 134.34443 -172.474102 
L 134.34443 -172.474102 
L 135.691679 -172.474102 
L 135.691679 -172.474102 
L 137.398195 -172.474102 
L 137.398195 -172.474102 
L 142.607559 -172.474102 
L 142.607559 -172.474102 
L 143.460816 -172.474102 
L 143.460816 -172.474102 
L 144.269166 -172.474102 
L 144.269166 -172.474102 
L 145.257149 -172.474102 
L 145.257149 -172.474102 
L 146.514581 -172.474102 
L 146.514581 -172.474102 
L 148.445638 -172.474102 
L 148.445638 -172.474102 
L 157.517116 -172.474102 
L 157.517116 -172.474102 
L 158.909274 -172.474102 
L 158.909274 -172.474102 
L 161.019964 -172.474102 
L 161.019964 -172.474102 
L 164.926987 -172.474102 
L 164.926987 -172.474102 
L 166.633502 -172.474102 
L 166.633502 -142.518059 
L 168.429835 -142.518059 
L 168.429835 -142.518059 
L 169.238184 -142.518059 
L 169.238184 -142.518059 
L 172.291949 -142.518059 
L 172.291949 -122.619025 
L 172.741032 -122.619025 
L 172.741032 -122.619025 
L 174.851722 -122.619025 
L 174.851722 -122.619025 
L 182.575951 -122.619025 
L 182.575951 -102.370325 
L 190.704354 -102.370325 
L 190.704354 -102.370325 
L 193.21922 -102.370325 
L 193.21922 -102.370325 
L 193.758119 -102.370325 
L 193.758119 -102.370325 
L 211.047817 -102.370325 
L 211.047817 -102.370325 
L 211.856167 -102.370325 
L 211.856167 -102.370325 
L 262.692369 -102.370325 
L 262.692369 -102.370325 
L 266.015584 -102.370325 
L 266.015584 -102.370325 
L 266.419759 -102.370325 
L 266.419759 -102.370325 
L 266.419759 -179.232888 
L 266.419759 -179.232888 
L 266.419759 -179.232888 
L 266.015584 -179.232888 
L 266.015584 -179.232888 
L 262.692369 -179.232888 
L 262.692369 -179.232888 
L 211.856167 -179.232888 
L 211.856167 -179.232888 
L 211.047817 -179.232888 
L 211.047817 -179.232888 
L 193.758119 -179.232888 
L 193.758119 -179.232888 
L 193.21922 -179.232888 
L 193.21922 -179.232888 
L 190.704354 -179.232888 
L 190.704354 -179.232888 
L 182.575951 -179.232888 
L 182.575951 -186.737616 
L 174.851722 -186.737616 
L 174.851722 -186.737616 
L 172.741032 -186.737616 
L 172.741032 -186.737616 
L 172.291949 -186.737616 
L 172.291949 -192.089414 
L 169.238184 -192.089414 
L 169.238184 -192.089414 
L 168.429835 -192.089414 
L 168.429835 -192.089414 
L 166.633502 -192.089414 
L 166.633502 -195.169772 
L 164.926987 -195.169772 
L 164.926987 -195.169772 
L 161.019964 -195.169772 
L 161.019964 -195.169772 
L 158.909274 -195.169772 
L 158.909274 -195.169772 
L 157.517116 -195.169772 
L 157.517116 -195.169772 
L 148.445638 -195.169772 
L 148.445638 -195.169772 
L 146.514581 -195.169772 
L 146.514581 -195.169772 
L 145.257149 -195.169772 
L 145.257149 -195.169772 
L 144.269166 -195.169772 
L 144.269166 -195.169772 
L 143.460816 -195.169772 
L 143.460816 -195.169772 
L 142.607559 -195.169772 
L 142.607559 -195.169772 
L 137.398195 -195.169772 
L 137.398195 -195.169772 
L 135.691679 -195.169772 
L 135.691679 -195.169772 
L 134.34443 -195.169772 
L 134.34443 -195.169772 
L 131.649932 -195.169772 
L 131.649932 -195.169772 
L 131.42539 -195.169772 
L 131.42539 -195.169772 
L 130.661949 -195.169772 
L 130.661949 -195.169772 
L 130.347591 -195.169772 
L 130.347591 -195.169772 
L 129.8536 -195.169772 
L 129.8536 -195.169772 
L 129.808691 -195.169772 
L 129.808691 -195.169772 
L 128.147084 -195.169772 
L 128.147084 -196.33018 
L 127.293826 -196.33018 
L 127.293826 -196.33018 
L 127.159101 -196.33018 
L 127.159101 -196.33018 
L 127.069285 -196.33018 
L 127.069285 -196.33018 
L 125.497494 -196.33018 
L 125.497494 -196.33018 
L 124.240061 -196.33018 
L 124.240061 -196.33018 
L 122.488637 -196.33018 
L 122.488637 -196.33018 
L 121.815013 -196.33018 
L 121.815013 -196.33018 
L 120.108497 -196.33018 
L 120.108497 -196.33018 
L 119.839047 -196.33018 
L 119.839047 -196.33018 
L 118.71634 -196.33018 
L 118.71634 -196.33018 
L 116.336199 -196.33018 
L 116.336199 -196.33018 
L 113.686609 -196.33018 
L 113.686609 -196.33018 
L 113.237526 -196.33018 
L 113.237526 -196.33018 
L 112.429177 -196.33018 
L 112.429177 -196.33018 
L 110.677753 -196.33018 
L 110.677753 -196.33018 
L 109.734678 -196.33018 
L 109.734678 -196.33018 
L 108.881421 -196.33018 
L 108.881421 -196.33018 
L 108.701787 -196.33018 
L 108.701787 -196.33018 
L 108.297613 -196.33018 
L 108.297613 -196.33018 
L 107.983254 -196.33018 
L 107.983254 -196.33018 
L 106.052197 -196.33018 
L 106.052197 -196.33018 
L 105.198939 -196.33018 
L 105.198939 -196.33018 
L 104.974398 -196.33018 
L 104.974398 -196.33018 
L 104.92949 -196.33018 
L 104.92949 -196.33018 
L 101.157192 -196.33018 
L 101.157192 -196.33018 
L 100.259026 -196.33018 
L 100.259026 -196.33018 
L 99.181226 -196.33018 
L 99.181226 -196.33018 
L 94.376038 -196.33018 
L 94.376038 -196.33018 
L 92.894064 -196.33018 
L 92.894064 -196.33018 
L 92.669522 -196.33018 
L 92.669522 -196.33018 
L 92.355164 -196.33018 
L 92.355164 -196.33018 
L 90.244474 -196.33018 
L 90.244474 -196.33018 
L 89.705574 -196.33018 
L 89.705574 -196.33018 
L 89.481032 -196.33018 
L 89.481032 -196.33018 
L 89.391216 -196.33018 
L 89.391216 -196.33018 
L 88.762499 -196.33018 
L 88.762499 -196.33018 
L 88.582866 -196.33018 
L 88.582866 -196.33018 
L 87.774517 -196.33018 
L 87.774517 -196.33018 
L 86.696717 -196.33018 
L 86.696717 -196.33018 
L 85.84346 -196.33018 
L 85.84346 -196.33018 
L 84.675844 -196.33018 
L 84.675844 -196.33018 
L 84.406394 -196.33018 
L 84.406394 -196.33018 
L 82.071162 -196.33018 
L 82.071162 -196.33018 
L 80.993362 -196.33018 
L 80.993362 -196.33018 
L 80.319738 -196.33018 
L 80.319738 -196.33018 
L 80.00538 -196.33018 
L 80.00538 -196.33018 
L 79.915563 -196.33018 
L 79.915563 -196.33018 
L 79.73593 -196.33018 
L 79.73593 -196.33018 
L 79.46648 -196.33018 
L 79.46648 -196.33018 
L 78.837764 -196.33018 
L 78.837764 -196.33018 
L 78.433589 -196.33018 
L 78.433589 -196.33018 
L 77.849781 -196.33018 
L 77.849781 -196.33018 
L 77.445606 -196.33018 
L 77.445606 -196.33018 
L 77.35579 -196.33018 
L 77.35579 -196.33018 
L 76.996523 -196.33018 
L 76.996523 -196.33018 
L 76.457624 -196.33018 
L 76.457624 -196.33018 
L 76.143265 -196.33018 
L 76.143265 -196.33018 
L 76.098357 -196.33018 
L 76.098357 -196.33018 
L 75.514549 -196.33018 
L 75.514549 -196.33018 
L 75.469641 -196.33018 
L 75.469641 -196.33018 
L 75.065466 -196.33018 
L 75.065466 -196.33018 
L 74.796016 -196.33018 
L 74.796016 -196.33018 
L 74.346933 -196.33018 
L 74.346933 -196.33018 
L 73.808033 -196.33018 
L 73.808033 -196.33018 
L 73.314042 -196.33018 
L 73.314042 -196.33018 
L 72.460784 -196.33018 
L 72.460784 -196.33018 
L 71.068627 -196.33018 
L 71.068627 -196.33018 
L 71.023719 -196.33018 
L 71.023719 -196.33018 
L 70.664452 -196.33018 
L 70.664452 -196.33018 
L 69.496836 -196.33018 
L 69.496836 -196.33018 
L 68.778303 -196.33018 
L 68.778303 -196.33018 
L 68.733395 -196.33018 
L 68.733395 -196.33018 
L 68.643578 -196.33018 
L 68.643578 -196.33018 
L 68.463945 -196.33018 
L 68.463945 -196.33018 
L 68.419037 -196.33018 
L 68.419037 -196.33018 
L 68.284312 -196.33018 
L 68.284312 -196.33018 
L 68.194495 -196.33018 
L 68.194495 -196.33018 
L 68.05977 -196.33018 
L 68.05977 -196.33018 
L 67.386146 -196.33018 
L 67.386146 -196.33018 
L 67.026879 -196.33018 
L 67.026879 -196.33018 
L 66.712521 -196.33018 
L 66.712521 -196.33018 
L 66.038897 -196.33018 
L 66.038897 -196.33018 
L 65.769447 -196.33018 
L 65.769447 -196.33018 
L 65.724538 -196.33018 
L 65.724538 -196.33018 
L 65.67963 -196.33018 
L 65.67963 -196.33018 
L 65.589813 -196.33018 
L 65.589813 -196.33018 
L 65.365272 -196.33018 
L 65.365272 -196.33018 
L 65.320364 -196.33018 
L 65.320364 -196.33018 
L 64.781464 -196.33018 
L 64.781464 -196.33018 
L 64.152748 -196.33018 
L 64.152748 -196.33018 
L 63.973114 -196.33018 
L 63.973114 -196.33018 
L 63.883298 -196.33018 
L 63.883298 -196.33018 
L 63.83839 -196.33018 
L 63.83839 -196.33018 
L 63.703665 -196.33018 
L 63.703665 -196.33018 
L 63.164765 -196.33018 
L 63.164765 -196.33018 
L 63.074948 -196.33018 
L 63.074948 -196.33018 
L 62.625865 -196.33018 
L 62.625865 -196.33018 
L 62.446232 -196.33018 
L 62.446232 -196.33018 
L 62.401324 -196.33018 
L 62.401324 -196.33018 
L 62.22169 -196.33018 
L 62.22169 -196.33018 
L 61.862424 -196.33018 
L 61.862424 -196.33018 
L 61.682791 -196.33018 
L 61.682791 -196.33018 
L 61.413341 -196.33018 
L 61.413341 -196.33018 
L 61.368433 -196.33018 
L 61.368433 -196.33018 
L 61.233708 -196.33018 
L 61.233708 -196.33018 
L 61.054075 -196.33018 
L 61.054075 -196.33018 
L 60.91935 -196.33018 
L 60.91935 -196.33018 
L 60.694808 -196.33018 
L 60.694808 -196.33018 
L 60.604991 -196.33018 
L 60.604991 -196.33018 
L 60.560083 -196.33018 
L 60.560083 -196.33018 
L 60.290633 -196.33018 
L 60.290633 -196.33018 
L 60.155908 -196.33018 
L 60.155908 -196.33018 
L 60.066092 -196.33018 
L 60.066092 -196.33018 
L 59.078109 -196.33018 
L 59.078109 -196.33018 
L 58.853568 -196.33018 
L 58.853568 -196.33018 
L 58.718843 -196.33018 
L 58.718843 -196.33018 
L 58.314668 -196.33018 
L 58.314668 -196.33018 
L 58.26976 -196.33018 
L 58.26976 -196.33018 
L 58.045218 -196.33018 
L 58.045218 -196.33018 
L 57.551227 -196.33018 
L 57.551227 -196.33018 
L 57.506318 -196.33018 
L 57.506318 -196.33018 
L 57.326685 -196.33018 
L 57.326685 -196.33018 
L 57.102144 -196.33018 
L 57.102144 -196.33018 
L 56.877602 -196.33018 
L 56.877602 -196.33018 
L 56.832694 -196.33018 
L 56.832694 -196.33018 
L 56.787785 -196.33018 
L 56.787785 -196.33018 
L 56.653061 -196.33018 
L 56.653061 -196.33018 
L 56.383611 -196.33018 
L 56.383611 -196.33018 
L 56.338702 -196.33018 
L 56.338702 -196.33018 
L 56.203977 -196.33018 
L 56.203977 -196.33018 
L 56.159069 -196.33018 
L 56.159069 -196.33018 
L 56.069253 -196.33018 
L 56.069253 -196.33018 
L 56.024344 -196.33018 
L 56.024344 -196.33018 
L 55.979436 -196.33018 
L 55.979436 -196.33018 
L 55.889619 -196.33018 
L 55.889619 -196.811141 
L 55.844711 -196.811141 
L 55.844711 -196.811141 
L 55.126178 -196.811141 
L 55.126178 -196.811141 
L 55.08127 -196.811141 
L 55.08127 -197.226893 
L 54.766912 -197.226893 
L 54.766912 -197.226893 
L 54.587278 -197.226893 
L 54.587278 -197.226893 
L 54.452554 -197.226893 
L 54.452554 -197.226893 
L 52.790946 -197.226893 
L 52.790946 -197.226893 
L 52.027505 -197.226893 
L 52.027505 -197.226893 
L 50.770072 -197.226893 
L 50.770072 -197.539918 
L 49.51264 -197.539918 
L 49.51264 -197.662336 
L 48.120482 -197.662336 
L 48.120482 -197.662336 
L 48.030666 -197.662336 
L 48.030666 -197.662336 
L 46.952866 -197.662336 
L 46.952866 -197.662336 
L 44.887084 -197.662336 
L 44.887084 -197.662336 
L 44.348185 -197.662336 
L 44.348185 -197.662336 
L 43.899102 -197.662336 
L 43.899102 -197.662336 
L 43.629652 -197.662336 
L 43.629652 -197.662336 
L 42.686577 -197.662336 
L 42.686577 -197.662336 
L 42.641669 -197.662336 
L 42.641669 -197.662336 
L 42.506944 -197.662336 
L 42.506944 -197.662336 
L 41.698595 -197.662336 
L 41.698595 -197.662336 
L 41.204603 -197.662336 
L 41.204603 -197.662336 
L 40.530979 -197.662336 
L 40.530979 -197.662336 
L 40.306437 -197.662336 
L 40.306437 -197.662336 
L 40.21662 -197.662336 
L 40.21662 -197.662336 
L 36.758681 -197.662336 
z
" style="stroke: #2e86ab; stroke-opacity: 0.2"/>
    </defs>
    <g clip-path="url(#p00a3c7e054)">
     <use xlink:href="#mf0623059a9" x="0" y="213.012812" style="fill: #2e86ab; fill-opacity: 0.2; stroke: #2e86ab; stroke-opacity: 0.2"/>
    </g>
   </g>
   <g id="FillBetweenPolyCollection_2">
    <defs>
     <path id="ma0713e36a1" d="M 39.632812 -197.265081 
L 39.632812 -191.425821 
L 40.396254 -191.425821 
L 40.396254 -191.425821 
L 40.48607 -191.425821 
L 40.48607 -190.389954 
L 40.530979 -190.389954 
L 40.530979 -189.32373 
L 40.890245 -189.32373 
L 40.890245 -189.32373 
L 41.29442 -189.32373 
L 41.29442 -189.32373 
L 42.102769 -189.32373 
L 42.102769 -189.32373 
L 42.147678 -189.32373 
L 42.147678 -187.161543 
L 42.192586 -187.161543 
L 42.192586 -186.10529 
L 42.282403 -186.10529 
L 42.282403 -186.10529 
L 42.417127 -186.10529 
L 42.417127 -185.055504 
L 42.551852 -185.055504 
L 42.551852 -184.019542 
L 42.686577 -184.019542 
L 42.686577 -182.995797 
L 42.731486 -182.995797 
L 42.731486 -181.982927 
L 43.045844 -181.982927 
L 43.045844 -180.979814 
L 43.270385 -180.979814 
L 43.270385 -179.985517 
L 43.315294 -179.985517 
L 43.315294 -179.985517 
L 43.40511 -179.985517 
L 43.40511 -179.985517 
L 43.584743 -179.985517 
L 43.584743 -178.984722 
L 43.67456 -178.984722 
L 43.67456 -177.991852 
L 43.809285 -177.991852 
L 43.809285 -177.006227 
L 44.033827 -177.006227 
L 44.033827 -176.027263 
L 44.078735 -176.027263 
L 44.078735 -175.054456 
L 44.393093 -175.054456 
L 44.393093 -174.08737 
L 44.572726 -174.08737 
L 44.572726 -174.08737 
L 44.931993 -174.08737 
L 44.931993 -173.118649 
L 45.111626 -173.118649 
L 45.111626 -172.155106 
L 45.381076 -172.155106 
L 45.381076 -171.196422 
L 45.425984 -171.196422 
L 45.425984 -171.196422 
L 45.515801 -171.196422 
L 45.515801 -170.235353 
L 46.009792 -170.235353 
L 46.009792 -169.278752 
L 46.099609 -169.278752 
L 46.099609 -168.326377 
L 46.189425 -168.326377 
L 46.189425 -167.378008 
L 46.32415 -167.378008 
L 46.32415 -166.433446 
L 46.548692 -166.433446 
L 46.548692 -164.555045 
L 46.728325 -164.555045 
L 46.728325 -164.555045 
L 46.952866 -164.555045 
L 46.952866 -163.613954 
L 47.177408 -163.613954 
L 47.177408 -161.7415 
L 47.401949 -161.7415 
L 47.401949 -160.809881 
L 47.806124 -160.809881 
L 47.806124 -159.881178 
L 48.210299 -159.881178 
L 48.210299 -158.955287 
L 48.614474 -158.955287 
L 48.614474 -157.111561 
L 48.839015 -157.111561 
L 48.839015 -156.193551 
L 48.883924 -156.193551 
L 48.883924 -155.278004 
L 49.108465 -155.278004 
L 49.108465 -154.364847 
L 49.198282 -154.364847 
L 49.198282 -153.454012 
L 49.333007 -153.454012 
L 49.333007 -152.545434 
L 49.647365 -152.545434 
L 49.647365 -151.639055 
L 49.692273 -151.639055 
L 49.692273 -151.639055 
L 50.05154 -151.639055 
L 50.05154 -149.818451 
L 50.276081 -149.818451 
L 50.276081 -148.911338 
L 50.680256 -148.911338 
L 50.680256 -148.006282 
L 50.859889 -148.006282 
L 50.859889 -147.103237 
L 50.904797 -147.103237 
L 50.904797 -146.202158 
L 50.994614 -146.202158 
L 50.994614 -145.295615 
L 51.039522 -145.295615 
L 51.039522 -143.488341 
L 51.219155 -143.488341 
L 51.219155 -142.587532 
L 51.264064 -142.587532 
L 51.264064 -141.68856 
L 51.35388 -141.68856 
L 51.35388 -140.79139 
L 51.398789 -140.79139 
L 51.398789 -139.895991 
L 51.847872 -139.895991 
L 51.847872 -138.110384 
L 51.89278 -138.110384 
L 51.89278 -137.220119 
L 51.937688 -137.220119 
L 51.937688 -136.331511 
L 52.117322 -136.331511 
L 52.117322 -135.444537 
L 52.835855 -135.444537 
L 52.835855 -133.675393 
L 53.240029 -133.675393 
L 53.240029 -132.793181 
L 53.599296 -132.793181 
L 53.599296 -131.912515 
L 54.048379 -131.912515 
L 54.048379 -131.033375 
L 54.183104 -131.033375 
L 54.183104 -129.279604 
L 54.362737 -129.279604 
L 54.362737 -128.40494 
L 54.407645 -128.40494 
L 54.407645 -127.531735 
L 54.54237 -127.531735 
L 54.54237 -126.659976 
L 54.901637 -126.659976 
L 54.901637 -125.789648 
L 55.08127 -125.789648 
L 55.08127 -124.920738 
L 55.126178 -124.920738 
L 55.126178 -124.920738 
L 55.620169 -124.920738 
L 55.620169 -124.044783 
L 55.754894 -124.044783 
L 55.754894 -124.044783 
L 55.844711 -124.044783 
L 55.844711 -124.044783 
L 55.979436 -124.044783 
L 55.979436 -123.152772 
L 56.159069 -123.152772 
L 56.159069 -123.152772 
L 56.248886 -123.152772 
L 56.248886 -121.355331 
L 56.518336 -121.355331 
L 56.518336 -121.355331 
L 56.563244 -121.355331 
L 56.563244 -121.355331 
L 56.877602 -121.355331 
L 56.877602 -121.355331 
L 56.92251 -121.355331 
L 56.92251 -119.487155 
L 56.967419 -119.487155 
L 56.967419 -118.55584 
L 57.057235 -118.55584 
L 57.057235 -117.62635 
L 57.19196 -117.62635 
L 57.19196 -116.698665 
L 57.281777 -116.698665 
L 57.281777 -115.772771 
L 57.596135 -115.772771 
L 57.596135 -114.848651 
L 57.865585 -114.848651 
L 57.865585 -113.926291 
L 57.955401 -113.926291 
L 57.955401 -113.005679 
L 58.179943 -113.005679 
L 58.179943 -110.254208 
L 58.26976 -110.254208 
L 58.26976 -109.340471 
L 58.404484 -109.340471 
L 58.404484 -108.417178 
L 58.853568 -108.417178 
L 58.853568 -108.417178 
L 59.123017 -108.417178 
L 59.123017 -107.484029 
L 59.257742 -107.484029 
L 59.257742 -106.552727 
L 59.976275 -106.552727 
L 59.976275 -105.623262 
L 60.021183 -105.623262 
L 60.021183 -104.695628 
L 60.066092 -104.695628 
L 60.066092 -103.769816 
L 60.290633 -103.769816 
L 60.290633 -102.845821 
L 60.604991 -102.845821 
L 60.604991 -101.00326 
L 60.91935 -101.00326 
L 60.91935 -100.084686 
L 60.964258 -100.084686 
L 60.964258 -100.084686 
L 61.188799 -100.084686 
L 61.188799 -100.084686 
L 61.458249 -100.084686 
L 61.458249 -99.141615 
L 61.727699 -99.141615 
L 61.727699 -98.200547 
L 61.862424 -98.200547 
L 61.862424 -97.261477 
L 62.446232 -97.261477 
L 62.446232 -96.324404 
L 62.536049 -96.324404 
L 62.536049 -94.456243 
L 63.074948 -94.456243 
L 63.074948 -93.525156 
L 63.434215 -93.525156 
L 63.434215 -92.596066 
L 63.613848 -92.596066 
L 63.613848 -91.668976 
L 63.703665 -91.668976 
L 63.703665 -90.74389 
L 63.83839 -90.74389 
L 63.83839 -89.820814 
L 64.062931 -89.820814 
L 64.062931 -87.980714 
L 64.197656 -87.980714 
L 64.197656 -86.148738 
L 64.332381 -86.148738 
L 64.332381 -85.235821 
L 64.871281 -85.235821 
L 64.871281 -85.235821 
L 65.006005 -85.235821 
L 65.006005 -83.383215 
L 65.455089 -83.383215 
L 65.455089 -82.460255 
L 65.544905 -82.460255 
L 65.544905 -81.539544 
L 65.634722 -81.539544 
L 65.634722 -80.621097 
L 66.128713 -80.621097 
L 66.128713 -79.704933 
L 66.263438 -79.704933 
L 66.263438 -78.772358 
L 66.532888 -78.772358 
L 66.532888 -77.842287 
L 66.667613 -77.842287 
L 66.667613 -76.914743 
L 67.116696 -76.914743 
L 67.116696 -75.989752 
L 67.251421 -75.989752 
L 67.251421 -75.06734 
L 67.341237 -75.06734 
L 67.341237 -74.147537 
L 67.610687 -74.147537 
L 67.610687 -73.230375 
L 67.925045 -73.230375 
L 67.925045 -72.315888 
L 68.374128 -72.315888 
L 68.374128 -72.315888 
L 68.86812 -72.315888 
L 68.86812 -71.381817 
L 69.496836 -71.381817 
L 69.496836 -70.450748 
L 69.901011 -70.450748 
L 69.901011 -69.522726 
L 70.170461 -69.522726 
L 70.170461 -68.597797 
L 70.395002 -68.597797 
L 70.395002 -67.676012 
L 70.619544 -67.676012 
L 70.619544 -66.757427 
L 70.888994 -66.757427 
L 70.888994 -65.842098 
L 71.338077 -65.842098 
L 71.338077 -64.93009 
L 71.607526 -64.93009 
L 71.607526 -64.021471 
L 71.921885 -64.021471 
L 71.921885 -63.116315 
L 72.595509 -63.116315 
L 72.595509 -62.214699 
L 72.820051 -62.214699 
L 72.820051 -61.316708 
L 73.673309 -61.316708 
L 73.673309 -61.316708 
L 74.571475 -61.316708 
L 74.571475 -60.392071 
L 75.334916 -60.392071 
L 75.334916 -59.47173 
L 76.412715 -59.47173 
L 76.412715 -58.555801 
L 76.592348 -58.555801 
L 76.592348 -57.644408 
L 77.131248 -57.644408 
L 77.131248 -56.737689 
L 78.209047 -56.737689 
L 78.209047 -55.835792 
L 78.433589 -55.835792 
L 78.433589 -54.938881 
L 80.229921 -54.938881 
L 80.229921 -54.047133 
L 81.891529 -54.047133 
L 81.891529 -53.160744 
L 82.250795 -53.160744 
L 82.250795 -52.279928 
L 83.373503 -52.279928 
L 83.373503 -51.404923 
L 84.720752 -51.404923 
L 84.720752 -50.535989 
L 84.76566 -50.535989 
L 84.76566 -49.673417 
L 84.900385 -49.673417 
L 84.900385 -48.817531 
L 86.157818 -48.817531 
L 86.157818 -47.968691 
L 87.41525 -47.968691 
L 87.41525 -47.127305 
L 87.999058 -47.127305 
L 87.999058 -46.29383 
L 91.861173 -46.29383 
L 91.861173 -45.468787 
L 96.666361 -45.468787 
L 96.666361 -44.652773 
L 100.169209 -44.652773 
L 100.169209 -43.846473 
L 101.022467 -43.846473 
L 101.022467 -43.050682 
L 103.402607 -43.050682 
L 103.402607 -42.266335 
L 103.537332 -42.266335 
L 103.537332 -41.494535 
L 109.510137 -41.494535 
L 109.510137 -40.736609 
L 111.665736 -40.736609 
L 111.665736 -40.736609 
L 114.629684 -40.736609 
L 114.629684 -39.899698 
L 116.605649 -39.899698 
L 116.605649 -39.899698 
L 116.785282 -39.899698 
L 116.785282 -38.957562 
L 120.647397 -38.957562 
L 120.647397 -38.062629 
L 120.737213 -38.062629 
L 120.737213 -38.062629 
L 123.566437 -38.062629 
L 123.566437 -37.002993 
L 130.347591 -37.002993 
L 130.347591 -36.07725 
L 130.527224 -36.07725 
L 130.527224 -36.07725 
L 158.235649 -36.07725 
L 158.235649 -34.930664 
L 218.412779 -34.930664 
L 218.412779 -34.930664 
L 218.412779 -44.146369 
L 218.412779 -44.146369 
L 218.412779 -44.146369 
L 158.235649 -44.146369 
L 158.235649 -45.830925 
L 130.527224 -45.830925 
L 130.527224 -45.830925 
L 130.347591 -45.830925 
L 130.347591 -47.609742 
L 123.566437 -47.609742 
L 123.566437 -49.284268 
L 120.737213 -49.284268 
L 120.737213 -49.284268 
L 120.647397 -49.284268 
L 120.647397 -50.788948 
L 116.785282 -50.788948 
L 116.785282 -52.254302 
L 116.605649 -52.254302 
L 116.605649 -52.254302 
L 114.629684 -52.254302 
L 114.629684 -53.600026 
L 111.665736 -53.600026 
L 111.665736 -53.600026 
L 109.510137 -53.600026 
L 109.510137 -54.850698 
L 103.537332 -54.850698 
L 103.537332 -56.089076 
L 103.402607 -56.089076 
L 103.402607 -57.3163 
L 101.022467 -57.3163 
L 101.022467 -58.533328 
L 100.169209 -58.533328 
L 100.169209 -59.740974 
L 96.666361 -59.740974 
L 96.666361 -60.939936 
L 91.861173 -60.939936 
L 91.861173 -62.130816 
L 87.999058 -62.130816 
L 87.999058 -63.314142 
L 87.41525 -63.314142 
L 87.41525 -64.490375 
L 86.157818 -64.490375 
L 86.157818 -65.659923 
L 84.900385 -65.659923 
L 84.900385 -66.823148 
L 84.76566 -66.823148 
L 84.76566 -67.980373 
L 84.720752 -67.980373 
L 84.720752 -69.131889 
L 83.373503 -69.131889 
L 83.373503 -70.277957 
L 82.250795 -70.277957 
L 82.250795 -71.418812 
L 81.891529 -71.418812 
L 81.891529 -72.554667 
L 80.229921 -72.554667 
L 80.229921 -73.685719 
L 78.433589 -73.685719 
L 78.433589 -74.812144 
L 78.209047 -74.812144 
L 78.209047 -75.934104 
L 77.131248 -75.934104 
L 77.131248 -77.051749 
L 76.592348 -77.051749 
L 76.592348 -78.165214 
L 76.412715 -78.165214 
L 76.412715 -79.274626 
L 75.334916 -79.274626 
L 75.334916 -80.380101 
L 74.571475 -80.380101 
L 74.571475 -81.481745 
L 73.673309 -81.481745 
L 73.673309 -81.481745 
L 72.820051 -81.481745 
L 72.820051 -82.555173 
L 72.595509 -82.555173 
L 72.595509 -83.625327 
L 71.921885 -83.625327 
L 71.921885 -84.692288 
L 71.607526 -84.692288 
L 71.607526 -85.756128 
L 71.338077 -85.756128 
L 71.338077 -86.816915 
L 70.888994 -86.816915 
L 70.888994 -87.874713 
L 70.619544 -87.874713 
L 70.619544 -88.929582 
L 70.395002 -88.929582 
L 70.395002 -89.981578 
L 70.170461 -89.981578 
L 70.170461 -91.030752 
L 69.901011 -91.030752 
L 69.901011 -92.077153 
L 69.496836 -92.077153 
L 69.496836 -93.120826 
L 68.86812 -93.120826 
L 68.86812 -94.161813 
L 68.374128 -94.161813 
L 68.374128 -94.161813 
L 67.925045 -94.161813 
L 67.925045 -95.182651 
L 67.610687 -95.182651 
L 67.610687 -96.201073 
L 67.341237 -96.201073 
L 67.341237 -97.217112 
L 67.251421 -97.217112 
L 67.251421 -98.230799 
L 67.116696 -98.230799 
L 67.116696 -99.242163 
L 66.667613 -99.242163 
L 66.667613 -100.251232 
L 66.532888 -100.251232 
L 66.532888 -101.25803 
L 66.263438 -101.25803 
L 66.263438 -102.262581 
L 66.128713 -102.262581 
L 66.128713 -103.250452 
L 65.634722 -103.250452 
L 65.634722 -104.236256 
L 65.544905 -104.236256 
L 65.544905 -105.220012 
L 65.455089 -105.220012 
L 65.455089 -106.201736 
L 65.006005 -106.201736 
L 65.006005 -108.159154 
L 64.871281 -108.159154 
L 64.871281 -108.159154 
L 64.332381 -108.159154 
L 64.332381 -109.122223 
L 64.197656 -109.122223 
L 64.197656 -111.042779 
L 64.062931 -111.042779 
L 64.062931 -112.955962 
L 63.83839 -112.955962 
L 63.83839 -113.909812 
L 63.703665 -113.909812 
L 63.703665 -114.861846 
L 63.613848 -114.861846 
L 63.613848 -115.81207 
L 63.434215 -115.81207 
L 63.434215 -116.76049 
L 63.074948 -116.76049 
L 63.074948 -117.707111 
L 62.536049 -117.707111 
L 62.536049 -119.594973 
L 62.446232 -119.594973 
L 62.446232 -120.536221 
L 61.862424 -120.536221 
L 61.862424 -121.475682 
L 61.727699 -121.475682 
L 61.727699 -122.413358 
L 61.458249 -122.413358 
L 61.458249 -123.34925 
L 61.188799 -123.34925 
L 61.188799 -123.34925 
L 60.964258 -123.34925 
L 60.964258 -123.34925 
L 60.91935 -123.34925 
L 60.91935 -124.264201 
L 60.604991 -124.264201 
L 60.604991 -126.089196 
L 60.290633 -126.089196 
L 60.290633 -126.999237 
L 60.066092 -126.999237 
L 60.066092 -127.907638 
L 60.021183 -127.907638 
L 60.021183 -128.814397 
L 59.976275 -128.814397 
L 59.976275 -129.719509 
L 59.257742 -129.719509 
L 59.257742 -130.62297 
L 59.123017 -130.62297 
L 59.123017 -131.524776 
L 58.853568 -131.524776 
L 58.853568 -131.524776 
L 58.404484 -131.524776 
L 58.404484 -132.416664 
L 58.26976 -132.416664 
L 58.26976 -133.298939 
L 58.179943 -133.298939 
L 58.179943 -135.936433 
L 57.955401 -135.936433 
L 57.955401 -136.812465 
L 57.865585 -136.812465 
L 57.865585 -137.686917 
L 57.596135 -137.686917 
L 57.596135 -138.55978 
L 57.281777 -138.55978 
L 57.281777 -139.431044 
L 57.19196 -139.431044 
L 57.19196 -140.3007 
L 57.057235 -140.3007 
L 57.057235 -141.168735 
L 56.967419 -141.168735 
L 56.967419 -142.035138 
L 56.92251 -142.035138 
L 56.92251 -143.762996 
L 56.877602 -143.762996 
L 56.877602 -143.762996 
L 56.563244 -143.762996 
L 56.563244 -143.762996 
L 56.518336 -143.762996 
L 56.518336 -143.762996 
L 56.248886 -143.762996 
L 56.248886 -145.431633 
L 56.159069 -145.431633 
L 56.159069 -145.431633 
L 55.979436 -145.431633 
L 55.979436 -146.257499 
L 55.844711 -146.257499 
L 55.844711 -146.257499 
L 55.754894 -146.257499 
L 55.754894 -146.257499 
L 55.620169 -146.257499 
L 55.620169 -147.069871 
L 55.126178 -147.069871 
L 55.126178 -147.069871 
L 55.08127 -147.069871 
L 55.08127 -147.875022 
L 54.901637 -147.875022 
L 54.901637 -148.678805 
L 54.54237 -148.678805 
L 54.54237 -149.481207 
L 54.407645 -149.481207 
L 54.407645 -150.282216 
L 54.362737 -150.282216 
L 54.362737 -151.081816 
L 54.183104 -151.081816 
L 54.183104 -152.676734 
L 54.048379 -152.676734 
L 54.048379 -153.472019 
L 53.599296 -153.472019 
L 53.599296 -154.265833 
L 53.240029 -154.265833 
L 53.240029 -155.058158 
L 52.835855 -155.058158 
L 52.835855 -156.638265 
L 52.117322 -156.638265 
L 52.117322 -157.426005 
L 51.937688 -157.426005 
L 51.937688 -158.212175 
L 51.89278 -158.212175 
L 51.89278 -158.996751 
L 51.847872 -158.996751 
L 51.847872 -160.561026 
L 51.398789 -160.561026 
L 51.398789 -161.340672 
L 51.35388 -161.340672 
L 51.35388 -162.118619 
L 51.264064 -162.118619 
L 51.264064 -162.894839 
L 51.219155 -162.894839 
L 51.219155 -163.669301 
L 51.039522 -163.669301 
L 51.039522 -165.212814 
L 50.994614 -165.212814 
L 50.994614 -165.981794 
L 50.904797 -165.981794 
L 50.904797 -166.744379 
L 50.859889 -166.744379 
L 50.859889 -167.505064 
L 50.680256 -167.505064 
L 50.680256 -168.263809 
L 50.276081 -168.263809 
L 50.276081 -169.02057 
L 50.05154 -169.02057 
L 50.05154 -170.52795 
L 49.692273 -170.52795 
L 49.692273 -170.52795 
L 49.647365 -170.52795 
L 49.647365 -171.274296 
L 49.333007 -171.274296 
L 49.333007 -172.0185 
L 49.198282 -172.0185 
L 49.198282 -172.760504 
L 49.108465 -172.760504 
L 49.108465 -173.500248 
L 48.883924 -173.500248 
L 48.883924 -174.237666 
L 48.839015 -174.237666 
L 48.839015 -174.972689 
L 48.614474 -174.972689 
L 48.614474 -176.43525 
L 48.210299 -176.43525 
L 48.210299 -177.162623 
L 47.806124 -177.162623 
L 47.806124 -177.887272 
L 47.401949 -177.887272 
L 47.401949 -178.609099 
L 47.177408 -178.609099 
L 47.177408 -180.043853 
L 46.952866 -180.043853 
L 46.952866 -180.756543 
L 46.728325 -180.756543 
L 46.728325 -180.756543 
L 46.548692 -180.756543 
L 46.548692 -182.164946 
L 46.32415 -182.164946 
L 46.32415 -182.863915 
L 46.189425 -182.863915 
L 46.189425 -183.559175 
L 46.099609 -183.559175 
L 46.099609 -184.250536 
L 46.009792 -184.250536 
L 46.009792 -184.937794 
L 45.515801 -184.937794 
L 45.515801 -185.620719 
L 45.425984 -185.620719 
L 45.425984 -185.620719 
L 45.381076 -185.620719 
L 45.381076 -186.295941 
L 45.111626 -186.295941 
L 45.111626 -186.966375 
L 44.931993 -186.966375 
L 44.931993 -187.631711 
L 44.572726 -187.631711 
L 44.572726 -187.631711 
L 44.393093 -187.631711 
L 44.393093 -188.288672 
L 44.078735 -188.288672 
L 44.078735 -188.939881 
L 44.033827 -188.939881 
L 44.033827 -189.584891 
L 43.809285 -189.584891 
L 43.809285 -190.223193 
L 43.67456 -190.223193 
L 43.67456 -190.854191 
L 43.584743 -190.854191 
L 43.584743 -191.47719 
L 43.40511 -191.47719 
L 43.40511 -191.47719 
L 43.315294 -191.47719 
L 43.315294 -191.47719 
L 43.270385 -191.47719 
L 43.270385 -192.086369 
L 43.045844 -192.086369 
L 43.045844 -192.686019 
L 42.731486 -192.686019 
L 42.731486 -193.274983 
L 42.686577 -193.274983 
L 42.686577 -193.851829 
L 42.551852 -193.851829 
L 42.551852 -194.41475 
L 42.417127 -194.41475 
L 42.417127 -194.961408 
L 42.282403 -194.961408 
L 42.282403 -194.961408 
L 42.192586 -194.961408 
L 42.192586 -195.486816 
L 42.147678 -195.486816 
L 42.147678 -196.461194 
L 42.102769 -196.461194 
L 42.102769 -196.461194 
L 41.29442 -196.461194 
L 41.29442 -196.461194 
L 40.890245 -196.461194 
L 40.890245 -196.461194 
L 40.530979 -196.461194 
L 40.530979 -196.890366 
L 40.48607 -196.890366 
L 40.48607 -197.265081 
L 40.396254 -197.265081 
L 40.396254 -197.265081 
L 39.632812 -197.265081 
z
" style="stroke: #e63946; stroke-opacity: 0.2"/>
    </defs>
    <g clip-path="url(#p00a3c7e054)">
     <use xlink:href="#ma0713e36a1" x="0" y="213.012812" style="fill: #e63946; fill-opacity: 0.2; stroke: #e63946; stroke-opacity: 0.2"/>
    </g>
   </g>
   <g id="line2d_25">
    <defs>
     <path id="mdbd7d99f16" d="M -3 3 
L 3 -3 
M -3 -3 
L 3 3 
" style="stroke: #2e86ab"/>
    </defs>
    <g clip-path="url(#p00a3c7e054)">
     <use xlink:href="#mdbd7d99f16" x="36.758681" y="15.350476" style="fill: #2e86ab; stroke: #2e86ab"/>
     <use xlink:href="#mdbd7d99f16" x="40.21662" y="15.350476" style="fill: #2e86ab; stroke: #2e86ab"/>
     <use xlink:href="#mdbd7d99f16" x="40.306437" y="15.350476" style="fill: #2e86ab; stroke: #2e86ab"/>
     <use xlink:href="#mdbd7d99f16" x="40.530979" y="15.350476" style="fill: #2e86ab; stroke: #2e86ab"/>
     <use xlink:href="#mdbd7d99f16" x="41.204603" y="15.350476" style="fill: #2e86ab; stroke: #2e86ab"/>
     <use xlink:href="#mdbd7d99f16" x="41.698595" y="15.350476" style="fill: #2e86ab; stroke: #2e86ab"/>
     <use xlink:href="#mdbd7d99f16" x="42.506944" y="15.350476" style="fill: #2e86ab; stroke: #2e86ab"/>
     <use xlink:href="#mdbd7d99f16" x="42.641669" y="15.350476" style="fill: #2e86ab; stroke: #2e86ab"/>
     <use xlink:href="#mdbd7d99f16" x="42.686577" y="15.350476" style="fill: #2e86ab; stroke: #2e86ab"/>
     <use xlink:href="#mdbd7d99f16" x="43.629652" y="15.350476" style="fill: #2e86ab; stroke: #2e86ab"/>
     <use xlink:href="#mdbd7d99f16" x="43.899102" y="15.350476" style="fill: #2e86ab; stroke: #2e86ab"/>
     <use xlink:href="#mdbd7d99f16" x="44.348185" y="15.350476" style="fill: #2e86ab; stroke: #2e86ab"/>
     <use xlink:href="#mdbd7d99f16" x="44.887084" y="15.350476" style="fill: #2e86ab; stroke: #2e86ab"/>
     <use xlink:href="#mdbd7d99f16" x="46.952866" y="15.350476" style="fill: #2e86ab; stroke: #2e86ab"/>
     <use xlink:href="#mdbd7d99f16" x="48.030666" y="15.350476" style="fill: #2e86ab; stroke: #2e86ab"/>
     <use xlink:href="#mdbd7d99f16" x="48.120482" y="15.350476" style="fill: #2e86ab; stroke: #2e86ab"/>
     <use xlink:href="#mdbd7d99f16" x="52.027505" y="17.08462" style="fill: #2e86ab; stroke: #2e86ab"/>
     <use xlink:href="#mdbd7d99f16" x="52.790946" y="17.08462" style="fill: #2e86ab; stroke: #2e86ab"/>
     <use xlink:href="#mdbd7d99f16" x="54.452554" y="17.08462" style="fill: #2e86ab; stroke: #2e86ab"/>
     <use xlink:href="#mdbd7d99f16" x="54.587278" y="17.08462" style="fill: #2e86ab; stroke: #2e86ab"/>
     <use xlink:href="#mdbd7d99f16" x="54.766912" y="17.08462" style="fill: #2e86ab; stroke: #2e86ab"/>
     <use xlink:href="#mdbd7d99f16" x="55.126178" y="17.975644" style="fill: #2e86ab; stroke: #2e86ab"/>
     <use xlink:href="#mdbd7d99f16" x="55.844711" y="17.975644" style="fill: #2e86ab; stroke: #2e86ab"/>
     <use xlink:href="#mdbd7d99f16" x="55.979436" y="18.87668" style="fill: #2e86ab; stroke: #2e86ab"/>
     <use xlink:href="#mdbd7d99f16" x="56.024344" y="18.87668" style="fill: #2e86ab; stroke: #2e86ab"/>
     <use xlink:href="#mdbd7d99f16" x="56.069253" y="18.87668" style="fill: #2e86ab; stroke: #2e86ab"/>
     <use xlink:href="#mdbd7d99f16" x="56.159069" y="18.87668" style="fill: #2e86ab; stroke: #2e86ab"/>
     <use xlink:href="#mdbd7d99f16" x="56.203977" y="18.87668" style="fill: #2e86ab; stroke: #2e86ab"/>
     <use xlink:href="#mdbd7d99f16" x="56.338702" y="18.87668" style="fill: #2e86ab; stroke: #2e86ab"/>
     <use xlink:href="#mdbd7d99f16" x="56.383611" y="18.87668" style="fill: #2e86ab; stroke: #2e86ab"/>
     <use xlink:href="#mdbd7d99f16" x="56.653061" y="18.87668" style="fill: #2e86ab; stroke: #2e86ab"/>
     <use xlink:href="#mdbd7d99f16" x="56.787785" y="18.87668" style="fill: #2e86ab; stroke: #2e86ab"/>
     <use xlink:href="#mdbd7d99f16" x="56.832694" y="18.87668" style="fill: #2e86ab; stroke: #2e86ab"/>
     <use xlink:href="#mdbd7d99f16" x="56.877602" y="18.87668" style="fill: #2e86ab; stroke: #2e86ab"/>
     <use xlink:href="#mdbd7d99f16" x="57.102144" y="18.87668" style="fill: #2e86ab; stroke: #2e86ab"/>
     <use xlink:href="#mdbd7d99f16" x="57.326685" y="18.87668" style="fill: #2e86ab; stroke: #2e86ab"/>
     <use xlink:href="#mdbd7d99f16" x="57.506318" y="18.87668" style="fill: #2e86ab; stroke: #2e86ab"/>
     <use xlink:href="#mdbd7d99f16" x="57.551227" y="18.87668" style="fill: #2e86ab; stroke: #2e86ab"/>
     <use xlink:href="#mdbd7d99f16" x="58.045218" y="18.87668" style="fill: #2e86ab; stroke: #2e86ab"/>
     <use xlink:href="#mdbd7d99f16" x="58.26976" y="18.87668" style="fill: #2e86ab; stroke: #2e86ab"/>
     <use xlink:href="#mdbd7d99f16" x="58.314668" y="18.87668" style="fill: #2e86ab; stroke: #2e86ab"/>
     <use xlink:href="#mdbd7d99f16" x="58.718843" y="18.87668" style="fill: #2e86ab; stroke: #2e86ab"/>
     <use xlink:href="#mdbd7d99f16" x="58.853568" y="18.87668" style="fill: #2e86ab; stroke: #2e86ab"/>
     <use xlink:href="#mdbd7d99f16" x="59.078109" y="18.87668" style="fill: #2e86ab; stroke: #2e86ab"/>
     <use xlink:href="#mdbd7d99f16" x="60.066092" y="18.87668" style="fill: #2e86ab; stroke: #2e86ab"/>
     <use xlink:href="#mdbd7d99f16" x="60.155908" y="18.87668" style="fill: #2e86ab; stroke: #2e86ab"/>
     <use xlink:href="#mdbd7d99f16" x="60.290633" y="18.87668" style="fill: #2e86ab; stroke: #2e86ab"/>
     <use xlink:href="#mdbd7d99f16" x="60.560083" y="18.87668" style="fill: #2e86ab; stroke: #2e86ab"/>
     <use xlink:href="#mdbd7d99f16" x="60.604991" y="18.87668" style="fill: #2e86ab; stroke: #2e86ab"/>
     <use xlink:href="#mdbd7d99f16" x="60.694808" y="18.87668" style="fill: #2e86ab; stroke: #2e86ab"/>
     <use xlink:href="#mdbd7d99f16" x="60.91935" y="18.87668" style="fill: #2e86ab; stroke: #2e86ab"/>
     <use xlink:href="#mdbd7d99f16" x="61.054075" y="18.87668" style="fill: #2e86ab; stroke: #2e86ab"/>
     <use xlink:href="#mdbd7d99f16" x="61.233708" y="18.87668" style="fill: #2e86ab; stroke: #2e86ab"/>
     <use xlink:href="#mdbd7d99f16" x="61.368433" y="18.87668" style="fill: #2e86ab; stroke: #2e86ab"/>
     <use xlink:href="#mdbd7d99f16" x="61.413341" y="18.87668" style="fill: #2e86ab; stroke: #2e86ab"/>
     <use xlink:href="#mdbd7d99f16" x="61.682791" y="18.87668" style="fill: #2e86ab; stroke: #2e86ab"/>
     <use xlink:href="#mdbd7d99f16" x="61.862424" y="18.87668" style="fill: #2e86ab; stroke: #2e86ab"/>
     <use xlink:href="#mdbd7d99f16" x="62.22169" y="18.87668" style="fill: #2e86ab; stroke: #2e86ab"/>
     <use xlink:href="#mdbd7d99f16" x="62.401324" y="18.87668" style="fill: #2e86ab; stroke: #2e86ab"/>
     <use xlink:href="#mdbd7d99f16" x="62.446232" y="18.87668" style="fill: #2e86ab; stroke: #2e86ab"/>
     <use xlink:href="#mdbd7d99f16" x="62.625865" y="18.87668" style="fill: #2e86ab; stroke: #2e86ab"/>
     <use xlink:href="#mdbd7d99f16" x="63.074948" y="18.87668" style="fill: #2e86ab; stroke: #2e86ab"/>
     <use xlink:href="#mdbd7d99f16" x="63.164765" y="18.87668" style="fill: #2e86ab; stroke: #2e86ab"/>
     <use xlink:href="#mdbd7d99f16" x="63.703665" y="18.87668" style="fill: #2e86ab; stroke: #2e86ab"/>
     <use xlink:href="#mdbd7d99f16" x="63.83839" y="18.87668" style="fill: #2e86ab; stroke: #2e86ab"/>
     <use xlink:href="#mdbd7d99f16" x="63.883298" y="18.87668" style="fill: #2e86ab; stroke: #2e86ab"/>
     <use xlink:href="#mdbd7d99f16" x="63.973114" y="18.87668" style="fill: #2e86ab; stroke: #2e86ab"/>
     <use xlink:href="#mdbd7d99f16" x="64.152748" y="18.87668" style="fill: #2e86ab; stroke: #2e86ab"/>
     <use xlink:href="#mdbd7d99f16" x="64.781464" y="18.87668" style="fill: #2e86ab; stroke: #2e86ab"/>
     <use xlink:href="#mdbd7d99f16" x="65.320364" y="18.87668" style="fill: #2e86ab; stroke: #2e86ab"/>
     <use xlink:href="#mdbd7d99f16" x="65.365272" y="18.87668" style="fill: #2e86ab; stroke: #2e86ab"/>
     <use xlink:href="#mdbd7d99f16" x="65.589813" y="18.87668" style="fill: #2e86ab; stroke: #2e86ab"/>
     <use xlink:href="#mdbd7d99f16" x="65.67963" y="18.87668" style="fill: #2e86ab; stroke: #2e86ab"/>
     <use xlink:href="#mdbd7d99f16" x="65.724538" y="18.87668" style="fill: #2e86ab; stroke: #2e86ab"/>
     <use xlink:href="#mdbd7d99f16" x="65.769447" y="18.87668" style="fill: #2e86ab; stroke: #2e86ab"/>
     <use xlink:href="#mdbd7d99f16" x="66.038897" y="18.87668" style="fill: #2e86ab; stroke: #2e86ab"/>
     <use xlink:href="#mdbd7d99f16" x="66.712521" y="18.87668" style="fill: #2e86ab; stroke: #2e86ab"/>
     <use xlink:href="#mdbd7d99f16" x="67.026879" y="18.87668" style="fill: #2e86ab; stroke: #2e86ab"/>
     <use xlink:href="#mdbd7d99f16" x="67.386146" y="18.87668" style="fill: #2e86ab; stroke: #2e86ab"/>
     <use xlink:href="#mdbd7d99f16" x="68.05977" y="18.87668" style="fill: #2e86ab; stroke: #2e86ab"/>
     <use xlink:href="#mdbd7d99f16" x="68.194495" y="18.87668" style="fill: #2e86ab; stroke: #2e86ab"/>
     <use xlink:href="#mdbd7d99f16" x="68.284312" y="18.87668" style="fill: #2e86ab; stroke: #2e86ab"/>
     <use xlink:href="#mdbd7d99f16" x="68.419037" y="18.87668" style="fill: #2e86ab; stroke: #2e86ab"/>
     <use xlink:href="#mdbd7d99f16" x="68.463945" y="18.87668" style="fill: #2e86ab; stroke: #2e86ab"/>
     <use xlink:href="#mdbd7d99f16" x="68.643578" y="18.87668" style="fill: #2e86ab; stroke: #2e86ab"/>
     <use xlink:href="#mdbd7d99f16" x="68.733395" y="18.87668" style="fill: #2e86ab; stroke: #2e86ab"/>
     <use xlink:href="#mdbd7d99f16" x="68.778303" y="18.87668" style="fill: #2e86ab; stroke: #2e86ab"/>
     <use xlink:href="#mdbd7d99f16" x="69.496836" y="18.87668" style="fill: #2e86ab; stroke: #2e86ab"/>
     <use xlink:href="#mdbd7d99f16" x="70.664452" y="18.87668" style="fill: #2e86ab; stroke: #2e86ab"/>
     <use xlink:href="#mdbd7d99f16" x="71.023719" y="18.87668" style="fill: #2e86ab; stroke: #2e86ab"/>
     <use xlink:href="#mdbd7d99f16" x="71.068627" y="18.87668" style="fill: #2e86ab; stroke: #2e86ab"/>
     <use xlink:href="#mdbd7d99f16" x="72.460784" y="18.87668" style="fill: #2e86ab; stroke: #2e86ab"/>
     <use xlink:href="#mdbd7d99f16" x="73.314042" y="18.87668" style="fill: #2e86ab; stroke: #2e86ab"/>
     <use xlink:href="#mdbd7d99f16" x="73.808033" y="18.87668" style="fill: #2e86ab; stroke: #2e86ab"/>
     <use xlink:href="#mdbd7d99f16" x="74.346933" y="18.87668" style="fill: #2e86ab; stroke: #2e86ab"/>
     <use xlink:href="#mdbd7d99f16" x="74.796016" y="18.87668" style="fill: #2e86ab; stroke: #2e86ab"/>
     <use xlink:href="#mdbd7d99f16" x="75.065466" y="18.87668" style="fill: #2e86ab; stroke: #2e86ab"/>
     <use xlink:href="#mdbd7d99f16" x="75.469641" y="18.87668" style="fill: #2e86ab; stroke: #2e86ab"/>
     <use xlink:href="#mdbd7d99f16" x="75.514549" y="18.87668" style="fill: #2e86ab; stroke: #2e86ab"/>
     <use xlink:href="#mdbd7d99f16" x="76.098357" y="18.87668" style="fill: #2e86ab; stroke: #2e86ab"/>
     <use xlink:href="#mdbd7d99f16" x="76.143265" y="18.87668" style="fill: #2e86ab; stroke: #2e86ab"/>
     <use xlink:href="#mdbd7d99f16" x="76.457624" y="18.87668" style="fill: #2e86ab; stroke: #2e86ab"/>
     <use xlink:href="#mdbd7d99f16" x="76.996523" y="18.87668" style="fill: #2e86ab; stroke: #2e86ab"/>
     <use xlink:href="#mdbd7d99f16" x="77.35579" y="18.87668" style="fill: #2e86ab; stroke: #2e86ab"/>
     <use xlink:href="#mdbd7d99f16" x="77.445606" y="18.87668" style="fill: #2e86ab; stroke: #2e86ab"/>
     <use xlink:href="#mdbd7d99f16" x="77.849781" y="18.87668" style="fill: #2e86ab; stroke: #2e86ab"/>
     <use xlink:href="#mdbd7d99f16" x="78.433589" y="18.87668" style="fill: #2e86ab; stroke: #2e86ab"/>
     <use xlink:href="#mdbd7d99f16" x="78.837764" y="18.87668" style="fill: #2e86ab; stroke: #2e86ab"/>
     <use xlink:href="#mdbd7d99f16" x="79.46648" y="18.87668" style="fill: #2e86ab; stroke: #2e86ab"/>
     <use xlink:href="#mdbd7d99f16" x="79.73593" y="18.87668" style="fill: #2e86ab; stroke: #2e86ab"/>
     <use xlink:href="#mdbd7d99f16" x="79.915563" y="18.87668" style="fill: #2e86ab; stroke: #2e86ab"/>
     <use xlink:href="#mdbd7d99f16" x="80.00538" y="18.87668" style="fill: #2e86ab; stroke: #2e86ab"/>
     <use xlink:href="#mdbd7d99f16" x="80.319738" y="18.87668" style="fill: #2e86ab; stroke: #2e86ab"/>
     <use xlink:href="#mdbd7d99f16" x="80.993362" y="18.87668" style="fill: #2e86ab; stroke: #2e86ab"/>
     <use xlink:href="#mdbd7d99f16" x="82.071162" y="18.87668" style="fill: #2e86ab; stroke: #2e86ab"/>
     <use xlink:href="#mdbd7d99f16" x="84.406394" y="18.87668" style="fill: #2e86ab; stroke: #2e86ab"/>
     <use xlink:href="#mdbd7d99f16" x="84.675844" y="18.87668" style="fill: #2e86ab; stroke: #2e86ab"/>
     <use xlink:href="#mdbd7d99f16" x="85.84346" y="18.87668" style="fill: #2e86ab; stroke: #2e86ab"/>
     <use xlink:href="#mdbd7d99f16" x="86.696717" y="18.87668" style="fill: #2e86ab; stroke: #2e86ab"/>
     <use xlink:href="#mdbd7d99f16" x="87.774517" y="18.87668" style="fill: #2e86ab; stroke: #2e86ab"/>
     <use xlink:href="#mdbd7d99f16" x="88.582866" y="18.87668" style="fill: #2e86ab; stroke: #2e86ab"/>
     <use xlink:href="#mdbd7d99f16" x="88.762499" y="18.87668" style="fill: #2e86ab; stroke: #2e86ab"/>
     <use xlink:href="#mdbd7d99f16" x="89.391216" y="18.87668" style="fill: #2e86ab; stroke: #2e86ab"/>
     <use xlink:href="#mdbd7d99f16" x="89.481032" y="18.87668" style="fill: #2e86ab; stroke: #2e86ab"/>
     <use xlink:href="#mdbd7d99f16" x="89.705574" y="18.87668" style="fill: #2e86ab; stroke: #2e86ab"/>
     <use xlink:href="#mdbd7d99f16" x="90.244474" y="18.87668" style="fill: #2e86ab; stroke: #2e86ab"/>
     <use xlink:href="#mdbd7d99f16" x="92.355164" y="18.87668" style="fill: #2e86ab; stroke: #2e86ab"/>
     <use xlink:href="#mdbd7d99f16" x="92.669522" y="18.87668" style="fill: #2e86ab; stroke: #2e86ab"/>
     <use xlink:href="#mdbd7d99f16" x="92.894064" y="18.87668" style="fill: #2e86ab; stroke: #2e86ab"/>
     <use xlink:href="#mdbd7d99f16" x="94.376038" y="18.87668" style="fill: #2e86ab; stroke: #2e86ab"/>
     <use xlink:href="#mdbd7d99f16" x="99.181226" y="18.87668" style="fill: #2e86ab; stroke: #2e86ab"/>
     <use xlink:href="#mdbd7d99f16" x="100.259026" y="18.87668" style="fill: #2e86ab; stroke: #2e86ab"/>
     <use xlink:href="#mdbd7d99f16" x="101.157192" y="18.87668" style="fill: #2e86ab; stroke: #2e86ab"/>
     <use xlink:href="#mdbd7d99f16" x="104.92949" y="18.87668" style="fill: #2e86ab; stroke: #2e86ab"/>
     <use xlink:href="#mdbd7d99f16" x="104.974398" y="18.87668" style="fill: #2e86ab; stroke: #2e86ab"/>
     <use xlink:href="#mdbd7d99f16" x="105.198939" y="18.87668" style="fill: #2e86ab; stroke: #2e86ab"/>
     <use xlink:href="#mdbd7d99f16" x="106.052197" y="18.87668" style="fill: #2e86ab; stroke: #2e86ab"/>
     <use xlink:href="#mdbd7d99f16" x="107.983254" y="18.87668" style="fill: #2e86ab; stroke: #2e86ab"/>
     <use xlink:href="#mdbd7d99f16" x="108.297613" y="18.87668" style="fill: #2e86ab; stroke: #2e86ab"/>
     <use xlink:href="#mdbd7d99f16" x="108.701787" y="18.87668" style="fill: #2e86ab; stroke: #2e86ab"/>
     <use xlink:href="#mdbd7d99f16" x="108.881421" y="18.87668" style="fill: #2e86ab; stroke: #2e86ab"/>
     <use xlink:href="#mdbd7d99f16" x="109.734678" y="18.87668" style="fill: #2e86ab; stroke: #2e86ab"/>
     <use xlink:href="#mdbd7d99f16" x="110.677753" y="18.87668" style="fill: #2e86ab; stroke: #2e86ab"/>
     <use xlink:href="#mdbd7d99f16" x="112.429177" y="18.87668" style="fill: #2e86ab; stroke: #2e86ab"/>
     <use xlink:href="#mdbd7d99f16" x="113.237526" y="18.87668" style="fill: #2e86ab; stroke: #2e86ab"/>
     <use xlink:href="#mdbd7d99f16" x="113.686609" y="18.87668" style="fill: #2e86ab; stroke: #2e86ab"/>
     <use xlink:href="#mdbd7d99f16" x="116.336199" y="18.87668" style="fill: #2e86ab; stroke: #2e86ab"/>
     <use xlink:href="#mdbd7d99f16" x="118.71634" y="18.87668" style="fill: #2e86ab; stroke: #2e86ab"/>
     <use xlink:href="#mdbd7d99f16" x="119.839047" y="18.87668" style="fill: #2e86ab; stroke: #2e86ab"/>
     <use xlink:href="#mdbd7d99f16" x="120.108497" y="18.87668" style="fill: #2e86ab; stroke: #2e86ab"/>
     <use xlink:href="#mdbd7d99f16" x="121.815013" y="18.87668" style="fill: #2e86ab; stroke: #2e86ab"/>
     <use xlink:href="#mdbd7d99f16" x="122.488637" y="18.87668" style="fill: #2e86ab; stroke: #2e86ab"/>
     <use xlink:href="#mdbd7d99f16" x="124.240061" y="18.87668" style="fill: #2e86ab; stroke: #2e86ab"/>
     <use xlink:href="#mdbd7d99f16" x="125.497494" y="18.87668" style="fill: #2e86ab; stroke: #2e86ab"/>
     <use xlink:href="#mdbd7d99f16" x="127.069285" y="18.87668" style="fill: #2e86ab; stroke: #2e86ab"/>
     <use xlink:href="#mdbd7d99f16" x="127.159101" y="18.87668" style="fill: #2e86ab; stroke: #2e86ab"/>
     <use xlink:href="#mdbd7d99f16" x="127.293826" y="18.87668" style="fill: #2e86ab; stroke: #2e86ab"/>
     <use xlink:href="#mdbd7d99f16" x="129.808691" y="23.433346" style="fill: #2e86ab; stroke: #2e86ab"/>
     <use xlink:href="#mdbd7d99f16" x="129.8536" y="23.433346" style="fill: #2e86ab; stroke: #2e86ab"/>
     <use xlink:href="#mdbd7d99f16" x="130.347591" y="23.433346" style="fill: #2e86ab; stroke: #2e86ab"/>
     <use xlink:href="#mdbd7d99f16" x="130.661949" y="23.433346" style="fill: #2e86ab; stroke: #2e86ab"/>
     <use xlink:href="#mdbd7d99f16" x="131.42539" y="23.433346" style="fill: #2e86ab; stroke: #2e86ab"/>
     <use xlink:href="#mdbd7d99f16" x="131.649932" y="23.433346" style="fill: #2e86ab; stroke: #2e86ab"/>
     <use xlink:href="#mdbd7d99f16" x="134.34443" y="23.433346" style="fill: #2e86ab; stroke: #2e86ab"/>
     <use xlink:href="#mdbd7d99f16" x="135.691679" y="23.433346" style="fill: #2e86ab; stroke: #2e86ab"/>
     <use xlink:href="#mdbd7d99f16" x="137.398195" y="23.433346" style="fill: #2e86ab; stroke: #2e86ab"/>
     <use xlink:href="#mdbd7d99f16" x="142.607559" y="23.433346" style="fill: #2e86ab; stroke: #2e86ab"/>
     <use xlink:href="#mdbd7d99f16" x="143.460816" y="23.433346" style="fill: #2e86ab; stroke: #2e86ab"/>
     <use xlink:href="#mdbd7d99f16" x="144.269166" y="23.433346" style="fill: #2e86ab; stroke: #2e86ab"/>
     <use xlink:href="#mdbd7d99f16" x="145.257149" y="23.433346" style="fill: #2e86ab; stroke: #2e86ab"/>
     <use xlink:href="#mdbd7d99f16" x="146.514581" y="23.433346" style="fill: #2e86ab; stroke: #2e86ab"/>
     <use xlink:href="#mdbd7d99f16" x="148.445638" y="23.433346" style="fill: #2e86ab; stroke: #2e86ab"/>
     <use xlink:href="#mdbd7d99f16" x="157.517116" y="23.433346" style="fill: #2e86ab; stroke: #2e86ab"/>
     <use xlink:href="#mdbd7d99f16" x="158.909274" y="23.433346" style="fill: #2e86ab; stroke: #2e86ab"/>
     <use xlink:href="#mdbd7d99f16" x="161.019964" y="23.433346" style="fill: #2e86ab; stroke: #2e86ab"/>
     <use xlink:href="#mdbd7d99f16" x="164.926987" y="23.433346" style="fill: #2e86ab; stroke: #2e86ab"/>
     <use xlink:href="#mdbd7d99f16" x="168.429835" y="33.76179" style="fill: #2e86ab; stroke: #2e86ab"/>
     <use xlink:href="#mdbd7d99f16" x="169.238184" y="33.76179" style="fill: #2e86ab; stroke: #2e86ab"/>
     <use xlink:href="#mdbd7d99f16" x="172.741032" y="45.811641" style="fill: #2e86ab; stroke: #2e86ab"/>
     <use xlink:href="#mdbd7d99f16" x="174.851722" y="45.811641" style="fill: #2e86ab; stroke: #2e86ab"/>
     <use xlink:href="#mdbd7d99f16" x="190.704354" y="60.539236" style="fill: #2e86ab; stroke: #2e86ab"/>
     <use xlink:href="#mdbd7d99f16" x="193.21922" y="60.539236" style="fill: #2e86ab; stroke: #2e86ab"/>
     <use xlink:href="#mdbd7d99f16" x="193.758119" y="60.539236" style="fill: #2e86ab; stroke: #2e86ab"/>
     <use xlink:href="#mdbd7d99f16" x="211.047817" y="60.539236" style="fill: #2e86ab; stroke: #2e86ab"/>
     <use xlink:href="#mdbd7d99f16" x="211.856167" y="60.539236" style="fill: #2e86ab; stroke: #2e86ab"/>
     <use xlink:href="#mdbd7d99f16" x="262.692369" y="60.539236" style="fill: #2e86ab; stroke: #2e86ab"/>
     <use xlink:href="#mdbd7d99f16" x="266.015584" y="60.539236" style="fill: #2e86ab; stroke: #2e86ab"/>
     <use xlink:href="#mdbd7d99f16" x="266.419759" y="60.539236" style="fill: #2e86ab; stroke: #2e86ab"/>
    </g>
   </g>
   <g id="line2d_26">
    <path d="M 36.758681 15.350476 
L 49.51264 15.350476 
L 49.51264 16.217548 
L 50.770072 16.217548 
L 50.770072 17.08462 
L 55.08127 17.08462 
L 55.08127 17.975644 
L 55.126178 17.975644 
L 55.889619 17.975644 
L 55.889619 18.87668 
L 55.979436 18.87668 
L 128.147084 18.87668 
L 128.147084 23.433346 
L 166.633502 23.433346 
L 166.633502 33.76179 
L 172.291949 33.76179 
L 172.291949 45.811641 
L 182.575951 45.811641 
L 182.575951 60.539236 
L 266.419759 60.539236 
L 266.419759 60.539236 
" clip-path="url(#p00a3c7e054)" style="fill: none; stroke: #2e86ab; stroke-width: 2; stroke-linecap: round"/>
   </g>
   <g id="line2d_27">
    <defs>
     <path id="m833a5f918e" d="M -3 3 
L 3 -3 
M -3 -3 
L 3 3 
" style="stroke: #e63946"/>
    </defs>
    <g clip-path="url(#p00a3c7e054)">
     <use xlink:href="#m833a5f918e" x="39.632812" y="16.933093" style="fill: #e63946; stroke: #e63946"/>
     <use xlink:href="#m833a5f918e" x="40.396254" y="16.933093" style="fill: #e63946; stroke: #e63946"/>
     <use xlink:href="#m833a5f918e" x="40.890245" y="18.531379" style="fill: #e63946; stroke: #e63946"/>
     <use xlink:href="#m833a5f918e" x="41.29442" y="18.531379" style="fill: #e63946; stroke: #e63946"/>
     <use xlink:href="#m833a5f918e" x="42.102769" y="18.531379" style="fill: #e63946; stroke: #e63946"/>
     <use xlink:href="#m833a5f918e" x="42.282403" y="20.965318" style="fill: #e63946; stroke: #e63946"/>
     <use xlink:href="#m833a5f918e" x="43.315294" y="25.858416" style="fill: #e63946; stroke: #e63946"/>
     <use xlink:href="#m833a5f918e" x="43.40511" y="25.858416" style="fill: #e63946; stroke: #e63946"/>
     <use xlink:href="#m833a5f918e" x="44.572726" y="30.804414" style="fill: #e63946; stroke: #e63946"/>
     <use xlink:href="#m833a5f918e" x="45.425984" y="33.291306" style="fill: #e63946; stroke: #e63946"/>
     <use xlink:href="#m833a5f918e" x="46.728325" y="39.127403" style="fill: #e63946; stroke: #e63946"/>
     <use xlink:href="#m833a5f918e" x="49.692273" y="50.869911" style="fill: #e63946; stroke: #e63946"/>
     <use xlink:href="#m833a5f918e" x="50.904797" y="55.935742" style="fill: #e63946; stroke: #e63946"/>
     <use xlink:href="#m833a5f918e" x="55.126178" y="76.339785" style="fill: #e63946; stroke: #e63946"/>
     <use xlink:href="#m833a5f918e" x="55.754894" y="77.197098" style="fill: #e63946; stroke: #e63946"/>
     <use xlink:href="#m833a5f918e" x="55.844711" y="77.197098" style="fill: #e63946; stroke: #e63946"/>
     <use xlink:href="#m833a5f918e" x="56.159069" y="78.069192" style="fill: #e63946; stroke: #e63946"/>
     <use xlink:href="#m833a5f918e" x="56.248886" y="79.82868" style="fill: #e63946; stroke: #e63946"/>
     <use xlink:href="#m833a5f918e" x="56.518336" y="79.82868" style="fill: #e63946; stroke: #e63946"/>
     <use xlink:href="#m833a5f918e" x="56.563244" y="79.82868" style="fill: #e63946; stroke: #e63946"/>
     <use xlink:href="#m833a5f918e" x="56.877602" y="79.82868" style="fill: #e63946; stroke: #e63946"/>
     <use xlink:href="#m833a5f918e" x="58.26976" y="91.688931" style="fill: #e63946; stroke: #e63946"/>
     <use xlink:href="#m833a5f918e" x="58.853568" y="92.610964" style="fill: #e63946; stroke: #e63946"/>
     <use xlink:href="#m833a5f918e" x="60.964258" y="100.999457" style="fill: #e63946; stroke: #e63946"/>
     <use xlink:href="#m833a5f918e" x="61.188799" y="100.999457" style="fill: #e63946; stroke: #e63946"/>
     <use xlink:href="#m833a5f918e" x="64.871281" y="116.280552" style="fill: #e63946; stroke: #e63946"/>
     <use xlink:href="#m833a5f918e" x="66.128713" y="122.1005" style="fill: #e63946; stroke: #e63946"/>
     <use xlink:href="#m833a5f918e" x="68.374128" y="129.99657" style="fill: #e63946; stroke: #e63946"/>
     <use xlink:href="#m833a5f918e" x="73.673309" y="142.087428" style="fill: #e63946; stroke: #e63946"/>
     <use xlink:href="#m833a5f918e" x="111.665736" y="166.960049" style="fill: #e63946; stroke: #e63946"/>
     <use xlink:href="#m833a5f918e" x="116.605649" y="168.100044" style="fill: #e63946; stroke: #e63946"/>
     <use xlink:href="#m833a5f918e" x="120.737213" y="170.665033" style="fill: #e63946; stroke: #e63946"/>
     <use xlink:href="#m833a5f918e" x="130.527224" y="173.74302" style="fill: #e63946; stroke: #e63946"/>
     <use xlink:href="#m833a5f918e" x="218.412779" y="176.05151" style="fill: #e63946; stroke: #e63946"/>
    </g>
   </g>
   <g id="line2d_28">
    <path d="M 39.632812 16.933093 
L 40.48607 16.933093 
L 40.530979 18.531379 
L 42.147678 18.531379 
L 42.192586 20.965318 
L 42.417127 20.965318 
L 42.417127 21.780834 
L 42.551852 21.780834 
L 42.551852 22.596351 
L 42.686577 22.596351 
L 42.731486 24.227383 
L 43.045844 24.227383 
L 43.045844 25.0429 
L 43.270385 25.0429 
L 43.315294 25.858416 
L 43.315294 25.858416 
L 43.584743 25.858416 
L 43.67456 27.507082 
L 43.809285 27.507082 
L 43.809285 28.331415 
L 44.033827 28.331415 
L 44.078735 29.980081 
L 44.393093 29.980081 
L 44.393093 30.804414 
L 44.931993 30.804414 
L 44.931993 31.633378 
L 45.111626 31.633378 
L 45.111626 32.462342 
L 45.381076 32.462342 
L 45.425984 33.291306 
L 45.425984 33.291306 
L 45.515801 33.291306 
L 45.515801 34.125034 
L 46.009792 34.125034 
L 46.099609 35.79249 
L 46.189425 35.79249 
L 46.189425 36.626218 
L 46.32415 36.626218 
L 46.32415 37.459946 
L 46.548692 37.459946 
L 46.548692 39.127403 
L 46.952866 39.127403 
L 46.952866 39.966153 
L 47.177408 39.966153 
L 47.177408 41.643654 
L 47.401949 41.643654 
L 47.401949 42.482405 
L 47.806124 42.482405 
L 47.806124 43.321156 
L 48.210299 43.321156 
L 48.210299 44.159906 
L 48.614474 44.159906 
L 48.614474 45.837407 
L 48.839015 45.837407 
L 48.883924 47.514908 
L 49.108465 47.514908 
L 49.198282 49.19241 
L 49.333007 49.19241 
L 49.333007 50.03116 
L 49.647365 50.03116 
L 49.647365 50.869911 
L 49.692273 50.869911 
L 50.05154 50.869911 
L 50.05154 52.558521 
L 50.276081 52.558521 
L 50.276081 53.402826 
L 50.680256 53.402826 
L 50.680256 54.247132 
L 50.859889 54.247132 
L 50.904797 55.935742 
L 50.994614 55.935742 
L 51.039522 58.486248 
L 51.219155 58.486248 
L 51.264064 60.186584 
L 51.35388 60.186584 
L 51.398789 61.886921 
L 51.847872 61.886921 
L 51.937688 65.287595 
L 52.117322 65.287595 
L 52.117322 66.137764 
L 52.835855 66.137764 
L 52.835855 67.838101 
L 53.240029 67.838101 
L 53.240029 68.688269 
L 53.599296 68.688269 
L 53.599296 69.538437 
L 54.048379 69.538437 
L 54.048379 70.388606 
L 54.183104 70.388606 
L 54.183104 72.088943 
L 54.362737 72.088943 
L 54.407645 73.78928 
L 54.54237 73.78928 
L 54.54237 74.639448 
L 54.901637 74.639448 
L 54.901637 75.489617 
L 55.08127 75.489617 
L 55.08127 76.339785 
L 55.126178 76.339785 
L 55.620169 76.339785 
L 55.620169 77.197098 
L 55.979436 77.197098 
L 55.979436 78.069192 
L 56.248886 78.069192 
L 56.248886 79.82868 
L 56.92251 79.82868 
L 56.967419 82.565661 
L 57.057235 82.565661 
L 57.057235 83.477988 
L 57.19196 83.477988 
L 57.281777 85.302642 
L 57.596135 85.302642 
L 57.596135 86.214969 
L 57.865585 86.214969 
L 57.955401 88.039623 
L 58.179943 88.039623 
L 58.26976 91.688931 
L 58.404484 91.688931 
L 58.404484 92.610964 
L 59.123017 92.610964 
L 59.123017 93.543019 
L 59.257742 93.543019 
L 59.257742 94.475073 
L 59.976275 94.475073 
L 60.066092 97.271238 
L 60.290633 97.271238 
L 60.290633 98.203292 
L 60.604991 98.203292 
L 60.604991 100.067402 
L 60.91935 100.067402 
L 60.91935 100.999457 
L 60.964258 100.999457 
L 61.458249 100.999457 
L 61.458249 101.954525 
L 61.727699 101.954525 
L 61.727699 102.909593 
L 61.862424 102.909593 
L 61.862424 103.864662 
L 62.446232 103.864662 
L 62.536049 106.729867 
L 63.074948 106.729867 
L 63.074948 107.684936 
L 63.434215 107.684936 
L 63.434215 108.640004 
L 63.613848 108.640004 
L 63.703665 110.550141 
L 63.83839 110.550141 
L 63.83839 111.505209 
L 64.062931 111.505209 
L 64.062931 113.415346 
L 64.197656 113.415346 
L 64.197656 115.325483 
L 64.332381 115.325483 
L 64.332381 116.280552 
L 65.006005 116.280552 
L 65.006005 118.220534 
L 65.455089 118.220534 
L 65.544905 120.160517 
L 65.634722 120.160517 
L 65.634722 121.130508 
L 66.128713 121.130508 
L 66.128713 122.1005 
L 66.263438 122.1005 
L 66.263438 123.087509 
L 66.532888 123.087509 
L 66.532888 124.074517 
L 66.667613 124.074517 
L 66.667613 125.061526 
L 67.116696 125.061526 
L 67.116696 126.048535 
L 67.251421 126.048535 
L 67.341237 128.022552 
L 67.610687 128.022552 
L 67.610687 129.009561 
L 67.925045 129.009561 
L 67.925045 129.99657 
L 68.86812 129.99657 
L 68.86812 131.004141 
L 69.496836 131.004141 
L 69.496836 132.011713 
L 69.901011 132.011713 
L 69.901011 133.019284 
L 70.170461 133.019284 
L 70.170461 134.026856 
L 70.395002 134.026856 
L 70.395002 135.034427 
L 70.619544 135.034427 
L 70.619544 136.041999 
L 70.888994 136.041999 
L 70.888994 137.04957 
L 71.338077 137.04957 
L 71.338077 138.057142 
L 71.607526 138.057142 
L 71.607526 139.064713 
L 71.921885 139.064713 
L 71.921885 140.072285 
L 72.595509 140.072285 
L 72.595509 141.079856 
L 72.820051 141.079856 
L 72.820051 142.087428 
L 74.571475 142.087428 
L 74.571475 143.123787 
L 75.334916 143.123787 
L 75.334916 144.160146 
L 76.412715 144.160146 
L 76.412715 145.196505 
L 76.592348 145.196505 
L 76.592348 146.232864 
L 77.131248 146.232864 
L 77.131248 147.269224 
L 78.209047 147.269224 
L 78.209047 148.305583 
L 78.433589 148.305583 
L 78.433589 149.341942 
L 80.229921 149.341942 
L 80.229921 150.378301 
L 81.891529 150.378301 
L 81.891529 151.41466 
L 82.250795 151.41466 
L 82.250795 152.45102 
L 83.373503 152.45102 
L 83.373503 153.487379 
L 84.720752 153.487379 
L 84.76566 155.560097 
L 84.900385 155.560097 
L 84.900385 156.596457 
L 86.157818 156.596457 
L 86.157818 157.632816 
L 87.41525 157.632816 
L 87.41525 158.669175 
L 87.999058 158.669175 
L 87.999058 159.705534 
L 91.861173 159.705534 
L 91.861173 160.741893 
L 96.666361 160.741893 
L 96.666361 161.778253 
L 100.169209 161.778253 
L 100.169209 162.814612 
L 101.022467 162.814612 
L 101.022467 163.850971 
L 103.402607 163.850971 
L 103.402607 164.88733 
L 103.537332 164.88733 
L 103.537332 165.923689 
L 109.510137 165.923689 
L 109.510137 166.960049 
L 114.629684 166.960049 
L 114.629684 168.100044 
L 116.785282 168.100044 
L 116.785282 169.382538 
L 120.647397 169.382538 
L 120.647397 170.665033 
L 120.737213 170.665033 
L 123.566437 170.665033 
L 123.566437 172.204026 
L 130.347591 172.204026 
L 130.347591 173.74302 
L 158.235649 173.74302 
L 158.235649 176.05151 
L 218.412779 176.05151 
L 218.412779 176.05151 
" clip-path="url(#p00a3c7e054)" style="fill: none; stroke: #e63946; stroke-width: 2; stroke-linecap: round"/>
   </g>
   <g id="patch_3">
    <path d="M 39.632812 178.36 
L 39.632812 7.2 
" style="fill: none; stroke: #262626; stroke-width: 0.8; stroke-linejoin: miter; stroke-linecap: square"/>
   </g>
   <g id="patch_4">
    <path d="M 277.902813 178.36 
L 277.902813 7.2 
" style="fill: none; stroke: #262626; stroke-width: 0.8; stroke-linejoin: miter; stroke-linecap: square"/>
   </g>
   <g id="patch_5">
    <path d="M 39.632812 178.36 
L 277.902813 178.36 
" style="fill: none; stroke: #262626; stroke-width: 0.8; stroke-linejoin: miter; stroke-linecap: square"/>
   </g>
   <g id="patch_6">
    <path d="M 39.632812 7.2 
L 277.902813 7.2 
" style="fill: none; stroke: #262626; stroke-width: 0.8; stroke-linejoin: miter; stroke-linecap: square"/>
   </g>
   <g id="text_15">
    <g id="patch_7">
     <path d="M 229.696163 25.9005 
L 273.137413 25.9005 
Q 275.537413 25.9005 275.537413 23.5005 
L 275.537413 15.758 
Q 275.537413 13.358 273.137413 13.358 
L 229.696163 13.358 
Q 227.296163 13.358 227.296163 15.758 
L 227.296163 23.5005 
Q 227.296163 25.9005 229.696163 25.9005 
z
" style="fill: #ffffff; opacity: 0.8; stroke: #ffffff; stroke-linejoin: miter"/>
    </g>
    <!-- P &lt; 0.001 -->
    <g style="fill: #262626" transform="translate(229.696163 21.83675) scale(0.08 -0.08)">
     <defs>
      <path id="DejaVuSans-Bold-50" d="M 588 4666 
L 2584 4666 
Q 3475 4666 3951 4270 
Q 4428 3875 4428 3144 
Q 4428 2409 3951 2014 
Q 3475 1619 2584 1619 
L 1791 1619 
L 1791 0 
L 588 0 
L 588 4666 
z
M 1791 3794 
L 1791 2491 
L 2456 2491 
Q 2806 2491 2997 2661 
Q 3188 2831 3188 3144 
Q 3188 3456 2997 3625 
Q 2806 3794 2456 3794 
L 1791 3794 
z
" transform="scale(0.015625)"/>
      <path id="DejaVuSans-Bold-20" transform="scale(0.015625)"/>
      <path id="DejaVuSans-Bold-3c" d="M 4684 3041 
L 1672 2003 
L 4684 972 
L 4684 191 
L 678 1638 
L 678 2375 
L 4684 3822 
L 4684 3041 
z
" transform="scale(0.015625)"/>
      <path id="DejaVuSans-Bold-30" d="M 2944 2338 
Q 2944 3213 2780 3570 
Q 2616 3928 2228 3928 
Q 1841 3928 1675 3570 
Q 1509 3213 1509 2338 
Q 1509 1453 1675 1090 
Q 1841 728 2228 728 
Q 2613 728 2778 1090 
Q 2944 1453 2944 2338 
z
M 4147 2328 
Q 4147 1169 3647 539 
Q 3147 -91 2228 -91 
Q 1306 -91 806 539 
Q 306 1169 306 2328 
Q 306 3491 806 4120 
Q 1306 4750 2228 4750 
Q 3147 4750 3647 4120 
Q 4147 3491 4147 2328 
z
" transform="scale(0.015625)"/>
      <path id="DejaVuSans-Bold-2e" d="M 653 1209 
L 1778 1209 
L 1778 0 
L 653 0 
L 653 1209 
z
" transform="scale(0.015625)"/>
      <path id="DejaVuSans-Bold-31" d="M 750 831 
L 1813 831 
L 1813 3847 
L 722 3622 
L 722 4441 
L 1806 4666 
L 2950 4666 
L 2950 831 
L 4013 831 
L 4013 0 
L 750 0 
L 750 831 
z
" transform="scale(0.015625)"/>
     </defs>
     <use xlink:href="#DejaVuSans-Bold-50"/>
     <use xlink:href="#DejaVuSans-Bold-20" transform="translate(73.291016 0)"/>
     <use xlink:href="#DejaVuSans-Bold-3c" transform="translate(108.105469 0)"/>
     <use xlink:href="#DejaVuSans-Bold-20" transform="translate(191.894531 0)"/>
     <use xlink:href="#DejaVuSans-Bold-30" transform="translate(226.708984 0)"/>
     <use xlink:href="#DejaVuSans-Bold-2e" transform="translate(296.289062 0)"/>
     <use xlink:href="#DejaVuSans-Bold-30" transform="translate(334.277344 0)"/>
     <use xlink:href="#DejaVuSans-Bold-30" transform="translate(403.857422 0)"/>
     <use xlink:href="#DejaVuSans-Bold-31" transform="translate(473.4375 0)"/>
    </g>
   </g>
  </g>
 </g>
 <defs>
  <clipPath id="p00a3c7e054">
   <rect x="39.632812" y="7.2" width="238.27" height="171.16"/>
  </clipPath>
 </defs>
</svg>
