<?xml version="1.0" encoding="utf-8" standalone="no"?>
<!DOCTYPE svg PUBLIC "-//W3C//DTD SVG 1.1//EN"
  "http://www.w3.org/Graphics/SVG/1.1/DTD/svg11.dtd">
<svg xmlns:xlink="http://www.w3.org/1999/xlink" width="285.102812pt" height="213.012812pt" viewBox="0 0 285.102812 213.012812" xmlns="http://www.w3.org/2000/svg" version="1.1">
 <metadata>
  <rdf:RDF xmlns:dc="http://purl.org/dc/elements/1.1/" xmlns:cc="http://creativecommons.org/ns#" xmlns:rdf="http://www.w3.org/1999/02/22-rdf-syntax-ns#">
   <cc:Work>
    <dc:type rdf:resource="http://purl.org/dc/dcmitype/StillImage"/>
    <dc:date>2025-07-12T20:17:38.140283</dc:date>
    <dc:format>image/svg+xml</dc:format>
    <dc:creator>
     <cc:Agent>
      <dc:title>Matplotlib v3.10.3, https://matplotlib.org/</dc:title>
     </cc:Agent>
    </dc:creator>
   </cc:Work>
  </rdf:RDF>
 </metadata>
 <defs>
  <style type="text/css">*{stroke-linejoin: round; stroke-linecap: butt}</style>
 </defs>
 <g id="figure_1">
  <g id="patch_1">
   <path d="M 0 213.012812 
L 285.102812 213.012812 
L 285.102812 0 
L 0 0 
L 0 213.012812 
z
" style="fill: none"/>
  </g>
  <g id="axes_1">
   <g id="patch_2">
    <path d="M 39.632812 178.36 
L 277.902813 178.36 
L 277.902813 7.2 
L 39.632812 7.2 
L 39.632812 178.36 
z
" style="fill: none"/>
   </g>
   <g id="matplotlib.axis_1">
    <g id="xtick_1">
     <g id="line2d_1">
      <path d="M 39.632812 178.36 
L 39.632812 7.2 
" clip-path="url(#pbbbe52b108)" style="fill: none; stroke: #cccccc; stroke-opacity: 0.3; stroke-width: 0.5; stroke-linecap: round"/>
     </g>
     <g id="line2d_2">
      <defs>
       <path id="m4d1f01527d" d="M 0 0 
L 0 3.5 
" style="stroke: #262626; stroke-width: 0.8"/>
      </defs>
      <g>
       <use xlink:href="#m4d1f01527d" x="39.632812" y="178.36" style="fill: #262626; stroke: #262626; stroke-width: 0.8"/>
      </g>
     </g>
     <g id="text_1">
      <!-- 0 -->
      <g style="fill: #262626" transform="translate(37.087812 191.43875) scale(0.08 -0.08)">
       <defs>
        <path id="DejaVuSans-30" d="M 2034 4250 
Q 1547 4250 1301 3770 
Q 1056 3291 1056 2328 
Q 1056 1369 1301 889 
Q 1547 409 2034 409 
Q 2525 409 2770 889 
Q 3016 1369 3016 2328 
Q 3016 3291 2770 3770 
Q 2525 4250 2034 4250 
z
M 2034 4750 
Q 2819 4750 3233 4129 
Q 3647 3509 3647 2328 
Q 3647 1150 3233 529 
Q 2819 -91 2034 -91 
Q 1250 -91 836 529 
Q 422 1150 422 2328 
Q 422 3509 836 4129 
Q 1250 4750 2034 4750 
z
" transform="scale(0.015625)"/>
       </defs>
       <use xlink:href="#DejaVuSans-30"/>
      </g>
     </g>
    </g>
    <g id="xtick_2">
     <g id="line2d_3">
      <path d="M 84.541119 178.36 
L 84.541119 7.2 
" clip-path="url(#pbbbe52b108)" style="fill: none; stroke: #cccccc; stroke-opacity: 0.3; stroke-width: 0.5; stroke-linecap: round"/>
     </g>
     <g id="line2d_4">
      <g>
       <use xlink:href="#m4d1f01527d" x="84.541119" y="178.36" style="fill: #262626; stroke: #262626; stroke-width: 0.8"/>
      </g>
     </g>
     <g id="text_2">
      <!-- 1000 -->
      <g style="fill: #262626" transform="translate(74.361119 191.43875) scale(0.08 -0.08)">
       <defs>
        <path id="DejaVuSans-31" d="M 794 531 
L 1825 531 
L 1825 4091 
L 703 3866 
L 703 4441 
L 1819 4666 
L 2450 4666 
L 2450 531 
L 3481 531 
L 3481 0 
L 794 0 
L 794 531 
z
" transform="scale(0.015625)"/>
       </defs>
       <use xlink:href="#DejaVuSans-31"/>
       <use xlink:href="#DejaVuSans-30" transform="translate(63.623047 0)"/>
       <use xlink:href="#DejaVuSans-30" transform="translate(127.246094 0)"/>
       <use xlink:href="#DejaVuSans-30" transform="translate(190.869141 0)"/>
      </g>
     </g>
    </g>
    <g id="xtick_3">
     <g id="line2d_5">
      <path d="M 129.449425 178.36 
L 129.449425 7.2 
" clip-path="url(#pbbbe52b108)" style="fill: none; stroke: #cccccc; stroke-opacity: 0.3; stroke-width: 0.5; stroke-linecap: round"/>
     </g>
     <g id="line2d_6">
      <g>
       <use xlink:href="#m4d1f01527d" x="129.449425" y="178.36" style="fill: #262626; stroke: #262626; stroke-width: 0.8"/>
      </g>
     </g>
     <g id="text_3">
      <!-- 2000 -->
      <g style="fill: #262626" transform="translate(119.269425 191.43875) scale(0.08 -0.08)">
       <defs>
        <path id="DejaVuSans-32" d="M 1228 531 
L 3431 531 
L 3431 0 
L 469 0 
L 469 531 
Q 828 903 1448 1529 
Q 2069 2156 2228 2338 
Q 2531 2678 2651 2914 
Q 2772 3150 2772 3378 
Q 2772 3750 2511 3984 
Q 2250 4219 1831 4219 
Q 1534 4219 1204 4116 
Q 875 4013 500 3803 
L 500 4441 
Q 881 4594 1212 4672 
Q 1544 4750 1819 4750 
Q 2544 4750 2975 4387 
Q 3406 4025 3406 3419 
Q 3406 3131 3298 2873 
Q 3191 2616 2906 2266 
Q 2828 2175 2409 1742 
Q 1991 1309 1228 531 
z
" transform="scale(0.015625)"/>
       </defs>
       <use xlink:href="#DejaVuSans-32"/>
       <use xlink:href="#DejaVuSans-30" transform="translate(63.623047 0)"/>
       <use xlink:href="#DejaVuSans-30" transform="translate(127.246094 0)"/>
       <use xlink:href="#DejaVuSans-30" transform="translate(190.869141 0)"/>
      </g>
     </g>
    </g>
    <g id="xtick_4">
     <g id="line2d_7">
      <path d="M 174.357731 178.36 
L 174.357731 7.2 
" clip-path="url(#pbbbe52b108)" style="fill: none; stroke: #cccccc; stroke-opacity: 0.3; stroke-width: 0.5; stroke-linecap: round"/>
     </g>
     <g id="line2d_8">
      <g>
       <use xlink:href="#m4d1f01527d" x="174.357731" y="178.36" style="fill: #262626; stroke: #262626; stroke-width: 0.8"/>
      </g>
     </g>
     <g id="text_4">
      <!-- 3000 -->
      <g style="fill: #262626" transform="translate(164.177731 191.43875) scale(0.08 -0.08)">
       <defs>
        <path id="DejaVuSans-33" d="M 2597 2516 
Q 3050 2419 3304 2112 
Q 3559 1806 3559 1356 
Q 3559 666 3084 287 
Q 2609 -91 1734 -91 
Q 1441 -91 1130 -33 
Q 819 25 488 141 
L 488 750 
Q 750 597 1062 519 
Q 1375 441 1716 441 
Q 2309 441 2620 675 
Q 2931 909 2931 1356 
Q 2931 1769 2642 2001 
Q 2353 2234 1838 2234 
L 1294 2234 
L 1294 2753 
L 1863 2753 
Q 2328 2753 2575 2939 
Q 2822 3125 2822 3475 
Q 2822 3834 2567 4026 
Q 2313 4219 1838 4219 
Q 1578 4219 1281 4162 
Q 984 4106 628 3988 
L 628 4550 
Q 988 4650 1302 4700 
Q 1616 4750 1894 4750 
Q 2613 4750 3031 4423 
Q 3450 4097 3450 3541 
Q 3450 3153 3228 2886 
Q 3006 2619 2597 2516 
z
" transform="scale(0.015625)"/>
       </defs>
       <use xlink:href="#DejaVuSans-33"/>
       <use xlink:href="#DejaVuSans-30" transform="translate(63.623047 0)"/>
       <use xlink:href="#DejaVuSans-30" transform="translate(127.246094 0)"/>
       <use xlink:href="#DejaVuSans-30" transform="translate(190.869141 0)"/>
      </g>
     </g>
    </g>
    <g id="xtick_5">
     <g id="line2d_9">
      <path d="M 219.266037 178.36 
L 219.266037 7.2 
" clip-path="url(#pbbbe52b108)" style="fill: none; stroke: #cccccc; stroke-opacity: 0.3; stroke-width: 0.5; stroke-linecap: round"/>
     </g>
     <g id="line2d_10">
      <g>
       <use xlink:href="#m4d1f01527d" x="219.266037" y="178.36" style="fill: #262626; stroke: #262626; stroke-width: 0.8"/>
      </g>
     </g>
     <g id="text_5">
      <!-- 4000 -->
      <g style="fill: #262626" transform="translate(209.086037 191.43875) scale(0.08 -0.08)">
       <defs>
        <path id="DejaVuSans-34" d="M 2419 4116 
L 825 1625 
L 2419 1625 
L 2419 4116 
z
M 2253 4666 
L 3047 4666 
L 3047 1625 
L 3713 1625 
L 3713 1100 
L 3047 1100 
L 3047 0 
L 2419 0 
L 2419 1100 
L 313 1100 
L 313 1709 
L 2253 4666 
z
" transform="scale(0.015625)"/>
       </defs>
       <use xlink:href="#DejaVuSans-34"/>
       <use xlink:href="#DejaVuSans-30" transform="translate(63.623047 0)"/>
       <use xlink:href="#DejaVuSans-30" transform="translate(127.246094 0)"/>
       <use xlink:href="#DejaVuSans-30" transform="translate(190.869141 0)"/>
      </g>
     </g>
    </g>
    <g id="xtick_6">
     <g id="line2d_11">
      <path d="M 264.174343 178.36 
L 264.174343 7.2 
" clip-path="url(#pbbbe52b108)" style="fill: none; stroke: #cccccc; stroke-opacity: 0.3; stroke-width: 0.5; stroke-linecap: round"/>
     </g>
     <g id="line2d_12">
      <g>
       <use xlink:href="#m4d1f01527d" x="264.174343" y="178.36" style="fill: #262626; stroke: #262626; stroke-width: 0.8"/>
      </g>
     </g>
     <g id="text_6">
      <!-- 5000 -->
      <g style="fill: #262626" transform="translate(253.994343 191.43875) scale(0.08 -0.08)">
       <defs>
        <path id="DejaVuSans-35" d="M 691 4666 
L 3169 4666 
L 3169 4134 
L 1269 4134 
L 1269 2991 
Q 1406 3038 1543 3061 
Q 1681 3084 1819 3084 
Q 2600 3084 3056 2656 
Q 3513 2228 3513 1497 
Q 3513 744 3044 326 
Q 2575 -91 1722 -91 
Q 1428 -91 1123 -41 
Q 819 9 494 109 
L 494 744 
Q 775 591 1075 516 
Q 1375 441 1709 441 
Q 2250 441 2565 725 
Q 2881 1009 2881 1497 
Q 2881 1984 2565 2268 
Q 2250 2553 1709 2553 
Q 1456 2553 1204 2497 
Q 953 2441 691 2322 
L 691 4666 
z
" transform="scale(0.015625)"/>
       </defs>
       <use xlink:href="#DejaVuSans-35"/>
       <use xlink:href="#DejaVuSans-30" transform="translate(63.623047 0)"/>
       <use xlink:href="#DejaVuSans-30" transform="translate(127.246094 0)"/>
       <use xlink:href="#DejaVuSans-30" transform="translate(190.869141 0)"/>
      </g>
     </g>
    </g>
    <g id="text_7">
     <!-- Time (days) -->
     <g style="fill: #262626" transform="translate(132.193906 203.941094) scale(0.09 -0.09)">
      <defs>
       <path id="DejaVuSans-54" d="M -19 4666 
L 3928 4666 
L 3928 4134 
L 2272 4134 
L 2272 0 
L 1638 0 
L 1638 4134 
L -19 4134 
L -19 4666 
z
" transform="scale(0.015625)"/>
       <path id="DejaVuSans-69" d="M 603 3500 
L 1178 3500 
L 1178 0 
L 603 0 
L 603 3500 
z
M 603 4863 
L 1178 4863 
L 1178 4134 
L 603 4134 
L 603 4863 
z
" transform="scale(0.015625)"/>
       <path id="DejaVuSans-6d" d="M 3328 2828 
Q 3544 3216 3844 3400 
Q 4144 3584 4550 3584 
Q 5097 3584 5394 3201 
Q 5691 2819 5691 2113 
L 5691 0 
L 5113 0 
L 5113 2094 
Q 5113 2597 4934 2840 
Q 4756 3084 4391 3084 
Q 3944 3084 3684 2787 
Q 3425 2491 3425 1978 
L 3425 0 
L 2847 0 
L 2847 2094 
Q 2847 2600 2669 2842 
Q 2491 3084 2119 3084 
Q 1678 3084 1418 2786 
Q 1159 2488 1159 1978 
L 1159 0 
L 581 0 
L 581 3500 
L 1159 3500 
L 1159 2956 
Q 1356 3278 1631 3431 
Q 1906 3584 2284 3584 
Q 2666 3584 2933 3390 
Q 3200 3197 3328 2828 
z
" transform="scale(0.015625)"/>
       <path id="DejaVuSans-65" d="M 3597 1894 
L 3597 1613 
L 953 1613 
Q 991 1019 1311 708 
Q 1631 397 2203 397 
Q 2534 397 2845 478 
Q 3156 559 3463 722 
L 3463 178 
Q 3153 47 2828 -22 
Q 2503 -91 2169 -91 
Q 1331 -91 842 396 
Q 353 884 353 1716 
Q 353 2575 817 3079 
Q 1281 3584 2069 3584 
Q 2775 3584 3186 3129 
Q 3597 2675 3597 1894 
z
M 3022 2063 
Q 3016 2534 2758 2815 
Q 2500 3097 2075 3097 
Q 1594 3097 1305 2825 
Q 1016 2553 972 2059 
L 3022 2063 
z
" transform="scale(0.015625)"/>
       <path id="DejaVuSans-20" transform="scale(0.015625)"/>
       <path id="DejaVuSans-28" d="M 1984 4856 
Q 1566 4138 1362 3434 
Q 1159 2731 1159 2009 
Q 1159 1288 1364 580 
Q 1569 -128 1984 -844 
L 1484 -844 
Q 1016 -109 783 600 
Q 550 1309 550 2009 
Q 550 2706 781 3412 
Q 1013 4119 1484 4856 
L 1984 4856 
z
" transform="scale(0.015625)"/>
       <path id="DejaVuSans-64" d="M 2906 2969 
L 2906 4863 
L 3481 4863 
L 3481 0 
L 2906 0 
L 2906 525 
Q 2725 213 2448 61 
Q 2172 -91 1784 -91 
Q 1150 -91 751 415 
Q 353 922 353 1747 
Q 353 2572 751 3078 
Q 1150 3584 1784 3584 
Q 2172 3584 2448 3432 
Q 2725 3281 2906 2969 
z
M 947 1747 
Q 947 1113 1208 752 
Q 1469 391 1925 391 
Q 2381 391 2643 752 
Q 2906 1113 2906 1747 
Q 2906 2381 2643 2742 
Q 2381 3103 1925 3103 
Q 1469 3103 1208 2742 
Q 947 2381 947 1747 
z
" transform="scale(0.015625)"/>
       <path id="DejaVuSans-61" d="M 2194 1759 
Q 1497 1759 1228 1600 
Q 959 1441 959 1056 
Q 959 750 1161 570 
Q 1363 391 1709 391 
Q 2188 391 2477 730 
Q 2766 1069 2766 1631 
L 2766 1759 
L 2194 1759 
z
M 3341 1997 
L 3341 0 
L 2766 0 
L 2766 531 
Q 2569 213 2275 61 
Q 1981 -91 1556 -91 
Q 1019 -91 701 211 
Q 384 513 384 1019 
Q 384 1609 779 1909 
Q 1175 2209 1959 2209 
L 2766 2209 
L 2766 2266 
Q 2766 2663 2505 2880 
Q 2244 3097 1772 3097 
Q 1472 3097 1187 3025 
Q 903 2953 641 2809 
L 641 3341 
Q 956 3463 1253 3523 
Q 1550 3584 1831 3584 
Q 2591 3584 2966 3190 
Q 3341 2797 3341 1997 
z
" transform="scale(0.015625)"/>
       <path id="DejaVuSans-79" d="M 2059 -325 
Q 1816 -950 1584 -1140 
Q 1353 -1331 966 -1331 
L 506 -1331 
L 506 -850 
L 844 -850 
Q 1081 -850 1212 -737 
Q 1344 -625 1503 -206 
L 1606 56 
L 191 3500 
L 800 3500 
L 1894 763 
L 2988 3500 
L 3597 3500 
L 2059 -325 
z
" transform="scale(0.015625)"/>
       <path id="DejaVuSans-73" d="M 2834 3397 
L 2834 2853 
Q 2591 2978 2328 3040 
Q 2066 3103 1784 3103 
Q 1356 3103 1142 2972 
Q 928 2841 928 2578 
Q 928 2378 1081 2264 
Q 1234 2150 1697 2047 
L 1894 2003 
Q 2506 1872 2764 1633 
Q 3022 1394 3022 966 
Q 3022 478 2636 193 
Q 2250 -91 1575 -91 
Q 1294 -91 989 -36 
Q 684 19 347 128 
L 347 722 
Q 666 556 975 473 
Q 1284 391 1588 391 
Q 1994 391 2212 530 
Q 2431 669 2431 922 
Q 2431 1156 2273 1281 
Q 2116 1406 1581 1522 
L 1381 1569 
Q 847 1681 609 1914 
Q 372 2147 372 2553 
Q 372 3047 722 3315 
Q 1072 3584 1716 3584 
Q 2034 3584 2315 3537 
Q 2597 3491 2834 3397 
z
" transform="scale(0.015625)"/>
       <path id="DejaVuSans-29" d="M 513 4856 
L 1013 4856 
Q 1481 4119 1714 3412 
Q 1947 2706 1947 2009 
Q 1947 1309 1714 600 
Q 1481 -109 1013 -844 
L 513 -844 
Q 928 -128 1133 580 
Q 1338 1288 1338 2009 
Q 1338 2731 1133 3434 
Q 928 4138 513 4856 
z
" transform="scale(0.015625)"/>
      </defs>
      <use xlink:href="#DejaVuSans-54"/>
      <use xlink:href="#DejaVuSans-69" transform="translate(57.958984 0)"/>
      <use xlink:href="#DejaVuSans-6d" transform="translate(85.742188 0)"/>
      <use xlink:href="#DejaVuSans-65" transform="translate(183.154297 0)"/>
      <use xlink:href="#DejaVuSans-20" transform="translate(244.677734 0)"/>
      <use xlink:href="#DejaVuSans-28" transform="translate(276.464844 0)"/>
      <use xlink:href="#DejaVuSans-64" transform="translate(315.478516 0)"/>
      <use xlink:href="#DejaVuSans-61" transform="translate(378.955078 0)"/>
      <use xlink:href="#DejaVuSans-79" transform="translate(440.234375 0)"/>
      <use xlink:href="#DejaVuSans-73" transform="translate(499.414062 0)"/>
      <use xlink:href="#DejaVuSans-29" transform="translate(551.513672 0)"/>
     </g>
    </g>
   </g>
   <g id="matplotlib.axis_2">
    <g id="ytick_1">
     <g id="line2d_13">
      <path d="M 39.632812 178.36 
L 277.902813 178.36 
" clip-path="url(#pbbbe52b108)" style="fill: none; stroke: #cccccc; stroke-opacity: 0.3; stroke-width: 0.5; stroke-linecap: round"/>
     </g>
     <g id="line2d_14">
      <defs>
       <path id="m0141778fdc" d="M 0 0 
L -3.5 0 
" style="stroke: #262626; stroke-width: 0.8"/>
      </defs>
      <g>
       <use xlink:href="#m0141778fdc" x="39.632812" y="178.36" style="fill: #262626; stroke: #262626; stroke-width: 0.8"/>
      </g>
     </g>
     <g id="text_8">
      <!-- 0.0 -->
      <g style="fill: #262626" transform="translate(19.910312 181.399375) scale(0.08 -0.08)">
       <defs>
        <path id="DejaVuSans-2e" d="M 684 794 
L 1344 794 
L 1344 0 
L 684 0 
L 684 794 
z
" transform="scale(0.015625)"/>
       </defs>
       <use xlink:href="#DejaVuSans-30"/>
       <use xlink:href="#DejaVuSans-2e" transform="translate(63.623047 0)"/>
       <use xlink:href="#DejaVuSans-30" transform="translate(95.410156 0)"/>
      </g>
     </g>
    </g>
    <g id="ytick_2">
     <g id="line2d_15">
      <path d="M 39.632812 145.758095 
L 277.902813 145.758095 
" clip-path="url(#pbbbe52b108)" style="fill: none; stroke: #cccccc; stroke-opacity: 0.3; stroke-width: 0.5; stroke-linecap: round"/>
     </g>
     <g id="line2d_16">
      <g>
       <use xlink:href="#m0141778fdc" x="39.632812" y="145.758095" style="fill: #262626; stroke: #262626; stroke-width: 0.8"/>
      </g>
     </g>
     <g id="text_9">
      <!-- 0.2 -->
      <g style="fill: #262626" transform="translate(19.910312 148.79747) scale(0.08 -0.08)">
       <use xlink:href="#DejaVuSans-30"/>
       <use xlink:href="#DejaVuSans-2e" transform="translate(63.623047 0)"/>
       <use xlink:href="#DejaVuSans-32" transform="translate(95.410156 0)"/>
      </g>
     </g>
    </g>
    <g id="ytick_3">
     <g id="line2d_17">
      <path d="M 39.632812 113.15619 
L 277.902813 113.15619 
" clip-path="url(#pbbbe52b108)" style="fill: none; stroke: #cccccc; stroke-opacity: 0.3; stroke-width: 0.5; stroke-linecap: round"/>
     </g>
     <g id="line2d_18">
      <g>
       <use xlink:href="#m0141778fdc" x="39.632812" y="113.15619" style="fill: #262626; stroke: #262626; stroke-width: 0.8"/>
      </g>
     </g>
     <g id="text_10">
      <!-- 0.4 -->
      <g style="fill: #262626" transform="translate(19.910312 116.195565) scale(0.08 -0.08)">
       <use xlink:href="#DejaVuSans-30"/>
       <use xlink:href="#DejaVuSans-2e" transform="translate(63.623047 0)"/>
       <use xlink:href="#DejaVuSans-34" transform="translate(95.410156 0)"/>
      </g>
     </g>
    </g>
    <g id="ytick_4">
     <g id="line2d_19">
      <path d="M 39.632812 80.554286 
L 277.902813 80.554286 
" clip-path="url(#pbbbe52b108)" style="fill: none; stroke: #cccccc; stroke-opacity: 0.3; stroke-width: 0.5; stroke-linecap: round"/>
     </g>
     <g id="line2d_20">
      <g>
       <use xlink:href="#m0141778fdc" x="39.632812" y="80.554286" style="fill: #262626; stroke: #262626; stroke-width: 0.8"/>
      </g>
     </g>
     <g id="text_11">
      <!-- 0.6 -->
      <g style="fill: #262626" transform="translate(19.910312 83.593661) scale(0.08 -0.08)">
       <defs>
        <path id="DejaVuSans-36" d="M 2113 2584 
Q 1688 2584 1439 2293 
Q 1191 2003 1191 1497 
Q 1191 994 1439 701 
Q 1688 409 2113 409 
Q 2538 409 2786 701 
Q 3034 994 3034 1497 
Q 3034 2003 2786 2293 
Q 2538 2584 2113 2584 
z
M 3366 4563 
L 3366 3988 
Q 3128 4100 2886 4159 
Q 2644 4219 2406 4219 
Q 1781 4219 1451 3797 
Q 1122 3375 1075 2522 
Q 1259 2794 1537 2939 
Q 1816 3084 2150 3084 
Q 2853 3084 3261 2657 
Q 3669 2231 3669 1497 
Q 3669 778 3244 343 
Q 2819 -91 2113 -91 
Q 1303 -91 875 529 
Q 447 1150 447 2328 
Q 447 3434 972 4092 
Q 1497 4750 2381 4750 
Q 2619 4750 2861 4703 
Q 3103 4656 3366 4563 
z
" transform="scale(0.015625)"/>
       </defs>
       <use xlink:href="#DejaVuSans-30"/>
       <use xlink:href="#DejaVuSans-2e" transform="translate(63.623047 0)"/>
       <use xlink:href="#DejaVuSans-36" transform="translate(95.410156 0)"/>
      </g>
     </g>
    </g>
    <g id="ytick_5">
     <g id="line2d_21">
      <path d="M 39.632812 47.952381 
L 277.902813 47.952381 
" clip-path="url(#pbbbe52b108)" style="fill: none; stroke: #cccccc; stroke-opacity: 0.3; stroke-width: 0.5; stroke-linecap: round"/>
     </g>
     <g id="line2d_22">
      <g>
       <use xlink:href="#m0141778fdc" x="39.632812" y="47.952381" style="fill: #262626; stroke: #262626; stroke-width: 0.8"/>
      </g>
     </g>
     <g id="text_12">
      <!-- 0.8 -->
      <g style="fill: #262626" transform="translate(19.910312 50.991756) scale(0.08 -0.08)">
       <defs>
        <path id="DejaVuSans-38" d="M 2034 2216 
Q 1584 2216 1326 1975 
Q 1069 1734 1069 1313 
Q 1069 891 1326 650 
Q 1584 409 2034 409 
Q 2484 409 2743 651 
Q 3003 894 3003 1313 
Q 3003 1734 2745 1975 
Q 2488 2216 2034 2216 
z
M 1403 2484 
Q 997 2584 770 2862 
Q 544 3141 544 3541 
Q 544 4100 942 4425 
Q 1341 4750 2034 4750 
Q 2731 4750 3128 4425 
Q 3525 4100 3525 3541 
Q 3525 3141 3298 2862 
Q 3072 2584 2669 2484 
Q 3125 2378 3379 2068 
Q 3634 1759 3634 1313 
Q 3634 634 3220 271 
Q 2806 -91 2034 -91 
Q 1263 -91 848 271 
Q 434 634 434 1313 
Q 434 1759 690 2068 
Q 947 2378 1403 2484 
z
M 1172 3481 
Q 1172 3119 1398 2916 
Q 1625 2713 2034 2713 
Q 2441 2713 2670 2916 
Q 2900 3119 2900 3481 
Q 2900 3844 2670 4047 
Q 2441 4250 2034 4250 
Q 1625 4250 1398 4047 
Q 1172 3844 1172 3481 
z
" transform="scale(0.015625)"/>
       </defs>
       <use xlink:href="#DejaVuSans-30"/>
       <use xlink:href="#DejaVuSans-2e" transform="translate(63.623047 0)"/>
       <use xlink:href="#DejaVuSans-38" transform="translate(95.410156 0)"/>
      </g>
     </g>
    </g>
    <g id="ytick_6">
     <g id="line2d_23">
      <path d="M 39.632812 15.350476 
L 277.902813 15.350476 
" clip-path="url(#pbbbe52b108)" style="fill: none; stroke: #cccccc; stroke-opacity: 0.3; stroke-width: 0.5; stroke-linecap: round"/>
     </g>
     <g id="line2d_24">
      <g>
       <use xlink:href="#m0141778fdc" x="39.632812" y="15.350476" style="fill: #262626; stroke: #262626; stroke-width: 0.8"/>
      </g>
     </g>
     <g id="text_13">
      <!-- 1.0 -->
      <g style="fill: #262626" transform="translate(19.910312 18.389851) scale(0.08 -0.08)">
       <use xlink:href="#DejaVuSans-31"/>
       <use xlink:href="#DejaVuSans-2e" transform="translate(63.623047 0)"/>
       <use xlink:href="#DejaVuSans-30" transform="translate(95.410156 0)"/>
      </g>
     </g>
    </g>
    <g id="text_14">
     <!-- Survival probability -->
     <g style="fill: #262626" transform="translate(14.038594 136.361797) rotate(-90) scale(0.09 -0.09)">
      <defs>
       <path id="DejaVuSans-53" d="M 3425 4513 
L 3425 3897 
Q 3066 4069 2747 4153 
Q 2428 4238 2131 4238 
Q 1616 4238 1336 4038 
Q 1056 3838 1056 3469 
Q 1056 3159 1242 3001 
Q 1428 2844 1947 2747 
L 2328 2669 
Q 3034 2534 3370 2195 
Q 3706 1856 3706 1288 
Q 3706 609 3251 259 
Q 2797 -91 1919 -91 
Q 1588 -91 1214 -16 
Q 841 59 441 206 
L 441 856 
Q 825 641 1194 531 
Q 1563 422 1919 422 
Q 2459 422 2753 634 
Q 3047 847 3047 1241 
Q 3047 1584 2836 1778 
Q 2625 1972 2144 2069 
L 1759 2144 
Q 1053 2284 737 2584 
Q 422 2884 422 3419 
Q 422 4038 858 4394 
Q 1294 4750 2059 4750 
Q 2388 4750 2728 4690 
Q 3069 4631 3425 4513 
z
" transform="scale(0.015625)"/>
       <path id="DejaVuSans-75" d="M 544 1381 
L 544 3500 
L 1119 3500 
L 1119 1403 
Q 1119 906 1312 657 
Q 1506 409 1894 409 
Q 2359 409 2629 706 
Q 2900 1003 2900 1516 
L 2900 3500 
L 3475 3500 
L 3475 0 
L 2900 0 
L 2900 538 
Q 2691 219 2414 64 
Q 2138 -91 1772 -91 
Q 1169 -91 856 284 
Q 544 659 544 1381 
z
M 1991 3584 
L 1991 3584 
z
" transform="scale(0.015625)"/>
       <path id="DejaVuSans-72" d="M 2631 2963 
Q 2534 3019 2420 3045 
Q 2306 3072 2169 3072 
Q 1681 3072 1420 2755 
Q 1159 2438 1159 1844 
L 1159 0 
L 581 0 
L 581 3500 
L 1159 3500 
L 1159 2956 
Q 1341 3275 1631 3429 
Q 1922 3584 2338 3584 
Q 2397 3584 2469 3576 
Q 2541 3569 2628 3553 
L 2631 2963 
z
" transform="scale(0.015625)"/>
       <path id="DejaVuSans-76" d="M 191 3500 
L 800 3500 
L 1894 563 
L 2988 3500 
L 3597 3500 
L 2284 0 
L 1503 0 
L 191 3500 
z
" transform="scale(0.015625)"/>
       <path id="DejaVuSans-6c" d="M 603 4863 
L 1178 4863 
L 1178 0 
L 603 0 
L 603 4863 
z
" transform="scale(0.015625)"/>
       <path id="DejaVuSans-70" d="M 1159 525 
L 1159 -1331 
L 581 -1331 
L 581 3500 
L 1159 3500 
L 1159 2969 
Q 1341 3281 1617 3432 
Q 1894 3584 2278 3584 
Q 2916 3584 3314 3078 
Q 3713 2572 3713 1747 
Q 3713 922 3314 415 
Q 2916 -91 2278 -91 
Q 1894 -91 1617 61 
Q 1341 213 1159 525 
z
M 3116 1747 
Q 3116 2381 2855 2742 
Q 2594 3103 2138 3103 
Q 1681 3103 1420 2742 
Q 1159 2381 1159 1747 
Q 1159 1113 1420 752 
Q 1681 391 2138 391 
Q 2594 391 2855 752 
Q 3116 1113 3116 1747 
z
" transform="scale(0.015625)"/>
       <path id="DejaVuSans-6f" d="M 1959 3097 
Q 1497 3097 1228 2736 
Q 959 2375 959 1747 
Q 959 1119 1226 758 
Q 1494 397 1959 397 
Q 2419 397 2687 759 
Q 2956 1122 2956 1747 
Q 2956 2369 2687 2733 
Q 2419 3097 1959 3097 
z
M 1959 3584 
Q 2709 3584 3137 3096 
Q 3566 2609 3566 1747 
Q 3566 888 3137 398 
Q 2709 -91 1959 -91 
Q 1206 -91 779 398 
Q 353 888 353 1747 
Q 353 2609 779 3096 
Q 1206 3584 1959 3584 
z
" transform="scale(0.015625)"/>
       <path id="DejaVuSans-62" d="M 3116 1747 
Q 3116 2381 2855 2742 
Q 2594 3103 2138 3103 
Q 1681 3103 1420 2742 
Q 1159 2381 1159 1747 
Q 1159 1113 1420 752 
Q 1681 391 2138 391 
Q 2594 391 2855 752 
Q 3116 1113 3116 1747 
z
M 1159 2969 
Q 1341 3281 1617 3432 
Q 1894 3584 2278 3584 
Q 2916 3584 3314 3078 
Q 3713 2572 3713 1747 
Q 3713 922 3314 415 
Q 2916 -91 2278 -91 
Q 1894 -91 1617 61 
Q 1341 213 1159 525 
L 1159 0 
L 581 0 
L 581 4863 
L 1159 4863 
L 1159 2969 
z
" transform="scale(0.015625)"/>
       <path id="DejaVuSans-74" d="M 1172 4494 
L 1172 3500 
L 2356 3500 
L 2356 3053 
L 1172 3053 
L 1172 1153 
Q 1172 725 1289 603 
Q 1406 481 1766 481 
L 2356 481 
L 2356 0 
L 1766 0 
Q 1100 0 847 248 
Q 594 497 594 1153 
L 594 3053 
L 172 3053 
L 172 3500 
L 594 3500 
L 594 4494 
L 1172 4494 
z
" transform="scale(0.015625)"/>
      </defs>
      <use xlink:href="#DejaVuSans-53"/>
      <use xlink:href="#DejaVuSans-75" transform="translate(63.476562 0)"/>
      <use xlink:href="#DejaVuSans-72" transform="translate(126.855469 0)"/>
      <use xlink:href="#DejaVuSans-76" transform="translate(167.96875 0)"/>
      <use xlink:href="#DejaVuSans-69" transform="translate(227.148438 0)"/>
      <use xlink:href="#DejaVuSans-76" transform="translate(254.931641 0)"/>
      <use xlink:href="#DejaVuSans-61" transform="translate(314.111328 0)"/>
      <use xlink:href="#DejaVuSans-6c" transform="translate(375.390625 0)"/>
      <use xlink:href="#DejaVuSans-20" transform="translate(403.173828 0)"/>
      <use xlink:href="#DejaVuSans-70" transform="translate(434.960938 0)"/>
      <use xlink:href="#DejaVuSans-72" transform="translate(498.4375 0)"/>
      <use xlink:href="#DejaVuSans-6f" transform="translate(537.300781 0)"/>
      <use xlink:href="#DejaVuSans-62" transform="translate(598.482422 0)"/>
      <use xlink:href="#DejaVuSans-61" transform="translate(661.958984 0)"/>
      <use xlink:href="#DejaVuSans-62" transform="translate(723.238281 0)"/>
      <use xlink:href="#DejaVuSans-69" transform="translate(786.714844 0)"/>
      <use xlink:href="#DejaVuSans-6c" transform="translate(814.498047 0)"/>
      <use xlink:href="#DejaVuSans-69" transform="translate(842.28125 0)"/>
      <use xlink:href="#DejaVuSans-74" transform="translate(870.064453 0)"/>
      <use xlink:href="#DejaVuSans-79" transform="translate(909.273438 0)"/>
     </g>
    </g>
   </g>
   <g id="FillBetweenPolyCollection_1">
    <defs>
     <path id="m7406051583" d="M 39.632812 -197.550091 
L 39.632812 -192.100649 
L 40.306437 -192.100649 
L 40.306437 -192.100649 
L 42.102769 -192.100649 
L 42.102769 -192.100649 
L 43.315294 -192.100649 
L 43.315294 -192.100649 
L 44.572726 -192.100649 
L 44.572726 -192.100649 
L 45.111626 -192.100649 
L 45.111626 -191.333473 
L 46.189425 -191.333473 
L 46.189425 -190.282699 
L 46.728325 -190.282699 
L 46.728325 -190.282699 
L 48.030666 -190.282699 
L 48.030666 -190.282699 
L 48.120482 -190.282699 
L 48.120482 -190.282699 
L 52.117322 -190.282699 
L 52.117322 -189.168302 
L 52.790946 -189.168302 
L 52.790946 -189.168302 
L 54.048379 -189.168302 
L 54.048379 -188.055926 
L 54.587278 -188.055926 
L 54.587278 -188.055926 
L 54.766912 -188.055926 
L 54.766912 -188.055926 
L 55.126178 -188.055926 
L 55.126178 -188.055926 
L 55.754894 -188.055926 
L 55.754894 -188.055926 
L 55.844711 -188.055926 
L 55.844711 -188.055926 
L 55.979436 -188.055926 
L 55.979436 -186.912499 
L 56.024344 -186.912499 
L 56.024344 -186.912499 
L 56.203977 -186.912499 
L 56.203977 -186.912499 
L 56.338702 -186.912499 
L 56.338702 -186.912499 
L 56.383611 -186.912499 
L 56.383611 -186.912499 
L 56.518336 -186.912499 
L 56.518336 -186.912499 
L 56.563244 -186.912499 
L 56.563244 -186.912499 
L 56.653061 -186.912499 
L 56.653061 -186.912499 
L 56.787785 -186.912499 
L 56.787785 -186.912499 
L 56.832694 -186.912499 
L 56.832694 -186.912499 
L 56.877602 -186.912499 
L 56.877602 -186.912499 
L 57.326685 -186.912499 
L 57.326685 -186.912499 
L 57.506318 -186.912499 
L 57.506318 -186.912499 
L 57.551227 -186.912499 
L 57.551227 -186.912499 
L 58.045218 -186.912499 
L 58.045218 -186.912499 
L 58.26976 -186.912499 
L 58.26976 -186.912499 
L 58.718843 -186.912499 
L 58.718843 -186.912499 
L 58.853568 -186.912499 
L 58.853568 -186.912499 
L 59.078109 -186.912499 
L 59.078109 -186.912499 
L 60.066092 -186.912499 
L 60.066092 -186.912499 
L 60.155908 -186.912499 
L 60.155908 -186.912499 
L 60.290633 -186.912499 
L 60.290633 -186.912499 
L 60.560083 -186.912499 
L 60.560083 -186.912499 
L 60.604991 -186.912499 
L 60.604991 -186.912499 
L 60.694808 -186.912499 
L 60.694808 -186.912499 
L 60.91935 -186.912499 
L 60.91935 -186.912499 
L 60.964258 -186.912499 
L 60.964258 -186.912499 
L 61.054075 -186.912499 
L 61.054075 -186.912499 
L 61.233708 -186.912499 
L 61.233708 -186.912499 
L 61.413341 -186.912499 
L 61.413341 -186.912499 
L 61.682791 -186.912499 
L 61.682791 -186.912499 
L 61.862424 -186.912499 
L 61.862424 -186.912499 
L 62.22169 -186.912499 
L 62.22169 -186.912499 
L 62.401324 -186.912499 
L 62.401324 -186.912499 
L 62.446232 -186.912499 
L 62.446232 -186.912499 
L 62.625865 -186.912499 
L 62.625865 -186.912499 
L 63.074948 -186.912499 
L 63.074948 -186.912499 
L 63.164765 -186.912499 
L 63.164765 -186.912499 
L 63.613848 -186.912499 
L 63.613848 -185.191895 
L 63.883298 -185.191895 
L 63.883298 -185.191895 
L 63.973114 -185.191895 
L 63.973114 -185.191895 
L 64.152748 -185.191895 
L 64.152748 -185.191895 
L 64.781464 -185.191895 
L 64.781464 -185.191895 
L 64.871281 -185.191895 
L 64.871281 -185.191895 
L 65.320364 -185.191895 
L 65.320364 -185.191895 
L 65.589813 -185.191895 
L 65.589813 -185.191895 
L 65.67963 -185.191895 
L 65.67963 -185.191895 
L 65.724538 -185.191895 
L 65.724538 -185.191895 
L 65.769447 -185.191895 
L 65.769447 -185.191895 
L 66.128713 -185.191895 
L 66.128713 -183.336839 
L 66.667613 -183.336839 
L 66.667613 -181.58656 
L 66.712521 -181.58656 
L 66.712521 -181.58656 
L 67.026879 -181.58656 
L 67.026879 -181.58656 
L 67.116696 -181.58656 
L 67.116696 -179.867341 
L 68.194495 -179.867341 
L 68.194495 -179.867341 
L 68.284312 -179.867341 
L 68.284312 -179.867341 
L 68.374128 -179.867341 
L 68.374128 -179.867341 
L 68.419037 -179.867341 
L 68.419037 -179.867341 
L 68.463945 -179.867341 
L 68.463945 -179.867341 
L 68.733395 -179.867341 
L 68.733395 -179.867341 
L 69.496836 -179.867341 
L 69.496836 -179.867341 
L 70.619544 -179.867341 
L 70.619544 -178.056818 
L 70.664452 -178.056818 
L 70.664452 -178.056818 
L 71.023719 -178.056818 
L 71.023719 -178.056818 
L 71.068627 -178.056818 
L 71.068627 -178.056818 
L 71.921885 -178.056818 
L 71.921885 -176.236041 
L 72.460784 -176.236041 
L 72.460784 -176.236041 
L 72.595509 -176.236041 
L 72.595509 -174.442992 
L 73.673309 -174.442992 
L 73.673309 -174.442992 
L 74.346933 -174.442992 
L 74.346933 -174.442992 
L 74.796016 -174.442992 
L 74.796016 -174.442992 
L 75.065466 -174.442992 
L 75.065466 -174.442992 
L 75.469641 -174.442992 
L 75.469641 -174.442992 
L 75.514549 -174.442992 
L 75.514549 -174.442992 
L 76.098357 -174.442992 
L 76.098357 -174.442992 
L 76.143265 -174.442992 
L 76.143265 -174.442992 
L 76.457624 -174.442992 
L 76.457624 -174.442992 
L 76.592348 -174.442992 
L 76.592348 -172.467849 
L 76.996523 -172.467849 
L 76.996523 -172.467849 
L 77.35579 -172.467849 
L 77.35579 -172.467849 
L 77.445606 -172.467849 
L 77.445606 -172.467849 
L 78.433589 -172.467849 
L 78.433589 -172.467849 
L 78.837764 -172.467849 
L 78.837764 -172.467849 
L 79.46648 -172.467849 
L 79.46648 -172.467849 
L 79.915563 -172.467849 
L 79.915563 -172.467849 
L 80.00538 -172.467849 
L 80.00538 -172.467849 
L 80.229921 -172.467849 
L 80.229921 -170.271407 
L 80.319738 -170.271407 
L 80.319738 -170.271407 
L 80.993362 -170.271407 
L 80.993362 -170.271407 
L 81.891529 -170.271407 
L 81.891529 -168.070544 
L 82.071162 -168.070544 
L 82.071162 -168.070544 
L 82.250795 -168.070544 
L 82.250795 -165.89173 
L 84.406394 -165.89173 
L 84.406394 -165.89173 
L 84.675844 -165.89173 
L 84.675844 -165.89173 
L 84.720752 -165.89173 
L 84.720752 -163.691204 
L 84.76566 -163.691204 
L 84.76566 -161.536411 
L 85.84346 -161.536411 
L 85.84346 -161.536411 
L 86.157818 -161.536411 
L 86.157818 -159.384671 
L 86.696717 -159.384671 
L 86.696717 -159.384671 
L 87.774517 -159.384671 
L 87.774517 -159.384671 
L 87.999058 -159.384671 
L 87.999058 -157.194388 
L 88.582866 -157.194388 
L 88.582866 -157.194388 
L 88.762499 -157.194388 
L 88.762499 -157.194388 
L 89.391216 -157.194388 
L 89.391216 -157.194388 
L 89.481032 -157.194388 
L 89.481032 -157.194388 
L 89.705574 -157.194388 
L 89.705574 -157.194388 
L 92.355164 -157.194388 
L 92.355164 -157.194388 
L 92.669522 -157.194388 
L 92.669522 -157.194388 
L 92.894064 -157.194388 
L 92.894064 -157.194388 
L 96.666361 -157.194388 
L 96.666361 -154.691968 
L 99.181226 -154.691968 
L 99.181226 -154.691968 
L 100.169209 -154.691968 
L 100.169209 -152.18971 
L 100.259026 -152.18971 
L 100.259026 -152.18971 
L 101.022467 -152.18971 
L 101.022467 -149.682408 
L 101.157192 -149.682408 
L 101.157192 -149.682408 
L 103.402607 -149.682408 
L 103.402607 -147.165516 
L 104.92949 -147.165516 
L 104.92949 -147.165516 
L 104.974398 -147.165516 
L 104.974398 -147.165516 
L 105.198939 -147.165516 
L 105.198939 -147.165516 
L 106.052197 -147.165516 
L 106.052197 -147.165516 
L 107.983254 -147.165516 
L 107.983254 -147.165516 
L 108.297613 -147.165516 
L 108.297613 -147.165516 
L 108.701787 -147.165516 
L 108.701787 -147.165516 
L 108.881421 -147.165516 
L 108.881421 -147.165516 
L 109.510137 -147.165516 
L 109.510137 -144.179548 
L 109.734678 -144.179548 
L 109.734678 -144.179548 
L 111.665736 -144.179548 
L 111.665736 -144.179548 
L 112.429177 -144.179548 
L 112.429177 -144.179548 
L 113.686609 -144.179548 
L 113.686609 -144.179548 
L 114.629684 -144.179548 
L 114.629684 -140.92875 
L 116.605649 -140.92875 
L 116.605649 -140.92875 
L 116.785282 -140.92875 
L 116.785282 -137.664897 
L 118.71634 -137.664897 
L 118.71634 -137.664897 
L 119.839047 -137.664897 
L 119.839047 -137.664897 
L 120.647397 -137.664897 
L 120.647397 -134.276512 
L 120.737213 -134.276512 
L 120.737213 -134.276512 
L 121.815013 -134.276512 
L 121.815013 -134.276512 
L 123.566437 -134.276512 
L 123.566437 -130.744469 
L 124.240061 -130.744469 
L 124.240061 -130.744469 
L 125.497494 -130.744469 
L 125.497494 -130.744469 
L 127.069285 -130.744469 
L 127.069285 -130.744469 
L 127.159101 -130.744469 
L 127.159101 -130.744469 
L 127.293826 -130.744469 
L 127.293826 -130.744469 
L 129.8536 -130.744469 
L 129.8536 -130.744469 
L 130.347591 -130.744469 
L 130.347591 -126.428706 
L 130.527224 -126.428706 
L 130.527224 -126.428706 
L 130.661949 -126.428706 
L 130.661949 -126.428706 
L 131.42539 -126.428706 
L 131.42539 -126.428706 
L 131.649932 -126.428706 
L 131.649932 -126.428706 
L 134.34443 -126.428706 
L 134.34443 -126.428706 
L 135.691679 -126.428706 
L 135.691679 -126.428706 
L 137.398195 -126.428706 
L 137.398195 -126.428706 
L 144.269166 -126.428706 
L 144.269166 -126.428706 
L 146.514581 -126.428706 
L 146.514581 -126.428706 
L 148.445638 -126.428706 
L 148.445638 -126.428706 
L 157.517116 -126.428706 
L 157.517116 -126.428706 
L 158.235649 -126.428706 
L 158.235649 -118.464546 
L 158.909274 -118.464546 
L 158.909274 -118.464546 
L 161.019964 -118.464546 
L 161.019964 -118.464546 
L 164.926987 -118.464546 
L 164.926987 -118.464546 
L 166.633502 -118.464546 
L 166.633502 -109.200802 
L 168.429835 -109.200802 
L 168.429835 -109.200802 
L 169.238184 -109.200802 
L 169.238184 -109.200802 
L 172.291949 -109.200802 
L 172.291949 -99.001786 
L 172.741032 -99.001786 
L 172.741032 -99.001786 
L 174.851722 -99.001786 
L 174.851722 -99.001786 
L 182.575951 -99.001786 
L 182.575951 -87.291107 
L 190.704354 -87.291107 
L 190.704354 -87.291107 
L 193.21922 -87.291107 
L 193.21922 -87.291107 
L 193.758119 -87.291107 
L 193.758119 -87.291107 
L 211.047817 -87.291107 
L 211.047817 -87.291107 
L 211.856167 -87.291107 
L 211.856167 -87.291107 
L 218.412779 -87.291107 
L 218.412779 -87.291107 
L 262.692369 -87.291107 
L 262.692369 -87.291107 
L 266.015584 -87.291107 
L 266.015584 -87.291107 
L 266.419759 -87.291107 
L 266.419759 -87.291107 
L 266.419759 -142.011416 
L 266.419759 -142.011416 
L 266.419759 -142.011416 
L 266.015584 -142.011416 
L 266.015584 -142.011416 
L 262.692369 -142.011416 
L 262.692369 -142.011416 
L 218.412779 -142.011416 
L 218.412779 -142.011416 
L 211.856167 -142.011416 
L 211.856167 -142.011416 
L 211.047817 -142.011416 
L 211.047817 -142.011416 
L 193.758119 -142.011416 
L 193.758119 -142.011416 
L 193.21922 -142.011416 
L 193.21922 -142.011416 
L 190.704354 -142.011416 
L 190.704354 -142.011416 
L 182.575951 -142.011416 
L 182.575951 -147.918913 
L 174.851722 -147.918913 
L 174.851722 -147.918913 
L 172.741032 -147.918913 
L 172.741032 -147.918913 
L 172.291949 -147.918913 
L 172.291949 -152.822109 
L 169.238184 -152.822109 
L 169.238184 -152.822109 
L 168.429835 -152.822109 
L 168.429835 -152.822109 
L 166.633502 -152.822109 
L 166.633502 -156.962647 
L 164.926987 -156.962647 
L 164.926987 -156.962647 
L 161.019964 -156.962647 
L 161.019964 -156.962647 
L 158.909274 -156.962647 
L 158.909274 -156.962647 
L 158.235649 -156.962647 
L 158.235649 -160.447314 
L 157.517116 -160.447314 
L 157.517116 -160.447314 
L 148.445638 -160.447314 
L 148.445638 -160.447314 
L 146.514581 -160.447314 
L 146.514581 -160.447314 
L 144.269166 -160.447314 
L 144.269166 -160.447314 
L 137.398195 -160.447314 
L 137.398195 -160.447314 
L 135.691679 -160.447314 
L 135.691679 -160.447314 
L 134.34443 -160.447314 
L 134.34443 -160.447314 
L 131.649932 -160.447314 
L 131.649932 -160.447314 
L 131.42539 -160.447314 
L 131.42539 -160.447314 
L 130.661949 -160.447314 
L 130.661949 -160.447314 
L 130.527224 -160.447314 
L 130.527224 -160.447314 
L 130.347591 -160.447314 
L 130.347591 -163.066275 
L 129.8536 -163.066275 
L 129.8536 -163.066275 
L 127.293826 -163.066275 
L 127.293826 -163.066275 
L 127.159101 -163.066275 
L 127.159101 -163.066275 
L 127.069285 -163.066275 
L 127.069285 -163.066275 
L 125.497494 -163.066275 
L 125.497494 -163.066275 
L 124.240061 -163.066275 
L 124.240061 -163.066275 
L 123.566437 -163.066275 
L 123.566437 -165.362486 
L 121.815013 -165.362486 
L 121.815013 -165.362486 
L 120.737213 -165.362486 
L 120.737213 -165.362486 
L 120.647397 -165.362486 
L 120.647397 -167.538859 
L 119.839047 -167.538859 
L 119.839047 -167.538859 
L 118.71634 -167.538859 
L 118.71634 -167.538859 
L 116.785282 -167.538859 
L 116.785282 -169.606532 
L 116.605649 -169.606532 
L 116.605649 -169.606532 
L 114.629684 -169.606532 
L 114.629684 -171.601328 
L 113.686609 -171.601328 
L 113.686609 -171.601328 
L 112.429177 -171.601328 
L 112.429177 -171.601328 
L 111.665736 -171.601328 
L 111.665736 -171.601328 
L 109.734678 -171.601328 
L 109.734678 -171.601328 
L 109.510137 -171.601328 
L 109.510137 -173.452633 
L 108.881421 -173.452633 
L 108.881421 -173.452633 
L 108.701787 -173.452633 
L 108.701787 -173.452633 
L 108.297613 -173.452633 
L 108.297613 -173.452633 
L 107.983254 -173.452633 
L 107.983254 -173.452633 
L 106.052197 -173.452633 
L 106.052197 -173.452633 
L 105.198939 -173.452633 
L 105.198939 -173.452633 
L 104.974398 -173.452633 
L 104.974398 -173.452633 
L 104.92949 -173.452633 
L 104.92949 -173.452633 
L 103.402607 -173.452633 
L 103.402607 -175.102114 
L 101.157192 -175.102114 
L 101.157192 -175.102114 
L 101.022467 -175.102114 
L 101.022467 -176.707659 
L 100.259026 -176.707659 
L 100.259026 -176.707659 
L 100.169209 -176.707659 
L 100.169209 -178.269506 
L 99.181226 -178.269506 
L 99.181226 -178.269506 
L 96.666361 -178.269506 
L 96.666361 -179.787547 
L 92.894064 -179.787547 
L 92.894064 -179.787547 
L 92.669522 -179.787547 
L 92.669522 -179.787547 
L 92.355164 -179.787547 
L 92.355164 -179.787547 
L 89.705574 -179.787547 
L 89.705574 -179.787547 
L 89.481032 -179.787547 
L 89.481032 -179.787547 
L 89.391216 -179.787547 
L 89.391216 -179.787547 
L 88.762499 -179.787547 
L 88.762499 -179.787547 
L 88.582866 -179.787547 
L 88.582866 -179.787547 
L 87.999058 -179.787547 
L 87.999058 -181.166603 
L 87.774517 -181.166603 
L 87.774517 -181.166603 
L 86.696717 -181.166603 
L 86.696717 -181.166603 
L 86.157818 -181.166603 
L 86.157818 -182.499016 
L 85.84346 -182.499016 
L 85.84346 -182.499016 
L 84.76566 -182.499016 
L 84.76566 -183.797415 
L 84.720752 -183.797415 
L 84.720752 -185.071512 
L 84.675844 -185.071512 
L 84.675844 -185.071512 
L 84.406394 -185.071512 
L 84.406394 -185.071512 
L 82.250795 -185.071512 
L 82.250795 -186.298624 
L 82.071162 -186.298624 
L 82.071162 -186.298624 
L 81.891529 -186.298624 
L 81.891529 -187.487965 
L 80.993362 -187.487965 
L 80.993362 -187.487965 
L 80.319738 -187.487965 
L 80.319738 -187.487965 
L 80.229921 -187.487965 
L 80.229921 -188.62899 
L 80.00538 -188.62899 
L 80.00538 -188.62899 
L 79.915563 -188.62899 
L 79.915563 -188.62899 
L 79.46648 -188.62899 
L 79.46648 -188.62899 
L 78.837764 -188.62899 
L 78.837764 -188.62899 
L 78.433589 -188.62899 
L 78.433589 -188.62899 
L 77.445606 -188.62899 
L 77.445606 -188.62899 
L 77.35579 -188.62899 
L 77.35579 -188.62899 
L 76.996523 -188.62899 
L 76.996523 -188.62899 
L 76.592348 -188.62899 
L 76.592348 -189.671318 
L 76.457624 -189.671318 
L 76.457624 -189.671318 
L 76.143265 -189.671318 
L 76.143265 -189.671318 
L 76.098357 -189.671318 
L 76.098357 -189.671318 
L 75.514549 -189.671318 
L 75.514549 -189.671318 
L 75.469641 -189.671318 
L 75.469641 -189.671318 
L 75.065466 -189.671318 
L 75.065466 -189.671318 
L 74.796016 -189.671318 
L 74.796016 -189.671318 
L 74.346933 -189.671318 
L 74.346933 -189.671318 
L 73.673309 -189.671318 
L 73.673309 -189.671318 
L 72.595509 -189.671318 
L 72.595509 -190.629296 
L 72.460784 -190.629296 
L 72.460784 -190.629296 
L 71.921885 -190.629296 
L 71.921885 -191.555853 
L 71.068627 -191.555853 
L 71.068627 -191.555853 
L 71.023719 -191.555853 
L 71.023719 -191.555853 
L 70.664452 -191.555853 
L 70.664452 -191.555853 
L 70.619544 -191.555853 
L 70.619544 -192.438021 
L 69.496836 -192.438021 
L 69.496836 -192.438021 
L 68.733395 -192.438021 
L 68.733395 -192.438021 
L 68.463945 -192.438021 
L 68.463945 -192.438021 
L 68.419037 -192.438021 
L 68.419037 -192.438021 
L 68.374128 -192.438021 
L 68.374128 -192.438021 
L 68.284312 -192.438021 
L 68.284312 -192.438021 
L 68.194495 -192.438021 
L 68.194495 -192.438021 
L 67.116696 -192.438021 
L 67.116696 -193.257524 
L 67.026879 -193.257524 
L 67.026879 -193.257524 
L 66.712521 -193.257524 
L 66.712521 -193.257524 
L 66.667613 -193.257524 
L 66.667613 -194.036491 
L 66.128713 -194.036491 
L 66.128713 -194.776203 
L 65.769447 -194.776203 
L 65.769447 -194.776203 
L 65.724538 -194.776203 
L 65.724538 -194.776203 
L 65.67963 -194.776203 
L 65.67963 -194.776203 
L 65.589813 -194.776203 
L 65.589813 -194.776203 
L 65.320364 -194.776203 
L 65.320364 -194.776203 
L 64.871281 -194.776203 
L 64.871281 -194.776203 
L 64.781464 -194.776203 
L 64.781464 -194.776203 
L 64.152748 -194.776203 
L 64.152748 -194.776203 
L 63.973114 -194.776203 
L 63.973114 -194.776203 
L 63.883298 -194.776203 
L 63.883298 -194.776203 
L 63.613848 -194.776203 
L 63.613848 -195.4347 
L 63.164765 -195.4347 
L 63.164765 -195.4347 
L 63.074948 -195.4347 
L 63.074948 -195.4347 
L 62.625865 -195.4347 
L 62.625865 -195.4347 
L 62.446232 -195.4347 
L 62.446232 -195.4347 
L 62.401324 -195.4347 
L 62.401324 -195.4347 
L 62.22169 -195.4347 
L 62.22169 -195.4347 
L 61.862424 -195.4347 
L 61.862424 -195.4347 
L 61.682791 -195.4347 
L 61.682791 -195.4347 
L 61.413341 -195.4347 
L 61.413341 -195.4347 
L 61.233708 -195.4347 
L 61.233708 -195.4347 
L 61.054075 -195.4347 
L 61.054075 -195.4347 
L 60.964258 -195.4347 
L 60.964258 -195.4347 
L 60.91935 -195.4347 
L 60.91935 -195.4347 
L 60.694808 -195.4347 
L 60.694808 -195.4347 
L 60.604991 -195.4347 
L 60.604991 -195.4347 
L 60.560083 -195.4347 
L 60.560083 -195.4347 
L 60.290633 -195.4347 
L 60.290633 -195.4347 
L 60.155908 -195.4347 
L 60.155908 -195.4347 
L 60.066092 -195.4347 
L 60.066092 -195.4347 
L 59.078109 -195.4347 
L 59.078109 -195.4347 
L 58.853568 -195.4347 
L 58.853568 -195.4347 
L 58.718843 -195.4347 
L 58.718843 -195.4347 
L 58.26976 -195.4347 
L 58.26976 -195.4347 
L 58.045218 -195.4347 
L 58.045218 -195.4347 
L 57.551227 -195.4347 
L 57.551227 -195.4347 
L 57.506318 -195.4347 
L 57.506318 -195.4347 
L 57.326685 -195.4347 
L 57.326685 -195.4347 
L 56.877602 -195.4347 
L 56.877602 -195.4347 
L 56.832694 -195.4347 
L 56.832694 -195.4347 
L 56.787785 -195.4347 
L 56.787785 -195.4347 
L 56.653061 -195.4347 
L 56.653061 -195.4347 
L 56.563244 -195.4347 
L 56.563244 -195.4347 
L 56.518336 -195.4347 
L 56.518336 -195.4347 
L 56.383611 -195.4347 
L 56.383611 -195.4347 
L 56.338702 -195.4347 
L 56.338702 -195.4347 
L 56.203977 -195.4347 
L 56.203977 -195.4347 
L 56.024344 -195.4347 
L 56.024344 -195.4347 
L 55.979436 -195.4347 
L 55.979436 -195.956665 
L 55.844711 -195.956665 
L 55.844711 -195.956665 
L 55.754894 -195.956665 
L 55.754894 -195.956665 
L 55.126178 -195.956665 
L 55.126178 -195.956665 
L 54.766912 -195.956665 
L 54.766912 -195.956665 
L 54.587278 -195.956665 
L 54.587278 -195.956665 
L 54.048379 -195.956665 
L 54.048379 -196.438538 
L 52.790946 -196.438538 
L 52.790946 -196.438538 
L 52.117322 -196.438538 
L 52.117322 -196.878828 
L 48.120482 -196.878828 
L 48.120482 -196.878828 
L 48.030666 -196.878828 
L 48.030666 -196.878828 
L 46.728325 -196.878828 
L 46.728325 -196.878828 
L 46.189425 -196.878828 
L 46.189425 -197.25917 
L 45.111626 -197.25917 
L 45.111626 -197.550091 
L 44.572726 -197.550091 
L 44.572726 -197.550091 
L 43.315294 -197.550091 
L 43.315294 -197.550091 
L 42.102769 -197.550091 
L 42.102769 -197.550091 
L 40.306437 -197.550091 
L 40.306437 -197.550091 
L 39.632812 -197.550091 
z
" style="stroke: #2e86ab; stroke-opacity: 0.2"/>
    </defs>
    <g clip-path="url(#pbbbe52b108)">
     <use xlink:href="#m7406051583" x="0" y="213.012812" style="fill: #2e86ab; fill-opacity: 0.2; stroke: #2e86ab; stroke-opacity: 0.2"/>
    </g>
   </g>
   <g id="FillBetweenPolyCollection_2">
    <defs>
     <path id="m89e40a2b5c" d="M 36.758681 -197.662336 
L 36.758681 -197.662336 
L 39.632812 -197.662336 
L 39.632812 -192.100649 
L 40.21662 -192.100649 
L 40.21662 -192.100649 
L 40.396254 -192.100649 
L 40.396254 -192.100649 
L 40.48607 -192.100649 
L 40.48607 -191.349377 
L 40.530979 -191.349377 
L 40.530979 -190.307174 
L 40.890245 -190.307174 
L 40.890245 -190.307174 
L 41.204603 -190.307174 
L 41.204603 -190.307174 
L 41.29442 -190.307174 
L 41.29442 -190.307174 
L 41.698595 -190.307174 
L 41.698595 -190.307174 
L 42.147678 -190.307174 
L 42.147678 -188.06435 
L 42.192586 -188.06435 
L 42.192586 -186.969149 
L 42.282403 -186.969149 
L 42.282403 -186.969149 
L 42.417127 -186.969149 
L 42.417127 -185.881989 
L 42.506944 -185.881989 
L 42.506944 -185.881989 
L 42.551852 -185.881989 
L 42.551852 -184.793487 
L 42.641669 -184.793487 
L 42.641669 -184.793487 
L 42.686577 -184.793487 
L 42.686577 -183.71209 
L 42.731486 -183.71209 
L 42.731486 -182.636502 
L 43.045844 -182.636502 
L 43.045844 -181.57393 
L 43.270385 -181.57393 
L 43.270385 -180.522797 
L 43.40511 -180.522797 
L 43.40511 -180.522797 
L 43.584743 -180.522797 
L 43.584743 -179.473818 
L 43.629652 -179.473818 
L 43.629652 -179.473818 
L 43.67456 -179.473818 
L 43.67456 -178.426351 
L 43.809285 -178.426351 
L 43.809285 -177.387821 
L 43.899102 -177.387821 
L 43.899102 -177.387821 
L 44.033827 -177.387821 
L 44.033827 -176.349492 
L 44.078735 -176.349492 
L 44.078735 -175.318856 
L 44.348185 -175.318856 
L 44.348185 -175.318856 
L 44.393093 -175.318856 
L 44.393093 -174.287422 
L 44.887084 -174.287422 
L 44.887084 -174.287422 
L 44.931993 -174.287422 
L 44.931993 -173.25484 
L 45.381076 -173.25484 
L 45.381076 -172.228741 
L 45.425984 -172.228741 
L 45.425984 -172.228741 
L 45.515801 -172.228741 
L 45.515801 -171.200754 
L 46.009792 -171.200754 
L 46.009792 -170.178583 
L 46.099609 -170.178583 
L 46.099609 -169.161849 
L 46.32415 -169.161849 
L 46.32415 -168.15022 
L 46.548692 -168.15022 
L 46.548692 -166.14112 
L 46.952866 -166.14112 
L 46.952866 -165.143147 
L 47.177408 -165.143147 
L 47.177408 -163.143771 
L 47.401949 -163.143771 
L 47.401949 -162.149953 
L 47.806124 -162.149953 
L 47.806124 -161.159816 
L 48.210299 -161.159816 
L 48.210299 -160.173206 
L 48.614474 -160.173206 
L 48.614474 -158.210005 
L 48.839015 -158.210005 
L 48.839015 -157.233163 
L 48.883924 -157.233163 
L 48.883924 -156.259343 
L 49.108465 -156.259343 
L 49.108465 -155.288442 
L 49.198282 -155.288442 
L 49.198282 -154.320365 
L 49.333007 -154.320365 
L 49.333007 -153.355022 
L 49.51264 -153.355022 
L 49.51264 -152.392332 
L 49.647365 -152.392332 
L 49.647365 -151.432218 
L 49.692273 -151.432218 
L 49.692273 -151.432218 
L 50.05154 -151.432218 
L 50.05154 -149.503458 
L 50.276081 -149.503458 
L 50.276081 -148.542798 
L 50.680256 -148.542798 
L 50.680256 -147.584534 
L 50.770072 -147.584534 
L 50.770072 -146.628606 
L 50.859889 -146.628606 
L 50.859889 -145.674957 
L 50.904797 -145.674957 
L 50.904797 -144.723536 
L 50.994614 -144.723536 
L 50.994614 -143.765948 
L 51.039522 -143.765948 
L 51.039522 -141.85736 
L 51.219155 -141.85736 
L 51.219155 -140.906269 
L 51.264064 -140.906269 
L 51.264064 -139.957257 
L 51.35388 -139.957257 
L 51.35388 -139.010285 
L 51.398789 -139.010285 
L 51.398789 -138.065315 
L 51.847872 -138.065315 
L 51.847872 -136.181243 
L 51.89278 -136.181243 
L 51.89278 -135.242076 
L 51.937688 -135.242076 
L 51.937688 -134.304781 
L 52.027505 -134.304781 
L 52.027505 -134.304781 
L 52.835855 -134.304781 
L 52.835855 -132.417925 
L 53.240029 -132.417925 
L 53.240029 -131.477305 
L 53.599296 -131.477305 
L 53.599296 -130.538522 
L 54.183104 -130.538522 
L 54.183104 -128.66637 
L 54.362737 -128.66637 
L 54.362737 -127.732955 
L 54.407645 -127.732955 
L 54.407645 -126.801287 
L 54.452554 -126.801287 
L 54.452554 -126.801287 
L 54.54237 -126.801287 
L 54.54237 -125.861826 
L 54.901637 -125.861826 
L 54.901637 -124.924146 
L 55.08127 -124.924146 
L 55.08127 -123.05405 
L 55.126178 -123.05405 
L 55.126178 -123.05405 
L 55.620169 -123.05405 
L 55.620169 -122.111632 
L 55.844711 -122.111632 
L 55.844711 -122.111632 
L 55.889619 -122.111632 
L 55.889619 -121.16075 
L 56.069253 -121.16075 
L 56.069253 -121.16075 
L 56.159069 -121.16075 
L 56.159069 -121.16075 
L 56.248886 -121.16075 
L 56.248886 -119.200111 
L 56.92251 -119.200111 
L 56.92251 -117.224971 
L 56.967419 -117.224971 
L 56.967419 -116.24058 
L 57.057235 -116.24058 
L 57.057235 -115.258281 
L 57.102144 -115.258281 
L 57.102144 -115.258281 
L 57.19196 -115.258281 
L 57.19196 -114.266006 
L 57.281777 -114.266006 
L 57.281777 -113.275884 
L 57.506318 -113.275884 
L 57.506318 -113.275884 
L 57.596135 -113.275884 
L 57.596135 -112.275353 
L 57.865585 -112.275353 
L 57.865585 -111.277044 
L 57.955401 -111.277044 
L 57.955401 -110.280938 
L 58.179943 -110.280938 
L 58.179943 -107.30568 
L 58.26976 -107.30568 
L 58.26976 -106.318233 
L 58.314668 -106.318233 
L 58.314668 -106.318233 
L 58.404484 -106.318233 
L 58.404484 -105.319238 
L 59.123017 -105.319238 
L 59.123017 -104.322479 
L 59.257742 -104.322479 
L 59.257742 -103.327947 
L 59.976275 -103.327947 
L 59.976275 -102.335632 
L 60.021183 -102.335632 
L 60.021183 -101.345525 
L 60.066092 -101.345525 
L 60.066092 -100.35762 
L 60.290633 -100.35762 
L 60.290633 -99.371911 
L 60.604991 -99.371911 
L 60.604991 -97.407064 
L 60.91935 -97.407064 
L 60.91935 -96.427921 
L 61.188799 -96.427921 
L 61.188799 -96.427921 
L 61.368433 -96.427921 
L 61.368433 -96.427921 
L 61.458249 -96.427921 
L 61.458249 -95.419265 
L 61.727699 -95.419265 
L 61.727699 -94.413074 
L 61.862424 -94.413074 
L 61.862424 -93.409346 
L 62.446232 -93.409346 
L 62.446232 -92.408081 
L 62.536049 -92.408081 
L 62.536049 -90.412949 
L 63.074948 -90.412949 
L 63.074948 -89.41909 
L 63.434215 -89.41909 
L 63.434215 -88.42771 
L 63.703665 -88.42771 
L 63.703665 -87.438817 
L 63.83839 -87.438817 
L 63.83839 -86.414506 
L 64.062931 -86.414506 
L 64.062931 -84.334099 
L 64.197656 -84.334099 
L 64.197656 -82.266169 
L 64.332381 -82.266169 
L 64.332381 -81.236917 
L 65.006005 -81.236917 
L 65.006005 -79.187933 
L 65.365272 -79.187933 
L 65.365272 -79.187933 
L 65.455089 -79.187933 
L 65.455089 -78.144686 
L 65.544905 -78.144686 
L 65.544905 -77.104957 
L 65.634722 -77.104957 
L 65.634722 -76.068773 
L 66.038897 -76.068773 
L 66.038897 -76.068773 
L 66.128713 -76.068773 
L 66.128713 -76.068773 
L 66.263438 -76.068773 
L 66.263438 -74.982911 
L 66.532888 -74.982911 
L 66.532888 -73.901376 
L 67.251421 -73.901376 
L 67.251421 -72.824206 
L 67.341237 -72.824206 
L 67.341237 -71.751447 
L 67.386146 -71.751447 
L 67.386146 -71.751447 
L 67.610687 -71.751447 
L 67.610687 -70.65212 
L 67.925045 -70.65212 
L 67.925045 -69.557789 
L 68.05977 -69.557789 
L 68.05977 -69.557789 
L 68.643578 -69.557789 
L 68.643578 -69.557789 
L 68.778303 -69.557789 
L 68.778303 -69.557789 
L 68.86812 -69.557789 
L 68.86812 -68.359017 
L 69.496836 -68.359017 
L 69.496836 -67.167395 
L 69.901011 -67.167395 
L 69.901011 -65.983002 
L 70.170461 -65.983002 
L 70.170461 -64.805931 
L 70.395002 -64.805931 
L 70.395002 -63.636292 
L 70.888994 -63.636292 
L 70.888994 -62.474211 
L 71.338077 -62.474211 
L 71.338077 -61.31983 
L 71.607526 -61.31983 
L 71.607526 -60.173314 
L 72.820051 -60.173314 
L 72.820051 -59.034848 
L 73.314042 -59.034848 
L 73.314042 -59.034848 
L 73.808033 -59.034848 
L 73.808033 -59.034848 
L 74.571475 -59.034848 
L 74.571475 -57.793681 
L 75.334916 -57.793681 
L 75.334916 -56.564165 
L 76.412715 -56.564165 
L 76.412715 -55.34661 
L 77.131248 -55.34661 
L 77.131248 -54.141376 
L 77.849781 -54.141376 
L 77.849781 -54.141376 
L 78.209047 -54.141376 
L 78.209047 -52.874968 
L 78.433589 -52.874968 
L 78.433589 -51.624695 
L 79.73593 -51.624695 
L 79.73593 -51.624695 
L 83.373503 -51.624695 
L 83.373503 -50.300264 
L 84.900385 -50.300264 
L 84.900385 -48.997912 
L 87.41525 -48.997912 
L 87.41525 -47.718668 
L 90.244474 -47.718668 
L 90.244474 -47.718668 
L 91.861173 -47.718668 
L 91.861173 -46.340897 
L 94.376038 -46.340897 
L 94.376038 -46.340897 
L 103.537332 -46.340897 
L 103.537332 -44.840721 
L 110.677753 -44.840721 
L 110.677753 -44.840721 
L 113.237526 -44.840721 
L 113.237526 -44.840721 
L 116.336199 -44.840721 
L 116.336199 -44.840721 
L 120.108497 -44.840721 
L 120.108497 -44.840721 
L 122.488637 -44.840721 
L 122.488637 -44.840721 
L 128.147084 -44.840721 
L 128.147084 -41.311381 
L 129.808691 -41.311381 
L 129.808691 -41.311381 
L 142.607559 -41.311381 
L 142.607559 -41.311381 
L 143.460816 -41.311381 
L 143.460816 -41.311381 
L 145.257149 -41.311381 
L 145.257149 -41.311381 
L 145.257149 -60.468346 
L 145.257149 -60.468346 
L 145.257149 -60.468346 
L 143.460816 -60.468346 
L 143.460816 -60.468346 
L 142.607559 -60.468346 
L 142.607559 -60.468346 
L 129.808691 -60.468346 
L 129.808691 -60.468346 
L 128.147084 -60.468346 
L 128.147084 -62.902806 
L 122.488637 -62.902806 
L 122.488637 -62.902806 
L 120.108497 -62.902806 
L 120.108497 -62.902806 
L 116.336199 -62.902806 
L 116.336199 -62.902806 
L 113.237526 -62.902806 
L 113.237526 -62.902806 
L 110.677753 -62.902806 
L 110.677753 -62.902806 
L 103.537332 -62.902806 
L 103.537332 -64.789416 
L 94.376038 -64.789416 
L 94.376038 -64.789416 
L 91.861173 -64.789416 
L 91.861173 -66.547912 
L 90.244474 -66.547912 
L 90.244474 -66.547912 
L 87.41525 -66.547912 
L 87.41525 -68.201532 
L 84.900385 -68.201532 
L 84.900385 -69.835814 
L 83.373503 -69.835814 
L 83.373503 -71.451681 
L 79.73593 -71.451681 
L 79.73593 -71.451681 
L 78.433589 -71.451681 
L 78.433589 -72.989468 
L 78.209047 -72.989468 
L 78.209047 -74.513703 
L 77.849781 -74.513703 
L 77.849781 -74.513703 
L 77.131248 -74.513703 
L 77.131248 -75.973623 
L 76.412715 -75.973623 
L 76.412715 -77.423117 
L 75.334916 -77.423117 
L 75.334916 -78.862524 
L 74.571475 -78.862524 
L 74.571475 -80.29214 
L 73.808033 -80.29214 
L 73.808033 -80.29214 
L 73.314042 -80.29214 
L 73.314042 -80.29214 
L 72.820051 -80.29214 
L 72.820051 -81.633181 
L 71.607526 -81.633181 
L 71.607526 -82.967323 
L 71.338077 -82.967323 
L 71.338077 -84.294743 
L 70.888994 -84.294743 
L 70.888994 -85.615602 
L 70.395002 -85.615602 
L 70.395002 -86.930041 
L 70.170461 -86.930041 
L 70.170461 -88.238188 
L 69.901011 -88.238188 
L 69.901011 -89.540156 
L 69.496836 -89.540156 
L 69.496836 -90.836045 
L 68.86812 -90.836045 
L 68.86812 -92.125942 
L 68.778303 -92.125942 
L 68.778303 -92.125942 
L 68.643578 -92.125942 
L 68.643578 -92.125942 
L 68.05977 -92.125942 
L 68.05977 -92.125942 
L 67.925045 -92.125942 
L 67.925045 -93.331782 
L 67.610687 -93.331782 
L 67.610687 -94.533324 
L 67.386146 -94.533324 
L 67.386146 -94.533324 
L 67.341237 -94.533324 
L 67.341237 -95.707754 
L 67.251421 -95.707754 
L 67.251421 -96.878367 
L 66.532888 -96.878367 
L 66.532888 -98.045211 
L 66.263438 -98.045211 
L 66.263438 -99.208331 
L 66.128713 -99.208331 
L 66.128713 -99.208331 
L 66.038897 -99.208331 
L 66.038897 -99.208331 
L 65.634722 -99.208331 
L 65.634722 -100.328374 
L 65.544905 -100.328374 
L 65.544905 -101.445309 
L 65.455089 -101.445309 
L 65.455089 -102.559167 
L 65.365272 -102.559167 
L 65.365272 -102.559167 
L 65.006005 -102.559167 
L 65.006005 -104.742827 
L 64.332381 -104.742827 
L 64.332381 -105.830468 
L 64.197656 -105.830468 
L 64.197656 -107.997483 
L 64.062931 -107.997483 
L 64.062931 -110.153599 
L 63.83839 -110.153599 
L 63.83839 -111.212749 
L 63.703665 -111.212749 
L 63.703665 -112.24132 
L 63.434215 -112.24132 
L 63.434215 -113.267663 
L 63.074948 -113.267663 
L 63.074948 -114.291788 
L 62.536049 -114.291788 
L 62.536049 -116.333424 
L 62.446232 -116.333424 
L 62.446232 -117.350948 
L 61.862424 -117.350948 
L 61.862424 -118.366286 
L 61.727699 -118.366286 
L 61.727699 -119.379441 
L 61.458249 -119.379441 
L 61.458249 -120.390416 
L 61.368433 -120.390416 
L 61.368433 -120.390416 
L 61.188799 -120.390416 
L 61.188799 -120.390416 
L 60.91935 -120.390416 
L 60.91935 -121.376199 
L 60.604991 -121.376199 
L 60.604991 -123.341858 
L 60.290633 -123.341858 
L 60.290633 -124.321735 
L 60.066092 -124.321735 
L 60.066092 -125.299644 
L 60.021183 -125.299644 
L 60.021183 -126.275583 
L 59.976275 -126.275583 
L 59.976275 -127.24955 
L 59.257742 -127.24955 
L 59.257742 -128.221542 
L 59.123017 -128.221542 
L 59.123017 -129.191555 
L 58.404484 -129.191555 
L 58.404484 -130.159583 
L 58.314668 -130.159583 
L 58.314668 -130.159583 
L 58.26976 -130.159583 
L 58.26976 -131.115996 
L 58.179943 -131.115996 
L 58.179943 -133.973716 
L 57.955401 -133.973716 
L 57.955401 -134.922423 
L 57.865585 -134.922423 
L 57.865585 -135.869181 
L 57.596135 -135.869181 
L 57.596135 -136.81398 
L 57.506318 -136.81398 
L 57.506318 -136.81398 
L 57.281777 -136.81398 
L 57.281777 -137.748215 
L 57.19196 -137.748215 
L 57.19196 -138.68054 
L 57.102144 -138.68054 
L 57.102144 -138.68054 
L 57.057235 -138.68054 
L 57.057235 -139.602716 
L 56.967419 -139.602716 
L 56.967419 -140.523026 
L 56.92251 -140.523026 
L 56.92251 -142.357992 
L 56.248886 -142.357992 
L 56.248886 -144.170001 
L 56.159069 -144.170001 
L 56.159069 -144.170001 
L 56.069253 -144.170001 
L 56.069253 -144.170001 
L 55.889619 -144.170001 
L 55.889619 -145.051394 
L 55.844711 -145.051394 
L 55.844711 -145.051394 
L 55.620169 -145.051394 
L 55.620169 -145.924111 
L 55.126178 -145.924111 
L 55.126178 -145.924111 
L 55.08127 -145.924111 
L 55.08127 -147.651 
L 54.901637 -147.651 
L 54.901637 -148.51197 
L 54.54237 -148.51197 
L 54.54237 -149.37127 
L 54.452554 -149.37127 
L 54.452554 -149.37127 
L 54.407645 -149.37127 
L 54.407645 -150.222499 
L 54.362737 -150.222499 
L 54.362737 -151.072071 
L 54.183104 -151.072071 
L 54.183104 -152.766172 
L 53.599296 -152.766172 
L 53.599296 -153.61066 
L 53.240029 -153.61066 
L 53.240029 -154.453412 
L 52.835855 -154.453412 
L 52.835855 -156.133614 
L 52.027505 -156.133614 
L 52.027505 -156.133614 
L 51.937688 -156.133614 
L 51.937688 -156.965253 
L 51.89278 -156.965253 
L 51.89278 -157.795105 
L 51.847872 -157.795105 
L 51.847872 -159.449341 
L 51.398789 -159.449341 
L 51.398789 -160.273668 
L 51.35388 -160.273668 
L 51.35388 -161.096091 
L 51.264064 -161.096091 
L 51.264064 -161.916578 
L 51.219155 -161.916578 
L 51.219155 -162.735094 
L 51.039522 -162.735094 
L 51.039522 -164.366062 
L 50.994614 -164.366062 
L 50.994614 -165.178432 
L 50.904797 -165.178432 
L 50.904797 -165.983629 
L 50.859889 -165.983629 
L 50.859889 -166.786697 
L 50.770072 -166.786697 
L 50.770072 -167.587591 
L 50.680256 -167.587591 
L 50.680256 -168.386261 
L 50.276081 -168.386261 
L 50.276081 -169.182652 
L 50.05154 -169.182652 
L 50.05154 -170.76837 
L 49.692273 -170.76837 
L 49.692273 -170.76837 
L 49.647365 -170.76837 
L 49.647365 -171.55297 
L 49.51264 -171.55297 
L 49.51264 -172.335099 
L 49.333007 -172.335099 
L 49.333007 -173.114686 
L 49.198282 -173.114686 
L 49.198282 -173.891657 
L 49.108465 -173.891657 
L 49.108465 -174.66593 
L 48.883924 -174.66593 
L 48.883924 -175.43742 
L 48.839015 -175.43742 
L 48.839015 -176.206034 
L 48.614474 -176.206034 
L 48.614474 -177.734231 
L 48.210299 -177.734231 
L 48.210299 -178.49359 
L 47.806124 -178.49359 
L 47.806124 -179.249626 
L 47.401949 -179.249626 
L 47.401949 -180.002205 
L 47.177408 -180.002205 
L 47.177408 -181.496384 
L 46.952866 -181.496384 
L 46.952866 -182.23385 
L 46.548692 -182.23385 
L 46.548692 -183.696412 
L 46.32415 -183.696412 
L 46.32415 -184.421073 
L 46.099609 -184.421073 
L 46.099609 -185.140993 
L 46.009792 -185.140993 
L 46.009792 -185.85589 
L 45.515801 -185.85589 
L 45.515801 -186.56545 
L 45.425984 -186.56545 
L 45.425984 -186.56545 
L 45.381076 -186.56545 
L 45.381076 -187.265983 
L 44.931993 -187.265983 
L 44.931993 -187.960534 
L 44.887084 -187.960534 
L 44.887084 -187.960534 
L 44.393093 -187.960534 
L 44.393093 -188.645487 
L 44.348185 -188.645487 
L 44.348185 -188.645487 
L 44.078735 -188.645487 
L 44.078735 -189.320551 
L 44.033827 -189.320551 
L 44.033827 -189.988347 
L 43.899102 -189.988347 
L 43.899102 -189.988347 
L 43.809285 -189.988347 
L 43.809285 -190.645327 
L 43.67456 -190.645327 
L 43.67456 -191.293761 
L 43.629652 -191.293761 
L 43.629652 -191.293761 
L 43.584743 -191.293761 
L 43.584743 -191.930051 
L 43.40511 -191.930051 
L 43.40511 -191.930051 
L 43.270385 -191.930051 
L 43.270385 -192.553399 
L 43.045844 -192.553399 
L 43.045844 -193.165306 
L 42.731486 -193.165306 
L 42.731486 -193.764218 
L 42.686577 -193.764218 
L 42.686577 -194.345907 
L 42.641669 -194.345907 
L 42.641669 -194.345907 
L 42.551852 -194.345907 
L 42.551852 -194.908213 
L 42.506944 -194.908213 
L 42.506944 -194.908213 
L 42.417127 -194.908213 
L 42.417127 -195.446276 
L 42.282403 -195.446276 
L 42.282403 -195.446276 
L 42.192586 -195.446276 
L 42.192586 -195.958311 
L 42.147678 -195.958311 
L 42.147678 -196.881433 
L 41.698595 -196.881433 
L 41.698595 -196.881433 
L 41.29442 -196.881433 
L 41.29442 -196.881433 
L 41.204603 -196.881433 
L 41.204603 -196.881433 
L 40.890245 -196.881433 
L 40.890245 -196.881433 
L 40.530979 -196.881433 
L 40.530979 -197.260171 
L 40.48607 -197.260171 
L 40.48607 -197.550091 
L 40.396254 -197.550091 
L 40.396254 -197.550091 
L 40.21662 -197.550091 
L 40.21662 -197.550091 
L 39.632812 -197.550091 
L 39.632812 -197.662336 
L 36.758681 -197.662336 
z
" style="stroke: #e63946; stroke-opacity: 0.2"/>
    </defs>
    <g clip-path="url(#pbbbe52b108)">
     <use xlink:href="#m89e40a2b5c" x="0" y="213.012812" style="fill: #e63946; fill-opacity: 0.2; stroke: #e63946; stroke-opacity: 0.2"/>
    </g>
   </g>
   <g id="line2d_25">
    <defs>
     <path id="ma9a9ee96a2" d="M -3 3 
L 3 -3 
M -3 -3 
L 3 3 
" style="stroke: #2e86ab"/>
    </defs>
    <g clip-path="url(#pbbbe52b108)">
     <use xlink:href="#ma9a9ee96a2" x="40.306437" y="16.145645" style="fill: #2e86ab; stroke: #2e86ab"/>
     <use xlink:href="#ma9a9ee96a2" x="42.102769" y="16.145645" style="fill: #2e86ab; stroke: #2e86ab"/>
     <use xlink:href="#ma9a9ee96a2" x="43.315294" y="16.145645" style="fill: #2e86ab; stroke: #2e86ab"/>
     <use xlink:href="#ma9a9ee96a2" x="44.572726" y="16.145645" style="fill: #2e86ab; stroke: #2e86ab"/>
     <use xlink:href="#ma9a9ee96a2" x="46.728325" y="17.767788" style="fill: #2e86ab; stroke: #2e86ab"/>
     <use xlink:href="#ma9a9ee96a2" x="48.030666" y="17.767788" style="fill: #2e86ab; stroke: #2e86ab"/>
     <use xlink:href="#ma9a9ee96a2" x="48.120482" y="17.767788" style="fill: #2e86ab; stroke: #2e86ab"/>
     <use xlink:href="#ma9a9ee96a2" x="52.790946" y="18.591338" style="fill: #2e86ab; stroke: #2e86ab"/>
     <use xlink:href="#ma9a9ee96a2" x="54.587278" y="19.419155" style="fill: #2e86ab; stroke: #2e86ab"/>
     <use xlink:href="#ma9a9ee96a2" x="54.766912" y="19.419155" style="fill: #2e86ab; stroke: #2e86ab"/>
     <use xlink:href="#ma9a9ee96a2" x="55.126178" y="19.419155" style="fill: #2e86ab; stroke: #2e86ab"/>
     <use xlink:href="#ma9a9ee96a2" x="55.754894" y="19.419155" style="fill: #2e86ab; stroke: #2e86ab"/>
     <use xlink:href="#ma9a9ee96a2" x="55.844711" y="19.419155" style="fill: #2e86ab; stroke: #2e86ab"/>
     <use xlink:href="#ma9a9ee96a2" x="55.979436" y="20.269106" style="fill: #2e86ab; stroke: #2e86ab"/>
     <use xlink:href="#ma9a9ee96a2" x="56.024344" y="20.269106" style="fill: #2e86ab; stroke: #2e86ab"/>
     <use xlink:href="#ma9a9ee96a2" x="56.203977" y="20.269106" style="fill: #2e86ab; stroke: #2e86ab"/>
     <use xlink:href="#ma9a9ee96a2" x="56.338702" y="20.269106" style="fill: #2e86ab; stroke: #2e86ab"/>
     <use xlink:href="#ma9a9ee96a2" x="56.383611" y="20.269106" style="fill: #2e86ab; stroke: #2e86ab"/>
     <use xlink:href="#ma9a9ee96a2" x="56.518336" y="20.269106" style="fill: #2e86ab; stroke: #2e86ab"/>
     <use xlink:href="#ma9a9ee96a2" x="56.563244" y="20.269106" style="fill: #2e86ab; stroke: #2e86ab"/>
     <use xlink:href="#ma9a9ee96a2" x="56.653061" y="20.269106" style="fill: #2e86ab; stroke: #2e86ab"/>
     <use xlink:href="#ma9a9ee96a2" x="56.787785" y="20.269106" style="fill: #2e86ab; stroke: #2e86ab"/>
     <use xlink:href="#ma9a9ee96a2" x="56.832694" y="20.269106" style="fill: #2e86ab; stroke: #2e86ab"/>
     <use xlink:href="#ma9a9ee96a2" x="56.877602" y="20.269106" style="fill: #2e86ab; stroke: #2e86ab"/>
     <use xlink:href="#ma9a9ee96a2" x="57.326685" y="20.269106" style="fill: #2e86ab; stroke: #2e86ab"/>
     <use xlink:href="#ma9a9ee96a2" x="57.506318" y="20.269106" style="fill: #2e86ab; stroke: #2e86ab"/>
     <use xlink:href="#ma9a9ee96a2" x="57.551227" y="20.269106" style="fill: #2e86ab; stroke: #2e86ab"/>
     <use xlink:href="#ma9a9ee96a2" x="58.045218" y="20.269106" style="fill: #2e86ab; stroke: #2e86ab"/>
     <use xlink:href="#ma9a9ee96a2" x="58.26976" y="20.269106" style="fill: #2e86ab; stroke: #2e86ab"/>
     <use xlink:href="#ma9a9ee96a2" x="58.718843" y="20.269106" style="fill: #2e86ab; stroke: #2e86ab"/>
     <use xlink:href="#ma9a9ee96a2" x="58.853568" y="20.269106" style="fill: #2e86ab; stroke: #2e86ab"/>
     <use xlink:href="#ma9a9ee96a2" x="59.078109" y="20.269106" style="fill: #2e86ab; stroke: #2e86ab"/>
     <use xlink:href="#ma9a9ee96a2" x="60.066092" y="20.269106" style="fill: #2e86ab; stroke: #2e86ab"/>
     <use xlink:href="#ma9a9ee96a2" x="60.155908" y="20.269106" style="fill: #2e86ab; stroke: #2e86ab"/>
     <use xlink:href="#ma9a9ee96a2" x="60.290633" y="20.269106" style="fill: #2e86ab; stroke: #2e86ab"/>
     <use xlink:href="#ma9a9ee96a2" x="60.560083" y="20.269106" style="fill: #2e86ab; stroke: #2e86ab"/>
     <use xlink:href="#ma9a9ee96a2" x="60.604991" y="20.269106" style="fill: #2e86ab; stroke: #2e86ab"/>
     <use xlink:href="#ma9a9ee96a2" x="60.694808" y="20.269106" style="fill: #2e86ab; stroke: #2e86ab"/>
     <use xlink:href="#ma9a9ee96a2" x="60.91935" y="20.269106" style="fill: #2e86ab; stroke: #2e86ab"/>
     <use xlink:href="#ma9a9ee96a2" x="60.964258" y="20.269106" style="fill: #2e86ab; stroke: #2e86ab"/>
     <use xlink:href="#ma9a9ee96a2" x="61.054075" y="20.269106" style="fill: #2e86ab; stroke: #2e86ab"/>
     <use xlink:href="#ma9a9ee96a2" x="61.233708" y="20.269106" style="fill: #2e86ab; stroke: #2e86ab"/>
     <use xlink:href="#ma9a9ee96a2" x="61.413341" y="20.269106" style="fill: #2e86ab; stroke: #2e86ab"/>
     <use xlink:href="#ma9a9ee96a2" x="61.682791" y="20.269106" style="fill: #2e86ab; stroke: #2e86ab"/>
     <use xlink:href="#ma9a9ee96a2" x="61.862424" y="20.269106" style="fill: #2e86ab; stroke: #2e86ab"/>
     <use xlink:href="#ma9a9ee96a2" x="62.22169" y="20.269106" style="fill: #2e86ab; stroke: #2e86ab"/>
     <use xlink:href="#ma9a9ee96a2" x="62.401324" y="20.269106" style="fill: #2e86ab; stroke: #2e86ab"/>
     <use xlink:href="#ma9a9ee96a2" x="62.446232" y="20.269106" style="fill: #2e86ab; stroke: #2e86ab"/>
     <use xlink:href="#ma9a9ee96a2" x="62.625865" y="20.269106" style="fill: #2e86ab; stroke: #2e86ab"/>
     <use xlink:href="#ma9a9ee96a2" x="63.074948" y="20.269106" style="fill: #2e86ab; stroke: #2e86ab"/>
     <use xlink:href="#ma9a9ee96a2" x="63.164765" y="20.269106" style="fill: #2e86ab; stroke: #2e86ab"/>
     <use xlink:href="#ma9a9ee96a2" x="63.883298" y="21.382422" style="fill: #2e86ab; stroke: #2e86ab"/>
     <use xlink:href="#ma9a9ee96a2" x="63.973114" y="21.382422" style="fill: #2e86ab; stroke: #2e86ab"/>
     <use xlink:href="#ma9a9ee96a2" x="64.152748" y="21.382422" style="fill: #2e86ab; stroke: #2e86ab"/>
     <use xlink:href="#ma9a9ee96a2" x="64.781464" y="21.382422" style="fill: #2e86ab; stroke: #2e86ab"/>
     <use xlink:href="#ma9a9ee96a2" x="64.871281" y="21.382422" style="fill: #2e86ab; stroke: #2e86ab"/>
     <use xlink:href="#ma9a9ee96a2" x="65.320364" y="21.382422" style="fill: #2e86ab; stroke: #2e86ab"/>
     <use xlink:href="#ma9a9ee96a2" x="65.589813" y="21.382422" style="fill: #2e86ab; stroke: #2e86ab"/>
     <use xlink:href="#ma9a9ee96a2" x="65.67963" y="21.382422" style="fill: #2e86ab; stroke: #2e86ab"/>
     <use xlink:href="#ma9a9ee96a2" x="65.724538" y="21.382422" style="fill: #2e86ab; stroke: #2e86ab"/>
     <use xlink:href="#ma9a9ee96a2" x="65.769447" y="21.382422" style="fill: #2e86ab; stroke: #2e86ab"/>
     <use xlink:href="#ma9a9ee96a2" x="66.712521" y="23.816183" style="fill: #2e86ab; stroke: #2e86ab"/>
     <use xlink:href="#ma9a9ee96a2" x="67.026879" y="23.816183" style="fill: #2e86ab; stroke: #2e86ab"/>
     <use xlink:href="#ma9a9ee96a2" x="68.194495" y="25.052533" style="fill: #2e86ab; stroke: #2e86ab"/>
     <use xlink:href="#ma9a9ee96a2" x="68.284312" y="25.052533" style="fill: #2e86ab; stroke: #2e86ab"/>
     <use xlink:href="#ma9a9ee96a2" x="68.374128" y="25.052533" style="fill: #2e86ab; stroke: #2e86ab"/>
     <use xlink:href="#ma9a9ee96a2" x="68.419037" y="25.052533" style="fill: #2e86ab; stroke: #2e86ab"/>
     <use xlink:href="#ma9a9ee96a2" x="68.463945" y="25.052533" style="fill: #2e86ab; stroke: #2e86ab"/>
     <use xlink:href="#ma9a9ee96a2" x="68.733395" y="25.052533" style="fill: #2e86ab; stroke: #2e86ab"/>
     <use xlink:href="#ma9a9ee96a2" x="69.496836" y="25.052533" style="fill: #2e86ab; stroke: #2e86ab"/>
     <use xlink:href="#ma9a9ee96a2" x="70.664452" y="26.362854" style="fill: #2e86ab; stroke: #2e86ab"/>
     <use xlink:href="#ma9a9ee96a2" x="71.023719" y="26.362854" style="fill: #2e86ab; stroke: #2e86ab"/>
     <use xlink:href="#ma9a9ee96a2" x="71.068627" y="26.362854" style="fill: #2e86ab; stroke: #2e86ab"/>
     <use xlink:href="#ma9a9ee96a2" x="72.460784" y="27.707961" style="fill: #2e86ab; stroke: #2e86ab"/>
     <use xlink:href="#ma9a9ee96a2" x="73.673309" y="29.065187" style="fill: #2e86ab; stroke: #2e86ab"/>
     <use xlink:href="#ma9a9ee96a2" x="74.346933" y="29.065187" style="fill: #2e86ab; stroke: #2e86ab"/>
     <use xlink:href="#ma9a9ee96a2" x="74.796016" y="29.065187" style="fill: #2e86ab; stroke: #2e86ab"/>
     <use xlink:href="#ma9a9ee96a2" x="75.065466" y="29.065187" style="fill: #2e86ab; stroke: #2e86ab"/>
     <use xlink:href="#ma9a9ee96a2" x="75.469641" y="29.065187" style="fill: #2e86ab; stroke: #2e86ab"/>
     <use xlink:href="#ma9a9ee96a2" x="75.514549" y="29.065187" style="fill: #2e86ab; stroke: #2e86ab"/>
     <use xlink:href="#ma9a9ee96a2" x="76.098357" y="29.065187" style="fill: #2e86ab; stroke: #2e86ab"/>
     <use xlink:href="#ma9a9ee96a2" x="76.143265" y="29.065187" style="fill: #2e86ab; stroke: #2e86ab"/>
     <use xlink:href="#ma9a9ee96a2" x="76.457624" y="29.065187" style="fill: #2e86ab; stroke: #2e86ab"/>
     <use xlink:href="#ma9a9ee96a2" x="76.996523" y="30.543353" style="fill: #2e86ab; stroke: #2e86ab"/>
     <use xlink:href="#ma9a9ee96a2" x="77.35579" y="30.543353" style="fill: #2e86ab; stroke: #2e86ab"/>
     <use xlink:href="#ma9a9ee96a2" x="77.445606" y="30.543353" style="fill: #2e86ab; stroke: #2e86ab"/>
     <use xlink:href="#ma9a9ee96a2" x="78.433589" y="30.543353" style="fill: #2e86ab; stroke: #2e86ab"/>
     <use xlink:href="#ma9a9ee96a2" x="78.837764" y="30.543353" style="fill: #2e86ab; stroke: #2e86ab"/>
     <use xlink:href="#ma9a9ee96a2" x="79.46648" y="30.543353" style="fill: #2e86ab; stroke: #2e86ab"/>
     <use xlink:href="#ma9a9ee96a2" x="79.915563" y="30.543353" style="fill: #2e86ab; stroke: #2e86ab"/>
     <use xlink:href="#ma9a9ee96a2" x="80.00538" y="30.543353" style="fill: #2e86ab; stroke: #2e86ab"/>
     <use xlink:href="#ma9a9ee96a2" x="80.319738" y="32.167712" style="fill: #2e86ab; stroke: #2e86ab"/>
     <use xlink:href="#ma9a9ee96a2" x="80.993362" y="32.167712" style="fill: #2e86ab; stroke: #2e86ab"/>
     <use xlink:href="#ma9a9ee96a2" x="82.071162" y="33.828988" style="fill: #2e86ab; stroke: #2e86ab"/>
     <use xlink:href="#ma9a9ee96a2" x="84.406394" y="35.509581" style="fill: #2e86ab; stroke: #2e86ab"/>
     <use xlink:href="#ma9a9ee96a2" x="84.675844" y="35.509581" style="fill: #2e86ab; stroke: #2e86ab"/>
     <use xlink:href="#ma9a9ee96a2" x="85.84346" y="38.95176" style="fill: #2e86ab; stroke: #2e86ab"/>
     <use xlink:href="#ma9a9ee96a2" x="86.696717" y="40.694363" style="fill: #2e86ab; stroke: #2e86ab"/>
     <use xlink:href="#ma9a9ee96a2" x="87.774517" y="40.694363" style="fill: #2e86ab; stroke: #2e86ab"/>
     <use xlink:href="#ma9a9ee96a2" x="88.582866" y="42.482228" style="fill: #2e86ab; stroke: #2e86ab"/>
     <use xlink:href="#ma9a9ee96a2" x="88.762499" y="42.482228" style="fill: #2e86ab; stroke: #2e86ab"/>
     <use xlink:href="#ma9a9ee96a2" x="89.391216" y="42.482228" style="fill: #2e86ab; stroke: #2e86ab"/>
     <use xlink:href="#ma9a9ee96a2" x="89.481032" y="42.482228" style="fill: #2e86ab; stroke: #2e86ab"/>
     <use xlink:href="#ma9a9ee96a2" x="89.705574" y="42.482228" style="fill: #2e86ab; stroke: #2e86ab"/>
     <use xlink:href="#ma9a9ee96a2" x="92.355164" y="42.482228" style="fill: #2e86ab; stroke: #2e86ab"/>
     <use xlink:href="#ma9a9ee96a2" x="92.669522" y="42.482228" style="fill: #2e86ab; stroke: #2e86ab"/>
     <use xlink:href="#ma9a9ee96a2" x="92.894064" y="42.482228" style="fill: #2e86ab; stroke: #2e86ab"/>
     <use xlink:href="#ma9a9ee96a2" x="99.181226" y="44.480431" style="fill: #2e86ab; stroke: #2e86ab"/>
     <use xlink:href="#ma9a9ee96a2" x="100.259026" y="46.508909" style="fill: #2e86ab; stroke: #2e86ab"/>
     <use xlink:href="#ma9a9ee96a2" x="101.157192" y="48.569082" style="fill: #2e86ab; stroke: #2e86ab"/>
     <use xlink:href="#ma9a9ee96a2" x="104.92949" y="50.662484" style="fill: #2e86ab; stroke: #2e86ab"/>
     <use xlink:href="#ma9a9ee96a2" x="104.974398" y="50.662484" style="fill: #2e86ab; stroke: #2e86ab"/>
     <use xlink:href="#ma9a9ee96a2" x="105.198939" y="50.662484" style="fill: #2e86ab; stroke: #2e86ab"/>
     <use xlink:href="#ma9a9ee96a2" x="106.052197" y="50.662484" style="fill: #2e86ab; stroke: #2e86ab"/>
     <use xlink:href="#ma9a9ee96a2" x="107.983254" y="50.662484" style="fill: #2e86ab; stroke: #2e86ab"/>
     <use xlink:href="#ma9a9ee96a2" x="108.297613" y="50.662484" style="fill: #2e86ab; stroke: #2e86ab"/>
     <use xlink:href="#ma9a9ee96a2" x="108.701787" y="50.662484" style="fill: #2e86ab; stroke: #2e86ab"/>
     <use xlink:href="#ma9a9ee96a2" x="108.881421" y="50.662484" style="fill: #2e86ab; stroke: #2e86ab"/>
     <use xlink:href="#ma9a9ee96a2" x="109.734678" y="53.071871" style="fill: #2e86ab; stroke: #2e86ab"/>
     <use xlink:href="#ma9a9ee96a2" x="111.665736" y="53.071871" style="fill: #2e86ab; stroke: #2e86ab"/>
     <use xlink:href="#ma9a9ee96a2" x="112.429177" y="53.071871" style="fill: #2e86ab; stroke: #2e86ab"/>
     <use xlink:href="#ma9a9ee96a2" x="113.686609" y="53.071871" style="fill: #2e86ab; stroke: #2e86ab"/>
     <use xlink:href="#ma9a9ee96a2" x="116.605649" y="55.682041" style="fill: #2e86ab; stroke: #2e86ab"/>
     <use xlink:href="#ma9a9ee96a2" x="118.71634" y="58.348953" style="fill: #2e86ab; stroke: #2e86ab"/>
     <use xlink:href="#ma9a9ee96a2" x="119.839047" y="58.348953" style="fill: #2e86ab; stroke: #2e86ab"/>
     <use xlink:href="#ma9a9ee96a2" x="120.737213" y="61.139908" style="fill: #2e86ab; stroke: #2e86ab"/>
     <use xlink:href="#ma9a9ee96a2" x="121.815013" y="61.139908" style="fill: #2e86ab; stroke: #2e86ab"/>
     <use xlink:href="#ma9a9ee96a2" x="124.240061" y="64.07041" style="fill: #2e86ab; stroke: #2e86ab"/>
     <use xlink:href="#ma9a9ee96a2" x="125.497494" y="64.07041" style="fill: #2e86ab; stroke: #2e86ab"/>
     <use xlink:href="#ma9a9ee96a2" x="127.069285" y="64.07041" style="fill: #2e86ab; stroke: #2e86ab"/>
     <use xlink:href="#ma9a9ee96a2" x="127.159101" y="64.07041" style="fill: #2e86ab; stroke: #2e86ab"/>
     <use xlink:href="#ma9a9ee96a2" x="127.293826" y="64.07041" style="fill: #2e86ab; stroke: #2e86ab"/>
     <use xlink:href="#ma9a9ee96a2" x="129.8536" y="64.07041" style="fill: #2e86ab; stroke: #2e86ab"/>
     <use xlink:href="#ma9a9ee96a2" x="130.347591" y="67.533731" style="fill: #2e86ab; stroke: #2e86ab"/>
     <use xlink:href="#ma9a9ee96a2" x="130.527224" y="67.533731" style="fill: #2e86ab; stroke: #2e86ab"/>
     <use xlink:href="#ma9a9ee96a2" x="130.661949" y="67.533731" style="fill: #2e86ab; stroke: #2e86ab"/>
     <use xlink:href="#ma9a9ee96a2" x="131.42539" y="67.533731" style="fill: #2e86ab; stroke: #2e86ab"/>
     <use xlink:href="#ma9a9ee96a2" x="131.649932" y="67.533731" style="fill: #2e86ab; stroke: #2e86ab"/>
     <use xlink:href="#ma9a9ee96a2" x="134.34443" y="67.533731" style="fill: #2e86ab; stroke: #2e86ab"/>
     <use xlink:href="#ma9a9ee96a2" x="135.691679" y="67.533731" style="fill: #2e86ab; stroke: #2e86ab"/>
     <use xlink:href="#ma9a9ee96a2" x="137.398195" y="67.533731" style="fill: #2e86ab; stroke: #2e86ab"/>
     <use xlink:href="#ma9a9ee96a2" x="144.269166" y="67.533731" style="fill: #2e86ab; stroke: #2e86ab"/>
     <use xlink:href="#ma9a9ee96a2" x="146.514581" y="67.533731" style="fill: #2e86ab; stroke: #2e86ab"/>
     <use xlink:href="#ma9a9ee96a2" x="148.445638" y="67.533731" style="fill: #2e86ab; stroke: #2e86ab"/>
     <use xlink:href="#ma9a9ee96a2" x="157.517116" y="67.533731" style="fill: #2e86ab; stroke: #2e86ab"/>
     <use xlink:href="#ma9a9ee96a2" x="158.909274" y="73.075044" style="fill: #2e86ab; stroke: #2e86ab"/>
     <use xlink:href="#ma9a9ee96a2" x="161.019964" y="73.075044" style="fill: #2e86ab; stroke: #2e86ab"/>
     <use xlink:href="#ma9a9ee96a2" x="164.926987" y="73.075044" style="fill: #2e86ab; stroke: #2e86ab"/>
     <use xlink:href="#ma9a9ee96a2" x="168.429835" y="79.655354" style="fill: #2e86ab; stroke: #2e86ab"/>
     <use xlink:href="#ma9a9ee96a2" x="169.238184" y="79.655354" style="fill: #2e86ab; stroke: #2e86ab"/>
     <use xlink:href="#ma9a9ee96a2" x="172.741032" y="87.248019" style="fill: #2e86ab; stroke: #2e86ab"/>
     <use xlink:href="#ma9a9ee96a2" x="174.851722" y="87.248019" style="fill: #2e86ab; stroke: #2e86ab"/>
     <use xlink:href="#ma9a9ee96a2" x="190.704354" y="96.359217" style="fill: #2e86ab; stroke: #2e86ab"/>
     <use xlink:href="#ma9a9ee96a2" x="193.21922" y="96.359217" style="fill: #2e86ab; stroke: #2e86ab"/>
     <use xlink:href="#ma9a9ee96a2" x="193.758119" y="96.359217" style="fill: #2e86ab; stroke: #2e86ab"/>
     <use xlink:href="#ma9a9ee96a2" x="211.047817" y="96.359217" style="fill: #2e86ab; stroke: #2e86ab"/>
     <use xlink:href="#ma9a9ee96a2" x="211.856167" y="96.359217" style="fill: #2e86ab; stroke: #2e86ab"/>
     <use xlink:href="#ma9a9ee96a2" x="218.412779" y="96.359217" style="fill: #2e86ab; stroke: #2e86ab"/>
     <use xlink:href="#ma9a9ee96a2" x="262.692369" y="96.359217" style="fill: #2e86ab; stroke: #2e86ab"/>
     <use xlink:href="#ma9a9ee96a2" x="266.015584" y="96.359217" style="fill: #2e86ab; stroke: #2e86ab"/>
     <use xlink:href="#ma9a9ee96a2" x="266.419759" y="96.359217" style="fill: #2e86ab; stroke: #2e86ab"/>
    </g>
   </g>
   <g id="line2d_26">
    <path d="M 39.632812 16.145645 
L 45.111626 16.145645 
L 45.111626 16.956716 
L 46.189425 16.956716 
L 46.189425 17.767788 
L 52.117322 17.767788 
L 52.117322 18.591338 
L 54.048379 18.591338 
L 54.048379 19.419155 
L 55.979436 19.419155 
L 55.979436 20.269106 
L 56.024344 20.269106 
L 63.613848 20.269106 
L 63.613848 21.382422 
L 66.128713 21.382422 
L 66.128713 22.599303 
L 66.667613 22.599303 
L 66.667613 23.816183 
L 66.712521 23.816183 
L 67.116696 23.816183 
L 67.116696 25.052533 
L 70.619544 25.052533 
L 70.619544 26.362854 
L 70.664452 26.362854 
L 71.921885 26.362854 
L 71.921885 27.707961 
L 72.595509 27.707961 
L 72.595509 29.065187 
L 76.592348 29.065187 
L 76.592348 30.543353 
L 80.229921 30.543353 
L 80.229921 32.167712 
L 80.319738 32.167712 
L 81.891529 32.167712 
L 81.891529 33.828988 
L 82.250795 33.828988 
L 82.250795 35.509581 
L 84.720752 35.509581 
L 84.76566 38.95176 
L 86.157818 38.95176 
L 86.157818 40.694363 
L 87.999058 40.694363 
L 87.999058 42.482228 
L 96.666361 42.482228 
L 96.666361 44.480431 
L 100.169209 44.480431 
L 100.169209 46.508909 
L 100.259026 46.508909 
L 101.022467 46.508909 
L 101.022467 48.569082 
L 103.402607 48.569082 
L 103.402607 50.662484 
L 109.510137 50.662484 
L 109.510137 53.071871 
L 114.629684 53.071871 
L 114.629684 55.682041 
L 116.785282 55.682041 
L 116.785282 58.348953 
L 120.647397 58.348953 
L 120.647397 61.139908 
L 120.737213 61.139908 
L 123.566437 61.139908 
L 123.566437 64.07041 
L 130.347591 64.07041 
L 130.347591 67.533731 
L 158.235649 67.533731 
L 158.235649 73.075044 
L 166.633502 73.075044 
L 166.633502 79.655354 
L 172.291949 79.655354 
L 172.291949 87.248019 
L 182.575951 87.248019 
L 182.575951 96.359217 
L 266.419759 96.359217 
L 266.419759 96.359217 
" clip-path="url(#pbbbe52b108)" style="fill: none; stroke: #2e86ab; stroke-width: 2; stroke-linecap: round"/>
   </g>
   <g id="line2d_27">
    <defs>
     <path id="m5183a60340" d="M -3 3 
L 3 -3 
M -3 -3 
L 3 3 
" style="stroke: #e63946"/>
    </defs>
    <g clip-path="url(#pbbbe52b108)">
     <use xlink:href="#m5183a60340" x="36.758681" y="15.350476" style="fill: #e63946; stroke: #e63946"/>
     <use xlink:href="#m5183a60340" x="39.632812" y="16.145645" style="fill: #e63946; stroke: #e63946"/>
     <use xlink:href="#m5183a60340" x="40.21662" y="16.145645" style="fill: #e63946; stroke: #e63946"/>
     <use xlink:href="#m5183a60340" x="40.396254" y="16.145645" style="fill: #e63946; stroke: #e63946"/>
     <use xlink:href="#m5183a60340" x="40.530979" y="17.759718" style="fill: #e63946; stroke: #e63946"/>
     <use xlink:href="#m5183a60340" x="40.890245" y="17.759718" style="fill: #e63946; stroke: #e63946"/>
     <use xlink:href="#m5183a60340" x="41.204603" y="17.759718" style="fill: #e63946; stroke: #e63946"/>
     <use xlink:href="#m5183a60340" x="41.29442" y="17.759718" style="fill: #e63946; stroke: #e63946"/>
     <use xlink:href="#m5183a60340" x="41.698595" y="17.759718" style="fill: #e63946; stroke: #e63946"/>
     <use xlink:href="#m5183a60340" x="42.282403" y="20.243227" style="fill: #e63946; stroke: #e63946"/>
     <use xlink:href="#m5183a60340" x="42.506944" y="21.075421" style="fill: #e63946; stroke: #e63946"/>
     <use xlink:href="#m5183a60340" x="42.641669" y="21.916515" style="fill: #e63946; stroke: #e63946"/>
     <use xlink:href="#m5183a60340" x="42.686577" y="22.762155" style="fill: #e63946; stroke: #e63946"/>
     <use xlink:href="#m5183a60340" x="43.40511" y="25.31294" style="fill: #e63946; stroke: #e63946"/>
     <use xlink:href="#m5183a60340" x="43.629652" y="26.167951" style="fill: #e63946; stroke: #e63946"/>
     <use xlink:href="#m5183a60340" x="43.899102" y="27.887635" style="fill: #e63946; stroke: #e63946"/>
     <use xlink:href="#m5183a60340" x="44.348185" y="29.617203" style="fill: #e63946; stroke: #e63946"/>
     <use xlink:href="#m5183a60340" x="44.887084" y="30.487044" style="fill: #e63946; stroke: #e63946"/>
     <use xlink:href="#m5183a60340" x="45.425984" y="32.237019" style="fill: #e63946; stroke: #e63946"/>
     <use xlink:href="#m5183a60340" x="46.952866" y="38.398832" style="fill: #e63946; stroke: #e63946"/>
     <use xlink:href="#m5183a60340" x="49.692273" y="50.800454" style="fill: #e63946; stroke: #e63946"/>
     <use xlink:href="#m5183a60340" x="50.904797" y="57.044628" style="fill: #e63946; stroke: #e63946"/>
     <use xlink:href="#m5183a60340" x="52.027505" y="66.929584" style="fill: #e63946; stroke: #e63946"/>
     <use xlink:href="#m5183a60340" x="54.452554" y="74.177091" style="fill: #e63946; stroke: #e63946"/>
     <use xlink:href="#m5183a60340" x="55.126178" y="77.832632" style="fill: #e63946; stroke: #e63946"/>
     <use xlink:href="#m5183a60340" x="55.844711" y="78.754901" style="fill: #e63946; stroke: #e63946"/>
     <use xlink:href="#m5183a60340" x="56.069253" y="79.68579" style="fill: #e63946; stroke: #e63946"/>
     <use xlink:href="#m5183a60340" x="56.159069" y="79.68579" style="fill: #e63946; stroke: #e63946"/>
     <use xlink:href="#m5183a60340" x="56.248886" y="81.601794" style="fill: #e63946; stroke: #e63946"/>
     <use xlink:href="#m5183a60340" x="57.102144" y="85.472122" style="fill: #e63946; stroke: #e63946"/>
     <use xlink:href="#m5183a60340" x="57.506318" y="87.427656" style="fill: #e63946; stroke: #e63946"/>
     <use xlink:href="#m5183a60340" x="58.314668" y="94.346422" style="fill: #e63946; stroke: #e63946"/>
     <use xlink:href="#m5183a60340" x="61.188799" y="104.348038" style="fill: #e63946; stroke: #e63946"/>
     <use xlink:href="#m5183a60340" x="61.368433" y="104.348038" style="fill: #e63946; stroke: #e63946"/>
     <use xlink:href="#m5183a60340" x="63.703665" y="113.599533" style="fill: #e63946; stroke: #e63946"/>
     <use xlink:href="#m5183a60340" x="63.83839" y="114.66118" style="fill: #e63946; stroke: #e63946"/>
     <use xlink:href="#m5183a60340" x="65.365272" y="122.218667" style="fill: #e63946; stroke: #e63946"/>
     <use xlink:href="#m5183a60340" x="66.038897" y="125.521099" style="fill: #e63946; stroke: #e63946"/>
     <use xlink:href="#m5183a60340" x="66.128713" y="125.521099" style="fill: #e63946; stroke: #e63946"/>
     <use xlink:href="#m5183a60340" x="67.386146" y="130.115786" style="fill: #e63946; stroke: #e63946"/>
     <use xlink:href="#m5183a60340" x="68.05977" y="132.469162" style="fill: #e63946; stroke: #e63946"/>
     <use xlink:href="#m5183a60340" x="68.643578" y="132.469162" style="fill: #e63946; stroke: #e63946"/>
     <use xlink:href="#m5183a60340" x="68.778303" y="132.469162" style="fill: #e63946; stroke: #e63946"/>
     <use xlink:href="#m5183a60340" x="73.314042" y="143.941872" style="fill: #e63946; stroke: #e63946"/>
     <use xlink:href="#m5183a60340" x="73.808033" y="143.941872" style="fill: #e63946; stroke: #e63946"/>
     <use xlink:href="#m5183a60340" x="77.849781" y="149.448772" style="fill: #e63946; stroke: #e63946"/>
     <use xlink:href="#m5183a60340" x="79.73593" y="152.339895" style="fill: #e63946; stroke: #e63946"/>
     <use xlink:href="#m5183a60340" x="90.244474" y="156.931678" style="fill: #e63946; stroke: #e63946"/>
     <use xlink:href="#m5183a60340" x="94.376038" y="158.580011" style="fill: #e63946; stroke: #e63946"/>
     <use xlink:href="#m5183a60340" x="110.677753" y="160.378191" style="fill: #e63946; stroke: #e63946"/>
     <use xlink:href="#m5183a60340" x="113.237526" y="160.378191" style="fill: #e63946; stroke: #e63946"/>
     <use xlink:href="#m5183a60340" x="116.336199" y="160.378191" style="fill: #e63946; stroke: #e63946"/>
     <use xlink:href="#m5183a60340" x="120.108497" y="160.378191" style="fill: #e63946; stroke: #e63946"/>
     <use xlink:href="#m5183a60340" x="122.488637" y="160.378191" style="fill: #e63946; stroke: #e63946"/>
     <use xlink:href="#m5183a60340" x="129.808691" y="163.974553" style="fill: #e63946; stroke: #e63946"/>
     <use xlink:href="#m5183a60340" x="142.607559" y="163.974553" style="fill: #e63946; stroke: #e63946"/>
     <use xlink:href="#m5183a60340" x="143.460816" y="163.974553" style="fill: #e63946; stroke: #e63946"/>
     <use xlink:href="#m5183a60340" x="145.257149" y="163.974553" style="fill: #e63946; stroke: #e63946"/>
    </g>
   </g>
   <g id="line2d_28">
    <path d="M 36.758681 15.350476 
L 39.632812 15.350476 
L 39.632812 16.145645 
L 40.48607 16.145645 
L 40.530979 17.759718 
L 42.147678 17.759718 
L 42.192586 20.243227 
L 42.417127 20.243227 
L 42.506944 21.075421 
L 42.506944 21.075421 
L 42.551852 21.075421 
L 42.551852 21.916515 
L 42.641669 21.916515 
L 42.686577 21.916515 
L 42.731486 23.612417 
L 43.045844 23.612417 
L 43.045844 24.462678 
L 43.270385 24.462678 
L 43.270385 25.31294 
L 43.584743 25.31294 
L 43.67456 27.027793 
L 43.809285 27.027793 
L 43.809285 27.887635 
L 43.899102 27.887635 
L 44.033827 27.887635 
L 44.078735 29.617203 
L 44.393093 29.617203 
L 44.393093 30.487044 
L 44.931993 30.487044 
L 44.931993 31.362032 
L 45.381076 31.362032 
L 45.425984 32.237019 
L 45.425984 32.237019 
L 45.515801 32.237019 
L 45.515801 33.117278 
L 46.009792 33.117278 
L 46.099609 34.877796 
L 46.32415 34.877796 
L 46.32415 35.758055 
L 46.548692 35.758055 
L 46.548692 37.518573 
L 46.952866 37.518573 
L 46.952866 38.398832 
L 47.177408 38.398832 
L 47.177408 40.170492 
L 47.401949 40.170492 
L 47.401949 41.056322 
L 47.806124 41.056322 
L 47.806124 41.942153 
L 48.210299 41.942153 
L 48.210299 42.827983 
L 48.614474 42.827983 
L 48.614474 44.599643 
L 48.839015 44.599643 
L 48.883924 46.371304 
L 49.108465 46.371304 
L 49.198282 48.142964 
L 49.333007 48.142964 
L 49.333007 49.028794 
L 49.51264 49.028794 
L 49.51264 49.914624 
L 49.647365 49.914624 
L 49.647365 50.800454 
L 49.692273 50.800454 
L 50.05154 50.800454 
L 50.05154 52.584504 
L 50.276081 52.584504 
L 50.276081 53.476529 
L 50.680256 53.476529 
L 50.770072 55.260578 
L 50.859889 55.260578 
L 50.904797 57.044628 
L 50.994614 57.044628 
L 51.039522 59.740525 
L 51.219155 59.740525 
L 51.264064 61.53779 
L 51.35388 61.53779 
L 51.398789 63.335055 
L 51.847872 63.335055 
L 51.937688 66.929584 
L 52.835855 66.929584 
L 52.835855 68.741461 
L 53.240029 68.741461 
L 53.240029 69.647399 
L 53.599296 69.647399 
L 53.599296 70.553338 
L 54.183104 70.553338 
L 54.183104 72.365214 
L 54.362737 72.365214 
L 54.407645 74.177091 
L 54.452554 74.177091 
L 54.54237 74.177091 
L 54.54237 75.090976 
L 54.901637 75.090976 
L 54.901637 76.004861 
L 55.08127 76.004861 
L 55.126178 77.832632 
L 55.126178 77.832632 
L 55.620169 77.832632 
L 55.620169 78.754901 
L 55.889619 78.754901 
L 55.889619 79.68579 
L 56.248886 79.68579 
L 56.248886 81.601794 
L 56.92251 81.601794 
L 56.967419 84.50454 
L 57.057235 84.50454 
L 57.057235 85.472122 
L 57.102144 85.472122 
L 57.19196 85.472122 
L 57.281777 87.427656 
L 57.596135 87.427656 
L 57.596135 88.416051 
L 57.865585 88.416051 
L 57.955401 90.392842 
L 58.179943 90.392842 
L 58.26976 94.346422 
L 58.404484 94.346422 
L 58.404484 95.346583 
L 59.123017 95.346583 
L 59.123017 96.346745 
L 59.257742 96.346745 
L 59.257742 97.346907 
L 59.976275 97.346907 
L 60.066092 100.347392 
L 60.290633 100.347392 
L 60.290633 101.347553 
L 60.604991 101.347553 
L 60.604991 103.347876 
L 60.91935 103.347876 
L 60.91935 104.348038 
L 61.458249 104.348038 
L 61.458249 105.375982 
L 61.727699 105.375982 
L 61.727699 106.403926 
L 61.862424 106.403926 
L 61.862424 107.43187 
L 62.446232 107.43187 
L 62.536049 110.515702 
L 63.074948 110.515702 
L 63.074948 111.543646 
L 63.434215 111.543646 
L 63.434215 112.571589 
L 63.703665 112.571589 
L 63.703665 113.599533 
L 63.83839 113.599533 
L 63.83839 114.66118 
L 64.062931 114.66118 
L 64.062931 116.820462 
L 64.197656 116.820462 
L 64.197656 118.979744 
L 64.332381 118.979744 
L 64.332381 120.059385 
L 65.006005 120.059385 
L 65.006005 122.218667 
L 65.455089 122.218667 
L 65.544905 124.420288 
L 65.634722 124.420288 
L 65.634722 125.521099 
L 66.263438 125.521099 
L 66.263438 126.669771 
L 66.532888 126.669771 
L 66.532888 127.818442 
L 67.251421 127.818442 
L 67.341237 130.115786 
L 67.610687 130.115786 
L 67.610687 131.292474 
L 67.925045 131.292474 
L 67.925045 132.469162 
L 68.86812 132.469162 
L 68.86812 133.743908 
L 69.496836 133.743908 
L 69.496836 135.018653 
L 69.901011 135.018653 
L 69.901011 136.293399 
L 70.170461 136.293399 
L 70.170461 137.568144 
L 70.395002 137.568144 
L 70.395002 138.84289 
L 70.888994 138.84289 
L 70.888994 140.117635 
L 71.338077 140.117635 
L 71.338077 141.392381 
L 71.607526 141.392381 
L 71.607526 142.667126 
L 72.820051 142.667126 
L 72.820051 143.941872 
L 74.571475 143.941872 
L 74.571475 145.318597 
L 75.334916 145.318597 
L 75.334916 146.695322 
L 76.412715 146.695322 
L 76.412715 148.072047 
L 77.131248 148.072047 
L 77.131248 149.448772 
L 78.209047 149.448772 
L 78.209047 150.894334 
L 78.433589 150.894334 
L 78.433589 152.339895 
L 83.373503 152.339895 
L 83.373503 153.870489 
L 84.900385 153.870489 
L 84.900385 155.401084 
L 87.41525 155.401084 
L 87.41525 156.931678 
L 91.861173 156.931678 
L 91.861173 158.580011 
L 103.537332 158.580011 
L 103.537332 160.378191 
L 128.147084 160.378191 
L 128.147084 163.974553 
L 145.257149 163.974553 
L 145.257149 163.974553 
" clip-path="url(#pbbbe52b108)" style="fill: none; stroke: #e63946; stroke-width: 2; stroke-linecap: round"/>
   </g>
   <g id="patch_3">
    <path d="M 39.632812 178.36 
L 39.632812 7.2 
" style="fill: none; stroke: #262626; stroke-width: 0.8; stroke-linejoin: miter; stroke-linecap: square"/>
   </g>
   <g id="patch_4">
    <path d="M 277.902813 178.36 
L 277.902813 7.2 
" style="fill: none; stroke: #262626; stroke-width: 0.8; stroke-linejoin: miter; stroke-linecap: square"/>
   </g>
   <g id="patch_5">
    <path d="M 39.632812 178.36 
L 277.902813 178.36 
" style="fill: none; stroke: #262626; stroke-width: 0.8; stroke-linejoin: miter; stroke-linecap: square"/>
   </g>
   <g id="patch_6">
    <path d="M 39.632812 7.2 
L 277.902813 7.2 
" style="fill: none; stroke: #262626; stroke-width: 0.8; stroke-linejoin: miter; stroke-linecap: square"/>
   </g>
   <g id="text_15">
    <g id="patch_7">
     <path d="M 229.696163 25.9005 
L 273.137413 25.9005 
Q 275.537413 25.9005 275.537413 23.5005 
L 275.537413 15.758 
Q 275.537413 13.358 273.137413 13.358 
L 229.696163 13.358 
Q 227.296163 13.358 227.296163 15.758 
L 227.296163 23.5005 
Q 227.296163 25.9005 229.696163 25.9005 
z
" style="fill: #ffffff; opacity: 0.8; stroke: #ffffff; stroke-linejoin: miter"/>
    </g>
    <!-- P &lt; 0.001 -->
    <g style="fill: #262626" transform="translate(229.696163 21.83675) scale(0.08 -0.08)">
     <defs>
      <path id="DejaVuSans-Bold-50" d="M 588 4666 
L 2584 4666 
Q 3475 4666 3951 4270 
Q 4428 3875 4428 3144 
Q 4428 2409 3951 2014 
Q 3475 1619 2584 1619 
L 1791 1619 
L 1791 0 
L 588 0 
L 588 4666 
z
M 1791 3794 
L 1791 2491 
L 2456 2491 
Q 2806 2491 2997 2661 
Q 3188 2831 3188 3144 
Q 3188 3456 2997 3625 
Q 2806 3794 2456 3794 
L 1791 3794 
z
" transform="scale(0.015625)"/>
      <path id="DejaVuSans-Bold-20" transform="scale(0.015625)"/>
      <path id="DejaVuSans-Bold-3c" d="M 4684 3041 
L 1672 2003 
L 4684 972 
L 4684 191 
L 678 1638 
L 678 2375 
L 4684 3822 
L 4684 3041 
z
" transform="scale(0.015625)"/>
      <path id="DejaVuSans-Bold-30" d="M 2944 2338 
Q 2944 3213 2780 3570 
Q 2616 3928 2228 3928 
Q 1841 3928 1675 3570 
Q 1509 3213 1509 2338 
Q 1509 1453 1675 1090 
Q 1841 728 2228 728 
Q 2613 728 2778 1090 
Q 2944 1453 2944 2338 
z
M 4147 2328 
Q 4147 1169 3647 539 
Q 3147 -91 2228 -91 
Q 1306 -91 806 539 
Q 306 1169 306 2328 
Q 306 3491 806 4120 
Q 1306 4750 2228 4750 
Q 3147 4750 3647 4120 
Q 4147 3491 4147 2328 
z
" transform="scale(0.015625)"/>
      <path id="DejaVuSans-Bold-2e" d="M 653 1209 
L 1778 1209 
L 1778 0 
L 653 0 
L 653 1209 
z
" transform="scale(0.015625)"/>
      <path id="DejaVuSans-Bold-31" d="M 750 831 
L 1813 831 
L 1813 3847 
L 722 3622 
L 722 4441 
L 1806 4666 
L 2950 4666 
L 2950 831 
L 4013 831 
L 4013 0 
L 750 0 
L 750 831 
z
" transform="scale(0.015625)"/>
     </defs>
     <use xlink:href="#DejaVuSans-Bold-50"/>
     <use xlink:href="#DejaVuSans-Bold-20" transform="translate(73.291016 0)"/>
     <use xlink:href="#DejaVuSans-Bold-3c" transform="translate(108.105469 0)"/>
     <use xlink:href="#DejaVuSans-Bold-20" transform="translate(191.894531 0)"/>
     <use xlink:href="#DejaVuSans-Bold-30" transform="translate(226.708984 0)"/>
     <use xlink:href="#DejaVuSans-Bold-2e" transform="translate(296.289062 0)"/>
     <use xlink:href="#DejaVuSans-Bold-30" transform="translate(334.277344 0)"/>
     <use xlink:href="#DejaVuSans-Bold-30" transform="translate(403.857422 0)"/>
     <use xlink:href="#DejaVuSans-Bold-31" transform="translate(473.4375 0)"/>
    </g>
   </g>
  </g>
 </g>
 <defs>
  <clipPath id="pbbbe52b108">
   <rect x="39.632812" y="7.2" width="238.27" height="171.16"/>
  </clipPath>
 </defs>
</svg>
