<?xml version="1.0" encoding="utf-8" standalone="no"?>
<!DOCTYPE svg PUBLIC "-//W3C//DTD SVG 1.1//EN"
  "http://www.w3.org/Graphics/SVG/1.1/DTD/svg11.dtd">
<svg xmlns:xlink="http://www.w3.org/1999/xlink" width="285.102812pt" height="213.012812pt" viewBox="0 0 285.102812 213.012812" xmlns="http://www.w3.org/2000/svg" version="1.1">
 <metadata>
  <rdf:RDF xmlns:dc="http://purl.org/dc/elements/1.1/" xmlns:cc="http://creativecommons.org/ns#" xmlns:rdf="http://www.w3.org/1999/02/22-rdf-syntax-ns#">
   <cc:Work>
    <dc:type rdf:resource="http://purl.org/dc/dcmitype/StillImage"/>
    <dc:date>2025-07-12T20:17:43.733872</dc:date>
    <dc:format>image/svg+xml</dc:format>
    <dc:creator>
     <cc:Agent>
      <dc:title>Matplotlib v3.10.3, https://matplotlib.org/</dc:title>
     </cc:Agent>
    </dc:creator>
   </cc:Work>
  </rdf:RDF>
 </metadata>
 <defs>
  <style type="text/css">*{stroke-linejoin: round; stroke-linecap: butt}</style>
 </defs>
 <g id="figure_1">
  <g id="patch_1">
   <path d="M 0 213.012812 
L 285.102812 213.012812 
L 285.102812 0 
L 0 0 
L 0 213.012812 
z
" style="fill: none"/>
  </g>
  <g id="axes_1">
   <g id="patch_2">
    <path d="M 39.632812 178.36 
L 277.902813 178.36 
L 277.902813 7.2 
L 39.632812 7.2 
L 39.632812 178.36 
z
" style="fill: none"/>
   </g>
   <g id="matplotlib.axis_1">
    <g id="xtick_1">
     <g id="line2d_1">
      <path d="M 39.632812 178.36 
L 39.632812 7.2 
" clip-path="url(#p11b190b99c)" style="fill: none; stroke: #cccccc; stroke-opacity: 0.3; stroke-width: 0.5; stroke-linecap: round"/>
     </g>
     <g id="line2d_2">
      <defs>
       <path id="m0cf282c1e3" d="M 0 0 
L 0 3.5 
" style="stroke: #262626; stroke-width: 0.8"/>
      </defs>
      <g>
       <use xlink:href="#m0cf282c1e3" x="39.632812" y="178.36" style="fill: #262626; stroke: #262626; stroke-width: 0.8"/>
      </g>
     </g>
     <g id="text_1">
      <!-- 0 -->
      <g style="fill: #262626" transform="translate(37.087812 191.43875) scale(0.08 -0.08)">
       <defs>
        <path id="DejaVuSans-30" d="M 2034 4250 
Q 1547 4250 1301 3770 
Q 1056 3291 1056 2328 
Q 1056 1369 1301 889 
Q 1547 409 2034 409 
Q 2525 409 2770 889 
Q 3016 1369 3016 2328 
Q 3016 3291 2770 3770 
Q 2525 4250 2034 4250 
z
M 2034 4750 
Q 2819 4750 3233 4129 
Q 3647 3509 3647 2328 
Q 3647 1150 3233 529 
Q 2819 -91 2034 -91 
Q 1250 -91 836 529 
Q 422 1150 422 2328 
Q 422 3509 836 4129 
Q 1250 4750 2034 4750 
z
" transform="scale(0.015625)"/>
       </defs>
       <use xlink:href="#DejaVuSans-30"/>
      </g>
     </g>
    </g>
    <g id="xtick_2">
     <g id="line2d_3">
      <path d="M 84.541119 178.36 
L 84.541119 7.2 
" clip-path="url(#p11b190b99c)" style="fill: none; stroke: #cccccc; stroke-opacity: 0.3; stroke-width: 0.5; stroke-linecap: round"/>
     </g>
     <g id="line2d_4">
      <g>
       <use xlink:href="#m0cf282c1e3" x="84.541119" y="178.36" style="fill: #262626; stroke: #262626; stroke-width: 0.8"/>
      </g>
     </g>
     <g id="text_2">
      <!-- 1000 -->
      <g style="fill: #262626" transform="translate(74.361119 191.43875) scale(0.08 -0.08)">
       <defs>
        <path id="DejaVuSans-31" d="M 794 531 
L 1825 531 
L 1825 4091 
L 703 3866 
L 703 4441 
L 1819 4666 
L 2450 4666 
L 2450 531 
L 3481 531 
L 3481 0 
L 794 0 
L 794 531 
z
" transform="scale(0.015625)"/>
       </defs>
       <use xlink:href="#DejaVuSans-31"/>
       <use xlink:href="#DejaVuSans-30" transform="translate(63.623047 0)"/>
       <use xlink:href="#DejaVuSans-30" transform="translate(127.246094 0)"/>
       <use xlink:href="#DejaVuSans-30" transform="translate(190.869141 0)"/>
      </g>
     </g>
    </g>
    <g id="xtick_3">
     <g id="line2d_5">
      <path d="M 129.449425 178.36 
L 129.449425 7.2 
" clip-path="url(#p11b190b99c)" style="fill: none; stroke: #cccccc; stroke-opacity: 0.3; stroke-width: 0.5; stroke-linecap: round"/>
     </g>
     <g id="line2d_6">
      <g>
       <use xlink:href="#m0cf282c1e3" x="129.449425" y="178.36" style="fill: #262626; stroke: #262626; stroke-width: 0.8"/>
      </g>
     </g>
     <g id="text_3">
      <!-- 2000 -->
      <g style="fill: #262626" transform="translate(119.269425 191.43875) scale(0.08 -0.08)">
       <defs>
        <path id="DejaVuSans-32" d="M 1228 531 
L 3431 531 
L 3431 0 
L 469 0 
L 469 531 
Q 828 903 1448 1529 
Q 2069 2156 2228 2338 
Q 2531 2678 2651 2914 
Q 2772 3150 2772 3378 
Q 2772 3750 2511 3984 
Q 2250 4219 1831 4219 
Q 1534 4219 1204 4116 
Q 875 4013 500 3803 
L 500 4441 
Q 881 4594 1212 4672 
Q 1544 4750 1819 4750 
Q 2544 4750 2975 4387 
Q 3406 4025 3406 3419 
Q 3406 3131 3298 2873 
Q 3191 2616 2906 2266 
Q 2828 2175 2409 1742 
Q 1991 1309 1228 531 
z
" transform="scale(0.015625)"/>
       </defs>
       <use xlink:href="#DejaVuSans-32"/>
       <use xlink:href="#DejaVuSans-30" transform="translate(63.623047 0)"/>
       <use xlink:href="#DejaVuSans-30" transform="translate(127.246094 0)"/>
       <use xlink:href="#DejaVuSans-30" transform="translate(190.869141 0)"/>
      </g>
     </g>
    </g>
    <g id="xtick_4">
     <g id="line2d_7">
      <path d="M 174.357731 178.36 
L 174.357731 7.2 
" clip-path="url(#p11b190b99c)" style="fill: none; stroke: #cccccc; stroke-opacity: 0.3; stroke-width: 0.5; stroke-linecap: round"/>
     </g>
     <g id="line2d_8">
      <g>
       <use xlink:href="#m0cf282c1e3" x="174.357731" y="178.36" style="fill: #262626; stroke: #262626; stroke-width: 0.8"/>
      </g>
     </g>
     <g id="text_4">
      <!-- 3000 -->
      <g style="fill: #262626" transform="translate(164.177731 191.43875) scale(0.08 -0.08)">
       <defs>
        <path id="DejaVuSans-33" d="M 2597 2516 
Q 3050 2419 3304 2112 
Q 3559 1806 3559 1356 
Q 3559 666 3084 287 
Q 2609 -91 1734 -91 
Q 1441 -91 1130 -33 
Q 819 25 488 141 
L 488 750 
Q 750 597 1062 519 
Q 1375 441 1716 441 
Q 2309 441 2620 675 
Q 2931 909 2931 1356 
Q 2931 1769 2642 2001 
Q 2353 2234 1838 2234 
L 1294 2234 
L 1294 2753 
L 1863 2753 
Q 2328 2753 2575 2939 
Q 2822 3125 2822 3475 
Q 2822 3834 2567 4026 
Q 2313 4219 1838 4219 
Q 1578 4219 1281 4162 
Q 984 4106 628 3988 
L 628 4550 
Q 988 4650 1302 4700 
Q 1616 4750 1894 4750 
Q 2613 4750 3031 4423 
Q 3450 4097 3450 3541 
Q 3450 3153 3228 2886 
Q 3006 2619 2597 2516 
z
" transform="scale(0.015625)"/>
       </defs>
       <use xlink:href="#DejaVuSans-33"/>
       <use xlink:href="#DejaVuSans-30" transform="translate(63.623047 0)"/>
       <use xlink:href="#DejaVuSans-30" transform="translate(127.246094 0)"/>
       <use xlink:href="#DejaVuSans-30" transform="translate(190.869141 0)"/>
      </g>
     </g>
    </g>
    <g id="xtick_5">
     <g id="line2d_9">
      <path d="M 219.266037 178.36 
L 219.266037 7.2 
" clip-path="url(#p11b190b99c)" style="fill: none; stroke: #cccccc; stroke-opacity: 0.3; stroke-width: 0.5; stroke-linecap: round"/>
     </g>
     <g id="line2d_10">
      <g>
       <use xlink:href="#m0cf282c1e3" x="219.266037" y="178.36" style="fill: #262626; stroke: #262626; stroke-width: 0.8"/>
      </g>
     </g>
     <g id="text_5">
      <!-- 4000 -->
      <g style="fill: #262626" transform="translate(209.086037 191.43875) scale(0.08 -0.08)">
       <defs>
        <path id="DejaVuSans-34" d="M 2419 4116 
L 825 1625 
L 2419 1625 
L 2419 4116 
z
M 2253 4666 
L 3047 4666 
L 3047 1625 
L 3713 1625 
L 3713 1100 
L 3047 1100 
L 3047 0 
L 2419 0 
L 2419 1100 
L 313 1100 
L 313 1709 
L 2253 4666 
z
" transform="scale(0.015625)"/>
       </defs>
       <use xlink:href="#DejaVuSans-34"/>
       <use xlink:href="#DejaVuSans-30" transform="translate(63.623047 0)"/>
       <use xlink:href="#DejaVuSans-30" transform="translate(127.246094 0)"/>
       <use xlink:href="#DejaVuSans-30" transform="translate(190.869141 0)"/>
      </g>
     </g>
    </g>
    <g id="xtick_6">
     <g id="line2d_11">
      <path d="M 264.174343 178.36 
L 264.174343 7.2 
" clip-path="url(#p11b190b99c)" style="fill: none; stroke: #cccccc; stroke-opacity: 0.3; stroke-width: 0.5; stroke-linecap: round"/>
     </g>
     <g id="line2d_12">
      <g>
       <use xlink:href="#m0cf282c1e3" x="264.174343" y="178.36" style="fill: #262626; stroke: #262626; stroke-width: 0.8"/>
      </g>
     </g>
     <g id="text_6">
      <!-- 5000 -->
      <g style="fill: #262626" transform="translate(253.994343 191.43875) scale(0.08 -0.08)">
       <defs>
        <path id="DejaVuSans-35" d="M 691 4666 
L 3169 4666 
L 3169 4134 
L 1269 4134 
L 1269 2991 
Q 1406 3038 1543 3061 
Q 1681 3084 1819 3084 
Q 2600 3084 3056 2656 
Q 3513 2228 3513 1497 
Q 3513 744 3044 326 
Q 2575 -91 1722 -91 
Q 1428 -91 1123 -41 
Q 819 9 494 109 
L 494 744 
Q 775 591 1075 516 
Q 1375 441 1709 441 
Q 2250 441 2565 725 
Q 2881 1009 2881 1497 
Q 2881 1984 2565 2268 
Q 2250 2553 1709 2553 
Q 1456 2553 1204 2497 
Q 953 2441 691 2322 
L 691 4666 
z
" transform="scale(0.015625)"/>
       </defs>
       <use xlink:href="#DejaVuSans-35"/>
       <use xlink:href="#DejaVuSans-30" transform="translate(63.623047 0)"/>
       <use xlink:href="#DejaVuSans-30" transform="translate(127.246094 0)"/>
       <use xlink:href="#DejaVuSans-30" transform="translate(190.869141 0)"/>
      </g>
     </g>
    </g>
    <g id="text_7">
     <!-- Time (days) -->
     <g style="fill: #262626" transform="translate(132.193906 203.941094) scale(0.09 -0.09)">
      <defs>
       <path id="DejaVuSans-54" d="M -19 4666 
L 3928 4666 
L 3928 4134 
L 2272 4134 
L 2272 0 
L 1638 0 
L 1638 4134 
L -19 4134 
L -19 4666 
z
" transform="scale(0.015625)"/>
       <path id="DejaVuSans-69" d="M 603 3500 
L 1178 3500 
L 1178 0 
L 603 0 
L 603 3500 
z
M 603 4863 
L 1178 4863 
L 1178 4134 
L 603 4134 
L 603 4863 
z
" transform="scale(0.015625)"/>
       <path id="DejaVuSans-6d" d="M 3328 2828 
Q 3544 3216 3844 3400 
Q 4144 3584 4550 3584 
Q 5097 3584 5394 3201 
Q 5691 2819 5691 2113 
L 5691 0 
L 5113 0 
L 5113 2094 
Q 5113 2597 4934 2840 
Q 4756 3084 4391 3084 
Q 3944 3084 3684 2787 
Q 3425 2491 3425 1978 
L 3425 0 
L 2847 0 
L 2847 2094 
Q 2847 2600 2669 2842 
Q 2491 3084 2119 3084 
Q 1678 3084 1418 2786 
Q 1159 2488 1159 1978 
L 1159 0 
L 581 0 
L 581 3500 
L 1159 3500 
L 1159 2956 
Q 1356 3278 1631 3431 
Q 1906 3584 2284 3584 
Q 2666 3584 2933 3390 
Q 3200 3197 3328 2828 
z
" transform="scale(0.015625)"/>
       <path id="DejaVuSans-65" d="M 3597 1894 
L 3597 1613 
L 953 1613 
Q 991 1019 1311 708 
Q 1631 397 2203 397 
Q 2534 397 2845 478 
Q 3156 559 3463 722 
L 3463 178 
Q 3153 47 2828 -22 
Q 2503 -91 2169 -91 
Q 1331 -91 842 396 
Q 353 884 353 1716 
Q 353 2575 817 3079 
Q 1281 3584 2069 3584 
Q 2775 3584 3186 3129 
Q 3597 2675 3597 1894 
z
M 3022 2063 
Q 3016 2534 2758 2815 
Q 2500 3097 2075 3097 
Q 1594 3097 1305 2825 
Q 1016 2553 972 2059 
L 3022 2063 
z
" transform="scale(0.015625)"/>
       <path id="DejaVuSans-20" transform="scale(0.015625)"/>
       <path id="DejaVuSans-28" d="M 1984 4856 
Q 1566 4138 1362 3434 
Q 1159 2731 1159 2009 
Q 1159 1288 1364 580 
Q 1569 -128 1984 -844 
L 1484 -844 
Q 1016 -109 783 600 
Q 550 1309 550 2009 
Q 550 2706 781 3412 
Q 1013 4119 1484 4856 
L 1984 4856 
z
" transform="scale(0.015625)"/>
       <path id="DejaVuSans-64" d="M 2906 2969 
L 2906 4863 
L 3481 4863 
L 3481 0 
L 2906 0 
L 2906 525 
Q 2725 213 2448 61 
Q 2172 -91 1784 -91 
Q 1150 -91 751 415 
Q 353 922 353 1747 
Q 353 2572 751 3078 
Q 1150 3584 1784 3584 
Q 2172 3584 2448 3432 
Q 2725 3281 2906 2969 
z
M 947 1747 
Q 947 1113 1208 752 
Q 1469 391 1925 391 
Q 2381 391 2643 752 
Q 2906 1113 2906 1747 
Q 2906 2381 2643 2742 
Q 2381 3103 1925 3103 
Q 1469 3103 1208 2742 
Q 947 2381 947 1747 
z
" transform="scale(0.015625)"/>
       <path id="DejaVuSans-61" d="M 2194 1759 
Q 1497 1759 1228 1600 
Q 959 1441 959 1056 
Q 959 750 1161 570 
Q 1363 391 1709 391 
Q 2188 391 2477 730 
Q 2766 1069 2766 1631 
L 2766 1759 
L 2194 1759 
z
M 3341 1997 
L 3341 0 
L 2766 0 
L 2766 531 
Q 2569 213 2275 61 
Q 1981 -91 1556 -91 
Q 1019 -91 701 211 
Q 384 513 384 1019 
Q 384 1609 779 1909 
Q 1175 2209 1959 2209 
L 2766 2209 
L 2766 2266 
Q 2766 2663 2505 2880 
Q 2244 3097 1772 3097 
Q 1472 3097 1187 3025 
Q 903 2953 641 2809 
L 641 3341 
Q 956 3463 1253 3523 
Q 1550 3584 1831 3584 
Q 2591 3584 2966 3190 
Q 3341 2797 3341 1997 
z
" transform="scale(0.015625)"/>
       <path id="DejaVuSans-79" d="M 2059 -325 
Q 1816 -950 1584 -1140 
Q 1353 -1331 966 -1331 
L 506 -1331 
L 506 -850 
L 844 -850 
Q 1081 -850 1212 -737 
Q 1344 -625 1503 -206 
L 1606 56 
L 191 3500 
L 800 3500 
L 1894 763 
L 2988 3500 
L 3597 3500 
L 2059 -325 
z
" transform="scale(0.015625)"/>
       <path id="DejaVuSans-73" d="M 2834 3397 
L 2834 2853 
Q 2591 2978 2328 3040 
Q 2066 3103 1784 3103 
Q 1356 3103 1142 2972 
Q 928 2841 928 2578 
Q 928 2378 1081 2264 
Q 1234 2150 1697 2047 
L 1894 2003 
Q 2506 1872 2764 1633 
Q 3022 1394 3022 966 
Q 3022 478 2636 193 
Q 2250 -91 1575 -91 
Q 1294 -91 989 -36 
Q 684 19 347 128 
L 347 722 
Q 666 556 975 473 
Q 1284 391 1588 391 
Q 1994 391 2212 530 
Q 2431 669 2431 922 
Q 2431 1156 2273 1281 
Q 2116 1406 1581 1522 
L 1381 1569 
Q 847 1681 609 1914 
Q 372 2147 372 2553 
Q 372 3047 722 3315 
Q 1072 3584 1716 3584 
Q 2034 3584 2315 3537 
Q 2597 3491 2834 3397 
z
" transform="scale(0.015625)"/>
       <path id="DejaVuSans-29" d="M 513 4856 
L 1013 4856 
Q 1481 4119 1714 3412 
Q 1947 2706 1947 2009 
Q 1947 1309 1714 600 
Q 1481 -109 1013 -844 
L 513 -844 
Q 928 -128 1133 580 
Q 1338 1288 1338 2009 
Q 1338 2731 1133 3434 
Q 928 4138 513 4856 
z
" transform="scale(0.015625)"/>
      </defs>
      <use xlink:href="#DejaVuSans-54"/>
      <use xlink:href="#DejaVuSans-69" transform="translate(57.958984 0)"/>
      <use xlink:href="#DejaVuSans-6d" transform="translate(85.742188 0)"/>
      <use xlink:href="#DejaVuSans-65" transform="translate(183.154297 0)"/>
      <use xlink:href="#DejaVuSans-20" transform="translate(244.677734 0)"/>
      <use xlink:href="#DejaVuSans-28" transform="translate(276.464844 0)"/>
      <use xlink:href="#DejaVuSans-64" transform="translate(315.478516 0)"/>
      <use xlink:href="#DejaVuSans-61" transform="translate(378.955078 0)"/>
      <use xlink:href="#DejaVuSans-79" transform="translate(440.234375 0)"/>
      <use xlink:href="#DejaVuSans-73" transform="translate(499.414062 0)"/>
      <use xlink:href="#DejaVuSans-29" transform="translate(551.513672 0)"/>
     </g>
    </g>
   </g>
   <g id="matplotlib.axis_2">
    <g id="ytick_1">
     <g id="line2d_13">
      <path d="M 39.632812 178.36 
L 277.902813 178.36 
" clip-path="url(#p11b190b99c)" style="fill: none; stroke: #cccccc; stroke-opacity: 0.3; stroke-width: 0.5; stroke-linecap: round"/>
     </g>
     <g id="line2d_14">
      <defs>
       <path id="me4592dbf90" d="M 0 0 
L -3.5 0 
" style="stroke: #262626; stroke-width: 0.8"/>
      </defs>
      <g>
       <use xlink:href="#me4592dbf90" x="39.632812" y="178.36" style="fill: #262626; stroke: #262626; stroke-width: 0.8"/>
      </g>
     </g>
     <g id="text_8">
      <!-- 0.0 -->
      <g style="fill: #262626" transform="translate(19.910312 181.399375) scale(0.08 -0.08)">
       <defs>
        <path id="DejaVuSans-2e" d="M 684 794 
L 1344 794 
L 1344 0 
L 684 0 
L 684 794 
z
" transform="scale(0.015625)"/>
       </defs>
       <use xlink:href="#DejaVuSans-30"/>
       <use xlink:href="#DejaVuSans-2e" transform="translate(63.623047 0)"/>
       <use xlink:href="#DejaVuSans-30" transform="translate(95.410156 0)"/>
      </g>
     </g>
    </g>
    <g id="ytick_2">
     <g id="line2d_15">
      <path d="M 39.632812 145.758095 
L 277.902813 145.758095 
" clip-path="url(#p11b190b99c)" style="fill: none; stroke: #cccccc; stroke-opacity: 0.3; stroke-width: 0.5; stroke-linecap: round"/>
     </g>
     <g id="line2d_16">
      <g>
       <use xlink:href="#me4592dbf90" x="39.632812" y="145.758095" style="fill: #262626; stroke: #262626; stroke-width: 0.8"/>
      </g>
     </g>
     <g id="text_9">
      <!-- 0.2 -->
      <g style="fill: #262626" transform="translate(19.910312 148.79747) scale(0.08 -0.08)">
       <use xlink:href="#DejaVuSans-30"/>
       <use xlink:href="#DejaVuSans-2e" transform="translate(63.623047 0)"/>
       <use xlink:href="#DejaVuSans-32" transform="translate(95.410156 0)"/>
      </g>
     </g>
    </g>
    <g id="ytick_3">
     <g id="line2d_17">
      <path d="M 39.632812 113.15619 
L 277.902813 113.15619 
" clip-path="url(#p11b190b99c)" style="fill: none; stroke: #cccccc; stroke-opacity: 0.3; stroke-width: 0.5; stroke-linecap: round"/>
     </g>
     <g id="line2d_18">
      <g>
       <use xlink:href="#me4592dbf90" x="39.632812" y="113.15619" style="fill: #262626; stroke: #262626; stroke-width: 0.8"/>
      </g>
     </g>
     <g id="text_10">
      <!-- 0.4 -->
      <g style="fill: #262626" transform="translate(19.910312 116.195565) scale(0.08 -0.08)">
       <use xlink:href="#DejaVuSans-30"/>
       <use xlink:href="#DejaVuSans-2e" transform="translate(63.623047 0)"/>
       <use xlink:href="#DejaVuSans-34" transform="translate(95.410156 0)"/>
      </g>
     </g>
    </g>
    <g id="ytick_4">
     <g id="line2d_19">
      <path d="M 39.632812 80.554286 
L 277.902813 80.554286 
" clip-path="url(#p11b190b99c)" style="fill: none; stroke: #cccccc; stroke-opacity: 0.3; stroke-width: 0.5; stroke-linecap: round"/>
     </g>
     <g id="line2d_20">
      <g>
       <use xlink:href="#me4592dbf90" x="39.632812" y="80.554286" style="fill: #262626; stroke: #262626; stroke-width: 0.8"/>
      </g>
     </g>
     <g id="text_11">
      <!-- 0.6 -->
      <g style="fill: #262626" transform="translate(19.910312 83.593661) scale(0.08 -0.08)">
       <defs>
        <path id="DejaVuSans-36" d="M 2113 2584 
Q 1688 2584 1439 2293 
Q 1191 2003 1191 1497 
Q 1191 994 1439 701 
Q 1688 409 2113 409 
Q 2538 409 2786 701 
Q 3034 994 3034 1497 
Q 3034 2003 2786 2293 
Q 2538 2584 2113 2584 
z
M 3366 4563 
L 3366 3988 
Q 3128 4100 2886 4159 
Q 2644 4219 2406 4219 
Q 1781 4219 1451 3797 
Q 1122 3375 1075 2522 
Q 1259 2794 1537 2939 
Q 1816 3084 2150 3084 
Q 2853 3084 3261 2657 
Q 3669 2231 3669 1497 
Q 3669 778 3244 343 
Q 2819 -91 2113 -91 
Q 1303 -91 875 529 
Q 447 1150 447 2328 
Q 447 3434 972 4092 
Q 1497 4750 2381 4750 
Q 2619 4750 2861 4703 
Q 3103 4656 3366 4563 
z
" transform="scale(0.015625)"/>
       </defs>
       <use xlink:href="#DejaVuSans-30"/>
       <use xlink:href="#DejaVuSans-2e" transform="translate(63.623047 0)"/>
       <use xlink:href="#DejaVuSans-36" transform="translate(95.410156 0)"/>
      </g>
     </g>
    </g>
    <g id="ytick_5">
     <g id="line2d_21">
      <path d="M 39.632812 47.952381 
L 277.902813 47.952381 
" clip-path="url(#p11b190b99c)" style="fill: none; stroke: #cccccc; stroke-opacity: 0.3; stroke-width: 0.5; stroke-linecap: round"/>
     </g>
     <g id="line2d_22">
      <g>
       <use xlink:href="#me4592dbf90" x="39.632812" y="47.952381" style="fill: #262626; stroke: #262626; stroke-width: 0.8"/>
      </g>
     </g>
     <g id="text_12">
      <!-- 0.8 -->
      <g style="fill: #262626" transform="translate(19.910312 50.991756) scale(0.08 -0.08)">
       <defs>
        <path id="DejaVuSans-38" d="M 2034 2216 
Q 1584 2216 1326 1975 
Q 1069 1734 1069 1313 
Q 1069 891 1326 650 
Q 1584 409 2034 409 
Q 2484 409 2743 651 
Q 3003 894 3003 1313 
Q 3003 1734 2745 1975 
Q 2488 2216 2034 2216 
z
M 1403 2484 
Q 997 2584 770 2862 
Q 544 3141 544 3541 
Q 544 4100 942 4425 
Q 1341 4750 2034 4750 
Q 2731 4750 3128 4425 
Q 3525 4100 3525 3541 
Q 3525 3141 3298 2862 
Q 3072 2584 2669 2484 
Q 3125 2378 3379 2068 
Q 3634 1759 3634 1313 
Q 3634 634 3220 271 
Q 2806 -91 2034 -91 
Q 1263 -91 848 271 
Q 434 634 434 1313 
Q 434 1759 690 2068 
Q 947 2378 1403 2484 
z
M 1172 3481 
Q 1172 3119 1398 2916 
Q 1625 2713 2034 2713 
Q 2441 2713 2670 2916 
Q 2900 3119 2900 3481 
Q 2900 3844 2670 4047 
Q 2441 4250 2034 4250 
Q 1625 4250 1398 4047 
Q 1172 3844 1172 3481 
z
" transform="scale(0.015625)"/>
       </defs>
       <use xlink:href="#DejaVuSans-30"/>
       <use xlink:href="#DejaVuSans-2e" transform="translate(63.623047 0)"/>
       <use xlink:href="#DejaVuSans-38" transform="translate(95.410156 0)"/>
      </g>
     </g>
    </g>
    <g id="ytick_6">
     <g id="line2d_23">
      <path d="M 39.632812 15.350476 
L 277.902813 15.350476 
" clip-path="url(#p11b190b99c)" style="fill: none; stroke: #cccccc; stroke-opacity: 0.3; stroke-width: 0.5; stroke-linecap: round"/>
     </g>
     <g id="line2d_24">
      <g>
       <use xlink:href="#me4592dbf90" x="39.632812" y="15.350476" style="fill: #262626; stroke: #262626; stroke-width: 0.8"/>
      </g>
     </g>
     <g id="text_13">
      <!-- 1.0 -->
      <g style="fill: #262626" transform="translate(19.910312 18.389851) scale(0.08 -0.08)">
       <use xlink:href="#DejaVuSans-31"/>
       <use xlink:href="#DejaVuSans-2e" transform="translate(63.623047 0)"/>
       <use xlink:href="#DejaVuSans-30" transform="translate(95.410156 0)"/>
      </g>
     </g>
    </g>
    <g id="text_14">
     <!-- Survival probability -->
     <g style="fill: #262626" transform="translate(14.038594 136.361797) rotate(-90) scale(0.09 -0.09)">
      <defs>
       <path id="DejaVuSans-53" d="M 3425 4513 
L 3425 3897 
Q 3066 4069 2747 4153 
Q 2428 4238 2131 4238 
Q 1616 4238 1336 4038 
Q 1056 3838 1056 3469 
Q 1056 3159 1242 3001 
Q 1428 2844 1947 2747 
L 2328 2669 
Q 3034 2534 3370 2195 
Q 3706 1856 3706 1288 
Q 3706 609 3251 259 
Q 2797 -91 1919 -91 
Q 1588 -91 1214 -16 
Q 841 59 441 206 
L 441 856 
Q 825 641 1194 531 
Q 1563 422 1919 422 
Q 2459 422 2753 634 
Q 3047 847 3047 1241 
Q 3047 1584 2836 1778 
Q 2625 1972 2144 2069 
L 1759 2144 
Q 1053 2284 737 2584 
Q 422 2884 422 3419 
Q 422 4038 858 4394 
Q 1294 4750 2059 4750 
Q 2388 4750 2728 4690 
Q 3069 4631 3425 4513 
z
" transform="scale(0.015625)"/>
       <path id="DejaVuSans-75" d="M 544 1381 
L 544 3500 
L 1119 3500 
L 1119 1403 
Q 1119 906 1312 657 
Q 1506 409 1894 409 
Q 2359 409 2629 706 
Q 2900 1003 2900 1516 
L 2900 3500 
L 3475 3500 
L 3475 0 
L 2900 0 
L 2900 538 
Q 2691 219 2414 64 
Q 2138 -91 1772 -91 
Q 1169 -91 856 284 
Q 544 659 544 1381 
z
M 1991 3584 
L 1991 3584 
z
" transform="scale(0.015625)"/>
       <path id="DejaVuSans-72" d="M 2631 2963 
Q 2534 3019 2420 3045 
Q 2306 3072 2169 3072 
Q 1681 3072 1420 2755 
Q 1159 2438 1159 1844 
L 1159 0 
L 581 0 
L 581 3500 
L 1159 3500 
L 1159 2956 
Q 1341 3275 1631 3429 
Q 1922 3584 2338 3584 
Q 2397 3584 2469 3576 
Q 2541 3569 2628 3553 
L 2631 2963 
z
" transform="scale(0.015625)"/>
       <path id="DejaVuSans-76" d="M 191 3500 
L 800 3500 
L 1894 563 
L 2988 3500 
L 3597 3500 
L 2284 0 
L 1503 0 
L 191 3500 
z
" transform="scale(0.015625)"/>
       <path id="DejaVuSans-6c" d="M 603 4863 
L 1178 4863 
L 1178 0 
L 603 0 
L 603 4863 
z
" transform="scale(0.015625)"/>
       <path id="DejaVuSans-70" d="M 1159 525 
L 1159 -1331 
L 581 -1331 
L 581 3500 
L 1159 3500 
L 1159 2969 
Q 1341 3281 1617 3432 
Q 1894 3584 2278 3584 
Q 2916 3584 3314 3078 
Q 3713 2572 3713 1747 
Q 3713 922 3314 415 
Q 2916 -91 2278 -91 
Q 1894 -91 1617 61 
Q 1341 213 1159 525 
z
M 3116 1747 
Q 3116 2381 2855 2742 
Q 2594 3103 2138 3103 
Q 1681 3103 1420 2742 
Q 1159 2381 1159 1747 
Q 1159 1113 1420 752 
Q 1681 391 2138 391 
Q 2594 391 2855 752 
Q 3116 1113 3116 1747 
z
" transform="scale(0.015625)"/>
       <path id="DejaVuSans-6f" d="M 1959 3097 
Q 1497 3097 1228 2736 
Q 959 2375 959 1747 
Q 959 1119 1226 758 
Q 1494 397 1959 397 
Q 2419 397 2687 759 
Q 2956 1122 2956 1747 
Q 2956 2369 2687 2733 
Q 2419 3097 1959 3097 
z
M 1959 3584 
Q 2709 3584 3137 3096 
Q 3566 2609 3566 1747 
Q 3566 888 3137 398 
Q 2709 -91 1959 -91 
Q 1206 -91 779 398 
Q 353 888 353 1747 
Q 353 2609 779 3096 
Q 1206 3584 1959 3584 
z
" transform="scale(0.015625)"/>
       <path id="DejaVuSans-62" d="M 3116 1747 
Q 3116 2381 2855 2742 
Q 2594 3103 2138 3103 
Q 1681 3103 1420 2742 
Q 1159 2381 1159 1747 
Q 1159 1113 1420 752 
Q 1681 391 2138 391 
Q 2594 391 2855 752 
Q 3116 1113 3116 1747 
z
M 1159 2969 
Q 1341 3281 1617 3432 
Q 1894 3584 2278 3584 
Q 2916 3584 3314 3078 
Q 3713 2572 3713 1747 
Q 3713 922 3314 415 
Q 2916 -91 2278 -91 
Q 1894 -91 1617 61 
Q 1341 213 1159 525 
L 1159 0 
L 581 0 
L 581 4863 
L 1159 4863 
L 1159 2969 
z
" transform="scale(0.015625)"/>
       <path id="DejaVuSans-74" d="M 1172 4494 
L 1172 3500 
L 2356 3500 
L 2356 3053 
L 1172 3053 
L 1172 1153 
Q 1172 725 1289 603 
Q 1406 481 1766 481 
L 2356 481 
L 2356 0 
L 1766 0 
Q 1100 0 847 248 
Q 594 497 594 1153 
L 594 3053 
L 172 3053 
L 172 3500 
L 594 3500 
L 594 4494 
L 1172 4494 
z
" transform="scale(0.015625)"/>
      </defs>
      <use xlink:href="#DejaVuSans-53"/>
      <use xlink:href="#DejaVuSans-75" transform="translate(63.476562 0)"/>
      <use xlink:href="#DejaVuSans-72" transform="translate(126.855469 0)"/>
      <use xlink:href="#DejaVuSans-76" transform="translate(167.96875 0)"/>
      <use xlink:href="#DejaVuSans-69" transform="translate(227.148438 0)"/>
      <use xlink:href="#DejaVuSans-76" transform="translate(254.931641 0)"/>
      <use xlink:href="#DejaVuSans-61" transform="translate(314.111328 0)"/>
      <use xlink:href="#DejaVuSans-6c" transform="translate(375.390625 0)"/>
      <use xlink:href="#DejaVuSans-20" transform="translate(403.173828 0)"/>
      <use xlink:href="#DejaVuSans-70" transform="translate(434.960938 0)"/>
      <use xlink:href="#DejaVuSans-72" transform="translate(498.4375 0)"/>
      <use xlink:href="#DejaVuSans-6f" transform="translate(537.300781 0)"/>
      <use xlink:href="#DejaVuSans-62" transform="translate(598.482422 0)"/>
      <use xlink:href="#DejaVuSans-61" transform="translate(661.958984 0)"/>
      <use xlink:href="#DejaVuSans-62" transform="translate(723.238281 0)"/>
      <use xlink:href="#DejaVuSans-69" transform="translate(786.714844 0)"/>
      <use xlink:href="#DejaVuSans-6c" transform="translate(814.498047 0)"/>
      <use xlink:href="#DejaVuSans-69" transform="translate(842.28125 0)"/>
      <use xlink:href="#DejaVuSans-74" transform="translate(870.064453 0)"/>
      <use xlink:href="#DejaVuSans-79" transform="translate(909.273438 0)"/>
     </g>
    </g>
   </g>
   <g id="FillBetweenPolyCollection_1">
    <defs>
     <path id="m6a102bccc3" d="M 36.758681 -197.662336 
L 36.758681 -197.662336 
L 39.632812 -197.662336 
L 39.632812 -192.073792 
L 40.306437 -192.073792 
L 40.306437 -192.073792 
L 41.204603 -192.073792 
L 41.204603 -192.073792 
L 42.147678 -192.073792 
L 42.147678 -191.334503 
L 43.629652 -191.334503 
L 43.629652 -191.334503 
L 43.899102 -191.334503 
L 43.899102 -191.334503 
L 44.348185 -191.334503 
L 44.348185 -191.334503 
L 46.728325 -191.334503 
L 46.728325 -191.334503 
L 47.806124 -191.334503 
L 47.806124 -190.245425 
L 48.030666 -190.245425 
L 48.030666 -190.245425 
L 49.198282 -190.245425 
L 49.198282 -189.125609 
L 52.027505 -189.125609 
L 52.027505 -189.125609 
L 52.790946 -189.125609 
L 52.790946 -189.125609 
L 54.452554 -189.125609 
L 54.452554 -189.125609 
L 54.587278 -189.125609 
L 54.587278 -189.125609 
L 54.766912 -189.125609 
L 54.766912 -189.125609 
L 55.844711 -189.125609 
L 55.844711 -189.125609 
L 56.024344 -189.125609 
L 56.024344 -189.125609 
L 56.069253 -189.125609 
L 56.069253 -189.125609 
L 56.159069 -189.125609 
L 56.159069 -189.125609 
L 56.203977 -189.125609 
L 56.203977 -189.125609 
L 56.338702 -189.125609 
L 56.338702 -189.125609 
L 56.383611 -189.125609 
L 56.383611 -189.125609 
L 56.653061 -189.125609 
L 56.653061 -189.125609 
L 56.787785 -189.125609 
L 56.787785 -189.125609 
L 56.832694 -189.125609 
L 56.832694 -189.125609 
L 56.877602 -189.125609 
L 56.877602 -189.125609 
L 57.102144 -189.125609 
L 57.102144 -189.125609 
L 57.326685 -189.125609 
L 57.326685 -189.125609 
L 57.506318 -189.125609 
L 57.506318 -189.125609 
L 57.551227 -189.125609 
L 57.551227 -189.125609 
L 58.179943 -189.125609 
L 58.179943 -187.755162 
L 58.26976 -187.755162 
L 58.26976 -187.755162 
L 58.314668 -187.755162 
L 58.314668 -187.755162 
L 58.404484 -187.755162 
L 58.404484 -186.408534 
L 58.853568 -186.408534 
L 58.853568 -186.408534 
L 60.066092 -186.408534 
L 60.066092 -186.408534 
L 60.155908 -186.408534 
L 60.155908 -186.408534 
L 60.560083 -186.408534 
L 60.560083 -186.408534 
L 60.604991 -186.408534 
L 60.604991 -186.408534 
L 60.694808 -186.408534 
L 60.694808 -186.408534 
L 60.91935 -186.408534 
L 60.91935 -186.408534 
L 60.964258 -186.408534 
L 60.964258 -186.408534 
L 61.054075 -186.408534 
L 61.054075 -186.408534 
L 61.188799 -186.408534 
L 61.188799 -186.408534 
L 61.233708 -186.408534 
L 61.233708 -186.408534 
L 61.368433 -186.408534 
L 61.368433 -186.408534 
L 61.413341 -186.408534 
L 61.413341 -186.408534 
L 61.682791 -186.408534 
L 61.682791 -186.408534 
L 61.862424 -186.408534 
L 61.862424 -186.408534 
L 62.22169 -186.408534 
L 62.22169 -186.408534 
L 62.401324 -186.408534 
L 62.401324 -186.408534 
L 62.446232 -186.408534 
L 62.446232 -186.408534 
L 62.625865 -186.408534 
L 62.625865 -186.408534 
L 63.074948 -186.408534 
L 63.074948 -186.408534 
L 63.164765 -186.408534 
L 63.164765 -186.408534 
L 63.434215 -186.408534 
L 63.434215 -184.779758 
L 63.703665 -184.779758 
L 63.703665 -184.779758 
L 63.83839 -184.779758 
L 63.83839 -184.779758 
L 63.883298 -184.779758 
L 63.883298 -184.779758 
L 63.973114 -184.779758 
L 63.973114 -184.779758 
L 64.062931 -184.779758 
L 64.062931 -183.162524 
L 64.152748 -183.162524 
L 64.152748 -183.162524 
L 64.781464 -183.162524 
L 64.781464 -183.162524 
L 64.871281 -183.162524 
L 64.871281 -183.162524 
L 65.320364 -183.162524 
L 65.320364 -183.162524 
L 65.365272 -183.162524 
L 65.365272 -183.162524 
L 65.589813 -183.162524 
L 65.589813 -183.162524 
L 65.67963 -183.162524 
L 65.67963 -183.162524 
L 65.724538 -183.162524 
L 65.724538 -183.162524 
L 65.769447 -183.162524 
L 65.769447 -183.162524 
L 66.038897 -183.162524 
L 66.038897 -183.162524 
L 66.128713 -183.162524 
L 66.128713 -183.162524 
L 66.712521 -183.162524 
L 66.712521 -183.162524 
L 67.026879 -183.162524 
L 67.026879 -183.162524 
L 67.386146 -183.162524 
L 67.386146 -183.162524 
L 68.05977 -183.162524 
L 68.05977 -183.162524 
L 68.194495 -183.162524 
L 68.194495 -183.162524 
L 68.284312 -183.162524 
L 68.284312 -183.162524 
L 68.374128 -183.162524 
L 68.374128 -183.162524 
L 68.463945 -183.162524 
L 68.463945 -183.162524 
L 68.643578 -183.162524 
L 68.643578 -183.162524 
L 68.733395 -183.162524 
L 68.733395 -183.162524 
L 68.778303 -183.162524 
L 68.778303 -183.162524 
L 69.496836 -183.162524 
L 69.496836 -183.162524 
L 70.619544 -183.162524 
L 70.619544 -181.058757 
L 70.664452 -181.058757 
L 70.664452 -181.058757 
L 70.888994 -181.058757 
L 70.888994 -179.048002 
L 71.023719 -179.048002 
L 71.023719 -179.048002 
L 71.068627 -179.048002 
L 71.068627 -179.048002 
L 72.460784 -179.048002 
L 72.460784 -179.048002 
L 73.314042 -179.048002 
L 73.314042 -179.048002 
L 73.673309 -179.048002 
L 73.673309 -179.048002 
L 73.808033 -179.048002 
L 73.808033 -179.048002 
L 74.796016 -179.048002 
L 74.796016 -179.048002 
L 75.065466 -179.048002 
L 75.065466 -179.048002 
L 75.514549 -179.048002 
L 75.514549 -179.048002 
L 76.098357 -179.048002 
L 76.098357 -179.048002 
L 76.143265 -179.048002 
L 76.143265 -179.048002 
L 76.457624 -179.048002 
L 76.457624 -179.048002 
L 76.996523 -179.048002 
L 76.996523 -179.048002 
L 77.849781 -179.048002 
L 77.849781 -179.048002 
L 78.433589 -179.048002 
L 78.433589 -179.048002 
L 78.837764 -179.048002 
L 78.837764 -179.048002 
L 79.46648 -179.048002 
L 79.46648 -179.048002 
L 79.73593 -179.048002 
L 79.73593 -179.048002 
L 80.00538 -179.048002 
L 80.00538 -179.048002 
L 80.319738 -179.048002 
L 80.319738 -179.048002 
L 81.891529 -179.048002 
L 81.891529 -176.456954 
L 82.071162 -176.456954 
L 82.071162 -176.456954 
L 84.406394 -176.456954 
L 84.406394 -176.456954 
L 84.675844 -176.456954 
L 84.675844 -176.456954 
L 84.76566 -176.456954 
L 84.76566 -173.888226 
L 85.84346 -173.888226 
L 85.84346 -173.888226 
L 86.157818 -173.888226 
L 86.157818 -171.398188 
L 86.696717 -171.398188 
L 86.696717 -171.398188 
L 87.41525 -171.398188 
L 87.41525 -168.960234 
L 87.774517 -168.960234 
L 87.774517 -168.960234 
L 87.999058 -168.960234 
L 87.999058 -166.5568 
L 88.582866 -166.5568 
L 88.582866 -166.5568 
L 88.762499 -166.5568 
L 88.762499 -166.5568 
L 89.391216 -166.5568 
L 89.391216 -166.5568 
L 89.481032 -166.5568 
L 89.481032 -166.5568 
L 89.705574 -166.5568 
L 89.705574 -166.5568 
L 90.244474 -166.5568 
L 90.244474 -166.5568 
L 92.355164 -166.5568 
L 92.355164 -166.5568 
L 92.669522 -166.5568 
L 92.669522 -166.5568 
L 92.894064 -166.5568 
L 92.894064 -166.5568 
L 94.376038 -166.5568 
L 94.376038 -166.5568 
L 96.666361 -166.5568 
L 96.666361 -163.72681 
L 99.181226 -163.72681 
L 99.181226 -163.72681 
L 100.259026 -163.72681 
L 100.259026 -163.72681 
L 101.022467 -163.72681 
L 101.022467 -160.874574 
L 101.157192 -160.874574 
L 101.157192 -160.874574 
L 103.402607 -160.874574 
L 103.402607 -158.048032 
L 104.92949 -158.048032 
L 104.92949 -158.048032 
L 104.974398 -158.048032 
L 104.974398 -158.048032 
L 105.198939 -158.048032 
L 105.198939 -158.048032 
L 106.052197 -158.048032 
L 106.052197 -158.048032 
L 107.983254 -158.048032 
L 107.983254 -158.048032 
L 108.297613 -158.048032 
L 108.297613 -158.048032 
L 108.701787 -158.048032 
L 108.701787 -158.048032 
L 108.881421 -158.048032 
L 108.881421 -158.048032 
L 109.510137 -158.048032 
L 109.510137 -154.725645 
L 109.734678 -154.725645 
L 109.734678 -154.725645 
L 110.677753 -154.725645 
L 110.677753 -154.725645 
L 111.665736 -154.725645 
L 111.665736 -154.725645 
L 112.429177 -154.725645 
L 112.429177 -154.725645 
L 113.237526 -154.725645 
L 113.237526 -154.725645 
L 113.686609 -154.725645 
L 113.686609 -154.725645 
L 114.629684 -154.725645 
L 114.629684 -150.940811 
L 116.336199 -150.940811 
L 116.336199 -150.940811 
L 116.605649 -150.940811 
L 116.605649 -150.940811 
L 116.785282 -150.940811 
L 116.785282 -147.073079 
L 118.71634 -147.073079 
L 118.71634 -147.073079 
L 119.839047 -147.073079 
L 119.839047 -147.073079 
L 120.108497 -147.073079 
L 120.108497 -147.073079 
L 120.647397 -147.073079 
L 120.647397 -142.959884 
L 120.737213 -142.959884 
L 120.737213 -142.959884 
L 121.815013 -142.959884 
L 121.815013 -142.959884 
L 122.488637 -142.959884 
L 122.488637 -142.959884 
L 123.566437 -142.959884 
L 123.566437 -138.544694 
L 124.240061 -138.544694 
L 124.240061 -138.544694 
L 127.159101 -138.544694 
L 127.159101 -138.544694 
L 127.293826 -138.544694 
L 127.293826 -138.544694 
L 128.147084 -138.544694 
L 128.147084 -133.753483 
L 129.808691 -133.753483 
L 129.808691 -133.753483 
L 129.8536 -133.753483 
L 129.8536 -133.753483 
L 130.347591 -133.753483 
L 130.347591 -128.72758 
L 130.527224 -128.72758 
L 130.527224 -128.72758 
L 130.661949 -128.72758 
L 130.661949 -128.72758 
L 131.649932 -128.72758 
L 131.649932 -128.72758 
L 135.691679 -128.72758 
L 135.691679 -128.72758 
L 142.607559 -128.72758 
L 142.607559 -128.72758 
L 143.460816 -128.72758 
L 143.460816 -128.72758 
L 145.257149 -128.72758 
L 145.257149 -128.72758 
L 146.514581 -128.72758 
L 146.514581 -128.72758 
L 148.445638 -128.72758 
L 148.445638 -128.72758 
L 157.517116 -128.72758 
L 157.517116 -128.72758 
L 158.235649 -128.72758 
L 158.235649 -119.32838 
L 158.909274 -119.32838 
L 158.909274 -119.32838 
L 161.019964 -119.32838 
L 161.019964 -119.32838 
L 164.926987 -119.32838 
L 164.926987 -119.32838 
L 166.633502 -119.32838 
L 166.633502 -108.226051 
L 168.429835 -108.226051 
L 168.429835 -108.226051 
L 169.238184 -108.226051 
L 169.238184 -108.226051 
L 172.741032 -108.226051 
L 172.741032 -108.226051 
L 182.575951 -108.226051 
L 182.575951 -94.10297 
L 190.704354 -94.10297 
L 190.704354 -94.10297 
L 193.21922 -94.10297 
L 193.21922 -94.10297 
L 193.758119 -94.10297 
L 193.758119 -94.10297 
L 211.047817 -94.10297 
L 211.047817 -94.10297 
L 211.856167 -94.10297 
L 211.856167 -94.10297 
L 218.412779 -94.10297 
L 218.412779 -94.10297 
L 262.692369 -94.10297 
L 262.692369 -94.10297 
L 266.015584 -94.10297 
L 266.015584 -94.10297 
L 266.419759 -94.10297 
L 266.419759 -94.10297 
L 266.419759 -150.793713 
L 266.419759 -150.793713 
L 266.419759 -150.793713 
L 266.015584 -150.793713 
L 266.015584 -150.793713 
L 262.692369 -150.793713 
L 262.692369 -150.793713 
L 218.412779 -150.793713 
L 218.412779 -150.793713 
L 211.856167 -150.793713 
L 211.856167 -150.793713 
L 211.047817 -150.793713 
L 211.047817 -150.793713 
L 193.758119 -150.793713 
L 193.758119 -150.793713 
L 193.21922 -150.793713 
L 193.21922 -150.793713 
L 190.704354 -150.793713 
L 190.704354 -150.793713 
L 182.575951 -150.793713 
L 182.575951 -156.761812 
L 172.741032 -156.761812 
L 172.741032 -156.761812 
L 169.238184 -156.761812 
L 169.238184 -156.761812 
L 168.429835 -156.761812 
L 168.429835 -156.761812 
L 166.633502 -156.761812 
L 166.633502 -161.504878 
L 164.926987 -161.504878 
L 164.926987 -161.504878 
L 161.019964 -161.504878 
L 161.019964 -161.504878 
L 158.909274 -161.504878 
L 158.909274 -161.504878 
L 158.235649 -161.504878 
L 158.235649 -165.409576 
L 157.517116 -165.409576 
L 157.517116 -165.409576 
L 148.445638 -165.409576 
L 148.445638 -165.409576 
L 146.514581 -165.409576 
L 146.514581 -165.409576 
L 145.257149 -165.409576 
L 145.257149 -165.409576 
L 143.460816 -165.409576 
L 143.460816 -165.409576 
L 142.607559 -165.409576 
L 142.607559 -165.409576 
L 135.691679 -165.409576 
L 135.691679 -165.409576 
L 131.649932 -165.409576 
L 131.649932 -165.409576 
L 130.661949 -165.409576 
L 130.661949 -165.409576 
L 130.527224 -165.409576 
L 130.527224 -165.409576 
L 130.347591 -165.409576 
L 130.347591 -168.326623 
L 129.8536 -168.326623 
L 129.8536 -168.326623 
L 129.808691 -168.326623 
L 129.808691 -168.326623 
L 128.147084 -168.326623 
L 128.147084 -171.031591 
L 127.293826 -171.031591 
L 127.293826 -171.031591 
L 127.159101 -171.031591 
L 127.159101 -171.031591 
L 124.240061 -171.031591 
L 124.240061 -171.031591 
L 123.566437 -171.031591 
L 123.566437 -173.508432 
L 122.488637 -173.508432 
L 122.488637 -173.508432 
L 121.815013 -173.508432 
L 121.815013 -173.508432 
L 120.737213 -173.508432 
L 120.737213 -173.508432 
L 120.647397 -173.508432 
L 120.647397 -175.790948 
L 120.108497 -175.790948 
L 120.108497 -175.790948 
L 119.839047 -175.790948 
L 119.839047 -175.790948 
L 118.71634 -175.790948 
L 118.71634 -175.790948 
L 116.785282 -175.790948 
L 116.785282 -177.904737 
L 116.605649 -177.904737 
L 116.605649 -177.904737 
L 116.336199 -177.904737 
L 116.336199 -177.904737 
L 114.629684 -177.904737 
L 114.629684 -179.893245 
L 113.686609 -179.893245 
L 113.686609 -179.893245 
L 113.237526 -179.893245 
L 113.237526 -179.893245 
L 112.429177 -179.893245 
L 112.429177 -179.893245 
L 111.665736 -179.893245 
L 111.665736 -179.893245 
L 110.677753 -179.893245 
L 110.677753 -179.893245 
L 109.734678 -179.893245 
L 109.734678 -179.893245 
L 109.510137 -179.893245 
L 109.510137 -181.681253 
L 108.881421 -181.681253 
L 108.881421 -181.681253 
L 108.701787 -181.681253 
L 108.701787 -181.681253 
L 108.297613 -181.681253 
L 108.297613 -181.681253 
L 107.983254 -181.681253 
L 107.983254 -181.681253 
L 106.052197 -181.681253 
L 106.052197 -181.681253 
L 105.198939 -181.681253 
L 105.198939 -181.681253 
L 104.974398 -181.681253 
L 104.974398 -181.681253 
L 104.92949 -181.681253 
L 104.92949 -181.681253 
L 103.402607 -181.681253 
L 103.402607 -183.272693 
L 101.157192 -183.272693 
L 101.157192 -183.272693 
L 101.022467 -183.272693 
L 101.022467 -184.806321 
L 100.259026 -184.806321 
L 100.259026 -184.806321 
L 99.181226 -184.806321 
L 99.181226 -184.806321 
L 96.666361 -184.806321 
L 96.666361 -186.265975 
L 94.376038 -186.265975 
L 94.376038 -186.265975 
L 92.894064 -186.265975 
L 92.894064 -186.265975 
L 92.669522 -186.265975 
L 92.669522 -186.265975 
L 92.355164 -186.265975 
L 92.355164 -186.265975 
L 90.244474 -186.265975 
L 90.244474 -186.265975 
L 89.705574 -186.265975 
L 89.705574 -186.265975 
L 89.481032 -186.265975 
L 89.481032 -186.265975 
L 89.391216 -186.265975 
L 89.391216 -186.265975 
L 88.762499 -186.265975 
L 88.762499 -186.265975 
L 88.582866 -186.265975 
L 88.582866 -186.265975 
L 87.999058 -186.265975 
L 87.999058 -187.562764 
L 87.774517 -187.562764 
L 87.774517 -187.562764 
L 87.41525 -187.562764 
L 87.41525 -188.812584 
L 86.696717 -188.812584 
L 86.696717 -188.812584 
L 86.157818 -188.812584 
L 86.157818 -190.01151 
L 85.84346 -190.01151 
L 85.84346 -190.01151 
L 84.76566 -190.01151 
L 84.76566 -191.153616 
L 84.675844 -191.153616 
L 84.675844 -191.153616 
L 84.406394 -191.153616 
L 84.406394 -191.153616 
L 82.071162 -191.153616 
L 82.071162 -191.153616 
L 81.891529 -191.153616 
L 81.891529 -192.217256 
L 80.319738 -192.217256 
L 80.319738 -192.217256 
L 80.00538 -192.217256 
L 80.00538 -192.217256 
L 79.73593 -192.217256 
L 79.73593 -192.217256 
L 79.46648 -192.217256 
L 79.46648 -192.217256 
L 78.837764 -192.217256 
L 78.837764 -192.217256 
L 78.433589 -192.217256 
L 78.433589 -192.217256 
L 77.849781 -192.217256 
L 77.849781 -192.217256 
L 76.996523 -192.217256 
L 76.996523 -192.217256 
L 76.457624 -192.217256 
L 76.457624 -192.217256 
L 76.143265 -192.217256 
L 76.143265 -192.217256 
L 76.098357 -192.217256 
L 76.098357 -192.217256 
L 75.514549 -192.217256 
L 75.514549 -192.217256 
L 75.065466 -192.217256 
L 75.065466 -192.217256 
L 74.796016 -192.217256 
L 74.796016 -192.217256 
L 73.808033 -192.217256 
L 73.808033 -192.217256 
L 73.673309 -192.217256 
L 73.673309 -192.217256 
L 73.314042 -192.217256 
L 73.314042 -192.217256 
L 72.460784 -192.217256 
L 72.460784 -192.217256 
L 71.068627 -192.217256 
L 71.068627 -192.217256 
L 71.023719 -192.217256 
L 71.023719 -192.217256 
L 70.888994 -192.217256 
L 70.888994 -193.114454 
L 70.664452 -193.114454 
L 70.664452 -193.114454 
L 70.619544 -193.114454 
L 70.619544 -193.962863 
L 69.496836 -193.962863 
L 69.496836 -193.962863 
L 68.778303 -193.962863 
L 68.778303 -193.962863 
L 68.733395 -193.962863 
L 68.733395 -193.962863 
L 68.643578 -193.962863 
L 68.643578 -193.962863 
L 68.463945 -193.962863 
L 68.463945 -193.962863 
L 68.374128 -193.962863 
L 68.374128 -193.962863 
L 68.284312 -193.962863 
L 68.284312 -193.962863 
L 68.194495 -193.962863 
L 68.194495 -193.962863 
L 68.05977 -193.962863 
L 68.05977 -193.962863 
L 67.386146 -193.962863 
L 67.386146 -193.962863 
L 67.026879 -193.962863 
L 67.026879 -193.962863 
L 66.712521 -193.962863 
L 66.712521 -193.962863 
L 66.128713 -193.962863 
L 66.128713 -193.962863 
L 66.038897 -193.962863 
L 66.038897 -193.962863 
L 65.769447 -193.962863 
L 65.769447 -193.962863 
L 65.724538 -193.962863 
L 65.724538 -193.962863 
L 65.67963 -193.962863 
L 65.67963 -193.962863 
L 65.589813 -193.962863 
L 65.589813 -193.962863 
L 65.365272 -193.962863 
L 65.365272 -193.962863 
L 65.320364 -193.962863 
L 65.320364 -193.962863 
L 64.871281 -193.962863 
L 64.871281 -193.962863 
L 64.781464 -193.962863 
L 64.781464 -193.962863 
L 64.152748 -193.962863 
L 64.152748 -193.962863 
L 64.062931 -193.962863 
L 64.062931 -194.674675 
L 63.973114 -194.674675 
L 63.973114 -194.674675 
L 63.883298 -194.674675 
L 63.883298 -194.674675 
L 63.83839 -194.674675 
L 63.83839 -194.674675 
L 63.703665 -194.674675 
L 63.703665 -194.674675 
L 63.434215 -194.674675 
L 63.434215 -195.337554 
L 63.164765 -195.337554 
L 63.164765 -195.337554 
L 63.074948 -195.337554 
L 63.074948 -195.337554 
L 62.625865 -195.337554 
L 62.625865 -195.337554 
L 62.446232 -195.337554 
L 62.446232 -195.337554 
L 62.401324 -195.337554 
L 62.401324 -195.337554 
L 62.22169 -195.337554 
L 62.22169 -195.337554 
L 61.862424 -195.337554 
L 61.862424 -195.337554 
L 61.682791 -195.337554 
L 61.682791 -195.337554 
L 61.413341 -195.337554 
L 61.413341 -195.337554 
L 61.368433 -195.337554 
L 61.368433 -195.337554 
L 61.233708 -195.337554 
L 61.233708 -195.337554 
L 61.188799 -195.337554 
L 61.188799 -195.337554 
L 61.054075 -195.337554 
L 61.054075 -195.337554 
L 60.964258 -195.337554 
L 60.964258 -195.337554 
L 60.91935 -195.337554 
L 60.91935 -195.337554 
L 60.694808 -195.337554 
L 60.694808 -195.337554 
L 60.604991 -195.337554 
L 60.604991 -195.337554 
L 60.560083 -195.337554 
L 60.560083 -195.337554 
L 60.155908 -195.337554 
L 60.155908 -195.337554 
L 60.066092 -195.337554 
L 60.066092 -195.337554 
L 58.853568 -195.337554 
L 58.853568 -195.337554 
L 58.404484 -195.337554 
L 58.404484 -195.907685 
L 58.314668 -195.907685 
L 58.314668 -195.907685 
L 58.26976 -195.907685 
L 58.26976 -195.907685 
L 58.179943 -195.907685 
L 58.179943 -196.432339 
L 57.551227 -196.432339 
L 57.551227 -196.432339 
L 57.506318 -196.432339 
L 57.506318 -196.432339 
L 57.326685 -196.432339 
L 57.326685 -196.432339 
L 57.102144 -196.432339 
L 57.102144 -196.432339 
L 56.877602 -196.432339 
L 56.877602 -196.432339 
L 56.832694 -196.432339 
L 56.832694 -196.432339 
L 56.787785 -196.432339 
L 56.787785 -196.432339 
L 56.653061 -196.432339 
L 56.653061 -196.432339 
L 56.383611 -196.432339 
L 56.383611 -196.432339 
L 56.338702 -196.432339 
L 56.338702 -196.432339 
L 56.203977 -196.432339 
L 56.203977 -196.432339 
L 56.159069 -196.432339 
L 56.159069 -196.432339 
L 56.069253 -196.432339 
L 56.069253 -196.432339 
L 56.024344 -196.432339 
L 56.024344 -196.432339 
L 55.844711 -196.432339 
L 55.844711 -196.432339 
L 54.766912 -196.432339 
L 54.766912 -196.432339 
L 54.587278 -196.432339 
L 54.587278 -196.432339 
L 54.452554 -196.432339 
L 54.452554 -196.432339 
L 52.790946 -196.432339 
L 52.790946 -196.432339 
L 52.027505 -196.432339 
L 52.027505 -196.432339 
L 49.198282 -196.432339 
L 49.198282 -196.874882 
L 48.030666 -196.874882 
L 48.030666 -196.874882 
L 47.806124 -196.874882 
L 47.806124 -197.259182 
L 46.728325 -197.259182 
L 46.728325 -197.259182 
L 44.348185 -197.259182 
L 44.348185 -197.259182 
L 43.899102 -197.259182 
L 43.899102 -197.259182 
L 43.629652 -197.259182 
L 43.629652 -197.259182 
L 42.147678 -197.259182 
L 42.147678 -197.54954 
L 41.204603 -197.54954 
L 41.204603 -197.54954 
L 40.306437 -197.54954 
L 40.306437 -197.54954 
L 39.632812 -197.54954 
L 39.632812 -197.662336 
L 36.758681 -197.662336 
z
" style="stroke: #2e86ab; stroke-opacity: 0.2"/>
    </defs>
    <g clip-path="url(#p11b190b99c)">
     <use xlink:href="#m6a102bccc3" x="0" y="213.012812" style="fill: #2e86ab; fill-opacity: 0.2; stroke: #2e86ab; stroke-opacity: 0.2"/>
    </g>
   </g>
   <g id="FillBetweenPolyCollection_2">
    <defs>
     <path id="m1c911bc331" d="M 39.632812 -197.550637 
L 39.632812 -192.127248 
L 40.21662 -192.127248 
L 40.21662 -192.127248 
L 40.396254 -192.127248 
L 40.396254 -192.127248 
L 40.48607 -192.127248 
L 40.48607 -191.379803 
L 40.530979 -191.379803 
L 40.530979 -190.342681 
L 40.890245 -190.342681 
L 40.890245 -190.342681 
L 41.29442 -190.342681 
L 41.29442 -190.342681 
L 41.698595 -190.342681 
L 41.698595 -190.342681 
L 42.102769 -190.342681 
L 42.102769 -190.342681 
L 42.147678 -190.342681 
L 42.147678 -189.218988 
L 42.192586 -189.218988 
L 42.192586 -188.111185 
L 42.282403 -188.111185 
L 42.282403 -188.111185 
L 42.417127 -188.111185 
L 42.417127 -187.012018 
L 42.506944 -187.012018 
L 42.506944 -187.012018 
L 42.551852 -187.012018 
L 42.551852 -185.912798 
L 42.641669 -185.912798 
L 42.641669 -185.912798 
L 42.686577 -185.912798 
L 42.686577 -184.822551 
L 42.731486 -184.822551 
L 42.731486 -183.739746 
L 43.045844 -183.739746 
L 43.045844 -182.671469 
L 43.270385 -182.671469 
L 43.270385 -181.615829 
L 43.315294 -181.615829 
L 43.315294 -181.615829 
L 43.40511 -181.615829 
L 43.40511 -181.615829 
L 43.584743 -181.615829 
L 43.584743 -180.555065 
L 43.67456 -180.555065 
L 43.67456 -179.505088 
L 43.809285 -179.505088 
L 43.809285 -178.464743 
L 44.033827 -178.464743 
L 44.033827 -177.433087 
L 44.078735 -177.433087 
L 44.078735 -176.409332 
L 44.393093 -176.409332 
L 44.393093 -175.392811 
L 44.572726 -175.392811 
L 44.572726 -175.392811 
L 44.887084 -175.392811 
L 44.887084 -175.392811 
L 44.931993 -175.392811 
L 44.931993 -174.367543 
L 45.111626 -174.367543 
L 45.111626 -173.348917 
L 45.381076 -173.348917 
L 45.381076 -172.336447 
L 45.425984 -172.336447 
L 45.425984 -172.336447 
L 45.515801 -172.336447 
L 45.515801 -171.322003 
L 46.009792 -171.322003 
L 46.009792 -170.31311 
L 46.099609 -170.31311 
L 46.099609 -169.309418 
L 46.189425 -169.309418 
L 46.189425 -168.310618 
L 46.32415 -168.310618 
L 46.32415 -167.316432 
L 46.548692 -167.316432 
L 46.548692 -165.340942 
L 46.952866 -165.340942 
L 46.952866 -164.359214 
L 47.177408 -164.359214 
L 47.177408 -162.391769 
L 47.401949 -162.391769 
L 47.401949 -161.413471 
L 48.120482 -161.413471 
L 48.120482 -161.413471 
L 48.210299 -161.413471 
L 48.210299 -160.430867 
L 48.614474 -160.430867 
L 48.614474 -158.475713 
L 48.839015 -158.475713 
L 48.839015 -157.502909 
L 48.883924 -157.502909 
L 48.883924 -156.533132 
L 49.108465 -156.533132 
L 49.108465 -155.566279 
L 49.333007 -155.566279 
L 49.333007 -154.602252 
L 49.51264 -154.602252 
L 49.51264 -153.640963 
L 49.647365 -153.640963 
L 49.647365 -152.682328 
L 49.692273 -152.682328 
L 49.692273 -152.682328 
L 50.05154 -152.682328 
L 50.05154 -150.756951 
L 50.276081 -150.756951 
L 50.276081 -149.79808 
L 50.680256 -149.79808 
L 50.680256 -148.841662 
L 50.770072 -148.841662 
L 50.770072 -147.887632 
L 50.859889 -147.887632 
L 50.859889 -146.935932 
L 50.904797 -146.935932 
L 50.904797 -145.986505 
L 50.994614 -145.986505 
L 50.994614 -145.031079 
L 51.039522 -145.031079 
L 51.039522 -143.12693 
L 51.219155 -143.12693 
L 51.219155 -142.17811 
L 51.264064 -142.17811 
L 51.264064 -141.2314 
L 51.35388 -141.2314 
L 51.35388 -140.286756 
L 51.398789 -140.286756 
L 51.398789 -139.344141 
L 51.847872 -139.344141 
L 51.847872 -137.464845 
L 51.89278 -137.464845 
L 51.89278 -136.528096 
L 51.937688 -136.528096 
L 51.937688 -135.593237 
L 52.117322 -135.593237 
L 52.117322 -134.660239 
L 52.835855 -134.660239 
L 52.835855 -132.79971 
L 53.240029 -132.79971 
L 53.240029 -131.872128 
L 53.599296 -131.872128 
L 53.599296 -130.946302 
L 54.048379 -130.946302 
L 54.048379 -130.02221 
L 54.183104 -130.02221 
L 54.183104 -128.179139 
L 54.362737 -128.179139 
L 54.362737 -127.260122 
L 54.407645 -127.260122 
L 54.407645 -126.342758 
L 54.54237 -126.342758 
L 54.54237 -125.427032 
L 54.901637 -125.427032 
L 54.901637 -124.512926 
L 55.08127 -124.512926 
L 55.08127 -122.689517 
L 55.126178 -122.689517 
L 55.126178 -122.689517 
L 55.620169 -122.689517 
L 55.620169 -121.760944 
L 55.754894 -121.760944 
L 55.754894 -121.760944 
L 55.844711 -121.760944 
L 55.844711 -121.760944 
L 55.889619 -121.760944 
L 55.889619 -120.813881 
L 55.979436 -120.813881 
L 55.979436 -119.868656 
L 56.159069 -119.868656 
L 56.159069 -119.868656 
L 56.248886 -119.868656 
L 56.248886 -117.941071 
L 56.518336 -117.941071 
L 56.518336 -117.941071 
L 56.563244 -117.941071 
L 56.563244 -117.941071 
L 56.92251 -117.941071 
L 56.92251 -115.952752 
L 56.967419 -115.952752 
L 56.967419 -114.96189 
L 57.057235 -114.96189 
L 57.057235 -113.973197 
L 57.19196 -113.973197 
L 57.19196 -112.986653 
L 57.281777 -112.986653 
L 57.281777 -112.002239 
L 57.506318 -112.002239 
L 57.506318 -112.002239 
L 57.596135 -112.002239 
L 57.596135 -111.007337 
L 57.865585 -111.007337 
L 57.865585 -110.014637 
L 57.955401 -110.014637 
L 57.955401 -109.02412 
L 58.045218 -109.02412 
L 58.045218 -109.02412 
L 58.179943 -109.02412 
L 58.179943 -107.023168 
L 58.26976 -107.023168 
L 58.26976 -106.026075 
L 58.718843 -106.026075 
L 58.718843 -106.026075 
L 58.853568 -106.026075 
L 58.853568 -106.026075 
L 59.078109 -106.026075 
L 59.078109 -106.026075 
L 59.123017 -106.026075 
L 59.123017 -104.988047 
L 59.257742 -104.988047 
L 59.257742 -103.952629 
L 59.976275 -103.952629 
L 59.976275 -102.919802 
L 60.021183 -102.919802 
L 60.021183 -101.889552 
L 60.066092 -101.889552 
L 60.066092 -100.861862 
L 60.290633 -100.861862 
L 60.290633 -99.836722 
L 60.560083 -99.836722 
L 60.560083 -99.836722 
L 60.604991 -99.836722 
L 60.604991 -97.728636 
L 60.91935 -97.728636 
L 60.91935 -96.678845 
L 61.458249 -96.678845 
L 61.458249 -95.631874 
L 61.727699 -95.631874 
L 61.727699 -94.587714 
L 61.862424 -94.587714 
L 61.862424 -93.546359 
L 62.446232 -93.546359 
L 62.446232 -92.507805 
L 62.536049 -92.507805 
L 62.536049 -90.43909 
L 63.074948 -90.43909 
L 63.074948 -89.408931 
L 63.613848 -89.408931 
L 63.613848 -88.381575 
L 63.703665 -88.381575 
L 63.703665 -87.357027 
L 63.83839 -87.357027 
L 63.83839 -86.315311 
L 64.062931 -86.315311 
L 64.062931 -85.276629 
L 64.197656 -85.276629 
L 64.197656 -83.208406 
L 64.332381 -83.208406 
L 64.332381 -82.178893 
L 65.006005 -82.178893 
L 65.006005 -80.129151 
L 65.455089 -80.129151 
L 65.455089 -79.108964 
L 65.544905 -79.108964 
L 65.544905 -78.091932 
L 65.634722 -78.091932 
L 65.634722 -77.078084 
L 66.128713 -77.078084 
L 66.128713 -76.067451 
L 66.263438 -76.067451 
L 66.263438 -75.060067 
L 66.532888 -75.060067 
L 66.532888 -74.055969 
L 66.667613 -74.055969 
L 66.667613 -73.055198 
L 67.116696 -73.055198 
L 67.116696 -72.0578 
L 67.251421 -72.0578 
L 67.251421 -71.063821 
L 67.341237 -71.063821 
L 67.341237 -70.073314 
L 67.610687 -70.073314 
L 67.610687 -69.086336 
L 67.925045 -69.086336 
L 67.925045 -68.102948 
L 68.419037 -68.102948 
L 68.419037 -68.102948 
L 68.86812 -68.102948 
L 68.86812 -67.094186 
L 69.496836 -67.094186 
L 69.496836 -66.089562 
L 69.901011 -66.089562 
L 69.901011 -65.089158 
L 70.170461 -65.089158 
L 70.170461 -64.093062 
L 70.395002 -64.093062 
L 70.395002 -63.101369 
L 71.338077 -63.101369 
L 71.338077 -62.114182 
L 71.607526 -62.114182 
L 71.607526 -61.131616 
L 71.921885 -61.131616 
L 71.921885 -60.153791 
L 72.595509 -60.153791 
L 72.595509 -59.180843 
L 72.820051 -59.180843 
L 72.820051 -58.212916 
L 74.346933 -58.212916 
L 74.346933 -58.212916 
L 74.571475 -58.212916 
L 74.571475 -57.210256 
L 75.334916 -57.210256 
L 75.334916 -56.213767 
L 75.469641 -56.213767 
L 75.469641 -56.213767 
L 76.412715 -56.213767 
L 76.412715 -55.177529 
L 76.592348 -55.177529 
L 76.592348 -54.149026 
L 76.996523 -54.149026 
L 76.996523 -54.149026 
L 77.131248 -54.149026 
L 77.131248 -53.074341 
L 77.35579 -53.074341 
L 77.35579 -53.074341 
L 77.445606 -53.074341 
L 77.445606 -53.074341 
L 78.209047 -53.074341 
L 78.209047 -51.877402 
L 78.433589 -51.877402 
L 78.433589 -50.695729 
L 79.915563 -50.695729 
L 79.915563 -50.695729 
L 80.229921 -50.695729 
L 80.229921 -49.444077 
L 80.993362 -49.444077 
L 80.993362 -49.444077 
L 82.250795 -49.444077 
L 82.250795 -48.109578 
L 83.373503 -48.109578 
L 83.373503 -46.80335 
L 84.720752 -46.80335 
L 84.720752 -45.526782 
L 84.900385 -45.526782 
L 84.900385 -44.281642 
L 91.861173 -44.281642 
L 91.861173 -43.070176 
L 100.169209 -43.070176 
L 100.169209 -41.895258 
L 103.537332 -41.895258 
L 103.537332 -40.760595 
L 125.497494 -40.760595 
L 125.497494 -40.760595 
L 127.069285 -40.760595 
L 127.069285 -40.760595 
L 131.42539 -40.760595 
L 131.42539 -40.760595 
L 134.34443 -40.760595 
L 134.34443 -40.760595 
L 137.398195 -40.760595 
L 137.398195 -40.760595 
L 144.269166 -40.760595 
L 144.269166 -40.760595 
L 172.291949 -40.760595 
L 172.291949 -35.545305 
L 174.851722 -35.545305 
L 174.851722 -35.545305 
L 174.851722 -55.421569 
L 174.851722 -55.421569 
L 174.851722 -55.421569 
L 172.291949 -55.421569 
L 172.291949 -56.049157 
L 144.269166 -56.049157 
L 144.269166 -56.049157 
L 137.398195 -56.049157 
L 137.398195 -56.049157 
L 134.34443 -56.049157 
L 134.34443 -56.049157 
L 131.42539 -56.049157 
L 131.42539 -56.049157 
L 127.069285 -56.049157 
L 127.069285 -56.049157 
L 125.497494 -56.049157 
L 125.497494 -56.049157 
L 103.537332 -56.049157 
L 103.537332 -57.826357 
L 100.169209 -57.826357 
L 100.169209 -59.569843 
L 91.861173 -59.569843 
L 91.861173 -61.282718 
L 84.900385 -61.282718 
L 84.900385 -62.967422 
L 84.720752 -62.967422 
L 84.720752 -64.625886 
L 83.373503 -64.625886 
L 83.373503 -66.259646 
L 82.250795 -66.259646 
L 82.250795 -67.869918 
L 80.993362 -67.869918 
L 80.993362 -67.869918 
L 80.229921 -67.869918 
L 80.229921 -69.393926 
L 79.915563 -69.393926 
L 79.915563 -69.393926 
L 78.433589 -69.393926 
L 78.433589 -70.844426 
L 78.209047 -70.844426 
L 78.209047 -72.282062 
L 77.445606 -72.282062 
L 77.445606 -72.282062 
L 77.35579 -72.282062 
L 77.35579 -72.282062 
L 77.131248 -72.282062 
L 77.131248 -73.613585 
L 76.996523 -73.613585 
L 76.996523 -73.613585 
L 76.592348 -73.613585 
L 76.592348 -74.895651 
L 76.412715 -74.895651 
L 76.412715 -76.170968 
L 75.469641 -76.170968 
L 75.469641 -76.170968 
L 75.334916 -76.170968 
L 75.334916 -77.403719 
L 74.571475 -77.403719 
L 74.571475 -78.631017 
L 74.346933 -78.631017 
L 74.346933 -78.631017 
L 72.820051 -78.631017 
L 72.820051 -79.821119 
L 72.595509 -79.821119 
L 72.595509 -81.00672 
L 71.921885 -81.00672 
L 71.921885 -82.187954 
L 71.607526 -82.187954 
L 71.607526 -83.364944 
L 71.338077 -83.364944 
L 71.338077 -84.537804 
L 70.395002 -84.537804 
L 70.395002 -85.706638 
L 70.170461 -85.706638 
L 70.170461 -86.871543 
L 69.901011 -86.871543 
L 69.901011 -88.03261 
L 69.496836 -88.03261 
L 69.496836 -89.189922 
L 68.86812 -89.189922 
L 68.86812 -90.343554 
L 68.419037 -90.343554 
L 68.419037 -90.343554 
L 67.925045 -90.343554 
L 67.925045 -91.470816 
L 67.610687 -91.470816 
L 67.610687 -92.594849 
L 67.341237 -92.594849 
L 67.341237 -93.71571 
L 67.251421 -93.71571 
L 67.251421 -94.833455 
L 67.116696 -94.833455 
L 67.116696 -95.948134 
L 66.667613 -95.948134 
L 66.667613 -97.059793 
L 66.532888 -97.059793 
L 66.532888 -98.168477 
L 66.263438 -98.168477 
L 66.263438 -99.274225 
L 66.128713 -99.274225 
L 66.128713 -100.377076 
L 65.634722 -100.377076 
L 65.634722 -101.477063 
L 65.544905 -101.477063 
L 65.544905 -102.57422 
L 65.455089 -102.57422 
L 65.455089 -103.668577 
L 65.006005 -103.668577 
L 65.006005 -105.848993 
L 64.332381 -105.848993 
L 64.332381 -106.935102 
L 64.197656 -106.935102 
L 64.197656 -109.099223 
L 64.062931 -109.099223 
L 64.062931 -110.177271 
L 63.83839 -110.177271 
L 63.83839 -111.252664 
L 63.703665 -111.252664 
L 63.703665 -112.310789 
L 63.613848 -112.310789 
L 63.613848 -113.36644 
L 63.074948 -113.36644 
L 63.074948 -114.419626 
L 62.536049 -114.419626 
L 62.536049 -116.518641 
L 62.446232 -116.518641 
L 62.446232 -117.564483 
L 61.862424 -117.564483 
L 61.862424 -118.607886 
L 61.727699 -118.607886 
L 61.727699 -119.648854 
L 61.458249 -119.648854 
L 61.458249 -120.687388 
L 60.91935 -120.687388 
L 60.91935 -121.723488 
L 60.604991 -121.723488 
L 60.604991 -123.788377 
L 60.560083 -123.788377 
L 60.560083 -123.788377 
L 60.290633 -123.788377 
L 60.290633 -124.794163 
L 60.066092 -124.794163 
L 60.066092 -125.79773 
L 60.021183 -125.79773 
L 60.021183 -126.799076 
L 59.976275 -126.799076 
L 59.976275 -127.798192 
L 59.257742 -127.798192 
L 59.257742 -128.795074 
L 59.123017 -128.795074 
L 59.123017 -129.789712 
L 59.078109 -129.789712 
L 59.078109 -129.789712 
L 58.853568 -129.789712 
L 58.853568 -129.789712 
L 58.718843 -129.789712 
L 58.718843 -129.789712 
L 58.26976 -129.789712 
L 58.26976 -130.752184 
L 58.179943 -130.752184 
L 58.179943 -132.671168 
L 58.045218 -132.671168 
L 58.045218 -132.671168 
L 57.955401 -132.671168 
L 57.955401 -133.618467 
L 57.865585 -133.618467 
L 57.865585 -134.563835 
L 57.596135 -134.563835 
L 57.596135 -135.507264 
L 57.506318 -135.507264 
L 57.506318 -135.507264 
L 57.281777 -135.507264 
L 57.281777 -136.440069 
L 57.19196 -136.440069 
L 57.19196 -137.370988 
L 57.057235 -137.370988 
L 57.057235 -138.300007 
L 56.967419 -138.300007 
L 56.967419 -139.227115 
L 56.92251 -139.227115 
L 56.92251 -141.07554 
L 56.563244 -141.07554 
L 56.563244 -141.07554 
L 56.518336 -141.07554 
L 56.518336 -141.07554 
L 56.248886 -141.07554 
L 56.248886 -142.869794 
L 56.159069 -142.869794 
L 56.159069 -142.869794 
L 55.979436 -142.869794 
L 55.979436 -143.749706 
L 55.889619 -143.749706 
L 55.889619 -144.627933 
L 55.844711 -144.627933 
L 55.844711 -144.627933 
L 55.754894 -144.627933 
L 55.754894 -144.627933 
L 55.620169 -144.627933 
L 55.620169 -145.490694 
L 55.126178 -145.490694 
L 55.126178 -145.490694 
L 55.08127 -145.490694 
L 55.08127 -147.185065 
L 54.901637 -147.185065 
L 54.901637 -148.029948 
L 54.54237 -148.029948 
L 54.54237 -148.873278 
L 54.407645 -148.873278 
L 54.407645 -149.71504 
L 54.362737 -149.71504 
L 54.362737 -150.555217 
L 54.183104 -150.555217 
L 54.183104 -152.230752 
L 54.048379 -152.230752 
L 54.048379 -153.066072 
L 53.599296 -153.066072 
L 53.599296 -153.899736 
L 53.240029 -153.899736 
L 53.240029 -154.731722 
L 52.835855 -154.731722 
L 52.835855 -156.390572 
L 52.117322 -156.390572 
L 52.117322 -157.217388 
L 51.937688 -157.217388 
L 51.937688 -158.042432 
L 51.89278 -158.042432 
L 51.89278 -158.865677 
L 51.847872 -158.865677 
L 51.847872 -160.506653 
L 51.398789 -160.506653 
L 51.398789 -161.324323 
L 51.35388 -161.324323 
L 51.35388 -162.140071 
L 51.264064 -162.140071 
L 51.264064 -162.95386 
L 51.219155 -162.95386 
L 51.219155 -163.765655 
L 51.039522 -163.765655 
L 51.039522 -165.383102 
L 50.994614 -165.383102 
L 50.994614 -166.188668 
L 50.904797 -166.188668 
L 50.904797 -166.987147 
L 50.859889 -166.987147 
L 50.859889 -167.783465 
L 50.770072 -167.783465 
L 50.770072 -168.577569 
L 50.680256 -168.577569 
L 50.680256 -169.369407 
L 50.276081 -169.369407 
L 50.276081 -170.158922 
L 50.05154 -170.158922 
L 50.05154 -171.730739 
L 49.692273 -171.730739 
L 49.692273 -171.730739 
L 49.647365 -171.730739 
L 49.647365 -172.508418 
L 49.51264 -172.508418 
L 49.51264 -173.283565 
L 49.333007 -173.283565 
L 49.333007 -174.056106 
L 49.108465 -174.056106 
L 49.108465 -174.825958 
L 48.883924 -174.825958 
L 48.883924 -175.593037 
L 48.839015 -175.593037 
L 48.839015 -176.35725 
L 48.614474 -176.35725 
L 48.614474 -177.876669 
L 48.210299 -177.876669 
L 48.210299 -178.631653 
L 48.120482 -178.631653 
L 48.120482 -178.631653 
L 47.401949 -178.631653 
L 47.401949 -179.379353 
L 47.177408 -179.379353 
L 47.177408 -180.864462 
L 46.952866 -180.864462 
L 46.952866 -181.597802 
L 46.548692 -181.597802 
L 46.548692 -183.052963 
L 46.32415 -183.052963 
L 46.32415 -183.774401 
L 46.189425 -183.774401 
L 46.189425 -184.491457 
L 46.099609 -184.491457 
L 46.099609 -185.203885 
L 46.009792 -185.203885 
L 46.009792 -185.911413 
L 45.515801 -185.911413 
L 45.515801 -186.613738 
L 45.425984 -186.613738 
L 45.425984 -186.613738 
L 45.381076 -186.613738 
L 45.381076 -187.307244 
L 45.111626 -187.307244 
L 45.111626 -187.994921 
L 44.931993 -187.994921 
L 44.931993 -188.676338 
L 44.887084 -188.676338 
L 44.887084 -188.676338 
L 44.572726 -188.676338 
L 44.572726 -188.676338 
L 44.393093 -188.676338 
L 44.393093 -189.344945 
L 44.078735 -189.344945 
L 44.078735 -190.006474 
L 44.033827 -190.006474 
L 44.033827 -190.660296 
L 43.809285 -190.660296 
L 43.809285 -191.305672 
L 43.67456 -191.305672 
L 43.67456 -191.941725 
L 43.584743 -191.941725 
L 43.584743 -192.567403 
L 43.40511 -192.567403 
L 43.40511 -192.567403 
L 43.315294 -192.567403 
L 43.315294 -192.567403 
L 43.270385 -192.567403 
L 43.270385 -193.17644 
L 43.045844 -193.17644 
L 43.045844 -193.772614 
L 42.731486 -193.772614 
L 42.731486 -194.353984 
L 42.686577 -194.353984 
L 42.686577 -194.915917 
L 42.641669 -194.915917 
L 42.641669 -194.915917 
L 42.551852 -194.915917 
L 42.551852 -195.455487 
L 42.506944 -195.455487 
L 42.506944 -195.455487 
L 42.417127 -195.455487 
L 42.417127 -195.96683 
L 42.282403 -195.96683 
L 42.282403 -195.96683 
L 42.192586 -195.96683 
L 42.192586 -196.446099 
L 42.147678 -196.446099 
L 42.147678 -196.88528 
L 42.102769 -196.88528 
L 42.102769 -196.88528 
L 41.698595 -196.88528 
L 41.698595 -196.88528 
L 41.29442 -196.88528 
L 41.29442 -196.88528 
L 40.890245 -196.88528 
L 40.890245 -196.88528 
L 40.530979 -196.88528 
L 40.530979 -197.262145 
L 40.48607 -197.262145 
L 40.48607 -197.550637 
L 40.396254 -197.550637 
L 40.396254 -197.550637 
L 40.21662 -197.550637 
L 40.21662 -197.550637 
L 39.632812 -197.550637 
z
" style="stroke: #e63946; stroke-opacity: 0.2"/>
    </defs>
    <g clip-path="url(#p11b190b99c)">
     <use xlink:href="#m1c911bc331" x="0" y="213.012812" style="fill: #e63946; fill-opacity: 0.2; stroke: #e63946; stroke-opacity: 0.2"/>
    </g>
   </g>
   <g id="line2d_25">
    <defs>
     <path id="mcfd5d8f631" d="M -3 3 
L 3 -3 
M -3 -3 
L 3 3 
" style="stroke: #2e86ab"/>
    </defs>
    <g clip-path="url(#p11b190b99c)">
     <use xlink:href="#mcfd5d8f631" x="36.758681" y="15.350476" style="fill: #2e86ab; stroke: #2e86ab"/>
     <use xlink:href="#mcfd5d8f631" x="40.306437" y="16.149542" style="fill: #2e86ab; stroke: #2e86ab"/>
     <use xlink:href="#mcfd5d8f631" x="41.204603" y="16.149542" style="fill: #2e86ab; stroke: #2e86ab"/>
     <use xlink:href="#mcfd5d8f631" x="43.629652" y="16.95656" style="fill: #2e86ab; stroke: #2e86ab"/>
     <use xlink:href="#mcfd5d8f631" x="43.899102" y="16.95656" style="fill: #2e86ab; stroke: #2e86ab"/>
     <use xlink:href="#mcfd5d8f631" x="44.348185" y="16.95656" style="fill: #2e86ab; stroke: #2e86ab"/>
     <use xlink:href="#mcfd5d8f631" x="46.728325" y="16.95656" style="fill: #2e86ab; stroke: #2e86ab"/>
     <use xlink:href="#mcfd5d8f631" x="48.030666" y="17.780047" style="fill: #2e86ab; stroke: #2e86ab"/>
     <use xlink:href="#mcfd5d8f631" x="52.027505" y="18.607778" style="fill: #2e86ab; stroke: #2e86ab"/>
     <use xlink:href="#mcfd5d8f631" x="52.790946" y="18.607778" style="fill: #2e86ab; stroke: #2e86ab"/>
     <use xlink:href="#mcfd5d8f631" x="54.452554" y="18.607778" style="fill: #2e86ab; stroke: #2e86ab"/>
     <use xlink:href="#mcfd5d8f631" x="54.587278" y="18.607778" style="fill: #2e86ab; stroke: #2e86ab"/>
     <use xlink:href="#mcfd5d8f631" x="54.766912" y="18.607778" style="fill: #2e86ab; stroke: #2e86ab"/>
     <use xlink:href="#mcfd5d8f631" x="55.844711" y="18.607778" style="fill: #2e86ab; stroke: #2e86ab"/>
     <use xlink:href="#mcfd5d8f631" x="56.024344" y="18.607778" style="fill: #2e86ab; stroke: #2e86ab"/>
     <use xlink:href="#mcfd5d8f631" x="56.069253" y="18.607778" style="fill: #2e86ab; stroke: #2e86ab"/>
     <use xlink:href="#mcfd5d8f631" x="56.159069" y="18.607778" style="fill: #2e86ab; stroke: #2e86ab"/>
     <use xlink:href="#mcfd5d8f631" x="56.203977" y="18.607778" style="fill: #2e86ab; stroke: #2e86ab"/>
     <use xlink:href="#mcfd5d8f631" x="56.338702" y="18.607778" style="fill: #2e86ab; stroke: #2e86ab"/>
     <use xlink:href="#mcfd5d8f631" x="56.383611" y="18.607778" style="fill: #2e86ab; stroke: #2e86ab"/>
     <use xlink:href="#mcfd5d8f631" x="56.653061" y="18.607778" style="fill: #2e86ab; stroke: #2e86ab"/>
     <use xlink:href="#mcfd5d8f631" x="56.787785" y="18.607778" style="fill: #2e86ab; stroke: #2e86ab"/>
     <use xlink:href="#mcfd5d8f631" x="56.832694" y="18.607778" style="fill: #2e86ab; stroke: #2e86ab"/>
     <use xlink:href="#mcfd5d8f631" x="56.877602" y="18.607778" style="fill: #2e86ab; stroke: #2e86ab"/>
     <use xlink:href="#mcfd5d8f631" x="57.102144" y="18.607778" style="fill: #2e86ab; stroke: #2e86ab"/>
     <use xlink:href="#mcfd5d8f631" x="57.326685" y="18.607778" style="fill: #2e86ab; stroke: #2e86ab"/>
     <use xlink:href="#mcfd5d8f631" x="57.506318" y="18.607778" style="fill: #2e86ab; stroke: #2e86ab"/>
     <use xlink:href="#mcfd5d8f631" x="57.551227" y="18.607778" style="fill: #2e86ab; stroke: #2e86ab"/>
     <use xlink:href="#mcfd5d8f631" x="58.26976" y="19.542002" style="fill: #2e86ab; stroke: #2e86ab"/>
     <use xlink:href="#mcfd5d8f631" x="58.314668" y="19.542002" style="fill: #2e86ab; stroke: #2e86ab"/>
     <use xlink:href="#mcfd5d8f631" x="58.853568" y="20.493008" style="fill: #2e86ab; stroke: #2e86ab"/>
     <use xlink:href="#mcfd5d8f631" x="60.066092" y="20.493008" style="fill: #2e86ab; stroke: #2e86ab"/>
     <use xlink:href="#mcfd5d8f631" x="60.155908" y="20.493008" style="fill: #2e86ab; stroke: #2e86ab"/>
     <use xlink:href="#mcfd5d8f631" x="60.560083" y="20.493008" style="fill: #2e86ab; stroke: #2e86ab"/>
     <use xlink:href="#mcfd5d8f631" x="60.604991" y="20.493008" style="fill: #2e86ab; stroke: #2e86ab"/>
     <use xlink:href="#mcfd5d8f631" x="60.694808" y="20.493008" style="fill: #2e86ab; stroke: #2e86ab"/>
     <use xlink:href="#mcfd5d8f631" x="60.91935" y="20.493008" style="fill: #2e86ab; stroke: #2e86ab"/>
     <use xlink:href="#mcfd5d8f631" x="60.964258" y="20.493008" style="fill: #2e86ab; stroke: #2e86ab"/>
     <use xlink:href="#mcfd5d8f631" x="61.054075" y="20.493008" style="fill: #2e86ab; stroke: #2e86ab"/>
     <use xlink:href="#mcfd5d8f631" x="61.188799" y="20.493008" style="fill: #2e86ab; stroke: #2e86ab"/>
     <use xlink:href="#mcfd5d8f631" x="61.233708" y="20.493008" style="fill: #2e86ab; stroke: #2e86ab"/>
     <use xlink:href="#mcfd5d8f631" x="61.368433" y="20.493008" style="fill: #2e86ab; stroke: #2e86ab"/>
     <use xlink:href="#mcfd5d8f631" x="61.413341" y="20.493008" style="fill: #2e86ab; stroke: #2e86ab"/>
     <use xlink:href="#mcfd5d8f631" x="61.682791" y="20.493008" style="fill: #2e86ab; stroke: #2e86ab"/>
     <use xlink:href="#mcfd5d8f631" x="61.862424" y="20.493008" style="fill: #2e86ab; stroke: #2e86ab"/>
     <use xlink:href="#mcfd5d8f631" x="62.22169" y="20.493008" style="fill: #2e86ab; stroke: #2e86ab"/>
     <use xlink:href="#mcfd5d8f631" x="62.401324" y="20.493008" style="fill: #2e86ab; stroke: #2e86ab"/>
     <use xlink:href="#mcfd5d8f631" x="62.446232" y="20.493008" style="fill: #2e86ab; stroke: #2e86ab"/>
     <use xlink:href="#mcfd5d8f631" x="62.625865" y="20.493008" style="fill: #2e86ab; stroke: #2e86ab"/>
     <use xlink:href="#mcfd5d8f631" x="63.074948" y="20.493008" style="fill: #2e86ab; stroke: #2e86ab"/>
     <use xlink:href="#mcfd5d8f631" x="63.164765" y="20.493008" style="fill: #2e86ab; stroke: #2e86ab"/>
     <use xlink:href="#mcfd5d8f631" x="63.703665" y="21.589306" style="fill: #2e86ab; stroke: #2e86ab"/>
     <use xlink:href="#mcfd5d8f631" x="63.83839" y="21.589306" style="fill: #2e86ab; stroke: #2e86ab"/>
     <use xlink:href="#mcfd5d8f631" x="63.883298" y="21.589306" style="fill: #2e86ab; stroke: #2e86ab"/>
     <use xlink:href="#mcfd5d8f631" x="63.973114" y="21.589306" style="fill: #2e86ab; stroke: #2e86ab"/>
     <use xlink:href="#mcfd5d8f631" x="64.152748" y="22.717153" style="fill: #2e86ab; stroke: #2e86ab"/>
     <use xlink:href="#mcfd5d8f631" x="64.781464" y="22.717153" style="fill: #2e86ab; stroke: #2e86ab"/>
     <use xlink:href="#mcfd5d8f631" x="64.871281" y="22.717153" style="fill: #2e86ab; stroke: #2e86ab"/>
     <use xlink:href="#mcfd5d8f631" x="65.320364" y="22.717153" style="fill: #2e86ab; stroke: #2e86ab"/>
     <use xlink:href="#mcfd5d8f631" x="65.365272" y="22.717153" style="fill: #2e86ab; stroke: #2e86ab"/>
     <use xlink:href="#mcfd5d8f631" x="65.589813" y="22.717153" style="fill: #2e86ab; stroke: #2e86ab"/>
     <use xlink:href="#mcfd5d8f631" x="65.67963" y="22.717153" style="fill: #2e86ab; stroke: #2e86ab"/>
     <use xlink:href="#mcfd5d8f631" x="65.724538" y="22.717153" style="fill: #2e86ab; stroke: #2e86ab"/>
     <use xlink:href="#mcfd5d8f631" x="65.769447" y="22.717153" style="fill: #2e86ab; stroke: #2e86ab"/>
     <use xlink:href="#mcfd5d8f631" x="66.038897" y="22.717153" style="fill: #2e86ab; stroke: #2e86ab"/>
     <use xlink:href="#mcfd5d8f631" x="66.128713" y="22.717153" style="fill: #2e86ab; stroke: #2e86ab"/>
     <use xlink:href="#mcfd5d8f631" x="66.712521" y="22.717153" style="fill: #2e86ab; stroke: #2e86ab"/>
     <use xlink:href="#mcfd5d8f631" x="67.026879" y="22.717153" style="fill: #2e86ab; stroke: #2e86ab"/>
     <use xlink:href="#mcfd5d8f631" x="67.386146" y="22.717153" style="fill: #2e86ab; stroke: #2e86ab"/>
     <use xlink:href="#mcfd5d8f631" x="68.05977" y="22.717153" style="fill: #2e86ab; stroke: #2e86ab"/>
     <use xlink:href="#mcfd5d8f631" x="68.194495" y="22.717153" style="fill: #2e86ab; stroke: #2e86ab"/>
     <use xlink:href="#mcfd5d8f631" x="68.284312" y="22.717153" style="fill: #2e86ab; stroke: #2e86ab"/>
     <use xlink:href="#mcfd5d8f631" x="68.374128" y="22.717153" style="fill: #2e86ab; stroke: #2e86ab"/>
     <use xlink:href="#mcfd5d8f631" x="68.463945" y="22.717153" style="fill: #2e86ab; stroke: #2e86ab"/>
     <use xlink:href="#mcfd5d8f631" x="68.643578" y="22.717153" style="fill: #2e86ab; stroke: #2e86ab"/>
     <use xlink:href="#mcfd5d8f631" x="68.733395" y="22.717153" style="fill: #2e86ab; stroke: #2e86ab"/>
     <use xlink:href="#mcfd5d8f631" x="68.778303" y="22.717153" style="fill: #2e86ab; stroke: #2e86ab"/>
     <use xlink:href="#mcfd5d8f631" x="69.496836" y="22.717153" style="fill: #2e86ab; stroke: #2e86ab"/>
     <use xlink:href="#mcfd5d8f631" x="70.664452" y="24.094523" style="fill: #2e86ab; stroke: #2e86ab"/>
     <use xlink:href="#mcfd5d8f631" x="71.023719" y="25.484303" style="fill: #2e86ab; stroke: #2e86ab"/>
     <use xlink:href="#mcfd5d8f631" x="71.068627" y="25.484303" style="fill: #2e86ab; stroke: #2e86ab"/>
     <use xlink:href="#mcfd5d8f631" x="72.460784" y="25.484303" style="fill: #2e86ab; stroke: #2e86ab"/>
     <use xlink:href="#mcfd5d8f631" x="73.314042" y="25.484303" style="fill: #2e86ab; stroke: #2e86ab"/>
     <use xlink:href="#mcfd5d8f631" x="73.673309" y="25.484303" style="fill: #2e86ab; stroke: #2e86ab"/>
     <use xlink:href="#mcfd5d8f631" x="73.808033" y="25.484303" style="fill: #2e86ab; stroke: #2e86ab"/>
     <use xlink:href="#mcfd5d8f631" x="74.796016" y="25.484303" style="fill: #2e86ab; stroke: #2e86ab"/>
     <use xlink:href="#mcfd5d8f631" x="75.065466" y="25.484303" style="fill: #2e86ab; stroke: #2e86ab"/>
     <use xlink:href="#mcfd5d8f631" x="75.514549" y="25.484303" style="fill: #2e86ab; stroke: #2e86ab"/>
     <use xlink:href="#mcfd5d8f631" x="76.098357" y="25.484303" style="fill: #2e86ab; stroke: #2e86ab"/>
     <use xlink:href="#mcfd5d8f631" x="76.143265" y="25.484303" style="fill: #2e86ab; stroke: #2e86ab"/>
     <use xlink:href="#mcfd5d8f631" x="76.457624" y="25.484303" style="fill: #2e86ab; stroke: #2e86ab"/>
     <use xlink:href="#mcfd5d8f631" x="76.996523" y="25.484303" style="fill: #2e86ab; stroke: #2e86ab"/>
     <use xlink:href="#mcfd5d8f631" x="77.849781" y="25.484303" style="fill: #2e86ab; stroke: #2e86ab"/>
     <use xlink:href="#mcfd5d8f631" x="78.433589" y="25.484303" style="fill: #2e86ab; stroke: #2e86ab"/>
     <use xlink:href="#mcfd5d8f631" x="78.837764" y="25.484303" style="fill: #2e86ab; stroke: #2e86ab"/>
     <use xlink:href="#mcfd5d8f631" x="79.46648" y="25.484303" style="fill: #2e86ab; stroke: #2e86ab"/>
     <use xlink:href="#mcfd5d8f631" x="79.73593" y="25.484303" style="fill: #2e86ab; stroke: #2e86ab"/>
     <use xlink:href="#mcfd5d8f631" x="80.00538" y="25.484303" style="fill: #2e86ab; stroke: #2e86ab"/>
     <use xlink:href="#mcfd5d8f631" x="80.319738" y="25.484303" style="fill: #2e86ab; stroke: #2e86ab"/>
     <use xlink:href="#mcfd5d8f631" x="82.071162" y="27.182921" style="fill: #2e86ab; stroke: #2e86ab"/>
     <use xlink:href="#mcfd5d8f631" x="84.406394" y="27.182921" style="fill: #2e86ab; stroke: #2e86ab"/>
     <use xlink:href="#mcfd5d8f631" x="84.675844" y="27.182921" style="fill: #2e86ab; stroke: #2e86ab"/>
     <use xlink:href="#mcfd5d8f631" x="85.84346" y="28.940794" style="fill: #2e86ab; stroke: #2e86ab"/>
     <use xlink:href="#mcfd5d8f631" x="86.696717" y="30.719594" style="fill: #2e86ab; stroke: #2e86ab"/>
     <use xlink:href="#mcfd5d8f631" x="87.774517" y="32.520087" style="fill: #2e86ab; stroke: #2e86ab"/>
     <use xlink:href="#mcfd5d8f631" x="88.582866" y="34.343086" style="fill: #2e86ab; stroke: #2e86ab"/>
     <use xlink:href="#mcfd5d8f631" x="88.762499" y="34.343086" style="fill: #2e86ab; stroke: #2e86ab"/>
     <use xlink:href="#mcfd5d8f631" x="89.391216" y="34.343086" style="fill: #2e86ab; stroke: #2e86ab"/>
     <use xlink:href="#mcfd5d8f631" x="89.481032" y="34.343086" style="fill: #2e86ab; stroke: #2e86ab"/>
     <use xlink:href="#mcfd5d8f631" x="89.705574" y="34.343086" style="fill: #2e86ab; stroke: #2e86ab"/>
     <use xlink:href="#mcfd5d8f631" x="90.244474" y="34.343086" style="fill: #2e86ab; stroke: #2e86ab"/>
     <use xlink:href="#mcfd5d8f631" x="92.355164" y="34.343086" style="fill: #2e86ab; stroke: #2e86ab"/>
     <use xlink:href="#mcfd5d8f631" x="92.669522" y="34.343086" style="fill: #2e86ab; stroke: #2e86ab"/>
     <use xlink:href="#mcfd5d8f631" x="92.894064" y="34.343086" style="fill: #2e86ab; stroke: #2e86ab"/>
     <use xlink:href="#mcfd5d8f631" x="94.376038" y="34.343086" style="fill: #2e86ab; stroke: #2e86ab"/>
     <use xlink:href="#mcfd5d8f631" x="99.181226" y="36.430288" style="fill: #2e86ab; stroke: #2e86ab"/>
     <use xlink:href="#mcfd5d8f631" x="100.259026" y="36.430288" style="fill: #2e86ab; stroke: #2e86ab"/>
     <use xlink:href="#mcfd5d8f631" x="101.157192" y="38.580738" style="fill: #2e86ab; stroke: #2e86ab"/>
     <use xlink:href="#mcfd5d8f631" x="104.92949" y="40.764789" style="fill: #2e86ab; stroke: #2e86ab"/>
     <use xlink:href="#mcfd5d8f631" x="104.974398" y="40.764789" style="fill: #2e86ab; stroke: #2e86ab"/>
     <use xlink:href="#mcfd5d8f631" x="105.198939" y="40.764789" style="fill: #2e86ab; stroke: #2e86ab"/>
     <use xlink:href="#mcfd5d8f631" x="106.052197" y="40.764789" style="fill: #2e86ab; stroke: #2e86ab"/>
     <use xlink:href="#mcfd5d8f631" x="107.983254" y="40.764789" style="fill: #2e86ab; stroke: #2e86ab"/>
     <use xlink:href="#mcfd5d8f631" x="108.297613" y="40.764789" style="fill: #2e86ab; stroke: #2e86ab"/>
     <use xlink:href="#mcfd5d8f631" x="108.701787" y="40.764789" style="fill: #2e86ab; stroke: #2e86ab"/>
     <use xlink:href="#mcfd5d8f631" x="108.881421" y="40.764789" style="fill: #2e86ab; stroke: #2e86ab"/>
     <use xlink:href="#mcfd5d8f631" x="109.734678" y="43.26652" style="fill: #2e86ab; stroke: #2e86ab"/>
     <use xlink:href="#mcfd5d8f631" x="110.677753" y="43.26652" style="fill: #2e86ab; stroke: #2e86ab"/>
     <use xlink:href="#mcfd5d8f631" x="111.665736" y="43.26652" style="fill: #2e86ab; stroke: #2e86ab"/>
     <use xlink:href="#mcfd5d8f631" x="112.429177" y="43.26652" style="fill: #2e86ab; stroke: #2e86ab"/>
     <use xlink:href="#mcfd5d8f631" x="113.237526" y="43.26652" style="fill: #2e86ab; stroke: #2e86ab"/>
     <use xlink:href="#mcfd5d8f631" x="113.686609" y="43.26652" style="fill: #2e86ab; stroke: #2e86ab"/>
     <use xlink:href="#mcfd5d8f631" x="116.336199" y="46.080968" style="fill: #2e86ab; stroke: #2e86ab"/>
     <use xlink:href="#mcfd5d8f631" x="116.605649" y="46.080968" style="fill: #2e86ab; stroke: #2e86ab"/>
     <use xlink:href="#mcfd5d8f631" x="118.71634" y="49.020502" style="fill: #2e86ab; stroke: #2e86ab"/>
     <use xlink:href="#mcfd5d8f631" x="119.839047" y="49.020502" style="fill: #2e86ab; stroke: #2e86ab"/>
     <use xlink:href="#mcfd5d8f631" x="120.108497" y="49.020502" style="fill: #2e86ab; stroke: #2e86ab"/>
     <use xlink:href="#mcfd5d8f631" x="120.737213" y="52.175123" style="fill: #2e86ab; stroke: #2e86ab"/>
     <use xlink:href="#mcfd5d8f631" x="121.815013" y="52.175123" style="fill: #2e86ab; stroke: #2e86ab"/>
     <use xlink:href="#mcfd5d8f631" x="122.488637" y="52.175123" style="fill: #2e86ab; stroke: #2e86ab"/>
     <use xlink:href="#mcfd5d8f631" x="124.240061" y="55.585526" style="fill: #2e86ab; stroke: #2e86ab"/>
     <use xlink:href="#mcfd5d8f631" x="127.159101" y="55.585526" style="fill: #2e86ab; stroke: #2e86ab"/>
     <use xlink:href="#mcfd5d8f631" x="127.293826" y="55.585526" style="fill: #2e86ab; stroke: #2e86ab"/>
     <use xlink:href="#mcfd5d8f631" x="129.808691" y="59.305964" style="fill: #2e86ab; stroke: #2e86ab"/>
     <use xlink:href="#mcfd5d8f631" x="129.8536" y="59.305964" style="fill: #2e86ab; stroke: #2e86ab"/>
     <use xlink:href="#mcfd5d8f631" x="130.347591" y="63.274432" style="fill: #2e86ab; stroke: #2e86ab"/>
     <use xlink:href="#mcfd5d8f631" x="130.527224" y="63.274432" style="fill: #2e86ab; stroke: #2e86ab"/>
     <use xlink:href="#mcfd5d8f631" x="130.661949" y="63.274432" style="fill: #2e86ab; stroke: #2e86ab"/>
     <use xlink:href="#mcfd5d8f631" x="131.649932" y="63.274432" style="fill: #2e86ab; stroke: #2e86ab"/>
     <use xlink:href="#mcfd5d8f631" x="135.691679" y="63.274432" style="fill: #2e86ab; stroke: #2e86ab"/>
     <use xlink:href="#mcfd5d8f631" x="142.607559" y="63.274432" style="fill: #2e86ab; stroke: #2e86ab"/>
     <use xlink:href="#mcfd5d8f631" x="143.460816" y="63.274432" style="fill: #2e86ab; stroke: #2e86ab"/>
     <use xlink:href="#mcfd5d8f631" x="145.257149" y="63.274432" style="fill: #2e86ab; stroke: #2e86ab"/>
     <use xlink:href="#mcfd5d8f631" x="146.514581" y="63.274432" style="fill: #2e86ab; stroke: #2e86ab"/>
     <use xlink:href="#mcfd5d8f631" x="148.445638" y="63.274432" style="fill: #2e86ab; stroke: #2e86ab"/>
     <use xlink:href="#mcfd5d8f631" x="157.517116" y="63.274432" style="fill: #2e86ab; stroke: #2e86ab"/>
     <use xlink:href="#mcfd5d8f631" x="158.909274" y="69.668075" style="fill: #2e86ab; stroke: #2e86ab"/>
     <use xlink:href="#mcfd5d8f631" x="161.019964" y="69.668075" style="fill: #2e86ab; stroke: #2e86ab"/>
     <use xlink:href="#mcfd5d8f631" x="164.926987" y="69.668075" style="fill: #2e86ab; stroke: #2e86ab"/>
     <use xlink:href="#mcfd5d8f631" x="168.429835" y="77.431784" style="fill: #2e86ab; stroke: #2e86ab"/>
     <use xlink:href="#mcfd5d8f631" x="169.238184" y="77.431784" style="fill: #2e86ab; stroke: #2e86ab"/>
     <use xlink:href="#mcfd5d8f631" x="172.741032" y="77.431784" style="fill: #2e86ab; stroke: #2e86ab"/>
     <use xlink:href="#mcfd5d8f631" x="190.704354" y="87.524605" style="fill: #2e86ab; stroke: #2e86ab"/>
     <use xlink:href="#mcfd5d8f631" x="193.21922" y="87.524605" style="fill: #2e86ab; stroke: #2e86ab"/>
     <use xlink:href="#mcfd5d8f631" x="193.758119" y="87.524605" style="fill: #2e86ab; stroke: #2e86ab"/>
     <use xlink:href="#mcfd5d8f631" x="211.047817" y="87.524605" style="fill: #2e86ab; stroke: #2e86ab"/>
     <use xlink:href="#mcfd5d8f631" x="211.856167" y="87.524605" style="fill: #2e86ab; stroke: #2e86ab"/>
     <use xlink:href="#mcfd5d8f631" x="218.412779" y="87.524605" style="fill: #2e86ab; stroke: #2e86ab"/>
     <use xlink:href="#mcfd5d8f631" x="262.692369" y="87.524605" style="fill: #2e86ab; stroke: #2e86ab"/>
     <use xlink:href="#mcfd5d8f631" x="266.015584" y="87.524605" style="fill: #2e86ab; stroke: #2e86ab"/>
     <use xlink:href="#mcfd5d8f631" x="266.419759" y="87.524605" style="fill: #2e86ab; stroke: #2e86ab"/>
    </g>
   </g>
   <g id="line2d_26">
    <path d="M 36.758681 15.350476 
L 39.632812 15.350476 
L 39.632812 16.149542 
L 42.147678 16.149542 
L 42.147678 16.95656 
L 47.806124 16.95656 
L 47.806124 17.780047 
L 49.198282 17.780047 
L 49.198282 18.607778 
L 58.179943 18.607778 
L 58.179943 19.542002 
L 58.26976 19.542002 
L 58.404484 19.542002 
L 58.404484 20.493008 
L 63.434215 20.493008 
L 63.434215 21.589306 
L 64.062931 21.589306 
L 64.062931 22.717153 
L 64.152748 22.717153 
L 70.619544 22.717153 
L 70.619544 24.094523 
L 70.664452 24.094523 
L 70.888994 24.094523 
L 70.888994 25.484303 
L 81.891529 25.484303 
L 81.891529 27.182921 
L 84.76566 27.182921 
L 84.76566 28.940794 
L 86.157818 28.940794 
L 86.157818 30.719594 
L 87.41525 30.719594 
L 87.41525 32.520087 
L 87.999058 32.520087 
L 87.999058 34.343086 
L 96.666361 34.343086 
L 96.666361 36.430288 
L 101.022467 36.430288 
L 101.022467 38.580738 
L 103.402607 38.580738 
L 103.402607 40.764789 
L 109.510137 40.764789 
L 109.510137 43.26652 
L 114.629684 43.26652 
L 114.629684 46.080968 
L 116.785282 46.080968 
L 116.785282 49.020502 
L 120.647397 49.020502 
L 120.647397 52.175123 
L 120.737213 52.175123 
L 123.566437 52.175123 
L 123.566437 55.585526 
L 128.147084 55.585526 
L 128.147084 59.305964 
L 130.347591 59.305964 
L 130.347591 63.274432 
L 158.235649 63.274432 
L 158.235649 69.668075 
L 166.633502 69.668075 
L 166.633502 77.431784 
L 182.575951 77.431784 
L 182.575951 87.524605 
L 266.419759 87.524605 
L 266.419759 87.524605 
" clip-path="url(#p11b190b99c)" style="fill: none; stroke: #2e86ab; stroke-width: 2; stroke-linecap: round"/>
   </g>
   <g id="line2d_27">
    <defs>
     <path id="mea5bcead71" d="M -3 3 
L 3 -3 
M -3 -3 
L 3 3 
" style="stroke: #e63946"/>
    </defs>
    <g clip-path="url(#p11b190b99c)">
     <use xlink:href="#mea5bcead71" x="39.632812" y="16.141785" style="fill: #e63946; stroke: #e63946"/>
     <use xlink:href="#mea5bcead71" x="40.21662" y="16.141785" style="fill: #e63946; stroke: #e63946"/>
     <use xlink:href="#mea5bcead71" x="40.396254" y="16.141785" style="fill: #e63946; stroke: #e63946"/>
     <use xlink:href="#mea5bcead71" x="40.530979" y="17.747906" style="fill: #e63946; stroke: #e63946"/>
     <use xlink:href="#mea5bcead71" x="40.890245" y="17.747906" style="fill: #e63946; stroke: #e63946"/>
     <use xlink:href="#mea5bcead71" x="41.29442" y="17.747906" style="fill: #e63946; stroke: #e63946"/>
     <use xlink:href="#mea5bcead71" x="41.698595" y="17.747906" style="fill: #e63946; stroke: #e63946"/>
     <use xlink:href="#mea5bcead71" x="42.102769" y="17.747906" style="fill: #e63946; stroke: #e63946"/>
     <use xlink:href="#mea5bcead71" x="42.282403" y="19.395209" style="fill: #e63946; stroke: #e63946"/>
     <use xlink:href="#mea5bcead71" x="42.506944" y="20.223151" style="fill: #e63946; stroke: #e63946"/>
     <use xlink:href="#mea5bcead71" x="42.641669" y="21.059854" style="fill: #e63946; stroke: #e63946"/>
     <use xlink:href="#mea5bcead71" x="42.686577" y="21.901031" style="fill: #e63946; stroke: #e63946"/>
     <use xlink:href="#mea5bcead71" x="43.315294" y="24.438203" style="fill: #e63946; stroke: #e63946"/>
     <use xlink:href="#mea5bcead71" x="43.40511" y="24.438203" style="fill: #e63946; stroke: #e63946"/>
     <use xlink:href="#mea5bcead71" x="44.572726" y="29.56893" style="fill: #e63946; stroke: #e63946"/>
     <use xlink:href="#mea5bcead71" x="44.887084" y="29.56893" style="fill: #e63946; stroke: #e63946"/>
     <use xlink:href="#mea5bcead71" x="45.425984" y="32.164123" style="fill: #e63946; stroke: #e63946"/>
     <use xlink:href="#mea5bcead71" x="46.952866" y="39.125831" style="fill: #e63946; stroke: #e63946"/>
     <use xlink:href="#mea5bcead71" x="48.120482" y="41.752891" style="fill: #e63946; stroke: #e63946"/>
     <use xlink:href="#mea5bcead71" x="49.692273" y="49.684917" style="fill: #e63946; stroke: #e63946"/>
     <use xlink:href="#mea5bcead71" x="50.904797" y="55.896817" style="fill: #e63946; stroke: #e63946"/>
     <use xlink:href="#mea5bcead71" x="55.126178" y="78.244113" style="fill: #e63946; stroke: #e63946"/>
     <use xlink:href="#mea5bcead71" x="55.754894" y="79.154258" style="fill: #e63946; stroke: #e63946"/>
     <use xlink:href="#mea5bcead71" x="55.844711" y="79.154258" style="fill: #e63946; stroke: #e63946"/>
     <use xlink:href="#mea5bcead71" x="55.979436" y="81.008571" style="fill: #e63946; stroke: #e63946"/>
     <use xlink:href="#mea5bcead71" x="56.159069" y="81.008571" style="fill: #e63946; stroke: #e63946"/>
     <use xlink:href="#mea5bcead71" x="56.248886" y="82.89889" style="fill: #e63946; stroke: #e63946"/>
     <use xlink:href="#mea5bcead71" x="56.518336" y="82.89889" style="fill: #e63946; stroke: #e63946"/>
     <use xlink:href="#mea5bcead71" x="56.563244" y="82.89889" style="fill: #e63946; stroke: #e63946"/>
     <use xlink:href="#mea5bcead71" x="57.506318" y="88.743448" style="fill: #e63946; stroke: #e63946"/>
     <use xlink:href="#mea5bcead71" x="58.045218" y="91.697839" style="fill: #e63946; stroke: #e63946"/>
     <use xlink:href="#mea5bcead71" x="58.718843" y="94.68619" style="fill: #e63946; stroke: #e63946"/>
     <use xlink:href="#mea5bcead71" x="58.853568" y="94.68619" style="fill: #e63946; stroke: #e63946"/>
     <use xlink:href="#mea5bcead71" x="59.078109" y="94.68619" style="fill: #e63946; stroke: #e63946"/>
     <use xlink:href="#mea5bcead71" x="60.290633" y="100.88425" style="fill: #e63946; stroke: #e63946"/>
     <use xlink:href="#mea5bcead71" x="60.560083" y="100.88425" style="fill: #e63946; stroke: #e63946"/>
     <use xlink:href="#mea5bcead71" x="63.703665" y="113.61999" style="fill: #e63946; stroke: #e63946"/>
     <use xlink:href="#mea5bcead71" x="68.419037" y="134.120993" style="fill: #e63946; stroke: #e63946"/>
     <use xlink:href="#mea5bcead71" x="74.346933" y="145.180745" style="fill: #e63946; stroke: #e63946"/>
     <use xlink:href="#mea5bcead71" x="75.469641" y="147.468969" style="fill: #e63946; stroke: #e63946"/>
     <use xlink:href="#mea5bcead71" x="76.996523" y="149.845202" style="fill: #e63946; stroke: #e63946"/>
     <use xlink:href="#mea5bcead71" x="77.35579" y="151.084976" style="fill: #e63946; stroke: #e63946"/>
     <use xlink:href="#mea5bcead71" x="77.445606" y="151.084976" style="fill: #e63946; stroke: #e63946"/>
     <use xlink:href="#mea5bcead71" x="79.915563" y="153.812479" style="fill: #e63946; stroke: #e63946"/>
     <use xlink:href="#mea5bcead71" x="80.993362" y="155.25645" style="fill: #e63946; stroke: #e63946"/>
     <use xlink:href="#mea5bcead71" x="125.497494" y="166.038107" style="fill: #e63946; stroke: #e63946"/>
     <use xlink:href="#mea5bcead71" x="127.069285" y="166.038107" style="fill: #e63946; stroke: #e63946"/>
     <use xlink:href="#mea5bcead71" x="131.42539" y="166.038107" style="fill: #e63946; stroke: #e63946"/>
     <use xlink:href="#mea5bcead71" x="134.34443" y="166.038107" style="fill: #e63946; stroke: #e63946"/>
     <use xlink:href="#mea5bcead71" x="137.398195" y="166.038107" style="fill: #e63946; stroke: #e63946"/>
     <use xlink:href="#mea5bcead71" x="144.269166" y="166.038107" style="fill: #e63946; stroke: #e63946"/>
     <use xlink:href="#mea5bcead71" x="174.851722" y="172.199053" style="fill: #e63946; stroke: #e63946"/>
    </g>
   </g>
   <g id="line2d_28">
    <path d="M 39.632812 16.141785 
L 40.48607 16.141785 
L 40.530979 17.747906 
L 42.147678 17.747906 
L 42.192586 19.395209 
L 42.417127 19.395209 
L 42.506944 20.223151 
L 42.506944 20.223151 
L 42.551852 20.223151 
L 42.641669 21.059854 
L 42.641669 21.059854 
L 42.686577 21.059854 
L 42.731486 22.746755 
L 43.045844 22.746755 
L 43.045844 23.592479 
L 43.270385 23.592479 
L 43.270385 24.438203 
L 43.315294 24.438203 
L 43.584743 24.438203 
L 43.67456 26.148445 
L 43.809285 26.148445 
L 43.809285 27.003567 
L 44.033827 27.003567 
L 44.078735 28.713809 
L 44.393093 28.713809 
L 44.393093 29.56893 
L 44.931993 29.56893 
L 44.931993 30.433994 
L 45.111626 30.433994 
L 45.111626 31.299059 
L 45.381076 31.299059 
L 45.381076 32.164123 
L 45.425984 32.164123 
L 45.515801 32.164123 
L 45.515801 33.034336 
L 46.009792 33.034336 
L 46.099609 34.774764 
L 46.189425 34.774764 
L 46.189425 35.644977 
L 46.32415 35.644977 
L 46.32415 36.515191 
L 46.548692 36.515191 
L 46.548692 38.255618 
L 46.952866 38.255618 
L 46.952866 39.125831 
L 47.177408 39.125831 
L 47.177408 40.877205 
L 47.401949 40.877205 
L 47.401949 41.752891 
L 48.210299 41.752891 
L 48.210299 42.634227 
L 48.614474 42.634227 
L 48.614474 44.3969 
L 48.839015 44.3969 
L 48.883924 46.159572 
L 49.108465 46.159572 
L 49.108465 47.040908 
L 49.333007 47.040908 
L 49.333007 47.922244 
L 49.51264 47.922244 
L 49.51264 48.803581 
L 49.647365 48.803581 
L 49.647365 49.684917 
L 49.692273 49.684917 
L 50.05154 49.684917 
L 50.05154 51.459746 
L 50.276081 51.459746 
L 50.276081 52.34716 
L 50.680256 52.34716 
L 50.770072 54.121989 
L 50.859889 54.121989 
L 50.904797 55.896817 
L 50.994614 55.896817 
L 51.039522 58.578493 
L 51.219155 58.578493 
L 51.264064 60.366277 
L 51.35388 60.366277 
L 51.398789 62.15406 
L 51.847872 62.15406 
L 51.937688 65.729628 
L 52.117322 65.729628 
L 52.117322 66.62352 
L 52.835855 66.62352 
L 52.835855 68.411303 
L 53.240029 68.411303 
L 53.240029 69.305195 
L 53.599296 69.305195 
L 53.599296 70.199087 
L 54.048379 70.199087 
L 54.048379 71.092979 
L 54.183104 71.092979 
L 54.183104 72.880762 
L 54.362737 72.880762 
L 54.407645 74.668546 
L 54.54237 74.668546 
L 54.54237 75.562438 
L 54.901637 75.562438 
L 54.901637 76.45633 
L 55.08127 76.45633 
L 55.08127 78.244113 
L 55.126178 78.244113 
L 55.620169 78.244113 
L 55.620169 79.154258 
L 55.889619 79.154258 
L 55.979436 81.008571 
L 56.248886 81.008571 
L 56.248886 82.89889 
L 56.92251 82.89889 
L 56.967419 85.821169 
L 57.057235 85.821169 
L 57.057235 86.795262 
L 57.19196 86.795262 
L 57.281777 88.743448 
L 57.596135 88.743448 
L 57.596135 89.728245 
L 57.865585 89.728245 
L 57.955401 91.697839 
L 58.179943 91.697839 
L 58.26976 94.68619 
L 59.123017 94.68619 
L 59.123017 95.7192 
L 59.257742 95.7192 
L 59.257742 96.75221 
L 59.976275 96.75221 
L 60.066092 99.85124 
L 60.290633 99.85124 
L 60.290633 100.88425 
L 60.604991 100.88425 
L 60.604991 103.006873 
L 60.91935 103.006873 
L 60.91935 104.068185 
L 61.458249 104.068185 
L 61.458249 105.129496 
L 61.727699 105.129496 
L 61.727699 106.190808 
L 61.862424 106.190808 
L 61.862424 107.25212 
L 62.446232 107.25212 
L 62.536049 110.436055 
L 63.074948 110.436055 
L 63.074948 111.497366 
L 63.613848 111.497366 
L 63.703665 113.61999 
L 63.83839 113.61999 
L 63.83839 114.69899 
L 64.062931 114.69899 
L 64.062931 115.77799 
L 64.197656 115.77799 
L 64.197656 117.93599 
L 64.332381 117.93599 
L 64.332381 119.01499 
L 65.006005 119.01499 
L 65.006005 121.172991 
L 65.455089 121.172991 
L 65.544905 123.330991 
L 65.634722 123.330991 
L 65.634722 124.409991 
L 66.128713 124.409991 
L 66.128713 125.488991 
L 66.263438 125.488991 
L 66.263438 126.567992 
L 66.532888 126.567992 
L 66.532888 127.646992 
L 66.667613 127.646992 
L 66.667613 128.725992 
L 67.116696 128.725992 
L 67.116696 129.804992 
L 67.251421 129.804992 
L 67.341237 131.962993 
L 67.610687 131.962993 
L 67.610687 133.041993 
L 67.925045 133.041993 
L 67.925045 134.120993 
L 68.86812 134.120993 
L 68.86812 135.226968 
L 69.496836 135.226968 
L 69.496836 136.332943 
L 69.901011 136.332943 
L 69.901011 137.438918 
L 70.170461 137.438918 
L 70.170461 138.544894 
L 70.395002 138.544894 
L 70.395002 139.650869 
L 71.338077 139.650869 
L 71.338077 140.756844 
L 71.607526 140.756844 
L 71.607526 141.862819 
L 71.921885 141.862819 
L 71.921885 142.968794 
L 72.595509 142.968794 
L 72.595509 144.074769 
L 72.820051 144.074769 
L 72.820051 145.180745 
L 74.571475 145.180745 
L 74.571475 146.324857 
L 75.334916 146.324857 
L 75.334916 147.468969 
L 76.412715 147.468969 
L 76.412715 148.657086 
L 76.592348 148.657086 
L 76.592348 149.845202 
L 77.131248 149.845202 
L 77.131248 151.084976 
L 78.209047 151.084976 
L 78.209047 152.448727 
L 78.433589 152.448727 
L 78.433589 153.812479 
L 80.229921 153.812479 
L 80.229921 155.25645 
L 82.250795 155.25645 
L 82.250795 156.796687 
L 83.373503 156.796687 
L 83.373503 158.336924 
L 84.720752 158.336924 
L 84.720752 159.87716 
L 84.900385 159.87716 
L 84.900385 161.417397 
L 91.861173 161.417397 
L 91.861173 162.957634 
L 100.169209 162.957634 
L 100.169209 164.49787 
L 103.537332 164.49787 
L 103.537332 166.038107 
L 172.291949 166.038107 
L 172.291949 172.199053 
L 174.851722 172.199053 
L 174.851722 172.199053 
" clip-path="url(#p11b190b99c)" style="fill: none; stroke: #e63946; stroke-width: 2; stroke-linecap: round"/>
   </g>
   <g id="patch_3">
    <path d="M 39.632812 178.36 
L 39.632812 7.2 
" style="fill: none; stroke: #262626; stroke-width: 0.8; stroke-linejoin: miter; stroke-linecap: square"/>
   </g>
   <g id="patch_4">
    <path d="M 277.902813 178.36 
L 277.902813 7.2 
" style="fill: none; stroke: #262626; stroke-width: 0.8; stroke-linejoin: miter; stroke-linecap: square"/>
   </g>
   <g id="patch_5">
    <path d="M 39.632812 178.36 
L 277.902813 178.36 
" style="fill: none; stroke: #262626; stroke-width: 0.8; stroke-linejoin: miter; stroke-linecap: square"/>
   </g>
   <g id="patch_6">
    <path d="M 39.632812 7.2 
L 277.902813 7.2 
" style="fill: none; stroke: #262626; stroke-width: 0.8; stroke-linejoin: miter; stroke-linecap: square"/>
   </g>
   <g id="text_15">
    <g id="patch_7">
     <path d="M 229.696163 25.9005 
L 273.137413 25.9005 
Q 275.537413 25.9005 275.537413 23.5005 
L 275.537413 15.758 
Q 275.537413 13.358 273.137413 13.358 
L 229.696163 13.358 
Q 227.296163 13.358 227.296163 15.758 
L 227.296163 23.5005 
Q 227.296163 25.9005 229.696163 25.9005 
z
" style="fill: #ffffff; opacity: 0.8; stroke: #ffffff; stroke-linejoin: miter"/>
    </g>
    <!-- P &lt; 0.001 -->
    <g style="fill: #262626" transform="translate(229.696163 21.83675) scale(0.08 -0.08)">
     <defs>
      <path id="DejaVuSans-Bold-50" d="M 588 4666 
L 2584 4666 
Q 3475 4666 3951 4270 
Q 4428 3875 4428 3144 
Q 4428 2409 3951 2014 
Q 3475 1619 2584 1619 
L 1791 1619 
L 1791 0 
L 588 0 
L 588 4666 
z
M 1791 3794 
L 1791 2491 
L 2456 2491 
Q 2806 2491 2997 2661 
Q 3188 2831 3188 3144 
Q 3188 3456 2997 3625 
Q 2806 3794 2456 3794 
L 1791 3794 
z
" transform="scale(0.015625)"/>
      <path id="DejaVuSans-Bold-20" transform="scale(0.015625)"/>
      <path id="DejaVuSans-Bold-3c" d="M 4684 3041 
L 1672 2003 
L 4684 972 
L 4684 191 
L 678 1638 
L 678 2375 
L 4684 3822 
L 4684 3041 
z
" transform="scale(0.015625)"/>
      <path id="DejaVuSans-Bold-30" d="M 2944 2338 
Q 2944 3213 2780 3570 
Q 2616 3928 2228 3928 
Q 1841 3928 1675 3570 
Q 1509 3213 1509 2338 
Q 1509 1453 1675 1090 
Q 1841 728 2228 728 
Q 2613 728 2778 1090 
Q 2944 1453 2944 2338 
z
M 4147 2328 
Q 4147 1169 3647 539 
Q 3147 -91 2228 -91 
Q 1306 -91 806 539 
Q 306 1169 306 2328 
Q 306 3491 806 4120 
Q 1306 4750 2228 4750 
Q 3147 4750 3647 4120 
Q 4147 3491 4147 2328 
z
" transform="scale(0.015625)"/>
      <path id="DejaVuSans-Bold-2e" d="M 653 1209 
L 1778 1209 
L 1778 0 
L 653 0 
L 653 1209 
z
" transform="scale(0.015625)"/>
      <path id="DejaVuSans-Bold-31" d="M 750 831 
L 1813 831 
L 1813 3847 
L 722 3622 
L 722 4441 
L 1806 4666 
L 2950 4666 
L 2950 831 
L 4013 831 
L 4013 0 
L 750 0 
L 750 831 
z
" transform="scale(0.015625)"/>
     </defs>
     <use xlink:href="#DejaVuSans-Bold-50"/>
     <use xlink:href="#DejaVuSans-Bold-20" transform="translate(73.291016 0)"/>
     <use xlink:href="#DejaVuSans-Bold-3c" transform="translate(108.105469 0)"/>
     <use xlink:href="#DejaVuSans-Bold-20" transform="translate(191.894531 0)"/>
     <use xlink:href="#DejaVuSans-Bold-30" transform="translate(226.708984 0)"/>
     <use xlink:href="#DejaVuSans-Bold-2e" transform="translate(296.289062 0)"/>
     <use xlink:href="#DejaVuSans-Bold-30" transform="translate(334.277344 0)"/>
     <use xlink:href="#DejaVuSans-Bold-30" transform="translate(403.857422 0)"/>
     <use xlink:href="#DejaVuSans-Bold-31" transform="translate(473.4375 0)"/>
    </g>
   </g>
  </g>
 </g>
 <defs>
  <clipPath id="p11b190b99c">
   <rect x="39.632812" y="7.2" width="238.27" height="171.16"/>
  </clipPath>
 </defs>
</svg>
