<?xml version="1.0" encoding="utf-8" standalone="no"?>
<!DOCTYPE svg PUBLIC "-//W3C//DTD SVG 1.1//EN"
  "http://www.w3.org/Graphics/SVG/1.1/DTD/svg11.dtd">
<svg xmlns:xlink="http://www.w3.org/1999/xlink" width="285.102812pt" height="213.012812pt" viewBox="0 0 285.102812 213.012812" xmlns="http://www.w3.org/2000/svg" version="1.1">
 <metadata>
  <rdf:RDF xmlns:dc="http://purl.org/dc/elements/1.1/" xmlns:cc="http://creativecommons.org/ns#" xmlns:rdf="http://www.w3.org/1999/02/22-rdf-syntax-ns#">
   <cc:Work>
    <dc:type rdf:resource="http://purl.org/dc/dcmitype/StillImage"/>
    <dc:date>2025-07-12T20:17:37.760587</dc:date>
    <dc:format>image/svg+xml</dc:format>
    <dc:creator>
     <cc:Agent>
      <dc:title>Matplotlib v3.10.3, https://matplotlib.org/</dc:title>
     </cc:Agent>
    </dc:creator>
   </cc:Work>
  </rdf:RDF>
 </metadata>
 <defs>
  <style type="text/css">*{stroke-linejoin: round; stroke-linecap: butt}</style>
 </defs>
 <g id="figure_1">
  <g id="patch_1">
   <path d="M 0 213.012812 
L 285.102812 213.012812 
L 285.102812 0 
L 0 0 
L 0 213.012812 
z
" style="fill: none"/>
  </g>
  <g id="axes_1">
   <g id="patch_2">
    <path d="M 39.632812 178.36 
L 277.902813 178.36 
L 277.902813 7.2 
L 39.632812 7.2 
L 39.632812 178.36 
z
" style="fill: none"/>
   </g>
   <g id="matplotlib.axis_1">
    <g id="xtick_1">
     <g id="line2d_1">
      <path d="M 39.632812 178.36 
L 39.632812 7.2 
" clip-path="url(#pb13dd54231)" style="fill: none; stroke: #cccccc; stroke-opacity: 0.3; stroke-width: 0.5; stroke-linecap: round"/>
     </g>
     <g id="line2d_2">
      <defs>
       <path id="mfec9287874" d="M 0 0 
L 0 3.5 
" style="stroke: #262626; stroke-width: 0.8"/>
      </defs>
      <g>
       <use xlink:href="#mfec9287874" x="39.632812" y="178.36" style="fill: #262626; stroke: #262626; stroke-width: 0.8"/>
      </g>
     </g>
     <g id="text_1">
      <!-- 0 -->
      <g style="fill: #262626" transform="translate(37.087812 191.43875) scale(0.08 -0.08)">
       <defs>
        <path id="DejaVuSans-30" d="M 2034 4250 
Q 1547 4250 1301 3770 
Q 1056 3291 1056 2328 
Q 1056 1369 1301 889 
Q 1547 409 2034 409 
Q 2525 409 2770 889 
Q 3016 1369 3016 2328 
Q 3016 3291 2770 3770 
Q 2525 4250 2034 4250 
z
M 2034 4750 
Q 2819 4750 3233 4129 
Q 3647 3509 3647 2328 
Q 3647 1150 3233 529 
Q 2819 -91 2034 -91 
Q 1250 -91 836 529 
Q 422 1150 422 2328 
Q 422 3509 836 4129 
Q 1250 4750 2034 4750 
z
" transform="scale(0.015625)"/>
       </defs>
       <use xlink:href="#DejaVuSans-30"/>
      </g>
     </g>
    </g>
    <g id="xtick_2">
     <g id="line2d_3">
      <path d="M 84.541119 178.36 
L 84.541119 7.2 
" clip-path="url(#pb13dd54231)" style="fill: none; stroke: #cccccc; stroke-opacity: 0.3; stroke-width: 0.5; stroke-linecap: round"/>
     </g>
     <g id="line2d_4">
      <g>
       <use xlink:href="#mfec9287874" x="84.541119" y="178.36" style="fill: #262626; stroke: #262626; stroke-width: 0.8"/>
      </g>
     </g>
     <g id="text_2">
      <!-- 1000 -->
      <g style="fill: #262626" transform="translate(74.361119 191.43875) scale(0.08 -0.08)">
       <defs>
        <path id="DejaVuSans-31" d="M 794 531 
L 1825 531 
L 1825 4091 
L 703 3866 
L 703 4441 
L 1819 4666 
L 2450 4666 
L 2450 531 
L 3481 531 
L 3481 0 
L 794 0 
L 794 531 
z
" transform="scale(0.015625)"/>
       </defs>
       <use xlink:href="#DejaVuSans-31"/>
       <use xlink:href="#DejaVuSans-30" transform="translate(63.623047 0)"/>
       <use xlink:href="#DejaVuSans-30" transform="translate(127.246094 0)"/>
       <use xlink:href="#DejaVuSans-30" transform="translate(190.869141 0)"/>
      </g>
     </g>
    </g>
    <g id="xtick_3">
     <g id="line2d_5">
      <path d="M 129.449425 178.36 
L 129.449425 7.2 
" clip-path="url(#pb13dd54231)" style="fill: none; stroke: #cccccc; stroke-opacity: 0.3; stroke-width: 0.5; stroke-linecap: round"/>
     </g>
     <g id="line2d_6">
      <g>
       <use xlink:href="#mfec9287874" x="129.449425" y="178.36" style="fill: #262626; stroke: #262626; stroke-width: 0.8"/>
      </g>
     </g>
     <g id="text_3">
      <!-- 2000 -->
      <g style="fill: #262626" transform="translate(119.269425 191.43875) scale(0.08 -0.08)">
       <defs>
        <path id="DejaVuSans-32" d="M 1228 531 
L 3431 531 
L 3431 0 
L 469 0 
L 469 531 
Q 828 903 1448 1529 
Q 2069 2156 2228 2338 
Q 2531 2678 2651 2914 
Q 2772 3150 2772 3378 
Q 2772 3750 2511 3984 
Q 2250 4219 1831 4219 
Q 1534 4219 1204 4116 
Q 875 4013 500 3803 
L 500 4441 
Q 881 4594 1212 4672 
Q 1544 4750 1819 4750 
Q 2544 4750 2975 4387 
Q 3406 4025 3406 3419 
Q 3406 3131 3298 2873 
Q 3191 2616 2906 2266 
Q 2828 2175 2409 1742 
Q 1991 1309 1228 531 
z
" transform="scale(0.015625)"/>
       </defs>
       <use xlink:href="#DejaVuSans-32"/>
       <use xlink:href="#DejaVuSans-30" transform="translate(63.623047 0)"/>
       <use xlink:href="#DejaVuSans-30" transform="translate(127.246094 0)"/>
       <use xlink:href="#DejaVuSans-30" transform="translate(190.869141 0)"/>
      </g>
     </g>
    </g>
    <g id="xtick_4">
     <g id="line2d_7">
      <path d="M 174.357731 178.36 
L 174.357731 7.2 
" clip-path="url(#pb13dd54231)" style="fill: none; stroke: #cccccc; stroke-opacity: 0.3; stroke-width: 0.5; stroke-linecap: round"/>
     </g>
     <g id="line2d_8">
      <g>
       <use xlink:href="#mfec9287874" x="174.357731" y="178.36" style="fill: #262626; stroke: #262626; stroke-width: 0.8"/>
      </g>
     </g>
     <g id="text_4">
      <!-- 3000 -->
      <g style="fill: #262626" transform="translate(164.177731 191.43875) scale(0.08 -0.08)">
       <defs>
        <path id="DejaVuSans-33" d="M 2597 2516 
Q 3050 2419 3304 2112 
Q 3559 1806 3559 1356 
Q 3559 666 3084 287 
Q 2609 -91 1734 -91 
Q 1441 -91 1130 -33 
Q 819 25 488 141 
L 488 750 
Q 750 597 1062 519 
Q 1375 441 1716 441 
Q 2309 441 2620 675 
Q 2931 909 2931 1356 
Q 2931 1769 2642 2001 
Q 2353 2234 1838 2234 
L 1294 2234 
L 1294 2753 
L 1863 2753 
Q 2328 2753 2575 2939 
Q 2822 3125 2822 3475 
Q 2822 3834 2567 4026 
Q 2313 4219 1838 4219 
Q 1578 4219 1281 4162 
Q 984 4106 628 3988 
L 628 4550 
Q 988 4650 1302 4700 
Q 1616 4750 1894 4750 
Q 2613 4750 3031 4423 
Q 3450 4097 3450 3541 
Q 3450 3153 3228 2886 
Q 3006 2619 2597 2516 
z
" transform="scale(0.015625)"/>
       </defs>
       <use xlink:href="#DejaVuSans-33"/>
       <use xlink:href="#DejaVuSans-30" transform="translate(63.623047 0)"/>
       <use xlink:href="#DejaVuSans-30" transform="translate(127.246094 0)"/>
       <use xlink:href="#DejaVuSans-30" transform="translate(190.869141 0)"/>
      </g>
     </g>
    </g>
    <g id="xtick_5">
     <g id="line2d_9">
      <path d="M 219.266037 178.36 
L 219.266037 7.2 
" clip-path="url(#pb13dd54231)" style="fill: none; stroke: #cccccc; stroke-opacity: 0.3; stroke-width: 0.5; stroke-linecap: round"/>
     </g>
     <g id="line2d_10">
      <g>
       <use xlink:href="#mfec9287874" x="219.266037" y="178.36" style="fill: #262626; stroke: #262626; stroke-width: 0.8"/>
      </g>
     </g>
     <g id="text_5">
      <!-- 4000 -->
      <g style="fill: #262626" transform="translate(209.086037 191.43875) scale(0.08 -0.08)">
       <defs>
        <path id="DejaVuSans-34" d="M 2419 4116 
L 825 1625 
L 2419 1625 
L 2419 4116 
z
M 2253 4666 
L 3047 4666 
L 3047 1625 
L 3713 1625 
L 3713 1100 
L 3047 1100 
L 3047 0 
L 2419 0 
L 2419 1100 
L 313 1100 
L 313 1709 
L 2253 4666 
z
" transform="scale(0.015625)"/>
       </defs>
       <use xlink:href="#DejaVuSans-34"/>
       <use xlink:href="#DejaVuSans-30" transform="translate(63.623047 0)"/>
       <use xlink:href="#DejaVuSans-30" transform="translate(127.246094 0)"/>
       <use xlink:href="#DejaVuSans-30" transform="translate(190.869141 0)"/>
      </g>
     </g>
    </g>
    <g id="xtick_6">
     <g id="line2d_11">
      <path d="M 264.174343 178.36 
L 264.174343 7.2 
" clip-path="url(#pb13dd54231)" style="fill: none; stroke: #cccccc; stroke-opacity: 0.3; stroke-width: 0.5; stroke-linecap: round"/>
     </g>
     <g id="line2d_12">
      <g>
       <use xlink:href="#mfec9287874" x="264.174343" y="178.36" style="fill: #262626; stroke: #262626; stroke-width: 0.8"/>
      </g>
     </g>
     <g id="text_6">
      <!-- 5000 -->
      <g style="fill: #262626" transform="translate(253.994343 191.43875) scale(0.08 -0.08)">
       <defs>
        <path id="DejaVuSans-35" d="M 691 4666 
L 3169 4666 
L 3169 4134 
L 1269 4134 
L 1269 2991 
Q 1406 3038 1543 3061 
Q 1681 3084 1819 3084 
Q 2600 3084 3056 2656 
Q 3513 2228 3513 1497 
Q 3513 744 3044 326 
Q 2575 -91 1722 -91 
Q 1428 -91 1123 -41 
Q 819 9 494 109 
L 494 744 
Q 775 591 1075 516 
Q 1375 441 1709 441 
Q 2250 441 2565 725 
Q 2881 1009 2881 1497 
Q 2881 1984 2565 2268 
Q 2250 2553 1709 2553 
Q 1456 2553 1204 2497 
Q 953 2441 691 2322 
L 691 4666 
z
" transform="scale(0.015625)"/>
       </defs>
       <use xlink:href="#DejaVuSans-35"/>
       <use xlink:href="#DejaVuSans-30" transform="translate(63.623047 0)"/>
       <use xlink:href="#DejaVuSans-30" transform="translate(127.246094 0)"/>
       <use xlink:href="#DejaVuSans-30" transform="translate(190.869141 0)"/>
      </g>
     </g>
    </g>
    <g id="text_7">
     <!-- Time (days) -->
     <g style="fill: #262626" transform="translate(132.193906 203.941094) scale(0.09 -0.09)">
      <defs>
       <path id="DejaVuSans-54" d="M -19 4666 
L 3928 4666 
L 3928 4134 
L 2272 4134 
L 2272 0 
L 1638 0 
L 1638 4134 
L -19 4134 
L -19 4666 
z
" transform="scale(0.015625)"/>
       <path id="DejaVuSans-69" d="M 603 3500 
L 1178 3500 
L 1178 0 
L 603 0 
L 603 3500 
z
M 603 4863 
L 1178 4863 
L 1178 4134 
L 603 4134 
L 603 4863 
z
" transform="scale(0.015625)"/>
       <path id="DejaVuSans-6d" d="M 3328 2828 
Q 3544 3216 3844 3400 
Q 4144 3584 4550 3584 
Q 5097 3584 5394 3201 
Q 5691 2819 5691 2113 
L 5691 0 
L 5113 0 
L 5113 2094 
Q 5113 2597 4934 2840 
Q 4756 3084 4391 3084 
Q 3944 3084 3684 2787 
Q 3425 2491 3425 1978 
L 3425 0 
L 2847 0 
L 2847 2094 
Q 2847 2600 2669 2842 
Q 2491 3084 2119 3084 
Q 1678 3084 1418 2786 
Q 1159 2488 1159 1978 
L 1159 0 
L 581 0 
L 581 3500 
L 1159 3500 
L 1159 2956 
Q 1356 3278 1631 3431 
Q 1906 3584 2284 3584 
Q 2666 3584 2933 3390 
Q 3200 3197 3328 2828 
z
" transform="scale(0.015625)"/>
       <path id="DejaVuSans-65" d="M 3597 1894 
L 3597 1613 
L 953 1613 
Q 991 1019 1311 708 
Q 1631 397 2203 397 
Q 2534 397 2845 478 
Q 3156 559 3463 722 
L 3463 178 
Q 3153 47 2828 -22 
Q 2503 -91 2169 -91 
Q 1331 -91 842 396 
Q 353 884 353 1716 
Q 353 2575 817 3079 
Q 1281 3584 2069 3584 
Q 2775 3584 3186 3129 
Q 3597 2675 3597 1894 
z
M 3022 2063 
Q 3016 2534 2758 2815 
Q 2500 3097 2075 3097 
Q 1594 3097 1305 2825 
Q 1016 2553 972 2059 
L 3022 2063 
z
" transform="scale(0.015625)"/>
       <path id="DejaVuSans-20" transform="scale(0.015625)"/>
       <path id="DejaVuSans-28" d="M 1984 4856 
Q 1566 4138 1362 3434 
Q 1159 2731 1159 2009 
Q 1159 1288 1364 580 
Q 1569 -128 1984 -844 
L 1484 -844 
Q 1016 -109 783 600 
Q 550 1309 550 2009 
Q 550 2706 781 3412 
Q 1013 4119 1484 4856 
L 1984 4856 
z
" transform="scale(0.015625)"/>
       <path id="DejaVuSans-64" d="M 2906 2969 
L 2906 4863 
L 3481 4863 
L 3481 0 
L 2906 0 
L 2906 525 
Q 2725 213 2448 61 
Q 2172 -91 1784 -91 
Q 1150 -91 751 415 
Q 353 922 353 1747 
Q 353 2572 751 3078 
Q 1150 3584 1784 3584 
Q 2172 3584 2448 3432 
Q 2725 3281 2906 2969 
z
M 947 1747 
Q 947 1113 1208 752 
Q 1469 391 1925 391 
Q 2381 391 2643 752 
Q 2906 1113 2906 1747 
Q 2906 2381 2643 2742 
Q 2381 3103 1925 3103 
Q 1469 3103 1208 2742 
Q 947 2381 947 1747 
z
" transform="scale(0.015625)"/>
       <path id="DejaVuSans-61" d="M 2194 1759 
Q 1497 1759 1228 1600 
Q 959 1441 959 1056 
Q 959 750 1161 570 
Q 1363 391 1709 391 
Q 2188 391 2477 730 
Q 2766 1069 2766 1631 
L 2766 1759 
L 2194 1759 
z
M 3341 1997 
L 3341 0 
L 2766 0 
L 2766 531 
Q 2569 213 2275 61 
Q 1981 -91 1556 -91 
Q 1019 -91 701 211 
Q 384 513 384 1019 
Q 384 1609 779 1909 
Q 1175 2209 1959 2209 
L 2766 2209 
L 2766 2266 
Q 2766 2663 2505 2880 
Q 2244 3097 1772 3097 
Q 1472 3097 1187 3025 
Q 903 2953 641 2809 
L 641 3341 
Q 956 3463 1253 3523 
Q 1550 3584 1831 3584 
Q 2591 3584 2966 3190 
Q 3341 2797 3341 1997 
z
" transform="scale(0.015625)"/>
       <path id="DejaVuSans-79" d="M 2059 -325 
Q 1816 -950 1584 -1140 
Q 1353 -1331 966 -1331 
L 506 -1331 
L 506 -850 
L 844 -850 
Q 1081 -850 1212 -737 
Q 1344 -625 1503 -206 
L 1606 56 
L 191 3500 
L 800 3500 
L 1894 763 
L 2988 3500 
L 3597 3500 
L 2059 -325 
z
" transform="scale(0.015625)"/>
       <path id="DejaVuSans-73" d="M 2834 3397 
L 2834 2853 
Q 2591 2978 2328 3040 
Q 2066 3103 1784 3103 
Q 1356 3103 1142 2972 
Q 928 2841 928 2578 
Q 928 2378 1081 2264 
Q 1234 2150 1697 2047 
L 1894 2003 
Q 2506 1872 2764 1633 
Q 3022 1394 3022 966 
Q 3022 478 2636 193 
Q 2250 -91 1575 -91 
Q 1294 -91 989 -36 
Q 684 19 347 128 
L 347 722 
Q 666 556 975 473 
Q 1284 391 1588 391 
Q 1994 391 2212 530 
Q 2431 669 2431 922 
Q 2431 1156 2273 1281 
Q 2116 1406 1581 1522 
L 1381 1569 
Q 847 1681 609 1914 
Q 372 2147 372 2553 
Q 372 3047 722 3315 
Q 1072 3584 1716 3584 
Q 2034 3584 2315 3537 
Q 2597 3491 2834 3397 
z
" transform="scale(0.015625)"/>
       <path id="DejaVuSans-29" d="M 513 4856 
L 1013 4856 
Q 1481 4119 1714 3412 
Q 1947 2706 1947 2009 
Q 1947 1309 1714 600 
Q 1481 -109 1013 -844 
L 513 -844 
Q 928 -128 1133 580 
Q 1338 1288 1338 2009 
Q 1338 2731 1133 3434 
Q 928 4138 513 4856 
z
" transform="scale(0.015625)"/>
      </defs>
      <use xlink:href="#DejaVuSans-54"/>
      <use xlink:href="#DejaVuSans-69" transform="translate(57.958984 0)"/>
      <use xlink:href="#DejaVuSans-6d" transform="translate(85.742188 0)"/>
      <use xlink:href="#DejaVuSans-65" transform="translate(183.154297 0)"/>
      <use xlink:href="#DejaVuSans-20" transform="translate(244.677734 0)"/>
      <use xlink:href="#DejaVuSans-28" transform="translate(276.464844 0)"/>
      <use xlink:href="#DejaVuSans-64" transform="translate(315.478516 0)"/>
      <use xlink:href="#DejaVuSans-61" transform="translate(378.955078 0)"/>
      <use xlink:href="#DejaVuSans-79" transform="translate(440.234375 0)"/>
      <use xlink:href="#DejaVuSans-73" transform="translate(499.414062 0)"/>
      <use xlink:href="#DejaVuSans-29" transform="translate(551.513672 0)"/>
     </g>
    </g>
   </g>
   <g id="matplotlib.axis_2">
    <g id="ytick_1">
     <g id="line2d_13">
      <path d="M 39.632812 178.36 
L 277.902813 178.36 
" clip-path="url(#pb13dd54231)" style="fill: none; stroke: #cccccc; stroke-opacity: 0.3; stroke-width: 0.5; stroke-linecap: round"/>
     </g>
     <g id="line2d_14">
      <defs>
       <path id="m3fcf361136" d="M 0 0 
L -3.5 0 
" style="stroke: #262626; stroke-width: 0.8"/>
      </defs>
      <g>
       <use xlink:href="#m3fcf361136" x="39.632812" y="178.36" style="fill: #262626; stroke: #262626; stroke-width: 0.8"/>
      </g>
     </g>
     <g id="text_8">
      <!-- 0.0 -->
      <g style="fill: #262626" transform="translate(19.910312 181.399375) scale(0.08 -0.08)">
       <defs>
        <path id="DejaVuSans-2e" d="M 684 794 
L 1344 794 
L 1344 0 
L 684 0 
L 684 794 
z
" transform="scale(0.015625)"/>
       </defs>
       <use xlink:href="#DejaVuSans-30"/>
       <use xlink:href="#DejaVuSans-2e" transform="translate(63.623047 0)"/>
       <use xlink:href="#DejaVuSans-30" transform="translate(95.410156 0)"/>
      </g>
     </g>
    </g>
    <g id="ytick_2">
     <g id="line2d_15">
      <path d="M 39.632812 145.758095 
L 277.902813 145.758095 
" clip-path="url(#pb13dd54231)" style="fill: none; stroke: #cccccc; stroke-opacity: 0.3; stroke-width: 0.5; stroke-linecap: round"/>
     </g>
     <g id="line2d_16">
      <g>
       <use xlink:href="#m3fcf361136" x="39.632812" y="145.758095" style="fill: #262626; stroke: #262626; stroke-width: 0.8"/>
      </g>
     </g>
     <g id="text_9">
      <!-- 0.2 -->
      <g style="fill: #262626" transform="translate(19.910312 148.79747) scale(0.08 -0.08)">
       <use xlink:href="#DejaVuSans-30"/>
       <use xlink:href="#DejaVuSans-2e" transform="translate(63.623047 0)"/>
       <use xlink:href="#DejaVuSans-32" transform="translate(95.410156 0)"/>
      </g>
     </g>
    </g>
    <g id="ytick_3">
     <g id="line2d_17">
      <path d="M 39.632812 113.15619 
L 277.902813 113.15619 
" clip-path="url(#pb13dd54231)" style="fill: none; stroke: #cccccc; stroke-opacity: 0.3; stroke-width: 0.5; stroke-linecap: round"/>
     </g>
     <g id="line2d_18">
      <g>
       <use xlink:href="#m3fcf361136" x="39.632812" y="113.15619" style="fill: #262626; stroke: #262626; stroke-width: 0.8"/>
      </g>
     </g>
     <g id="text_10">
      <!-- 0.4 -->
      <g style="fill: #262626" transform="translate(19.910312 116.195565) scale(0.08 -0.08)">
       <use xlink:href="#DejaVuSans-30"/>
       <use xlink:href="#DejaVuSans-2e" transform="translate(63.623047 0)"/>
       <use xlink:href="#DejaVuSans-34" transform="translate(95.410156 0)"/>
      </g>
     </g>
    </g>
    <g id="ytick_4">
     <g id="line2d_19">
      <path d="M 39.632812 80.554286 
L 277.902813 80.554286 
" clip-path="url(#pb13dd54231)" style="fill: none; stroke: #cccccc; stroke-opacity: 0.3; stroke-width: 0.5; stroke-linecap: round"/>
     </g>
     <g id="line2d_20">
      <g>
       <use xlink:href="#m3fcf361136" x="39.632812" y="80.554286" style="fill: #262626; stroke: #262626; stroke-width: 0.8"/>
      </g>
     </g>
     <g id="text_11">
      <!-- 0.6 -->
      <g style="fill: #262626" transform="translate(19.910312 83.593661) scale(0.08 -0.08)">
       <defs>
        <path id="DejaVuSans-36" d="M 2113 2584 
Q 1688 2584 1439 2293 
Q 1191 2003 1191 1497 
Q 1191 994 1439 701 
Q 1688 409 2113 409 
Q 2538 409 2786 701 
Q 3034 994 3034 1497 
Q 3034 2003 2786 2293 
Q 2538 2584 2113 2584 
z
M 3366 4563 
L 3366 3988 
Q 3128 4100 2886 4159 
Q 2644 4219 2406 4219 
Q 1781 4219 1451 3797 
Q 1122 3375 1075 2522 
Q 1259 2794 1537 2939 
Q 1816 3084 2150 3084 
Q 2853 3084 3261 2657 
Q 3669 2231 3669 1497 
Q 3669 778 3244 343 
Q 2819 -91 2113 -91 
Q 1303 -91 875 529 
Q 447 1150 447 2328 
Q 447 3434 972 4092 
Q 1497 4750 2381 4750 
Q 2619 4750 2861 4703 
Q 3103 4656 3366 4563 
z
" transform="scale(0.015625)"/>
       </defs>
       <use xlink:href="#DejaVuSans-30"/>
       <use xlink:href="#DejaVuSans-2e" transform="translate(63.623047 0)"/>
       <use xlink:href="#DejaVuSans-36" transform="translate(95.410156 0)"/>
      </g>
     </g>
    </g>
    <g id="ytick_5">
     <g id="line2d_21">
      <path d="M 39.632812 47.952381 
L 277.902813 47.952381 
" clip-path="url(#pb13dd54231)" style="fill: none; stroke: #cccccc; stroke-opacity: 0.3; stroke-width: 0.5; stroke-linecap: round"/>
     </g>
     <g id="line2d_22">
      <g>
       <use xlink:href="#m3fcf361136" x="39.632812" y="47.952381" style="fill: #262626; stroke: #262626; stroke-width: 0.8"/>
      </g>
     </g>
     <g id="text_12">
      <!-- 0.8 -->
      <g style="fill: #262626" transform="translate(19.910312 50.991756) scale(0.08 -0.08)">
       <defs>
        <path id="DejaVuSans-38" d="M 2034 2216 
Q 1584 2216 1326 1975 
Q 1069 1734 1069 1313 
Q 1069 891 1326 650 
Q 1584 409 2034 409 
Q 2484 409 2743 651 
Q 3003 894 3003 1313 
Q 3003 1734 2745 1975 
Q 2488 2216 2034 2216 
z
M 1403 2484 
Q 997 2584 770 2862 
Q 544 3141 544 3541 
Q 544 4100 942 4425 
Q 1341 4750 2034 4750 
Q 2731 4750 3128 4425 
Q 3525 4100 3525 3541 
Q 3525 3141 3298 2862 
Q 3072 2584 2669 2484 
Q 3125 2378 3379 2068 
Q 3634 1759 3634 1313 
Q 3634 634 3220 271 
Q 2806 -91 2034 -91 
Q 1263 -91 848 271 
Q 434 634 434 1313 
Q 434 1759 690 2068 
Q 947 2378 1403 2484 
z
M 1172 3481 
Q 1172 3119 1398 2916 
Q 1625 2713 2034 2713 
Q 2441 2713 2670 2916 
Q 2900 3119 2900 3481 
Q 2900 3844 2670 4047 
Q 2441 4250 2034 4250 
Q 1625 4250 1398 4047 
Q 1172 3844 1172 3481 
z
" transform="scale(0.015625)"/>
       </defs>
       <use xlink:href="#DejaVuSans-30"/>
       <use xlink:href="#DejaVuSans-2e" transform="translate(63.623047 0)"/>
       <use xlink:href="#DejaVuSans-38" transform="translate(95.410156 0)"/>
      </g>
     </g>
    </g>
    <g id="ytick_6">
     <g id="line2d_23">
      <path d="M 39.632812 15.350476 
L 277.902813 15.350476 
" clip-path="url(#pb13dd54231)" style="fill: none; stroke: #cccccc; stroke-opacity: 0.3; stroke-width: 0.5; stroke-linecap: round"/>
     </g>
     <g id="line2d_24">
      <g>
       <use xlink:href="#m3fcf361136" x="39.632812" y="15.350476" style="fill: #262626; stroke: #262626; stroke-width: 0.8"/>
      </g>
     </g>
     <g id="text_13">
      <!-- 1.0 -->
      <g style="fill: #262626" transform="translate(19.910312 18.389851) scale(0.08 -0.08)">
       <use xlink:href="#DejaVuSans-31"/>
       <use xlink:href="#DejaVuSans-2e" transform="translate(63.623047 0)"/>
       <use xlink:href="#DejaVuSans-30" transform="translate(95.410156 0)"/>
      </g>
     </g>
    </g>
    <g id="text_14">
     <!-- Survival probability -->
     <g style="fill: #262626" transform="translate(14.038594 136.361797) rotate(-90) scale(0.09 -0.09)">
      <defs>
       <path id="DejaVuSans-53" d="M 3425 4513 
L 3425 3897 
Q 3066 4069 2747 4153 
Q 2428 4238 2131 4238 
Q 1616 4238 1336 4038 
Q 1056 3838 1056 3469 
Q 1056 3159 1242 3001 
Q 1428 2844 1947 2747 
L 2328 2669 
Q 3034 2534 3370 2195 
Q 3706 1856 3706 1288 
Q 3706 609 3251 259 
Q 2797 -91 1919 -91 
Q 1588 -91 1214 -16 
Q 841 59 441 206 
L 441 856 
Q 825 641 1194 531 
Q 1563 422 1919 422 
Q 2459 422 2753 634 
Q 3047 847 3047 1241 
Q 3047 1584 2836 1778 
Q 2625 1972 2144 2069 
L 1759 2144 
Q 1053 2284 737 2584 
Q 422 2884 422 3419 
Q 422 4038 858 4394 
Q 1294 4750 2059 4750 
Q 2388 4750 2728 4690 
Q 3069 4631 3425 4513 
z
" transform="scale(0.015625)"/>
       <path id="DejaVuSans-75" d="M 544 1381 
L 544 3500 
L 1119 3500 
L 1119 1403 
Q 1119 906 1312 657 
Q 1506 409 1894 409 
Q 2359 409 2629 706 
Q 2900 1003 2900 1516 
L 2900 3500 
L 3475 3500 
L 3475 0 
L 2900 0 
L 2900 538 
Q 2691 219 2414 64 
Q 2138 -91 1772 -91 
Q 1169 -91 856 284 
Q 544 659 544 1381 
z
M 1991 3584 
L 1991 3584 
z
" transform="scale(0.015625)"/>
       <path id="DejaVuSans-72" d="M 2631 2963 
Q 2534 3019 2420 3045 
Q 2306 3072 2169 3072 
Q 1681 3072 1420 2755 
Q 1159 2438 1159 1844 
L 1159 0 
L 581 0 
L 581 3500 
L 1159 3500 
L 1159 2956 
Q 1341 3275 1631 3429 
Q 1922 3584 2338 3584 
Q 2397 3584 2469 3576 
Q 2541 3569 2628 3553 
L 2631 2963 
z
" transform="scale(0.015625)"/>
       <path id="DejaVuSans-76" d="M 191 3500 
L 800 3500 
L 1894 563 
L 2988 3500 
L 3597 3500 
L 2284 0 
L 1503 0 
L 191 3500 
z
" transform="scale(0.015625)"/>
       <path id="DejaVuSans-6c" d="M 603 4863 
L 1178 4863 
L 1178 0 
L 603 0 
L 603 4863 
z
" transform="scale(0.015625)"/>
       <path id="DejaVuSans-70" d="M 1159 525 
L 1159 -1331 
L 581 -1331 
L 581 3500 
L 1159 3500 
L 1159 2969 
Q 1341 3281 1617 3432 
Q 1894 3584 2278 3584 
Q 2916 3584 3314 3078 
Q 3713 2572 3713 1747 
Q 3713 922 3314 415 
Q 2916 -91 2278 -91 
Q 1894 -91 1617 61 
Q 1341 213 1159 525 
z
M 3116 1747 
Q 3116 2381 2855 2742 
Q 2594 3103 2138 3103 
Q 1681 3103 1420 2742 
Q 1159 2381 1159 1747 
Q 1159 1113 1420 752 
Q 1681 391 2138 391 
Q 2594 391 2855 752 
Q 3116 1113 3116 1747 
z
" transform="scale(0.015625)"/>
       <path id="DejaVuSans-6f" d="M 1959 3097 
Q 1497 3097 1228 2736 
Q 959 2375 959 1747 
Q 959 1119 1226 758 
Q 1494 397 1959 397 
Q 2419 397 2687 759 
Q 2956 1122 2956 1747 
Q 2956 2369 2687 2733 
Q 2419 3097 1959 3097 
z
M 1959 3584 
Q 2709 3584 3137 3096 
Q 3566 2609 3566 1747 
Q 3566 888 3137 398 
Q 2709 -91 1959 -91 
Q 1206 -91 779 398 
Q 353 888 353 1747 
Q 353 2609 779 3096 
Q 1206 3584 1959 3584 
z
" transform="scale(0.015625)"/>
       <path id="DejaVuSans-62" d="M 3116 1747 
Q 3116 2381 2855 2742 
Q 2594 3103 2138 3103 
Q 1681 3103 1420 2742 
Q 1159 2381 1159 1747 
Q 1159 1113 1420 752 
Q 1681 391 2138 391 
Q 2594 391 2855 752 
Q 3116 1113 3116 1747 
z
M 1159 2969 
Q 1341 3281 1617 3432 
Q 1894 3584 2278 3584 
Q 2916 3584 3314 3078 
Q 3713 2572 3713 1747 
Q 3713 922 3314 415 
Q 2916 -91 2278 -91 
Q 1894 -91 1617 61 
Q 1341 213 1159 525 
L 1159 0 
L 581 0 
L 581 4863 
L 1159 4863 
L 1159 2969 
z
" transform="scale(0.015625)"/>
       <path id="DejaVuSans-74" d="M 1172 4494 
L 1172 3500 
L 2356 3500 
L 2356 3053 
L 1172 3053 
L 1172 1153 
Q 1172 725 1289 603 
Q 1406 481 1766 481 
L 2356 481 
L 2356 0 
L 1766 0 
Q 1100 0 847 248 
Q 594 497 594 1153 
L 594 3053 
L 172 3053 
L 172 3500 
L 594 3500 
L 594 4494 
L 1172 4494 
z
" transform="scale(0.015625)"/>
      </defs>
      <use xlink:href="#DejaVuSans-53"/>
      <use xlink:href="#DejaVuSans-75" transform="translate(63.476562 0)"/>
      <use xlink:href="#DejaVuSans-72" transform="translate(126.855469 0)"/>
      <use xlink:href="#DejaVuSans-76" transform="translate(167.96875 0)"/>
      <use xlink:href="#DejaVuSans-69" transform="translate(227.148438 0)"/>
      <use xlink:href="#DejaVuSans-76" transform="translate(254.931641 0)"/>
      <use xlink:href="#DejaVuSans-61" transform="translate(314.111328 0)"/>
      <use xlink:href="#DejaVuSans-6c" transform="translate(375.390625 0)"/>
      <use xlink:href="#DejaVuSans-20" transform="translate(403.173828 0)"/>
      <use xlink:href="#DejaVuSans-70" transform="translate(434.960938 0)"/>
      <use xlink:href="#DejaVuSans-72" transform="translate(498.4375 0)"/>
      <use xlink:href="#DejaVuSans-6f" transform="translate(537.300781 0)"/>
      <use xlink:href="#DejaVuSans-62" transform="translate(598.482422 0)"/>
      <use xlink:href="#DejaVuSans-61" transform="translate(661.958984 0)"/>
      <use xlink:href="#DejaVuSans-62" transform="translate(723.238281 0)"/>
      <use xlink:href="#DejaVuSans-69" transform="translate(786.714844 0)"/>
      <use xlink:href="#DejaVuSans-6c" transform="translate(814.498047 0)"/>
      <use xlink:href="#DejaVuSans-69" transform="translate(842.28125 0)"/>
      <use xlink:href="#DejaVuSans-74" transform="translate(870.064453 0)"/>
      <use xlink:href="#DejaVuSans-79" transform="translate(909.273438 0)"/>
     </g>
    </g>
   </g>
   <g id="FillBetweenPolyCollection_1">
    <defs>
     <path id="m599018c72f" d="M 39.632812 -197.550091 
L 39.632812 -192.100649 
L 40.306437 -192.100649 
L 40.306437 -192.100649 
L 40.530979 -192.100649 
L 40.530979 -192.100649 
L 41.204603 -192.100649 
L 41.204603 -192.100649 
L 41.29442 -192.100649 
L 41.29442 -192.100649 
L 42.147678 -192.100649 
L 42.147678 -191.317357 
L 42.506944 -191.317357 
L 42.506944 -191.317357 
L 42.686577 -191.317357 
L 42.686577 -191.317357 
L 43.315294 -191.317357 
L 43.315294 -191.317357 
L 43.629652 -191.317357 
L 43.629652 -191.317357 
L 43.899102 -191.317357 
L 43.899102 -191.317357 
L 44.572726 -191.317357 
L 44.572726 -191.317357 
L 44.887084 -191.317357 
L 44.887084 -191.317357 
L 45.425984 -191.317357 
L 45.425984 -191.317357 
L 46.952866 -191.317357 
L 46.952866 -191.317357 
L 48.030666 -191.317357 
L 48.030666 -191.317357 
L 48.120482 -191.317357 
L 48.120482 -191.317357 
L 49.198282 -191.317357 
L 49.198282 -190.108637 
L 51.039522 -190.108637 
L 51.039522 -188.916169 
L 52.027505 -188.916169 
L 52.027505 -188.916169 
L 52.790946 -188.916169 
L 52.790946 -188.916169 
L 54.587278 -188.916169 
L 54.587278 -188.916169 
L 54.766912 -188.916169 
L 54.766912 -188.916169 
L 55.754894 -188.916169 
L 55.754894 -188.916169 
L 55.979436 -188.916169 
L 55.979436 -188.916169 
L 56.024344 -188.916169 
L 56.024344 -188.916169 
L 56.069253 -188.916169 
L 56.069253 -188.916169 
L 56.203977 -188.916169 
L 56.203977 -188.916169 
L 56.338702 -188.916169 
L 56.338702 -188.916169 
L 56.383611 -188.916169 
L 56.383611 -188.916169 
L 56.563244 -188.916169 
L 56.563244 -188.916169 
L 56.653061 -188.916169 
L 56.653061 -188.916169 
L 56.787785 -188.916169 
L 56.787785 -188.916169 
L 56.832694 -188.916169 
L 56.832694 -188.916169 
L 56.877602 -188.916169 
L 56.877602 -188.916169 
L 57.102144 -188.916169 
L 57.102144 -188.916169 
L 57.326685 -188.916169 
L 57.326685 -188.916169 
L 57.551227 -188.916169 
L 57.551227 -188.916169 
L 58.045218 -188.916169 
L 58.045218 -188.916169 
L 58.26976 -188.916169 
L 58.26976 -188.916169 
L 58.404484 -188.916169 
L 58.404484 -187.424157 
L 58.853568 -187.424157 
L 58.853568 -187.424157 
L 60.155908 -187.424157 
L 60.155908 -187.424157 
L 60.560083 -187.424157 
L 60.560083 -187.424157 
L 60.604991 -187.424157 
L 60.604991 -187.424157 
L 60.694808 -187.424157 
L 60.694808 -187.424157 
L 60.91935 -187.424157 
L 60.91935 -187.424157 
L 60.964258 -187.424157 
L 60.964258 -187.424157 
L 61.054075 -187.424157 
L 61.054075 -187.424157 
L 61.233708 -187.424157 
L 61.233708 -187.424157 
L 61.413341 -187.424157 
L 61.413341 -187.424157 
L 61.682791 -187.424157 
L 61.682791 -187.424157 
L 61.862424 -187.424157 
L 61.862424 -187.424157 
L 62.22169 -187.424157 
L 62.22169 -187.424157 
L 62.401324 -187.424157 
L 62.401324 -187.424157 
L 62.446232 -187.424157 
L 62.446232 -187.424157 
L 62.625865 -187.424157 
L 62.625865 -187.424157 
L 63.074948 -187.424157 
L 63.074948 -187.424157 
L 63.164765 -187.424157 
L 63.164765 -187.424157 
L 63.434215 -187.424157 
L 63.434215 -185.68633 
L 63.703665 -185.68633 
L 63.703665 -185.68633 
L 63.83839 -185.68633 
L 63.83839 -185.68633 
L 63.883298 -185.68633 
L 63.883298 -185.68633 
L 63.973114 -185.68633 
L 63.973114 -185.68633 
L 64.062931 -185.68633 
L 64.062931 -183.981587 
L 64.152748 -183.981587 
L 64.152748 -183.981587 
L 64.781464 -183.981587 
L 64.781464 -183.981587 
L 64.871281 -183.981587 
L 64.871281 -183.981587 
L 65.320364 -183.981587 
L 65.320364 -183.981587 
L 65.365272 -183.981587 
L 65.365272 -183.981587 
L 65.589813 -183.981587 
L 65.589813 -183.981587 
L 65.67963 -183.981587 
L 65.67963 -183.981587 
L 65.724538 -183.981587 
L 65.724538 -183.981587 
L 65.769447 -183.981587 
L 65.769447 -183.981587 
L 66.038897 -183.981587 
L 66.038897 -183.981587 
L 66.128713 -183.981587 
L 66.128713 -183.981587 
L 66.712521 -183.981587 
L 66.712521 -183.981587 
L 67.026879 -183.981587 
L 67.026879 -183.981587 
L 67.386146 -183.981587 
L 67.386146 -183.981587 
L 68.05977 -183.981587 
L 68.05977 -183.981587 
L 68.194495 -183.981587 
L 68.194495 -183.981587 
L 68.284312 -183.981587 
L 68.284312 -183.981587 
L 68.374128 -183.981587 
L 68.374128 -183.981587 
L 68.419037 -183.981587 
L 68.419037 -183.981587 
L 68.463945 -183.981587 
L 68.463945 -183.981587 
L 68.643578 -183.981587 
L 68.643578 -183.981587 
L 68.733395 -183.981587 
L 68.733395 -183.981587 
L 68.778303 -183.981587 
L 68.778303 -183.981587 
L 68.86812 -183.981587 
L 68.86812 -181.780846 
L 71.023719 -181.780846 
L 71.023719 -181.780846 
L 71.068627 -181.780846 
L 71.068627 -181.780846 
L 72.460784 -181.780846 
L 72.460784 -181.780846 
L 72.595509 -181.780846 
L 72.595509 -179.635113 
L 73.314042 -179.635113 
L 73.314042 -179.635113 
L 73.673309 -179.635113 
L 73.673309 -179.635113 
L 73.808033 -179.635113 
L 73.808033 -179.635113 
L 74.346933 -179.635113 
L 74.346933 -179.635113 
L 74.796016 -179.635113 
L 74.796016 -179.635113 
L 75.065466 -179.635113 
L 75.065466 -179.635113 
L 75.514549 -179.635113 
L 75.514549 -179.635113 
L 76.098357 -179.635113 
L 76.098357 -179.635113 
L 76.143265 -179.635113 
L 76.143265 -179.635113 
L 76.457624 -179.635113 
L 76.457624 -179.635113 
L 76.996523 -179.635113 
L 76.996523 -179.635113 
L 77.445606 -179.635113 
L 77.445606 -179.635113 
L 77.849781 -179.635113 
L 77.849781 -179.635113 
L 78.433589 -179.635113 
L 78.433589 -177.154109 
L 79.46648 -177.154109 
L 79.46648 -177.154109 
L 79.73593 -177.154109 
L 79.73593 -177.154109 
L 79.915563 -177.154109 
L 79.915563 -177.154109 
L 80.00538 -177.154109 
L 80.00538 -177.154109 
L 80.229921 -177.154109 
L 80.229921 -174.605567 
L 80.319738 -174.605567 
L 80.319738 -174.605567 
L 82.071162 -174.605567 
L 82.071162 -174.605567 
L 82.250795 -174.605567 
L 82.250795 -172.093465 
L 84.406394 -172.093465 
L 84.406394 -172.093465 
L 84.675844 -172.093465 
L 84.675844 -172.093465 
L 84.720752 -172.093465 
L 84.720752 -169.593273 
L 85.84346 -169.593273 
L 85.84346 -169.593273 
L 86.696717 -169.593273 
L 86.696717 -169.593273 
L 87.774517 -169.593273 
L 87.774517 -169.593273 
L 87.999058 -169.593273 
L 87.999058 -167.041123 
L 88.582866 -167.041123 
L 88.582866 -167.041123 
L 88.762499 -167.041123 
L 88.762499 -167.041123 
L 89.391216 -167.041123 
L 89.391216 -167.041123 
L 89.481032 -167.041123 
L 89.481032 -167.041123 
L 89.705574 -167.041123 
L 89.705574 -167.041123 
L 90.244474 -167.041123 
L 90.244474 -167.041123 
L 92.355164 -167.041123 
L 92.355164 -167.041123 
L 92.669522 -167.041123 
L 92.669522 -167.041123 
L 92.894064 -167.041123 
L 92.894064 -167.041123 
L 94.376038 -167.041123 
L 94.376038 -167.041123 
L 99.181226 -167.041123 
L 99.181226 -167.041123 
L 100.259026 -167.041123 
L 100.259026 -167.041123 
L 103.537332 -167.041123 
L 103.537332 -163.881212 
L 104.92949 -163.881212 
L 104.92949 -163.881212 
L 104.974398 -163.881212 
L 104.974398 -163.881212 
L 105.198939 -163.881212 
L 105.198939 -163.881212 
L 106.052197 -163.881212 
L 106.052197 -163.881212 
L 107.983254 -163.881212 
L 107.983254 -163.881212 
L 108.297613 -163.881212 
L 108.297613 -163.881212 
L 108.701787 -163.881212 
L 108.701787 -163.881212 
L 108.881421 -163.881212 
L 108.881421 -163.881212 
L 109.734678 -163.881212 
L 109.734678 -163.881212 
L 110.677753 -163.881212 
L 110.677753 -163.881212 
L 111.665736 -163.881212 
L 111.665736 -163.881212 
L 112.429177 -163.881212 
L 112.429177 -163.881212 
L 113.237526 -163.881212 
L 113.237526 -163.881212 
L 113.686609 -163.881212 
L 113.686609 -163.881212 
L 114.629684 -163.881212 
L 114.629684 -159.537681 
L 116.336199 -159.537681 
L 116.336199 -159.537681 
L 116.605649 -159.537681 
L 116.605649 -159.537681 
L 116.785282 -159.537681 
L 116.785282 -155.203576 
L 118.71634 -155.203576 
L 118.71634 -155.203576 
L 119.839047 -155.203576 
L 119.839047 -155.203576 
L 120.108497 -155.203576 
L 120.108497 -155.203576 
L 120.647397 -155.203576 
L 120.647397 -150.674102 
L 120.737213 -150.674102 
L 120.737213 -150.674102 
L 121.815013 -150.674102 
L 121.815013 -150.674102 
L 122.488637 -150.674102 
L 122.488637 -150.674102 
L 123.566437 -150.674102 
L 123.566437 -145.880907 
L 124.240061 -145.880907 
L 124.240061 -145.880907 
L 127.069285 -145.880907 
L 127.069285 -145.880907 
L 127.159101 -145.880907 
L 127.159101 -145.880907 
L 127.293826 -145.880907 
L 127.293826 -145.880907 
L 128.147084 -145.880907 
L 128.147084 -140.520027 
L 129.808691 -140.520027 
L 129.808691 -140.520027 
L 129.8536 -140.520027 
L 129.8536 -140.520027 
L 130.347591 -140.520027 
L 130.347591 -134.959304 
L 130.527224 -134.959304 
L 130.527224 -134.959304 
L 130.661949 -134.959304 
L 130.661949 -134.959304 
L 131.42539 -134.959304 
L 131.42539 -134.959304 
L 131.649932 -134.959304 
L 131.649932 -134.959304 
L 135.691679 -134.959304 
L 135.691679 -134.959304 
L 142.607559 -134.959304 
L 142.607559 -134.959304 
L 143.460816 -134.959304 
L 143.460816 -134.959304 
L 145.257149 -134.959304 
L 145.257149 -134.959304 
L 146.514581 -134.959304 
L 146.514581 -134.959304 
L 148.445638 -134.959304 
L 148.445638 -134.959304 
L 157.517116 -134.959304 
L 157.517116 -134.959304 
L 158.235649 -134.959304 
L 158.235649 -123.673936 
L 158.909274 -123.673936 
L 158.909274 -123.673936 
L 161.019964 -123.673936 
L 161.019964 -123.673936 
L 164.926987 -123.673936 
L 164.926987 -123.673936 
L 166.633502 -123.673936 
L 166.633502 -110.479952 
L 168.429835 -110.479952 
L 168.429835 -110.479952 
L 169.238184 -110.479952 
L 169.238184 -110.479952 
L 172.741032 -110.479952 
L 172.741032 -110.479952 
L 182.575951 -110.479952 
L 182.575951 -93.586631 
L 190.704354 -93.586631 
L 190.704354 -93.586631 
L 193.21922 -93.586631 
L 193.21922 -93.586631 
L 193.758119 -93.586631 
L 193.758119 -93.586631 
L 211.047817 -93.586631 
L 211.047817 -93.586631 
L 218.412779 -93.586631 
L 218.412779 -93.586631 
L 262.692369 -93.586631 
L 262.692369 -93.586631 
L 266.015584 -93.586631 
L 266.015584 -93.586631 
L 266.419759 -93.586631 
L 266.419759 -93.586631 
L 266.419759 -155.483876 
L 266.419759 -155.483876 
L 266.419759 -155.483876 
L 266.015584 -155.483876 
L 266.015584 -155.483876 
L 262.692369 -155.483876 
L 262.692369 -155.483876 
L 218.412779 -155.483876 
L 218.412779 -155.483876 
L 211.047817 -155.483876 
L 211.047817 -155.483876 
L 193.758119 -155.483876 
L 193.758119 -155.483876 
L 193.21922 -155.483876 
L 193.21922 -155.483876 
L 190.704354 -155.483876 
L 190.704354 -155.483876 
L 182.575951 -155.483876 
L 182.575951 -162.079602 
L 172.741032 -162.079602 
L 172.741032 -162.079602 
L 169.238184 -162.079602 
L 169.238184 -162.079602 
L 168.429835 -162.079602 
L 168.429835 -162.079602 
L 166.633502 -162.079602 
L 166.633502 -167.146402 
L 164.926987 -167.146402 
L 164.926987 -167.146402 
L 161.019964 -167.146402 
L 161.019964 -167.146402 
L 158.909274 -167.146402 
L 158.909274 -167.146402 
L 158.235649 -167.146402 
L 158.235649 -171.167992 
L 157.517116 -171.167992 
L 157.517116 -171.167992 
L 148.445638 -171.167992 
L 148.445638 -171.167992 
L 146.514581 -171.167992 
L 146.514581 -171.167992 
L 145.257149 -171.167992 
L 145.257149 -171.167992 
L 143.460816 -171.167992 
L 143.460816 -171.167992 
L 142.607559 -171.167992 
L 142.607559 -171.167992 
L 135.691679 -171.167992 
L 135.691679 -171.167992 
L 131.649932 -171.167992 
L 131.649932 -171.167992 
L 131.42539 -171.167992 
L 131.42539 -171.167992 
L 130.661949 -171.167992 
L 130.661949 -171.167992 
L 130.527224 -171.167992 
L 130.527224 -171.167992 
L 130.347591 -171.167992 
L 130.347591 -174.102281 
L 129.8536 -174.102281 
L 129.8536 -174.102281 
L 129.808691 -174.102281 
L 129.808691 -174.102281 
L 128.147084 -174.102281 
L 128.147084 -176.797481 
L 127.293826 -176.797481 
L 127.293826 -176.797481 
L 127.159101 -176.797481 
L 127.159101 -176.797481 
L 127.069285 -176.797481 
L 127.069285 -176.797481 
L 124.240061 -176.797481 
L 124.240061 -176.797481 
L 123.566437 -176.797481 
L 123.566437 -179.206193 
L 122.488637 -179.206193 
L 122.488637 -179.206193 
L 121.815013 -179.206193 
L 121.815013 -179.206193 
L 120.737213 -179.206193 
L 120.737213 -179.206193 
L 120.647397 -179.206193 
L 120.647397 -181.407065 
L 120.108497 -181.407065 
L 120.108497 -181.407065 
L 119.839047 -181.407065 
L 119.839047 -181.407065 
L 118.71634 -181.407065 
L 118.71634 -181.407065 
L 116.785282 -181.407065 
L 116.785282 -183.421762 
L 116.605649 -183.421762 
L 116.605649 -183.421762 
L 116.336199 -183.421762 
L 116.336199 -183.421762 
L 114.629684 -183.421762 
L 114.629684 -185.281539 
L 113.686609 -185.281539 
L 113.686609 -185.281539 
L 113.237526 -185.281539 
L 113.237526 -185.281539 
L 112.429177 -185.281539 
L 112.429177 -185.281539 
L 111.665736 -185.281539 
L 111.665736 -185.281539 
L 110.677753 -185.281539 
L 110.677753 -185.281539 
L 109.734678 -185.281539 
L 109.734678 -185.281539 
L 108.881421 -185.281539 
L 108.881421 -185.281539 
L 108.701787 -185.281539 
L 108.701787 -185.281539 
L 108.297613 -185.281539 
L 108.297613 -185.281539 
L 107.983254 -185.281539 
L 107.983254 -185.281539 
L 106.052197 -185.281539 
L 106.052197 -185.281539 
L 105.198939 -185.281539 
L 105.198939 -185.281539 
L 104.974398 -185.281539 
L 104.974398 -185.281539 
L 104.92949 -185.281539 
L 104.92949 -185.281539 
L 103.537332 -185.281539 
L 103.537332 -186.81654 
L 100.259026 -186.81654 
L 100.259026 -186.81654 
L 99.181226 -186.81654 
L 99.181226 -186.81654 
L 94.376038 -186.81654 
L 94.376038 -186.81654 
L 92.894064 -186.81654 
L 92.894064 -186.81654 
L 92.669522 -186.81654 
L 92.669522 -186.81654 
L 92.355164 -186.81654 
L 92.355164 -186.81654 
L 90.244474 -186.81654 
L 90.244474 -186.81654 
L 89.705574 -186.81654 
L 89.705574 -186.81654 
L 89.481032 -186.81654 
L 89.481032 -186.81654 
L 89.391216 -186.81654 
L 89.391216 -186.81654 
L 88.762499 -186.81654 
L 88.762499 -186.81654 
L 88.582866 -186.81654 
L 88.582866 -186.81654 
L 87.999058 -186.81654 
L 87.999058 -188.145801 
L 87.774517 -188.145801 
L 87.774517 -188.145801 
L 86.696717 -188.145801 
L 86.696717 -188.145801 
L 85.84346 -188.145801 
L 85.84346 -188.145801 
L 84.720752 -188.145801 
L 84.720752 -189.40167 
L 84.675844 -189.40167 
L 84.675844 -189.40167 
L 84.406394 -189.40167 
L 84.406394 -189.40167 
L 82.250795 -189.40167 
L 82.250795 -190.594321 
L 82.071162 -190.594321 
L 82.071162 -190.594321 
L 80.319738 -190.594321 
L 80.319738 -190.594321 
L 80.229921 -190.594321 
L 80.229921 -191.720415 
L 80.00538 -191.720415 
L 80.00538 -191.720415 
L 79.915563 -191.720415 
L 79.915563 -191.720415 
L 79.73593 -191.720415 
L 79.73593 -191.720415 
L 79.46648 -191.720415 
L 79.46648 -191.720415 
L 78.433589 -191.720415 
L 78.433589 -192.755741 
L 77.849781 -192.755741 
L 77.849781 -192.755741 
L 77.445606 -192.755741 
L 77.445606 -192.755741 
L 76.996523 -192.755741 
L 76.996523 -192.755741 
L 76.457624 -192.755741 
L 76.457624 -192.755741 
L 76.143265 -192.755741 
L 76.143265 -192.755741 
L 76.098357 -192.755741 
L 76.098357 -192.755741 
L 75.514549 -192.755741 
L 75.514549 -192.755741 
L 75.065466 -192.755741 
L 75.065466 -192.755741 
L 74.796016 -192.755741 
L 74.796016 -192.755741 
L 74.346933 -192.755741 
L 74.346933 -192.755741 
L 73.808033 -192.755741 
L 73.808033 -192.755741 
L 73.673309 -192.755741 
L 73.673309 -192.755741 
L 73.314042 -192.755741 
L 73.314042 -192.755741 
L 72.595509 -192.755741 
L 72.595509 -193.663323 
L 72.460784 -193.663323 
L 72.460784 -193.663323 
L 71.068627 -193.663323 
L 71.068627 -193.663323 
L 71.023719 -193.663323 
L 71.023719 -193.663323 
L 68.86812 -193.663323 
L 68.86812 -194.504695 
L 68.778303 -194.504695 
L 68.778303 -194.504695 
L 68.733395 -194.504695 
L 68.733395 -194.504695 
L 68.643578 -194.504695 
L 68.643578 -194.504695 
L 68.463945 -194.504695 
L 68.463945 -194.504695 
L 68.419037 -194.504695 
L 68.419037 -194.504695 
L 68.374128 -194.504695 
L 68.374128 -194.504695 
L 68.284312 -194.504695 
L 68.284312 -194.504695 
L 68.194495 -194.504695 
L 68.194495 -194.504695 
L 68.05977 -194.504695 
L 68.05977 -194.504695 
L 67.386146 -194.504695 
L 67.386146 -194.504695 
L 67.026879 -194.504695 
L 67.026879 -194.504695 
L 66.712521 -194.504695 
L 66.712521 -194.504695 
L 66.128713 -194.504695 
L 66.128713 -194.504695 
L 66.038897 -194.504695 
L 66.038897 -194.504695 
L 65.769447 -194.504695 
L 65.769447 -194.504695 
L 65.724538 -194.504695 
L 65.724538 -194.504695 
L 65.67963 -194.504695 
L 65.67963 -194.504695 
L 65.589813 -194.504695 
L 65.589813 -194.504695 
L 65.365272 -194.504695 
L 65.365272 -194.504695 
L 65.320364 -194.504695 
L 65.320364 -194.504695 
L 64.871281 -194.504695 
L 64.871281 -194.504695 
L 64.781464 -194.504695 
L 64.781464 -194.504695 
L 64.152748 -194.504695 
L 64.152748 -194.504695 
L 64.062931 -194.504695 
L 64.062931 -195.207365 
L 63.973114 -195.207365 
L 63.973114 -195.207365 
L 63.883298 -195.207365 
L 63.883298 -195.207365 
L 63.83839 -195.207365 
L 63.83839 -195.207365 
L 63.703665 -195.207365 
L 63.703665 -195.207365 
L 63.434215 -195.207365 
L 63.434215 -195.852517 
L 63.164765 -195.852517 
L 63.164765 -195.852517 
L 63.074948 -195.852517 
L 63.074948 -195.852517 
L 62.625865 -195.852517 
L 62.625865 -195.852517 
L 62.446232 -195.852517 
L 62.446232 -195.852517 
L 62.401324 -195.852517 
L 62.401324 -195.852517 
L 62.22169 -195.852517 
L 62.22169 -195.852517 
L 61.862424 -195.852517 
L 61.862424 -195.852517 
L 61.682791 -195.852517 
L 61.682791 -195.852517 
L 61.413341 -195.852517 
L 61.413341 -195.852517 
L 61.233708 -195.852517 
L 61.233708 -195.852517 
L 61.054075 -195.852517 
L 61.054075 -195.852517 
L 60.964258 -195.852517 
L 60.964258 -195.852517 
L 60.91935 -195.852517 
L 60.91935 -195.852517 
L 60.694808 -195.852517 
L 60.694808 -195.852517 
L 60.604991 -195.852517 
L 60.604991 -195.852517 
L 60.560083 -195.852517 
L 60.560083 -195.852517 
L 60.155908 -195.852517 
L 60.155908 -195.852517 
L 58.853568 -195.852517 
L 58.853568 -195.852517 
L 58.404484 -195.852517 
L 58.404484 -196.403033 
L 58.26976 -196.403033 
L 58.26976 -196.403033 
L 58.045218 -196.403033 
L 58.045218 -196.403033 
L 57.551227 -196.403033 
L 57.551227 -196.403033 
L 57.326685 -196.403033 
L 57.326685 -196.403033 
L 57.102144 -196.403033 
L 57.102144 -196.403033 
L 56.877602 -196.403033 
L 56.877602 -196.403033 
L 56.832694 -196.403033 
L 56.832694 -196.403033 
L 56.787785 -196.403033 
L 56.787785 -196.403033 
L 56.653061 -196.403033 
L 56.653061 -196.403033 
L 56.563244 -196.403033 
L 56.563244 -196.403033 
L 56.383611 -196.403033 
L 56.383611 -196.403033 
L 56.338702 -196.403033 
L 56.338702 -196.403033 
L 56.203977 -196.403033 
L 56.203977 -196.403033 
L 56.069253 -196.403033 
L 56.069253 -196.403033 
L 56.024344 -196.403033 
L 56.024344 -196.403033 
L 55.979436 -196.403033 
L 55.979436 -196.403033 
L 55.754894 -196.403033 
L 55.754894 -196.403033 
L 54.766912 -196.403033 
L 54.766912 -196.403033 
L 54.587278 -196.403033 
L 54.587278 -196.403033 
L 52.790946 -196.403033 
L 52.790946 -196.403033 
L 52.027505 -196.403033 
L 52.027505 -196.403033 
L 51.039522 -196.403033 
L 51.039522 -196.86115 
L 49.198282 -196.86115 
L 49.198282 -197.258162 
L 48.120482 -197.258162 
L 48.120482 -197.258162 
L 48.030666 -197.258162 
L 48.030666 -197.258162 
L 46.952866 -197.258162 
L 46.952866 -197.258162 
L 45.425984 -197.258162 
L 45.425984 -197.258162 
L 44.887084 -197.258162 
L 44.887084 -197.258162 
L 44.572726 -197.258162 
L 44.572726 -197.258162 
L 43.899102 -197.258162 
L 43.899102 -197.258162 
L 43.629652 -197.258162 
L 43.629652 -197.258162 
L 43.315294 -197.258162 
L 43.315294 -197.258162 
L 42.686577 -197.258162 
L 42.686577 -197.258162 
L 42.506944 -197.258162 
L 42.506944 -197.258162 
L 42.147678 -197.258162 
L 42.147678 -197.550091 
L 41.29442 -197.550091 
L 41.29442 -197.550091 
L 41.204603 -197.550091 
L 41.204603 -197.550091 
L 40.530979 -197.550091 
L 40.530979 -197.550091 
L 40.306437 -197.550091 
L 40.306437 -197.550091 
L 39.632812 -197.550091 
z
" style="stroke: #2e86ab; stroke-opacity: 0.2"/>
    </defs>
    <g clip-path="url(#pb13dd54231)">
     <use xlink:href="#m599018c72f" x="0" y="213.012812" style="fill: #2e86ab; fill-opacity: 0.2; stroke: #2e86ab; stroke-opacity: 0.2"/>
    </g>
   </g>
   <g id="FillBetweenPolyCollection_2">
    <defs>
     <path id="m4273f4bc55" d="M 36.758681 -197.662336 
L 36.758681 -197.662336 
L 39.632812 -197.662336 
L 39.632812 -192.100649 
L 40.21662 -192.100649 
L 40.21662 -192.100649 
L 40.396254 -192.100649 
L 40.396254 -192.100649 
L 40.48607 -192.100649 
L 40.48607 -191.36507 
L 40.530979 -191.36507 
L 40.530979 -190.331365 
L 40.890245 -190.331365 
L 40.890245 -190.331365 
L 41.698595 -190.331365 
L 41.698595 -190.331365 
L 42.102769 -190.331365 
L 42.102769 -190.331365 
L 42.147678 -190.331365 
L 42.147678 -189.231493 
L 42.192586 -189.231493 
L 42.192586 -188.142164 
L 42.282403 -188.142164 
L 42.282403 -188.142164 
L 42.417127 -188.142164 
L 42.417127 -187.059036 
L 42.506944 -187.059036 
L 42.506944 -187.059036 
L 42.551852 -187.059036 
L 42.551852 -185.983595 
L 42.641669 -185.983595 
L 42.641669 -185.983595 
L 42.686577 -185.983595 
L 42.686577 -184.915412 
L 42.731486 -184.915412 
L 42.731486 -183.861851 
L 43.045844 -183.861851 
L 43.045844 -182.82111 
L 43.270385 -182.82111 
L 43.270385 -181.791717 
L 43.40511 -181.791717 
L 43.40511 -181.791717 
L 43.584743 -181.791717 
L 43.584743 -180.764762 
L 43.67456 -180.764762 
L 43.67456 -179.747327 
L 43.809285 -179.747327 
L 43.809285 -178.738494 
L 44.033827 -178.738494 
L 44.033827 -177.73749 
L 44.078735 -177.73749 
L 44.078735 -176.743661 
L 44.348185 -176.743661 
L 44.348185 -176.743661 
L 44.393093 -176.743661 
L 44.393093 -175.749163 
L 44.931993 -175.749163 
L 44.931993 -174.761018 
L 45.111626 -174.761018 
L 45.111626 -173.77877 
L 45.381076 -173.77877 
L 45.381076 -172.802017 
L 45.515801 -172.802017 
L 45.515801 -171.83041 
L 46.009792 -171.83041 
L 46.009792 -170.863636 
L 46.099609 -170.863636 
L 46.099609 -169.901418 
L 46.189425 -169.901418 
L 46.189425 -168.943506 
L 46.32415 -168.943506 
L 46.32415 -167.989677 
L 46.548692 -167.989677 
L 46.548692 -166.093479 
L 46.728325 -166.093479 
L 46.728325 -166.093479 
L 46.952866 -166.093479 
L 46.952866 -165.143754 
L 47.177408 -165.143754 
L 47.177408 -163.254638 
L 47.401949 -163.254638 
L 47.401949 -162.314961 
L 47.806124 -162.314961 
L 47.806124 -161.378366 
L 48.210299 -161.378366 
L 48.210299 -160.444736 
L 48.614474 -160.444736 
L 48.614474 -158.585955 
L 48.839015 -158.585955 
L 48.839015 -157.660611 
L 48.883924 -157.660611 
L 48.883924 -156.737848 
L 49.108465 -156.737848 
L 49.108465 -155.817587 
L 49.333007 -155.817587 
L 49.333007 -154.899752 
L 49.51264 -154.899752 
L 49.51264 -153.984275 
L 49.647365 -153.984275 
L 49.647365 -153.071089 
L 49.692273 -153.071089 
L 49.692273 -153.071089 
L 50.05154 -153.071089 
L 50.05154 -151.237081 
L 50.276081 -151.237081 
L 50.276081 -150.323392 
L 50.680256 -150.323392 
L 50.680256 -149.411839 
L 50.770072 -149.411839 
L 50.770072 -148.502371 
L 50.859889 -148.502371 
L 50.859889 -147.59494 
L 50.904797 -147.59494 
L 50.904797 -146.6895 
L 50.994614 -146.6895 
L 50.994614 -145.778577 
L 51.039522 -145.778577 
L 51.039522 -144.869631 
L 51.219155 -144.869631 
L 51.219155 -143.962618 
L 51.264064 -143.962618 
L 51.264064 -143.057502 
L 51.35388 -143.057502 
L 51.35388 -142.154245 
L 51.398789 -142.154245 
L 51.398789 -141.252812 
L 51.847872 -141.252812 
L 51.847872 -139.455289 
L 51.89278 -139.455289 
L 51.89278 -138.559139 
L 51.937688 -138.559139 
L 51.937688 -137.664691 
L 52.117322 -137.664691 
L 52.117322 -136.771919 
L 52.835855 -136.771919 
L 52.835855 -134.991305 
L 53.240029 -134.991305 
L 53.240029 -134.103415 
L 53.599296 -134.103415 
L 53.599296 -133.217108 
L 54.048379 -133.217108 
L 54.048379 -132.332363 
L 54.183104 -132.332363 
L 54.183104 -130.567484 
L 54.362737 -130.567484 
L 54.362737 -129.687312 
L 54.407645 -129.687312 
L 54.407645 -128.808631 
L 54.452554 -128.808631 
L 54.452554 -128.808631 
L 54.54237 -128.808631 
L 54.54237 -127.923133 
L 54.901637 -127.923133 
L 54.901637 -127.039152 
L 55.08127 -127.039152 
L 55.08127 -125.275679 
L 55.126178 -125.275679 
L 55.126178 -125.275679 
L 55.620169 -125.275679 
L 55.620169 -124.378685 
L 55.844711 -124.378685 
L 55.844711 -124.378685 
L 55.889619 -124.378685 
L 55.889619 -123.464991 
L 55.979436 -123.464991 
L 55.979436 -122.552993 
L 56.159069 -122.552993 
L 56.159069 -122.552993 
L 56.248886 -122.552993 
L 56.248886 -120.695604 
L 56.518336 -120.695604 
L 56.518336 -120.695604 
L 56.92251 -120.695604 
L 56.92251 -118.804779 
L 56.967419 -118.804779 
L 56.967419 -117.862233 
L 57.057235 -117.862233 
L 57.057235 -116.921572 
L 57.19196 -116.921572 
L 57.19196 -115.982778 
L 57.281777 -115.982778 
L 57.281777 -115.045834 
L 57.506318 -115.045834 
L 57.506318 -115.045834 
L 57.596135 -115.045834 
L 57.596135 -114.088493 
L 57.865585 -114.088493 
L 57.865585 -113.133145 
L 57.955401 -113.133145 
L 57.955401 -112.179771 
L 58.179943 -112.179771 
L 58.179943 -109.331347 
L 58.26976 -109.331347 
L 58.26976 -108.385727 
L 58.314668 -108.385727 
L 58.314668 -108.385727 
L 58.718843 -108.385727 
L 58.718843 -108.385727 
L 58.853568 -108.385727 
L 58.853568 -108.385727 
L 59.078109 -108.385727 
L 59.078109 -108.385727 
L 59.123017 -108.385727 
L 59.123017 -107.391317 
L 59.257742 -107.391317 
L 59.257742 -106.399219 
L 59.976275 -106.399219 
L 59.976275 -105.409416 
L 60.021183 -105.409416 
L 60.021183 -104.421892 
L 60.066092 -104.421892 
L 60.066092 -103.436633 
L 60.290633 -103.436633 
L 60.290633 -102.439463 
L 60.560083 -102.439463 
L 60.560083 -102.439463 
L 60.604991 -102.439463 
L 60.604991 -100.392761 
L 60.91935 -100.392761 
L 60.91935 -99.373332 
L 61.188799 -99.373332 
L 61.188799 -99.373332 
L 61.368433 -99.373332 
L 61.368433 -99.373332 
L 61.458249 -99.373332 
L 61.458249 -98.323813 
L 61.727699 -98.323813 
L 61.727699 -97.277196 
L 61.862424 -97.277196 
L 61.862424 -96.233467 
L 62.446232 -96.233467 
L 62.446232 -95.192611 
L 62.536049 -95.192611 
L 62.536049 -93.119482 
L 63.074948 -93.119482 
L 63.074948 -92.087192 
L 63.613848 -92.087192 
L 63.613848 -91.057746 
L 63.703665 -91.057746 
L 63.703665 -90.031141 
L 63.83839 -90.031141 
L 63.83839 -88.988307 
L 64.062931 -88.988307 
L 64.062931 -87.948513 
L 64.197656 -87.948513 
L 64.197656 -85.878052 
L 64.332381 -85.878052 
L 64.332381 -84.847396 
L 65.006005 -84.847396 
L 65.006005 -82.795274 
L 65.455089 -82.795274 
L 65.455089 -81.773834 
L 65.544905 -81.773834 
L 65.544905 -80.755494 
L 65.589813 -80.755494 
L 65.589813 -80.755494 
L 65.634722 -80.755494 
L 65.634722 -79.717726 
L 66.128713 -79.717726 
L 66.128713 -78.683359 
L 66.263438 -78.683359 
L 66.263438 -77.652415 
L 66.532888 -77.652415 
L 66.532888 -76.624921 
L 66.667613 -76.624921 
L 66.667613 -75.600907 
L 67.116696 -75.600907 
L 67.116696 -74.580404 
L 67.251421 -74.580404 
L 67.251421 -73.563451 
L 67.341237 -73.563451 
L 67.341237 -72.550087 
L 67.610687 -72.550087 
L 67.610687 -71.540358 
L 67.925045 -71.540358 
L 67.925045 -70.534312 
L 69.496836 -70.534312 
L 69.496836 -69.532003 
L 69.901011 -69.532003 
L 69.901011 -68.504607 
L 70.170461 -68.504607 
L 70.170461 -67.481482 
L 70.395002 -67.481482 
L 70.395002 -66.4627 
L 70.619544 -66.4627 
L 70.619544 -65.448339 
L 70.664452 -65.448339 
L 70.664452 -65.448339 
L 70.888994 -65.448339 
L 70.888994 -64.40501 
L 71.338077 -64.40501 
L 71.338077 -63.36684 
L 71.607526 -63.36684 
L 71.607526 -62.333938 
L 71.921885 -62.333938 
L 71.921885 -61.306421 
L 72.820051 -61.306421 
L 72.820051 -60.28442 
L 74.571475 -60.28442 
L 74.571475 -59.268078 
L 75.334916 -59.268078 
L 75.334916 -58.257552 
L 75.469641 -58.257552 
L 75.469641 -58.257552 
L 76.412715 -58.257552 
L 76.412715 -57.209696 
L 76.592348 -57.209696 
L 76.592348 -56.168991 
L 76.996523 -56.168991 
L 76.996523 -56.168991 
L 77.131248 -56.168991 
L 77.131248 -55.085377 
L 77.35579 -55.085377 
L 77.35579 -55.085377 
L 78.209047 -55.085377 
L 78.209047 -53.953509 
L 78.837764 -53.953509 
L 78.837764 -53.953509 
L 80.993362 -53.953509 
L 80.993362 -53.953509 
L 81.891529 -53.953509 
L 81.891529 -52.69319 
L 83.373503 -52.69319 
L 83.373503 -51.449777 
L 84.76566 -51.449777 
L 84.76566 -50.22385 
L 84.900385 -50.22385 
L 84.900385 -49.016108 
L 86.157818 -49.016108 
L 86.157818 -47.827392 
L 87.41525 -47.827392 
L 87.41525 -46.658708 
L 91.861173 -46.658708 
L 91.861173 -45.511271 
L 96.666361 -45.511271 
L 96.666361 -44.386546 
L 100.169209 -44.386546 
L 100.169209 -43.286321 
L 101.022467 -43.286321 
L 101.022467 -42.212799 
L 101.157192 -42.212799 
L 101.157192 -42.212799 
L 103.402607 -42.212799 
L 103.402607 -41.018933 
L 109.510137 -41.018933 
L 109.510137 -39.875421 
L 125.497494 -39.875421 
L 125.497494 -39.875421 
L 134.34443 -39.875421 
L 134.34443 -39.875421 
L 137.398195 -39.875421 
L 137.398195 -39.875421 
L 144.269166 -39.875421 
L 144.269166 -39.875421 
L 172.291949 -39.875421 
L 172.291949 -36.798101 
L 174.851722 -36.798101 
L 174.851722 -36.798101 
L 211.856167 -36.798101 
L 211.856167 -36.798101 
L 211.856167 -52.392814 
L 211.856167 -52.392814 
L 211.856167 -52.392814 
L 174.851722 -52.392814 
L 174.851722 -52.392814 
L 172.291949 -52.392814 
L 172.291949 -54.438063 
L 144.269166 -54.438063 
L 144.269166 -54.438063 
L 137.398195 -54.438063 
L 137.398195 -54.438063 
L 134.34443 -54.438063 
L 134.34443 -54.438063 
L 125.497494 -54.438063 
L 125.497494 -54.438063 
L 109.510137 -54.438063 
L 109.510137 -56.249119 
L 103.402607 -56.249119 
L 103.402607 -58.018374 
L 101.157192 -58.018374 
L 101.157192 -58.018374 
L 101.022467 -58.018374 
L 101.022467 -59.651971 
L 100.169209 -59.651971 
L 100.169209 -61.262828 
L 96.666361 -61.262828 
L 96.666361 -62.852836 
L 91.861173 -62.852836 
L 91.861173 -64.423544 
L 87.41525 -64.423544 
L 87.41525 -65.976233 
L 86.157818 -65.976233 
L 86.157818 -67.511975 
L 84.900385 -67.511975 
L 84.900385 -69.031665 
L 84.76566 -69.031665 
L 84.76566 -70.536057 
L 83.373503 -70.536057 
L 83.373503 -72.025786 
L 81.891529 -72.025786 
L 81.891529 -73.501382 
L 80.993362 -73.501382 
L 80.993362 -73.501382 
L 78.837764 -73.501382 
L 78.837764 -73.501382 
L 78.209047 -73.501382 
L 78.209047 -74.868257 
L 77.35579 -74.868257 
L 77.35579 -74.868257 
L 77.131248 -74.868257 
L 77.131248 -76.184162 
L 76.996523 -76.184162 
L 76.996523 -76.184162 
L 76.592348 -76.184162 
L 76.592348 -77.454505 
L 76.412715 -77.454505 
L 76.412715 -78.718618 
L 75.469641 -78.718618 
L 75.469641 -78.718618 
L 75.334916 -78.718618 
L 75.334916 -79.943117 
L 74.571475 -79.943117 
L 74.571475 -81.162491 
L 72.820051 -81.162491 
L 72.820051 -82.376886 
L 71.921885 -82.376886 
L 71.921885 -83.586437 
L 71.607526 -83.586437 
L 71.607526 -84.791265 
L 71.338077 -84.791265 
L 71.338077 -85.991484 
L 70.888994 -85.991484 
L 70.888994 -87.187197 
L 70.664452 -87.187197 
L 70.664452 -87.187197 
L 70.619544 -87.187197 
L 70.619544 -88.352816 
L 70.395002 -88.352816 
L 70.395002 -89.514537 
L 70.170461 -89.514537 
L 70.170461 -90.672436 
L 69.901011 -90.672436 
L 69.901011 -91.826582 
L 69.496836 -91.826582 
L 69.496836 -92.95486 
L 67.925045 -92.95486 
L 67.925045 -94.079823 
L 67.610687 -94.079823 
L 67.610687 -95.201525 
L 67.341237 -95.201525 
L 67.341237 -96.320014 
L 67.251421 -96.320014 
L 67.251421 -97.435336 
L 67.116696 -97.435336 
L 67.116696 -98.547532 
L 66.667613 -98.547532 
L 66.667613 -99.65664 
L 66.532888 -99.65664 
L 66.532888 -100.762696 
L 66.263438 -100.762696 
L 66.263438 -101.865732 
L 66.128713 -101.865732 
L 66.128713 -102.965778 
L 65.634722 -102.965778 
L 65.634722 -104.062861 
L 65.589813 -104.062861 
L 65.589813 -104.062861 
L 65.544905 -104.062861 
L 65.544905 -105.140304 
L 65.455089 -105.140304 
L 65.455089 -106.215026 
L 65.006005 -106.215026 
L 65.006005 -108.35639 
L 64.332381 -108.35639 
L 64.332381 -109.423066 
L 64.197656 -109.423066 
L 64.197656 -111.548474 
L 64.062931 -111.548474 
L 64.062931 -112.607229 
L 63.83839 -112.607229 
L 63.83839 -113.663364 
L 63.703665 -113.663364 
L 63.703665 -114.703206 
L 63.613848 -114.703206 
L 63.613848 -115.740589 
L 63.074948 -115.740589 
L 63.074948 -116.775516 
L 62.536049 -116.775516 
L 62.536049 -118.838017 
L 62.446232 -118.838017 
L 62.446232 -119.865591 
L 61.862424 -119.865591 
L 61.862424 -120.890714 
L 61.727699 -120.890714 
L 61.727699 -121.913382 
L 61.458249 -121.913382 
L 61.458249 -122.933591 
L 61.368433 -122.933591 
L 61.368433 -122.933591 
L 61.188799 -122.933591 
L 61.188799 -122.933591 
L 60.91935 -122.933591 
L 60.91935 -123.928644 
L 60.604991 -123.928644 
L 60.604991 -125.912034 
L 60.560083 -125.912034 
L 60.560083 -125.912034 
L 60.290633 -125.912034 
L 60.290633 -126.87959 
L 60.066092 -126.87959 
L 60.066092 -127.835162 
L 60.021183 -127.835162 
L 60.021183 -128.788761 
L 59.976275 -128.788761 
L 59.976275 -129.740381 
L 59.257742 -129.740381 
L 59.257742 -130.690013 
L 59.123017 -130.690013 
L 59.123017 -131.637649 
L 59.078109 -131.637649 
L 59.078109 -131.637649 
L 58.853568 -131.637649 
L 58.853568 -131.637649 
L 58.718843 -131.637649 
L 58.718843 -131.637649 
L 58.314668 -131.637649 
L 58.314668 -131.637649 
L 58.26976 -131.637649 
L 58.26976 -132.54797 
L 58.179943 -132.54797 
L 58.179943 -135.268622 
L 57.955401 -135.268622 
L 57.955401 -136.172042 
L 57.865585 -136.172042 
L 57.865585 -137.073714 
L 57.596135 -137.073714 
L 57.596135 -137.973627 
L 57.506318 -137.973627 
L 57.506318 -137.973627 
L 57.281777 -137.973627 
L 57.281777 -138.856465 
L 57.19196 -138.856465 
L 57.19196 -139.737644 
L 57.057235 -139.737644 
L 57.057235 -140.617153 
L 56.967419 -140.617153 
L 56.967419 -141.494981 
L 56.92251 -141.494981 
L 56.92251 -143.245537 
L 56.518336 -143.245537 
L 56.518336 -143.245537 
L 56.248886 -143.245537 
L 56.248886 -144.961727 
L 56.159069 -144.961727 
L 56.159069 -144.961727 
L 55.979436 -144.961727 
L 55.979436 -145.804291 
L 55.889619 -145.804291 
L 55.889619 -146.645297 
L 55.844711 -146.645297 
L 55.844711 -146.645297 
L 55.620169 -146.645297 
L 55.620169 -147.472317 
L 55.126178 -147.472317 
L 55.126178 -147.472317 
L 55.08127 -147.472317 
L 55.08127 -149.098071 
L 54.901637 -149.098071 
L 54.901637 -149.9088 
L 54.54237 -149.9088 
L 54.54237 -150.718078 
L 54.452554 -150.718078 
L 54.452554 -150.718078 
L 54.407645 -150.718078 
L 54.407645 -151.520284 
L 54.362737 -151.520284 
L 54.362737 -152.321049 
L 54.183104 -152.321049 
L 54.183104 -153.918188 
L 54.048379 -153.918188 
L 54.048379 -154.714528 
L 53.599296 -154.714528 
L 53.599296 -155.509357 
L 53.240029 -155.509357 
L 53.240029 -156.302656 
L 52.835855 -156.302656 
L 52.835855 -157.88458 
L 52.117322 -157.88458 
L 52.117322 -158.673161 
L 51.937688 -158.673161 
L 51.937688 -159.460123 
L 51.89278 -159.460123 
L 51.89278 -160.245441 
L 51.847872 -160.245441 
L 51.847872 -161.811038 
L 51.398789 -161.811038 
L 51.398789 -162.59126 
L 51.35388 -162.59126 
L 51.35388 -163.369725 
L 51.264064 -163.369725 
L 51.264064 -164.146399 
L 51.219155 -164.146399 
L 51.219155 -164.921248 
L 51.039522 -164.921248 
L 51.039522 -165.694237 
L 50.994614 -165.694237 
L 50.994614 -166.465328 
L 50.904797 -166.465328 
L 50.904797 -167.229975 
L 50.859889 -167.229975 
L 50.859889 -167.992685 
L 50.770072 -167.992685 
L 50.770072 -168.753414 
L 50.680256 -168.753414 
L 50.680256 -169.512117 
L 50.276081 -169.512117 
L 50.276081 -170.268745 
L 50.05154 -170.268745 
L 50.05154 -171.775566 
L 49.692273 -171.775566 
L 49.692273 -171.775566 
L 49.647365 -171.775566 
L 49.647365 -172.521514 
L 49.51264 -172.521514 
L 49.51264 -173.265207 
L 49.333007 -173.265207 
L 49.333007 -174.006583 
L 49.108465 -174.006583 
L 49.108465 -174.745572 
L 48.883924 -174.745572 
L 48.883924 -175.482102 
L 48.839015 -175.482102 
L 48.839015 -176.216095 
L 48.614474 -176.216095 
L 48.614474 -177.676127 
L 48.210299 -177.676127 
L 48.210299 -178.40198 
L 47.806124 -178.40198 
L 47.806124 -179.124923 
L 47.401949 -179.124923 
L 47.401949 -179.844841 
L 47.177408 -179.844841 
L 47.177408 -181.275109 
L 46.952866 -181.275109 
L 46.952866 -181.985184 
L 46.728325 -181.985184 
L 46.728325 -181.985184 
L 46.548692 -181.985184 
L 46.548692 -183.387603 
L 46.32415 -183.387603 
L 46.32415 -184.083105 
L 46.189425 -184.083105 
L 46.189425 -184.774539 
L 46.099609 -184.774539 
L 46.099609 -185.461681 
L 46.009792 -185.461681 
L 46.009792 -186.144282 
L 45.515801 -186.144282 
L 45.515801 -186.822065 
L 45.381076 -186.822065 
L 45.381076 -187.494718 
L 45.111626 -187.494718 
L 45.111626 -188.161892 
L 44.931993 -188.161892 
L 44.931993 -188.823188 
L 44.393093 -188.823188 
L 44.393093 -189.478152 
L 44.348185 -189.478152 
L 44.348185 -189.478152 
L 44.078735 -189.478152 
L 44.078735 -190.123455 
L 44.033827 -190.123455 
L 44.033827 -190.761411 
L 43.809285 -190.761411 
L 43.809285 -191.391324 
L 43.67456 -191.391324 
L 43.67456 -192.012368 
L 43.584743 -192.012368 
L 43.584743 -192.623552 
L 43.40511 -192.623552 
L 43.40511 -192.623552 
L 43.270385 -192.623552 
L 43.270385 -193.221279 
L 43.045844 -193.221279 
L 43.045844 -193.806629 
L 42.731486 -193.806629 
L 42.731486 -194.377754 
L 42.686577 -194.377754 
L 42.686577 -194.93226 
L 42.641669 -194.93226 
L 42.641669 -194.93226 
L 42.551852 -194.93226 
L 42.551852 -195.465033 
L 42.506944 -195.465033 
L 42.506944 -195.465033 
L 42.417127 -195.465033 
L 42.417127 -195.97212 
L 42.282403 -195.97212 
L 42.282403 -195.97212 
L 42.192586 -195.97212 
L 42.192586 -196.44772 
L 42.147678 -196.44772 
L 42.147678 -196.884016 
L 42.102769 -196.884016 
L 42.102769 -196.884016 
L 41.698595 -196.884016 
L 41.698595 -196.884016 
L 40.890245 -196.884016 
L 40.890245 -196.884016 
L 40.530979 -196.884016 
L 40.530979 -197.261166 
L 40.48607 -197.261166 
L 40.48607 -197.550091 
L 40.396254 -197.550091 
L 40.396254 -197.550091 
L 40.21662 -197.550091 
L 40.21662 -197.550091 
L 39.632812 -197.550091 
L 39.632812 -197.662336 
L 36.758681 -197.662336 
z
" style="stroke: #e63946; stroke-opacity: 0.2"/>
    </defs>
    <g clip-path="url(#pb13dd54231)">
     <use xlink:href="#m4273f4bc55" x="0" y="213.012812" style="fill: #e63946; fill-opacity: 0.2; stroke: #e63946; stroke-opacity: 0.2"/>
    </g>
   </g>
   <g id="line2d_25">
    <defs>
     <path id="mebf7294ebb" d="M -3 3 
L 3 -3 
M -3 -3 
L 3 3 
" style="stroke: #2e86ab"/>
    </defs>
    <g clip-path="url(#pb13dd54231)">
     <use xlink:href="#mebf7294ebb" x="39.632812" y="16.145645" style="fill: #2e86ab; stroke: #2e86ab"/>
     <use xlink:href="#mebf7294ebb" x="40.306437" y="16.145645" style="fill: #2e86ab; stroke: #2e86ab"/>
     <use xlink:href="#mebf7294ebb" x="40.530979" y="16.145645" style="fill: #2e86ab; stroke: #2e86ab"/>
     <use xlink:href="#mebf7294ebb" x="41.204603" y="16.145645" style="fill: #2e86ab; stroke: #2e86ab"/>
     <use xlink:href="#mebf7294ebb" x="41.29442" y="16.145645" style="fill: #2e86ab; stroke: #2e86ab"/>
     <use xlink:href="#mebf7294ebb" x="42.506944" y="16.960792" style="fill: #2e86ab; stroke: #2e86ab"/>
     <use xlink:href="#mebf7294ebb" x="42.686577" y="16.960792" style="fill: #2e86ab; stroke: #2e86ab"/>
     <use xlink:href="#mebf7294ebb" x="43.315294" y="16.960792" style="fill: #2e86ab; stroke: #2e86ab"/>
     <use xlink:href="#mebf7294ebb" x="43.629652" y="16.960792" style="fill: #2e86ab; stroke: #2e86ab"/>
     <use xlink:href="#mebf7294ebb" x="43.899102" y="16.960792" style="fill: #2e86ab; stroke: #2e86ab"/>
     <use xlink:href="#mebf7294ebb" x="44.572726" y="16.960792" style="fill: #2e86ab; stroke: #2e86ab"/>
     <use xlink:href="#mebf7294ebb" x="44.887084" y="16.960792" style="fill: #2e86ab; stroke: #2e86ab"/>
     <use xlink:href="#mebf7294ebb" x="45.425984" y="16.960792" style="fill: #2e86ab; stroke: #2e86ab"/>
     <use xlink:href="#mebf7294ebb" x="46.952866" y="16.960792" style="fill: #2e86ab; stroke: #2e86ab"/>
     <use xlink:href="#mebf7294ebb" x="48.030666" y="16.960792" style="fill: #2e86ab; stroke: #2e86ab"/>
     <use xlink:href="#mebf7294ebb" x="48.120482" y="16.960792" style="fill: #2e86ab; stroke: #2e86ab"/>
     <use xlink:href="#mebf7294ebb" x="52.027505" y="18.686987" style="fill: #2e86ab; stroke: #2e86ab"/>
     <use xlink:href="#mebf7294ebb" x="52.790946" y="18.686987" style="fill: #2e86ab; stroke: #2e86ab"/>
     <use xlink:href="#mebf7294ebb" x="54.587278" y="18.686987" style="fill: #2e86ab; stroke: #2e86ab"/>
     <use xlink:href="#mebf7294ebb" x="54.766912" y="18.686987" style="fill: #2e86ab; stroke: #2e86ab"/>
     <use xlink:href="#mebf7294ebb" x="55.754894" y="18.686987" style="fill: #2e86ab; stroke: #2e86ab"/>
     <use xlink:href="#mebf7294ebb" x="55.979436" y="18.686987" style="fill: #2e86ab; stroke: #2e86ab"/>
     <use xlink:href="#mebf7294ebb" x="56.024344" y="18.686987" style="fill: #2e86ab; stroke: #2e86ab"/>
     <use xlink:href="#mebf7294ebb" x="56.069253" y="18.686987" style="fill: #2e86ab; stroke: #2e86ab"/>
     <use xlink:href="#mebf7294ebb" x="56.203977" y="18.686987" style="fill: #2e86ab; stroke: #2e86ab"/>
     <use xlink:href="#mebf7294ebb" x="56.338702" y="18.686987" style="fill: #2e86ab; stroke: #2e86ab"/>
     <use xlink:href="#mebf7294ebb" x="56.383611" y="18.686987" style="fill: #2e86ab; stroke: #2e86ab"/>
     <use xlink:href="#mebf7294ebb" x="56.563244" y="18.686987" style="fill: #2e86ab; stroke: #2e86ab"/>
     <use xlink:href="#mebf7294ebb" x="56.653061" y="18.686987" style="fill: #2e86ab; stroke: #2e86ab"/>
     <use xlink:href="#mebf7294ebb" x="56.787785" y="18.686987" style="fill: #2e86ab; stroke: #2e86ab"/>
     <use xlink:href="#mebf7294ebb" x="56.832694" y="18.686987" style="fill: #2e86ab; stroke: #2e86ab"/>
     <use xlink:href="#mebf7294ebb" x="56.877602" y="18.686987" style="fill: #2e86ab; stroke: #2e86ab"/>
     <use xlink:href="#mebf7294ebb" x="57.102144" y="18.686987" style="fill: #2e86ab; stroke: #2e86ab"/>
     <use xlink:href="#mebf7294ebb" x="57.326685" y="18.686987" style="fill: #2e86ab; stroke: #2e86ab"/>
     <use xlink:href="#mebf7294ebb" x="57.551227" y="18.686987" style="fill: #2e86ab; stroke: #2e86ab"/>
     <use xlink:href="#mebf7294ebb" x="58.045218" y="18.686987" style="fill: #2e86ab; stroke: #2e86ab"/>
     <use xlink:href="#mebf7294ebb" x="58.26976" y="18.686987" style="fill: #2e86ab; stroke: #2e86ab"/>
     <use xlink:href="#mebf7294ebb" x="58.853568" y="19.678745" style="fill: #2e86ab; stroke: #2e86ab"/>
     <use xlink:href="#mebf7294ebb" x="60.155908" y="19.678745" style="fill: #2e86ab; stroke: #2e86ab"/>
     <use xlink:href="#mebf7294ebb" x="60.560083" y="19.678745" style="fill: #2e86ab; stroke: #2e86ab"/>
     <use xlink:href="#mebf7294ebb" x="60.604991" y="19.678745" style="fill: #2e86ab; stroke: #2e86ab"/>
     <use xlink:href="#mebf7294ebb" x="60.694808" y="19.678745" style="fill: #2e86ab; stroke: #2e86ab"/>
     <use xlink:href="#mebf7294ebb" x="60.91935" y="19.678745" style="fill: #2e86ab; stroke: #2e86ab"/>
     <use xlink:href="#mebf7294ebb" x="60.964258" y="19.678745" style="fill: #2e86ab; stroke: #2e86ab"/>
     <use xlink:href="#mebf7294ebb" x="61.054075" y="19.678745" style="fill: #2e86ab; stroke: #2e86ab"/>
     <use xlink:href="#mebf7294ebb" x="61.233708" y="19.678745" style="fill: #2e86ab; stroke: #2e86ab"/>
     <use xlink:href="#mebf7294ebb" x="61.413341" y="19.678745" style="fill: #2e86ab; stroke: #2e86ab"/>
     <use xlink:href="#mebf7294ebb" x="61.682791" y="19.678745" style="fill: #2e86ab; stroke: #2e86ab"/>
     <use xlink:href="#mebf7294ebb" x="61.862424" y="19.678745" style="fill: #2e86ab; stroke: #2e86ab"/>
     <use xlink:href="#mebf7294ebb" x="62.22169" y="19.678745" style="fill: #2e86ab; stroke: #2e86ab"/>
     <use xlink:href="#mebf7294ebb" x="62.401324" y="19.678745" style="fill: #2e86ab; stroke: #2e86ab"/>
     <use xlink:href="#mebf7294ebb" x="62.446232" y="19.678745" style="fill: #2e86ab; stroke: #2e86ab"/>
     <use xlink:href="#mebf7294ebb" x="62.625865" y="19.678745" style="fill: #2e86ab; stroke: #2e86ab"/>
     <use xlink:href="#mebf7294ebb" x="63.074948" y="19.678745" style="fill: #2e86ab; stroke: #2e86ab"/>
     <use xlink:href="#mebf7294ebb" x="63.164765" y="19.678745" style="fill: #2e86ab; stroke: #2e86ab"/>
     <use xlink:href="#mebf7294ebb" x="63.703665" y="20.804144" style="fill: #2e86ab; stroke: #2e86ab"/>
     <use xlink:href="#mebf7294ebb" x="63.83839" y="20.804144" style="fill: #2e86ab; stroke: #2e86ab"/>
     <use xlink:href="#mebf7294ebb" x="63.883298" y="20.804144" style="fill: #2e86ab; stroke: #2e86ab"/>
     <use xlink:href="#mebf7294ebb" x="63.973114" y="20.804144" style="fill: #2e86ab; stroke: #2e86ab"/>
     <use xlink:href="#mebf7294ebb" x="64.152748" y="21.962643" style="fill: #2e86ab; stroke: #2e86ab"/>
     <use xlink:href="#mebf7294ebb" x="64.781464" y="21.962643" style="fill: #2e86ab; stroke: #2e86ab"/>
     <use xlink:href="#mebf7294ebb" x="64.871281" y="21.962643" style="fill: #2e86ab; stroke: #2e86ab"/>
     <use xlink:href="#mebf7294ebb" x="65.320364" y="21.962643" style="fill: #2e86ab; stroke: #2e86ab"/>
     <use xlink:href="#mebf7294ebb" x="65.365272" y="21.962643" style="fill: #2e86ab; stroke: #2e86ab"/>
     <use xlink:href="#mebf7294ebb" x="65.589813" y="21.962643" style="fill: #2e86ab; stroke: #2e86ab"/>
     <use xlink:href="#mebf7294ebb" x="65.67963" y="21.962643" style="fill: #2e86ab; stroke: #2e86ab"/>
     <use xlink:href="#mebf7294ebb" x="65.724538" y="21.962643" style="fill: #2e86ab; stroke: #2e86ab"/>
     <use xlink:href="#mebf7294ebb" x="65.769447" y="21.962643" style="fill: #2e86ab; stroke: #2e86ab"/>
     <use xlink:href="#mebf7294ebb" x="66.038897" y="21.962643" style="fill: #2e86ab; stroke: #2e86ab"/>
     <use xlink:href="#mebf7294ebb" x="66.128713" y="21.962643" style="fill: #2e86ab; stroke: #2e86ab"/>
     <use xlink:href="#mebf7294ebb" x="66.712521" y="21.962643" style="fill: #2e86ab; stroke: #2e86ab"/>
     <use xlink:href="#mebf7294ebb" x="67.026879" y="21.962643" style="fill: #2e86ab; stroke: #2e86ab"/>
     <use xlink:href="#mebf7294ebb" x="67.386146" y="21.962643" style="fill: #2e86ab; stroke: #2e86ab"/>
     <use xlink:href="#mebf7294ebb" x="68.05977" y="21.962643" style="fill: #2e86ab; stroke: #2e86ab"/>
     <use xlink:href="#mebf7294ebb" x="68.194495" y="21.962643" style="fill: #2e86ab; stroke: #2e86ab"/>
     <use xlink:href="#mebf7294ebb" x="68.284312" y="21.962643" style="fill: #2e86ab; stroke: #2e86ab"/>
     <use xlink:href="#mebf7294ebb" x="68.374128" y="21.962643" style="fill: #2e86ab; stroke: #2e86ab"/>
     <use xlink:href="#mebf7294ebb" x="68.419037" y="21.962643" style="fill: #2e86ab; stroke: #2e86ab"/>
     <use xlink:href="#mebf7294ebb" x="68.463945" y="21.962643" style="fill: #2e86ab; stroke: #2e86ab"/>
     <use xlink:href="#mebf7294ebb" x="68.643578" y="21.962643" style="fill: #2e86ab; stroke: #2e86ab"/>
     <use xlink:href="#mebf7294ebb" x="68.733395" y="21.962643" style="fill: #2e86ab; stroke: #2e86ab"/>
     <use xlink:href="#mebf7294ebb" x="68.778303" y="21.962643" style="fill: #2e86ab; stroke: #2e86ab"/>
     <use xlink:href="#mebf7294ebb" x="71.023719" y="23.371628" style="fill: #2e86ab; stroke: #2e86ab"/>
     <use xlink:href="#mebf7294ebb" x="71.068627" y="23.371628" style="fill: #2e86ab; stroke: #2e86ab"/>
     <use xlink:href="#mebf7294ebb" x="72.460784" y="23.371628" style="fill: #2e86ab; stroke: #2e86ab"/>
     <use xlink:href="#mebf7294ebb" x="73.314042" y="24.820117" style="fill: #2e86ab; stroke: #2e86ab"/>
     <use xlink:href="#mebf7294ebb" x="73.673309" y="24.820117" style="fill: #2e86ab; stroke: #2e86ab"/>
     <use xlink:href="#mebf7294ebb" x="73.808033" y="24.820117" style="fill: #2e86ab; stroke: #2e86ab"/>
     <use xlink:href="#mebf7294ebb" x="74.346933" y="24.820117" style="fill: #2e86ab; stroke: #2e86ab"/>
     <use xlink:href="#mebf7294ebb" x="74.796016" y="24.820117" style="fill: #2e86ab; stroke: #2e86ab"/>
     <use xlink:href="#mebf7294ebb" x="75.065466" y="24.820117" style="fill: #2e86ab; stroke: #2e86ab"/>
     <use xlink:href="#mebf7294ebb" x="75.514549" y="24.820117" style="fill: #2e86ab; stroke: #2e86ab"/>
     <use xlink:href="#mebf7294ebb" x="76.098357" y="24.820117" style="fill: #2e86ab; stroke: #2e86ab"/>
     <use xlink:href="#mebf7294ebb" x="76.143265" y="24.820117" style="fill: #2e86ab; stroke: #2e86ab"/>
     <use xlink:href="#mebf7294ebb" x="76.457624" y="24.820117" style="fill: #2e86ab; stroke: #2e86ab"/>
     <use xlink:href="#mebf7294ebb" x="76.996523" y="24.820117" style="fill: #2e86ab; stroke: #2e86ab"/>
     <use xlink:href="#mebf7294ebb" x="77.445606" y="24.820117" style="fill: #2e86ab; stroke: #2e86ab"/>
     <use xlink:href="#mebf7294ebb" x="77.849781" y="24.820117" style="fill: #2e86ab; stroke: #2e86ab"/>
     <use xlink:href="#mebf7294ebb" x="78.433589" y="26.471084" style="fill: #2e86ab; stroke: #2e86ab"/>
     <use xlink:href="#mebf7294ebb" x="79.46648" y="26.471084" style="fill: #2e86ab; stroke: #2e86ab"/>
     <use xlink:href="#mebf7294ebb" x="79.73593" y="26.471084" style="fill: #2e86ab; stroke: #2e86ab"/>
     <use xlink:href="#mebf7294ebb" x="79.915563" y="26.471084" style="fill: #2e86ab; stroke: #2e86ab"/>
     <use xlink:href="#mebf7294ebb" x="80.00538" y="26.471084" style="fill: #2e86ab; stroke: #2e86ab"/>
     <use xlink:href="#mebf7294ebb" x="80.319738" y="28.216933" style="fill: #2e86ab; stroke: #2e86ab"/>
     <use xlink:href="#mebf7294ebb" x="82.071162" y="28.216933" style="fill: #2e86ab; stroke: #2e86ab"/>
     <use xlink:href="#mebf7294ebb" x="84.406394" y="30.004351" style="fill: #2e86ab; stroke: #2e86ab"/>
     <use xlink:href="#mebf7294ebb" x="84.675844" y="30.004351" style="fill: #2e86ab; stroke: #2e86ab"/>
     <use xlink:href="#mebf7294ebb" x="85.84346" y="31.835902" style="fill: #2e86ab; stroke: #2e86ab"/>
     <use xlink:href="#mebf7294ebb" x="86.696717" y="31.835902" style="fill: #2e86ab; stroke: #2e86ab"/>
     <use xlink:href="#mebf7294ebb" x="87.774517" y="31.835902" style="fill: #2e86ab; stroke: #2e86ab"/>
     <use xlink:href="#mebf7294ebb" x="88.582866" y="33.738812" style="fill: #2e86ab; stroke: #2e86ab"/>
     <use xlink:href="#mebf7294ebb" x="88.762499" y="33.738812" style="fill: #2e86ab; stroke: #2e86ab"/>
     <use xlink:href="#mebf7294ebb" x="89.391216" y="33.738812" style="fill: #2e86ab; stroke: #2e86ab"/>
     <use xlink:href="#mebf7294ebb" x="89.481032" y="33.738812" style="fill: #2e86ab; stroke: #2e86ab"/>
     <use xlink:href="#mebf7294ebb" x="89.705574" y="33.738812" style="fill: #2e86ab; stroke: #2e86ab"/>
     <use xlink:href="#mebf7294ebb" x="90.244474" y="33.738812" style="fill: #2e86ab; stroke: #2e86ab"/>
     <use xlink:href="#mebf7294ebb" x="92.355164" y="33.738812" style="fill: #2e86ab; stroke: #2e86ab"/>
     <use xlink:href="#mebf7294ebb" x="92.669522" y="33.738812" style="fill: #2e86ab; stroke: #2e86ab"/>
     <use xlink:href="#mebf7294ebb" x="92.894064" y="33.738812" style="fill: #2e86ab; stroke: #2e86ab"/>
     <use xlink:href="#mebf7294ebb" x="94.376038" y="33.738812" style="fill: #2e86ab; stroke: #2e86ab"/>
     <use xlink:href="#mebf7294ebb" x="99.181226" y="33.738812" style="fill: #2e86ab; stroke: #2e86ab"/>
     <use xlink:href="#mebf7294ebb" x="100.259026" y="33.738812" style="fill: #2e86ab; stroke: #2e86ab"/>
     <use xlink:href="#mebf7294ebb" x="104.92949" y="35.998518" style="fill: #2e86ab; stroke: #2e86ab"/>
     <use xlink:href="#mebf7294ebb" x="104.974398" y="35.998518" style="fill: #2e86ab; stroke: #2e86ab"/>
     <use xlink:href="#mebf7294ebb" x="105.198939" y="35.998518" style="fill: #2e86ab; stroke: #2e86ab"/>
     <use xlink:href="#mebf7294ebb" x="106.052197" y="35.998518" style="fill: #2e86ab; stroke: #2e86ab"/>
     <use xlink:href="#mebf7294ebb" x="107.983254" y="35.998518" style="fill: #2e86ab; stroke: #2e86ab"/>
     <use xlink:href="#mebf7294ebb" x="108.297613" y="35.998518" style="fill: #2e86ab; stroke: #2e86ab"/>
     <use xlink:href="#mebf7294ebb" x="108.701787" y="35.998518" style="fill: #2e86ab; stroke: #2e86ab"/>
     <use xlink:href="#mebf7294ebb" x="108.881421" y="35.998518" style="fill: #2e86ab; stroke: #2e86ab"/>
     <use xlink:href="#mebf7294ebb" x="109.734678" y="35.998518" style="fill: #2e86ab; stroke: #2e86ab"/>
     <use xlink:href="#mebf7294ebb" x="110.677753" y="35.998518" style="fill: #2e86ab; stroke: #2e86ab"/>
     <use xlink:href="#mebf7294ebb" x="111.665736" y="35.998518" style="fill: #2e86ab; stroke: #2e86ab"/>
     <use xlink:href="#mebf7294ebb" x="112.429177" y="35.998518" style="fill: #2e86ab; stroke: #2e86ab"/>
     <use xlink:href="#mebf7294ebb" x="113.237526" y="35.998518" style="fill: #2e86ab; stroke: #2e86ab"/>
     <use xlink:href="#mebf7294ebb" x="113.686609" y="35.998518" style="fill: #2e86ab; stroke: #2e86ab"/>
     <use xlink:href="#mebf7294ebb" x="116.336199" y="38.903855" style="fill: #2e86ab; stroke: #2e86ab"/>
     <use xlink:href="#mebf7294ebb" x="116.605649" y="38.903855" style="fill: #2e86ab; stroke: #2e86ab"/>
     <use xlink:href="#mebf7294ebb" x="118.71634" y="41.93551" style="fill: #2e86ab; stroke: #2e86ab"/>
     <use xlink:href="#mebf7294ebb" x="119.839047" y="41.93551" style="fill: #2e86ab; stroke: #2e86ab"/>
     <use xlink:href="#mebf7294ebb" x="120.108497" y="41.93551" style="fill: #2e86ab; stroke: #2e86ab"/>
     <use xlink:href="#mebf7294ebb" x="120.737213" y="45.183712" style="fill: #2e86ab; stroke: #2e86ab"/>
     <use xlink:href="#mebf7294ebb" x="121.815013" y="45.183712" style="fill: #2e86ab; stroke: #2e86ab"/>
     <use xlink:href="#mebf7294ebb" x="122.488637" y="45.183712" style="fill: #2e86ab; stroke: #2e86ab"/>
     <use xlink:href="#mebf7294ebb" x="124.240061" y="48.688351" style="fill: #2e86ab; stroke: #2e86ab"/>
     <use xlink:href="#mebf7294ebb" x="127.069285" y="48.688351" style="fill: #2e86ab; stroke: #2e86ab"/>
     <use xlink:href="#mebf7294ebb" x="127.159101" y="48.688351" style="fill: #2e86ab; stroke: #2e86ab"/>
     <use xlink:href="#mebf7294ebb" x="127.293826" y="48.688351" style="fill: #2e86ab; stroke: #2e86ab"/>
     <use xlink:href="#mebf7294ebb" x="129.808691" y="52.617795" style="fill: #2e86ab; stroke: #2e86ab"/>
     <use xlink:href="#mebf7294ebb" x="129.8536" y="52.617795" style="fill: #2e86ab; stroke: #2e86ab"/>
     <use xlink:href="#mebf7294ebb" x="130.347591" y="56.809202" style="fill: #2e86ab; stroke: #2e86ab"/>
     <use xlink:href="#mebf7294ebb" x="130.527224" y="56.809202" style="fill: #2e86ab; stroke: #2e86ab"/>
     <use xlink:href="#mebf7294ebb" x="130.661949" y="56.809202" style="fill: #2e86ab; stroke: #2e86ab"/>
     <use xlink:href="#mebf7294ebb" x="131.42539" y="56.809202" style="fill: #2e86ab; stroke: #2e86ab"/>
     <use xlink:href="#mebf7294ebb" x="131.649932" y="56.809202" style="fill: #2e86ab; stroke: #2e86ab"/>
     <use xlink:href="#mebf7294ebb" x="135.691679" y="56.809202" style="fill: #2e86ab; stroke: #2e86ab"/>
     <use xlink:href="#mebf7294ebb" x="142.607559" y="56.809202" style="fill: #2e86ab; stroke: #2e86ab"/>
     <use xlink:href="#mebf7294ebb" x="143.460816" y="56.809202" style="fill: #2e86ab; stroke: #2e86ab"/>
     <use xlink:href="#mebf7294ebb" x="145.257149" y="56.809202" style="fill: #2e86ab; stroke: #2e86ab"/>
     <use xlink:href="#mebf7294ebb" x="146.514581" y="56.809202" style="fill: #2e86ab; stroke: #2e86ab"/>
     <use xlink:href="#mebf7294ebb" x="148.445638" y="56.809202" style="fill: #2e86ab; stroke: #2e86ab"/>
     <use xlink:href="#mebf7294ebb" x="157.517116" y="56.809202" style="fill: #2e86ab; stroke: #2e86ab"/>
     <use xlink:href="#mebf7294ebb" x="158.909274" y="63.959249" style="fill: #2e86ab; stroke: #2e86ab"/>
     <use xlink:href="#mebf7294ebb" x="161.019964" y="63.959249" style="fill: #2e86ab; stroke: #2e86ab"/>
     <use xlink:href="#mebf7294ebb" x="164.926987" y="63.959249" style="fill: #2e86ab; stroke: #2e86ab"/>
     <use xlink:href="#mebf7294ebb" x="168.429835" y="72.759307" style="fill: #2e86ab; stroke: #2e86ab"/>
     <use xlink:href="#mebf7294ebb" x="169.238184" y="72.759307" style="fill: #2e86ab; stroke: #2e86ab"/>
     <use xlink:href="#mebf7294ebb" x="172.741032" y="72.759307" style="fill: #2e86ab; stroke: #2e86ab"/>
     <use xlink:href="#mebf7294ebb" x="190.704354" y="84.492717" style="fill: #2e86ab; stroke: #2e86ab"/>
     <use xlink:href="#mebf7294ebb" x="193.21922" y="84.492717" style="fill: #2e86ab; stroke: #2e86ab"/>
     <use xlink:href="#mebf7294ebb" x="193.758119" y="84.492717" style="fill: #2e86ab; stroke: #2e86ab"/>
     <use xlink:href="#mebf7294ebb" x="211.047817" y="84.492717" style="fill: #2e86ab; stroke: #2e86ab"/>
     <use xlink:href="#mebf7294ebb" x="218.412779" y="84.492717" style="fill: #2e86ab; stroke: #2e86ab"/>
     <use xlink:href="#mebf7294ebb" x="262.692369" y="84.492717" style="fill: #2e86ab; stroke: #2e86ab"/>
     <use xlink:href="#mebf7294ebb" x="266.015584" y="84.492717" style="fill: #2e86ab; stroke: #2e86ab"/>
     <use xlink:href="#mebf7294ebb" x="266.419759" y="84.492717" style="fill: #2e86ab; stroke: #2e86ab"/>
    </g>
   </g>
   <g id="line2d_26">
    <path d="M 39.632812 16.145645 
L 42.147678 16.145645 
L 42.147678 16.960792 
L 49.198282 16.960792 
L 49.198282 17.823889 
L 51.039522 17.823889 
L 51.039522 18.686987 
L 58.404484 18.686987 
L 58.404484 19.678745 
L 63.434215 19.678745 
L 63.434215 20.804144 
L 64.062931 20.804144 
L 64.062931 21.962643 
L 64.152748 21.962643 
L 68.86812 21.962643 
L 68.86812 23.371628 
L 72.595509 23.371628 
L 72.595509 24.820117 
L 78.433589 24.820117 
L 78.433589 26.471084 
L 80.229921 26.471084 
L 80.229921 28.216933 
L 80.319738 28.216933 
L 82.250795 28.216933 
L 82.250795 30.004351 
L 84.720752 30.004351 
L 84.720752 31.835902 
L 87.999058 31.835902 
L 87.999058 33.738812 
L 103.537332 33.738812 
L 103.537332 35.998518 
L 114.629684 35.998518 
L 114.629684 38.903855 
L 116.785282 38.903855 
L 116.785282 41.93551 
L 120.647397 41.93551 
L 120.737213 45.183712 
L 120.737213 45.183712 
L 123.566437 45.183712 
L 123.566437 48.688351 
L 128.147084 48.688351 
L 128.147084 52.617795 
L 130.347591 52.617795 
L 130.347591 56.809202 
L 158.235649 56.809202 
L 158.235649 63.959249 
L 166.633502 63.959249 
L 166.633502 72.759307 
L 182.575951 72.759307 
L 182.575951 84.492717 
L 266.419759 84.492717 
L 266.419759 84.492717 
" clip-path="url(#pb13dd54231)" style="fill: none; stroke: #2e86ab; stroke-width: 2; stroke-linecap: round"/>
   </g>
   <g id="line2d_27">
    <defs>
     <path id="m88661ee24e" d="M -3 3 
L 3 -3 
M -3 -3 
L 3 3 
" style="stroke: #e63946"/>
    </defs>
    <g clip-path="url(#pb13dd54231)">
     <use xlink:href="#m88661ee24e" x="36.758681" y="15.350476" style="fill: #e63946; stroke: #e63946"/>
     <use xlink:href="#m88661ee24e" x="40.21662" y="16.145645" style="fill: #e63946; stroke: #e63946"/>
     <use xlink:href="#m88661ee24e" x="40.396254" y="16.145645" style="fill: #e63946; stroke: #e63946"/>
     <use xlink:href="#m88661ee24e" x="40.890245" y="17.751727" style="fill: #e63946; stroke: #e63946"/>
     <use xlink:href="#m88661ee24e" x="41.698595" y="17.751727" style="fill: #e63946; stroke: #e63946"/>
     <use xlink:href="#m88661ee24e" x="42.102769" y="17.751727" style="fill: #e63946; stroke: #e63946"/>
     <use xlink:href="#m88661ee24e" x="42.282403" y="19.382268" style="fill: #e63946; stroke: #e63946"/>
     <use xlink:href="#m88661ee24e" x="42.506944" y="20.201741" style="fill: #e63946; stroke: #e63946"/>
     <use xlink:href="#m88661ee24e" x="42.641669" y="21.025482" style="fill: #e63946; stroke: #e63946"/>
     <use xlink:href="#m88661ee24e" x="43.40511" y="24.337788" style="fill: #e63946; stroke: #e63946"/>
     <use xlink:href="#m88661ee24e" x="44.348185" y="28.50055" style="fill: #e63946; stroke: #e63946"/>
     <use xlink:href="#m88661ee24e" x="46.728325" y="37.70979" style="fill: #e63946; stroke: #e63946"/>
     <use xlink:href="#m88661ee24e" x="49.692273" y="49.500826" style="fill: #e63946; stroke: #e63946"/>
     <use xlink:href="#m88661ee24e" x="50.904797" y="55.43513" style="fill: #e63946; stroke: #e63946"/>
     <use xlink:href="#m88661ee24e" x="54.452554" y="72.508028" style="fill: #e63946; stroke: #e63946"/>
     <use xlink:href="#m88661ee24e" x="55.126178" y="75.950369" style="fill: #e63946; stroke: #e63946"/>
     <use xlink:href="#m88661ee24e" x="55.844711" y="76.825665" style="fill: #e63946; stroke: #e63946"/>
     <use xlink:href="#m88661ee24e" x="56.159069" y="78.606969" style="fill: #e63946; stroke: #e63946"/>
     <use xlink:href="#m88661ee24e" x="56.248886" y="80.42066" style="fill: #e63946; stroke: #e63946"/>
     <use xlink:href="#m88661ee24e" x="56.518336" y="80.42066" style="fill: #e63946; stroke: #e63946"/>
     <use xlink:href="#m88661ee24e" x="57.506318" y="85.964397" style="fill: #e63946; stroke: #e63946"/>
     <use xlink:href="#m88661ee24e" x="58.314668" y="92.564083" style="fill: #e63946; stroke: #e63946"/>
     <use xlink:href="#m88661ee24e" x="58.718843" y="92.564083" style="fill: #e63946; stroke: #e63946"/>
     <use xlink:href="#m88661ee24e" x="58.853568" y="92.564083" style="fill: #e63946; stroke: #e63946"/>
     <use xlink:href="#m88661ee24e" x="59.078109" y="92.564083" style="fill: #e63946; stroke: #e63946"/>
     <use xlink:href="#m88661ee24e" x="60.066092" y="97.494882" style="fill: #e63946; stroke: #e63946"/>
     <use xlink:href="#m88661ee24e" x="60.290633" y="98.493217" style="fill: #e63946; stroke: #e63946"/>
     <use xlink:href="#m88661ee24e" x="60.560083" y="98.493217" style="fill: #e63946; stroke: #e63946"/>
     <use xlink:href="#m88661ee24e" x="61.188799" y="101.565017" style="fill: #e63946; stroke: #e63946"/>
     <use xlink:href="#m88661ee24e" x="61.368433" y="101.565017" style="fill: #e63946; stroke: #e63946"/>
     <use xlink:href="#m88661ee24e" x="63.703665" y="111.032891" style="fill: #e63946; stroke: #e63946"/>
     <use xlink:href="#m88661ee24e" x="65.589813" y="120.65105" style="fill: #e63946; stroke: #e63946"/>
     <use xlink:href="#m88661ee24e" x="69.496836" y="132.628379" style="fill: #e63946; stroke: #e63946"/>
     <use xlink:href="#m88661ee24e" x="70.664452" y="137.090001" style="fill: #e63946; stroke: #e63946"/>
     <use xlink:href="#m88661ee24e" x="75.469641" y="145.114723" style="fill: #e63946; stroke: #e63946"/>
     <use xlink:href="#m88661ee24e" x="76.996523" y="147.489385" style="fill: #e63946; stroke: #e63946"/>
     <use xlink:href="#m88661ee24e" x="77.35579" y="148.72421" style="fill: #e63946; stroke: #e63946"/>
     <use xlink:href="#m88661ee24e" x="78.837764" y="150.012723" style="fill: #e63946; stroke: #e63946"/>
     <use xlink:href="#m88661ee24e" x="80.993362" y="150.012723" style="fill: #e63946; stroke: #e63946"/>
     <use xlink:href="#m88661ee24e" x="101.157192" y="164.186361" style="fill: #e63946; stroke: #e63946"/>
     <use xlink:href="#m88661ee24e" x="125.497494" y="167.336059" style="fill: #e63946; stroke: #e63946"/>
     <use xlink:href="#m88661ee24e" x="134.34443" y="167.336059" style="fill: #e63946; stroke: #e63946"/>
     <use xlink:href="#m88661ee24e" x="137.398195" y="167.336059" style="fill: #e63946; stroke: #e63946"/>
     <use xlink:href="#m88661ee24e" x="144.269166" y="167.336059" style="fill: #e63946; stroke: #e63946"/>
     <use xlink:href="#m88661ee24e" x="174.851722" y="171.010706" style="fill: #e63946; stroke: #e63946"/>
     <use xlink:href="#m88661ee24e" x="211.856167" y="171.010706" style="fill: #e63946; stroke: #e63946"/>
    </g>
   </g>
   <g id="line2d_28">
    <path d="M 36.758681 15.350476 
L 39.632812 15.350476 
L 39.632812 16.145645 
L 40.48607 16.145645 
L 40.530979 17.751727 
L 42.147678 17.751727 
L 42.192586 19.382268 
L 42.417127 19.382268 
L 42.417127 20.201741 
L 42.506944 20.201741 
L 42.551852 20.201741 
L 42.551852 21.025482 
L 42.641669 21.025482 
L 42.686577 21.025482 
L 42.731486 22.681635 
L 43.045844 22.681635 
L 43.045844 23.509711 
L 43.270385 23.509711 
L 43.270385 24.337788 
L 43.584743 24.337788 
L 43.67456 26.002893 
L 43.809285 26.002893 
L 43.809285 26.835445 
L 44.033827 26.835445 
L 44.078735 28.50055 
L 44.393093 28.50055 
L 44.393093 29.337754 
L 44.931993 29.337754 
L 44.931993 30.174957 
L 45.111626 30.174957 
L 45.111626 31.012161 
L 45.381076 31.012161 
L 45.381076 31.849365 
L 45.515801 31.849365 
L 45.515801 32.686568 
L 46.009792 32.686568 
L 46.099609 34.360975 
L 46.189425 34.360975 
L 46.189425 35.198179 
L 46.32415 35.198179 
L 46.32415 36.035383 
L 46.548692 36.035383 
L 46.548692 37.70979 
L 46.952866 37.70979 
L 46.952866 38.552007 
L 47.177408 38.552007 
L 47.177408 40.236441 
L 47.401949 40.236441 
L 47.401949 41.078657 
L 47.806124 41.078657 
L 47.806124 41.920874 
L 48.210299 41.920874 
L 48.210299 42.763091 
L 48.614474 42.763091 
L 48.614474 44.447525 
L 48.839015 44.447525 
L 48.883924 46.131958 
L 49.108465 46.131958 
L 49.108465 46.974175 
L 49.333007 46.974175 
L 49.333007 47.816392 
L 49.51264 47.816392 
L 49.51264 48.658609 
L 49.647365 48.658609 
L 49.647365 49.500826 
L 49.692273 49.500826 
L 50.05154 49.500826 
L 50.05154 51.196341 
L 50.276081 51.196341 
L 50.276081 52.044099 
L 50.680256 52.044099 
L 50.770072 53.739614 
L 50.859889 53.739614 
L 50.904797 55.43513 
L 50.994614 55.43513 
L 51.039522 57.14242 
L 51.219155 57.14242 
L 51.264064 58.849709 
L 51.35388 58.849709 
L 51.398789 60.556999 
L 51.847872 60.556999 
L 51.937688 63.971579 
L 52.117322 63.971579 
L 52.117322 64.825224 
L 52.835855 64.825224 
L 52.835855 66.532514 
L 53.240029 66.532514 
L 53.240029 67.386159 
L 53.599296 67.386159 
L 53.599296 68.239804 
L 54.048379 68.239804 
L 54.048379 69.093449 
L 54.183104 69.093449 
L 54.183104 70.800738 
L 54.362737 70.800738 
L 54.407645 72.508028 
L 54.452554 72.508028 
L 54.54237 72.508028 
L 54.54237 73.368613 
L 54.901637 73.368613 
L 54.901637 74.229199 
L 55.08127 74.229199 
L 55.08127 75.950369 
L 55.126178 75.950369 
L 55.620169 75.950369 
L 55.620169 76.825665 
L 55.889619 76.825665 
L 55.979436 78.606969 
L 56.248886 78.606969 
L 56.248886 80.42066 
L 56.92251 80.42066 
L 56.967419 83.192529 
L 57.057235 83.192529 
L 57.057235 84.116485 
L 57.19196 84.116485 
L 57.281777 85.964397 
L 57.596135 85.964397 
L 57.596135 86.907209 
L 57.865585 86.907209 
L 57.955401 88.792834 
L 58.179943 88.792834 
L 58.26976 92.564083 
L 59.123017 92.564083 
L 59.123017 93.550243 
L 59.257742 93.550243 
L 59.257742 94.536403 
L 59.976275 94.536403 
L 60.066092 97.494882 
L 60.290633 97.494882 
L 60.290633 98.493217 
L 60.604991 98.493217 
L 60.604991 100.541083 
L 60.91935 100.541083 
L 60.91935 101.565017 
L 61.458249 101.565017 
L 61.458249 102.617003 
L 61.727699 102.617003 
L 61.727699 103.668989 
L 61.862424 103.668989 
L 61.862424 104.720975 
L 62.446232 104.720975 
L 62.536049 107.876933 
L 63.074948 107.876933 
L 63.074948 108.928919 
L 63.613848 108.928919 
L 63.703665 111.032891 
L 63.83839 111.032891 
L 63.83839 112.101576 
L 64.062931 112.101576 
L 64.062931 113.17026 
L 64.197656 113.17026 
L 64.197656 115.307628 
L 64.332381 115.307628 
L 64.332381 116.376313 
L 65.006005 116.376313 
L 65.006005 118.513681 
L 65.455089 118.513681 
L 65.544905 120.65105 
L 65.634722 120.65105 
L 65.634722 121.739898 
L 66.128713 121.739898 
L 66.128713 122.828746 
L 66.263438 122.828746 
L 66.263438 123.917594 
L 66.532888 123.917594 
L 66.532888 125.006442 
L 66.667613 125.006442 
L 66.667613 126.09529 
L 67.116696 126.09529 
L 67.116696 127.184138 
L 67.251421 127.184138 
L 67.341237 129.361835 
L 67.610687 129.361835 
L 67.610687 130.450683 
L 67.925045 130.450683 
L 67.925045 131.539531 
L 69.496836 131.539531 
L 69.496836 132.628379 
L 69.901011 132.628379 
L 69.901011 133.743784 
L 70.170461 133.743784 
L 70.170461 134.85919 
L 70.395002 134.85919 
L 70.395002 135.974595 
L 70.619544 135.974595 
L 70.619544 137.090001 
L 70.664452 137.090001 
L 70.888994 137.090001 
L 70.888994 138.236389 
L 71.338077 138.236389 
L 71.338077 139.382778 
L 71.607526 139.382778 
L 71.607526 140.529167 
L 71.921885 140.529167 
L 71.921885 141.675556 
L 72.820051 141.675556 
L 72.820051 142.821945 
L 74.571475 142.821945 
L 74.571475 143.968334 
L 75.334916 143.968334 
L 75.334916 145.114723 
L 76.412715 145.114723 
L 76.412715 146.302054 
L 76.592348 146.302054 
L 76.592348 147.489385 
L 77.131248 147.489385 
L 77.131248 148.72421 
L 78.209047 148.72421 
L 78.209047 150.012723 
L 81.891529 150.012723 
L 81.891529 151.430086 
L 83.373503 151.430086 
L 83.373503 152.84745 
L 84.76566 152.84745 
L 84.76566 154.264814 
L 84.900385 154.264814 
L 84.900385 155.682178 
L 86.157818 155.682178 
L 86.157818 157.099542 
L 87.41525 157.099542 
L 87.41525 158.516906 
L 91.861173 158.516906 
L 91.861173 159.93427 
L 96.666361 159.93427 
L 96.666361 161.351634 
L 100.169209 161.351634 
L 100.169209 162.768997 
L 101.022467 162.768997 
L 101.022467 164.186361 
L 103.402607 164.186361 
L 103.402607 165.76121 
L 109.510137 165.76121 
L 109.510137 167.336059 
L 172.291949 167.336059 
L 172.291949 171.010706 
L 211.856167 171.010706 
L 211.856167 171.010706 
" clip-path="url(#pb13dd54231)" style="fill: none; stroke: #e63946; stroke-width: 2; stroke-linecap: round"/>
   </g>
   <g id="patch_3">
    <path d="M 39.632812 178.36 
L 39.632812 7.2 
" style="fill: none; stroke: #262626; stroke-width: 0.8; stroke-linejoin: miter; stroke-linecap: square"/>
   </g>
   <g id="patch_4">
    <path d="M 277.902813 178.36 
L 277.902813 7.2 
" style="fill: none; stroke: #262626; stroke-width: 0.8; stroke-linejoin: miter; stroke-linecap: square"/>
   </g>
   <g id="patch_5">
    <path d="M 39.632812 178.36 
L 277.902813 178.36 
" style="fill: none; stroke: #262626; stroke-width: 0.8; stroke-linejoin: miter; stroke-linecap: square"/>
   </g>
   <g id="patch_6">
    <path d="M 39.632812 7.2 
L 277.902813 7.2 
" style="fill: none; stroke: #262626; stroke-width: 0.8; stroke-linejoin: miter; stroke-linecap: square"/>
   </g>
   <g id="text_15">
    <g id="patch_7">
     <path d="M 229.696163 25.9005 
L 273.137413 25.9005 
Q 275.537413 25.9005 275.537413 23.5005 
L 275.537413 15.758 
Q 275.537413 13.358 273.137413 13.358 
L 229.696163 13.358 
Q 227.296163 13.358 227.296163 15.758 
L 227.296163 23.5005 
Q 227.296163 25.9005 229.696163 25.9005 
z
" style="fill: #ffffff; opacity: 0.8; stroke: #ffffff; stroke-linejoin: miter"/>
    </g>
    <!-- P &lt; 0.001 -->
    <g style="fill: #262626" transform="translate(229.696163 21.83675) scale(0.08 -0.08)">
     <defs>
      <path id="DejaVuSans-Bold-50" d="M 588 4666 
L 2584 4666 
Q 3475 4666 3951 4270 
Q 4428 3875 4428 3144 
Q 4428 2409 3951 2014 
Q 3475 1619 2584 1619 
L 1791 1619 
L 1791 0 
L 588 0 
L 588 4666 
z
M 1791 3794 
L 1791 2491 
L 2456 2491 
Q 2806 2491 2997 2661 
Q 3188 2831 3188 3144 
Q 3188 3456 2997 3625 
Q 2806 3794 2456 3794 
L 1791 3794 
z
" transform="scale(0.015625)"/>
      <path id="DejaVuSans-Bold-20" transform="scale(0.015625)"/>
      <path id="DejaVuSans-Bold-3c" d="M 4684 3041 
L 1672 2003 
L 4684 972 
L 4684 191 
L 678 1638 
L 678 2375 
L 4684 3822 
L 4684 3041 
z
" transform="scale(0.015625)"/>
      <path id="DejaVuSans-Bold-30" d="M 2944 2338 
Q 2944 3213 2780 3570 
Q 2616 3928 2228 3928 
Q 1841 3928 1675 3570 
Q 1509 3213 1509 2338 
Q 1509 1453 1675 1090 
Q 1841 728 2228 728 
Q 2613 728 2778 1090 
Q 2944 1453 2944 2338 
z
M 4147 2328 
Q 4147 1169 3647 539 
Q 3147 -91 2228 -91 
Q 1306 -91 806 539 
Q 306 1169 306 2328 
Q 306 3491 806 4120 
Q 1306 4750 2228 4750 
Q 3147 4750 3647 4120 
Q 4147 3491 4147 2328 
z
" transform="scale(0.015625)"/>
      <path id="DejaVuSans-Bold-2e" d="M 653 1209 
L 1778 1209 
L 1778 0 
L 653 0 
L 653 1209 
z
" transform="scale(0.015625)"/>
      <path id="DejaVuSans-Bold-31" d="M 750 831 
L 1813 831 
L 1813 3847 
L 722 3622 
L 722 4441 
L 1806 4666 
L 2950 4666 
L 2950 831 
L 4013 831 
L 4013 0 
L 750 0 
L 750 831 
z
" transform="scale(0.015625)"/>
     </defs>
     <use xlink:href="#DejaVuSans-Bold-50"/>
     <use xlink:href="#DejaVuSans-Bold-20" transform="translate(73.291016 0)"/>
     <use xlink:href="#DejaVuSans-Bold-3c" transform="translate(108.105469 0)"/>
     <use xlink:href="#DejaVuSans-Bold-20" transform="translate(191.894531 0)"/>
     <use xlink:href="#DejaVuSans-Bold-30" transform="translate(226.708984 0)"/>
     <use xlink:href="#DejaVuSans-Bold-2e" transform="translate(296.289062 0)"/>
     <use xlink:href="#DejaVuSans-Bold-30" transform="translate(334.277344 0)"/>
     <use xlink:href="#DejaVuSans-Bold-30" transform="translate(403.857422 0)"/>
     <use xlink:href="#DejaVuSans-Bold-31" transform="translate(473.4375 0)"/>
    </g>
   </g>
  </g>
 </g>
 <defs>
  <clipPath id="pb13dd54231">
   <rect x="39.632812" y="7.2" width="238.27" height="171.16"/>
  </clipPath>
 </defs>
</svg>
