<?xml version="1.0" encoding="utf-8" standalone="no"?>
<!DOCTYPE svg PUBLIC "-//W3C//DTD SVG 1.1//EN"
  "http://www.w3.org/Graphics/SVG/1.1/DTD/svg11.dtd">
<svg xmlns:xlink="http://www.w3.org/1999/xlink" width="285.102812pt" height="213.012812pt" viewBox="0 0 285.102812 213.012812" xmlns="http://www.w3.org/2000/svg" version="1.1">
 <metadata>
  <rdf:RDF xmlns:dc="http://purl.org/dc/elements/1.1/" xmlns:cc="http://creativecommons.org/ns#" xmlns:rdf="http://www.w3.org/1999/02/22-rdf-syntax-ns#">
   <cc:Work>
    <dc:type rdf:resource="http://purl.org/dc/dcmitype/StillImage"/>
    <dc:date>2025-07-12T20:17:40.018932</dc:date>
    <dc:format>image/svg+xml</dc:format>
    <dc:creator>
     <cc:Agent>
      <dc:title>Matplotlib v3.10.3, https://matplotlib.org/</dc:title>
     </cc:Agent>
    </dc:creator>
   </cc:Work>
  </rdf:RDF>
 </metadata>
 <defs>
  <style type="text/css">*{stroke-linejoin: round; stroke-linecap: butt}</style>
 </defs>
 <g id="figure_1">
  <g id="patch_1">
   <path d="M 0 213.012812 
L 285.102812 213.012812 
L 285.102812 0 
L 0 0 
L 0 213.012812 
z
" style="fill: none"/>
  </g>
  <g id="axes_1">
   <g id="patch_2">
    <path d="M 39.632812 178.36 
L 277.902813 178.36 
L 277.902813 7.2 
L 39.632812 7.2 
L 39.632812 178.36 
z
" style="fill: none"/>
   </g>
   <g id="matplotlib.axis_1">
    <g id="xtick_1">
     <g id="line2d_1">
      <path d="M 39.632812 178.36 
L 39.632812 7.2 
" clip-path="url(#p8f5044f1c8)" style="fill: none; stroke: #cccccc; stroke-opacity: 0.3; stroke-width: 0.5; stroke-linecap: round"/>
     </g>
     <g id="line2d_2">
      <defs>
       <path id="mace4b1c91b" d="M 0 0 
L 0 3.5 
" style="stroke: #262626; stroke-width: 0.8"/>
      </defs>
      <g>
       <use xlink:href="#mace4b1c91b" x="39.632812" y="178.36" style="fill: #262626; stroke: #262626; stroke-width: 0.8"/>
      </g>
     </g>
     <g id="text_1">
      <!-- 0 -->
      <g style="fill: #262626" transform="translate(37.087812 191.43875) scale(0.08 -0.08)">
       <defs>
        <path id="DejaVuSans-30" d="M 2034 4250 
Q 1547 4250 1301 3770 
Q 1056 3291 1056 2328 
Q 1056 1369 1301 889 
Q 1547 409 2034 409 
Q 2525 409 2770 889 
Q 3016 1369 3016 2328 
Q 3016 3291 2770 3770 
Q 2525 4250 2034 4250 
z
M 2034 4750 
Q 2819 4750 3233 4129 
Q 3647 3509 3647 2328 
Q 3647 1150 3233 529 
Q 2819 -91 2034 -91 
Q 1250 -91 836 529 
Q 422 1150 422 2328 
Q 422 3509 836 4129 
Q 1250 4750 2034 4750 
z
" transform="scale(0.015625)"/>
       </defs>
       <use xlink:href="#DejaVuSans-30"/>
      </g>
     </g>
    </g>
    <g id="xtick_2">
     <g id="line2d_3">
      <path d="M 84.541119 178.36 
L 84.541119 7.2 
" clip-path="url(#p8f5044f1c8)" style="fill: none; stroke: #cccccc; stroke-opacity: 0.3; stroke-width: 0.5; stroke-linecap: round"/>
     </g>
     <g id="line2d_4">
      <g>
       <use xlink:href="#mace4b1c91b" x="84.541119" y="178.36" style="fill: #262626; stroke: #262626; stroke-width: 0.8"/>
      </g>
     </g>
     <g id="text_2">
      <!-- 1000 -->
      <g style="fill: #262626" transform="translate(74.361119 191.43875) scale(0.08 -0.08)">
       <defs>
        <path id="DejaVuSans-31" d="M 794 531 
L 1825 531 
L 1825 4091 
L 703 3866 
L 703 4441 
L 1819 4666 
L 2450 4666 
L 2450 531 
L 3481 531 
L 3481 0 
L 794 0 
L 794 531 
z
" transform="scale(0.015625)"/>
       </defs>
       <use xlink:href="#DejaVuSans-31"/>
       <use xlink:href="#DejaVuSans-30" transform="translate(63.623047 0)"/>
       <use xlink:href="#DejaVuSans-30" transform="translate(127.246094 0)"/>
       <use xlink:href="#DejaVuSans-30" transform="translate(190.869141 0)"/>
      </g>
     </g>
    </g>
    <g id="xtick_3">
     <g id="line2d_5">
      <path d="M 129.449425 178.36 
L 129.449425 7.2 
" clip-path="url(#p8f5044f1c8)" style="fill: none; stroke: #cccccc; stroke-opacity: 0.3; stroke-width: 0.5; stroke-linecap: round"/>
     </g>
     <g id="line2d_6">
      <g>
       <use xlink:href="#mace4b1c91b" x="129.449425" y="178.36" style="fill: #262626; stroke: #262626; stroke-width: 0.8"/>
      </g>
     </g>
     <g id="text_3">
      <!-- 2000 -->
      <g style="fill: #262626" transform="translate(119.269425 191.43875) scale(0.08 -0.08)">
       <defs>
        <path id="DejaVuSans-32" d="M 1228 531 
L 3431 531 
L 3431 0 
L 469 0 
L 469 531 
Q 828 903 1448 1529 
Q 2069 2156 2228 2338 
Q 2531 2678 2651 2914 
Q 2772 3150 2772 3378 
Q 2772 3750 2511 3984 
Q 2250 4219 1831 4219 
Q 1534 4219 1204 4116 
Q 875 4013 500 3803 
L 500 4441 
Q 881 4594 1212 4672 
Q 1544 4750 1819 4750 
Q 2544 4750 2975 4387 
Q 3406 4025 3406 3419 
Q 3406 3131 3298 2873 
Q 3191 2616 2906 2266 
Q 2828 2175 2409 1742 
Q 1991 1309 1228 531 
z
" transform="scale(0.015625)"/>
       </defs>
       <use xlink:href="#DejaVuSans-32"/>
       <use xlink:href="#DejaVuSans-30" transform="translate(63.623047 0)"/>
       <use xlink:href="#DejaVuSans-30" transform="translate(127.246094 0)"/>
       <use xlink:href="#DejaVuSans-30" transform="translate(190.869141 0)"/>
      </g>
     </g>
    </g>
    <g id="xtick_4">
     <g id="line2d_7">
      <path d="M 174.357731 178.36 
L 174.357731 7.2 
" clip-path="url(#p8f5044f1c8)" style="fill: none; stroke: #cccccc; stroke-opacity: 0.3; stroke-width: 0.5; stroke-linecap: round"/>
     </g>
     <g id="line2d_8">
      <g>
       <use xlink:href="#mace4b1c91b" x="174.357731" y="178.36" style="fill: #262626; stroke: #262626; stroke-width: 0.8"/>
      </g>
     </g>
     <g id="text_4">
      <!-- 3000 -->
      <g style="fill: #262626" transform="translate(164.177731 191.43875) scale(0.08 -0.08)">
       <defs>
        <path id="DejaVuSans-33" d="M 2597 2516 
Q 3050 2419 3304 2112 
Q 3559 1806 3559 1356 
Q 3559 666 3084 287 
Q 2609 -91 1734 -91 
Q 1441 -91 1130 -33 
Q 819 25 488 141 
L 488 750 
Q 750 597 1062 519 
Q 1375 441 1716 441 
Q 2309 441 2620 675 
Q 2931 909 2931 1356 
Q 2931 1769 2642 2001 
Q 2353 2234 1838 2234 
L 1294 2234 
L 1294 2753 
L 1863 2753 
Q 2328 2753 2575 2939 
Q 2822 3125 2822 3475 
Q 2822 3834 2567 4026 
Q 2313 4219 1838 4219 
Q 1578 4219 1281 4162 
Q 984 4106 628 3988 
L 628 4550 
Q 988 4650 1302 4700 
Q 1616 4750 1894 4750 
Q 2613 4750 3031 4423 
Q 3450 4097 3450 3541 
Q 3450 3153 3228 2886 
Q 3006 2619 2597 2516 
z
" transform="scale(0.015625)"/>
       </defs>
       <use xlink:href="#DejaVuSans-33"/>
       <use xlink:href="#DejaVuSans-30" transform="translate(63.623047 0)"/>
       <use xlink:href="#DejaVuSans-30" transform="translate(127.246094 0)"/>
       <use xlink:href="#DejaVuSans-30" transform="translate(190.869141 0)"/>
      </g>
     </g>
    </g>
    <g id="xtick_5">
     <g id="line2d_9">
      <path d="M 219.266037 178.36 
L 219.266037 7.2 
" clip-path="url(#p8f5044f1c8)" style="fill: none; stroke: #cccccc; stroke-opacity: 0.3; stroke-width: 0.5; stroke-linecap: round"/>
     </g>
     <g id="line2d_10">
      <g>
       <use xlink:href="#mace4b1c91b" x="219.266037" y="178.36" style="fill: #262626; stroke: #262626; stroke-width: 0.8"/>
      </g>
     </g>
     <g id="text_5">
      <!-- 4000 -->
      <g style="fill: #262626" transform="translate(209.086037 191.43875) scale(0.08 -0.08)">
       <defs>
        <path id="DejaVuSans-34" d="M 2419 4116 
L 825 1625 
L 2419 1625 
L 2419 4116 
z
M 2253 4666 
L 3047 4666 
L 3047 1625 
L 3713 1625 
L 3713 1100 
L 3047 1100 
L 3047 0 
L 2419 0 
L 2419 1100 
L 313 1100 
L 313 1709 
L 2253 4666 
z
" transform="scale(0.015625)"/>
       </defs>
       <use xlink:href="#DejaVuSans-34"/>
       <use xlink:href="#DejaVuSans-30" transform="translate(63.623047 0)"/>
       <use xlink:href="#DejaVuSans-30" transform="translate(127.246094 0)"/>
       <use xlink:href="#DejaVuSans-30" transform="translate(190.869141 0)"/>
      </g>
     </g>
    </g>
    <g id="xtick_6">
     <g id="line2d_11">
      <path d="M 264.174343 178.36 
L 264.174343 7.2 
" clip-path="url(#p8f5044f1c8)" style="fill: none; stroke: #cccccc; stroke-opacity: 0.3; stroke-width: 0.5; stroke-linecap: round"/>
     </g>
     <g id="line2d_12">
      <g>
       <use xlink:href="#mace4b1c91b" x="264.174343" y="178.36" style="fill: #262626; stroke: #262626; stroke-width: 0.8"/>
      </g>
     </g>
     <g id="text_6">
      <!-- 5000 -->
      <g style="fill: #262626" transform="translate(253.994343 191.43875) scale(0.08 -0.08)">
       <defs>
        <path id="DejaVuSans-35" d="M 691 4666 
L 3169 4666 
L 3169 4134 
L 1269 4134 
L 1269 2991 
Q 1406 3038 1543 3061 
Q 1681 3084 1819 3084 
Q 2600 3084 3056 2656 
Q 3513 2228 3513 1497 
Q 3513 744 3044 326 
Q 2575 -91 1722 -91 
Q 1428 -91 1123 -41 
Q 819 9 494 109 
L 494 744 
Q 775 591 1075 516 
Q 1375 441 1709 441 
Q 2250 441 2565 725 
Q 2881 1009 2881 1497 
Q 2881 1984 2565 2268 
Q 2250 2553 1709 2553 
Q 1456 2553 1204 2497 
Q 953 2441 691 2322 
L 691 4666 
z
" transform="scale(0.015625)"/>
       </defs>
       <use xlink:href="#DejaVuSans-35"/>
       <use xlink:href="#DejaVuSans-30" transform="translate(63.623047 0)"/>
       <use xlink:href="#DejaVuSans-30" transform="translate(127.246094 0)"/>
       <use xlink:href="#DejaVuSans-30" transform="translate(190.869141 0)"/>
      </g>
     </g>
    </g>
    <g id="text_7">
     <!-- Time (days) -->
     <g style="fill: #262626" transform="translate(132.193906 203.941094) scale(0.09 -0.09)">
      <defs>
       <path id="DejaVuSans-54" d="M -19 4666 
L 3928 4666 
L 3928 4134 
L 2272 4134 
L 2272 0 
L 1638 0 
L 1638 4134 
L -19 4134 
L -19 4666 
z
" transform="scale(0.015625)"/>
       <path id="DejaVuSans-69" d="M 603 3500 
L 1178 3500 
L 1178 0 
L 603 0 
L 603 3500 
z
M 603 4863 
L 1178 4863 
L 1178 4134 
L 603 4134 
L 603 4863 
z
" transform="scale(0.015625)"/>
       <path id="DejaVuSans-6d" d="M 3328 2828 
Q 3544 3216 3844 3400 
Q 4144 3584 4550 3584 
Q 5097 3584 5394 3201 
Q 5691 2819 5691 2113 
L 5691 0 
L 5113 0 
L 5113 2094 
Q 5113 2597 4934 2840 
Q 4756 3084 4391 3084 
Q 3944 3084 3684 2787 
Q 3425 2491 3425 1978 
L 3425 0 
L 2847 0 
L 2847 2094 
Q 2847 2600 2669 2842 
Q 2491 3084 2119 3084 
Q 1678 3084 1418 2786 
Q 1159 2488 1159 1978 
L 1159 0 
L 581 0 
L 581 3500 
L 1159 3500 
L 1159 2956 
Q 1356 3278 1631 3431 
Q 1906 3584 2284 3584 
Q 2666 3584 2933 3390 
Q 3200 3197 3328 2828 
z
" transform="scale(0.015625)"/>
       <path id="DejaVuSans-65" d="M 3597 1894 
L 3597 1613 
L 953 1613 
Q 991 1019 1311 708 
Q 1631 397 2203 397 
Q 2534 397 2845 478 
Q 3156 559 3463 722 
L 3463 178 
Q 3153 47 2828 -22 
Q 2503 -91 2169 -91 
Q 1331 -91 842 396 
Q 353 884 353 1716 
Q 353 2575 817 3079 
Q 1281 3584 2069 3584 
Q 2775 3584 3186 3129 
Q 3597 2675 3597 1894 
z
M 3022 2063 
Q 3016 2534 2758 2815 
Q 2500 3097 2075 3097 
Q 1594 3097 1305 2825 
Q 1016 2553 972 2059 
L 3022 2063 
z
" transform="scale(0.015625)"/>
       <path id="DejaVuSans-20" transform="scale(0.015625)"/>
       <path id="DejaVuSans-28" d="M 1984 4856 
Q 1566 4138 1362 3434 
Q 1159 2731 1159 2009 
Q 1159 1288 1364 580 
Q 1569 -128 1984 -844 
L 1484 -844 
Q 1016 -109 783 600 
Q 550 1309 550 2009 
Q 550 2706 781 3412 
Q 1013 4119 1484 4856 
L 1984 4856 
z
" transform="scale(0.015625)"/>
       <path id="DejaVuSans-64" d="M 2906 2969 
L 2906 4863 
L 3481 4863 
L 3481 0 
L 2906 0 
L 2906 525 
Q 2725 213 2448 61 
Q 2172 -91 1784 -91 
Q 1150 -91 751 415 
Q 353 922 353 1747 
Q 353 2572 751 3078 
Q 1150 3584 1784 3584 
Q 2172 3584 2448 3432 
Q 2725 3281 2906 2969 
z
M 947 1747 
Q 947 1113 1208 752 
Q 1469 391 1925 391 
Q 2381 391 2643 752 
Q 2906 1113 2906 1747 
Q 2906 2381 2643 2742 
Q 2381 3103 1925 3103 
Q 1469 3103 1208 2742 
Q 947 2381 947 1747 
z
" transform="scale(0.015625)"/>
       <path id="DejaVuSans-61" d="M 2194 1759 
Q 1497 1759 1228 1600 
Q 959 1441 959 1056 
Q 959 750 1161 570 
Q 1363 391 1709 391 
Q 2188 391 2477 730 
Q 2766 1069 2766 1631 
L 2766 1759 
L 2194 1759 
z
M 3341 1997 
L 3341 0 
L 2766 0 
L 2766 531 
Q 2569 213 2275 61 
Q 1981 -91 1556 -91 
Q 1019 -91 701 211 
Q 384 513 384 1019 
Q 384 1609 779 1909 
Q 1175 2209 1959 2209 
L 2766 2209 
L 2766 2266 
Q 2766 2663 2505 2880 
Q 2244 3097 1772 3097 
Q 1472 3097 1187 3025 
Q 903 2953 641 2809 
L 641 3341 
Q 956 3463 1253 3523 
Q 1550 3584 1831 3584 
Q 2591 3584 2966 3190 
Q 3341 2797 3341 1997 
z
" transform="scale(0.015625)"/>
       <path id="DejaVuSans-79" d="M 2059 -325 
Q 1816 -950 1584 -1140 
Q 1353 -1331 966 -1331 
L 506 -1331 
L 506 -850 
L 844 -850 
Q 1081 -850 1212 -737 
Q 1344 -625 1503 -206 
L 1606 56 
L 191 3500 
L 800 3500 
L 1894 763 
L 2988 3500 
L 3597 3500 
L 2059 -325 
z
" transform="scale(0.015625)"/>
       <path id="DejaVuSans-73" d="M 2834 3397 
L 2834 2853 
Q 2591 2978 2328 3040 
Q 2066 3103 1784 3103 
Q 1356 3103 1142 2972 
Q 928 2841 928 2578 
Q 928 2378 1081 2264 
Q 1234 2150 1697 2047 
L 1894 2003 
Q 2506 1872 2764 1633 
Q 3022 1394 3022 966 
Q 3022 478 2636 193 
Q 2250 -91 1575 -91 
Q 1294 -91 989 -36 
Q 684 19 347 128 
L 347 722 
Q 666 556 975 473 
Q 1284 391 1588 391 
Q 1994 391 2212 530 
Q 2431 669 2431 922 
Q 2431 1156 2273 1281 
Q 2116 1406 1581 1522 
L 1381 1569 
Q 847 1681 609 1914 
Q 372 2147 372 2553 
Q 372 3047 722 3315 
Q 1072 3584 1716 3584 
Q 2034 3584 2315 3537 
Q 2597 3491 2834 3397 
z
" transform="scale(0.015625)"/>
       <path id="DejaVuSans-29" d="M 513 4856 
L 1013 4856 
Q 1481 4119 1714 3412 
Q 1947 2706 1947 2009 
Q 1947 1309 1714 600 
Q 1481 -109 1013 -844 
L 513 -844 
Q 928 -128 1133 580 
Q 1338 1288 1338 2009 
Q 1338 2731 1133 3434 
Q 928 4138 513 4856 
z
" transform="scale(0.015625)"/>
      </defs>
      <use xlink:href="#DejaVuSans-54"/>
      <use xlink:href="#DejaVuSans-69" transform="translate(57.958984 0)"/>
      <use xlink:href="#DejaVuSans-6d" transform="translate(85.742188 0)"/>
      <use xlink:href="#DejaVuSans-65" transform="translate(183.154297 0)"/>
      <use xlink:href="#DejaVuSans-20" transform="translate(244.677734 0)"/>
      <use xlink:href="#DejaVuSans-28" transform="translate(276.464844 0)"/>
      <use xlink:href="#DejaVuSans-64" transform="translate(315.478516 0)"/>
      <use xlink:href="#DejaVuSans-61" transform="translate(378.955078 0)"/>
      <use xlink:href="#DejaVuSans-79" transform="translate(440.234375 0)"/>
      <use xlink:href="#DejaVuSans-73" transform="translate(499.414062 0)"/>
      <use xlink:href="#DejaVuSans-29" transform="translate(551.513672 0)"/>
     </g>
    </g>
   </g>
   <g id="matplotlib.axis_2">
    <g id="ytick_1">
     <g id="line2d_13">
      <path d="M 39.632812 178.36 
L 277.902813 178.36 
" clip-path="url(#p8f5044f1c8)" style="fill: none; stroke: #cccccc; stroke-opacity: 0.3; stroke-width: 0.5; stroke-linecap: round"/>
     </g>
     <g id="line2d_14">
      <defs>
       <path id="mf4b1bb1a78" d="M 0 0 
L -3.5 0 
" style="stroke: #262626; stroke-width: 0.8"/>
      </defs>
      <g>
       <use xlink:href="#mf4b1bb1a78" x="39.632812" y="178.36" style="fill: #262626; stroke: #262626; stroke-width: 0.8"/>
      </g>
     </g>
     <g id="text_8">
      <!-- 0.0 -->
      <g style="fill: #262626" transform="translate(19.910312 181.399375) scale(0.08 -0.08)">
       <defs>
        <path id="DejaVuSans-2e" d="M 684 794 
L 1344 794 
L 1344 0 
L 684 0 
L 684 794 
z
" transform="scale(0.015625)"/>
       </defs>
       <use xlink:href="#DejaVuSans-30"/>
       <use xlink:href="#DejaVuSans-2e" transform="translate(63.623047 0)"/>
       <use xlink:href="#DejaVuSans-30" transform="translate(95.410156 0)"/>
      </g>
     </g>
    </g>
    <g id="ytick_2">
     <g id="line2d_15">
      <path d="M 39.632812 145.758095 
L 277.902813 145.758095 
" clip-path="url(#p8f5044f1c8)" style="fill: none; stroke: #cccccc; stroke-opacity: 0.3; stroke-width: 0.5; stroke-linecap: round"/>
     </g>
     <g id="line2d_16">
      <g>
       <use xlink:href="#mf4b1bb1a78" x="39.632812" y="145.758095" style="fill: #262626; stroke: #262626; stroke-width: 0.8"/>
      </g>
     </g>
     <g id="text_9">
      <!-- 0.2 -->
      <g style="fill: #262626" transform="translate(19.910312 148.79747) scale(0.08 -0.08)">
       <use xlink:href="#DejaVuSans-30"/>
       <use xlink:href="#DejaVuSans-2e" transform="translate(63.623047 0)"/>
       <use xlink:href="#DejaVuSans-32" transform="translate(95.410156 0)"/>
      </g>
     </g>
    </g>
    <g id="ytick_3">
     <g id="line2d_17">
      <path d="M 39.632812 113.15619 
L 277.902813 113.15619 
" clip-path="url(#p8f5044f1c8)" style="fill: none; stroke: #cccccc; stroke-opacity: 0.3; stroke-width: 0.5; stroke-linecap: round"/>
     </g>
     <g id="line2d_18">
      <g>
       <use xlink:href="#mf4b1bb1a78" x="39.632812" y="113.15619" style="fill: #262626; stroke: #262626; stroke-width: 0.8"/>
      </g>
     </g>
     <g id="text_10">
      <!-- 0.4 -->
      <g style="fill: #262626" transform="translate(19.910312 116.195565) scale(0.08 -0.08)">
       <use xlink:href="#DejaVuSans-30"/>
       <use xlink:href="#DejaVuSans-2e" transform="translate(63.623047 0)"/>
       <use xlink:href="#DejaVuSans-34" transform="translate(95.410156 0)"/>
      </g>
     </g>
    </g>
    <g id="ytick_4">
     <g id="line2d_19">
      <path d="M 39.632812 80.554286 
L 277.902813 80.554286 
" clip-path="url(#p8f5044f1c8)" style="fill: none; stroke: #cccccc; stroke-opacity: 0.3; stroke-width: 0.5; stroke-linecap: round"/>
     </g>
     <g id="line2d_20">
      <g>
       <use xlink:href="#mf4b1bb1a78" x="39.632812" y="80.554286" style="fill: #262626; stroke: #262626; stroke-width: 0.8"/>
      </g>
     </g>
     <g id="text_11">
      <!-- 0.6 -->
      <g style="fill: #262626" transform="translate(19.910312 83.593661) scale(0.08 -0.08)">
       <defs>
        <path id="DejaVuSans-36" d="M 2113 2584 
Q 1688 2584 1439 2293 
Q 1191 2003 1191 1497 
Q 1191 994 1439 701 
Q 1688 409 2113 409 
Q 2538 409 2786 701 
Q 3034 994 3034 1497 
Q 3034 2003 2786 2293 
Q 2538 2584 2113 2584 
z
M 3366 4563 
L 3366 3988 
Q 3128 4100 2886 4159 
Q 2644 4219 2406 4219 
Q 1781 4219 1451 3797 
Q 1122 3375 1075 2522 
Q 1259 2794 1537 2939 
Q 1816 3084 2150 3084 
Q 2853 3084 3261 2657 
Q 3669 2231 3669 1497 
Q 3669 778 3244 343 
Q 2819 -91 2113 -91 
Q 1303 -91 875 529 
Q 447 1150 447 2328 
Q 447 3434 972 4092 
Q 1497 4750 2381 4750 
Q 2619 4750 2861 4703 
Q 3103 4656 3366 4563 
z
" transform="scale(0.015625)"/>
       </defs>
       <use xlink:href="#DejaVuSans-30"/>
       <use xlink:href="#DejaVuSans-2e" transform="translate(63.623047 0)"/>
       <use xlink:href="#DejaVuSans-36" transform="translate(95.410156 0)"/>
      </g>
     </g>
    </g>
    <g id="ytick_5">
     <g id="line2d_21">
      <path d="M 39.632812 47.952381 
L 277.902813 47.952381 
" clip-path="url(#p8f5044f1c8)" style="fill: none; stroke: #cccccc; stroke-opacity: 0.3; stroke-width: 0.5; stroke-linecap: round"/>
     </g>
     <g id="line2d_22">
      <g>
       <use xlink:href="#mf4b1bb1a78" x="39.632812" y="47.952381" style="fill: #262626; stroke: #262626; stroke-width: 0.8"/>
      </g>
     </g>
     <g id="text_12">
      <!-- 0.8 -->
      <g style="fill: #262626" transform="translate(19.910312 50.991756) scale(0.08 -0.08)">
       <defs>
        <path id="DejaVuSans-38" d="M 2034 2216 
Q 1584 2216 1326 1975 
Q 1069 1734 1069 1313 
Q 1069 891 1326 650 
Q 1584 409 2034 409 
Q 2484 409 2743 651 
Q 3003 894 3003 1313 
Q 3003 1734 2745 1975 
Q 2488 2216 2034 2216 
z
M 1403 2484 
Q 997 2584 770 2862 
Q 544 3141 544 3541 
Q 544 4100 942 4425 
Q 1341 4750 2034 4750 
Q 2731 4750 3128 4425 
Q 3525 4100 3525 3541 
Q 3525 3141 3298 2862 
Q 3072 2584 2669 2484 
Q 3125 2378 3379 2068 
Q 3634 1759 3634 1313 
Q 3634 634 3220 271 
Q 2806 -91 2034 -91 
Q 1263 -91 848 271 
Q 434 634 434 1313 
Q 434 1759 690 2068 
Q 947 2378 1403 2484 
z
M 1172 3481 
Q 1172 3119 1398 2916 
Q 1625 2713 2034 2713 
Q 2441 2713 2670 2916 
Q 2900 3119 2900 3481 
Q 2900 3844 2670 4047 
Q 2441 4250 2034 4250 
Q 1625 4250 1398 4047 
Q 1172 3844 1172 3481 
z
" transform="scale(0.015625)"/>
       </defs>
       <use xlink:href="#DejaVuSans-30"/>
       <use xlink:href="#DejaVuSans-2e" transform="translate(63.623047 0)"/>
       <use xlink:href="#DejaVuSans-38" transform="translate(95.410156 0)"/>
      </g>
     </g>
    </g>
    <g id="ytick_6">
     <g id="line2d_23">
      <path d="M 39.632812 15.350476 
L 277.902813 15.350476 
" clip-path="url(#p8f5044f1c8)" style="fill: none; stroke: #cccccc; stroke-opacity: 0.3; stroke-width: 0.5; stroke-linecap: round"/>
     </g>
     <g id="line2d_24">
      <g>
       <use xlink:href="#mf4b1bb1a78" x="39.632812" y="15.350476" style="fill: #262626; stroke: #262626; stroke-width: 0.8"/>
      </g>
     </g>
     <g id="text_13">
      <!-- 1.0 -->
      <g style="fill: #262626" transform="translate(19.910312 18.389851) scale(0.08 -0.08)">
       <use xlink:href="#DejaVuSans-31"/>
       <use xlink:href="#DejaVuSans-2e" transform="translate(63.623047 0)"/>
       <use xlink:href="#DejaVuSans-30" transform="translate(95.410156 0)"/>
      </g>
     </g>
    </g>
    <g id="text_14">
     <!-- Survival probability -->
     <g style="fill: #262626" transform="translate(14.038594 136.361797) rotate(-90) scale(0.09 -0.09)">
      <defs>
       <path id="DejaVuSans-53" d="M 3425 4513 
L 3425 3897 
Q 3066 4069 2747 4153 
Q 2428 4238 2131 4238 
Q 1616 4238 1336 4038 
Q 1056 3838 1056 3469 
Q 1056 3159 1242 3001 
Q 1428 2844 1947 2747 
L 2328 2669 
Q 3034 2534 3370 2195 
Q 3706 1856 3706 1288 
Q 3706 609 3251 259 
Q 2797 -91 1919 -91 
Q 1588 -91 1214 -16 
Q 841 59 441 206 
L 441 856 
Q 825 641 1194 531 
Q 1563 422 1919 422 
Q 2459 422 2753 634 
Q 3047 847 3047 1241 
Q 3047 1584 2836 1778 
Q 2625 1972 2144 2069 
L 1759 2144 
Q 1053 2284 737 2584 
Q 422 2884 422 3419 
Q 422 4038 858 4394 
Q 1294 4750 2059 4750 
Q 2388 4750 2728 4690 
Q 3069 4631 3425 4513 
z
" transform="scale(0.015625)"/>
       <path id="DejaVuSans-75" d="M 544 1381 
L 544 3500 
L 1119 3500 
L 1119 1403 
Q 1119 906 1312 657 
Q 1506 409 1894 409 
Q 2359 409 2629 706 
Q 2900 1003 2900 1516 
L 2900 3500 
L 3475 3500 
L 3475 0 
L 2900 0 
L 2900 538 
Q 2691 219 2414 64 
Q 2138 -91 1772 -91 
Q 1169 -91 856 284 
Q 544 659 544 1381 
z
M 1991 3584 
L 1991 3584 
z
" transform="scale(0.015625)"/>
       <path id="DejaVuSans-72" d="M 2631 2963 
Q 2534 3019 2420 3045 
Q 2306 3072 2169 3072 
Q 1681 3072 1420 2755 
Q 1159 2438 1159 1844 
L 1159 0 
L 581 0 
L 581 3500 
L 1159 3500 
L 1159 2956 
Q 1341 3275 1631 3429 
Q 1922 3584 2338 3584 
Q 2397 3584 2469 3576 
Q 2541 3569 2628 3553 
L 2631 2963 
z
" transform="scale(0.015625)"/>
       <path id="DejaVuSans-76" d="M 191 3500 
L 800 3500 
L 1894 563 
L 2988 3500 
L 3597 3500 
L 2284 0 
L 1503 0 
L 191 3500 
z
" transform="scale(0.015625)"/>
       <path id="DejaVuSans-6c" d="M 603 4863 
L 1178 4863 
L 1178 0 
L 603 0 
L 603 4863 
z
" transform="scale(0.015625)"/>
       <path id="DejaVuSans-70" d="M 1159 525 
L 1159 -1331 
L 581 -1331 
L 581 3500 
L 1159 3500 
L 1159 2969 
Q 1341 3281 1617 3432 
Q 1894 3584 2278 3584 
Q 2916 3584 3314 3078 
Q 3713 2572 3713 1747 
Q 3713 922 3314 415 
Q 2916 -91 2278 -91 
Q 1894 -91 1617 61 
Q 1341 213 1159 525 
z
M 3116 1747 
Q 3116 2381 2855 2742 
Q 2594 3103 2138 3103 
Q 1681 3103 1420 2742 
Q 1159 2381 1159 1747 
Q 1159 1113 1420 752 
Q 1681 391 2138 391 
Q 2594 391 2855 752 
Q 3116 1113 3116 1747 
z
" transform="scale(0.015625)"/>
       <path id="DejaVuSans-6f" d="M 1959 3097 
Q 1497 3097 1228 2736 
Q 959 2375 959 1747 
Q 959 1119 1226 758 
Q 1494 397 1959 397 
Q 2419 397 2687 759 
Q 2956 1122 2956 1747 
Q 2956 2369 2687 2733 
Q 2419 3097 1959 3097 
z
M 1959 3584 
Q 2709 3584 3137 3096 
Q 3566 2609 3566 1747 
Q 3566 888 3137 398 
Q 2709 -91 1959 -91 
Q 1206 -91 779 398 
Q 353 888 353 1747 
Q 353 2609 779 3096 
Q 1206 3584 1959 3584 
z
" transform="scale(0.015625)"/>
       <path id="DejaVuSans-62" d="M 3116 1747 
Q 3116 2381 2855 2742 
Q 2594 3103 2138 3103 
Q 1681 3103 1420 2742 
Q 1159 2381 1159 1747 
Q 1159 1113 1420 752 
Q 1681 391 2138 391 
Q 2594 391 2855 752 
Q 3116 1113 3116 1747 
z
M 1159 2969 
Q 1341 3281 1617 3432 
Q 1894 3584 2278 3584 
Q 2916 3584 3314 3078 
Q 3713 2572 3713 1747 
Q 3713 922 3314 415 
Q 2916 -91 2278 -91 
Q 1894 -91 1617 61 
Q 1341 213 1159 525 
L 1159 0 
L 581 0 
L 581 4863 
L 1159 4863 
L 1159 2969 
z
" transform="scale(0.015625)"/>
       <path id="DejaVuSans-74" d="M 1172 4494 
L 1172 3500 
L 2356 3500 
L 2356 3053 
L 1172 3053 
L 1172 1153 
Q 1172 725 1289 603 
Q 1406 481 1766 481 
L 2356 481 
L 2356 0 
L 1766 0 
Q 1100 0 847 248 
Q 594 497 594 1153 
L 594 3053 
L 172 3053 
L 172 3500 
L 594 3500 
L 594 4494 
L 1172 4494 
z
" transform="scale(0.015625)"/>
      </defs>
      <use xlink:href="#DejaVuSans-53"/>
      <use xlink:href="#DejaVuSans-75" transform="translate(63.476562 0)"/>
      <use xlink:href="#DejaVuSans-72" transform="translate(126.855469 0)"/>
      <use xlink:href="#DejaVuSans-76" transform="translate(167.96875 0)"/>
      <use xlink:href="#DejaVuSans-69" transform="translate(227.148438 0)"/>
      <use xlink:href="#DejaVuSans-76" transform="translate(254.931641 0)"/>
      <use xlink:href="#DejaVuSans-61" transform="translate(314.111328 0)"/>
      <use xlink:href="#DejaVuSans-6c" transform="translate(375.390625 0)"/>
      <use xlink:href="#DejaVuSans-20" transform="translate(403.173828 0)"/>
      <use xlink:href="#DejaVuSans-70" transform="translate(434.960938 0)"/>
      <use xlink:href="#DejaVuSans-72" transform="translate(498.4375 0)"/>
      <use xlink:href="#DejaVuSans-6f" transform="translate(537.300781 0)"/>
      <use xlink:href="#DejaVuSans-62" transform="translate(598.482422 0)"/>
      <use xlink:href="#DejaVuSans-61" transform="translate(661.958984 0)"/>
      <use xlink:href="#DejaVuSans-62" transform="translate(723.238281 0)"/>
      <use xlink:href="#DejaVuSans-69" transform="translate(786.714844 0)"/>
      <use xlink:href="#DejaVuSans-6c" transform="translate(814.498047 0)"/>
      <use xlink:href="#DejaVuSans-69" transform="translate(842.28125 0)"/>
      <use xlink:href="#DejaVuSans-74" transform="translate(870.064453 0)"/>
      <use xlink:href="#DejaVuSans-79" transform="translate(909.273438 0)"/>
     </g>
    </g>
   </g>
   <g id="FillBetweenPolyCollection_1">
    <defs>
     <path id="ma78c260a45" d="M 39.632812 -197.263136 
L 39.632812 -191.395844 
L 40.21662 -191.395844 
L 40.21662 -191.395844 
L 40.306437 -191.395844 
L 40.306437 -191.395844 
L 40.48607 -191.395844 
L 40.48607 -190.354908 
L 40.530979 -190.354908 
L 40.530979 -189.283516 
L 40.890245 -189.283516 
L 40.890245 -189.283516 
L 41.204603 -189.283516 
L 41.204603 -189.283516 
L 41.29442 -189.283516 
L 41.29442 -189.283516 
L 42.147678 -189.283516 
L 42.147678 -188.178518 
L 42.192586 -188.178518 
L 42.192586 -187.09234 
L 42.282403 -187.09234 
L 42.282403 -187.09234 
L 42.417127 -187.09234 
L 42.417127 -186.01465 
L 42.506944 -186.01465 
L 42.506944 -186.01465 
L 42.551852 -186.01465 
L 42.551852 -184.944718 
L 43.40511 -184.944718 
L 43.40511 -184.944718 
L 43.584743 -184.944718 
L 43.584743 -183.88142 
L 43.899102 -183.88142 
L 43.899102 -183.88142 
L 44.033827 -183.88142 
L 44.033827 -182.823612 
L 44.393093 -182.823612 
L 44.393093 -181.778327 
L 44.572726 -181.778327 
L 44.572726 -181.778327 
L 44.887084 -181.778327 
L 44.887084 -181.778327 
L 45.425984 -181.778327 
L 45.425984 -181.778327 
L 46.009792 -181.778327 
L 46.009792 -180.720015 
L 46.32415 -180.720015 
L 46.32415 -179.672801 
L 46.548692 -179.672801 
L 46.548692 -177.60699 
L 46.728325 -177.60699 
L 46.728325 -177.60699 
L 47.177408 -177.60699 
L 47.177408 -176.578827 
L 48.614474 -176.578827 
L 48.614474 -175.55829 
L 48.883924 -175.55829 
L 48.883924 -174.544747 
L 49.198282 -174.544747 
L 49.198282 -173.537658 
L 49.333007 -173.537658 
L 49.333007 -172.536555 
L 50.680256 -172.536555 
L 50.680256 -171.54103 
L 50.770072 -171.54103 
L 50.770072 -170.550726 
L 51.039522 -170.550726 
L 51.039522 -169.565326 
L 51.264064 -169.565326 
L 51.264064 -168.584549 
L 51.35388 -168.584549 
L 51.35388 -167.608144 
L 51.847872 -167.608144 
L 51.847872 -165.667565 
L 51.89278 -165.667565 
L 51.89278 -164.703002 
L 52.835855 -164.703002 
L 52.835855 -163.742025 
L 53.599296 -163.742025 
L 53.599296 -162.784483 
L 54.048379 -162.784483 
L 54.048379 -161.830232 
L 54.362737 -161.830232 
L 54.362737 -160.879145 
L 54.54237 -160.879145 
L 54.54237 -159.931101 
L 54.587278 -159.931101 
L 54.587278 -159.931101 
L 54.766912 -159.931101 
L 54.766912 -159.931101 
L 54.901637 -159.931101 
L 54.901637 -158.971206 
L 55.08127 -158.971206 
L 55.08127 -157.060408 
L 55.844711 -157.060408 
L 55.844711 -157.060408 
L 55.979436 -157.060408 
L 55.979436 -156.094018 
L 56.024344 -156.094018 
L 56.024344 -156.094018 
L 56.338702 -156.094018 
L 56.338702 -156.094018 
L 56.653061 -156.094018 
L 56.653061 -156.094018 
L 56.787785 -156.094018 
L 56.787785 -156.094018 
L 56.832694 -156.094018 
L 56.832694 -156.094018 
L 56.877602 -156.094018 
L 56.877602 -156.094018 
L 56.967419 -156.094018 
L 56.967419 -155.07305 
L 57.102144 -155.07305 
L 57.102144 -155.07305 
L 57.326685 -155.07305 
L 57.326685 -155.07305 
L 57.506318 -155.07305 
L 57.506318 -155.07305 
L 57.955401 -155.07305 
L 57.955401 -154.028939 
L 58.045218 -154.028939 
L 58.045218 -154.028939 
L 58.179943 -154.028939 
L 58.179943 -151.933781 
L 58.26976 -151.933781 
L 58.26976 -151.933781 
L 58.314668 -151.933781 
L 58.314668 -151.933781 
L 58.853568 -151.933781 
L 58.853568 -151.933781 
L 59.078109 -151.933781 
L 59.078109 -151.933781 
L 59.123017 -151.933781 
L 59.123017 -150.853107 
L 59.257742 -150.853107 
L 59.257742 -149.77652 
L 60.066092 -149.77652 
L 60.066092 -148.703863 
L 60.155908 -148.703863 
L 60.155908 -148.703863 
L 60.290633 -148.703863 
L 60.290633 -147.61446 
L 60.560083 -147.61446 
L 60.560083 -147.61446 
L 60.604991 -147.61446 
L 60.604991 -147.61446 
L 60.964258 -147.61446 
L 60.964258 -147.61446 
L 61.054075 -147.61446 
L 61.054075 -147.61446 
L 61.233708 -147.61446 
L 61.233708 -147.61446 
L 61.458249 -147.61446 
L 61.458249 -146.462391 
L 61.682791 -146.462391 
L 61.682791 -146.462391 
L 61.862424 -146.462391 
L 61.862424 -145.303168 
L 62.22169 -145.303168 
L 62.22169 -145.303168 
L 62.401324 -145.303168 
L 62.401324 -145.303168 
L 62.446232 -145.303168 
L 62.446232 -144.124093 
L 62.536049 -144.124093 
L 62.536049 -142.937229 
L 62.625865 -142.937229 
L 62.625865 -142.937229 
L 63.613848 -142.937229 
L 63.613848 -141.742272 
L 63.703665 -141.742272 
L 63.703665 -141.742272 
L 63.83839 -141.742272 
L 63.83839 -140.538908 
L 63.883298 -140.538908 
L 63.883298 -140.538908 
L 64.062931 -140.538908 
L 64.062931 -138.11969 
L 64.197656 -138.11969 
L 64.197656 -136.917361 
L 64.781464 -136.917361 
L 64.781464 -136.917361 
L 64.871281 -136.917361 
L 64.871281 -136.917361 
L 65.320364 -136.917361 
L 65.320364 -136.917361 
L 65.365272 -136.917361 
L 65.365272 -136.917361 
L 66.128713 -136.917361 
L 66.128713 -135.661057 
L 66.263438 -135.661057 
L 66.263438 -134.394496 
L 66.532888 -134.394496 
L 66.532888 -133.133324 
L 66.667613 -133.133324 
L 66.667613 -131.877358 
L 67.251421 -131.877358 
L 67.251421 -130.626428 
L 67.610687 -130.626428 
L 67.610687 -129.380381 
L 68.05977 -129.380381 
L 68.05977 -129.380381 
L 68.284312 -129.380381 
L 68.284312 -129.380381 
L 68.419037 -129.380381 
L 68.419037 -129.380381 
L 68.463945 -129.380381 
L 68.463945 -129.380381 
L 68.643578 -129.380381 
L 68.643578 -129.380381 
L 68.733395 -129.380381 
L 68.733395 -129.380381 
L 69.496836 -129.380381 
L 69.496836 -128.034029 
L 70.395002 -128.034029 
L 70.395002 -126.69385 
L 70.664452 -126.69385 
L 70.664452 -126.69385 
L 71.068627 -126.69385 
L 71.068627 -126.69385 
L 72.460784 -126.69385 
L 72.460784 -126.69385 
L 73.314042 -126.69385 
L 73.314042 -126.69385 
L 73.808033 -126.69385 
L 73.808033 -126.69385 
L 74.796016 -126.69385 
L 74.796016 -126.69385 
L 75.065466 -126.69385 
L 75.065466 -126.69385 
L 76.143265 -126.69385 
L 76.143265 -126.69385 
L 76.457624 -126.69385 
L 76.457624 -126.69385 
L 76.996523 -126.69385 
L 76.996523 -126.69385 
L 77.445606 -126.69385 
L 77.445606 -126.69385 
L 77.849781 -126.69385 
L 77.849781 -126.69385 
L 78.433589 -126.69385 
L 78.433589 -126.69385 
L 79.915563 -126.69385 
L 79.915563 -126.69385 
L 80.00538 -126.69385 
L 80.00538 -126.69385 
L 80.229921 -126.69385 
L 80.229921 -124.99744 
L 80.319738 -124.99744 
L 80.319738 -124.99744 
L 81.891529 -124.99744 
L 81.891529 -123.28308 
L 82.250795 -123.28308 
L 82.250795 -121.581975 
L 83.373503 -121.581975 
L 83.373503 -119.893496 
L 84.406394 -119.893496 
L 84.406394 -119.893496 
L 84.76566 -119.893496 
L 84.76566 -118.184293 
L 85.84346 -118.184293 
L 85.84346 -118.184293 
L 86.157818 -118.184293 
L 86.157818 -116.453134 
L 87.41525 -116.453134 
L 87.41525 -114.734615 
L 87.774517 -114.734615 
L 87.774517 -114.734615 
L 88.762499 -114.734615 
L 88.762499 -114.734615 
L 89.391216 -114.734615 
L 89.391216 -114.734615 
L 89.481032 -114.734615 
L 89.481032 -114.734615 
L 90.244474 -114.734615 
L 90.244474 -114.734615 
L 91.861173 -114.734615 
L 91.861173 -112.831172 
L 92.355164 -112.831172 
L 92.355164 -112.831172 
L 92.669522 -112.831172 
L 92.669522 -112.831172 
L 96.666361 -112.831172 
L 96.666361 -110.852178 
L 100.259026 -110.852178 
L 100.259026 -110.852178 
L 101.157192 -110.852178 
L 101.157192 -110.852178 
L 103.402607 -110.852178 
L 103.402607 -108.789628 
L 104.974398 -108.789628 
L 104.974398 -108.789628 
L 106.052197 -108.789628 
L 106.052197 -108.789628 
L 107.983254 -108.789628 
L 107.983254 -108.789628 
L 108.701787 -108.789628 
L 108.701787 -108.789628 
L 108.881421 -108.789628 
L 108.881421 -108.789628 
L 110.677753 -108.789628 
L 110.677753 -108.789628 
L 111.665736 -108.789628 
L 111.665736 -108.789628 
L 112.429177 -108.789628 
L 112.429177 -108.789628 
L 113.237526 -108.789628 
L 113.237526 -108.789628 
L 113.686609 -108.789628 
L 113.686609 -108.789628 
L 116.336199 -108.789628 
L 116.336199 -108.789628 
L 116.605649 -108.789628 
L 116.605649 -108.789628 
L 116.785282 -108.789628 
L 116.785282 -105.821557 
L 118.71634 -105.821557 
L 118.71634 -105.821557 
L 120.647397 -105.821557 
L 120.647397 -102.802405 
L 120.737213 -102.802405 
L 120.737213 -102.802405 
L 122.488637 -102.802405 
L 122.488637 -102.802405 
L 127.159101 -102.802405 
L 127.159101 -102.802405 
L 127.293826 -102.802405 
L 127.293826 -102.802405 
L 129.808691 -102.802405 
L 129.808691 -102.802405 
L 129.8536 -102.802405 
L 129.8536 -102.802405 
L 130.527224 -102.802405 
L 130.527224 -102.802405 
L 130.661949 -102.802405 
L 130.661949 -102.802405 
L 131.42539 -102.802405 
L 131.42539 -102.802405 
L 131.649932 -102.802405 
L 131.649932 -102.802405 
L 135.691679 -102.802405 
L 135.691679 -102.802405 
L 137.398195 -102.802405 
L 137.398195 -102.802405 
L 142.607559 -102.802405 
L 142.607559 -102.802405 
L 143.460816 -102.802405 
L 143.460816 -102.802405 
L 144.269166 -102.802405 
L 144.269166 -102.802405 
L 146.514581 -102.802405 
L 146.514581 -102.802405 
L 148.445638 -102.802405 
L 148.445638 -102.802405 
L 157.517116 -102.802405 
L 157.517116 -102.802405 
L 158.235649 -102.802405 
L 158.235649 -93.906544 
L 158.909274 -93.906544 
L 158.909274 -93.906544 
L 161.019964 -93.906544 
L 161.019964 -93.906544 
L 164.926987 -93.906544 
L 164.926987 -93.906544 
L 168.429835 -93.906544 
L 168.429835 -93.906544 
L 169.238184 -93.906544 
L 169.238184 -93.906544 
L 172.291949 -93.906544 
L 172.291949 -78.876077 
L 172.741032 -78.876077 
L 172.741032 -78.876077 
L 190.704354 -78.876077 
L 190.704354 -78.876077 
L 193.21922 -78.876077 
L 193.21922 -78.876077 
L 211.047817 -78.876077 
L 211.047817 -78.876077 
L 211.856167 -78.876077 
L 211.856167 -78.876077 
L 262.692369 -78.876077 
L 262.692369 -78.876077 
L 266.015584 -78.876077 
L 266.015584 -78.876077 
L 266.015584 -124.884677 
L 266.015584 -124.884677 
L 266.015584 -124.884677 
L 262.692369 -124.884677 
L 262.692369 -124.884677 
L 211.856167 -124.884677 
L 211.856167 -124.884677 
L 211.047817 -124.884677 
L 211.047817 -124.884677 
L 193.21922 -124.884677 
L 193.21922 -124.884677 
L 190.704354 -124.884677 
L 190.704354 -124.884677 
L 172.741032 -124.884677 
L 172.741032 -124.884677 
L 172.291949 -124.884677 
L 172.291949 -128.867746 
L 169.238184 -128.867746 
L 169.238184 -128.867746 
L 168.429835 -128.867746 
L 168.429835 -128.867746 
L 164.926987 -128.867746 
L 164.926987 -128.867746 
L 161.019964 -128.867746 
L 161.019964 -128.867746 
L 158.909274 -128.867746 
L 158.909274 -128.867746 
L 158.235649 -128.867746 
L 158.235649 -131.96647 
L 157.517116 -131.96647 
L 157.517116 -131.96647 
L 148.445638 -131.96647 
L 148.445638 -131.96647 
L 146.514581 -131.96647 
L 146.514581 -131.96647 
L 144.269166 -131.96647 
L 144.269166 -131.96647 
L 143.460816 -131.96647 
L 143.460816 -131.96647 
L 142.607559 -131.96647 
L 142.607559 -131.96647 
L 137.398195 -131.96647 
L 137.398195 -131.96647 
L 135.691679 -131.96647 
L 135.691679 -131.96647 
L 131.649932 -131.96647 
L 131.649932 -131.96647 
L 131.42539 -131.96647 
L 131.42539 -131.96647 
L 130.661949 -131.96647 
L 130.661949 -131.96647 
L 130.527224 -131.96647 
L 130.527224 -131.96647 
L 129.8536 -131.96647 
L 129.8536 -131.96647 
L 129.808691 -131.96647 
L 129.808691 -131.96647 
L 127.293826 -131.96647 
L 127.293826 -131.96647 
L 127.159101 -131.96647 
L 127.159101 -131.96647 
L 122.488637 -131.96647 
L 122.488637 -131.96647 
L 120.737213 -131.96647 
L 120.737213 -131.96647 
L 120.647397 -131.96647 
L 120.647397 -134.09963 
L 118.71634 -134.09963 
L 118.71634 -134.09963 
L 116.785282 -134.09963 
L 116.785282 -136.148811 
L 116.605649 -136.148811 
L 116.605649 -136.148811 
L 116.336199 -136.148811 
L 116.336199 -136.148811 
L 113.686609 -136.148811 
L 113.686609 -136.148811 
L 113.237526 -136.148811 
L 113.237526 -136.148811 
L 112.429177 -136.148811 
L 112.429177 -136.148811 
L 111.665736 -136.148811 
L 111.665736 -136.148811 
L 110.677753 -136.148811 
L 110.677753 -136.148811 
L 108.881421 -136.148811 
L 108.881421 -136.148811 
L 108.701787 -136.148811 
L 108.701787 -136.148811 
L 107.983254 -136.148811 
L 107.983254 -136.148811 
L 106.052197 -136.148811 
L 106.052197 -136.148811 
L 104.974398 -136.148811 
L 104.974398 -136.148811 
L 103.402607 -136.148811 
L 103.402607 -137.801364 
L 101.157192 -137.801364 
L 101.157192 -137.801364 
L 100.259026 -137.801364 
L 100.259026 -137.801364 
L 96.666361 -137.801364 
L 96.666361 -139.391051 
L 92.669522 -139.391051 
L 92.669522 -139.391051 
L 92.355164 -139.391051 
L 92.355164 -139.391051 
L 91.861173 -139.391051 
L 91.861173 -140.92341 
L 90.244474 -140.92341 
L 90.244474 -140.92341 
L 89.481032 -140.92341 
L 89.481032 -140.92341 
L 89.391216 -140.92341 
L 89.391216 -140.92341 
L 88.762499 -140.92341 
L 88.762499 -140.92341 
L 87.774517 -140.92341 
L 87.774517 -140.92341 
L 87.41525 -140.92341 
L 87.41525 -142.346105 
L 86.157818 -142.346105 
L 86.157818 -143.759837 
L 85.84346 -143.759837 
L 85.84346 -143.759837 
L 84.76566 -143.759837 
L 84.76566 -145.147097 
L 84.406394 -145.147097 
L 84.406394 -145.147097 
L 83.373503 -145.147097 
L 83.373503 -146.508964 
L 82.250795 -146.508964 
L 82.250795 -147.862028 
L 81.891529 -147.862028 
L 81.891529 -149.205943 
L 80.319738 -149.205943 
L 80.319738 -149.205943 
L 80.229921 -149.205943 
L 80.229921 -150.525566 
L 80.00538 -150.525566 
L 80.00538 -150.525566 
L 79.915563 -150.525566 
L 79.915563 -150.525566 
L 78.433589 -150.525566 
L 78.433589 -150.525566 
L 77.849781 -150.525566 
L 77.849781 -150.525566 
L 77.445606 -150.525566 
L 77.445606 -150.525566 
L 76.996523 -150.525566 
L 76.996523 -150.525566 
L 76.457624 -150.525566 
L 76.457624 -150.525566 
L 76.143265 -150.525566 
L 76.143265 -150.525566 
L 75.065466 -150.525566 
L 75.065466 -150.525566 
L 74.796016 -150.525566 
L 74.796016 -150.525566 
L 73.808033 -150.525566 
L 73.808033 -150.525566 
L 73.314042 -150.525566 
L 73.314042 -150.525566 
L 72.460784 -150.525566 
L 72.460784 -150.525566 
L 71.068627 -150.525566 
L 71.068627 -150.525566 
L 70.664452 -150.525566 
L 70.664452 -150.525566 
L 70.395002 -150.525566 
L 70.395002 -151.650001 
L 69.496836 -151.650001 
L 69.496836 -152.769831 
L 68.733395 -152.769831 
L 68.733395 -152.769831 
L 68.643578 -152.769831 
L 68.643578 -152.769831 
L 68.463945 -152.769831 
L 68.463945 -152.769831 
L 68.419037 -152.769831 
L 68.419037 -152.769831 
L 68.284312 -152.769831 
L 68.284312 -152.769831 
L 68.05977 -152.769831 
L 68.05977 -152.769831 
L 67.610687 -152.769831 
L 67.610687 -153.825782 
L 67.251421 -153.825782 
L 67.251421 -154.877953 
L 66.667613 -154.877953 
L 66.667613 -155.926257 
L 66.532888 -155.926257 
L 66.532888 -156.970601 
L 66.263438 -156.970601 
L 66.263438 -158.010886 
L 66.128713 -158.010886 
L 66.128713 -159.038451 
L 65.365272 -159.038451 
L 65.365272 -159.038451 
L 65.320364 -159.038451 
L 65.320364 -159.038451 
L 64.871281 -159.038451 
L 64.871281 -159.038451 
L 64.781464 -159.038451 
L 64.781464 -159.038451 
L 64.197656 -159.038451 
L 64.197656 -160.029502 
L 64.062931 -160.029502 
L 64.062931 -162.000477 
L 63.883298 -162.000477 
L 63.883298 -162.000477 
L 63.83839 -162.000477 
L 63.83839 -162.972758 
L 63.703665 -162.972758 
L 63.703665 -162.972758 
L 63.613848 -162.972758 
L 63.613848 -163.933959 
L 62.625865 -163.933959 
L 62.625865 -163.933959 
L 62.536049 -163.933959 
L 62.536049 -164.884306 
L 62.446232 -164.884306 
L 62.446232 -165.824009 
L 62.401324 -165.824009 
L 62.401324 -165.824009 
L 62.22169 -165.824009 
L 62.22169 -165.824009 
L 61.862424 -165.824009 
L 61.862424 -166.746749 
L 61.682791 -166.746749 
L 61.682791 -166.746749 
L 61.458249 -166.746749 
L 61.458249 -167.659427 
L 61.233708 -167.659427 
L 61.233708 -167.659427 
L 61.054075 -167.659427 
L 61.054075 -167.659427 
L 60.964258 -167.659427 
L 60.964258 -167.659427 
L 60.604991 -167.659427 
L 60.604991 -167.659427 
L 60.560083 -167.659427 
L 60.560083 -167.659427 
L 60.290633 -167.659427 
L 60.290633 -168.532572 
L 60.155908 -168.532572 
L 60.155908 -168.532572 
L 60.066092 -168.532572 
L 60.066092 -169.391277 
L 59.257742 -169.391277 
L 59.257742 -170.246811 
L 59.123017 -170.246811 
L 59.123017 -171.099073 
L 59.078109 -171.099073 
L 59.078109 -171.099073 
L 58.853568 -171.099073 
L 58.853568 -171.099073 
L 58.314668 -171.099073 
L 58.314668 -171.099073 
L 58.26976 -171.099073 
L 58.26976 -171.099073 
L 58.179943 -171.099073 
L 58.179943 -172.752278 
L 58.045218 -172.752278 
L 58.045218 -172.752278 
L 57.955401 -172.752278 
L 57.955401 -173.569155 
L 57.506318 -173.569155 
L 57.506318 -173.569155 
L 57.326685 -173.569155 
L 57.326685 -173.569155 
L 57.102144 -173.569155 
L 57.102144 -173.569155 
L 56.967419 -173.569155 
L 56.967419 -174.368587 
L 56.877602 -174.368587 
L 56.877602 -174.368587 
L 56.832694 -174.368587 
L 56.832694 -174.368587 
L 56.787785 -174.368587 
L 56.787785 -174.368587 
L 56.653061 -174.368587 
L 56.653061 -174.368587 
L 56.338702 -174.368587 
L 56.338702 -174.368587 
L 56.024344 -174.368587 
L 56.024344 -174.368587 
L 55.979436 -174.368587 
L 55.979436 -175.133978 
L 55.844711 -175.133978 
L 55.844711 -175.133978 
L 55.08127 -175.133978 
L 55.08127 -176.639744 
L 54.901637 -176.639744 
L 54.901637 -177.388349 
L 54.766912 -177.388349 
L 54.766912 -177.388349 
L 54.587278 -177.388349 
L 54.587278 -177.388349 
L 54.54237 -177.388349 
L 54.54237 -178.12613 
L 54.362737 -178.12613 
L 54.362737 -178.86093 
L 54.048379 -178.86093 
L 54.048379 -179.592636 
L 53.599296 -179.592636 
L 53.599296 -180.321123 
L 52.835855 -180.321123 
L 52.835855 -181.046255 
L 51.89278 -181.046255 
L 51.89278 -181.767887 
L 51.847872 -181.767887 
L 51.847872 -183.19999 
L 51.35388 -183.19999 
L 51.35388 -183.910094 
L 51.264064 -183.910094 
L 51.264064 -184.615955 
L 51.039522 -184.615955 
L 51.039522 -185.317339 
L 50.770072 -185.317339 
L 50.770072 -186.013983 
L 50.680256 -186.013983 
L 50.680256 -186.705595 
L 49.333007 -186.705595 
L 49.333007 -187.391848 
L 49.198282 -187.391848 
L 49.198282 -188.07237 
L 48.883924 -188.07237 
L 48.883924 -188.746741 
L 48.614474 -188.746741 
L 48.614474 -189.414478 
L 47.177408 -189.414478 
L 47.177408 -190.075027 
L 46.728325 -190.075027 
L 46.728325 -190.075027 
L 46.548692 -190.075027 
L 46.548692 -191.366331 
L 46.32415 -191.366331 
L 46.32415 -191.998417 
L 46.009792 -191.998417 
L 46.009792 -192.620102 
L 45.425984 -192.620102 
L 45.425984 -192.620102 
L 44.887084 -192.620102 
L 44.887084 -192.620102 
L 44.572726 -192.620102 
L 44.572726 -192.620102 
L 44.393093 -192.620102 
L 44.393093 -193.222757 
L 44.033827 -193.222757 
L 44.033827 -193.81269 
L 43.899102 -193.81269 
L 43.899102 -193.81269 
L 43.584743 -193.81269 
L 43.584743 -194.38578 
L 43.40511 -194.38578 
L 43.40511 -194.38578 
L 42.551852 -194.38578 
L 42.551852 -194.939915 
L 42.506944 -194.939915 
L 42.506944 -194.939915 
L 42.417127 -194.939915 
L 42.417127 -195.472246 
L 42.282403 -195.472246 
L 42.282403 -195.472246 
L 42.192586 -195.472246 
L 42.192586 -195.978797 
L 42.147678 -195.978797 
L 42.147678 -196.455269 
L 41.29442 -196.455269 
L 41.29442 -196.455269 
L 41.204603 -196.455269 
L 41.204603 -196.455269 
L 40.890245 -196.455269 
L 40.890245 -196.455269 
L 40.530979 -196.455269 
L 40.530979 -196.886569 
L 40.48607 -196.886569 
L 40.48607 -197.263136 
L 40.306437 -197.263136 
L 40.306437 -197.263136 
L 40.21662 -197.263136 
L 40.21662 -197.263136 
L 39.632812 -197.263136 
z
" style="stroke: #2e86ab; stroke-opacity: 0.2"/>
    </defs>
    <g clip-path="url(#p8f5044f1c8)">
     <use xlink:href="#ma78c260a45" x="0" y="213.012812" style="fill: #2e86ab; fill-opacity: 0.2; stroke: #2e86ab; stroke-opacity: 0.2"/>
    </g>
   </g>
   <g id="FillBetweenPolyCollection_2">
    <defs>
     <path id="m331c694bb3" d="M 36.758681 -197.662336 
L 36.758681 -197.662336 
L 39.632812 -197.662336 
L 39.632812 -197.662336 
L 40.396254 -197.662336 
L 40.396254 -197.662336 
L 41.698595 -197.662336 
L 41.698595 -197.662336 
L 42.102769 -197.662336 
L 42.102769 -197.662336 
L 42.147678 -197.662336 
L 42.147678 -191.991644 
L 42.506944 -191.991644 
L 42.506944 -191.991644 
L 42.641669 -191.991644 
L 42.641669 -191.991644 
L 42.686577 -191.991644 
L 42.686577 -191.240994 
L 42.731486 -191.240994 
L 42.731486 -190.174105 
L 43.045844 -190.174105 
L 43.045844 -189.07618 
L 43.270385 -189.07618 
L 43.270385 -187.983835 
L 43.315294 -187.983835 
L 43.315294 -187.983835 
L 43.629652 -187.983835 
L 43.629652 -187.983835 
L 43.67456 -187.983835 
L 43.67456 -186.885801 
L 43.809285 -186.885801 
L 43.809285 -185.804196 
L 44.078735 -185.804196 
L 44.078735 -184.737519 
L 44.348185 -184.737519 
L 44.348185 -184.737519 
L 44.931993 -184.737519 
L 44.931993 -183.675846 
L 45.111626 -183.675846 
L 45.111626 -182.626727 
L 45.381076 -182.626727 
L 45.381076 -181.588788 
L 45.515801 -181.588788 
L 45.515801 -180.56088 
L 46.099609 -180.56088 
L 46.099609 -179.542038 
L 46.189425 -179.542038 
L 46.189425 -178.531443 
L 46.952866 -178.531443 
L 46.952866 -177.528397 
L 47.177408 -177.528397 
L 47.177408 -176.524893 
L 47.401949 -176.524893 
L 47.401949 -175.528066 
L 47.806124 -175.528066 
L 47.806124 -174.537425 
L 48.030666 -174.537425 
L 48.030666 -174.537425 
L 48.120482 -174.537425 
L 48.120482 -174.537425 
L 48.210299 -174.537425 
L 48.210299 -173.537815 
L 48.614474 -173.537815 
L 48.614474 -172.54399 
L 48.839015 -172.54399 
L 48.839015 -171.555568 
L 49.108465 -171.555568 
L 49.108465 -170.57221 
L 49.51264 -170.57221 
L 49.51264 -169.593617 
L 49.647365 -169.593617 
L 49.647365 -168.619522 
L 49.692273 -168.619522 
L 49.692273 -168.619522 
L 50.05154 -168.619522 
L 50.05154 -166.669435 
L 50.276081 -166.669435 
L 50.276081 -165.700461 
L 50.859889 -165.700461 
L 50.859889 -164.735276 
L 50.904797 -164.735276 
L 50.904797 -163.773707 
L 50.994614 -163.773707 
L 50.994614 -162.808256 
L 51.039522 -162.808256 
L 51.039522 -161.846238 
L 51.219155 -161.846238 
L 51.219155 -160.887512 
L 51.398789 -160.887512 
L 51.398789 -159.931949 
L 51.937688 -159.931949 
L 51.937688 -158.979431 
L 52.027505 -158.979431 
L 52.027505 -158.979431 
L 52.117322 -158.979431 
L 52.117322 -158.022394 
L 52.790946 -158.022394 
L 52.790946 -158.022394 
L 52.835855 -158.022394 
L 52.835855 -157.060717 
L 53.240029 -157.060717 
L 53.240029 -156.101971 
L 54.183104 -156.101971 
L 54.183104 -154.192884 
L 54.407645 -154.192884 
L 54.407645 -153.242364 
L 54.452554 -153.242364 
L 54.452554 -153.242364 
L 55.126178 -153.242364 
L 55.126178 -153.242364 
L 55.620169 -153.242364 
L 55.620169 -152.27079 
L 55.754894 -152.27079 
L 55.754894 -152.27079 
L 55.889619 -152.27079 
L 55.889619 -151.293844 
L 55.979436 -151.293844 
L 55.979436 -151.293844 
L 56.069253 -151.293844 
L 56.069253 -151.293844 
L 56.159069 -151.293844 
L 56.159069 -151.293844 
L 56.203977 -151.293844 
L 56.203977 -151.293844 
L 56.248886 -151.293844 
L 56.248886 -149.262908 
L 56.338702 -149.262908 
L 56.338702 -149.262908 
L 56.383611 -149.262908 
L 56.383611 -149.262908 
L 56.518336 -149.262908 
L 56.518336 -149.262908 
L 56.563244 -149.262908 
L 56.563244 -149.262908 
L 56.92251 -149.262908 
L 56.92251 -147.1511 
L 57.057235 -147.1511 
L 57.057235 -146.100494 
L 57.19196 -146.100494 
L 57.19196 -145.053262 
L 57.281777 -145.053262 
L 57.281777 -144.009298 
L 57.506318 -144.009298 
L 57.506318 -144.009298 
L 57.551227 -144.009298 
L 57.551227 -144.009298 
L 57.596135 -144.009298 
L 57.596135 -142.94821 
L 57.865585 -142.94821 
L 57.865585 -141.89044 
L 58.179943 -141.89044 
L 58.179943 -140.835887 
L 58.26976 -140.835887 
L 58.26976 -139.784462 
L 58.404484 -139.784462 
L 58.404484 -138.725485 
L 58.718843 -138.725485 
L 58.718843 -138.725485 
L 58.853568 -138.725485 
L 58.853568 -138.725485 
L 59.976275 -138.725485 
L 59.976275 -137.647667 
L 60.021183 -137.647667 
L 60.021183 -136.573101 
L 60.290633 -136.573101 
L 60.290633 -136.573101 
L 60.604991 -136.573101 
L 60.604991 -134.41072 
L 60.694808 -134.41072 
L 60.694808 -134.41072 
L 60.91935 -134.41072 
L 60.91935 -133.322522 
L 61.188799 -133.322522 
L 61.188799 -133.322522 
L 61.368433 -133.322522 
L 61.368433 -133.322522 
L 61.413341 -133.322522 
L 61.413341 -133.322522 
L 61.727699 -133.322522 
L 61.727699 -132.187649 
L 61.862424 -132.187649 
L 61.862424 -132.187649 
L 62.536049 -132.187649 
L 62.536049 -131.029689 
L 63.074948 -131.029689 
L 63.074948 -129.875654 
L 63.164765 -129.875654 
L 63.164765 -129.875654 
L 63.434215 -129.875654 
L 63.434215 -128.697089 
L 63.703665 -128.697089 
L 63.703665 -127.522603 
L 63.83839 -127.522603 
L 63.83839 -127.522603 
L 63.973114 -127.522603 
L 63.973114 -127.522603 
L 64.152748 -127.522603 
L 64.152748 -127.522603 
L 64.197656 -127.522603 
L 64.197656 -126.290352 
L 64.332381 -126.290352 
L 64.332381 -125.06278 
L 65.006005 -125.06278 
L 65.006005 -122.621185 
L 65.320364 -122.621185 
L 65.320364 -122.621185 
L 65.455089 -122.621185 
L 65.455089 -121.390073 
L 65.544905 -121.390073 
L 65.544905 -120.163412 
L 65.589813 -120.163412 
L 65.589813 -120.163412 
L 65.634722 -120.163412 
L 65.634722 -118.905441 
L 65.67963 -118.905441 
L 65.67963 -118.905441 
L 65.724538 -118.905441 
L 65.724538 -118.905441 
L 65.769447 -118.905441 
L 65.769447 -118.905441 
L 66.038897 -118.905441 
L 66.038897 -118.905441 
L 66.712521 -118.905441 
L 66.712521 -118.905441 
L 67.026879 -118.905441 
L 67.026879 -118.905441 
L 67.116696 -118.905441 
L 67.116696 -117.530984 
L 67.341237 -117.530984 
L 67.341237 -116.162938 
L 67.386146 -116.162938 
L 67.386146 -116.162938 
L 67.925045 -116.162938 
L 67.925045 -114.778335 
L 68.194495 -114.778335 
L 68.194495 -114.778335 
L 68.374128 -114.778335 
L 68.374128 -114.778335 
L 68.778303 -114.778335 
L 68.778303 -114.778335 
L 68.86812 -114.778335 
L 68.86812 -113.326494 
L 69.496836 -113.326494 
L 69.496836 -113.326494 
L 69.901011 -113.326494 
L 69.901011 -111.85567 
L 70.170461 -111.85567 
L 70.170461 -110.392638 
L 70.619544 -110.392638 
L 70.619544 -108.937188 
L 70.888994 -108.937188 
L 70.888994 -107.489132 
L 71.023719 -107.489132 
L 71.023719 -107.489132 
L 71.338077 -107.489132 
L 71.338077 -106.019748 
L 71.607526 -106.019748 
L 71.607526 -104.557928 
L 71.921885 -104.557928 
L 71.921885 -103.103509 
L 72.595509 -103.103509 
L 72.595509 -101.656346 
L 72.820051 -101.656346 
L 72.820051 -100.216309 
L 73.673309 -100.216309 
L 73.673309 -100.216309 
L 74.346933 -100.216309 
L 74.346933 -100.216309 
L 74.571475 -100.216309 
L 74.571475 -98.719041 
L 75.334916 -98.719041 
L 75.334916 -97.229814 
L 75.469641 -97.229814 
L 75.469641 -97.229814 
L 75.514549 -97.229814 
L 75.514549 -97.229814 
L 76.098357 -97.229814 
L 76.098357 -97.229814 
L 76.412715 -97.229814 
L 76.412715 -95.637939 
L 76.592348 -95.637939 
L 76.592348 -94.056041 
L 76.996523 -94.056041 
L 76.996523 -94.056041 
L 77.131248 -94.056041 
L 77.131248 -92.442297 
L 77.35579 -92.442297 
L 77.35579 -92.442297 
L 78.209047 -92.442297 
L 78.209047 -90.794596 
L 78.433589 -90.794596 
L 78.433589 -89.15828 
L 78.837764 -89.15828 
L 78.837764 -89.15828 
L 79.46648 -89.15828 
L 79.46648 -89.15828 
L 79.73593 -89.15828 
L 79.73593 -89.15828 
L 80.993362 -89.15828 
L 80.993362 -89.15828 
L 82.071162 -89.15828 
L 82.071162 -89.15828 
L 84.675844 -89.15828 
L 84.675844 -89.15828 
L 84.720752 -89.15828 
L 84.720752 -87.193812 
L 84.900385 -87.193812 
L 84.900385 -85.250009 
L 86.696717 -85.250009 
L 86.696717 -85.250009 
L 87.999058 -85.250009 
L 87.999058 -83.253671 
L 88.582866 -83.253671 
L 88.582866 -83.253671 
L 89.705574 -83.253671 
L 89.705574 -83.253671 
L 92.894064 -83.253671 
L 92.894064 -83.253671 
L 94.376038 -83.253671 
L 94.376038 -83.253671 
L 99.181226 -83.253671 
L 99.181226 -83.253671 
L 100.169209 -83.253671 
L 100.169209 -80.809791 
L 101.022467 -80.809791 
L 101.022467 -78.408376 
L 103.537332 -78.408376 
L 103.537332 -76.047798 
L 104.92949 -76.047798 
L 104.92949 -76.047798 
L 105.198939 -76.047798 
L 105.198939 -76.047798 
L 108.297613 -76.047798 
L 108.297613 -76.047798 
L 109.510137 -76.047798 
L 109.510137 -73.296043 
L 109.734678 -73.296043 
L 109.734678 -73.296043 
L 114.629684 -73.296043 
L 114.629684 -70.425974 
L 119.839047 -70.425974 
L 119.839047 -70.425974 
L 120.108497 -70.425974 
L 120.108497 -70.425974 
L 121.815013 -70.425974 
L 121.815013 -70.425974 
L 123.566437 -70.425974 
L 123.566437 -66.885028 
L 124.240061 -66.885028 
L 124.240061 -66.885028 
L 125.497494 -66.885028 
L 125.497494 -66.885028 
L 127.069285 -66.885028 
L 127.069285 -66.885028 
L 128.147084 -66.885028 
L 128.147084 -62.220904 
L 130.347591 -62.220904 
L 130.347591 -57.893049 
L 134.34443 -57.893049 
L 134.34443 -57.893049 
L 145.257149 -57.893049 
L 145.257149 -57.893049 
L 166.633502 -57.893049 
L 166.633502 -51.041726 
L 174.851722 -51.041726 
L 174.851722 -51.041726 
L 182.575951 -51.041726 
L 182.575951 -43.587908 
L 193.758119 -43.587908 
L 193.758119 -43.587908 
L 218.412779 -43.587908 
L 218.412779 -43.587908 
L 266.419759 -43.587908 
L 266.419759 -43.587908 
L 266.419759 -80.539875 
L 266.419759 -80.539875 
L 266.419759 -80.539875 
L 218.412779 -80.539875 
L 218.412779 -80.539875 
L 193.758119 -80.539875 
L 193.758119 -80.539875 
L 182.575951 -80.539875 
L 182.575951 -85.863615 
L 174.851722 -85.863615 
L 174.851722 -85.863615 
L 166.633502 -85.863615 
L 166.633502 -90.163136 
L 145.257149 -90.163136 
L 145.257149 -90.163136 
L 134.34443 -90.163136 
L 134.34443 -90.163136 
L 130.347591 -90.163136 
L 130.347591 -93.713622 
L 128.147084 -93.713622 
L 128.147084 -97.019267 
L 127.069285 -97.019267 
L 127.069285 -97.019267 
L 125.497494 -97.019267 
L 125.497494 -97.019267 
L 124.240061 -97.019267 
L 124.240061 -97.019267 
L 123.566437 -97.019267 
L 123.566437 -99.848682 
L 121.815013 -99.848682 
L 121.815013 -99.848682 
L 120.108497 -99.848682 
L 120.108497 -99.848682 
L 119.839047 -99.848682 
L 119.839047 -99.848682 
L 114.629684 -99.848682 
L 114.629684 -102.333187 
L 109.734678 -102.333187 
L 109.734678 -102.333187 
L 109.510137 -102.333187 
L 109.510137 -104.689974 
L 108.297613 -104.689974 
L 108.297613 -104.689974 
L 105.198939 -104.689974 
L 105.198939 -104.689974 
L 104.92949 -104.689974 
L 104.92949 -104.689974 
L 103.537332 -104.689974 
L 103.537332 -106.816377 
L 101.022467 -106.816377 
L 101.022467 -108.912557 
L 100.169209 -108.912557 
L 100.169209 -110.977453 
L 99.181226 -110.977453 
L 99.181226 -110.977453 
L 94.376038 -110.977453 
L 94.376038 -110.977453 
L 92.894064 -110.977453 
L 92.894064 -110.977453 
L 89.705574 -110.977453 
L 89.705574 -110.977453 
L 88.582866 -110.977453 
L 88.582866 -110.977453 
L 87.999058 -110.977453 
L 87.999058 -112.791628 
L 86.696717 -112.791628 
L 86.696717 -112.791628 
L 84.900385 -112.791628 
L 84.900385 -114.551123 
L 84.720752 -114.551123 
L 84.720752 -116.29519 
L 84.675844 -116.29519 
L 84.675844 -116.29519 
L 82.071162 -116.29519 
L 82.071162 -116.29519 
L 80.993362 -116.29519 
L 80.993362 -116.29519 
L 79.73593 -116.29519 
L 79.73593 -116.29519 
L 79.46648 -116.29519 
L 79.46648 -116.29519 
L 78.837764 -116.29519 
L 78.837764 -116.29519 
L 78.433589 -116.29519 
L 78.433589 -117.837813 
L 78.209047 -117.837813 
L 78.209047 -119.371661 
L 77.35579 -119.371661 
L 77.35579 -119.371661 
L 77.131248 -119.371661 
L 77.131248 -120.870676 
L 76.996523 -120.870676 
L 76.996523 -120.870676 
L 76.592348 -120.870676 
L 76.592348 -122.336996 
L 76.412715 -122.336996 
L 76.412715 -123.795653 
L 76.098357 -123.795653 
L 76.098357 -123.795653 
L 75.514549 -123.795653 
L 75.514549 -123.795653 
L 75.469641 -123.795653 
L 75.469641 -123.795653 
L 75.334916 -123.795653 
L 75.334916 -125.180961 
L 74.571475 -125.180961 
L 74.571475 -126.560011 
L 74.346933 -126.560011 
L 74.346933 -126.560011 
L 73.673309 -126.560011 
L 73.673309 -126.560011 
L 72.820051 -126.560011 
L 72.820051 -127.893881 
L 72.595509 -127.893881 
L 72.595509 -129.222176 
L 71.921885 -129.222176 
L 71.921885 -130.544832 
L 71.607526 -130.544832 
L 71.607526 -131.861778 
L 71.338077 -131.861778 
L 71.338077 -133.172932 
L 71.023719 -133.172932 
L 71.023719 -133.172932 
L 70.888994 -133.172932 
L 70.888994 -134.461541 
L 70.619544 -134.461541 
L 70.619544 -135.744525 
L 70.170461 -135.744525 
L 70.170461 -137.021785 
L 69.901011 -137.021785 
L 69.901011 -138.293208 
L 69.496836 -138.293208 
L 69.496836 -138.293208 
L 68.86812 -138.293208 
L 68.86812 -139.543786 
L 68.778303 -139.543786 
L 68.778303 -139.543786 
L 68.374128 -139.543786 
L 68.374128 -139.543786 
L 68.194495 -139.543786 
L 68.194495 -139.543786 
L 67.925045 -139.543786 
L 67.925045 -140.746741 
L 67.386146 -140.746741 
L 67.386146 -140.746741 
L 67.341237 -140.746741 
L 67.341237 -141.931593 
L 67.116696 -141.931593 
L 67.116696 -143.111614 
L 67.026879 -143.111614 
L 67.026879 -143.111614 
L 66.712521 -143.111614 
L 66.712521 -143.111614 
L 66.038897 -143.111614 
L 66.038897 -143.111614 
L 65.769447 -143.111614 
L 65.769447 -143.111614 
L 65.724538 -143.111614 
L 65.724538 -143.111614 
L 65.67963 -143.111614 
L 65.67963 -143.111614 
L 65.634722 -143.111614 
L 65.634722 -144.216053 
L 65.589813 -144.216053 
L 65.589813 -144.216053 
L 65.544905 -144.216053 
L 65.544905 -145.295278 
L 65.455089 -145.295278 
L 65.455089 -146.370993 
L 65.320364 -146.370993 
L 65.320364 -146.370993 
L 65.006005 -146.370993 
L 65.006005 -148.491617 
L 64.332381 -148.491617 
L 64.332381 -149.54664 
L 64.197656 -149.54664 
L 64.197656 -150.598047 
L 64.152748 -150.598047 
L 64.152748 -150.598047 
L 63.973114 -150.598047 
L 63.973114 -150.598047 
L 63.83839 -150.598047 
L 63.83839 -150.598047 
L 63.703665 -150.598047 
L 63.703665 -151.609526 
L 63.434215 -151.609526 
L 63.434215 -152.617786 
L 63.164765 -152.617786 
L 63.164765 -152.617786 
L 63.074948 -152.617786 
L 63.074948 -153.606034 
L 62.536049 -153.606034 
L 62.536049 -154.591171 
L 61.862424 -154.591171 
L 61.862424 -154.591171 
L 61.727699 -154.591171 
L 61.727699 -155.557394 
L 61.413341 -155.557394 
L 61.413341 -155.557394 
L 61.368433 -155.557394 
L 61.368433 -155.557394 
L 61.188799 -155.557394 
L 61.188799 -155.557394 
L 60.91935 -155.557394 
L 60.91935 -156.490935 
L 60.694808 -156.490935 
L 60.694808 -156.490935 
L 60.604991 -156.490935 
L 60.604991 -158.335864 
L 60.290633 -158.335864 
L 60.290633 -158.335864 
L 60.021183 -158.335864 
L 60.021183 -159.247516 
L 59.976275 -159.247516 
L 59.976275 -160.156482 
L 58.853568 -160.156482 
L 58.853568 -160.156482 
L 58.718843 -160.156482 
L 58.718843 -160.156482 
L 58.404484 -160.156482 
L 58.404484 -161.049796 
L 58.26976 -161.049796 
L 58.26976 -161.934228 
L 58.179943 -161.934228 
L 58.179943 -162.816039 
L 57.865585 -162.816039 
L 57.865585 -163.695168 
L 57.596135 -163.695168 
L 57.596135 -164.571554 
L 57.551227 -164.571554 
L 57.551227 -164.571554 
L 57.506318 -164.571554 
L 57.506318 -164.571554 
L 57.281777 -164.571554 
L 57.281777 -165.433507 
L 57.19196 -165.433507 
L 57.19196 -166.292733 
L 57.057235 -166.292733 
L 57.057235 -167.149162 
L 56.92251 -167.149162 
L 56.92251 -168.853325 
L 56.563244 -168.853325 
L 56.563244 -168.853325 
L 56.518336 -168.853325 
L 56.518336 -168.853325 
L 56.383611 -168.853325 
L 56.383611 -168.853325 
L 56.338702 -168.853325 
L 56.338702 -168.853325 
L 56.248886 -168.853325 
L 56.248886 -170.493576 
L 56.203977 -170.493576 
L 56.203977 -170.493576 
L 56.159069 -170.493576 
L 56.159069 -170.493576 
L 56.069253 -170.493576 
L 56.069253 -170.493576 
L 55.979436 -170.493576 
L 55.979436 -170.493576 
L 55.889619 -170.493576 
L 55.889619 -171.285519 
L 55.754894 -171.285519 
L 55.754894 -171.285519 
L 55.620169 -171.285519 
L 55.620169 -172.070292 
L 55.126178 -172.070292 
L 55.126178 -172.070292 
L 54.452554 -172.070292 
L 54.452554 -172.070292 
L 54.407645 -172.070292 
L 54.407645 -172.839183 
L 54.183104 -172.839183 
L 54.183104 -174.369355 
L 53.240029 -174.369355 
L 53.240029 -175.130481 
L 52.835855 -175.130481 
L 52.835855 -175.888853 
L 52.790946 -175.888853 
L 52.790946 -175.888853 
L 52.117322 -175.888853 
L 52.117322 -176.6403 
L 52.027505 -176.6403 
L 52.027505 -176.6403 
L 51.937688 -176.6403 
L 51.937688 -177.384873 
L 51.398789 -177.384873 
L 51.398789 -178.126516 
L 51.219155 -178.126516 
L 51.219155 -178.865118 
L 51.039522 -178.865118 
L 51.039522 -179.600562 
L 50.994614 -179.600562 
L 50.994614 -180.33272 
L 50.904797 -180.33272 
L 50.904797 -181.057754 
L 50.859889 -181.057754 
L 50.859889 -181.779279 
L 50.276081 -181.779279 
L 50.276081 -182.497133 
L 50.05154 -182.497133 
L 50.05154 -183.921107 
L 49.692273 -183.921107 
L 49.692273 -183.921107 
L 49.647365 -183.921107 
L 49.647365 -184.623418 
L 49.51264 -184.623418 
L 49.51264 -185.321318 
L 49.108465 -185.321318 
L 49.108465 -186.01455 
L 48.839015 -186.01455 
L 48.839015 -186.702829 
L 48.614474 -186.702829 
L 48.614474 -187.385833 
L 48.210299 -187.385833 
L 48.210299 -188.0632 
L 48.120482 -188.0632 
L 48.120482 -188.0632 
L 48.030666 -188.0632 
L 48.030666 -188.0632 
L 47.806124 -188.0632 
L 47.806124 -188.7285 
L 47.401949 -188.7285 
L 47.401949 -189.387492 
L 47.177408 -189.387492 
L 47.177408 -190.039659 
L 46.952866 -190.039659 
L 46.952866 -190.681626 
L 46.189425 -190.681626 
L 46.189425 -191.31559 
L 46.099609 -191.31559 
L 46.099609 -191.940735 
L 45.515801 -191.940735 
L 45.515801 -192.556084 
L 45.381076 -192.556084 
L 45.381076 -193.160451 
L 45.111626 -193.160451 
L 45.111626 -193.752366 
L 44.931993 -193.752366 
L 44.931993 -194.329975 
L 44.348185 -194.329975 
L 44.348185 -194.329975 
L 44.078735 -194.329975 
L 44.078735 -194.888776 
L 43.809285 -194.888776 
L 43.809285 -195.42794 
L 43.67456 -195.42794 
L 43.67456 -195.943111 
L 43.629652 -195.943111 
L 43.629652 -195.943111 
L 43.315294 -195.943111 
L 43.315294 -195.943111 
L 43.270385 -195.943111 
L 43.270385 -196.42473 
L 43.045844 -196.42473 
L 43.045844 -196.866997 
L 42.731486 -196.866997 
L 42.731486 -197.253112 
L 42.686577 -197.253112 
L 42.686577 -197.547852 
L 42.641669 -197.547852 
L 42.641669 -197.547852 
L 42.506944 -197.547852 
L 42.506944 -197.547852 
L 42.147678 -197.547852 
L 42.147678 -197.662336 
L 42.102769 -197.662336 
L 42.102769 -197.662336 
L 41.698595 -197.662336 
L 41.698595 -197.662336 
L 40.396254 -197.662336 
L 40.396254 -197.662336 
L 39.632812 -197.662336 
L 39.632812 -197.662336 
L 36.758681 -197.662336 
z
" style="stroke: #e63946; stroke-opacity: 0.2"/>
    </defs>
    <g clip-path="url(#p8f5044f1c8)">
     <use xlink:href="#m331c694bb3" x="0" y="213.012812" style="fill: #e63946; fill-opacity: 0.2; stroke: #e63946; stroke-opacity: 0.2"/>
    </g>
   </g>
   <g id="line2d_25">
    <defs>
     <path id="m7c4f9b29e8" d="M -3 3 
L 3 -3 
M -3 -3 
L 3 3 
" style="stroke: #2e86ab"/>
    </defs>
    <g clip-path="url(#p8f5044f1c8)">
     <use xlink:href="#m7c4f9b29e8" x="40.21662" y="16.940813" style="fill: #2e86ab; stroke: #2e86ab"/>
     <use xlink:href="#m7c4f9b29e8" x="40.306437" y="16.940813" style="fill: #2e86ab; stroke: #2e86ab"/>
     <use xlink:href="#m7c4f9b29e8" x="40.530979" y="18.546974" style="fill: #2e86ab; stroke: #2e86ab"/>
     <use xlink:href="#m7c4f9b29e8" x="40.890245" y="18.546974" style="fill: #2e86ab; stroke: #2e86ab"/>
     <use xlink:href="#m7c4f9b29e8" x="41.204603" y="18.546974" style="fill: #2e86ab; stroke: #2e86ab"/>
     <use xlink:href="#m7c4f9b29e8" x="41.29442" y="18.546974" style="fill: #2e86ab; stroke: #2e86ab"/>
     <use xlink:href="#m7c4f9b29e8" x="42.282403" y="20.186082" style="fill: #2e86ab; stroke: #2e86ab"/>
     <use xlink:href="#m7c4f9b29e8" x="42.506944" y="21.009905" style="fill: #2e86ab; stroke: #2e86ab"/>
     <use xlink:href="#m7c4f9b29e8" x="43.40511" y="21.838063" style="fill: #2e86ab; stroke: #2e86ab"/>
     <use xlink:href="#m7c4f9b29e8" x="43.899102" y="22.670626" style="fill: #2e86ab; stroke: #2e86ab"/>
     <use xlink:href="#m7c4f9b29e8" x="44.572726" y="24.344706" style="fill: #2e86ab; stroke: #2e86ab"/>
     <use xlink:href="#m7c4f9b29e8" x="44.887084" y="24.344706" style="fill: #2e86ab; stroke: #2e86ab"/>
     <use xlink:href="#m7c4f9b29e8" x="45.425984" y="24.344706" style="fill: #2e86ab; stroke: #2e86ab"/>
     <use xlink:href="#m7c4f9b29e8" x="46.728325" y="27.748359" style="fill: #2e86ab; stroke: #2e86ab"/>
     <use xlink:href="#m7c4f9b29e8" x="54.587278" y="43.151822" style="fill: #2e86ab; stroke: #2e86ab"/>
     <use xlink:href="#m7c4f9b29e8" x="54.766912" y="43.151822" style="fill: #2e86ab; stroke: #2e86ab"/>
     <use xlink:href="#m7c4f9b29e8" x="55.844711" y="45.751979" style="fill: #2e86ab; stroke: #2e86ab"/>
     <use xlink:href="#m7c4f9b29e8" x="56.024344" y="46.630178" style="fill: #2e86ab; stroke: #2e86ab"/>
     <use xlink:href="#m7c4f9b29e8" x="56.338702" y="46.630178" style="fill: #2e86ab; stroke: #2e86ab"/>
     <use xlink:href="#m7c4f9b29e8" x="56.653061" y="46.630178" style="fill: #2e86ab; stroke: #2e86ab"/>
     <use xlink:href="#m7c4f9b29e8" x="56.787785" y="46.630178" style="fill: #2e86ab; stroke: #2e86ab"/>
     <use xlink:href="#m7c4f9b29e8" x="56.832694" y="46.630178" style="fill: #2e86ab; stroke: #2e86ab"/>
     <use xlink:href="#m7c4f9b29e8" x="56.877602" y="46.630178" style="fill: #2e86ab; stroke: #2e86ab"/>
     <use xlink:href="#m7c4f9b29e8" x="57.102144" y="47.551366" style="fill: #2e86ab; stroke: #2e86ab"/>
     <use xlink:href="#m7c4f9b29e8" x="57.326685" y="47.551366" style="fill: #2e86ab; stroke: #2e86ab"/>
     <use xlink:href="#m7c4f9b29e8" x="57.506318" y="47.551366" style="fill: #2e86ab; stroke: #2e86ab"/>
     <use xlink:href="#m7c4f9b29e8" x="58.045218" y="48.492435" style="fill: #2e86ab; stroke: #2e86ab"/>
     <use xlink:href="#m7c4f9b29e8" x="58.26976" y="50.388312" style="fill: #2e86ab; stroke: #2e86ab"/>
     <use xlink:href="#m7c4f9b29e8" x="58.314668" y="50.388312" style="fill: #2e86ab; stroke: #2e86ab"/>
     <use xlink:href="#m7c4f9b29e8" x="58.853568" y="50.388312" style="fill: #2e86ab; stroke: #2e86ab"/>
     <use xlink:href="#m7c4f9b29e8" x="59.078109" y="50.388312" style="fill: #2e86ab; stroke: #2e86ab"/>
     <use xlink:href="#m7c4f9b29e8" x="60.066092" y="53.318961" style="fill: #2e86ab; stroke: #2e86ab"/>
     <use xlink:href="#m7c4f9b29e8" x="60.155908" y="53.318961" style="fill: #2e86ab; stroke: #2e86ab"/>
     <use xlink:href="#m7c4f9b29e8" x="60.560083" y="54.31135" style="fill: #2e86ab; stroke: #2e86ab"/>
     <use xlink:href="#m7c4f9b29e8" x="60.604991" y="54.31135" style="fill: #2e86ab; stroke: #2e86ab"/>
     <use xlink:href="#m7c4f9b29e8" x="60.964258" y="54.31135" style="fill: #2e86ab; stroke: #2e86ab"/>
     <use xlink:href="#m7c4f9b29e8" x="61.054075" y="54.31135" style="fill: #2e86ab; stroke: #2e86ab"/>
     <use xlink:href="#m7c4f9b29e8" x="61.233708" y="54.31135" style="fill: #2e86ab; stroke: #2e86ab"/>
     <use xlink:href="#m7c4f9b29e8" x="61.682791" y="55.353776" style="fill: #2e86ab; stroke: #2e86ab"/>
     <use xlink:href="#m7c4f9b29e8" x="62.22169" y="56.405111" style="fill: #2e86ab; stroke: #2e86ab"/>
     <use xlink:href="#m7c4f9b29e8" x="62.401324" y="56.405111" style="fill: #2e86ab; stroke: #2e86ab"/>
     <use xlink:href="#m7c4f9b29e8" x="62.446232" y="57.474891" style="fill: #2e86ab; stroke: #2e86ab"/>
     <use xlink:href="#m7c4f9b29e8" x="62.625865" y="58.554222" style="fill: #2e86ab; stroke: #2e86ab"/>
     <use xlink:href="#m7c4f9b29e8" x="63.703665" y="59.643366" style="fill: #2e86ab; stroke: #2e86ab"/>
     <use xlink:href="#m7c4f9b29e8" x="63.883298" y="60.742594" style="fill: #2e86ab; stroke: #2e86ab"/>
     <use xlink:href="#m7c4f9b29e8" x="64.781464" y="64.071388" style="fill: #2e86ab; stroke: #2e86ab"/>
     <use xlink:href="#m7c4f9b29e8" x="64.871281" y="64.071388" style="fill: #2e86ab; stroke: #2e86ab"/>
     <use xlink:href="#m7c4f9b29e8" x="65.320364" y="64.071388" style="fill: #2e86ab; stroke: #2e86ab"/>
     <use xlink:href="#m7c4f9b29e8" x="65.365272" y="64.071388" style="fill: #2e86ab; stroke: #2e86ab"/>
     <use xlink:href="#m7c4f9b29e8" x="66.128713" y="65.225819" style="fill: #2e86ab; stroke: #2e86ab"/>
     <use xlink:href="#m7c4f9b29e8" x="68.05977" y="71.057478" style="fill: #2e86ab; stroke: #2e86ab"/>
     <use xlink:href="#m7c4f9b29e8" x="68.284312" y="71.057478" style="fill: #2e86ab; stroke: #2e86ab"/>
     <use xlink:href="#m7c4f9b29e8" x="68.419037" y="71.057478" style="fill: #2e86ab; stroke: #2e86ab"/>
     <use xlink:href="#m7c4f9b29e8" x="68.463945" y="71.057478" style="fill: #2e86ab; stroke: #2e86ab"/>
     <use xlink:href="#m7c4f9b29e8" x="68.643578" y="71.057478" style="fill: #2e86ab; stroke: #2e86ab"/>
     <use xlink:href="#m7c4f9b29e8" x="68.733395" y="71.057478" style="fill: #2e86ab; stroke: #2e86ab"/>
     <use xlink:href="#m7c4f9b29e8" x="70.664452" y="73.552885" style="fill: #2e86ab; stroke: #2e86ab"/>
     <use xlink:href="#m7c4f9b29e8" x="71.068627" y="73.552885" style="fill: #2e86ab; stroke: #2e86ab"/>
     <use xlink:href="#m7c4f9b29e8" x="72.460784" y="73.552885" style="fill: #2e86ab; stroke: #2e86ab"/>
     <use xlink:href="#m7c4f9b29e8" x="73.314042" y="73.552885" style="fill: #2e86ab; stroke: #2e86ab"/>
     <use xlink:href="#m7c4f9b29e8" x="73.808033" y="73.552885" style="fill: #2e86ab; stroke: #2e86ab"/>
     <use xlink:href="#m7c4f9b29e8" x="74.796016" y="73.552885" style="fill: #2e86ab; stroke: #2e86ab"/>
     <use xlink:href="#m7c4f9b29e8" x="75.065466" y="73.552885" style="fill: #2e86ab; stroke: #2e86ab"/>
     <use xlink:href="#m7c4f9b29e8" x="76.143265" y="73.552885" style="fill: #2e86ab; stroke: #2e86ab"/>
     <use xlink:href="#m7c4f9b29e8" x="76.457624" y="73.552885" style="fill: #2e86ab; stroke: #2e86ab"/>
     <use xlink:href="#m7c4f9b29e8" x="76.996523" y="73.552885" style="fill: #2e86ab; stroke: #2e86ab"/>
     <use xlink:href="#m7c4f9b29e8" x="77.445606" y="73.552885" style="fill: #2e86ab; stroke: #2e86ab"/>
     <use xlink:href="#m7c4f9b29e8" x="77.849781" y="73.552885" style="fill: #2e86ab; stroke: #2e86ab"/>
     <use xlink:href="#m7c4f9b29e8" x="78.433589" y="73.552885" style="fill: #2e86ab; stroke: #2e86ab"/>
     <use xlink:href="#m7c4f9b29e8" x="79.915563" y="73.552885" style="fill: #2e86ab; stroke: #2e86ab"/>
     <use xlink:href="#m7c4f9b29e8" x="80.00538" y="73.552885" style="fill: #2e86ab; stroke: #2e86ab"/>
     <use xlink:href="#m7c4f9b29e8" x="80.319738" y="75.071829" style="fill: #2e86ab; stroke: #2e86ab"/>
     <use xlink:href="#m7c4f9b29e8" x="84.406394" y="79.696672" style="fill: #2e86ab; stroke: #2e86ab"/>
     <use xlink:href="#m7c4f9b29e8" x="85.84346" y="81.262757" style="fill: #2e86ab; stroke: #2e86ab"/>
     <use xlink:href="#m7c4f9b29e8" x="87.774517" y="84.446273" style="fill: #2e86ab; stroke: #2e86ab"/>
     <use xlink:href="#m7c4f9b29e8" x="88.762499" y="84.446273" style="fill: #2e86ab; stroke: #2e86ab"/>
     <use xlink:href="#m7c4f9b29e8" x="89.391216" y="84.446273" style="fill: #2e86ab; stroke: #2e86ab"/>
     <use xlink:href="#m7c4f9b29e8" x="89.481032" y="84.446273" style="fill: #2e86ab; stroke: #2e86ab"/>
     <use xlink:href="#m7c4f9b29e8" x="90.244474" y="84.446273" style="fill: #2e86ab; stroke: #2e86ab"/>
     <use xlink:href="#m7c4f9b29e8" x="92.355164" y="86.185416" style="fill: #2e86ab; stroke: #2e86ab"/>
     <use xlink:href="#m7c4f9b29e8" x="92.669522" y="86.185416" style="fill: #2e86ab; stroke: #2e86ab"/>
     <use xlink:href="#m7c4f9b29e8" x="100.259026" y="87.992761" style="fill: #2e86ab; stroke: #2e86ab"/>
     <use xlink:href="#m7c4f9b29e8" x="101.157192" y="87.992761" style="fill: #2e86ab; stroke: #2e86ab"/>
     <use xlink:href="#m7c4f9b29e8" x="104.974398" y="89.875412" style="fill: #2e86ab; stroke: #2e86ab"/>
     <use xlink:href="#m7c4f9b29e8" x="106.052197" y="89.875412" style="fill: #2e86ab; stroke: #2e86ab"/>
     <use xlink:href="#m7c4f9b29e8" x="107.983254" y="89.875412" style="fill: #2e86ab; stroke: #2e86ab"/>
     <use xlink:href="#m7c4f9b29e8" x="108.701787" y="89.875412" style="fill: #2e86ab; stroke: #2e86ab"/>
     <use xlink:href="#m7c4f9b29e8" x="108.881421" y="89.875412" style="fill: #2e86ab; stroke: #2e86ab"/>
     <use xlink:href="#m7c4f9b29e8" x="110.677753" y="89.875412" style="fill: #2e86ab; stroke: #2e86ab"/>
     <use xlink:href="#m7c4f9b29e8" x="111.665736" y="89.875412" style="fill: #2e86ab; stroke: #2e86ab"/>
     <use xlink:href="#m7c4f9b29e8" x="112.429177" y="89.875412" style="fill: #2e86ab; stroke: #2e86ab"/>
     <use xlink:href="#m7c4f9b29e8" x="113.237526" y="89.875412" style="fill: #2e86ab; stroke: #2e86ab"/>
     <use xlink:href="#m7c4f9b29e8" x="113.686609" y="89.875412" style="fill: #2e86ab; stroke: #2e86ab"/>
     <use xlink:href="#m7c4f9b29e8" x="116.336199" y="89.875412" style="fill: #2e86ab; stroke: #2e86ab"/>
     <use xlink:href="#m7c4f9b29e8" x="116.605649" y="89.875412" style="fill: #2e86ab; stroke: #2e86ab"/>
     <use xlink:href="#m7c4f9b29e8" x="118.71634" y="92.403543" style="fill: #2e86ab; stroke: #2e86ab"/>
     <use xlink:href="#m7c4f9b29e8" x="120.737213" y="95.008284" style="fill: #2e86ab; stroke: #2e86ab"/>
     <use xlink:href="#m7c4f9b29e8" x="122.488637" y="95.008284" style="fill: #2e86ab; stroke: #2e86ab"/>
     <use xlink:href="#m7c4f9b29e8" x="127.159101" y="95.008284" style="fill: #2e86ab; stroke: #2e86ab"/>
     <use xlink:href="#m7c4f9b29e8" x="127.293826" y="95.008284" style="fill: #2e86ab; stroke: #2e86ab"/>
     <use xlink:href="#m7c4f9b29e8" x="129.808691" y="95.008284" style="fill: #2e86ab; stroke: #2e86ab"/>
     <use xlink:href="#m7c4f9b29e8" x="129.8536" y="95.008284" style="fill: #2e86ab; stroke: #2e86ab"/>
     <use xlink:href="#m7c4f9b29e8" x="130.527224" y="95.008284" style="fill: #2e86ab; stroke: #2e86ab"/>
     <use xlink:href="#m7c4f9b29e8" x="130.661949" y="95.008284" style="fill: #2e86ab; stroke: #2e86ab"/>
     <use xlink:href="#m7c4f9b29e8" x="131.42539" y="95.008284" style="fill: #2e86ab; stroke: #2e86ab"/>
     <use xlink:href="#m7c4f9b29e8" x="131.649932" y="95.008284" style="fill: #2e86ab; stroke: #2e86ab"/>
     <use xlink:href="#m7c4f9b29e8" x="135.691679" y="95.008284" style="fill: #2e86ab; stroke: #2e86ab"/>
     <use xlink:href="#m7c4f9b29e8" x="137.398195" y="95.008284" style="fill: #2e86ab; stroke: #2e86ab"/>
     <use xlink:href="#m7c4f9b29e8" x="142.607559" y="95.008284" style="fill: #2e86ab; stroke: #2e86ab"/>
     <use xlink:href="#m7c4f9b29e8" x="143.460816" y="95.008284" style="fill: #2e86ab; stroke: #2e86ab"/>
     <use xlink:href="#m7c4f9b29e8" x="144.269166" y="95.008284" style="fill: #2e86ab; stroke: #2e86ab"/>
     <use xlink:href="#m7c4f9b29e8" x="146.514581" y="95.008284" style="fill: #2e86ab; stroke: #2e86ab"/>
     <use xlink:href="#m7c4f9b29e8" x="148.445638" y="95.008284" style="fill: #2e86ab; stroke: #2e86ab"/>
     <use xlink:href="#m7c4f9b29e8" x="157.517116" y="95.008284" style="fill: #2e86ab; stroke: #2e86ab"/>
     <use xlink:href="#m7c4f9b29e8" x="158.909274" y="100.961978" style="fill: #2e86ab; stroke: #2e86ab"/>
     <use xlink:href="#m7c4f9b29e8" x="161.019964" y="100.961978" style="fill: #2e86ab; stroke: #2e86ab"/>
     <use xlink:href="#m7c4f9b29e8" x="164.926987" y="100.961978" style="fill: #2e86ab; stroke: #2e86ab"/>
     <use xlink:href="#m7c4f9b29e8" x="168.429835" y="100.961978" style="fill: #2e86ab; stroke: #2e86ab"/>
     <use xlink:href="#m7c4f9b29e8" x="169.238184" y="100.961978" style="fill: #2e86ab; stroke: #2e86ab"/>
     <use xlink:href="#m7c4f9b29e8" x="172.741032" y="110.636731" style="fill: #2e86ab; stroke: #2e86ab"/>
     <use xlink:href="#m7c4f9b29e8" x="190.704354" y="110.636731" style="fill: #2e86ab; stroke: #2e86ab"/>
     <use xlink:href="#m7c4f9b29e8" x="193.21922" y="110.636731" style="fill: #2e86ab; stroke: #2e86ab"/>
     <use xlink:href="#m7c4f9b29e8" x="211.047817" y="110.636731" style="fill: #2e86ab; stroke: #2e86ab"/>
     <use xlink:href="#m7c4f9b29e8" x="211.856167" y="110.636731" style="fill: #2e86ab; stroke: #2e86ab"/>
     <use xlink:href="#m7c4f9b29e8" x="262.692369" y="110.636731" style="fill: #2e86ab; stroke: #2e86ab"/>
     <use xlink:href="#m7c4f9b29e8" x="266.015584" y="110.636731" style="fill: #2e86ab; stroke: #2e86ab"/>
    </g>
   </g>
   <g id="line2d_26">
    <path d="M 39.632812 16.940813 
L 40.48607 16.940813 
L 40.530979 18.546974 
L 42.147678 18.546974 
L 42.192586 20.186082 
L 42.417127 20.186082 
L 42.417127 21.009905 
L 42.506944 21.009905 
L 42.551852 21.009905 
L 42.551852 21.838063 
L 43.584743 21.838063 
L 43.584743 22.670626 
L 44.033827 22.670626 
L 44.033827 23.507666 
L 44.393093 23.507666 
L 44.393093 24.344706 
L 46.009792 24.344706 
L 46.009792 25.195619 
L 46.32415 25.195619 
L 46.32415 26.046532 
L 46.548692 26.046532 
L 46.548692 27.748359 
L 47.177408 27.748359 
L 47.177408 28.604107 
L 48.614474 28.604107 
L 48.614474 29.459855 
L 48.883924 29.459855 
L 48.883924 30.315602 
L 49.198282 30.315602 
L 49.198282 31.17135 
L 49.333007 31.17135 
L 49.333007 32.027098 
L 50.680256 32.027098 
L 50.770072 33.738594 
L 51.039522 33.738594 
L 51.039522 34.594342 
L 51.264064 34.594342 
L 51.35388 36.305838 
L 51.847872 36.305838 
L 51.89278 38.873082 
L 52.835855 38.873082 
L 52.835855 39.72883 
L 53.599296 39.72883 
L 53.599296 40.584578 
L 54.048379 40.584578 
L 54.048379 41.440326 
L 54.362737 41.440326 
L 54.362737 42.296074 
L 54.54237 42.296074 
L 54.587278 43.151822 
L 54.587278 43.151822 
L 54.901637 43.151822 
L 54.901637 44.018541 
L 55.08127 44.018541 
L 55.08127 45.751979 
L 55.979436 45.751979 
L 55.979436 46.630178 
L 56.024344 46.630178 
L 56.967419 46.630178 
L 56.967419 47.551366 
L 57.955401 47.551366 
L 57.955401 48.492435 
L 58.045218 48.492435 
L 58.179943 48.492435 
L 58.179943 50.388312 
L 58.26976 50.388312 
L 59.123017 50.388312 
L 59.123017 51.365195 
L 59.257742 51.365195 
L 59.257742 52.342078 
L 60.066092 52.342078 
L 60.066092 53.318961 
L 60.155908 53.318961 
L 60.290633 53.318961 
L 60.290633 54.31135 
L 61.458249 54.31135 
L 61.458249 55.353776 
L 61.862424 55.353776 
L 61.862424 56.405111 
L 62.446232 56.405111 
L 62.536049 58.554222 
L 63.613848 58.554222 
L 63.613848 59.643366 
L 63.703665 59.643366 
L 63.83839 59.643366 
L 63.83839 60.742594 
L 63.883298 60.742594 
L 64.062931 60.742594 
L 64.062931 62.96179 
L 64.197656 62.96179 
L 64.197656 64.071388 
L 66.128713 64.071388 
L 66.128713 65.225819 
L 66.263438 65.225819 
L 66.263438 66.39215 
L 66.532888 66.39215 
L 66.532888 67.558482 
L 66.667613 67.558482 
L 66.667613 68.724814 
L 67.251421 68.724814 
L 67.251421 69.891146 
L 67.610687 69.891146 
L 67.610687 71.057478 
L 69.496836 71.057478 
L 69.496836 72.305181 
L 70.395002 72.305181 
L 70.395002 73.552885 
L 80.229921 73.552885 
L 80.229921 75.071829 
L 80.319738 75.071829 
L 81.891529 75.071829 
L 81.891529 76.613443 
L 82.250795 76.613443 
L 82.250795 78.155058 
L 83.373503 78.155058 
L 83.373503 79.696672 
L 84.76566 79.696672 
L 84.76566 81.262757 
L 86.157818 81.262757 
L 86.157818 82.854515 
L 87.41525 82.854515 
L 87.41525 84.446273 
L 91.861173 84.446273 
L 91.861173 86.185416 
L 96.666361 86.185416 
L 96.666361 87.992761 
L 103.402607 87.992761 
L 103.402607 89.875412 
L 116.785282 89.875412 
L 116.785282 92.403543 
L 120.647397 92.403543 
L 120.647397 95.008284 
L 120.737213 95.008284 
L 158.235649 95.008284 
L 158.235649 100.961978 
L 172.291949 100.961978 
L 172.291949 110.636731 
L 266.015584 110.636731 
L 266.015584 110.636731 
" clip-path="url(#p8f5044f1c8)" style="fill: none; stroke: #2e86ab; stroke-width: 2; stroke-linecap: round"/>
   </g>
   <g id="line2d_27">
    <defs>
     <path id="m53b13a15c3" d="M -3 3 
L 3 -3 
M -3 -3 
L 3 3 
" style="stroke: #e63946"/>
    </defs>
    <g clip-path="url(#p8f5044f1c8)">
     <use xlink:href="#m53b13a15c3" x="36.758681" y="15.350476" style="fill: #e63946; stroke: #e63946"/>
     <use xlink:href="#m53b13a15c3" x="39.632812" y="15.350476" style="fill: #e63946; stroke: #e63946"/>
     <use xlink:href="#m53b13a15c3" x="40.396254" y="15.350476" style="fill: #e63946; stroke: #e63946"/>
     <use xlink:href="#m53b13a15c3" x="41.698595" y="15.350476" style="fill: #e63946; stroke: #e63946"/>
     <use xlink:href="#m53b13a15c3" x="42.102769" y="15.350476" style="fill: #e63946; stroke: #e63946"/>
     <use xlink:href="#m53b13a15c3" x="42.506944" y="16.161469" style="fill: #e63946; stroke: #e63946"/>
     <use xlink:href="#m53b13a15c3" x="42.641669" y="16.161469" style="fill: #e63946; stroke: #e63946"/>
     <use xlink:href="#m53b13a15c3" x="42.686577" y="16.980653" style="fill: #e63946; stroke: #e63946"/>
     <use xlink:href="#m53b13a15c3" x="43.315294" y="19.450745" style="fill: #e63946; stroke: #e63946"/>
     <use xlink:href="#m53b13a15c3" x="43.629652" y="19.450745" style="fill: #e63946; stroke: #e63946"/>
     <use xlink:href="#m53b13a15c3" x="44.348185" y="21.946702" style="fill: #e63946; stroke: #e63946"/>
     <use xlink:href="#m53b13a15c3" x="46.952866" y="27.801745" style="fill: #e63946; stroke: #e63946"/>
     <use xlink:href="#m53b13a15c3" x="48.030666" y="30.325068" style="fill: #e63946; stroke: #e63946"/>
     <use xlink:href="#m53b13a15c3" x="48.120482" y="30.325068" style="fill: #e63946; stroke: #e63946"/>
     <use xlink:href="#m53b13a15c3" x="49.692273" y="35.429721" style="fill: #e63946; stroke: #e63946"/>
     <use xlink:href="#m53b13a15c3" x="50.904797" y="39.709071" style="fill: #e63946; stroke: #e63946"/>
     <use xlink:href="#m53b13a15c3" x="52.027505" y="44.015" style="fill: #e63946; stroke: #e63946"/>
     <use xlink:href="#m53b13a15c3" x="52.790946" y="44.881742" style="fill: #e63946; stroke: #e63946"/>
     <use xlink:href="#m53b13a15c3" x="54.452554" y="49.243777" style="fill: #e63946; stroke: #e63946"/>
     <use xlink:href="#m53b13a15c3" x="55.126178" y="49.243777" style="fill: #e63946; stroke: #e63946"/>
     <use xlink:href="#m53b13a15c3" x="55.754894" y="50.134233" style="fill: #e63946; stroke: #e63946"/>
     <use xlink:href="#m53b13a15c3" x="55.979436" y="51.030917" style="fill: #e63946; stroke: #e63946"/>
     <use xlink:href="#m53b13a15c3" x="56.069253" y="51.030917" style="fill: #e63946; stroke: #e63946"/>
     <use xlink:href="#m53b13a15c3" x="56.159069" y="51.030917" style="fill: #e63946; stroke: #e63946"/>
     <use xlink:href="#m53b13a15c3" x="56.203977" y="51.030917" style="fill: #e63946; stroke: #e63946"/>
     <use xlink:href="#m53b13a15c3" x="56.248886" y="52.889736" style="fill: #e63946; stroke: #e63946"/>
     <use xlink:href="#m53b13a15c3" x="56.338702" y="52.889736" style="fill: #e63946; stroke: #e63946"/>
     <use xlink:href="#m53b13a15c3" x="56.383611" y="52.889736" style="fill: #e63946; stroke: #e63946"/>
     <use xlink:href="#m53b13a15c3" x="56.518336" y="52.889736" style="fill: #e63946; stroke: #e63946"/>
     <use xlink:href="#m53b13a15c3" x="56.563244" y="52.889736" style="fill: #e63946; stroke: #e63946"/>
     <use xlink:href="#m53b13a15c3" x="57.506318" y="57.715515" style="fill: #e63946; stroke: #e63946"/>
     <use xlink:href="#m53b13a15c3" x="57.551227" y="57.715515" style="fill: #e63946; stroke: #e63946"/>
     <use xlink:href="#m53b13a15c3" x="58.26976" y="61.638913" style="fill: #e63946; stroke: #e63946"/>
     <use xlink:href="#m53b13a15c3" x="58.718843" y="62.628075" style="fill: #e63946; stroke: #e63946"/>
     <use xlink:href="#m53b13a15c3" x="58.853568" y="62.628075" style="fill: #e63946; stroke: #e63946"/>
     <use xlink:href="#m53b13a15c3" x="60.290633" y="64.640804" style="fill: #e63946; stroke: #e63946"/>
     <use xlink:href="#m53b13a15c3" x="60.694808" y="66.671504" style="fill: #e63946; stroke: #e63946"/>
     <use xlink:href="#m53b13a15c3" x="60.91935" y="67.696169" style="fill: #e63946; stroke: #e63946"/>
     <use xlink:href="#m53b13a15c3" x="61.188799" y="67.696169" style="fill: #e63946; stroke: #e63946"/>
     <use xlink:href="#m53b13a15c3" x="61.368433" y="67.696169" style="fill: #e63946; stroke: #e63946"/>
     <use xlink:href="#m53b13a15c3" x="61.413341" y="67.696169" style="fill: #e63946; stroke: #e63946"/>
     <use xlink:href="#m53b13a15c3" x="61.862424" y="68.760244" style="fill: #e63946; stroke: #e63946"/>
     <use xlink:href="#m53b13a15c3" x="63.074948" y="70.930536" style="fill: #e63946; stroke: #e63946"/>
     <use xlink:href="#m53b13a15c3" x="63.164765" y="70.930536" style="fill: #e63946; stroke: #e63946"/>
     <use xlink:href="#m53b13a15c3" x="63.703665" y="73.145577" style="fill: #e63946; stroke: #e63946"/>
     <use xlink:href="#m53b13a15c3" x="63.83839" y="73.145577" style="fill: #e63946; stroke: #e63946"/>
     <use xlink:href="#m53b13a15c3" x="63.973114" y="73.145577" style="fill: #e63946; stroke: #e63946"/>
     <use xlink:href="#m53b13a15c3" x="64.152748" y="73.145577" style="fill: #e63946; stroke: #e63946"/>
     <use xlink:href="#m53b13a15c3" x="65.320364" y="77.770387" style="fill: #e63946; stroke: #e63946"/>
     <use xlink:href="#m53b13a15c3" x="65.589813" y="80.10968" style="fill: #e63946; stroke: #e63946"/>
     <use xlink:href="#m53b13a15c3" x="65.67963" y="81.307855" style="fill: #e63946; stroke: #e63946"/>
     <use xlink:href="#m53b13a15c3" x="65.724538" y="81.307855" style="fill: #e63946; stroke: #e63946"/>
     <use xlink:href="#m53b13a15c3" x="65.769447" y="81.307855" style="fill: #e63946; stroke: #e63946"/>
     <use xlink:href="#m53b13a15c3" x="66.038897" y="81.307855" style="fill: #e63946; stroke: #e63946"/>
     <use xlink:href="#m53b13a15c3" x="66.712521" y="81.307855" style="fill: #e63946; stroke: #e63946"/>
     <use xlink:href="#m53b13a15c3" x="67.026879" y="81.307855" style="fill: #e63946; stroke: #e63946"/>
     <use xlink:href="#m53b13a15c3" x="67.386146" y="83.895912" style="fill: #e63946; stroke: #e63946"/>
     <use xlink:href="#m53b13a15c3" x="68.194495" y="85.207913" style="fill: #e63946; stroke: #e63946"/>
     <use xlink:href="#m53b13a15c3" x="68.374128" y="85.207913" style="fill: #e63946; stroke: #e63946"/>
     <use xlink:href="#m53b13a15c3" x="68.778303" y="85.207913" style="fill: #e63946; stroke: #e63946"/>
     <use xlink:href="#m53b13a15c3" x="69.496836" y="86.577797" style="fill: #e63946; stroke: #e63946"/>
     <use xlink:href="#m53b13a15c3" x="71.023719" y="92.140355" style="fill: #e63946; stroke: #e63946"/>
     <use xlink:href="#m53b13a15c3" x="73.673309" y="99.207539" style="fill: #e63946; stroke: #e63946"/>
     <use xlink:href="#m53b13a15c3" x="74.346933" y="99.207539" style="fill: #e63946; stroke: #e63946"/>
     <use xlink:href="#m53b13a15c3" x="75.469641" y="102.139111" style="fill: #e63946; stroke: #e63946"/>
     <use xlink:href="#m53b13a15c3" x="75.514549" y="102.139111" style="fill: #e63946; stroke: #e63946"/>
     <use xlink:href="#m53b13a15c3" x="76.098357" y="102.139111" style="fill: #e63946; stroke: #e63946"/>
     <use xlink:href="#m53b13a15c3" x="76.996523" y="105.250168" style="fill: #e63946; stroke: #e63946"/>
     <use xlink:href="#m53b13a15c3" x="77.35579" y="106.839512" style="fill: #e63946; stroke: #e63946"/>
     <use xlink:href="#m53b13a15c3" x="78.837764" y="110.090443" style="fill: #e63946; stroke: #e63946"/>
     <use xlink:href="#m53b13a15c3" x="79.46648" y="110.090443" style="fill: #e63946; stroke: #e63946"/>
     <use xlink:href="#m53b13a15c3" x="79.73593" y="110.090443" style="fill: #e63946; stroke: #e63946"/>
     <use xlink:href="#m53b13a15c3" x="80.993362" y="110.090443" style="fill: #e63946; stroke: #e63946"/>
     <use xlink:href="#m53b13a15c3" x="82.071162" y="110.090443" style="fill: #e63946; stroke: #e63946"/>
     <use xlink:href="#m53b13a15c3" x="84.675844" y="110.090443" style="fill: #e63946; stroke: #e63946"/>
     <use xlink:href="#m53b13a15c3" x="86.696717" y="113.883197" style="fill: #e63946; stroke: #e63946"/>
     <use xlink:href="#m53b13a15c3" x="88.582866" y="115.837039" style="fill: #e63946; stroke: #e63946"/>
     <use xlink:href="#m53b13a15c3" x="89.705574" y="115.837039" style="fill: #e63946; stroke: #e63946"/>
     <use xlink:href="#m53b13a15c3" x="92.894064" y="115.837039" style="fill: #e63946; stroke: #e63946"/>
     <use xlink:href="#m53b13a15c3" x="94.376038" y="115.837039" style="fill: #e63946; stroke: #e63946"/>
     <use xlink:href="#m53b13a15c3" x="99.181226" y="115.837039" style="fill: #e63946; stroke: #e63946"/>
     <use xlink:href="#m53b13a15c3" x="104.92949" y="122.784035" style="fill: #e63946; stroke: #e63946"/>
     <use xlink:href="#m53b13a15c3" x="105.198939" y="122.784035" style="fill: #e63946; stroke: #e63946"/>
     <use xlink:href="#m53b13a15c3" x="108.297613" y="122.784035" style="fill: #e63946; stroke: #e63946"/>
     <use xlink:href="#m53b13a15c3" x="109.734678" y="125.430509" style="fill: #e63946; stroke: #e63946"/>
     <use xlink:href="#m53b13a15c3" x="119.839047" y="128.216272" style="fill: #e63946; stroke: #e63946"/>
     <use xlink:href="#m53b13a15c3" x="120.108497" y="128.216272" style="fill: #e63946; stroke: #e63946"/>
     <use xlink:href="#m53b13a15c3" x="121.815013" y="128.216272" style="fill: #e63946; stroke: #e63946"/>
     <use xlink:href="#m53b13a15c3" x="124.240061" y="131.559187" style="fill: #e63946; stroke: #e63946"/>
     <use xlink:href="#m53b13a15c3" x="125.497494" y="131.559187" style="fill: #e63946; stroke: #e63946"/>
     <use xlink:href="#m53b13a15c3" x="127.069285" y="131.559187" style="fill: #e63946; stroke: #e63946"/>
     <use xlink:href="#m53b13a15c3" x="130.347591" y="140.068426" style="fill: #e63946; stroke: #e63946"/>
     <use xlink:href="#m53b13a15c3" x="134.34443" y="140.068426" style="fill: #e63946; stroke: #e63946"/>
     <use xlink:href="#m53b13a15c3" x="145.257149" y="140.068426" style="fill: #e63946; stroke: #e63946"/>
     <use xlink:href="#m53b13a15c3" x="174.851722" y="146.450355" style="fill: #e63946; stroke: #e63946"/>
     <use xlink:href="#m53b13a15c3" x="193.758119" y="154.427766" style="fill: #e63946; stroke: #e63946"/>
     <use xlink:href="#m53b13a15c3" x="218.412779" y="154.427766" style="fill: #e63946; stroke: #e63946"/>
     <use xlink:href="#m53b13a15c3" x="266.419759" y="154.427766" style="fill: #e63946; stroke: #e63946"/>
    </g>
   </g>
   <g id="line2d_28">
    <path d="M 36.758681 15.350476 
L 42.147678 15.350476 
L 42.147678 16.161469 
L 42.686577 16.161469 
L 42.731486 17.804017 
L 43.045844 17.804017 
L 43.045844 18.627381 
L 43.270385 18.627381 
L 43.315294 19.450745 
L 43.315294 19.450745 
L 43.67456 19.450745 
L 43.67456 20.282731 
L 43.809285 20.282731 
L 43.809285 21.114717 
L 44.078735 21.114717 
L 44.078735 21.946702 
L 44.931993 21.946702 
L 44.931993 22.783137 
L 45.111626 22.783137 
L 45.111626 23.619572 
L 45.381076 23.619572 
L 45.381076 24.456007 
L 45.515801 24.456007 
L 45.515801 25.292441 
L 46.099609 25.292441 
L 46.189425 26.965311 
L 46.952866 26.965311 
L 46.952866 27.801745 
L 47.177408 27.801745 
L 47.177408 28.642853 
L 47.401949 28.642853 
L 47.401949 29.483961 
L 47.806124 29.483961 
L 47.806124 30.325068 
L 48.210299 30.325068 
L 48.210299 31.175844 
L 48.614474 31.175844 
L 48.614474 32.026619 
L 48.839015 32.026619 
L 48.839015 32.877395 
L 49.108465 32.877395 
L 49.108465 33.72817 
L 49.51264 33.72817 
L 49.51264 34.578946 
L 49.647365 34.578946 
L 49.647365 35.429721 
L 49.692273 35.429721 
L 50.05154 35.429721 
L 50.05154 37.141461 
L 50.276081 37.141461 
L 50.276081 37.997331 
L 50.859889 37.997331 
L 50.904797 39.709071 
L 50.994614 39.709071 
L 51.039522 41.431442 
L 51.219155 41.431442 
L 51.219155 42.292628 
L 51.398789 42.292628 
L 51.398789 43.153814 
L 51.937688 43.153814 
L 51.937688 44.015 
L 52.027505 44.015 
L 52.117322 44.015 
L 52.117322 44.881742 
L 52.835855 44.881742 
L 52.835855 45.754149 
L 53.240029 45.754149 
L 53.240029 46.626556 
L 54.183104 46.626556 
L 54.183104 48.37137 
L 54.407645 48.37137 
L 54.452554 49.243777 
L 54.452554 49.243777 
L 55.620169 49.243777 
L 55.620169 50.134233 
L 55.889619 50.134233 
L 55.889619 51.030917 
L 55.979436 51.030917 
L 56.248886 51.030917 
L 56.248886 52.889736 
L 56.338702 52.889736 
L 56.92251 52.889736 
L 56.92251 54.820048 
L 57.057235 54.820048 
L 57.057235 55.785203 
L 57.19196 55.785203 
L 57.281777 57.715515 
L 57.596135 57.715515 
L 57.596135 58.696365 
L 57.865585 58.696365 
L 57.865585 59.677214 
L 58.179943 59.677214 
L 58.26976 61.638913 
L 58.404484 61.638913 
L 58.404484 62.628075 
L 59.976275 62.628075 
L 60.021183 64.640804 
L 60.604991 64.640804 
L 60.604991 66.671504 
L 60.694808 66.671504 
L 60.91935 66.671504 
L 60.91935 67.696169 
L 61.727699 67.696169 
L 61.727699 68.760244 
L 62.536049 68.760244 
L 62.536049 69.84539 
L 63.074948 69.84539 
L 63.074948 70.930536 
L 63.164765 70.930536 
L 63.434215 70.930536 
L 63.434215 72.038057 
L 63.703665 72.038057 
L 63.703665 73.145577 
L 64.197656 73.145577 
L 64.197656 74.301779 
L 64.332381 74.301779 
L 64.332381 75.457982 
L 65.006005 75.457982 
L 65.006005 77.770387 
L 65.455089 77.770387 
L 65.544905 80.10968 
L 65.634722 80.10968 
L 65.634722 81.307855 
L 65.724538 81.307855 
L 67.116696 81.307855 
L 67.116696 82.601883 
L 67.341237 82.601883 
L 67.341237 83.895912 
L 67.386146 83.895912 
L 67.925045 83.895912 
L 67.925045 85.207913 
L 68.86812 85.207913 
L 68.86812 86.577797 
L 69.901011 86.577797 
L 69.901011 87.968436 
L 70.170461 87.968436 
L 70.170461 89.359076 
L 70.619544 89.359076 
L 70.619544 90.749715 
L 70.888994 90.749715 
L 70.888994 92.140355 
L 71.338077 92.140355 
L 71.338077 93.553791 
L 71.607526 93.553791 
L 71.607526 94.967228 
L 71.921885 94.967228 
L 71.921885 96.380665 
L 72.595509 96.380665 
L 72.595509 97.794102 
L 72.820051 97.794102 
L 72.820051 99.207539 
L 74.571475 99.207539 
L 74.571475 100.673325 
L 75.334916 100.673325 
L 75.334916 102.139111 
L 76.412715 102.139111 
L 76.412715 103.69464 
L 76.592348 103.69464 
L 76.592348 105.250168 
L 77.131248 105.250168 
L 77.131248 106.839512 
L 78.209047 106.839512 
L 78.209047 108.464978 
L 78.433589 108.464978 
L 78.433589 110.090443 
L 84.720752 110.090443 
L 84.720752 111.98682 
L 84.900385 111.98682 
L 84.900385 113.883197 
L 87.999058 113.883197 
L 87.999058 115.837039 
L 100.169209 115.837039 
L 100.169209 118.152704 
L 101.022467 118.152704 
L 101.022467 120.46837 
L 103.537332 120.46837 
L 103.537332 122.784035 
L 109.510137 122.784035 
L 109.510137 125.430509 
L 114.629684 125.430509 
L 114.629684 128.216272 
L 123.566437 128.216272 
L 123.566437 131.559187 
L 128.147084 131.559187 
L 128.147084 135.813806 
L 130.347591 135.813806 
L 130.347591 140.068426 
L 166.633502 140.068426 
L 166.633502 146.450355 
L 182.575951 146.450355 
L 182.575951 154.427766 
L 266.419759 154.427766 
L 266.419759 154.427766 
" clip-path="url(#p8f5044f1c8)" style="fill: none; stroke: #e63946; stroke-width: 2; stroke-linecap: round"/>
   </g>
   <g id="patch_3">
    <path d="M 39.632812 178.36 
L 39.632812 7.2 
" style="fill: none; stroke: #262626; stroke-width: 0.8; stroke-linejoin: miter; stroke-linecap: square"/>
   </g>
   <g id="patch_4">
    <path d="M 277.902813 178.36 
L 277.902813 7.2 
" style="fill: none; stroke: #262626; stroke-width: 0.8; stroke-linejoin: miter; stroke-linecap: square"/>
   </g>
   <g id="patch_5">
    <path d="M 39.632812 178.36 
L 277.902813 178.36 
" style="fill: none; stroke: #262626; stroke-width: 0.8; stroke-linejoin: miter; stroke-linecap: square"/>
   </g>
   <g id="patch_6">
    <path d="M 39.632812 7.2 
L 277.902813 7.2 
" style="fill: none; stroke: #262626; stroke-width: 0.8; stroke-linejoin: miter; stroke-linecap: square"/>
   </g>
   <g id="text_15">
    <g id="patch_7">
     <path d="M 229.696163 25.9005 
L 273.137413 25.9005 
Q 275.537413 25.9005 275.537413 23.5005 
L 275.537413 15.758 
Q 275.537413 13.358 273.137413 13.358 
L 229.696163 13.358 
Q 227.296163 13.358 227.296163 15.758 
L 227.296163 23.5005 
Q 227.296163 25.9005 229.696163 25.9005 
z
" style="fill: #ffffff; opacity: 0.8; stroke: #ffffff; stroke-linejoin: miter"/>
    </g>
    <!-- P &lt; 0.001 -->
    <g style="fill: #262626" transform="translate(229.696163 21.83675) scale(0.08 -0.08)">
     <defs>
      <path id="DejaVuSans-Bold-50" d="M 588 4666 
L 2584 4666 
Q 3475 4666 3951 4270 
Q 4428 3875 4428 3144 
Q 4428 2409 3951 2014 
Q 3475 1619 2584 1619 
L 1791 1619 
L 1791 0 
L 588 0 
L 588 4666 
z
M 1791 3794 
L 1791 2491 
L 2456 2491 
Q 2806 2491 2997 2661 
Q 3188 2831 3188 3144 
Q 3188 3456 2997 3625 
Q 2806 3794 2456 3794 
L 1791 3794 
z
" transform="scale(0.015625)"/>
      <path id="DejaVuSans-Bold-20" transform="scale(0.015625)"/>
      <path id="DejaVuSans-Bold-3c" d="M 4684 3041 
L 1672 2003 
L 4684 972 
L 4684 191 
L 678 1638 
L 678 2375 
L 4684 3822 
L 4684 3041 
z
" transform="scale(0.015625)"/>
      <path id="DejaVuSans-Bold-30" d="M 2944 2338 
Q 2944 3213 2780 3570 
Q 2616 3928 2228 3928 
Q 1841 3928 1675 3570 
Q 1509 3213 1509 2338 
Q 1509 1453 1675 1090 
Q 1841 728 2228 728 
Q 2613 728 2778 1090 
Q 2944 1453 2944 2338 
z
M 4147 2328 
Q 4147 1169 3647 539 
Q 3147 -91 2228 -91 
Q 1306 -91 806 539 
Q 306 1169 306 2328 
Q 306 3491 806 4120 
Q 1306 4750 2228 4750 
Q 3147 4750 3647 4120 
Q 4147 3491 4147 2328 
z
" transform="scale(0.015625)"/>
      <path id="DejaVuSans-Bold-2e" d="M 653 1209 
L 1778 1209 
L 1778 0 
L 653 0 
L 653 1209 
z
" transform="scale(0.015625)"/>
      <path id="DejaVuSans-Bold-31" d="M 750 831 
L 1813 831 
L 1813 3847 
L 722 3622 
L 722 4441 
L 1806 4666 
L 2950 4666 
L 2950 831 
L 4013 831 
L 4013 0 
L 750 0 
L 750 831 
z
" transform="scale(0.015625)"/>
     </defs>
     <use xlink:href="#DejaVuSans-Bold-50"/>
     <use xlink:href="#DejaVuSans-Bold-20" transform="translate(73.291016 0)"/>
     <use xlink:href="#DejaVuSans-Bold-3c" transform="translate(108.105469 0)"/>
     <use xlink:href="#DejaVuSans-Bold-20" transform="translate(191.894531 0)"/>
     <use xlink:href="#DejaVuSans-Bold-30" transform="translate(226.708984 0)"/>
     <use xlink:href="#DejaVuSans-Bold-2e" transform="translate(296.289062 0)"/>
     <use xlink:href="#DejaVuSans-Bold-30" transform="translate(334.277344 0)"/>
     <use xlink:href="#DejaVuSans-Bold-30" transform="translate(403.857422 0)"/>
     <use xlink:href="#DejaVuSans-Bold-31" transform="translate(473.4375 0)"/>
    </g>
   </g>
  </g>
 </g>
 <defs>
  <clipPath id="p8f5044f1c8">
   <rect x="39.632812" y="7.2" width="238.27" height="171.16"/>
  </clipPath>
 </defs>
</svg>
