<?xml version="1.0" encoding="utf-8" standalone="no"?>
<!DOCTYPE svg PUBLIC "-//W3C//DTD SVG 1.1//EN"
  "http://www.w3.org/Graphics/SVG/1.1/DTD/svg11.dtd">
<svg xmlns:xlink="http://www.w3.org/1999/xlink" width="856.46125pt" height="423.034375pt" viewBox="0 0 856.46125 423.034375" xmlns="http://www.w3.org/2000/svg" version="1.1">
 <metadata>
  <rdf:RDF xmlns:dc="http://purl.org/dc/elements/1.1/" xmlns:cc="http://creativecommons.org/ns#" xmlns:rdf="http://www.w3.org/1999/02/22-rdf-syntax-ns#">
   <cc:Work>
    <dc:type rdf:resource="http://purl.org/dc/dcmitype/StillImage"/>
    <dc:date>2025-07-01T21:57:11.784512</dc:date>
    <dc:format>image/svg+xml</dc:format>
    <dc:creator>
     <cc:Agent>
      <dc:title>Matplotlib v3.10.3, https://matplotlib.org/</dc:title>
     </cc:Agent>
    </dc:creator>
   </cc:Work>
  </rdf:RDF>
 </metadata>
 <defs>
  <style type="text/css">*{stroke-linejoin: round; stroke-linecap: butt}</style>
 </defs>
 <g id="figure_1">
  <g id="patch_1">
   <path d="M 0 423.034375 
L 856.46125 423.034375 
L 856.46125 0 
L 0 0 
z
" style="fill: #ffffff"/>
  </g>
  <g id="axes_1">
   <g id="patch_2">
    <path d="M 43.78125 385.478125 
L 849.26125 385.478125 
L 849.26125 22.318125 
L 43.78125 22.318125 
z
" style="fill: #ffffff"/>
   </g>
   <g id="patch_3">
    <path d="M 80.393977 385.478125 
L 105.644134 385.478125 
L 105.644134 44.675252 
L 80.393977 44.675252 
z
" clip-path="url(#pc69f2053dd)" style="fill: #1f77b4"/>
   </g>
   <g id="patch_4">
    <path d="M 206.644761 385.478125 
L 231.894918 385.478125 
L 231.894918 113.386793 
L 206.644761 113.386793 
z
" clip-path="url(#pc69f2053dd)" style="fill: #1f77b4"/>
   </g>
   <g id="patch_5">
    <path d="M 332.895545 385.478125 
L 358.145701 385.478125 
L 358.145701 220.214009 
L 332.895545 220.214009 
z
" clip-path="url(#pc69f2053dd)" style="fill: #1f77b4"/>
   </g>
   <g id="patch_6">
    <path d="M 459.146328 385.478125 
L 484.396485 385.478125 
L 484.396485 189.269882 
L 459.146328 189.269882 
z
" clip-path="url(#pc69f2053dd)" style="fill: #1f77b4"/>
   </g>
   <g id="patch_7">
    <path d="M 585.397112 385.478125 
L 610.647269 385.478125 
L 610.647269 287.210797 
L 585.397112 287.210797 
z
" clip-path="url(#pc69f2053dd)" style="fill: #1f77b4"/>
   </g>
   <g id="patch_8">
    <path d="M 711.647896 385.478125 
L 736.898053 385.478125 
L 736.898053 44.034962 
L 711.647896 44.034962 
z
" clip-path="url(#pc69f2053dd)" style="fill: #1f77b4"/>
   </g>
   <g id="patch_9">
    <path d="M 105.644134 385.478125 
L 130.894291 385.478125 
L 130.894291 44.749523 
L 105.644134 44.749523 
z
" clip-path="url(#pc69f2053dd)" style="fill: #ff7f0e"/>
   </g>
   <g id="patch_10">
    <path d="M 231.894918 385.478125 
L 257.145074 385.478125 
L 257.145074 118.724044 
L 231.894918 118.724044 
z
" clip-path="url(#pc69f2053dd)" style="fill: #ff7f0e"/>
   </g>
   <g id="patch_11">
    <path d="M 358.145701 385.478125 
L 383.395858 385.478125 
L 383.395858 232.926687 
L 358.145701 232.926687 
z
" clip-path="url(#pc69f2053dd)" style="fill: #ff7f0e"/>
   </g>
   <g id="patch_12">
    <path d="M 484.396485 385.478125 
L 509.646642 385.478125 
L 509.646642 192.712491 
L 484.396485 192.712491 
z
" clip-path="url(#pc69f2053dd)" style="fill: #ff7f0e"/>
   </g>
   <g id="patch_13">
    <path d="M 610.647269 385.478125 
L 635.897426 385.478125 
L 635.897426 299.605138 
L 610.647269 299.605138 
z
" clip-path="url(#pc69f2053dd)" style="fill: #ff7f0e"/>
   </g>
   <g id="patch_14">
    <path d="M 736.898053 385.478125 
L 762.148209 385.478125 
L 762.148209 44.234627 
L 736.898053 44.234627 
z
" clip-path="url(#pc69f2053dd)" style="fill: #ff7f0e"/>
   </g>
   <g id="patch_15">
    <path d="M 130.894291 385.478125 
L 156.144447 385.478125 
L 156.144447 44.534072 
L 130.894291 44.534072 
z
" clip-path="url(#pc69f2053dd)" style="fill: #2ca02c"/>
   </g>
   <g id="patch_16">
    <path d="M 257.145074 385.478125 
L 282.395231 385.478125 
L 282.395231 113.915183 
L 257.145074 113.915183 
z
" clip-path="url(#pc69f2053dd)" style="fill: #2ca02c"/>
   </g>
   <g id="patch_17">
    <path d="M 383.395858 385.478125 
L 408.646015 385.478125 
L 408.646015 236.953268 
L 383.395858 236.953268 
z
" clip-path="url(#pc69f2053dd)" style="fill: #2ca02c"/>
   </g>
   <g id="patch_18">
    <path d="M 509.646642 385.478125 
L 534.896799 385.478125 
L 534.896799 188.141607 
L 509.646642 188.141607 
z
" clip-path="url(#pc69f2053dd)" style="fill: #2ca02c"/>
   </g>
   <g id="patch_19">
    <path d="M 635.897426 385.478125 
L 661.147582 385.478125 
L 661.147582 297.884022 
L 635.897426 297.884022 
z
" clip-path="url(#pc69f2053dd)" style="fill: #2ca02c"/>
   </g>
   <g id="patch_20">
    <path d="M 762.148209 385.478125 
L 787.398366 385.478125 
L 787.398366 43.763582 
L 762.148209 43.763582 
z
" clip-path="url(#pc69f2053dd)" style="fill: #2ca02c"/>
   </g>
   <g id="patch_21">
    <path d="M 156.144447 385.478125 
L 181.394604 385.478125 
L 181.394604 44.675252 
L 156.144447 44.675252 
z
" clip-path="url(#pc69f2053dd)" style="fill: #d62728"/>
   </g>
   <g id="patch_22">
    <path d="M 282.395231 385.478125 
L 307.645388 385.478125 
L 307.645388 113.386793 
L 282.395231 113.386793 
z
" clip-path="url(#pc69f2053dd)" style="fill: #d62728"/>
   </g>
   <g id="patch_23">
    <path d="M 408.646015 385.478125 
L 433.896172 385.478125 
L 433.896172 220.214009 
L 408.646015 220.214009 
z
" clip-path="url(#pc69f2053dd)" style="fill: #d62728"/>
   </g>
   <g id="patch_24">
    <path d="M 534.896799 385.478125 
L 560.146955 385.478125 
L 560.146955 189.269882 
L 534.896799 189.269882 
z
" clip-path="url(#pc69f2053dd)" style="fill: #d62728"/>
   </g>
   <g id="patch_25">
    <path d="M 661.147582 385.478125 
L 686.397739 385.478125 
L 686.397739 287.210797 
L 661.147582 287.210797 
z
" clip-path="url(#pc69f2053dd)" style="fill: #d62728"/>
   </g>
   <g id="patch_26">
    <path d="M 787.398366 385.478125 
L 812.648523 385.478125 
L 812.648523 44.034962 
L 787.398366 44.034962 
z
" clip-path="url(#pc69f2053dd)" style="fill: #d62728"/>
   </g>
   <g id="matplotlib.axis_1">
    <g id="xtick_1">
     <g id="line2d_1">
      <path d="M 130.894291 385.478125 
L 130.894291 22.318125 
" clip-path="url(#pc69f2053dd)" style="fill: none; stroke: #b0b0b0; stroke-opacity: 0.3; stroke-width: 0.8; stroke-linecap: square"/>
     </g>
     <g id="line2d_2">
      <defs>
       <path id="mf84007c33c" d="M 0 0 
L 0 3.5 
" style="stroke: #000000; stroke-width: 0.8"/>
      </defs>
      <g>
       <use xlink:href="#mf84007c33c" x="130.894291" y="385.478125" style="stroke: #000000; stroke-width: 0.8"/>
      </g>
     </g>
     <g id="text_1">
      <!-- clinical -->
      <g transform="translate(113.606791 400.076562) scale(0.1 -0.1)">
       <defs>
        <path id="DejaVuSans-63" d="M 3122 3366 
L 3122 2828 
Q 2878 2963 2633 3030 
Q 2388 3097 2138 3097 
Q 1578 3097 1268 2742 
Q 959 2388 959 1747 
Q 959 1106 1268 751 
Q 1578 397 2138 397 
Q 2388 397 2633 464 
Q 2878 531 3122 666 
L 3122 134 
Q 2881 22 2623 -34 
Q 2366 -91 2075 -91 
Q 1284 -91 818 406 
Q 353 903 353 1747 
Q 353 2603 823 3093 
Q 1294 3584 2113 3584 
Q 2378 3584 2631 3529 
Q 2884 3475 3122 3366 
z
" transform="scale(0.015625)"/>
        <path id="DejaVuSans-6c" d="M 603 4863 
L 1178 4863 
L 1178 0 
L 603 0 
L 603 4863 
z
" transform="scale(0.015625)"/>
        <path id="DejaVuSans-69" d="M 603 3500 
L 1178 3500 
L 1178 0 
L 603 0 
L 603 3500 
z
M 603 4863 
L 1178 4863 
L 1178 4134 
L 603 4134 
L 603 4863 
z
" transform="scale(0.015625)"/>
        <path id="DejaVuSans-6e" d="M 3513 2113 
L 3513 0 
L 2938 0 
L 2938 2094 
Q 2938 2591 2744 2837 
Q 2550 3084 2163 3084 
Q 1697 3084 1428 2787 
Q 1159 2491 1159 1978 
L 1159 0 
L 581 0 
L 581 3500 
L 1159 3500 
L 1159 2956 
Q 1366 3272 1645 3428 
Q 1925 3584 2291 3584 
Q 2894 3584 3203 3211 
Q 3513 2838 3513 2113 
z
" transform="scale(0.015625)"/>
        <path id="DejaVuSans-61" d="M 2194 1759 
Q 1497 1759 1228 1600 
Q 959 1441 959 1056 
Q 959 750 1161 570 
Q 1363 391 1709 391 
Q 2188 391 2477 730 
Q 2766 1069 2766 1631 
L 2766 1759 
L 2194 1759 
z
M 3341 1997 
L 3341 0 
L 2766 0 
L 2766 531 
Q 2569 213 2275 61 
Q 1981 -91 1556 -91 
Q 1019 -91 701 211 
Q 384 513 384 1019 
Q 384 1609 779 1909 
Q 1175 2209 1959 2209 
L 2766 2209 
L 2766 2266 
Q 2766 2663 2505 2880 
Q 2244 3097 1772 3097 
Q 1472 3097 1187 3025 
Q 903 2953 641 2809 
L 641 3341 
Q 956 3463 1253 3523 
Q 1550 3584 1831 3584 
Q 2591 3584 2966 3190 
Q 3341 2797 3341 1997 
z
" transform="scale(0.015625)"/>
       </defs>
       <use xlink:href="#DejaVuSans-63"/>
       <use xlink:href="#DejaVuSans-6c" transform="translate(54.980469 0)"/>
       <use xlink:href="#DejaVuSans-69" transform="translate(82.763672 0)"/>
       <use xlink:href="#DejaVuSans-6e" transform="translate(110.546875 0)"/>
       <use xlink:href="#DejaVuSans-69" transform="translate(173.925781 0)"/>
       <use xlink:href="#DejaVuSans-63" transform="translate(201.708984 0)"/>
       <use xlink:href="#DejaVuSans-61" transform="translate(256.689453 0)"/>
       <use xlink:href="#DejaVuSans-6c" transform="translate(317.96875 0)"/>
      </g>
     </g>
    </g>
    <g id="xtick_2">
     <g id="line2d_3">
      <path d="M 257.145074 385.478125 
L 257.145074 22.318125 
" clip-path="url(#pc69f2053dd)" style="fill: none; stroke: #b0b0b0; stroke-opacity: 0.3; stroke-width: 0.8; stroke-linecap: square"/>
     </g>
     <g id="line2d_4">
      <g>
       <use xlink:href="#mf84007c33c" x="257.145074" y="385.478125" style="stroke: #000000; stroke-width: 0.8"/>
      </g>
     </g>
     <g id="text_2">
      <!-- pathology -->
      <g transform="translate(232.136481 400.076562) scale(0.1 -0.1)">
       <defs>
        <path id="DejaVuSans-70" d="M 1159 525 
L 1159 -1331 
L 581 -1331 
L 581 3500 
L 1159 3500 
L 1159 2969 
Q 1341 3281 1617 3432 
Q 1894 3584 2278 3584 
Q 2916 3584 3314 3078 
Q 3713 2572 3713 1747 
Q 3713 922 3314 415 
Q 2916 -91 2278 -91 
Q 1894 -91 1617 61 
Q 1341 213 1159 525 
z
M 3116 1747 
Q 3116 2381 2855 2742 
Q 2594 3103 2138 3103 
Q 1681 3103 1420 2742 
Q 1159 2381 1159 1747 
Q 1159 1113 1420 752 
Q 1681 391 2138 391 
Q 2594 391 2855 752 
Q 3116 1113 3116 1747 
z
" transform="scale(0.015625)"/>
        <path id="DejaVuSans-74" d="M 1172 4494 
L 1172 3500 
L 2356 3500 
L 2356 3053 
L 1172 3053 
L 1172 1153 
Q 1172 725 1289 603 
Q 1406 481 1766 481 
L 2356 481 
L 2356 0 
L 1766 0 
Q 1100 0 847 248 
Q 594 497 594 1153 
L 594 3053 
L 172 3053 
L 172 3500 
L 594 3500 
L 594 4494 
L 1172 4494 
z
" transform="scale(0.015625)"/>
        <path id="DejaVuSans-68" d="M 3513 2113 
L 3513 0 
L 2938 0 
L 2938 2094 
Q 2938 2591 2744 2837 
Q 2550 3084 2163 3084 
Q 1697 3084 1428 2787 
Q 1159 2491 1159 1978 
L 1159 0 
L 581 0 
L 581 4863 
L 1159 4863 
L 1159 2956 
Q 1366 3272 1645 3428 
Q 1925 3584 2291 3584 
Q 2894 3584 3203 3211 
Q 3513 2838 3513 2113 
z
" transform="scale(0.015625)"/>
        <path id="DejaVuSans-6f" d="M 1959 3097 
Q 1497 3097 1228 2736 
Q 959 2375 959 1747 
Q 959 1119 1226 758 
Q 1494 397 1959 397 
Q 2419 397 2687 759 
Q 2956 1122 2956 1747 
Q 2956 2369 2687 2733 
Q 2419 3097 1959 3097 
z
M 1959 3584 
Q 2709 3584 3137 3096 
Q 3566 2609 3566 1747 
Q 3566 888 3137 398 
Q 2709 -91 1959 -91 
Q 1206 -91 779 398 
Q 353 888 353 1747 
Q 353 2609 779 3096 
Q 1206 3584 1959 3584 
z
" transform="scale(0.015625)"/>
        <path id="DejaVuSans-67" d="M 2906 1791 
Q 2906 2416 2648 2759 
Q 2391 3103 1925 3103 
Q 1463 3103 1205 2759 
Q 947 2416 947 1791 
Q 947 1169 1205 825 
Q 1463 481 1925 481 
Q 2391 481 2648 825 
Q 2906 1169 2906 1791 
z
M 3481 434 
Q 3481 -459 3084 -895 
Q 2688 -1331 1869 -1331 
Q 1566 -1331 1297 -1286 
Q 1028 -1241 775 -1147 
L 775 -588 
Q 1028 -725 1275 -790 
Q 1522 -856 1778 -856 
Q 2344 -856 2625 -561 
Q 2906 -266 2906 331 
L 2906 616 
Q 2728 306 2450 153 
Q 2172 0 1784 0 
Q 1141 0 747 490 
Q 353 981 353 1791 
Q 353 2603 747 3093 
Q 1141 3584 1784 3584 
Q 2172 3584 2450 3431 
Q 2728 3278 2906 2969 
L 2906 3500 
L 3481 3500 
L 3481 434 
z
" transform="scale(0.015625)"/>
        <path id="DejaVuSans-79" d="M 2059 -325 
Q 1816 -950 1584 -1140 
Q 1353 -1331 966 -1331 
L 506 -1331 
L 506 -850 
L 844 -850 
Q 1081 -850 1212 -737 
Q 1344 -625 1503 -206 
L 1606 56 
L 191 3500 
L 800 3500 
L 1894 763 
L 2988 3500 
L 3597 3500 
L 2059 -325 
z
" transform="scale(0.015625)"/>
       </defs>
       <use xlink:href="#DejaVuSans-70"/>
       <use xlink:href="#DejaVuSans-61" transform="translate(63.476562 0)"/>
       <use xlink:href="#DejaVuSans-74" transform="translate(124.755859 0)"/>
       <use xlink:href="#DejaVuSans-68" transform="translate(163.964844 0)"/>
       <use xlink:href="#DejaVuSans-6f" transform="translate(227.34375 0)"/>
       <use xlink:href="#DejaVuSans-6c" transform="translate(288.525391 0)"/>
       <use xlink:href="#DejaVuSans-6f" transform="translate(316.308594 0)"/>
       <use xlink:href="#DejaVuSans-67" transform="translate(377.490234 0)"/>
       <use xlink:href="#DejaVuSans-79" transform="translate(440.966797 0)"/>
      </g>
     </g>
    </g>
    <g id="xtick_3">
     <g id="line2d_5">
      <path d="M 383.395858 385.478125 
L 383.395858 22.318125 
" clip-path="url(#pc69f2053dd)" style="fill: none; stroke: #b0b0b0; stroke-opacity: 0.3; stroke-width: 0.8; stroke-linecap: square"/>
     </g>
     <g id="line2d_6">
      <g>
       <use xlink:href="#mf84007c33c" x="383.395858" y="385.478125" style="stroke: #000000; stroke-width: 0.8"/>
      </g>
     </g>
     <g id="text_3">
      <!-- radiology -->
      <g transform="translate(360.071639 400.076562) scale(0.1 -0.1)">
       <defs>
        <path id="DejaVuSans-72" d="M 2631 2963 
Q 2534 3019 2420 3045 
Q 2306 3072 2169 3072 
Q 1681 3072 1420 2755 
Q 1159 2438 1159 1844 
L 1159 0 
L 581 0 
L 581 3500 
L 1159 3500 
L 1159 2956 
Q 1341 3275 1631 3429 
Q 1922 3584 2338 3584 
Q 2397 3584 2469 3576 
Q 2541 3569 2628 3553 
L 2631 2963 
z
" transform="scale(0.015625)"/>
        <path id="DejaVuSans-64" d="M 2906 2969 
L 2906 4863 
L 3481 4863 
L 3481 0 
L 2906 0 
L 2906 525 
Q 2725 213 2448 61 
Q 2172 -91 1784 -91 
Q 1150 -91 751 415 
Q 353 922 353 1747 
Q 353 2572 751 3078 
Q 1150 3584 1784 3584 
Q 2172 3584 2448 3432 
Q 2725 3281 2906 2969 
z
M 947 1747 
Q 947 1113 1208 752 
Q 1469 391 1925 391 
Q 2381 391 2643 752 
Q 2906 1113 2906 1747 
Q 2906 2381 2643 2742 
Q 2381 3103 1925 3103 
Q 1469 3103 1208 2742 
Q 947 2381 947 1747 
z
" transform="scale(0.015625)"/>
       </defs>
       <use xlink:href="#DejaVuSans-72"/>
       <use xlink:href="#DejaVuSans-61" transform="translate(41.113281 0)"/>
       <use xlink:href="#DejaVuSans-64" transform="translate(102.392578 0)"/>
       <use xlink:href="#DejaVuSans-69" transform="translate(165.869141 0)"/>
       <use xlink:href="#DejaVuSans-6f" transform="translate(193.652344 0)"/>
       <use xlink:href="#DejaVuSans-6c" transform="translate(254.833984 0)"/>
       <use xlink:href="#DejaVuSans-6f" transform="translate(282.617188 0)"/>
       <use xlink:href="#DejaVuSans-67" transform="translate(343.798828 0)"/>
       <use xlink:href="#DejaVuSans-79" transform="translate(407.275391 0)"/>
      </g>
     </g>
    </g>
    <g id="xtick_4">
     <g id="line2d_7">
      <path d="M 509.646642 385.478125 
L 509.646642 22.318125 
" clip-path="url(#pc69f2053dd)" style="fill: none; stroke: #b0b0b0; stroke-opacity: 0.3; stroke-width: 0.8; stroke-linecap: square"/>
     </g>
     <g id="line2d_8">
      <g>
       <use xlink:href="#mf84007c33c" x="509.646642" y="385.478125" style="stroke: #000000; stroke-width: 0.8"/>
      </g>
     </g>
     <g id="text_4">
      <!-- molecular -->
      <g transform="translate(484.824767 400.076562) scale(0.1 -0.1)">
       <defs>
        <path id="DejaVuSans-6d" d="M 3328 2828 
Q 3544 3216 3844 3400 
Q 4144 3584 4550 3584 
Q 5097 3584 5394 3201 
Q 5691 2819 5691 2113 
L 5691 0 
L 5113 0 
L 5113 2094 
Q 5113 2597 4934 2840 
Q 4756 3084 4391 3084 
Q 3944 3084 3684 2787 
Q 3425 2491 3425 1978 
L 3425 0 
L 2847 0 
L 2847 2094 
Q 2847 2600 2669 2842 
Q 2491 3084 2119 3084 
Q 1678 3084 1418 2786 
Q 1159 2488 1159 1978 
L 1159 0 
L 581 0 
L 581 3500 
L 1159 3500 
L 1159 2956 
Q 1356 3278 1631 3431 
Q 1906 3584 2284 3584 
Q 2666 3584 2933 3390 
Q 3200 3197 3328 2828 
z
" transform="scale(0.015625)"/>
        <path id="DejaVuSans-65" d="M 3597 1894 
L 3597 1613 
L 953 1613 
Q 991 1019 1311 708 
Q 1631 397 2203 397 
Q 2534 397 2845 478 
Q 3156 559 3463 722 
L 3463 178 
Q 3153 47 2828 -22 
Q 2503 -91 2169 -91 
Q 1331 -91 842 396 
Q 353 884 353 1716 
Q 353 2575 817 3079 
Q 1281 3584 2069 3584 
Q 2775 3584 3186 3129 
Q 3597 2675 3597 1894 
z
M 3022 2063 
Q 3016 2534 2758 2815 
Q 2500 3097 2075 3097 
Q 1594 3097 1305 2825 
Q 1016 2553 972 2059 
L 3022 2063 
z
" transform="scale(0.015625)"/>
        <path id="DejaVuSans-75" d="M 544 1381 
L 544 3500 
L 1119 3500 
L 1119 1403 
Q 1119 906 1312 657 
Q 1506 409 1894 409 
Q 2359 409 2629 706 
Q 2900 1003 2900 1516 
L 2900 3500 
L 3475 3500 
L 3475 0 
L 2900 0 
L 2900 538 
Q 2691 219 2414 64 
Q 2138 -91 1772 -91 
Q 1169 -91 856 284 
Q 544 659 544 1381 
z
M 1991 3584 
L 1991 3584 
z
" transform="scale(0.015625)"/>
       </defs>
       <use xlink:href="#DejaVuSans-6d"/>
       <use xlink:href="#DejaVuSans-6f" transform="translate(97.412109 0)"/>
       <use xlink:href="#DejaVuSans-6c" transform="translate(158.59375 0)"/>
       <use xlink:href="#DejaVuSans-65" transform="translate(186.376953 0)"/>
       <use xlink:href="#DejaVuSans-63" transform="translate(247.900391 0)"/>
       <use xlink:href="#DejaVuSans-75" transform="translate(302.880859 0)"/>
       <use xlink:href="#DejaVuSans-6c" transform="translate(366.259766 0)"/>
       <use xlink:href="#DejaVuSans-61" transform="translate(394.042969 0)"/>
       <use xlink:href="#DejaVuSans-72" transform="translate(455.322266 0)"/>
      </g>
     </g>
    </g>
    <g id="xtick_5">
     <g id="line2d_9">
      <path d="M 635.897426 385.478125 
L 635.897426 22.318125 
" clip-path="url(#pc69f2053dd)" style="fill: none; stroke: #b0b0b0; stroke-opacity: 0.3; stroke-width: 0.8; stroke-linecap: square"/>
     </g>
     <g id="line2d_10">
      <g>
       <use xlink:href="#mf84007c33c" x="635.897426" y="385.478125" style="stroke: #000000; stroke-width: 0.8"/>
      </g>
     </g>
     <g id="text_5">
      <!-- wsi -->
      <g transform="translate(627.814613 400.076562) scale(0.1 -0.1)">
       <defs>
        <path id="DejaVuSans-77" d="M 269 3500 
L 844 3500 
L 1563 769 
L 2278 3500 
L 2956 3500 
L 3675 769 
L 4391 3500 
L 4966 3500 
L 4050 0 
L 3372 0 
L 2619 2869 
L 1863 0 
L 1184 0 
L 269 3500 
z
" transform="scale(0.015625)"/>
        <path id="DejaVuSans-73" d="M 2834 3397 
L 2834 2853 
Q 2591 2978 2328 3040 
Q 2066 3103 1784 3103 
Q 1356 3103 1142 2972 
Q 928 2841 928 2578 
Q 928 2378 1081 2264 
Q 1234 2150 1697 2047 
L 1894 2003 
Q 2506 1872 2764 1633 
Q 3022 1394 3022 966 
Q 3022 478 2636 193 
Q 2250 -91 1575 -91 
Q 1294 -91 989 -36 
Q 684 19 347 128 
L 347 722 
Q 666 556 975 473 
Q 1284 391 1588 391 
Q 1994 391 2212 530 
Q 2431 669 2431 922 
Q 2431 1156 2273 1281 
Q 2116 1406 1581 1522 
L 1381 1569 
Q 847 1681 609 1914 
Q 372 2147 372 2553 
Q 372 3047 722 3315 
Q 1072 3584 1716 3584 
Q 2034 3584 2315 3537 
Q 2597 3491 2834 3397 
z
" transform="scale(0.015625)"/>
       </defs>
       <use xlink:href="#DejaVuSans-77"/>
       <use xlink:href="#DejaVuSans-73" transform="translate(81.787109 0)"/>
       <use xlink:href="#DejaVuSans-69" transform="translate(133.886719 0)"/>
      </g>
     </g>
    </g>
    <g id="xtick_6">
     <g id="line2d_11">
      <path d="M 762.148209 385.478125 
L 762.148209 22.318125 
" clip-path="url(#pc69f2053dd)" style="fill: none; stroke: #b0b0b0; stroke-opacity: 0.3; stroke-width: 0.8; stroke-linecap: square"/>
     </g>
     <g id="line2d_12">
      <g>
       <use xlink:href="#mf84007c33c" x="762.148209" y="385.478125" style="stroke: #000000; stroke-width: 0.8"/>
      </g>
     </g>
     <g id="text_6">
      <!-- multimodal -->
      <g transform="translate(733.813834 400.076562) scale(0.1 -0.1)">
       <use xlink:href="#DejaVuSans-6d"/>
       <use xlink:href="#DejaVuSans-75" transform="translate(97.412109 0)"/>
       <use xlink:href="#DejaVuSans-6c" transform="translate(160.791016 0)"/>
       <use xlink:href="#DejaVuSans-74" transform="translate(188.574219 0)"/>
       <use xlink:href="#DejaVuSans-69" transform="translate(227.783203 0)"/>
       <use xlink:href="#DejaVuSans-6d" transform="translate(255.566406 0)"/>
       <use xlink:href="#DejaVuSans-6f" transform="translate(352.978516 0)"/>
       <use xlink:href="#DejaVuSans-64" transform="translate(414.160156 0)"/>
       <use xlink:href="#DejaVuSans-61" transform="translate(477.636719 0)"/>
       <use xlink:href="#DejaVuSans-6c" transform="translate(538.916016 0)"/>
      </g>
     </g>
    </g>
    <g id="text_7">
     <!-- Modality -->
     <g transform="translate(425.211875 413.754687) scale(0.1 -0.1)">
      <defs>
       <path id="DejaVuSans-4d" d="M 628 4666 
L 1569 4666 
L 2759 1491 
L 3956 4666 
L 4897 4666 
L 4897 0 
L 4281 0 
L 4281 4097 
L 3078 897 
L 2444 897 
L 1241 4097 
L 1241 0 
L 628 0 
L 628 4666 
z
" transform="scale(0.015625)"/>
      </defs>
      <use xlink:href="#DejaVuSans-4d"/>
      <use xlink:href="#DejaVuSans-6f" transform="translate(86.279297 0)"/>
      <use xlink:href="#DejaVuSans-64" transform="translate(147.460938 0)"/>
      <use xlink:href="#DejaVuSans-61" transform="translate(210.9375 0)"/>
      <use xlink:href="#DejaVuSans-6c" transform="translate(272.216797 0)"/>
      <use xlink:href="#DejaVuSans-69" transform="translate(300 0)"/>
      <use xlink:href="#DejaVuSans-74" transform="translate(327.783203 0)"/>
      <use xlink:href="#DejaVuSans-79" transform="translate(366.992188 0)"/>
     </g>
    </g>
   </g>
   <g id="matplotlib.axis_2">
    <g id="ytick_1">
     <g id="line2d_13">
      <path d="M 43.78125 385.478125 
L 849.26125 385.478125 
" clip-path="url(#pc69f2053dd)" style="fill: none; stroke: #b0b0b0; stroke-opacity: 0.3; stroke-width: 0.8; stroke-linecap: square"/>
     </g>
     <g id="line2d_14">
      <defs>
       <path id="mbfaf366ba8" d="M 0 0 
L -3.5 0 
" style="stroke: #000000; stroke-width: 0.8"/>
      </defs>
      <g>
       <use xlink:href="#mbfaf366ba8" x="43.78125" y="385.478125" style="stroke: #000000; stroke-width: 0.8"/>
      </g>
     </g>
     <g id="text_8">
      <!-- 0.0 -->
      <g transform="translate(20.878125 389.277344) scale(0.1 -0.1)">
       <defs>
        <path id="DejaVuSans-30" d="M 2034 4250 
Q 1547 4250 1301 3770 
Q 1056 3291 1056 2328 
Q 1056 1369 1301 889 
Q 1547 409 2034 409 
Q 2525 409 2770 889 
Q 3016 1369 3016 2328 
Q 3016 3291 2770 3770 
Q 2525 4250 2034 4250 
z
M 2034 4750 
Q 2819 4750 3233 4129 
Q 3647 3509 3647 2328 
Q 3647 1150 3233 529 
Q 2819 -91 2034 -91 
Q 1250 -91 836 529 
Q 422 1150 422 2328 
Q 422 3509 836 4129 
Q 1250 4750 2034 4750 
z
" transform="scale(0.015625)"/>
        <path id="DejaVuSans-2e" d="M 684 794 
L 1344 794 
L 1344 0 
L 684 0 
L 684 794 
z
" transform="scale(0.015625)"/>
       </defs>
       <use xlink:href="#DejaVuSans-30"/>
       <use xlink:href="#DejaVuSans-2e" transform="translate(63.623047 0)"/>
       <use xlink:href="#DejaVuSans-30" transform="translate(95.410156 0)"/>
      </g>
     </g>
    </g>
    <g id="ytick_2">
     <g id="line2d_15">
      <path d="M 43.78125 316.304792 
L 849.26125 316.304792 
" clip-path="url(#pc69f2053dd)" style="fill: none; stroke: #b0b0b0; stroke-opacity: 0.3; stroke-width: 0.8; stroke-linecap: square"/>
     </g>
     <g id="line2d_16">
      <g>
       <use xlink:href="#mbfaf366ba8" x="43.78125" y="316.304792" style="stroke: #000000; stroke-width: 0.8"/>
      </g>
     </g>
     <g id="text_9">
      <!-- 0.2 -->
      <g transform="translate(20.878125 320.10401) scale(0.1 -0.1)">
       <defs>
        <path id="DejaVuSans-32" d="M 1228 531 
L 3431 531 
L 3431 0 
L 469 0 
L 469 531 
Q 828 903 1448 1529 
Q 2069 2156 2228 2338 
Q 2531 2678 2651 2914 
Q 2772 3150 2772 3378 
Q 2772 3750 2511 3984 
Q 2250 4219 1831 4219 
Q 1534 4219 1204 4116 
Q 875 4013 500 3803 
L 500 4441 
Q 881 4594 1212 4672 
Q 1544 4750 1819 4750 
Q 2544 4750 2975 4387 
Q 3406 4025 3406 3419 
Q 3406 3131 3298 2873 
Q 3191 2616 2906 2266 
Q 2828 2175 2409 1742 
Q 1991 1309 1228 531 
z
" transform="scale(0.015625)"/>
       </defs>
       <use xlink:href="#DejaVuSans-30"/>
       <use xlink:href="#DejaVuSans-2e" transform="translate(63.623047 0)"/>
       <use xlink:href="#DejaVuSans-32" transform="translate(95.410156 0)"/>
      </g>
     </g>
    </g>
    <g id="ytick_3">
     <g id="line2d_17">
      <path d="M 43.78125 247.131458 
L 849.26125 247.131458 
" clip-path="url(#pc69f2053dd)" style="fill: none; stroke: #b0b0b0; stroke-opacity: 0.3; stroke-width: 0.8; stroke-linecap: square"/>
     </g>
     <g id="line2d_18">
      <g>
       <use xlink:href="#mbfaf366ba8" x="43.78125" y="247.131458" style="stroke: #000000; stroke-width: 0.8"/>
      </g>
     </g>
     <g id="text_10">
      <!-- 0.4 -->
      <g transform="translate(20.878125 250.930677) scale(0.1 -0.1)">
       <defs>
        <path id="DejaVuSans-34" d="M 2419 4116 
L 825 1625 
L 2419 1625 
L 2419 4116 
z
M 2253 4666 
L 3047 4666 
L 3047 1625 
L 3713 1625 
L 3713 1100 
L 3047 1100 
L 3047 0 
L 2419 0 
L 2419 1100 
L 313 1100 
L 313 1709 
L 2253 4666 
z
" transform="scale(0.015625)"/>
       </defs>
       <use xlink:href="#DejaVuSans-30"/>
       <use xlink:href="#DejaVuSans-2e" transform="translate(63.623047 0)"/>
       <use xlink:href="#DejaVuSans-34" transform="translate(95.410156 0)"/>
      </g>
     </g>
    </g>
    <g id="ytick_4">
     <g id="line2d_19">
      <path d="M 43.78125 177.958125 
L 849.26125 177.958125 
" clip-path="url(#pc69f2053dd)" style="fill: none; stroke: #b0b0b0; stroke-opacity: 0.3; stroke-width: 0.8; stroke-linecap: square"/>
     </g>
     <g id="line2d_20">
      <g>
       <use xlink:href="#mbfaf366ba8" x="43.78125" y="177.958125" style="stroke: #000000; stroke-width: 0.8"/>
      </g>
     </g>
     <g id="text_11">
      <!-- 0.6 -->
      <g transform="translate(20.878125 181.757344) scale(0.1 -0.1)">
       <defs>
        <path id="DejaVuSans-36" d="M 2113 2584 
Q 1688 2584 1439 2293 
Q 1191 2003 1191 1497 
Q 1191 994 1439 701 
Q 1688 409 2113 409 
Q 2538 409 2786 701 
Q 3034 994 3034 1497 
Q 3034 2003 2786 2293 
Q 2538 2584 2113 2584 
z
M 3366 4563 
L 3366 3988 
Q 3128 4100 2886 4159 
Q 2644 4219 2406 4219 
Q 1781 4219 1451 3797 
Q 1122 3375 1075 2522 
Q 1259 2794 1537 2939 
Q 1816 3084 2150 3084 
Q 2853 3084 3261 2657 
Q 3669 2231 3669 1497 
Q 3669 778 3244 343 
Q 2819 -91 2113 -91 
Q 1303 -91 875 529 
Q 447 1150 447 2328 
Q 447 3434 972 4092 
Q 1497 4750 2381 4750 
Q 2619 4750 2861 4703 
Q 3103 4656 3366 4563 
z
" transform="scale(0.015625)"/>
       </defs>
       <use xlink:href="#DejaVuSans-30"/>
       <use xlink:href="#DejaVuSans-2e" transform="translate(63.623047 0)"/>
       <use xlink:href="#DejaVuSans-36" transform="translate(95.410156 0)"/>
      </g>
     </g>
    </g>
    <g id="ytick_5">
     <g id="line2d_21">
      <path d="M 43.78125 108.784792 
L 849.26125 108.784792 
" clip-path="url(#pc69f2053dd)" style="fill: none; stroke: #b0b0b0; stroke-opacity: 0.3; stroke-width: 0.8; stroke-linecap: square"/>
     </g>
     <g id="line2d_22">
      <g>
       <use xlink:href="#mbfaf366ba8" x="43.78125" y="108.784792" style="stroke: #000000; stroke-width: 0.8"/>
      </g>
     </g>
     <g id="text_12">
      <!-- 0.8 -->
      <g transform="translate(20.878125 112.58401) scale(0.1 -0.1)">
       <defs>
        <path id="DejaVuSans-38" d="M 2034 2216 
Q 1584 2216 1326 1975 
Q 1069 1734 1069 1313 
Q 1069 891 1326 650 
Q 1584 409 2034 409 
Q 2484 409 2743 651 
Q 3003 894 3003 1313 
Q 3003 1734 2745 1975 
Q 2488 2216 2034 2216 
z
M 1403 2484 
Q 997 2584 770 2862 
Q 544 3141 544 3541 
Q 544 4100 942 4425 
Q 1341 4750 2034 4750 
Q 2731 4750 3128 4425 
Q 3525 4100 3525 3541 
Q 3525 3141 3298 2862 
Q 3072 2584 2669 2484 
Q 3125 2378 3379 2068 
Q 3634 1759 3634 1313 
Q 3634 634 3220 271 
Q 2806 -91 2034 -91 
Q 1263 -91 848 271 
Q 434 634 434 1313 
Q 434 1759 690 2068 
Q 947 2378 1403 2484 
z
M 1172 3481 
Q 1172 3119 1398 2916 
Q 1625 2713 2034 2713 
Q 2441 2713 2670 2916 
Q 2900 3119 2900 3481 
Q 2900 3844 2670 4047 
Q 2441 4250 2034 4250 
Q 1625 4250 1398 4047 
Q 1172 3844 1172 3481 
z
" transform="scale(0.015625)"/>
       </defs>
       <use xlink:href="#DejaVuSans-30"/>
       <use xlink:href="#DejaVuSans-2e" transform="translate(63.623047 0)"/>
       <use xlink:href="#DejaVuSans-38" transform="translate(95.410156 0)"/>
      </g>
     </g>
    </g>
    <g id="ytick_6">
     <g id="line2d_23">
      <path d="M 43.78125 39.611458 
L 849.26125 39.611458 
" clip-path="url(#pc69f2053dd)" style="fill: none; stroke: #b0b0b0; stroke-opacity: 0.3; stroke-width: 0.8; stroke-linecap: square"/>
     </g>
     <g id="line2d_24">
      <g>
       <use xlink:href="#mbfaf366ba8" x="43.78125" y="39.611458" style="stroke: #000000; stroke-width: 0.8"/>
      </g>
     </g>
     <g id="text_13">
      <!-- 1.0 -->
      <g transform="translate(20.878125 43.410677) scale(0.1 -0.1)">
       <defs>
        <path id="DejaVuSans-31" d="M 794 531 
L 1825 531 
L 1825 4091 
L 703 3866 
L 703 4441 
L 1819 4666 
L 2450 4666 
L 2450 531 
L 3481 531 
L 3481 0 
L 794 0 
L 794 531 
z
" transform="scale(0.015625)"/>
       </defs>
       <use xlink:href="#DejaVuSans-31"/>
       <use xlink:href="#DejaVuSans-2e" transform="translate(63.623047 0)"/>
       <use xlink:href="#DejaVuSans-30" transform="translate(95.410156 0)"/>
      </g>
     </g>
    </g>
    <g id="text_14">
     <!-- Score -->
     <g transform="translate(14.798438 217.900469) rotate(-90) scale(0.1 -0.1)">
      <defs>
       <path id="DejaVuSans-53" d="M 3425 4513 
L 3425 3897 
Q 3066 4069 2747 4153 
Q 2428 4238 2131 4238 
Q 1616 4238 1336 4038 
Q 1056 3838 1056 3469 
Q 1056 3159 1242 3001 
Q 1428 2844 1947 2747 
L 2328 2669 
Q 3034 2534 3370 2195 
Q 3706 1856 3706 1288 
Q 3706 609 3251 259 
Q 2797 -91 1919 -91 
Q 1588 -91 1214 -16 
Q 841 59 441 206 
L 441 856 
Q 825 641 1194 531 
Q 1563 422 1919 422 
Q 2459 422 2753 634 
Q 3047 847 3047 1241 
Q 3047 1584 2836 1778 
Q 2625 1972 2144 2069 
L 1759 2144 
Q 1053 2284 737 2584 
Q 422 2884 422 3419 
Q 422 4038 858 4394 
Q 1294 4750 2059 4750 
Q 2388 4750 2728 4690 
Q 3069 4631 3425 4513 
z
" transform="scale(0.015625)"/>
      </defs>
      <use xlink:href="#DejaVuSans-53"/>
      <use xlink:href="#DejaVuSans-63" transform="translate(63.476562 0)"/>
      <use xlink:href="#DejaVuSans-6f" transform="translate(118.457031 0)"/>
      <use xlink:href="#DejaVuSans-72" transform="translate(179.638672 0)"/>
      <use xlink:href="#DejaVuSans-65" transform="translate(218.501953 0)"/>
     </g>
    </g>
   </g>
   <g id="LineCollection_1">
    <path d="M 93.019056 45.771111 
L 93.019056 43.579393 
" clip-path="url(#pc69f2053dd)" style="fill: none; stroke: #000000; stroke-width: 1.5"/>
    <path d="M 219.269839 115.472821 
L 219.269839 111.300765 
" clip-path="url(#pc69f2053dd)" style="fill: none; stroke: #000000; stroke-width: 1.5"/>
    <path d="M 345.520623 232.36479 
L 345.520623 208.063228 
" clip-path="url(#pc69f2053dd)" style="fill: none; stroke: #000000; stroke-width: 1.5"/>
    <path d="M 471.771407 191.985092 
L 471.771407 186.554672 
" clip-path="url(#pc69f2053dd)" style="fill: none; stroke: #000000; stroke-width: 1.5"/>
    <path d="M 598.02219 290.044255 
L 598.02219 284.377338 
" clip-path="url(#pc69f2053dd)" style="fill: none; stroke: #000000; stroke-width: 1.5"/>
    <path d="M 724.272974 44.766616 
L 724.272974 43.303307 
" clip-path="url(#pc69f2053dd)" style="fill: none; stroke: #000000; stroke-width: 1.5"/>
   </g>
   <g id="line2d_25">
    <defs>
     <path id="mdb5aeae310" d="M 5 0 
L -5 -0 
" style="stroke: #000000"/>
    </defs>
    <g clip-path="url(#pc69f2053dd)">
     <use xlink:href="#mdb5aeae310" x="93.019056" y="45.771111" style="stroke: #000000"/>
     <use xlink:href="#mdb5aeae310" x="219.269839" y="115.472821" style="stroke: #000000"/>
     <use xlink:href="#mdb5aeae310" x="345.520623" y="232.36479" style="stroke: #000000"/>
     <use xlink:href="#mdb5aeae310" x="471.771407" y="191.985092" style="stroke: #000000"/>
     <use xlink:href="#mdb5aeae310" x="598.02219" y="290.044255" style="stroke: #000000"/>
     <use xlink:href="#mdb5aeae310" x="724.272974" y="44.766616" style="stroke: #000000"/>
    </g>
   </g>
   <g id="line2d_26">
    <g clip-path="url(#pc69f2053dd)">
     <use xlink:href="#mdb5aeae310" x="93.019056" y="43.579393" style="stroke: #000000"/>
     <use xlink:href="#mdb5aeae310" x="219.269839" y="111.300765" style="stroke: #000000"/>
     <use xlink:href="#mdb5aeae310" x="345.520623" y="208.063228" style="stroke: #000000"/>
     <use xlink:href="#mdb5aeae310" x="471.771407" y="186.554672" style="stroke: #000000"/>
     <use xlink:href="#mdb5aeae310" x="598.02219" y="284.377338" style="stroke: #000000"/>
     <use xlink:href="#mdb5aeae310" x="724.272974" y="43.303307" style="stroke: #000000"/>
    </g>
   </g>
   <g id="patch_27">
    <path d="M 43.78125 385.478125 
L 43.78125 22.318125 
" style="fill: none; stroke: #000000; stroke-width: 0.8; stroke-linejoin: miter; stroke-linecap: square"/>
   </g>
   <g id="patch_28">
    <path d="M 849.26125 385.478125 
L 849.26125 22.318125 
" style="fill: none; stroke: #000000; stroke-width: 0.8; stroke-linejoin: miter; stroke-linecap: square"/>
   </g>
   <g id="patch_29">
    <path d="M 43.78125 385.478125 
L 849.26125 385.478125 
" style="fill: none; stroke: #000000; stroke-width: 0.8; stroke-linejoin: miter; stroke-linecap: square"/>
   </g>
   <g id="patch_30">
    <path d="M 43.78125 22.318125 
L 849.26125 22.318125 
" style="fill: none; stroke: #000000; stroke-width: 0.8; stroke-linejoin: miter; stroke-linecap: square"/>
   </g>
   <g id="text_15">
    <!-- Classification Performance Comparison -->
    <g transform="translate(329.065625 16.318125) scale(0.12 -0.12)">
     <defs>
      <path id="DejaVuSans-43" d="M 4122 4306 
L 4122 3641 
Q 3803 3938 3442 4084 
Q 3081 4231 2675 4231 
Q 1875 4231 1450 3742 
Q 1025 3253 1025 2328 
Q 1025 1406 1450 917 
Q 1875 428 2675 428 
Q 3081 428 3442 575 
Q 3803 722 4122 1019 
L 4122 359 
Q 3791 134 3420 21 
Q 3050 -91 2638 -91 
Q 1578 -91 968 557 
Q 359 1206 359 2328 
Q 359 3453 968 4101 
Q 1578 4750 2638 4750 
Q 3056 4750 3426 4639 
Q 3797 4528 4122 4306 
z
" transform="scale(0.015625)"/>
      <path id="DejaVuSans-66" d="M 2375 4863 
L 2375 4384 
L 1825 4384 
Q 1516 4384 1395 4259 
Q 1275 4134 1275 3809 
L 1275 3500 
L 2222 3500 
L 2222 3053 
L 1275 3053 
L 1275 0 
L 697 0 
L 697 3053 
L 147 3053 
L 147 3500 
L 697 3500 
L 697 3744 
Q 697 4328 969 4595 
Q 1241 4863 1831 4863 
L 2375 4863 
z
" transform="scale(0.015625)"/>
      <path id="DejaVuSans-20" transform="scale(0.015625)"/>
      <path id="DejaVuSans-50" d="M 1259 4147 
L 1259 2394 
L 2053 2394 
Q 2494 2394 2734 2622 
Q 2975 2850 2975 3272 
Q 2975 3691 2734 3919 
Q 2494 4147 2053 4147 
L 1259 4147 
z
M 628 4666 
L 2053 4666 
Q 2838 4666 3239 4311 
Q 3641 3956 3641 3272 
Q 3641 2581 3239 2228 
Q 2838 1875 2053 1875 
L 1259 1875 
L 1259 0 
L 628 0 
L 628 4666 
z
" transform="scale(0.015625)"/>
     </defs>
     <use xlink:href="#DejaVuSans-43"/>
     <use xlink:href="#DejaVuSans-6c" transform="translate(69.824219 0)"/>
     <use xlink:href="#DejaVuSans-61" transform="translate(97.607422 0)"/>
     <use xlink:href="#DejaVuSans-73" transform="translate(158.886719 0)"/>
     <use xlink:href="#DejaVuSans-73" transform="translate(210.986328 0)"/>
     <use xlink:href="#DejaVuSans-69" transform="translate(263.085938 0)"/>
     <use xlink:href="#DejaVuSans-66" transform="translate(290.869141 0)"/>
     <use xlink:href="#DejaVuSans-69" transform="translate(326.074219 0)"/>
     <use xlink:href="#DejaVuSans-63" transform="translate(353.857422 0)"/>
     <use xlink:href="#DejaVuSans-61" transform="translate(408.837891 0)"/>
     <use xlink:href="#DejaVuSans-74" transform="translate(470.117188 0)"/>
     <use xlink:href="#DejaVuSans-69" transform="translate(509.326172 0)"/>
     <use xlink:href="#DejaVuSans-6f" transform="translate(537.109375 0)"/>
     <use xlink:href="#DejaVuSans-6e" transform="translate(598.291016 0)"/>
     <use xlink:href="#DejaVuSans-20" transform="translate(661.669922 0)"/>
     <use xlink:href="#DejaVuSans-50" transform="translate(693.457031 0)"/>
     <use xlink:href="#DejaVuSans-65" transform="translate(750.134766 0)"/>
     <use xlink:href="#DejaVuSans-72" transform="translate(811.658203 0)"/>
     <use xlink:href="#DejaVuSans-66" transform="translate(852.771484 0)"/>
     <use xlink:href="#DejaVuSans-6f" transform="translate(887.976562 0)"/>
     <use xlink:href="#DejaVuSans-72" transform="translate(949.158203 0)"/>
     <use xlink:href="#DejaVuSans-6d" transform="translate(988.521484 0)"/>
     <use xlink:href="#DejaVuSans-61" transform="translate(1085.933594 0)"/>
     <use xlink:href="#DejaVuSans-6e" transform="translate(1147.212891 0)"/>
     <use xlink:href="#DejaVuSans-63" transform="translate(1210.591797 0)"/>
     <use xlink:href="#DejaVuSans-65" transform="translate(1265.572266 0)"/>
     <use xlink:href="#DejaVuSans-20" transform="translate(1327.095703 0)"/>
     <use xlink:href="#DejaVuSans-43" transform="translate(1358.882812 0)"/>
     <use xlink:href="#DejaVuSans-6f" transform="translate(1428.707031 0)"/>
     <use xlink:href="#DejaVuSans-6d" transform="translate(1489.888672 0)"/>
     <use xlink:href="#DejaVuSans-70" transform="translate(1587.300781 0)"/>
     <use xlink:href="#DejaVuSans-61" transform="translate(1650.777344 0)"/>
     <use xlink:href="#DejaVuSans-72" transform="translate(1712.056641 0)"/>
     <use xlink:href="#DejaVuSans-69" transform="translate(1753.169922 0)"/>
     <use xlink:href="#DejaVuSans-73" transform="translate(1780.953125 0)"/>
     <use xlink:href="#DejaVuSans-6f" transform="translate(1833.052734 0)"/>
     <use xlink:href="#DejaVuSans-6e" transform="translate(1894.234375 0)"/>
    </g>
   </g>
   <g id="legend_1">
    <g id="patch_31">
     <path d="M 764.605 380.478125 
L 842.26125 380.478125 
Q 844.26125 380.478125 844.26125 378.478125 
L 844.26125 320.765625 
Q 844.26125 318.765625 842.26125 318.765625 
L 764.605 318.765625 
Q 762.605 318.765625 762.605 320.765625 
L 762.605 378.478125 
Q 762.605 380.478125 764.605 380.478125 
z
" style="fill: #ffffff; opacity: 0.8; stroke: #cccccc; stroke-linejoin: miter"/>
    </g>
    <g id="patch_32">
     <path d="M 766.605 330.364062 
L 786.605 330.364062 
L 786.605 323.364062 
L 766.605 323.364062 
z
" style="fill: #1f77b4"/>
    </g>
    <g id="text_16">
     <!-- Accuracy -->
     <g transform="translate(794.605 330.364062) scale(0.1 -0.1)">
      <defs>
       <path id="DejaVuSans-41" d="M 2188 4044 
L 1331 1722 
L 3047 1722 
L 2188 4044 
z
M 1831 4666 
L 2547 4666 
L 4325 0 
L 3669 0 
L 3244 1197 
L 1141 1197 
L 716 0 
L 50 0 
L 1831 4666 
z
" transform="scale(0.015625)"/>
      </defs>
      <use xlink:href="#DejaVuSans-41"/>
      <use xlink:href="#DejaVuSans-63" transform="translate(66.658203 0)"/>
      <use xlink:href="#DejaVuSans-63" transform="translate(121.638672 0)"/>
      <use xlink:href="#DejaVuSans-75" transform="translate(176.619141 0)"/>
      <use xlink:href="#DejaVuSans-72" transform="translate(239.998047 0)"/>
      <use xlink:href="#DejaVuSans-61" transform="translate(281.111328 0)"/>
      <use xlink:href="#DejaVuSans-63" transform="translate(342.390625 0)"/>
      <use xlink:href="#DejaVuSans-79" transform="translate(397.371094 0)"/>
     </g>
    </g>
    <g id="patch_33">
     <path d="M 766.605 345.042187 
L 786.605 345.042187 
L 786.605 338.042187 
L 766.605 338.042187 
z
" style="fill: #ff7f0e"/>
    </g>
    <g id="text_17">
     <!-- F1-Score -->
     <g transform="translate(794.605 345.042187) scale(0.1 -0.1)">
      <defs>
       <path id="DejaVuSans-46" d="M 628 4666 
L 3309 4666 
L 3309 4134 
L 1259 4134 
L 1259 2759 
L 3109 2759 
L 3109 2228 
L 1259 2228 
L 1259 0 
L 628 0 
L 628 4666 
z
" transform="scale(0.015625)"/>
       <path id="DejaVuSans-2d" d="M 313 2009 
L 1997 2009 
L 1997 1497 
L 313 1497 
L 313 2009 
z
" transform="scale(0.015625)"/>
      </defs>
      <use xlink:href="#DejaVuSans-46"/>
      <use xlink:href="#DejaVuSans-31" transform="translate(57.519531 0)"/>
      <use xlink:href="#DejaVuSans-2d" transform="translate(121.142578 0)"/>
      <use xlink:href="#DejaVuSans-53" transform="translate(157.226562 0)"/>
      <use xlink:href="#DejaVuSans-63" transform="translate(220.703125 0)"/>
      <use xlink:href="#DejaVuSans-6f" transform="translate(275.683594 0)"/>
      <use xlink:href="#DejaVuSans-72" transform="translate(336.865234 0)"/>
      <use xlink:href="#DejaVuSans-65" transform="translate(375.728516 0)"/>
     </g>
    </g>
    <g id="patch_34">
     <path d="M 766.605 359.720312 
L 786.605 359.720312 
L 786.605 352.720312 
L 766.605 352.720312 
z
" style="fill: #2ca02c"/>
    </g>
    <g id="text_18">
     <!-- Precision -->
     <g transform="translate(794.605 359.720312) scale(0.1 -0.1)">
      <use xlink:href="#DejaVuSans-50"/>
      <use xlink:href="#DejaVuSans-72" transform="translate(58.552734 0)"/>
      <use xlink:href="#DejaVuSans-65" transform="translate(97.416016 0)"/>
      <use xlink:href="#DejaVuSans-63" transform="translate(158.939453 0)"/>
      <use xlink:href="#DejaVuSans-69" transform="translate(213.919922 0)"/>
      <use xlink:href="#DejaVuSans-73" transform="translate(241.703125 0)"/>
      <use xlink:href="#DejaVuSans-69" transform="translate(293.802734 0)"/>
      <use xlink:href="#DejaVuSans-6f" transform="translate(321.585938 0)"/>
      <use xlink:href="#DejaVuSans-6e" transform="translate(382.767578 0)"/>
     </g>
    </g>
    <g id="patch_35">
     <path d="M 766.605 374.398437 
L 786.605 374.398437 
L 786.605 367.398437 
L 766.605 367.398437 
z
" style="fill: #d62728"/>
    </g>
    <g id="text_19">
     <!-- Recall -->
     <g transform="translate(794.605 374.398437) scale(0.1 -0.1)">
      <defs>
       <path id="DejaVuSans-52" d="M 2841 2188 
Q 3044 2119 3236 1894 
Q 3428 1669 3622 1275 
L 4263 0 
L 3584 0 
L 2988 1197 
Q 2756 1666 2539 1819 
Q 2322 1972 1947 1972 
L 1259 1972 
L 1259 0 
L 628 0 
L 628 4666 
L 2053 4666 
Q 2853 4666 3247 4331 
Q 3641 3997 3641 3322 
Q 3641 2881 3436 2590 
Q 3231 2300 2841 2188 
z
M 1259 4147 
L 1259 2491 
L 2053 2491 
Q 2509 2491 2742 2702 
Q 2975 2913 2975 3322 
Q 2975 3731 2742 3939 
Q 2509 4147 2053 4147 
L 1259 4147 
z
" transform="scale(0.015625)"/>
      </defs>
      <use xlink:href="#DejaVuSans-52"/>
      <use xlink:href="#DejaVuSans-65" transform="translate(64.982422 0)"/>
      <use xlink:href="#DejaVuSans-63" transform="translate(126.505859 0)"/>
      <use xlink:href="#DejaVuSans-61" transform="translate(181.486328 0)"/>
      <use xlink:href="#DejaVuSans-6c" transform="translate(242.765625 0)"/>
      <use xlink:href="#DejaVuSans-6c" transform="translate(270.548828 0)"/>
     </g>
    </g>
   </g>
  </g>
 </g>
 <defs>
  <clipPath id="pc69f2053dd">
   <rect x="43.78125" y="22.318125" width="805.48" height="363.16"/>
  </clipPath>
 </defs>
</svg>
