<?xml version="1.0" encoding="utf-8" standalone="no"?>
<!DOCTYPE svg PUBLIC "-//W3C//DTD SVG 1.1//EN"
  "http://www.w3.org/Graphics/SVG/1.1/DTD/svg11.dtd">
<svg xmlns:xlink="http://www.w3.org/1999/xlink" width="711.42625pt" height="422.889687pt" viewBox="0 0 711.42625 422.889687" xmlns="http://www.w3.org/2000/svg" version="1.1">
 <metadata>
  <rdf:RDF xmlns:dc="http://purl.org/dc/elements/1.1/" xmlns:cc="http://creativecommons.org/ns#" xmlns:rdf="http://www.w3.org/1999/02/22-rdf-syntax-ns#">
   <cc:Work>
    <dc:type rdf:resource="http://purl.org/dc/dcmitype/StillImage"/>
    <dc:date>2025-04-03T13:02:12.954987</dc:date>
    <dc:format>image/svg+xml</dc:format>
    <dc:creator>
     <cc:Agent>
      <dc:title>Matplotlib v3.10.0, https://matplotlib.org/</dc:title>
     </cc:Agent>
    </dc:creator>
   </cc:Work>
  </rdf:RDF>
 </metadata>
 <defs>
  <style type="text/css">*{stroke-linejoin: round; stroke-linecap: butt}</style>
 </defs>
 <g id="figure_1">
  <g id="patch_1">
   <path d="M 0 422.889687 
L 711.42625 422.889687 
L 711.42625 0 
L 0 0 
z
" style="fill: #ffffff"/>
  </g>
  <g id="axes_1">
   <g id="patch_2">
    <path d="M 36.17625 383.397812 
L 704.22625 383.397812 
L 704.22625 23.837812 
L 36.17625 23.837812 
z
" style="fill: #ffffff"/>
   </g>
   <g id="matplotlib.axis_1">
    <g id="xtick_1">
     <g id="line2d_1">
      <path d="M 60.98479 383.397812 
L 60.98479 23.837812 
" clip-path="url(#p49c744f603)" style="fill: none; stroke: #b0b0b0; stroke-opacity: 0.3; stroke-width: 0.8; stroke-linecap: square"/>
     </g>
     <g id="line2d_2">
      <defs>
       <path id="mcd93b3eced" d="M 0 0 
L 0 3.5 
" style="stroke: #000000; stroke-width: 0.8"/>
      </defs>
      <g>
       <use xlink:href="#mcd93b3eced" x="60.98479" y="383.397812" style="stroke: #000000; stroke-width: 0.8"/>
      </g>
     </g>
     <g id="text_1">
      <!-- −0.2 -->
      <g transform="translate(48.843384 397.99625) scale(0.1 -0.1)">
       <defs>
        <path id="DejaVuSans-2212" d="M 678 2272 
L 4684 2272 
L 4684 1741 
L 678 1741 
L 678 2272 
z
" transform="scale(0.015625)"/>
        <path id="DejaVuSans-30" d="M 2034 4250 
Q 1547 4250 1301 3770 
Q 1056 3291 1056 2328 
Q 1056 1369 1301 889 
Q 1547 409 2034 409 
Q 2525 409 2770 889 
Q 3016 1369 3016 2328 
Q 3016 3291 2770 3770 
Q 2525 4250 2034 4250 
z
M 2034 4750 
Q 2819 4750 3233 4129 
Q 3647 3509 3647 2328 
Q 3647 1150 3233 529 
Q 2819 -91 2034 -91 
Q 1250 -91 836 529 
Q 422 1150 422 2328 
Q 422 3509 836 4129 
Q 1250 4750 2034 4750 
z
" transform="scale(0.015625)"/>
        <path id="DejaVuSans-2e" d="M 684 794 
L 1344 794 
L 1344 0 
L 684 0 
L 684 794 
z
" transform="scale(0.015625)"/>
        <path id="DejaVuSans-32" d="M 1228 531 
L 3431 531 
L 3431 0 
L 469 0 
L 469 531 
Q 828 903 1448 1529 
Q 2069 2156 2228 2338 
Q 2531 2678 2651 2914 
Q 2772 3150 2772 3378 
Q 2772 3750 2511 3984 
Q 2250 4219 1831 4219 
Q 1534 4219 1204 4116 
Q 875 4013 500 3803 
L 500 4441 
Q 881 4594 1212 4672 
Q 1544 4750 1819 4750 
Q 2544 4750 2975 4387 
Q 3406 4025 3406 3419 
Q 3406 3131 3298 2873 
Q 3191 2616 2906 2266 
Q 2828 2175 2409 1742 
Q 1991 1309 1228 531 
z
" transform="scale(0.015625)"/>
       </defs>
       <use xlink:href="#DejaVuSans-2212"/>
       <use xlink:href="#DejaVuSans-30" transform="translate(83.789062 0)"/>
       <use xlink:href="#DejaVuSans-2e" transform="translate(147.412109 0)"/>
       <use xlink:href="#DejaVuSans-32" transform="translate(179.199219 0)"/>
      </g>
     </g>
    </g>
    <g id="xtick_2">
     <g id="line2d_3">
      <path d="M 164.625443 383.397812 
L 164.625443 23.837812 
" clip-path="url(#p49c744f603)" style="fill: none; stroke: #b0b0b0; stroke-opacity: 0.3; stroke-width: 0.8; stroke-linecap: square"/>
     </g>
     <g id="line2d_4">
      <g>
       <use xlink:href="#mcd93b3eced" x="164.625443" y="383.397812" style="stroke: #000000; stroke-width: 0.8"/>
      </g>
     </g>
     <g id="text_2">
      <!-- −0.1 -->
      <g transform="translate(152.484037 397.99625) scale(0.1 -0.1)">
       <defs>
        <path id="DejaVuSans-31" d="M 794 531 
L 1825 531 
L 1825 4091 
L 703 3866 
L 703 4441 
L 1819 4666 
L 2450 4666 
L 2450 531 
L 3481 531 
L 3481 0 
L 794 0 
L 794 531 
z
" transform="scale(0.015625)"/>
       </defs>
       <use xlink:href="#DejaVuSans-2212"/>
       <use xlink:href="#DejaVuSans-30" transform="translate(83.789062 0)"/>
       <use xlink:href="#DejaVuSans-2e" transform="translate(147.412109 0)"/>
       <use xlink:href="#DejaVuSans-31" transform="translate(179.199219 0)"/>
      </g>
     </g>
    </g>
    <g id="xtick_3">
     <g id="line2d_5">
      <path d="M 268.266095 383.397812 
L 268.266095 23.837812 
" clip-path="url(#p49c744f603)" style="fill: none; stroke: #b0b0b0; stroke-opacity: 0.3; stroke-width: 0.8; stroke-linecap: square"/>
     </g>
     <g id="line2d_6">
      <g>
       <use xlink:href="#mcd93b3eced" x="268.266095" y="383.397812" style="stroke: #000000; stroke-width: 0.8"/>
      </g>
     </g>
     <g id="text_3">
      <!-- 0.0 -->
      <g transform="translate(260.314533 397.99625) scale(0.1 -0.1)">
       <use xlink:href="#DejaVuSans-30"/>
       <use xlink:href="#DejaVuSans-2e" transform="translate(63.623047 0)"/>
       <use xlink:href="#DejaVuSans-30" transform="translate(95.410156 0)"/>
      </g>
     </g>
    </g>
    <g id="xtick_4">
     <g id="line2d_7">
      <path d="M 371.906748 383.397812 
L 371.906748 23.837812 
" clip-path="url(#p49c744f603)" style="fill: none; stroke: #b0b0b0; stroke-opacity: 0.3; stroke-width: 0.8; stroke-linecap: square"/>
     </g>
     <g id="line2d_8">
      <g>
       <use xlink:href="#mcd93b3eced" x="371.906748" y="383.397812" style="stroke: #000000; stroke-width: 0.8"/>
      </g>
     </g>
     <g id="text_4">
      <!-- 0.1 -->
      <g transform="translate(363.955186 397.99625) scale(0.1 -0.1)">
       <use xlink:href="#DejaVuSans-30"/>
       <use xlink:href="#DejaVuSans-2e" transform="translate(63.623047 0)"/>
       <use xlink:href="#DejaVuSans-31" transform="translate(95.410156 0)"/>
      </g>
     </g>
    </g>
    <g id="xtick_5">
     <g id="line2d_9">
      <path d="M 475.547401 383.397812 
L 475.547401 23.837812 
" clip-path="url(#p49c744f603)" style="fill: none; stroke: #b0b0b0; stroke-opacity: 0.3; stroke-width: 0.8; stroke-linecap: square"/>
     </g>
     <g id="line2d_10">
      <g>
       <use xlink:href="#mcd93b3eced" x="475.547401" y="383.397812" style="stroke: #000000; stroke-width: 0.8"/>
      </g>
     </g>
     <g id="text_5">
      <!-- 0.2 -->
      <g transform="translate(467.595838 397.99625) scale(0.1 -0.1)">
       <use xlink:href="#DejaVuSans-30"/>
       <use xlink:href="#DejaVuSans-2e" transform="translate(63.623047 0)"/>
       <use xlink:href="#DejaVuSans-32" transform="translate(95.410156 0)"/>
      </g>
     </g>
    </g>
    <g id="xtick_6">
     <g id="line2d_11">
      <path d="M 579.188054 383.397812 
L 579.188054 23.837812 
" clip-path="url(#p49c744f603)" style="fill: none; stroke: #b0b0b0; stroke-opacity: 0.3; stroke-width: 0.8; stroke-linecap: square"/>
     </g>
     <g id="line2d_12">
      <g>
       <use xlink:href="#mcd93b3eced" x="579.188054" y="383.397812" style="stroke: #000000; stroke-width: 0.8"/>
      </g>
     </g>
     <g id="text_6">
      <!-- 0.3 -->
      <g transform="translate(571.236491 397.99625) scale(0.1 -0.1)">
       <defs>
        <path id="DejaVuSans-33" d="M 2597 2516 
Q 3050 2419 3304 2112 
Q 3559 1806 3559 1356 
Q 3559 666 3084 287 
Q 2609 -91 1734 -91 
Q 1441 -91 1130 -33 
Q 819 25 488 141 
L 488 750 
Q 750 597 1062 519 
Q 1375 441 1716 441 
Q 2309 441 2620 675 
Q 2931 909 2931 1356 
Q 2931 1769 2642 2001 
Q 2353 2234 1838 2234 
L 1294 2234 
L 1294 2753 
L 1863 2753 
Q 2328 2753 2575 2939 
Q 2822 3125 2822 3475 
Q 2822 3834 2567 4026 
Q 2313 4219 1838 4219 
Q 1578 4219 1281 4162 
Q 984 4106 628 3988 
L 628 4550 
Q 988 4650 1302 4700 
Q 1616 4750 1894 4750 
Q 2613 4750 3031 4423 
Q 3450 4097 3450 3541 
Q 3450 3153 3228 2886 
Q 3006 2619 2597 2516 
z
" transform="scale(0.015625)"/>
       </defs>
       <use xlink:href="#DejaVuSans-30"/>
       <use xlink:href="#DejaVuSans-2e" transform="translate(63.623047 0)"/>
       <use xlink:href="#DejaVuSans-33" transform="translate(95.410156 0)"/>
      </g>
     </g>
    </g>
    <g id="xtick_7">
     <g id="line2d_13">
      <path d="M 682.828706 383.397812 
L 682.828706 23.837812 
" clip-path="url(#p49c744f603)" style="fill: none; stroke: #b0b0b0; stroke-opacity: 0.3; stroke-width: 0.8; stroke-linecap: square"/>
     </g>
     <g id="line2d_14">
      <g>
       <use xlink:href="#mcd93b3eced" x="682.828706" y="383.397812" style="stroke: #000000; stroke-width: 0.8"/>
      </g>
     </g>
     <g id="text_7">
      <!-- 0.4 -->
      <g transform="translate(674.877144 397.99625) scale(0.1 -0.1)">
       <defs>
        <path id="DejaVuSans-34" d="M 2419 4116 
L 825 1625 
L 2419 1625 
L 2419 4116 
z
M 2253 4666 
L 3047 4666 
L 3047 1625 
L 3713 1625 
L 3713 1100 
L 3047 1100 
L 3047 0 
L 2419 0 
L 2419 1100 
L 313 1100 
L 313 1709 
L 2253 4666 
z
" transform="scale(0.015625)"/>
       </defs>
       <use xlink:href="#DejaVuSans-30"/>
       <use xlink:href="#DejaVuSans-2e" transform="translate(63.623047 0)"/>
       <use xlink:href="#DejaVuSans-34" transform="translate(95.410156 0)"/>
      </g>
     </g>
    </g>
    <g id="text_8">
     <!-- Difference in C-index (Multimodal - Other) -->
     <g transform="translate(244.19 413.194062) scale(0.12 -0.12)">
      <defs>
       <path id="DejaVuSans-44" d="M 1259 4147 
L 1259 519 
L 2022 519 
Q 2988 519 3436 956 
Q 3884 1394 3884 2338 
Q 3884 3275 3436 3711 
Q 2988 4147 2022 4147 
L 1259 4147 
z
M 628 4666 
L 1925 4666 
Q 3281 4666 3915 4102 
Q 4550 3538 4550 2338 
Q 4550 1131 3912 565 
Q 3275 0 1925 0 
L 628 0 
L 628 4666 
z
" transform="scale(0.015625)"/>
       <path id="DejaVuSans-69" d="M 603 3500 
L 1178 3500 
L 1178 0 
L 603 0 
L 603 3500 
z
M 603 4863 
L 1178 4863 
L 1178 4134 
L 603 4134 
L 603 4863 
z
" transform="scale(0.015625)"/>
       <path id="DejaVuSans-66" d="M 2375 4863 
L 2375 4384 
L 1825 4384 
Q 1516 4384 1395 4259 
Q 1275 4134 1275 3809 
L 1275 3500 
L 2222 3500 
L 2222 3053 
L 1275 3053 
L 1275 0 
L 697 0 
L 697 3053 
L 147 3053 
L 147 3500 
L 697 3500 
L 697 3744 
Q 697 4328 969 4595 
Q 1241 4863 1831 4863 
L 2375 4863 
z
" transform="scale(0.015625)"/>
       <path id="DejaVuSans-65" d="M 3597 1894 
L 3597 1613 
L 953 1613 
Q 991 1019 1311 708 
Q 1631 397 2203 397 
Q 2534 397 2845 478 
Q 3156 559 3463 722 
L 3463 178 
Q 3153 47 2828 -22 
Q 2503 -91 2169 -91 
Q 1331 -91 842 396 
Q 353 884 353 1716 
Q 353 2575 817 3079 
Q 1281 3584 2069 3584 
Q 2775 3584 3186 3129 
Q 3597 2675 3597 1894 
z
M 3022 2063 
Q 3016 2534 2758 2815 
Q 2500 3097 2075 3097 
Q 1594 3097 1305 2825 
Q 1016 2553 972 2059 
L 3022 2063 
z
" transform="scale(0.015625)"/>
       <path id="DejaVuSans-72" d="M 2631 2963 
Q 2534 3019 2420 3045 
Q 2306 3072 2169 3072 
Q 1681 3072 1420 2755 
Q 1159 2438 1159 1844 
L 1159 0 
L 581 0 
L 581 3500 
L 1159 3500 
L 1159 2956 
Q 1341 3275 1631 3429 
Q 1922 3584 2338 3584 
Q 2397 3584 2469 3576 
Q 2541 3569 2628 3553 
L 2631 2963 
z
" transform="scale(0.015625)"/>
       <path id="DejaVuSans-6e" d="M 3513 2113 
L 3513 0 
L 2938 0 
L 2938 2094 
Q 2938 2591 2744 2837 
Q 2550 3084 2163 3084 
Q 1697 3084 1428 2787 
Q 1159 2491 1159 1978 
L 1159 0 
L 581 0 
L 581 3500 
L 1159 3500 
L 1159 2956 
Q 1366 3272 1645 3428 
Q 1925 3584 2291 3584 
Q 2894 3584 3203 3211 
Q 3513 2838 3513 2113 
z
" transform="scale(0.015625)"/>
       <path id="DejaVuSans-63" d="M 3122 3366 
L 3122 2828 
Q 2878 2963 2633 3030 
Q 2388 3097 2138 3097 
Q 1578 3097 1268 2742 
Q 959 2388 959 1747 
Q 959 1106 1268 751 
Q 1578 397 2138 397 
Q 2388 397 2633 464 
Q 2878 531 3122 666 
L 3122 134 
Q 2881 22 2623 -34 
Q 2366 -91 2075 -91 
Q 1284 -91 818 406 
Q 353 903 353 1747 
Q 353 2603 823 3093 
Q 1294 3584 2113 3584 
Q 2378 3584 2631 3529 
Q 2884 3475 3122 3366 
z
" transform="scale(0.015625)"/>
       <path id="DejaVuSans-20" transform="scale(0.015625)"/>
       <path id="DejaVuSans-43" d="M 4122 4306 
L 4122 3641 
Q 3803 3938 3442 4084 
Q 3081 4231 2675 4231 
Q 1875 4231 1450 3742 
Q 1025 3253 1025 2328 
Q 1025 1406 1450 917 
Q 1875 428 2675 428 
Q 3081 428 3442 575 
Q 3803 722 4122 1019 
L 4122 359 
Q 3791 134 3420 21 
Q 3050 -91 2638 -91 
Q 1578 -91 968 557 
Q 359 1206 359 2328 
Q 359 3453 968 4101 
Q 1578 4750 2638 4750 
Q 3056 4750 3426 4639 
Q 3797 4528 4122 4306 
z
" transform="scale(0.015625)"/>
       <path id="DejaVuSans-2d" d="M 313 2009 
L 1997 2009 
L 1997 1497 
L 313 1497 
L 313 2009 
z
" transform="scale(0.015625)"/>
       <path id="DejaVuSans-64" d="M 2906 2969 
L 2906 4863 
L 3481 4863 
L 3481 0 
L 2906 0 
L 2906 525 
Q 2725 213 2448 61 
Q 2172 -91 1784 -91 
Q 1150 -91 751 415 
Q 353 922 353 1747 
Q 353 2572 751 3078 
Q 1150 3584 1784 3584 
Q 2172 3584 2448 3432 
Q 2725 3281 2906 2969 
z
M 947 1747 
Q 947 1113 1208 752 
Q 1469 391 1925 391 
Q 2381 391 2643 752 
Q 2906 1113 2906 1747 
Q 2906 2381 2643 2742 
Q 2381 3103 1925 3103 
Q 1469 3103 1208 2742 
Q 947 2381 947 1747 
z
" transform="scale(0.015625)"/>
       <path id="DejaVuSans-78" d="M 3513 3500 
L 2247 1797 
L 3578 0 
L 2900 0 
L 1881 1375 
L 863 0 
L 184 0 
L 1544 1831 
L 300 3500 
L 978 3500 
L 1906 2253 
L 2834 3500 
L 3513 3500 
z
" transform="scale(0.015625)"/>
       <path id="DejaVuSans-28" d="M 1984 4856 
Q 1566 4138 1362 3434 
Q 1159 2731 1159 2009 
Q 1159 1288 1364 580 
Q 1569 -128 1984 -844 
L 1484 -844 
Q 1016 -109 783 600 
Q 550 1309 550 2009 
Q 550 2706 781 3412 
Q 1013 4119 1484 4856 
L 1984 4856 
z
" transform="scale(0.015625)"/>
       <path id="DejaVuSans-4d" d="M 628 4666 
L 1569 4666 
L 2759 1491 
L 3956 4666 
L 4897 4666 
L 4897 0 
L 4281 0 
L 4281 4097 
L 3078 897 
L 2444 897 
L 1241 4097 
L 1241 0 
L 628 0 
L 628 4666 
z
" transform="scale(0.015625)"/>
       <path id="DejaVuSans-75" d="M 544 1381 
L 544 3500 
L 1119 3500 
L 1119 1403 
Q 1119 906 1312 657 
Q 1506 409 1894 409 
Q 2359 409 2629 706 
Q 2900 1003 2900 1516 
L 2900 3500 
L 3475 3500 
L 3475 0 
L 2900 0 
L 2900 538 
Q 2691 219 2414 64 
Q 2138 -91 1772 -91 
Q 1169 -91 856 284 
Q 544 659 544 1381 
z
M 1991 3584 
L 1991 3584 
z
" transform="scale(0.015625)"/>
       <path id="DejaVuSans-6c" d="M 603 4863 
L 1178 4863 
L 1178 0 
L 603 0 
L 603 4863 
z
" transform="scale(0.015625)"/>
       <path id="DejaVuSans-74" d="M 1172 4494 
L 1172 3500 
L 2356 3500 
L 2356 3053 
L 1172 3053 
L 1172 1153 
Q 1172 725 1289 603 
Q 1406 481 1766 481 
L 2356 481 
L 2356 0 
L 1766 0 
Q 1100 0 847 248 
Q 594 497 594 1153 
L 594 3053 
L 172 3053 
L 172 3500 
L 594 3500 
L 594 4494 
L 1172 4494 
z
" transform="scale(0.015625)"/>
       <path id="DejaVuSans-6d" d="M 3328 2828 
Q 3544 3216 3844 3400 
Q 4144 3584 4550 3584 
Q 5097 3584 5394 3201 
Q 5691 2819 5691 2113 
L 5691 0 
L 5113 0 
L 5113 2094 
Q 5113 2597 4934 2840 
Q 4756 3084 4391 3084 
Q 3944 3084 3684 2787 
Q 3425 2491 3425 1978 
L 3425 0 
L 2847 0 
L 2847 2094 
Q 2847 2600 2669 2842 
Q 2491 3084 2119 3084 
Q 1678 3084 1418 2786 
Q 1159 2488 1159 1978 
L 1159 0 
L 581 0 
L 581 3500 
L 1159 3500 
L 1159 2956 
Q 1356 3278 1631 3431 
Q 1906 3584 2284 3584 
Q 2666 3584 2933 3390 
Q 3200 3197 3328 2828 
z
" transform="scale(0.015625)"/>
       <path id="DejaVuSans-6f" d="M 1959 3097 
Q 1497 3097 1228 2736 
Q 959 2375 959 1747 
Q 959 1119 1226 758 
Q 1494 397 1959 397 
Q 2419 397 2687 759 
Q 2956 1122 2956 1747 
Q 2956 2369 2687 2733 
Q 2419 3097 1959 3097 
z
M 1959 3584 
Q 2709 3584 3137 3096 
Q 3566 2609 3566 1747 
Q 3566 888 3137 398 
Q 2709 -91 1959 -91 
Q 1206 -91 779 398 
Q 353 888 353 1747 
Q 353 2609 779 3096 
Q 1206 3584 1959 3584 
z
" transform="scale(0.015625)"/>
       <path id="DejaVuSans-61" d="M 2194 1759 
Q 1497 1759 1228 1600 
Q 959 1441 959 1056 
Q 959 750 1161 570 
Q 1363 391 1709 391 
Q 2188 391 2477 730 
Q 2766 1069 2766 1631 
L 2766 1759 
L 2194 1759 
z
M 3341 1997 
L 3341 0 
L 2766 0 
L 2766 531 
Q 2569 213 2275 61 
Q 1981 -91 1556 -91 
Q 1019 -91 701 211 
Q 384 513 384 1019 
Q 384 1609 779 1909 
Q 1175 2209 1959 2209 
L 2766 2209 
L 2766 2266 
Q 2766 2663 2505 2880 
Q 2244 3097 1772 3097 
Q 1472 3097 1187 3025 
Q 903 2953 641 2809 
L 641 3341 
Q 956 3463 1253 3523 
Q 1550 3584 1831 3584 
Q 2591 3584 2966 3190 
Q 3341 2797 3341 1997 
z
" transform="scale(0.015625)"/>
       <path id="DejaVuSans-4f" d="M 2522 4238 
Q 1834 4238 1429 3725 
Q 1025 3213 1025 2328 
Q 1025 1447 1429 934 
Q 1834 422 2522 422 
Q 3209 422 3611 934 
Q 4013 1447 4013 2328 
Q 4013 3213 3611 3725 
Q 3209 4238 2522 4238 
z
M 2522 4750 
Q 3503 4750 4090 4092 
Q 4678 3434 4678 2328 
Q 4678 1225 4090 567 
Q 3503 -91 2522 -91 
Q 1538 -91 948 565 
Q 359 1222 359 2328 
Q 359 3434 948 4092 
Q 1538 4750 2522 4750 
z
" transform="scale(0.015625)"/>
       <path id="DejaVuSans-68" d="M 3513 2113 
L 3513 0 
L 2938 0 
L 2938 2094 
Q 2938 2591 2744 2837 
Q 2550 3084 2163 3084 
Q 1697 3084 1428 2787 
Q 1159 2491 1159 1978 
L 1159 0 
L 581 0 
L 581 4863 
L 1159 4863 
L 1159 2956 
Q 1366 3272 1645 3428 
Q 1925 3584 2291 3584 
Q 2894 3584 3203 3211 
Q 3513 2838 3513 2113 
z
" transform="scale(0.015625)"/>
       <path id="DejaVuSans-29" d="M 513 4856 
L 1013 4856 
Q 1481 4119 1714 3412 
Q 1947 2706 1947 2009 
Q 1947 1309 1714 600 
Q 1481 -109 1013 -844 
L 513 -844 
Q 928 -128 1133 580 
Q 1338 1288 1338 2009 
Q 1338 2731 1133 3434 
Q 928 4138 513 4856 
z
" transform="scale(0.015625)"/>
      </defs>
      <use xlink:href="#DejaVuSans-44"/>
      <use xlink:href="#DejaVuSans-69" transform="translate(77.001953 0)"/>
      <use xlink:href="#DejaVuSans-66" transform="translate(104.785156 0)"/>
      <use xlink:href="#DejaVuSans-66" transform="translate(139.990234 0)"/>
      <use xlink:href="#DejaVuSans-65" transform="translate(175.195312 0)"/>
      <use xlink:href="#DejaVuSans-72" transform="translate(236.71875 0)"/>
      <use xlink:href="#DejaVuSans-65" transform="translate(275.582031 0)"/>
      <use xlink:href="#DejaVuSans-6e" transform="translate(337.105469 0)"/>
      <use xlink:href="#DejaVuSans-63" transform="translate(400.484375 0)"/>
      <use xlink:href="#DejaVuSans-65" transform="translate(455.464844 0)"/>
      <use xlink:href="#DejaVuSans-20" transform="translate(516.988281 0)"/>
      <use xlink:href="#DejaVuSans-69" transform="translate(548.775391 0)"/>
      <use xlink:href="#DejaVuSans-6e" transform="translate(576.558594 0)"/>
      <use xlink:href="#DejaVuSans-20" transform="translate(639.9375 0)"/>
      <use xlink:href="#DejaVuSans-43" transform="translate(671.724609 0)"/>
      <use xlink:href="#DejaVuSans-2d" transform="translate(741.548828 0)"/>
      <use xlink:href="#DejaVuSans-69" transform="translate(777.632812 0)"/>
      <use xlink:href="#DejaVuSans-6e" transform="translate(805.416016 0)"/>
      <use xlink:href="#DejaVuSans-64" transform="translate(868.794922 0)"/>
      <use xlink:href="#DejaVuSans-65" transform="translate(932.271484 0)"/>
      <use xlink:href="#DejaVuSans-78" transform="translate(992.044922 0)"/>
      <use xlink:href="#DejaVuSans-20" transform="translate(1051.224609 0)"/>
      <use xlink:href="#DejaVuSans-28" transform="translate(1083.011719 0)"/>
      <use xlink:href="#DejaVuSans-4d" transform="translate(1122.025391 0)"/>
      <use xlink:href="#DejaVuSans-75" transform="translate(1208.304688 0)"/>
      <use xlink:href="#DejaVuSans-6c" transform="translate(1271.683594 0)"/>
      <use xlink:href="#DejaVuSans-74" transform="translate(1299.466797 0)"/>
      <use xlink:href="#DejaVuSans-69" transform="translate(1338.675781 0)"/>
      <use xlink:href="#DejaVuSans-6d" transform="translate(1366.458984 0)"/>
      <use xlink:href="#DejaVuSans-6f" transform="translate(1463.871094 0)"/>
      <use xlink:href="#DejaVuSans-64" transform="translate(1525.052734 0)"/>
      <use xlink:href="#DejaVuSans-61" transform="translate(1588.529297 0)"/>
      <use xlink:href="#DejaVuSans-6c" transform="translate(1649.808594 0)"/>
      <use xlink:href="#DejaVuSans-20" transform="translate(1677.591797 0)"/>
      <use xlink:href="#DejaVuSans-2d" transform="translate(1709.378906 0)"/>
      <use xlink:href="#DejaVuSans-20" transform="translate(1745.462891 0)"/>
      <use xlink:href="#DejaVuSans-4f" transform="translate(1777.25 0)"/>
      <use xlink:href="#DejaVuSans-74" transform="translate(1855.960938 0)"/>
      <use xlink:href="#DejaVuSans-68" transform="translate(1895.169922 0)"/>
      <use xlink:href="#DejaVuSans-65" transform="translate(1958.548828 0)"/>
      <use xlink:href="#DejaVuSans-72" transform="translate(2020.072266 0)"/>
      <use xlink:href="#DejaVuSans-29" transform="translate(2061.185547 0)"/>
     </g>
    </g>
   </g>
   <g id="matplotlib.axis_2">
    <g id="ytick_1">
     <g id="line2d_15">
      <path d="M 36.17625 383.397812 
L 704.22625 383.397812 
" clip-path="url(#p49c744f603)" style="fill: none; stroke: #b0b0b0; stroke-opacity: 0.3; stroke-width: 0.8; stroke-linecap: square"/>
     </g>
     <g id="line2d_16">
      <defs>
       <path id="mb115c96c1b" d="M 0 0 
L -3.5 0 
" style="stroke: #000000; stroke-width: 0.8"/>
      </defs>
      <g>
       <use xlink:href="#mb115c96c1b" x="36.17625" y="383.397812" style="stroke: #000000; stroke-width: 0.8"/>
      </g>
     </g>
     <g id="text_9">
      <!-- 0 -->
      <g transform="translate(22.81375 387.197031) scale(0.1 -0.1)">
       <use xlink:href="#DejaVuSans-30"/>
      </g>
     </g>
    </g>
    <g id="ytick_2">
     <g id="line2d_17">
      <path d="M 36.17625 342.977725 
L 704.22625 342.977725 
" clip-path="url(#p49c744f603)" style="fill: none; stroke: #b0b0b0; stroke-opacity: 0.3; stroke-width: 0.8; stroke-linecap: square"/>
     </g>
     <g id="line2d_18">
      <g>
       <use xlink:href="#mb115c96c1b" x="36.17625" y="342.977725" style="stroke: #000000; stroke-width: 0.8"/>
      </g>
     </g>
     <g id="text_10">
      <!-- 1 -->
      <g transform="translate(22.81375 346.776944) scale(0.1 -0.1)">
       <use xlink:href="#DejaVuSans-31"/>
      </g>
     </g>
    </g>
    <g id="ytick_3">
     <g id="line2d_19">
      <path d="M 36.17625 302.557638 
L 704.22625 302.557638 
" clip-path="url(#p49c744f603)" style="fill: none; stroke: #b0b0b0; stroke-opacity: 0.3; stroke-width: 0.8; stroke-linecap: square"/>
     </g>
     <g id="line2d_20">
      <g>
       <use xlink:href="#mb115c96c1b" x="36.17625" y="302.557638" style="stroke: #000000; stroke-width: 0.8"/>
      </g>
     </g>
     <g id="text_11">
      <!-- 2 -->
      <g transform="translate(22.81375 306.356857) scale(0.1 -0.1)">
       <use xlink:href="#DejaVuSans-32"/>
      </g>
     </g>
    </g>
    <g id="ytick_4">
     <g id="line2d_21">
      <path d="M 36.17625 262.137551 
L 704.22625 262.137551 
" clip-path="url(#p49c744f603)" style="fill: none; stroke: #b0b0b0; stroke-opacity: 0.3; stroke-width: 0.8; stroke-linecap: square"/>
     </g>
     <g id="line2d_22">
      <g>
       <use xlink:href="#mb115c96c1b" x="36.17625" y="262.137551" style="stroke: #000000; stroke-width: 0.8"/>
      </g>
     </g>
     <g id="text_12">
      <!-- 3 -->
      <g transform="translate(22.81375 265.93677) scale(0.1 -0.1)">
       <use xlink:href="#DejaVuSans-33"/>
      </g>
     </g>
    </g>
    <g id="ytick_5">
     <g id="line2d_23">
      <path d="M 36.17625 221.717464 
L 704.22625 221.717464 
" clip-path="url(#p49c744f603)" style="fill: none; stroke: #b0b0b0; stroke-opacity: 0.3; stroke-width: 0.8; stroke-linecap: square"/>
     </g>
     <g id="line2d_24">
      <g>
       <use xlink:href="#mb115c96c1b" x="36.17625" y="221.717464" style="stroke: #000000; stroke-width: 0.8"/>
      </g>
     </g>
     <g id="text_13">
      <!-- 4 -->
      <g transform="translate(22.81375 225.516683) scale(0.1 -0.1)">
       <use xlink:href="#DejaVuSans-34"/>
      </g>
     </g>
    </g>
    <g id="ytick_6">
     <g id="line2d_25">
      <path d="M 36.17625 181.297377 
L 704.22625 181.297377 
" clip-path="url(#p49c744f603)" style="fill: none; stroke: #b0b0b0; stroke-opacity: 0.3; stroke-width: 0.8; stroke-linecap: square"/>
     </g>
     <g id="line2d_26">
      <g>
       <use xlink:href="#mb115c96c1b" x="36.17625" y="181.297377" style="stroke: #000000; stroke-width: 0.8"/>
      </g>
     </g>
     <g id="text_14">
      <!-- 5 -->
      <g transform="translate(22.81375 185.096596) scale(0.1 -0.1)">
       <defs>
        <path id="DejaVuSans-35" d="M 691 4666 
L 3169 4666 
L 3169 4134 
L 1269 4134 
L 1269 2991 
Q 1406 3038 1543 3061 
Q 1681 3084 1819 3084 
Q 2600 3084 3056 2656 
Q 3513 2228 3513 1497 
Q 3513 744 3044 326 
Q 2575 -91 1722 -91 
Q 1428 -91 1123 -41 
Q 819 9 494 109 
L 494 744 
Q 775 591 1075 516 
Q 1375 441 1709 441 
Q 2250 441 2565 725 
Q 2881 1009 2881 1497 
Q 2881 1984 2565 2268 
Q 2250 2553 1709 2553 
Q 1456 2553 1204 2497 
Q 953 2441 691 2322 
L 691 4666 
z
" transform="scale(0.015625)"/>
       </defs>
       <use xlink:href="#DejaVuSans-35"/>
      </g>
     </g>
    </g>
    <g id="ytick_7">
     <g id="line2d_27">
      <path d="M 36.17625 140.87729 
L 704.22625 140.87729 
" clip-path="url(#p49c744f603)" style="fill: none; stroke: #b0b0b0; stroke-opacity: 0.3; stroke-width: 0.8; stroke-linecap: square"/>
     </g>
     <g id="line2d_28">
      <g>
       <use xlink:href="#mb115c96c1b" x="36.17625" y="140.87729" style="stroke: #000000; stroke-width: 0.8"/>
      </g>
     </g>
     <g id="text_15">
      <!-- 6 -->
      <g transform="translate(22.81375 144.676508) scale(0.1 -0.1)">
       <defs>
        <path id="DejaVuSans-36" d="M 2113 2584 
Q 1688 2584 1439 2293 
Q 1191 2003 1191 1497 
Q 1191 994 1439 701 
Q 1688 409 2113 409 
Q 2538 409 2786 701 
Q 3034 994 3034 1497 
Q 3034 2003 2786 2293 
Q 2538 2584 2113 2584 
z
M 3366 4563 
L 3366 3988 
Q 3128 4100 2886 4159 
Q 2644 4219 2406 4219 
Q 1781 4219 1451 3797 
Q 1122 3375 1075 2522 
Q 1259 2794 1537 2939 
Q 1816 3084 2150 3084 
Q 2853 3084 3261 2657 
Q 3669 2231 3669 1497 
Q 3669 778 3244 343 
Q 2819 -91 2113 -91 
Q 1303 -91 875 529 
Q 447 1150 447 2328 
Q 447 3434 972 4092 
Q 1497 4750 2381 4750 
Q 2619 4750 2861 4703 
Q 3103 4656 3366 4563 
z
" transform="scale(0.015625)"/>
       </defs>
       <use xlink:href="#DejaVuSans-36"/>
      </g>
     </g>
    </g>
    <g id="ytick_8">
     <g id="line2d_29">
      <path d="M 36.17625 100.457203 
L 704.22625 100.457203 
" clip-path="url(#p49c744f603)" style="fill: none; stroke: #b0b0b0; stroke-opacity: 0.3; stroke-width: 0.8; stroke-linecap: square"/>
     </g>
     <g id="line2d_30">
      <g>
       <use xlink:href="#mb115c96c1b" x="36.17625" y="100.457203" style="stroke: #000000; stroke-width: 0.8"/>
      </g>
     </g>
     <g id="text_16">
      <!-- 7 -->
      <g transform="translate(22.81375 104.256421) scale(0.1 -0.1)">
       <defs>
        <path id="DejaVuSans-37" d="M 525 4666 
L 3525 4666 
L 3525 4397 
L 1831 0 
L 1172 0 
L 2766 4134 
L 525 4134 
L 525 4666 
z
" transform="scale(0.015625)"/>
       </defs>
       <use xlink:href="#DejaVuSans-37"/>
      </g>
     </g>
    </g>
    <g id="ytick_9">
     <g id="line2d_31">
      <path d="M 36.17625 60.037115 
L 704.22625 60.037115 
" clip-path="url(#p49c744f603)" style="fill: none; stroke: #b0b0b0; stroke-opacity: 0.3; stroke-width: 0.8; stroke-linecap: square"/>
     </g>
     <g id="line2d_32">
      <g>
       <use xlink:href="#mb115c96c1b" x="36.17625" y="60.037115" style="stroke: #000000; stroke-width: 0.8"/>
      </g>
     </g>
     <g id="text_17">
      <!-- 8 -->
      <g transform="translate(22.81375 63.836334) scale(0.1 -0.1)">
       <defs>
        <path id="DejaVuSans-38" d="M 2034 2216 
Q 1584 2216 1326 1975 
Q 1069 1734 1069 1313 
Q 1069 891 1326 650 
Q 1584 409 2034 409 
Q 2484 409 2743 651 
Q 3003 894 3003 1313 
Q 3003 1734 2745 1975 
Q 2488 2216 2034 2216 
z
M 1403 2484 
Q 997 2584 770 2862 
Q 544 3141 544 3541 
Q 544 4100 942 4425 
Q 1341 4750 2034 4750 
Q 2731 4750 3128 4425 
Q 3525 4100 3525 3541 
Q 3525 3141 3298 2862 
Q 3072 2584 2669 2484 
Q 3125 2378 3379 2068 
Q 3634 1759 3634 1313 
Q 3634 634 3220 271 
Q 2806 -91 2034 -91 
Q 1263 -91 848 271 
Q 434 634 434 1313 
Q 434 1759 690 2068 
Q 947 2378 1403 2484 
z
M 1172 3481 
Q 1172 3119 1398 2916 
Q 1625 2713 2034 2713 
Q 2441 2713 2670 2916 
Q 2900 3119 2900 3481 
Q 2900 3844 2670 4047 
Q 2441 4250 2034 4250 
Q 1625 4250 1398 4047 
Q 1172 3844 1172 3481 
z
" transform="scale(0.015625)"/>
       </defs>
       <use xlink:href="#DejaVuSans-38"/>
      </g>
     </g>
    </g>
    <g id="text_18">
     <!-- Density -->
     <g transform="translate(16.318125 226.428125) rotate(-90) scale(0.12 -0.12)">
      <defs>
       <path id="DejaVuSans-73" d="M 2834 3397 
L 2834 2853 
Q 2591 2978 2328 3040 
Q 2066 3103 1784 3103 
Q 1356 3103 1142 2972 
Q 928 2841 928 2578 
Q 928 2378 1081 2264 
Q 1234 2150 1697 2047 
L 1894 2003 
Q 2506 1872 2764 1633 
Q 3022 1394 3022 966 
Q 3022 478 2636 193 
Q 2250 -91 1575 -91 
Q 1294 -91 989 -36 
Q 684 19 347 128 
L 347 722 
Q 666 556 975 473 
Q 1284 391 1588 391 
Q 1994 391 2212 530 
Q 2431 669 2431 922 
Q 2431 1156 2273 1281 
Q 2116 1406 1581 1522 
L 1381 1569 
Q 847 1681 609 1914 
Q 372 2147 372 2553 
Q 372 3047 722 3315 
Q 1072 3584 1716 3584 
Q 2034 3584 2315 3537 
Q 2597 3491 2834 3397 
z
" transform="scale(0.015625)"/>
       <path id="DejaVuSans-79" d="M 2059 -325 
Q 1816 -950 1584 -1140 
Q 1353 -1331 966 -1331 
L 506 -1331 
L 506 -850 
L 844 -850 
Q 1081 -850 1212 -737 
Q 1344 -625 1503 -206 
L 1606 56 
L 191 3500 
L 800 3500 
L 1894 763 
L 2988 3500 
L 3597 3500 
L 2059 -325 
z
" transform="scale(0.015625)"/>
      </defs>
      <use xlink:href="#DejaVuSans-44"/>
      <use xlink:href="#DejaVuSans-65" transform="translate(77.001953 0)"/>
      <use xlink:href="#DejaVuSans-6e" transform="translate(138.525391 0)"/>
      <use xlink:href="#DejaVuSans-73" transform="translate(201.904297 0)"/>
      <use xlink:href="#DejaVuSans-69" transform="translate(254.003906 0)"/>
      <use xlink:href="#DejaVuSans-74" transform="translate(281.787109 0)"/>
      <use xlink:href="#DejaVuSans-79" transform="translate(320.996094 0)"/>
     </g>
    </g>
   </g>
   <g id="line2d_33">
    <path d="M 66.835474 383.382742 
L 77.077538 383.269858 
L 85.27119 382.946131 
L 91.416429 382.492007 
L 105.755319 381.229368 
L 111.900558 380.978856 
L 124.191035 380.681225 
L 128.287861 380.224146 
L 132.384687 379.391615 
L 136.481513 378.15368 
L 140.578338 376.564787 
L 144.675164 374.73226 
L 150.820403 371.736639 
L 156.965642 368.493337 
L 161.062467 366.065969 
L 165.159293 363.268023 
L 167.207706 361.685601 
L 169.256119 359.961437 
L 171.304532 358.086398 
L 175.401358 353.879221 
L 179.498184 349.129586 
L 185.643422 341.37292 
L 195.885487 327.916903 
L 199.982313 322.038423 
L 202.030726 318.794853 
L 204.079138 315.250354 
L 206.127551 311.321805 
L 208.175964 306.919345 
L 210.224377 301.947125 
L 212.27279 296.305007 
L 214.321203 289.892178 
L 216.369616 282.613469 
L 218.418029 274.388638 
L 220.466442 265.164054 
L 222.514855 254.925415 
L 224.563267 243.709405 
L 226.61168 231.611873 
L 230.708506 205.459237 
L 236.853745 165.108766 
L 238.902158 152.477207 
L 240.950571 140.661998 
L 242.998984 129.829414 
L 245.047397 120.077979 
L 247.095809 111.437837 
L 249.144222 103.87779 
L 251.192635 97.318325 
L 253.241048 91.648162 
L 255.289461 86.74168 
L 257.337874 82.474848 
L 259.386287 78.737891 
L 261.4347 75.443728 
L 263.483113 72.531964 
L 265.531526 69.968847 
L 267.579939 67.743993 
L 269.628351 65.864863 
L 271.676764 64.35004 
L 273.725177 63.22222 
L 275.77359 62.501798 
L 277.822003 62.201707 
L 279.870416 62.32407 
L 281.918829 62.859 
L 283.967242 63.785687 
L 286.015655 65.07565 
L 288.064068 66.697724 
L 290.11248 68.624108 
L 292.160893 70.83651 
L 294.209306 73.33129 
L 296.257719 76.12247 
L 298.306132 79.241682 
L 300.354545 82.73449 
L 302.402958 86.653152 
L 304.451371 91.046563 
L 306.499784 95.948799 
L 308.548197 101.368156 
L 310.59661 107.278723 
L 314.693435 120.279339 
L 322.887087 147.3629 
L 324.9355 153.528906 
L 326.983913 159.246029 
L 329.032326 164.480755 
L 331.080739 169.247512 
L 333.129151 173.606839 
L 337.225977 181.537775 
L 341.322803 189.38669 
L 343.371216 193.670849 
L 345.419629 198.381729 
L 347.468042 203.625453 
L 349.516455 209.469811 
L 351.564868 215.93867 
L 353.613281 223.010271 
L 355.661693 230.619669 
L 359.758519 247.017507 
L 367.952171 280.616233 
L 372.048997 295.806031 
L 374.09741 302.726493 
L 376.145823 309.16306 
L 378.194235 315.116949 
L 380.242648 320.604862 
L 382.291061 325.653655 
L 384.339474 330.29553 
L 386.387887 334.564121 
L 388.4363 338.491633 
L 390.484713 342.107013 
L 392.533126 345.434972 
L 394.581539 348.4957 
L 396.629952 351.305087 
L 398.678364 353.875338 
L 400.726777 356.215909 
L 402.77519 358.334697 
L 404.823603 360.239427 
L 406.872016 361.939118 
L 408.920429 363.44548 
L 410.968842 364.774039 
L 413.017255 365.9448 
L 417.114081 367.914678 
L 423.259319 370.386389 
L 429.404558 372.902511 
L 435.549797 375.708639 
L 441.695035 378.486052 
L 445.791861 380.065592 
L 449.888687 381.305466 
L 453.985513 382.186312 
L 458.082339 382.752908 
L 462.179165 383.083026 
L 468.324403 383.307034 
L 474.469642 383.376539 
L 474.469642 383.376539 
" clip-path="url(#p49c744f603)" style="fill: none; stroke: #1f77b4; stroke-width: 1.5; stroke-linecap: square"/>
   </g>
   <g id="line2d_34">
    <path d="M 287.873787 383.397812 
L 287.873787 23.837812 
" clip-path="url(#p49c744f603)" style="fill: none; stroke-dasharray: 5.55,2.4; stroke-dashoffset: 0; stroke: #1f77b4; stroke-opacity: 0.7; stroke-width: 1.5"/>
   </g>
   <g id="line2d_35">
    <path d="M 66.542159 383.3854 
L 81.512676 383.244954 
L 88.997934 383.005812 
L 96.483193 382.559633 
L 103.968451 381.856922 
L 111.45371 380.882902 
L 118.938968 379.67377 
L 143.889829 375.31137 
L 146.384915 374.717654 
L 148.880002 373.997 
L 151.375088 373.110436 
L 153.870174 372.019421 
L 156.36526 370.688095 
L 158.860346 369.085225 
L 161.355432 367.185741 
L 163.850518 364.97186 
L 166.345604 362.433861 
L 168.840691 359.570625 
L 171.335777 356.390002 
L 173.830863 352.90899 
L 176.325949 349.153535 
L 181.316121 340.961857 
L 186.306294 332.143689 
L 193.791552 318.3601 
L 198.781724 308.858659 
L 203.771897 298.749879 
L 206.266983 293.302474 
L 208.762069 287.505312 
L 211.257155 281.310024 
L 213.752241 274.691754 
L 216.247327 267.653103 
L 221.237499 252.455503 
L 226.227672 236.175618 
L 241.198189 186.102437 
L 246.188361 170.655762 
L 248.683447 163.552168 
L 251.178533 157.014745 
L 253.673619 151.152003 
L 256.168705 146.050587 
L 258.663791 141.762603 
L 261.158878 138.297541 
L 263.653964 135.620848 
L 266.14905 133.659674 
L 268.644136 132.314739 
L 271.139222 131.475832 
L 273.634308 131.03772 
L 276.129394 130.913231 
L 278.624481 131.041047 
L 281.119567 131.387024 
L 283.614653 131.93934 
L 286.109739 132.699041 
L 288.604825 133.66841 
L 291.099911 134.839849 
L 293.594997 136.187596 
L 303.575342 142.116719 
L 306.070428 143.328917 
L 308.565514 144.290524 
L 311.0606 144.973366 
L 313.555686 145.389604 
L 318.545859 145.695039 
L 321.040945 145.826395 
L 323.536031 146.159367 
L 326.031117 146.876838 
L 328.526203 148.158414 
L 331.021289 150.162617 
L 333.516376 153.010511 
L 336.011462 156.772814 
L 338.506548 161.46215 
L 341.001634 167.031421 
L 343.49672 173.378525 
L 345.991806 180.356718 
L 350.981978 195.486373 
L 355.972151 210.951508 
L 360.962323 225.569792 
L 363.457409 232.350608 
L 365.952495 238.748999 
L 368.447581 244.788124 
L 373.437754 256.012893 
L 388.40827 288.10936 
L 400.883701 316.263217 
L 403.378787 321.5345 
L 405.873873 326.497105 
L 408.36896 331.081677 
L 410.864046 335.235704 
L 413.359132 338.927083 
L 415.854218 342.145648 
L 418.349304 344.902733 
L 420.84439 347.229062 
L 423.339476 349.171391 
L 425.834563 350.788374 
L 428.329649 352.146068 
L 430.824735 353.313435 
L 435.814907 355.342507 
L 440.805079 357.335927 
L 445.795252 359.585718 
L 450.785424 362.177275 
L 465.755941 370.572815 
L 470.746113 372.931531 
L 475.736285 374.91079 
L 480.726457 376.544388 
L 485.71663 377.900105 
L 490.706802 379.032617 
L 495.696974 379.963074 
L 500.687147 380.691382 
L 505.677319 381.225468 
L 513.162577 381.74995 
L 538.113439 382.96812 
L 548.093783 383.257486 
L 560.569214 383.378397 
L 563.0643 383.385726 
L 563.0643 383.385726 
" clip-path="url(#p49c744f603)" style="fill: none; stroke: #ff7f0e; stroke-width: 1.5; stroke-linecap: square"/>
   </g>
   <g id="line2d_36">
    <path d="M 301.87928 383.397812 
L 301.87928 23.837812 
" clip-path="url(#p49c744f603)" style="fill: none; stroke-dasharray: 5.55,2.4; stroke-dashoffset: 0; stroke: #ff7f0e; stroke-opacity: 0.7; stroke-width: 1.5"/>
   </g>
   <g id="line2d_37">
    <path d="M 128.213109 383.382456 
L 139.147771 383.247731 
L 145.708568 382.973844 
L 152.269366 382.443376 
L 158.830163 381.636859 
L 167.577893 380.250806 
L 174.13869 379.02238 
L 178.512555 378.049573 
L 182.88642 376.865741 
L 187.260285 375.395167 
L 191.63415 373.607588 
L 196.008015 371.545772 
L 202.568812 368.121437 
L 206.942677 365.630548 
L 211.316542 362.793744 
L 213.503475 361.163966 
L 215.690407 359.353668 
L 217.87734 357.346334 
L 220.064272 355.141313 
L 224.438137 350.218263 
L 230.998935 342.103567 
L 237.559732 333.708791 
L 241.933597 327.683072 
L 244.120529 324.349818 
L 246.307462 320.69651 
L 248.494394 316.646983 
L 250.681327 312.136211 
L 252.868259 307.115448 
L 255.055192 301.555762 
L 257.242124 295.45018 
L 259.429057 288.814759 
L 261.615989 281.6888 
L 265.989854 266.234249 
L 276.924516 225.442787 
L 281.298381 210.59625 
L 283.485314 203.759952 
L 287.859179 191.102191 
L 294.419976 172.763458 
L 296.606909 166.122516 
L 298.793841 158.939018 
L 300.980773 151.111275 
L 303.167706 142.609548 
L 305.354638 133.485004 
L 309.728503 113.94871 
L 314.102368 94.162161 
L 316.289301 84.777958 
L 318.476233 76.016447 
L 320.663166 68.040592 
L 322.850098 60.971134 
L 325.037031 54.893404 
L 327.223963 49.867439 
L 329.410896 45.936909 
L 331.597828 43.13341 
L 333.78476 41.474847 
L 335.971693 40.959142 
L 338.158625 41.556481 
L 340.345558 43.204142 
L 342.53249 45.80723 
L 344.719423 49.246735 
L 346.906355 53.393793 
L 349.093288 58.126759 
L 351.28022 63.346419 
L 353.467153 68.984942 
L 355.654085 75.005759 
L 357.841018 81.394184 
L 362.214883 95.225916 
L 366.588747 110.178975 
L 373.149545 132.952833 
L 377.52341 147.03875 
L 381.897275 159.932382 
L 388.458072 178.719059 
L 390.645005 185.410248 
L 392.831937 192.505901 
L 395.01887 200.048626 
L 399.392734 216.360232 
L 410.327397 259.176425 
L 414.701262 274.710324 
L 419.075127 288.723914 
L 423.448992 301.387185 
L 427.822857 313.051949 
L 432.196721 324.02097 
L 436.570586 334.378617 
L 440.944451 343.947419 
L 443.131384 348.332941 
L 445.318316 352.394995 
L 447.505249 356.100001 
L 449.692181 359.427646 
L 451.879114 362.372947 
L 454.066046 364.94593 
L 456.252979 367.169346 
L 458.439911 369.075127 
L 460.626844 370.700423 
L 462.813776 372.083914 
L 465.000708 373.262921 
L 467.187641 374.271529 
L 471.561506 375.893244 
L 475.935371 377.141387 
L 480.309236 378.158024 
L 489.056966 379.872577 
L 495.617763 381.002524 
L 499.991628 381.616392 
L 504.365493 382.044444 
L 508.739358 382.253614 
L 515.300155 382.226259 
L 526.234817 382.051106 
L 532.795615 382.269506 
L 550.291075 383.203774 
L 559.038804 383.35861 
L 563.412669 383.383098 
L 563.412669 383.383098 
" clip-path="url(#p49c744f603)" style="fill: none; stroke: #2ca02c; stroke-width: 1.5; stroke-linecap: square"/>
   </g>
   <g id="line2d_38">
    <path d="M 336.893014 383.397812 
L 336.893014 23.837812 
" clip-path="url(#p49c744f603)" style="fill: none; stroke-dasharray: 5.55,2.4; stroke-dashoffset: 0; stroke: #2ca02c; stroke-opacity: 0.7; stroke-width: 1.5"/>
   </g>
   <g id="line2d_39">
    <path d="M 137.424084 383.385311 
L 150.902382 383.271483 
L 161.68502 382.948485 
L 188.641616 381.838455 
L 199.424254 381.517193 
L 207.511233 381.055592 
L 212.902552 380.584728 
L 218.293872 379.931678 
L 223.685191 379.017717 
L 229.07651 377.749812 
L 234.467829 376.069302 
L 239.859148 374.010411 
L 258.728765 366.023541 
L 264.120084 363.580489 
L 266.815744 362.151883 
L 269.511404 360.506451 
L 272.207063 358.590817 
L 274.902723 356.362152 
L 277.598382 353.790785 
L 280.294042 350.860648 
L 282.989701 347.568031 
L 285.685361 343.919489 
L 288.381021 339.929713 
L 291.07668 335.619925 
L 293.77234 331.016855 
L 299.163659 321.060018 
L 304.554978 310.337979 
L 309.946297 299.094001 
L 315.337616 287.434848 
L 320.728936 275.314779 
L 326.120255 262.653461 
L 334.207234 242.782432 
L 344.989872 215.930096 
L 350.381191 202.943338 
L 355.77251 190.515534 
L 361.163829 178.792909 
L 366.555149 167.830672 
L 371.946468 157.510355 
L 393.511744 117.532557 
L 396.207404 113.041183 
L 398.903064 109.043905 
L 401.598723 105.701105 
L 404.294383 103.150477 
L 406.990042 101.489151 
L 409.685702 100.761087 
L 412.381361 100.951934 
L 415.077021 101.9923 
L 417.772681 103.769073 
L 420.46834 106.143148 
L 423.164 108.970996 
L 425.859659 112.126963 
L 428.555319 115.523078 
L 431.250979 119.123505 
L 433.946638 122.951409 
L 436.642298 127.086944 
L 439.337957 131.656157 
L 442.033617 136.811834 
L 444.729276 142.70854 
L 447.424936 149.475222 
L 450.120596 157.189517 
L 452.816255 165.858048 
L 455.511915 175.406355 
L 458.207574 185.680648 
L 463.598894 207.487365 
L 468.990213 229.195091 
L 471.685872 239.408119 
L 474.381532 248.973487 
L 477.077191 257.812769 
L 479.772851 265.917012 
L 482.468511 273.336108 
L 485.16417 280.161915 
L 487.85983 286.508294 
L 493.251149 298.211989 
L 498.642468 309.130614 
L 504.033787 319.468073 
L 506.729447 324.363968 
L 509.425106 329.022614 
L 512.120766 333.405406 
L 514.816426 337.486788 
L 517.512085 341.259019 
L 520.207745 344.732681 
L 522.903404 347.933369 
L 525.599064 350.895736 
L 528.294723 353.656525 
L 533.686043 358.694331 
L 539.077362 363.19072 
L 541.773021 365.23747 
L 544.468681 367.13732 
L 547.164341 368.878171 
L 549.86 370.449398 
L 552.55566 371.84395 
L 555.251319 373.059671 
L 557.946979 374.100049 
L 560.642638 374.974556 
L 563.338298 375.698678 
L 568.729617 376.784832 
L 576.816596 377.924869 
L 584.903575 379.058578 
L 601.077532 381.534454 
L 606.468851 382.038439 
L 611.860171 382.280774 
L 619.947149 382.294146 
L 630.729788 382.25195 
L 638.816766 382.478614 
L 657.686383 383.217078 
L 668.469022 383.363102 
L 673.860341 383.385324 
L 673.860341 383.385324 
" clip-path="url(#p49c744f603)" style="fill: none; stroke: #d62728; stroke-width: 1.5; stroke-linecap: square"/>
   </g>
   <g id="line2d_40">
    <path d="M 406.920482 383.397812 
L 406.920482 23.837812 
" clip-path="url(#p49c744f603)" style="fill: none; stroke-dasharray: 5.55,2.4; stroke-dashoffset: 0; stroke: #d62728; stroke-opacity: 0.7; stroke-width: 1.5"/>
   </g>
   <g id="line2d_41">
    <path d="M 268.266095 383.397812 
L 268.266095 23.837812 
" clip-path="url(#p49c744f603)" style="fill: none; stroke-dasharray: 1.5,2.475; stroke-dashoffset: 0; stroke: #000000; stroke-width: 1.5"/>
   </g>
   <g id="patch_3">
    <path d="M 36.17625 383.397812 
L 36.17625 23.837812 
" style="fill: none; stroke: #000000; stroke-width: 0.8; stroke-linejoin: miter; stroke-linecap: square"/>
   </g>
   <g id="patch_4">
    <path d="M 704.22625 383.397812 
L 704.22625 23.837812 
" style="fill: none; stroke: #000000; stroke-width: 0.8; stroke-linejoin: miter; stroke-linecap: square"/>
   </g>
   <g id="patch_5">
    <path d="M 36.17625 383.397812 
L 704.22625 383.397812 
" style="fill: none; stroke: #000000; stroke-width: 0.8; stroke-linejoin: miter; stroke-linecap: square"/>
   </g>
   <g id="patch_6">
    <path d="M 36.17625 23.837812 
L 704.22625 23.837812 
" style="fill: none; stroke: #000000; stroke-width: 0.8; stroke-linejoin: miter; stroke-linecap: square"/>
   </g>
   <g id="text_19">
    <!-- Bootstrap Distributions of C-index Differences for COX Model -->
    <g transform="translate(157.489844 17.837812) scale(0.14 -0.14)">
     <defs>
      <path id="DejaVuSans-42" d="M 1259 2228 
L 1259 519 
L 2272 519 
Q 2781 519 3026 730 
Q 3272 941 3272 1375 
Q 3272 1813 3026 2020 
Q 2781 2228 2272 2228 
L 1259 2228 
z
M 1259 4147 
L 1259 2741 
L 2194 2741 
Q 2656 2741 2882 2914 
Q 3109 3088 3109 3444 
Q 3109 3797 2882 3972 
Q 2656 4147 2194 4147 
L 1259 4147 
z
M 628 4666 
L 2241 4666 
Q 2963 4666 3353 4366 
Q 3744 4066 3744 3513 
Q 3744 3084 3544 2831 
Q 3344 2578 2956 2516 
Q 3422 2416 3680 2098 
Q 3938 1781 3938 1306 
Q 3938 681 3513 340 
Q 3088 0 2303 0 
L 628 0 
L 628 4666 
z
" transform="scale(0.015625)"/>
      <path id="DejaVuSans-70" d="M 1159 525 
L 1159 -1331 
L 581 -1331 
L 581 3500 
L 1159 3500 
L 1159 2969 
Q 1341 3281 1617 3432 
Q 1894 3584 2278 3584 
Q 2916 3584 3314 3078 
Q 3713 2572 3713 1747 
Q 3713 922 3314 415 
Q 2916 -91 2278 -91 
Q 1894 -91 1617 61 
Q 1341 213 1159 525 
z
M 3116 1747 
Q 3116 2381 2855 2742 
Q 2594 3103 2138 3103 
Q 1681 3103 1420 2742 
Q 1159 2381 1159 1747 
Q 1159 1113 1420 752 
Q 1681 391 2138 391 
Q 2594 391 2855 752 
Q 3116 1113 3116 1747 
z
" transform="scale(0.015625)"/>
      <path id="DejaVuSans-62" d="M 3116 1747 
Q 3116 2381 2855 2742 
Q 2594 3103 2138 3103 
Q 1681 3103 1420 2742 
Q 1159 2381 1159 1747 
Q 1159 1113 1420 752 
Q 1681 391 2138 391 
Q 2594 391 2855 752 
Q 3116 1113 3116 1747 
z
M 1159 2969 
Q 1341 3281 1617 3432 
Q 1894 3584 2278 3584 
Q 2916 3584 3314 3078 
Q 3713 2572 3713 1747 
Q 3713 922 3314 415 
Q 2916 -91 2278 -91 
Q 1894 -91 1617 61 
Q 1341 213 1159 525 
L 1159 0 
L 581 0 
L 581 4863 
L 1159 4863 
L 1159 2969 
z
" transform="scale(0.015625)"/>
      <path id="DejaVuSans-58" d="M 403 4666 
L 1081 4666 
L 2241 2931 
L 3406 4666 
L 4084 4666 
L 2584 2425 
L 4184 0 
L 3506 0 
L 2194 1984 
L 872 0 
L 191 0 
L 1856 2491 
L 403 4666 
z
" transform="scale(0.015625)"/>
     </defs>
     <use xlink:href="#DejaVuSans-42"/>
     <use xlink:href="#DejaVuSans-6f" transform="translate(68.603516 0)"/>
     <use xlink:href="#DejaVuSans-6f" transform="translate(129.785156 0)"/>
     <use xlink:href="#DejaVuSans-74" transform="translate(190.966797 0)"/>
     <use xlink:href="#DejaVuSans-73" transform="translate(230.175781 0)"/>
     <use xlink:href="#DejaVuSans-74" transform="translate(282.275391 0)"/>
     <use xlink:href="#DejaVuSans-72" transform="translate(321.484375 0)"/>
     <use xlink:href="#DejaVuSans-61" transform="translate(362.597656 0)"/>
     <use xlink:href="#DejaVuSans-70" transform="translate(423.876953 0)"/>
     <use xlink:href="#DejaVuSans-20" transform="translate(487.353516 0)"/>
     <use xlink:href="#DejaVuSans-44" transform="translate(519.140625 0)"/>
     <use xlink:href="#DejaVuSans-69" transform="translate(596.142578 0)"/>
     <use xlink:href="#DejaVuSans-73" transform="translate(623.925781 0)"/>
     <use xlink:href="#DejaVuSans-74" transform="translate(676.025391 0)"/>
     <use xlink:href="#DejaVuSans-72" transform="translate(715.234375 0)"/>
     <use xlink:href="#DejaVuSans-69" transform="translate(756.347656 0)"/>
     <use xlink:href="#DejaVuSans-62" transform="translate(784.130859 0)"/>
     <use xlink:href="#DejaVuSans-75" transform="translate(847.607422 0)"/>
     <use xlink:href="#DejaVuSans-74" transform="translate(910.986328 0)"/>
     <use xlink:href="#DejaVuSans-69" transform="translate(950.195312 0)"/>
     <use xlink:href="#DejaVuSans-6f" transform="translate(977.978516 0)"/>
     <use xlink:href="#DejaVuSans-6e" transform="translate(1039.160156 0)"/>
     <use xlink:href="#DejaVuSans-73" transform="translate(1102.539062 0)"/>
     <use xlink:href="#DejaVuSans-20" transform="translate(1154.638672 0)"/>
     <use xlink:href="#DejaVuSans-6f" transform="translate(1186.425781 0)"/>
     <use xlink:href="#DejaVuSans-66" transform="translate(1247.607422 0)"/>
     <use xlink:href="#DejaVuSans-20" transform="translate(1282.8125 0)"/>
     <use xlink:href="#DejaVuSans-43" transform="translate(1314.599609 0)"/>
     <use xlink:href="#DejaVuSans-2d" transform="translate(1384.423828 0)"/>
     <use xlink:href="#DejaVuSans-69" transform="translate(1420.507812 0)"/>
     <use xlink:href="#DejaVuSans-6e" transform="translate(1448.291016 0)"/>
     <use xlink:href="#DejaVuSans-64" transform="translate(1511.669922 0)"/>
     <use xlink:href="#DejaVuSans-65" transform="translate(1575.146484 0)"/>
     <use xlink:href="#DejaVuSans-78" transform="translate(1634.919922 0)"/>
     <use xlink:href="#DejaVuSans-20" transform="translate(1694.099609 0)"/>
     <use xlink:href="#DejaVuSans-44" transform="translate(1725.886719 0)"/>
     <use xlink:href="#DejaVuSans-69" transform="translate(1802.888672 0)"/>
     <use xlink:href="#DejaVuSans-66" transform="translate(1830.671875 0)"/>
     <use xlink:href="#DejaVuSans-66" transform="translate(1865.876953 0)"/>
     <use xlink:href="#DejaVuSans-65" transform="translate(1901.082031 0)"/>
     <use xlink:href="#DejaVuSans-72" transform="translate(1962.605469 0)"/>
     <use xlink:href="#DejaVuSans-65" transform="translate(2001.46875 0)"/>
     <use xlink:href="#DejaVuSans-6e" transform="translate(2062.992188 0)"/>
     <use xlink:href="#DejaVuSans-63" transform="translate(2126.371094 0)"/>
     <use xlink:href="#DejaVuSans-65" transform="translate(2181.351562 0)"/>
     <use xlink:href="#DejaVuSans-73" transform="translate(2242.875 0)"/>
     <use xlink:href="#DejaVuSans-20" transform="translate(2294.974609 0)"/>
     <use xlink:href="#DejaVuSans-66" transform="translate(2326.761719 0)"/>
     <use xlink:href="#DejaVuSans-6f" transform="translate(2361.966797 0)"/>
     <use xlink:href="#DejaVuSans-72" transform="translate(2423.148438 0)"/>
     <use xlink:href="#DejaVuSans-20" transform="translate(2464.261719 0)"/>
     <use xlink:href="#DejaVuSans-43" transform="translate(2496.048828 0)"/>
     <use xlink:href="#DejaVuSans-4f" transform="translate(2565.873047 0)"/>
     <use xlink:href="#DejaVuSans-58" transform="translate(2638.208984 0)"/>
     <use xlink:href="#DejaVuSans-20" transform="translate(2706.714844 0)"/>
     <use xlink:href="#DejaVuSans-4d" transform="translate(2738.501953 0)"/>
     <use xlink:href="#DejaVuSans-6f" transform="translate(2824.78125 0)"/>
     <use xlink:href="#DejaVuSans-64" transform="translate(2885.962891 0)"/>
     <use xlink:href="#DejaVuSans-65" transform="translate(2949.439453 0)"/>
     <use xlink:href="#DejaVuSans-6c" transform="translate(3010.962891 0)"/>
    </g>
   </g>
   <g id="legend_1">
    <g id="patch_7">
     <path d="M 480.77 105.228437 
L 697.22625 105.228437 
Q 699.22625 105.228437 699.22625 103.228437 
L 699.22625 30.837812 
Q 699.22625 28.837812 697.22625 28.837812 
L 480.77 28.837812 
Q 478.77 28.837812 478.77 30.837812 
L 478.77 103.228437 
Q 478.77 105.228437 480.77 105.228437 
z
" style="fill: #ffffff; opacity: 0.8; stroke: #cccccc; stroke-linejoin: miter"/>
    </g>
    <g id="line2d_42">
     <path d="M 482.77 36.93625 
L 492.77 36.93625 
L 502.77 36.93625 
" style="fill: none; stroke: #1f77b4; stroke-width: 1.5; stroke-linecap: square"/>
    </g>
    <g id="text_20">
     <!-- Multimodal - Clinical (Diff: 0.0189) -->
     <g transform="translate(510.77 40.43625) scale(0.1 -0.1)">
      <defs>
       <path id="DejaVuSans-3a" d="M 750 794 
L 1409 794 
L 1409 0 
L 750 0 
L 750 794 
z
M 750 3309 
L 1409 3309 
L 1409 2516 
L 750 2516 
L 750 3309 
z
" transform="scale(0.015625)"/>
       <path id="DejaVuSans-39" d="M 703 97 
L 703 672 
Q 941 559 1184 500 
Q 1428 441 1663 441 
Q 2288 441 2617 861 
Q 2947 1281 2994 2138 
Q 2813 1869 2534 1725 
Q 2256 1581 1919 1581 
Q 1219 1581 811 2004 
Q 403 2428 403 3163 
Q 403 3881 828 4315 
Q 1253 4750 1959 4750 
Q 2769 4750 3195 4129 
Q 3622 3509 3622 2328 
Q 3622 1225 3098 567 
Q 2575 -91 1691 -91 
Q 1453 -91 1209 -44 
Q 966 3 703 97 
z
M 1959 2075 
Q 2384 2075 2632 2365 
Q 2881 2656 2881 3163 
Q 2881 3666 2632 3958 
Q 2384 4250 1959 4250 
Q 1534 4250 1286 3958 
Q 1038 3666 1038 3163 
Q 1038 2656 1286 2365 
Q 1534 2075 1959 2075 
z
" transform="scale(0.015625)"/>
      </defs>
      <use xlink:href="#DejaVuSans-4d"/>
      <use xlink:href="#DejaVuSans-75" transform="translate(86.279297 0)"/>
      <use xlink:href="#DejaVuSans-6c" transform="translate(149.658203 0)"/>
      <use xlink:href="#DejaVuSans-74" transform="translate(177.441406 0)"/>
      <use xlink:href="#DejaVuSans-69" transform="translate(216.650391 0)"/>
      <use xlink:href="#DejaVuSans-6d" transform="translate(244.433594 0)"/>
      <use xlink:href="#DejaVuSans-6f" transform="translate(341.845703 0)"/>
      <use xlink:href="#DejaVuSans-64" transform="translate(403.027344 0)"/>
      <use xlink:href="#DejaVuSans-61" transform="translate(466.503906 0)"/>
      <use xlink:href="#DejaVuSans-6c" transform="translate(527.783203 0)"/>
      <use xlink:href="#DejaVuSans-20" transform="translate(555.566406 0)"/>
      <use xlink:href="#DejaVuSans-2d" transform="translate(587.353516 0)"/>
      <use xlink:href="#DejaVuSans-20" transform="translate(623.4375 0)"/>
      <use xlink:href="#DejaVuSans-43" transform="translate(655.224609 0)"/>
      <use xlink:href="#DejaVuSans-6c" transform="translate(725.048828 0)"/>
      <use xlink:href="#DejaVuSans-69" transform="translate(752.832031 0)"/>
      <use xlink:href="#DejaVuSans-6e" transform="translate(780.615234 0)"/>
      <use xlink:href="#DejaVuSans-69" transform="translate(843.994141 0)"/>
      <use xlink:href="#DejaVuSans-63" transform="translate(871.777344 0)"/>
      <use xlink:href="#DejaVuSans-61" transform="translate(926.757812 0)"/>
      <use xlink:href="#DejaVuSans-6c" transform="translate(988.037109 0)"/>
      <use xlink:href="#DejaVuSans-20" transform="translate(1015.820312 0)"/>
      <use xlink:href="#DejaVuSans-28" transform="translate(1047.607422 0)"/>
      <use xlink:href="#DejaVuSans-44" transform="translate(1086.621094 0)"/>
      <use xlink:href="#DejaVuSans-69" transform="translate(1163.623047 0)"/>
      <use xlink:href="#DejaVuSans-66" transform="translate(1191.40625 0)"/>
      <use xlink:href="#DejaVuSans-66" transform="translate(1226.611328 0)"/>
      <use xlink:href="#DejaVuSans-3a" transform="translate(1258.191406 0)"/>
      <use xlink:href="#DejaVuSans-20" transform="translate(1291.882812 0)"/>
      <use xlink:href="#DejaVuSans-30" transform="translate(1323.669922 0)"/>
      <use xlink:href="#DejaVuSans-2e" transform="translate(1387.292969 0)"/>
      <use xlink:href="#DejaVuSans-30" transform="translate(1419.080078 0)"/>
      <use xlink:href="#DejaVuSans-31" transform="translate(1482.703125 0)"/>
      <use xlink:href="#DejaVuSans-38" transform="translate(1546.326172 0)"/>
      <use xlink:href="#DejaVuSans-39" transform="translate(1609.949219 0)"/>
      <use xlink:href="#DejaVuSans-29" transform="translate(1673.572266 0)"/>
     </g>
    </g>
    <g id="line2d_43">
     <path d="M 482.77 51.614375 
L 492.77 51.614375 
L 502.77 51.614375 
" style="fill: none; stroke: #ff7f0e; stroke-width: 1.5; stroke-linecap: square"/>
    </g>
    <g id="text_21">
     <!-- Multimodal - Molecular (Diff: 0.0324) -->
     <g transform="translate(510.77 55.114375) scale(0.1 -0.1)">
      <use xlink:href="#DejaVuSans-4d"/>
      <use xlink:href="#DejaVuSans-75" transform="translate(86.279297 0)"/>
      <use xlink:href="#DejaVuSans-6c" transform="translate(149.658203 0)"/>
      <use xlink:href="#DejaVuSans-74" transform="translate(177.441406 0)"/>
      <use xlink:href="#DejaVuSans-69" transform="translate(216.650391 0)"/>
      <use xlink:href="#DejaVuSans-6d" transform="translate(244.433594 0)"/>
      <use xlink:href="#DejaVuSans-6f" transform="translate(341.845703 0)"/>
      <use xlink:href="#DejaVuSans-64" transform="translate(403.027344 0)"/>
      <use xlink:href="#DejaVuSans-61" transform="translate(466.503906 0)"/>
      <use xlink:href="#DejaVuSans-6c" transform="translate(527.783203 0)"/>
      <use xlink:href="#DejaVuSans-20" transform="translate(555.566406 0)"/>
      <use xlink:href="#DejaVuSans-2d" transform="translate(587.353516 0)"/>
      <use xlink:href="#DejaVuSans-20" transform="translate(623.4375 0)"/>
      <use xlink:href="#DejaVuSans-4d" transform="translate(655.224609 0)"/>
      <use xlink:href="#DejaVuSans-6f" transform="translate(741.503906 0)"/>
      <use xlink:href="#DejaVuSans-6c" transform="translate(802.685547 0)"/>
      <use xlink:href="#DejaVuSans-65" transform="translate(830.46875 0)"/>
      <use xlink:href="#DejaVuSans-63" transform="translate(891.992188 0)"/>
      <use xlink:href="#DejaVuSans-75" transform="translate(946.972656 0)"/>
      <use xlink:href="#DejaVuSans-6c" transform="translate(1010.351562 0)"/>
      <use xlink:href="#DejaVuSans-61" transform="translate(1038.134766 0)"/>
      <use xlink:href="#DejaVuSans-72" transform="translate(1099.414062 0)"/>
      <use xlink:href="#DejaVuSans-20" transform="translate(1140.527344 0)"/>
      <use xlink:href="#DejaVuSans-28" transform="translate(1172.314453 0)"/>
      <use xlink:href="#DejaVuSans-44" transform="translate(1211.328125 0)"/>
      <use xlink:href="#DejaVuSans-69" transform="translate(1288.330078 0)"/>
      <use xlink:href="#DejaVuSans-66" transform="translate(1316.113281 0)"/>
      <use xlink:href="#DejaVuSans-66" transform="translate(1351.318359 0)"/>
      <use xlink:href="#DejaVuSans-3a" transform="translate(1382.898438 0)"/>
      <use xlink:href="#DejaVuSans-20" transform="translate(1416.589844 0)"/>
      <use xlink:href="#DejaVuSans-30" transform="translate(1448.376953 0)"/>
      <use xlink:href="#DejaVuSans-2e" transform="translate(1512 0)"/>
      <use xlink:href="#DejaVuSans-30" transform="translate(1543.787109 0)"/>
      <use xlink:href="#DejaVuSans-33" transform="translate(1607.410156 0)"/>
      <use xlink:href="#DejaVuSans-32" transform="translate(1671.033203 0)"/>
      <use xlink:href="#DejaVuSans-34" transform="translate(1734.65625 0)"/>
      <use xlink:href="#DejaVuSans-29" transform="translate(1798.279297 0)"/>
     </g>
    </g>
    <g id="line2d_44">
     <path d="M 482.77 66.2925 
L 492.77 66.2925 
L 502.77 66.2925 
" style="fill: none; stroke: #2ca02c; stroke-width: 1.5; stroke-linecap: square"/>
    </g>
    <g id="text_22">
     <!-- Multimodal - Pathology (Diff: 0.0662) -->
     <g transform="translate(510.77 69.7925) scale(0.1 -0.1)">
      <defs>
       <path id="DejaVuSans-50" d="M 1259 4147 
L 1259 2394 
L 2053 2394 
Q 2494 2394 2734 2622 
Q 2975 2850 2975 3272 
Q 2975 3691 2734 3919 
Q 2494 4147 2053 4147 
L 1259 4147 
z
M 628 4666 
L 2053 4666 
Q 2838 4666 3239 4311 
Q 3641 3956 3641 3272 
Q 3641 2581 3239 2228 
Q 2838 1875 2053 1875 
L 1259 1875 
L 1259 0 
L 628 0 
L 628 4666 
z
" transform="scale(0.015625)"/>
       <path id="DejaVuSans-67" d="M 2906 1791 
Q 2906 2416 2648 2759 
Q 2391 3103 1925 3103 
Q 1463 3103 1205 2759 
Q 947 2416 947 1791 
Q 947 1169 1205 825 
Q 1463 481 1925 481 
Q 2391 481 2648 825 
Q 2906 1169 2906 1791 
z
M 3481 434 
Q 3481 -459 3084 -895 
Q 2688 -1331 1869 -1331 
Q 1566 -1331 1297 -1286 
Q 1028 -1241 775 -1147 
L 775 -588 
Q 1028 -725 1275 -790 
Q 1522 -856 1778 -856 
Q 2344 -856 2625 -561 
Q 2906 -266 2906 331 
L 2906 616 
Q 2728 306 2450 153 
Q 2172 0 1784 0 
Q 1141 0 747 490 
Q 353 981 353 1791 
Q 353 2603 747 3093 
Q 1141 3584 1784 3584 
Q 2172 3584 2450 3431 
Q 2728 3278 2906 2969 
L 2906 3500 
L 3481 3500 
L 3481 434 
z
" transform="scale(0.015625)"/>
      </defs>
      <use xlink:href="#DejaVuSans-4d"/>
      <use xlink:href="#DejaVuSans-75" transform="translate(86.279297 0)"/>
      <use xlink:href="#DejaVuSans-6c" transform="translate(149.658203 0)"/>
      <use xlink:href="#DejaVuSans-74" transform="translate(177.441406 0)"/>
      <use xlink:href="#DejaVuSans-69" transform="translate(216.650391 0)"/>
      <use xlink:href="#DejaVuSans-6d" transform="translate(244.433594 0)"/>
      <use xlink:href="#DejaVuSans-6f" transform="translate(341.845703 0)"/>
      <use xlink:href="#DejaVuSans-64" transform="translate(403.027344 0)"/>
      <use xlink:href="#DejaVuSans-61" transform="translate(466.503906 0)"/>
      <use xlink:href="#DejaVuSans-6c" transform="translate(527.783203 0)"/>
      <use xlink:href="#DejaVuSans-20" transform="translate(555.566406 0)"/>
      <use xlink:href="#DejaVuSans-2d" transform="translate(587.353516 0)"/>
      <use xlink:href="#DejaVuSans-20" transform="translate(623.4375 0)"/>
      <use xlink:href="#DejaVuSans-50" transform="translate(655.224609 0)"/>
      <use xlink:href="#DejaVuSans-61" transform="translate(711.027344 0)"/>
      <use xlink:href="#DejaVuSans-74" transform="translate(772.306641 0)"/>
      <use xlink:href="#DejaVuSans-68" transform="translate(811.515625 0)"/>
      <use xlink:href="#DejaVuSans-6f" transform="translate(874.894531 0)"/>
      <use xlink:href="#DejaVuSans-6c" transform="translate(936.076172 0)"/>
      <use xlink:href="#DejaVuSans-6f" transform="translate(963.859375 0)"/>
      <use xlink:href="#DejaVuSans-67" transform="translate(1025.041016 0)"/>
      <use xlink:href="#DejaVuSans-79" transform="translate(1088.517578 0)"/>
      <use xlink:href="#DejaVuSans-20" transform="translate(1147.697266 0)"/>
      <use xlink:href="#DejaVuSans-28" transform="translate(1179.484375 0)"/>
      <use xlink:href="#DejaVuSans-44" transform="translate(1218.498047 0)"/>
      <use xlink:href="#DejaVuSans-69" transform="translate(1295.5 0)"/>
      <use xlink:href="#DejaVuSans-66" transform="translate(1323.283203 0)"/>
      <use xlink:href="#DejaVuSans-66" transform="translate(1358.488281 0)"/>
      <use xlink:href="#DejaVuSans-3a" transform="translate(1390.068359 0)"/>
      <use xlink:href="#DejaVuSans-20" transform="translate(1423.759766 0)"/>
      <use xlink:href="#DejaVuSans-30" transform="translate(1455.546875 0)"/>
      <use xlink:href="#DejaVuSans-2e" transform="translate(1519.169922 0)"/>
      <use xlink:href="#DejaVuSans-30" transform="translate(1550.957031 0)"/>
      <use xlink:href="#DejaVuSans-36" transform="translate(1614.580078 0)"/>
      <use xlink:href="#DejaVuSans-36" transform="translate(1678.203125 0)"/>
      <use xlink:href="#DejaVuSans-32" transform="translate(1741.826172 0)"/>
      <use xlink:href="#DejaVuSans-29" transform="translate(1805.449219 0)"/>
     </g>
    </g>
    <g id="line2d_45">
     <path d="M 482.77 80.970625 
L 492.77 80.970625 
L 502.77 80.970625 
" style="fill: none; stroke: #d62728; stroke-width: 1.5; stroke-linecap: square"/>
    </g>
    <g id="text_23">
     <!-- Multimodal - Radiology (Diff: 0.1338) -->
     <g transform="translate(510.77 84.470625) scale(0.1 -0.1)">
      <defs>
       <path id="DejaVuSans-52" d="M 2841 2188 
Q 3044 2119 3236 1894 
Q 3428 1669 3622 1275 
L 4263 0 
L 3584 0 
L 2988 1197 
Q 2756 1666 2539 1819 
Q 2322 1972 1947 1972 
L 1259 1972 
L 1259 0 
L 628 0 
L 628 4666 
L 2053 4666 
Q 2853 4666 3247 4331 
Q 3641 3997 3641 3322 
Q 3641 2881 3436 2590 
Q 3231 2300 2841 2188 
z
M 1259 4147 
L 1259 2491 
L 2053 2491 
Q 2509 2491 2742 2702 
Q 2975 2913 2975 3322 
Q 2975 3731 2742 3939 
Q 2509 4147 2053 4147 
L 1259 4147 
z
" transform="scale(0.015625)"/>
      </defs>
      <use xlink:href="#DejaVuSans-4d"/>
      <use xlink:href="#DejaVuSans-75" transform="translate(86.279297 0)"/>
      <use xlink:href="#DejaVuSans-6c" transform="translate(149.658203 0)"/>
      <use xlink:href="#DejaVuSans-74" transform="translate(177.441406 0)"/>
      <use xlink:href="#DejaVuSans-69" transform="translate(216.650391 0)"/>
      <use xlink:href="#DejaVuSans-6d" transform="translate(244.433594 0)"/>
      <use xlink:href="#DejaVuSans-6f" transform="translate(341.845703 0)"/>
      <use xlink:href="#DejaVuSans-64" transform="translate(403.027344 0)"/>
      <use xlink:href="#DejaVuSans-61" transform="translate(466.503906 0)"/>
      <use xlink:href="#DejaVuSans-6c" transform="translate(527.783203 0)"/>
      <use xlink:href="#DejaVuSans-20" transform="translate(555.566406 0)"/>
      <use xlink:href="#DejaVuSans-2d" transform="translate(587.353516 0)"/>
      <use xlink:href="#DejaVuSans-20" transform="translate(623.4375 0)"/>
      <use xlink:href="#DejaVuSans-52" transform="translate(655.224609 0)"/>
      <use xlink:href="#DejaVuSans-61" transform="translate(722.457031 0)"/>
      <use xlink:href="#DejaVuSans-64" transform="translate(783.736328 0)"/>
      <use xlink:href="#DejaVuSans-69" transform="translate(847.212891 0)"/>
      <use xlink:href="#DejaVuSans-6f" transform="translate(874.996094 0)"/>
      <use xlink:href="#DejaVuSans-6c" transform="translate(936.177734 0)"/>
      <use xlink:href="#DejaVuSans-6f" transform="translate(963.960938 0)"/>
      <use xlink:href="#DejaVuSans-67" transform="translate(1025.142578 0)"/>
      <use xlink:href="#DejaVuSans-79" transform="translate(1088.619141 0)"/>
      <use xlink:href="#DejaVuSans-20" transform="translate(1147.798828 0)"/>
      <use xlink:href="#DejaVuSans-28" transform="translate(1179.585938 0)"/>
      <use xlink:href="#DejaVuSans-44" transform="translate(1218.599609 0)"/>
      <use xlink:href="#DejaVuSans-69" transform="translate(1295.601562 0)"/>
      <use xlink:href="#DejaVuSans-66" transform="translate(1323.384766 0)"/>
      <use xlink:href="#DejaVuSans-66" transform="translate(1358.589844 0)"/>
      <use xlink:href="#DejaVuSans-3a" transform="translate(1390.169922 0)"/>
      <use xlink:href="#DejaVuSans-20" transform="translate(1423.861328 0)"/>
      <use xlink:href="#DejaVuSans-30" transform="translate(1455.648438 0)"/>
      <use xlink:href="#DejaVuSans-2e" transform="translate(1519.271484 0)"/>
      <use xlink:href="#DejaVuSans-31" transform="translate(1551.058594 0)"/>
      <use xlink:href="#DejaVuSans-33" transform="translate(1614.681641 0)"/>
      <use xlink:href="#DejaVuSans-33" transform="translate(1678.304688 0)"/>
      <use xlink:href="#DejaVuSans-38" transform="translate(1741.927734 0)"/>
      <use xlink:href="#DejaVuSans-29" transform="translate(1805.550781 0)"/>
     </g>
    </g>
    <g id="line2d_46">
     <path d="M 482.77 95.64875 
L 492.77 95.64875 
L 502.77 95.64875 
" style="fill: none; stroke-dasharray: 1.5,2.475; stroke-dashoffset: 0; stroke: #000000; stroke-width: 1.5"/>
    </g>
    <g id="text_24">
     <!-- No difference -->
     <g transform="translate(510.77 99.14875) scale(0.1 -0.1)">
      <defs>
       <path id="DejaVuSans-4e" d="M 628 4666 
L 1478 4666 
L 3547 763 
L 3547 4666 
L 4159 4666 
L 4159 0 
L 3309 0 
L 1241 3903 
L 1241 0 
L 628 0 
L 628 4666 
z
" transform="scale(0.015625)"/>
      </defs>
      <use xlink:href="#DejaVuSans-4e"/>
      <use xlink:href="#DejaVuSans-6f" transform="translate(74.804688 0)"/>
      <use xlink:href="#DejaVuSans-20" transform="translate(135.986328 0)"/>
      <use xlink:href="#DejaVuSans-64" transform="translate(167.773438 0)"/>
      <use xlink:href="#DejaVuSans-69" transform="translate(231.25 0)"/>
      <use xlink:href="#DejaVuSans-66" transform="translate(259.033203 0)"/>
      <use xlink:href="#DejaVuSans-66" transform="translate(294.238281 0)"/>
      <use xlink:href="#DejaVuSans-65" transform="translate(329.443359 0)"/>
      <use xlink:href="#DejaVuSans-72" transform="translate(390.966797 0)"/>
      <use xlink:href="#DejaVuSans-65" transform="translate(429.830078 0)"/>
      <use xlink:href="#DejaVuSans-6e" transform="translate(491.353516 0)"/>
      <use xlink:href="#DejaVuSans-63" transform="translate(554.732422 0)"/>
      <use xlink:href="#DejaVuSans-65" transform="translate(609.712891 0)"/>
     </g>
    </g>
   </g>
  </g>
 </g>
 <defs>
  <clipPath id="p49c744f603">
   <rect x="36.17625" y="23.837812" width="668.05" height="359.56"/>
  </clipPath>
 </defs>
</svg>
