<?xml version="1.0" encoding="utf-8" standalone="no"?>
<!DOCTYPE svg PUBLIC "-//W3C//DTD SVG 1.1//EN"
  "http://www.w3.org/Graphics/SVG/1.1/DTD/svg11.dtd">
<svg xmlns:xlink="http://www.w3.org/1999/xlink" width="711.433001pt" height="422.889687pt" viewBox="0 0 711.433001 422.889687" xmlns="http://www.w3.org/2000/svg" version="1.1">
 <metadata>
  <rdf:RDF xmlns:dc="http://purl.org/dc/elements/1.1/" xmlns:cc="http://creativecommons.org/ns#" xmlns:rdf="http://www.w3.org/1999/02/22-rdf-syntax-ns#">
   <cc:Work>
    <dc:type rdf:resource="http://purl.org/dc/dcmitype/StillImage"/>
    <dc:date>2025-04-03T13:02:19.656713</dc:date>
    <dc:format>image/svg+xml</dc:format>
    <dc:creator>
     <cc:Agent>
      <dc:title>Matplotlib v3.10.0, https://matplotlib.org/</dc:title>
     </cc:Agent>
    </dc:creator>
   </cc:Work>
  </rdf:RDF>
 </metadata>
 <defs>
  <style type="text/css">*{stroke-linejoin: round; stroke-linecap: butt}</style>
 </defs>
 <g id="figure_1">
  <g id="patch_1">
   <path d="M 0 422.889687 
L 711.433001 422.889687 
L 711.433001 0 
L 0 0 
z
" style="fill: #ffffff"/>
  </g>
  <g id="axes_1">
   <g id="patch_2">
    <path d="M 36.17625 383.397812 
L 696.441631 383.397812 
L 696.441631 23.837812 
L 36.17625 23.837812 
z
" style="fill: #ffffff"/>
   </g>
   <g id="matplotlib.axis_1">
    <g id="xtick_1">
     <g id="line2d_1">
      <path d="M 124.468939 383.397812 
L 124.468939 23.837812 
" clip-path="url(#pd47a502cd5)" style="fill: none; stroke: #b0b0b0; stroke-opacity: 0.3; stroke-width: 0.8; stroke-linecap: square"/>
     </g>
     <g id="line2d_2">
      <defs>
       <path id="meff8e046e8" d="M 0 0 
L 0 3.5 
" style="stroke: #000000; stroke-width: 0.8"/>
      </defs>
      <g>
       <use xlink:href="#meff8e046e8" x="124.468939" y="383.397812" style="stroke: #000000; stroke-width: 0.8"/>
      </g>
     </g>
     <g id="text_1">
      <!-- 0.4 -->
      <g transform="translate(116.517377 397.99625) scale(0.1 -0.1)">
       <defs>
        <path id="DejaVuSans-30" d="M 2034 4250 
Q 1547 4250 1301 3770 
Q 1056 3291 1056 2328 
Q 1056 1369 1301 889 
Q 1547 409 2034 409 
Q 2525 409 2770 889 
Q 3016 1369 3016 2328 
Q 3016 3291 2770 3770 
Q 2525 4250 2034 4250 
z
M 2034 4750 
Q 2819 4750 3233 4129 
Q 3647 3509 3647 2328 
Q 3647 1150 3233 529 
Q 2819 -91 2034 -91 
Q 1250 -91 836 529 
Q 422 1150 422 2328 
Q 422 3509 836 4129 
Q 1250 4750 2034 4750 
z
" transform="scale(0.015625)"/>
        <path id="DejaVuSans-2e" d="M 684 794 
L 1344 794 
L 1344 0 
L 684 0 
L 684 794 
z
" transform="scale(0.015625)"/>
        <path id="DejaVuSans-34" d="M 2419 4116 
L 825 1625 
L 2419 1625 
L 2419 4116 
z
M 2253 4666 
L 3047 4666 
L 3047 1625 
L 3713 1625 
L 3713 1100 
L 3047 1100 
L 3047 0 
L 2419 0 
L 2419 1100 
L 313 1100 
L 313 1709 
L 2253 4666 
z
" transform="scale(0.015625)"/>
       </defs>
       <use xlink:href="#DejaVuSans-30"/>
       <use xlink:href="#DejaVuSans-2e" transform="translate(63.623047 0)"/>
       <use xlink:href="#DejaVuSans-34" transform="translate(95.410156 0)"/>
      </g>
     </g>
    </g>
    <g id="xtick_2">
     <g id="line2d_3">
      <path d="M 238.831439 383.397812 
L 238.831439 23.837812 
" clip-path="url(#pd47a502cd5)" style="fill: none; stroke: #b0b0b0; stroke-opacity: 0.3; stroke-width: 0.8; stroke-linecap: square"/>
     </g>
     <g id="line2d_4">
      <g>
       <use xlink:href="#meff8e046e8" x="238.831439" y="383.397812" style="stroke: #000000; stroke-width: 0.8"/>
      </g>
     </g>
     <g id="text_2">
      <!-- 0.5 -->
      <g transform="translate(230.879876 397.99625) scale(0.1 -0.1)">
       <defs>
        <path id="DejaVuSans-35" d="M 691 4666 
L 3169 4666 
L 3169 4134 
L 1269 4134 
L 1269 2991 
Q 1406 3038 1543 3061 
Q 1681 3084 1819 3084 
Q 2600 3084 3056 2656 
Q 3513 2228 3513 1497 
Q 3513 744 3044 326 
Q 2575 -91 1722 -91 
Q 1428 -91 1123 -41 
Q 819 9 494 109 
L 494 744 
Q 775 591 1075 516 
Q 1375 441 1709 441 
Q 2250 441 2565 725 
Q 2881 1009 2881 1497 
Q 2881 1984 2565 2268 
Q 2250 2553 1709 2553 
Q 1456 2553 1204 2497 
Q 953 2441 691 2322 
L 691 4666 
z
" transform="scale(0.015625)"/>
       </defs>
       <use xlink:href="#DejaVuSans-30"/>
       <use xlink:href="#DejaVuSans-2e" transform="translate(63.623047 0)"/>
       <use xlink:href="#DejaVuSans-35" transform="translate(95.410156 0)"/>
      </g>
     </g>
    </g>
    <g id="xtick_3">
     <g id="line2d_5">
      <path d="M 353.193939 383.397812 
L 353.193939 23.837812 
" clip-path="url(#pd47a502cd5)" style="fill: none; stroke: #b0b0b0; stroke-opacity: 0.3; stroke-width: 0.8; stroke-linecap: square"/>
     </g>
     <g id="line2d_6">
      <g>
       <use xlink:href="#meff8e046e8" x="353.193939" y="383.397812" style="stroke: #000000; stroke-width: 0.8"/>
      </g>
     </g>
     <g id="text_3">
      <!-- 0.6 -->
      <g transform="translate(345.242376 397.99625) scale(0.1 -0.1)">
       <defs>
        <path id="DejaVuSans-36" d="M 2113 2584 
Q 1688 2584 1439 2293 
Q 1191 2003 1191 1497 
Q 1191 994 1439 701 
Q 1688 409 2113 409 
Q 2538 409 2786 701 
Q 3034 994 3034 1497 
Q 3034 2003 2786 2293 
Q 2538 2584 2113 2584 
z
M 3366 4563 
L 3366 3988 
Q 3128 4100 2886 4159 
Q 2644 4219 2406 4219 
Q 1781 4219 1451 3797 
Q 1122 3375 1075 2522 
Q 1259 2794 1537 2939 
Q 1816 3084 2150 3084 
Q 2853 3084 3261 2657 
Q 3669 2231 3669 1497 
Q 3669 778 3244 343 
Q 2819 -91 2113 -91 
Q 1303 -91 875 529 
Q 447 1150 447 2328 
Q 447 3434 972 4092 
Q 1497 4750 2381 4750 
Q 2619 4750 2861 4703 
Q 3103 4656 3366 4563 
z
" transform="scale(0.015625)"/>
       </defs>
       <use xlink:href="#DejaVuSans-30"/>
       <use xlink:href="#DejaVuSans-2e" transform="translate(63.623047 0)"/>
       <use xlink:href="#DejaVuSans-36" transform="translate(95.410156 0)"/>
      </g>
     </g>
    </g>
    <g id="xtick_4">
     <g id="line2d_7">
      <path d="M 467.556439 383.397812 
L 467.556439 23.837812 
" clip-path="url(#pd47a502cd5)" style="fill: none; stroke: #b0b0b0; stroke-opacity: 0.3; stroke-width: 0.8; stroke-linecap: square"/>
     </g>
     <g id="line2d_8">
      <g>
       <use xlink:href="#meff8e046e8" x="467.556439" y="383.397812" style="stroke: #000000; stroke-width: 0.8"/>
      </g>
     </g>
     <g id="text_4">
      <!-- 0.7 -->
      <g transform="translate(459.604876 397.99625) scale(0.1 -0.1)">
       <defs>
        <path id="DejaVuSans-37" d="M 525 4666 
L 3525 4666 
L 3525 4397 
L 1831 0 
L 1172 0 
L 2766 4134 
L 525 4134 
L 525 4666 
z
" transform="scale(0.015625)"/>
       </defs>
       <use xlink:href="#DejaVuSans-30"/>
       <use xlink:href="#DejaVuSans-2e" transform="translate(63.623047 0)"/>
       <use xlink:href="#DejaVuSans-37" transform="translate(95.410156 0)"/>
      </g>
     </g>
    </g>
    <g id="xtick_5">
     <g id="line2d_9">
      <path d="M 581.918939 383.397812 
L 581.918939 23.837812 
" clip-path="url(#pd47a502cd5)" style="fill: none; stroke: #b0b0b0; stroke-opacity: 0.3; stroke-width: 0.8; stroke-linecap: square"/>
     </g>
     <g id="line2d_10">
      <g>
       <use xlink:href="#meff8e046e8" x="581.918939" y="383.397812" style="stroke: #000000; stroke-width: 0.8"/>
      </g>
     </g>
     <g id="text_5">
      <!-- 0.8 -->
      <g transform="translate(573.967376 397.99625) scale(0.1 -0.1)">
       <defs>
        <path id="DejaVuSans-38" d="M 2034 2216 
Q 1584 2216 1326 1975 
Q 1069 1734 1069 1313 
Q 1069 891 1326 650 
Q 1584 409 2034 409 
Q 2484 409 2743 651 
Q 3003 894 3003 1313 
Q 3003 1734 2745 1975 
Q 2488 2216 2034 2216 
z
M 1403 2484 
Q 997 2584 770 2862 
Q 544 3141 544 3541 
Q 544 4100 942 4425 
Q 1341 4750 2034 4750 
Q 2731 4750 3128 4425 
Q 3525 4100 3525 3541 
Q 3525 3141 3298 2862 
Q 3072 2584 2669 2484 
Q 3125 2378 3379 2068 
Q 3634 1759 3634 1313 
Q 3634 634 3220 271 
Q 2806 -91 2034 -91 
Q 1263 -91 848 271 
Q 434 634 434 1313 
Q 434 1759 690 2068 
Q 947 2378 1403 2484 
z
M 1172 3481 
Q 1172 3119 1398 2916 
Q 1625 2713 2034 2713 
Q 2441 2713 2670 2916 
Q 2900 3119 2900 3481 
Q 2900 3844 2670 4047 
Q 2441 4250 2034 4250 
Q 1625 4250 1398 4047 
Q 1172 3844 1172 3481 
z
" transform="scale(0.015625)"/>
       </defs>
       <use xlink:href="#DejaVuSans-30"/>
       <use xlink:href="#DejaVuSans-2e" transform="translate(63.623047 0)"/>
       <use xlink:href="#DejaVuSans-38" transform="translate(95.410156 0)"/>
      </g>
     </g>
    </g>
    <g id="xtick_6">
     <g id="line2d_11">
      <path d="M 696.281438 383.397812 
L 696.281438 23.837812 
" clip-path="url(#pd47a502cd5)" style="fill: none; stroke: #b0b0b0; stroke-opacity: 0.3; stroke-width: 0.8; stroke-linecap: square"/>
     </g>
     <g id="line2d_12">
      <g>
       <use xlink:href="#meff8e046e8" x="696.281438" y="383.397812" style="stroke: #000000; stroke-width: 0.8"/>
      </g>
     </g>
     <g id="text_6">
      <!-- 0.9 -->
      <g transform="translate(688.329876 397.99625) scale(0.1 -0.1)">
       <defs>
        <path id="DejaVuSans-39" d="M 703 97 
L 703 672 
Q 941 559 1184 500 
Q 1428 441 1663 441 
Q 2288 441 2617 861 
Q 2947 1281 2994 2138 
Q 2813 1869 2534 1725 
Q 2256 1581 1919 1581 
Q 1219 1581 811 2004 
Q 403 2428 403 3163 
Q 403 3881 828 4315 
Q 1253 4750 1959 4750 
Q 2769 4750 3195 4129 
Q 3622 3509 3622 2328 
Q 3622 1225 3098 567 
Q 2575 -91 1691 -91 
Q 1453 -91 1209 -44 
Q 966 3 703 97 
z
M 1959 2075 
Q 2384 2075 2632 2365 
Q 2881 2656 2881 3163 
Q 2881 3666 2632 3958 
Q 2384 4250 1959 4250 
Q 1534 4250 1286 3958 
Q 1038 3666 1038 3163 
Q 1038 2656 1286 2365 
Q 1534 2075 1959 2075 
z
" transform="scale(0.015625)"/>
       </defs>
       <use xlink:href="#DejaVuSans-30"/>
       <use xlink:href="#DejaVuSans-2e" transform="translate(63.623047 0)"/>
       <use xlink:href="#DejaVuSans-39" transform="translate(95.410156 0)"/>
      </g>
     </g>
    </g>
    <g id="text_7">
     <!-- C-index -->
     <g transform="translate(343.538003 413.194062) scale(0.12 -0.12)">
      <defs>
       <path id="DejaVuSans-43" d="M 4122 4306 
L 4122 3641 
Q 3803 3938 3442 4084 
Q 3081 4231 2675 4231 
Q 1875 4231 1450 3742 
Q 1025 3253 1025 2328 
Q 1025 1406 1450 917 
Q 1875 428 2675 428 
Q 3081 428 3442 575 
Q 3803 722 4122 1019 
L 4122 359 
Q 3791 134 3420 21 
Q 3050 -91 2638 -91 
Q 1578 -91 968 557 
Q 359 1206 359 2328 
Q 359 3453 968 4101 
Q 1578 4750 2638 4750 
Q 3056 4750 3426 4639 
Q 3797 4528 4122 4306 
z
" transform="scale(0.015625)"/>
       <path id="DejaVuSans-2d" d="M 313 2009 
L 1997 2009 
L 1997 1497 
L 313 1497 
L 313 2009 
z
" transform="scale(0.015625)"/>
       <path id="DejaVuSans-69" d="M 603 3500 
L 1178 3500 
L 1178 0 
L 603 0 
L 603 3500 
z
M 603 4863 
L 1178 4863 
L 1178 4134 
L 603 4134 
L 603 4863 
z
" transform="scale(0.015625)"/>
       <path id="DejaVuSans-6e" d="M 3513 2113 
L 3513 0 
L 2938 0 
L 2938 2094 
Q 2938 2591 2744 2837 
Q 2550 3084 2163 3084 
Q 1697 3084 1428 2787 
Q 1159 2491 1159 1978 
L 1159 0 
L 581 0 
L 581 3500 
L 1159 3500 
L 1159 2956 
Q 1366 3272 1645 3428 
Q 1925 3584 2291 3584 
Q 2894 3584 3203 3211 
Q 3513 2838 3513 2113 
z
" transform="scale(0.015625)"/>
       <path id="DejaVuSans-64" d="M 2906 2969 
L 2906 4863 
L 3481 4863 
L 3481 0 
L 2906 0 
L 2906 525 
Q 2725 213 2448 61 
Q 2172 -91 1784 -91 
Q 1150 -91 751 415 
Q 353 922 353 1747 
Q 353 2572 751 3078 
Q 1150 3584 1784 3584 
Q 2172 3584 2448 3432 
Q 2725 3281 2906 2969 
z
M 947 1747 
Q 947 1113 1208 752 
Q 1469 391 1925 391 
Q 2381 391 2643 752 
Q 2906 1113 2906 1747 
Q 2906 2381 2643 2742 
Q 2381 3103 1925 3103 
Q 1469 3103 1208 2742 
Q 947 2381 947 1747 
z
" transform="scale(0.015625)"/>
       <path id="DejaVuSans-65" d="M 3597 1894 
L 3597 1613 
L 953 1613 
Q 991 1019 1311 708 
Q 1631 397 2203 397 
Q 2534 397 2845 478 
Q 3156 559 3463 722 
L 3463 178 
Q 3153 47 2828 -22 
Q 2503 -91 2169 -91 
Q 1331 -91 842 396 
Q 353 884 353 1716 
Q 353 2575 817 3079 
Q 1281 3584 2069 3584 
Q 2775 3584 3186 3129 
Q 3597 2675 3597 1894 
z
M 3022 2063 
Q 3016 2534 2758 2815 
Q 2500 3097 2075 3097 
Q 1594 3097 1305 2825 
Q 1016 2553 972 2059 
L 3022 2063 
z
" transform="scale(0.015625)"/>
       <path id="DejaVuSans-78" d="M 3513 3500 
L 2247 1797 
L 3578 0 
L 2900 0 
L 1881 1375 
L 863 0 
L 184 0 
L 1544 1831 
L 300 3500 
L 978 3500 
L 1906 2253 
L 2834 3500 
L 3513 3500 
z
" transform="scale(0.015625)"/>
      </defs>
      <use xlink:href="#DejaVuSans-43"/>
      <use xlink:href="#DejaVuSans-2d" transform="translate(69.824219 0)"/>
      <use xlink:href="#DejaVuSans-69" transform="translate(105.908203 0)"/>
      <use xlink:href="#DejaVuSans-6e" transform="translate(133.691406 0)"/>
      <use xlink:href="#DejaVuSans-64" transform="translate(197.070312 0)"/>
      <use xlink:href="#DejaVuSans-65" transform="translate(260.546875 0)"/>
      <use xlink:href="#DejaVuSans-78" transform="translate(320.320312 0)"/>
     </g>
    </g>
   </g>
   <g id="matplotlib.axis_2">
    <g id="ytick_1">
     <g id="line2d_13">
      <path d="M 36.17625 383.397812 
L 696.441631 383.397812 
" clip-path="url(#pd47a502cd5)" style="fill: none; stroke: #b0b0b0; stroke-opacity: 0.3; stroke-width: 0.8; stroke-linecap: square"/>
     </g>
     <g id="line2d_14">
      <defs>
       <path id="m1deaf9c1e4" d="M 0 0 
L -3.5 0 
" style="stroke: #000000; stroke-width: 0.8"/>
      </defs>
      <g>
       <use xlink:href="#m1deaf9c1e4" x="36.17625" y="383.397812" style="stroke: #000000; stroke-width: 0.8"/>
      </g>
     </g>
     <g id="text_8">
      <!-- 0 -->
      <g transform="translate(22.81375 387.197031) scale(0.1 -0.1)">
       <use xlink:href="#DejaVuSans-30"/>
      </g>
     </g>
    </g>
    <g id="ytick_2">
     <g id="line2d_15">
      <path d="M 36.17625 305.547328 
L 696.441631 305.547328 
" clip-path="url(#pd47a502cd5)" style="fill: none; stroke: #b0b0b0; stroke-opacity: 0.3; stroke-width: 0.8; stroke-linecap: square"/>
     </g>
     <g id="line2d_16">
      <g>
       <use xlink:href="#m1deaf9c1e4" x="36.17625" y="305.547328" style="stroke: #000000; stroke-width: 0.8"/>
      </g>
     </g>
     <g id="text_9">
      <!-- 2 -->
      <g transform="translate(22.81375 309.346547) scale(0.1 -0.1)">
       <defs>
        <path id="DejaVuSans-32" d="M 1228 531 
L 3431 531 
L 3431 0 
L 469 0 
L 469 531 
Q 828 903 1448 1529 
Q 2069 2156 2228 2338 
Q 2531 2678 2651 2914 
Q 2772 3150 2772 3378 
Q 2772 3750 2511 3984 
Q 2250 4219 1831 4219 
Q 1534 4219 1204 4116 
Q 875 4013 500 3803 
L 500 4441 
Q 881 4594 1212 4672 
Q 1544 4750 1819 4750 
Q 2544 4750 2975 4387 
Q 3406 4025 3406 3419 
Q 3406 3131 3298 2873 
Q 3191 2616 2906 2266 
Q 2828 2175 2409 1742 
Q 1991 1309 1228 531 
z
" transform="scale(0.015625)"/>
       </defs>
       <use xlink:href="#DejaVuSans-32"/>
      </g>
     </g>
    </g>
    <g id="ytick_3">
     <g id="line2d_17">
      <path d="M 36.17625 227.696844 
L 696.441631 227.696844 
" clip-path="url(#pd47a502cd5)" style="fill: none; stroke: #b0b0b0; stroke-opacity: 0.3; stroke-width: 0.8; stroke-linecap: square"/>
     </g>
     <g id="line2d_18">
      <g>
       <use xlink:href="#m1deaf9c1e4" x="36.17625" y="227.696844" style="stroke: #000000; stroke-width: 0.8"/>
      </g>
     </g>
     <g id="text_10">
      <!-- 4 -->
      <g transform="translate(22.81375 231.496063) scale(0.1 -0.1)">
       <use xlink:href="#DejaVuSans-34"/>
      </g>
     </g>
    </g>
    <g id="ytick_4">
     <g id="line2d_19">
      <path d="M 36.17625 149.84636 
L 696.441631 149.84636 
" clip-path="url(#pd47a502cd5)" style="fill: none; stroke: #b0b0b0; stroke-opacity: 0.3; stroke-width: 0.8; stroke-linecap: square"/>
     </g>
     <g id="line2d_20">
      <g>
       <use xlink:href="#m1deaf9c1e4" x="36.17625" y="149.84636" style="stroke: #000000; stroke-width: 0.8"/>
      </g>
     </g>
     <g id="text_11">
      <!-- 6 -->
      <g transform="translate(22.81375 153.645579) scale(0.1 -0.1)">
       <use xlink:href="#DejaVuSans-36"/>
      </g>
     </g>
    </g>
    <g id="ytick_5">
     <g id="line2d_21">
      <path d="M 36.17625 71.995876 
L 696.441631 71.995876 
" clip-path="url(#pd47a502cd5)" style="fill: none; stroke: #b0b0b0; stroke-opacity: 0.3; stroke-width: 0.8; stroke-linecap: square"/>
     </g>
     <g id="line2d_22">
      <g>
       <use xlink:href="#m1deaf9c1e4" x="36.17625" y="71.995876" style="stroke: #000000; stroke-width: 0.8"/>
      </g>
     </g>
     <g id="text_12">
      <!-- 8 -->
      <g transform="translate(22.81375 75.795095) scale(0.1 -0.1)">
       <use xlink:href="#DejaVuSans-38"/>
      </g>
     </g>
    </g>
    <g id="text_13">
     <!-- Density -->
     <g transform="translate(16.318125 226.428125) rotate(-90) scale(0.12 -0.12)">
      <defs>
       <path id="DejaVuSans-44" d="M 1259 4147 
L 1259 519 
L 2022 519 
Q 2988 519 3436 956 
Q 3884 1394 3884 2338 
Q 3884 3275 3436 3711 
Q 2988 4147 2022 4147 
L 1259 4147 
z
M 628 4666 
L 1925 4666 
Q 3281 4666 3915 4102 
Q 4550 3538 4550 2338 
Q 4550 1131 3912 565 
Q 3275 0 1925 0 
L 628 0 
L 628 4666 
z
" transform="scale(0.015625)"/>
       <path id="DejaVuSans-73" d="M 2834 3397 
L 2834 2853 
Q 2591 2978 2328 3040 
Q 2066 3103 1784 3103 
Q 1356 3103 1142 2972 
Q 928 2841 928 2578 
Q 928 2378 1081 2264 
Q 1234 2150 1697 2047 
L 1894 2003 
Q 2506 1872 2764 1633 
Q 3022 1394 3022 966 
Q 3022 478 2636 193 
Q 2250 -91 1575 -91 
Q 1294 -91 989 -36 
Q 684 19 347 128 
L 347 722 
Q 666 556 975 473 
Q 1284 391 1588 391 
Q 1994 391 2212 530 
Q 2431 669 2431 922 
Q 2431 1156 2273 1281 
Q 2116 1406 1581 1522 
L 1381 1569 
Q 847 1681 609 1914 
Q 372 2147 372 2553 
Q 372 3047 722 3315 
Q 1072 3584 1716 3584 
Q 2034 3584 2315 3537 
Q 2597 3491 2834 3397 
z
" transform="scale(0.015625)"/>
       <path id="DejaVuSans-74" d="M 1172 4494 
L 1172 3500 
L 2356 3500 
L 2356 3053 
L 1172 3053 
L 1172 1153 
Q 1172 725 1289 603 
Q 1406 481 1766 481 
L 2356 481 
L 2356 0 
L 1766 0 
Q 1100 0 847 248 
Q 594 497 594 1153 
L 594 3053 
L 172 3053 
L 172 3500 
L 594 3500 
L 594 4494 
L 1172 4494 
z
" transform="scale(0.015625)"/>
       <path id="DejaVuSans-79" d="M 2059 -325 
Q 1816 -950 1584 -1140 
Q 1353 -1331 966 -1331 
L 506 -1331 
L 506 -850 
L 844 -850 
Q 1081 -850 1212 -737 
Q 1344 -625 1503 -206 
L 1606 56 
L 191 3500 
L 800 3500 
L 1894 763 
L 2988 3500 
L 3597 3500 
L 2059 -325 
z
" transform="scale(0.015625)"/>
      </defs>
      <use xlink:href="#DejaVuSans-44"/>
      <use xlink:href="#DejaVuSans-65" transform="translate(77.001953 0)"/>
      <use xlink:href="#DejaVuSans-6e" transform="translate(138.525391 0)"/>
      <use xlink:href="#DejaVuSans-73" transform="translate(201.904297 0)"/>
      <use xlink:href="#DejaVuSans-69" transform="translate(254.003906 0)"/>
      <use xlink:href="#DejaVuSans-74" transform="translate(281.787109 0)"/>
      <use xlink:href="#DejaVuSans-79" transform="translate(320.996094 0)"/>
     </g>
    </g>
   </g>
   <g id="line2d_23">
    <path d="M 238.951586 383.379594 
L 248.561817 383.244729 
L 254.327955 382.981087 
L 260.094094 382.468563 
L 265.860232 381.685754 
L 277.392509 379.937449 
L 281.236601 379.554388 
L 287.00274 379.244194 
L 294.690924 378.900085 
L 298.535017 378.437023 
L 300.457063 378.060131 
L 302.379109 377.560138 
L 304.301155 376.919674 
L 306.223201 376.123884 
L 308.145247 375.160924 
L 310.067293 374.022413 
L 311.98934 372.703856 
L 313.911386 371.205043 
L 315.833432 369.530395 
L 319.677524 365.69566 
L 323.521616 361.330506 
L 329.287755 354.200836 
L 336.975939 344.345964 
L 340.820032 339.104834 
L 342.742078 336.250747 
L 344.664124 333.152423 
L 346.58617 329.741895 
L 348.508216 325.959608 
L 350.430262 321.762567 
L 352.352309 317.131057 
L 354.274355 312.072682 
L 358.118447 300.841039 
L 361.962539 288.597516 
L 371.57277 257.350384 
L 381.183001 226.597795 
L 385.027093 213.434367 
L 388.871185 199.249952 
L 392.715278 183.831376 
L 396.55937 167.157176 
L 400.403462 149.468822 
L 408.091647 113.452901 
L 411.935739 96.901445 
L 413.857785 89.434546 
L 415.779831 82.667482 
L 417.701878 76.699601 
L 419.623924 71.602136 
L 421.54597 67.408971 
L 423.468016 64.109165 
L 425.390062 61.64286 
L 427.312108 59.902047 
L 429.234154 58.737083 
L 431.156201 57.968976 
L 436.922339 56.188313 
L 438.844385 55.262045 
L 440.766431 54.027252 
L 442.688478 52.483107 
L 444.610524 50.683308 
L 450.376662 44.858475 
L 452.298708 43.226906 
L 454.220754 41.967075 
L 456.142801 41.183429 
L 458.064847 40.959099 
L 459.986893 41.358558 
L 461.908939 42.432479 
L 463.830985 44.222758 
L 465.753031 46.765888 
L 467.675077 50.093608 
L 469.597124 54.23058 
L 471.51917 59.189715 
L 473.441216 64.966391 
L 475.363262 71.533042 
L 477.285308 78.835542 
L 479.207354 86.792371 
L 483.051447 104.223346 
L 494.583723 159.207908 
L 498.427816 175.748543 
L 502.271908 191.007708 
L 508.038046 212.365568 
L 513.804185 233.7505 
L 517.648277 248.877209 
L 523.414416 272.918871 
L 529.180554 296.883488 
L 533.024646 311.482805 
L 534.946693 318.11953 
L 536.868739 324.250962 
L 538.790785 329.85852 
L 540.712831 334.943989 
L 542.634877 339.525252 
L 544.556923 343.631416 
L 546.478969 347.298218 
L 548.401016 350.564329 
L 550.323062 353.468832 
L 552.245108 356.049864 
L 554.167154 358.344149 
L 556.0892 360.387036 
L 558.011246 362.21267 
L 559.933292 363.853996 
L 563.777385 366.707392 
L 567.621477 369.168534 
L 573.387615 372.459136 
L 579.153754 375.449549 
L 582.997846 377.252394 
L 586.841938 378.845546 
L 590.686031 380.185116 
L 594.530123 381.249574 
L 598.374215 382.044477 
L 602.218308 382.599209 
L 606.0624 382.958873 
L 611.828538 383.243029 
L 619.516723 383.369032 
L 621.438769 383.379927 
L 621.438769 383.379927 
" clip-path="url(#pd47a502cd5)" style="fill: none; stroke: #1f77b4; stroke-width: 1.5; stroke-linecap: square"/>
   </g>
   <g id="line2d_24">
    <path d="M 445.92029 383.397812 
L 445.92029 23.837812 
" clip-path="url(#pd47a502cd5)" style="fill: none; stroke-dasharray: 5.55,2.4; stroke-dashoffset: 0; stroke: #1f77b4; stroke-opacity: 0.7; stroke-width: 1.5"/>
   </g>
   <g id="line2d_25">
    <path d="M 181.200485 383.38436 
L 195.830508 383.234727 
L 205.583856 382.902652 
L 222.652216 382.202262 
L 229.967227 382.2353 
L 249.473924 382.74947 
L 256.788935 382.535861 
L 264.103947 382.047823 
L 286.04898 380.209115 
L 290.925655 379.472568 
L 293.363992 378.953883 
L 295.802329 378.311065 
L 298.240666 377.533701 
L 300.679003 376.619434 
L 305.555677 374.41317 
L 310.432352 371.825959 
L 322.624037 364.810962 
L 334.815723 357.731206 
L 339.692397 354.660754 
L 344.569071 351.215736 
L 347.007408 349.277964 
L 349.445745 347.149878 
L 351.884082 344.794418 
L 354.322419 342.17535 
L 356.760756 339.259623 
L 359.199094 336.019951 
L 361.637431 332.437544 
L 364.075768 328.504899 
L 366.514105 324.228448 
L 368.952442 319.630687 
L 373.829116 309.646428 
L 388.459139 278.33031 
L 400.650824 254.138464 
L 403.089161 248.796155 
L 405.527499 243.052111 
L 407.965836 236.854951 
L 410.404173 230.201103 
L 415.280847 215.766951 
L 422.595858 193.2458 
L 425.034195 186.124535 
L 427.472532 179.408884 
L 429.91087 173.168419 
L 432.349207 167.425692 
L 434.787544 162.15932 
L 437.225881 157.31234 
L 439.664218 152.803482 
L 444.540892 144.42196 
L 451.855904 132.096769 
L 456.732578 123.278465 
L 461.609252 113.792854 
L 466.485926 104.05077 
L 468.924263 99.381441 
L 471.3626 95.072591 
L 473.800937 91.315387 
L 476.239275 88.296692 
L 478.677612 86.178562 
L 481.115949 85.07907 
L 483.554286 85.057472 
L 485.992623 86.106074 
L 488.43096 88.150087 
L 490.869297 91.055444 
L 493.307634 94.643385 
L 495.745971 98.709655 
L 505.49932 115.930746 
L 507.937657 119.819529 
L 510.375994 123.456469 
L 520.129342 137.140815 
L 522.56768 141.037575 
L 525.006017 145.439226 
L 527.444354 150.483354 
L 529.882691 156.276083 
L 532.321028 162.882633 
L 534.759365 170.321173 
L 537.197702 178.560583 
L 539.636039 187.522385 
L 542.074376 197.086668 
L 546.951051 217.394117 
L 554.266062 248.175216 
L 556.704399 257.882255 
L 559.142736 267.116299 
L 561.581073 275.808352 
L 564.01941 283.923195 
L 566.457747 291.456637 
L 568.896084 298.430677 
L 571.334422 304.887159 
L 573.772759 310.880612 
L 576.211096 316.470924 
L 578.649433 321.716538 
L 581.08777 326.668771 
L 585.964444 335.840499 
L 590.841118 344.150426 
L 593.279456 347.984053 
L 595.717793 351.591412 
L 598.15613 354.962163 
L 600.594467 358.088994 
L 603.032804 360.969768 
L 605.471141 363.608321 
L 607.909478 366.014008 
L 610.347815 368.20031 
L 612.786152 370.182947 
L 615.224489 371.977967 
L 617.662827 373.600201 
L 620.101164 375.062307 
L 622.539501 376.37447 
L 624.977838 377.544689 
L 627.416175 378.579454 
L 629.854512 379.484607 
L 632.292849 380.266177 
L 637.169523 381.487237 
L 642.046198 382.312329 
L 646.922872 382.827375 
L 651.799546 383.122121 
L 659.114557 383.319464 
L 666.429569 383.379808 
L 666.429569 383.379808 
" clip-path="url(#pd47a502cd5)" style="fill: none; stroke: #ff7f0e; stroke-width: 1.5; stroke-linecap: square"/>
   </g>
   <g id="line2d_26">
    <path d="M 475.283635 383.397812 
L 475.283635 23.837812 
" clip-path="url(#pd47a502cd5)" style="fill: none; stroke-dasharray: 5.55,2.4; stroke-dashoffset: 0; stroke: #ff7f0e; stroke-opacity: 0.7; stroke-width: 1.5"/>
   </g>
   <g id="line2d_27">
    <path d="M 211.772459 383.382878 
L 224.431274 383.229423 
L 232.870484 382.874936 
L 241.309694 382.253056 
L 262.407719 380.483409 
L 268.737127 380.160363 
L 281.395942 379.680613 
L 283.505744 379.423526 
L 285.615547 379.040903 
L 287.725349 378.505969 
L 289.835152 377.798532 
L 291.944954 376.907747 
L 294.054757 375.834046 
L 296.164559 374.589943 
L 300.384164 371.696413 
L 310.933177 363.893854 
L 315.152782 361.179076 
L 325.701794 354.916475 
L 327.811597 353.464187 
L 329.921399 351.854301 
L 332.031202 350.056448 
L 334.141004 348.047559 
L 336.250807 345.812402 
L 338.360609 343.343622 
L 340.470412 340.641373 
L 342.580214 337.712556 
L 346.799819 331.229402 
L 351.019424 324.032413 
L 355.239029 316.264169 
L 359.458634 308.015814 
L 363.678239 299.297058 
L 367.897844 290.033677 
L 372.117449 280.072687 
L 376.337054 269.185125 
L 378.446857 263.306842 
L 380.556659 257.0926 
L 382.666462 250.515151 
L 386.886067 236.231187 
L 391.105672 220.589057 
L 401.654684 179.766112 
L 405.874289 165.01262 
L 407.984091 158.26251 
L 410.093894 151.923787 
L 414.313499 140.234468 
L 424.862511 112.308996 
L 435.411524 83.116144 
L 437.521326 77.944511 
L 439.631129 73.252483 
L 441.740931 69.099077 
L 443.850734 65.499158 
L 445.960536 62.423413 
L 448.070339 59.80558 
L 450.180141 57.556005 
L 452.289944 55.579563 
L 456.509549 52.155022 
L 458.619351 50.657301 
L 460.729154 49.355708 
L 462.838956 48.358633 
L 464.948759 47.820984 
L 467.058561 47.928305 
L 469.168364 48.875229 
L 471.278166 50.841055 
L 473.387969 53.965765 
L 475.497771 58.329884 
L 477.607574 63.941128 
L 479.717376 70.729857 
L 481.827179 78.554072 
L 483.936981 87.213248 
L 488.156586 106.069488 
L 494.485994 134.718955 
L 498.705599 152.28819 
L 502.925204 168.372232 
L 509.254611 190.991764 
L 515.584019 213.835632 
L 528.242834 260.616994 
L 532.462439 274.63018 
L 534.572241 281.065912 
L 536.682044 287.103826 
L 538.791846 292.762191 
L 543.011451 303.117037 
L 547.231056 312.603495 
L 555.670266 330.709505 
L 559.889871 339.547024 
L 564.109476 347.897376 
L 566.219279 351.76023 
L 568.329081 355.354918 
L 570.438884 358.651673 
L 572.548686 361.636087 
L 574.658489 364.309056 
L 576.768291 366.684719 
L 578.878094 368.787016 
L 580.987896 370.645613 
L 583.097699 372.291926 
L 585.207501 373.755811 
L 587.317304 375.063271 
L 591.536909 377.287573 
L 595.756514 379.074157 
L 599.976119 380.477246 
L 604.195724 381.531706 
L 608.415329 382.278265 
L 612.634934 382.771037 
L 616.854539 383.072094 
L 623.183946 383.29275 
L 631.623156 383.380583 
L 631.623156 383.380583 
" clip-path="url(#pd47a502cd5)" style="fill: none; stroke: #2ca02c; stroke-width: 1.5; stroke-linecap: square"/>
   </g>
   <g id="line2d_28">
    <path d="M 453.647486 383.397812 
L 453.647486 23.837812 
" clip-path="url(#pd47a502cd5)" style="fill: none; stroke-dasharray: 5.55,2.4; stroke-dashoffset: 0; stroke: #2ca02c; stroke-opacity: 0.7; stroke-width: 1.5"/>
   </g>
   <g id="line2d_29">
    <path d="M 109.396204 383.384839 
L 123.859749 383.254162 
L 133.502111 382.960317 
L 145.555065 382.336603 
L 164.839791 381.158741 
L 172.071563 380.425596 
L 184.124516 378.819764 
L 198.58806 376.938816 
L 200.998651 376.483705 
L 203.409242 375.905229 
L 205.819833 375.164911 
L 208.230423 374.227259 
L 210.641014 373.06373 
L 213.051605 371.656367 
L 215.462195 370.000533 
L 217.872786 368.106124 
L 220.283377 365.996866 
L 225.104558 361.279023 
L 229.92574 356.16296 
L 237.157512 348.148105 
L 241.978693 342.417505 
L 244.389284 339.30048 
L 246.799875 335.939503 
L 249.210465 332.283869 
L 251.621056 328.296733 
L 254.031647 323.960499 
L 256.442237 319.279776 
L 258.852828 314.281596 
L 263.674009 303.536535 
L 275.726963 275.504314 
L 280.548144 264.979143 
L 285.369326 255.042939 
L 292.601098 240.918265 
L 299.83287 227.303934 
L 311.885824 204.826523 
L 314.296414 200.007451 
L 316.707005 194.907973 
L 319.117596 189.453245 
L 321.528186 183.590838 
L 323.938777 177.303591 
L 328.759959 163.609961 
L 335.991731 141.972758 
L 338.402321 135.104665 
L 340.812912 128.677579 
L 343.223503 122.817118 
L 345.634093 117.610223 
L 348.044684 113.101718 
L 350.455275 109.296381 
L 352.865866 106.165524 
L 355.276456 103.656492 
L 357.687047 101.703252 
L 360.097638 100.236428 
L 362.508228 99.191491 
L 364.918819 98.514423 
L 367.32941 98.164736 
L 369.74 98.116238 
L 372.150591 98.356236 
L 374.561182 98.883964 
L 376.971773 99.708885 
L 379.382363 100.849231 
L 381.792954 102.33079 
L 384.203545 104.185666 
L 386.614135 106.450589 
L 389.024726 109.164375 
L 391.435317 112.364385 
L 393.845908 116.082114 
L 396.256498 120.338411 
L 398.667089 125.138996 
L 401.07768 130.471031 
L 403.48827 136.301341 
L 405.898861 142.576619 
L 410.720042 156.163023 
L 425.183587 198.675741 
L 430.004768 211.516425 
L 434.825949 223.463043 
L 446.878903 252.344588 
L 451.700084 264.79954 
L 456.521266 277.955817 
L 463.753038 297.974826 
L 468.574219 310.473693 
L 470.98481 316.217803 
L 473.395401 321.548677 
L 475.805991 326.435799 
L 478.216582 330.870671 
L 480.627173 334.864975 
L 483.037764 338.447252 
L 485.448354 341.65863 
L 487.858945 344.548147 
L 490.269536 347.168099 
L 492.680126 349.569751 
L 497.501308 353.897029 
L 502.322489 357.802555 
L 507.143671 361.404598 
L 511.964852 364.690928 
L 516.786033 367.593397 
L 521.607215 370.073671 
L 526.428396 372.17225 
L 531.249578 373.995943 
L 538.48135 376.456347 
L 545.713122 378.70433 
L 550.534303 380.022927 
L 555.355485 381.123478 
L 560.176666 381.969463 
L 564.997848 382.56528 
L 569.819029 382.948941 
L 577.050801 383.245211 
L 586.693164 383.37092 
L 589.103755 383.38132 
L 589.103755 383.38132 
" clip-path="url(#pd47a502cd5)" style="fill: none; stroke: #d62728; stroke-width: 1.5; stroke-linecap: square"/>
   </g>
   <g id="line2d_30">
    <path d="M 368.648331 383.397812 
L 368.648331 23.837812 
" clip-path="url(#pd47a502cd5)" style="fill: none; stroke-dasharray: 5.55,2.4; stroke-dashoffset: 0; stroke: #d62728; stroke-opacity: 0.7; stroke-width: 1.5"/>
   </g>
   <g id="line2d_31">
    <path d="M 66.188313 383.383983 
L 79.166261 383.25772 
L 89.548619 382.905615 
L 105.122157 382.191513 
L 112.908925 382.163056 
L 128.482463 382.373922 
L 133.673642 382.080962 
L 138.864821 381.44657 
L 144.056 380.463535 
L 149.247179 379.17517 
L 154.438359 377.631699 
L 159.629538 375.845806 
L 164.820717 373.787648 
L 170.011896 371.438037 
L 188.181023 362.660025 
L 195.967792 359.25427 
L 198.563381 357.910684 
L 201.158971 356.324821 
L 203.754561 354.413133 
L 206.35015 352.104992 
L 208.94574 349.350024 
L 211.541329 346.122071 
L 214.136919 342.419437 
L 216.732508 338.261908 
L 219.328098 333.685748 
L 221.923688 328.738095 
L 224.519277 323.471932 
L 229.710456 312.202668 
L 234.901636 300.285598 
L 242.688404 281.709081 
L 247.879583 268.651459 
L 250.475173 261.712732 
L 253.070763 254.37066 
L 255.666352 246.535554 
L 258.261942 238.145646 
L 260.857531 229.18293 
L 263.453121 219.683419 
L 268.6443 199.495537 
L 276.431069 168.858438 
L 279.026658 159.330389 
L 281.622248 150.412323 
L 284.217838 142.196652 
L 286.813427 134.717153 
L 289.409017 127.94759 
L 292.004606 121.80665 
L 294.600196 116.168905 
L 299.791375 105.782845 
L 307.578144 90.40343 
L 312.769323 79.898026 
L 315.364913 74.931602 
L 317.960502 70.493381 
L 320.556092 66.890481 
L 323.151681 64.430452 
L 325.747271 63.380348 
L 328.34286 63.928518 
L 330.93845 66.155531 
L 333.53404 70.019227 
L 336.129629 75.35638 
L 338.725219 81.900445 
L 341.320808 89.312166 
L 349.107577 113.085201 
L 351.703167 120.471091 
L 354.298756 127.249156 
L 356.894346 133.360978 
L 359.489935 138.845218 
L 362.085525 143.823742 
L 372.467883 162.644251 
L 375.063473 168.048041 
L 377.659063 173.975927 
L 380.254652 180.441304 
L 382.850242 187.398322 
L 388.041421 202.407628 
L 398.423779 234.006181 
L 416.592906 289.342947 
L 419.188496 296.822144 
L 421.784085 303.91166 
L 424.379675 310.499701 
L 426.975265 316.503993 
L 429.570854 321.886582 
L 432.166444 326.661603 
L 434.762033 330.894198 
L 437.357623 334.690541 
L 442.548802 341.498023 
L 450.335571 351.385502 
L 458.12234 361.519109 
L 460.717929 364.700637 
L 463.313519 367.648178 
L 465.909108 370.296266 
L 468.504698 372.60251 
L 471.100287 374.549971 
L 473.695877 376.145155 
L 476.291467 377.412999 
L 478.887056 378.390456 
L 481.482646 379.120172 
L 484.078235 379.645276 
L 486.673825 380.005804 
L 491.865004 380.367945 
L 497.056183 380.425462 
L 515.22531 380.214477 
L 523.012079 380.493624 
L 535.990027 381.294861 
L 561.945923 383.00554 
L 569.732692 383.25546 
L 582.710639 383.383929 
L 582.710639 383.383929 
" clip-path="url(#pd47a502cd5)" style="fill: none; stroke: #9467bd; stroke-width: 1.5; stroke-linecap: square"/>
   </g>
   <g id="line2d_32">
    <path d="M 323.830594 383.397812 
L 323.830594 23.837812 
" clip-path="url(#pd47a502cd5)" style="fill: none; stroke-dasharray: 5.55,2.4; stroke-dashoffset: 0; stroke: #9467bd; stroke-opacity: 0.7; stroke-width: 1.5"/>
   </g>
   <g id="line2d_33">
    <path d="M 238.831439 383.397812 
L 238.831439 23.837812 
" clip-path="url(#pd47a502cd5)" style="fill: none; stroke-dasharray: 1.5,2.475; stroke-dashoffset: 0; stroke: #000000; stroke-width: 1.5"/>
   </g>
   <g id="patch_3">
    <path d="M 36.17625 383.397812 
L 36.17625 23.837812 
" style="fill: none; stroke: #000000; stroke-width: 0.8; stroke-linejoin: miter; stroke-linecap: square"/>
   </g>
   <g id="patch_4">
    <path d="M 696.441631 383.397812 
L 696.441631 23.837812 
" style="fill: none; stroke: #000000; stroke-width: 0.8; stroke-linejoin: miter; stroke-linecap: square"/>
   </g>
   <g id="patch_5">
    <path d="M 36.17625 383.397812 
L 696.441631 383.397812 
" style="fill: none; stroke: #000000; stroke-width: 0.8; stroke-linejoin: miter; stroke-linecap: square"/>
   </g>
   <g id="patch_6">
    <path d="M 36.17625 23.837812 
L 696.441631 23.837812 
" style="fill: none; stroke: #000000; stroke-width: 0.8; stroke-linejoin: miter; stroke-linecap: square"/>
   </g>
   <g id="text_14">
    <!-- Bootstrap Distributions of C-indices for DEEPSURV Model -->
    <g transform="translate(167.694878 17.837812) scale(0.14 -0.14)">
     <defs>
      <path id="DejaVuSans-42" d="M 1259 2228 
L 1259 519 
L 2272 519 
Q 2781 519 3026 730 
Q 3272 941 3272 1375 
Q 3272 1813 3026 2020 
Q 2781 2228 2272 2228 
L 1259 2228 
z
M 1259 4147 
L 1259 2741 
L 2194 2741 
Q 2656 2741 2882 2914 
Q 3109 3088 3109 3444 
Q 3109 3797 2882 3972 
Q 2656 4147 2194 4147 
L 1259 4147 
z
M 628 4666 
L 2241 4666 
Q 2963 4666 3353 4366 
Q 3744 4066 3744 3513 
Q 3744 3084 3544 2831 
Q 3344 2578 2956 2516 
Q 3422 2416 3680 2098 
Q 3938 1781 3938 1306 
Q 3938 681 3513 340 
Q 3088 0 2303 0 
L 628 0 
L 628 4666 
z
" transform="scale(0.015625)"/>
      <path id="DejaVuSans-6f" d="M 1959 3097 
Q 1497 3097 1228 2736 
Q 959 2375 959 1747 
Q 959 1119 1226 758 
Q 1494 397 1959 397 
Q 2419 397 2687 759 
Q 2956 1122 2956 1747 
Q 2956 2369 2687 2733 
Q 2419 3097 1959 3097 
z
M 1959 3584 
Q 2709 3584 3137 3096 
Q 3566 2609 3566 1747 
Q 3566 888 3137 398 
Q 2709 -91 1959 -91 
Q 1206 -91 779 398 
Q 353 888 353 1747 
Q 353 2609 779 3096 
Q 1206 3584 1959 3584 
z
" transform="scale(0.015625)"/>
      <path id="DejaVuSans-72" d="M 2631 2963 
Q 2534 3019 2420 3045 
Q 2306 3072 2169 3072 
Q 1681 3072 1420 2755 
Q 1159 2438 1159 1844 
L 1159 0 
L 581 0 
L 581 3500 
L 1159 3500 
L 1159 2956 
Q 1341 3275 1631 3429 
Q 1922 3584 2338 3584 
Q 2397 3584 2469 3576 
Q 2541 3569 2628 3553 
L 2631 2963 
z
" transform="scale(0.015625)"/>
      <path id="DejaVuSans-61" d="M 2194 1759 
Q 1497 1759 1228 1600 
Q 959 1441 959 1056 
Q 959 750 1161 570 
Q 1363 391 1709 391 
Q 2188 391 2477 730 
Q 2766 1069 2766 1631 
L 2766 1759 
L 2194 1759 
z
M 3341 1997 
L 3341 0 
L 2766 0 
L 2766 531 
Q 2569 213 2275 61 
Q 1981 -91 1556 -91 
Q 1019 -91 701 211 
Q 384 513 384 1019 
Q 384 1609 779 1909 
Q 1175 2209 1959 2209 
L 2766 2209 
L 2766 2266 
Q 2766 2663 2505 2880 
Q 2244 3097 1772 3097 
Q 1472 3097 1187 3025 
Q 903 2953 641 2809 
L 641 3341 
Q 956 3463 1253 3523 
Q 1550 3584 1831 3584 
Q 2591 3584 2966 3190 
Q 3341 2797 3341 1997 
z
" transform="scale(0.015625)"/>
      <path id="DejaVuSans-70" d="M 1159 525 
L 1159 -1331 
L 581 -1331 
L 581 3500 
L 1159 3500 
L 1159 2969 
Q 1341 3281 1617 3432 
Q 1894 3584 2278 3584 
Q 2916 3584 3314 3078 
Q 3713 2572 3713 1747 
Q 3713 922 3314 415 
Q 2916 -91 2278 -91 
Q 1894 -91 1617 61 
Q 1341 213 1159 525 
z
M 3116 1747 
Q 3116 2381 2855 2742 
Q 2594 3103 2138 3103 
Q 1681 3103 1420 2742 
Q 1159 2381 1159 1747 
Q 1159 1113 1420 752 
Q 1681 391 2138 391 
Q 2594 391 2855 752 
Q 3116 1113 3116 1747 
z
" transform="scale(0.015625)"/>
      <path id="DejaVuSans-20" transform="scale(0.015625)"/>
      <path id="DejaVuSans-62" d="M 3116 1747 
Q 3116 2381 2855 2742 
Q 2594 3103 2138 3103 
Q 1681 3103 1420 2742 
Q 1159 2381 1159 1747 
Q 1159 1113 1420 752 
Q 1681 391 2138 391 
Q 2594 391 2855 752 
Q 3116 1113 3116 1747 
z
M 1159 2969 
Q 1341 3281 1617 3432 
Q 1894 3584 2278 3584 
Q 2916 3584 3314 3078 
Q 3713 2572 3713 1747 
Q 3713 922 3314 415 
Q 2916 -91 2278 -91 
Q 1894 -91 1617 61 
Q 1341 213 1159 525 
L 1159 0 
L 581 0 
L 581 4863 
L 1159 4863 
L 1159 2969 
z
" transform="scale(0.015625)"/>
      <path id="DejaVuSans-75" d="M 544 1381 
L 544 3500 
L 1119 3500 
L 1119 1403 
Q 1119 906 1312 657 
Q 1506 409 1894 409 
Q 2359 409 2629 706 
Q 2900 1003 2900 1516 
L 2900 3500 
L 3475 3500 
L 3475 0 
L 2900 0 
L 2900 538 
Q 2691 219 2414 64 
Q 2138 -91 1772 -91 
Q 1169 -91 856 284 
Q 544 659 544 1381 
z
M 1991 3584 
L 1991 3584 
z
" transform="scale(0.015625)"/>
      <path id="DejaVuSans-66" d="M 2375 4863 
L 2375 4384 
L 1825 4384 
Q 1516 4384 1395 4259 
Q 1275 4134 1275 3809 
L 1275 3500 
L 2222 3500 
L 2222 3053 
L 1275 3053 
L 1275 0 
L 697 0 
L 697 3053 
L 147 3053 
L 147 3500 
L 697 3500 
L 697 3744 
Q 697 4328 969 4595 
Q 1241 4863 1831 4863 
L 2375 4863 
z
" transform="scale(0.015625)"/>
      <path id="DejaVuSans-63" d="M 3122 3366 
L 3122 2828 
Q 2878 2963 2633 3030 
Q 2388 3097 2138 3097 
Q 1578 3097 1268 2742 
Q 959 2388 959 1747 
Q 959 1106 1268 751 
Q 1578 397 2138 397 
Q 2388 397 2633 464 
Q 2878 531 3122 666 
L 3122 134 
Q 2881 22 2623 -34 
Q 2366 -91 2075 -91 
Q 1284 -91 818 406 
Q 353 903 353 1747 
Q 353 2603 823 3093 
Q 1294 3584 2113 3584 
Q 2378 3584 2631 3529 
Q 2884 3475 3122 3366 
z
" transform="scale(0.015625)"/>
      <path id="DejaVuSans-45" d="M 628 4666 
L 3578 4666 
L 3578 4134 
L 1259 4134 
L 1259 2753 
L 3481 2753 
L 3481 2222 
L 1259 2222 
L 1259 531 
L 3634 531 
L 3634 0 
L 628 0 
L 628 4666 
z
" transform="scale(0.015625)"/>
      <path id="DejaVuSans-50" d="M 1259 4147 
L 1259 2394 
L 2053 2394 
Q 2494 2394 2734 2622 
Q 2975 2850 2975 3272 
Q 2975 3691 2734 3919 
Q 2494 4147 2053 4147 
L 1259 4147 
z
M 628 4666 
L 2053 4666 
Q 2838 4666 3239 4311 
Q 3641 3956 3641 3272 
Q 3641 2581 3239 2228 
Q 2838 1875 2053 1875 
L 1259 1875 
L 1259 0 
L 628 0 
L 628 4666 
z
" transform="scale(0.015625)"/>
      <path id="DejaVuSans-53" d="M 3425 4513 
L 3425 3897 
Q 3066 4069 2747 4153 
Q 2428 4238 2131 4238 
Q 1616 4238 1336 4038 
Q 1056 3838 1056 3469 
Q 1056 3159 1242 3001 
Q 1428 2844 1947 2747 
L 2328 2669 
Q 3034 2534 3370 2195 
Q 3706 1856 3706 1288 
Q 3706 609 3251 259 
Q 2797 -91 1919 -91 
Q 1588 -91 1214 -16 
Q 841 59 441 206 
L 441 856 
Q 825 641 1194 531 
Q 1563 422 1919 422 
Q 2459 422 2753 634 
Q 3047 847 3047 1241 
Q 3047 1584 2836 1778 
Q 2625 1972 2144 2069 
L 1759 2144 
Q 1053 2284 737 2584 
Q 422 2884 422 3419 
Q 422 4038 858 4394 
Q 1294 4750 2059 4750 
Q 2388 4750 2728 4690 
Q 3069 4631 3425 4513 
z
" transform="scale(0.015625)"/>
      <path id="DejaVuSans-55" d="M 556 4666 
L 1191 4666 
L 1191 1831 
Q 1191 1081 1462 751 
Q 1734 422 2344 422 
Q 2950 422 3222 751 
Q 3494 1081 3494 1831 
L 3494 4666 
L 4128 4666 
L 4128 1753 
Q 4128 841 3676 375 
Q 3225 -91 2344 -91 
Q 1459 -91 1007 375 
Q 556 841 556 1753 
L 556 4666 
z
" transform="scale(0.015625)"/>
      <path id="DejaVuSans-52" d="M 2841 2188 
Q 3044 2119 3236 1894 
Q 3428 1669 3622 1275 
L 4263 0 
L 3584 0 
L 2988 1197 
Q 2756 1666 2539 1819 
Q 2322 1972 1947 1972 
L 1259 1972 
L 1259 0 
L 628 0 
L 628 4666 
L 2053 4666 
Q 2853 4666 3247 4331 
Q 3641 3997 3641 3322 
Q 3641 2881 3436 2590 
Q 3231 2300 2841 2188 
z
M 1259 4147 
L 1259 2491 
L 2053 2491 
Q 2509 2491 2742 2702 
Q 2975 2913 2975 3322 
Q 2975 3731 2742 3939 
Q 2509 4147 2053 4147 
L 1259 4147 
z
" transform="scale(0.015625)"/>
      <path id="DejaVuSans-56" d="M 1831 0 
L 50 4666 
L 709 4666 
L 2188 738 
L 3669 4666 
L 4325 4666 
L 2547 0 
L 1831 0 
z
" transform="scale(0.015625)"/>
      <path id="DejaVuSans-4d" d="M 628 4666 
L 1569 4666 
L 2759 1491 
L 3956 4666 
L 4897 4666 
L 4897 0 
L 4281 0 
L 4281 4097 
L 3078 897 
L 2444 897 
L 1241 4097 
L 1241 0 
L 628 0 
L 628 4666 
z
" transform="scale(0.015625)"/>
      <path id="DejaVuSans-6c" d="M 603 4863 
L 1178 4863 
L 1178 0 
L 603 0 
L 603 4863 
z
" transform="scale(0.015625)"/>
     </defs>
     <use xlink:href="#DejaVuSans-42"/>
     <use xlink:href="#DejaVuSans-6f" transform="translate(68.603516 0)"/>
     <use xlink:href="#DejaVuSans-6f" transform="translate(129.785156 0)"/>
     <use xlink:href="#DejaVuSans-74" transform="translate(190.966797 0)"/>
     <use xlink:href="#DejaVuSans-73" transform="translate(230.175781 0)"/>
     <use xlink:href="#DejaVuSans-74" transform="translate(282.275391 0)"/>
     <use xlink:href="#DejaVuSans-72" transform="translate(321.484375 0)"/>
     <use xlink:href="#DejaVuSans-61" transform="translate(362.597656 0)"/>
     <use xlink:href="#DejaVuSans-70" transform="translate(423.876953 0)"/>
     <use xlink:href="#DejaVuSans-20" transform="translate(487.353516 0)"/>
     <use xlink:href="#DejaVuSans-44" transform="translate(519.140625 0)"/>
     <use xlink:href="#DejaVuSans-69" transform="translate(596.142578 0)"/>
     <use xlink:href="#DejaVuSans-73" transform="translate(623.925781 0)"/>
     <use xlink:href="#DejaVuSans-74" transform="translate(676.025391 0)"/>
     <use xlink:href="#DejaVuSans-72" transform="translate(715.234375 0)"/>
     <use xlink:href="#DejaVuSans-69" transform="translate(756.347656 0)"/>
     <use xlink:href="#DejaVuSans-62" transform="translate(784.130859 0)"/>
     <use xlink:href="#DejaVuSans-75" transform="translate(847.607422 0)"/>
     <use xlink:href="#DejaVuSans-74" transform="translate(910.986328 0)"/>
     <use xlink:href="#DejaVuSans-69" transform="translate(950.195312 0)"/>
     <use xlink:href="#DejaVuSans-6f" transform="translate(977.978516 0)"/>
     <use xlink:href="#DejaVuSans-6e" transform="translate(1039.160156 0)"/>
     <use xlink:href="#DejaVuSans-73" transform="translate(1102.539062 0)"/>
     <use xlink:href="#DejaVuSans-20" transform="translate(1154.638672 0)"/>
     <use xlink:href="#DejaVuSans-6f" transform="translate(1186.425781 0)"/>
     <use xlink:href="#DejaVuSans-66" transform="translate(1247.607422 0)"/>
     <use xlink:href="#DejaVuSans-20" transform="translate(1282.8125 0)"/>
     <use xlink:href="#DejaVuSans-43" transform="translate(1314.599609 0)"/>
     <use xlink:href="#DejaVuSans-2d" transform="translate(1384.423828 0)"/>
     <use xlink:href="#DejaVuSans-69" transform="translate(1420.507812 0)"/>
     <use xlink:href="#DejaVuSans-6e" transform="translate(1448.291016 0)"/>
     <use xlink:href="#DejaVuSans-64" transform="translate(1511.669922 0)"/>
     <use xlink:href="#DejaVuSans-69" transform="translate(1575.146484 0)"/>
     <use xlink:href="#DejaVuSans-63" transform="translate(1602.929688 0)"/>
     <use xlink:href="#DejaVuSans-65" transform="translate(1657.910156 0)"/>
     <use xlink:href="#DejaVuSans-73" transform="translate(1719.433594 0)"/>
     <use xlink:href="#DejaVuSans-20" transform="translate(1771.533203 0)"/>
     <use xlink:href="#DejaVuSans-66" transform="translate(1803.320312 0)"/>
     <use xlink:href="#DejaVuSans-6f" transform="translate(1838.525391 0)"/>
     <use xlink:href="#DejaVuSans-72" transform="translate(1899.707031 0)"/>
     <use xlink:href="#DejaVuSans-20" transform="translate(1940.820312 0)"/>
     <use xlink:href="#DejaVuSans-44" transform="translate(1972.607422 0)"/>
     <use xlink:href="#DejaVuSans-45" transform="translate(2049.609375 0)"/>
     <use xlink:href="#DejaVuSans-45" transform="translate(2112.792969 0)"/>
     <use xlink:href="#DejaVuSans-50" transform="translate(2175.976562 0)"/>
     <use xlink:href="#DejaVuSans-53" transform="translate(2236.279297 0)"/>
     <use xlink:href="#DejaVuSans-55" transform="translate(2299.755859 0)"/>
     <use xlink:href="#DejaVuSans-52" transform="translate(2372.949219 0)"/>
     <use xlink:href="#DejaVuSans-56" transform="translate(2436.931641 0)"/>
     <use xlink:href="#DejaVuSans-20" transform="translate(2505.339844 0)"/>
     <use xlink:href="#DejaVuSans-4d" transform="translate(2537.126953 0)"/>
     <use xlink:href="#DejaVuSans-6f" transform="translate(2623.40625 0)"/>
     <use xlink:href="#DejaVuSans-64" transform="translate(2684.587891 0)"/>
     <use xlink:href="#DejaVuSans-65" transform="translate(2748.064453 0)"/>
     <use xlink:href="#DejaVuSans-6c" transform="translate(2809.587891 0)"/>
    </g>
   </g>
   <g id="legend_1">
    <g id="patch_7">
     <path d="M 511.415069 119.906562 
L 689.441631 119.906562 
Q 691.441631 119.906562 691.441631 117.906562 
L 691.441631 30.837812 
Q 691.441631 28.837812 689.441631 28.837812 
L 511.415069 28.837812 
Q 509.415069 28.837812 509.415069 30.837812 
L 509.415069 117.906562 
Q 509.415069 119.906562 511.415069 119.906562 
z
" style="fill: #ffffff; opacity: 0.8; stroke: #cccccc; stroke-linejoin: miter"/>
    </g>
    <g id="line2d_34">
     <path d="M 513.415069 36.93625 
L 523.415069 36.93625 
L 533.415069 36.93625 
" style="fill: none; stroke: #1f77b4; stroke-width: 1.5; stroke-linecap: square"/>
    </g>
    <g id="text_15">
     <!-- Clinical (C-index: 0.6811) -->
     <g transform="translate(541.415069 40.43625) scale(0.1 -0.1)">
      <defs>
       <path id="DejaVuSans-28" d="M 1984 4856 
Q 1566 4138 1362 3434 
Q 1159 2731 1159 2009 
Q 1159 1288 1364 580 
Q 1569 -128 1984 -844 
L 1484 -844 
Q 1016 -109 783 600 
Q 550 1309 550 2009 
Q 550 2706 781 3412 
Q 1013 4119 1484 4856 
L 1984 4856 
z
" transform="scale(0.015625)"/>
       <path id="DejaVuSans-3a" d="M 750 794 
L 1409 794 
L 1409 0 
L 750 0 
L 750 794 
z
M 750 3309 
L 1409 3309 
L 1409 2516 
L 750 2516 
L 750 3309 
z
" transform="scale(0.015625)"/>
       <path id="DejaVuSans-31" d="M 794 531 
L 1825 531 
L 1825 4091 
L 703 3866 
L 703 4441 
L 1819 4666 
L 2450 4666 
L 2450 531 
L 3481 531 
L 3481 0 
L 794 0 
L 794 531 
z
" transform="scale(0.015625)"/>
       <path id="DejaVuSans-29" d="M 513 4856 
L 1013 4856 
Q 1481 4119 1714 3412 
Q 1947 2706 1947 2009 
Q 1947 1309 1714 600 
Q 1481 -109 1013 -844 
L 513 -844 
Q 928 -128 1133 580 
Q 1338 1288 1338 2009 
Q 1338 2731 1133 3434 
Q 928 4138 513 4856 
z
" transform="scale(0.015625)"/>
      </defs>
      <use xlink:href="#DejaVuSans-43"/>
      <use xlink:href="#DejaVuSans-6c" transform="translate(69.824219 0)"/>
      <use xlink:href="#DejaVuSans-69" transform="translate(97.607422 0)"/>
      <use xlink:href="#DejaVuSans-6e" transform="translate(125.390625 0)"/>
      <use xlink:href="#DejaVuSans-69" transform="translate(188.769531 0)"/>
      <use xlink:href="#DejaVuSans-63" transform="translate(216.552734 0)"/>
      <use xlink:href="#DejaVuSans-61" transform="translate(271.533203 0)"/>
      <use xlink:href="#DejaVuSans-6c" transform="translate(332.8125 0)"/>
      <use xlink:href="#DejaVuSans-20" transform="translate(360.595703 0)"/>
      <use xlink:href="#DejaVuSans-28" transform="translate(392.382812 0)"/>
      <use xlink:href="#DejaVuSans-43" transform="translate(431.396484 0)"/>
      <use xlink:href="#DejaVuSans-2d" transform="translate(501.220703 0)"/>
      <use xlink:href="#DejaVuSans-69" transform="translate(537.304688 0)"/>
      <use xlink:href="#DejaVuSans-6e" transform="translate(565.087891 0)"/>
      <use xlink:href="#DejaVuSans-64" transform="translate(628.466797 0)"/>
      <use xlink:href="#DejaVuSans-65" transform="translate(691.943359 0)"/>
      <use xlink:href="#DejaVuSans-78" transform="translate(751.716797 0)"/>
      <use xlink:href="#DejaVuSans-3a" transform="translate(810.896484 0)"/>
      <use xlink:href="#DejaVuSans-20" transform="translate(844.587891 0)"/>
      <use xlink:href="#DejaVuSans-30" transform="translate(876.375 0)"/>
      <use xlink:href="#DejaVuSans-2e" transform="translate(939.998047 0)"/>
      <use xlink:href="#DejaVuSans-36" transform="translate(971.785156 0)"/>
      <use xlink:href="#DejaVuSans-38" transform="translate(1035.408203 0)"/>
      <use xlink:href="#DejaVuSans-31" transform="translate(1099.03125 0)"/>
      <use xlink:href="#DejaVuSans-31" transform="translate(1162.654297 0)"/>
      <use xlink:href="#DejaVuSans-29" transform="translate(1226.277344 0)"/>
     </g>
    </g>
    <g id="line2d_35">
     <path d="M 513.415069 51.614375 
L 523.415069 51.614375 
L 533.415069 51.614375 
" style="fill: none; stroke: #ff7f0e; stroke-width: 1.5; stroke-linecap: square"/>
    </g>
    <g id="text_16">
     <!-- Molecular (C-index: 0.7068) -->
     <g transform="translate(541.415069 55.114375) scale(0.1 -0.1)">
      <use xlink:href="#DejaVuSans-4d"/>
      <use xlink:href="#DejaVuSans-6f" transform="translate(86.279297 0)"/>
      <use xlink:href="#DejaVuSans-6c" transform="translate(147.460938 0)"/>
      <use xlink:href="#DejaVuSans-65" transform="translate(175.244141 0)"/>
      <use xlink:href="#DejaVuSans-63" transform="translate(236.767578 0)"/>
      <use xlink:href="#DejaVuSans-75" transform="translate(291.748047 0)"/>
      <use xlink:href="#DejaVuSans-6c" transform="translate(355.126953 0)"/>
      <use xlink:href="#DejaVuSans-61" transform="translate(382.910156 0)"/>
      <use xlink:href="#DejaVuSans-72" transform="translate(444.189453 0)"/>
      <use xlink:href="#DejaVuSans-20" transform="translate(485.302734 0)"/>
      <use xlink:href="#DejaVuSans-28" transform="translate(517.089844 0)"/>
      <use xlink:href="#DejaVuSans-43" transform="translate(556.103516 0)"/>
      <use xlink:href="#DejaVuSans-2d" transform="translate(625.927734 0)"/>
      <use xlink:href="#DejaVuSans-69" transform="translate(662.011719 0)"/>
      <use xlink:href="#DejaVuSans-6e" transform="translate(689.794922 0)"/>
      <use xlink:href="#DejaVuSans-64" transform="translate(753.173828 0)"/>
      <use xlink:href="#DejaVuSans-65" transform="translate(816.650391 0)"/>
      <use xlink:href="#DejaVuSans-78" transform="translate(876.423828 0)"/>
      <use xlink:href="#DejaVuSans-3a" transform="translate(935.603516 0)"/>
      <use xlink:href="#DejaVuSans-20" transform="translate(969.294922 0)"/>
      <use xlink:href="#DejaVuSans-30" transform="translate(1001.082031 0)"/>
      <use xlink:href="#DejaVuSans-2e" transform="translate(1064.705078 0)"/>
      <use xlink:href="#DejaVuSans-37" transform="translate(1096.492188 0)"/>
      <use xlink:href="#DejaVuSans-30" transform="translate(1160.115234 0)"/>
      <use xlink:href="#DejaVuSans-36" transform="translate(1223.738281 0)"/>
      <use xlink:href="#DejaVuSans-38" transform="translate(1287.361328 0)"/>
      <use xlink:href="#DejaVuSans-29" transform="translate(1350.984375 0)"/>
     </g>
    </g>
    <g id="line2d_36">
     <path d="M 513.415069 66.2925 
L 523.415069 66.2925 
L 533.415069 66.2925 
" style="fill: none; stroke: #2ca02c; stroke-width: 1.5; stroke-linecap: square"/>
    </g>
    <g id="text_17">
     <!-- Multimodal (C-index: 0.6878) -->
     <g transform="translate(541.415069 69.7925) scale(0.1 -0.1)">
      <defs>
       <path id="DejaVuSans-6d" d="M 3328 2828 
Q 3544 3216 3844 3400 
Q 4144 3584 4550 3584 
Q 5097 3584 5394 3201 
Q 5691 2819 5691 2113 
L 5691 0 
L 5113 0 
L 5113 2094 
Q 5113 2597 4934 2840 
Q 4756 3084 4391 3084 
Q 3944 3084 3684 2787 
Q 3425 2491 3425 1978 
L 3425 0 
L 2847 0 
L 2847 2094 
Q 2847 2600 2669 2842 
Q 2491 3084 2119 3084 
Q 1678 3084 1418 2786 
Q 1159 2488 1159 1978 
L 1159 0 
L 581 0 
L 581 3500 
L 1159 3500 
L 1159 2956 
Q 1356 3278 1631 3431 
Q 1906 3584 2284 3584 
Q 2666 3584 2933 3390 
Q 3200 3197 3328 2828 
z
" transform="scale(0.015625)"/>
      </defs>
      <use xlink:href="#DejaVuSans-4d"/>
      <use xlink:href="#DejaVuSans-75" transform="translate(86.279297 0)"/>
      <use xlink:href="#DejaVuSans-6c" transform="translate(149.658203 0)"/>
      <use xlink:href="#DejaVuSans-74" transform="translate(177.441406 0)"/>
      <use xlink:href="#DejaVuSans-69" transform="translate(216.650391 0)"/>
      <use xlink:href="#DejaVuSans-6d" transform="translate(244.433594 0)"/>
      <use xlink:href="#DejaVuSans-6f" transform="translate(341.845703 0)"/>
      <use xlink:href="#DejaVuSans-64" transform="translate(403.027344 0)"/>
      <use xlink:href="#DejaVuSans-61" transform="translate(466.503906 0)"/>
      <use xlink:href="#DejaVuSans-6c" transform="translate(527.783203 0)"/>
      <use xlink:href="#DejaVuSans-20" transform="translate(555.566406 0)"/>
      <use xlink:href="#DejaVuSans-28" transform="translate(587.353516 0)"/>
      <use xlink:href="#DejaVuSans-43" transform="translate(626.367188 0)"/>
      <use xlink:href="#DejaVuSans-2d" transform="translate(696.191406 0)"/>
      <use xlink:href="#DejaVuSans-69" transform="translate(732.275391 0)"/>
      <use xlink:href="#DejaVuSans-6e" transform="translate(760.058594 0)"/>
      <use xlink:href="#DejaVuSans-64" transform="translate(823.4375 0)"/>
      <use xlink:href="#DejaVuSans-65" transform="translate(886.914062 0)"/>
      <use xlink:href="#DejaVuSans-78" transform="translate(946.6875 0)"/>
      <use xlink:href="#DejaVuSans-3a" transform="translate(1005.867188 0)"/>
      <use xlink:href="#DejaVuSans-20" transform="translate(1039.558594 0)"/>
      <use xlink:href="#DejaVuSans-30" transform="translate(1071.345703 0)"/>
      <use xlink:href="#DejaVuSans-2e" transform="translate(1134.96875 0)"/>
      <use xlink:href="#DejaVuSans-36" transform="translate(1166.755859 0)"/>
      <use xlink:href="#DejaVuSans-38" transform="translate(1230.378906 0)"/>
      <use xlink:href="#DejaVuSans-37" transform="translate(1294.001953 0)"/>
      <use xlink:href="#DejaVuSans-38" transform="translate(1357.625 0)"/>
      <use xlink:href="#DejaVuSans-29" transform="translate(1421.248047 0)"/>
     </g>
    </g>
    <g id="line2d_37">
     <path d="M 513.415069 80.970625 
L 523.415069 80.970625 
L 533.415069 80.970625 
" style="fill: none; stroke: #d62728; stroke-width: 1.5; stroke-linecap: square"/>
    </g>
    <g id="text_18">
     <!-- Pathology (C-index: 0.6135) -->
     <g transform="translate(541.415069 84.470625) scale(0.1 -0.1)">
      <defs>
       <path id="DejaVuSans-68" d="M 3513 2113 
L 3513 0 
L 2938 0 
L 2938 2094 
Q 2938 2591 2744 2837 
Q 2550 3084 2163 3084 
Q 1697 3084 1428 2787 
Q 1159 2491 1159 1978 
L 1159 0 
L 581 0 
L 581 4863 
L 1159 4863 
L 1159 2956 
Q 1366 3272 1645 3428 
Q 1925 3584 2291 3584 
Q 2894 3584 3203 3211 
Q 3513 2838 3513 2113 
z
" transform="scale(0.015625)"/>
       <path id="DejaVuSans-67" d="M 2906 1791 
Q 2906 2416 2648 2759 
Q 2391 3103 1925 3103 
Q 1463 3103 1205 2759 
Q 947 2416 947 1791 
Q 947 1169 1205 825 
Q 1463 481 1925 481 
Q 2391 481 2648 825 
Q 2906 1169 2906 1791 
z
M 3481 434 
Q 3481 -459 3084 -895 
Q 2688 -1331 1869 -1331 
Q 1566 -1331 1297 -1286 
Q 1028 -1241 775 -1147 
L 775 -588 
Q 1028 -725 1275 -790 
Q 1522 -856 1778 -856 
Q 2344 -856 2625 -561 
Q 2906 -266 2906 331 
L 2906 616 
Q 2728 306 2450 153 
Q 2172 0 1784 0 
Q 1141 0 747 490 
Q 353 981 353 1791 
Q 353 2603 747 3093 
Q 1141 3584 1784 3584 
Q 2172 3584 2450 3431 
Q 2728 3278 2906 2969 
L 2906 3500 
L 3481 3500 
L 3481 434 
z
" transform="scale(0.015625)"/>
       <path id="DejaVuSans-33" d="M 2597 2516 
Q 3050 2419 3304 2112 
Q 3559 1806 3559 1356 
Q 3559 666 3084 287 
Q 2609 -91 1734 -91 
Q 1441 -91 1130 -33 
Q 819 25 488 141 
L 488 750 
Q 750 597 1062 519 
Q 1375 441 1716 441 
Q 2309 441 2620 675 
Q 2931 909 2931 1356 
Q 2931 1769 2642 2001 
Q 2353 2234 1838 2234 
L 1294 2234 
L 1294 2753 
L 1863 2753 
Q 2328 2753 2575 2939 
Q 2822 3125 2822 3475 
Q 2822 3834 2567 4026 
Q 2313 4219 1838 4219 
Q 1578 4219 1281 4162 
Q 984 4106 628 3988 
L 628 4550 
Q 988 4650 1302 4700 
Q 1616 4750 1894 4750 
Q 2613 4750 3031 4423 
Q 3450 4097 3450 3541 
Q 3450 3153 3228 2886 
Q 3006 2619 2597 2516 
z
" transform="scale(0.015625)"/>
      </defs>
      <use xlink:href="#DejaVuSans-50"/>
      <use xlink:href="#DejaVuSans-61" transform="translate(55.802734 0)"/>
      <use xlink:href="#DejaVuSans-74" transform="translate(117.082031 0)"/>
      <use xlink:href="#DejaVuSans-68" transform="translate(156.291016 0)"/>
      <use xlink:href="#DejaVuSans-6f" transform="translate(219.669922 0)"/>
      <use xlink:href="#DejaVuSans-6c" transform="translate(280.851562 0)"/>
      <use xlink:href="#DejaVuSans-6f" transform="translate(308.634766 0)"/>
      <use xlink:href="#DejaVuSans-67" transform="translate(369.816406 0)"/>
      <use xlink:href="#DejaVuSans-79" transform="translate(433.292969 0)"/>
      <use xlink:href="#DejaVuSans-20" transform="translate(492.472656 0)"/>
      <use xlink:href="#DejaVuSans-28" transform="translate(524.259766 0)"/>
      <use xlink:href="#DejaVuSans-43" transform="translate(563.273438 0)"/>
      <use xlink:href="#DejaVuSans-2d" transform="translate(633.097656 0)"/>
      <use xlink:href="#DejaVuSans-69" transform="translate(669.181641 0)"/>
      <use xlink:href="#DejaVuSans-6e" transform="translate(696.964844 0)"/>
      <use xlink:href="#DejaVuSans-64" transform="translate(760.34375 0)"/>
      <use xlink:href="#DejaVuSans-65" transform="translate(823.820312 0)"/>
      <use xlink:href="#DejaVuSans-78" transform="translate(883.59375 0)"/>
      <use xlink:href="#DejaVuSans-3a" transform="translate(942.773438 0)"/>
      <use xlink:href="#DejaVuSans-20" transform="translate(976.464844 0)"/>
      <use xlink:href="#DejaVuSans-30" transform="translate(1008.251953 0)"/>
      <use xlink:href="#DejaVuSans-2e" transform="translate(1071.875 0)"/>
      <use xlink:href="#DejaVuSans-36" transform="translate(1103.662109 0)"/>
      <use xlink:href="#DejaVuSans-31" transform="translate(1167.285156 0)"/>
      <use xlink:href="#DejaVuSans-33" transform="translate(1230.908203 0)"/>
      <use xlink:href="#DejaVuSans-35" transform="translate(1294.53125 0)"/>
      <use xlink:href="#DejaVuSans-29" transform="translate(1358.154297 0)"/>
     </g>
    </g>
    <g id="line2d_38">
     <path d="M 513.415069 95.64875 
L 523.415069 95.64875 
L 533.415069 95.64875 
" style="fill: none; stroke: #9467bd; stroke-width: 1.5; stroke-linecap: square"/>
    </g>
    <g id="text_19">
     <!-- Radiology (C-index: 0.5743) -->
     <g transform="translate(541.415069 99.14875) scale(0.1 -0.1)">
      <use xlink:href="#DejaVuSans-52"/>
      <use xlink:href="#DejaVuSans-61" transform="translate(67.232422 0)"/>
      <use xlink:href="#DejaVuSans-64" transform="translate(128.511719 0)"/>
      <use xlink:href="#DejaVuSans-69" transform="translate(191.988281 0)"/>
      <use xlink:href="#DejaVuSans-6f" transform="translate(219.771484 0)"/>
      <use xlink:href="#DejaVuSans-6c" transform="translate(280.953125 0)"/>
      <use xlink:href="#DejaVuSans-6f" transform="translate(308.736328 0)"/>
      <use xlink:href="#DejaVuSans-67" transform="translate(369.917969 0)"/>
      <use xlink:href="#DejaVuSans-79" transform="translate(433.394531 0)"/>
      <use xlink:href="#DejaVuSans-20" transform="translate(492.574219 0)"/>
      <use xlink:href="#DejaVuSans-28" transform="translate(524.361328 0)"/>
      <use xlink:href="#DejaVuSans-43" transform="translate(563.375 0)"/>
      <use xlink:href="#DejaVuSans-2d" transform="translate(633.199219 0)"/>
      <use xlink:href="#DejaVuSans-69" transform="translate(669.283203 0)"/>
      <use xlink:href="#DejaVuSans-6e" transform="translate(697.066406 0)"/>
      <use xlink:href="#DejaVuSans-64" transform="translate(760.445312 0)"/>
      <use xlink:href="#DejaVuSans-65" transform="translate(823.921875 0)"/>
      <use xlink:href="#DejaVuSans-78" transform="translate(883.695312 0)"/>
      <use xlink:href="#DejaVuSans-3a" transform="translate(942.875 0)"/>
      <use xlink:href="#DejaVuSans-20" transform="translate(976.566406 0)"/>
      <use xlink:href="#DejaVuSans-30" transform="translate(1008.353516 0)"/>
      <use xlink:href="#DejaVuSans-2e" transform="translate(1071.976562 0)"/>
      <use xlink:href="#DejaVuSans-35" transform="translate(1103.763672 0)"/>
      <use xlink:href="#DejaVuSans-37" transform="translate(1167.386719 0)"/>
      <use xlink:href="#DejaVuSans-34" transform="translate(1231.009766 0)"/>
      <use xlink:href="#DejaVuSans-33" transform="translate(1294.632812 0)"/>
      <use xlink:href="#DejaVuSans-29" transform="translate(1358.255859 0)"/>
     </g>
    </g>
    <g id="line2d_39">
     <path d="M 513.415069 110.326875 
L 523.415069 110.326875 
L 533.415069 110.326875 
" style="fill: none; stroke-dasharray: 1.5,2.475; stroke-dashoffset: 0; stroke: #000000; stroke-width: 1.5"/>
    </g>
    <g id="text_20">
     <!-- Random (C-index = 0.5) -->
     <g transform="translate(541.415069 113.826875) scale(0.1 -0.1)">
      <defs>
       <path id="DejaVuSans-3d" d="M 678 2906 
L 4684 2906 
L 4684 2381 
L 678 2381 
L 678 2906 
z
M 678 1631 
L 4684 1631 
L 4684 1100 
L 678 1100 
L 678 1631 
z
" transform="scale(0.015625)"/>
      </defs>
      <use xlink:href="#DejaVuSans-52"/>
      <use xlink:href="#DejaVuSans-61" transform="translate(67.232422 0)"/>
      <use xlink:href="#DejaVuSans-6e" transform="translate(128.511719 0)"/>
      <use xlink:href="#DejaVuSans-64" transform="translate(191.890625 0)"/>
      <use xlink:href="#DejaVuSans-6f" transform="translate(255.367188 0)"/>
      <use xlink:href="#DejaVuSans-6d" transform="translate(316.548828 0)"/>
      <use xlink:href="#DejaVuSans-20" transform="translate(413.960938 0)"/>
      <use xlink:href="#DejaVuSans-28" transform="translate(445.748047 0)"/>
      <use xlink:href="#DejaVuSans-43" transform="translate(484.761719 0)"/>
      <use xlink:href="#DejaVuSans-2d" transform="translate(554.585938 0)"/>
      <use xlink:href="#DejaVuSans-69" transform="translate(590.669922 0)"/>
      <use xlink:href="#DejaVuSans-6e" transform="translate(618.453125 0)"/>
      <use xlink:href="#DejaVuSans-64" transform="translate(681.832031 0)"/>
      <use xlink:href="#DejaVuSans-65" transform="translate(745.308594 0)"/>
      <use xlink:href="#DejaVuSans-78" transform="translate(805.082031 0)"/>
      <use xlink:href="#DejaVuSans-20" transform="translate(864.261719 0)"/>
      <use xlink:href="#DejaVuSans-3d" transform="translate(896.048828 0)"/>
      <use xlink:href="#DejaVuSans-20" transform="translate(979.837891 0)"/>
      <use xlink:href="#DejaVuSans-30" transform="translate(1011.625 0)"/>
      <use xlink:href="#DejaVuSans-2e" transform="translate(1075.248047 0)"/>
      <use xlink:href="#DejaVuSans-35" transform="translate(1107.035156 0)"/>
      <use xlink:href="#DejaVuSans-29" transform="translate(1170.658203 0)"/>
     </g>
    </g>
   </g>
  </g>
 </g>
 <defs>
  <clipPath id="pd47a502cd5">
   <rect x="36.17625" y="23.837812" width="660.265381" height="359.56"/>
  </clipPath>
 </defs>
</svg>
