<?xml version="1.0" encoding="utf-8" standalone="no"?>
<!DOCTYPE svg PUBLIC "-//W3C//DTD SVG 1.1//EN"
  "http://www.w3.org/Graphics/SVG/1.1/DTD/svg11.dtd">
<svg xmlns:xlink="http://www.w3.org/1999/xlink" width="710.225927pt" height="422.889687pt" viewBox="0 0 710.225927 422.889687" xmlns="http://www.w3.org/2000/svg" version="1.1">
 <metadata>
  <rdf:RDF xmlns:dc="http://purl.org/dc/elements/1.1/" xmlns:cc="http://creativecommons.org/ns#" xmlns:rdf="http://www.w3.org/1999/02/22-rdf-syntax-ns#">
   <cc:Work>
    <dc:type rdf:resource="http://purl.org/dc/dcmitype/StillImage"/>
    <dc:date>2025-04-03T13:02:19.858226</dc:date>
    <dc:format>image/svg+xml</dc:format>
    <dc:creator>
     <cc:Agent>
      <dc:title>Matplotlib v3.10.0, https://matplotlib.org/</dc:title>
     </cc:Agent>
    </dc:creator>
   </cc:Work>
  </rdf:RDF>
 </metadata>
 <defs>
  <style type="text/css">*{stroke-linejoin: round; stroke-linecap: butt}</style>
 </defs>
 <g id="figure_1">
  <g id="patch_1">
   <path d="M 0 422.889687 
L 710.225927 422.889687 
L 710.225927 0 
L 0 0 
z
" style="fill: #ffffff"/>
  </g>
  <g id="axes_1">
   <g id="patch_2">
    <path d="M 36.17625 383.397812 
L 702.904313 383.397812 
L 702.904313 23.837812 
L 36.17625 23.837812 
z
" style="fill: #ffffff"/>
   </g>
   <g id="matplotlib.axis_1">
    <g id="xtick_1">
     <g id="line2d_1">
      <path d="M 113.281806 383.397812 
L 113.281806 23.837812 
" clip-path="url(#p552d532ed6)" style="fill: none; stroke: #b0b0b0; stroke-opacity: 0.3; stroke-width: 0.8; stroke-linecap: square"/>
     </g>
     <g id="line2d_2">
      <defs>
       <path id="m4bf2b79777" d="M 0 0 
L 0 3.5 
" style="stroke: #000000; stroke-width: 0.8"/>
      </defs>
      <g>
       <use xlink:href="#m4bf2b79777" x="113.281806" y="383.397812" style="stroke: #000000; stroke-width: 0.8"/>
      </g>
     </g>
     <g id="text_1">
      <!-- −0.2 -->
      <g transform="translate(101.1404 397.99625) scale(0.1 -0.1)">
       <defs>
        <path id="DejaVuSans-2212" d="M 678 2272 
L 4684 2272 
L 4684 1741 
L 678 1741 
L 678 2272 
z
" transform="scale(0.015625)"/>
        <path id="DejaVuSans-30" d="M 2034 4250 
Q 1547 4250 1301 3770 
Q 1056 3291 1056 2328 
Q 1056 1369 1301 889 
Q 1547 409 2034 409 
Q 2525 409 2770 889 
Q 3016 1369 3016 2328 
Q 3016 3291 2770 3770 
Q 2525 4250 2034 4250 
z
M 2034 4750 
Q 2819 4750 3233 4129 
Q 3647 3509 3647 2328 
Q 3647 1150 3233 529 
Q 2819 -91 2034 -91 
Q 1250 -91 836 529 
Q 422 1150 422 2328 
Q 422 3509 836 4129 
Q 1250 4750 2034 4750 
z
" transform="scale(0.015625)"/>
        <path id="DejaVuSans-2e" d="M 684 794 
L 1344 794 
L 1344 0 
L 684 0 
L 684 794 
z
" transform="scale(0.015625)"/>
        <path id="DejaVuSans-32" d="M 1228 531 
L 3431 531 
L 3431 0 
L 469 0 
L 469 531 
Q 828 903 1448 1529 
Q 2069 2156 2228 2338 
Q 2531 2678 2651 2914 
Q 2772 3150 2772 3378 
Q 2772 3750 2511 3984 
Q 2250 4219 1831 4219 
Q 1534 4219 1204 4116 
Q 875 4013 500 3803 
L 500 4441 
Q 881 4594 1212 4672 
Q 1544 4750 1819 4750 
Q 2544 4750 2975 4387 
Q 3406 4025 3406 3419 
Q 3406 3131 3298 2873 
Q 3191 2616 2906 2266 
Q 2828 2175 2409 1742 
Q 1991 1309 1228 531 
z
" transform="scale(0.015625)"/>
       </defs>
       <use xlink:href="#DejaVuSans-2212"/>
       <use xlink:href="#DejaVuSans-30" transform="translate(83.789062 0)"/>
       <use xlink:href="#DejaVuSans-2e" transform="translate(147.412109 0)"/>
       <use xlink:href="#DejaVuSans-32" transform="translate(179.199219 0)"/>
      </g>
     </g>
    </g>
    <g id="xtick_2">
     <g id="line2d_3">
      <path d="M 210.247233 383.397812 
L 210.247233 23.837812 
" clip-path="url(#p552d532ed6)" style="fill: none; stroke: #b0b0b0; stroke-opacity: 0.3; stroke-width: 0.8; stroke-linecap: square"/>
     </g>
     <g id="line2d_4">
      <g>
       <use xlink:href="#m4bf2b79777" x="210.247233" y="383.397812" style="stroke: #000000; stroke-width: 0.8"/>
      </g>
     </g>
     <g id="text_2">
      <!-- −0.1 -->
      <g transform="translate(198.105826 397.99625) scale(0.1 -0.1)">
       <defs>
        <path id="DejaVuSans-31" d="M 794 531 
L 1825 531 
L 1825 4091 
L 703 3866 
L 703 4441 
L 1819 4666 
L 2450 4666 
L 2450 531 
L 3481 531 
L 3481 0 
L 794 0 
L 794 531 
z
" transform="scale(0.015625)"/>
       </defs>
       <use xlink:href="#DejaVuSans-2212"/>
       <use xlink:href="#DejaVuSans-30" transform="translate(83.789062 0)"/>
       <use xlink:href="#DejaVuSans-2e" transform="translate(147.412109 0)"/>
       <use xlink:href="#DejaVuSans-31" transform="translate(179.199219 0)"/>
      </g>
     </g>
    </g>
    <g id="xtick_3">
     <g id="line2d_5">
      <path d="M 307.212659 383.397812 
L 307.212659 23.837812 
" clip-path="url(#p552d532ed6)" style="fill: none; stroke: #b0b0b0; stroke-opacity: 0.3; stroke-width: 0.8; stroke-linecap: square"/>
     </g>
     <g id="line2d_6">
      <g>
       <use xlink:href="#m4bf2b79777" x="307.212659" y="383.397812" style="stroke: #000000; stroke-width: 0.8"/>
      </g>
     </g>
     <g id="text_3">
      <!-- 0.0 -->
      <g transform="translate(299.261097 397.99625) scale(0.1 -0.1)">
       <use xlink:href="#DejaVuSans-30"/>
       <use xlink:href="#DejaVuSans-2e" transform="translate(63.623047 0)"/>
       <use xlink:href="#DejaVuSans-30" transform="translate(95.410156 0)"/>
      </g>
     </g>
    </g>
    <g id="xtick_4">
     <g id="line2d_7">
      <path d="M 404.178085 383.397812 
L 404.178085 23.837812 
" clip-path="url(#p552d532ed6)" style="fill: none; stroke: #b0b0b0; stroke-opacity: 0.3; stroke-width: 0.8; stroke-linecap: square"/>
     </g>
     <g id="line2d_8">
      <g>
       <use xlink:href="#m4bf2b79777" x="404.178085" y="383.397812" style="stroke: #000000; stroke-width: 0.8"/>
      </g>
     </g>
     <g id="text_4">
      <!-- 0.1 -->
      <g transform="translate(396.226523 397.99625) scale(0.1 -0.1)">
       <use xlink:href="#DejaVuSans-30"/>
       <use xlink:href="#DejaVuSans-2e" transform="translate(63.623047 0)"/>
       <use xlink:href="#DejaVuSans-31" transform="translate(95.410156 0)"/>
      </g>
     </g>
    </g>
    <g id="xtick_5">
     <g id="line2d_9">
      <path d="M 501.143512 383.397812 
L 501.143512 23.837812 
" clip-path="url(#p552d532ed6)" style="fill: none; stroke: #b0b0b0; stroke-opacity: 0.3; stroke-width: 0.8; stroke-linecap: square"/>
     </g>
     <g id="line2d_10">
      <g>
       <use xlink:href="#m4bf2b79777" x="501.143512" y="383.397812" style="stroke: #000000; stroke-width: 0.8"/>
      </g>
     </g>
     <g id="text_5">
      <!-- 0.2 -->
      <g transform="translate(493.191949 397.99625) scale(0.1 -0.1)">
       <use xlink:href="#DejaVuSans-30"/>
       <use xlink:href="#DejaVuSans-2e" transform="translate(63.623047 0)"/>
       <use xlink:href="#DejaVuSans-32" transform="translate(95.410156 0)"/>
      </g>
     </g>
    </g>
    <g id="xtick_6">
     <g id="line2d_11">
      <path d="M 598.108938 383.397812 
L 598.108938 23.837812 
" clip-path="url(#p552d532ed6)" style="fill: none; stroke: #b0b0b0; stroke-opacity: 0.3; stroke-width: 0.8; stroke-linecap: square"/>
     </g>
     <g id="line2d_12">
      <g>
       <use xlink:href="#m4bf2b79777" x="598.108938" y="383.397812" style="stroke: #000000; stroke-width: 0.8"/>
      </g>
     </g>
     <g id="text_6">
      <!-- 0.3 -->
      <g transform="translate(590.157376 397.99625) scale(0.1 -0.1)">
       <defs>
        <path id="DejaVuSans-33" d="M 2597 2516 
Q 3050 2419 3304 2112 
Q 3559 1806 3559 1356 
Q 3559 666 3084 287 
Q 2609 -91 1734 -91 
Q 1441 -91 1130 -33 
Q 819 25 488 141 
L 488 750 
Q 750 597 1062 519 
Q 1375 441 1716 441 
Q 2309 441 2620 675 
Q 2931 909 2931 1356 
Q 2931 1769 2642 2001 
Q 2353 2234 1838 2234 
L 1294 2234 
L 1294 2753 
L 1863 2753 
Q 2328 2753 2575 2939 
Q 2822 3125 2822 3475 
Q 2822 3834 2567 4026 
Q 2313 4219 1838 4219 
Q 1578 4219 1281 4162 
Q 984 4106 628 3988 
L 628 4550 
Q 988 4650 1302 4700 
Q 1616 4750 1894 4750 
Q 2613 4750 3031 4423 
Q 3450 4097 3450 3541 
Q 3450 3153 3228 2886 
Q 3006 2619 2597 2516 
z
" transform="scale(0.015625)"/>
       </defs>
       <use xlink:href="#DejaVuSans-30"/>
       <use xlink:href="#DejaVuSans-2e" transform="translate(63.623047 0)"/>
       <use xlink:href="#DejaVuSans-33" transform="translate(95.410156 0)"/>
      </g>
     </g>
    </g>
    <g id="xtick_7">
     <g id="line2d_13">
      <path d="M 695.074365 383.397812 
L 695.074365 23.837812 
" clip-path="url(#p552d532ed6)" style="fill: none; stroke: #b0b0b0; stroke-opacity: 0.3; stroke-width: 0.8; stroke-linecap: square"/>
     </g>
     <g id="line2d_14">
      <g>
       <use xlink:href="#m4bf2b79777" x="695.074365" y="383.397812" style="stroke: #000000; stroke-width: 0.8"/>
      </g>
     </g>
     <g id="text_7">
      <!-- 0.4 -->
      <g transform="translate(687.122802 397.99625) scale(0.1 -0.1)">
       <defs>
        <path id="DejaVuSans-34" d="M 2419 4116 
L 825 1625 
L 2419 1625 
L 2419 4116 
z
M 2253 4666 
L 3047 4666 
L 3047 1625 
L 3713 1625 
L 3713 1100 
L 3047 1100 
L 3047 0 
L 2419 0 
L 2419 1100 
L 313 1100 
L 313 1709 
L 2253 4666 
z
" transform="scale(0.015625)"/>
       </defs>
       <use xlink:href="#DejaVuSans-30"/>
       <use xlink:href="#DejaVuSans-2e" transform="translate(63.623047 0)"/>
       <use xlink:href="#DejaVuSans-34" transform="translate(95.410156 0)"/>
      </g>
     </g>
    </g>
    <g id="text_8">
     <!-- Difference in C-index (Multimodal - Other) -->
     <g transform="translate(243.529032 413.194062) scale(0.12 -0.12)">
      <defs>
       <path id="DejaVuSans-44" d="M 1259 4147 
L 1259 519 
L 2022 519 
Q 2988 519 3436 956 
Q 3884 1394 3884 2338 
Q 3884 3275 3436 3711 
Q 2988 4147 2022 4147 
L 1259 4147 
z
M 628 4666 
L 1925 4666 
Q 3281 4666 3915 4102 
Q 4550 3538 4550 2338 
Q 4550 1131 3912 565 
Q 3275 0 1925 0 
L 628 0 
L 628 4666 
z
" transform="scale(0.015625)"/>
       <path id="DejaVuSans-69" d="M 603 3500 
L 1178 3500 
L 1178 0 
L 603 0 
L 603 3500 
z
M 603 4863 
L 1178 4863 
L 1178 4134 
L 603 4134 
L 603 4863 
z
" transform="scale(0.015625)"/>
       <path id="DejaVuSans-66" d="M 2375 4863 
L 2375 4384 
L 1825 4384 
Q 1516 4384 1395 4259 
Q 1275 4134 1275 3809 
L 1275 3500 
L 2222 3500 
L 2222 3053 
L 1275 3053 
L 1275 0 
L 697 0 
L 697 3053 
L 147 3053 
L 147 3500 
L 697 3500 
L 697 3744 
Q 697 4328 969 4595 
Q 1241 4863 1831 4863 
L 2375 4863 
z
" transform="scale(0.015625)"/>
       <path id="DejaVuSans-65" d="M 3597 1894 
L 3597 1613 
L 953 1613 
Q 991 1019 1311 708 
Q 1631 397 2203 397 
Q 2534 397 2845 478 
Q 3156 559 3463 722 
L 3463 178 
Q 3153 47 2828 -22 
Q 2503 -91 2169 -91 
Q 1331 -91 842 396 
Q 353 884 353 1716 
Q 353 2575 817 3079 
Q 1281 3584 2069 3584 
Q 2775 3584 3186 3129 
Q 3597 2675 3597 1894 
z
M 3022 2063 
Q 3016 2534 2758 2815 
Q 2500 3097 2075 3097 
Q 1594 3097 1305 2825 
Q 1016 2553 972 2059 
L 3022 2063 
z
" transform="scale(0.015625)"/>
       <path id="DejaVuSans-72" d="M 2631 2963 
Q 2534 3019 2420 3045 
Q 2306 3072 2169 3072 
Q 1681 3072 1420 2755 
Q 1159 2438 1159 1844 
L 1159 0 
L 581 0 
L 581 3500 
L 1159 3500 
L 1159 2956 
Q 1341 3275 1631 3429 
Q 1922 3584 2338 3584 
Q 2397 3584 2469 3576 
Q 2541 3569 2628 3553 
L 2631 2963 
z
" transform="scale(0.015625)"/>
       <path id="DejaVuSans-6e" d="M 3513 2113 
L 3513 0 
L 2938 0 
L 2938 2094 
Q 2938 2591 2744 2837 
Q 2550 3084 2163 3084 
Q 1697 3084 1428 2787 
Q 1159 2491 1159 1978 
L 1159 0 
L 581 0 
L 581 3500 
L 1159 3500 
L 1159 2956 
Q 1366 3272 1645 3428 
Q 1925 3584 2291 3584 
Q 2894 3584 3203 3211 
Q 3513 2838 3513 2113 
z
" transform="scale(0.015625)"/>
       <path id="DejaVuSans-63" d="M 3122 3366 
L 3122 2828 
Q 2878 2963 2633 3030 
Q 2388 3097 2138 3097 
Q 1578 3097 1268 2742 
Q 959 2388 959 1747 
Q 959 1106 1268 751 
Q 1578 397 2138 397 
Q 2388 397 2633 464 
Q 2878 531 3122 666 
L 3122 134 
Q 2881 22 2623 -34 
Q 2366 -91 2075 -91 
Q 1284 -91 818 406 
Q 353 903 353 1747 
Q 353 2603 823 3093 
Q 1294 3584 2113 3584 
Q 2378 3584 2631 3529 
Q 2884 3475 3122 3366 
z
" transform="scale(0.015625)"/>
       <path id="DejaVuSans-20" transform="scale(0.015625)"/>
       <path id="DejaVuSans-43" d="M 4122 4306 
L 4122 3641 
Q 3803 3938 3442 4084 
Q 3081 4231 2675 4231 
Q 1875 4231 1450 3742 
Q 1025 3253 1025 2328 
Q 1025 1406 1450 917 
Q 1875 428 2675 428 
Q 3081 428 3442 575 
Q 3803 722 4122 1019 
L 4122 359 
Q 3791 134 3420 21 
Q 3050 -91 2638 -91 
Q 1578 -91 968 557 
Q 359 1206 359 2328 
Q 359 3453 968 4101 
Q 1578 4750 2638 4750 
Q 3056 4750 3426 4639 
Q 3797 4528 4122 4306 
z
" transform="scale(0.015625)"/>
       <path id="DejaVuSans-2d" d="M 313 2009 
L 1997 2009 
L 1997 1497 
L 313 1497 
L 313 2009 
z
" transform="scale(0.015625)"/>
       <path id="DejaVuSans-64" d="M 2906 2969 
L 2906 4863 
L 3481 4863 
L 3481 0 
L 2906 0 
L 2906 525 
Q 2725 213 2448 61 
Q 2172 -91 1784 -91 
Q 1150 -91 751 415 
Q 353 922 353 1747 
Q 353 2572 751 3078 
Q 1150 3584 1784 3584 
Q 2172 3584 2448 3432 
Q 2725 3281 2906 2969 
z
M 947 1747 
Q 947 1113 1208 752 
Q 1469 391 1925 391 
Q 2381 391 2643 752 
Q 2906 1113 2906 1747 
Q 2906 2381 2643 2742 
Q 2381 3103 1925 3103 
Q 1469 3103 1208 2742 
Q 947 2381 947 1747 
z
" transform="scale(0.015625)"/>
       <path id="DejaVuSans-78" d="M 3513 3500 
L 2247 1797 
L 3578 0 
L 2900 0 
L 1881 1375 
L 863 0 
L 184 0 
L 1544 1831 
L 300 3500 
L 978 3500 
L 1906 2253 
L 2834 3500 
L 3513 3500 
z
" transform="scale(0.015625)"/>
       <path id="DejaVuSans-28" d="M 1984 4856 
Q 1566 4138 1362 3434 
Q 1159 2731 1159 2009 
Q 1159 1288 1364 580 
Q 1569 -128 1984 -844 
L 1484 -844 
Q 1016 -109 783 600 
Q 550 1309 550 2009 
Q 550 2706 781 3412 
Q 1013 4119 1484 4856 
L 1984 4856 
z
" transform="scale(0.015625)"/>
       <path id="DejaVuSans-4d" d="M 628 4666 
L 1569 4666 
L 2759 1491 
L 3956 4666 
L 4897 4666 
L 4897 0 
L 4281 0 
L 4281 4097 
L 3078 897 
L 2444 897 
L 1241 4097 
L 1241 0 
L 628 0 
L 628 4666 
z
" transform="scale(0.015625)"/>
       <path id="DejaVuSans-75" d="M 544 1381 
L 544 3500 
L 1119 3500 
L 1119 1403 
Q 1119 906 1312 657 
Q 1506 409 1894 409 
Q 2359 409 2629 706 
Q 2900 1003 2900 1516 
L 2900 3500 
L 3475 3500 
L 3475 0 
L 2900 0 
L 2900 538 
Q 2691 219 2414 64 
Q 2138 -91 1772 -91 
Q 1169 -91 856 284 
Q 544 659 544 1381 
z
M 1991 3584 
L 1991 3584 
z
" transform="scale(0.015625)"/>
       <path id="DejaVuSans-6c" d="M 603 4863 
L 1178 4863 
L 1178 0 
L 603 0 
L 603 4863 
z
" transform="scale(0.015625)"/>
       <path id="DejaVuSans-74" d="M 1172 4494 
L 1172 3500 
L 2356 3500 
L 2356 3053 
L 1172 3053 
L 1172 1153 
Q 1172 725 1289 603 
Q 1406 481 1766 481 
L 2356 481 
L 2356 0 
L 1766 0 
Q 1100 0 847 248 
Q 594 497 594 1153 
L 594 3053 
L 172 3053 
L 172 3500 
L 594 3500 
L 594 4494 
L 1172 4494 
z
" transform="scale(0.015625)"/>
       <path id="DejaVuSans-6d" d="M 3328 2828 
Q 3544 3216 3844 3400 
Q 4144 3584 4550 3584 
Q 5097 3584 5394 3201 
Q 5691 2819 5691 2113 
L 5691 0 
L 5113 0 
L 5113 2094 
Q 5113 2597 4934 2840 
Q 4756 3084 4391 3084 
Q 3944 3084 3684 2787 
Q 3425 2491 3425 1978 
L 3425 0 
L 2847 0 
L 2847 2094 
Q 2847 2600 2669 2842 
Q 2491 3084 2119 3084 
Q 1678 3084 1418 2786 
Q 1159 2488 1159 1978 
L 1159 0 
L 581 0 
L 581 3500 
L 1159 3500 
L 1159 2956 
Q 1356 3278 1631 3431 
Q 1906 3584 2284 3584 
Q 2666 3584 2933 3390 
Q 3200 3197 3328 2828 
z
" transform="scale(0.015625)"/>
       <path id="DejaVuSans-6f" d="M 1959 3097 
Q 1497 3097 1228 2736 
Q 959 2375 959 1747 
Q 959 1119 1226 758 
Q 1494 397 1959 397 
Q 2419 397 2687 759 
Q 2956 1122 2956 1747 
Q 2956 2369 2687 2733 
Q 2419 3097 1959 3097 
z
M 1959 3584 
Q 2709 3584 3137 3096 
Q 3566 2609 3566 1747 
Q 3566 888 3137 398 
Q 2709 -91 1959 -91 
Q 1206 -91 779 398 
Q 353 888 353 1747 
Q 353 2609 779 3096 
Q 1206 3584 1959 3584 
z
" transform="scale(0.015625)"/>
       <path id="DejaVuSans-61" d="M 2194 1759 
Q 1497 1759 1228 1600 
Q 959 1441 959 1056 
Q 959 750 1161 570 
Q 1363 391 1709 391 
Q 2188 391 2477 730 
Q 2766 1069 2766 1631 
L 2766 1759 
L 2194 1759 
z
M 3341 1997 
L 3341 0 
L 2766 0 
L 2766 531 
Q 2569 213 2275 61 
Q 1981 -91 1556 -91 
Q 1019 -91 701 211 
Q 384 513 384 1019 
Q 384 1609 779 1909 
Q 1175 2209 1959 2209 
L 2766 2209 
L 2766 2266 
Q 2766 2663 2505 2880 
Q 2244 3097 1772 3097 
Q 1472 3097 1187 3025 
Q 903 2953 641 2809 
L 641 3341 
Q 956 3463 1253 3523 
Q 1550 3584 1831 3584 
Q 2591 3584 2966 3190 
Q 3341 2797 3341 1997 
z
" transform="scale(0.015625)"/>
       <path id="DejaVuSans-4f" d="M 2522 4238 
Q 1834 4238 1429 3725 
Q 1025 3213 1025 2328 
Q 1025 1447 1429 934 
Q 1834 422 2522 422 
Q 3209 422 3611 934 
Q 4013 1447 4013 2328 
Q 4013 3213 3611 3725 
Q 3209 4238 2522 4238 
z
M 2522 4750 
Q 3503 4750 4090 4092 
Q 4678 3434 4678 2328 
Q 4678 1225 4090 567 
Q 3503 -91 2522 -91 
Q 1538 -91 948 565 
Q 359 1222 359 2328 
Q 359 3434 948 4092 
Q 1538 4750 2522 4750 
z
" transform="scale(0.015625)"/>
       <path id="DejaVuSans-68" d="M 3513 2113 
L 3513 0 
L 2938 0 
L 2938 2094 
Q 2938 2591 2744 2837 
Q 2550 3084 2163 3084 
Q 1697 3084 1428 2787 
Q 1159 2491 1159 1978 
L 1159 0 
L 581 0 
L 581 4863 
L 1159 4863 
L 1159 2956 
Q 1366 3272 1645 3428 
Q 1925 3584 2291 3584 
Q 2894 3584 3203 3211 
Q 3513 2838 3513 2113 
z
" transform="scale(0.015625)"/>
       <path id="DejaVuSans-29" d="M 513 4856 
L 1013 4856 
Q 1481 4119 1714 3412 
Q 1947 2706 1947 2009 
Q 1947 1309 1714 600 
Q 1481 -109 1013 -844 
L 513 -844 
Q 928 -128 1133 580 
Q 1338 1288 1338 2009 
Q 1338 2731 1133 3434 
Q 928 4138 513 4856 
z
" transform="scale(0.015625)"/>
      </defs>
      <use xlink:href="#DejaVuSans-44"/>
      <use xlink:href="#DejaVuSans-69" transform="translate(77.001953 0)"/>
      <use xlink:href="#DejaVuSans-66" transform="translate(104.785156 0)"/>
      <use xlink:href="#DejaVuSans-66" transform="translate(139.990234 0)"/>
      <use xlink:href="#DejaVuSans-65" transform="translate(175.195312 0)"/>
      <use xlink:href="#DejaVuSans-72" transform="translate(236.71875 0)"/>
      <use xlink:href="#DejaVuSans-65" transform="translate(275.582031 0)"/>
      <use xlink:href="#DejaVuSans-6e" transform="translate(337.105469 0)"/>
      <use xlink:href="#DejaVuSans-63" transform="translate(400.484375 0)"/>
      <use xlink:href="#DejaVuSans-65" transform="translate(455.464844 0)"/>
      <use xlink:href="#DejaVuSans-20" transform="translate(516.988281 0)"/>
      <use xlink:href="#DejaVuSans-69" transform="translate(548.775391 0)"/>
      <use xlink:href="#DejaVuSans-6e" transform="translate(576.558594 0)"/>
      <use xlink:href="#DejaVuSans-20" transform="translate(639.9375 0)"/>
      <use xlink:href="#DejaVuSans-43" transform="translate(671.724609 0)"/>
      <use xlink:href="#DejaVuSans-2d" transform="translate(741.548828 0)"/>
      <use xlink:href="#DejaVuSans-69" transform="translate(777.632812 0)"/>
      <use xlink:href="#DejaVuSans-6e" transform="translate(805.416016 0)"/>
      <use xlink:href="#DejaVuSans-64" transform="translate(868.794922 0)"/>
      <use xlink:href="#DejaVuSans-65" transform="translate(932.271484 0)"/>
      <use xlink:href="#DejaVuSans-78" transform="translate(992.044922 0)"/>
      <use xlink:href="#DejaVuSans-20" transform="translate(1051.224609 0)"/>
      <use xlink:href="#DejaVuSans-28" transform="translate(1083.011719 0)"/>
      <use xlink:href="#DejaVuSans-4d" transform="translate(1122.025391 0)"/>
      <use xlink:href="#DejaVuSans-75" transform="translate(1208.304688 0)"/>
      <use xlink:href="#DejaVuSans-6c" transform="translate(1271.683594 0)"/>
      <use xlink:href="#DejaVuSans-74" transform="translate(1299.466797 0)"/>
      <use xlink:href="#DejaVuSans-69" transform="translate(1338.675781 0)"/>
      <use xlink:href="#DejaVuSans-6d" transform="translate(1366.458984 0)"/>
      <use xlink:href="#DejaVuSans-6f" transform="translate(1463.871094 0)"/>
      <use xlink:href="#DejaVuSans-64" transform="translate(1525.052734 0)"/>
      <use xlink:href="#DejaVuSans-61" transform="translate(1588.529297 0)"/>
      <use xlink:href="#DejaVuSans-6c" transform="translate(1649.808594 0)"/>
      <use xlink:href="#DejaVuSans-20" transform="translate(1677.591797 0)"/>
      <use xlink:href="#DejaVuSans-2d" transform="translate(1709.378906 0)"/>
      <use xlink:href="#DejaVuSans-20" transform="translate(1745.462891 0)"/>
      <use xlink:href="#DejaVuSans-4f" transform="translate(1777.25 0)"/>
      <use xlink:href="#DejaVuSans-74" transform="translate(1855.960938 0)"/>
      <use xlink:href="#DejaVuSans-68" transform="translate(1895.169922 0)"/>
      <use xlink:href="#DejaVuSans-65" transform="translate(1958.548828 0)"/>
      <use xlink:href="#DejaVuSans-72" transform="translate(2020.072266 0)"/>
      <use xlink:href="#DejaVuSans-29" transform="translate(2061.185547 0)"/>
     </g>
    </g>
   </g>
   <g id="matplotlib.axis_2">
    <g id="ytick_1">
     <g id="line2d_15">
      <path d="M 36.17625 383.397812 
L 702.904313 383.397812 
" clip-path="url(#p552d532ed6)" style="fill: none; stroke: #b0b0b0; stroke-opacity: 0.3; stroke-width: 0.8; stroke-linecap: square"/>
     </g>
     <g id="line2d_16">
      <defs>
       <path id="md3c3aa410c" d="M 0 0 
L -3.5 0 
" style="stroke: #000000; stroke-width: 0.8"/>
      </defs>
      <g>
       <use xlink:href="#md3c3aa410c" x="36.17625" y="383.397812" style="stroke: #000000; stroke-width: 0.8"/>
      </g>
     </g>
     <g id="text_9">
      <!-- 0 -->
      <g transform="translate(22.81375 387.197031) scale(0.1 -0.1)">
       <use xlink:href="#DejaVuSans-30"/>
      </g>
     </g>
    </g>
    <g id="ytick_2">
     <g id="line2d_17">
      <path d="M 36.17625 336.691893 
L 702.904313 336.691893 
" clip-path="url(#p552d532ed6)" style="fill: none; stroke: #b0b0b0; stroke-opacity: 0.3; stroke-width: 0.8; stroke-linecap: square"/>
     </g>
     <g id="line2d_18">
      <g>
       <use xlink:href="#md3c3aa410c" x="36.17625" y="336.691893" style="stroke: #000000; stroke-width: 0.8"/>
      </g>
     </g>
     <g id="text_10">
      <!-- 1 -->
      <g transform="translate(22.81375 340.491112) scale(0.1 -0.1)">
       <use xlink:href="#DejaVuSans-31"/>
      </g>
     </g>
    </g>
    <g id="ytick_3">
     <g id="line2d_19">
      <path d="M 36.17625 289.985974 
L 702.904313 289.985974 
" clip-path="url(#p552d532ed6)" style="fill: none; stroke: #b0b0b0; stroke-opacity: 0.3; stroke-width: 0.8; stroke-linecap: square"/>
     </g>
     <g id="line2d_20">
      <g>
       <use xlink:href="#md3c3aa410c" x="36.17625" y="289.985974" style="stroke: #000000; stroke-width: 0.8"/>
      </g>
     </g>
     <g id="text_11">
      <!-- 2 -->
      <g transform="translate(22.81375 293.785192) scale(0.1 -0.1)">
       <use xlink:href="#DejaVuSans-32"/>
      </g>
     </g>
    </g>
    <g id="ytick_4">
     <g id="line2d_21">
      <path d="M 36.17625 243.280054 
L 702.904313 243.280054 
" clip-path="url(#p552d532ed6)" style="fill: none; stroke: #b0b0b0; stroke-opacity: 0.3; stroke-width: 0.8; stroke-linecap: square"/>
     </g>
     <g id="line2d_22">
      <g>
       <use xlink:href="#md3c3aa410c" x="36.17625" y="243.280054" style="stroke: #000000; stroke-width: 0.8"/>
      </g>
     </g>
     <g id="text_12">
      <!-- 3 -->
      <g transform="translate(22.81375 247.079273) scale(0.1 -0.1)">
       <use xlink:href="#DejaVuSans-33"/>
      </g>
     </g>
    </g>
    <g id="ytick_5">
     <g id="line2d_23">
      <path d="M 36.17625 196.574135 
L 702.904313 196.574135 
" clip-path="url(#p552d532ed6)" style="fill: none; stroke: #b0b0b0; stroke-opacity: 0.3; stroke-width: 0.8; stroke-linecap: square"/>
     </g>
     <g id="line2d_24">
      <g>
       <use xlink:href="#md3c3aa410c" x="36.17625" y="196.574135" style="stroke: #000000; stroke-width: 0.8"/>
      </g>
     </g>
     <g id="text_13">
      <!-- 4 -->
      <g transform="translate(22.81375 200.373354) scale(0.1 -0.1)">
       <use xlink:href="#DejaVuSans-34"/>
      </g>
     </g>
    </g>
    <g id="ytick_6">
     <g id="line2d_25">
      <path d="M 36.17625 149.868216 
L 702.904313 149.868216 
" clip-path="url(#p552d532ed6)" style="fill: none; stroke: #b0b0b0; stroke-opacity: 0.3; stroke-width: 0.8; stroke-linecap: square"/>
     </g>
     <g id="line2d_26">
      <g>
       <use xlink:href="#md3c3aa410c" x="36.17625" y="149.868216" style="stroke: #000000; stroke-width: 0.8"/>
      </g>
     </g>
     <g id="text_14">
      <!-- 5 -->
      <g transform="translate(22.81375 153.667434) scale(0.1 -0.1)">
       <defs>
        <path id="DejaVuSans-35" d="M 691 4666 
L 3169 4666 
L 3169 4134 
L 1269 4134 
L 1269 2991 
Q 1406 3038 1543 3061 
Q 1681 3084 1819 3084 
Q 2600 3084 3056 2656 
Q 3513 2228 3513 1497 
Q 3513 744 3044 326 
Q 2575 -91 1722 -91 
Q 1428 -91 1123 -41 
Q 819 9 494 109 
L 494 744 
Q 775 591 1075 516 
Q 1375 441 1709 441 
Q 2250 441 2565 725 
Q 2881 1009 2881 1497 
Q 2881 1984 2565 2268 
Q 2250 2553 1709 2553 
Q 1456 2553 1204 2497 
Q 953 2441 691 2322 
L 691 4666 
z
" transform="scale(0.015625)"/>
       </defs>
       <use xlink:href="#DejaVuSans-35"/>
      </g>
     </g>
    </g>
    <g id="ytick_7">
     <g id="line2d_27">
      <path d="M 36.17625 103.162296 
L 702.904313 103.162296 
" clip-path="url(#p552d532ed6)" style="fill: none; stroke: #b0b0b0; stroke-opacity: 0.3; stroke-width: 0.8; stroke-linecap: square"/>
     </g>
     <g id="line2d_28">
      <g>
       <use xlink:href="#md3c3aa410c" x="36.17625" y="103.162296" style="stroke: #000000; stroke-width: 0.8"/>
      </g>
     </g>
     <g id="text_15">
      <!-- 6 -->
      <g transform="translate(22.81375 106.961515) scale(0.1 -0.1)">
       <defs>
        <path id="DejaVuSans-36" d="M 2113 2584 
Q 1688 2584 1439 2293 
Q 1191 2003 1191 1497 
Q 1191 994 1439 701 
Q 1688 409 2113 409 
Q 2538 409 2786 701 
Q 3034 994 3034 1497 
Q 3034 2003 2786 2293 
Q 2538 2584 2113 2584 
z
M 3366 4563 
L 3366 3988 
Q 3128 4100 2886 4159 
Q 2644 4219 2406 4219 
Q 1781 4219 1451 3797 
Q 1122 3375 1075 2522 
Q 1259 2794 1537 2939 
Q 1816 3084 2150 3084 
Q 2853 3084 3261 2657 
Q 3669 2231 3669 1497 
Q 3669 778 3244 343 
Q 2819 -91 2113 -91 
Q 1303 -91 875 529 
Q 447 1150 447 2328 
Q 447 3434 972 4092 
Q 1497 4750 2381 4750 
Q 2619 4750 2861 4703 
Q 3103 4656 3366 4563 
z
" transform="scale(0.015625)"/>
       </defs>
       <use xlink:href="#DejaVuSans-36"/>
      </g>
     </g>
    </g>
    <g id="ytick_8">
     <g id="line2d_29">
      <path d="M 36.17625 56.456377 
L 702.904313 56.456377 
" clip-path="url(#p552d532ed6)" style="fill: none; stroke: #b0b0b0; stroke-opacity: 0.3; stroke-width: 0.8; stroke-linecap: square"/>
     </g>
     <g id="line2d_30">
      <g>
       <use xlink:href="#md3c3aa410c" x="36.17625" y="56.456377" style="stroke: #000000; stroke-width: 0.8"/>
      </g>
     </g>
     <g id="text_16">
      <!-- 7 -->
      <g transform="translate(22.81375 60.255595) scale(0.1 -0.1)">
       <defs>
        <path id="DejaVuSans-37" d="M 525 4666 
L 3525 4666 
L 3525 4397 
L 1831 0 
L 1172 0 
L 2766 4134 
L 525 4134 
L 525 4666 
z
" transform="scale(0.015625)"/>
       </defs>
       <use xlink:href="#DejaVuSans-37"/>
      </g>
     </g>
    </g>
    <g id="text_17">
     <!-- Density -->
     <g transform="translate(16.318125 226.428125) rotate(-90) scale(0.12 -0.12)">
      <defs>
       <path id="DejaVuSans-73" d="M 2834 3397 
L 2834 2853 
Q 2591 2978 2328 3040 
Q 2066 3103 1784 3103 
Q 1356 3103 1142 2972 
Q 928 2841 928 2578 
Q 928 2378 1081 2264 
Q 1234 2150 1697 2047 
L 1894 2003 
Q 2506 1872 2764 1633 
Q 3022 1394 3022 966 
Q 3022 478 2636 193 
Q 2250 -91 1575 -91 
Q 1294 -91 989 -36 
Q 684 19 347 128 
L 347 722 
Q 666 556 975 473 
Q 1284 391 1588 391 
Q 1994 391 2212 530 
Q 2431 669 2431 922 
Q 2431 1156 2273 1281 
Q 2116 1406 1581 1522 
L 1381 1569 
Q 847 1681 609 1914 
Q 372 2147 372 2553 
Q 372 3047 722 3315 
Q 1072 3584 1716 3584 
Q 2034 3584 2315 3537 
Q 2597 3491 2834 3397 
z
" transform="scale(0.015625)"/>
       <path id="DejaVuSans-79" d="M 2059 -325 
Q 1816 -950 1584 -1140 
Q 1353 -1331 966 -1331 
L 506 -1331 
L 506 -850 
L 844 -850 
Q 1081 -850 1212 -737 
Q 1344 -625 1503 -206 
L 1606 56 
L 191 3500 
L 800 3500 
L 1894 763 
L 2988 3500 
L 3597 3500 
L 2059 -325 
z
" transform="scale(0.015625)"/>
      </defs>
      <use xlink:href="#DejaVuSans-44"/>
      <use xlink:href="#DejaVuSans-65" transform="translate(77.001953 0)"/>
      <use xlink:href="#DejaVuSans-6e" transform="translate(138.525391 0)"/>
      <use xlink:href="#DejaVuSans-73" transform="translate(201.904297 0)"/>
      <use xlink:href="#DejaVuSans-69" transform="translate(254.003906 0)"/>
      <use xlink:href="#DejaVuSans-74" transform="translate(281.787109 0)"/>
      <use xlink:href="#DejaVuSans-79" transform="translate(320.996094 0)"/>
     </g>
    </g>
   </g>
   <g id="line2d_31">
    <path d="M 112.451908 383.381052 
L 123.211981 383.247796 
L 129.668024 382.972558 
L 133.972053 382.632241 
L 138.276082 382.125573 
L 142.580111 381.435028 
L 146.88414 380.567132 
L 153.340183 378.997161 
L 159.796226 377.202788 
L 166.25227 375.191099 
L 170.556299 373.640765 
L 174.860327 371.787981 
L 177.012342 370.695157 
L 179.164356 369.457058 
L 181.316371 368.045553 
L 183.468385 366.432425 
L 185.6204 364.591515 
L 187.772414 362.501214 
L 189.924429 360.14695 
L 192.076443 357.523228 
L 194.228458 354.634755 
L 196.380472 351.496272 
L 200.684501 344.567073 
L 204.98853 336.959346 
L 209.292559 328.845458 
L 213.596588 320.23495 
L 217.900617 310.949131 
L 220.052631 305.962627 
L 222.204645 300.695672 
L 224.35666 295.115137 
L 226.508674 289.196479 
L 228.660689 282.926282 
L 232.964718 269.341883 
L 237.268747 254.515828 
L 241.572775 238.794142 
L 252.332848 198.691336 
L 256.636877 183.398252 
L 260.940906 168.784014 
L 267.396949 147.768718 
L 273.852992 126.716198 
L 278.157021 112.04179 
L 288.917093 74.424355 
L 291.069108 67.615139 
L 293.221122 61.395092 
L 295.373137 55.898005 
L 297.525151 51.224418 
L 299.677166 47.434028 
L 301.82918 44.544379 
L 303.981195 42.535788 
L 306.133209 41.361247 
L 308.285223 40.959109 
L 310.437238 41.265926 
L 312.589252 42.226992 
L 314.741267 43.802748 
L 316.893281 45.970276 
L 319.045296 48.720135 
L 321.19731 52.049802 
L 323.349325 55.955557 
L 325.501339 60.424847 
L 327.653353 65.430902 
L 329.805368 70.930766 
L 331.957382 76.867037 
L 336.261411 89.778714 
L 340.56544 103.642548 
L 347.021484 125.464481 
L 355.629541 155.711831 
L 362.085585 178.276309 
L 366.389614 192.513303 
L 370.693643 205.790856 
L 374.997671 218.203882 
L 387.909758 254.301687 
L 400.821845 291.598165 
L 405.125874 303.212212 
L 409.429903 314.005734 
L 413.733932 323.862308 
L 415.885946 328.41374 
L 418.03796 332.702233 
L 420.189975 336.720445 
L 422.341989 340.463363 
L 424.494004 343.929542 
L 426.646018 347.122111 
L 428.798033 350.04918 
L 430.950047 352.723496 
L 433.102062 355.161371 
L 435.254076 357.381102 
L 437.40609 359.401251 
L 439.558105 361.239137 
L 441.710119 362.90988 
L 443.862134 364.426114 
L 446.014148 365.798378 
L 450.318177 368.148042 
L 454.622206 370.036737 
L 458.926235 371.561473 
L 463.230264 372.836404 
L 471.838322 375.03921 
L 482.598394 377.571538 
L 489.054437 378.90969 
L 495.510481 380.043436 
L 504.118538 381.285615 
L 512.726596 382.278747 
L 519.18264 382.816041 
L 525.638683 383.14743 
L 534.246741 383.339113 
L 540.702784 383.382535 
L 540.702784 383.382535 
" clip-path="url(#p552d532ed6)" style="fill: none; stroke: #1f77b4; stroke-width: 1.5; stroke-linecap: square"/>
   </g>
   <g id="line2d_32">
    <path d="M 313.764377 383.397812 
L 313.764377 23.837812 
" clip-path="url(#p552d532ed6)" style="fill: none; stroke-dasharray: 5.55,2.4; stroke-dashoffset: 0; stroke: #1f77b4; stroke-opacity: 0.7; stroke-width: 1.5"/>
   </g>
   <g id="line2d_33">
    <path d="M 66.482071 383.373976 
L 77.71911 383.208471 
L 84.461334 382.904674 
L 91.203557 382.356297 
L 100.193189 381.317763 
L 120.419859 378.822044 
L 124.914675 377.957975 
L 129.409491 376.848689 
L 136.151714 374.834589 
L 142.893938 372.570071 
L 147.388754 370.788232 
L 149.636161 369.7091 
L 151.883569 368.433098 
L 154.130977 366.900754 
L 156.378385 365.054243 
L 158.625793 362.843205 
L 160.873201 360.230202 
L 163.120609 357.195109 
L 165.368016 353.737888 
L 167.615424 349.879359 
L 169.862832 345.65981 
L 174.357648 336.373556 
L 181.099871 321.353116 
L 196.831726 285.864645 
L 201.326542 274.762175 
L 205.821358 262.604482 
L 210.316173 249.319468 
L 214.810989 235.05666 
L 221.553213 212.447807 
L 232.790252 174.34626 
L 237.285068 160.121339 
L 241.779883 147.107506 
L 244.027291 141.146551 
L 246.274699 135.570255 
L 248.522107 130.373433 
L 250.769515 125.534815 
L 253.016922 121.019021 
L 257.511738 112.760291 
L 264.253962 101.400171 
L 268.748777 93.765475 
L 273.243593 85.607842 
L 284.480632 64.285351 
L 286.72804 60.898674 
L 288.975448 58.297347 
L 291.222856 56.710598 
L 293.470264 56.338561 
L 295.717672 57.331019 
L 297.965079 59.770751 
L 300.212487 63.663755 
L 302.459895 68.937629 
L 304.707303 75.448167 
L 306.954711 82.993151 
L 309.202119 91.331396 
L 313.696934 109.359105 
L 318.19175 127.635251 
L 322.686566 144.853251 
L 327.181382 160.501885 
L 331.676197 174.72816 
L 336.171013 188.000847 
L 342.913236 207.080887 
L 351.902868 231.9222 
L 358.645091 249.971326 
L 363.139907 261.477203 
L 367.634723 272.336856 
L 372.129538 282.357176 
L 376.624354 291.431058 
L 381.11917 299.612258 
L 385.613986 307.126359 
L 396.851025 324.9553 
L 403.593248 335.585884 
L 408.088064 342.29099 
L 410.335472 345.407986 
L 412.58288 348.321144 
L 414.830288 351.006694 
L 417.077695 353.452343 
L 419.325103 355.657501 
L 421.572511 357.632036 
L 423.819919 359.393897 
L 426.067327 360.966067 
L 428.314735 362.373389 
L 432.80955 364.786353 
L 437.304366 366.785015 
L 441.799182 368.467865 
L 446.293997 369.910396 
L 464.27326 375.199591 
L 477.757707 379.668079 
L 482.252523 380.870854 
L 486.747339 381.804118 
L 491.242154 382.465333 
L 495.73697 382.893048 
L 502.479194 383.224962 
L 511.468825 383.366904 
L 513.716233 383.378764 
L 513.716233 383.378764 
" clip-path="url(#p552d532ed6)" style="fill: none; stroke: #ff7f0e; stroke-width: 1.5; stroke-linecap: square"/>
   </g>
   <g id="line2d_34">
    <path d="M 288.867849 383.397812 
L 288.867849 23.837812 
" clip-path="url(#p552d532ed6)" style="fill: none; stroke-dasharray: 5.55,2.4; stroke-dashoffset: 0; stroke: #ff7f0e; stroke-opacity: 0.7; stroke-width: 1.5"/>
   </g>
   <g id="line2d_35">
    <path d="M 163.755753 383.381314 
L 174.940223 383.231019 
L 181.650906 382.92462 
L 188.361588 382.343968 
L 197.309164 381.214366 
L 204.019846 380.36728 
L 208.493634 379.939299 
L 212.967422 379.665106 
L 219.678104 379.484546 
L 226.388786 379.322318 
L 230.862574 379.065877 
L 235.336362 378.646765 
L 242.047045 377.752474 
L 246.520833 376.93054 
L 248.757727 376.384835 
L 250.994621 375.69077 
L 253.231515 374.790351 
L 255.468409 373.618052 
L 257.705303 372.105421 
L 259.942197 370.186429 
L 262.179091 367.802954 
L 264.415985 364.90983 
L 266.652879 361.478923 
L 268.889773 357.501768 
L 271.126667 352.990442 
L 273.363561 347.976494 
L 275.600455 342.507914 
L 277.837349 336.644321 
L 282.311137 323.990433 
L 286.784925 310.471393 
L 291.258713 296.307555 
L 295.732501 281.376611 
L 300.206289 265.294598 
L 304.680078 247.682553 
L 309.153866 228.491613 
L 315.864548 197.905585 
L 320.338336 177.729672 
L 324.812124 158.896876 
L 327.049018 150.19636 
L 329.285912 142.019682 
L 331.522806 134.357773 
L 333.7597 127.170554 
L 338.233488 113.949095 
L 342.707276 101.727915 
L 349.417958 84.223947 
L 353.891746 73.118052 
L 356.12864 67.933728 
L 358.365534 63.137293 
L 360.602428 58.837841 
L 362.839323 55.127261 
L 365.076217 52.06706 
L 367.313111 49.681278 
L 369.550005 47.957393 
L 371.786899 46.85515 
L 374.023793 46.321072 
L 376.260687 46.304751 
L 378.497581 46.772426 
L 380.734475 47.714098 
L 382.971369 49.142287 
L 385.208263 51.08299 
L 387.445157 53.561617 
L 389.682051 56.588073 
L 391.918945 60.145246 
L 394.155839 64.184103 
L 396.392733 68.626644 
L 400.866521 78.330824 
L 409.814097 98.853647 
L 414.287885 109.540407 
L 416.524779 115.219959 
L 418.761673 121.259159 
L 420.998567 127.754932 
L 423.235462 134.786157 
L 425.472356 142.404367 
L 427.70925 150.627638 
L 429.946144 159.438088 
L 434.419932 178.578927 
L 438.89372 199.079647 
L 445.604402 230.204319 
L 450.07819 249.840173 
L 454.551978 267.810371 
L 456.788872 276.059946 
L 459.025766 283.797211 
L 461.26266 291.025292 
L 463.499554 297.759348 
L 465.736448 304.02295 
L 467.973342 309.844266 
L 470.210236 315.252415 
L 472.44713 320.274458 
L 474.684024 324.933477 
L 476.920918 329.248066 
L 479.157812 333.233336 
L 481.394706 336.903176 
L 483.631601 340.273241 
L 485.868495 343.363885 
L 488.105389 346.20221 
L 490.342283 348.822532 
L 494.816071 353.571816 
L 499.289859 357.932488 
L 506.000541 364.141651 
L 510.474329 367.977859 
L 512.711223 369.724536 
L 514.948117 371.318533 
L 517.185011 372.740198 
L 519.421905 373.981061 
L 521.658799 375.044465 
L 523.895693 375.944096 
L 526.132587 376.700991 
L 530.606375 377.885658 
L 535.080163 378.7829 
L 541.790845 379.842268 
L 548.501528 380.662363 
L 555.21221 381.210994 
L 561.922892 381.486459 
L 573.107362 381.823937 
L 582.054938 382.399296 
L 591.002514 382.989044 
L 597.713196 383.24536 
L 608.897667 383.381947 
L 608.897667 383.381947 
" clip-path="url(#p552d532ed6)" style="fill: none; stroke: #2ca02c; stroke-width: 1.5; stroke-linecap: square"/>
   </g>
   <g id="line2d_36">
    <path d="M 379.281557 383.397812 
L 379.281557 23.837812 
" clip-path="url(#p552d532ed6)" style="fill: none; stroke-dasharray: 5.55,2.4; stroke-dashoffset: 0; stroke: #2ca02c; stroke-opacity: 0.7; stroke-width: 1.5"/>
   </g>
   <g id="line2d_37">
    <path d="M 111.243455 383.385032 
L 125.347853 383.271465 
L 136.631371 382.95582 
L 156.377528 382.246608 
L 164.840167 382.296467 
L 181.765445 382.621963 
L 190.228083 382.470967 
L 215.616 381.491447 
L 221.257759 381.074761 
L 226.899518 380.346719 
L 229.720398 379.816429 
L 232.541277 379.149223 
L 235.362157 378.327647 
L 238.183036 377.338026 
L 241.003916 376.172687 
L 243.824795 374.832175 
L 246.645675 373.326881 
L 252.287434 369.91347 
L 260.750073 364.285683 
L 274.854471 354.797275 
L 277.67535 352.729692 
L 280.49623 350.50464 
L 283.31711 348.078367 
L 286.137989 345.41457 
L 288.958869 342.485578 
L 291.779748 339.271606 
L 294.600628 335.758877 
L 297.421508 331.937581 
L 300.242387 327.800436 
L 303.063267 323.342074 
L 305.884146 318.558973 
L 308.705026 313.449319 
L 311.525905 308.012256 
L 314.346785 302.24641 
L 317.167665 296.148138 
L 319.988544 289.710401 
L 322.809424 282.923257 
L 325.630303 275.776602 
L 328.451183 268.265078 
L 331.272063 260.394361 
L 336.913822 243.689435 
L 351.01822 199.951945 
L 353.839099 191.756838 
L 356.659979 183.999616 
L 359.480858 176.748486 
L 362.301738 170.037725 
L 365.122618 163.865185 
L 367.943497 158.194171 
L 370.764377 152.959704 
L 373.585256 148.07839 
L 379.227015 139.021919 
L 387.689654 126.234201 
L 393.331413 118.072658 
L 396.152293 114.220488 
L 398.973173 110.625516 
L 401.794052 107.384448 
L 404.614932 104.601363 
L 407.435811 102.380624 
L 410.256691 100.81863 
L 413.07757 99.994858 
L 415.89845 99.963237 
L 418.71933 100.745397 
L 421.540209 102.327359 
L 424.361089 104.660711 
L 427.181968 107.668398 
L 430.002848 111.254146 
L 432.823728 115.313649 
L 435.644607 119.745295 
L 441.286366 129.378708 
L 446.928125 139.628297 
L 455.390764 155.643044 
L 461.032523 166.794976 
L 466.674283 178.695802 
L 469.495162 185.088279 
L 472.316042 191.862942 
L 475.136921 199.067854 
L 477.957801 206.724275 
L 480.77868 214.818882 
L 486.42044 232.079527 
L 494.883078 258.910202 
L 497.703958 267.526261 
L 500.524838 275.74788 
L 503.345717 283.471446 
L 506.166597 290.629477 
L 508.987476 297.194835 
L 511.808356 303.180284 
L 514.629235 308.633462 
L 517.450115 313.62805 
L 520.270995 318.252515 
L 525.912754 326.748412 
L 531.554513 334.7094 
L 540.017152 346.160631 
L 545.658911 353.326687 
L 548.47979 356.672923 
L 551.30067 359.814228 
L 554.12155 362.719491 
L 556.942429 365.363165 
L 559.763309 367.72642 
L 562.584188 369.798022 
L 565.405068 371.575047 
L 568.225948 373.063399 
L 571.046827 374.277909 
L 573.867707 375.24178 
L 576.688586 375.985162 
L 579.509466 376.542852 
L 582.330345 376.951307 
L 587.972105 377.4557 
L 593.613864 377.714331 
L 602.076503 377.879629 
L 613.360021 378.051072 
L 619.00178 378.365693 
L 624.643539 378.95951 
L 630.285298 379.803385 
L 641.568817 381.660544 
L 647.210576 382.375053 
L 652.852335 382.861572 
L 658.494094 383.147984 
L 666.956733 383.334381 
L 672.598492 383.375964 
L 672.598492 383.375964 
" clip-path="url(#p552d532ed6)" style="fill: none; stroke: #d62728; stroke-width: 1.5; stroke-linecap: square"/>
   </g>
   <g id="line2d_38">
    <path d="M 417.281522 383.397812 
L 417.281522 23.837812 
" clip-path="url(#p552d532ed6)" style="fill: none; stroke-dasharray: 5.55,2.4; stroke-dashoffset: 0; stroke: #d62728; stroke-opacity: 0.7; stroke-width: 1.5"/>
   </g>
   <g id="line2d_39">
    <path d="M 307.212659 383.397812 
L 307.212659 23.837812 
" clip-path="url(#p552d532ed6)" style="fill: none; stroke-dasharray: 1.5,2.475; stroke-dashoffset: 0; stroke: #000000; stroke-width: 1.5"/>
   </g>
   <g id="patch_3">
    <path d="M 36.17625 383.397812 
L 36.17625 23.837812 
" style="fill: none; stroke: #000000; stroke-width: 0.8; stroke-linejoin: miter; stroke-linecap: square"/>
   </g>
   <g id="patch_4">
    <path d="M 702.904313 383.397812 
L 702.904313 23.837812 
" style="fill: none; stroke: #000000; stroke-width: 0.8; stroke-linejoin: miter; stroke-linecap: square"/>
   </g>
   <g id="patch_5">
    <path d="M 36.17625 383.397812 
L 702.904313 383.397812 
" style="fill: none; stroke: #000000; stroke-width: 0.8; stroke-linejoin: miter; stroke-linecap: square"/>
   </g>
   <g id="patch_6">
    <path d="M 36.17625 23.837812 
L 702.904313 23.837812 
" style="fill: none; stroke: #000000; stroke-width: 0.8; stroke-linejoin: miter; stroke-linecap: square"/>
   </g>
   <g id="text_18">
    <!-- Bootstrap Distributions of C-index Differences for DEEPSURV Model -->
    <g transform="translate(134.2845 17.837812) scale(0.14 -0.14)">
     <defs>
      <path id="DejaVuSans-42" d="M 1259 2228 
L 1259 519 
L 2272 519 
Q 2781 519 3026 730 
Q 3272 941 3272 1375 
Q 3272 1813 3026 2020 
Q 2781 2228 2272 2228 
L 1259 2228 
z
M 1259 4147 
L 1259 2741 
L 2194 2741 
Q 2656 2741 2882 2914 
Q 3109 3088 3109 3444 
Q 3109 3797 2882 3972 
Q 2656 4147 2194 4147 
L 1259 4147 
z
M 628 4666 
L 2241 4666 
Q 2963 4666 3353 4366 
Q 3744 4066 3744 3513 
Q 3744 3084 3544 2831 
Q 3344 2578 2956 2516 
Q 3422 2416 3680 2098 
Q 3938 1781 3938 1306 
Q 3938 681 3513 340 
Q 3088 0 2303 0 
L 628 0 
L 628 4666 
z
" transform="scale(0.015625)"/>
      <path id="DejaVuSans-70" d="M 1159 525 
L 1159 -1331 
L 581 -1331 
L 581 3500 
L 1159 3500 
L 1159 2969 
Q 1341 3281 1617 3432 
Q 1894 3584 2278 3584 
Q 2916 3584 3314 3078 
Q 3713 2572 3713 1747 
Q 3713 922 3314 415 
Q 2916 -91 2278 -91 
Q 1894 -91 1617 61 
Q 1341 213 1159 525 
z
M 3116 1747 
Q 3116 2381 2855 2742 
Q 2594 3103 2138 3103 
Q 1681 3103 1420 2742 
Q 1159 2381 1159 1747 
Q 1159 1113 1420 752 
Q 1681 391 2138 391 
Q 2594 391 2855 752 
Q 3116 1113 3116 1747 
z
" transform="scale(0.015625)"/>
      <path id="DejaVuSans-62" d="M 3116 1747 
Q 3116 2381 2855 2742 
Q 2594 3103 2138 3103 
Q 1681 3103 1420 2742 
Q 1159 2381 1159 1747 
Q 1159 1113 1420 752 
Q 1681 391 2138 391 
Q 2594 391 2855 752 
Q 3116 1113 3116 1747 
z
M 1159 2969 
Q 1341 3281 1617 3432 
Q 1894 3584 2278 3584 
Q 2916 3584 3314 3078 
Q 3713 2572 3713 1747 
Q 3713 922 3314 415 
Q 2916 -91 2278 -91 
Q 1894 -91 1617 61 
Q 1341 213 1159 525 
L 1159 0 
L 581 0 
L 581 4863 
L 1159 4863 
L 1159 2969 
z
" transform="scale(0.015625)"/>
      <path id="DejaVuSans-45" d="M 628 4666 
L 3578 4666 
L 3578 4134 
L 1259 4134 
L 1259 2753 
L 3481 2753 
L 3481 2222 
L 1259 2222 
L 1259 531 
L 3634 531 
L 3634 0 
L 628 0 
L 628 4666 
z
" transform="scale(0.015625)"/>
      <path id="DejaVuSans-50" d="M 1259 4147 
L 1259 2394 
L 2053 2394 
Q 2494 2394 2734 2622 
Q 2975 2850 2975 3272 
Q 2975 3691 2734 3919 
Q 2494 4147 2053 4147 
L 1259 4147 
z
M 628 4666 
L 2053 4666 
Q 2838 4666 3239 4311 
Q 3641 3956 3641 3272 
Q 3641 2581 3239 2228 
Q 2838 1875 2053 1875 
L 1259 1875 
L 1259 0 
L 628 0 
L 628 4666 
z
" transform="scale(0.015625)"/>
      <path id="DejaVuSans-53" d="M 3425 4513 
L 3425 3897 
Q 3066 4069 2747 4153 
Q 2428 4238 2131 4238 
Q 1616 4238 1336 4038 
Q 1056 3838 1056 3469 
Q 1056 3159 1242 3001 
Q 1428 2844 1947 2747 
L 2328 2669 
Q 3034 2534 3370 2195 
Q 3706 1856 3706 1288 
Q 3706 609 3251 259 
Q 2797 -91 1919 -91 
Q 1588 -91 1214 -16 
Q 841 59 441 206 
L 441 856 
Q 825 641 1194 531 
Q 1563 422 1919 422 
Q 2459 422 2753 634 
Q 3047 847 3047 1241 
Q 3047 1584 2836 1778 
Q 2625 1972 2144 2069 
L 1759 2144 
Q 1053 2284 737 2584 
Q 422 2884 422 3419 
Q 422 4038 858 4394 
Q 1294 4750 2059 4750 
Q 2388 4750 2728 4690 
Q 3069 4631 3425 4513 
z
" transform="scale(0.015625)"/>
      <path id="DejaVuSans-55" d="M 556 4666 
L 1191 4666 
L 1191 1831 
Q 1191 1081 1462 751 
Q 1734 422 2344 422 
Q 2950 422 3222 751 
Q 3494 1081 3494 1831 
L 3494 4666 
L 4128 4666 
L 4128 1753 
Q 4128 841 3676 375 
Q 3225 -91 2344 -91 
Q 1459 -91 1007 375 
Q 556 841 556 1753 
L 556 4666 
z
" transform="scale(0.015625)"/>
      <path id="DejaVuSans-52" d="M 2841 2188 
Q 3044 2119 3236 1894 
Q 3428 1669 3622 1275 
L 4263 0 
L 3584 0 
L 2988 1197 
Q 2756 1666 2539 1819 
Q 2322 1972 1947 1972 
L 1259 1972 
L 1259 0 
L 628 0 
L 628 4666 
L 2053 4666 
Q 2853 4666 3247 4331 
Q 3641 3997 3641 3322 
Q 3641 2881 3436 2590 
Q 3231 2300 2841 2188 
z
M 1259 4147 
L 1259 2491 
L 2053 2491 
Q 2509 2491 2742 2702 
Q 2975 2913 2975 3322 
Q 2975 3731 2742 3939 
Q 2509 4147 2053 4147 
L 1259 4147 
z
" transform="scale(0.015625)"/>
      <path id="DejaVuSans-56" d="M 1831 0 
L 50 4666 
L 709 4666 
L 2188 738 
L 3669 4666 
L 4325 4666 
L 2547 0 
L 1831 0 
z
" transform="scale(0.015625)"/>
     </defs>
     <use xlink:href="#DejaVuSans-42"/>
     <use xlink:href="#DejaVuSans-6f" transform="translate(68.603516 0)"/>
     <use xlink:href="#DejaVuSans-6f" transform="translate(129.785156 0)"/>
     <use xlink:href="#DejaVuSans-74" transform="translate(190.966797 0)"/>
     <use xlink:href="#DejaVuSans-73" transform="translate(230.175781 0)"/>
     <use xlink:href="#DejaVuSans-74" transform="translate(282.275391 0)"/>
     <use xlink:href="#DejaVuSans-72" transform="translate(321.484375 0)"/>
     <use xlink:href="#DejaVuSans-61" transform="translate(362.597656 0)"/>
     <use xlink:href="#DejaVuSans-70" transform="translate(423.876953 0)"/>
     <use xlink:href="#DejaVuSans-20" transform="translate(487.353516 0)"/>
     <use xlink:href="#DejaVuSans-44" transform="translate(519.140625 0)"/>
     <use xlink:href="#DejaVuSans-69" transform="translate(596.142578 0)"/>
     <use xlink:href="#DejaVuSans-73" transform="translate(623.925781 0)"/>
     <use xlink:href="#DejaVuSans-74" transform="translate(676.025391 0)"/>
     <use xlink:href="#DejaVuSans-72" transform="translate(715.234375 0)"/>
     <use xlink:href="#DejaVuSans-69" transform="translate(756.347656 0)"/>
     <use xlink:href="#DejaVuSans-62" transform="translate(784.130859 0)"/>
     <use xlink:href="#DejaVuSans-75" transform="translate(847.607422 0)"/>
     <use xlink:href="#DejaVuSans-74" transform="translate(910.986328 0)"/>
     <use xlink:href="#DejaVuSans-69" transform="translate(950.195312 0)"/>
     <use xlink:href="#DejaVuSans-6f" transform="translate(977.978516 0)"/>
     <use xlink:href="#DejaVuSans-6e" transform="translate(1039.160156 0)"/>
     <use xlink:href="#DejaVuSans-73" transform="translate(1102.539062 0)"/>
     <use xlink:href="#DejaVuSans-20" transform="translate(1154.638672 0)"/>
     <use xlink:href="#DejaVuSans-6f" transform="translate(1186.425781 0)"/>
     <use xlink:href="#DejaVuSans-66" transform="translate(1247.607422 0)"/>
     <use xlink:href="#DejaVuSans-20" transform="translate(1282.8125 0)"/>
     <use xlink:href="#DejaVuSans-43" transform="translate(1314.599609 0)"/>
     <use xlink:href="#DejaVuSans-2d" transform="translate(1384.423828 0)"/>
     <use xlink:href="#DejaVuSans-69" transform="translate(1420.507812 0)"/>
     <use xlink:href="#DejaVuSans-6e" transform="translate(1448.291016 0)"/>
     <use xlink:href="#DejaVuSans-64" transform="translate(1511.669922 0)"/>
     <use xlink:href="#DejaVuSans-65" transform="translate(1575.146484 0)"/>
     <use xlink:href="#DejaVuSans-78" transform="translate(1634.919922 0)"/>
     <use xlink:href="#DejaVuSans-20" transform="translate(1694.099609 0)"/>
     <use xlink:href="#DejaVuSans-44" transform="translate(1725.886719 0)"/>
     <use xlink:href="#DejaVuSans-69" transform="translate(1802.888672 0)"/>
     <use xlink:href="#DejaVuSans-66" transform="translate(1830.671875 0)"/>
     <use xlink:href="#DejaVuSans-66" transform="translate(1865.876953 0)"/>
     <use xlink:href="#DejaVuSans-65" transform="translate(1901.082031 0)"/>
     <use xlink:href="#DejaVuSans-72" transform="translate(1962.605469 0)"/>
     <use xlink:href="#DejaVuSans-65" transform="translate(2001.46875 0)"/>
     <use xlink:href="#DejaVuSans-6e" transform="translate(2062.992188 0)"/>
     <use xlink:href="#DejaVuSans-63" transform="translate(2126.371094 0)"/>
     <use xlink:href="#DejaVuSans-65" transform="translate(2181.351562 0)"/>
     <use xlink:href="#DejaVuSans-73" transform="translate(2242.875 0)"/>
     <use xlink:href="#DejaVuSans-20" transform="translate(2294.974609 0)"/>
     <use xlink:href="#DejaVuSans-66" transform="translate(2326.761719 0)"/>
     <use xlink:href="#DejaVuSans-6f" transform="translate(2361.966797 0)"/>
     <use xlink:href="#DejaVuSans-72" transform="translate(2423.148438 0)"/>
     <use xlink:href="#DejaVuSans-20" transform="translate(2464.261719 0)"/>
     <use xlink:href="#DejaVuSans-44" transform="translate(2496.048828 0)"/>
     <use xlink:href="#DejaVuSans-45" transform="translate(2573.050781 0)"/>
     <use xlink:href="#DejaVuSans-45" transform="translate(2636.234375 0)"/>
     <use xlink:href="#DejaVuSans-50" transform="translate(2699.417969 0)"/>
     <use xlink:href="#DejaVuSans-53" transform="translate(2759.720703 0)"/>
     <use xlink:href="#DejaVuSans-55" transform="translate(2823.197266 0)"/>
     <use xlink:href="#DejaVuSans-52" transform="translate(2896.390625 0)"/>
     <use xlink:href="#DejaVuSans-56" transform="translate(2960.373047 0)"/>
     <use xlink:href="#DejaVuSans-20" transform="translate(3028.78125 0)"/>
     <use xlink:href="#DejaVuSans-4d" transform="translate(3060.568359 0)"/>
     <use xlink:href="#DejaVuSans-6f" transform="translate(3146.847656 0)"/>
     <use xlink:href="#DejaVuSans-64" transform="translate(3208.029297 0)"/>
     <use xlink:href="#DejaVuSans-65" transform="translate(3271.505859 0)"/>
     <use xlink:href="#DejaVuSans-6c" transform="translate(3333.029297 0)"/>
    </g>
   </g>
   <g id="legend_1">
    <g id="patch_7">
     <path d="M 476.569938 105.228437 
L 695.904313 105.228437 
Q 697.904313 105.228437 697.904313 103.228437 
L 697.904313 30.837812 
Q 697.904313 28.837812 695.904313 28.837812 
L 476.569938 28.837812 
Q 474.569938 28.837812 474.569938 30.837812 
L 474.569938 103.228437 
Q 474.569938 105.228437 476.569938 105.228437 
z
" style="fill: #ffffff; opacity: 0.8; stroke: #cccccc; stroke-linejoin: miter"/>
    </g>
    <g id="line2d_40">
     <path d="M 478.569938 36.93625 
L 488.569938 36.93625 
L 498.569938 36.93625 
" style="fill: none; stroke: #1f77b4; stroke-width: 1.5; stroke-linecap: square"/>
    </g>
    <g id="text_19">
     <!-- Multimodal - Clinical (Diff: 0.0068) -->
     <g transform="translate(506.569938 40.43625) scale(0.1 -0.1)">
      <defs>
       <path id="DejaVuSans-3a" d="M 750 794 
L 1409 794 
L 1409 0 
L 750 0 
L 750 794 
z
M 750 3309 
L 1409 3309 
L 1409 2516 
L 750 2516 
L 750 3309 
z
" transform="scale(0.015625)"/>
       <path id="DejaVuSans-38" d="M 2034 2216 
Q 1584 2216 1326 1975 
Q 1069 1734 1069 1313 
Q 1069 891 1326 650 
Q 1584 409 2034 409 
Q 2484 409 2743 651 
Q 3003 894 3003 1313 
Q 3003 1734 2745 1975 
Q 2488 2216 2034 2216 
z
M 1403 2484 
Q 997 2584 770 2862 
Q 544 3141 544 3541 
Q 544 4100 942 4425 
Q 1341 4750 2034 4750 
Q 2731 4750 3128 4425 
Q 3525 4100 3525 3541 
Q 3525 3141 3298 2862 
Q 3072 2584 2669 2484 
Q 3125 2378 3379 2068 
Q 3634 1759 3634 1313 
Q 3634 634 3220 271 
Q 2806 -91 2034 -91 
Q 1263 -91 848 271 
Q 434 634 434 1313 
Q 434 1759 690 2068 
Q 947 2378 1403 2484 
z
M 1172 3481 
Q 1172 3119 1398 2916 
Q 1625 2713 2034 2713 
Q 2441 2713 2670 2916 
Q 2900 3119 2900 3481 
Q 2900 3844 2670 4047 
Q 2441 4250 2034 4250 
Q 1625 4250 1398 4047 
Q 1172 3844 1172 3481 
z
" transform="scale(0.015625)"/>
      </defs>
      <use xlink:href="#DejaVuSans-4d"/>
      <use xlink:href="#DejaVuSans-75" transform="translate(86.279297 0)"/>
      <use xlink:href="#DejaVuSans-6c" transform="translate(149.658203 0)"/>
      <use xlink:href="#DejaVuSans-74" transform="translate(177.441406 0)"/>
      <use xlink:href="#DejaVuSans-69" transform="translate(216.650391 0)"/>
      <use xlink:href="#DejaVuSans-6d" transform="translate(244.433594 0)"/>
      <use xlink:href="#DejaVuSans-6f" transform="translate(341.845703 0)"/>
      <use xlink:href="#DejaVuSans-64" transform="translate(403.027344 0)"/>
      <use xlink:href="#DejaVuSans-61" transform="translate(466.503906 0)"/>
      <use xlink:href="#DejaVuSans-6c" transform="translate(527.783203 0)"/>
      <use xlink:href="#DejaVuSans-20" transform="translate(555.566406 0)"/>
      <use xlink:href="#DejaVuSans-2d" transform="translate(587.353516 0)"/>
      <use xlink:href="#DejaVuSans-20" transform="translate(623.4375 0)"/>
      <use xlink:href="#DejaVuSans-43" transform="translate(655.224609 0)"/>
      <use xlink:href="#DejaVuSans-6c" transform="translate(725.048828 0)"/>
      <use xlink:href="#DejaVuSans-69" transform="translate(752.832031 0)"/>
      <use xlink:href="#DejaVuSans-6e" transform="translate(780.615234 0)"/>
      <use xlink:href="#DejaVuSans-69" transform="translate(843.994141 0)"/>
      <use xlink:href="#DejaVuSans-63" transform="translate(871.777344 0)"/>
      <use xlink:href="#DejaVuSans-61" transform="translate(926.757812 0)"/>
      <use xlink:href="#DejaVuSans-6c" transform="translate(988.037109 0)"/>
      <use xlink:href="#DejaVuSans-20" transform="translate(1015.820312 0)"/>
      <use xlink:href="#DejaVuSans-28" transform="translate(1047.607422 0)"/>
      <use xlink:href="#DejaVuSans-44" transform="translate(1086.621094 0)"/>
      <use xlink:href="#DejaVuSans-69" transform="translate(1163.623047 0)"/>
      <use xlink:href="#DejaVuSans-66" transform="translate(1191.40625 0)"/>
      <use xlink:href="#DejaVuSans-66" transform="translate(1226.611328 0)"/>
      <use xlink:href="#DejaVuSans-3a" transform="translate(1258.191406 0)"/>
      <use xlink:href="#DejaVuSans-20" transform="translate(1291.882812 0)"/>
      <use xlink:href="#DejaVuSans-30" transform="translate(1323.669922 0)"/>
      <use xlink:href="#DejaVuSans-2e" transform="translate(1387.292969 0)"/>
      <use xlink:href="#DejaVuSans-30" transform="translate(1419.080078 0)"/>
      <use xlink:href="#DejaVuSans-30" transform="translate(1482.703125 0)"/>
      <use xlink:href="#DejaVuSans-36" transform="translate(1546.326172 0)"/>
      <use xlink:href="#DejaVuSans-38" transform="translate(1609.949219 0)"/>
      <use xlink:href="#DejaVuSans-29" transform="translate(1673.572266 0)"/>
     </g>
    </g>
    <g id="line2d_41">
     <path d="M 478.569938 51.614375 
L 488.569938 51.614375 
L 498.569938 51.614375 
" style="fill: none; stroke: #ff7f0e; stroke-width: 1.5; stroke-linecap: square"/>
    </g>
    <g id="text_20">
     <!-- Multimodal - Molecular (Diff: -0.0189) -->
     <g transform="translate(506.569938 55.114375) scale(0.1 -0.1)">
      <defs>
       <path id="DejaVuSans-39" d="M 703 97 
L 703 672 
Q 941 559 1184 500 
Q 1428 441 1663 441 
Q 2288 441 2617 861 
Q 2947 1281 2994 2138 
Q 2813 1869 2534 1725 
Q 2256 1581 1919 1581 
Q 1219 1581 811 2004 
Q 403 2428 403 3163 
Q 403 3881 828 4315 
Q 1253 4750 1959 4750 
Q 2769 4750 3195 4129 
Q 3622 3509 3622 2328 
Q 3622 1225 3098 567 
Q 2575 -91 1691 -91 
Q 1453 -91 1209 -44 
Q 966 3 703 97 
z
M 1959 2075 
Q 2384 2075 2632 2365 
Q 2881 2656 2881 3163 
Q 2881 3666 2632 3958 
Q 2384 4250 1959 4250 
Q 1534 4250 1286 3958 
Q 1038 3666 1038 3163 
Q 1038 2656 1286 2365 
Q 1534 2075 1959 2075 
z
" transform="scale(0.015625)"/>
      </defs>
      <use xlink:href="#DejaVuSans-4d"/>
      <use xlink:href="#DejaVuSans-75" transform="translate(86.279297 0)"/>
      <use xlink:href="#DejaVuSans-6c" transform="translate(149.658203 0)"/>
      <use xlink:href="#DejaVuSans-74" transform="translate(177.441406 0)"/>
      <use xlink:href="#DejaVuSans-69" transform="translate(216.650391 0)"/>
      <use xlink:href="#DejaVuSans-6d" transform="translate(244.433594 0)"/>
      <use xlink:href="#DejaVuSans-6f" transform="translate(341.845703 0)"/>
      <use xlink:href="#DejaVuSans-64" transform="translate(403.027344 0)"/>
      <use xlink:href="#DejaVuSans-61" transform="translate(466.503906 0)"/>
      <use xlink:href="#DejaVuSans-6c" transform="translate(527.783203 0)"/>
      <use xlink:href="#DejaVuSans-20" transform="translate(555.566406 0)"/>
      <use xlink:href="#DejaVuSans-2d" transform="translate(587.353516 0)"/>
      <use xlink:href="#DejaVuSans-20" transform="translate(623.4375 0)"/>
      <use xlink:href="#DejaVuSans-4d" transform="translate(655.224609 0)"/>
      <use xlink:href="#DejaVuSans-6f" transform="translate(741.503906 0)"/>
      <use xlink:href="#DejaVuSans-6c" transform="translate(802.685547 0)"/>
      <use xlink:href="#DejaVuSans-65" transform="translate(830.46875 0)"/>
      <use xlink:href="#DejaVuSans-63" transform="translate(891.992188 0)"/>
      <use xlink:href="#DejaVuSans-75" transform="translate(946.972656 0)"/>
      <use xlink:href="#DejaVuSans-6c" transform="translate(1010.351562 0)"/>
      <use xlink:href="#DejaVuSans-61" transform="translate(1038.134766 0)"/>
      <use xlink:href="#DejaVuSans-72" transform="translate(1099.414062 0)"/>
      <use xlink:href="#DejaVuSans-20" transform="translate(1140.527344 0)"/>
      <use xlink:href="#DejaVuSans-28" transform="translate(1172.314453 0)"/>
      <use xlink:href="#DejaVuSans-44" transform="translate(1211.328125 0)"/>
      <use xlink:href="#DejaVuSans-69" transform="translate(1288.330078 0)"/>
      <use xlink:href="#DejaVuSans-66" transform="translate(1316.113281 0)"/>
      <use xlink:href="#DejaVuSans-66" transform="translate(1351.318359 0)"/>
      <use xlink:href="#DejaVuSans-3a" transform="translate(1382.898438 0)"/>
      <use xlink:href="#DejaVuSans-20" transform="translate(1416.589844 0)"/>
      <use xlink:href="#DejaVuSans-2d" transform="translate(1448.376953 0)"/>
      <use xlink:href="#DejaVuSans-30" transform="translate(1484.460938 0)"/>
      <use xlink:href="#DejaVuSans-2e" transform="translate(1548.083984 0)"/>
      <use xlink:href="#DejaVuSans-30" transform="translate(1579.871094 0)"/>
      <use xlink:href="#DejaVuSans-31" transform="translate(1643.494141 0)"/>
      <use xlink:href="#DejaVuSans-38" transform="translate(1707.117188 0)"/>
      <use xlink:href="#DejaVuSans-39" transform="translate(1770.740234 0)"/>
      <use xlink:href="#DejaVuSans-29" transform="translate(1834.363281 0)"/>
     </g>
    </g>
    <g id="line2d_42">
     <path d="M 478.569938 66.2925 
L 488.569938 66.2925 
L 498.569938 66.2925 
" style="fill: none; stroke: #2ca02c; stroke-width: 1.5; stroke-linecap: square"/>
    </g>
    <g id="text_21">
     <!-- Multimodal - Pathology (Diff: 0.0743) -->
     <g transform="translate(506.569938 69.7925) scale(0.1 -0.1)">
      <defs>
       <path id="DejaVuSans-67" d="M 2906 1791 
Q 2906 2416 2648 2759 
Q 2391 3103 1925 3103 
Q 1463 3103 1205 2759 
Q 947 2416 947 1791 
Q 947 1169 1205 825 
Q 1463 481 1925 481 
Q 2391 481 2648 825 
Q 2906 1169 2906 1791 
z
M 3481 434 
Q 3481 -459 3084 -895 
Q 2688 -1331 1869 -1331 
Q 1566 -1331 1297 -1286 
Q 1028 -1241 775 -1147 
L 775 -588 
Q 1028 -725 1275 -790 
Q 1522 -856 1778 -856 
Q 2344 -856 2625 -561 
Q 2906 -266 2906 331 
L 2906 616 
Q 2728 306 2450 153 
Q 2172 0 1784 0 
Q 1141 0 747 490 
Q 353 981 353 1791 
Q 353 2603 747 3093 
Q 1141 3584 1784 3584 
Q 2172 3584 2450 3431 
Q 2728 3278 2906 2969 
L 2906 3500 
L 3481 3500 
L 3481 434 
z
" transform="scale(0.015625)"/>
      </defs>
      <use xlink:href="#DejaVuSans-4d"/>
      <use xlink:href="#DejaVuSans-75" transform="translate(86.279297 0)"/>
      <use xlink:href="#DejaVuSans-6c" transform="translate(149.658203 0)"/>
      <use xlink:href="#DejaVuSans-74" transform="translate(177.441406 0)"/>
      <use xlink:href="#DejaVuSans-69" transform="translate(216.650391 0)"/>
      <use xlink:href="#DejaVuSans-6d" transform="translate(244.433594 0)"/>
      <use xlink:href="#DejaVuSans-6f" transform="translate(341.845703 0)"/>
      <use xlink:href="#DejaVuSans-64" transform="translate(403.027344 0)"/>
      <use xlink:href="#DejaVuSans-61" transform="translate(466.503906 0)"/>
      <use xlink:href="#DejaVuSans-6c" transform="translate(527.783203 0)"/>
      <use xlink:href="#DejaVuSans-20" transform="translate(555.566406 0)"/>
      <use xlink:href="#DejaVuSans-2d" transform="translate(587.353516 0)"/>
      <use xlink:href="#DejaVuSans-20" transform="translate(623.4375 0)"/>
      <use xlink:href="#DejaVuSans-50" transform="translate(655.224609 0)"/>
      <use xlink:href="#DejaVuSans-61" transform="translate(711.027344 0)"/>
      <use xlink:href="#DejaVuSans-74" transform="translate(772.306641 0)"/>
      <use xlink:href="#DejaVuSans-68" transform="translate(811.515625 0)"/>
      <use xlink:href="#DejaVuSans-6f" transform="translate(874.894531 0)"/>
      <use xlink:href="#DejaVuSans-6c" transform="translate(936.076172 0)"/>
      <use xlink:href="#DejaVuSans-6f" transform="translate(963.859375 0)"/>
      <use xlink:href="#DejaVuSans-67" transform="translate(1025.041016 0)"/>
      <use xlink:href="#DejaVuSans-79" transform="translate(1088.517578 0)"/>
      <use xlink:href="#DejaVuSans-20" transform="translate(1147.697266 0)"/>
      <use xlink:href="#DejaVuSans-28" transform="translate(1179.484375 0)"/>
      <use xlink:href="#DejaVuSans-44" transform="translate(1218.498047 0)"/>
      <use xlink:href="#DejaVuSans-69" transform="translate(1295.5 0)"/>
      <use xlink:href="#DejaVuSans-66" transform="translate(1323.283203 0)"/>
      <use xlink:href="#DejaVuSans-66" transform="translate(1358.488281 0)"/>
      <use xlink:href="#DejaVuSans-3a" transform="translate(1390.068359 0)"/>
      <use xlink:href="#DejaVuSans-20" transform="translate(1423.759766 0)"/>
      <use xlink:href="#DejaVuSans-30" transform="translate(1455.546875 0)"/>
      <use xlink:href="#DejaVuSans-2e" transform="translate(1519.169922 0)"/>
      <use xlink:href="#DejaVuSans-30" transform="translate(1550.957031 0)"/>
      <use xlink:href="#DejaVuSans-37" transform="translate(1614.580078 0)"/>
      <use xlink:href="#DejaVuSans-34" transform="translate(1678.203125 0)"/>
      <use xlink:href="#DejaVuSans-33" transform="translate(1741.826172 0)"/>
      <use xlink:href="#DejaVuSans-29" transform="translate(1805.449219 0)"/>
     </g>
    </g>
    <g id="line2d_43">
     <path d="M 478.569938 80.970625 
L 488.569938 80.970625 
L 498.569938 80.970625 
" style="fill: none; stroke: #d62728; stroke-width: 1.5; stroke-linecap: square"/>
    </g>
    <g id="text_22">
     <!-- Multimodal - Radiology (Diff: 0.1135) -->
     <g transform="translate(506.569938 84.470625) scale(0.1 -0.1)">
      <use xlink:href="#DejaVuSans-4d"/>
      <use xlink:href="#DejaVuSans-75" transform="translate(86.279297 0)"/>
      <use xlink:href="#DejaVuSans-6c" transform="translate(149.658203 0)"/>
      <use xlink:href="#DejaVuSans-74" transform="translate(177.441406 0)"/>
      <use xlink:href="#DejaVuSans-69" transform="translate(216.650391 0)"/>
      <use xlink:href="#DejaVuSans-6d" transform="translate(244.433594 0)"/>
      <use xlink:href="#DejaVuSans-6f" transform="translate(341.845703 0)"/>
      <use xlink:href="#DejaVuSans-64" transform="translate(403.027344 0)"/>
      <use xlink:href="#DejaVuSans-61" transform="translate(466.503906 0)"/>
      <use xlink:href="#DejaVuSans-6c" transform="translate(527.783203 0)"/>
      <use xlink:href="#DejaVuSans-20" transform="translate(555.566406 0)"/>
      <use xlink:href="#DejaVuSans-2d" transform="translate(587.353516 0)"/>
      <use xlink:href="#DejaVuSans-20" transform="translate(623.4375 0)"/>
      <use xlink:href="#DejaVuSans-52" transform="translate(655.224609 0)"/>
      <use xlink:href="#DejaVuSans-61" transform="translate(722.457031 0)"/>
      <use xlink:href="#DejaVuSans-64" transform="translate(783.736328 0)"/>
      <use xlink:href="#DejaVuSans-69" transform="translate(847.212891 0)"/>
      <use xlink:href="#DejaVuSans-6f" transform="translate(874.996094 0)"/>
      <use xlink:href="#DejaVuSans-6c" transform="translate(936.177734 0)"/>
      <use xlink:href="#DejaVuSans-6f" transform="translate(963.960938 0)"/>
      <use xlink:href="#DejaVuSans-67" transform="translate(1025.142578 0)"/>
      <use xlink:href="#DejaVuSans-79" transform="translate(1088.619141 0)"/>
      <use xlink:href="#DejaVuSans-20" transform="translate(1147.798828 0)"/>
      <use xlink:href="#DejaVuSans-28" transform="translate(1179.585938 0)"/>
      <use xlink:href="#DejaVuSans-44" transform="translate(1218.599609 0)"/>
      <use xlink:href="#DejaVuSans-69" transform="translate(1295.601562 0)"/>
      <use xlink:href="#DejaVuSans-66" transform="translate(1323.384766 0)"/>
      <use xlink:href="#DejaVuSans-66" transform="translate(1358.589844 0)"/>
      <use xlink:href="#DejaVuSans-3a" transform="translate(1390.169922 0)"/>
      <use xlink:href="#DejaVuSans-20" transform="translate(1423.861328 0)"/>
      <use xlink:href="#DejaVuSans-30" transform="translate(1455.648438 0)"/>
      <use xlink:href="#DejaVuSans-2e" transform="translate(1519.271484 0)"/>
      <use xlink:href="#DejaVuSans-31" transform="translate(1551.058594 0)"/>
      <use xlink:href="#DejaVuSans-31" transform="translate(1614.681641 0)"/>
      <use xlink:href="#DejaVuSans-33" transform="translate(1678.304688 0)"/>
      <use xlink:href="#DejaVuSans-35" transform="translate(1741.927734 0)"/>
      <use xlink:href="#DejaVuSans-29" transform="translate(1805.550781 0)"/>
     </g>
    </g>
    <g id="line2d_44">
     <path d="M 478.569938 95.64875 
L 488.569938 95.64875 
L 498.569938 95.64875 
" style="fill: none; stroke-dasharray: 1.5,2.475; stroke-dashoffset: 0; stroke: #000000; stroke-width: 1.5"/>
    </g>
    <g id="text_23">
     <!-- No difference -->
     <g transform="translate(506.569938 99.14875) scale(0.1 -0.1)">
      <defs>
       <path id="DejaVuSans-4e" d="M 628 4666 
L 1478 4666 
L 3547 763 
L 3547 4666 
L 4159 4666 
L 4159 0 
L 3309 0 
L 1241 3903 
L 1241 0 
L 628 0 
L 628 4666 
z
" transform="scale(0.015625)"/>
      </defs>
      <use xlink:href="#DejaVuSans-4e"/>
      <use xlink:href="#DejaVuSans-6f" transform="translate(74.804688 0)"/>
      <use xlink:href="#DejaVuSans-20" transform="translate(135.986328 0)"/>
      <use xlink:href="#DejaVuSans-64" transform="translate(167.773438 0)"/>
      <use xlink:href="#DejaVuSans-69" transform="translate(231.25 0)"/>
      <use xlink:href="#DejaVuSans-66" transform="translate(259.033203 0)"/>
      <use xlink:href="#DejaVuSans-66" transform="translate(294.238281 0)"/>
      <use xlink:href="#DejaVuSans-65" transform="translate(329.443359 0)"/>
      <use xlink:href="#DejaVuSans-72" transform="translate(390.966797 0)"/>
      <use xlink:href="#DejaVuSans-65" transform="translate(429.830078 0)"/>
      <use xlink:href="#DejaVuSans-6e" transform="translate(491.353516 0)"/>
      <use xlink:href="#DejaVuSans-63" transform="translate(554.732422 0)"/>
      <use xlink:href="#DejaVuSans-65" transform="translate(609.712891 0)"/>
     </g>
    </g>
   </g>
  </g>
 </g>
 <defs>
  <clipPath id="p552d532ed6">
   <rect x="36.17625" y="23.837812" width="666.728063" height="359.56"/>
  </clipPath>
 </defs>
</svg>
