<?xml version="1.0" encoding="utf-8" standalone="no"?>
<!DOCTYPE svg PUBLIC "-//W3C//DTD SVG 1.1//EN"
  "http://www.w3.org/Graphics/SVG/1.1/DTD/svg11.dtd">
<svg xmlns:xlink="http://www.w3.org/1999/xlink" width="711.48875pt" height="422.889687pt" viewBox="0 0 711.48875 422.889687" xmlns="http://www.w3.org/2000/svg" version="1.1">
 <metadata>
  <rdf:RDF xmlns:dc="http://purl.org/dc/elements/1.1/" xmlns:cc="http://creativecommons.org/ns#" xmlns:rdf="http://www.w3.org/1999/02/22-rdf-syntax-ns#">
   <cc:Work>
    <dc:type rdf:resource="http://purl.org/dc/dcmitype/StillImage"/>
    <dc:date>2025-04-03T13:02:16.223296</dc:date>
    <dc:format>image/svg+xml</dc:format>
    <dc:creator>
     <cc:Agent>
      <dc:title>Matplotlib v3.10.0, https://matplotlib.org/</dc:title>
     </cc:Agent>
    </dc:creator>
   </cc:Work>
  </rdf:RDF>
 </metadata>
 <defs>
  <style type="text/css">*{stroke-linejoin: round; stroke-linecap: butt}</style>
 </defs>
 <g id="figure_1">
  <g id="patch_1">
   <path d="M 0 422.889687 
L 711.48875 422.889687 
L 711.48875 0 
L 0 0 
z
" style="fill: #ffffff"/>
  </g>
  <g id="axes_1">
   <g id="patch_2">
    <path d="M 42.53875 383.397812 
L 704.28875 383.397812 
L 704.28875 23.837812 
L 42.53875 23.837812 
z
" style="fill: #ffffff"/>
   </g>
   <g id="matplotlib.axis_1">
    <g id="xtick_1">
     <g id="line2d_1">
      <path d="M 130.063994 383.397812 
L 130.063994 23.837812 
" clip-path="url(#pd8a7ecd97e)" style="fill: none; stroke: #b0b0b0; stroke-opacity: 0.3; stroke-width: 0.8; stroke-linecap: square"/>
     </g>
     <g id="line2d_2">
      <defs>
       <path id="ma9441ea1d0" d="M 0 0 
L 0 3.5 
" style="stroke: #000000; stroke-width: 0.8"/>
      </defs>
      <g>
       <use xlink:href="#ma9441ea1d0" x="130.063994" y="383.397812" style="stroke: #000000; stroke-width: 0.8"/>
      </g>
     </g>
     <g id="text_1">
      <!-- 0.4 -->
      <g transform="translate(122.112431 397.99625) scale(0.1 -0.1)">
       <defs>
        <path id="DejaVuSans-30" d="M 2034 4250 
Q 1547 4250 1301 3770 
Q 1056 3291 1056 2328 
Q 1056 1369 1301 889 
Q 1547 409 2034 409 
Q 2525 409 2770 889 
Q 3016 1369 3016 2328 
Q 3016 3291 2770 3770 
Q 2525 4250 2034 4250 
z
M 2034 4750 
Q 2819 4750 3233 4129 
Q 3647 3509 3647 2328 
Q 3647 1150 3233 529 
Q 2819 -91 2034 -91 
Q 1250 -91 836 529 
Q 422 1150 422 2328 
Q 422 3509 836 4129 
Q 1250 4750 2034 4750 
z
" transform="scale(0.015625)"/>
        <path id="DejaVuSans-2e" d="M 684 794 
L 1344 794 
L 1344 0 
L 684 0 
L 684 794 
z
" transform="scale(0.015625)"/>
        <path id="DejaVuSans-34" d="M 2419 4116 
L 825 1625 
L 2419 1625 
L 2419 4116 
z
M 2253 4666 
L 3047 4666 
L 3047 1625 
L 3713 1625 
L 3713 1100 
L 3047 1100 
L 3047 0 
L 2419 0 
L 2419 1100 
L 313 1100 
L 313 1709 
L 2253 4666 
z
" transform="scale(0.015625)"/>
       </defs>
       <use xlink:href="#DejaVuSans-30"/>
       <use xlink:href="#DejaVuSans-2e" transform="translate(63.623047 0)"/>
       <use xlink:href="#DejaVuSans-34" transform="translate(95.410156 0)"/>
      </g>
     </g>
    </g>
    <g id="xtick_2">
     <g id="line2d_3">
      <path d="M 239.893179 383.397812 
L 239.893179 23.837812 
" clip-path="url(#pd8a7ecd97e)" style="fill: none; stroke: #b0b0b0; stroke-opacity: 0.3; stroke-width: 0.8; stroke-linecap: square"/>
     </g>
     <g id="line2d_4">
      <g>
       <use xlink:href="#ma9441ea1d0" x="239.893179" y="383.397812" style="stroke: #000000; stroke-width: 0.8"/>
      </g>
     </g>
     <g id="text_2">
      <!-- 0.5 -->
      <g transform="translate(231.941616 397.99625) scale(0.1 -0.1)">
       <defs>
        <path id="DejaVuSans-35" d="M 691 4666 
L 3169 4666 
L 3169 4134 
L 1269 4134 
L 1269 2991 
Q 1406 3038 1543 3061 
Q 1681 3084 1819 3084 
Q 2600 3084 3056 2656 
Q 3513 2228 3513 1497 
Q 3513 744 3044 326 
Q 2575 -91 1722 -91 
Q 1428 -91 1123 -41 
Q 819 9 494 109 
L 494 744 
Q 775 591 1075 516 
Q 1375 441 1709 441 
Q 2250 441 2565 725 
Q 2881 1009 2881 1497 
Q 2881 1984 2565 2268 
Q 2250 2553 1709 2553 
Q 1456 2553 1204 2497 
Q 953 2441 691 2322 
L 691 4666 
z
" transform="scale(0.015625)"/>
       </defs>
       <use xlink:href="#DejaVuSans-30"/>
       <use xlink:href="#DejaVuSans-2e" transform="translate(63.623047 0)"/>
       <use xlink:href="#DejaVuSans-35" transform="translate(95.410156 0)"/>
      </g>
     </g>
    </g>
    <g id="xtick_3">
     <g id="line2d_5">
      <path d="M 349.722363 383.397812 
L 349.722363 23.837812 
" clip-path="url(#pd8a7ecd97e)" style="fill: none; stroke: #b0b0b0; stroke-opacity: 0.3; stroke-width: 0.8; stroke-linecap: square"/>
     </g>
     <g id="line2d_6">
      <g>
       <use xlink:href="#ma9441ea1d0" x="349.722363" y="383.397812" style="stroke: #000000; stroke-width: 0.8"/>
      </g>
     </g>
     <g id="text_3">
      <!-- 0.6 -->
      <g transform="translate(341.770801 397.99625) scale(0.1 -0.1)">
       <defs>
        <path id="DejaVuSans-36" d="M 2113 2584 
Q 1688 2584 1439 2293 
Q 1191 2003 1191 1497 
Q 1191 994 1439 701 
Q 1688 409 2113 409 
Q 2538 409 2786 701 
Q 3034 994 3034 1497 
Q 3034 2003 2786 2293 
Q 2538 2584 2113 2584 
z
M 3366 4563 
L 3366 3988 
Q 3128 4100 2886 4159 
Q 2644 4219 2406 4219 
Q 1781 4219 1451 3797 
Q 1122 3375 1075 2522 
Q 1259 2794 1537 2939 
Q 1816 3084 2150 3084 
Q 2853 3084 3261 2657 
Q 3669 2231 3669 1497 
Q 3669 778 3244 343 
Q 2819 -91 2113 -91 
Q 1303 -91 875 529 
Q 447 1150 447 2328 
Q 447 3434 972 4092 
Q 1497 4750 2381 4750 
Q 2619 4750 2861 4703 
Q 3103 4656 3366 4563 
z
" transform="scale(0.015625)"/>
       </defs>
       <use xlink:href="#DejaVuSans-30"/>
       <use xlink:href="#DejaVuSans-2e" transform="translate(63.623047 0)"/>
       <use xlink:href="#DejaVuSans-36" transform="translate(95.410156 0)"/>
      </g>
     </g>
    </g>
    <g id="xtick_4">
     <g id="line2d_7">
      <path d="M 459.551548 383.397812 
L 459.551548 23.837812 
" clip-path="url(#pd8a7ecd97e)" style="fill: none; stroke: #b0b0b0; stroke-opacity: 0.3; stroke-width: 0.8; stroke-linecap: square"/>
     </g>
     <g id="line2d_8">
      <g>
       <use xlink:href="#ma9441ea1d0" x="459.551548" y="383.397812" style="stroke: #000000; stroke-width: 0.8"/>
      </g>
     </g>
     <g id="text_4">
      <!-- 0.7 -->
      <g transform="translate(451.599986 397.99625) scale(0.1 -0.1)">
       <defs>
        <path id="DejaVuSans-37" d="M 525 4666 
L 3525 4666 
L 3525 4397 
L 1831 0 
L 1172 0 
L 2766 4134 
L 525 4134 
L 525 4666 
z
" transform="scale(0.015625)"/>
       </defs>
       <use xlink:href="#DejaVuSans-30"/>
       <use xlink:href="#DejaVuSans-2e" transform="translate(63.623047 0)"/>
       <use xlink:href="#DejaVuSans-37" transform="translate(95.410156 0)"/>
      </g>
     </g>
    </g>
    <g id="xtick_5">
     <g id="line2d_9">
      <path d="M 569.380733 383.397812 
L 569.380733 23.837812 
" clip-path="url(#pd8a7ecd97e)" style="fill: none; stroke: #b0b0b0; stroke-opacity: 0.3; stroke-width: 0.8; stroke-linecap: square"/>
     </g>
     <g id="line2d_10">
      <g>
       <use xlink:href="#ma9441ea1d0" x="569.380733" y="383.397812" style="stroke: #000000; stroke-width: 0.8"/>
      </g>
     </g>
     <g id="text_5">
      <!-- 0.8 -->
      <g transform="translate(561.429171 397.99625) scale(0.1 -0.1)">
       <defs>
        <path id="DejaVuSans-38" d="M 2034 2216 
Q 1584 2216 1326 1975 
Q 1069 1734 1069 1313 
Q 1069 891 1326 650 
Q 1584 409 2034 409 
Q 2484 409 2743 651 
Q 3003 894 3003 1313 
Q 3003 1734 2745 1975 
Q 2488 2216 2034 2216 
z
M 1403 2484 
Q 997 2584 770 2862 
Q 544 3141 544 3541 
Q 544 4100 942 4425 
Q 1341 4750 2034 4750 
Q 2731 4750 3128 4425 
Q 3525 4100 3525 3541 
Q 3525 3141 3298 2862 
Q 3072 2584 2669 2484 
Q 3125 2378 3379 2068 
Q 3634 1759 3634 1313 
Q 3634 634 3220 271 
Q 2806 -91 2034 -91 
Q 1263 -91 848 271 
Q 434 634 434 1313 
Q 434 1759 690 2068 
Q 947 2378 1403 2484 
z
M 1172 3481 
Q 1172 3119 1398 2916 
Q 1625 2713 2034 2713 
Q 2441 2713 2670 2916 
Q 2900 3119 2900 3481 
Q 2900 3844 2670 4047 
Q 2441 4250 2034 4250 
Q 1625 4250 1398 4047 
Q 1172 3844 1172 3481 
z
" transform="scale(0.015625)"/>
       </defs>
       <use xlink:href="#DejaVuSans-30"/>
       <use xlink:href="#DejaVuSans-2e" transform="translate(63.623047 0)"/>
       <use xlink:href="#DejaVuSans-38" transform="translate(95.410156 0)"/>
      </g>
     </g>
    </g>
    <g id="xtick_6">
     <g id="line2d_11">
      <path d="M 679.209918 383.397812 
L 679.209918 23.837812 
" clip-path="url(#pd8a7ecd97e)" style="fill: none; stroke: #b0b0b0; stroke-opacity: 0.3; stroke-width: 0.8; stroke-linecap: square"/>
     </g>
     <g id="line2d_12">
      <g>
       <use xlink:href="#ma9441ea1d0" x="679.209918" y="383.397812" style="stroke: #000000; stroke-width: 0.8"/>
      </g>
     </g>
     <g id="text_6">
      <!-- 0.9 -->
      <g transform="translate(671.258355 397.99625) scale(0.1 -0.1)">
       <defs>
        <path id="DejaVuSans-39" d="M 703 97 
L 703 672 
Q 941 559 1184 500 
Q 1428 441 1663 441 
Q 2288 441 2617 861 
Q 2947 1281 2994 2138 
Q 2813 1869 2534 1725 
Q 2256 1581 1919 1581 
Q 1219 1581 811 2004 
Q 403 2428 403 3163 
Q 403 3881 828 4315 
Q 1253 4750 1959 4750 
Q 2769 4750 3195 4129 
Q 3622 3509 3622 2328 
Q 3622 1225 3098 567 
Q 2575 -91 1691 -91 
Q 1453 -91 1209 -44 
Q 966 3 703 97 
z
M 1959 2075 
Q 2384 2075 2632 2365 
Q 2881 2656 2881 3163 
Q 2881 3666 2632 3958 
Q 2384 4250 1959 4250 
Q 1534 4250 1286 3958 
Q 1038 3666 1038 3163 
Q 1038 2656 1286 2365 
Q 1534 2075 1959 2075 
z
" transform="scale(0.015625)"/>
       </defs>
       <use xlink:href="#DejaVuSans-30"/>
       <use xlink:href="#DejaVuSans-2e" transform="translate(63.623047 0)"/>
       <use xlink:href="#DejaVuSans-39" transform="translate(95.410156 0)"/>
      </g>
     </g>
    </g>
    <g id="text_7">
     <!-- C-index -->
     <g transform="translate(350.642812 413.194062) scale(0.12 -0.12)">
      <defs>
       <path id="DejaVuSans-43" d="M 4122 4306 
L 4122 3641 
Q 3803 3938 3442 4084 
Q 3081 4231 2675 4231 
Q 1875 4231 1450 3742 
Q 1025 3253 1025 2328 
Q 1025 1406 1450 917 
Q 1875 428 2675 428 
Q 3081 428 3442 575 
Q 3803 722 4122 1019 
L 4122 359 
Q 3791 134 3420 21 
Q 3050 -91 2638 -91 
Q 1578 -91 968 557 
Q 359 1206 359 2328 
Q 359 3453 968 4101 
Q 1578 4750 2638 4750 
Q 3056 4750 3426 4639 
Q 3797 4528 4122 4306 
z
" transform="scale(0.015625)"/>
       <path id="DejaVuSans-2d" d="M 313 2009 
L 1997 2009 
L 1997 1497 
L 313 1497 
L 313 2009 
z
" transform="scale(0.015625)"/>
       <path id="DejaVuSans-69" d="M 603 3500 
L 1178 3500 
L 1178 0 
L 603 0 
L 603 3500 
z
M 603 4863 
L 1178 4863 
L 1178 4134 
L 603 4134 
L 603 4863 
z
" transform="scale(0.015625)"/>
       <path id="DejaVuSans-6e" d="M 3513 2113 
L 3513 0 
L 2938 0 
L 2938 2094 
Q 2938 2591 2744 2837 
Q 2550 3084 2163 3084 
Q 1697 3084 1428 2787 
Q 1159 2491 1159 1978 
L 1159 0 
L 581 0 
L 581 3500 
L 1159 3500 
L 1159 2956 
Q 1366 3272 1645 3428 
Q 1925 3584 2291 3584 
Q 2894 3584 3203 3211 
Q 3513 2838 3513 2113 
z
" transform="scale(0.015625)"/>
       <path id="DejaVuSans-64" d="M 2906 2969 
L 2906 4863 
L 3481 4863 
L 3481 0 
L 2906 0 
L 2906 525 
Q 2725 213 2448 61 
Q 2172 -91 1784 -91 
Q 1150 -91 751 415 
Q 353 922 353 1747 
Q 353 2572 751 3078 
Q 1150 3584 1784 3584 
Q 2172 3584 2448 3432 
Q 2725 3281 2906 2969 
z
M 947 1747 
Q 947 1113 1208 752 
Q 1469 391 1925 391 
Q 2381 391 2643 752 
Q 2906 1113 2906 1747 
Q 2906 2381 2643 2742 
Q 2381 3103 1925 3103 
Q 1469 3103 1208 2742 
Q 947 2381 947 1747 
z
" transform="scale(0.015625)"/>
       <path id="DejaVuSans-65" d="M 3597 1894 
L 3597 1613 
L 953 1613 
Q 991 1019 1311 708 
Q 1631 397 2203 397 
Q 2534 397 2845 478 
Q 3156 559 3463 722 
L 3463 178 
Q 3153 47 2828 -22 
Q 2503 -91 2169 -91 
Q 1331 -91 842 396 
Q 353 884 353 1716 
Q 353 2575 817 3079 
Q 1281 3584 2069 3584 
Q 2775 3584 3186 3129 
Q 3597 2675 3597 1894 
z
M 3022 2063 
Q 3016 2534 2758 2815 
Q 2500 3097 2075 3097 
Q 1594 3097 1305 2825 
Q 1016 2553 972 2059 
L 3022 2063 
z
" transform="scale(0.015625)"/>
       <path id="DejaVuSans-78" d="M 3513 3500 
L 2247 1797 
L 3578 0 
L 2900 0 
L 1881 1375 
L 863 0 
L 184 0 
L 1544 1831 
L 300 3500 
L 978 3500 
L 1906 2253 
L 2834 3500 
L 3513 3500 
z
" transform="scale(0.015625)"/>
      </defs>
      <use xlink:href="#DejaVuSans-43"/>
      <use xlink:href="#DejaVuSans-2d" transform="translate(69.824219 0)"/>
      <use xlink:href="#DejaVuSans-69" transform="translate(105.908203 0)"/>
      <use xlink:href="#DejaVuSans-6e" transform="translate(133.691406 0)"/>
      <use xlink:href="#DejaVuSans-64" transform="translate(197.070312 0)"/>
      <use xlink:href="#DejaVuSans-65" transform="translate(260.546875 0)"/>
      <use xlink:href="#DejaVuSans-78" transform="translate(320.320312 0)"/>
     </g>
    </g>
   </g>
   <g id="matplotlib.axis_2">
    <g id="ytick_1">
     <g id="line2d_13">
      <path d="M 42.53875 383.397812 
L 704.28875 383.397812 
" clip-path="url(#pd8a7ecd97e)" style="fill: none; stroke: #b0b0b0; stroke-opacity: 0.3; stroke-width: 0.8; stroke-linecap: square"/>
     </g>
     <g id="line2d_14">
      <defs>
       <path id="m0835627543" d="M 0 0 
L -3.5 0 
" style="stroke: #000000; stroke-width: 0.8"/>
      </defs>
      <g>
       <use xlink:href="#m0835627543" x="42.53875" y="383.397812" style="stroke: #000000; stroke-width: 0.8"/>
      </g>
     </g>
     <g id="text_8">
      <!-- 0 -->
      <g transform="translate(29.17625 387.197031) scale(0.1 -0.1)">
       <use xlink:href="#DejaVuSans-30"/>
      </g>
     </g>
    </g>
    <g id="ytick_2">
     <g id="line2d_15">
      <path d="M 42.53875 312.662267 
L 704.28875 312.662267 
" clip-path="url(#pd8a7ecd97e)" style="fill: none; stroke: #b0b0b0; stroke-opacity: 0.3; stroke-width: 0.8; stroke-linecap: square"/>
     </g>
     <g id="line2d_16">
      <g>
       <use xlink:href="#m0835627543" x="42.53875" y="312.662267" style="stroke: #000000; stroke-width: 0.8"/>
      </g>
     </g>
     <g id="text_9">
      <!-- 2 -->
      <g transform="translate(29.17625 316.461486) scale(0.1 -0.1)">
       <defs>
        <path id="DejaVuSans-32" d="M 1228 531 
L 3431 531 
L 3431 0 
L 469 0 
L 469 531 
Q 828 903 1448 1529 
Q 2069 2156 2228 2338 
Q 2531 2678 2651 2914 
Q 2772 3150 2772 3378 
Q 2772 3750 2511 3984 
Q 2250 4219 1831 4219 
Q 1534 4219 1204 4116 
Q 875 4013 500 3803 
L 500 4441 
Q 881 4594 1212 4672 
Q 1544 4750 1819 4750 
Q 2544 4750 2975 4387 
Q 3406 4025 3406 3419 
Q 3406 3131 3298 2873 
Q 3191 2616 2906 2266 
Q 2828 2175 2409 1742 
Q 1991 1309 1228 531 
z
" transform="scale(0.015625)"/>
       </defs>
       <use xlink:href="#DejaVuSans-32"/>
      </g>
     </g>
    </g>
    <g id="ytick_3">
     <g id="line2d_17">
      <path d="M 42.53875 241.926722 
L 704.28875 241.926722 
" clip-path="url(#pd8a7ecd97e)" style="fill: none; stroke: #b0b0b0; stroke-opacity: 0.3; stroke-width: 0.8; stroke-linecap: square"/>
     </g>
     <g id="line2d_18">
      <g>
       <use xlink:href="#m0835627543" x="42.53875" y="241.926722" style="stroke: #000000; stroke-width: 0.8"/>
      </g>
     </g>
     <g id="text_10">
      <!-- 4 -->
      <g transform="translate(29.17625 245.725941) scale(0.1 -0.1)">
       <use xlink:href="#DejaVuSans-34"/>
      </g>
     </g>
    </g>
    <g id="ytick_4">
     <g id="line2d_19">
      <path d="M 42.53875 171.191177 
L 704.28875 171.191177 
" clip-path="url(#pd8a7ecd97e)" style="fill: none; stroke: #b0b0b0; stroke-opacity: 0.3; stroke-width: 0.8; stroke-linecap: square"/>
     </g>
     <g id="line2d_20">
      <g>
       <use xlink:href="#m0835627543" x="42.53875" y="171.191177" style="stroke: #000000; stroke-width: 0.8"/>
      </g>
     </g>
     <g id="text_11">
      <!-- 6 -->
      <g transform="translate(29.17625 174.990395) scale(0.1 -0.1)">
       <use xlink:href="#DejaVuSans-36"/>
      </g>
     </g>
    </g>
    <g id="ytick_5">
     <g id="line2d_21">
      <path d="M 42.53875 100.455631 
L 704.28875 100.455631 
" clip-path="url(#pd8a7ecd97e)" style="fill: none; stroke: #b0b0b0; stroke-opacity: 0.3; stroke-width: 0.8; stroke-linecap: square"/>
     </g>
     <g id="line2d_22">
      <g>
       <use xlink:href="#m0835627543" x="42.53875" y="100.455631" style="stroke: #000000; stroke-width: 0.8"/>
      </g>
     </g>
     <g id="text_12">
      <!-- 8 -->
      <g transform="translate(29.17625 104.25485) scale(0.1 -0.1)">
       <use xlink:href="#DejaVuSans-38"/>
      </g>
     </g>
    </g>
    <g id="ytick_6">
     <g id="line2d_23">
      <path d="M 42.53875 29.720086 
L 704.28875 29.720086 
" clip-path="url(#pd8a7ecd97e)" style="fill: none; stroke: #b0b0b0; stroke-opacity: 0.3; stroke-width: 0.8; stroke-linecap: square"/>
     </g>
     <g id="line2d_24">
      <g>
       <use xlink:href="#m0835627543" x="42.53875" y="29.720086" style="stroke: #000000; stroke-width: 0.8"/>
      </g>
     </g>
     <g id="text_13">
      <!-- 10 -->
      <g transform="translate(22.81375 33.519305) scale(0.1 -0.1)">
       <defs>
        <path id="DejaVuSans-31" d="M 794 531 
L 1825 531 
L 1825 4091 
L 703 3866 
L 703 4441 
L 1819 4666 
L 2450 4666 
L 2450 531 
L 3481 531 
L 3481 0 
L 794 0 
L 794 531 
z
" transform="scale(0.015625)"/>
       </defs>
       <use xlink:href="#DejaVuSans-31"/>
       <use xlink:href="#DejaVuSans-30" transform="translate(63.623047 0)"/>
      </g>
     </g>
    </g>
    <g id="text_14">
     <!-- Density -->
     <g transform="translate(16.318125 226.428125) rotate(-90) scale(0.12 -0.12)">
      <defs>
       <path id="DejaVuSans-44" d="M 1259 4147 
L 1259 519 
L 2022 519 
Q 2988 519 3436 956 
Q 3884 1394 3884 2338 
Q 3884 3275 3436 3711 
Q 2988 4147 2022 4147 
L 1259 4147 
z
M 628 4666 
L 1925 4666 
Q 3281 4666 3915 4102 
Q 4550 3538 4550 2338 
Q 4550 1131 3912 565 
Q 3275 0 1925 0 
L 628 0 
L 628 4666 
z
" transform="scale(0.015625)"/>
       <path id="DejaVuSans-73" d="M 2834 3397 
L 2834 2853 
Q 2591 2978 2328 3040 
Q 2066 3103 1784 3103 
Q 1356 3103 1142 2972 
Q 928 2841 928 2578 
Q 928 2378 1081 2264 
Q 1234 2150 1697 2047 
L 1894 2003 
Q 2506 1872 2764 1633 
Q 3022 1394 3022 966 
Q 3022 478 2636 193 
Q 2250 -91 1575 -91 
Q 1294 -91 989 -36 
Q 684 19 347 128 
L 347 722 
Q 666 556 975 473 
Q 1284 391 1588 391 
Q 1994 391 2212 530 
Q 2431 669 2431 922 
Q 2431 1156 2273 1281 
Q 2116 1406 1581 1522 
L 1381 1569 
Q 847 1681 609 1914 
Q 372 2147 372 2553 
Q 372 3047 722 3315 
Q 1072 3584 1716 3584 
Q 2034 3584 2315 3537 
Q 2597 3491 2834 3397 
z
" transform="scale(0.015625)"/>
       <path id="DejaVuSans-74" d="M 1172 4494 
L 1172 3500 
L 2356 3500 
L 2356 3053 
L 1172 3053 
L 1172 1153 
Q 1172 725 1289 603 
Q 1406 481 1766 481 
L 2356 481 
L 2356 0 
L 1766 0 
Q 1100 0 847 248 
Q 594 497 594 1153 
L 594 3053 
L 172 3053 
L 172 3500 
L 594 3500 
L 594 4494 
L 1172 4494 
z
" transform="scale(0.015625)"/>
       <path id="DejaVuSans-79" d="M 2059 -325 
Q 1816 -950 1584 -1140 
Q 1353 -1331 966 -1331 
L 506 -1331 
L 506 -850 
L 844 -850 
Q 1081 -850 1212 -737 
Q 1344 -625 1503 -206 
L 1606 56 
L 191 3500 
L 800 3500 
L 1894 763 
L 2988 3500 
L 3597 3500 
L 2059 -325 
z
" transform="scale(0.015625)"/>
      </defs>
      <use xlink:href="#DejaVuSans-44"/>
      <use xlink:href="#DejaVuSans-65" transform="translate(77.001953 0)"/>
      <use xlink:href="#DejaVuSans-6e" transform="translate(138.525391 0)"/>
      <use xlink:href="#DejaVuSans-73" transform="translate(201.904297 0)"/>
      <use xlink:href="#DejaVuSans-69" transform="translate(254.003906 0)"/>
      <use xlink:href="#DejaVuSans-74" transform="translate(281.787109 0)"/>
      <use xlink:href="#DejaVuSans-79" transform="translate(320.996094 0)"/>
     </g>
    </g>
   </g>
   <g id="line2d_25">
    <path d="M 285.380068 383.369958 
L 294.551187 383.186104 
L 300.053858 382.844068 
L 303.722305 382.448048 
L 307.390753 381.889036 
L 311.0592 381.165363 
L 316.561872 379.818524 
L 322.064543 378.23496 
L 327.567214 376.399602 
L 331.235662 374.965042 
L 334.904109 373.309097 
L 338.572557 371.424529 
L 344.075228 368.25387 
L 349.577899 364.79534 
L 353.246347 362.294555 
L 356.914794 359.511726 
L 360.583242 356.297066 
L 362.417465 354.483314 
L 364.251689 352.512308 
L 366.085913 350.372058 
L 367.920137 348.052115 
L 369.75436 345.542822 
L 371.588584 342.834724 
L 373.422808 339.918419 
L 375.257032 336.784952 
L 378.925479 329.838786 
L 382.593927 321.974064 
L 386.262374 313.241739 
L 389.930822 303.768151 
L 393.599269 293.724038 
L 399.10194 277.959632 
L 406.438835 256.26261 
L 411.941506 239.545738 
L 415.609954 227.935399 
L 419.278401 215.674577 
L 422.946849 202.577601 
L 426.615296 188.647124 
L 437.620639 145.761464 
L 441.289086 133.187705 
L 443.12331 127.539127 
L 444.957534 122.358 
L 446.791758 117.647484 
L 448.625981 113.388424 
L 450.460205 109.542085 
L 452.294429 106.054834 
L 454.128653 102.86433 
L 457.7971 97.123023 
L 461.465548 91.908127 
L 465.133995 87.059389 
L 468.802443 82.716327 
L 470.636666 80.842119 
L 472.47089 79.237695 
L 474.305114 77.956076 
L 476.139338 77.044113 
L 477.973561 76.539193 
L 479.807785 76.467495 
L 481.642009 76.843775 
L 483.476233 77.672545 
L 485.310456 78.950274 
L 487.14468 80.668211 
L 488.978904 82.815348 
L 490.813128 85.381078 
L 492.647351 88.357181 
L 494.481575 91.738852 
L 496.315799 95.524641 
L 498.150023 99.715345 
L 499.984246 104.311998 
L 501.81847 109.31327 
L 503.652694 114.712676 
L 507.321141 126.639487 
L 510.989589 139.859517 
L 514.658036 153.988399 
L 527.497603 204.525642 
L 534.834498 232.075162 
L 547.674064 279.53087 
L 553.176735 299.099672 
L 556.845182 311.413828 
L 560.51363 322.816984 
L 562.347854 328.08144 
L 564.182077 333.005841 
L 566.016301 337.558956 
L 567.850525 341.716473 
L 569.684749 345.462982 
L 571.518972 348.793472 
L 573.353196 351.71422 
L 575.18742 354.242972 
L 577.021644 356.408391 
L 578.855867 358.248792 
L 580.690091 359.810204 
L 582.524315 361.143868 
L 586.192762 363.341199 
L 597.198105 369.175475 
L 608.203447 375.576072 
L 611.871895 377.406151 
L 615.540342 378.956866 
L 619.20879 380.22117 
L 622.877237 381.21688 
L 626.545685 381.971421 
L 630.214132 382.516303 
L 635.716804 383.01892 
L 641.219475 383.259668 
L 650.390594 383.380598 
L 650.390594 383.380598 
" clip-path="url(#pd8a7ecd97e)" style="fill: none; stroke: #1f77b4; stroke-width: 1.5; stroke-linecap: square"/>
   </g>
   <g id="line2d_26">
    <path d="M 474.39333 383.397812 
L 474.39333 23.837812 
" clip-path="url(#pd8a7ecd97e)" style="fill: none; stroke-dasharray: 5.55,2.4; stroke-dashoffset: 0; stroke: #1f77b4; stroke-opacity: 0.7; stroke-width: 1.5"/>
   </g>
   <g id="line2d_27">
    <path d="M 250.786288 383.383229 
L 261.425055 383.255741 
L 267.808315 383.002334 
L 274.191575 382.537301 
L 289.085848 381.240529 
L 293.341355 381.138428 
L 297.596862 381.242414 
L 303.980122 381.715391 
L 316.746642 382.867654 
L 323.129902 383.156321 
L 329.513162 383.168475 
L 333.768669 382.977669 
L 338.024175 382.549741 
L 342.279682 381.791032 
L 346.535189 380.618645 
L 350.790695 378.998236 
L 355.046202 376.959958 
L 359.301709 374.576495 
L 363.557215 371.917149 
L 367.812722 369.014633 
L 372.068229 365.868066 
L 376.323736 362.465306 
L 380.579242 358.786399 
L 384.834749 354.778762 
L 389.090256 350.342247 
L 393.345762 345.362912 
L 397.601269 339.774743 
L 401.856776 333.580778 
L 406.112282 326.799199 
L 410.367789 319.381601 
L 414.623296 311.175664 
L 416.751049 306.704771 
L 418.878803 301.941264 
L 421.006556 296.844332 
L 423.134309 291.368561 
L 425.262063 285.464492 
L 427.389816 279.081151 
L 429.517569 272.171457 
L 431.645323 264.700733 
L 433.773076 256.657574 
L 435.900829 248.065274 
L 440.156336 229.551017 
L 446.539596 200.792084 
L 448.667349 191.728495 
L 450.795103 183.21833 
L 452.922856 175.360617 
L 455.05061 168.180914 
L 457.178363 161.629683 
L 459.306116 155.593328 
L 463.561623 144.428347 
L 469.944883 127.797261 
L 478.455896 104.995765 
L 480.58365 99.876078 
L 482.711403 95.275112 
L 484.839156 91.303434 
L 486.96691 88.035629 
L 489.094663 85.508897 
L 491.222416 83.726793 
L 493.35017 82.666028 
L 495.477923 82.284018 
L 497.605677 82.525274 
L 499.73343 83.325547 
L 501.861183 84.613737 
L 503.988937 86.312475 
L 506.11669 88.338876 
L 510.372197 93.032575 
L 521.010963 105.700702 
L 523.138717 108.367455 
L 525.26647 111.22523 
L 527.394223 114.373736 
L 529.521977 117.910884 
L 531.64973 121.921523 
L 533.777483 126.469253 
L 535.905237 131.592305 
L 538.03299 137.303481 
L 540.160744 143.593242 
L 542.288497 150.434556 
L 544.41625 157.787942 
L 548.671757 173.833395 
L 552.927264 191.278704 
L 559.310524 218.881996 
L 565.693784 246.436681 
L 569.94929 263.967458 
L 574.204797 280.513806 
L 578.460304 295.949064 
L 582.715811 310.145561 
L 584.843564 316.723392 
L 586.971317 322.920385 
L 589.099071 328.714009 
L 591.226824 334.088261 
L 593.354577 339.036285 
L 595.482331 343.561614 
L 597.610084 347.67788 
L 599.737837 351.407204 
L 601.865591 354.777697 
L 603.993344 357.820623 
L 606.121097 360.567732 
L 608.248851 363.049157 
L 610.376604 365.292068 
L 612.504357 367.320087 
L 614.632111 369.153334 
L 616.759864 370.808895 
L 618.887617 372.301473 
L 621.015371 373.644064 
L 625.270877 375.92615 
L 629.526384 377.74393 
L 633.781891 379.181837 
L 638.037398 380.318347 
L 642.292904 381.218013 
L 646.548411 381.924482 
L 650.803918 382.462405 
L 657.187178 382.990631 
L 663.570438 383.254848 
L 674.209205 383.383285 
L 674.209205 383.383285 
" clip-path="url(#pd8a7ecd97e)" style="fill: none; stroke: #ff7f0e; stroke-width: 1.5; stroke-linecap: square"/>
   </g>
   <g id="line2d_28">
    <path d="M 496.656003 383.397812 
L 496.656003 23.837812 
" clip-path="url(#pd8a7ecd97e)" style="fill: none; stroke-dasharray: 5.55,2.4; stroke-dashoffset: 0; stroke: #ff7f0e; stroke-opacity: 0.7; stroke-width: 1.5"/>
   </g>
   <g id="line2d_29">
    <path d="M 221.851237 383.381049 
L 231.207343 383.257225 
L 236.821007 383.010987 
L 242.434671 382.519442 
L 248.048334 381.741722 
L 263.018104 379.348076 
L 268.631768 378.601016 
L 272.37421 377.865878 
L 274.245431 377.337951 
L 276.116653 376.663649 
L 277.987874 375.819565 
L 279.859095 374.790818 
L 281.730316 373.573337 
L 283.601537 372.175163 
L 287.34398 368.928714 
L 296.700086 360.030576 
L 300.442528 356.939261 
L 304.184971 354.241013 
L 309.798634 350.383974 
L 311.669856 348.948514 
L 313.541077 347.349365 
L 315.412298 345.54186 
L 317.283519 343.492446 
L 319.154741 341.180814 
L 321.025962 338.600437 
L 322.897183 335.757531 
L 324.768404 332.668717 
L 328.510847 325.85232 
L 332.253289 318.364627 
L 335.995732 310.374148 
L 339.738174 301.928904 
L 343.480616 292.914474 
L 347.223059 283.052878 
L 349.09428 277.685826 
L 350.965501 271.961488 
L 352.836722 265.836638 
L 354.707944 259.279747 
L 356.579165 252.275712 
L 360.321607 236.966694 
L 364.06405 220.200967 
L 377.162598 159.349338 
L 380.905041 144.038186 
L 384.647483 130.34988 
L 388.389926 118.229315 
L 392.132368 107.322073 
L 407.102138 66.146563 
L 410.84458 56.413544 
L 412.715801 52.089431 
L 414.587023 48.30264 
L 416.458244 45.182174 
L 418.329465 42.848329 
L 420.200686 41.409337 
L 422.071907 40.959163 
L 423.943129 41.575548 
L 425.81435 43.317429 
L 427.685571 46.221164 
L 429.556792 50.295653 
L 431.428014 55.516997 
L 433.299235 61.823964 
L 435.170456 69.115676 
L 437.041677 77.252842 
L 440.78412 95.351875 
L 448.269005 133.358551 
L 452.011447 150.794368 
L 455.753889 166.567559 
L 459.496332 180.98812 
L 466.981217 208.179504 
L 476.337323 242.62947 
L 481.950986 262.834419 
L 485.693429 275.356667 
L 489.435871 286.743843 
L 491.307093 291.942326 
L 493.178314 296.788941 
L 495.049535 301.277929 
L 496.920756 305.412763 
L 498.791977 309.206632 
L 500.663199 312.682516 
L 502.53442 315.872608 
L 506.276862 321.561217 
L 510.019305 326.643338 
L 521.246632 341.375126 
L 532.473959 356.698133 
L 536.216402 361.399497 
L 539.958844 365.672626 
L 543.701287 369.438469 
L 547.443729 372.657027 
L 551.186171 375.32433 
L 554.928614 377.469824 
L 558.671056 379.149996 
L 562.413499 380.436146 
L 566.155941 381.400231 
L 569.898384 382.10524 
L 573.640826 382.603174 
L 579.25449 383.05704 
L 584.868153 383.273829 
L 594.224259 383.382644 
L 594.224259 383.382644 
" clip-path="url(#pd8a7ecd97e)" style="fill: none; stroke: #2ca02c; stroke-width: 1.5; stroke-linecap: square"/>
   </g>
   <g id="line2d_30">
    <path d="M 417.994559 383.397812 
L 417.994559 23.837812 
" clip-path="url(#pd8a7ecd97e)" style="fill: none; stroke-dasharray: 5.55,2.4; stroke-dashoffset: 0; stroke: #2ca02c; stroke-opacity: 0.7; stroke-width: 1.5"/>
   </g>
   <g id="line2d_31">
    <path d="M 125.383696 383.380628 
L 137.537707 383.229456 
L 144.830114 382.899253 
L 149.691719 382.477521 
L 154.553323 381.834684 
L 159.414928 380.941202 
L 164.276532 379.802331 
L 169.138137 378.459564 
L 176.430544 376.191701 
L 183.722951 373.681102 
L 188.584555 371.744043 
L 191.015358 370.62836 
L 193.44616 369.375784 
L 195.876962 367.958059 
L 198.307764 366.35187 
L 200.738567 364.542344 
L 203.169369 362.525822 
L 205.600171 360.311346 
L 210.461776 355.385004 
L 217.754183 347.299238 
L 232.338997 330.854856 
L 237.200601 324.89559 
L 239.631404 321.666122 
L 242.062206 318.226511 
L 244.493008 314.5513 
L 246.92381 310.620452 
L 249.354613 306.418039 
L 251.785415 301.93065 
L 254.216217 297.1461 
L 256.64702 292.052899 
L 259.077822 286.640802 
L 261.508624 280.902546 
L 263.939426 274.836572 
L 268.801031 261.763216 
L 273.662636 247.63625 
L 288.247449 203.74564 
L 293.109054 190.271752 
L 295.539856 183.956166 
L 297.970659 177.978275 
L 300.401461 172.390792 
L 302.832263 167.253971 
L 305.263066 162.629369 
L 307.693868 158.569234 
L 310.12467 155.103715 
L 312.555472 152.229101 
L 314.986275 149.90053 
L 317.417077 148.031838 
L 319.847879 146.50372 
L 329.571088 141.229135 
L 334.432693 138.099687 
L 339.294298 135.016989 
L 341.7251 133.786208 
L 344.155902 132.924947 
L 346.586705 132.526695 
L 349.017507 132.647966 
L 351.448309 133.30508 
L 353.879111 134.478518 
L 356.309914 136.123353 
L 358.740716 138.183171 
L 361.171518 140.604472 
L 363.602321 143.34858 
L 366.033123 146.398807 
L 368.463925 149.761675 
L 370.894728 153.462254 
L 373.32553 157.534919 
L 375.756332 162.011719 
L 378.187134 166.910976 
L 380.617937 172.22859 
L 383.048739 177.933799 
L 387.910344 190.261243 
L 402.495157 228.93661 
L 409.787564 247.147848 
L 426.80318 289.118008 
L 431.664785 300.982832 
L 436.52639 312.158489 
L 438.957192 317.322309 
L 441.387994 322.126098 
L 443.818796 326.529338 
L 446.249599 330.511001 
L 448.680401 334.071823 
L 451.111203 337.234236 
L 453.542006 340.040019 
L 455.972808 342.545991 
L 458.40361 344.818313 
L 463.265215 348.934946 
L 472.988424 356.896553 
L 485.142435 367.089447 
L 490.00404 370.663817 
L 492.434842 372.248636 
L 494.865645 373.685005 
L 497.296447 374.97093 
L 499.727249 376.109664 
L 502.158052 377.108411 
L 504.588854 377.977118 
L 509.450458 379.372205 
L 514.312063 380.396956 
L 519.173668 381.151663 
L 526.466074 381.949126 
L 533.758481 382.460967 
L 541.050888 382.69676 
L 548.343295 382.662057 
L 565.358911 382.341038 
L 572.651318 382.486456 
L 596.959341 383.299914 
L 609.113353 383.386165 
L 609.113353 383.386165 
" clip-path="url(#pd8a7ecd97e)" style="fill: none; stroke: #d62728; stroke-width: 1.5; stroke-linecap: square"/>
   </g>
   <g id="line2d_32">
    <path d="M 343.785651 383.397812 
L 343.785651 23.837812 
" clip-path="url(#pd8a7ecd97e)" style="fill: none; stroke-dasharray: 5.55,2.4; stroke-dashoffset: 0; stroke: #d62728; stroke-opacity: 0.7; stroke-width: 1.5"/>
   </g>
   <g id="line2d_33">
    <path d="M 72.618295 383.384867 
L 85.684066 383.250113 
L 92.216951 383.019385 
L 98.749836 382.578258 
L 105.282721 381.875869 
L 111.815606 380.940324 
L 124.881376 378.959236 
L 131.414261 378.224293 
L 140.124775 377.332559 
L 144.480031 376.672306 
L 148.835288 375.70009 
L 153.190545 374.332196 
L 157.545802 372.536945 
L 161.901058 370.31724 
L 166.256315 367.677253 
L 170.611572 364.599219 
L 174.966828 361.05286 
L 179.322085 357.036975 
L 183.677342 352.623607 
L 192.387855 343.237047 
L 207.631254 326.686086 
L 211.986511 321.315116 
L 214.164139 318.38099 
L 216.341767 315.254226 
L 218.519396 311.922651 
L 222.874652 304.628101 
L 227.229909 296.517836 
L 231.585166 287.677183 
L 235.940423 278.216714 
L 240.295679 268.223994 
L 244.650936 257.716733 
L 249.006193 246.622296 
L 253.361449 234.810962 
L 257.716706 222.18648 
L 262.071963 208.79887 
L 272.960105 174.306851 
L 277.315361 161.630636 
L 279.49299 155.846868 
L 281.670618 150.518457 
L 283.848246 145.693539 
L 286.025875 141.40446 
L 288.203503 137.666224 
L 290.381132 134.475857 
L 292.55876 131.812919 
L 294.736388 129.641383 
L 296.914017 127.912996 
L 299.091645 126.571966 
L 301.269273 125.560584 
L 303.446902 124.825082 
L 305.62453 124.320865 
L 307.802158 124.016265 
L 309.979787 123.894137 
L 312.157415 123.950995 
L 314.335043 124.193832 
L 316.512672 124.635285 
L 318.6903 125.288089 
L 320.867929 126.159997 
L 323.045557 127.250211 
L 325.223185 128.548101 
L 327.400814 130.034497 
L 329.578442 131.68534 
L 333.933699 135.392081 
L 338.288955 139.585227 
L 340.466584 141.899105 
L 342.644212 144.407812 
L 344.821841 147.163448 
L 346.999469 150.222854 
L 349.177097 153.640471 
L 351.354726 157.461348 
L 353.532354 161.71538 
L 355.709982 166.413652 
L 357.887611 171.547329 
L 360.065239 177.089131 
L 364.420496 189.218869 
L 368.775753 202.381042 
L 375.308638 223.173026 
L 388.374408 265.376375 
L 392.729664 278.885648 
L 397.084921 291.688004 
L 401.440178 303.50409 
L 403.617806 308.971739 
L 405.795435 314.122376 
L 407.973063 318.949938 
L 410.150691 323.458393 
L 412.32832 327.661521 
L 414.505948 331.581849 
L 416.683576 335.248758 
L 421.038833 341.958088 
L 425.39409 348.053822 
L 429.749347 353.724468 
L 434.104603 359.025107 
L 438.45986 363.884553 
L 440.637488 366.107535 
L 442.815117 368.170723 
L 444.992745 370.062053 
L 447.170373 371.774961 
L 449.348002 373.308997 
L 451.52563 374.669596 
L 453.703259 375.867142 
L 455.880887 376.915584 
L 460.236144 378.629409 
L 464.5914 379.93732 
L 468.946657 380.942341 
L 473.301914 381.713851 
L 477.657171 382.294716 
L 484.190056 382.873022 
L 490.722941 383.183722 
L 499.433454 383.348426 
L 505.966339 383.38461 
L 505.966339 383.38461 
" clip-path="url(#pd8a7ecd97e)" style="fill: none; stroke: #9467bd; stroke-width: 1.5; stroke-linecap: square"/>
   </g>
   <g id="line2d_34">
    <path d="M 306.681196 383.397812 
L 306.681196 23.837812 
" clip-path="url(#pd8a7ecd97e)" style="fill: none; stroke-dasharray: 5.55,2.4; stroke-dashoffset: 0; stroke: #9467bd; stroke-opacity: 0.7; stroke-width: 1.5"/>
   </g>
   <g id="line2d_35">
    <path d="M 239.893179 383.397812 
L 239.893179 23.837812 
" clip-path="url(#pd8a7ecd97e)" style="fill: none; stroke-dasharray: 1.5,2.475; stroke-dashoffset: 0; stroke: #000000; stroke-width: 1.5"/>
   </g>
   <g id="patch_3">
    <path d="M 42.53875 383.397812 
L 42.53875 23.837812 
" style="fill: none; stroke: #000000; stroke-width: 0.8; stroke-linejoin: miter; stroke-linecap: square"/>
   </g>
   <g id="patch_4">
    <path d="M 704.28875 383.397812 
L 704.28875 23.837812 
" style="fill: none; stroke: #000000; stroke-width: 0.8; stroke-linejoin: miter; stroke-linecap: square"/>
   </g>
   <g id="patch_5">
    <path d="M 42.53875 383.397812 
L 704.28875 383.397812 
" style="fill: none; stroke: #000000; stroke-width: 0.8; stroke-linejoin: miter; stroke-linecap: square"/>
   </g>
   <g id="patch_6">
    <path d="M 42.53875 23.837812 
L 704.28875 23.837812 
" style="fill: none; stroke: #000000; stroke-width: 0.8; stroke-linejoin: miter; stroke-linecap: square"/>
   </g>
   <g id="text_15">
    <!-- Bootstrap Distributions of C-indices for RSF Model -->
    <g transform="translate(198.757187 17.837812) scale(0.14 -0.14)">
     <defs>
      <path id="DejaVuSans-42" d="M 1259 2228 
L 1259 519 
L 2272 519 
Q 2781 519 3026 730 
Q 3272 941 3272 1375 
Q 3272 1813 3026 2020 
Q 2781 2228 2272 2228 
L 1259 2228 
z
M 1259 4147 
L 1259 2741 
L 2194 2741 
Q 2656 2741 2882 2914 
Q 3109 3088 3109 3444 
Q 3109 3797 2882 3972 
Q 2656 4147 2194 4147 
L 1259 4147 
z
M 628 4666 
L 2241 4666 
Q 2963 4666 3353 4366 
Q 3744 4066 3744 3513 
Q 3744 3084 3544 2831 
Q 3344 2578 2956 2516 
Q 3422 2416 3680 2098 
Q 3938 1781 3938 1306 
Q 3938 681 3513 340 
Q 3088 0 2303 0 
L 628 0 
L 628 4666 
z
" transform="scale(0.015625)"/>
      <path id="DejaVuSans-6f" d="M 1959 3097 
Q 1497 3097 1228 2736 
Q 959 2375 959 1747 
Q 959 1119 1226 758 
Q 1494 397 1959 397 
Q 2419 397 2687 759 
Q 2956 1122 2956 1747 
Q 2956 2369 2687 2733 
Q 2419 3097 1959 3097 
z
M 1959 3584 
Q 2709 3584 3137 3096 
Q 3566 2609 3566 1747 
Q 3566 888 3137 398 
Q 2709 -91 1959 -91 
Q 1206 -91 779 398 
Q 353 888 353 1747 
Q 353 2609 779 3096 
Q 1206 3584 1959 3584 
z
" transform="scale(0.015625)"/>
      <path id="DejaVuSans-72" d="M 2631 2963 
Q 2534 3019 2420 3045 
Q 2306 3072 2169 3072 
Q 1681 3072 1420 2755 
Q 1159 2438 1159 1844 
L 1159 0 
L 581 0 
L 581 3500 
L 1159 3500 
L 1159 2956 
Q 1341 3275 1631 3429 
Q 1922 3584 2338 3584 
Q 2397 3584 2469 3576 
Q 2541 3569 2628 3553 
L 2631 2963 
z
" transform="scale(0.015625)"/>
      <path id="DejaVuSans-61" d="M 2194 1759 
Q 1497 1759 1228 1600 
Q 959 1441 959 1056 
Q 959 750 1161 570 
Q 1363 391 1709 391 
Q 2188 391 2477 730 
Q 2766 1069 2766 1631 
L 2766 1759 
L 2194 1759 
z
M 3341 1997 
L 3341 0 
L 2766 0 
L 2766 531 
Q 2569 213 2275 61 
Q 1981 -91 1556 -91 
Q 1019 -91 701 211 
Q 384 513 384 1019 
Q 384 1609 779 1909 
Q 1175 2209 1959 2209 
L 2766 2209 
L 2766 2266 
Q 2766 2663 2505 2880 
Q 2244 3097 1772 3097 
Q 1472 3097 1187 3025 
Q 903 2953 641 2809 
L 641 3341 
Q 956 3463 1253 3523 
Q 1550 3584 1831 3584 
Q 2591 3584 2966 3190 
Q 3341 2797 3341 1997 
z
" transform="scale(0.015625)"/>
      <path id="DejaVuSans-70" d="M 1159 525 
L 1159 -1331 
L 581 -1331 
L 581 3500 
L 1159 3500 
L 1159 2969 
Q 1341 3281 1617 3432 
Q 1894 3584 2278 3584 
Q 2916 3584 3314 3078 
Q 3713 2572 3713 1747 
Q 3713 922 3314 415 
Q 2916 -91 2278 -91 
Q 1894 -91 1617 61 
Q 1341 213 1159 525 
z
M 3116 1747 
Q 3116 2381 2855 2742 
Q 2594 3103 2138 3103 
Q 1681 3103 1420 2742 
Q 1159 2381 1159 1747 
Q 1159 1113 1420 752 
Q 1681 391 2138 391 
Q 2594 391 2855 752 
Q 3116 1113 3116 1747 
z
" transform="scale(0.015625)"/>
      <path id="DejaVuSans-20" transform="scale(0.015625)"/>
      <path id="DejaVuSans-62" d="M 3116 1747 
Q 3116 2381 2855 2742 
Q 2594 3103 2138 3103 
Q 1681 3103 1420 2742 
Q 1159 2381 1159 1747 
Q 1159 1113 1420 752 
Q 1681 391 2138 391 
Q 2594 391 2855 752 
Q 3116 1113 3116 1747 
z
M 1159 2969 
Q 1341 3281 1617 3432 
Q 1894 3584 2278 3584 
Q 2916 3584 3314 3078 
Q 3713 2572 3713 1747 
Q 3713 922 3314 415 
Q 2916 -91 2278 -91 
Q 1894 -91 1617 61 
Q 1341 213 1159 525 
L 1159 0 
L 581 0 
L 581 4863 
L 1159 4863 
L 1159 2969 
z
" transform="scale(0.015625)"/>
      <path id="DejaVuSans-75" d="M 544 1381 
L 544 3500 
L 1119 3500 
L 1119 1403 
Q 1119 906 1312 657 
Q 1506 409 1894 409 
Q 2359 409 2629 706 
Q 2900 1003 2900 1516 
L 2900 3500 
L 3475 3500 
L 3475 0 
L 2900 0 
L 2900 538 
Q 2691 219 2414 64 
Q 2138 -91 1772 -91 
Q 1169 -91 856 284 
Q 544 659 544 1381 
z
M 1991 3584 
L 1991 3584 
z
" transform="scale(0.015625)"/>
      <path id="DejaVuSans-66" d="M 2375 4863 
L 2375 4384 
L 1825 4384 
Q 1516 4384 1395 4259 
Q 1275 4134 1275 3809 
L 1275 3500 
L 2222 3500 
L 2222 3053 
L 1275 3053 
L 1275 0 
L 697 0 
L 697 3053 
L 147 3053 
L 147 3500 
L 697 3500 
L 697 3744 
Q 697 4328 969 4595 
Q 1241 4863 1831 4863 
L 2375 4863 
z
" transform="scale(0.015625)"/>
      <path id="DejaVuSans-63" d="M 3122 3366 
L 3122 2828 
Q 2878 2963 2633 3030 
Q 2388 3097 2138 3097 
Q 1578 3097 1268 2742 
Q 959 2388 959 1747 
Q 959 1106 1268 751 
Q 1578 397 2138 397 
Q 2388 397 2633 464 
Q 2878 531 3122 666 
L 3122 134 
Q 2881 22 2623 -34 
Q 2366 -91 2075 -91 
Q 1284 -91 818 406 
Q 353 903 353 1747 
Q 353 2603 823 3093 
Q 1294 3584 2113 3584 
Q 2378 3584 2631 3529 
Q 2884 3475 3122 3366 
z
" transform="scale(0.015625)"/>
      <path id="DejaVuSans-52" d="M 2841 2188 
Q 3044 2119 3236 1894 
Q 3428 1669 3622 1275 
L 4263 0 
L 3584 0 
L 2988 1197 
Q 2756 1666 2539 1819 
Q 2322 1972 1947 1972 
L 1259 1972 
L 1259 0 
L 628 0 
L 628 4666 
L 2053 4666 
Q 2853 4666 3247 4331 
Q 3641 3997 3641 3322 
Q 3641 2881 3436 2590 
Q 3231 2300 2841 2188 
z
M 1259 4147 
L 1259 2491 
L 2053 2491 
Q 2509 2491 2742 2702 
Q 2975 2913 2975 3322 
Q 2975 3731 2742 3939 
Q 2509 4147 2053 4147 
L 1259 4147 
z
" transform="scale(0.015625)"/>
      <path id="DejaVuSans-53" d="M 3425 4513 
L 3425 3897 
Q 3066 4069 2747 4153 
Q 2428 4238 2131 4238 
Q 1616 4238 1336 4038 
Q 1056 3838 1056 3469 
Q 1056 3159 1242 3001 
Q 1428 2844 1947 2747 
L 2328 2669 
Q 3034 2534 3370 2195 
Q 3706 1856 3706 1288 
Q 3706 609 3251 259 
Q 2797 -91 1919 -91 
Q 1588 -91 1214 -16 
Q 841 59 441 206 
L 441 856 
Q 825 641 1194 531 
Q 1563 422 1919 422 
Q 2459 422 2753 634 
Q 3047 847 3047 1241 
Q 3047 1584 2836 1778 
Q 2625 1972 2144 2069 
L 1759 2144 
Q 1053 2284 737 2584 
Q 422 2884 422 3419 
Q 422 4038 858 4394 
Q 1294 4750 2059 4750 
Q 2388 4750 2728 4690 
Q 3069 4631 3425 4513 
z
" transform="scale(0.015625)"/>
      <path id="DejaVuSans-46" d="M 628 4666 
L 3309 4666 
L 3309 4134 
L 1259 4134 
L 1259 2759 
L 3109 2759 
L 3109 2228 
L 1259 2228 
L 1259 0 
L 628 0 
L 628 4666 
z
" transform="scale(0.015625)"/>
      <path id="DejaVuSans-4d" d="M 628 4666 
L 1569 4666 
L 2759 1491 
L 3956 4666 
L 4897 4666 
L 4897 0 
L 4281 0 
L 4281 4097 
L 3078 897 
L 2444 897 
L 1241 4097 
L 1241 0 
L 628 0 
L 628 4666 
z
" transform="scale(0.015625)"/>
      <path id="DejaVuSans-6c" d="M 603 4863 
L 1178 4863 
L 1178 0 
L 603 0 
L 603 4863 
z
" transform="scale(0.015625)"/>
     </defs>
     <use xlink:href="#DejaVuSans-42"/>
     <use xlink:href="#DejaVuSans-6f" transform="translate(68.603516 0)"/>
     <use xlink:href="#DejaVuSans-6f" transform="translate(129.785156 0)"/>
     <use xlink:href="#DejaVuSans-74" transform="translate(190.966797 0)"/>
     <use xlink:href="#DejaVuSans-73" transform="translate(230.175781 0)"/>
     <use xlink:href="#DejaVuSans-74" transform="translate(282.275391 0)"/>
     <use xlink:href="#DejaVuSans-72" transform="translate(321.484375 0)"/>
     <use xlink:href="#DejaVuSans-61" transform="translate(362.597656 0)"/>
     <use xlink:href="#DejaVuSans-70" transform="translate(423.876953 0)"/>
     <use xlink:href="#DejaVuSans-20" transform="translate(487.353516 0)"/>
     <use xlink:href="#DejaVuSans-44" transform="translate(519.140625 0)"/>
     <use xlink:href="#DejaVuSans-69" transform="translate(596.142578 0)"/>
     <use xlink:href="#DejaVuSans-73" transform="translate(623.925781 0)"/>
     <use xlink:href="#DejaVuSans-74" transform="translate(676.025391 0)"/>
     <use xlink:href="#DejaVuSans-72" transform="translate(715.234375 0)"/>
     <use xlink:href="#DejaVuSans-69" transform="translate(756.347656 0)"/>
     <use xlink:href="#DejaVuSans-62" transform="translate(784.130859 0)"/>
     <use xlink:href="#DejaVuSans-75" transform="translate(847.607422 0)"/>
     <use xlink:href="#DejaVuSans-74" transform="translate(910.986328 0)"/>
     <use xlink:href="#DejaVuSans-69" transform="translate(950.195312 0)"/>
     <use xlink:href="#DejaVuSans-6f" transform="translate(977.978516 0)"/>
     <use xlink:href="#DejaVuSans-6e" transform="translate(1039.160156 0)"/>
     <use xlink:href="#DejaVuSans-73" transform="translate(1102.539062 0)"/>
     <use xlink:href="#DejaVuSans-20" transform="translate(1154.638672 0)"/>
     <use xlink:href="#DejaVuSans-6f" transform="translate(1186.425781 0)"/>
     <use xlink:href="#DejaVuSans-66" transform="translate(1247.607422 0)"/>
     <use xlink:href="#DejaVuSans-20" transform="translate(1282.8125 0)"/>
     <use xlink:href="#DejaVuSans-43" transform="translate(1314.599609 0)"/>
     <use xlink:href="#DejaVuSans-2d" transform="translate(1384.423828 0)"/>
     <use xlink:href="#DejaVuSans-69" transform="translate(1420.507812 0)"/>
     <use xlink:href="#DejaVuSans-6e" transform="translate(1448.291016 0)"/>
     <use xlink:href="#DejaVuSans-64" transform="translate(1511.669922 0)"/>
     <use xlink:href="#DejaVuSans-69" transform="translate(1575.146484 0)"/>
     <use xlink:href="#DejaVuSans-63" transform="translate(1602.929688 0)"/>
     <use xlink:href="#DejaVuSans-65" transform="translate(1657.910156 0)"/>
     <use xlink:href="#DejaVuSans-73" transform="translate(1719.433594 0)"/>
     <use xlink:href="#DejaVuSans-20" transform="translate(1771.533203 0)"/>
     <use xlink:href="#DejaVuSans-66" transform="translate(1803.320312 0)"/>
     <use xlink:href="#DejaVuSans-6f" transform="translate(1838.525391 0)"/>
     <use xlink:href="#DejaVuSans-72" transform="translate(1899.707031 0)"/>
     <use xlink:href="#DejaVuSans-20" transform="translate(1940.820312 0)"/>
     <use xlink:href="#DejaVuSans-52" transform="translate(1972.607422 0)"/>
     <use xlink:href="#DejaVuSans-53" transform="translate(2042.089844 0)"/>
     <use xlink:href="#DejaVuSans-46" transform="translate(2105.566406 0)"/>
     <use xlink:href="#DejaVuSans-20" transform="translate(2163.085938 0)"/>
     <use xlink:href="#DejaVuSans-4d" transform="translate(2194.873047 0)"/>
     <use xlink:href="#DejaVuSans-6f" transform="translate(2281.152344 0)"/>
     <use xlink:href="#DejaVuSans-64" transform="translate(2342.333984 0)"/>
     <use xlink:href="#DejaVuSans-65" transform="translate(2405.810547 0)"/>
     <use xlink:href="#DejaVuSans-6c" transform="translate(2467.333984 0)"/>
    </g>
   </g>
   <g id="legend_1">
    <g id="patch_7">
     <path d="M 49.53875 119.906562 
L 227.565313 119.906562 
Q 229.565313 119.906562 229.565313 117.906562 
L 229.565313 30.837812 
Q 229.565313 28.837812 227.565313 28.837812 
L 49.53875 28.837812 
Q 47.53875 28.837812 47.53875 30.837812 
L 47.53875 117.906562 
Q 47.53875 119.906562 49.53875 119.906562 
z
" style="fill: #ffffff; opacity: 0.8; stroke: #cccccc; stroke-linejoin: miter"/>
    </g>
    <g id="line2d_36">
     <path d="M 51.53875 36.93625 
L 61.53875 36.93625 
L 71.53875 36.93625 
" style="fill: none; stroke: #1f77b4; stroke-width: 1.5; stroke-linecap: square"/>
    </g>
    <g id="text_16">
     <!-- Clinical (C-index: 0.7135) -->
     <g transform="translate(79.53875 40.43625) scale(0.1 -0.1)">
      <defs>
       <path id="DejaVuSans-28" d="M 1984 4856 
Q 1566 4138 1362 3434 
Q 1159 2731 1159 2009 
Q 1159 1288 1364 580 
Q 1569 -128 1984 -844 
L 1484 -844 
Q 1016 -109 783 600 
Q 550 1309 550 2009 
Q 550 2706 781 3412 
Q 1013 4119 1484 4856 
L 1984 4856 
z
" transform="scale(0.015625)"/>
       <path id="DejaVuSans-3a" d="M 750 794 
L 1409 794 
L 1409 0 
L 750 0 
L 750 794 
z
M 750 3309 
L 1409 3309 
L 1409 2516 
L 750 2516 
L 750 3309 
z
" transform="scale(0.015625)"/>
       <path id="DejaVuSans-33" d="M 2597 2516 
Q 3050 2419 3304 2112 
Q 3559 1806 3559 1356 
Q 3559 666 3084 287 
Q 2609 -91 1734 -91 
Q 1441 -91 1130 -33 
Q 819 25 488 141 
L 488 750 
Q 750 597 1062 519 
Q 1375 441 1716 441 
Q 2309 441 2620 675 
Q 2931 909 2931 1356 
Q 2931 1769 2642 2001 
Q 2353 2234 1838 2234 
L 1294 2234 
L 1294 2753 
L 1863 2753 
Q 2328 2753 2575 2939 
Q 2822 3125 2822 3475 
Q 2822 3834 2567 4026 
Q 2313 4219 1838 4219 
Q 1578 4219 1281 4162 
Q 984 4106 628 3988 
L 628 4550 
Q 988 4650 1302 4700 
Q 1616 4750 1894 4750 
Q 2613 4750 3031 4423 
Q 3450 4097 3450 3541 
Q 3450 3153 3228 2886 
Q 3006 2619 2597 2516 
z
" transform="scale(0.015625)"/>
       <path id="DejaVuSans-29" d="M 513 4856 
L 1013 4856 
Q 1481 4119 1714 3412 
Q 1947 2706 1947 2009 
Q 1947 1309 1714 600 
Q 1481 -109 1013 -844 
L 513 -844 
Q 928 -128 1133 580 
Q 1338 1288 1338 2009 
Q 1338 2731 1133 3434 
Q 928 4138 513 4856 
z
" transform="scale(0.015625)"/>
      </defs>
      <use xlink:href="#DejaVuSans-43"/>
      <use xlink:href="#DejaVuSans-6c" transform="translate(69.824219 0)"/>
      <use xlink:href="#DejaVuSans-69" transform="translate(97.607422 0)"/>
      <use xlink:href="#DejaVuSans-6e" transform="translate(125.390625 0)"/>
      <use xlink:href="#DejaVuSans-69" transform="translate(188.769531 0)"/>
      <use xlink:href="#DejaVuSans-63" transform="translate(216.552734 0)"/>
      <use xlink:href="#DejaVuSans-61" transform="translate(271.533203 0)"/>
      <use xlink:href="#DejaVuSans-6c" transform="translate(332.8125 0)"/>
      <use xlink:href="#DejaVuSans-20" transform="translate(360.595703 0)"/>
      <use xlink:href="#DejaVuSans-28" transform="translate(392.382812 0)"/>
      <use xlink:href="#DejaVuSans-43" transform="translate(431.396484 0)"/>
      <use xlink:href="#DejaVuSans-2d" transform="translate(501.220703 0)"/>
      <use xlink:href="#DejaVuSans-69" transform="translate(537.304688 0)"/>
      <use xlink:href="#DejaVuSans-6e" transform="translate(565.087891 0)"/>
      <use xlink:href="#DejaVuSans-64" transform="translate(628.466797 0)"/>
      <use xlink:href="#DejaVuSans-65" transform="translate(691.943359 0)"/>
      <use xlink:href="#DejaVuSans-78" transform="translate(751.716797 0)"/>
      <use xlink:href="#DejaVuSans-3a" transform="translate(810.896484 0)"/>
      <use xlink:href="#DejaVuSans-20" transform="translate(844.587891 0)"/>
      <use xlink:href="#DejaVuSans-30" transform="translate(876.375 0)"/>
      <use xlink:href="#DejaVuSans-2e" transform="translate(939.998047 0)"/>
      <use xlink:href="#DejaVuSans-37" transform="translate(971.785156 0)"/>
      <use xlink:href="#DejaVuSans-31" transform="translate(1035.408203 0)"/>
      <use xlink:href="#DejaVuSans-33" transform="translate(1099.03125 0)"/>
      <use xlink:href="#DejaVuSans-35" transform="translate(1162.654297 0)"/>
      <use xlink:href="#DejaVuSans-29" transform="translate(1226.277344 0)"/>
     </g>
    </g>
    <g id="line2d_37">
     <path d="M 51.53875 51.614375 
L 61.53875 51.614375 
L 71.53875 51.614375 
" style="fill: none; stroke: #ff7f0e; stroke-width: 1.5; stroke-linecap: square"/>
    </g>
    <g id="text_17">
     <!-- Molecular (C-index: 0.7338) -->
     <g transform="translate(79.53875 55.114375) scale(0.1 -0.1)">
      <use xlink:href="#DejaVuSans-4d"/>
      <use xlink:href="#DejaVuSans-6f" transform="translate(86.279297 0)"/>
      <use xlink:href="#DejaVuSans-6c" transform="translate(147.460938 0)"/>
      <use xlink:href="#DejaVuSans-65" transform="translate(175.244141 0)"/>
      <use xlink:href="#DejaVuSans-63" transform="translate(236.767578 0)"/>
      <use xlink:href="#DejaVuSans-75" transform="translate(291.748047 0)"/>
      <use xlink:href="#DejaVuSans-6c" transform="translate(355.126953 0)"/>
      <use xlink:href="#DejaVuSans-61" transform="translate(382.910156 0)"/>
      <use xlink:href="#DejaVuSans-72" transform="translate(444.189453 0)"/>
      <use xlink:href="#DejaVuSans-20" transform="translate(485.302734 0)"/>
      <use xlink:href="#DejaVuSans-28" transform="translate(517.089844 0)"/>
      <use xlink:href="#DejaVuSans-43" transform="translate(556.103516 0)"/>
      <use xlink:href="#DejaVuSans-2d" transform="translate(625.927734 0)"/>
      <use xlink:href="#DejaVuSans-69" transform="translate(662.011719 0)"/>
      <use xlink:href="#DejaVuSans-6e" transform="translate(689.794922 0)"/>
      <use xlink:href="#DejaVuSans-64" transform="translate(753.173828 0)"/>
      <use xlink:href="#DejaVuSans-65" transform="translate(816.650391 0)"/>
      <use xlink:href="#DejaVuSans-78" transform="translate(876.423828 0)"/>
      <use xlink:href="#DejaVuSans-3a" transform="translate(935.603516 0)"/>
      <use xlink:href="#DejaVuSans-20" transform="translate(969.294922 0)"/>
      <use xlink:href="#DejaVuSans-30" transform="translate(1001.082031 0)"/>
      <use xlink:href="#DejaVuSans-2e" transform="translate(1064.705078 0)"/>
      <use xlink:href="#DejaVuSans-37" transform="translate(1096.492188 0)"/>
      <use xlink:href="#DejaVuSans-33" transform="translate(1160.115234 0)"/>
      <use xlink:href="#DejaVuSans-33" transform="translate(1223.738281 0)"/>
      <use xlink:href="#DejaVuSans-38" transform="translate(1287.361328 0)"/>
      <use xlink:href="#DejaVuSans-29" transform="translate(1350.984375 0)"/>
     </g>
    </g>
    <g id="line2d_38">
     <path d="M 51.53875 66.2925 
L 61.53875 66.2925 
L 71.53875 66.2925 
" style="fill: none; stroke: #2ca02c; stroke-width: 1.5; stroke-linecap: square"/>
    </g>
    <g id="text_18">
     <!-- Multimodal (C-index: 0.6622) -->
     <g transform="translate(79.53875 69.7925) scale(0.1 -0.1)">
      <defs>
       <path id="DejaVuSans-6d" d="M 3328 2828 
Q 3544 3216 3844 3400 
Q 4144 3584 4550 3584 
Q 5097 3584 5394 3201 
Q 5691 2819 5691 2113 
L 5691 0 
L 5113 0 
L 5113 2094 
Q 5113 2597 4934 2840 
Q 4756 3084 4391 3084 
Q 3944 3084 3684 2787 
Q 3425 2491 3425 1978 
L 3425 0 
L 2847 0 
L 2847 2094 
Q 2847 2600 2669 2842 
Q 2491 3084 2119 3084 
Q 1678 3084 1418 2786 
Q 1159 2488 1159 1978 
L 1159 0 
L 581 0 
L 581 3500 
L 1159 3500 
L 1159 2956 
Q 1356 3278 1631 3431 
Q 1906 3584 2284 3584 
Q 2666 3584 2933 3390 
Q 3200 3197 3328 2828 
z
" transform="scale(0.015625)"/>
      </defs>
      <use xlink:href="#DejaVuSans-4d"/>
      <use xlink:href="#DejaVuSans-75" transform="translate(86.279297 0)"/>
      <use xlink:href="#DejaVuSans-6c" transform="translate(149.658203 0)"/>
      <use xlink:href="#DejaVuSans-74" transform="translate(177.441406 0)"/>
      <use xlink:href="#DejaVuSans-69" transform="translate(216.650391 0)"/>
      <use xlink:href="#DejaVuSans-6d" transform="translate(244.433594 0)"/>
      <use xlink:href="#DejaVuSans-6f" transform="translate(341.845703 0)"/>
      <use xlink:href="#DejaVuSans-64" transform="translate(403.027344 0)"/>
      <use xlink:href="#DejaVuSans-61" transform="translate(466.503906 0)"/>
      <use xlink:href="#DejaVuSans-6c" transform="translate(527.783203 0)"/>
      <use xlink:href="#DejaVuSans-20" transform="translate(555.566406 0)"/>
      <use xlink:href="#DejaVuSans-28" transform="translate(587.353516 0)"/>
      <use xlink:href="#DejaVuSans-43" transform="translate(626.367188 0)"/>
      <use xlink:href="#DejaVuSans-2d" transform="translate(696.191406 0)"/>
      <use xlink:href="#DejaVuSans-69" transform="translate(732.275391 0)"/>
      <use xlink:href="#DejaVuSans-6e" transform="translate(760.058594 0)"/>
      <use xlink:href="#DejaVuSans-64" transform="translate(823.4375 0)"/>
      <use xlink:href="#DejaVuSans-65" transform="translate(886.914062 0)"/>
      <use xlink:href="#DejaVuSans-78" transform="translate(946.6875 0)"/>
      <use xlink:href="#DejaVuSans-3a" transform="translate(1005.867188 0)"/>
      <use xlink:href="#DejaVuSans-20" transform="translate(1039.558594 0)"/>
      <use xlink:href="#DejaVuSans-30" transform="translate(1071.345703 0)"/>
      <use xlink:href="#DejaVuSans-2e" transform="translate(1134.96875 0)"/>
      <use xlink:href="#DejaVuSans-36" transform="translate(1166.755859 0)"/>
      <use xlink:href="#DejaVuSans-36" transform="translate(1230.378906 0)"/>
      <use xlink:href="#DejaVuSans-32" transform="translate(1294.001953 0)"/>
      <use xlink:href="#DejaVuSans-32" transform="translate(1357.625 0)"/>
      <use xlink:href="#DejaVuSans-29" transform="translate(1421.248047 0)"/>
     </g>
    </g>
    <g id="line2d_39">
     <path d="M 51.53875 80.970625 
L 61.53875 80.970625 
L 71.53875 80.970625 
" style="fill: none; stroke: #d62728; stroke-width: 1.5; stroke-linecap: square"/>
    </g>
    <g id="text_19">
     <!-- Pathology (C-index: 0.5946) -->
     <g transform="translate(79.53875 84.470625) scale(0.1 -0.1)">
      <defs>
       <path id="DejaVuSans-50" d="M 1259 4147 
L 1259 2394 
L 2053 2394 
Q 2494 2394 2734 2622 
Q 2975 2850 2975 3272 
Q 2975 3691 2734 3919 
Q 2494 4147 2053 4147 
L 1259 4147 
z
M 628 4666 
L 2053 4666 
Q 2838 4666 3239 4311 
Q 3641 3956 3641 3272 
Q 3641 2581 3239 2228 
Q 2838 1875 2053 1875 
L 1259 1875 
L 1259 0 
L 628 0 
L 628 4666 
z
" transform="scale(0.015625)"/>
       <path id="DejaVuSans-68" d="M 3513 2113 
L 3513 0 
L 2938 0 
L 2938 2094 
Q 2938 2591 2744 2837 
Q 2550 3084 2163 3084 
Q 1697 3084 1428 2787 
Q 1159 2491 1159 1978 
L 1159 0 
L 581 0 
L 581 4863 
L 1159 4863 
L 1159 2956 
Q 1366 3272 1645 3428 
Q 1925 3584 2291 3584 
Q 2894 3584 3203 3211 
Q 3513 2838 3513 2113 
z
" transform="scale(0.015625)"/>
       <path id="DejaVuSans-67" d="M 2906 1791 
Q 2906 2416 2648 2759 
Q 2391 3103 1925 3103 
Q 1463 3103 1205 2759 
Q 947 2416 947 1791 
Q 947 1169 1205 825 
Q 1463 481 1925 481 
Q 2391 481 2648 825 
Q 2906 1169 2906 1791 
z
M 3481 434 
Q 3481 -459 3084 -895 
Q 2688 -1331 1869 -1331 
Q 1566 -1331 1297 -1286 
Q 1028 -1241 775 -1147 
L 775 -588 
Q 1028 -725 1275 -790 
Q 1522 -856 1778 -856 
Q 2344 -856 2625 -561 
Q 2906 -266 2906 331 
L 2906 616 
Q 2728 306 2450 153 
Q 2172 0 1784 0 
Q 1141 0 747 490 
Q 353 981 353 1791 
Q 353 2603 747 3093 
Q 1141 3584 1784 3584 
Q 2172 3584 2450 3431 
Q 2728 3278 2906 2969 
L 2906 3500 
L 3481 3500 
L 3481 434 
z
" transform="scale(0.015625)"/>
      </defs>
      <use xlink:href="#DejaVuSans-50"/>
      <use xlink:href="#DejaVuSans-61" transform="translate(55.802734 0)"/>
      <use xlink:href="#DejaVuSans-74" transform="translate(117.082031 0)"/>
      <use xlink:href="#DejaVuSans-68" transform="translate(156.291016 0)"/>
      <use xlink:href="#DejaVuSans-6f" transform="translate(219.669922 0)"/>
      <use xlink:href="#DejaVuSans-6c" transform="translate(280.851562 0)"/>
      <use xlink:href="#DejaVuSans-6f" transform="translate(308.634766 0)"/>
      <use xlink:href="#DejaVuSans-67" transform="translate(369.816406 0)"/>
      <use xlink:href="#DejaVuSans-79" transform="translate(433.292969 0)"/>
      <use xlink:href="#DejaVuSans-20" transform="translate(492.472656 0)"/>
      <use xlink:href="#DejaVuSans-28" transform="translate(524.259766 0)"/>
      <use xlink:href="#DejaVuSans-43" transform="translate(563.273438 0)"/>
      <use xlink:href="#DejaVuSans-2d" transform="translate(633.097656 0)"/>
      <use xlink:href="#DejaVuSans-69" transform="translate(669.181641 0)"/>
      <use xlink:href="#DejaVuSans-6e" transform="translate(696.964844 0)"/>
      <use xlink:href="#DejaVuSans-64" transform="translate(760.34375 0)"/>
      <use xlink:href="#DejaVuSans-65" transform="translate(823.820312 0)"/>
      <use xlink:href="#DejaVuSans-78" transform="translate(883.59375 0)"/>
      <use xlink:href="#DejaVuSans-3a" transform="translate(942.773438 0)"/>
      <use xlink:href="#DejaVuSans-20" transform="translate(976.464844 0)"/>
      <use xlink:href="#DejaVuSans-30" transform="translate(1008.251953 0)"/>
      <use xlink:href="#DejaVuSans-2e" transform="translate(1071.875 0)"/>
      <use xlink:href="#DejaVuSans-35" transform="translate(1103.662109 0)"/>
      <use xlink:href="#DejaVuSans-39" transform="translate(1167.285156 0)"/>
      <use xlink:href="#DejaVuSans-34" transform="translate(1230.908203 0)"/>
      <use xlink:href="#DejaVuSans-36" transform="translate(1294.53125 0)"/>
      <use xlink:href="#DejaVuSans-29" transform="translate(1358.154297 0)"/>
     </g>
    </g>
    <g id="line2d_40">
     <path d="M 51.53875 95.64875 
L 61.53875 95.64875 
L 71.53875 95.64875 
" style="fill: none; stroke: #9467bd; stroke-width: 1.5; stroke-linecap: square"/>
    </g>
    <g id="text_20">
     <!-- Radiology (C-index: 0.5608) -->
     <g transform="translate(79.53875 99.14875) scale(0.1 -0.1)">
      <use xlink:href="#DejaVuSans-52"/>
      <use xlink:href="#DejaVuSans-61" transform="translate(67.232422 0)"/>
      <use xlink:href="#DejaVuSans-64" transform="translate(128.511719 0)"/>
      <use xlink:href="#DejaVuSans-69" transform="translate(191.988281 0)"/>
      <use xlink:href="#DejaVuSans-6f" transform="translate(219.771484 0)"/>
      <use xlink:href="#DejaVuSans-6c" transform="translate(280.953125 0)"/>
      <use xlink:href="#DejaVuSans-6f" transform="translate(308.736328 0)"/>
      <use xlink:href="#DejaVuSans-67" transform="translate(369.917969 0)"/>
      <use xlink:href="#DejaVuSans-79" transform="translate(433.394531 0)"/>
      <use xlink:href="#DejaVuSans-20" transform="translate(492.574219 0)"/>
      <use xlink:href="#DejaVuSans-28" transform="translate(524.361328 0)"/>
      <use xlink:href="#DejaVuSans-43" transform="translate(563.375 0)"/>
      <use xlink:href="#DejaVuSans-2d" transform="translate(633.199219 0)"/>
      <use xlink:href="#DejaVuSans-69" transform="translate(669.283203 0)"/>
      <use xlink:href="#DejaVuSans-6e" transform="translate(697.066406 0)"/>
      <use xlink:href="#DejaVuSans-64" transform="translate(760.445312 0)"/>
      <use xlink:href="#DejaVuSans-65" transform="translate(823.921875 0)"/>
      <use xlink:href="#DejaVuSans-78" transform="translate(883.695312 0)"/>
      <use xlink:href="#DejaVuSans-3a" transform="translate(942.875 0)"/>
      <use xlink:href="#DejaVuSans-20" transform="translate(976.566406 0)"/>
      <use xlink:href="#DejaVuSans-30" transform="translate(1008.353516 0)"/>
      <use xlink:href="#DejaVuSans-2e" transform="translate(1071.976562 0)"/>
      <use xlink:href="#DejaVuSans-35" transform="translate(1103.763672 0)"/>
      <use xlink:href="#DejaVuSans-36" transform="translate(1167.386719 0)"/>
      <use xlink:href="#DejaVuSans-30" transform="translate(1231.009766 0)"/>
      <use xlink:href="#DejaVuSans-38" transform="translate(1294.632812 0)"/>
      <use xlink:href="#DejaVuSans-29" transform="translate(1358.255859 0)"/>
     </g>
    </g>
    <g id="line2d_41">
     <path d="M 51.53875 110.326875 
L 61.53875 110.326875 
L 71.53875 110.326875 
" style="fill: none; stroke-dasharray: 1.5,2.475; stroke-dashoffset: 0; stroke: #000000; stroke-width: 1.5"/>
    </g>
    <g id="text_21">
     <!-- Random (C-index = 0.5) -->
     <g transform="translate(79.53875 113.826875) scale(0.1 -0.1)">
      <defs>
       <path id="DejaVuSans-3d" d="M 678 2906 
L 4684 2906 
L 4684 2381 
L 678 2381 
L 678 2906 
z
M 678 1631 
L 4684 1631 
L 4684 1100 
L 678 1100 
L 678 1631 
z
" transform="scale(0.015625)"/>
      </defs>
      <use xlink:href="#DejaVuSans-52"/>
      <use xlink:href="#DejaVuSans-61" transform="translate(67.232422 0)"/>
      <use xlink:href="#DejaVuSans-6e" transform="translate(128.511719 0)"/>
      <use xlink:href="#DejaVuSans-64" transform="translate(191.890625 0)"/>
      <use xlink:href="#DejaVuSans-6f" transform="translate(255.367188 0)"/>
      <use xlink:href="#DejaVuSans-6d" transform="translate(316.548828 0)"/>
      <use xlink:href="#DejaVuSans-20" transform="translate(413.960938 0)"/>
      <use xlink:href="#DejaVuSans-28" transform="translate(445.748047 0)"/>
      <use xlink:href="#DejaVuSans-43" transform="translate(484.761719 0)"/>
      <use xlink:href="#DejaVuSans-2d" transform="translate(554.585938 0)"/>
      <use xlink:href="#DejaVuSans-69" transform="translate(590.669922 0)"/>
      <use xlink:href="#DejaVuSans-6e" transform="translate(618.453125 0)"/>
      <use xlink:href="#DejaVuSans-64" transform="translate(681.832031 0)"/>
      <use xlink:href="#DejaVuSans-65" transform="translate(745.308594 0)"/>
      <use xlink:href="#DejaVuSans-78" transform="translate(805.082031 0)"/>
      <use xlink:href="#DejaVuSans-20" transform="translate(864.261719 0)"/>
      <use xlink:href="#DejaVuSans-3d" transform="translate(896.048828 0)"/>
      <use xlink:href="#DejaVuSans-20" transform="translate(979.837891 0)"/>
      <use xlink:href="#DejaVuSans-30" transform="translate(1011.625 0)"/>
      <use xlink:href="#DejaVuSans-2e" transform="translate(1075.248047 0)"/>
      <use xlink:href="#DejaVuSans-35" transform="translate(1107.035156 0)"/>
      <use xlink:href="#DejaVuSans-29" transform="translate(1170.658203 0)"/>
     </g>
    </g>
   </g>
  </g>
 </g>
 <defs>
  <clipPath id="pd8a7ecd97e">
   <rect x="42.53875" y="23.837812" width="661.75" height="359.56"/>
  </clipPath>
 </defs>
</svg>
