<?xml version="1.0" encoding="utf-8" standalone="no"?>
<!DOCTYPE svg PUBLIC "-//W3C//DTD SVG 1.1//EN"
  "http://www.w3.org/Graphics/SVG/1.1/DTD/svg11.dtd">
<svg xmlns:xlink="http://www.w3.org/1999/xlink" width="711.42625pt" height="422.889687pt" viewBox="0 0 711.42625 422.889687" xmlns="http://www.w3.org/2000/svg" version="1.1">
 <metadata>
  <rdf:RDF xmlns:dc="http://purl.org/dc/elements/1.1/" xmlns:cc="http://creativecommons.org/ns#" xmlns:rdf="http://www.w3.org/1999/02/22-rdf-syntax-ns#">
   <cc:Work>
    <dc:type rdf:resource="http://purl.org/dc/dcmitype/StillImage"/>
    <dc:date>2025-04-03T13:02:16.427940</dc:date>
    <dc:format>image/svg+xml</dc:format>
    <dc:creator>
     <cc:Agent>
      <dc:title>Matplotlib v3.10.0, https://matplotlib.org/</dc:title>
     </cc:Agent>
    </dc:creator>
   </cc:Work>
  </rdf:RDF>
 </metadata>
 <defs>
  <style type="text/css">*{stroke-linejoin: round; stroke-linecap: butt}</style>
 </defs>
 <g id="figure_1">
  <g id="patch_1">
   <path d="M 0 422.889687 
L 711.42625 422.889687 
L 711.42625 0 
L 0 0 
z
" style="fill: #ffffff"/>
  </g>
  <g id="axes_1">
   <g id="patch_2">
    <path d="M 36.17625 383.397812 
L 704.22625 383.397812 
L 704.22625 23.837812 
L 36.17625 23.837812 
z
" style="fill: #ffffff"/>
   </g>
   <g id="matplotlib.axis_1">
    <g id="xtick_1">
     <g id="line2d_1">
      <path d="M 59.540421 383.397812 
L 59.540421 23.837812 
" clip-path="url(#p2c853fc419)" style="fill: none; stroke: #b0b0b0; stroke-opacity: 0.3; stroke-width: 0.8; stroke-linecap: square"/>
     </g>
     <g id="line2d_2">
      <defs>
       <path id="mb06fd110f5" d="M 0 0 
L 0 3.5 
" style="stroke: #000000; stroke-width: 0.8"/>
      </defs>
      <g>
       <use xlink:href="#mb06fd110f5" x="59.540421" y="383.397812" style="stroke: #000000; stroke-width: 0.8"/>
      </g>
     </g>
     <g id="text_1">
      <!-- −0.3 -->
      <g transform="translate(47.399015 397.99625) scale(0.1 -0.1)">
       <defs>
        <path id="DejaVuSans-2212" d="M 678 2272 
L 4684 2272 
L 4684 1741 
L 678 1741 
L 678 2272 
z
" transform="scale(0.015625)"/>
        <path id="DejaVuSans-30" d="M 2034 4250 
Q 1547 4250 1301 3770 
Q 1056 3291 1056 2328 
Q 1056 1369 1301 889 
Q 1547 409 2034 409 
Q 2525 409 2770 889 
Q 3016 1369 3016 2328 
Q 3016 3291 2770 3770 
Q 2525 4250 2034 4250 
z
M 2034 4750 
Q 2819 4750 3233 4129 
Q 3647 3509 3647 2328 
Q 3647 1150 3233 529 
Q 2819 -91 2034 -91 
Q 1250 -91 836 529 
Q 422 1150 422 2328 
Q 422 3509 836 4129 
Q 1250 4750 2034 4750 
z
" transform="scale(0.015625)"/>
        <path id="DejaVuSans-2e" d="M 684 794 
L 1344 794 
L 1344 0 
L 684 0 
L 684 794 
z
" transform="scale(0.015625)"/>
        <path id="DejaVuSans-33" d="M 2597 2516 
Q 3050 2419 3304 2112 
Q 3559 1806 3559 1356 
Q 3559 666 3084 287 
Q 2609 -91 1734 -91 
Q 1441 -91 1130 -33 
Q 819 25 488 141 
L 488 750 
Q 750 597 1062 519 
Q 1375 441 1716 441 
Q 2309 441 2620 675 
Q 2931 909 2931 1356 
Q 2931 1769 2642 2001 
Q 2353 2234 1838 2234 
L 1294 2234 
L 1294 2753 
L 1863 2753 
Q 2328 2753 2575 2939 
Q 2822 3125 2822 3475 
Q 2822 3834 2567 4026 
Q 2313 4219 1838 4219 
Q 1578 4219 1281 4162 
Q 984 4106 628 3988 
L 628 4550 
Q 988 4650 1302 4700 
Q 1616 4750 1894 4750 
Q 2613 4750 3031 4423 
Q 3450 4097 3450 3541 
Q 3450 3153 3228 2886 
Q 3006 2619 2597 2516 
z
" transform="scale(0.015625)"/>
       </defs>
       <use xlink:href="#DejaVuSans-2212"/>
       <use xlink:href="#DejaVuSans-30" transform="translate(83.789062 0)"/>
       <use xlink:href="#DejaVuSans-2e" transform="translate(147.412109 0)"/>
       <use xlink:href="#DejaVuSans-33" transform="translate(179.199219 0)"/>
      </g>
     </g>
    </g>
    <g id="xtick_2">
     <g id="line2d_3">
      <path d="M 153.984675 383.397812 
L 153.984675 23.837812 
" clip-path="url(#p2c853fc419)" style="fill: none; stroke: #b0b0b0; stroke-opacity: 0.3; stroke-width: 0.8; stroke-linecap: square"/>
     </g>
     <g id="line2d_4">
      <g>
       <use xlink:href="#mb06fd110f5" x="153.984675" y="383.397812" style="stroke: #000000; stroke-width: 0.8"/>
      </g>
     </g>
     <g id="text_2">
      <!-- −0.2 -->
      <g transform="translate(141.843268 397.99625) scale(0.1 -0.1)">
       <defs>
        <path id="DejaVuSans-32" d="M 1228 531 
L 3431 531 
L 3431 0 
L 469 0 
L 469 531 
Q 828 903 1448 1529 
Q 2069 2156 2228 2338 
Q 2531 2678 2651 2914 
Q 2772 3150 2772 3378 
Q 2772 3750 2511 3984 
Q 2250 4219 1831 4219 
Q 1534 4219 1204 4116 
Q 875 4013 500 3803 
L 500 4441 
Q 881 4594 1212 4672 
Q 1544 4750 1819 4750 
Q 2544 4750 2975 4387 
Q 3406 4025 3406 3419 
Q 3406 3131 3298 2873 
Q 3191 2616 2906 2266 
Q 2828 2175 2409 1742 
Q 1991 1309 1228 531 
z
" transform="scale(0.015625)"/>
       </defs>
       <use xlink:href="#DejaVuSans-2212"/>
       <use xlink:href="#DejaVuSans-30" transform="translate(83.789062 0)"/>
       <use xlink:href="#DejaVuSans-2e" transform="translate(147.412109 0)"/>
       <use xlink:href="#DejaVuSans-32" transform="translate(179.199219 0)"/>
      </g>
     </g>
    </g>
    <g id="xtick_3">
     <g id="line2d_5">
      <path d="M 248.428929 383.397812 
L 248.428929 23.837812 
" clip-path="url(#p2c853fc419)" style="fill: none; stroke: #b0b0b0; stroke-opacity: 0.3; stroke-width: 0.8; stroke-linecap: square"/>
     </g>
     <g id="line2d_6">
      <g>
       <use xlink:href="#mb06fd110f5" x="248.428929" y="383.397812" style="stroke: #000000; stroke-width: 0.8"/>
      </g>
     </g>
     <g id="text_3">
      <!-- −0.1 -->
      <g transform="translate(236.287522 397.99625) scale(0.1 -0.1)">
       <defs>
        <path id="DejaVuSans-31" d="M 794 531 
L 1825 531 
L 1825 4091 
L 703 3866 
L 703 4441 
L 1819 4666 
L 2450 4666 
L 2450 531 
L 3481 531 
L 3481 0 
L 794 0 
L 794 531 
z
" transform="scale(0.015625)"/>
       </defs>
       <use xlink:href="#DejaVuSans-2212"/>
       <use xlink:href="#DejaVuSans-30" transform="translate(83.789062 0)"/>
       <use xlink:href="#DejaVuSans-2e" transform="translate(147.412109 0)"/>
       <use xlink:href="#DejaVuSans-31" transform="translate(179.199219 0)"/>
      </g>
     </g>
    </g>
    <g id="xtick_4">
     <g id="line2d_7">
      <path d="M 342.873182 383.397812 
L 342.873182 23.837812 
" clip-path="url(#p2c853fc419)" style="fill: none; stroke: #b0b0b0; stroke-opacity: 0.3; stroke-width: 0.8; stroke-linecap: square"/>
     </g>
     <g id="line2d_8">
      <g>
       <use xlink:href="#mb06fd110f5" x="342.873182" y="383.397812" style="stroke: #000000; stroke-width: 0.8"/>
      </g>
     </g>
     <g id="text_4">
      <!-- 0.0 -->
      <g transform="translate(334.92162 397.99625) scale(0.1 -0.1)">
       <use xlink:href="#DejaVuSans-30"/>
       <use xlink:href="#DejaVuSans-2e" transform="translate(63.623047 0)"/>
       <use xlink:href="#DejaVuSans-30" transform="translate(95.410156 0)"/>
      </g>
     </g>
    </g>
    <g id="xtick_5">
     <g id="line2d_9">
      <path d="M 437.317436 383.397812 
L 437.317436 23.837812 
" clip-path="url(#p2c853fc419)" style="fill: none; stroke: #b0b0b0; stroke-opacity: 0.3; stroke-width: 0.8; stroke-linecap: square"/>
     </g>
     <g id="line2d_10">
      <g>
       <use xlink:href="#mb06fd110f5" x="437.317436" y="383.397812" style="stroke: #000000; stroke-width: 0.8"/>
      </g>
     </g>
     <g id="text_5">
      <!-- 0.1 -->
      <g transform="translate(429.365874 397.99625) scale(0.1 -0.1)">
       <use xlink:href="#DejaVuSans-30"/>
       <use xlink:href="#DejaVuSans-2e" transform="translate(63.623047 0)"/>
       <use xlink:href="#DejaVuSans-31" transform="translate(95.410156 0)"/>
      </g>
     </g>
    </g>
    <g id="xtick_6">
     <g id="line2d_11">
      <path d="M 531.76169 383.397812 
L 531.76169 23.837812 
" clip-path="url(#p2c853fc419)" style="fill: none; stroke: #b0b0b0; stroke-opacity: 0.3; stroke-width: 0.8; stroke-linecap: square"/>
     </g>
     <g id="line2d_12">
      <g>
       <use xlink:href="#mb06fd110f5" x="531.76169" y="383.397812" style="stroke: #000000; stroke-width: 0.8"/>
      </g>
     </g>
     <g id="text_6">
      <!-- 0.2 -->
      <g transform="translate(523.810128 397.99625) scale(0.1 -0.1)">
       <use xlink:href="#DejaVuSans-30"/>
       <use xlink:href="#DejaVuSans-2e" transform="translate(63.623047 0)"/>
       <use xlink:href="#DejaVuSans-32" transform="translate(95.410156 0)"/>
      </g>
     </g>
    </g>
    <g id="xtick_7">
     <g id="line2d_13">
      <path d="M 626.205944 383.397812 
L 626.205944 23.837812 
" clip-path="url(#p2c853fc419)" style="fill: none; stroke: #b0b0b0; stroke-opacity: 0.3; stroke-width: 0.8; stroke-linecap: square"/>
     </g>
     <g id="line2d_14">
      <g>
       <use xlink:href="#mb06fd110f5" x="626.205944" y="383.397812" style="stroke: #000000; stroke-width: 0.8"/>
      </g>
     </g>
     <g id="text_7">
      <!-- 0.3 -->
      <g transform="translate(618.254382 397.99625) scale(0.1 -0.1)">
       <use xlink:href="#DejaVuSans-30"/>
       <use xlink:href="#DejaVuSans-2e" transform="translate(63.623047 0)"/>
       <use xlink:href="#DejaVuSans-33" transform="translate(95.410156 0)"/>
      </g>
     </g>
    </g>
    <g id="text_8">
     <!-- Difference in C-index (Multimodal - Other) -->
     <g transform="translate(244.19 413.194062) scale(0.12 -0.12)">
      <defs>
       <path id="DejaVuSans-44" d="M 1259 4147 
L 1259 519 
L 2022 519 
Q 2988 519 3436 956 
Q 3884 1394 3884 2338 
Q 3884 3275 3436 3711 
Q 2988 4147 2022 4147 
L 1259 4147 
z
M 628 4666 
L 1925 4666 
Q 3281 4666 3915 4102 
Q 4550 3538 4550 2338 
Q 4550 1131 3912 565 
Q 3275 0 1925 0 
L 628 0 
L 628 4666 
z
" transform="scale(0.015625)"/>
       <path id="DejaVuSans-69" d="M 603 3500 
L 1178 3500 
L 1178 0 
L 603 0 
L 603 3500 
z
M 603 4863 
L 1178 4863 
L 1178 4134 
L 603 4134 
L 603 4863 
z
" transform="scale(0.015625)"/>
       <path id="DejaVuSans-66" d="M 2375 4863 
L 2375 4384 
L 1825 4384 
Q 1516 4384 1395 4259 
Q 1275 4134 1275 3809 
L 1275 3500 
L 2222 3500 
L 2222 3053 
L 1275 3053 
L 1275 0 
L 697 0 
L 697 3053 
L 147 3053 
L 147 3500 
L 697 3500 
L 697 3744 
Q 697 4328 969 4595 
Q 1241 4863 1831 4863 
L 2375 4863 
z
" transform="scale(0.015625)"/>
       <path id="DejaVuSans-65" d="M 3597 1894 
L 3597 1613 
L 953 1613 
Q 991 1019 1311 708 
Q 1631 397 2203 397 
Q 2534 397 2845 478 
Q 3156 559 3463 722 
L 3463 178 
Q 3153 47 2828 -22 
Q 2503 -91 2169 -91 
Q 1331 -91 842 396 
Q 353 884 353 1716 
Q 353 2575 817 3079 
Q 1281 3584 2069 3584 
Q 2775 3584 3186 3129 
Q 3597 2675 3597 1894 
z
M 3022 2063 
Q 3016 2534 2758 2815 
Q 2500 3097 2075 3097 
Q 1594 3097 1305 2825 
Q 1016 2553 972 2059 
L 3022 2063 
z
" transform="scale(0.015625)"/>
       <path id="DejaVuSans-72" d="M 2631 2963 
Q 2534 3019 2420 3045 
Q 2306 3072 2169 3072 
Q 1681 3072 1420 2755 
Q 1159 2438 1159 1844 
L 1159 0 
L 581 0 
L 581 3500 
L 1159 3500 
L 1159 2956 
Q 1341 3275 1631 3429 
Q 1922 3584 2338 3584 
Q 2397 3584 2469 3576 
Q 2541 3569 2628 3553 
L 2631 2963 
z
" transform="scale(0.015625)"/>
       <path id="DejaVuSans-6e" d="M 3513 2113 
L 3513 0 
L 2938 0 
L 2938 2094 
Q 2938 2591 2744 2837 
Q 2550 3084 2163 3084 
Q 1697 3084 1428 2787 
Q 1159 2491 1159 1978 
L 1159 0 
L 581 0 
L 581 3500 
L 1159 3500 
L 1159 2956 
Q 1366 3272 1645 3428 
Q 1925 3584 2291 3584 
Q 2894 3584 3203 3211 
Q 3513 2838 3513 2113 
z
" transform="scale(0.015625)"/>
       <path id="DejaVuSans-63" d="M 3122 3366 
L 3122 2828 
Q 2878 2963 2633 3030 
Q 2388 3097 2138 3097 
Q 1578 3097 1268 2742 
Q 959 2388 959 1747 
Q 959 1106 1268 751 
Q 1578 397 2138 397 
Q 2388 397 2633 464 
Q 2878 531 3122 666 
L 3122 134 
Q 2881 22 2623 -34 
Q 2366 -91 2075 -91 
Q 1284 -91 818 406 
Q 353 903 353 1747 
Q 353 2603 823 3093 
Q 1294 3584 2113 3584 
Q 2378 3584 2631 3529 
Q 2884 3475 3122 3366 
z
" transform="scale(0.015625)"/>
       <path id="DejaVuSans-20" transform="scale(0.015625)"/>
       <path id="DejaVuSans-43" d="M 4122 4306 
L 4122 3641 
Q 3803 3938 3442 4084 
Q 3081 4231 2675 4231 
Q 1875 4231 1450 3742 
Q 1025 3253 1025 2328 
Q 1025 1406 1450 917 
Q 1875 428 2675 428 
Q 3081 428 3442 575 
Q 3803 722 4122 1019 
L 4122 359 
Q 3791 134 3420 21 
Q 3050 -91 2638 -91 
Q 1578 -91 968 557 
Q 359 1206 359 2328 
Q 359 3453 968 4101 
Q 1578 4750 2638 4750 
Q 3056 4750 3426 4639 
Q 3797 4528 4122 4306 
z
" transform="scale(0.015625)"/>
       <path id="DejaVuSans-2d" d="M 313 2009 
L 1997 2009 
L 1997 1497 
L 313 1497 
L 313 2009 
z
" transform="scale(0.015625)"/>
       <path id="DejaVuSans-64" d="M 2906 2969 
L 2906 4863 
L 3481 4863 
L 3481 0 
L 2906 0 
L 2906 525 
Q 2725 213 2448 61 
Q 2172 -91 1784 -91 
Q 1150 -91 751 415 
Q 353 922 353 1747 
Q 353 2572 751 3078 
Q 1150 3584 1784 3584 
Q 2172 3584 2448 3432 
Q 2725 3281 2906 2969 
z
M 947 1747 
Q 947 1113 1208 752 
Q 1469 391 1925 391 
Q 2381 391 2643 752 
Q 2906 1113 2906 1747 
Q 2906 2381 2643 2742 
Q 2381 3103 1925 3103 
Q 1469 3103 1208 2742 
Q 947 2381 947 1747 
z
" transform="scale(0.015625)"/>
       <path id="DejaVuSans-78" d="M 3513 3500 
L 2247 1797 
L 3578 0 
L 2900 0 
L 1881 1375 
L 863 0 
L 184 0 
L 1544 1831 
L 300 3500 
L 978 3500 
L 1906 2253 
L 2834 3500 
L 3513 3500 
z
" transform="scale(0.015625)"/>
       <path id="DejaVuSans-28" d="M 1984 4856 
Q 1566 4138 1362 3434 
Q 1159 2731 1159 2009 
Q 1159 1288 1364 580 
Q 1569 -128 1984 -844 
L 1484 -844 
Q 1016 -109 783 600 
Q 550 1309 550 2009 
Q 550 2706 781 3412 
Q 1013 4119 1484 4856 
L 1984 4856 
z
" transform="scale(0.015625)"/>
       <path id="DejaVuSans-4d" d="M 628 4666 
L 1569 4666 
L 2759 1491 
L 3956 4666 
L 4897 4666 
L 4897 0 
L 4281 0 
L 4281 4097 
L 3078 897 
L 2444 897 
L 1241 4097 
L 1241 0 
L 628 0 
L 628 4666 
z
" transform="scale(0.015625)"/>
       <path id="DejaVuSans-75" d="M 544 1381 
L 544 3500 
L 1119 3500 
L 1119 1403 
Q 1119 906 1312 657 
Q 1506 409 1894 409 
Q 2359 409 2629 706 
Q 2900 1003 2900 1516 
L 2900 3500 
L 3475 3500 
L 3475 0 
L 2900 0 
L 2900 538 
Q 2691 219 2414 64 
Q 2138 -91 1772 -91 
Q 1169 -91 856 284 
Q 544 659 544 1381 
z
M 1991 3584 
L 1991 3584 
z
" transform="scale(0.015625)"/>
       <path id="DejaVuSans-6c" d="M 603 4863 
L 1178 4863 
L 1178 0 
L 603 0 
L 603 4863 
z
" transform="scale(0.015625)"/>
       <path id="DejaVuSans-74" d="M 1172 4494 
L 1172 3500 
L 2356 3500 
L 2356 3053 
L 1172 3053 
L 1172 1153 
Q 1172 725 1289 603 
Q 1406 481 1766 481 
L 2356 481 
L 2356 0 
L 1766 0 
Q 1100 0 847 248 
Q 594 497 594 1153 
L 594 3053 
L 172 3053 
L 172 3500 
L 594 3500 
L 594 4494 
L 1172 4494 
z
" transform="scale(0.015625)"/>
       <path id="DejaVuSans-6d" d="M 3328 2828 
Q 3544 3216 3844 3400 
Q 4144 3584 4550 3584 
Q 5097 3584 5394 3201 
Q 5691 2819 5691 2113 
L 5691 0 
L 5113 0 
L 5113 2094 
Q 5113 2597 4934 2840 
Q 4756 3084 4391 3084 
Q 3944 3084 3684 2787 
Q 3425 2491 3425 1978 
L 3425 0 
L 2847 0 
L 2847 2094 
Q 2847 2600 2669 2842 
Q 2491 3084 2119 3084 
Q 1678 3084 1418 2786 
Q 1159 2488 1159 1978 
L 1159 0 
L 581 0 
L 581 3500 
L 1159 3500 
L 1159 2956 
Q 1356 3278 1631 3431 
Q 1906 3584 2284 3584 
Q 2666 3584 2933 3390 
Q 3200 3197 3328 2828 
z
" transform="scale(0.015625)"/>
       <path id="DejaVuSans-6f" d="M 1959 3097 
Q 1497 3097 1228 2736 
Q 959 2375 959 1747 
Q 959 1119 1226 758 
Q 1494 397 1959 397 
Q 2419 397 2687 759 
Q 2956 1122 2956 1747 
Q 2956 2369 2687 2733 
Q 2419 3097 1959 3097 
z
M 1959 3584 
Q 2709 3584 3137 3096 
Q 3566 2609 3566 1747 
Q 3566 888 3137 398 
Q 2709 -91 1959 -91 
Q 1206 -91 779 398 
Q 353 888 353 1747 
Q 353 2609 779 3096 
Q 1206 3584 1959 3584 
z
" transform="scale(0.015625)"/>
       <path id="DejaVuSans-61" d="M 2194 1759 
Q 1497 1759 1228 1600 
Q 959 1441 959 1056 
Q 959 750 1161 570 
Q 1363 391 1709 391 
Q 2188 391 2477 730 
Q 2766 1069 2766 1631 
L 2766 1759 
L 2194 1759 
z
M 3341 1997 
L 3341 0 
L 2766 0 
L 2766 531 
Q 2569 213 2275 61 
Q 1981 -91 1556 -91 
Q 1019 -91 701 211 
Q 384 513 384 1019 
Q 384 1609 779 1909 
Q 1175 2209 1959 2209 
L 2766 2209 
L 2766 2266 
Q 2766 2663 2505 2880 
Q 2244 3097 1772 3097 
Q 1472 3097 1187 3025 
Q 903 2953 641 2809 
L 641 3341 
Q 956 3463 1253 3523 
Q 1550 3584 1831 3584 
Q 2591 3584 2966 3190 
Q 3341 2797 3341 1997 
z
" transform="scale(0.015625)"/>
       <path id="DejaVuSans-4f" d="M 2522 4238 
Q 1834 4238 1429 3725 
Q 1025 3213 1025 2328 
Q 1025 1447 1429 934 
Q 1834 422 2522 422 
Q 3209 422 3611 934 
Q 4013 1447 4013 2328 
Q 4013 3213 3611 3725 
Q 3209 4238 2522 4238 
z
M 2522 4750 
Q 3503 4750 4090 4092 
Q 4678 3434 4678 2328 
Q 4678 1225 4090 567 
Q 3503 -91 2522 -91 
Q 1538 -91 948 565 
Q 359 1222 359 2328 
Q 359 3434 948 4092 
Q 1538 4750 2522 4750 
z
" transform="scale(0.015625)"/>
       <path id="DejaVuSans-68" d="M 3513 2113 
L 3513 0 
L 2938 0 
L 2938 2094 
Q 2938 2591 2744 2837 
Q 2550 3084 2163 3084 
Q 1697 3084 1428 2787 
Q 1159 2491 1159 1978 
L 1159 0 
L 581 0 
L 581 4863 
L 1159 4863 
L 1159 2956 
Q 1366 3272 1645 3428 
Q 1925 3584 2291 3584 
Q 2894 3584 3203 3211 
Q 3513 2838 3513 2113 
z
" transform="scale(0.015625)"/>
       <path id="DejaVuSans-29" d="M 513 4856 
L 1013 4856 
Q 1481 4119 1714 3412 
Q 1947 2706 1947 2009 
Q 1947 1309 1714 600 
Q 1481 -109 1013 -844 
L 513 -844 
Q 928 -128 1133 580 
Q 1338 1288 1338 2009 
Q 1338 2731 1133 3434 
Q 928 4138 513 4856 
z
" transform="scale(0.015625)"/>
      </defs>
      <use xlink:href="#DejaVuSans-44"/>
      <use xlink:href="#DejaVuSans-69" transform="translate(77.001953 0)"/>
      <use xlink:href="#DejaVuSans-66" transform="translate(104.785156 0)"/>
      <use xlink:href="#DejaVuSans-66" transform="translate(139.990234 0)"/>
      <use xlink:href="#DejaVuSans-65" transform="translate(175.195312 0)"/>
      <use xlink:href="#DejaVuSans-72" transform="translate(236.71875 0)"/>
      <use xlink:href="#DejaVuSans-65" transform="translate(275.582031 0)"/>
      <use xlink:href="#DejaVuSans-6e" transform="translate(337.105469 0)"/>
      <use xlink:href="#DejaVuSans-63" transform="translate(400.484375 0)"/>
      <use xlink:href="#DejaVuSans-65" transform="translate(455.464844 0)"/>
      <use xlink:href="#DejaVuSans-20" transform="translate(516.988281 0)"/>
      <use xlink:href="#DejaVuSans-69" transform="translate(548.775391 0)"/>
      <use xlink:href="#DejaVuSans-6e" transform="translate(576.558594 0)"/>
      <use xlink:href="#DejaVuSans-20" transform="translate(639.9375 0)"/>
      <use xlink:href="#DejaVuSans-43" transform="translate(671.724609 0)"/>
      <use xlink:href="#DejaVuSans-2d" transform="translate(741.548828 0)"/>
      <use xlink:href="#DejaVuSans-69" transform="translate(777.632812 0)"/>
      <use xlink:href="#DejaVuSans-6e" transform="translate(805.416016 0)"/>
      <use xlink:href="#DejaVuSans-64" transform="translate(868.794922 0)"/>
      <use xlink:href="#DejaVuSans-65" transform="translate(932.271484 0)"/>
      <use xlink:href="#DejaVuSans-78" transform="translate(992.044922 0)"/>
      <use xlink:href="#DejaVuSans-20" transform="translate(1051.224609 0)"/>
      <use xlink:href="#DejaVuSans-28" transform="translate(1083.011719 0)"/>
      <use xlink:href="#DejaVuSans-4d" transform="translate(1122.025391 0)"/>
      <use xlink:href="#DejaVuSans-75" transform="translate(1208.304688 0)"/>
      <use xlink:href="#DejaVuSans-6c" transform="translate(1271.683594 0)"/>
      <use xlink:href="#DejaVuSans-74" transform="translate(1299.466797 0)"/>
      <use xlink:href="#DejaVuSans-69" transform="translate(1338.675781 0)"/>
      <use xlink:href="#DejaVuSans-6d" transform="translate(1366.458984 0)"/>
      <use xlink:href="#DejaVuSans-6f" transform="translate(1463.871094 0)"/>
      <use xlink:href="#DejaVuSans-64" transform="translate(1525.052734 0)"/>
      <use xlink:href="#DejaVuSans-61" transform="translate(1588.529297 0)"/>
      <use xlink:href="#DejaVuSans-6c" transform="translate(1649.808594 0)"/>
      <use xlink:href="#DejaVuSans-20" transform="translate(1677.591797 0)"/>
      <use xlink:href="#DejaVuSans-2d" transform="translate(1709.378906 0)"/>
      <use xlink:href="#DejaVuSans-20" transform="translate(1745.462891 0)"/>
      <use xlink:href="#DejaVuSans-4f" transform="translate(1777.25 0)"/>
      <use xlink:href="#DejaVuSans-74" transform="translate(1855.960938 0)"/>
      <use xlink:href="#DejaVuSans-68" transform="translate(1895.169922 0)"/>
      <use xlink:href="#DejaVuSans-65" transform="translate(1958.548828 0)"/>
      <use xlink:href="#DejaVuSans-72" transform="translate(2020.072266 0)"/>
      <use xlink:href="#DejaVuSans-29" transform="translate(2061.185547 0)"/>
     </g>
    </g>
   </g>
   <g id="matplotlib.axis_2">
    <g id="ytick_1">
     <g id="line2d_15">
      <path d="M 36.17625 383.397812 
L 704.22625 383.397812 
" clip-path="url(#p2c853fc419)" style="fill: none; stroke: #b0b0b0; stroke-opacity: 0.3; stroke-width: 0.8; stroke-linecap: square"/>
     </g>
     <g id="line2d_16">
      <defs>
       <path id="m4d6da80ae3" d="M 0 0 
L -3.5 0 
" style="stroke: #000000; stroke-width: 0.8"/>
      </defs>
      <g>
       <use xlink:href="#m4d6da80ae3" x="36.17625" y="383.397812" style="stroke: #000000; stroke-width: 0.8"/>
      </g>
     </g>
     <g id="text_9">
      <!-- 0 -->
      <g transform="translate(22.81375 387.197031) scale(0.1 -0.1)">
       <use xlink:href="#DejaVuSans-30"/>
      </g>
     </g>
    </g>
    <g id="ytick_2">
     <g id="line2d_17">
      <path d="M 36.17625 336.535692 
L 704.22625 336.535692 
" clip-path="url(#p2c853fc419)" style="fill: none; stroke: #b0b0b0; stroke-opacity: 0.3; stroke-width: 0.8; stroke-linecap: square"/>
     </g>
     <g id="line2d_18">
      <g>
       <use xlink:href="#m4d6da80ae3" x="36.17625" y="336.535692" style="stroke: #000000; stroke-width: 0.8"/>
      </g>
     </g>
     <g id="text_10">
      <!-- 1 -->
      <g transform="translate(22.81375 340.33491) scale(0.1 -0.1)">
       <use xlink:href="#DejaVuSans-31"/>
      </g>
     </g>
    </g>
    <g id="ytick_3">
     <g id="line2d_19">
      <path d="M 36.17625 289.673571 
L 704.22625 289.673571 
" clip-path="url(#p2c853fc419)" style="fill: none; stroke: #b0b0b0; stroke-opacity: 0.3; stroke-width: 0.8; stroke-linecap: square"/>
     </g>
     <g id="line2d_20">
      <g>
       <use xlink:href="#m4d6da80ae3" x="36.17625" y="289.673571" style="stroke: #000000; stroke-width: 0.8"/>
      </g>
     </g>
     <g id="text_11">
      <!-- 2 -->
      <g transform="translate(22.81375 293.472789) scale(0.1 -0.1)">
       <use xlink:href="#DejaVuSans-32"/>
      </g>
     </g>
    </g>
    <g id="ytick_4">
     <g id="line2d_21">
      <path d="M 36.17625 242.81145 
L 704.22625 242.81145 
" clip-path="url(#p2c853fc419)" style="fill: none; stroke: #b0b0b0; stroke-opacity: 0.3; stroke-width: 0.8; stroke-linecap: square"/>
     </g>
     <g id="line2d_22">
      <g>
       <use xlink:href="#m4d6da80ae3" x="36.17625" y="242.81145" style="stroke: #000000; stroke-width: 0.8"/>
      </g>
     </g>
     <g id="text_12">
      <!-- 3 -->
      <g transform="translate(22.81375 246.610669) scale(0.1 -0.1)">
       <use xlink:href="#DejaVuSans-33"/>
      </g>
     </g>
    </g>
    <g id="ytick_5">
     <g id="line2d_23">
      <path d="M 36.17625 195.949329 
L 704.22625 195.949329 
" clip-path="url(#p2c853fc419)" style="fill: none; stroke: #b0b0b0; stroke-opacity: 0.3; stroke-width: 0.8; stroke-linecap: square"/>
     </g>
     <g id="line2d_24">
      <g>
       <use xlink:href="#m4d6da80ae3" x="36.17625" y="195.949329" style="stroke: #000000; stroke-width: 0.8"/>
      </g>
     </g>
     <g id="text_13">
      <!-- 4 -->
      <g transform="translate(22.81375 199.748548) scale(0.1 -0.1)">
       <defs>
        <path id="DejaVuSans-34" d="M 2419 4116 
L 825 1625 
L 2419 1625 
L 2419 4116 
z
M 2253 4666 
L 3047 4666 
L 3047 1625 
L 3713 1625 
L 3713 1100 
L 3047 1100 
L 3047 0 
L 2419 0 
L 2419 1100 
L 313 1100 
L 313 1709 
L 2253 4666 
z
" transform="scale(0.015625)"/>
       </defs>
       <use xlink:href="#DejaVuSans-34"/>
      </g>
     </g>
    </g>
    <g id="ytick_6">
     <g id="line2d_25">
      <path d="M 36.17625 149.087208 
L 704.22625 149.087208 
" clip-path="url(#p2c853fc419)" style="fill: none; stroke: #b0b0b0; stroke-opacity: 0.3; stroke-width: 0.8; stroke-linecap: square"/>
     </g>
     <g id="line2d_26">
      <g>
       <use xlink:href="#m4d6da80ae3" x="36.17625" y="149.087208" style="stroke: #000000; stroke-width: 0.8"/>
      </g>
     </g>
     <g id="text_14">
      <!-- 5 -->
      <g transform="translate(22.81375 152.886427) scale(0.1 -0.1)">
       <defs>
        <path id="DejaVuSans-35" d="M 691 4666 
L 3169 4666 
L 3169 4134 
L 1269 4134 
L 1269 2991 
Q 1406 3038 1543 3061 
Q 1681 3084 1819 3084 
Q 2600 3084 3056 2656 
Q 3513 2228 3513 1497 
Q 3513 744 3044 326 
Q 2575 -91 1722 -91 
Q 1428 -91 1123 -41 
Q 819 9 494 109 
L 494 744 
Q 775 591 1075 516 
Q 1375 441 1709 441 
Q 2250 441 2565 725 
Q 2881 1009 2881 1497 
Q 2881 1984 2565 2268 
Q 2250 2553 1709 2553 
Q 1456 2553 1204 2497 
Q 953 2441 691 2322 
L 691 4666 
z
" transform="scale(0.015625)"/>
       </defs>
       <use xlink:href="#DejaVuSans-35"/>
      </g>
     </g>
    </g>
    <g id="ytick_7">
     <g id="line2d_27">
      <path d="M 36.17625 102.225087 
L 704.22625 102.225087 
" clip-path="url(#p2c853fc419)" style="fill: none; stroke: #b0b0b0; stroke-opacity: 0.3; stroke-width: 0.8; stroke-linecap: square"/>
     </g>
     <g id="line2d_28">
      <g>
       <use xlink:href="#m4d6da80ae3" x="36.17625" y="102.225087" style="stroke: #000000; stroke-width: 0.8"/>
      </g>
     </g>
     <g id="text_15">
      <!-- 6 -->
      <g transform="translate(22.81375 106.024306) scale(0.1 -0.1)">
       <defs>
        <path id="DejaVuSans-36" d="M 2113 2584 
Q 1688 2584 1439 2293 
Q 1191 2003 1191 1497 
Q 1191 994 1439 701 
Q 1688 409 2113 409 
Q 2538 409 2786 701 
Q 3034 994 3034 1497 
Q 3034 2003 2786 2293 
Q 2538 2584 2113 2584 
z
M 3366 4563 
L 3366 3988 
Q 3128 4100 2886 4159 
Q 2644 4219 2406 4219 
Q 1781 4219 1451 3797 
Q 1122 3375 1075 2522 
Q 1259 2794 1537 2939 
Q 1816 3084 2150 3084 
Q 2853 3084 3261 2657 
Q 3669 2231 3669 1497 
Q 3669 778 3244 343 
Q 2819 -91 2113 -91 
Q 1303 -91 875 529 
Q 447 1150 447 2328 
Q 447 3434 972 4092 
Q 1497 4750 2381 4750 
Q 2619 4750 2861 4703 
Q 3103 4656 3366 4563 
z
" transform="scale(0.015625)"/>
       </defs>
       <use xlink:href="#DejaVuSans-36"/>
      </g>
     </g>
    </g>
    <g id="ytick_8">
     <g id="line2d_29">
      <path d="M 36.17625 55.362966 
L 704.22625 55.362966 
" clip-path="url(#p2c853fc419)" style="fill: none; stroke: #b0b0b0; stroke-opacity: 0.3; stroke-width: 0.8; stroke-linecap: square"/>
     </g>
     <g id="line2d_30">
      <g>
       <use xlink:href="#m4d6da80ae3" x="36.17625" y="55.362966" style="stroke: #000000; stroke-width: 0.8"/>
      </g>
     </g>
     <g id="text_16">
      <!-- 7 -->
      <g transform="translate(22.81375 59.162185) scale(0.1 -0.1)">
       <defs>
        <path id="DejaVuSans-37" d="M 525 4666 
L 3525 4666 
L 3525 4397 
L 1831 0 
L 1172 0 
L 2766 4134 
L 525 4134 
L 525 4666 
z
" transform="scale(0.015625)"/>
       </defs>
       <use xlink:href="#DejaVuSans-37"/>
      </g>
     </g>
    </g>
    <g id="text_17">
     <!-- Density -->
     <g transform="translate(16.318125 226.428125) rotate(-90) scale(0.12 -0.12)">
      <defs>
       <path id="DejaVuSans-73" d="M 2834 3397 
L 2834 2853 
Q 2591 2978 2328 3040 
Q 2066 3103 1784 3103 
Q 1356 3103 1142 2972 
Q 928 2841 928 2578 
Q 928 2378 1081 2264 
Q 1234 2150 1697 2047 
L 1894 2003 
Q 2506 1872 2764 1633 
Q 3022 1394 3022 966 
Q 3022 478 2636 193 
Q 2250 -91 1575 -91 
Q 1294 -91 989 -36 
Q 684 19 347 128 
L 347 722 
Q 666 556 975 473 
Q 1284 391 1588 391 
Q 1994 391 2212 530 
Q 2431 669 2431 922 
Q 2431 1156 2273 1281 
Q 2116 1406 1581 1522 
L 1381 1569 
Q 847 1681 609 1914 
Q 372 2147 372 2553 
Q 372 3047 722 3315 
Q 1072 3584 1716 3584 
Q 2034 3584 2315 3537 
Q 2597 3491 2834 3397 
z
" transform="scale(0.015625)"/>
       <path id="DejaVuSans-79" d="M 2059 -325 
Q 1816 -950 1584 -1140 
Q 1353 -1331 966 -1331 
L 506 -1331 
L 506 -850 
L 844 -850 
Q 1081 -850 1212 -737 
Q 1344 -625 1503 -206 
L 1606 56 
L 191 3500 
L 800 3500 
L 1894 763 
L 2988 3500 
L 3597 3500 
L 2059 -325 
z
" transform="scale(0.015625)"/>
      </defs>
      <use xlink:href="#DejaVuSans-44"/>
      <use xlink:href="#DejaVuSans-65" transform="translate(77.001953 0)"/>
      <use xlink:href="#DejaVuSans-6e" transform="translate(138.525391 0)"/>
      <use xlink:href="#DejaVuSans-73" transform="translate(201.904297 0)"/>
      <use xlink:href="#DejaVuSans-69" transform="translate(254.003906 0)"/>
      <use xlink:href="#DejaVuSans-74" transform="translate(281.787109 0)"/>
      <use xlink:href="#DejaVuSans-79" transform="translate(320.996094 0)"/>
     </g>
    </g>
   </g>
   <g id="line2d_31">
    <path d="M 88.543298 383.381807 
L 99.574745 383.242812 
L 106.193614 382.962841 
L 112.812483 382.429463 
L 119.431352 381.650061 
L 134.875379 379.705823 
L 148.113116 378.389485 
L 150.319406 378.032772 
L 152.525695 377.551668 
L 154.731985 376.89734 
L 156.938274 376.015836 
L 159.144564 374.851579 
L 161.350854 373.352173 
L 163.557143 371.47417 
L 165.763433 369.189169 
L 167.969722 366.489421 
L 170.176012 363.391968 
L 172.382301 359.940414 
L 176.794881 352.271185 
L 183.413749 340.33065 
L 185.620039 336.619624 
L 187.826328 333.153883 
L 190.032618 329.956423 
L 192.238908 327.017514 
L 196.651487 321.72772 
L 201.064066 316.691553 
L 203.270355 314.024789 
L 205.476645 311.123183 
L 207.682935 307.889867 
L 209.889224 304.235348 
L 212.095514 300.079066 
L 214.301803 295.350487 
L 216.508093 289.990313 
L 218.714382 283.952218 
L 220.920672 277.205171 
L 223.126962 269.736068 
L 225.333251 261.552091 
L 227.539541 252.682158 
L 229.74583 243.176895 
L 234.158409 222.559719 
L 238.570989 200.442575 
L 247.396147 155.266482 
L 251.808726 134.014757 
L 254.015016 124.091214 
L 256.221305 114.753229 
L 258.427595 106.068983 
L 260.633884 98.085276 
L 262.840174 90.823809 
L 265.046463 84.279189 
L 267.252753 78.419342 
L 269.459043 73.188741 
L 271.665332 68.514514 
L 273.871622 64.315018 
L 276.077911 60.51006 
L 278.284201 57.03148 
L 280.490491 53.832565 
L 282.69678 50.894709 
L 284.90307 48.22999 
L 287.109359 45.878973 
L 289.315649 43.903907 
L 291.521938 42.378473 
L 293.728228 41.376075 
L 295.934518 40.95911 
L 298.140807 41.171516 
L 300.347097 42.036201 
L 302.553386 43.557762 
L 304.759676 45.729601 
L 306.965965 48.543396 
L 309.172255 51.998227 
L 311.378545 56.106739 
L 313.584834 60.896359 
L 315.791124 66.404818 
L 317.997413 72.67054 
L 320.203703 79.719732 
L 322.409992 87.552758 
L 324.616282 96.132631 
L 326.822572 105.378117 
L 331.235151 125.322449 
L 337.854019 156.094486 
L 340.060309 165.817917 
L 342.266599 175.025944 
L 344.472888 183.635369 
L 346.679178 191.614123 
L 348.885467 198.979031 
L 351.091757 205.789115 
L 353.298046 212.135974 
L 357.710626 223.903688 
L 364.329494 241.057379 
L 368.742073 253.285904 
L 373.154653 266.516664 
L 384.186101 301.139059 
L 386.39239 307.522029 
L 388.59868 313.512584 
L 390.804969 319.069929 
L 393.011259 324.186224 
L 395.217548 328.882933 
L 397.423838 333.203012 
L 399.630128 337.20065 
L 401.836417 340.930593 
L 406.248996 347.757567 
L 410.661575 353.86784 
L 412.867865 356.646378 
L 415.074155 359.21874 
L 417.280444 361.568039 
L 419.486734 363.683487 
L 421.693023 365.563945 
L 423.899313 367.219337 
L 426.105602 368.670004 
L 428.311892 369.944433 
L 432.724471 372.099162 
L 437.13705 373.944979 
L 445.962209 377.343179 
L 450.374788 378.922796 
L 454.787367 380.305643 
L 459.199946 381.387814 
L 463.612525 382.110795 
L 468.025104 382.478416 
L 472.437683 382.550012 
L 479.056552 382.324196 
L 487.881711 382.015352 
L 492.29429 382.050534 
L 498.913158 382.356719 
L 512.150896 383.119452 
L 520.976054 383.334215 
L 527.594923 383.382451 
L 527.594923 383.382451 
" clip-path="url(#p2c853fc419)" style="fill: none; stroke: #1f77b4; stroke-width: 1.5; stroke-linecap: square"/>
   </g>
   <g id="line2d_32">
    <path d="M 294.374782 383.397812 
L 294.374782 23.837812 
" clip-path="url(#p2c853fc419)" style="fill: none; stroke-dasharray: 5.55,2.4; stroke-dashoffset: 0; stroke: #1f77b4; stroke-opacity: 0.7; stroke-width: 1.5"/>
   </g>
   <g id="line2d_33">
    <path d="M 66.542159 383.377662 
L 77.365411 383.236598 
L 83.859362 382.961031 
L 90.353313 382.410225 
L 94.682614 381.851978 
L 101.176565 380.747745 
L 111.999817 378.535908 
L 118.493768 377.091564 
L 122.823069 375.944073 
L 127.15237 374.468852 
L 129.31702 373.552865 
L 131.48167 372.490909 
L 133.646321 371.26668 
L 135.810971 369.868031 
L 137.975621 368.287009 
L 140.140272 366.519169 
L 142.304922 364.562201 
L 144.469572 362.414058 
L 146.634223 360.070873 
L 148.798873 357.525031 
L 150.963524 354.763763 
L 153.128174 351.7686 
L 155.292824 348.515912 
L 157.457475 344.978569 
L 159.622125 341.128613 
L 161.786775 336.940607 
L 163.951426 332.395227 
L 166.116076 327.482546 
L 168.280727 322.204526 
L 170.445377 316.576288 
L 174.774678 304.393101 
L 179.103978 291.277839 
L 196.421181 237.342168 
L 200.750482 224.891809 
L 205.079783 213.203968 
L 209.409084 202.341643 
L 213.738384 192.223139 
L 228.890937 157.956103 
L 233.220238 147.185776 
L 244.04349 119.698425 
L 246.20814 114.660713 
L 248.37279 109.938975 
L 250.537441 105.581053 
L 252.702091 101.618143 
L 254.866741 98.065108 
L 257.031392 94.922887 
L 259.196042 92.182531 
L 261.360693 89.830116 
L 263.525343 87.851623 
L 265.689993 86.23695 
L 267.854644 84.982379 
L 270.019294 84.091197 
L 272.183944 83.572552 
L 274.348595 83.439023 
L 276.513245 83.703664 
L 278.677896 84.377341 
L 280.842546 85.467124 
L 283.007196 86.976132 
L 285.171847 88.904885 
L 287.336497 91.253757 
L 289.501147 94.025791 
L 291.665798 97.228987 
L 293.830448 100.877212 
L 295.995099 104.989152 
L 298.159749 109.585166 
L 300.324399 114.682375 
L 302.48905 120.288786 
L 304.6537 126.397536 
L 306.81835 132.982428 
L 311.147651 147.368908 
L 315.476952 162.840117 
L 321.970903 186.386846 
L 326.300204 201.320528 
L 330.629505 215.145669 
L 334.958805 227.673967 
L 337.123456 233.428766 
L 339.288106 238.843265 
L 341.452756 243.925394 
L 343.617407 248.692619 
L 347.946708 257.413488 
L 352.276008 265.395668 
L 358.769959 277.136161 
L 363.09926 285.444811 
L 367.428561 294.293696 
L 378.251813 317.062983 
L 382.581113 325.540323 
L 386.910414 333.362732 
L 391.239715 340.486506 
L 395.569016 346.896287 
L 397.733666 349.825666 
L 399.898316 352.565764 
L 402.062967 355.112847 
L 404.227617 357.464681 
L 406.392268 359.621161 
L 408.556918 361.584537 
L 410.721568 363.35923 
L 412.886219 364.951378 
L 415.050869 366.36831 
L 417.215519 367.61812 
L 419.38017 368.709512 
L 421.54482 369.651945 
L 423.709471 370.456067 
L 428.038771 371.701353 
L 432.368072 372.574255 
L 445.355974 374.673103 
L 449.685275 375.67736 
L 454.014576 376.893108 
L 464.837828 380.160623 
L 469.167128 381.229582 
L 473.496429 382.050033 
L 477.82573 382.622115 
L 482.155031 382.985228 
L 488.648982 383.260223 
L 497.307583 383.373967 
L 497.307583 383.373967 
" clip-path="url(#p2c853fc419)" style="fill: none; stroke: #ff7f0e; stroke-width: 1.5; stroke-linecap: square"/>
   </g>
   <g id="line2d_34">
    <path d="M 275.230676 383.397812 
L 275.230676 23.837812 
" clip-path="url(#p2c853fc419)" style="fill: none; stroke-dasharray: 5.55,2.4; stroke-dashoffset: 0; stroke: #ff7f0e; stroke-opacity: 0.7; stroke-width: 1.5"/>
   </g>
   <g id="line2d_35">
    <path d="M 162.512538 383.384481 
L 177.045396 383.238532 
L 186.733968 382.902742 
L 215.799684 381.498358 
L 225.488256 381.175079 
L 230.332542 380.797684 
L 235.176828 380.077613 
L 237.598971 379.532577 
L 240.021114 378.835899 
L 242.443257 377.971208 
L 244.8654 376.928693 
L 247.287543 375.706917 
L 249.709686 374.313886 
L 254.553972 371.092435 
L 259.398258 367.490828 
L 269.08683 360.162162 
L 281.197545 351.350792 
L 283.619688 349.400853 
L 286.041831 347.296355 
L 288.463974 345.001186 
L 290.886117 342.485904 
L 293.30826 339.729069 
L 295.730403 336.717373 
L 298.152546 333.444557 
L 300.57469 329.909241 
L 302.996833 326.111983 
L 305.418976 322.052034 
L 307.841119 317.724333 
L 310.263262 313.117366 
L 312.685405 308.212385 
L 315.107548 302.984325 
L 317.529691 297.404468 
L 319.951834 291.444585 
L 322.373977 285.082003 
L 324.79612 278.30485 
L 327.218263 271.116664 
L 332.062549 255.615987 
L 336.906835 238.99035 
L 346.595407 205.031118 
L 351.439693 188.93939 
L 356.283979 173.773175 
L 363.550408 152.181175 
L 373.23898 123.941554 
L 378.083266 110.561902 
L 380.505409 104.4259 
L 382.927552 98.836614 
L 385.349695 93.912316 
L 387.771838 89.743234 
L 390.193981 86.382549 
L 392.616124 83.842642 
L 395.038267 82.096902 
L 397.46041 81.086579 
L 399.882553 80.731516 
L 402.304696 80.943111 
L 404.726839 81.637624 
L 407.148982 82.747893 
L 409.571125 84.231725 
L 411.993268 86.075684 
L 414.415411 88.293647 
L 416.837554 90.920365 
L 419.259697 94.001128 
L 421.68184 97.579355 
L 424.103983 101.684414 
L 426.526126 106.321911 
L 428.948269 111.468242 
L 431.370412 117.070353 
L 436.214698 129.315452 
L 465.280414 206.802168 
L 470.1247 220.657986 
L 477.39113 242.576557 
L 482.235416 257.274676 
L 487.079702 271.190033 
L 489.501845 277.621829 
L 491.923988 283.606739 
L 494.346131 289.100678 
L 496.768274 294.085736 
L 499.190417 298.570153 
L 501.61256 302.585927 
L 504.034703 306.184635 
L 506.456846 309.432146 
L 508.878989 312.402904 
L 513.723275 317.822017 
L 520.989704 325.66444 
L 525.83399 331.245824 
L 530.678276 337.253735 
L 545.211134 355.929155 
L 550.05542 361.389568 
L 552.477563 363.851636 
L 554.899706 366.119809 
L 557.321849 368.188704 
L 559.743992 370.055466 
L 562.166135 371.718308 
L 564.588278 373.175878 
L 567.010421 374.427602 
L 569.432564 375.474882 
L 571.854707 376.3228 
L 574.27685 376.981841 
L 576.698993 377.469132 
L 579.121136 377.808773 
L 583.965422 378.170729 
L 593.653994 378.591249 
L 598.49828 379.057422 
L 603.342566 379.757403 
L 617.875424 382.134704 
L 622.71971 382.662727 
L 627.563996 383.009525 
L 634.830425 383.273784 
L 644.518998 383.378687 
L 644.518998 383.378687 
" clip-path="url(#p2c853fc419)" style="fill: none; stroke: #2ca02c; stroke-width: 1.5; stroke-linecap: square"/>
   </g>
   <g id="line2d_36">
    <path d="M 406.686867 383.397812 
L 406.686867 23.837812 
" clip-path="url(#p2c853fc419)" style="fill: none; stroke-dasharray: 5.55,2.4; stroke-dashoffset: 0; stroke: #2ca02c; stroke-opacity: 0.7; stroke-width: 1.5"/>
   </g>
   <g id="line2d_37">
    <path d="M 179.873348 383.385057 
L 194.767428 383.250483 
L 204.696815 382.931151 
L 214.626202 382.338477 
L 224.555589 381.523808 
L 246.896709 379.51572 
L 259.308442 378.738878 
L 264.273136 378.068844 
L 266.755483 377.534131 
L 269.237829 376.827627 
L 271.720176 375.92844 
L 274.202523 374.824561 
L 276.684869 373.513598 
L 279.167216 372.002269 
L 281.649563 370.304783 
L 284.131909 368.440402 
L 289.096603 364.296414 
L 294.061296 359.723574 
L 299.02599 354.814992 
L 303.990683 349.594099 
L 308.955376 344.032848 
L 313.92007 338.064645 
L 318.884763 331.580618 
L 323.849457 324.429515 
L 326.331803 320.551684 
L 328.81415 316.448044 
L 331.296497 312.106379 
L 333.778843 307.521461 
L 338.743537 297.640693 
L 343.70823 286.915286 
L 348.672924 275.52704 
L 353.637617 263.64328 
L 358.60231 251.326206 
L 363.567004 238.47401 
L 368.531697 224.825783 
L 373.496391 210.059694 
L 378.461084 193.993067 
L 383.425777 176.834157 
L 390.872817 150.890982 
L 393.355164 142.851047 
L 395.837511 135.419968 
L 398.319858 128.754953 
L 400.802204 122.971979 
L 403.284551 118.133604 
L 405.766898 114.243575 
L 408.249244 111.249396 
L 410.731591 109.052604 
L 413.213938 107.525032 
L 415.696284 106.528199 
L 418.178631 105.932348 
L 420.660978 105.631806 
L 423.143324 105.554194 
L 425.625671 105.662366 
L 428.108018 105.94957 
L 430.590365 106.429702 
L 433.072711 107.125447 
L 435.555058 108.057292 
L 438.037405 109.235917 
L 440.519751 110.659367 
L 443.002098 112.31512 
L 445.484445 114.185907 
L 447.966791 116.257307 
L 450.449138 118.524837 
L 452.931485 120.998563 
L 455.413832 123.704056 
L 457.896178 126.679473 
L 460.378525 129.969534 
L 462.860872 133.617844 
L 465.343218 137.659289 
L 467.825565 142.114086 
L 470.307912 146.984575 
L 472.790258 152.255161 
L 475.272605 157.895129 
L 480.237299 170.114836 
L 485.201992 183.294091 
L 490.166685 197.154214 
L 497.613725 218.87312 
L 512.507806 263.111196 
L 514.990152 269.972343 
L 517.472499 276.494456 
L 519.954846 282.613612 
L 522.437192 288.282192 
L 524.919539 293.473996 
L 527.401886 298.187343 
L 529.884232 302.445642 
L 532.366579 306.295223 
L 534.848926 309.800623 
L 537.331273 313.03786 
L 542.295966 319.021875 
L 554.707699 333.592881 
L 562.15474 342.310732 
L 567.119433 347.672273 
L 572.084126 352.483339 
L 577.04882 356.751982 
L 582.013513 360.590772 
L 586.978207 364.113713 
L 591.9429 367.354563 
L 596.907593 370.255155 
L 601.872287 372.720427 
L 604.354633 373.769226 
L 609.319327 375.503329 
L 614.28402 376.823244 
L 619.248714 377.862255 
L 629.1781 379.606943 
L 639.107487 381.22175 
L 646.554527 382.205414 
L 651.519221 382.678507 
L 658.966261 383.113319 
L 666.413301 383.306876 
L 673.860341 383.374483 
L 673.860341 383.374483 
" clip-path="url(#p2c853fc419)" style="fill: none; stroke: #d62728; stroke-width: 1.5; stroke-linecap: square"/>
   </g>
   <g id="line2d_38">
    <path d="M 438.59371 383.397812 
L 438.59371 23.837812 
" clip-path="url(#p2c853fc419)" style="fill: none; stroke-dasharray: 5.55,2.4; stroke-dashoffset: 0; stroke: #d62728; stroke-opacity: 0.7; stroke-width: 1.5"/>
   </g>
   <g id="line2d_39">
    <path d="M 342.873182 383.397812 
L 342.873182 23.837812 
" clip-path="url(#p2c853fc419)" style="fill: none; stroke-dasharray: 1.5,2.475; stroke-dashoffset: 0; stroke: #000000; stroke-width: 1.5"/>
   </g>
   <g id="patch_3">
    <path d="M 36.17625 383.397812 
L 36.17625 23.837812 
" style="fill: none; stroke: #000000; stroke-width: 0.8; stroke-linejoin: miter; stroke-linecap: square"/>
   </g>
   <g id="patch_4">
    <path d="M 704.22625 383.397812 
L 704.22625 23.837812 
" style="fill: none; stroke: #000000; stroke-width: 0.8; stroke-linejoin: miter; stroke-linecap: square"/>
   </g>
   <g id="patch_5">
    <path d="M 36.17625 383.397812 
L 704.22625 383.397812 
" style="fill: none; stroke: #000000; stroke-width: 0.8; stroke-linejoin: miter; stroke-linecap: square"/>
   </g>
   <g id="patch_6">
    <path d="M 36.17625 23.837812 
L 704.22625 23.837812 
" style="fill: none; stroke: #000000; stroke-width: 0.8; stroke-linejoin: miter; stroke-linecap: square"/>
   </g>
   <g id="text_18">
    <!-- Bootstrap Distributions of C-index Differences for RSF Model -->
    <g transform="translate(158.902969 17.837812) scale(0.14 -0.14)">
     <defs>
      <path id="DejaVuSans-42" d="M 1259 2228 
L 1259 519 
L 2272 519 
Q 2781 519 3026 730 
Q 3272 941 3272 1375 
Q 3272 1813 3026 2020 
Q 2781 2228 2272 2228 
L 1259 2228 
z
M 1259 4147 
L 1259 2741 
L 2194 2741 
Q 2656 2741 2882 2914 
Q 3109 3088 3109 3444 
Q 3109 3797 2882 3972 
Q 2656 4147 2194 4147 
L 1259 4147 
z
M 628 4666 
L 2241 4666 
Q 2963 4666 3353 4366 
Q 3744 4066 3744 3513 
Q 3744 3084 3544 2831 
Q 3344 2578 2956 2516 
Q 3422 2416 3680 2098 
Q 3938 1781 3938 1306 
Q 3938 681 3513 340 
Q 3088 0 2303 0 
L 628 0 
L 628 4666 
z
" transform="scale(0.015625)"/>
      <path id="DejaVuSans-70" d="M 1159 525 
L 1159 -1331 
L 581 -1331 
L 581 3500 
L 1159 3500 
L 1159 2969 
Q 1341 3281 1617 3432 
Q 1894 3584 2278 3584 
Q 2916 3584 3314 3078 
Q 3713 2572 3713 1747 
Q 3713 922 3314 415 
Q 2916 -91 2278 -91 
Q 1894 -91 1617 61 
Q 1341 213 1159 525 
z
M 3116 1747 
Q 3116 2381 2855 2742 
Q 2594 3103 2138 3103 
Q 1681 3103 1420 2742 
Q 1159 2381 1159 1747 
Q 1159 1113 1420 752 
Q 1681 391 2138 391 
Q 2594 391 2855 752 
Q 3116 1113 3116 1747 
z
" transform="scale(0.015625)"/>
      <path id="DejaVuSans-62" d="M 3116 1747 
Q 3116 2381 2855 2742 
Q 2594 3103 2138 3103 
Q 1681 3103 1420 2742 
Q 1159 2381 1159 1747 
Q 1159 1113 1420 752 
Q 1681 391 2138 391 
Q 2594 391 2855 752 
Q 3116 1113 3116 1747 
z
M 1159 2969 
Q 1341 3281 1617 3432 
Q 1894 3584 2278 3584 
Q 2916 3584 3314 3078 
Q 3713 2572 3713 1747 
Q 3713 922 3314 415 
Q 2916 -91 2278 -91 
Q 1894 -91 1617 61 
Q 1341 213 1159 525 
L 1159 0 
L 581 0 
L 581 4863 
L 1159 4863 
L 1159 2969 
z
" transform="scale(0.015625)"/>
      <path id="DejaVuSans-52" d="M 2841 2188 
Q 3044 2119 3236 1894 
Q 3428 1669 3622 1275 
L 4263 0 
L 3584 0 
L 2988 1197 
Q 2756 1666 2539 1819 
Q 2322 1972 1947 1972 
L 1259 1972 
L 1259 0 
L 628 0 
L 628 4666 
L 2053 4666 
Q 2853 4666 3247 4331 
Q 3641 3997 3641 3322 
Q 3641 2881 3436 2590 
Q 3231 2300 2841 2188 
z
M 1259 4147 
L 1259 2491 
L 2053 2491 
Q 2509 2491 2742 2702 
Q 2975 2913 2975 3322 
Q 2975 3731 2742 3939 
Q 2509 4147 2053 4147 
L 1259 4147 
z
" transform="scale(0.015625)"/>
      <path id="DejaVuSans-53" d="M 3425 4513 
L 3425 3897 
Q 3066 4069 2747 4153 
Q 2428 4238 2131 4238 
Q 1616 4238 1336 4038 
Q 1056 3838 1056 3469 
Q 1056 3159 1242 3001 
Q 1428 2844 1947 2747 
L 2328 2669 
Q 3034 2534 3370 2195 
Q 3706 1856 3706 1288 
Q 3706 609 3251 259 
Q 2797 -91 1919 -91 
Q 1588 -91 1214 -16 
Q 841 59 441 206 
L 441 856 
Q 825 641 1194 531 
Q 1563 422 1919 422 
Q 2459 422 2753 634 
Q 3047 847 3047 1241 
Q 3047 1584 2836 1778 
Q 2625 1972 2144 2069 
L 1759 2144 
Q 1053 2284 737 2584 
Q 422 2884 422 3419 
Q 422 4038 858 4394 
Q 1294 4750 2059 4750 
Q 2388 4750 2728 4690 
Q 3069 4631 3425 4513 
z
" transform="scale(0.015625)"/>
      <path id="DejaVuSans-46" d="M 628 4666 
L 3309 4666 
L 3309 4134 
L 1259 4134 
L 1259 2759 
L 3109 2759 
L 3109 2228 
L 1259 2228 
L 1259 0 
L 628 0 
L 628 4666 
z
" transform="scale(0.015625)"/>
     </defs>
     <use xlink:href="#DejaVuSans-42"/>
     <use xlink:href="#DejaVuSans-6f" transform="translate(68.603516 0)"/>
     <use xlink:href="#DejaVuSans-6f" transform="translate(129.785156 0)"/>
     <use xlink:href="#DejaVuSans-74" transform="translate(190.966797 0)"/>
     <use xlink:href="#DejaVuSans-73" transform="translate(230.175781 0)"/>
     <use xlink:href="#DejaVuSans-74" transform="translate(282.275391 0)"/>
     <use xlink:href="#DejaVuSans-72" transform="translate(321.484375 0)"/>
     <use xlink:href="#DejaVuSans-61" transform="translate(362.597656 0)"/>
     <use xlink:href="#DejaVuSans-70" transform="translate(423.876953 0)"/>
     <use xlink:href="#DejaVuSans-20" transform="translate(487.353516 0)"/>
     <use xlink:href="#DejaVuSans-44" transform="translate(519.140625 0)"/>
     <use xlink:href="#DejaVuSans-69" transform="translate(596.142578 0)"/>
     <use xlink:href="#DejaVuSans-73" transform="translate(623.925781 0)"/>
     <use xlink:href="#DejaVuSans-74" transform="translate(676.025391 0)"/>
     <use xlink:href="#DejaVuSans-72" transform="translate(715.234375 0)"/>
     <use xlink:href="#DejaVuSans-69" transform="translate(756.347656 0)"/>
     <use xlink:href="#DejaVuSans-62" transform="translate(784.130859 0)"/>
     <use xlink:href="#DejaVuSans-75" transform="translate(847.607422 0)"/>
     <use xlink:href="#DejaVuSans-74" transform="translate(910.986328 0)"/>
     <use xlink:href="#DejaVuSans-69" transform="translate(950.195312 0)"/>
     <use xlink:href="#DejaVuSans-6f" transform="translate(977.978516 0)"/>
     <use xlink:href="#DejaVuSans-6e" transform="translate(1039.160156 0)"/>
     <use xlink:href="#DejaVuSans-73" transform="translate(1102.539062 0)"/>
     <use xlink:href="#DejaVuSans-20" transform="translate(1154.638672 0)"/>
     <use xlink:href="#DejaVuSans-6f" transform="translate(1186.425781 0)"/>
     <use xlink:href="#DejaVuSans-66" transform="translate(1247.607422 0)"/>
     <use xlink:href="#DejaVuSans-20" transform="translate(1282.8125 0)"/>
     <use xlink:href="#DejaVuSans-43" transform="translate(1314.599609 0)"/>
     <use xlink:href="#DejaVuSans-2d" transform="translate(1384.423828 0)"/>
     <use xlink:href="#DejaVuSans-69" transform="translate(1420.507812 0)"/>
     <use xlink:href="#DejaVuSans-6e" transform="translate(1448.291016 0)"/>
     <use xlink:href="#DejaVuSans-64" transform="translate(1511.669922 0)"/>
     <use xlink:href="#DejaVuSans-65" transform="translate(1575.146484 0)"/>
     <use xlink:href="#DejaVuSans-78" transform="translate(1634.919922 0)"/>
     <use xlink:href="#DejaVuSans-20" transform="translate(1694.099609 0)"/>
     <use xlink:href="#DejaVuSans-44" transform="translate(1725.886719 0)"/>
     <use xlink:href="#DejaVuSans-69" transform="translate(1802.888672 0)"/>
     <use xlink:href="#DejaVuSans-66" transform="translate(1830.671875 0)"/>
     <use xlink:href="#DejaVuSans-66" transform="translate(1865.876953 0)"/>
     <use xlink:href="#DejaVuSans-65" transform="translate(1901.082031 0)"/>
     <use xlink:href="#DejaVuSans-72" transform="translate(1962.605469 0)"/>
     <use xlink:href="#DejaVuSans-65" transform="translate(2001.46875 0)"/>
     <use xlink:href="#DejaVuSans-6e" transform="translate(2062.992188 0)"/>
     <use xlink:href="#DejaVuSans-63" transform="translate(2126.371094 0)"/>
     <use xlink:href="#DejaVuSans-65" transform="translate(2181.351562 0)"/>
     <use xlink:href="#DejaVuSans-73" transform="translate(2242.875 0)"/>
     <use xlink:href="#DejaVuSans-20" transform="translate(2294.974609 0)"/>
     <use xlink:href="#DejaVuSans-66" transform="translate(2326.761719 0)"/>
     <use xlink:href="#DejaVuSans-6f" transform="translate(2361.966797 0)"/>
     <use xlink:href="#DejaVuSans-72" transform="translate(2423.148438 0)"/>
     <use xlink:href="#DejaVuSans-20" transform="translate(2464.261719 0)"/>
     <use xlink:href="#DejaVuSans-52" transform="translate(2496.048828 0)"/>
     <use xlink:href="#DejaVuSans-53" transform="translate(2565.53125 0)"/>
     <use xlink:href="#DejaVuSans-46" transform="translate(2629.007812 0)"/>
     <use xlink:href="#DejaVuSans-20" transform="translate(2686.527344 0)"/>
     <use xlink:href="#DejaVuSans-4d" transform="translate(2718.314453 0)"/>
     <use xlink:href="#DejaVuSans-6f" transform="translate(2804.59375 0)"/>
     <use xlink:href="#DejaVuSans-64" transform="translate(2865.775391 0)"/>
     <use xlink:href="#DejaVuSans-65" transform="translate(2929.251953 0)"/>
     <use xlink:href="#DejaVuSans-6c" transform="translate(2990.775391 0)"/>
    </g>
   </g>
   <g id="legend_1">
    <g id="patch_7">
     <path d="M 477.891875 105.228437 
L 697.22625 105.228437 
Q 699.22625 105.228437 699.22625 103.228437 
L 699.22625 30.837812 
Q 699.22625 28.837812 697.22625 28.837812 
L 477.891875 28.837812 
Q 475.891875 28.837812 475.891875 30.837812 
L 475.891875 103.228437 
Q 475.891875 105.228437 477.891875 105.228437 
z
" style="fill: #ffffff; opacity: 0.8; stroke: #cccccc; stroke-linejoin: miter"/>
    </g>
    <g id="line2d_40">
     <path d="M 479.891875 36.93625 
L 489.891875 36.93625 
L 499.891875 36.93625 
" style="fill: none; stroke: #1f77b4; stroke-width: 1.5; stroke-linecap: square"/>
    </g>
    <g id="text_19">
     <!-- Multimodal - Clinical (Diff: -0.0514) -->
     <g transform="translate(507.891875 40.43625) scale(0.1 -0.1)">
      <defs>
       <path id="DejaVuSans-3a" d="M 750 794 
L 1409 794 
L 1409 0 
L 750 0 
L 750 794 
z
M 750 3309 
L 1409 3309 
L 1409 2516 
L 750 2516 
L 750 3309 
z
" transform="scale(0.015625)"/>
      </defs>
      <use xlink:href="#DejaVuSans-4d"/>
      <use xlink:href="#DejaVuSans-75" transform="translate(86.279297 0)"/>
      <use xlink:href="#DejaVuSans-6c" transform="translate(149.658203 0)"/>
      <use xlink:href="#DejaVuSans-74" transform="translate(177.441406 0)"/>
      <use xlink:href="#DejaVuSans-69" transform="translate(216.650391 0)"/>
      <use xlink:href="#DejaVuSans-6d" transform="translate(244.433594 0)"/>
      <use xlink:href="#DejaVuSans-6f" transform="translate(341.845703 0)"/>
      <use xlink:href="#DejaVuSans-64" transform="translate(403.027344 0)"/>
      <use xlink:href="#DejaVuSans-61" transform="translate(466.503906 0)"/>
      <use xlink:href="#DejaVuSans-6c" transform="translate(527.783203 0)"/>
      <use xlink:href="#DejaVuSans-20" transform="translate(555.566406 0)"/>
      <use xlink:href="#DejaVuSans-2d" transform="translate(587.353516 0)"/>
      <use xlink:href="#DejaVuSans-20" transform="translate(623.4375 0)"/>
      <use xlink:href="#DejaVuSans-43" transform="translate(655.224609 0)"/>
      <use xlink:href="#DejaVuSans-6c" transform="translate(725.048828 0)"/>
      <use xlink:href="#DejaVuSans-69" transform="translate(752.832031 0)"/>
      <use xlink:href="#DejaVuSans-6e" transform="translate(780.615234 0)"/>
      <use xlink:href="#DejaVuSans-69" transform="translate(843.994141 0)"/>
      <use xlink:href="#DejaVuSans-63" transform="translate(871.777344 0)"/>
      <use xlink:href="#DejaVuSans-61" transform="translate(926.757812 0)"/>
      <use xlink:href="#DejaVuSans-6c" transform="translate(988.037109 0)"/>
      <use xlink:href="#DejaVuSans-20" transform="translate(1015.820312 0)"/>
      <use xlink:href="#DejaVuSans-28" transform="translate(1047.607422 0)"/>
      <use xlink:href="#DejaVuSans-44" transform="translate(1086.621094 0)"/>
      <use xlink:href="#DejaVuSans-69" transform="translate(1163.623047 0)"/>
      <use xlink:href="#DejaVuSans-66" transform="translate(1191.40625 0)"/>
      <use xlink:href="#DejaVuSans-66" transform="translate(1226.611328 0)"/>
      <use xlink:href="#DejaVuSans-3a" transform="translate(1258.191406 0)"/>
      <use xlink:href="#DejaVuSans-20" transform="translate(1291.882812 0)"/>
      <use xlink:href="#DejaVuSans-2d" transform="translate(1323.669922 0)"/>
      <use xlink:href="#DejaVuSans-30" transform="translate(1359.753906 0)"/>
      <use xlink:href="#DejaVuSans-2e" transform="translate(1423.376953 0)"/>
      <use xlink:href="#DejaVuSans-30" transform="translate(1455.164062 0)"/>
      <use xlink:href="#DejaVuSans-35" transform="translate(1518.787109 0)"/>
      <use xlink:href="#DejaVuSans-31" transform="translate(1582.410156 0)"/>
      <use xlink:href="#DejaVuSans-34" transform="translate(1646.033203 0)"/>
      <use xlink:href="#DejaVuSans-29" transform="translate(1709.65625 0)"/>
     </g>
    </g>
    <g id="line2d_41">
     <path d="M 479.891875 51.614375 
L 489.891875 51.614375 
L 499.891875 51.614375 
" style="fill: none; stroke: #ff7f0e; stroke-width: 1.5; stroke-linecap: square"/>
    </g>
    <g id="text_20">
     <!-- Multimodal - Molecular (Diff: -0.0716) -->
     <g transform="translate(507.891875 55.114375) scale(0.1 -0.1)">
      <use xlink:href="#DejaVuSans-4d"/>
      <use xlink:href="#DejaVuSans-75" transform="translate(86.279297 0)"/>
      <use xlink:href="#DejaVuSans-6c" transform="translate(149.658203 0)"/>
      <use xlink:href="#DejaVuSans-74" transform="translate(177.441406 0)"/>
      <use xlink:href="#DejaVuSans-69" transform="translate(216.650391 0)"/>
      <use xlink:href="#DejaVuSans-6d" transform="translate(244.433594 0)"/>
      <use xlink:href="#DejaVuSans-6f" transform="translate(341.845703 0)"/>
      <use xlink:href="#DejaVuSans-64" transform="translate(403.027344 0)"/>
      <use xlink:href="#DejaVuSans-61" transform="translate(466.503906 0)"/>
      <use xlink:href="#DejaVuSans-6c" transform="translate(527.783203 0)"/>
      <use xlink:href="#DejaVuSans-20" transform="translate(555.566406 0)"/>
      <use xlink:href="#DejaVuSans-2d" transform="translate(587.353516 0)"/>
      <use xlink:href="#DejaVuSans-20" transform="translate(623.4375 0)"/>
      <use xlink:href="#DejaVuSans-4d" transform="translate(655.224609 0)"/>
      <use xlink:href="#DejaVuSans-6f" transform="translate(741.503906 0)"/>
      <use xlink:href="#DejaVuSans-6c" transform="translate(802.685547 0)"/>
      <use xlink:href="#DejaVuSans-65" transform="translate(830.46875 0)"/>
      <use xlink:href="#DejaVuSans-63" transform="translate(891.992188 0)"/>
      <use xlink:href="#DejaVuSans-75" transform="translate(946.972656 0)"/>
      <use xlink:href="#DejaVuSans-6c" transform="translate(1010.351562 0)"/>
      <use xlink:href="#DejaVuSans-61" transform="translate(1038.134766 0)"/>
      <use xlink:href="#DejaVuSans-72" transform="translate(1099.414062 0)"/>
      <use xlink:href="#DejaVuSans-20" transform="translate(1140.527344 0)"/>
      <use xlink:href="#DejaVuSans-28" transform="translate(1172.314453 0)"/>
      <use xlink:href="#DejaVuSans-44" transform="translate(1211.328125 0)"/>
      <use xlink:href="#DejaVuSans-69" transform="translate(1288.330078 0)"/>
      <use xlink:href="#DejaVuSans-66" transform="translate(1316.113281 0)"/>
      <use xlink:href="#DejaVuSans-66" transform="translate(1351.318359 0)"/>
      <use xlink:href="#DejaVuSans-3a" transform="translate(1382.898438 0)"/>
      <use xlink:href="#DejaVuSans-20" transform="translate(1416.589844 0)"/>
      <use xlink:href="#DejaVuSans-2d" transform="translate(1448.376953 0)"/>
      <use xlink:href="#DejaVuSans-30" transform="translate(1484.460938 0)"/>
      <use xlink:href="#DejaVuSans-2e" transform="translate(1548.083984 0)"/>
      <use xlink:href="#DejaVuSans-30" transform="translate(1579.871094 0)"/>
      <use xlink:href="#DejaVuSans-37" transform="translate(1643.494141 0)"/>
      <use xlink:href="#DejaVuSans-31" transform="translate(1707.117188 0)"/>
      <use xlink:href="#DejaVuSans-36" transform="translate(1770.740234 0)"/>
      <use xlink:href="#DejaVuSans-29" transform="translate(1834.363281 0)"/>
     </g>
    </g>
    <g id="line2d_42">
     <path d="M 479.891875 66.2925 
L 489.891875 66.2925 
L 499.891875 66.2925 
" style="fill: none; stroke: #2ca02c; stroke-width: 1.5; stroke-linecap: square"/>
    </g>
    <g id="text_21">
     <!-- Multimodal - Pathology (Diff: 0.0676) -->
     <g transform="translate(507.891875 69.7925) scale(0.1 -0.1)">
      <defs>
       <path id="DejaVuSans-50" d="M 1259 4147 
L 1259 2394 
L 2053 2394 
Q 2494 2394 2734 2622 
Q 2975 2850 2975 3272 
Q 2975 3691 2734 3919 
Q 2494 4147 2053 4147 
L 1259 4147 
z
M 628 4666 
L 2053 4666 
Q 2838 4666 3239 4311 
Q 3641 3956 3641 3272 
Q 3641 2581 3239 2228 
Q 2838 1875 2053 1875 
L 1259 1875 
L 1259 0 
L 628 0 
L 628 4666 
z
" transform="scale(0.015625)"/>
       <path id="DejaVuSans-67" d="M 2906 1791 
Q 2906 2416 2648 2759 
Q 2391 3103 1925 3103 
Q 1463 3103 1205 2759 
Q 947 2416 947 1791 
Q 947 1169 1205 825 
Q 1463 481 1925 481 
Q 2391 481 2648 825 
Q 2906 1169 2906 1791 
z
M 3481 434 
Q 3481 -459 3084 -895 
Q 2688 -1331 1869 -1331 
Q 1566 -1331 1297 -1286 
Q 1028 -1241 775 -1147 
L 775 -588 
Q 1028 -725 1275 -790 
Q 1522 -856 1778 -856 
Q 2344 -856 2625 -561 
Q 2906 -266 2906 331 
L 2906 616 
Q 2728 306 2450 153 
Q 2172 0 1784 0 
Q 1141 0 747 490 
Q 353 981 353 1791 
Q 353 2603 747 3093 
Q 1141 3584 1784 3584 
Q 2172 3584 2450 3431 
Q 2728 3278 2906 2969 
L 2906 3500 
L 3481 3500 
L 3481 434 
z
" transform="scale(0.015625)"/>
      </defs>
      <use xlink:href="#DejaVuSans-4d"/>
      <use xlink:href="#DejaVuSans-75" transform="translate(86.279297 0)"/>
      <use xlink:href="#DejaVuSans-6c" transform="translate(149.658203 0)"/>
      <use xlink:href="#DejaVuSans-74" transform="translate(177.441406 0)"/>
      <use xlink:href="#DejaVuSans-69" transform="translate(216.650391 0)"/>
      <use xlink:href="#DejaVuSans-6d" transform="translate(244.433594 0)"/>
      <use xlink:href="#DejaVuSans-6f" transform="translate(341.845703 0)"/>
      <use xlink:href="#DejaVuSans-64" transform="translate(403.027344 0)"/>
      <use xlink:href="#DejaVuSans-61" transform="translate(466.503906 0)"/>
      <use xlink:href="#DejaVuSans-6c" transform="translate(527.783203 0)"/>
      <use xlink:href="#DejaVuSans-20" transform="translate(555.566406 0)"/>
      <use xlink:href="#DejaVuSans-2d" transform="translate(587.353516 0)"/>
      <use xlink:href="#DejaVuSans-20" transform="translate(623.4375 0)"/>
      <use xlink:href="#DejaVuSans-50" transform="translate(655.224609 0)"/>
      <use xlink:href="#DejaVuSans-61" transform="translate(711.027344 0)"/>
      <use xlink:href="#DejaVuSans-74" transform="translate(772.306641 0)"/>
      <use xlink:href="#DejaVuSans-68" transform="translate(811.515625 0)"/>
      <use xlink:href="#DejaVuSans-6f" transform="translate(874.894531 0)"/>
      <use xlink:href="#DejaVuSans-6c" transform="translate(936.076172 0)"/>
      <use xlink:href="#DejaVuSans-6f" transform="translate(963.859375 0)"/>
      <use xlink:href="#DejaVuSans-67" transform="translate(1025.041016 0)"/>
      <use xlink:href="#DejaVuSans-79" transform="translate(1088.517578 0)"/>
      <use xlink:href="#DejaVuSans-20" transform="translate(1147.697266 0)"/>
      <use xlink:href="#DejaVuSans-28" transform="translate(1179.484375 0)"/>
      <use xlink:href="#DejaVuSans-44" transform="translate(1218.498047 0)"/>
      <use xlink:href="#DejaVuSans-69" transform="translate(1295.5 0)"/>
      <use xlink:href="#DejaVuSans-66" transform="translate(1323.283203 0)"/>
      <use xlink:href="#DejaVuSans-66" transform="translate(1358.488281 0)"/>
      <use xlink:href="#DejaVuSans-3a" transform="translate(1390.068359 0)"/>
      <use xlink:href="#DejaVuSans-20" transform="translate(1423.759766 0)"/>
      <use xlink:href="#DejaVuSans-30" transform="translate(1455.546875 0)"/>
      <use xlink:href="#DejaVuSans-2e" transform="translate(1519.169922 0)"/>
      <use xlink:href="#DejaVuSans-30" transform="translate(1550.957031 0)"/>
      <use xlink:href="#DejaVuSans-36" transform="translate(1614.580078 0)"/>
      <use xlink:href="#DejaVuSans-37" transform="translate(1678.203125 0)"/>
      <use xlink:href="#DejaVuSans-36" transform="translate(1741.826172 0)"/>
      <use xlink:href="#DejaVuSans-29" transform="translate(1805.449219 0)"/>
     </g>
    </g>
    <g id="line2d_43">
     <path d="M 479.891875 80.970625 
L 489.891875 80.970625 
L 499.891875 80.970625 
" style="fill: none; stroke: #d62728; stroke-width: 1.5; stroke-linecap: square"/>
    </g>
    <g id="text_22">
     <!-- Multimodal - Radiology (Diff: 0.1014) -->
     <g transform="translate(507.891875 84.470625) scale(0.1 -0.1)">
      <use xlink:href="#DejaVuSans-4d"/>
      <use xlink:href="#DejaVuSans-75" transform="translate(86.279297 0)"/>
      <use xlink:href="#DejaVuSans-6c" transform="translate(149.658203 0)"/>
      <use xlink:href="#DejaVuSans-74" transform="translate(177.441406 0)"/>
      <use xlink:href="#DejaVuSans-69" transform="translate(216.650391 0)"/>
      <use xlink:href="#DejaVuSans-6d" transform="translate(244.433594 0)"/>
      <use xlink:href="#DejaVuSans-6f" transform="translate(341.845703 0)"/>
      <use xlink:href="#DejaVuSans-64" transform="translate(403.027344 0)"/>
      <use xlink:href="#DejaVuSans-61" transform="translate(466.503906 0)"/>
      <use xlink:href="#DejaVuSans-6c" transform="translate(527.783203 0)"/>
      <use xlink:href="#DejaVuSans-20" transform="translate(555.566406 0)"/>
      <use xlink:href="#DejaVuSans-2d" transform="translate(587.353516 0)"/>
      <use xlink:href="#DejaVuSans-20" transform="translate(623.4375 0)"/>
      <use xlink:href="#DejaVuSans-52" transform="translate(655.224609 0)"/>
      <use xlink:href="#DejaVuSans-61" transform="translate(722.457031 0)"/>
      <use xlink:href="#DejaVuSans-64" transform="translate(783.736328 0)"/>
      <use xlink:href="#DejaVuSans-69" transform="translate(847.212891 0)"/>
      <use xlink:href="#DejaVuSans-6f" transform="translate(874.996094 0)"/>
      <use xlink:href="#DejaVuSans-6c" transform="translate(936.177734 0)"/>
      <use xlink:href="#DejaVuSans-6f" transform="translate(963.960938 0)"/>
      <use xlink:href="#DejaVuSans-67" transform="translate(1025.142578 0)"/>
      <use xlink:href="#DejaVuSans-79" transform="translate(1088.619141 0)"/>
      <use xlink:href="#DejaVuSans-20" transform="translate(1147.798828 0)"/>
      <use xlink:href="#DejaVuSans-28" transform="translate(1179.585938 0)"/>
      <use xlink:href="#DejaVuSans-44" transform="translate(1218.599609 0)"/>
      <use xlink:href="#DejaVuSans-69" transform="translate(1295.601562 0)"/>
      <use xlink:href="#DejaVuSans-66" transform="translate(1323.384766 0)"/>
      <use xlink:href="#DejaVuSans-66" transform="translate(1358.589844 0)"/>
      <use xlink:href="#DejaVuSans-3a" transform="translate(1390.169922 0)"/>
      <use xlink:href="#DejaVuSans-20" transform="translate(1423.861328 0)"/>
      <use xlink:href="#DejaVuSans-30" transform="translate(1455.648438 0)"/>
      <use xlink:href="#DejaVuSans-2e" transform="translate(1519.271484 0)"/>
      <use xlink:href="#DejaVuSans-31" transform="translate(1551.058594 0)"/>
      <use xlink:href="#DejaVuSans-30" transform="translate(1614.681641 0)"/>
      <use xlink:href="#DejaVuSans-31" transform="translate(1678.304688 0)"/>
      <use xlink:href="#DejaVuSans-34" transform="translate(1741.927734 0)"/>
      <use xlink:href="#DejaVuSans-29" transform="translate(1805.550781 0)"/>
     </g>
    </g>
    <g id="line2d_44">
     <path d="M 479.891875 95.64875 
L 489.891875 95.64875 
L 499.891875 95.64875 
" style="fill: none; stroke-dasharray: 1.5,2.475; stroke-dashoffset: 0; stroke: #000000; stroke-width: 1.5"/>
    </g>
    <g id="text_23">
     <!-- No difference -->
     <g transform="translate(507.891875 99.14875) scale(0.1 -0.1)">
      <defs>
       <path id="DejaVuSans-4e" d="M 628 4666 
L 1478 4666 
L 3547 763 
L 3547 4666 
L 4159 4666 
L 4159 0 
L 3309 0 
L 1241 3903 
L 1241 0 
L 628 0 
L 628 4666 
z
" transform="scale(0.015625)"/>
      </defs>
      <use xlink:href="#DejaVuSans-4e"/>
      <use xlink:href="#DejaVuSans-6f" transform="translate(74.804688 0)"/>
      <use xlink:href="#DejaVuSans-20" transform="translate(135.986328 0)"/>
      <use xlink:href="#DejaVuSans-64" transform="translate(167.773438 0)"/>
      <use xlink:href="#DejaVuSans-69" transform="translate(231.25 0)"/>
      <use xlink:href="#DejaVuSans-66" transform="translate(259.033203 0)"/>
      <use xlink:href="#DejaVuSans-66" transform="translate(294.238281 0)"/>
      <use xlink:href="#DejaVuSans-65" transform="translate(329.443359 0)"/>
      <use xlink:href="#DejaVuSans-72" transform="translate(390.966797 0)"/>
      <use xlink:href="#DejaVuSans-65" transform="translate(429.830078 0)"/>
      <use xlink:href="#DejaVuSans-6e" transform="translate(491.353516 0)"/>
      <use xlink:href="#DejaVuSans-63" transform="translate(554.732422 0)"/>
      <use xlink:href="#DejaVuSans-65" transform="translate(609.712891 0)"/>
     </g>
    </g>
   </g>
  </g>
 </g>
 <defs>
  <clipPath id="p2c853fc419">
   <rect x="36.17625" y="23.837812" width="668.05" height="359.56"/>
  </clipPath>
 </defs>
</svg>
