<?xml version="1.0" encoding="utf-8" standalone="no"?>
<!DOCTYPE svg PUBLIC "-//W3C//DTD SVG 1.1//EN"
  "http://www.w3.org/Graphics/SVG/1.1/DTD/svg11.dtd">
<svg xmlns:xlink="http://www.w3.org/1999/xlink" width="720pt" height="432pt" viewBox="0 0 720 432" xmlns="http://www.w3.org/2000/svg" version="1.1">
 <metadata>
  <rdf:RDF xmlns:dc="http://purl.org/dc/elements/1.1/" xmlns:cc="http://creativecommons.org/ns#" xmlns:rdf="http://www.w3.org/1999/02/22-rdf-syntax-ns#">
   <cc:Work>
    <dc:type rdf:resource="http://purl.org/dc/dcmitype/StillImage"/>
    <dc:date>2025-04-04T15:34:21.456644</dc:date>
    <dc:format>image/svg+xml</dc:format>
    <dc:creator>
     <cc:Agent>
      <dc:title>Matplotlib v3.10.1, https://matplotlib.org/</dc:title>
     </cc:Agent>
    </dc:creator>
   </cc:Work>
  </rdf:RDF>
 </metadata>
 <defs>
  <style type="text/css">*{stroke-linejoin: round; stroke-linecap: butt}</style>
 </defs>
 <g id="figure_1">
  <g id="patch_1">
   <path d="M 0 432 
L 720 432 
L 720 0 
L 0 0 
z
" style="fill: #ffffff"/>
  </g>
  <g id="axes_1">
   <g id="patch_2">
    <path d="M 51.427143 294.812091 
L 709.2 294.812091 
L 709.2 25.49625 
L 51.427143 25.49625 
z
" style="fill: #ffffff"/>
   </g>
   <g id="patch_3">
    <path d="M 81.32591 294.812091 
L 207.215452 294.812091 
L 207.215452 31.763793 
L 81.32591 31.763793 
z
" clip-path="url(#pfbb15a2951)" style="fill: #ff6060"/>
   </g>
   <g id="patch_4">
    <path d="M 238.687837 294.812091 
L 364.577379 294.812091 
L 364.577379 25.861464 
L 238.687837 25.861464 
z
" clip-path="url(#pfbb15a2951)" style="fill: #6cc2f5"/>
   </g>
   <g id="patch_5">
    <path d="M 396.049764 294.812091 
L 521.939306 294.812091 
L 521.939306 50.059834 
L 396.049764 50.059834 
z
" clip-path="url(#pfbb15a2951)" style="fill: #ff9a60"/>
   </g>
   <g id="patch_6">
    <path d="M 553.411692 294.812091 
L 679.301234 294.812091 
L 679.301234 39.162321 
L 553.411692 39.162321 
z
" clip-path="url(#pfbb15a2951)" style="fill: #ff60b3"/>
   </g>
   <g id="matplotlib.axis_1">
    <g id="xtick_1">
     <g id="line2d_1">
      <defs>
       <path id="m06f4956df5" d="M 0 0 
L 0 3.5 
" style="stroke: #000000; stroke-width: 0.8"/>
      </defs>
      <g>
       <use xlink:href="#m06f4956df5" x="144.270681" y="294.812091" style="stroke: #000000; stroke-width: 0.8"/>
      </g>
     </g>
     <g id="text_1">
      <!-- [UFNLP/gatortron-base] Pre-trained -->
      <g transform="translate(30.782252 418.959797) rotate(-45) scale(0.1 -0.1)">
       <defs>
        <path id="ArialMT-5b" d="M 434 -1272 
L 434 4581 
L 1675 4581 
L 1675 4116 
L 997 4116 
L 997 -806 
L 1675 -806 
L 1675 -1272 
L 434 -1272 
z
" transform="scale(0.015625)"/>
        <path id="ArialMT-55" d="M 3500 4581 
L 4106 4581 
L 4106 1934 
Q 4106 1244 3950 837 
Q 3794 431 3386 176 
Q 2978 -78 2316 -78 
Q 1672 -78 1262 144 
Q 853 366 678 786 
Q 503 1206 503 1934 
L 503 4581 
L 1109 4581 
L 1109 1938 
Q 1109 1341 1220 1058 
Q 1331 775 1601 622 
Q 1872 469 2263 469 
Q 2931 469 3215 772 
Q 3500 1075 3500 1938 
L 3500 4581 
z
" transform="scale(0.015625)"/>
        <path id="ArialMT-46" d="M 525 0 
L 525 4581 
L 3616 4581 
L 3616 4041 
L 1131 4041 
L 1131 2622 
L 3281 2622 
L 3281 2081 
L 1131 2081 
L 1131 0 
L 525 0 
z
" transform="scale(0.015625)"/>
        <path id="ArialMT-4e" d="M 488 0 
L 488 4581 
L 1109 4581 
L 3516 984 
L 3516 4581 
L 4097 4581 
L 4097 0 
L 3475 0 
L 1069 3600 
L 1069 0 
L 488 0 
z
" transform="scale(0.015625)"/>
        <path id="ArialMT-4c" d="M 469 0 
L 469 4581 
L 1075 4581 
L 1075 541 
L 3331 541 
L 3331 0 
L 469 0 
z
" transform="scale(0.015625)"/>
        <path id="ArialMT-50" d="M 494 0 
L 494 4581 
L 2222 4581 
Q 2678 4581 2919 4538 
Q 3256 4481 3484 4323 
Q 3713 4166 3852 3881 
Q 3991 3597 3991 3256 
Q 3991 2672 3619 2267 
Q 3247 1863 2275 1863 
L 1100 1863 
L 1100 0 
L 494 0 
z
M 1100 2403 
L 2284 2403 
Q 2872 2403 3119 2622 
Q 3366 2841 3366 3238 
Q 3366 3525 3220 3729 
Q 3075 3934 2838 4000 
Q 2684 4041 2272 4041 
L 1100 4041 
L 1100 2403 
z
" transform="scale(0.015625)"/>
        <path id="ArialMT-2f" d="M 0 -78 
L 1328 4659 
L 1778 4659 
L 453 -78 
L 0 -78 
z
" transform="scale(0.015625)"/>
        <path id="ArialMT-67" d="M 319 -275 
L 866 -356 
Q 900 -609 1056 -725 
Q 1266 -881 1628 -881 
Q 2019 -881 2231 -725 
Q 2444 -569 2519 -288 
Q 2563 -116 2559 434 
Q 2191 0 1641 0 
Q 956 0 581 494 
Q 206 988 206 1678 
Q 206 2153 378 2554 
Q 550 2956 876 3175 
Q 1203 3394 1644 3394 
Q 2231 3394 2613 2919 
L 2613 3319 
L 3131 3319 
L 3131 450 
Q 3131 -325 2973 -648 
Q 2816 -972 2473 -1159 
Q 2131 -1347 1631 -1347 
Q 1038 -1347 672 -1080 
Q 306 -813 319 -275 
z
M 784 1719 
Q 784 1066 1043 766 
Q 1303 466 1694 466 
Q 2081 466 2343 764 
Q 2606 1063 2606 1700 
Q 2606 2309 2336 2618 
Q 2066 2928 1684 2928 
Q 1309 2928 1046 2623 
Q 784 2319 784 1719 
z
" transform="scale(0.015625)"/>
        <path id="ArialMT-61" d="M 2588 409 
Q 2275 144 1986 34 
Q 1697 -75 1366 -75 
Q 819 -75 525 192 
Q 231 459 231 875 
Q 231 1119 342 1320 
Q 453 1522 633 1644 
Q 813 1766 1038 1828 
Q 1203 1872 1538 1913 
Q 2219 1994 2541 2106 
Q 2544 2222 2544 2253 
Q 2544 2597 2384 2738 
Q 2169 2928 1744 2928 
Q 1347 2928 1158 2789 
Q 969 2650 878 2297 
L 328 2372 
Q 403 2725 575 2942 
Q 747 3159 1072 3276 
Q 1397 3394 1825 3394 
Q 2250 3394 2515 3294 
Q 2781 3194 2906 3042 
Q 3031 2891 3081 2659 
Q 3109 2516 3109 2141 
L 3109 1391 
Q 3109 606 3145 398 
Q 3181 191 3288 0 
L 2700 0 
Q 2613 175 2588 409 
z
M 2541 1666 
Q 2234 1541 1622 1453 
Q 1275 1403 1131 1340 
Q 988 1278 909 1158 
Q 831 1038 831 891 
Q 831 666 1001 516 
Q 1172 366 1500 366 
Q 1825 366 2078 508 
Q 2331 650 2450 897 
Q 2541 1088 2541 1459 
L 2541 1666 
z
" transform="scale(0.015625)"/>
        <path id="ArialMT-74" d="M 1650 503 
L 1731 6 
Q 1494 -44 1306 -44 
Q 1000 -44 831 53 
Q 663 150 594 308 
Q 525 466 525 972 
L 525 2881 
L 113 2881 
L 113 3319 
L 525 3319 
L 525 4141 
L 1084 4478 
L 1084 3319 
L 1650 3319 
L 1650 2881 
L 1084 2881 
L 1084 941 
Q 1084 700 1114 631 
Q 1144 563 1211 522 
Q 1278 481 1403 481 
Q 1497 481 1650 503 
z
" transform="scale(0.015625)"/>
        <path id="ArialMT-6f" d="M 213 1659 
Q 213 2581 725 3025 
Q 1153 3394 1769 3394 
Q 2453 3394 2887 2945 
Q 3322 2497 3322 1706 
Q 3322 1066 3130 698 
Q 2938 331 2570 128 
Q 2203 -75 1769 -75 
Q 1072 -75 642 372 
Q 213 819 213 1659 
z
M 791 1659 
Q 791 1022 1069 705 
Q 1347 388 1769 388 
Q 2188 388 2466 706 
Q 2744 1025 2744 1678 
Q 2744 2294 2464 2611 
Q 2184 2928 1769 2928 
Q 1347 2928 1069 2612 
Q 791 2297 791 1659 
z
" transform="scale(0.015625)"/>
        <path id="ArialMT-72" d="M 416 0 
L 416 3319 
L 922 3319 
L 922 2816 
Q 1116 3169 1280 3281 
Q 1444 3394 1641 3394 
Q 1925 3394 2219 3213 
L 2025 2691 
Q 1819 2813 1613 2813 
Q 1428 2813 1281 2702 
Q 1134 2591 1072 2394 
Q 978 2094 978 1738 
L 978 0 
L 416 0 
z
" transform="scale(0.015625)"/>
        <path id="ArialMT-6e" d="M 422 0 
L 422 3319 
L 928 3319 
L 928 2847 
Q 1294 3394 1984 3394 
Q 2284 3394 2536 3286 
Q 2788 3178 2913 3003 
Q 3038 2828 3088 2588 
Q 3119 2431 3119 2041 
L 3119 0 
L 2556 0 
L 2556 2019 
Q 2556 2363 2490 2533 
Q 2425 2703 2258 2804 
Q 2091 2906 1866 2906 
Q 1506 2906 1245 2678 
Q 984 2450 984 1813 
L 984 0 
L 422 0 
z
" transform="scale(0.015625)"/>
        <path id="ArialMT-2d" d="M 203 1375 
L 203 1941 
L 1931 1941 
L 1931 1375 
L 203 1375 
z
" transform="scale(0.015625)"/>
        <path id="ArialMT-62" d="M 941 0 
L 419 0 
L 419 4581 
L 981 4581 
L 981 2947 
Q 1338 3394 1891 3394 
Q 2197 3394 2470 3270 
Q 2744 3147 2920 2923 
Q 3097 2700 3197 2384 
Q 3297 2069 3297 1709 
Q 3297 856 2875 390 
Q 2453 -75 1863 -75 
Q 1275 -75 941 416 
L 941 0 
z
M 934 1684 
Q 934 1088 1097 822 
Q 1363 388 1816 388 
Q 2184 388 2453 708 
Q 2722 1028 2722 1663 
Q 2722 2313 2464 2622 
Q 2206 2931 1841 2931 
Q 1472 2931 1203 2611 
Q 934 2291 934 1684 
z
" transform="scale(0.015625)"/>
        <path id="ArialMT-73" d="M 197 991 
L 753 1078 
Q 800 744 1014 566 
Q 1228 388 1613 388 
Q 2000 388 2187 545 
Q 2375 703 2375 916 
Q 2375 1106 2209 1216 
Q 2094 1291 1634 1406 
Q 1016 1563 777 1677 
Q 538 1791 414 1992 
Q 291 2194 291 2438 
Q 291 2659 392 2848 
Q 494 3038 669 3163 
Q 800 3259 1026 3326 
Q 1253 3394 1513 3394 
Q 1903 3394 2198 3281 
Q 2494 3169 2634 2976 
Q 2775 2784 2828 2463 
L 2278 2388 
Q 2241 2644 2061 2787 
Q 1881 2931 1553 2931 
Q 1166 2931 1000 2803 
Q 834 2675 834 2503 
Q 834 2394 903 2306 
Q 972 2216 1119 2156 
Q 1203 2125 1616 2013 
Q 2213 1853 2448 1751 
Q 2684 1650 2818 1456 
Q 2953 1263 2953 975 
Q 2953 694 2789 445 
Q 2625 197 2315 61 
Q 2006 -75 1616 -75 
Q 969 -75 630 194 
Q 291 463 197 991 
z
" transform="scale(0.015625)"/>
        <path id="ArialMT-65" d="M 2694 1069 
L 3275 997 
Q 3138 488 2766 206 
Q 2394 -75 1816 -75 
Q 1088 -75 661 373 
Q 234 822 234 1631 
Q 234 2469 665 2931 
Q 1097 3394 1784 3394 
Q 2450 3394 2872 2941 
Q 3294 2488 3294 1666 
Q 3294 1616 3291 1516 
L 816 1516 
Q 847 969 1125 678 
Q 1403 388 1819 388 
Q 2128 388 2347 550 
Q 2566 713 2694 1069 
z
M 847 1978 
L 2700 1978 
Q 2663 2397 2488 2606 
Q 2219 2931 1791 2931 
Q 1403 2931 1139 2672 
Q 875 2413 847 1978 
z
" transform="scale(0.015625)"/>
        <path id="ArialMT-5d" d="M 1363 -1272 
L 122 -1272 
L 122 -806 
L 800 -806 
L 800 4116 
L 122 4116 
L 122 4581 
L 1363 4581 
L 1363 -1272 
z
" transform="scale(0.015625)"/>
        <path id="ArialMT-20" transform="scale(0.015625)"/>
        <path id="ArialMT-69" d="M 425 3934 
L 425 4581 
L 988 4581 
L 988 3934 
L 425 3934 
z
M 425 0 
L 425 3319 
L 988 3319 
L 988 0 
L 425 0 
z
" transform="scale(0.015625)"/>
        <path id="ArialMT-64" d="M 2575 0 
L 2575 419 
Q 2259 -75 1647 -75 
Q 1250 -75 917 144 
Q 584 363 401 755 
Q 219 1147 219 1656 
Q 219 2153 384 2558 
Q 550 2963 881 3178 
Q 1213 3394 1622 3394 
Q 1922 3394 2156 3267 
Q 2391 3141 2538 2938 
L 2538 4581 
L 3097 4581 
L 3097 0 
L 2575 0 
z
M 797 1656 
Q 797 1019 1065 703 
Q 1334 388 1700 388 
Q 2069 388 2326 689 
Q 2584 991 2584 1609 
Q 2584 2291 2321 2609 
Q 2059 2928 1675 2928 
Q 1300 2928 1048 2622 
Q 797 2316 797 1656 
z
" transform="scale(0.015625)"/>
       </defs>
       <use xlink:href="#ArialMT-5b"/>
       <use xlink:href="#ArialMT-55" transform="translate(27.783203 0)"/>
       <use xlink:href="#ArialMT-46" transform="translate(100 0)"/>
       <use xlink:href="#ArialMT-4e" transform="translate(161.083984 0)"/>
       <use xlink:href="#ArialMT-4c" transform="translate(233.300781 0)"/>
       <use xlink:href="#ArialMT-50" transform="translate(288.916016 0)"/>
       <use xlink:href="#ArialMT-2f" transform="translate(355.615234 0)"/>
       <use xlink:href="#ArialMT-67" transform="translate(383.398438 0)"/>
       <use xlink:href="#ArialMT-61" transform="translate(439.013672 0)"/>
       <use xlink:href="#ArialMT-74" transform="translate(494.628906 0)"/>
       <use xlink:href="#ArialMT-6f" transform="translate(522.412109 0)"/>
       <use xlink:href="#ArialMT-72" transform="translate(578.027344 0)"/>
       <use xlink:href="#ArialMT-74" transform="translate(611.328125 0)"/>
       <use xlink:href="#ArialMT-72" transform="translate(639.111328 0)"/>
       <use xlink:href="#ArialMT-6f" transform="translate(672.412109 0)"/>
       <use xlink:href="#ArialMT-6e" transform="translate(728.027344 0)"/>
       <use xlink:href="#ArialMT-2d" transform="translate(783.642578 0)"/>
       <use xlink:href="#ArialMT-62" transform="translate(816.943359 0)"/>
       <use xlink:href="#ArialMT-61" transform="translate(872.558594 0)"/>
       <use xlink:href="#ArialMT-73" transform="translate(928.173828 0)"/>
       <use xlink:href="#ArialMT-65" transform="translate(978.173828 0)"/>
       <use xlink:href="#ArialMT-5d" transform="translate(1033.789062 0)"/>
       <use xlink:href="#ArialMT-20" transform="translate(1061.572266 0)"/>
       <use xlink:href="#ArialMT-50" transform="translate(1089.355469 0)"/>
       <use xlink:href="#ArialMT-72" transform="translate(1156.054688 0)"/>
       <use xlink:href="#ArialMT-65" transform="translate(1189.355469 0)"/>
       <use xlink:href="#ArialMT-2d" transform="translate(1244.970703 0)"/>
       <use xlink:href="#ArialMT-74" transform="translate(1278.271484 0)"/>
       <use xlink:href="#ArialMT-72" transform="translate(1306.054688 0)"/>
       <use xlink:href="#ArialMT-61" transform="translate(1339.355469 0)"/>
       <use xlink:href="#ArialMT-69" transform="translate(1394.970703 0)"/>
       <use xlink:href="#ArialMT-6e" transform="translate(1417.1875 0)"/>
       <use xlink:href="#ArialMT-65" transform="translate(1472.802734 0)"/>
       <use xlink:href="#ArialMT-64" transform="translate(1528.417969 0)"/>
      </g>
     </g>
    </g>
    <g id="xtick_2">
     <g id="line2d_2">
      <g>
       <use xlink:href="#m06f4956df5" x="301.632608" y="294.812091" style="stroke: #000000; stroke-width: 0.8"/>
      </g>
     </g>
     <g id="text_2">
      <!-- [UFNLP/gatortron-base] Fine-tuned -->
      <g transform="translate(189.318639 417.785337) rotate(-45) scale(0.1 -0.1)">
       <defs>
        <path id="ArialMT-75" d="M 2597 0 
L 2597 488 
Q 2209 -75 1544 -75 
Q 1250 -75 995 37 
Q 741 150 617 320 
Q 494 491 444 738 
Q 409 903 409 1263 
L 409 3319 
L 972 3319 
L 972 1478 
Q 972 1038 1006 884 
Q 1059 663 1231 536 
Q 1403 409 1656 409 
Q 1909 409 2131 539 
Q 2353 669 2445 892 
Q 2538 1116 2538 1541 
L 2538 3319 
L 3100 3319 
L 3100 0 
L 2597 0 
z
" transform="scale(0.015625)"/>
       </defs>
       <use xlink:href="#ArialMT-5b"/>
       <use xlink:href="#ArialMT-55" transform="translate(27.783203 0)"/>
       <use xlink:href="#ArialMT-46" transform="translate(100 0)"/>
       <use xlink:href="#ArialMT-4e" transform="translate(161.083984 0)"/>
       <use xlink:href="#ArialMT-4c" transform="translate(233.300781 0)"/>
       <use xlink:href="#ArialMT-50" transform="translate(288.916016 0)"/>
       <use xlink:href="#ArialMT-2f" transform="translate(355.615234 0)"/>
       <use xlink:href="#ArialMT-67" transform="translate(383.398438 0)"/>
       <use xlink:href="#ArialMT-61" transform="translate(439.013672 0)"/>
       <use xlink:href="#ArialMT-74" transform="translate(494.628906 0)"/>
       <use xlink:href="#ArialMT-6f" transform="translate(522.412109 0)"/>
       <use xlink:href="#ArialMT-72" transform="translate(578.027344 0)"/>
       <use xlink:href="#ArialMT-74" transform="translate(611.328125 0)"/>
       <use xlink:href="#ArialMT-72" transform="translate(639.111328 0)"/>
       <use xlink:href="#ArialMT-6f" transform="translate(672.412109 0)"/>
       <use xlink:href="#ArialMT-6e" transform="translate(728.027344 0)"/>
       <use xlink:href="#ArialMT-2d" transform="translate(783.642578 0)"/>
       <use xlink:href="#ArialMT-62" transform="translate(816.943359 0)"/>
       <use xlink:href="#ArialMT-61" transform="translate(872.558594 0)"/>
       <use xlink:href="#ArialMT-73" transform="translate(928.173828 0)"/>
       <use xlink:href="#ArialMT-65" transform="translate(978.173828 0)"/>
       <use xlink:href="#ArialMT-5d" transform="translate(1033.789062 0)"/>
       <use xlink:href="#ArialMT-20" transform="translate(1061.572266 0)"/>
       <use xlink:href="#ArialMT-46" transform="translate(1089.355469 0)"/>
       <use xlink:href="#ArialMT-69" transform="translate(1150.439453 0)"/>
       <use xlink:href="#ArialMT-6e" transform="translate(1172.65625 0)"/>
       <use xlink:href="#ArialMT-65" transform="translate(1228.271484 0)"/>
       <use xlink:href="#ArialMT-2d" transform="translate(1283.886719 0)"/>
       <use xlink:href="#ArialMT-74" transform="translate(1317.1875 0)"/>
       <use xlink:href="#ArialMT-75" transform="translate(1344.970703 0)"/>
       <use xlink:href="#ArialMT-6e" transform="translate(1400.585938 0)"/>
       <use xlink:href="#ArialMT-65" transform="translate(1456.201172 0)"/>
       <use xlink:href="#ArialMT-64" transform="translate(1511.816406 0)"/>
      </g>
     </g>
    </g>
    <g id="xtick_3">
     <g id="line2d_3">
      <g>
       <use xlink:href="#m06f4956df5" x="458.994535" y="294.812091" style="stroke: #000000; stroke-width: 0.8"/>
      </g>
     </g>
     <g id="text_3">
      <!-- [bert-base-uncased] Pre-trained -->
      <g transform="translate(357.763361 406.699229) rotate(-45) scale(0.1 -0.1)">
       <defs>
        <path id="ArialMT-63" d="M 2588 1216 
L 3141 1144 
Q 3050 572 2676 248 
Q 2303 -75 1759 -75 
Q 1078 -75 664 370 
Q 250 816 250 1647 
Q 250 2184 428 2587 
Q 606 2991 970 3192 
Q 1334 3394 1763 3394 
Q 2303 3394 2647 3120 
Q 2991 2847 3088 2344 
L 2541 2259 
Q 2463 2594 2264 2762 
Q 2066 2931 1784 2931 
Q 1359 2931 1093 2626 
Q 828 2322 828 1663 
Q 828 994 1084 691 
Q 1341 388 1753 388 
Q 2084 388 2306 591 
Q 2528 794 2588 1216 
z
" transform="scale(0.015625)"/>
       </defs>
       <use xlink:href="#ArialMT-5b"/>
       <use xlink:href="#ArialMT-62" transform="translate(27.783203 0)"/>
       <use xlink:href="#ArialMT-65" transform="translate(83.398438 0)"/>
       <use xlink:href="#ArialMT-72" transform="translate(139.013672 0)"/>
       <use xlink:href="#ArialMT-74" transform="translate(172.314453 0)"/>
       <use xlink:href="#ArialMT-2d" transform="translate(200.097656 0)"/>
       <use xlink:href="#ArialMT-62" transform="translate(233.398438 0)"/>
       <use xlink:href="#ArialMT-61" transform="translate(289.013672 0)"/>
       <use xlink:href="#ArialMT-73" transform="translate(344.628906 0)"/>
       <use xlink:href="#ArialMT-65" transform="translate(394.628906 0)"/>
       <use xlink:href="#ArialMT-2d" transform="translate(450.244141 0)"/>
       <use xlink:href="#ArialMT-75" transform="translate(483.544922 0)"/>
       <use xlink:href="#ArialMT-6e" transform="translate(539.160156 0)"/>
       <use xlink:href="#ArialMT-63" transform="translate(594.775391 0)"/>
       <use xlink:href="#ArialMT-61" transform="translate(644.775391 0)"/>
       <use xlink:href="#ArialMT-73" transform="translate(700.390625 0)"/>
       <use xlink:href="#ArialMT-65" transform="translate(750.390625 0)"/>
       <use xlink:href="#ArialMT-64" transform="translate(806.005859 0)"/>
       <use xlink:href="#ArialMT-5d" transform="translate(861.621094 0)"/>
       <use xlink:href="#ArialMT-20" transform="translate(889.404297 0)"/>
       <use xlink:href="#ArialMT-50" transform="translate(917.1875 0)"/>
       <use xlink:href="#ArialMT-72" transform="translate(983.886719 0)"/>
       <use xlink:href="#ArialMT-65" transform="translate(1017.1875 0)"/>
       <use xlink:href="#ArialMT-2d" transform="translate(1072.802734 0)"/>
       <use xlink:href="#ArialMT-74" transform="translate(1106.103516 0)"/>
       <use xlink:href="#ArialMT-72" transform="translate(1133.886719 0)"/>
       <use xlink:href="#ArialMT-61" transform="translate(1167.1875 0)"/>
       <use xlink:href="#ArialMT-69" transform="translate(1222.802734 0)"/>
       <use xlink:href="#ArialMT-6e" transform="translate(1245.019531 0)"/>
       <use xlink:href="#ArialMT-65" transform="translate(1300.634766 0)"/>
       <use xlink:href="#ArialMT-64" transform="translate(1356.25 0)"/>
      </g>
     </g>
    </g>
    <g id="xtick_4">
     <g id="line2d_4">
      <g>
       <use xlink:href="#m06f4956df5" x="616.356463" y="294.812091" style="stroke: #000000; stroke-width: 0.8"/>
      </g>
     </g>
     <g id="text_4">
      <!-- [bert-base-uncased] Fine-tuned -->
      <g transform="translate(516.299748 405.524768) rotate(-45) scale(0.1 -0.1)">
       <use xlink:href="#ArialMT-5b"/>
       <use xlink:href="#ArialMT-62" transform="translate(27.783203 0)"/>
       <use xlink:href="#ArialMT-65" transform="translate(83.398438 0)"/>
       <use xlink:href="#ArialMT-72" transform="translate(139.013672 0)"/>
       <use xlink:href="#ArialMT-74" transform="translate(172.314453 0)"/>
       <use xlink:href="#ArialMT-2d" transform="translate(200.097656 0)"/>
       <use xlink:href="#ArialMT-62" transform="translate(233.398438 0)"/>
       <use xlink:href="#ArialMT-61" transform="translate(289.013672 0)"/>
       <use xlink:href="#ArialMT-73" transform="translate(344.628906 0)"/>
       <use xlink:href="#ArialMT-65" transform="translate(394.628906 0)"/>
       <use xlink:href="#ArialMT-2d" transform="translate(450.244141 0)"/>
       <use xlink:href="#ArialMT-75" transform="translate(483.544922 0)"/>
       <use xlink:href="#ArialMT-6e" transform="translate(539.160156 0)"/>
       <use xlink:href="#ArialMT-63" transform="translate(594.775391 0)"/>
       <use xlink:href="#ArialMT-61" transform="translate(644.775391 0)"/>
       <use xlink:href="#ArialMT-73" transform="translate(700.390625 0)"/>
       <use xlink:href="#ArialMT-65" transform="translate(750.390625 0)"/>
       <use xlink:href="#ArialMT-64" transform="translate(806.005859 0)"/>
       <use xlink:href="#ArialMT-5d" transform="translate(861.621094 0)"/>
       <use xlink:href="#ArialMT-20" transform="translate(889.404297 0)"/>
       <use xlink:href="#ArialMT-46" transform="translate(917.1875 0)"/>
       <use xlink:href="#ArialMT-69" transform="translate(978.271484 0)"/>
       <use xlink:href="#ArialMT-6e" transform="translate(1000.488281 0)"/>
       <use xlink:href="#ArialMT-65" transform="translate(1056.103516 0)"/>
       <use xlink:href="#ArialMT-2d" transform="translate(1111.71875 0)"/>
       <use xlink:href="#ArialMT-74" transform="translate(1145.019531 0)"/>
       <use xlink:href="#ArialMT-75" transform="translate(1172.802734 0)"/>
       <use xlink:href="#ArialMT-6e" transform="translate(1228.417969 0)"/>
       <use xlink:href="#ArialMT-65" transform="translate(1284.033203 0)"/>
       <use xlink:href="#ArialMT-64" transform="translate(1339.648438 0)"/>
      </g>
     </g>
    </g>
   </g>
   <g id="matplotlib.axis_2">
    <g id="ytick_1">
     <g id="line2d_5">
      <defs>
       <path id="m5effa9b461" d="M 0 0 
L -3.5 0 
" style="stroke: #000000; stroke-width: 0.8"/>
      </defs>
      <g>
       <use xlink:href="#m5effa9b461" x="51.427143" y="294.812091" style="stroke: #000000; stroke-width: 0.8"/>
      </g>
     </g>
     <g id="text_5">
      <!-- 0.0 -->
      <g transform="translate(30.527143 298.390997) scale(0.1 -0.1)">
       <defs>
        <path id="ArialMT-30" d="M 266 2259 
Q 266 3072 433 3567 
Q 600 4063 929 4331 
Q 1259 4600 1759 4600 
Q 2128 4600 2406 4451 
Q 2684 4303 2865 4023 
Q 3047 3744 3150 3342 
Q 3253 2941 3253 2259 
Q 3253 1453 3087 958 
Q 2922 463 2592 192 
Q 2263 -78 1759 -78 
Q 1097 -78 719 397 
Q 266 969 266 2259 
z
M 844 2259 
Q 844 1131 1108 757 
Q 1372 384 1759 384 
Q 2147 384 2411 759 
Q 2675 1134 2675 2259 
Q 2675 3391 2411 3762 
Q 2147 4134 1753 4134 
Q 1366 4134 1134 3806 
Q 844 3388 844 2259 
z
" transform="scale(0.015625)"/>
        <path id="ArialMT-2e" d="M 581 0 
L 581 641 
L 1222 641 
L 1222 0 
L 581 0 
z
" transform="scale(0.015625)"/>
       </defs>
       <use xlink:href="#ArialMT-30"/>
       <use xlink:href="#ArialMT-2e" transform="translate(55.615234 0)"/>
       <use xlink:href="#ArialMT-30" transform="translate(83.398438 0)"/>
      </g>
     </g>
    </g>
    <g id="ytick_2">
     <g id="line2d_6">
      <g>
       <use xlink:href="#m5effa9b461" x="51.427143" y="240.948923" style="stroke: #000000; stroke-width: 0.8"/>
      </g>
     </g>
     <g id="text_6">
      <!-- 0.2 -->
      <g transform="translate(30.527143 244.527829) scale(0.1 -0.1)">
       <defs>
        <path id="ArialMT-32" d="M 3222 541 
L 3222 0 
L 194 0 
Q 188 203 259 391 
Q 375 700 629 1000 
Q 884 1300 1366 1694 
Q 2113 2306 2375 2664 
Q 2638 3022 2638 3341 
Q 2638 3675 2398 3904 
Q 2159 4134 1775 4134 
Q 1369 4134 1125 3890 
Q 881 3647 878 3216 
L 300 3275 
Q 359 3922 746 4261 
Q 1134 4600 1788 4600 
Q 2447 4600 2831 4234 
Q 3216 3869 3216 3328 
Q 3216 3053 3103 2787 
Q 2991 2522 2730 2228 
Q 2469 1934 1863 1422 
Q 1356 997 1212 845 
Q 1069 694 975 541 
L 3222 541 
z
" transform="scale(0.015625)"/>
       </defs>
       <use xlink:href="#ArialMT-30"/>
       <use xlink:href="#ArialMT-2e" transform="translate(55.615234 0)"/>
       <use xlink:href="#ArialMT-32" transform="translate(83.398438 0)"/>
      </g>
     </g>
    </g>
    <g id="ytick_3">
     <g id="line2d_7">
      <g>
       <use xlink:href="#m5effa9b461" x="51.427143" y="187.085755" style="stroke: #000000; stroke-width: 0.8"/>
      </g>
     </g>
     <g id="text_7">
      <!-- 0.4 -->
      <g transform="translate(30.527143 190.664661) scale(0.1 -0.1)">
       <defs>
        <path id="ArialMT-34" d="M 2069 0 
L 2069 1097 
L 81 1097 
L 81 1613 
L 2172 4581 
L 2631 4581 
L 2631 1613 
L 3250 1613 
L 3250 1097 
L 2631 1097 
L 2631 0 
L 2069 0 
z
M 2069 1613 
L 2069 3678 
L 634 1613 
L 2069 1613 
z
" transform="scale(0.015625)"/>
       </defs>
       <use xlink:href="#ArialMT-30"/>
       <use xlink:href="#ArialMT-2e" transform="translate(55.615234 0)"/>
       <use xlink:href="#ArialMT-34" transform="translate(83.398438 0)"/>
      </g>
     </g>
    </g>
    <g id="ytick_4">
     <g id="line2d_8">
      <g>
       <use xlink:href="#m5effa9b461" x="51.427143" y="133.222586" style="stroke: #000000; stroke-width: 0.8"/>
      </g>
     </g>
     <g id="text_8">
      <!-- 0.6 -->
      <g transform="translate(30.527143 136.801493) scale(0.1 -0.1)">
       <defs>
        <path id="ArialMT-36" d="M 3184 3459 
L 2625 3416 
Q 2550 3747 2413 3897 
Q 2184 4138 1850 4138 
Q 1581 4138 1378 3988 
Q 1113 3794 959 3422 
Q 806 3050 800 2363 
Q 1003 2672 1297 2822 
Q 1591 2972 1913 2972 
Q 2475 2972 2870 2558 
Q 3266 2144 3266 1488 
Q 3266 1056 3080 686 
Q 2894 316 2569 119 
Q 2244 -78 1831 -78 
Q 1128 -78 684 439 
Q 241 956 241 2144 
Q 241 3472 731 4075 
Q 1159 4600 1884 4600 
Q 2425 4600 2770 4297 
Q 3116 3994 3184 3459 
z
M 888 1484 
Q 888 1194 1011 928 
Q 1134 663 1356 523 
Q 1578 384 1822 384 
Q 2178 384 2434 671 
Q 2691 959 2691 1453 
Q 2691 1928 2437 2201 
Q 2184 2475 1800 2475 
Q 1419 2475 1153 2201 
Q 888 1928 888 1484 
z
" transform="scale(0.015625)"/>
       </defs>
       <use xlink:href="#ArialMT-30"/>
       <use xlink:href="#ArialMT-2e" transform="translate(55.615234 0)"/>
       <use xlink:href="#ArialMT-36" transform="translate(83.398438 0)"/>
      </g>
     </g>
    </g>
    <g id="ytick_5">
     <g id="line2d_9">
      <g>
       <use xlink:href="#m5effa9b461" x="51.427143" y="79.359418" style="stroke: #000000; stroke-width: 0.8"/>
      </g>
     </g>
     <g id="text_9">
      <!-- 0.8 -->
      <g transform="translate(30.527143 82.938324) scale(0.1 -0.1)">
       <defs>
        <path id="ArialMT-38" d="M 1131 2484 
Q 781 2613 612 2850 
Q 444 3088 444 3419 
Q 444 3919 803 4259 
Q 1163 4600 1759 4600 
Q 2359 4600 2725 4251 
Q 3091 3903 3091 3403 
Q 3091 3084 2923 2848 
Q 2756 2613 2416 2484 
Q 2838 2347 3058 2040 
Q 3278 1734 3278 1309 
Q 3278 722 2862 322 
Q 2447 -78 1769 -78 
Q 1091 -78 675 323 
Q 259 725 259 1325 
Q 259 1772 486 2073 
Q 713 2375 1131 2484 
z
M 1019 3438 
Q 1019 3113 1228 2906 
Q 1438 2700 1772 2700 
Q 2097 2700 2305 2904 
Q 2513 3109 2513 3406 
Q 2513 3716 2298 3927 
Q 2084 4138 1766 4138 
Q 1444 4138 1231 3931 
Q 1019 3725 1019 3438 
z
M 838 1322 
Q 838 1081 952 856 
Q 1066 631 1291 507 
Q 1516 384 1775 384 
Q 2178 384 2440 643 
Q 2703 903 2703 1303 
Q 2703 1709 2433 1975 
Q 2163 2241 1756 2241 
Q 1359 2241 1098 1978 
Q 838 1716 838 1322 
z
" transform="scale(0.015625)"/>
       </defs>
       <use xlink:href="#ArialMT-30"/>
       <use xlink:href="#ArialMT-2e" transform="translate(55.615234 0)"/>
       <use xlink:href="#ArialMT-38" transform="translate(83.398438 0)"/>
      </g>
     </g>
    </g>
    <g id="ytick_6">
     <g id="line2d_10">
      <g>
       <use xlink:href="#m5effa9b461" x="51.427143" y="25.49625" style="stroke: #000000; stroke-width: 0.8"/>
      </g>
     </g>
     <g id="text_10">
      <!-- 1.0 -->
      <g transform="translate(30.527143 29.075156) scale(0.1 -0.1)">
       <defs>
        <path id="ArialMT-31" d="M 2384 0 
L 1822 0 
L 1822 3584 
Q 1619 3391 1289 3197 
Q 959 3003 697 2906 
L 697 3450 
Q 1169 3672 1522 3987 
Q 1875 4303 2022 4600 
L 2384 4600 
L 2384 0 
z
" transform="scale(0.015625)"/>
       </defs>
       <use xlink:href="#ArialMT-31"/>
       <use xlink:href="#ArialMT-2e" transform="translate(55.615234 0)"/>
       <use xlink:href="#ArialMT-30" transform="translate(83.398438 0)"/>
      </g>
     </g>
    </g>
    <g id="text_11">
     <!-- Classification Accuracy -->
     <g transform="translate(24.422456 211.283858) rotate(-90) scale(0.1 -0.1)">
      <defs>
       <path id="ArialMT-43" d="M 3763 1606 
L 4369 1453 
Q 4178 706 3683 314 
Q 3188 -78 2472 -78 
Q 1731 -78 1267 223 
Q 803 525 561 1097 
Q 319 1669 319 2325 
Q 319 3041 592 3573 
Q 866 4106 1370 4382 
Q 1875 4659 2481 4659 
Q 3169 4659 3637 4309 
Q 4106 3959 4291 3325 
L 3694 3184 
Q 3534 3684 3231 3912 
Q 2928 4141 2469 4141 
Q 1941 4141 1586 3887 
Q 1231 3634 1087 3207 
Q 944 2781 944 2328 
Q 944 1744 1114 1308 
Q 1284 872 1643 656 
Q 2003 441 2422 441 
Q 2931 441 3284 734 
Q 3638 1028 3763 1606 
z
" transform="scale(0.015625)"/>
       <path id="ArialMT-6c" d="M 409 0 
L 409 4581 
L 972 4581 
L 972 0 
L 409 0 
z
" transform="scale(0.015625)"/>
       <path id="ArialMT-66" d="M 556 0 
L 556 2881 
L 59 2881 
L 59 3319 
L 556 3319 
L 556 3672 
Q 556 4006 616 4169 
Q 697 4388 901 4523 
Q 1106 4659 1475 4659 
Q 1713 4659 2000 4603 
L 1916 4113 
Q 1741 4144 1584 4144 
Q 1328 4144 1222 4034 
Q 1116 3925 1116 3625 
L 1116 3319 
L 1763 3319 
L 1763 2881 
L 1116 2881 
L 1116 0 
L 556 0 
z
" transform="scale(0.015625)"/>
       <path id="ArialMT-41" d="M -9 0 
L 1750 4581 
L 2403 4581 
L 4278 0 
L 3588 0 
L 3053 1388 
L 1138 1388 
L 634 0 
L -9 0 
z
M 1313 1881 
L 2866 1881 
L 2388 3150 
Q 2169 3728 2063 4100 
Q 1975 3659 1816 3225 
L 1313 1881 
z
" transform="scale(0.015625)"/>
       <path id="ArialMT-79" d="M 397 -1278 
L 334 -750 
Q 519 -800 656 -800 
Q 844 -800 956 -737 
Q 1069 -675 1141 -563 
Q 1194 -478 1313 -144 
Q 1328 -97 1363 -6 
L 103 3319 
L 709 3319 
L 1400 1397 
Q 1534 1031 1641 628 
Q 1738 1016 1872 1384 
L 2581 3319 
L 3144 3319 
L 1881 -56 
Q 1678 -603 1566 -809 
Q 1416 -1088 1222 -1217 
Q 1028 -1347 759 -1347 
Q 597 -1347 397 -1278 
z
" transform="scale(0.015625)"/>
      </defs>
      <use xlink:href="#ArialMT-43"/>
      <use xlink:href="#ArialMT-6c" transform="translate(72.216797 0)"/>
      <use xlink:href="#ArialMT-61" transform="translate(94.433594 0)"/>
      <use xlink:href="#ArialMT-73" transform="translate(150.048828 0)"/>
      <use xlink:href="#ArialMT-73" transform="translate(200.048828 0)"/>
      <use xlink:href="#ArialMT-69" transform="translate(250.048828 0)"/>
      <use xlink:href="#ArialMT-66" transform="translate(272.265625 0)"/>
      <use xlink:href="#ArialMT-69" transform="translate(300.048828 0)"/>
      <use xlink:href="#ArialMT-63" transform="translate(322.265625 0)"/>
      <use xlink:href="#ArialMT-61" transform="translate(372.265625 0)"/>
      <use xlink:href="#ArialMT-74" transform="translate(427.880859 0)"/>
      <use xlink:href="#ArialMT-69" transform="translate(455.664062 0)"/>
      <use xlink:href="#ArialMT-6f" transform="translate(477.880859 0)"/>
      <use xlink:href="#ArialMT-6e" transform="translate(533.496094 0)"/>
      <use xlink:href="#ArialMT-20" transform="translate(589.111328 0)"/>
      <use xlink:href="#ArialMT-41" transform="translate(611.394531 0)"/>
      <use xlink:href="#ArialMT-63" transform="translate(678.09375 0)"/>
      <use xlink:href="#ArialMT-63" transform="translate(728.09375 0)"/>
      <use xlink:href="#ArialMT-75" transform="translate(778.09375 0)"/>
      <use xlink:href="#ArialMT-72" transform="translate(833.708984 0)"/>
      <use xlink:href="#ArialMT-61" transform="translate(867.009766 0)"/>
      <use xlink:href="#ArialMT-63" transform="translate(922.625 0)"/>
      <use xlink:href="#ArialMT-79" transform="translate(972.625 0)"/>
     </g>
    </g>
   </g>
   <g id="LineCollection_1">
    <path d="M 144.270681 32.57112 
L 144.270681 30.956465 
" clip-path="url(#pfbb15a2951)" style="fill: none; stroke: #000000; stroke-width: 1.5"/>
    <path d="M 301.632608 26.075154 
L 301.632608 25.647774 
" clip-path="url(#pfbb15a2951)" style="fill: none; stroke: #000000; stroke-width: 1.5"/>
    <path d="M 458.994535 51.422831 
L 458.994535 48.696837 
" clip-path="url(#pfbb15a2951)" style="fill: none; stroke: #000000; stroke-width: 1.5"/>
    <path d="M 616.356463 40.393431 
L 616.356463 37.93121 
" clip-path="url(#pfbb15a2951)" style="fill: none; stroke: #000000; stroke-width: 1.5"/>
   </g>
   <g id="line2d_11">
    <defs>
     <path id="m34927b2732" d="M 10 0 
L -10 -0 
" style="stroke: #000000"/>
    </defs>
    <g clip-path="url(#pfbb15a2951)">
     <use xlink:href="#m34927b2732" x="144.270681" y="32.57112" style="stroke: #000000"/>
     <use xlink:href="#m34927b2732" x="301.632608" y="26.075154" style="stroke: #000000"/>
     <use xlink:href="#m34927b2732" x="458.994535" y="51.422831" style="stroke: #000000"/>
     <use xlink:href="#m34927b2732" x="616.356463" y="40.393431" style="stroke: #000000"/>
    </g>
   </g>
   <g id="line2d_12">
    <g clip-path="url(#pfbb15a2951)">
     <use xlink:href="#m34927b2732" x="144.270681" y="30.956465" style="stroke: #000000"/>
     <use xlink:href="#m34927b2732" x="301.632608" y="25.647774" style="stroke: #000000"/>
     <use xlink:href="#m34927b2732" x="458.994535" y="48.696837" style="stroke: #000000"/>
     <use xlink:href="#m34927b2732" x="616.356463" y="37.93121" style="stroke: #000000"/>
    </g>
   </g>
   <g id="patch_7">
    <path d="M 51.427143 294.812091 
L 51.427143 25.49625 
" style="fill: none; stroke: #000000; stroke-width: 0.8; stroke-linejoin: miter; stroke-linecap: square"/>
   </g>
   <g id="patch_8">
    <path d="M 709.2 294.812091 
L 709.2 25.49625 
" style="fill: none; stroke: #000000; stroke-width: 0.8; stroke-linejoin: miter; stroke-linecap: square"/>
   </g>
   <g id="patch_9">
    <path d="M 51.427143 294.812091 
L 709.2 294.812091 
" style="fill: none; stroke: #000000; stroke-width: 0.8; stroke-linejoin: miter; stroke-linecap: square"/>
   </g>
   <g id="patch_10">
    <path d="M 51.427143 25.49625 
L 709.2 25.49625 
" style="fill: none; stroke: #000000; stroke-width: 0.8; stroke-linejoin: miter; stroke-linecap: square"/>
   </g>
   <g id="text_12">
    <!-- 0.977 -->
    <g transform="translate(131.759743 27.083134) scale(0.1 -0.1)">
     <defs>
      <path id="ArialMT-39" d="M 350 1059 
L 891 1109 
Q 959 728 1153 556 
Q 1347 384 1650 384 
Q 1909 384 2104 503 
Q 2300 622 2425 820 
Q 2550 1019 2634 1356 
Q 2719 1694 2719 2044 
Q 2719 2081 2716 2156 
Q 2547 1888 2255 1720 
Q 1963 1553 1622 1553 
Q 1053 1553 659 1965 
Q 266 2378 266 3053 
Q 266 3750 677 4175 
Q 1088 4600 1706 4600 
Q 2153 4600 2523 4359 
Q 2894 4119 3086 3673 
Q 3278 3228 3278 2384 
Q 3278 1506 3087 986 
Q 2897 466 2520 194 
Q 2144 -78 1638 -78 
Q 1100 -78 759 220 
Q 419 519 350 1059 
z
M 2653 3081 
Q 2653 3566 2395 3850 
Q 2138 4134 1775 4134 
Q 1400 4134 1122 3828 
Q 844 3522 844 3034 
Q 844 2597 1108 2323 
Q 1372 2050 1759 2050 
Q 2150 2050 2401 2323 
Q 2653 2597 2653 3081 
z
" transform="scale(0.015625)"/>
      <path id="ArialMT-37" d="M 303 3981 
L 303 4522 
L 3269 4522 
L 3269 4084 
Q 2831 3619 2401 2847 
Q 1972 2075 1738 1259 
Q 1569 684 1522 0 
L 944 0 
Q 953 541 1156 1306 
Q 1359 2072 1739 2783 
Q 2119 3494 2547 3981 
L 303 3981 
z
" transform="scale(0.015625)"/>
     </defs>
     <use xlink:href="#ArialMT-30"/>
     <use xlink:href="#ArialMT-2e" transform="translate(55.615234 0)"/>
     <use xlink:href="#ArialMT-39" transform="translate(83.398438 0)"/>
     <use xlink:href="#ArialMT-37" transform="translate(139.013672 0)"/>
     <use xlink:href="#ArialMT-37" transform="translate(194.628906 0)"/>
    </g>
   </g>
   <g id="text_13">
    <!-- 0.999 -->
    <g transform="translate(289.12167 21.180806) scale(0.1 -0.1)">
     <use xlink:href="#ArialMT-30"/>
     <use xlink:href="#ArialMT-2e" transform="translate(55.615234 0)"/>
     <use xlink:href="#ArialMT-39" transform="translate(83.398438 0)"/>
     <use xlink:href="#ArialMT-39" transform="translate(139.013672 0)"/>
     <use xlink:href="#ArialMT-39" transform="translate(194.628906 0)"/>
    </g>
   </g>
   <g id="text_14">
    <!-- 0.909 -->
    <g transform="translate(446.483598 45.379176) scale(0.1 -0.1)">
     <use xlink:href="#ArialMT-30"/>
     <use xlink:href="#ArialMT-2e" transform="translate(55.615234 0)"/>
     <use xlink:href="#ArialMT-39" transform="translate(83.398438 0)"/>
     <use xlink:href="#ArialMT-30" transform="translate(139.013672 0)"/>
     <use xlink:href="#ArialMT-39" transform="translate(194.628906 0)"/>
    </g>
   </g>
   <g id="text_15">
    <!-- 0.949 -->
    <g transform="translate(603.845525 34.481662) scale(0.1 -0.1)">
     <use xlink:href="#ArialMT-30"/>
     <use xlink:href="#ArialMT-2e" transform="translate(55.615234 0)"/>
     <use xlink:href="#ArialMT-39" transform="translate(83.398438 0)"/>
     <use xlink:href="#ArialMT-34" transform="translate(139.013672 0)"/>
     <use xlink:href="#ArialMT-39" transform="translate(194.628906 0)"/>
    </g>
   </g>
   <g id="text_16">
    <!-- Cancer Type Classification Accuracy by Model -->
    <g transform="translate(257.369822 19.49625) scale(0.12 -0.12)">
     <defs>
      <path id="ArialMT-54" d="M 1659 0 
L 1659 4041 
L 150 4041 
L 150 4581 
L 3781 4581 
L 3781 4041 
L 2266 4041 
L 2266 0 
L 1659 0 
z
" transform="scale(0.015625)"/>
      <path id="ArialMT-70" d="M 422 -1272 
L 422 3319 
L 934 3319 
L 934 2888 
Q 1116 3141 1344 3267 
Q 1572 3394 1897 3394 
Q 2322 3394 2647 3175 
Q 2972 2956 3137 2557 
Q 3303 2159 3303 1684 
Q 3303 1175 3120 767 
Q 2938 359 2589 142 
Q 2241 -75 1856 -75 
Q 1575 -75 1351 44 
Q 1128 163 984 344 
L 984 -1272 
L 422 -1272 
z
M 931 1641 
Q 931 1000 1190 694 
Q 1450 388 1819 388 
Q 2194 388 2461 705 
Q 2728 1022 2728 1688 
Q 2728 2322 2467 2637 
Q 2206 2953 1844 2953 
Q 1484 2953 1207 2617 
Q 931 2281 931 1641 
z
" transform="scale(0.015625)"/>
      <path id="ArialMT-4d" d="M 475 0 
L 475 4581 
L 1388 4581 
L 2472 1338 
Q 2622 884 2691 659 
Q 2769 909 2934 1394 
L 4031 4581 
L 4847 4581 
L 4847 0 
L 4263 0 
L 4263 3834 
L 2931 0 
L 2384 0 
L 1059 3900 
L 1059 0 
L 475 0 
z
" transform="scale(0.015625)"/>
     </defs>
     <use xlink:href="#ArialMT-43"/>
     <use xlink:href="#ArialMT-61" transform="translate(72.216797 0)"/>
     <use xlink:href="#ArialMT-6e" transform="translate(127.832031 0)"/>
     <use xlink:href="#ArialMT-63" transform="translate(183.447266 0)"/>
     <use xlink:href="#ArialMT-65" transform="translate(233.447266 0)"/>
     <use xlink:href="#ArialMT-72" transform="translate(289.0625 0)"/>
     <use xlink:href="#ArialMT-20" transform="translate(322.363281 0)"/>
     <use xlink:href="#ArialMT-54" transform="translate(348.396484 0)"/>
     <use xlink:href="#ArialMT-79" transform="translate(403.980469 0)"/>
     <use xlink:href="#ArialMT-70" transform="translate(453.980469 0)"/>
     <use xlink:href="#ArialMT-65" transform="translate(509.595703 0)"/>
     <use xlink:href="#ArialMT-20" transform="translate(565.210938 0)"/>
     <use xlink:href="#ArialMT-43" transform="translate(592.994141 0)"/>
     <use xlink:href="#ArialMT-6c" transform="translate(665.210938 0)"/>
     <use xlink:href="#ArialMT-61" transform="translate(687.427734 0)"/>
     <use xlink:href="#ArialMT-73" transform="translate(743.042969 0)"/>
     <use xlink:href="#ArialMT-73" transform="translate(793.042969 0)"/>
     <use xlink:href="#ArialMT-69" transform="translate(843.042969 0)"/>
     <use xlink:href="#ArialMT-66" transform="translate(865.259766 0)"/>
     <use xlink:href="#ArialMT-69" transform="translate(893.042969 0)"/>
     <use xlink:href="#ArialMT-63" transform="translate(915.259766 0)"/>
     <use xlink:href="#ArialMT-61" transform="translate(965.259766 0)"/>
     <use xlink:href="#ArialMT-74" transform="translate(1020.875 0)"/>
     <use xlink:href="#ArialMT-69" transform="translate(1048.658203 0)"/>
     <use xlink:href="#ArialMT-6f" transform="translate(1070.875 0)"/>
     <use xlink:href="#ArialMT-6e" transform="translate(1126.490234 0)"/>
     <use xlink:href="#ArialMT-20" transform="translate(1182.105469 0)"/>
     <use xlink:href="#ArialMT-41" transform="translate(1204.388672 0)"/>
     <use xlink:href="#ArialMT-63" transform="translate(1271.087891 0)"/>
     <use xlink:href="#ArialMT-63" transform="translate(1321.087891 0)"/>
     <use xlink:href="#ArialMT-75" transform="translate(1371.087891 0)"/>
     <use xlink:href="#ArialMT-72" transform="translate(1426.703125 0)"/>
     <use xlink:href="#ArialMT-61" transform="translate(1460.003906 0)"/>
     <use xlink:href="#ArialMT-63" transform="translate(1515.619141 0)"/>
     <use xlink:href="#ArialMT-79" transform="translate(1565.619141 0)"/>
     <use xlink:href="#ArialMT-20" transform="translate(1615.619141 0)"/>
     <use xlink:href="#ArialMT-62" transform="translate(1643.402344 0)"/>
     <use xlink:href="#ArialMT-79" transform="translate(1699.017578 0)"/>
     <use xlink:href="#ArialMT-20" transform="translate(1749.017578 0)"/>
     <use xlink:href="#ArialMT-4d" transform="translate(1776.800781 0)"/>
     <use xlink:href="#ArialMT-6f" transform="translate(1860.101562 0)"/>
     <use xlink:href="#ArialMT-64" transform="translate(1915.716797 0)"/>
     <use xlink:href="#ArialMT-65" transform="translate(1971.332031 0)"/>
     <use xlink:href="#ArialMT-6c" transform="translate(2026.947266 0)"/>
    </g>
   </g>
  </g>
 </g>
 <defs>
  <clipPath id="pfbb15a2951">
   <rect x="51.427143" y="25.49625" width="657.772857" height="269.315841"/>
  </clipPath>
 </defs>
</svg>
