<?xml version="1.0" encoding="utf-8" standalone="no"?>
<!DOCTYPE svg PUBLIC "-//W3C//DTD SVG 1.1//EN"
  "http://www.w3.org/Graphics/SVG/1.1/DTD/svg11.dtd">
<svg xmlns:xlink="http://www.w3.org/1999/xlink" width="712.8pt" height="424.8pt" viewBox="0 0 712.8 424.8" xmlns="http://www.w3.org/2000/svg" version="1.1">
 <metadata>
  <rdf:RDF xmlns:dc="http://purl.org/dc/elements/1.1/" xmlns:cc="http://creativecommons.org/ns#" xmlns:rdf="http://www.w3.org/1999/02/22-rdf-syntax-ns#">
   <cc:Work>
    <dc:type rdf:resource="http://purl.org/dc/dcmitype/StillImage"/>
    <dc:date>2025-04-04T10:39:45.800839</dc:date>
    <dc:format>image/svg+xml</dc:format>
    <dc:creator>
     <cc:Agent>
      <dc:title>Matplotlib v3.10.1, https://matplotlib.org/</dc:title>
     </cc:Agent>
    </dc:creator>
   </cc:Work>
  </rdf:RDF>
 </metadata>
 <defs>
  <style type="text/css">*{stroke-linejoin: round; stroke-linecap: butt}</style>
 </defs>
 <g id="figure_1">
  <g id="patch_1">
   <path d="M 0 424.8 
L 712.8 424.8 
L 712.8 0 
L 0 0 
z
" style="fill: #ffffff"/>
  </g>
  <g id="axes_1">
   <g id="patch_2">
    <path d="M 7.2 417.6 
L 705.6 417.6 
L 705.6 7.2 
L 7.2 7.2 
z
" style="fill: #ffffff"/>
   </g>
   <g id="FillBetweenPolyCollection_1">
    <defs>
     <path id="mde3a00de50" d="M 7.2 -398.057143 
L 7.2 -398.057143 
L 8.860661 -398.057143 
L 8.860661 -389.98079 
L 9.229696 -389.98079 
L 9.229696 -388.66677 
L 9.414214 -388.66677 
L 9.414214 -385.941356 
L 9.78325 -385.941356 
L 9.78325 -384.593308 
L 10.705839 -384.593308 
L 10.705839 -383.260976 
L 11.259392 -383.260976 
L 11.259392 -381.94395 
L 12.181982 -381.94395 
L 12.181982 -380.641109 
L 12.366499 -380.641109 
L 12.366499 -379.351199 
L 13.473606 -379.351199 
L 13.473606 -376.805536 
L 13.842642 -376.805536 
L 13.842642 -375.547763 
L 14.765231 -375.547763 
L 14.765231 -374.298886 
L 14.949749 -374.298886 
L 14.949749 -373.058178 
L 15.872338 -373.058178 
L 15.872338 -371.825003 
L 16.794927 -371.825003 
L 16.794927 -369.379079 
L 17.532999 -369.379079 
L 17.532999 -366.957362 
L 17.902034 -366.957362 
L 17.902034 -365.754627 
L 18.086552 -365.754627 
L 18.086552 -364.556875 
L 18.455588 -364.556875 
L 18.455588 -363.363823 
L 18.640106 -363.363823 
L 18.640106 -362.175215 
L 19.193659 -362.175215 
L 19.193659 -359.810414 
L 19.931731 -359.810414 
L 19.931731 -358.633814 
L 20.85432 -358.633814 
L 20.85432 -357.460838 
L 21.223355 -357.460838 
L 21.223355 -356.291321 
L 22.145945 -356.291321 
L 22.145945 -355.125112 
L 22.51498 -355.125112 
L 22.51498 -353.962071 
L 23.437569 -353.962071 
L 23.437569 -352.802069 
L 23.991123 -352.802069 
L 23.991123 -350.490706 
L 24.360159 -350.490706 
L 24.360159 -349.339128 
L 26.389855 -349.339128 
L 26.389855 -348.190155 
L 26.75889 -348.190155 
L 26.75889 -347.043694 
L 27.312444 -347.043694 
L 27.312444 -345.899659 
L 29.157622 -345.899659 
L 29.157622 -344.757971 
L 29.34214 -344.757971 
L 29.34214 -343.618554 
L 29.711176 -343.618554 
L 29.711176 -342.481336 
L 29.895694 -342.481336 
L 29.895694 -341.346251 
L 31.556354 -341.346251 
L 31.556354 -339.082228 
L 32.847979 -339.082228 
L 32.847979 -337.953174 
L 33.770568 -337.953174 
L 33.770568 -336.826018 
L 34.139604 -336.826018 
L 34.139604 -335.70071 
L 34.693157 -335.70071 
L 34.693157 -334.577202 
L 35.431229 -334.577202 
L 35.431229 -333.455446 
L 36.1693 -333.455446 
L 36.1693 -332.3354 
L 37.091889 -332.3354 
L 37.091889 -331.217022 
L 37.460925 -331.217022 
L 37.460925 -330.100272 
L 37.82996 -330.100272 
L 37.82996 -327.871505 
L 38.198996 -327.871505 
L 38.198996 -325.648816 
L 38.75255 -325.648816 
L 38.75255 -324.539668 
L 39.121585 -324.539668 
L 39.121585 -323.431944 
L 42.073871 -323.431944 
L 42.073871 -322.325614 
L 42.442906 -322.325614 
L 42.442906 -321.220652 
L 44.472602 -321.220652 
L 44.472602 -320.117029 
L 44.841638 -320.117029 
L 44.841638 -319.014719 
L 45.210674 -319.014719 
L 45.210674 -316.813945 
L 46.133263 -316.813945 
L 46.133263 -315.715433 
L 47.793923 -315.715433 
L 47.793923 -314.618141 
L 48.347477 -314.618141 
L 48.347477 -313.522049 
L 48.531995 -313.522049 
L 48.531995 -312.427135 
L 50.192655 -312.427135 
L 50.192655 -310.240765 
L 50.561691 -310.240765 
L 50.561691 -309.149272 
L 51.853316 -309.149272 
L 51.853316 -308.058882 
L 52.037834 -308.058882 
L 52.037834 -306.969579 
L 52.775905 -306.969579 
L 52.775905 -305.881345 
L 52.960423 -305.881345 
L 52.960423 -304.794166 
L 53.329458 -304.794166 
L 53.329458 -302.622909 
L 54.621083 -302.622909 
L 54.621083 -301.538801 
L 54.805601 -301.538801 
L 54.805601 -300.455688 
L 54.990119 -300.455688 
L 54.990119 -299.373557 
L 55.543672 -299.373557 
L 55.543672 -297.212186 
L 57.388851 -297.212186 
L 57.388851 -296.132921 
L 57.757886 -296.132921 
L 57.757886 -295.054588 
L 57.942404 -295.054588 
L 57.942404 -293.977174 
L 58.126922 -293.977174 
L 58.126922 -292.900669 
L 58.495958 -292.900669 
L 58.495958 -291.82506 
L 58.680476 -291.82506 
L 58.680476 -290.750338 
L 59.787583 -290.750338 
L 59.787583 -289.676493 
L 60.525654 -289.676493 
L 60.525654 -288.603514 
L 61.448243 -288.603514 
L 61.448243 -287.531391 
L 61.817279 -287.531391 
L 61.817279 -286.460116 
L 63.293421 -286.460116 
L 63.293421 -285.389678 
L 63.477939 -285.389678 
L 63.477939 -284.320069 
L 64.585046 -284.320069 
L 64.585046 -282.183303 
L 64.954082 -282.183303 
L 64.954082 -281.11613 
L 66.245707 -281.11613 
L 66.245707 -278.984161 
L 67.721849 -278.984161 
L 67.721849 -277.919351 
L 67.906367 -277.919351 
L 67.906367 -276.855314 
L 69.197992 -276.855314 
L 69.197992 -274.729529 
L 69.936063 -274.729529 
L 69.936063 -273.667767 
L 70.305099 -273.667767 
L 70.305099 -272.60675 
L 70.674135 -272.60675 
L 70.674135 -271.546472 
L 71.227688 -271.546472 
L 71.227688 -270.486927 
L 71.596724 -270.486927 
L 71.596724 -269.428107 
L 71.781242 -269.428107 
L 71.781242 -267.312623 
L 72.519313 -267.312623 
L 72.519313 -266.255947 
L 72.888349 -266.255947 
L 72.888349 -265.199974 
L 73.257384 -265.199974 
L 73.257384 -264.144699 
L 73.441902 -264.144699 
L 73.441902 -263.090117 
L 73.995456 -263.090117 
L 73.995456 -262.036222 
L 74.549009 -262.036222 
L 74.549009 -260.983009 
L 75.471598 -260.983009 
L 75.471598 -259.930473 
L 76.025152 -259.930473 
L 76.025152 -258.878611 
L 76.394188 -258.878611 
L 76.394188 -257.827417 
L 76.763223 -257.827417 
L 76.763223 -256.776886 
L 76.947741 -256.776886 
L 76.947741 -254.677798 
L 79.900026 -254.677798 
L 79.900026 -253.629232 
L 80.084544 -253.629232 
L 80.084544 -252.581313 
L 80.269062 -252.581313 
L 80.269062 -250.487399 
L 82.483276 -250.487399 
L 82.483276 -249.441396 
L 83.405865 -249.441396 
L 83.405865 -248.396025 
L 83.590383 -248.396025 
L 83.590383 -247.351281 
L 83.774901 -247.351281 
L 83.774901 -246.307162 
L 83.959419 -246.307162 
L 83.959419 -245.263663 
L 84.512972 -245.263663 
L 84.512972 -244.220782 
L 84.882008 -244.220782 
L 84.882008 -243.178515 
L 88.756882 -243.178515 
L 88.756882 -242.13686 
L 89.310436 -242.13686 
L 89.310436 -241.095812 
L 89.494954 -241.095812 
L 89.494954 -239.015529 
L 89.863989 -239.015529 
L 89.863989 -237.976287 
L 90.602061 -237.976287 
L 90.602061 -236.937642 
L 92.078203 -236.937642 
L 92.078203 -235.899591 
L 93.369828 -235.899591 
L 93.369828 -234.862131 
L 93.738864 -234.862131 
L 93.738864 -233.825259 
L 94.661453 -233.825259 
L 94.661453 -232.788974 
L 94.845971 -232.788974 
L 94.845971 -231.753272 
L 95.215007 -231.753272 
L 95.215007 -230.718151 
L 95.399524 -230.718151 
L 95.399524 -229.68361 
L 95.76856 -229.68361 
L 95.76856 -228.649645 
L 96.322114 -228.649645 
L 96.322114 -227.616255 
L 96.506631 -227.616255 
L 96.506631 -226.583437 
L 96.691149 -226.583437 
L 96.691149 -225.55119 
L 97.798256 -225.55119 
L 97.798256 -224.519512 
L 98.35181 -224.519512 
L 98.35181 -223.4884 
L 98.720845 -223.4884 
L 98.720845 -222.457853 
L 100.566024 -222.457853 
L 100.566024 -221.427868 
L 102.042166 -221.427868 
L 102.042166 -220.398445 
L 102.226684 -220.398445 
L 102.226684 -219.369582 
L 102.780238 -219.369582 
L 102.780238 -218.341276 
L 105.17897 -218.341276 
L 105.17897 -217.313527 
L 107.393184 -217.313527 
L 107.393184 -216.286333 
L 108.131255 -216.286333 
L 108.131255 -214.233602 
L 108.684808 -214.233602 
L 108.684808 -212.183074 
L 109.053844 -212.183074 
L 109.053844 -211.158633 
L 109.238362 -211.158633 
L 109.238362 -210.134738 
L 109.607398 -210.134738 
L 109.607398 -209.111389 
L 109.976433 -209.111389 
L 109.976433 -208.088584 
L 110.160951 -208.088584 
L 110.160951 -207.066322 
L 110.529987 -207.066322 
L 110.529987 -206.044603 
L 110.714505 -206.044603 
L 110.714505 -205.023426 
L 110.899022 -205.023426 
L 110.899022 -204.002789 
L 111.08354 -204.002789 
L 111.08354 -202.982691 
L 111.452576 -202.982691 
L 111.452576 -201.963132 
L 112.559683 -201.963132 
L 112.559683 -200.944112 
L 112.744201 -200.944112 
L 112.744201 -199.925628 
L 113.113236 -199.925628 
L 113.113236 -198.907681 
L 115.511968 -198.907681 
L 115.511968 -197.89027 
L 116.065522 -197.89027 
L 116.065522 -196.873394 
L 117.726182 -196.873394 
L 117.726182 -195.857053 
L 119.202325 -195.857053 
L 119.202325 -194.841246 
L 119.386843 -194.841246 
L 119.386843 -192.811234 
L 120.124914 -192.811234 
L 120.124914 -190.783352 
L 120.678468 -190.783352 
L 120.678468 -189.770211 
L 121.416539 -189.770211 
L 121.416539 -188.757601 
L 122.339128 -188.757601 
L 122.339128 -186.733976 
L 122.892682 -186.733976 
L 122.892682 -185.722961 
L 123.999789 -185.722961 
L 123.999789 -184.712478 
L 124.73786 -184.712478 
L 124.73786 -183.702526 
L 125.291413 -183.702526 
L 125.291413 -182.693105 
L 125.844967 -182.693105 
L 125.844967 -180.675859 
L 126.214003 -180.675859 
L 126.214003 -179.668033 
L 128.98177 -179.668033 
L 128.98177 -178.660739 
L 129.166288 -178.660739 
L 129.166288 -177.653977 
L 129.535324 -177.653977 
L 129.535324 -176.647748 
L 131.749538 -176.647748 
L 131.749538 -175.642051 
L 132.487609 -175.642051 
L 132.487609 -174.636887 
L 132.672127 -174.636887 
L 132.672127 -173.632257 
L 135.255376 -173.632257 
L 135.255376 -172.62816 
L 135.624412 -172.62816 
L 135.624412 -171.624598 
L 136.547001 -171.624598 
L 136.547001 -170.62157 
L 138.023144 -170.62157 
L 138.023144 -169.619078 
L 138.39218 -169.619078 
L 138.39218 -168.617122 
L 138.576697 -168.617122 
L 138.576697 -167.615703 
L 140.421876 -167.615703 
L 140.421876 -166.614821 
L 141.344465 -166.614821 
L 141.344465 -165.614477 
L 141.528983 -165.614477 
L 141.528983 -164.614672 
L 143.558679 -164.614672 
L 143.558679 -163.615407 
L 148.909696 -163.615407 
L 148.909696 -161.6185 
L 149.278732 -161.6185 
L 149.278732 -159.623762 
L 149.832285 -159.623762 
L 149.832285 -158.62721 
L 150.570357 -158.62721 
L 150.570357 -157.631204 
L 151.492946 -157.631204 
L 151.492946 -156.635744 
L 152.046499 -156.635744 
L 152.046499 -155.640833 
L 153.338124 -155.640833 
L 153.338124 -154.646471 
L 155.183303 -154.646471 
L 155.183303 -153.65266 
L 158.320106 -153.65266 
L 158.320106 -151.666696 
L 158.504624 -151.666696 
L 158.504624 -150.674545 
L 158.689141 -150.674545 
L 158.689141 -149.682951 
L 158.873659 -149.682951 
L 158.873659 -148.691915 
L 159.980766 -148.691915 
L 159.980766 -147.701439 
L 160.165284 -147.701439 
L 160.165284 -145.722173 
L 161.087873 -145.722173 
L 161.087873 -144.733387 
L 162.379498 -144.733387 
L 162.379498 -143.745167 
L 164.962748 -143.745167 
L 164.962748 -142.757516 
L 166.623408 -142.757516 
L 166.623408 -140.783928 
L 167.36148 -140.783928 
L 167.36148 -139.797995 
L 169.206658 -139.797995 
L 169.206658 -138.81264 
L 169.575694 -138.81264 
L 169.575694 -137.827863 
L 169.760211 -137.827863 
L 169.760211 -136.843668 
L 170.129247 -136.843668 
L 170.129247 -135.860057 
L 170.867318 -135.860057 
L 170.867318 -134.877032 
L 173.081532 -134.877032 
L 173.081532 -133.894596 
L 175.8493 -133.894596 
L 175.8493 -132.912751 
L 178.986103 -132.912751 
L 178.986103 -131.9315 
L 179.170621 -131.9315 
L 179.170621 -130.950845 
L 181.753871 -130.950845 
L 181.753871 -129.97079 
L 182.307424 -129.97079 
L 182.307424 -128.991337 
L 182.67646 -128.991337 
L 182.67646 -127.034249 
L 183.045495 -127.034249 
L 183.045495 -126.05662 
L 187.289406 -126.05662 
L 187.289406 -125.079605 
L 187.658441 -125.079605 
L 187.658441 -124.103208 
L 188.765548 -124.103208 
L 188.765548 -123.127431 
L 190.241691 -123.127431 
L 190.241691 -122.152279 
L 191.717834 -122.152279 
L 191.717834 -121.177754 
L 192.455905 -121.177754 
L 192.455905 -119.230602 
L 192.640423 -119.230602 
L 192.640423 -117.286004 
L 197.806922 -117.286004 
L 197.806922 -116.314673 
L 197.99144 -116.314673 
L 197.99144 -115.343992 
L 198.360476 -115.343992 
L 198.360476 -114.373966 
L 198.729511 -114.373966 
L 198.729511 -113.404598 
L 198.914029 -113.404598 
L 198.914029 -112.435894 
L 199.6521 -112.435894 
L 199.6521 -111.467857 
L 202.604386 -111.467857 
L 202.604386 -110.500493 
L 203.526975 -110.500493 
L 203.526975 -108.5678 
L 204.449564 -108.5678 
L 204.449564 -107.60248 
L 205.556671 -107.60248 
L 205.556671 -105.673922 
L 205.925707 -105.673922 
L 205.925707 -104.710694 
L 206.110225 -104.710694 
L 206.110225 -103.748173 
L 206.848296 -103.748173 
L 206.848296 -102.786366 
L 208.139921 -102.786366 
L 208.139921 -101.825277 
L 208.508956 -101.825277 
L 208.508956 -100.864914 
L 208.693474 -100.864914 
L 208.693474 -99.905281 
L 210.907688 -99.905281 
L 210.907688 -98.946386 
L 212.199313 -98.946386 
L 212.199313 -97.988234 
L 214.413527 -97.988234 
L 214.413527 -97.030832 
L 216.258705 -97.030832 
L 216.258705 -96.074187 
L 219.210991 -96.074187 
L 219.210991 -95.118305 
L 220.318098 -95.118305 
L 220.318098 -94.163194 
L 220.502616 -94.163194 
L 220.502616 -93.208861 
L 220.687133 -93.208861 
L 220.687133 -92.255313 
L 221.79424 -92.255313 
L 221.79424 -91.302559 
L 223.639419 -91.302559 
L 223.639419 -90.350605 
L 228.6214 -90.350605 
L 228.6214 -89.39946 
L 230.466579 -89.39946 
L 230.466579 -87.49963 
L 234.156935 -87.49963 
L 234.156935 -86.550962 
L 237.662774 -86.550962 
L 237.662774 -85.603138 
L 241.537649 -85.603138 
L 241.537649 -83.710057 
L 242.460238 -83.710057 
L 242.460238 -82.764819 
L 243.013791 -82.764819 
L 243.013791 -81.820464 
L 243.198309 -81.820464 
L 243.198309 -80.877001 
L 244.85897 -80.877001 
L 244.85897 -79.934442 
L 245.966077 -79.934442 
L 245.966077 -78.992796 
L 250.209987 -78.992796 
L 250.209987 -78.052076 
L 253.900343 -78.052076 
L 253.900343 -77.112294 
L 255.00745 -77.112294 
L 255.00745 -76.17346 
L 255.93004 -76.17346 
L 255.93004 -75.235588 
L 257.221664 -75.235588 
L 257.221664 -73.36278 
L 259.435878 -73.36278 
L 259.435878 -72.427871 
L 259.804914 -72.427871 
L 259.804914 -71.493978 
L 260.358468 -71.493978 
L 260.358468 -69.629295 
L 264.971413 -69.629295 
L 264.971413 -68.698536 
L 266.447556 -68.698536 
L 266.447556 -67.768853 
L 269.215324 -67.768853 
L 269.215324 -66.840263 
L 271.429538 -66.840263 
L 271.429538 -65.912783 
L 277.14959 -65.912783 
L 277.14959 -64.98643 
L 278.441215 -64.98643 
L 278.441215 -64.061224 
L 280.839947 -64.061224 
L 280.839947 -63.137182 
L 281.024465 -63.137182 
L 281.024465 -62.214326 
L 282.500608 -62.214326 
L 282.500608 -60.372248 
L 282.685125 -60.372248 
L 282.685125 -59.453071 
L 289.881321 -59.453071 
L 289.881321 -58.535165 
L 290.619392 -58.535165 
L 290.619392 -57.618553 
L 293.571678 -57.618553 
L 293.571678 -56.703261 
L 294.309749 -56.703261 
L 294.309749 -55.789314 
L 295.04782 -55.789314 
L 295.04782 -54.876739 
L 299.291731 -54.876739 
L 299.291731 -53.055815 
L 300.583355 -53.055815 
L 300.583355 -52.147526 
L 302.059498 -52.147526 
L 302.059498 -51.240728 
L 306.487926 -51.240728 
L 306.487926 -50.335452 
L 307.04148 -50.335452 
L 307.04148 -49.431733 
L 307.225997 -49.431733 
L 307.225997 -48.529608 
L 309.624729 -48.529608 
L 309.624729 -47.629113 
L 310.916354 -47.629113 
L 310.916354 -46.730289 
L 311.654425 -46.730289 
L 311.654425 -45.833175 
L 312.023461 -45.833175 
L 312.023461 -44.937817 
L 313.684122 -44.937817 
L 313.684122 -44.044259 
L 317.18996 -44.044259 
L 317.18996 -43.152548 
L 319.77321 -43.152548 
L 319.77321 -42.262736 
L 323.463567 -42.262736 
L 323.463567 -41.374875 
L 324.201638 -41.374875 
L 324.201638 -40.489022 
L 327.522959 -40.489022 
L 327.522959 -39.605234 
L 328.630066 -39.605234 
L 328.630066 -38.723574 
L 336.379815 -38.723574 
L 336.379815 -37.844109 
L 338.040476 -37.844109 
L 338.040476 -36.966908 
L 339.147583 -36.966908 
L 339.147583 -36.092046 
L 340.070172 -36.092046 
L 340.070172 -35.219601 
L 344.867635 -35.219601 
L 344.867635 -34.349657 
L 349.665099 -34.349657 
L 349.665099 -33.482303 
L 352.063831 -33.482303 
L 352.063831 -32.617636 
L 356.123223 -32.617636 
L 356.123223 -31.755757 
L 359.998098 -31.755757 
L 359.998098 -30.040811 
L 361.289723 -30.040811 
L 361.289723 -29.187988 
L 369.593025 -29.187988 
L 369.593025 -28.338444 
L 370.700132 -28.338444 
L 370.700132 -27.492326 
L 371.069168 -27.492326 
L 371.069168 -26.649795 
L 373.283382 -26.649795 
L 373.283382 -25.811024 
L 373.652417 -25.811024 
L 373.652417 -24.976204 
L 374.944042 -24.976204 
L 374.944042 -24.145542 
L 376.789221 -24.145542 
L 376.789221 -23.319265 
L 377.896328 -23.319265 
L 377.896328 -22.497625 
L 394.133897 -22.497625 
L 394.133897 -21.680899 
L 395.61004 -21.680899 
L 395.61004 -20.869394 
L 397.639736 -20.869394 
L 397.639736 -20.063455 
L 400.776539 -20.063455 
L 400.776539 -19.263466 
L 400.961057 -19.263466 
L 400.961057 -18.469861 
L 404.651413 -18.469861 
L 404.651413 -17.683135 
L 408.34177 -17.683135 
L 408.34177 -16.903849 
L 418.121215 -16.903849 
L 418.121215 -16.132651 
L 423.472232 -16.132651 
L 423.472232 -15.370294 
L 431.406499 -15.370294 
L 431.406499 -14.617659 
L 439.525284 -14.617659 
L 439.525284 -13.875791 
L 447.459551 -13.875791 
L 447.459551 -13.145944 
L 460.006764 -13.145944 
L 460.006764 -12.429644 
L 460.375799 -12.429644 
L 460.375799 -11.728781 
L 466.649406 -11.728781 
L 466.649406 -11.045746 
L 476.244333 -11.045746 
L 476.244333 -10.383635 
L 484.547635 -10.383635 
L 484.547635 -9.746583 
L 514.439524 -9.746583 
L 514.439524 -9.140333 
L 516.284703 -9.140333 
L 516.284703 -8.573274 
L 608.359102 -8.573274 
L 608.359102 -8.058539 
L 625.150225 -8.058539 
L 625.150225 -7.618873 
L 674.231968 -7.618873 
L 674.231968 -7.300254 
L 705.6 -7.300254 
L 705.6 -7.2 
L 705.6 -7.2 
L 705.6 -7.2 
L 705.6 -12.596503 
L 674.231968 -12.596503 
L 674.231968 -14.064434 
L 625.150225 -14.064434 
L 625.150225 -15.548831 
L 608.359102 -15.548831 
L 608.359102 -16.994137 
L 516.284703 -16.994137 
L 516.284703 -18.402722 
L 514.439524 -18.402722 
L 514.439524 -19.780708 
L 484.547635 -19.780708 
L 484.547635 -21.133334 
L 476.244333 -21.133334 
L 476.244333 -22.464674 
L 466.649406 -22.464674 
L 466.649406 -23.77788 
L 460.375799 -23.77788 
L 460.375799 -25.075417 
L 460.006764 -25.075417 
L 460.006764 -26.359246 
L 447.459551 -26.359246 
L 447.459551 -27.630951 
L 439.525284 -27.630951 
L 439.525284 -28.891833 
L 431.406499 -28.891833 
L 431.406499 -30.142973 
L 423.472232 -30.142973 
L 423.472232 -31.38528 
L 418.121215 -31.38528 
L 418.121215 -32.619527 
L 408.34177 -32.619527 
L 408.34177 -33.846379 
L 404.651413 -33.846379 
L 404.651413 -35.066412 
L 400.961057 -35.066412 
L 400.961057 -36.280127 
L 400.776539 -36.280127 
L 400.776539 -37.487965 
L 397.639736 -37.487965 
L 397.639736 -38.690318 
L 395.61004 -38.690318 
L 395.61004 -39.887531 
L 394.133897 -39.887531 
L 394.133897 -41.079916 
L 377.896328 -41.079916 
L 377.896328 -42.267751 
L 376.789221 -42.267751 
L 376.789221 -43.451288 
L 374.944042 -43.451288 
L 374.944042 -44.630756 
L 373.652417 -44.630756 
L 373.652417 -45.80636 
L 373.283382 -45.80636 
L 373.283382 -46.978291 
L 371.069168 -46.978291 
L 371.069168 -48.146722 
L 370.700132 -48.146722 
L 370.700132 -49.311812 
L 369.593025 -49.311812 
L 369.593025 -50.473708 
L 361.289723 -50.473708 
L 361.289723 -51.632544 
L 359.998098 -51.632544 
L 359.998098 -53.941533 
L 356.123223 -53.941533 
L 356.123223 -55.091909 
L 352.063831 -55.091909 
L 352.063831 -56.239677 
L 349.665099 -56.239677 
L 349.665099 -57.384931 
L 344.867635 -57.384931 
L 344.867635 -58.527758 
L 340.070172 -58.527758 
L 340.070172 -59.668241 
L 339.147583 -59.668241 
L 339.147583 -60.806457 
L 338.040476 -60.806457 
L 338.040476 -61.94248 
L 336.379815 -61.94248 
L 336.379815 -63.076377 
L 328.630066 -63.076377 
L 328.630066 -64.208213 
L 327.522959 -64.208213 
L 327.522959 -65.33805 
L 324.201638 -65.33805 
L 324.201638 -66.465945 
L 323.463567 -66.465945 
L 323.463567 -67.591952 
L 319.77321 -67.591952 
L 319.77321 -68.716123 
L 317.18996 -68.716123 
L 317.18996 -69.838508 
L 313.684122 -69.838508 
L 313.684122 -70.959152 
L 312.023461 -70.959152 
L 312.023461 -72.0781 
L 311.654425 -72.0781 
L 311.654425 -73.195394 
L 310.916354 -73.195394 
L 310.916354 -74.311075 
L 309.624729 -74.311075 
L 309.624729 -75.42518 
L 307.225997 -75.42518 
L 307.225997 -76.537747 
L 307.04148 -76.537747 
L 307.04148 -77.648809 
L 306.487926 -77.648809 
L 306.487926 -78.758401 
L 302.059498 -78.758401 
L 302.059498 -79.866554 
L 300.583355 -79.866554 
L 300.583355 -80.973299 
L 299.291731 -80.973299 
L 299.291731 -83.182679 
L 295.04782 -83.182679 
L 295.04782 -84.28537 
L 294.309749 -84.28537 
L 294.309749 -85.386763 
L 293.571678 -85.386763 
L 293.571678 -86.486882 
L 290.619392 -86.486882 
L 290.619392 -87.585751 
L 289.881321 -87.585751 
L 289.881321 -88.683394 
L 282.685125 -88.683394 
L 282.685125 -89.779832 
L 282.500608 -89.779832 
L 282.500608 -91.969178 
L 281.024465 -91.969178 
L 281.024465 -93.062127 
L 280.839947 -93.062127 
L 280.839947 -94.153951 
L 278.441215 -94.153951 
L 278.441215 -95.24467 
L 277.14959 -95.24467 
L 277.14959 -96.3343 
L 271.429538 -96.3343 
L 271.429538 -97.422859 
L 269.215324 -97.422859 
L 269.215324 -98.510364 
L 266.447556 -98.510364 
L 266.447556 -99.596829 
L 264.971413 -99.596829 
L 264.971413 -100.682272 
L 260.358468 -100.682272 
L 260.358468 -102.850147 
L 259.804914 -102.850147 
L 259.804914 -103.932607 
L 259.435878 -103.932607 
L 259.435878 -105.014101 
L 257.221664 -105.014101 
L 257.221664 -107.174242 
L 255.93004 -107.174242 
L 255.93004 -108.252914 
L 255.00745 -108.252914 
L 255.00745 -109.330669 
L 253.900343 -109.330669 
L 253.900343 -110.40752 
L 250.209987 -110.40752 
L 250.209987 -111.483477 
L 245.966077 -111.483477 
L 245.966077 -112.558551 
L 244.85897 -112.558551 
L 244.85897 -113.632753 
L 243.198309 -113.632753 
L 243.198309 -114.706093 
L 243.013791 -114.706093 
L 243.013791 -115.778581 
L 242.460238 -115.778581 
L 242.460238 -116.850227 
L 241.537649 -116.850227 
L 241.537649 -118.991029 
L 237.662774 -118.991029 
L 237.662774 -120.060203 
L 234.156935 -120.060203 
L 234.156935 -121.128571 
L 230.466579 -121.128571 
L 230.466579 -123.262921 
L 228.6214 -123.262921 
L 228.6214 -124.328919 
L 223.639419 -124.328919 
L 223.639419 -125.394144 
L 221.79424 -125.394144 
L 221.79424 -126.458602 
L 220.687133 -126.458602 
L 220.687133 -127.5223 
L 220.502616 -127.5223 
L 220.502616 -128.585247 
L 220.318098 -128.585247 
L 220.318098 -129.647448 
L 219.210991 -129.647448 
L 219.210991 -130.708911 
L 216.258705 -130.708911 
L 216.258705 -131.769642 
L 214.413527 -131.769642 
L 214.413527 -132.829647 
L 212.199313 -132.829647 
L 212.199313 -133.888934 
L 210.907688 -133.888934 
L 210.907688 -134.947507 
L 208.693474 -134.947507 
L 208.693474 -136.005373 
L 208.508956 -136.005373 
L 208.508956 -137.062538 
L 208.139921 -137.062538 
L 208.139921 -138.119006 
L 206.848296 -138.119006 
L 206.848296 -139.174785 
L 206.110225 -139.174785 
L 206.110225 -140.229878 
L 205.925707 -140.229878 
L 205.925707 -141.284292 
L 205.556671 -141.284292 
L 205.556671 -143.3911 
L 204.449564 -143.3911 
L 204.449564 -144.443504 
L 203.526975 -144.443504 
L 203.526975 -146.546336 
L 202.604386 -146.546336 
L 202.604386 -147.596773 
L 199.6521 -147.596773 
L 199.6521 -148.646563 
L 198.914029 -148.646563 
L 198.914029 -149.695711 
L 198.729511 -149.695711 
L 198.729511 -150.74422 
L 198.360476 -150.74422 
L 198.360476 -151.792095 
L 197.99144 -151.792095 
L 197.99144 -152.839339 
L 197.806922 -152.839339 
L 197.806922 -153.885957 
L 192.640423 -153.885957 
L 192.640423 -155.977328 
L 192.455905 -155.977328 
L 192.455905 -158.066236 
L 191.717834 -158.066236 
L 191.717834 -159.109775 
L 190.241691 -159.109775 
L 190.241691 -160.152708 
L 188.765548 -160.152708 
L 188.765548 -161.19504 
L 187.658441 -161.19504 
L 187.658441 -162.236772 
L 187.289406 -162.236772 
L 187.289406 -163.277908 
L 183.045495 -163.277908 
L 183.045495 -164.318451 
L 182.67646 -164.318451 
L 182.67646 -166.397769 
L 182.307424 -166.397769 
L 182.307424 -167.436549 
L 181.753871 -167.436549 
L 181.753871 -168.474748 
L 179.170621 -168.474748 
L 179.170621 -169.512367 
L 178.986103 -169.512367 
L 178.986103 -170.54941 
L 175.8493 -170.54941 
L 175.8493 -171.585878 
L 173.081532 -171.585878 
L 173.081532 -172.621774 
L 170.867318 -172.621774 
L 170.867318 -173.657101 
L 170.129247 -173.657101 
L 170.129247 -174.69186 
L 169.760211 -174.69186 
L 169.760211 -175.726054 
L 169.575694 -175.726054 
L 169.575694 -176.759685 
L 169.206658 -176.759685 
L 169.206658 -177.792755 
L 167.36148 -177.792755 
L 167.36148 -178.825266 
L 166.623408 -178.825266 
L 166.623408 -180.88862 
L 164.962748 -180.88862 
L 164.962748 -181.919466 
L 162.379498 -181.919466 
L 162.379498 -182.949761 
L 161.087873 -182.949761 
L 161.087873 -183.979506 
L 160.165284 -183.979506 
L 160.165284 -186.037354 
L 159.980766 -186.037354 
L 159.980766 -187.06546 
L 158.873659 -187.06546 
L 158.873659 -188.093022 
L 158.689141 -188.093022 
L 158.689141 -189.120043 
L 158.504624 -189.120043 
L 158.504624 -190.146524 
L 158.320106 -190.146524 
L 158.320106 -192.197869 
L 155.183303 -192.197869 
L 155.183303 -193.222737 
L 153.338124 -193.222737 
L 153.338124 -194.247069 
L 152.046499 -194.247069 
L 152.046499 -195.270867 
L 151.492946 -195.270867 
L 151.492946 -196.294132 
L 150.570357 -196.294132 
L 150.570357 -197.316866 
L 149.832285 -197.316866 
L 149.832285 -198.339069 
L 149.278732 -198.339069 
L 149.278732 -200.381885 
L 148.909696 -200.381885 
L 148.909696 -202.42259 
L 143.558679 -202.42259 
L 143.558679 -203.442152 
L 141.528983 -203.442152 
L 141.528983 -204.461189 
L 141.344465 -204.461189 
L 141.344465 -205.479701 
L 140.421876 -205.479701 
L 140.421876 -206.497689 
L 138.576697 -206.497689 
L 138.576697 -207.515153 
L 138.39218 -207.515153 
L 138.39218 -208.532094 
L 138.023144 -208.532094 
L 138.023144 -209.548512 
L 136.547001 -209.548512 
L 136.547001 -210.564409 
L 135.624412 -210.564409 
L 135.624412 -211.579784 
L 135.255376 -211.579784 
L 135.255376 -212.594637 
L 132.672127 -212.594637 
L 132.672127 -213.60897 
L 132.487609 -213.60897 
L 132.487609 -214.622783 
L 131.749538 -214.622783 
L 131.749538 -215.636075 
L 129.535324 -215.636075 
L 129.535324 -216.648847 
L 129.166288 -216.648847 
L 129.166288 -217.6611 
L 128.98177 -217.6611 
L 128.98177 -218.672833 
L 126.214003 -218.672833 
L 126.214003 -219.684046 
L 125.844967 -219.684046 
L 125.844967 -221.704915 
L 125.291413 -221.704915 
L 125.291413 -222.71457 
L 124.73786 -222.71457 
L 124.73786 -223.723706 
L 123.999789 -223.723706 
L 123.999789 -224.732322 
L 122.892682 -224.732322 
L 122.892682 -225.740418 
L 122.339128 -225.740418 
L 122.339128 -227.755051 
L 121.416539 -227.755051 
L 121.416539 -228.761587 
L 120.678468 -228.761587 
L 120.678468 -229.767602 
L 120.124914 -229.767602 
L 120.124914 -231.778069 
L 119.386843 -231.778069 
L 119.386843 -233.786449 
L 119.202325 -233.786449 
L 119.202325 -234.789854 
L 117.726182 -234.789854 
L 117.726182 -235.792737 
L 116.065522 -235.792737 
L 116.065522 -236.795095 
L 115.511968 -236.795095 
L 115.511968 -237.796928 
L 113.113236 -237.796928 
L 113.113236 -238.798237 
L 112.744201 -238.798237 
L 112.744201 -239.799019 
L 112.559683 -239.799019 
L 112.559683 -240.799274 
L 111.452576 -240.799274 
L 111.452576 -241.799001 
L 111.08354 -241.799001 
L 111.08354 -242.7982 
L 110.899022 -242.7982 
L 110.899022 -243.79687 
L 110.714505 -243.79687 
L 110.714505 -244.795009 
L 110.529987 -244.795009 
L 110.529987 -245.792616 
L 110.160951 -245.792616 
L 110.160951 -246.789691 
L 109.976433 -246.789691 
L 109.976433 -247.786232 
L 109.607398 -247.786232 
L 109.607398 -248.782239 
L 109.238362 -248.782239 
L 109.238362 -249.777709 
L 109.053844 -249.777709 
L 109.053844 -250.772643 
L 108.684808 -250.772643 
L 108.684808 -252.760892 
L 108.131255 -252.760892 
L 108.131255 -254.746977 
L 107.393184 -254.746977 
L 107.393184 -255.739204 
L 105.17897 -255.739204 
L 105.17897 -256.730885 
L 102.780238 -256.730885 
L 102.780238 -257.722018 
L 102.226684 -257.722018 
L 102.226684 -258.712603 
L 102.042166 -258.712603 
L 102.042166 -259.702637 
L 100.566024 -259.702637 
L 100.566024 -260.692118 
L 98.720845 -260.692118 
L 98.720845 -261.681046 
L 98.35181 -261.681046 
L 98.35181 -262.669417 
L 97.798256 -262.669417 
L 97.798256 -263.65723 
L 96.691149 -263.65723 
L 96.691149 -264.644483 
L 96.506631 -264.644483 
L 96.506631 -265.631173 
L 96.322114 -265.631173 
L 96.322114 -266.6173 
L 95.76856 -266.6173 
L 95.76856 -267.60286 
L 95.399524 -267.60286 
L 95.399524 -268.587851 
L 95.215007 -268.587851 
L 95.215007 -269.572272 
L 94.845971 -269.572272 
L 94.845971 -270.556119 
L 94.661453 -270.556119 
L 94.661453 -271.53939 
L 93.738864 -271.53939 
L 93.738864 -272.522084 
L 93.369828 -272.522084 
L 93.369828 -273.504196 
L 92.078203 -273.504196 
L 92.078203 -274.485725 
L 90.602061 -274.485725 
L 90.602061 -275.466668 
L 89.863989 -275.466668 
L 89.863989 -276.447022 
L 89.494954 -276.447022 
L 89.494954 -278.405952 
L 89.310436 -278.405952 
L 89.310436 -279.384522 
L 88.756882 -279.384522 
L 88.756882 -280.362492 
L 84.882008 -280.362492 
L 84.882008 -281.339857 
L 84.512972 -281.339857 
L 84.512972 -282.316615 
L 83.959419 -282.316615 
L 83.959419 -283.292763 
L 83.774901 -283.292763 
L 83.774901 -284.268297 
L 83.590383 -284.268297 
L 83.590383 -285.243214 
L 83.405865 -285.243214 
L 83.405865 -286.21751 
L 82.483276 -286.21751 
L 82.483276 -287.191181 
L 80.269062 -287.191181 
L 80.269062 -289.136635 
L 80.084544 -289.136635 
L 80.084544 -290.108409 
L 79.900026 -290.108409 
L 79.900026 -291.079544 
L 76.947741 -291.079544 
L 76.947741 -293.019875 
L 76.763223 -293.019875 
L 76.763223 -293.989063 
L 76.394188 -293.989063 
L 76.394188 -294.957594 
L 76.025152 -294.957594 
L 76.025152 -295.925463 
L 75.471598 -295.925463 
L 75.471598 -296.892665 
L 74.549009 -296.892665 
L 74.549009 -297.859195 
L 73.995456 -297.859195 
L 73.995456 -298.825049 
L 73.441902 -298.825049 
L 73.441902 -299.790221 
L 73.257384 -299.790221 
L 73.257384 -300.754706 
L 72.888349 -300.754706 
L 72.888349 -301.718499 
L 72.519313 -301.718499 
L 72.519313 -302.681594 
L 71.781242 -302.681594 
L 71.781242 -304.605668 
L 71.596724 -304.605668 
L 71.596724 -305.566636 
L 71.227688 -305.566636 
L 71.227688 -306.526882 
L 70.674135 -306.526882 
L 70.674135 -307.486401 
L 70.305099 -307.486401 
L 70.305099 -308.445187 
L 69.936063 -308.445187 
L 69.936063 -309.403232 
L 69.197992 -309.403232 
L 69.197992 -311.317074 
L 67.906367 -311.317074 
L 67.906367 -312.272857 
L 67.721849 -312.272857 
L 67.721849 -313.227872 
L 66.245707 -313.227872 
L 66.245707 -315.135566 
L 64.954082 -315.135566 
L 64.954082 -316.08823 
L 64.585046 -316.08823 
L 64.585046 -317.99115 
L 63.477939 -317.99115 
L 63.477939 -318.94139 
L 63.293421 -318.94139 
L 63.293421 -319.890804 
L 61.817279 -319.890804 
L 61.817279 -320.839384 
L 61.448243 -320.839384 
L 61.448243 -321.78712 
L 60.525654 -321.78712 
L 60.525654 -322.734003 
L 59.787583 -322.734003 
L 59.787583 -323.680022 
L 58.680476 -323.680022 
L 58.680476 -324.625168 
L 58.495958 -324.625168 
L 58.495958 -325.56943 
L 58.126922 -325.56943 
L 58.126922 -326.512797 
L 57.942404 -326.512797 
L 57.942404 -327.455258 
L 57.757886 -327.455258 
L 57.757886 -328.396801 
L 57.388851 -328.396801 
L 57.388851 -329.337416 
L 55.543672 -329.337416 
L 55.543672 -331.215808 
L 54.990119 -331.215808 
L 54.990119 -332.15356 
L 54.805601 -332.15356 
L 54.805601 -333.090332 
L 54.621083 -333.090332 
L 54.621083 -334.026109 
L 53.329458 -334.026109 
L 53.329458 -335.894624 
L 52.960423 -335.894624 
L 52.960423 -336.827332 
L 52.775905 -336.827332 
L 52.775905 -337.758985 
L 52.037834 -337.758985 
L 52.037834 -338.689568 
L 51.853316 -338.689568 
L 51.853316 -339.619064 
L 50.561691 -339.619064 
L 50.561691 -340.547455 
L 50.192655 -340.547455 
L 50.192655 -342.400849 
L 48.531995 -342.400849 
L 48.531995 -343.325814 
L 48.347477 -343.325814 
L 48.347477 -344.249598 
L 47.793923 -344.249598 
L 47.793923 -345.17218 
L 46.133263 -345.17218 
L 46.133263 -346.093539 
L 45.210674 -346.093539 
L 45.210674 -347.932493 
L 44.841638 -347.932493 
L 44.841638 -348.850042 
L 44.472602 -348.850042 
L 44.472602 -349.766271 
L 42.442906 -349.766271 
L 42.442906 -350.681155 
L 42.073871 -350.681155 
L 42.073871 -351.594665 
L 39.121585 -351.594665 
L 39.121585 -352.506773 
L 38.75255 -352.506773 
L 38.75255 -353.41745 
L 38.198996 -353.41745 
L 38.198996 -355.234383 
L 37.82996 -355.234383 
L 37.82996 -357.045197 
L 37.460925 -357.045197 
L 37.460925 -357.948219 
L 37.091889 -357.948219 
L 37.091889 -358.8496 
L 36.1693 -358.8496 
L 36.1693 -359.749299 
L 35.431229 -359.749299 
L 35.431229 -360.647272 
L 34.693157 -360.647272 
L 34.693157 -361.543475 
L 34.139604 -361.543475 
L 34.139604 -362.437859 
L 33.770568 -362.437859 
L 33.770568 -363.330376 
L 32.847979 -363.330376 
L 32.847979 -364.220971 
L 31.556354 -364.220971 
L 31.556354 -365.996173 
L 29.895694 -365.996173 
L 29.895694 -366.880659 
L 29.711176 -366.880659 
L 29.711176 -367.762981 
L 29.34214 -367.762981 
L 29.34214 -368.64307 
L 29.157622 -368.64307 
L 29.157622 -369.52085 
L 27.312444 -369.52085 
L 27.312444 -370.396244 
L 26.75889 -370.396244 
L 26.75889 -371.269167 
L 26.389855 -371.269167 
L 26.389855 -372.139528 
L 24.360159 -372.139528 
L 24.360159 -373.007233 
L 23.991123 -373.007233 
L 23.991123 -374.734251 
L 23.437569 -374.734251 
L 23.437569 -375.593335 
L 22.51498 -375.593335 
L 22.51498 -376.449301 
L 22.145945 -376.449301 
L 22.145945 -377.302012 
L 21.223355 -377.302012 
L 21.223355 -378.151316 
L 20.85432 -378.151316 
L 20.85432 -378.997051 
L 19.931731 -378.997051 
L 19.931731 -379.83904 
L 19.193659 -379.83904 
L 19.193659 -381.510982 
L 18.640106 -381.510982 
L 18.640106 -382.34049 
L 18.455588 -382.34049 
L 18.455588 -383.165352 
L 18.086552 -383.165352 
L 18.086552 -383.985281 
L 17.902034 -383.985281 
L 17.902034 -384.799958 
L 17.532999 -384.799958 
L 17.532999 -386.412078 
L 16.794927 -386.412078 
L 16.794927 -387.998253 
L 15.872338 -387.998253 
L 15.872338 -388.780255 
L 14.949749 -388.780255 
L 14.949749 -389.553972 
L 14.765231 -389.553972 
L 14.765231 -390.318591 
L 13.842642 -390.318591 
L 13.842642 -391.073152 
L 13.473606 -391.073152 
L 13.473606 -392.547247 
L 12.366499 -392.547247 
L 12.366499 -393.263653 
L 12.181982 -393.263653 
L 12.181982 -393.963542 
L 11.259392 -393.963542 
L 11.259392 -394.644097 
L 10.705839 -394.644097 
L 10.705839 -395.301565 
L 9.78325 -395.301565 
L 9.78325 -395.930747 
L 9.414214 -395.930747 
L 9.414214 -397.069686 
L 9.229696 -397.069686 
L 9.229696 -397.547019 
L 8.860661 -397.547019 
L 8.860661 -398.057143 
L 7.2 -398.057143 
z
" style="stroke: #1f77b4; stroke-opacity: 0.25"/>
    </defs>
    <g clip-path="url(#p92f407c92b)">
     <use xlink:href="#mde3a00de50" x="0" y="424.8" style="fill: #1f77b4; fill-opacity: 0.25; stroke: #1f77b4; stroke-opacity: 0.25"/>
    </g>
   </g>
   <g id="line2d_1">
    <path d="M 7.2 26.742857 
L 8.860661 26.742857 
L 8.860661 28.778571 
L 9.229696 28.778571 
L 9.229696 29.796429 
L 9.414214 29.796429 
L 9.414214 31.832143 
L 9.78325 31.832143 
L 9.78325 32.85 
L 10.705839 32.85 
L 10.705839 33.867857 
L 11.259392 33.867857 
L 11.259392 34.885714 
L 12.181982 34.885714 
L 12.181982 35.903571 
L 12.366499 35.903571 
L 12.366499 36.921429 
L 13.473606 36.921429 
L 13.473606 38.957143 
L 13.842642 38.957143 
L 13.842642 39.975 
L 14.765231 39.975 
L 14.765231 40.992857 
L 14.949749 40.992857 
L 14.949749 42.010714 
L 15.872338 42.010714 
L 15.872338 43.028571 
L 16.794927 43.028571 
L 16.794927 45.064286 
L 17.532999 45.064286 
L 17.532999 47.1 
L 17.902034 47.1 
L 17.902034 48.117857 
L 18.086552 48.117857 
L 18.086552 49.135714 
L 18.455588 49.135714 
L 18.455588 50.153571 
L 18.640106 50.153571 
L 18.640106 51.171429 
L 19.193659 51.171429 
L 19.193659 53.207143 
L 19.931731 53.207143 
L 19.931731 54.225 
L 20.85432 54.225 
L 20.85432 55.242857 
L 21.223355 55.242857 
L 21.223355 56.260714 
L 22.145945 56.260714 
L 22.145945 57.278571 
L 22.51498 57.278571 
L 22.51498 58.296429 
L 23.437569 58.296429 
L 23.437569 59.314286 
L 23.991123 59.314286 
L 23.991123 61.35 
L 24.360159 61.35 
L 24.360159 62.367857 
L 26.389855 62.367857 
L 26.389855 63.385714 
L 26.75889 63.385714 
L 26.75889 64.403571 
L 27.312444 64.403571 
L 27.312444 65.421429 
L 29.157622 65.421429 
L 29.157622 66.439286 
L 29.34214 66.439286 
L 29.34214 67.457143 
L 29.711176 67.457143 
L 29.711176 68.475 
L 29.895694 68.475 
L 29.895694 69.492857 
L 31.556354 69.492857 
L 31.556354 71.528571 
L 32.847979 71.528571 
L 32.847979 72.546429 
L 33.770568 72.546429 
L 33.770568 73.564286 
L 34.139604 73.564286 
L 34.139604 74.582143 
L 34.693157 74.582143 
L 34.693157 75.6 
L 35.431229 75.6 
L 35.431229 76.617857 
L 36.1693 76.617857 
L 36.1693 77.635714 
L 37.091889 77.635714 
L 37.091889 78.653571 
L 37.460925 78.653571 
L 37.460925 79.671429 
L 37.82996 79.671429 
L 37.82996 81.707143 
L 38.198996 81.707143 
L 38.198996 83.742857 
L 38.75255 83.742857 
L 38.75255 84.760714 
L 39.121585 84.760714 
L 39.121585 85.778571 
L 42.073871 85.778571 
L 42.073871 86.796429 
L 42.442906 86.796429 
L 42.442906 87.814286 
L 44.472602 87.814286 
L 44.472602 88.832143 
L 44.841638 88.832143 
L 44.841638 89.85 
L 45.210674 89.85 
L 45.210674 91.885714 
L 46.133263 91.885714 
L 46.133263 92.903571 
L 47.793923 92.903571 
L 47.793923 93.921429 
L 48.347477 93.921429 
L 48.347477 94.939286 
L 48.531995 94.939286 
L 48.531995 95.957143 
L 50.192655 95.957143 
L 50.192655 97.992857 
L 50.561691 97.992857 
L 50.561691 99.010714 
L 51.853316 99.010714 
L 51.853316 100.028571 
L 52.037834 100.028571 
L 52.037834 101.046429 
L 52.775905 101.046429 
L 52.775905 102.064286 
L 52.960423 102.064286 
L 52.960423 103.082143 
L 53.329458 103.082143 
L 53.329458 105.117857 
L 54.621083 105.117857 
L 54.621083 106.135714 
L 54.805601 106.135714 
L 54.805601 107.153571 
L 54.990119 107.153571 
L 54.990119 108.171429 
L 55.543672 108.171429 
L 55.543672 110.207143 
L 57.388851 110.207143 
L 57.388851 111.225 
L 57.757886 111.225 
L 57.757886 112.242857 
L 57.942404 112.242857 
L 57.942404 113.260714 
L 58.126922 113.260714 
L 58.126922 114.278571 
L 58.495958 114.278571 
L 58.495958 115.296429 
L 58.680476 115.296429 
L 58.680476 116.314286 
L 59.787583 116.314286 
L 59.787583 117.332143 
L 60.525654 117.332143 
L 60.525654 118.35 
L 61.448243 118.35 
L 61.448243 119.367857 
L 61.817279 119.367857 
L 61.817279 120.385714 
L 63.293421 120.385714 
L 63.293421 121.403571 
L 63.477939 121.403571 
L 63.477939 122.421429 
L 64.585046 122.421429 
L 64.585046 124.457143 
L 64.954082 124.457143 
L 64.954082 125.475 
L 66.245707 125.475 
L 66.245707 127.510714 
L 67.721849 127.510714 
L 67.721849 128.528571 
L 67.906367 128.528571 
L 67.906367 129.546429 
L 69.197992 129.546429 
L 69.197992 131.582143 
L 69.936063 131.582143 
L 69.936063 132.6 
L 70.305099 132.6 
L 70.305099 133.617857 
L 70.674135 133.617857 
L 70.674135 134.635714 
L 71.227688 134.635714 
L 71.227688 135.653571 
L 71.596724 135.653571 
L 71.596724 136.671429 
L 71.781242 136.671429 
L 71.781242 138.707143 
L 72.519313 138.707143 
L 72.519313 139.725 
L 72.888349 139.725 
L 72.888349 140.742857 
L 73.257384 140.742857 
L 73.257384 141.760714 
L 73.441902 141.760714 
L 73.441902 142.778571 
L 73.995456 142.778571 
L 73.995456 143.796429 
L 74.549009 143.796429 
L 74.549009 144.814286 
L 75.471598 144.814286 
L 75.471598 145.832143 
L 76.025152 145.832143 
L 76.025152 146.85 
L 76.394188 146.85 
L 76.394188 147.867857 
L 76.763223 147.867857 
L 76.763223 148.885714 
L 76.947741 148.885714 
L 76.947741 150.921429 
L 79.900026 150.921429 
L 79.900026 151.939286 
L 80.084544 151.939286 
L 80.084544 152.957143 
L 80.269062 152.957143 
L 80.269062 154.992857 
L 82.483276 154.992857 
L 82.483276 156.010714 
L 83.405865 156.010714 
L 83.405865 157.028571 
L 83.590383 157.028571 
L 83.590383 158.046429 
L 83.774901 158.046429 
L 83.774901 159.064286 
L 83.959419 159.064286 
L 83.959419 160.082143 
L 84.512972 160.082143 
L 84.512972 161.1 
L 84.882008 161.1 
L 84.882008 162.117857 
L 88.756882 162.117857 
L 88.756882 163.135714 
L 89.310436 163.135714 
L 89.310436 164.153571 
L 89.494954 164.153571 
L 89.494954 166.189286 
L 89.863989 166.189286 
L 89.863989 167.207143 
L 90.602061 167.207143 
L 90.602061 168.225 
L 92.078203 168.225 
L 92.078203 169.242857 
L 93.369828 169.242857 
L 93.369828 170.260714 
L 93.738864 170.260714 
L 93.738864 171.278571 
L 94.661453 171.278571 
L 94.661453 172.296429 
L 94.845971 172.296429 
L 94.845971 173.314286 
L 95.215007 173.314286 
L 95.215007 174.332143 
L 95.399524 174.332143 
L 95.399524 175.35 
L 95.76856 175.35 
L 95.76856 176.367857 
L 96.322114 176.367857 
L 96.322114 177.385714 
L 96.506631 177.385714 
L 96.506631 178.403571 
L 96.691149 178.403571 
L 96.691149 179.421429 
L 97.798256 179.421429 
L 97.798256 180.439286 
L 98.35181 180.439286 
L 98.35181 181.457143 
L 98.720845 181.457143 
L 98.720845 182.475 
L 100.566024 182.475 
L 100.566024 183.492857 
L 102.042166 183.492857 
L 102.042166 184.510714 
L 102.226684 184.510714 
L 102.226684 185.528571 
L 102.780238 185.528571 
L 102.780238 186.546429 
L 105.17897 186.546429 
L 105.17897 187.564286 
L 107.393184 187.564286 
L 107.393184 188.582143 
L 108.131255 188.582143 
L 108.131255 190.617857 
L 108.684808 190.617857 
L 108.684808 192.653571 
L 109.053844 192.653571 
L 109.053844 193.671429 
L 109.238362 193.671429 
L 109.238362 194.689286 
L 109.607398 194.689286 
L 109.607398 195.707143 
L 109.976433 195.707143 
L 109.976433 196.725 
L 110.160951 196.725 
L 110.160951 197.742857 
L 110.529987 197.742857 
L 110.529987 198.760714 
L 110.714505 198.760714 
L 110.714505 199.778571 
L 110.899022 199.778571 
L 110.899022 200.796429 
L 111.08354 200.796429 
L 111.08354 201.814286 
L 111.452576 201.814286 
L 111.452576 202.832143 
L 112.559683 202.832143 
L 112.559683 203.85 
L 112.744201 203.85 
L 112.744201 204.867857 
L 113.113236 204.867857 
L 113.113236 205.885714 
L 115.511968 205.885714 
L 115.511968 206.903571 
L 116.065522 206.903571 
L 116.065522 207.921429 
L 117.726182 207.921429 
L 117.726182 208.939286 
L 119.202325 208.939286 
L 119.202325 209.957143 
L 119.386843 209.957143 
L 119.386843 211.992857 
L 120.124914 211.992857 
L 120.124914 214.028571 
L 120.678468 214.028571 
L 120.678468 215.046429 
L 121.416539 215.046429 
L 121.416539 216.064286 
L 122.339128 216.064286 
L 122.339128 218.1 
L 122.892682 218.1 
L 122.892682 219.117857 
L 123.999789 219.117857 
L 123.999789 220.135714 
L 124.73786 220.135714 
L 124.73786 221.153571 
L 125.291413 221.153571 
L 125.291413 222.171429 
L 125.844967 222.171429 
L 125.844967 224.207143 
L 126.214003 224.207143 
L 126.214003 225.225 
L 128.98177 225.225 
L 128.98177 226.242857 
L 129.166288 226.242857 
L 129.166288 227.260714 
L 129.535324 227.260714 
L 129.535324 228.278571 
L 131.749538 228.278571 
L 131.749538 229.296429 
L 132.487609 229.296429 
L 132.487609 230.314286 
L 132.672127 230.314286 
L 132.672127 231.332143 
L 135.255376 231.332143 
L 135.255376 232.35 
L 135.624412 232.35 
L 135.624412 233.367857 
L 136.547001 233.367857 
L 136.547001 234.385714 
L 138.023144 234.385714 
L 138.023144 235.403571 
L 138.39218 235.403571 
L 138.39218 236.421429 
L 138.576697 236.421429 
L 138.576697 237.439286 
L 140.421876 237.439286 
L 140.421876 238.457143 
L 141.344465 238.457143 
L 141.344465 239.475 
L 141.528983 239.475 
L 141.528983 240.492857 
L 143.558679 240.492857 
L 143.558679 241.510714 
L 148.909696 241.510714 
L 148.909696 243.546429 
L 149.278732 243.546429 
L 149.278732 245.582143 
L 149.832285 245.582143 
L 149.832285 246.6 
L 150.570357 246.6 
L 150.570357 247.617857 
L 151.492946 247.617857 
L 151.492946 248.635714 
L 152.046499 248.635714 
L 152.046499 249.653571 
L 153.338124 249.653571 
L 153.338124 250.671429 
L 155.183303 250.671429 
L 155.183303 251.689286 
L 158.320106 251.689286 
L 158.320106 253.725 
L 158.504624 253.725 
L 158.504624 254.742857 
L 158.689141 254.742857 
L 158.689141 255.760714 
L 158.873659 255.760714 
L 158.873659 256.778571 
L 159.980766 256.778571 
L 159.980766 257.796429 
L 160.165284 257.796429 
L 160.165284 259.832143 
L 161.087873 259.832143 
L 161.087873 260.85 
L 162.379498 260.85 
L 162.379498 261.867857 
L 164.962748 261.867857 
L 164.962748 262.885714 
L 166.623408 262.885714 
L 166.623408 264.921429 
L 167.36148 264.921429 
L 167.36148 265.939286 
L 169.206658 265.939286 
L 169.206658 266.957143 
L 169.575694 266.957143 
L 169.575694 267.975 
L 169.760211 267.975 
L 169.760211 268.992857 
L 170.129247 268.992857 
L 170.129247 270.010714 
L 170.867318 270.010714 
L 170.867318 271.028571 
L 173.081532 271.028571 
L 173.081532 272.046429 
L 175.8493 272.046429 
L 175.8493 273.064286 
L 178.986103 273.064286 
L 178.986103 274.082143 
L 179.170621 274.082143 
L 179.170621 275.1 
L 181.753871 275.1 
L 181.753871 276.117857 
L 182.307424 276.117857 
L 182.307424 277.135714 
L 182.67646 277.135714 
L 182.67646 279.171429 
L 183.045495 279.171429 
L 183.045495 280.189286 
L 187.289406 280.189286 
L 187.289406 281.207143 
L 187.658441 281.207143 
L 187.658441 282.225 
L 188.765548 282.225 
L 188.765548 283.242857 
L 190.241691 283.242857 
L 190.241691 284.260714 
L 191.717834 284.260714 
L 191.717834 285.278571 
L 192.455905 285.278571 
L 192.455905 287.314286 
L 192.640423 287.314286 
L 192.640423 289.35 
L 197.806922 289.35 
L 197.806922 290.367857 
L 197.99144 290.367857 
L 197.99144 291.385714 
L 198.360476 291.385714 
L 198.360476 292.403571 
L 198.729511 292.403571 
L 198.729511 293.421429 
L 198.914029 293.421429 
L 198.914029 294.439286 
L 199.6521 294.439286 
L 199.6521 295.457143 
L 202.604386 295.457143 
L 202.604386 296.475 
L 203.526975 296.475 
L 203.526975 298.510714 
L 204.449564 298.510714 
L 204.449564 299.528571 
L 205.556671 299.528571 
L 205.556671 301.564286 
L 205.925707 301.564286 
L 205.925707 302.582143 
L 206.110225 302.582143 
L 206.110225 303.6 
L 206.848296 303.6 
L 206.848296 304.617857 
L 208.139921 304.617857 
L 208.139921 305.635714 
L 208.508956 305.635714 
L 208.508956 306.653571 
L 208.693474 306.653571 
L 208.693474 307.671429 
L 210.907688 307.671429 
L 210.907688 308.689286 
L 212.199313 308.689286 
L 212.199313 309.707143 
L 214.413527 309.707143 
L 214.413527 310.725 
L 216.258705 310.725 
L 216.258705 311.742857 
L 219.210991 311.742857 
L 219.210991 312.760714 
L 220.318098 312.760714 
L 220.318098 313.778571 
L 220.502616 313.778571 
L 220.502616 314.796429 
L 220.687133 314.796429 
L 220.687133 315.814286 
L 221.79424 315.814286 
L 221.79424 316.832143 
L 223.639419 316.832143 
L 223.639419 317.85 
L 228.6214 317.85 
L 228.6214 318.867857 
L 230.466579 318.867857 
L 230.466579 320.903571 
L 234.156935 320.903571 
L 234.156935 321.921429 
L 237.662774 321.921429 
L 237.662774 322.939286 
L 241.537649 322.939286 
L 241.537649 324.975 
L 242.460238 324.975 
L 242.460238 325.992857 
L 243.013791 325.992857 
L 243.013791 327.010714 
L 243.198309 327.010714 
L 243.198309 328.028571 
L 244.85897 328.028571 
L 244.85897 329.046429 
L 245.966077 329.046429 
L 245.966077 330.064286 
L 250.209987 330.064286 
L 250.209987 331.082143 
L 253.900343 331.082143 
L 253.900343 332.1 
L 255.00745 332.1 
L 255.00745 333.117857 
L 255.93004 333.117857 
L 255.93004 334.135714 
L 257.221664 334.135714 
L 257.221664 336.171429 
L 259.435878 336.171429 
L 259.435878 337.189286 
L 259.804914 337.189286 
L 259.804914 338.207143 
L 260.358468 338.207143 
L 260.358468 340.242857 
L 264.971413 340.242857 
L 264.971413 341.260714 
L 266.447556 341.260714 
L 266.447556 342.278571 
L 269.215324 342.278571 
L 269.215324 343.296429 
L 271.429538 343.296429 
L 271.429538 344.314286 
L 277.14959 344.314286 
L 277.14959 345.332143 
L 278.441215 345.332143 
L 278.441215 346.35 
L 280.839947 346.35 
L 280.839947 347.367857 
L 281.024465 347.367857 
L 281.024465 348.385714 
L 282.500608 348.385714 
L 282.500608 350.421429 
L 282.685125 350.421429 
L 282.685125 351.439286 
L 289.881321 351.439286 
L 289.881321 352.457143 
L 290.619392 352.457143 
L 290.619392 353.475 
L 293.571678 353.475 
L 293.571678 354.492857 
L 294.309749 354.492857 
L 294.309749 355.510714 
L 295.04782 355.510714 
L 295.04782 356.528571 
L 299.291731 356.528571 
L 299.291731 358.564286 
L 300.583355 358.564286 
L 300.583355 359.582143 
L 302.059498 359.582143 
L 302.059498 360.6 
L 306.487926 360.6 
L 306.487926 361.617857 
L 307.04148 361.617857 
L 307.04148 362.635714 
L 307.225997 362.635714 
L 307.225997 363.653571 
L 309.624729 363.653571 
L 309.624729 364.671429 
L 310.916354 364.671429 
L 310.916354 365.689286 
L 311.654425 365.689286 
L 311.654425 366.707143 
L 312.023461 366.707143 
L 312.023461 367.725 
L 313.684122 367.725 
L 313.684122 368.742857 
L 317.18996 368.742857 
L 317.18996 369.760714 
L 319.77321 369.760714 
L 319.77321 370.778571 
L 323.463567 370.778571 
L 323.463567 371.796429 
L 324.201638 371.796429 
L 324.201638 372.814286 
L 327.522959 372.814286 
L 327.522959 373.832143 
L 328.630066 373.832143 
L 328.630066 374.85 
L 336.379815 374.85 
L 336.379815 375.867857 
L 338.040476 375.867857 
L 338.040476 376.885714 
L 339.147583 376.885714 
L 339.147583 377.903571 
L 340.070172 377.903571 
L 340.070172 378.921429 
L 344.867635 378.921429 
L 344.867635 379.939286 
L 349.665099 379.939286 
L 349.665099 380.957143 
L 352.063831 380.957143 
L 352.063831 381.975 
L 356.123223 381.975 
L 356.123223 382.992857 
L 359.998098 382.992857 
L 359.998098 385.028571 
L 361.289723 385.028571 
L 361.289723 386.046429 
L 369.593025 386.046429 
L 369.593025 387.064286 
L 370.700132 387.064286 
L 370.700132 388.082143 
L 371.069168 388.082143 
L 371.069168 389.1 
L 373.283382 389.1 
L 373.283382 390.117857 
L 373.652417 390.117857 
L 373.652417 391.135714 
L 374.944042 391.135714 
L 374.944042 392.153571 
L 376.789221 392.153571 
L 376.789221 393.171429 
L 377.896328 393.171429 
L 377.896328 394.189286 
L 394.133897 394.189286 
L 394.133897 395.207143 
L 395.61004 395.207143 
L 395.61004 396.225 
L 397.639736 396.225 
L 397.639736 397.242857 
L 400.776539 397.242857 
L 400.776539 398.260714 
L 400.961057 398.260714 
L 400.961057 399.278571 
L 404.651413 399.278571 
L 404.651413 400.296429 
L 408.34177 400.296429 
L 408.34177 401.314286 
L 418.121215 401.314286 
L 418.121215 402.332143 
L 423.472232 402.332143 
L 423.472232 403.35 
L 431.406499 403.35 
L 431.406499 404.367857 
L 439.525284 404.367857 
L 439.525284 405.385714 
L 447.459551 405.385714 
L 447.459551 406.403571 
L 460.006764 406.403571 
L 460.006764 407.421429 
L 460.375799 407.421429 
L 460.375799 408.439286 
L 466.649406 408.439286 
L 466.649406 409.457143 
L 476.244333 409.457143 
L 476.244333 410.475 
L 484.547635 410.475 
L 484.547635 411.492857 
L 514.439524 411.492857 
L 514.439524 412.510714 
L 516.284703 412.510714 
L 516.284703 413.528571 
L 608.359102 413.528571 
L 608.359102 414.546429 
L 625.150225 414.546429 
L 625.150225 415.564286 
L 674.231968 415.564286 
L 674.231968 416.582143 
L 705.6 416.582143 
L 705.6 417.6 
L 705.6 417.6 
" clip-path="url(#p92f407c92b)" style="fill: none; stroke: #1f77b4; stroke-width: 1.5; stroke-linecap: square"/>
   </g>
   <g id="patch_3">
    <path d="M 7.2 417.6 
L 7.2 7.2 
" style="fill: none; stroke: #000000; stroke-width: 0.8; stroke-linejoin: miter; stroke-linecap: square"/>
   </g>
   <g id="patch_4">
    <path d="M 7.2 417.6 
L 705.6 417.6 
" style="fill: none; stroke: #000000; stroke-width: 0.8; stroke-linejoin: miter; stroke-linecap: square"/>
   </g>
  </g>
 </g>
 <defs>
  <clipPath id="p92f407c92b">
   <rect x="7.2" y="7.2" width="698.4" height="410.4"/>
  </clipPath>
 </defs>
</svg>
