<?xml version="1.0" encoding="utf-8" standalone="no"?>
<!DOCTYPE svg PUBLIC "-//W3C//DTD SVG 1.1//EN"
  "http://www.w3.org/Graphics/SVG/1.1/DTD/svg11.dtd">
<svg xmlns:xlink="http://www.w3.org/1999/xlink" width="608.98125pt" height="392.514375pt" viewBox="0 0 608.98125 392.514375" xmlns="http://www.w3.org/2000/svg" version="1.1">
 <metadata>
  <rdf:RDF xmlns:dc="http://purl.org/dc/elements/1.1/" xmlns:cc="http://creativecommons.org/ns#" xmlns:rdf="http://www.w3.org/1999/02/22-rdf-syntax-ns#">
   <cc:Work>
    <dc:type rdf:resource="http://purl.org/dc/dcmitype/StillImage"/>
    <dc:date>2025-03-14T22:57:36.188910</dc:date>
    <dc:format>image/svg+xml</dc:format>
    <dc:creator>
     <cc:Agent>
      <dc:title>Matplotlib v3.10.0, https://matplotlib.org/</dc:title>
     </cc:Agent>
    </dc:creator>
   </cc:Work>
  </rdf:RDF>
 </metadata>
 <defs>
  <style type="text/css">*{stroke-linejoin: round; stroke-linecap: butt}</style>
 </defs>
 <g id="figure_1">
  <g id="patch_1">
   <path d="M 0 392.514375 
L 608.98125 392.514375 
L 608.98125 0 
L 0 0 
z
" style="fill: #ffffff"/>
  </g>
  <g id="axes_1">
   <g id="patch_2">
    <path d="M 43.78125 354.958125 
L 601.78125 354.958125 
L 601.78125 22.318125 
L 43.78125 22.318125 
z
" style="fill: #ffffff"/>
   </g>
   <g id="FillBetweenPolyCollection_1">
    <defs>
     <path id="m20e9aa01ca" d="M 69.144886 -355.07625 
L 69.144886 -355.07625 
L 70.351083 -355.07625 
L 70.351083 -348.827704 
L 70.619127 -348.827704 
L 70.619127 -347.811067 
L 70.753149 -347.811067 
L 70.753149 -345.702457 
L 71.021192 -345.702457 
L 71.021192 -344.659494 
L 71.691302 -344.659494 
L 71.691302 -343.628689 
L 72.093367 -343.628689 
L 72.093367 -342.609727 
L 72.763476 -342.609727 
L 72.763476 -341.601739 
L 72.897498 -341.601739 
L 72.897498 -340.603757 
L 73.701629 -340.603757 
L 73.701629 -338.634217 
L 73.969673 -338.634217 
L 73.969673 -337.661098 
L 74.639782 -337.661098 
L 74.639782 -336.694862 
L 74.773804 -336.694862 
L 74.773804 -335.734945 
L 75.443914 -335.734945 
L 75.443914 -334.780858 
L 76.114023 -334.780858 
L 76.114023 -332.888485 
L 76.65011 -332.888485 
L 76.65011 -331.014841 
L 76.918154 -331.014841 
L 76.918154 -330.084303 
L 77.052176 -330.084303 
L 77.052176 -329.157621 
L 77.32022 -329.157621 
L 77.32022 -328.234576 
L 77.454241 -328.234576 
L 77.454241 -327.314969 
L 77.856307 -327.314969 
L 77.856307 -325.48536 
L 78.392394 -325.48536 
L 78.392394 -324.575043 
L 79.062504 -324.575043 
L 79.062504 -323.66753 
L 79.330547 -323.66753 
L 79.330547 -322.762693 
L 80.000657 -322.762693 
L 80.000657 -321.860416 
L 80.2687 -321.860416 
L 80.2687 -320.960589 
L 80.93881 -320.960589 
L 80.93881 -320.063114 
L 81.340875 -320.063114 
L 81.340875 -318.274849 
L 81.608919 -318.274849 
L 81.608919 -317.383891 
L 83.083159 -317.383891 
L 83.083159 -316.494949 
L 83.351203 -316.494949 
L 83.351203 -315.60795 
L 83.753269 -315.60795 
L 83.753269 -314.722828 
L 85.093487 -314.722828 
L 85.093487 -313.839522 
L 85.227509 -313.839522 
L 85.227509 -312.957973 
L 85.495553 -312.957973 
L 85.495553 -312.078126 
L 85.629575 -312.078126 
L 85.629575 -311.199928 
L 86.835771 -311.199928 
L 86.835771 -309.44829 
L 87.773924 -309.44829 
L 87.773924 -308.574758 
L 88.444034 -308.574758 
L 88.444034 -307.702695 
L 88.712077 -307.702695 
L 88.712077 -306.832063 
L 89.114143 -306.832063 
L 89.114143 -305.962822 
L 89.65023 -305.962822 
L 89.65023 -305.094937 
L 90.186318 -305.094937 
L 90.186318 -304.228376 
L 90.856427 -304.228376 
L 90.856427 -303.363104 
L 91.124471 -303.363104 
L 91.124471 -302.499092 
L 91.392515 -302.499092 
L 91.392515 -300.77473 
L 91.660558 -300.77473 
L 91.660558 -299.05507 
L 92.062624 -299.05507 
L 92.062624 -298.19694 
L 92.330668 -298.19694 
L 92.330668 -297.339912 
L 94.475017 -297.339912 
L 94.475017 -296.483962 
L 94.743061 -296.483962 
L 94.743061 -295.62907 
L 96.217301 -295.62907 
L 96.217301 -294.775214 
L 96.485345 -294.775214 
L 96.485345 -293.922375 
L 96.753389 -293.922375 
L 96.753389 -292.219671 
L 97.423498 -292.219671 
L 97.423498 -291.369769 
L 98.629695 -291.369769 
L 98.629695 -290.520812 
L 99.03176 -290.520812 
L 99.03176 -289.672782 
L 99.165782 -289.672782 
L 99.165782 -288.825665 
L 100.371979 -288.825665 
L 100.371979 -287.134105 
L 100.640023 -287.134105 
L 100.640023 -286.289634 
L 101.578176 -286.289634 
L 101.578176 -285.446016 
L 101.712198 -285.446016 
L 101.712198 -284.60324 
L 102.248285 -284.60324 
L 102.248285 -283.761291 
L 102.382307 -283.761291 
L 102.382307 -282.920158 
L 102.650351 -282.920158 
L 102.650351 -281.24029 
L 103.588504 -281.24029 
L 103.588504 -280.401533 
L 103.722525 -280.401533 
L 103.722525 -279.563546 
L 103.856547 -279.563546 
L 103.856547 -278.726318 
L 104.258613 -278.726318 
L 104.258613 -277.054099 
L 105.598831 -277.054099 
L 105.598831 -276.219089 
L 105.866875 -276.219089 
L 105.866875 -275.3848 
L 106.000897 -275.3848 
L 106.000897 -274.551222 
L 106.134919 -274.551222 
L 106.134919 -273.718346 
L 106.402963 -273.718346 
L 106.402963 -272.886165 
L 106.536984 -272.886165 
L 106.536984 -272.05467 
L 107.341115 -272.05467 
L 107.341115 -271.223853 
L 107.877203 -271.223853 
L 107.877203 -270.393705 
L 108.547312 -270.393705 
L 108.547312 -269.564221 
L 108.815356 -269.564221 
L 108.815356 -268.735392 
L 109.887531 -268.735392 
L 109.887531 -267.907211 
L 110.021553 -267.907211 
L 110.021553 -267.079672 
L 110.825684 -267.079672 
L 110.825684 -265.42649 
L 111.093727 -265.42649 
L 111.093727 -264.600835 
L 112.03188 -264.600835 
L 112.03188 -262.951364 
L 113.104055 -262.951364 
L 113.104055 -262.127538 
L 113.238077 -262.127538 
L 113.238077 -261.304309 
L 114.17623 -261.304309 
L 114.17623 -259.659622 
L 114.712318 -259.659622 
L 114.712318 -258.838154 
L 114.980361 -258.838154 
L 114.980361 -258.017262 
L 115.248405 -258.017262 
L 115.248405 -257.196942 
L 115.650471 -257.196942 
L 115.650471 -256.377188 
L 115.918514 -256.377188 
L 115.918514 -255.557996 
L 116.052536 -255.557996 
L 116.052536 -253.92128 
L 116.588624 -253.92128 
L 116.588624 -253.103746 
L 116.856667 -253.103746 
L 116.856667 -252.286757 
L 117.124711 -252.286757 
L 117.124711 -251.470307 
L 117.258733 -251.470307 
L 117.258733 -250.654393 
L 117.660798 -250.654393 
L 117.660798 -249.839011 
L 118.062864 -249.839011 
L 118.062864 -249.024157 
L 118.732973 -249.024157 
L 118.732973 -248.209827 
L 119.135039 -248.209827 
L 119.135039 -247.396017 
L 119.403083 -247.396017 
L 119.403083 -246.582725 
L 119.671126 -246.582725 
L 119.671126 -245.769946 
L 119.805148 -245.769946 
L 119.805148 -244.145915 
L 121.949498 -244.145915 
L 121.949498 -243.334656 
L 122.08352 -243.334656 
L 122.08352 -242.523897 
L 122.217542 -242.523897 
L 122.217542 -240.903869 
L 123.825804 -240.903869 
L 123.825804 -240.094593 
L 124.495913 -240.094593 
L 124.495913 -239.285806 
L 124.629935 -239.285806 
L 124.629935 -238.477504 
L 124.763957 -238.477504 
L 124.763957 -237.669686 
L 124.897979 -237.669686 
L 124.897979 -236.862347 
L 125.300044 -236.862347 
L 125.300044 -236.055487 
L 125.568088 -236.055487 
L 125.568088 -235.249101 
L 128.382547 -235.249101 
L 128.382547 -234.443189 
L 128.784613 -234.443189 
L 128.784613 -233.637747 
L 128.918634 -233.637747 
L 128.918634 -232.028264 
L 129.186678 -232.028264 
L 129.186678 -231.224219 
L 129.722766 -231.224219 
L 129.722766 -230.420636 
L 130.79494 -230.420636 
L 130.79494 -229.617512 
L 131.733093 -229.617512 
L 131.733093 -228.814846 
L 132.001137 -228.814846 
L 132.001137 -228.012635 
L 132.671246 -228.012635 
L 132.671246 -227.210877 
L 132.805268 -227.210877 
L 132.805268 -226.409571 
L 133.073312 -226.409571 
L 133.073312 -225.608714 
L 133.207334 -225.608714 
L 133.207334 -224.808306 
L 133.475378 -224.808306 
L 133.475378 -224.008344 
L 133.877443 -224.008344 
L 133.877443 -223.208826 
L 134.011465 -223.208826 
L 134.011465 -222.409751 
L 134.145487 -222.409751 
L 134.145487 -221.611118 
L 134.949618 -221.611118 
L 134.949618 -220.812925 
L 135.351684 -220.812925 
L 135.351684 -220.01517 
L 135.619727 -220.01517 
L 135.619727 -219.217852 
L 136.959946 -219.217852 
L 136.959946 -218.420969 
L 138.032121 -218.420969 
L 138.032121 -217.624521 
L 138.166143 -217.624521 
L 138.166143 -216.828506 
L 138.568208 -216.828506 
L 138.568208 -216.032922 
L 140.310492 -216.032922 
L 140.310492 -215.237768 
L 141.918755 -215.237768 
L 141.918755 -214.443044 
L 142.454842 -214.443044 
L 142.454842 -212.854879 
L 142.856907 -212.854879 
L 142.856907 -211.268418 
L 143.124951 -211.268418 
L 143.124951 -210.475824 
L 143.258973 -210.475824 
L 143.258973 -209.683652 
L 143.527017 -209.683652 
L 143.527017 -208.891903 
L 143.79506 -208.891903 
L 143.79506 -208.100575 
L 143.929082 -208.100575 
L 143.929082 -207.309668 
L 144.197126 -207.309668 
L 144.197126 -206.51918 
L 144.331148 -206.51918 
L 144.331148 -205.729111 
L 144.46517 -205.729111 
L 144.46517 -204.93946 
L 144.599192 -204.93946 
L 144.599192 -204.150227 
L 144.867235 -204.150227 
L 144.867235 -203.36141 
L 145.671366 -203.36141 
L 145.671366 -202.57301 
L 145.805388 -202.57301 
L 145.805388 -201.785025 
L 146.073432 -201.785025 
L 146.073432 -200.997456 
L 147.815716 -200.997456 
L 147.815716 -200.210301 
L 148.217782 -200.210301 
L 148.217782 -199.42356 
L 149.423978 -199.42356 
L 149.423978 -198.637233 
L 150.496153 -198.637233 
L 150.496153 -197.85132 
L 150.630175 -197.85132 
L 150.630175 -196.280731 
L 151.166263 -196.280731 
L 151.166263 -194.711791 
L 151.568328 -194.711791 
L 151.568328 -193.927939 
L 152.104416 -193.927939 
L 152.104416 -193.144499 
L 152.774525 -193.144499 
L 152.774525 -191.578853 
L 153.17659 -191.578853 
L 153.17659 -190.796646 
L 153.980722 -190.796646 
L 153.980722 -190.014851 
L 154.516809 -190.014851 
L 154.516809 -189.233467 
L 154.918875 -189.233467 
L 154.918875 -188.452495 
L 155.32094 -188.452495 
L 155.32094 -186.891783 
L 155.588984 -186.891783 
L 155.588984 -186.112044 
L 157.599312 -186.112044 
L 157.599312 -185.332716 
L 157.733334 -185.332716 
L 157.733334 -184.553801 
L 158.001377 -184.553801 
L 158.001377 -183.775297 
L 159.60964 -183.775297 
L 159.60964 -182.997205 
L 160.145727 -182.997205 
L 160.145727 -182.219526 
L 160.279749 -182.219526 
L 160.279749 -181.442259 
L 162.156055 -181.442259 
L 162.156055 -180.665405 
L 162.424099 -180.665405 
L 162.424099 -179.888965 
L 163.094208 -179.888965 
L 163.094208 -179.112939 
L 164.166383 -179.112939 
L 164.166383 -178.337326 
L 164.434426 -178.337326 
L 164.434426 -177.562129 
L 164.568448 -177.562129 
L 164.568448 -176.787346 
L 165.908667 -176.787346 
L 165.908667 -176.01298 
L 166.578776 -176.01298 
L 166.578776 -175.23903 
L 166.712798 -175.23903 
L 166.712798 -174.465496 
L 168.187038 -174.465496 
L 168.187038 -173.692381 
L 172.073672 -173.692381 
L 172.073672 -172.147405 
L 172.341716 -172.147405 
L 172.341716 -170.604108 
L 172.743782 -170.604108 
L 172.743782 -169.833092 
L 173.279869 -169.833092 
L 173.279869 -169.062497 
L 173.949978 -169.062497 
L 173.949978 -168.292326 
L 174.352044 -168.292326 
L 174.352044 -167.522579 
L 175.290197 -167.522579 
L 175.290197 -166.753257 
L 176.630415 -166.753257 
L 176.630415 -165.984361 
L 178.908787 -165.984361 
L 178.908787 -164.447851 
L 179.042809 -164.447851 
L 179.042809 -163.68024 
L 179.176831 -163.68024 
L 179.176831 -162.91306 
L 179.310852 -162.91306 
L 179.310852 -162.146311 
L 180.114984 -162.146311 
L 180.114984 -161.379995 
L 180.249005 -161.379995 
L 180.249005 -159.848668 
L 180.919115 -159.848668 
L 180.919115 -159.08366 
L 181.857268 -159.08366 
L 181.857268 -158.31909 
L 183.733574 -158.31909 
L 183.733574 -157.55496 
L 184.93977 -157.55496 
L 184.93977 -156.028026 
L 185.475858 -156.028026 
L 185.475858 -155.265225 
L 186.816076 -155.265225 
L 186.816076 -154.502871 
L 187.08412 -154.502871 
L 187.08412 -153.740965 
L 187.218142 -153.740965 
L 187.218142 -152.979509 
L 187.486186 -152.979509 
L 187.486186 -152.218505 
L 188.022273 -152.218505 
L 188.022273 -151.457954 
L 189.630535 -151.457954 
L 189.630535 -150.697858 
L 191.640863 -150.697858 
L 191.640863 -149.93822 
L 193.919235 -149.93822 
L 193.919235 -149.179042 
L 194.053257 -149.179042 
L 194.053257 -148.420325 
L 195.929563 -148.420325 
L 195.929563 -147.662072 
L 196.331628 -147.662072 
L 196.331628 -146.904284 
L 196.599672 -146.904284 
L 196.599672 -145.390116 
L 196.867716 -145.390116 
L 196.867716 -144.63374 
L 199.950218 -144.63374 
L 199.950218 -143.877839 
L 200.218262 -143.877839 
L 200.218262 -143.122416 
L 201.022393 -143.122416 
L 201.022393 -142.367473 
L 202.094568 -142.367473 
L 202.094568 -141.613013 
L 203.166743 -141.613013 
L 203.166743 -140.859039 
L 203.70283 -140.859039 
L 203.70283 -139.352558 
L 203.836852 -139.352558 
L 203.836852 -137.848053 
L 207.589464 -137.848053 
L 207.589464 -137.09655 
L 207.723486 -137.09655 
L 207.723486 -136.345549 
L 207.99153 -136.345549 
L 207.99153 -135.595055 
L 208.259574 -135.595055 
L 208.259574 -134.845071 
L 208.393595 -134.845071 
L 208.393595 -134.0956 
L 208.929683 -134.0956 
L 208.929683 -133.346645 
L 211.074033 -133.346645 
L 211.074033 -132.59821 
L 211.744142 -132.59821 
L 211.744142 -131.102916 
L 212.414251 -131.102916 
L 212.414251 -130.356064 
L 213.218382 -130.356064 
L 213.218382 -128.863969 
L 213.486426 -128.863969 
L 213.486426 -128.118734 
L 213.620448 -128.118734 
L 213.620448 -127.374047 
L 214.156535 -127.374047 
L 214.156535 -126.629912 
L 215.094688 -126.629912 
L 215.094688 -125.886333 
L 215.362732 -125.886333 
L 215.362732 -125.143315 
L 215.496754 -125.143315 
L 215.496754 -124.400862 
L 217.105016 -124.400862 
L 217.105016 -123.65898 
L 218.043169 -123.65898 
L 218.043169 -122.917673 
L 219.651431 -122.917673 
L 219.651431 -122.176946 
L 220.99165 -122.176946 
L 220.99165 -121.436805 
L 223.136 -121.436805 
L 223.136 -120.697255 
L 223.940131 -120.697255 
L 223.940131 -119.9583 
L 224.074153 -119.9583 
L 224.074153 -119.219948 
L 224.208174 -119.219948 
L 224.208174 -118.482203 
L 225.012306 -118.482203 
L 225.012306 -117.745072 
L 226.352524 -117.745072 
L 226.352524 -117.00856 
L 229.971114 -117.00856 
L 229.971114 -116.272674 
L 231.311333 -116.272674 
L 231.311333 -114.802806 
L 233.99177 -114.802806 
L 233.99177 -114.068836 
L 236.538185 -114.068836 
L 236.538185 -113.33552 
L 239.352644 -113.33552 
L 239.352644 -111.870873 
L 240.022754 -111.870873 
L 240.022754 -111.139558 
L 240.424819 -111.139558 
L 240.424819 -110.408925 
L 240.558841 -110.408925 
L 240.558841 -109.678983 
L 241.765038 -109.678983 
L 241.765038 -108.949739 
L 242.569169 -108.949739 
L 242.569169 -108.221203 
L 245.651672 -108.221203 
L 245.651672 -107.493383 
L 248.332109 -107.493383 
L 248.332109 -106.766288 
L 249.13624 -106.766288 
L 249.13624 -106.039927 
L 249.806349 -106.039927 
L 249.806349 -105.31431 
L 250.744502 -105.31431 
L 250.744502 -103.865348 
L 252.352764 -103.865348 
L 252.352764 -103.142024 
L 252.620808 -103.142024 
L 252.620808 -102.419485 
L 253.022874 -102.419485 
L 253.022874 -100.97681 
L 256.37342 -100.97681 
L 256.37342 -100.256696 
L 257.445595 -100.256696 
L 257.445595 -99.537415 
L 259.455923 -99.537415 
L 259.455923 -98.81898 
L 261.064185 -98.81898 
L 261.064185 -98.101403 
L 265.218863 -98.101403 
L 265.218863 -97.384699 
L 266.157016 -97.384699 
L 266.157016 -96.668881 
L 267.8993 -96.668881 
L 267.8993 -95.953965 
L 268.033322 -95.953965 
L 268.033322 -95.239965 
L 269.105496 -95.239965 
L 269.105496 -93.814779 
L 269.239518 -93.814779 
L 269.239518 -93.103626 
L 274.466371 -93.103626 
L 274.466371 -92.393456 
L 275.002458 -92.393456 
L 275.002458 -91.684288 
L 277.146808 -91.684288 
L 277.146808 -90.976141 
L 277.682895 -90.976141 
L 277.682895 -90.269035 
L 278.218983 -90.269035 
L 278.218983 -89.56299 
L 281.301485 -89.56299 
L 281.301485 -88.15417 
L 282.239638 -88.15417 
L 282.239638 -87.451441 
L 283.311813 -87.451441 
L 283.311813 -86.749866 
L 286.528338 -86.749866 
L 286.528338 -86.049468 
L 286.930403 -86.049468 
L 286.930403 -85.350275 
L 287.064425 -85.350275 
L 287.064425 -84.652315 
L 288.806709 -84.652315 
L 288.806709 -83.955616 
L 289.744862 -83.955616 
L 289.744862 -83.26021 
L 290.28095 -83.26021 
L 290.28095 -82.566128 
L 290.548993 -82.566128 
L 290.548993 -81.873403 
L 291.75519 -81.873403 
L 291.75519 -81.182071 
L 294.301605 -81.182071 
L 294.301605 -80.492169 
L 296.177911 -80.492169 
L 296.177911 -79.803735 
L 298.858349 -79.803735 
L 298.858349 -79.116812 
L 299.394436 -79.116812 
L 299.394436 -78.43144 
L 301.806829 -78.43144 
L 301.806829 -77.747668 
L 302.610961 -77.747668 
L 302.610961 -77.065542 
L 308.239879 -77.065542 
L 308.239879 -76.385113 
L 309.446075 -76.385113 
L 309.446075 -75.706437 
L 310.250206 -75.706437 
L 310.250206 -75.02957 
L 310.920316 -75.02957 
L 310.920316 -74.354573 
L 314.404884 -74.354573 
L 314.404884 -73.681511 
L 317.889452 -73.681511 
L 317.889452 -73.010453 
L 319.631736 -73.010453 
L 319.631736 -72.341474 
L 322.580217 -72.341474 
L 322.580217 -71.674652 
L 325.394676 -71.674652 
L 325.394676 -70.347825 
L 326.332829 -70.347825 
L 326.332829 -69.688009 
L 332.363813 -69.688009 
L 332.363813 -69.03073 
L 333.167944 -69.03073 
L 333.167944 -68.376102 
L 333.435988 -68.376102 
L 333.435988 -67.724249 
L 335.04425 -67.724249 
L 335.04425 -67.075306 
L 335.312294 -67.075306 
L 335.312294 -66.429418 
L 336.250447 -66.429418 
L 336.250447 -65.786748 
L 337.590665 -65.786748 
L 337.590665 -65.147471 
L 338.394796 -65.147471 
L 338.394796 -64.511781 
L 350.18872 -64.511781 
L 350.18872 -63.879893 
L 351.260895 -63.879893 
L 351.260895 -63.252044 
L 352.735135 -63.252044 
L 352.735135 -62.628502 
L 355.013507 -62.628502 
L 355.013507 -62.009563 
L 355.147528 -62.009563 
L 355.147528 -61.395564 
L 357.827966 -61.395564 
L 357.827966 -60.786886 
L 360.508403 -60.786886 
L 360.508403 -60.183964 
L 367.611561 -60.183964 
L 367.611561 -59.587301 
L 371.498195 -59.587301 
L 371.498195 -58.997477 
L 377.261135 -58.997477 
L 377.261135 -58.415176 
L 383.158096 -58.415176 
L 383.158096 -57.841204 
L 388.921036 -57.841204 
L 388.921036 -57.276533 
L 398.034522 -57.276533 
L 398.034522 -56.722343 
L 398.302566 -56.722343 
L 398.302566 -56.180097 
L 402.859309 -56.180097 
L 402.859309 -55.651643 
L 409.828446 -55.651643 
L 409.828446 -55.139378 
L 415.859429 -55.139378 
L 415.859429 -54.646501 
L 437.57097 -54.646501 
L 437.57097 -54.177455 
L 438.911189 -54.177455 
L 438.911189 -53.73873 
L 505.788095 -53.73873 
L 505.788095 -53.340488 
L 517.984084 -53.340488 
L 517.984084 -53.000325 
L 553.633898 -53.000325 
L 553.633898 -52.753815 
L 576.417614 -52.753815 
L 576.417614 -52.67625 
L 576.417614 -52.67625 
L 576.417614 -52.67625 
L 576.417614 -56.851439 
L 553.633898 -56.851439 
L 553.633898 -57.987154 
L 517.984084 -57.987154 
L 517.984084 -59.135609 
L 505.788095 -59.135609 
L 505.788095 -60.253819 
L 438.911189 -60.253819 
L 438.911189 -61.343619 
L 437.57097 -61.343619 
L 437.57097 -62.409745 
L 415.859429 -62.409745 
L 415.859429 -63.45625 
L 409.828446 -63.45625 
L 409.828446 -64.486287 
L 402.859309 -64.486287 
L 402.859309 -65.502294 
L 398.302566 -65.502294 
L 398.302566 -66.506178 
L 398.034522 -66.506178 
L 398.034522 -67.499456 
L 388.921036 -67.499456 
L 388.921036 -68.483354 
L 383.158096 -68.483354 
L 383.158096 -69.458879 
L 377.261135 -69.458879 
L 377.261135 -70.426866 
L 371.498195 -70.426866 
L 371.498195 -71.388019 
L 367.611561 -71.388019 
L 367.611561 -72.342937 
L 360.508403 -72.342937 
L 360.508403 -73.292133 
L 357.827966 -73.292133 
L 357.827966 -74.236053 
L 355.147528 -74.236053 
L 355.147528 -75.175085 
L 355.013507 -75.175085 
L 355.013507 -76.10957 
L 352.735135 -76.10957 
L 352.735135 -77.039812 
L 351.260895 -77.039812 
L 351.260895 -77.966077 
L 350.18872 -77.966077 
L 350.18872 -78.888606 
L 338.394796 -78.888606 
L 338.394796 -79.807615 
L 337.590665 -79.807615 
L 337.590665 -80.7233 
L 336.250447 -80.7233 
L 336.250447 -81.635835 
L 335.312294 -81.635835 
L 335.312294 -82.545381 
L 335.04425 -82.545381 
L 335.04425 -83.452086 
L 333.435988 -83.452086 
L 333.435988 -84.356082 
L 333.167944 -84.356082 
L 333.167944 -85.257494 
L 332.363813 -85.257494 
L 332.363813 -86.156434 
L 326.332829 -86.156434 
L 326.332829 -87.053008 
L 325.394676 -87.053008 
L 325.394676 -88.839436 
L 322.580217 -88.839436 
L 322.580217 -89.729464 
L 319.631736 -89.729464 
L 319.631736 -90.617474 
L 317.889452 -90.617474 
L 317.889452 -91.503538 
L 314.404884 -91.503538 
L 314.404884 -92.387726 
L 310.920316 -92.387726 
L 310.920316 -93.270099 
L 310.250206 -93.270099 
L 310.250206 -94.150719 
L 309.446075 -94.150719 
L 309.446075 -95.029642 
L 308.239879 -95.029642 
L 308.239879 -95.90692 
L 302.610961 -95.90692 
L 302.610961 -96.782605 
L 301.806829 -96.782605 
L 301.806829 -97.656741 
L 299.394436 -97.656741 
L 299.394436 -98.529376 
L 298.858349 -98.529376 
L 298.858349 -99.40055 
L 296.177911 -99.40055 
L 296.177911 -100.270303 
L 294.301605 -100.270303 
L 294.301605 -101.138674 
L 291.75519 -101.138674 
L 291.75519 -102.005699 
L 290.548993 -102.005699 
L 290.548993 -102.871412 
L 290.28095 -102.871412 
L 290.28095 -103.735845 
L 289.744862 -103.735845 
L 289.744862 -104.599029 
L 288.806709 -104.599029 
L 288.806709 -105.460995 
L 287.064425 -105.460995 
L 287.064425 -106.32177 
L 286.930403 -106.32177 
L 286.930403 -107.181381 
L 286.528338 -107.181381 
L 286.528338 -108.039855 
L 283.311813 -108.039855 
L 283.311813 -108.897216 
L 282.239638 -108.897216 
L 282.239638 -109.753487 
L 281.301485 -109.753487 
L 281.301485 -111.462849 
L 278.218983 -111.462849 
L 278.218983 -112.315984 
L 277.682895 -112.315984 
L 277.682895 -113.168114 
L 277.146808 -113.168114 
L 277.146808 -114.019258 
L 275.002458 -114.019258 
L 275.002458 -114.869436 
L 274.466371 -114.869436 
L 274.466371 -115.718665 
L 269.239518 -115.718665 
L 269.239518 -116.566962 
L 269.105496 -116.566962 
L 269.105496 -118.260825 
L 268.033322 -118.260825 
L 268.033322 -119.106422 
L 267.8993 -119.106422 
L 267.8993 -119.951149 
L 266.157016 -119.951149 
L 266.157016 -120.795021 
L 265.218863 -120.795021 
L 265.218863 -121.63805 
L 261.064185 -121.63805 
L 261.064185 -122.480251 
L 259.455923 -122.480251 
L 259.455923 -123.321637 
L 257.445595 -123.321637 
L 257.445595 -124.162218 
L 256.37342 -124.162218 
L 256.37342 -125.002008 
L 253.022874 -125.002008 
L 253.022874 -126.679258 
L 252.620808 -126.679258 
L 252.620808 -127.516741 
L 252.352764 -127.516741 
L 252.352764 -128.353476 
L 250.744502 -128.353476 
L 250.744502 -130.024743 
L 249.806349 -130.024743 
L 249.806349 -130.859294 
L 249.13624 -130.859294 
L 249.13624 -131.693136 
L 248.332109 -131.693136 
L 248.332109 -132.526279 
L 245.651672 -132.526279 
L 245.651672 -133.35873 
L 242.569169 -133.35873 
L 242.569169 -134.190497 
L 241.765038 -134.190497 
L 241.765038 -135.021591 
L 240.558841 -135.021591 
L 240.558841 -135.852017 
L 240.424819 -135.852017 
L 240.424819 -136.681784 
L 240.022754 -136.681784 
L 240.022754 -137.510899 
L 239.352644 -137.510899 
L 239.352644 -139.167204 
L 236.538185 -139.167204 
L 236.538185 -139.994407 
L 233.99177 -139.994407 
L 233.99177 -140.820986 
L 231.311333 -140.820986 
L 231.311333 -142.472299 
L 229.971114 -142.472299 
L 229.971114 -143.297045 
L 226.352524 -143.297045 
L 226.352524 -144.121193 
L 225.012306 -144.121193 
L 225.012306 -144.944747 
L 224.208174 -144.944747 
L 224.208174 -145.767714 
L 224.074153 -145.767714 
L 224.074153 -146.590099 
L 223.940131 -146.590099 
L 223.940131 -147.411907 
L 223.136 -147.411907 
L 223.136 -148.233144 
L 220.99165 -148.233144 
L 220.99165 -149.053815 
L 219.651431 -149.053815 
L 219.651431 -149.873925 
L 218.043169 -149.873925 
L 218.043169 -150.693478 
L 217.105016 -150.693478 
L 217.105016 -151.512479 
L 215.496754 -151.512479 
L 215.496754 -152.330933 
L 215.362732 -152.330933 
L 215.362732 -153.148845 
L 215.094688 -153.148845 
L 215.094688 -153.966218 
L 214.156535 -153.966218 
L 214.156535 -154.783057 
L 213.620448 -154.783057 
L 213.620448 -155.599366 
L 213.486426 -155.599366 
L 213.486426 -156.415149 
L 213.218382 -156.415149 
L 213.218382 -158.045153 
L 212.414251 -158.045153 
L 212.414251 -158.859382 
L 211.744142 -158.859382 
L 211.744142 -160.48631 
L 211.074033 -160.48631 
L 211.074033 -161.299017 
L 208.929683 -161.299017 
L 208.929683 -162.111223 
L 208.393595 -162.111223 
L 208.393595 -162.922932 
L 208.259574 -162.922932 
L 208.259574 -163.734147 
L 207.99153 -163.734147 
L 207.99153 -164.544871 
L 207.723486 -164.544871 
L 207.723486 -165.355107 
L 207.589464 -165.355107 
L 207.589464 -166.164859 
L 203.836852 -166.164859 
L 203.836852 -167.782919 
L 203.70283 -167.782919 
L 203.70283 -169.399074 
L 203.166743 -169.399074 
L 203.166743 -170.206444 
L 202.094568 -170.206444 
L 202.094568 -171.013345 
L 201.022393 -171.013345 
L 201.022393 -171.819781 
L 200.218262 -171.819781 
L 200.218262 -172.625752 
L 199.950218 -172.625752 
L 199.950218 -173.431263 
L 196.867716 -173.431263 
L 196.867716 -174.236315 
L 196.599672 -174.236315 
L 196.599672 -175.84505 
L 196.331628 -175.84505 
L 196.331628 -176.648738 
L 195.929563 -176.648738 
L 195.929563 -177.451976 
L 194.053257 -177.451976 
L 194.053257 -178.254766 
L 193.919235 -178.254766 
L 193.919235 -179.057109 
L 191.640863 -179.057109 
L 191.640863 -179.859008 
L 189.630535 -179.859008 
L 189.630535 -180.660465 
L 188.022273 -180.660465 
L 188.022273 -181.461481 
L 187.486186 -181.461481 
L 187.486186 -182.262057 
L 187.218142 -182.262057 
L 187.218142 -183.062197 
L 187.08412 -183.062197 
L 187.08412 -183.861901 
L 186.816076 -183.861901 
L 186.816076 -184.661171 
L 185.475858 -184.661171 
L 185.475858 -185.460009 
L 184.93977 -185.460009 
L 184.93977 -187.056393 
L 183.733574 -187.056393 
L 183.733574 -187.853942 
L 181.857268 -187.853942 
L 181.857268 -188.651065 
L 180.919115 -188.651065 
L 180.919115 -189.447762 
L 180.249005 -189.447762 
L 180.249005 -191.039887 
L 180.114984 -191.039887 
L 180.114984 -191.835316 
L 179.310852 -191.835316 
L 179.310852 -192.630325 
L 179.176831 -192.630325 
L 179.176831 -193.424915 
L 179.042809 -193.424915 
L 179.042809 -194.219087 
L 178.908787 -194.219087 
L 178.908787 -195.80618 
L 176.630415 -195.80618 
L 176.630415 -196.599104 
L 175.290197 -196.599104 
L 175.290197 -197.391614 
L 174.352044 -197.391614 
L 174.352044 -198.18371 
L 173.949978 -198.18371 
L 173.949978 -198.975395 
L 173.279869 -198.975395 
L 173.279869 -199.766667 
L 172.743782 -199.766667 
L 172.743782 -200.557529 
L 172.341716 -200.557529 
L 172.341716 -202.138024 
L 172.073672 -202.138024 
L 172.073672 -203.716885 
L 168.187038 -203.716885 
L 168.187038 -204.505705 
L 166.712798 -204.505705 
L 166.712798 -205.294117 
L 166.578776 -205.294117 
L 166.578776 -206.082124 
L 165.908667 -206.082124 
L 165.908667 -206.869725 
L 164.568448 -206.869725 
L 164.568448 -207.656921 
L 164.434426 -207.656921 
L 164.434426 -208.443712 
L 164.166383 -208.443712 
L 164.166383 -209.230099 
L 163.094208 -209.230099 
L 163.094208 -210.016082 
L 162.424099 -210.016082 
L 162.424099 -210.801662 
L 162.156055 -210.801662 
L 162.156055 -211.586838 
L 160.279749 -211.586838 
L 160.279749 -212.371611 
L 160.145727 -212.371611 
L 160.145727 -213.155982 
L 159.60964 -213.155982 
L 159.60964 -213.93995 
L 158.001377 -213.93995 
L 158.001377 -214.723516 
L 157.733334 -214.723516 
L 157.733334 -215.50668 
L 157.599312 -215.50668 
L 157.599312 -216.289442 
L 155.588984 -216.289442 
L 155.588984 -217.071802 
L 155.32094 -217.071802 
L 155.32094 -218.635316 
L 154.918875 -218.635316 
L 154.918875 -219.41647 
L 154.516809 -219.41647 
L 154.516809 -220.197222 
L 153.980722 -220.197222 
L 153.980722 -220.977573 
L 153.17659 -220.977573 
L 153.17659 -221.757521 
L 152.774525 -221.757521 
L 152.774525 -223.31621 
L 152.104416 -223.31621 
L 152.104416 -224.094951 
L 151.568328 -224.094951 
L 151.568328 -224.87329 
L 151.166263 -224.87329 
L 151.166263 -226.428756 
L 150.630175 -226.428756 
L 150.630175 -227.982608 
L 150.496153 -227.982608 
L 150.496153 -228.758927 
L 149.423978 -228.758927 
L 149.423978 -229.534841 
L 148.217782 -229.534841 
L 148.217782 -230.31035 
L 147.815716 -230.31035 
L 147.815716 -231.085453 
L 146.073432 -231.085453 
L 146.073432 -231.860149 
L 145.805388 -231.860149 
L 145.805388 -232.634438 
L 145.671366 -232.634438 
L 145.671366 -233.40832 
L 144.867235 -233.40832 
L 144.867235 -234.181793 
L 144.599192 -234.181793 
L 144.599192 -234.954858 
L 144.46517 -234.954858 
L 144.46517 -235.727512 
L 144.331148 -235.727512 
L 144.331148 -236.499757 
L 144.197126 -236.499757 
L 144.197126 -237.27159 
L 143.929082 -237.27159 
L 143.929082 -238.043011 
L 143.79506 -238.043011 
L 143.79506 -238.814019 
L 143.527017 -238.814019 
L 143.527017 -239.584614 
L 143.258973 -239.584614 
L 143.258973 -240.354793 
L 143.124951 -240.354793 
L 143.124951 -241.124558 
L 142.856907 -241.124558 
L 142.856907 -242.662835 
L 142.454842 -242.662835 
L 142.454842 -244.199437 
L 141.918755 -244.199437 
L 141.918755 -244.967107 
L 140.310492 -244.967107 
L 140.310492 -245.734355 
L 138.568208 -245.734355 
L 138.568208 -246.50118 
L 138.166143 -246.50118 
L 138.166143 -247.26758 
L 138.032121 -247.26758 
L 138.032121 -248.033553 
L 136.959946 -248.033553 
L 136.959946 -248.799099 
L 135.619727 -248.799099 
L 135.619727 -249.564217 
L 135.351684 -249.564217 
L 135.351684 -250.328904 
L 134.949618 -250.328904 
L 134.949618 -251.093159 
L 134.145487 -251.093159 
L 134.145487 -251.856981 
L 134.011465 -251.856981 
L 134.011465 -252.620368 
L 133.877443 -252.620368 
L 133.877443 -253.383319 
L 133.475378 -253.383319 
L 133.475378 -254.145831 
L 133.207334 -254.145831 
L 133.207334 -254.907903 
L 133.073312 -254.907903 
L 133.073312 -255.669534 
L 132.805268 -255.669534 
L 132.805268 -256.430721 
L 132.671246 -256.430721 
L 132.671246 -257.191463 
L 132.001137 -257.191463 
L 132.001137 -257.951757 
L 131.733093 -257.951757 
L 131.733093 -258.711602 
L 130.79494 -258.711602 
L 130.79494 -259.470995 
L 129.722766 -259.470995 
L 129.722766 -260.229935 
L 129.186678 -260.229935 
L 129.186678 -260.98842 
L 128.918634 -260.98842 
L 128.918634 -262.504013 
L 128.784613 -262.504013 
L 128.784613 -263.261117 
L 128.382547 -263.261117 
L 128.382547 -264.017757 
L 125.568088 -264.017757 
L 125.568088 -264.773929 
L 125.300044 -264.773929 
L 125.300044 -265.529631 
L 124.897979 -265.529631 
L 124.897979 -266.284862 
L 124.763957 -266.284862 
L 124.763957 -267.039617 
L 124.629935 -267.039617 
L 124.629935 -267.793895 
L 124.495913 -267.793895 
L 124.495913 -268.547692 
L 123.825804 -268.547692 
L 123.825804 -269.301006 
L 122.217542 -269.301006 
L 122.217542 -270.806173 
L 122.08352 -270.806173 
L 122.08352 -271.558019 
L 121.949498 -271.558019 
L 121.949498 -272.309371 
L 119.805148 -272.309371 
L 119.805148 -273.810574 
L 119.671126 -273.810574 
L 119.671126 -274.56042 
L 119.403083 -274.56042 
L 119.403083 -275.309757 
L 119.135039 -275.309757 
L 119.135039 -276.058582 
L 118.732973 -276.058582 
L 118.732973 -276.806891 
L 118.062864 -276.806891 
L 118.062864 -277.55468 
L 117.660798 -277.55468 
L 117.660798 -278.301946 
L 117.258733 -278.301946 
L 117.258733 -279.048684 
L 117.124711 -279.048684 
L 117.124711 -279.794891 
L 116.856667 -279.794891 
L 116.856667 -280.540562 
L 116.588624 -280.540562 
L 116.588624 -281.285694 
L 116.052536 -281.285694 
L 116.052536 -282.77432 
L 115.918514 -282.77432 
L 115.918514 -283.517805 
L 115.650471 -283.517805 
L 115.650471 -284.260733 
L 115.248405 -284.260733 
L 115.248405 -285.003097 
L 114.980361 -285.003097 
L 114.980361 -285.744895 
L 114.712318 -285.744895 
L 114.712318 -286.486119 
L 114.17623 -286.486119 
L 114.17623 -287.966828 
L 113.238077 -287.966828 
L 113.238077 -288.706303 
L 113.104055 -288.706303 
L 113.104055 -289.445182 
L 112.03188 -289.445182 
L 112.03188 -290.921135 
L 111.093727 -290.921135 
L 111.093727 -291.658196 
L 110.825684 -291.658196 
L 110.825684 -293.130456 
L 110.021553 -293.130456 
L 110.021553 -293.865641 
L 109.887531 -293.865641 
L 109.887531 -294.600188 
L 108.815356 -294.600188 
L 108.815356 -295.334089 
L 108.547312 -295.334089 
L 108.547312 -296.067338 
L 107.877203 -296.067338 
L 107.877203 -296.799926 
L 107.341115 -296.799926 
L 107.341115 -297.531846 
L 106.536984 -297.531846 
L 106.536984 -298.26309 
L 106.402963 -298.26309 
L 106.402963 -298.993651 
L 106.134919 -298.993651 
L 106.134919 -299.723519 
L 106.000897 -299.723519 
L 106.000897 -300.452686 
L 105.866875 -300.452686 
L 105.866875 -301.181144 
L 105.598831 -301.181144 
L 105.598831 -301.908882 
L 104.258613 -301.908882 
L 104.258613 -303.362164 
L 103.856547 -303.362164 
L 103.856547 -304.087688 
L 103.722525 -304.087688 
L 103.722525 -304.812454 
L 103.588504 -304.812454 
L 103.588504 -305.53645 
L 102.650351 -305.53645 
L 102.650351 -306.982091 
L 102.382307 -306.982091 
L 102.382307 -307.703712 
L 102.248285 -307.703712 
L 102.248285 -308.424518 
L 101.712198 -308.424518 
L 101.712198 -309.144495 
L 101.578176 -309.144495 
L 101.578176 -309.863631 
L 100.640023 -309.863631 
L 100.640023 -310.581912 
L 100.371979 -310.581912 
L 100.371979 -312.015854 
L 99.165782 -312.015854 
L 99.165782 -312.731485 
L 99.03176 -312.731485 
L 99.03176 -313.446202 
L 98.629695 -313.446202 
L 98.629695 -314.15999 
L 97.423498 -314.15999 
L 97.423498 -314.87283 
L 96.753389 -314.87283 
L 96.753389 -316.2956 
L 96.485345 -316.2956 
L 96.485345 -317.005493 
L 96.217301 -317.005493 
L 96.217301 -317.714365 
L 94.743061 -317.714365 
L 94.743061 -318.422196 
L 94.475017 -318.422196 
L 94.475017 -319.128964 
L 92.330668 -319.128964 
L 92.330668 -319.834648 
L 92.062624 -319.834648 
L 92.062624 -320.539225 
L 91.660558 -320.539225 
L 91.660558 -321.944957 
L 91.392515 -321.944957 
L 91.392515 -323.345955 
L 91.124471 -323.345955 
L 91.124471 -324.044609 
L 90.856427 -324.044609 
L 90.856427 -324.741993 
L 90.186318 -324.741993 
L 90.186318 -325.438076 
L 89.65023 -325.438076 
L 89.65023 -326.132824 
L 89.114143 -326.132824 
L 89.114143 -326.826201 
L 88.712077 -326.826201 
L 88.712077 -327.518173 
L 88.444034 -327.518173 
L 88.444034 -328.208698 
L 87.773924 -328.208698 
L 87.773924 -328.897738 
L 86.835771 -328.897738 
L 86.835771 -330.271184 
L 85.629575 -330.271184 
L 85.629575 -330.955497 
L 85.495553 -330.955497 
L 85.495553 -331.638136 
L 85.227509 -331.638136 
L 85.227509 -332.319046 
L 85.093487 -332.319046 
L 85.093487 -332.998171 
L 83.753269 -332.998171 
L 83.753269 -333.675449 
L 83.351203 -333.675449 
L 83.351203 -334.350816 
L 83.083159 -334.350816 
L 83.083159 -335.024201 
L 81.608919 -335.024201 
L 81.608919 -335.69553 
L 81.340875 -335.69553 
L 81.340875 -337.031697 
L 80.93881 -337.031697 
L 80.93881 -337.696356 
L 80.2687 -337.696356 
L 80.2687 -338.358604 
L 80.000657 -338.358604 
L 80.000657 -339.018333 
L 79.330547 -339.018333 
L 79.330547 -339.675426 
L 79.062504 -339.675426 
L 79.062504 -340.329758 
L 78.392394 -340.329758 
L 78.392394 -340.981191 
L 77.856307 -340.981191 
L 77.856307 -342.274747 
L 77.454241 -342.274747 
L 77.454241 -342.916524 
L 77.32022 -342.916524 
L 77.32022 -343.554706 
L 77.052176 -343.554706 
L 77.052176 -344.189072 
L 76.918154 -344.189072 
L 76.918154 -344.819375 
L 76.65011 -344.819375 
L 76.65011 -346.066647 
L 76.114023 -346.066647 
L 76.114023 -347.293846 
L 75.443914 -347.293846 
L 75.443914 -347.898868 
L 74.773804 -347.898868 
L 74.773804 -348.497481 
L 74.639782 -348.497481 
L 74.639782 -349.089055 
L 73.969673 -349.089055 
L 73.969673 -349.672847 
L 73.701629 -349.672847 
L 73.701629 -350.81333 
L 72.897498 -350.81333 
L 72.897498 -351.367602 
L 72.763476 -351.367602 
L 72.763476 -351.909096 
L 72.093367 -351.909096 
L 72.093367 -352.435631 
L 71.691302 -352.435631 
L 71.691302 -352.944303 
L 71.021192 -352.944303 
L 71.021192 -353.431091 
L 70.753149 -353.431091 
L 70.753149 -354.31227 
L 70.619127 -354.31227 
L 70.619127 -354.681575 
L 70.351083 -354.681575 
L 70.351083 -355.07625 
L 69.144886 -355.07625 
z
" style="stroke: #1f77b4; stroke-opacity: 0.25"/>
    </defs>
    <g clip-path="url(#p56661a96e5)">
     <use xlink:href="#m20e9aa01ca" x="0" y="392.514375" style="fill: #1f77b4; fill-opacity: 0.25; stroke: #1f77b4; stroke-opacity: 0.25"/>
    </g>
   </g>
   <g id="matplotlib.axis_1">
    <g id="xtick_1">
     <g id="line2d_1">
      <defs>
       <path id="mc4989be978" d="M 0 0 
L 0 3.5 
" style="stroke: #000000; stroke-width: 0.8"/>
      </defs>
      <g>
       <use xlink:href="#mc4989be978" x="69.144886" y="354.958125" style="stroke: #000000; stroke-width: 0.8"/>
      </g>
     </g>
     <g id="text_1">
      <!-- 0 -->
      <g transform="translate(65.963636 369.556562) scale(0.1 -0.1)">
       <defs>
        <path id="DejaVuSans-30" d="M 2034 4250 
Q 1547 4250 1301 3770 
Q 1056 3291 1056 2328 
Q 1056 1369 1301 889 
Q 1547 409 2034 409 
Q 2525 409 2770 889 
Q 3016 1369 3016 2328 
Q 3016 3291 2770 3770 
Q 2525 4250 2034 4250 
z
M 2034 4750 
Q 2819 4750 3233 4129 
Q 3647 3509 3647 2328 
Q 3647 1150 3233 529 
Q 2819 -91 2034 -91 
Q 1250 -91 836 529 
Q 422 1150 422 2328 
Q 422 3509 836 4129 
Q 1250 4750 2034 4750 
z
" transform="scale(0.015625)"/>
       </defs>
       <use xlink:href="#DejaVuSans-30"/>
      </g>
     </g>
    </g>
    <g id="xtick_2">
     <g id="line2d_2">
      <g>
       <use xlink:href="#mc4989be978" x="136.155815" y="354.958125" style="stroke: #000000; stroke-width: 0.8"/>
      </g>
     </g>
     <g id="text_2">
      <!-- 500 -->
      <g transform="translate(126.612065 369.556562) scale(0.1 -0.1)">
       <defs>
        <path id="DejaVuSans-35" d="M 691 4666 
L 3169 4666 
L 3169 4134 
L 1269 4134 
L 1269 2991 
Q 1406 3038 1543 3061 
Q 1681 3084 1819 3084 
Q 2600 3084 3056 2656 
Q 3513 2228 3513 1497 
Q 3513 744 3044 326 
Q 2575 -91 1722 -91 
Q 1428 -91 1123 -41 
Q 819 9 494 109 
L 494 744 
Q 775 591 1075 516 
Q 1375 441 1709 441 
Q 2250 441 2565 725 
Q 2881 1009 2881 1497 
Q 2881 1984 2565 2268 
Q 2250 2553 1709 2553 
Q 1456 2553 1204 2497 
Q 953 2441 691 2322 
L 691 4666 
z
" transform="scale(0.015625)"/>
       </defs>
       <use xlink:href="#DejaVuSans-35"/>
       <use xlink:href="#DejaVuSans-30" transform="translate(63.623047 0)"/>
       <use xlink:href="#DejaVuSans-30" transform="translate(127.246094 0)"/>
      </g>
     </g>
    </g>
    <g id="xtick_3">
     <g id="line2d_3">
      <g>
       <use xlink:href="#mc4989be978" x="203.166743" y="354.958125" style="stroke: #000000; stroke-width: 0.8"/>
      </g>
     </g>
     <g id="text_3">
      <!-- 1000 -->
      <g transform="translate(190.441743 369.556562) scale(0.1 -0.1)">
       <defs>
        <path id="DejaVuSans-31" d="M 794 531 
L 1825 531 
L 1825 4091 
L 703 3866 
L 703 4441 
L 1819 4666 
L 2450 4666 
L 2450 531 
L 3481 531 
L 3481 0 
L 794 0 
L 794 531 
z
" transform="scale(0.015625)"/>
       </defs>
       <use xlink:href="#DejaVuSans-31"/>
       <use xlink:href="#DejaVuSans-30" transform="translate(63.623047 0)"/>
       <use xlink:href="#DejaVuSans-30" transform="translate(127.246094 0)"/>
       <use xlink:href="#DejaVuSans-30" transform="translate(190.869141 0)"/>
      </g>
     </g>
    </g>
    <g id="xtick_4">
     <g id="line2d_4">
      <g>
       <use xlink:href="#mc4989be978" x="270.177671" y="354.958125" style="stroke: #000000; stroke-width: 0.8"/>
      </g>
     </g>
     <g id="text_4">
      <!-- 1500 -->
      <g transform="translate(257.452671 369.556562) scale(0.1 -0.1)">
       <use xlink:href="#DejaVuSans-31"/>
       <use xlink:href="#DejaVuSans-35" transform="translate(63.623047 0)"/>
       <use xlink:href="#DejaVuSans-30" transform="translate(127.246094 0)"/>
       <use xlink:href="#DejaVuSans-30" transform="translate(190.869141 0)"/>
      </g>
     </g>
    </g>
    <g id="xtick_5">
     <g id="line2d_5">
      <g>
       <use xlink:href="#mc4989be978" x="337.1886" y="354.958125" style="stroke: #000000; stroke-width: 0.8"/>
      </g>
     </g>
     <g id="text_5">
      <!-- 2000 -->
      <g transform="translate(324.4636 369.556562) scale(0.1 -0.1)">
       <defs>
        <path id="DejaVuSans-32" d="M 1228 531 
L 3431 531 
L 3431 0 
L 469 0 
L 469 531 
Q 828 903 1448 1529 
Q 2069 2156 2228 2338 
Q 2531 2678 2651 2914 
Q 2772 3150 2772 3378 
Q 2772 3750 2511 3984 
Q 2250 4219 1831 4219 
Q 1534 4219 1204 4116 
Q 875 4013 500 3803 
L 500 4441 
Q 881 4594 1212 4672 
Q 1544 4750 1819 4750 
Q 2544 4750 2975 4387 
Q 3406 4025 3406 3419 
Q 3406 3131 3298 2873 
Q 3191 2616 2906 2266 
Q 2828 2175 2409 1742 
Q 1991 1309 1228 531 
z
" transform="scale(0.015625)"/>
       </defs>
       <use xlink:href="#DejaVuSans-32"/>
       <use xlink:href="#DejaVuSans-30" transform="translate(63.623047 0)"/>
       <use xlink:href="#DejaVuSans-30" transform="translate(127.246094 0)"/>
       <use xlink:href="#DejaVuSans-30" transform="translate(190.869141 0)"/>
      </g>
     </g>
    </g>
    <g id="xtick_6">
     <g id="line2d_6">
      <g>
       <use xlink:href="#mc4989be978" x="404.199528" y="354.958125" style="stroke: #000000; stroke-width: 0.8"/>
      </g>
     </g>
     <g id="text_6">
      <!-- 2500 -->
      <g transform="translate(391.474528 369.556562) scale(0.1 -0.1)">
       <use xlink:href="#DejaVuSans-32"/>
       <use xlink:href="#DejaVuSans-35" transform="translate(63.623047 0)"/>
       <use xlink:href="#DejaVuSans-30" transform="translate(127.246094 0)"/>
       <use xlink:href="#DejaVuSans-30" transform="translate(190.869141 0)"/>
      </g>
     </g>
    </g>
    <g id="xtick_7">
     <g id="line2d_7">
      <g>
       <use xlink:href="#mc4989be978" x="471.210456" y="354.958125" style="stroke: #000000; stroke-width: 0.8"/>
      </g>
     </g>
     <g id="text_7">
      <!-- 3000 -->
      <g transform="translate(458.485456 369.556562) scale(0.1 -0.1)">
       <defs>
        <path id="DejaVuSans-33" d="M 2597 2516 
Q 3050 2419 3304 2112 
Q 3559 1806 3559 1356 
Q 3559 666 3084 287 
Q 2609 -91 1734 -91 
Q 1441 -91 1130 -33 
Q 819 25 488 141 
L 488 750 
Q 750 597 1062 519 
Q 1375 441 1716 441 
Q 2309 441 2620 675 
Q 2931 909 2931 1356 
Q 2931 1769 2642 2001 
Q 2353 2234 1838 2234 
L 1294 2234 
L 1294 2753 
L 1863 2753 
Q 2328 2753 2575 2939 
Q 2822 3125 2822 3475 
Q 2822 3834 2567 4026 
Q 2313 4219 1838 4219 
Q 1578 4219 1281 4162 
Q 984 4106 628 3988 
L 628 4550 
Q 988 4650 1302 4700 
Q 1616 4750 1894 4750 
Q 2613 4750 3031 4423 
Q 3450 4097 3450 3541 
Q 3450 3153 3228 2886 
Q 3006 2619 2597 2516 
z
" transform="scale(0.015625)"/>
       </defs>
       <use xlink:href="#DejaVuSans-33"/>
       <use xlink:href="#DejaVuSans-30" transform="translate(63.623047 0)"/>
       <use xlink:href="#DejaVuSans-30" transform="translate(127.246094 0)"/>
       <use xlink:href="#DejaVuSans-30" transform="translate(190.869141 0)"/>
      </g>
     </g>
    </g>
    <g id="xtick_8">
     <g id="line2d_8">
      <g>
       <use xlink:href="#mc4989be978" x="538.221385" y="354.958125" style="stroke: #000000; stroke-width: 0.8"/>
      </g>
     </g>
     <g id="text_8">
      <!-- 3500 -->
      <g transform="translate(525.496385 369.556562) scale(0.1 -0.1)">
       <use xlink:href="#DejaVuSans-33"/>
       <use xlink:href="#DejaVuSans-35" transform="translate(63.623047 0)"/>
       <use xlink:href="#DejaVuSans-30" transform="translate(127.246094 0)"/>
       <use xlink:href="#DejaVuSans-30" transform="translate(190.869141 0)"/>
      </g>
     </g>
    </g>
    <g id="text_9">
     <!-- Days -->
     <g transform="translate(310.303125 383.234687) scale(0.1 -0.1)">
      <defs>
       <path id="DejaVuSans-44" d="M 1259 4147 
L 1259 519 
L 2022 519 
Q 2988 519 3436 956 
Q 3884 1394 3884 2338 
Q 3884 3275 3436 3711 
Q 2988 4147 2022 4147 
L 1259 4147 
z
M 628 4666 
L 1925 4666 
Q 3281 4666 3915 4102 
Q 4550 3538 4550 2338 
Q 4550 1131 3912 565 
Q 3275 0 1925 0 
L 628 0 
L 628 4666 
z
" transform="scale(0.015625)"/>
       <path id="DejaVuSans-61" d="M 2194 1759 
Q 1497 1759 1228 1600 
Q 959 1441 959 1056 
Q 959 750 1161 570 
Q 1363 391 1709 391 
Q 2188 391 2477 730 
Q 2766 1069 2766 1631 
L 2766 1759 
L 2194 1759 
z
M 3341 1997 
L 3341 0 
L 2766 0 
L 2766 531 
Q 2569 213 2275 61 
Q 1981 -91 1556 -91 
Q 1019 -91 701 211 
Q 384 513 384 1019 
Q 384 1609 779 1909 
Q 1175 2209 1959 2209 
L 2766 2209 
L 2766 2266 
Q 2766 2663 2505 2880 
Q 2244 3097 1772 3097 
Q 1472 3097 1187 3025 
Q 903 2953 641 2809 
L 641 3341 
Q 956 3463 1253 3523 
Q 1550 3584 1831 3584 
Q 2591 3584 2966 3190 
Q 3341 2797 3341 1997 
z
" transform="scale(0.015625)"/>
       <path id="DejaVuSans-79" d="M 2059 -325 
Q 1816 -950 1584 -1140 
Q 1353 -1331 966 -1331 
L 506 -1331 
L 506 -850 
L 844 -850 
Q 1081 -850 1212 -737 
Q 1344 -625 1503 -206 
L 1606 56 
L 191 3500 
L 800 3500 
L 1894 763 
L 2988 3500 
L 3597 3500 
L 2059 -325 
z
" transform="scale(0.015625)"/>
       <path id="DejaVuSans-73" d="M 2834 3397 
L 2834 2853 
Q 2591 2978 2328 3040 
Q 2066 3103 1784 3103 
Q 1356 3103 1142 2972 
Q 928 2841 928 2578 
Q 928 2378 1081 2264 
Q 1234 2150 1697 2047 
L 1894 2003 
Q 2506 1872 2764 1633 
Q 3022 1394 3022 966 
Q 3022 478 2636 193 
Q 2250 -91 1575 -91 
Q 1294 -91 989 -36 
Q 684 19 347 128 
L 347 722 
Q 666 556 975 473 
Q 1284 391 1588 391 
Q 1994 391 2212 530 
Q 2431 669 2431 922 
Q 2431 1156 2273 1281 
Q 2116 1406 1581 1522 
L 1381 1569 
Q 847 1681 609 1914 
Q 372 2147 372 2553 
Q 372 3047 722 3315 
Q 1072 3584 1716 3584 
Q 2034 3584 2315 3537 
Q 2597 3491 2834 3397 
z
" transform="scale(0.015625)"/>
      </defs>
      <use xlink:href="#DejaVuSans-44"/>
      <use xlink:href="#DejaVuSans-61" transform="translate(77.001953 0)"/>
      <use xlink:href="#DejaVuSans-79" transform="translate(138.28125 0)"/>
      <use xlink:href="#DejaVuSans-73" transform="translate(197.460938 0)"/>
     </g>
    </g>
   </g>
   <g id="matplotlib.axis_2">
    <g id="ytick_1">
     <g id="line2d_9">
      <defs>
       <path id="m6e442674f5" d="M 0 0 
L -3.5 0 
" style="stroke: #000000; stroke-width: 0.8"/>
      </defs>
      <g>
       <use xlink:href="#m6e442674f5" x="43.78125" y="339.838125" style="stroke: #000000; stroke-width: 0.8"/>
      </g>
     </g>
     <g id="text_10">
      <!-- 0.0 -->
      <g transform="translate(20.878125 343.637344) scale(0.1 -0.1)">
       <defs>
        <path id="DejaVuSans-2e" d="M 684 794 
L 1344 794 
L 1344 0 
L 684 0 
L 684 794 
z
" transform="scale(0.015625)"/>
       </defs>
       <use xlink:href="#DejaVuSans-30"/>
       <use xlink:href="#DejaVuSans-2e" transform="translate(63.623047 0)"/>
       <use xlink:href="#DejaVuSans-30" transform="translate(95.410156 0)"/>
      </g>
     </g>
    </g>
    <g id="ytick_2">
     <g id="line2d_10">
      <g>
       <use xlink:href="#m6e442674f5" x="43.78125" y="279.358125" style="stroke: #000000; stroke-width: 0.8"/>
      </g>
     </g>
     <g id="text_11">
      <!-- 0.2 -->
      <g transform="translate(20.878125 283.157344) scale(0.1 -0.1)">
       <use xlink:href="#DejaVuSans-30"/>
       <use xlink:href="#DejaVuSans-2e" transform="translate(63.623047 0)"/>
       <use xlink:href="#DejaVuSans-32" transform="translate(95.410156 0)"/>
      </g>
     </g>
    </g>
    <g id="ytick_3">
     <g id="line2d_11">
      <g>
       <use xlink:href="#m6e442674f5" x="43.78125" y="218.878125" style="stroke: #000000; stroke-width: 0.8"/>
      </g>
     </g>
     <g id="text_12">
      <!-- 0.4 -->
      <g transform="translate(20.878125 222.677344) scale(0.1 -0.1)">
       <defs>
        <path id="DejaVuSans-34" d="M 2419 4116 
L 825 1625 
L 2419 1625 
L 2419 4116 
z
M 2253 4666 
L 3047 4666 
L 3047 1625 
L 3713 1625 
L 3713 1100 
L 3047 1100 
L 3047 0 
L 2419 0 
L 2419 1100 
L 313 1100 
L 313 1709 
L 2253 4666 
z
" transform="scale(0.015625)"/>
       </defs>
       <use xlink:href="#DejaVuSans-30"/>
       <use xlink:href="#DejaVuSans-2e" transform="translate(63.623047 0)"/>
       <use xlink:href="#DejaVuSans-34" transform="translate(95.410156 0)"/>
      </g>
     </g>
    </g>
    <g id="ytick_4">
     <g id="line2d_12">
      <g>
       <use xlink:href="#m6e442674f5" x="43.78125" y="158.398125" style="stroke: #000000; stroke-width: 0.8"/>
      </g>
     </g>
     <g id="text_13">
      <!-- 0.6 -->
      <g transform="translate(20.878125 162.197344) scale(0.1 -0.1)">
       <defs>
        <path id="DejaVuSans-36" d="M 2113 2584 
Q 1688 2584 1439 2293 
Q 1191 2003 1191 1497 
Q 1191 994 1439 701 
Q 1688 409 2113 409 
Q 2538 409 2786 701 
Q 3034 994 3034 1497 
Q 3034 2003 2786 2293 
Q 2538 2584 2113 2584 
z
M 3366 4563 
L 3366 3988 
Q 3128 4100 2886 4159 
Q 2644 4219 2406 4219 
Q 1781 4219 1451 3797 
Q 1122 3375 1075 2522 
Q 1259 2794 1537 2939 
Q 1816 3084 2150 3084 
Q 2853 3084 3261 2657 
Q 3669 2231 3669 1497 
Q 3669 778 3244 343 
Q 2819 -91 2113 -91 
Q 1303 -91 875 529 
Q 447 1150 447 2328 
Q 447 3434 972 4092 
Q 1497 4750 2381 4750 
Q 2619 4750 2861 4703 
Q 3103 4656 3366 4563 
z
" transform="scale(0.015625)"/>
       </defs>
       <use xlink:href="#DejaVuSans-30"/>
       <use xlink:href="#DejaVuSans-2e" transform="translate(63.623047 0)"/>
       <use xlink:href="#DejaVuSans-36" transform="translate(95.410156 0)"/>
      </g>
     </g>
    </g>
    <g id="ytick_5">
     <g id="line2d_13">
      <g>
       <use xlink:href="#m6e442674f5" x="43.78125" y="97.918125" style="stroke: #000000; stroke-width: 0.8"/>
      </g>
     </g>
     <g id="text_14">
      <!-- 0.8 -->
      <g transform="translate(20.878125 101.717344) scale(0.1 -0.1)">
       <defs>
        <path id="DejaVuSans-38" d="M 2034 2216 
Q 1584 2216 1326 1975 
Q 1069 1734 1069 1313 
Q 1069 891 1326 650 
Q 1584 409 2034 409 
Q 2484 409 2743 651 
Q 3003 894 3003 1313 
Q 3003 1734 2745 1975 
Q 2488 2216 2034 2216 
z
M 1403 2484 
Q 997 2584 770 2862 
Q 544 3141 544 3541 
Q 544 4100 942 4425 
Q 1341 4750 2034 4750 
Q 2731 4750 3128 4425 
Q 3525 4100 3525 3541 
Q 3525 3141 3298 2862 
Q 3072 2584 2669 2484 
Q 3125 2378 3379 2068 
Q 3634 1759 3634 1313 
Q 3634 634 3220 271 
Q 2806 -91 2034 -91 
Q 1263 -91 848 271 
Q 434 634 434 1313 
Q 434 1759 690 2068 
Q 947 2378 1403 2484 
z
M 1172 3481 
Q 1172 3119 1398 2916 
Q 1625 2713 2034 2713 
Q 2441 2713 2670 2916 
Q 2900 3119 2900 3481 
Q 2900 3844 2670 4047 
Q 2441 4250 2034 4250 
Q 1625 4250 1398 4047 
Q 1172 3844 1172 3481 
z
" transform="scale(0.015625)"/>
       </defs>
       <use xlink:href="#DejaVuSans-30"/>
       <use xlink:href="#DejaVuSans-2e" transform="translate(63.623047 0)"/>
       <use xlink:href="#DejaVuSans-38" transform="translate(95.410156 0)"/>
      </g>
     </g>
    </g>
    <g id="ytick_6">
     <g id="line2d_14">
      <g>
       <use xlink:href="#m6e442674f5" x="43.78125" y="37.438125" style="stroke: #000000; stroke-width: 0.8"/>
      </g>
     </g>
     <g id="text_15">
      <!-- 1.0 -->
      <g transform="translate(20.878125 41.237344) scale(0.1 -0.1)">
       <use xlink:href="#DejaVuSans-31"/>
       <use xlink:href="#DejaVuSans-2e" transform="translate(63.623047 0)"/>
       <use xlink:href="#DejaVuSans-30" transform="translate(95.410156 0)"/>
      </g>
     </g>
    </g>
    <g id="text_16">
     <!-- Survival Probability -->
     <g transform="translate(14.798438 236.815469) rotate(-90) scale(0.1 -0.1)">
      <defs>
       <path id="DejaVuSans-53" d="M 3425 4513 
L 3425 3897 
Q 3066 4069 2747 4153 
Q 2428 4238 2131 4238 
Q 1616 4238 1336 4038 
Q 1056 3838 1056 3469 
Q 1056 3159 1242 3001 
Q 1428 2844 1947 2747 
L 2328 2669 
Q 3034 2534 3370 2195 
Q 3706 1856 3706 1288 
Q 3706 609 3251 259 
Q 2797 -91 1919 -91 
Q 1588 -91 1214 -16 
Q 841 59 441 206 
L 441 856 
Q 825 641 1194 531 
Q 1563 422 1919 422 
Q 2459 422 2753 634 
Q 3047 847 3047 1241 
Q 3047 1584 2836 1778 
Q 2625 1972 2144 2069 
L 1759 2144 
Q 1053 2284 737 2584 
Q 422 2884 422 3419 
Q 422 4038 858 4394 
Q 1294 4750 2059 4750 
Q 2388 4750 2728 4690 
Q 3069 4631 3425 4513 
z
" transform="scale(0.015625)"/>
       <path id="DejaVuSans-75" d="M 544 1381 
L 544 3500 
L 1119 3500 
L 1119 1403 
Q 1119 906 1312 657 
Q 1506 409 1894 409 
Q 2359 409 2629 706 
Q 2900 1003 2900 1516 
L 2900 3500 
L 3475 3500 
L 3475 0 
L 2900 0 
L 2900 538 
Q 2691 219 2414 64 
Q 2138 -91 1772 -91 
Q 1169 -91 856 284 
Q 544 659 544 1381 
z
M 1991 3584 
L 1991 3584 
z
" transform="scale(0.015625)"/>
       <path id="DejaVuSans-72" d="M 2631 2963 
Q 2534 3019 2420 3045 
Q 2306 3072 2169 3072 
Q 1681 3072 1420 2755 
Q 1159 2438 1159 1844 
L 1159 0 
L 581 0 
L 581 3500 
L 1159 3500 
L 1159 2956 
Q 1341 3275 1631 3429 
Q 1922 3584 2338 3584 
Q 2397 3584 2469 3576 
Q 2541 3569 2628 3553 
L 2631 2963 
z
" transform="scale(0.015625)"/>
       <path id="DejaVuSans-76" d="M 191 3500 
L 800 3500 
L 1894 563 
L 2988 3500 
L 3597 3500 
L 2284 0 
L 1503 0 
L 191 3500 
z
" transform="scale(0.015625)"/>
       <path id="DejaVuSans-69" d="M 603 3500 
L 1178 3500 
L 1178 0 
L 603 0 
L 603 3500 
z
M 603 4863 
L 1178 4863 
L 1178 4134 
L 603 4134 
L 603 4863 
z
" transform="scale(0.015625)"/>
       <path id="DejaVuSans-6c" d="M 603 4863 
L 1178 4863 
L 1178 0 
L 603 0 
L 603 4863 
z
" transform="scale(0.015625)"/>
       <path id="DejaVuSans-20" transform="scale(0.015625)"/>
       <path id="DejaVuSans-50" d="M 1259 4147 
L 1259 2394 
L 2053 2394 
Q 2494 2394 2734 2622 
Q 2975 2850 2975 3272 
Q 2975 3691 2734 3919 
Q 2494 4147 2053 4147 
L 1259 4147 
z
M 628 4666 
L 2053 4666 
Q 2838 4666 3239 4311 
Q 3641 3956 3641 3272 
Q 3641 2581 3239 2228 
Q 2838 1875 2053 1875 
L 1259 1875 
L 1259 0 
L 628 0 
L 628 4666 
z
" transform="scale(0.015625)"/>
       <path id="DejaVuSans-6f" d="M 1959 3097 
Q 1497 3097 1228 2736 
Q 959 2375 959 1747 
Q 959 1119 1226 758 
Q 1494 397 1959 397 
Q 2419 397 2687 759 
Q 2956 1122 2956 1747 
Q 2956 2369 2687 2733 
Q 2419 3097 1959 3097 
z
M 1959 3584 
Q 2709 3584 3137 3096 
Q 3566 2609 3566 1747 
Q 3566 888 3137 398 
Q 2709 -91 1959 -91 
Q 1206 -91 779 398 
Q 353 888 353 1747 
Q 353 2609 779 3096 
Q 1206 3584 1959 3584 
z
" transform="scale(0.015625)"/>
       <path id="DejaVuSans-62" d="M 3116 1747 
Q 3116 2381 2855 2742 
Q 2594 3103 2138 3103 
Q 1681 3103 1420 2742 
Q 1159 2381 1159 1747 
Q 1159 1113 1420 752 
Q 1681 391 2138 391 
Q 2594 391 2855 752 
Q 3116 1113 3116 1747 
z
M 1159 2969 
Q 1341 3281 1617 3432 
Q 1894 3584 2278 3584 
Q 2916 3584 3314 3078 
Q 3713 2572 3713 1747 
Q 3713 922 3314 415 
Q 2916 -91 2278 -91 
Q 1894 -91 1617 61 
Q 1341 213 1159 525 
L 1159 0 
L 581 0 
L 581 4863 
L 1159 4863 
L 1159 2969 
z
" transform="scale(0.015625)"/>
       <path id="DejaVuSans-74" d="M 1172 4494 
L 1172 3500 
L 2356 3500 
L 2356 3053 
L 1172 3053 
L 1172 1153 
Q 1172 725 1289 603 
Q 1406 481 1766 481 
L 2356 481 
L 2356 0 
L 1766 0 
Q 1100 0 847 248 
Q 594 497 594 1153 
L 594 3053 
L 172 3053 
L 172 3500 
L 594 3500 
L 594 4494 
L 1172 4494 
z
" transform="scale(0.015625)"/>
      </defs>
      <use xlink:href="#DejaVuSans-53"/>
      <use xlink:href="#DejaVuSans-75" transform="translate(63.476562 0)"/>
      <use xlink:href="#DejaVuSans-72" transform="translate(126.855469 0)"/>
      <use xlink:href="#DejaVuSans-76" transform="translate(167.96875 0)"/>
      <use xlink:href="#DejaVuSans-69" transform="translate(227.148438 0)"/>
      <use xlink:href="#DejaVuSans-76" transform="translate(254.931641 0)"/>
      <use xlink:href="#DejaVuSans-61" transform="translate(314.111328 0)"/>
      <use xlink:href="#DejaVuSans-6c" transform="translate(375.390625 0)"/>
      <use xlink:href="#DejaVuSans-20" transform="translate(403.173828 0)"/>
      <use xlink:href="#DejaVuSans-50" transform="translate(434.960938 0)"/>
      <use xlink:href="#DejaVuSans-72" transform="translate(493.513672 0)"/>
      <use xlink:href="#DejaVuSans-6f" transform="translate(532.376953 0)"/>
      <use xlink:href="#DejaVuSans-62" transform="translate(593.558594 0)"/>
      <use xlink:href="#DejaVuSans-61" transform="translate(657.035156 0)"/>
      <use xlink:href="#DejaVuSans-62" transform="translate(718.314453 0)"/>
      <use xlink:href="#DejaVuSans-69" transform="translate(781.791016 0)"/>
      <use xlink:href="#DejaVuSans-6c" transform="translate(809.574219 0)"/>
      <use xlink:href="#DejaVuSans-69" transform="translate(837.357422 0)"/>
      <use xlink:href="#DejaVuSans-74" transform="translate(865.140625 0)"/>
      <use xlink:href="#DejaVuSans-79" transform="translate(904.349609 0)"/>
     </g>
    </g>
   </g>
   <g id="line2d_15">
    <path d="M 69.144886 37.438125 
L 70.351083 37.438125 
L 70.351083 39.013125 
L 70.619127 39.013125 
L 70.619127 39.800625 
L 70.753149 39.800625 
L 70.753149 41.375625 
L 71.021192 41.375625 
L 71.021192 42.163125 
L 71.691302 42.163125 
L 71.691302 42.950625 
L 72.093367 42.950625 
L 72.093367 43.738125 
L 72.763476 43.738125 
L 72.763476 44.525625 
L 72.897498 44.525625 
L 72.897498 45.313125 
L 73.701629 45.313125 
L 73.701629 46.888125 
L 73.969673 46.888125 
L 73.969673 47.675625 
L 74.639782 47.675625 
L 74.639782 48.463125 
L 74.773804 48.463125 
L 74.773804 49.250625 
L 75.443914 49.250625 
L 75.443914 50.038125 
L 76.114023 50.038125 
L 76.114023 51.613125 
L 76.65011 51.613125 
L 76.65011 53.188125 
L 76.918154 53.188125 
L 76.918154 53.975625 
L 77.052176 53.975625 
L 77.052176 54.763125 
L 77.32022 54.763125 
L 77.32022 55.550625 
L 77.454241 55.550625 
L 77.454241 56.338125 
L 77.856307 56.338125 
L 77.856307 57.913125 
L 78.392394 57.913125 
L 78.392394 58.700625 
L 79.062504 58.700625 
L 79.062504 59.488125 
L 79.330547 59.488125 
L 79.330547 60.275625 
L 80.000657 60.275625 
L 80.000657 61.063125 
L 80.2687 61.063125 
L 80.2687 61.850625 
L 80.93881 61.850625 
L 80.93881 62.638125 
L 81.340875 62.638125 
L 81.340875 64.213125 
L 81.608919 64.213125 
L 81.608919 65.000625 
L 83.083159 65.000625 
L 83.083159 65.788125 
L 83.351203 65.788125 
L 83.351203 66.575625 
L 83.753269 66.575625 
L 83.753269 67.363125 
L 85.093487 67.363125 
L 85.093487 68.150625 
L 85.227509 68.150625 
L 85.227509 68.938125 
L 85.495553 68.938125 
L 85.495553 69.725625 
L 85.629575 69.725625 
L 85.629575 70.513125 
L 86.835771 70.513125 
L 86.835771 72.088125 
L 87.773924 72.088125 
L 87.773924 72.875625 
L 88.444034 72.875625 
L 88.444034 73.663125 
L 88.712077 73.663125 
L 88.712077 74.450625 
L 89.114143 74.450625 
L 89.114143 75.238125 
L 89.65023 75.238125 
L 89.65023 76.025625 
L 90.186318 76.025625 
L 90.186318 76.813125 
L 90.856427 76.813125 
L 90.856427 77.600625 
L 91.124471 77.600625 
L 91.124471 78.388125 
L 91.392515 78.388125 
L 91.392515 79.963125 
L 91.660558 79.963125 
L 91.660558 81.538125 
L 92.062624 81.538125 
L 92.062624 82.325625 
L 92.330668 82.325625 
L 92.330668 83.113125 
L 94.475017 83.113125 
L 94.475017 83.900625 
L 94.743061 83.900625 
L 94.743061 84.688125 
L 96.217301 84.688125 
L 96.217301 85.475625 
L 96.485345 85.475625 
L 96.485345 86.263125 
L 96.753389 86.263125 
L 96.753389 87.838125 
L 97.423498 87.838125 
L 97.423498 88.625625 
L 98.629695 88.625625 
L 98.629695 89.413125 
L 99.03176 89.413125 
L 99.03176 90.200625 
L 99.165782 90.200625 
L 99.165782 90.988125 
L 100.371979 90.988125 
L 100.371979 92.563125 
L 100.640023 92.563125 
L 100.640023 93.350625 
L 101.578176 93.350625 
L 101.578176 94.138125 
L 101.712198 94.138125 
L 101.712198 94.925625 
L 102.248285 94.925625 
L 102.248285 95.713125 
L 102.382307 95.713125 
L 102.382307 96.500625 
L 102.650351 96.500625 
L 102.650351 98.075625 
L 103.588504 98.075625 
L 103.588504 98.863125 
L 103.722525 98.863125 
L 103.722525 99.650625 
L 103.856547 99.650625 
L 103.856547 100.438125 
L 104.258613 100.438125 
L 104.258613 102.013125 
L 105.598831 102.013125 
L 105.598831 102.800625 
L 105.866875 102.800625 
L 105.866875 103.588125 
L 106.000897 103.588125 
L 106.000897 104.375625 
L 106.134919 104.375625 
L 106.134919 105.163125 
L 106.402963 105.163125 
L 106.402963 105.950625 
L 106.536984 105.950625 
L 106.536984 106.738125 
L 107.341115 106.738125 
L 107.341115 107.525625 
L 107.877203 107.525625 
L 107.877203 108.313125 
L 108.547312 108.313125 
L 108.547312 109.100625 
L 108.815356 109.100625 
L 108.815356 109.888125 
L 109.887531 109.888125 
L 109.887531 110.675625 
L 110.021553 110.675625 
L 110.021553 111.463125 
L 110.825684 111.463125 
L 110.825684 113.038125 
L 111.093727 113.038125 
L 111.093727 113.825625 
L 112.03188 113.825625 
L 112.03188 115.400625 
L 113.104055 115.400625 
L 113.104055 116.188125 
L 113.238077 116.188125 
L 113.238077 116.975625 
L 114.17623 116.975625 
L 114.17623 118.550625 
L 114.712318 118.550625 
L 114.712318 119.338125 
L 114.980361 119.338125 
L 114.980361 120.125625 
L 115.248405 120.125625 
L 115.248405 120.913125 
L 115.650471 120.913125 
L 115.650471 121.700625 
L 115.918514 121.700625 
L 115.918514 122.488125 
L 116.052536 122.488125 
L 116.052536 124.063125 
L 116.588624 124.063125 
L 116.588624 124.850625 
L 116.856667 124.850625 
L 116.856667 125.638125 
L 117.124711 125.638125 
L 117.124711 126.425625 
L 117.258733 126.425625 
L 117.258733 127.213125 
L 117.660798 127.213125 
L 117.660798 128.000625 
L 118.062864 128.000625 
L 118.062864 128.788125 
L 118.732973 128.788125 
L 118.732973 129.575625 
L 119.135039 129.575625 
L 119.135039 130.363125 
L 119.403083 130.363125 
L 119.403083 131.150625 
L 119.671126 131.150625 
L 119.671126 131.938125 
L 119.805148 131.938125 
L 119.805148 133.513125 
L 121.949498 133.513125 
L 121.949498 134.300625 
L 122.08352 134.300625 
L 122.08352 135.088125 
L 122.217542 135.088125 
L 122.217542 136.663125 
L 123.825804 136.663125 
L 123.825804 137.450625 
L 124.495913 137.450625 
L 124.495913 138.238125 
L 124.629935 138.238125 
L 124.629935 139.025625 
L 124.763957 139.025625 
L 124.763957 139.813125 
L 124.897979 139.813125 
L 124.897979 140.600625 
L 125.300044 140.600625 
L 125.300044 141.388125 
L 125.568088 141.388125 
L 125.568088 142.175625 
L 128.382547 142.175625 
L 128.382547 142.963125 
L 128.784613 142.963125 
L 128.784613 143.750625 
L 128.918634 143.750625 
L 128.918634 145.325625 
L 129.186678 145.325625 
L 129.186678 146.113125 
L 129.722766 146.113125 
L 129.722766 146.900625 
L 130.79494 146.900625 
L 130.79494 147.688125 
L 131.733093 147.688125 
L 131.733093 148.475625 
L 132.001137 148.475625 
L 132.001137 149.263125 
L 132.671246 149.263125 
L 132.671246 150.050625 
L 132.805268 150.050625 
L 132.805268 150.838125 
L 133.073312 150.838125 
L 133.073312 151.625625 
L 133.207334 151.625625 
L 133.207334 152.413125 
L 133.475378 152.413125 
L 133.475378 153.200625 
L 133.877443 153.200625 
L 133.877443 153.988125 
L 134.011465 153.988125 
L 134.011465 154.775625 
L 134.145487 154.775625 
L 134.145487 155.563125 
L 134.949618 155.563125 
L 134.949618 156.350625 
L 135.351684 156.350625 
L 135.351684 157.138125 
L 135.619727 157.138125 
L 135.619727 157.925625 
L 136.959946 157.925625 
L 136.959946 158.713125 
L 138.032121 158.713125 
L 138.032121 159.500625 
L 138.166143 159.500625 
L 138.166143 160.288125 
L 138.568208 160.288125 
L 138.568208 161.075625 
L 140.310492 161.075625 
L 140.310492 161.863125 
L 141.918755 161.863125 
L 141.918755 162.650625 
L 142.454842 162.650625 
L 142.454842 164.225625 
L 142.856907 164.225625 
L 142.856907 165.800625 
L 143.124951 165.800625 
L 143.124951 166.588125 
L 143.258973 166.588125 
L 143.258973 167.375625 
L 143.527017 167.375625 
L 143.527017 168.163125 
L 143.79506 168.163125 
L 143.79506 168.950625 
L 143.929082 168.950625 
L 143.929082 169.738125 
L 144.197126 169.738125 
L 144.197126 170.525625 
L 144.331148 170.525625 
L 144.331148 171.313125 
L 144.46517 171.313125 
L 144.46517 172.100625 
L 144.599192 172.100625 
L 144.599192 172.888125 
L 144.867235 172.888125 
L 144.867235 173.675625 
L 145.671366 173.675625 
L 145.671366 174.463125 
L 145.805388 174.463125 
L 145.805388 175.250625 
L 146.073432 175.250625 
L 146.073432 176.038125 
L 147.815716 176.038125 
L 147.815716 176.825625 
L 148.217782 176.825625 
L 148.217782 177.613125 
L 149.423978 177.613125 
L 149.423978 178.400625 
L 150.496153 178.400625 
L 150.496153 179.188125 
L 150.630175 179.188125 
L 150.630175 180.763125 
L 151.166263 180.763125 
L 151.166263 182.338125 
L 151.568328 182.338125 
L 151.568328 183.125625 
L 152.104416 183.125625 
L 152.104416 183.913125 
L 152.774525 183.913125 
L 152.774525 185.488125 
L 153.17659 185.488125 
L 153.17659 186.275625 
L 153.980722 186.275625 
L 153.980722 187.063125 
L 154.516809 187.063125 
L 154.516809 187.850625 
L 154.918875 187.850625 
L 154.918875 188.638125 
L 155.32094 188.638125 
L 155.32094 190.213125 
L 155.588984 190.213125 
L 155.588984 191.000625 
L 157.599312 191.000625 
L 157.599312 191.788125 
L 157.733334 191.788125 
L 157.733334 192.575625 
L 158.001377 192.575625 
L 158.001377 193.363125 
L 159.60964 193.363125 
L 159.60964 194.150625 
L 160.145727 194.150625 
L 160.145727 194.938125 
L 160.279749 194.938125 
L 160.279749 195.725625 
L 162.156055 195.725625 
L 162.156055 196.513125 
L 162.424099 196.513125 
L 162.424099 197.300625 
L 163.094208 197.300625 
L 163.094208 198.088125 
L 164.166383 198.088125 
L 164.166383 198.875625 
L 164.434426 198.875625 
L 164.434426 199.663125 
L 164.568448 199.663125 
L 164.568448 200.450625 
L 165.908667 200.450625 
L 165.908667 201.238125 
L 166.578776 201.238125 
L 166.578776 202.025625 
L 166.712798 202.025625 
L 166.712798 202.813125 
L 168.187038 202.813125 
L 168.187038 203.600625 
L 172.073672 203.600625 
L 172.073672 205.175625 
L 172.341716 205.175625 
L 172.341716 206.750625 
L 172.743782 206.750625 
L 172.743782 207.538125 
L 173.279869 207.538125 
L 173.279869 208.325625 
L 173.949978 208.325625 
L 173.949978 209.113125 
L 174.352044 209.113125 
L 174.352044 209.900625 
L 175.290197 209.900625 
L 175.290197 210.688125 
L 176.630415 210.688125 
L 176.630415 211.475625 
L 178.908787 211.475625 
L 178.908787 213.050625 
L 179.042809 213.050625 
L 179.042809 213.838125 
L 179.176831 213.838125 
L 179.176831 214.625625 
L 179.310852 214.625625 
L 179.310852 215.413125 
L 180.114984 215.413125 
L 180.114984 216.200625 
L 180.249005 216.200625 
L 180.249005 217.775625 
L 180.919115 217.775625 
L 180.919115 218.563125 
L 181.857268 218.563125 
L 181.857268 219.350625 
L 183.733574 219.350625 
L 183.733574 220.138125 
L 184.93977 220.138125 
L 184.93977 221.713125 
L 185.475858 221.713125 
L 185.475858 222.500625 
L 186.816076 222.500625 
L 186.816076 223.288125 
L 187.08412 223.288125 
L 187.08412 224.075625 
L 187.218142 224.075625 
L 187.218142 224.863125 
L 187.486186 224.863125 
L 187.486186 225.650625 
L 188.022273 225.650625 
L 188.022273 226.438125 
L 189.630535 226.438125 
L 189.630535 227.225625 
L 191.640863 227.225625 
L 191.640863 228.013125 
L 193.919235 228.013125 
L 193.919235 228.800625 
L 194.053257 228.800625 
L 194.053257 229.588125 
L 195.929563 229.588125 
L 195.929563 230.375625 
L 196.331628 230.375625 
L 196.331628 231.163125 
L 196.599672 231.163125 
L 196.599672 232.738125 
L 196.867716 232.738125 
L 196.867716 233.525625 
L 199.950218 233.525625 
L 199.950218 234.313125 
L 200.218262 234.313125 
L 200.218262 235.100625 
L 201.022393 235.100625 
L 201.022393 235.888125 
L 202.094568 235.888125 
L 202.094568 236.675625 
L 203.166743 236.675625 
L 203.166743 237.463125 
L 203.70283 237.463125 
L 203.70283 239.038125 
L 203.836852 239.038125 
L 203.836852 240.613125 
L 207.589464 240.613125 
L 207.589464 241.400625 
L 207.723486 241.400625 
L 207.723486 242.188125 
L 207.99153 242.188125 
L 207.99153 242.975625 
L 208.259574 242.975625 
L 208.259574 243.763125 
L 208.393595 243.763125 
L 208.393595 244.550625 
L 208.929683 244.550625 
L 208.929683 245.338125 
L 211.074033 245.338125 
L 211.074033 246.125625 
L 211.744142 246.125625 
L 211.744142 247.700625 
L 212.414251 247.700625 
L 212.414251 248.488125 
L 213.218382 248.488125 
L 213.218382 250.063125 
L 213.486426 250.063125 
L 213.486426 250.850625 
L 213.620448 250.850625 
L 213.620448 251.638125 
L 214.156535 251.638125 
L 214.156535 252.425625 
L 215.094688 252.425625 
L 215.094688 253.213125 
L 215.362732 253.213125 
L 215.362732 254.000625 
L 215.496754 254.000625 
L 215.496754 254.788125 
L 217.105016 254.788125 
L 217.105016 255.575625 
L 218.043169 255.575625 
L 218.043169 256.363125 
L 219.651431 256.363125 
L 219.651431 257.150625 
L 220.99165 257.150625 
L 220.99165 257.938125 
L 223.136 257.938125 
L 223.136 258.725625 
L 223.940131 258.725625 
L 223.940131 259.513125 
L 224.074153 259.513125 
L 224.074153 260.300625 
L 224.208174 260.300625 
L 224.208174 261.088125 
L 225.012306 261.088125 
L 225.012306 261.875625 
L 226.352524 261.875625 
L 226.352524 262.663125 
L 229.971114 262.663125 
L 229.971114 263.450625 
L 231.311333 263.450625 
L 231.311333 265.025625 
L 233.99177 265.025625 
L 233.99177 265.813125 
L 236.538185 265.813125 
L 236.538185 266.600625 
L 239.352644 266.600625 
L 239.352644 268.175625 
L 240.022754 268.175625 
L 240.022754 268.963125 
L 240.424819 268.963125 
L 240.424819 269.750625 
L 240.558841 269.750625 
L 240.558841 270.538125 
L 241.765038 270.538125 
L 241.765038 271.325625 
L 242.569169 271.325625 
L 242.569169 272.113125 
L 245.651672 272.113125 
L 245.651672 272.900625 
L 248.332109 272.900625 
L 248.332109 273.688125 
L 249.13624 273.688125 
L 249.13624 274.475625 
L 249.806349 274.475625 
L 249.806349 275.263125 
L 250.744502 275.263125 
L 250.744502 276.838125 
L 252.352764 276.838125 
L 252.352764 277.625625 
L 252.620808 277.625625 
L 252.620808 278.413125 
L 253.022874 278.413125 
L 253.022874 279.988125 
L 256.37342 279.988125 
L 256.37342 280.775625 
L 257.445595 280.775625 
L 257.445595 281.563125 
L 259.455923 281.563125 
L 259.455923 282.350625 
L 261.064185 282.350625 
L 261.064185 283.138125 
L 265.218863 283.138125 
L 265.218863 283.925625 
L 266.157016 283.925625 
L 266.157016 284.713125 
L 267.8993 284.713125 
L 267.8993 285.500625 
L 268.033322 285.500625 
L 268.033322 286.288125 
L 269.105496 286.288125 
L 269.105496 287.863125 
L 269.239518 287.863125 
L 269.239518 288.650625 
L 274.466371 288.650625 
L 274.466371 289.438125 
L 275.002458 289.438125 
L 275.002458 290.225625 
L 277.146808 290.225625 
L 277.146808 291.013125 
L 277.682895 291.013125 
L 277.682895 291.800625 
L 278.218983 291.800625 
L 278.218983 292.588125 
L 281.301485 292.588125 
L 281.301485 294.163125 
L 282.239638 294.163125 
L 282.239638 294.950625 
L 283.311813 294.950625 
L 283.311813 295.738125 
L 286.528338 295.738125 
L 286.528338 296.525625 
L 286.930403 296.525625 
L 286.930403 297.313125 
L 287.064425 297.313125 
L 287.064425 298.100625 
L 288.806709 298.100625 
L 288.806709 298.888125 
L 289.744862 298.888125 
L 289.744862 299.675625 
L 290.28095 299.675625 
L 290.28095 300.463125 
L 290.548993 300.463125 
L 290.548993 301.250625 
L 291.75519 301.250625 
L 291.75519 302.038125 
L 294.301605 302.038125 
L 294.301605 302.825625 
L 296.177911 302.825625 
L 296.177911 303.613125 
L 298.858349 303.613125 
L 298.858349 304.400625 
L 299.394436 304.400625 
L 299.394436 305.188125 
L 301.806829 305.188125 
L 301.806829 305.975625 
L 302.610961 305.975625 
L 302.610961 306.763125 
L 308.239879 306.763125 
L 308.239879 307.550625 
L 309.446075 307.550625 
L 309.446075 308.338125 
L 310.250206 308.338125 
L 310.250206 309.125625 
L 310.920316 309.125625 
L 310.920316 309.913125 
L 314.404884 309.913125 
L 314.404884 310.700625 
L 317.889452 310.700625 
L 317.889452 311.488125 
L 319.631736 311.488125 
L 319.631736 312.275625 
L 322.580217 312.275625 
L 322.580217 313.063125 
L 325.394676 313.063125 
L 325.394676 314.638125 
L 326.332829 314.638125 
L 326.332829 315.425625 
L 332.363813 315.425625 
L 332.363813 316.213125 
L 333.167944 316.213125 
L 333.167944 317.000625 
L 333.435988 317.000625 
L 333.435988 317.788125 
L 335.04425 317.788125 
L 335.04425 318.575625 
L 335.312294 318.575625 
L 335.312294 319.363125 
L 336.250447 319.363125 
L 336.250447 320.150625 
L 337.590665 320.150625 
L 337.590665 320.938125 
L 338.394796 320.938125 
L 338.394796 321.725625 
L 350.18872 321.725625 
L 350.18872 322.513125 
L 351.260895 322.513125 
L 351.260895 323.300625 
L 352.735135 323.300625 
L 352.735135 324.088125 
L 355.013507 324.088125 
L 355.013507 324.875625 
L 355.147528 324.875625 
L 355.147528 325.663125 
L 357.827966 325.663125 
L 357.827966 326.450625 
L 360.508403 326.450625 
L 360.508403 327.238125 
L 367.611561 327.238125 
L 367.611561 328.025625 
L 371.498195 328.025625 
L 371.498195 328.813125 
L 377.261135 328.813125 
L 377.261135 329.600625 
L 383.158096 329.600625 
L 383.158096 330.388125 
L 388.921036 330.388125 
L 388.921036 331.175625 
L 398.034522 331.175625 
L 398.034522 331.963125 
L 398.302566 331.963125 
L 398.302566 332.750625 
L 402.859309 332.750625 
L 402.859309 333.538125 
L 409.828446 333.538125 
L 409.828446 334.325625 
L 415.859429 334.325625 
L 415.859429 335.113125 
L 437.57097 335.113125 
L 437.57097 335.900625 
L 438.911189 335.900625 
L 438.911189 336.688125 
L 505.788095 336.688125 
L 505.788095 337.475625 
L 517.984084 337.475625 
L 517.984084 338.263125 
L 553.633898 338.263125 
L 553.633898 339.050625 
L 576.417614 339.050625 
L 576.417614 339.838125 
L 576.417614 339.838125 
" clip-path="url(#p56661a96e5)" style="fill: none; stroke: #1f77b4; stroke-width: 1.5; stroke-linecap: square"/>
   </g>
   <g id="patch_3">
    <path d="M 43.78125 354.958125 
L 43.78125 22.318125 
" style="fill: none; stroke: #000000; stroke-width: 0.8; stroke-linejoin: miter; stroke-linecap: square"/>
   </g>
   <g id="patch_4">
    <path d="M 601.78125 354.958125 
L 601.78125 22.318125 
" style="fill: none; stroke: #000000; stroke-width: 0.8; stroke-linejoin: miter; stroke-linecap: square"/>
   </g>
   <g id="patch_5">
    <path d="M 43.78125 354.958125 
L 601.78125 354.958125 
" style="fill: none; stroke: #000000; stroke-width: 0.8; stroke-linejoin: miter; stroke-linecap: square"/>
   </g>
   <g id="patch_6">
    <path d="M 43.78125 22.318125 
L 601.78125 22.318125 
" style="fill: none; stroke: #000000; stroke-width: 0.8; stroke-linejoin: miter; stroke-linecap: square"/>
   </g>
   <g id="text_17">
    <g id="patch_7">
     <path d="M 71.68125 310.141813 
L 212.370313 310.141813 
Q 215.370313 310.141813 215.370313 307.141813 
L 215.370313 275.068062 
Q 215.370313 272.068062 212.370313 272.068062 
L 71.68125 272.068062 
Q 68.68125 272.068062 68.68125 275.068062 
L 68.68125 307.141813 
Q 68.68125 310.141813 71.68125 310.141813 
z
" style="fill: #ffffff; opacity: 0.8; stroke: #808080; stroke-linejoin: miter"/>
    </g>
    <!-- Patients: 384 -->
    <g transform="translate(71.68125 282.6665) scale(0.1 -0.1)">
     <defs>
      <path id="DejaVuSans-65" d="M 3597 1894 
L 3597 1613 
L 953 1613 
Q 991 1019 1311 708 
Q 1631 397 2203 397 
Q 2534 397 2845 478 
Q 3156 559 3463 722 
L 3463 178 
Q 3153 47 2828 -22 
Q 2503 -91 2169 -91 
Q 1331 -91 842 396 
Q 353 884 353 1716 
Q 353 2575 817 3079 
Q 1281 3584 2069 3584 
Q 2775 3584 3186 3129 
Q 3597 2675 3597 1894 
z
M 3022 2063 
Q 3016 2534 2758 2815 
Q 2500 3097 2075 3097 
Q 1594 3097 1305 2825 
Q 1016 2553 972 2059 
L 3022 2063 
z
" transform="scale(0.015625)"/>
      <path id="DejaVuSans-6e" d="M 3513 2113 
L 3513 0 
L 2938 0 
L 2938 2094 
Q 2938 2591 2744 2837 
Q 2550 3084 2163 3084 
Q 1697 3084 1428 2787 
Q 1159 2491 1159 1978 
L 1159 0 
L 581 0 
L 581 3500 
L 1159 3500 
L 1159 2956 
Q 1366 3272 1645 3428 
Q 1925 3584 2291 3584 
Q 2894 3584 3203 3211 
Q 3513 2838 3513 2113 
z
" transform="scale(0.015625)"/>
      <path id="DejaVuSans-3a" d="M 750 794 
L 1409 794 
L 1409 0 
L 750 0 
L 750 794 
z
M 750 3309 
L 1409 3309 
L 1409 2516 
L 750 2516 
L 750 3309 
z
" transform="scale(0.015625)"/>
     </defs>
     <use xlink:href="#DejaVuSans-50"/>
     <use xlink:href="#DejaVuSans-61" transform="translate(55.802734 0)"/>
     <use xlink:href="#DejaVuSans-74" transform="translate(117.082031 0)"/>
     <use xlink:href="#DejaVuSans-69" transform="translate(156.291016 0)"/>
     <use xlink:href="#DejaVuSans-65" transform="translate(184.074219 0)"/>
     <use xlink:href="#DejaVuSans-6e" transform="translate(245.597656 0)"/>
     <use xlink:href="#DejaVuSans-74" transform="translate(308.976562 0)"/>
     <use xlink:href="#DejaVuSans-73" transform="translate(348.185547 0)"/>
     <use xlink:href="#DejaVuSans-3a" transform="translate(400.285156 0)"/>
     <use xlink:href="#DejaVuSans-20" transform="translate(433.976562 0)"/>
     <use xlink:href="#DejaVuSans-33" transform="translate(465.763672 0)"/>
     <use xlink:href="#DejaVuSans-38" transform="translate(529.386719 0)"/>
     <use xlink:href="#DejaVuSans-34" transform="translate(593.009766 0)"/>
    </g>
    <!-- Events: 384 -->
    <g transform="translate(71.68125 293.864312) scale(0.1 -0.1)">
     <defs>
      <path id="DejaVuSans-45" d="M 628 4666 
L 3578 4666 
L 3578 4134 
L 1259 4134 
L 1259 2753 
L 3481 2753 
L 3481 2222 
L 1259 2222 
L 1259 531 
L 3634 531 
L 3634 0 
L 628 0 
L 628 4666 
z
" transform="scale(0.015625)"/>
     </defs>
     <use xlink:href="#DejaVuSans-45"/>
     <use xlink:href="#DejaVuSans-76" transform="translate(63.183594 0)"/>
     <use xlink:href="#DejaVuSans-65" transform="translate(122.363281 0)"/>
     <use xlink:href="#DejaVuSans-6e" transform="translate(183.886719 0)"/>
     <use xlink:href="#DejaVuSans-74" transform="translate(247.265625 0)"/>
     <use xlink:href="#DejaVuSans-73" transform="translate(286.474609 0)"/>
     <use xlink:href="#DejaVuSans-3a" transform="translate(338.574219 0)"/>
     <use xlink:href="#DejaVuSans-20" transform="translate(372.265625 0)"/>
     <use xlink:href="#DejaVuSans-33" transform="translate(404.052734 0)"/>
     <use xlink:href="#DejaVuSans-38" transform="translate(467.675781 0)"/>
     <use xlink:href="#DejaVuSans-34" transform="translate(531.298828 0)"/>
    </g>
    <!-- Median survival: 640.0 days -->
    <g transform="translate(71.68125 305.062125) scale(0.1 -0.1)">
     <defs>
      <path id="DejaVuSans-4d" d="M 628 4666 
L 1569 4666 
L 2759 1491 
L 3956 4666 
L 4897 4666 
L 4897 0 
L 4281 0 
L 4281 4097 
L 3078 897 
L 2444 897 
L 1241 4097 
L 1241 0 
L 628 0 
L 628 4666 
z
" transform="scale(0.015625)"/>
      <path id="DejaVuSans-64" d="M 2906 2969 
L 2906 4863 
L 3481 4863 
L 3481 0 
L 2906 0 
L 2906 525 
Q 2725 213 2448 61 
Q 2172 -91 1784 -91 
Q 1150 -91 751 415 
Q 353 922 353 1747 
Q 353 2572 751 3078 
Q 1150 3584 1784 3584 
Q 2172 3584 2448 3432 
Q 2725 3281 2906 2969 
z
M 947 1747 
Q 947 1113 1208 752 
Q 1469 391 1925 391 
Q 2381 391 2643 752 
Q 2906 1113 2906 1747 
Q 2906 2381 2643 2742 
Q 2381 3103 1925 3103 
Q 1469 3103 1208 2742 
Q 947 2381 947 1747 
z
" transform="scale(0.015625)"/>
     </defs>
     <use xlink:href="#DejaVuSans-4d"/>
     <use xlink:href="#DejaVuSans-65" transform="translate(86.279297 0)"/>
     <use xlink:href="#DejaVuSans-64" transform="translate(147.802734 0)"/>
     <use xlink:href="#DejaVuSans-69" transform="translate(211.279297 0)"/>
     <use xlink:href="#DejaVuSans-61" transform="translate(239.0625 0)"/>
     <use xlink:href="#DejaVuSans-6e" transform="translate(300.341797 0)"/>
     <use xlink:href="#DejaVuSans-20" transform="translate(363.720703 0)"/>
     <use xlink:href="#DejaVuSans-73" transform="translate(395.507812 0)"/>
     <use xlink:href="#DejaVuSans-75" transform="translate(447.607422 0)"/>
     <use xlink:href="#DejaVuSans-72" transform="translate(510.986328 0)"/>
     <use xlink:href="#DejaVuSans-76" transform="translate(552.099609 0)"/>
     <use xlink:href="#DejaVuSans-69" transform="translate(611.279297 0)"/>
     <use xlink:href="#DejaVuSans-76" transform="translate(639.0625 0)"/>
     <use xlink:href="#DejaVuSans-61" transform="translate(698.242188 0)"/>
     <use xlink:href="#DejaVuSans-6c" transform="translate(759.521484 0)"/>
     <use xlink:href="#DejaVuSans-3a" transform="translate(787.304688 0)"/>
     <use xlink:href="#DejaVuSans-20" transform="translate(820.996094 0)"/>
     <use xlink:href="#DejaVuSans-36" transform="translate(852.783203 0)"/>
     <use xlink:href="#DejaVuSans-34" transform="translate(916.40625 0)"/>
     <use xlink:href="#DejaVuSans-30" transform="translate(980.029297 0)"/>
     <use xlink:href="#DejaVuSans-2e" transform="translate(1043.652344 0)"/>
     <use xlink:href="#DejaVuSans-30" transform="translate(1075.439453 0)"/>
     <use xlink:href="#DejaVuSans-20" transform="translate(1139.0625 0)"/>
     <use xlink:href="#DejaVuSans-64" transform="translate(1170.849609 0)"/>
     <use xlink:href="#DejaVuSans-61" transform="translate(1234.326172 0)"/>
     <use xlink:href="#DejaVuSans-79" transform="translate(1295.605469 0)"/>
     <use xlink:href="#DejaVuSans-73" transform="translate(1354.785156 0)"/>
    </g>
   </g>
   <g id="text_18">
    <!-- Kaplan-Meier Survival Curve - Radiology Model -->
    <g transform="translate(182.295938 16.318125) scale(0.12 -0.12)">
     <defs>
      <path id="DejaVuSans-4b" d="M 628 4666 
L 1259 4666 
L 1259 2694 
L 3353 4666 
L 4166 4666 
L 1850 2491 
L 4331 0 
L 3500 0 
L 1259 2247 
L 1259 0 
L 628 0 
L 628 4666 
z
" transform="scale(0.015625)"/>
      <path id="DejaVuSans-70" d="M 1159 525 
L 1159 -1331 
L 581 -1331 
L 581 3500 
L 1159 3500 
L 1159 2969 
Q 1341 3281 1617 3432 
Q 1894 3584 2278 3584 
Q 2916 3584 3314 3078 
Q 3713 2572 3713 1747 
Q 3713 922 3314 415 
Q 2916 -91 2278 -91 
Q 1894 -91 1617 61 
Q 1341 213 1159 525 
z
M 3116 1747 
Q 3116 2381 2855 2742 
Q 2594 3103 2138 3103 
Q 1681 3103 1420 2742 
Q 1159 2381 1159 1747 
Q 1159 1113 1420 752 
Q 1681 391 2138 391 
Q 2594 391 2855 752 
Q 3116 1113 3116 1747 
z
" transform="scale(0.015625)"/>
      <path id="DejaVuSans-2d" d="M 313 2009 
L 1997 2009 
L 1997 1497 
L 313 1497 
L 313 2009 
z
" transform="scale(0.015625)"/>
      <path id="DejaVuSans-43" d="M 4122 4306 
L 4122 3641 
Q 3803 3938 3442 4084 
Q 3081 4231 2675 4231 
Q 1875 4231 1450 3742 
Q 1025 3253 1025 2328 
Q 1025 1406 1450 917 
Q 1875 428 2675 428 
Q 3081 428 3442 575 
Q 3803 722 4122 1019 
L 4122 359 
Q 3791 134 3420 21 
Q 3050 -91 2638 -91 
Q 1578 -91 968 557 
Q 359 1206 359 2328 
Q 359 3453 968 4101 
Q 1578 4750 2638 4750 
Q 3056 4750 3426 4639 
Q 3797 4528 4122 4306 
z
" transform="scale(0.015625)"/>
      <path id="DejaVuSans-52" d="M 2841 2188 
Q 3044 2119 3236 1894 
Q 3428 1669 3622 1275 
L 4263 0 
L 3584 0 
L 2988 1197 
Q 2756 1666 2539 1819 
Q 2322 1972 1947 1972 
L 1259 1972 
L 1259 0 
L 628 0 
L 628 4666 
L 2053 4666 
Q 2853 4666 3247 4331 
Q 3641 3997 3641 3322 
Q 3641 2881 3436 2590 
Q 3231 2300 2841 2188 
z
M 1259 4147 
L 1259 2491 
L 2053 2491 
Q 2509 2491 2742 2702 
Q 2975 2913 2975 3322 
Q 2975 3731 2742 3939 
Q 2509 4147 2053 4147 
L 1259 4147 
z
" transform="scale(0.015625)"/>
      <path id="DejaVuSans-67" d="M 2906 1791 
Q 2906 2416 2648 2759 
Q 2391 3103 1925 3103 
Q 1463 3103 1205 2759 
Q 947 2416 947 1791 
Q 947 1169 1205 825 
Q 1463 481 1925 481 
Q 2391 481 2648 825 
Q 2906 1169 2906 1791 
z
M 3481 434 
Q 3481 -459 3084 -895 
Q 2688 -1331 1869 -1331 
Q 1566 -1331 1297 -1286 
Q 1028 -1241 775 -1147 
L 775 -588 
Q 1028 -725 1275 -790 
Q 1522 -856 1778 -856 
Q 2344 -856 2625 -561 
Q 2906 -266 2906 331 
L 2906 616 
Q 2728 306 2450 153 
Q 2172 0 1784 0 
Q 1141 0 747 490 
Q 353 981 353 1791 
Q 353 2603 747 3093 
Q 1141 3584 1784 3584 
Q 2172 3584 2450 3431 
Q 2728 3278 2906 2969 
L 2906 3500 
L 3481 3500 
L 3481 434 
z
" transform="scale(0.015625)"/>
     </defs>
     <use xlink:href="#DejaVuSans-4b"/>
     <use xlink:href="#DejaVuSans-61" transform="translate(63.826172 0)"/>
     <use xlink:href="#DejaVuSans-70" transform="translate(125.105469 0)"/>
     <use xlink:href="#DejaVuSans-6c" transform="translate(188.582031 0)"/>
     <use xlink:href="#DejaVuSans-61" transform="translate(216.365234 0)"/>
     <use xlink:href="#DejaVuSans-6e" transform="translate(277.644531 0)"/>
     <use xlink:href="#DejaVuSans-2d" transform="translate(341.023438 0)"/>
     <use xlink:href="#DejaVuSans-4d" transform="translate(377.107422 0)"/>
     <use xlink:href="#DejaVuSans-65" transform="translate(463.386719 0)"/>
     <use xlink:href="#DejaVuSans-69" transform="translate(524.910156 0)"/>
     <use xlink:href="#DejaVuSans-65" transform="translate(552.693359 0)"/>
     <use xlink:href="#DejaVuSans-72" transform="translate(614.216797 0)"/>
     <use xlink:href="#DejaVuSans-20" transform="translate(655.330078 0)"/>
     <use xlink:href="#DejaVuSans-53" transform="translate(687.117188 0)"/>
     <use xlink:href="#DejaVuSans-75" transform="translate(750.59375 0)"/>
     <use xlink:href="#DejaVuSans-72" transform="translate(813.972656 0)"/>
     <use xlink:href="#DejaVuSans-76" transform="translate(855.085938 0)"/>
     <use xlink:href="#DejaVuSans-69" transform="translate(914.265625 0)"/>
     <use xlink:href="#DejaVuSans-76" transform="translate(942.048828 0)"/>
     <use xlink:href="#DejaVuSans-61" transform="translate(1001.228516 0)"/>
     <use xlink:href="#DejaVuSans-6c" transform="translate(1062.507812 0)"/>
     <use xlink:href="#DejaVuSans-20" transform="translate(1090.291016 0)"/>
     <use xlink:href="#DejaVuSans-43" transform="translate(1122.078125 0)"/>
     <use xlink:href="#DejaVuSans-75" transform="translate(1191.902344 0)"/>
     <use xlink:href="#DejaVuSans-72" transform="translate(1255.28125 0)"/>
     <use xlink:href="#DejaVuSans-76" transform="translate(1296.394531 0)"/>
     <use xlink:href="#DejaVuSans-65" transform="translate(1355.574219 0)"/>
     <use xlink:href="#DejaVuSans-20" transform="translate(1417.097656 0)"/>
     <use xlink:href="#DejaVuSans-2d" transform="translate(1448.884766 0)"/>
     <use xlink:href="#DejaVuSans-20" transform="translate(1484.96875 0)"/>
     <use xlink:href="#DejaVuSans-52" transform="translate(1516.755859 0)"/>
     <use xlink:href="#DejaVuSans-61" transform="translate(1583.988281 0)"/>
     <use xlink:href="#DejaVuSans-64" transform="translate(1645.267578 0)"/>
     <use xlink:href="#DejaVuSans-69" transform="translate(1708.744141 0)"/>
     <use xlink:href="#DejaVuSans-6f" transform="translate(1736.527344 0)"/>
     <use xlink:href="#DejaVuSans-6c" transform="translate(1797.708984 0)"/>
     <use xlink:href="#DejaVuSans-6f" transform="translate(1825.492188 0)"/>
     <use xlink:href="#DejaVuSans-67" transform="translate(1886.673828 0)"/>
     <use xlink:href="#DejaVuSans-79" transform="translate(1950.150391 0)"/>
     <use xlink:href="#DejaVuSans-20" transform="translate(2009.330078 0)"/>
     <use xlink:href="#DejaVuSans-4d" transform="translate(2041.117188 0)"/>
     <use xlink:href="#DejaVuSans-6f" transform="translate(2127.396484 0)"/>
     <use xlink:href="#DejaVuSans-64" transform="translate(2188.578125 0)"/>
     <use xlink:href="#DejaVuSans-65" transform="translate(2252.054688 0)"/>
     <use xlink:href="#DejaVuSans-6c" transform="translate(2313.578125 0)"/>
    </g>
   </g>
   <g id="legend_1">
    <g id="patch_8">
     <path d="M 506.410937 44.99625 
L 594.78125 44.99625 
Q 596.78125 44.99625 596.78125 42.99625 
L 596.78125 29.318125 
Q 596.78125 27.318125 594.78125 27.318125 
L 506.410937 27.318125 
Q 504.410937 27.318125 504.410937 29.318125 
L 504.410937 42.99625 
Q 504.410937 44.99625 506.410937 44.99625 
z
" style="fill: #ffffff; opacity: 0.8; stroke: #cccccc; stroke-linejoin: miter"/>
    </g>
    <g id="line2d_16">
     <path d="M 508.410937 35.416563 
L 518.410938 35.416563 
L 518.410938 35.416563 
L 528.410938 35.416563 
L 528.410938 35.416563 
" style="fill: none; stroke: #1f77b4; stroke-width: 1.5; stroke-linecap: square"/>
    </g>
    <g id="text_19">
     <!-- All patients -->
     <g transform="translate(536.410938 38.916563) scale(0.1 -0.1)">
      <defs>
       <path id="DejaVuSans-41" d="M 2188 4044 
L 1331 1722 
L 3047 1722 
L 2188 4044 
z
M 1831 4666 
L 2547 4666 
L 4325 0 
L 3669 0 
L 3244 1197 
L 1141 1197 
L 716 0 
L 50 0 
L 1831 4666 
z
" transform="scale(0.015625)"/>
      </defs>
      <use xlink:href="#DejaVuSans-41"/>
      <use xlink:href="#DejaVuSans-6c" transform="translate(68.408203 0)"/>
      <use xlink:href="#DejaVuSans-6c" transform="translate(96.191406 0)"/>
      <use xlink:href="#DejaVuSans-20" transform="translate(123.974609 0)"/>
      <use xlink:href="#DejaVuSans-70" transform="translate(155.761719 0)"/>
      <use xlink:href="#DejaVuSans-61" transform="translate(219.238281 0)"/>
      <use xlink:href="#DejaVuSans-74" transform="translate(280.517578 0)"/>
      <use xlink:href="#DejaVuSans-69" transform="translate(319.726562 0)"/>
      <use xlink:href="#DejaVuSans-65" transform="translate(347.509766 0)"/>
      <use xlink:href="#DejaVuSans-6e" transform="translate(409.033203 0)"/>
      <use xlink:href="#DejaVuSans-74" transform="translate(472.412109 0)"/>
      <use xlink:href="#DejaVuSans-73" transform="translate(511.621094 0)"/>
     </g>
    </g>
   </g>
  </g>
 </g>
 <defs>
  <clipPath id="p56661a96e5">
   <rect x="43.78125" y="22.318125" width="558" height="332.64"/>
  </clipPath>
 </defs>
</svg>
