<?xml version="1.0" encoding="utf-8" standalone="no"?>
<!DOCTYPE svg PUBLIC "-//W3C//DTD SVG 1.1//EN"
  "http://www.w3.org/Graphics/SVG/1.1/DTD/svg11.dtd">
<svg xmlns:xlink="http://www.w3.org/1999/xlink" width="488.65pt" height="63.32pt" viewBox="0 0 488.65 63.32" xmlns="http://www.w3.org/2000/svg" version="1.1">
 <metadata>
  <rdf:RDF xmlns:dc="http://purl.org/dc/elements/1.1/" xmlns:cc="http://creativecommons.org/ns#" xmlns:rdf="http://www.w3.org/1999/02/22-rdf-syntax-ns#">
   <cc:Work>
    <dc:type rdf:resource="http://purl.org/dc/dcmitype/StillImage"/>
    <dc:date>2025-03-24T22:07:30.767362</dc:date>
    <dc:format>image/svg+xml</dc:format>
    <dc:creator>
     <cc:Agent>
      <dc:title>Matplotlib v3.10.0, https://matplotlib.org/</dc:title>
     </cc:Agent>
    </dc:creator>
   </cc:Work>
  </rdf:RDF>
 </metadata>
 <defs>
  <style type="text/css">*{stroke-linejoin: round; stroke-linecap: butt}</style>
 </defs>
 <g id="figure_1">
  <g id="patch_1">
   <path d="M 0 63.32 
L 488.65 63.32 
L 488.65 0 
L 0 0 
z
" style="fill: #ffffff"/>
  </g>
  <g id="axes_1">
   <g id="PathCollection_1">
    <defs>
     <path id="mc56884d56b" d="M -4.472136 4.472136 
L 4.472136 4.472136 
L 4.472136 -4.472136 
L -4.472136 -4.472136 
z
" style="stroke: #b24343; stroke-width: 1.5"/>
    </defs>
    <g clip-path="url(#p19c9f86e42)">
     <use xlink:href="#mc56884d56b" x="244.325" y="31.66" style="fill: #ff6060; stroke: #b24343; stroke-width: 1.5"/>
    </g>
   </g>
   <g id="PathCollection_2">
    <defs>
     <path id="m75308cfda3" d="M -4.472136 4.472136 
L 4.472136 4.472136 
L 4.472136 -4.472136 
L -4.472136 -4.472136 
z
" style="stroke: #4c88ab; stroke-width: 1.5"/>
    </defs>
    <g clip-path="url(#p19c9f86e42)">
     <use xlink:href="#m75308cfda3" x="244.325" y="31.66" style="fill: #6cc2f5; stroke: #4c88ab; stroke-width: 1.5"/>
    </g>
   </g>
   <g id="PathCollection_3">
    <defs>
     <path id="m9be3a95b93" d="M -4.472136 4.472136 
L 4.472136 4.472136 
L 4.472136 -4.472136 
L -4.472136 -4.472136 
z
" style="stroke: #b26c43; stroke-width: 1.5"/>
    </defs>
    <g clip-path="url(#p19c9f86e42)">
     <use xlink:href="#m9be3a95b93" x="244.325" y="31.66" style="fill: #ff9a60; stroke: #b26c43; stroke-width: 1.5"/>
    </g>
   </g>
   <g id="PathCollection_4">
    <defs>
     <path id="m1afedd5294" d="M -4.472136 4.472136 
L 4.472136 4.472136 
L 4.472136 -4.472136 
L -4.472136 -4.472136 
z
" style="stroke: #b2437d; stroke-width: 1.5"/>
    </defs>
    <g clip-path="url(#p19c9f86e42)">
     <use xlink:href="#m1afedd5294" x="244.325" y="31.66" style="fill: #ff60b3; stroke: #b2437d; stroke-width: 1.5"/>
    </g>
   </g>
   <g id="PathCollection_5">
    <defs>
     <path id="m317173f10f" d="M -4.472136 4.472136 
L 4.472136 4.472136 
L 4.472136 -4.472136 
L -4.472136 -4.472136 
z
" style="stroke: #8843b2; stroke-width: 1.5"/>
    </defs>
    <g clip-path="url(#p19c9f86e42)">
     <use xlink:href="#m317173f10f" x="244.325" y="31.66" style="fill: #c260ff; stroke: #8843b2; stroke-width: 1.5"/>
    </g>
   </g>
   <g id="PathCollection_6">
    <defs>
     <path id="m5d75e068b7" d="M -4.472136 4.472136 
L 4.472136 4.472136 
L 4.472136 -4.472136 
L -4.472136 -4.472136 
z
" style="stroke: #43b270; stroke-width: 1.5"/>
    </defs>
    <g clip-path="url(#p19c9f86e42)">
     <use xlink:href="#m5d75e068b7" x="244.325" y="31.66" style="fill: #60ffa0; stroke: #43b270; stroke-width: 1.5"/>
    </g>
   </g>
   <g id="PathCollection_7">
    <defs>
     <path id="m0999c9e742" d="M 0 4.472136 
C 1.186024 4.472136 2.323632 4.000923 3.162278 3.162278 
C 4.000923 2.323632 4.472136 1.186024 4.472136 0 
C 4.472136 -1.186024 4.000923 -2.323632 3.162278 -3.162278 
C 2.323632 -4.000923 1.186024 -4.472136 0 -4.472136 
C -1.186024 -4.472136 -2.323632 -4.000923 -3.162278 -3.162278 
C -4.000923 -2.323632 -4.472136 -1.186024 -4.472136 0 
C -4.472136 1.186024 -4.000923 2.323632 -3.162278 3.162278 
C -2.323632 4.000923 -1.186024 4.472136 0 4.472136 
z
" style="stroke: #b24343; stroke-width: 1.5"/>
    </defs>
    <g clip-path="url(#p19c9f86e42)">
     <use xlink:href="#m0999c9e742" x="244.325" y="31.66" style="fill: #ff6060; stroke: #b24343; stroke-width: 1.5"/>
    </g>
   </g>
   <g id="PathCollection_8">
    <defs>
     <path id="m32b29de29e" d="M 0 4.472136 
C 1.186024 4.472136 2.323632 4.000923 3.162278 3.162278 
C 4.000923 2.323632 4.472136 1.186024 4.472136 0 
C 4.472136 -1.186024 4.000923 -2.323632 3.162278 -3.162278 
C 2.323632 -4.000923 1.186024 -4.472136 0 -4.472136 
C -1.186024 -4.472136 -2.323632 -4.000923 -3.162278 -3.162278 
C -4.000923 -2.323632 -4.472136 -1.186024 -4.472136 0 
C -4.472136 1.186024 -4.000923 2.323632 -3.162278 3.162278 
C -2.323632 4.000923 -1.186024 4.472136 0 4.472136 
z
" style="stroke: #4c88ab; stroke-width: 1.5"/>
    </defs>
    <g clip-path="url(#p19c9f86e42)">
     <use xlink:href="#m32b29de29e" x="244.325" y="31.66" style="fill: #6cc2f5; stroke: #4c88ab; stroke-width: 1.5"/>
    </g>
   </g>
   <g id="PathCollection_9">
    <defs>
     <path id="m424caaf6e0" d="M 0 4.472136 
C 1.186024 4.472136 2.323632 4.000923 3.162278 3.162278 
C 4.000923 2.323632 4.472136 1.186024 4.472136 0 
C 4.472136 -1.186024 4.000923 -2.323632 3.162278 -3.162278 
C 2.323632 -4.000923 1.186024 -4.472136 0 -4.472136 
C -1.186024 -4.472136 -2.323632 -4.000923 -3.162278 -3.162278 
C -4.000923 -2.323632 -4.472136 -1.186024 -4.472136 0 
C -4.472136 1.186024 -4.000923 2.323632 -3.162278 3.162278 
C -2.323632 4.000923 -1.186024 4.472136 0 4.472136 
z
" style="stroke: #b26c43; stroke-width: 1.5"/>
    </defs>
    <g clip-path="url(#p19c9f86e42)">
     <use xlink:href="#m424caaf6e0" x="244.325" y="31.66" style="fill: #ff9a60; stroke: #b26c43; stroke-width: 1.5"/>
    </g>
   </g>
   <g id="PathCollection_10">
    <defs>
     <path id="mef8c91be45" d="M 0 4.472136 
C 1.186024 4.472136 2.323632 4.000923 3.162278 3.162278 
C 4.000923 2.323632 4.472136 1.186024 4.472136 0 
C 4.472136 -1.186024 4.000923 -2.323632 3.162278 -3.162278 
C 2.323632 -4.000923 1.186024 -4.472136 0 -4.472136 
C -1.186024 -4.472136 -2.323632 -4.000923 -3.162278 -3.162278 
C -4.000923 -2.323632 -4.472136 -1.186024 -4.472136 0 
C -4.472136 1.186024 -4.000923 2.323632 -3.162278 3.162278 
C -2.323632 4.000923 -1.186024 4.472136 0 4.472136 
z
" style="stroke: #b2437d; stroke-width: 1.5"/>
    </defs>
    <g clip-path="url(#p19c9f86e42)">
     <use xlink:href="#mef8c91be45" x="244.325" y="31.66" style="fill: #ff60b3; stroke: #b2437d; stroke-width: 1.5"/>
    </g>
   </g>
   <g id="PathCollection_11">
    <defs>
     <path id="m8c17027eed" d="M 0 4.472136 
C 1.186024 4.472136 2.323632 4.000923 3.162278 3.162278 
C 4.000923 2.323632 4.472136 1.186024 4.472136 0 
C 4.472136 -1.186024 4.000923 -2.323632 3.162278 -3.162278 
C 2.323632 -4.000923 1.186024 -4.472136 0 -4.472136 
C -1.186024 -4.472136 -2.323632 -4.000923 -3.162278 -3.162278 
C -4.000923 -2.323632 -4.472136 -1.186024 -4.472136 0 
C -4.472136 1.186024 -4.000923 2.323632 -3.162278 3.162278 
C -2.323632 4.000923 -1.186024 4.472136 0 4.472136 
z
" style="stroke: #8843b2; stroke-width: 1.5"/>
    </defs>
    <g clip-path="url(#p19c9f86e42)">
     <use xlink:href="#m8c17027eed" x="244.325" y="31.66" style="fill: #c260ff; stroke: #8843b2; stroke-width: 1.5"/>
    </g>
   </g>
   <g id="PathCollection_12">
    <defs>
     <path id="m5ce1f1ca1d" d="M 0 4.472136 
C 1.186024 4.472136 2.323632 4.000923 3.162278 3.162278 
C 4.000923 2.323632 4.472136 1.186024 4.472136 0 
C 4.472136 -1.186024 4.000923 -2.323632 3.162278 -3.162278 
C 2.323632 -4.000923 1.186024 -4.472136 0 -4.472136 
C -1.186024 -4.472136 -2.323632 -4.000923 -3.162278 -3.162278 
C -4.000923 -2.323632 -4.472136 -1.186024 -4.472136 0 
C -4.472136 1.186024 -4.000923 2.323632 -3.162278 3.162278 
C -2.323632 4.000923 -1.186024 4.472136 0 4.472136 
z
" style="stroke: #43b270; stroke-width: 1.5"/>
    </defs>
    <g clip-path="url(#p19c9f86e42)">
     <use xlink:href="#m5ce1f1ca1d" x="244.325" y="31.66" style="fill: #60ffa0; stroke: #43b270; stroke-width: 1.5"/>
    </g>
   </g>
   <g id="PathCollection_13">
    <defs>
     <path id="mcbb4ce326b" d="M 0 -4.472136 
L -1.004057 -1.381966 
L -4.253254 -1.381966 
L -1.624598 0.527864 
L -2.628656 3.618034 
L -0 1.708204 
L 2.628656 3.618034 
L 1.624598 0.527864 
L 4.253254 -1.381966 
L 1.004057 -1.381966 
z
" style="stroke: #b24343; stroke-width: 1.5"/>
    </defs>
    <g clip-path="url(#p19c9f86e42)">
     <use xlink:href="#mcbb4ce326b" x="244.325" y="31.66" style="fill: #ff6060; stroke: #b24343; stroke-width: 1.5"/>
    </g>
   </g>
   <g id="PathCollection_14">
    <defs>
     <path id="m0f8b53ebbc" d="M 0 -4.472136 
L -1.004057 -1.381966 
L -4.253254 -1.381966 
L -1.624598 0.527864 
L -2.628656 3.618034 
L -0 1.708204 
L 2.628656 3.618034 
L 1.624598 0.527864 
L 4.253254 -1.381966 
L 1.004057 -1.381966 
z
" style="stroke: #4c88ab; stroke-width: 1.5"/>
    </defs>
    <g clip-path="url(#p19c9f86e42)">
     <use xlink:href="#m0f8b53ebbc" x="244.325" y="31.66" style="fill: #6cc2f5; stroke: #4c88ab; stroke-width: 1.5"/>
    </g>
   </g>
   <g id="PathCollection_15">
    <defs>
     <path id="m667dd6bed2" d="M 0 -4.472136 
L -1.004057 -1.381966 
L -4.253254 -1.381966 
L -1.624598 0.527864 
L -2.628656 3.618034 
L -0 1.708204 
L 2.628656 3.618034 
L 1.624598 0.527864 
L 4.253254 -1.381966 
L 1.004057 -1.381966 
z
" style="stroke: #b26c43; stroke-width: 1.5"/>
    </defs>
    <g clip-path="url(#p19c9f86e42)">
     <use xlink:href="#m667dd6bed2" x="244.325" y="31.66" style="fill: #ff9a60; stroke: #b26c43; stroke-width: 1.5"/>
    </g>
   </g>
   <g id="PathCollection_16">
    <defs>
     <path id="m741dccd83f" d="M 0 -4.472136 
L -1.004057 -1.381966 
L -4.253254 -1.381966 
L -1.624598 0.527864 
L -2.628656 3.618034 
L -0 1.708204 
L 2.628656 3.618034 
L 1.624598 0.527864 
L 4.253254 -1.381966 
L 1.004057 -1.381966 
z
" style="stroke: #b2437d; stroke-width: 1.5"/>
    </defs>
    <g clip-path="url(#p19c9f86e42)">
     <use xlink:href="#m741dccd83f" x="244.325" y="31.66" style="fill: #ff60b3; stroke: #b2437d; stroke-width: 1.5"/>
    </g>
   </g>
   <g id="PathCollection_17">
    <defs>
     <path id="m64c8564a98" d="M 0 -4.472136 
L -1.004057 -1.381966 
L -4.253254 -1.381966 
L -1.624598 0.527864 
L -2.628656 3.618034 
L -0 1.708204 
L 2.628656 3.618034 
L 1.624598 0.527864 
L 4.253254 -1.381966 
L 1.004057 -1.381966 
z
" style="stroke: #8843b2; stroke-width: 1.5"/>
    </defs>
    <g clip-path="url(#p19c9f86e42)">
     <use xlink:href="#m64c8564a98" x="244.325" y="31.66" style="fill: #c260ff; stroke: #8843b2; stroke-width: 1.5"/>
    </g>
   </g>
   <g id="PathCollection_18">
    <defs>
     <path id="mb13e382c8d" d="M 0 -4.472136 
L -1.004057 -1.381966 
L -4.253254 -1.381966 
L -1.624598 0.527864 
L -2.628656 3.618034 
L -0 1.708204 
L 2.628656 3.618034 
L 1.624598 0.527864 
L 4.253254 -1.381966 
L 1.004057 -1.381966 
z
" style="stroke: #43b270; stroke-width: 1.5"/>
    </defs>
    <g clip-path="url(#p19c9f86e42)">
     <use xlink:href="#mb13e382c8d" x="244.325" y="31.66" style="fill: #60ffa0; stroke: #43b270; stroke-width: 1.5"/>
    </g>
   </g>
   <g id="legend_1">
    <g id="patch_2">
     <path d="M 2.319531 61.450625 
L 486.330469 61.450625 
Q 488.330469 61.450625 488.330469 59.450625 
L 488.330469 3.869375 
Q 488.330469 1.869375 486.330469 1.869375 
L 2.319531 1.869375 
Q 0.319531 1.869375 0.319531 3.869375 
L 0.319531 59.450625 
Q 0.319531 61.450625 2.319531 61.450625 
z
" style="fill: #ffffff; opacity: 0.8; stroke: #d3d3d3; stroke-width: 0.8; stroke-linejoin: miter"/>
    </g>
    <g id="PathCollection_19">
     <g>
      <use xlink:href="#mc56884d56b" x="14.319531" y="10.402188" style="fill: #ff6060; stroke: #b24343; stroke-width: 1.5"/>
     </g>
    </g>
    <g id="text_1">
     <!-- TCGA-OV -->
     <g transform="translate(31.319531 13.027188) scale(0.1 -0.1)">
      <defs>
       <path id="ArialMT-54" d="M 1659 0 
L 1659 4041 
L 150 4041 
L 150 4581 
L 3781 4581 
L 3781 4041 
L 2266 4041 
L 2266 0 
L 1659 0 
z
" transform="scale(0.015625)"/>
       <path id="ArialMT-43" d="M 3763 1606 
L 4369 1453 
Q 4178 706 3683 314 
Q 3188 -78 2472 -78 
Q 1731 -78 1267 223 
Q 803 525 561 1097 
Q 319 1669 319 2325 
Q 319 3041 592 3573 
Q 866 4106 1370 4382 
Q 1875 4659 2481 4659 
Q 3169 4659 3637 4309 
Q 4106 3959 4291 3325 
L 3694 3184 
Q 3534 3684 3231 3912 
Q 2928 4141 2469 4141 
Q 1941 4141 1586 3887 
Q 1231 3634 1087 3207 
Q 944 2781 944 2328 
Q 944 1744 1114 1308 
Q 1284 872 1643 656 
Q 2003 441 2422 441 
Q 2931 441 3284 734 
Q 3638 1028 3763 1606 
z
" transform="scale(0.015625)"/>
       <path id="ArialMT-47" d="M 2638 1797 
L 2638 2334 
L 4578 2338 
L 4578 638 
Q 4131 281 3656 101 
Q 3181 -78 2681 -78 
Q 2006 -78 1454 211 
Q 903 500 622 1047 
Q 341 1594 341 2269 
Q 341 2938 620 3517 
Q 900 4097 1425 4378 
Q 1950 4659 2634 4659 
Q 3131 4659 3532 4498 
Q 3934 4338 4162 4050 
Q 4391 3763 4509 3300 
L 3963 3150 
Q 3859 3500 3706 3700 
Q 3553 3900 3268 4020 
Q 2984 4141 2638 4141 
Q 2222 4141 1919 4014 
Q 1616 3888 1430 3681 
Q 1244 3475 1141 3228 
Q 966 2803 966 2306 
Q 966 1694 1177 1281 
Q 1388 869 1791 669 
Q 2194 469 2647 469 
Q 3041 469 3416 620 
Q 3791 772 3984 944 
L 3984 1797 
L 2638 1797 
z
" transform="scale(0.015625)"/>
       <path id="ArialMT-41" d="M -9 0 
L 1750 4581 
L 2403 4581 
L 4278 0 
L 3588 0 
L 3053 1388 
L 1138 1388 
L 634 0 
L -9 0 
z
M 1313 1881 
L 2866 1881 
L 2388 3150 
Q 2169 3728 2063 4100 
Q 1975 3659 1816 3225 
L 1313 1881 
z
" transform="scale(0.015625)"/>
       <path id="ArialMT-2d" d="M 203 1375 
L 203 1941 
L 1931 1941 
L 1931 1375 
L 203 1375 
z
" transform="scale(0.015625)"/>
       <path id="ArialMT-4f" d="M 309 2231 
Q 309 3372 921 4017 
Q 1534 4663 2503 4663 
Q 3138 4663 3647 4359 
Q 4156 4056 4423 3514 
Q 4691 2972 4691 2284 
Q 4691 1588 4409 1038 
Q 4128 488 3612 205 
Q 3097 -78 2500 -78 
Q 1853 -78 1343 234 
Q 834 547 571 1087 
Q 309 1628 309 2231 
z
M 934 2222 
Q 934 1394 1379 917 
Q 1825 441 2497 441 
Q 3181 441 3623 922 
Q 4066 1403 4066 2288 
Q 4066 2847 3877 3264 
Q 3688 3681 3323 3911 
Q 2959 4141 2506 4141 
Q 1863 4141 1398 3698 
Q 934 3256 934 2222 
z
" transform="scale(0.015625)"/>
       <path id="ArialMT-56" d="M 1803 0 
L 28 4581 
L 684 4581 
L 1875 1253 
Q 2019 853 2116 503 
Q 2222 878 2363 1253 
L 3600 4581 
L 4219 4581 
L 2425 0 
L 1803 0 
z
" transform="scale(0.015625)"/>
      </defs>
      <use xlink:href="#ArialMT-54"/>
      <use xlink:href="#ArialMT-43" transform="translate(61.083984 0)"/>
      <use xlink:href="#ArialMT-47" transform="translate(133.300781 0)"/>
      <use xlink:href="#ArialMT-41" transform="translate(211.083984 0)"/>
      <use xlink:href="#ArialMT-2d" transform="translate(277.783203 0)"/>
      <use xlink:href="#ArialMT-4f" transform="translate(311.083984 0)"/>
      <use xlink:href="#ArialMT-56" transform="translate(388.867188 0)"/>
     </g>
    </g>
    <g id="PathCollection_20">
     <g>
      <use xlink:href="#m75308cfda3" x="14.319531" y="24.5475" style="fill: #6cc2f5; stroke: #4c88ab; stroke-width: 1.5"/>
     </g>
    </g>
    <g id="text_2">
     <!-- TCGA-LUSC -->
     <g transform="translate(31.319531 27.1725) scale(0.1 -0.1)">
      <defs>
       <path id="ArialMT-4c" d="M 469 0 
L 469 4581 
L 1075 4581 
L 1075 541 
L 3331 541 
L 3331 0 
L 469 0 
z
" transform="scale(0.015625)"/>
       <path id="ArialMT-55" d="M 3500 4581 
L 4106 4581 
L 4106 1934 
Q 4106 1244 3950 837 
Q 3794 431 3386 176 
Q 2978 -78 2316 -78 
Q 1672 -78 1262 144 
Q 853 366 678 786 
Q 503 1206 503 1934 
L 503 4581 
L 1109 4581 
L 1109 1938 
Q 1109 1341 1220 1058 
Q 1331 775 1601 622 
Q 1872 469 2263 469 
Q 2931 469 3215 772 
Q 3500 1075 3500 1938 
L 3500 4581 
z
" transform="scale(0.015625)"/>
       <path id="ArialMT-53" d="M 288 1472 
L 859 1522 
Q 900 1178 1048 958 
Q 1197 738 1509 602 
Q 1822 466 2213 466 
Q 2559 466 2825 569 
Q 3091 672 3220 851 
Q 3350 1031 3350 1244 
Q 3350 1459 3225 1620 
Q 3100 1781 2813 1891 
Q 2628 1963 1997 2114 
Q 1366 2266 1113 2400 
Q 784 2572 623 2826 
Q 463 3081 463 3397 
Q 463 3744 659 4045 
Q 856 4347 1234 4503 
Q 1613 4659 2075 4659 
Q 2584 4659 2973 4495 
Q 3363 4331 3572 4012 
Q 3781 3694 3797 3291 
L 3216 3247 
Q 3169 3681 2898 3903 
Q 2628 4125 2100 4125 
Q 1550 4125 1298 3923 
Q 1047 3722 1047 3438 
Q 1047 3191 1225 3031 
Q 1400 2872 2139 2705 
Q 2878 2538 3153 2413 
Q 3553 2228 3743 1945 
Q 3934 1663 3934 1294 
Q 3934 928 3725 604 
Q 3516 281 3123 101 
Q 2731 -78 2241 -78 
Q 1619 -78 1198 103 
Q 778 284 539 648 
Q 300 1013 288 1472 
z
" transform="scale(0.015625)"/>
      </defs>
      <use xlink:href="#ArialMT-54"/>
      <use xlink:href="#ArialMT-43" transform="translate(61.083984 0)"/>
      <use xlink:href="#ArialMT-47" transform="translate(133.300781 0)"/>
      <use xlink:href="#ArialMT-41" transform="translate(211.083984 0)"/>
      <use xlink:href="#ArialMT-2d" transform="translate(277.783203 0)"/>
      <use xlink:href="#ArialMT-4c" transform="translate(311.083984 0)"/>
      <use xlink:href="#ArialMT-55" transform="translate(366.699219 0)"/>
      <use xlink:href="#ArialMT-53" transform="translate(438.916016 0)"/>
      <use xlink:href="#ArialMT-43" transform="translate(505.615234 0)"/>
     </g>
    </g>
    <g id="PathCollection_21">
     <g>
      <use xlink:href="#m9be3a95b93" x="14.319531" y="38.692813" style="fill: #ff9a60; stroke: #b26c43; stroke-width: 1.5"/>
     </g>
    </g>
    <g id="text_3">
     <!-- TCGA-LUAD -->
     <g transform="translate(31.319531 41.317813) scale(0.1 -0.1)">
      <defs>
       <path id="ArialMT-44" d="M 494 0 
L 494 4581 
L 2072 4581 
Q 2606 4581 2888 4516 
Q 3281 4425 3559 4188 
Q 3922 3881 4101 3404 
Q 4281 2928 4281 2316 
Q 4281 1794 4159 1391 
Q 4038 988 3847 723 
Q 3656 459 3429 307 
Q 3203 156 2883 78 
Q 2563 0 2147 0 
L 494 0 
z
M 1100 541 
L 2078 541 
Q 2531 541 2789 625 
Q 3047 709 3200 863 
Q 3416 1078 3536 1442 
Q 3656 1806 3656 2325 
Q 3656 3044 3420 3430 
Q 3184 3816 2847 3947 
Q 2603 4041 2063 4041 
L 1100 4041 
L 1100 541 
z
" transform="scale(0.015625)"/>
      </defs>
      <use xlink:href="#ArialMT-54"/>
      <use xlink:href="#ArialMT-43" transform="translate(61.083984 0)"/>
      <use xlink:href="#ArialMT-47" transform="translate(133.300781 0)"/>
      <use xlink:href="#ArialMT-41" transform="translate(211.083984 0)"/>
      <use xlink:href="#ArialMT-2d" transform="translate(277.783203 0)"/>
      <use xlink:href="#ArialMT-4c" transform="translate(311.083984 0)"/>
      <use xlink:href="#ArialMT-55" transform="translate(366.699219 0)"/>
      <use xlink:href="#ArialMT-41" transform="translate(438.916016 0)"/>
      <use xlink:href="#ArialMT-44" transform="translate(505.615234 0)"/>
     </g>
    </g>
    <g id="PathCollection_22">
     <g>
      <use xlink:href="#m1afedd5294" x="14.319531" y="52.838125" style="fill: #ff60b3; stroke: #b2437d; stroke-width: 1.5"/>
     </g>
    </g>
    <g id="text_4">
     <!-- TCGA-BLCA -->
     <g transform="translate(31.319531 55.463125) scale(0.1 -0.1)">
      <defs>
       <path id="ArialMT-42" d="M 469 0 
L 469 4581 
L 2188 4581 
Q 2713 4581 3030 4442 
Q 3347 4303 3526 4014 
Q 3706 3725 3706 3409 
Q 3706 3116 3547 2856 
Q 3388 2597 3066 2438 
Q 3481 2316 3704 2022 
Q 3928 1728 3928 1328 
Q 3928 1006 3792 729 
Q 3656 453 3456 303 
Q 3256 153 2954 76 
Q 2653 0 2216 0 
L 469 0 
z
M 1075 2656 
L 2066 2656 
Q 2469 2656 2644 2709 
Q 2875 2778 2992 2937 
Q 3109 3097 3109 3338 
Q 3109 3566 3000 3739 
Q 2891 3913 2687 3977 
Q 2484 4041 1991 4041 
L 1075 4041 
L 1075 2656 
z
M 1075 541 
L 2216 541 
Q 2509 541 2628 563 
Q 2838 600 2978 687 
Q 3119 775 3209 942 
Q 3300 1109 3300 1328 
Q 3300 1584 3169 1773 
Q 3038 1963 2805 2039 
Q 2572 2116 2134 2116 
L 1075 2116 
L 1075 541 
z
" transform="scale(0.015625)"/>
      </defs>
      <use xlink:href="#ArialMT-54"/>
      <use xlink:href="#ArialMT-43" transform="translate(61.083984 0)"/>
      <use xlink:href="#ArialMT-47" transform="translate(133.300781 0)"/>
      <use xlink:href="#ArialMT-41" transform="translate(211.083984 0)"/>
      <use xlink:href="#ArialMT-2d" transform="translate(277.783203 0)"/>
      <use xlink:href="#ArialMT-42" transform="translate(311.083984 0)"/>
      <use xlink:href="#ArialMT-4c" transform="translate(377.783203 0)"/>
      <use xlink:href="#ArialMT-43" transform="translate(433.398438 0)"/>
      <use xlink:href="#ArialMT-41" transform="translate(505.615234 0)"/>
     </g>
    </g>
    <g id="PathCollection_23">
     <g>
      <use xlink:href="#m317173f10f" x="111.602344" y="10.402188" style="fill: #c260ff; stroke: #8843b2; stroke-width: 1.5"/>
     </g>
    </g>
    <g id="text_5">
     <!-- TCGA-BRCA -->
     <g transform="translate(128.602344 13.027188) scale(0.1 -0.1)">
      <defs>
       <path id="ArialMT-52" d="M 503 0 
L 503 4581 
L 2534 4581 
Q 3147 4581 3465 4457 
Q 3784 4334 3975 4021 
Q 4166 3709 4166 3331 
Q 4166 2844 3850 2509 
Q 3534 2175 2875 2084 
Q 3116 1969 3241 1856 
Q 3506 1613 3744 1247 
L 4541 0 
L 3778 0 
L 3172 953 
Q 2906 1366 2734 1584 
Q 2563 1803 2427 1890 
Q 2291 1978 2150 2013 
Q 2047 2034 1813 2034 
L 1109 2034 
L 1109 0 
L 503 0 
z
M 1109 2559 
L 2413 2559 
Q 2828 2559 3062 2645 
Q 3297 2731 3419 2920 
Q 3541 3109 3541 3331 
Q 3541 3656 3305 3865 
Q 3069 4075 2559 4075 
L 1109 4075 
L 1109 2559 
z
" transform="scale(0.015625)"/>
      </defs>
      <use xlink:href="#ArialMT-54"/>
      <use xlink:href="#ArialMT-43" transform="translate(61.083984 0)"/>
      <use xlink:href="#ArialMT-47" transform="translate(133.300781 0)"/>
      <use xlink:href="#ArialMT-41" transform="translate(211.083984 0)"/>
      <use xlink:href="#ArialMT-2d" transform="translate(277.783203 0)"/>
      <use xlink:href="#ArialMT-42" transform="translate(311.083984 0)"/>
      <use xlink:href="#ArialMT-52" transform="translate(377.783203 0)"/>
      <use xlink:href="#ArialMT-43" transform="translate(450 0)"/>
      <use xlink:href="#ArialMT-41" transform="translate(522.216797 0)"/>
     </g>
    </g>
    <g id="PathCollection_24">
     <g>
      <use xlink:href="#m5d75e068b7" x="111.602344" y="24.5475" style="fill: #60ffa0; stroke: #43b270; stroke-width: 1.5"/>
     </g>
    </g>
    <g id="text_6">
     <!-- TCGA-COAD -->
     <g transform="translate(128.602344 27.1725) scale(0.1 -0.1)">
      <use xlink:href="#ArialMT-54"/>
      <use xlink:href="#ArialMT-43" transform="translate(61.083984 0)"/>
      <use xlink:href="#ArialMT-47" transform="translate(133.300781 0)"/>
      <use xlink:href="#ArialMT-41" transform="translate(211.083984 0)"/>
      <use xlink:href="#ArialMT-2d" transform="translate(277.783203 0)"/>
      <use xlink:href="#ArialMT-43" transform="translate(311.083984 0)"/>
      <use xlink:href="#ArialMT-4f" transform="translate(383.300781 0)"/>
      <use xlink:href="#ArialMT-41" transform="translate(461.083984 0)"/>
      <use xlink:href="#ArialMT-44" transform="translate(527.783203 0)"/>
     </g>
    </g>
    <g id="PathCollection_25">
     <g>
      <use xlink:href="#m0999c9e742" x="111.602344" y="38.692813" style="fill: #ff6060; stroke: #b24343; stroke-width: 1.5"/>
     </g>
    </g>
    <g id="text_7">
     <!-- TCGA-KIRC -->
     <g transform="translate(128.602344 41.317813) scale(0.1 -0.1)">
      <defs>
       <path id="ArialMT-4b" d="M 469 0 
L 469 4581 
L 1075 4581 
L 1075 2309 
L 3350 4581 
L 4172 4581 
L 2250 2725 
L 4256 0 
L 3456 0 
L 1825 2319 
L 1075 1588 
L 1075 0 
L 469 0 
z
" transform="scale(0.015625)"/>
       <path id="ArialMT-49" d="M 597 0 
L 597 4581 
L 1203 4581 
L 1203 0 
L 597 0 
z
" transform="scale(0.015625)"/>
      </defs>
      <use xlink:href="#ArialMT-54"/>
      <use xlink:href="#ArialMT-43" transform="translate(61.083984 0)"/>
      <use xlink:href="#ArialMT-47" transform="translate(133.300781 0)"/>
      <use xlink:href="#ArialMT-41" transform="translate(211.083984 0)"/>
      <use xlink:href="#ArialMT-2d" transform="translate(277.783203 0)"/>
      <use xlink:href="#ArialMT-4b" transform="translate(311.083984 0)"/>
      <use xlink:href="#ArialMT-49" transform="translate(377.783203 0)"/>
      <use xlink:href="#ArialMT-52" transform="translate(405.566406 0)"/>
      <use xlink:href="#ArialMT-43" transform="translate(477.783203 0)"/>
     </g>
    </g>
    <g id="PathCollection_26">
     <g>
      <use xlink:href="#m32b29de29e" x="111.602344" y="52.838125" style="fill: #6cc2f5; stroke: #4c88ab; stroke-width: 1.5"/>
     </g>
    </g>
    <g id="text_8">
     <!-- TCGA-KIRP -->
     <g transform="translate(128.602344 55.463125) scale(0.1 -0.1)">
      <defs>
       <path id="ArialMT-50" d="M 494 0 
L 494 4581 
L 2222 4581 
Q 2678 4581 2919 4538 
Q 3256 4481 3484 4323 
Q 3713 4166 3852 3881 
Q 3991 3597 3991 3256 
Q 3991 2672 3619 2267 
Q 3247 1863 2275 1863 
L 1100 1863 
L 1100 0 
L 494 0 
z
M 1100 2403 
L 2284 2403 
Q 2872 2403 3119 2622 
Q 3366 2841 3366 3238 
Q 3366 3525 3220 3729 
Q 3075 3934 2838 4000 
Q 2684 4041 2272 4041 
L 1100 4041 
L 1100 2403 
z
" transform="scale(0.015625)"/>
      </defs>
      <use xlink:href="#ArialMT-54"/>
      <use xlink:href="#ArialMT-43" transform="translate(61.083984 0)"/>
      <use xlink:href="#ArialMT-47" transform="translate(133.300781 0)"/>
      <use xlink:href="#ArialMT-41" transform="translate(211.083984 0)"/>
      <use xlink:href="#ArialMT-2d" transform="translate(277.783203 0)"/>
      <use xlink:href="#ArialMT-4b" transform="translate(311.083984 0)"/>
      <use xlink:href="#ArialMT-49" transform="translate(377.783203 0)"/>
      <use xlink:href="#ArialMT-52" transform="translate(405.566406 0)"/>
      <use xlink:href="#ArialMT-50" transform="translate(477.783203 0)"/>
     </g>
    </g>
    <g id="PathCollection_27">
     <g>
      <use xlink:href="#m424caaf6e0" x="211.102344" y="10.402188" style="fill: #ff9a60; stroke: #b26c43; stroke-width: 1.5"/>
     </g>
    </g>
    <g id="text_9">
     <!-- TCGA-LIHC -->
     <g transform="translate(228.102344 13.027188) scale(0.1 -0.1)">
      <defs>
       <path id="ArialMT-48" d="M 513 0 
L 513 4581 
L 1119 4581 
L 1119 2700 
L 3500 2700 
L 3500 4581 
L 4106 4581 
L 4106 0 
L 3500 0 
L 3500 2159 
L 1119 2159 
L 1119 0 
L 513 0 
z
" transform="scale(0.015625)"/>
      </defs>
      <use xlink:href="#ArialMT-54"/>
      <use xlink:href="#ArialMT-43" transform="translate(61.083984 0)"/>
      <use xlink:href="#ArialMT-47" transform="translate(133.300781 0)"/>
      <use xlink:href="#ArialMT-41" transform="translate(211.083984 0)"/>
      <use xlink:href="#ArialMT-2d" transform="translate(277.783203 0)"/>
      <use xlink:href="#ArialMT-4c" transform="translate(311.083984 0)"/>
      <use xlink:href="#ArialMT-49" transform="translate(366.699219 0)"/>
      <use xlink:href="#ArialMT-48" transform="translate(394.482422 0)"/>
      <use xlink:href="#ArialMT-43" transform="translate(466.699219 0)"/>
     </g>
    </g>
    <g id="PathCollection_28">
     <g>
      <use xlink:href="#mef8c91be45" x="211.102344" y="24.5475" style="fill: #ff60b3; stroke: #b2437d; stroke-width: 1.5"/>
     </g>
    </g>
    <g id="text_10">
     <!-- TCGA-READ -->
     <g transform="translate(228.102344 27.1725) scale(0.1 -0.1)">
      <defs>
       <path id="ArialMT-45" d="M 506 0 
L 506 4581 
L 3819 4581 
L 3819 4041 
L 1113 4041 
L 1113 2638 
L 3647 2638 
L 3647 2100 
L 1113 2100 
L 1113 541 
L 3925 541 
L 3925 0 
L 506 0 
z
" transform="scale(0.015625)"/>
      </defs>
      <use xlink:href="#ArialMT-54"/>
      <use xlink:href="#ArialMT-43" transform="translate(61.083984 0)"/>
      <use xlink:href="#ArialMT-47" transform="translate(133.300781 0)"/>
      <use xlink:href="#ArialMT-41" transform="translate(211.083984 0)"/>
      <use xlink:href="#ArialMT-2d" transform="translate(277.783203 0)"/>
      <use xlink:href="#ArialMT-52" transform="translate(311.083984 0)"/>
      <use xlink:href="#ArialMT-45" transform="translate(383.300781 0)"/>
      <use xlink:href="#ArialMT-41" transform="translate(450 0)"/>
      <use xlink:href="#ArialMT-44" transform="translate(516.699219 0)"/>
     </g>
    </g>
    <g id="PathCollection_29">
     <g>
      <use xlink:href="#m8c17027eed" x="211.102344" y="38.692813" style="fill: #c260ff; stroke: #8843b2; stroke-width: 1.5"/>
     </g>
    </g>
    <g id="text_11">
     <!-- TCGA-UCEC -->
     <g transform="translate(228.102344 41.317813) scale(0.1 -0.1)">
      <use xlink:href="#ArialMT-54"/>
      <use xlink:href="#ArialMT-43" transform="translate(61.083984 0)"/>
      <use xlink:href="#ArialMT-47" transform="translate(133.300781 0)"/>
      <use xlink:href="#ArialMT-41" transform="translate(211.083984 0)"/>
      <use xlink:href="#ArialMT-2d" transform="translate(277.783203 0)"/>
      <use xlink:href="#ArialMT-55" transform="translate(311.083984 0)"/>
      <use xlink:href="#ArialMT-43" transform="translate(383.300781 0)"/>
      <use xlink:href="#ArialMT-45" transform="translate(455.517578 0)"/>
      <use xlink:href="#ArialMT-43" transform="translate(522.216797 0)"/>
     </g>
    </g>
    <g id="PathCollection_30">
     <g>
      <use xlink:href="#m5ce1f1ca1d" x="211.102344" y="52.838125" style="fill: #60ffa0; stroke: #43b270; stroke-width: 1.5"/>
     </g>
    </g>
    <g id="text_12">
     <!-- TCGA-THCA -->
     <g transform="translate(228.102344 55.463125) scale(0.1 -0.1)">
      <use xlink:href="#ArialMT-54"/>
      <use xlink:href="#ArialMT-43" transform="translate(61.083984 0)"/>
      <use xlink:href="#ArialMT-47" transform="translate(133.300781 0)"/>
      <use xlink:href="#ArialMT-41" transform="translate(211.083984 0)"/>
      <use xlink:href="#ArialMT-2d" transform="translate(277.783203 0)"/>
      <use xlink:href="#ArialMT-54" transform="translate(311.083984 0)"/>
      <use xlink:href="#ArialMT-48" transform="translate(372.167969 0)"/>
      <use xlink:href="#ArialMT-43" transform="translate(444.384766 0)"/>
      <use xlink:href="#ArialMT-41" transform="translate(516.601562 0)"/>
     </g>
    </g>
    <g id="PathCollection_31">
     <g>
      <use xlink:href="#mcbb4ce326b" x="310.046094" y="10.402188" style="fill: #ff6060; stroke: #b24343; stroke-width: 1.5"/>
     </g>
    </g>
    <g id="text_13">
     <!-- TCGA-PRAD -->
     <g transform="translate(327.046094 13.027188) scale(0.1 -0.1)">
      <use xlink:href="#ArialMT-54"/>
      <use xlink:href="#ArialMT-43" transform="translate(61.083984 0)"/>
      <use xlink:href="#ArialMT-47" transform="translate(133.300781 0)"/>
      <use xlink:href="#ArialMT-41" transform="translate(211.083984 0)"/>
      <use xlink:href="#ArialMT-2d" transform="translate(277.783203 0)"/>
      <use xlink:href="#ArialMT-50" transform="translate(311.083984 0)"/>
      <use xlink:href="#ArialMT-52" transform="translate(377.783203 0)"/>
      <use xlink:href="#ArialMT-41" transform="translate(450 0)"/>
      <use xlink:href="#ArialMT-44" transform="translate(516.699219 0)"/>
     </g>
    </g>
    <g id="PathCollection_32">
     <g>
      <use xlink:href="#m0f8b53ebbc" x="310.046094" y="24.5475" style="fill: #6cc2f5; stroke: #4c88ab; stroke-width: 1.5"/>
     </g>
    </g>
    <g id="text_14">
     <!-- TCGA-KICH -->
     <g transform="translate(327.046094 27.1725) scale(0.1 -0.1)">
      <use xlink:href="#ArialMT-54"/>
      <use xlink:href="#ArialMT-43" transform="translate(61.083984 0)"/>
      <use xlink:href="#ArialMT-47" transform="translate(133.300781 0)"/>
      <use xlink:href="#ArialMT-41" transform="translate(211.083984 0)"/>
      <use xlink:href="#ArialMT-2d" transform="translate(277.783203 0)"/>
      <use xlink:href="#ArialMT-4b" transform="translate(311.083984 0)"/>
      <use xlink:href="#ArialMT-49" transform="translate(377.783203 0)"/>
      <use xlink:href="#ArialMT-43" transform="translate(405.566406 0)"/>
      <use xlink:href="#ArialMT-48" transform="translate(477.783203 0)"/>
     </g>
    </g>
    <g id="PathCollection_33">
     <g>
      <use xlink:href="#m667dd6bed2" x="310.046094" y="38.692813" style="fill: #ff9a60; stroke: #b26c43; stroke-width: 1.5"/>
     </g>
    </g>
    <g id="text_15">
     <!-- TCGA-SARC -->
     <g transform="translate(327.046094 41.317813) scale(0.1 -0.1)">
      <use xlink:href="#ArialMT-54"/>
      <use xlink:href="#ArialMT-43" transform="translate(61.083984 0)"/>
      <use xlink:href="#ArialMT-47" transform="translate(133.300781 0)"/>
      <use xlink:href="#ArialMT-41" transform="translate(211.083984 0)"/>
      <use xlink:href="#ArialMT-2d" transform="translate(277.783203 0)"/>
      <use xlink:href="#ArialMT-53" transform="translate(311.083984 0)"/>
      <use xlink:href="#ArialMT-41" transform="translate(377.783203 0)"/>
      <use xlink:href="#ArialMT-52" transform="translate(444.482422 0)"/>
      <use xlink:href="#ArialMT-43" transform="translate(516.699219 0)"/>
     </g>
    </g>
    <g id="PathCollection_34">
     <g>
      <use xlink:href="#m741dccd83f" x="408.438281" y="10.402188" style="fill: #ff60b3; stroke: #b2437d; stroke-width: 1.5"/>
     </g>
    </g>
    <g id="text_16">
     <!-- TCGA-STAD -->
     <g transform="translate(425.438281 13.027188) scale(0.1 -0.1)">
      <use xlink:href="#ArialMT-54"/>
      <use xlink:href="#ArialMT-43" transform="translate(61.083984 0)"/>
      <use xlink:href="#ArialMT-47" transform="translate(133.300781 0)"/>
      <use xlink:href="#ArialMT-41" transform="translate(211.083984 0)"/>
      <use xlink:href="#ArialMT-2d" transform="translate(277.783203 0)"/>
      <use xlink:href="#ArialMT-53" transform="translate(311.083984 0)"/>
      <use xlink:href="#ArialMT-54" transform="translate(377.783203 0)"/>
      <use xlink:href="#ArialMT-41" transform="translate(431.492188 0)"/>
      <use xlink:href="#ArialMT-44" transform="translate(498.191406 0)"/>
     </g>
    </g>
    <g id="PathCollection_35">
     <g>
      <use xlink:href="#m64c8564a98" x="408.438281" y="24.5475" style="fill: #c260ff; stroke: #8843b2; stroke-width: 1.5"/>
     </g>
    </g>
    <g id="text_17">
     <!-- TCGA-ESCA -->
     <g transform="translate(425.438281 27.1725) scale(0.1 -0.1)">
      <use xlink:href="#ArialMT-54"/>
      <use xlink:href="#ArialMT-43" transform="translate(61.083984 0)"/>
      <use xlink:href="#ArialMT-47" transform="translate(133.300781 0)"/>
      <use xlink:href="#ArialMT-41" transform="translate(211.083984 0)"/>
      <use xlink:href="#ArialMT-2d" transform="translate(277.783203 0)"/>
      <use xlink:href="#ArialMT-45" transform="translate(311.083984 0)"/>
      <use xlink:href="#ArialMT-53" transform="translate(377.783203 0)"/>
      <use xlink:href="#ArialMT-43" transform="translate(444.482422 0)"/>
      <use xlink:href="#ArialMT-41" transform="translate(516.699219 0)"/>
     </g>
    </g>
    <g id="PathCollection_36">
     <g>
      <use xlink:href="#mb13e382c8d" x="408.438281" y="38.692813" style="fill: #60ffa0; stroke: #43b270; stroke-width: 1.5"/>
     </g>
    </g>
    <g id="text_18">
     <!-- TCGA-CESC -->
     <g transform="translate(425.438281 41.317813) scale(0.1 -0.1)">
      <use xlink:href="#ArialMT-54"/>
      <use xlink:href="#ArialMT-43" transform="translate(61.083984 0)"/>
      <use xlink:href="#ArialMT-47" transform="translate(133.300781 0)"/>
      <use xlink:href="#ArialMT-41" transform="translate(211.083984 0)"/>
      <use xlink:href="#ArialMT-2d" transform="translate(277.783203 0)"/>
      <use xlink:href="#ArialMT-43" transform="translate(311.083984 0)"/>
      <use xlink:href="#ArialMT-45" transform="translate(383.300781 0)"/>
      <use xlink:href="#ArialMT-53" transform="translate(450 0)"/>
      <use xlink:href="#ArialMT-43" transform="translate(516.699219 0)"/>
     </g>
    </g>
   </g>
  </g>
 </g>
 <defs>
  <clipPath id="p19c9f86e42">
   <rect x="-90.475" y="-79.22" width="669.6" height="221.76"/>
  </clipPath>
 </defs>
</svg>
