<?xml version="1.0" encoding="utf-8" standalone="no"?>
<!DOCTYPE svg PUBLIC "-//W3C//DTD SVG 1.1//EN"
  "http://www.w3.org/Graphics/SVG/1.1/DTD/svg11.dtd">
<svg xmlns:xlink="http://www.w3.org/1999/xlink" width="712.8pt" height="424.8pt" viewBox="0 0 712.8 424.8" xmlns="http://www.w3.org/2000/svg" version="1.1">
 <metadata>
  <rdf:RDF xmlns:dc="http://purl.org/dc/elements/1.1/" xmlns:cc="http://creativecommons.org/ns#" xmlns:rdf="http://www.w3.org/1999/02/22-rdf-syntax-ns#">
   <cc:Work>
    <dc:type rdf:resource="http://purl.org/dc/dcmitype/StillImage"/>
    <dc:date>2025-03-26T13:49:09.072223</dc:date>
    <dc:format>image/svg+xml</dc:format>
    <dc:creator>
     <cc:Agent>
      <dc:title>Matplotlib v3.10.0, https://matplotlib.org/</dc:title>
     </cc:Agent>
    </dc:creator>
   </cc:Work>
  </rdf:RDF>
 </metadata>
 <defs>
  <style type="text/css">*{stroke-linejoin: round; stroke-linecap: butt}</style>
 </defs>
 <g id="figure_1">
  <g id="patch_1">
   <path d="M 0 424.8 
L 712.8 424.8 
L 712.8 0 
L 0 0 
z
" style="fill: #ffffff"/>
  </g>
  <g id="axes_1">
   <g id="patch_2">
    <path d="M 7.2 417.6 
L 705.6 417.6 
L 705.6 7.2 
L 7.2 7.2 
z
" style="fill: #ffffff"/>
   </g>
   <g id="line2d_1">
    <path d="M 7.2 26.742857 
L 66.395053 26.742857 
L 66.395053 41.775824 
L 92.562823 41.775824 
L 92.562823 56.808791 
L 112.379192 56.808791 
L 112.379192 71.841758 
L 146.168643 71.841758 
L 146.168643 86.874725 
L 152.520044 86.874725 
L 152.520044 101.907692 
L 153.028156 101.907692 
L 153.028156 116.940659 
L 161.66606 116.940659 
L 161.66606 131.973626 
L 162.682284 131.973626 
L 162.682284 147.006593 
L 179.704038 147.006593 
L 179.704038 162.03956 
L 202.823136 162.03956 
L 202.823136 177.072527 
L 205.871808 177.072527 
L 205.871808 192.105495 
L 215.525937 192.105495 
L 215.525937 207.138462 
L 217.558385 207.138462 
L 217.558385 222.171429 
L 247.536995 222.171429 
L 247.536995 237.204396 
L 255.158676 237.204396 
L 255.158676 252.237363 
L 259.223572 252.237363 
L 259.223572 267.27033 
L 262.272244 267.27033 
L 262.272244 282.303297 
L 262.5263 282.303297 
L 262.5263 297.336264 
L 269.893925 297.336264 
L 269.893925 312.369231 
L 277.515606 312.369231 
L 277.515606 327.402198 
L 300.634704 327.402198 
L 300.634704 342.435165 
L 386.251582 342.435165 
L 386.251582 357.468132 
L 401.494944 357.468132 
L 401.494944 372.501099 
L 411.149072 372.501099 
L 411.149072 387.534066 
L 511.755256 387.534066 
L 511.755256 402.567033 
L 602.453256 402.567033 
L 602.453256 417.6 
" clip-path="url(#pd38ec692ea)" style="fill: none; stroke: #c13930; stroke-width: 2.5; stroke-linecap: square"/>
   </g>
   <g id="line2d_2">
    <path d="M 7.2 26.742857 
L 12.027064 26.742857 
L 12.027064 42.377143 
L 22.697417 42.377143 
L 22.697417 58.011429 
L 23.713641 58.011429 
L 23.713641 73.645714 
L 49.373299 73.645714 
L 49.373299 89.28 
L 49.881411 89.28 
L 49.881411 104.914286 
L 70.714005 104.914286 
L 70.714005 120.548571 
L 76.303238 120.548571 
L 76.303238 136.182857 
L 78.08163 136.182857 
L 78.08163 151.817143 
L 96.119607 151.817143 
L 96.119607 167.451429 
L 101.962896 167.451429 
L 101.962896 183.085714 
L 124.065769 183.085714 
L 124.065769 198.72 
L 127.622554 198.72 
L 127.622554 214.354286 
L 129.909058 214.354286 
L 129.909058 229.988571 
L 130.163114 229.988571 
L 130.163114 245.622857 
L 146.930811 245.622857 
L 146.930811 261.257143 
L 149.725427 261.257143 
L 149.725427 276.891429 
L 206.633976 276.891429 
L 206.633976 292.525714 
L 235.596362 292.525714 
L 235.596362 308.16 
L 255.666788 308.16 
L 255.666788 323.794286 
L 270.402037 323.794286 
L 270.402037 339.428571 
L 314.607785 339.428571 
L 314.607785 355.062857 
L 331.121426 355.062857 
L 331.121426 370.697143 
L 386.251582 370.697143 
L 386.251582 386.331429 
L 409.37068 386.331429 
L 409.37068 401.965714 
L 705.6 401.965714 
L 705.6 417.6 
" clip-path="url(#pd38ec692ea)" style="fill: none; stroke: #e6862a; stroke-opacity: 0.964706; stroke-width: 2.5; stroke-linecap: square"/>
   </g>
   <g id="line2d_3">
    <path d="M 7.2 26.742857 
L 26.508258 26.742857 
L 26.508258 41.775824 
L 27.778538 41.775824 
L 27.778538 56.808791 
L 33.621826 56.808791 
L 33.621826 71.841758 
L 34.129938 71.841758 
L 34.129938 86.874725 
L 37.432666 86.874725 
L 37.432666 101.907692 
L 55.216588 101.907692 
L 55.216588 116.940659 
L 66.903165 116.940659 
L 66.903165 131.973626 
L 70.714005 131.973626 
L 70.714005 147.006593 
L 81.89247 147.006593 
L 81.89247 162.03956 
L 88.497927 162.03956 
L 88.497927 177.072527 
L 94.087159 177.072527 
L 94.087159 192.105495 
L 98.406111 192.105495 
L 98.406111 207.138462 
L 101.200728 207.138462 
L 101.200728 222.171429 
L 120.254929 222.171429 
L 120.254929 237.204396 
L 129.14689 237.204396 
L 129.14689 252.237363 
L 149.979483 252.237363 
L 149.979483 267.27033 
L 157.093052 267.27033 
L 157.093052 282.303297 
L 192.152783 282.303297 
L 192.152783 297.336264 
L 194.947399 297.336264 
L 194.947399 312.369231 
L 202.315024 312.369231 
L 202.315024 327.402198 
L 226.704402 327.402198 
L 226.704402 342.435165 
L 231.023354 342.435165 
L 231.023354 357.468132 
L 249.315387 357.468132 
L 249.315387 372.501099 
L 280.310222 372.501099 
L 280.310222 387.534066 
L 443.668243 387.534066 
L 443.668243 402.567033 
L 508.198472 402.567033 
L 508.198472 417.6 
" clip-path="url(#pd38ec692ea)" style="fill: none; stroke: #317ec2; stroke-width: 2.5; stroke-linecap: square"/>
   </g>
   <g id="patch_3">
    <path d="M 7.2 417.6 
L 7.2 7.2 
" style="fill: none; stroke: #000000; stroke-width: 0.8; stroke-linejoin: miter; stroke-linecap: square"/>
   </g>
   <g id="patch_4">
    <path d="M 7.2 417.6 
L 705.6 417.6 
" style="fill: none; stroke: #000000; stroke-width: 0.8; stroke-linejoin: miter; stroke-linecap: square"/>
   </g>
  </g>
 </g>
 <defs>
  <clipPath id="pd38ec692ea">
   <rect x="7.2" y="7.2" width="698.4" height="410.4"/>
  </clipPath>
 </defs>
</svg>
