<?xml version="1.0" encoding="utf-8" standalone="no"?>
<!DOCTYPE svg PUBLIC "-//W3C//DTD SVG 1.1//EN"
  "http://www.w3.org/Graphics/SVG/1.1/DTD/svg11.dtd">
<svg xmlns:xlink="http://www.w3.org/1999/xlink" width="712.8pt" height="424.8pt" viewBox="0 0 712.8 424.8" xmlns="http://www.w3.org/2000/svg" version="1.1">
 <metadata>
  <rdf:RDF xmlns:dc="http://purl.org/dc/elements/1.1/" xmlns:cc="http://creativecommons.org/ns#" xmlns:rdf="http://www.w3.org/1999/02/22-rdf-syntax-ns#">
   <cc:Work>
    <dc:type rdf:resource="http://purl.org/dc/dcmitype/StillImage"/>
    <dc:date>2025-03-26T13:49:22.955293</dc:date>
    <dc:format>image/svg+xml</dc:format>
    <dc:creator>
     <cc:Agent>
      <dc:title>Matplotlib v3.10.0, https://matplotlib.org/</dc:title>
     </cc:Agent>
    </dc:creator>
   </cc:Work>
  </rdf:RDF>
 </metadata>
 <defs>
  <style type="text/css">*{stroke-linejoin: round; stroke-linecap: butt}</style>
 </defs>
 <g id="figure_1">
  <g id="patch_1">
   <path d="M 0 424.8 
L 712.8 424.8 
L 712.8 0 
L 0 0 
z
" style="fill: #ffffff"/>
  </g>
  <g id="axes_1">
   <g id="patch_2">
    <path d="M 7.2 417.6 
L 705.6 417.6 
L 705.6 7.2 
L 7.2 7.2 
z
" style="fill: #ffffff"/>
   </g>
   <g id="line2d_1">
    <path d="M 7.2 26.742857 
L 49.373299 26.742857 
L 49.373299 41.775824 
L 76.303238 41.775824 
L 76.303238 56.808791 
L 92.562823 56.808791 
L 92.562823 71.841758 
L 112.379192 71.841758 
L 112.379192 86.874725 
L 130.163114 86.874725 
L 130.163114 101.907692 
L 149.725427 101.907692 
L 149.725427 116.940659 
L 153.028156 116.940659 
L 153.028156 131.973626 
L 179.704038 131.973626 
L 179.704038 147.006593 
L 202.823136 147.006593 
L 202.823136 162.03956 
L 205.871808 162.03956 
L 205.871808 177.072527 
L 206.633976 177.072527 
L 206.633976 192.105495 
L 215.525937 192.105495 
L 215.525937 207.138462 
L 217.558385 207.138462 
L 217.558385 222.171429 
L 247.536995 222.171429 
L 247.536995 237.204396 
L 249.315387 237.204396 
L 249.315387 252.237363 
L 255.158676 252.237363 
L 255.158676 267.27033 
L 262.272244 267.27033 
L 262.272244 282.303297 
L 262.5263 282.303297 
L 262.5263 297.336264 
L 300.634704 297.336264 
L 300.634704 312.369231 
L 331.121426 312.369231 
L 331.121426 327.402198 
L 386.251582 327.402198 
L 386.251582 342.435165 
L 401.494944 342.435165 
L 401.494944 357.468132 
L 411.149072 357.468132 
L 411.149072 372.501099 
L 508.198472 372.501099 
L 508.198472 387.534066 
L 511.755256 387.534066 
L 511.755256 402.567033 
L 602.453256 402.567033 
L 602.453256 417.6 
" clip-path="url(#pe07723ce6d)" style="fill: none; stroke: #c13930; stroke-width: 2.5; stroke-linecap: square"/>
   </g>
   <g id="line2d_2">
    <path d="M 7.2 26.742857 
L 12.027064 26.742857 
L 12.027064 42.377143 
L 22.697417 42.377143 
L 22.697417 58.011429 
L 66.395053 58.011429 
L 66.395053 73.645714 
L 78.08163 73.645714 
L 78.08163 89.28 
L 81.89247 89.28 
L 81.89247 104.914286 
L 88.497927 104.914286 
L 88.497927 120.548571 
L 101.962896 120.548571 
L 101.962896 136.182857 
L 120.254929 136.182857 
L 120.254929 151.817143 
L 124.065769 151.817143 
L 124.065769 167.451429 
L 127.622554 167.451429 
L 127.622554 183.085714 
L 146.168643 183.085714 
L 146.168643 198.72 
L 146.930811 198.72 
L 146.930811 214.354286 
L 152.520044 214.354286 
L 152.520044 229.988571 
L 161.66606 229.988571 
L 161.66606 245.622857 
L 162.682284 245.622857 
L 162.682284 261.257143 
L 192.152783 261.257143 
L 192.152783 276.891429 
L 194.947399 276.891429 
L 194.947399 292.525714 
L 235.596362 292.525714 
L 235.596362 308.16 
L 259.223572 308.16 
L 259.223572 323.794286 
L 269.893925 323.794286 
L 269.893925 339.428571 
L 277.515606 339.428571 
L 277.515606 355.062857 
L 280.310222 355.062857 
L 280.310222 370.697143 
L 386.251582 370.697143 
L 386.251582 386.331429 
L 409.37068 386.331429 
L 409.37068 401.965714 
L 705.6 401.965714 
L 705.6 417.6 
" clip-path="url(#pe07723ce6d)" style="fill: none; stroke: #e6862a; stroke-opacity: 0.964706; stroke-width: 2.5; stroke-linecap: square"/>
   </g>
   <g id="line2d_3">
    <path d="M 7.2 26.742857 
L 23.713641 26.742857 
L 23.713641 41.775824 
L 26.508258 41.775824 
L 26.508258 56.808791 
L 27.778538 56.808791 
L 27.778538 71.841758 
L 33.621826 71.841758 
L 33.621826 86.874725 
L 34.129938 86.874725 
L 34.129938 101.907692 
L 37.432666 101.907692 
L 37.432666 116.940659 
L 49.881411 116.940659 
L 49.881411 131.973626 
L 55.216588 131.973626 
L 55.216588 147.006593 
L 66.903165 147.006593 
L 66.903165 162.03956 
L 70.714005 162.03956 
L 70.714005 192.105495 
L 94.087159 192.105495 
L 94.087159 207.138462 
L 96.119607 207.138462 
L 96.119607 222.171429 
L 98.406111 222.171429 
L 98.406111 237.204396 
L 101.200728 237.204396 
L 101.200728 252.237363 
L 129.14689 252.237363 
L 129.14689 267.27033 
L 129.909058 267.27033 
L 129.909058 282.303297 
L 149.979483 282.303297 
L 149.979483 297.336264 
L 157.093052 297.336264 
L 157.093052 312.369231 
L 202.315024 312.369231 
L 202.315024 327.402198 
L 226.704402 327.402198 
L 226.704402 342.435165 
L 231.023354 342.435165 
L 231.023354 357.468132 
L 255.666788 357.468132 
L 255.666788 372.501099 
L 270.402037 372.501099 
L 270.402037 387.534066 
L 314.607785 387.534066 
L 314.607785 402.567033 
L 443.668243 402.567033 
L 443.668243 417.6 
" clip-path="url(#pe07723ce6d)" style="fill: none; stroke: #317ec2; stroke-width: 2.5; stroke-linecap: square"/>
   </g>
   <g id="patch_3">
    <path d="M 7.2 417.6 
L 7.2 7.2 
" style="fill: none; stroke: #000000; stroke-width: 0.8; stroke-linejoin: miter; stroke-linecap: square"/>
   </g>
   <g id="patch_4">
    <path d="M 7.2 417.6 
L 705.6 417.6 
" style="fill: none; stroke: #000000; stroke-width: 0.8; stroke-linejoin: miter; stroke-linecap: square"/>
   </g>
  </g>
 </g>
 <defs>
  <clipPath id="pe07723ce6d">
   <rect x="7.2" y="7.2" width="698.4" height="410.4"/>
  </clipPath>
 </defs>
</svg>
