<?xml version="1.0" encoding="utf-8" standalone="no"?>
<!DOCTYPE svg PUBLIC "-//W3C//DTD SVG 1.1//EN"
  "http://www.w3.org/Graphics/SVG/1.1/DTD/svg11.dtd">
<svg xmlns:xlink="http://www.w3.org/1999/xlink" width="712.8pt" height="424.8pt" viewBox="0 0 712.8 424.8" xmlns="http://www.w3.org/2000/svg" version="1.1">
 <metadata>
  <rdf:RDF xmlns:dc="http://purl.org/dc/elements/1.1/" xmlns:cc="http://creativecommons.org/ns#" xmlns:rdf="http://www.w3.org/1999/02/22-rdf-syntax-ns#">
   <cc:Work>
    <dc:type rdf:resource="http://purl.org/dc/dcmitype/StillImage"/>
    <dc:date>2025-04-04T10:39:51.894476</dc:date>
    <dc:format>image/svg+xml</dc:format>
    <dc:creator>
     <cc:Agent>
      <dc:title>Matplotlib v3.10.1, https://matplotlib.org/</dc:title>
     </cc:Agent>
    </dc:creator>
   </cc:Work>
  </rdf:RDF>
 </metadata>
 <defs>
  <style type="text/css">*{stroke-linejoin: round; stroke-linecap: butt}</style>
 </defs>
 <g id="figure_1">
  <g id="patch_1">
   <path d="M 0 424.8 
L 712.8 424.8 
L 712.8 0 
L 0 0 
z
" style="fill: #ffffff"/>
  </g>
  <g id="axes_1">
   <g id="patch_2">
    <path d="M 7.2 417.6 
L 705.6 417.6 
L 705.6 7.2 
L 7.2 7.2 
z
" style="fill: #ffffff"/>
   </g>
   <g id="line2d_1">
    <path d="M 7.2 26.742857 
L 49.373299 26.742857 
L 49.373299 41.775824 
L 70.714005 41.775824 
L 70.714005 56.808791 
L 101.962896 56.808791 
L 101.962896 71.841758 
L 112.379192 71.841758 
L 112.379192 86.874725 
L 149.725427 86.874725 
L 149.725427 101.907692 
L 153.028156 101.907692 
L 153.028156 116.940659 
L 161.66606 116.940659 
L 161.66606 131.973626 
L 179.704038 131.973626 
L 179.704038 147.006593 
L 202.823136 147.006593 
L 202.823136 162.03956 
L 205.871808 162.03956 
L 205.871808 177.072527 
L 215.525937 177.072527 
L 215.525937 192.105495 
L 217.558385 192.105495 
L 217.558385 207.138462 
L 247.536995 207.138462 
L 247.536995 222.171429 
L 255.158676 222.171429 
L 255.158676 237.204396 
L 259.223572 237.204396 
L 259.223572 252.237363 
L 262.272244 252.237363 
L 262.272244 267.27033 
L 262.5263 267.27033 
L 262.5263 282.303297 
L 277.515606 282.303297 
L 277.515606 297.336264 
L 300.634704 297.336264 
L 300.634704 312.369231 
L 401.494944 312.369231 
L 401.494944 327.402198 
L 409.37068 327.402198 
L 409.37068 342.435165 
L 411.149072 342.435165 
L 411.149072 357.468132 
L 508.198472 357.468132 
L 508.198472 372.501099 
L 511.755256 372.501099 
L 511.755256 387.534066 
L 602.453256 387.534066 
L 602.453256 402.567033 
L 705.6 402.567033 
L 705.6 417.6 
" clip-path="url(#pc9e6226ad7)" style="fill: none; stroke: #c13930; stroke-width: 2.5; stroke-linecap: square"/>
   </g>
   <g id="line2d_2">
    <path d="M 7.2 26.742857 
L 12.027064 26.742857 
L 12.027064 42.377143 
L 22.697417 42.377143 
L 22.697417 58.011429 
L 23.713641 58.011429 
L 23.713641 73.645714 
L 49.881411 73.645714 
L 49.881411 89.28 
L 81.89247 89.28 
L 81.89247 104.914286 
L 92.562823 104.914286 
L 92.562823 120.548571 
L 96.119607 120.548571 
L 96.119607 136.182857 
L 98.406111 136.182857 
L 98.406111 151.817143 
L 127.622554 151.817143 
L 127.622554 167.451429 
L 129.14689 167.451429 
L 129.14689 183.085714 
L 129.909058 183.085714 
L 129.909058 198.72 
L 146.168643 198.72 
L 146.168643 214.354286 
L 146.930811 214.354286 
L 146.930811 229.988571 
L 152.520044 229.988571 
L 152.520044 245.622857 
L 162.682284 245.622857 
L 162.682284 261.257143 
L 194.947399 261.257143 
L 194.947399 276.891429 
L 206.633976 276.891429 
L 206.633976 292.525714 
L 235.596362 292.525714 
L 235.596362 308.16 
L 249.315387 308.16 
L 249.315387 323.794286 
L 269.893925 323.794286 
L 269.893925 339.428571 
L 270.402037 339.428571 
L 270.402037 355.062857 
L 280.310222 355.062857 
L 280.310222 370.697143 
L 331.121426 370.697143 
L 331.121426 386.331429 
L 386.251582 386.331429 
L 386.251582 401.965714 
L 443.668243 401.965714 
L 443.668243 417.6 
" clip-path="url(#pc9e6226ad7)" style="fill: none; stroke: #e6862a; stroke-opacity: 0.964706; stroke-width: 2.5; stroke-linecap: square"/>
   </g>
   <g id="line2d_3">
    <path d="M 7.2 26.742857 
L 26.508258 26.742857 
L 26.508258 41.775824 
L 27.778538 41.775824 
L 27.778538 56.808791 
L 33.621826 56.808791 
L 33.621826 71.841758 
L 34.129938 71.841758 
L 34.129938 86.874725 
L 37.432666 86.874725 
L 37.432666 101.907692 
L 55.216588 101.907692 
L 55.216588 116.940659 
L 66.395053 116.940659 
L 66.395053 131.973626 
L 66.903165 131.973626 
L 66.903165 147.006593 
L 70.714005 147.006593 
L 70.714005 162.03956 
L 76.303238 162.03956 
L 76.303238 177.072527 
L 78.08163 177.072527 
L 78.08163 192.105495 
L 88.497927 192.105495 
L 88.497927 207.138462 
L 94.087159 207.138462 
L 94.087159 222.171429 
L 101.200728 222.171429 
L 101.200728 237.204396 
L 120.254929 237.204396 
L 120.254929 252.237363 
L 124.065769 252.237363 
L 124.065769 267.27033 
L 130.163114 267.27033 
L 130.163114 282.303297 
L 149.979483 282.303297 
L 149.979483 297.336264 
L 157.093052 297.336264 
L 157.093052 312.369231 
L 192.152783 312.369231 
L 192.152783 327.402198 
L 202.315024 327.402198 
L 202.315024 342.435165 
L 226.704402 342.435165 
L 226.704402 357.468132 
L 231.023354 357.468132 
L 231.023354 372.501099 
L 255.666788 372.501099 
L 255.666788 387.534066 
L 314.607785 387.534066 
L 314.607785 402.567033 
L 386.251582 402.567033 
L 386.251582 417.6 
" clip-path="url(#pc9e6226ad7)" style="fill: none; stroke: #317ec2; stroke-width: 2.5; stroke-linecap: square"/>
   </g>
   <g id="patch_3">
    <path d="M 7.2 417.6 
L 7.2 7.2 
" style="fill: none; stroke: #000000; stroke-width: 0.8; stroke-linejoin: miter; stroke-linecap: square"/>
   </g>
   <g id="patch_4">
    <path d="M 7.2 417.6 
L 705.6 417.6 
" style="fill: none; stroke: #000000; stroke-width: 0.8; stroke-linejoin: miter; stroke-linecap: square"/>
   </g>
  </g>
 </g>
 <defs>
  <clipPath id="pc9e6226ad7">
   <rect x="7.2" y="7.2" width="698.4" height="410.4"/>
  </clipPath>
 </defs>
</svg>
