<?xml version="1.0" encoding="utf-8" standalone="no"?>
<!DOCTYPE svg PUBLIC "-//W3C//DTD SVG 1.1//EN"
  "http://www.w3.org/Graphics/SVG/1.1/DTD/svg11.dtd">
<svg xmlns:xlink="http://www.w3.org/1999/xlink" width="712.8pt" height="424.8pt" viewBox="0 0 712.8 424.8" xmlns="http://www.w3.org/2000/svg" version="1.1">
 <metadata>
  <rdf:RDF xmlns:dc="http://purl.org/dc/elements/1.1/" xmlns:cc="http://creativecommons.org/ns#" xmlns:rdf="http://www.w3.org/1999/02/22-rdf-syntax-ns#">
   <cc:Work>
    <dc:type rdf:resource="http://purl.org/dc/dcmitype/StillImage"/>
    <dc:date>2025-03-26T13:49:21.662914</dc:date>
    <dc:format>image/svg+xml</dc:format>
    <dc:creator>
     <cc:Agent>
      <dc:title>Matplotlib v3.10.0, https://matplotlib.org/</dc:title>
     </cc:Agent>
    </dc:creator>
   </cc:Work>
  </rdf:RDF>
 </metadata>
 <defs>
  <style type="text/css">*{stroke-linejoin: round; stroke-linecap: butt}</style>
 </defs>
 <g id="figure_1">
  <g id="patch_1">
   <path d="M 0 424.8 
L 712.8 424.8 
L 712.8 0 
L 0 0 
z
" style="fill: #ffffff"/>
  </g>
  <g id="axes_1">
   <g id="patch_2">
    <path d="M 7.2 417.6 
L 705.6 417.6 
L 705.6 7.2 
L 7.2 7.2 
z
" style="fill: #ffffff"/>
   </g>
   <g id="line2d_1">
    <path d="M 7.2 26.742857 
L 22.697417 26.742857 
L 22.697417 41.775824 
L 49.373299 41.775824 
L 49.373299 56.808791 
L 92.562823 56.808791 
L 92.562823 71.841758 
L 112.379192 71.841758 
L 112.379192 86.874725 
L 129.14689 86.874725 
L 129.14689 101.907692 
L 149.725427 101.907692 
L 149.725427 116.940659 
L 153.028156 116.940659 
L 153.028156 131.973626 
L 161.66606 131.973626 
L 161.66606 147.006593 
L 162.682284 147.006593 
L 162.682284 162.03956 
L 179.704038 162.03956 
L 179.704038 177.072527 
L 192.152783 177.072527 
L 192.152783 192.105495 
L 205.871808 192.105495 
L 205.871808 207.138462 
L 215.525937 207.138462 
L 215.525937 222.171429 
L 217.558385 222.171429 
L 217.558385 237.204396 
L 235.596362 237.204396 
L 235.596362 252.237363 
L 249.315387 252.237363 
L 249.315387 267.27033 
L 280.310222 267.27033 
L 280.310222 282.303297 
L 300.634704 282.303297 
L 300.634704 297.336264 
L 331.121426 297.336264 
L 331.121426 312.369231 
L 401.494944 312.369231 
L 401.494944 327.402198 
L 409.37068 327.402198 
L 409.37068 342.435165 
L 411.149072 342.435165 
L 411.149072 357.468132 
L 508.198472 357.468132 
L 508.198472 372.501099 
L 511.755256 372.501099 
L 511.755256 387.534066 
L 602.453256 387.534066 
L 602.453256 402.567033 
L 705.6 402.567033 
L 705.6 417.6 
" clip-path="url(#p8efcaf0f11)" style="fill: none; stroke: #c13930; stroke-width: 2.5; stroke-linecap: square"/>
   </g>
   <g id="line2d_2">
    <path d="M 7.2 26.742857 
L 12.027064 26.742857 
L 12.027064 42.377143 
L 34.129938 42.377143 
L 34.129938 58.011429 
L 49.881411 58.011429 
L 49.881411 73.645714 
L 55.216588 73.645714 
L 55.216588 89.28 
L 78.08163 89.28 
L 78.08163 104.914286 
L 81.89247 104.914286 
L 81.89247 120.548571 
L 101.962896 120.548571 
L 101.962896 136.182857 
L 120.254929 136.182857 
L 120.254929 151.817143 
L 124.065769 151.817143 
L 124.065769 167.451429 
L 129.909058 167.451429 
L 129.909058 183.085714 
L 146.930811 183.085714 
L 146.930811 198.72 
L 152.520044 198.72 
L 152.520044 214.354286 
L 157.093052 214.354286 
L 157.093052 229.988571 
L 206.633976 229.988571 
L 206.633976 245.622857 
L 247.536995 245.622857 
L 247.536995 261.257143 
L 255.158676 261.257143 
L 255.158676 276.891429 
L 255.666788 276.891429 
L 255.666788 292.525714 
L 259.223572 292.525714 
L 259.223572 308.16 
L 262.272244 308.16 
L 262.272244 323.794286 
L 262.5263 323.794286 
L 262.5263 339.428571 
L 269.893925 339.428571 
L 269.893925 355.062857 
L 277.515606 355.062857 
L 277.515606 370.697143 
L 386.251582 370.697143 
L 386.251582 401.965714 
L 443.668243 401.965714 
L 443.668243 417.6 
" clip-path="url(#p8efcaf0f11)" style="fill: none; stroke: #e6862a; stroke-opacity: 0.964706; stroke-width: 2.5; stroke-linecap: square"/>
   </g>
   <g id="line2d_3">
    <path d="M 7.2 26.742857 
L 23.713641 26.742857 
L 23.713641 41.775824 
L 26.508258 41.775824 
L 26.508258 56.808791 
L 27.778538 56.808791 
L 27.778538 71.841758 
L 33.621826 71.841758 
L 33.621826 86.874725 
L 37.432666 86.874725 
L 37.432666 101.907692 
L 66.395053 101.907692 
L 66.395053 116.940659 
L 66.903165 116.940659 
L 66.903165 131.973626 
L 70.714005 131.973626 
L 70.714005 162.03956 
L 76.303238 162.03956 
L 76.303238 177.072527 
L 88.497927 177.072527 
L 88.497927 192.105495 
L 94.087159 192.105495 
L 94.087159 207.138462 
L 96.119607 207.138462 
L 96.119607 222.171429 
L 98.406111 222.171429 
L 98.406111 237.204396 
L 101.200728 237.204396 
L 101.200728 252.237363 
L 127.622554 252.237363 
L 127.622554 267.27033 
L 130.163114 267.27033 
L 130.163114 282.303297 
L 146.168643 282.303297 
L 146.168643 297.336264 
L 149.979483 297.336264 
L 149.979483 312.369231 
L 194.947399 312.369231 
L 194.947399 327.402198 
L 202.315024 327.402198 
L 202.315024 342.435165 
L 202.823136 342.435165 
L 202.823136 357.468132 
L 226.704402 357.468132 
L 226.704402 372.501099 
L 231.023354 372.501099 
L 231.023354 387.534066 
L 270.402037 387.534066 
L 270.402037 402.567033 
L 314.607785 402.567033 
L 314.607785 417.6 
" clip-path="url(#p8efcaf0f11)" style="fill: none; stroke: #317ec2; stroke-width: 2.5; stroke-linecap: square"/>
   </g>
   <g id="patch_3">
    <path d="M 7.2 417.6 
L 7.2 7.2 
" style="fill: none; stroke: #000000; stroke-width: 0.8; stroke-linejoin: miter; stroke-linecap: square"/>
   </g>
   <g id="patch_4">
    <path d="M 7.2 417.6 
L 705.6 417.6 
" style="fill: none; stroke: #000000; stroke-width: 0.8; stroke-linejoin: miter; stroke-linecap: square"/>
   </g>
  </g>
 </g>
 <defs>
  <clipPath id="p8efcaf0f11">
   <rect x="7.2" y="7.2" width="698.4" height="410.4"/>
  </clipPath>
 </defs>
</svg>
