<?xml version="1.0" encoding="utf-8" standalone="no"?>
<!DOCTYPE svg PUBLIC "-//W3C//DTD SVG 1.1//EN"
  "http://www.w3.org/Graphics/SVG/1.1/DTD/svg11.dtd">
<svg xmlns:xlink="http://www.w3.org/1999/xlink" width="712.8pt" height="424.8pt" viewBox="0 0 712.8 424.8" xmlns="http://www.w3.org/2000/svg" version="1.1">
 <metadata>
  <rdf:RDF xmlns:dc="http://purl.org/dc/elements/1.1/" xmlns:cc="http://creativecommons.org/ns#" xmlns:rdf="http://www.w3.org/1999/02/22-rdf-syntax-ns#">
   <cc:Work>
    <dc:type rdf:resource="http://purl.org/dc/dcmitype/StillImage"/>
    <dc:date>2025-03-26T13:49:22.708339</dc:date>
    <dc:format>image/svg+xml</dc:format>
    <dc:creator>
     <cc:Agent>
      <dc:title>Matplotlib v3.10.0, https://matplotlib.org/</dc:title>
     </cc:Agent>
    </dc:creator>
   </cc:Work>
  </rdf:RDF>
 </metadata>
 <defs>
  <style type="text/css">*{stroke-linejoin: round; stroke-linecap: butt}</style>
 </defs>
 <g id="figure_1">
  <g id="patch_1">
   <path d="M 0 424.8 
L 712.8 424.8 
L 712.8 0 
L 0 0 
z
" style="fill: #ffffff"/>
  </g>
  <g id="axes_1">
   <g id="patch_2">
    <path d="M 7.2 417.6 
L 705.6 417.6 
L 705.6 7.2 
L 7.2 7.2 
z
" style="fill: #ffffff"/>
   </g>
   <g id="line2d_1">
    <path d="M 7.2 26.742857 
L 22.697417 26.742857 
L 22.697417 41.775824 
L 49.373299 41.775824 
L 49.373299 56.808791 
L 101.962896 56.808791 
L 101.962896 71.841758 
L 112.379192 71.841758 
L 112.379192 86.874725 
L 129.14689 86.874725 
L 129.14689 101.907692 
L 153.028156 101.907692 
L 153.028156 116.940659 
L 161.66606 116.940659 
L 161.66606 131.973626 
L 179.704038 131.973626 
L 179.704038 147.006593 
L 215.525937 147.006593 
L 215.525937 162.03956 
L 217.558385 162.03956 
L 217.558385 177.072527 
L 235.596362 177.072527 
L 235.596362 192.105495 
L 247.536995 192.105495 
L 247.536995 207.138462 
L 255.158676 207.138462 
L 255.158676 222.171429 
L 262.272244 222.171429 
L 262.272244 237.204396 
L 269.893925 237.204396 
L 269.893925 252.237363 
L 277.515606 252.237363 
L 277.515606 267.27033 
L 280.310222 267.27033 
L 280.310222 282.303297 
L 300.634704 282.303297 
L 300.634704 297.336264 
L 386.251582 297.336264 
L 386.251582 327.402198 
L 401.494944 327.402198 
L 401.494944 342.435165 
L 411.149072 342.435165 
L 411.149072 357.468132 
L 508.198472 357.468132 
L 508.198472 372.501099 
L 511.755256 372.501099 
L 511.755256 387.534066 
L 602.453256 387.534066 
L 602.453256 402.567033 
L 705.6 402.567033 
L 705.6 417.6 
" clip-path="url(#p866c98bb5e)" style="fill: none; stroke: #c13930; stroke-width: 2.5; stroke-linecap: square"/>
   </g>
   <g id="line2d_2">
    <path d="M 7.2 26.742857 
L 12.027064 26.742857 
L 12.027064 42.377143 
L 34.129938 42.377143 
L 34.129938 58.011429 
L 37.432666 58.011429 
L 37.432666 73.645714 
L 49.881411 73.645714 
L 49.881411 89.28 
L 55.216588 89.28 
L 55.216588 104.914286 
L 66.395053 104.914286 
L 66.395053 120.548571 
L 92.562823 120.548571 
L 92.562823 136.182857 
L 94.087159 136.182857 
L 94.087159 151.817143 
L 101.200728 151.817143 
L 101.200728 167.451429 
L 120.254929 167.451429 
L 120.254929 183.085714 
L 127.622554 183.085714 
L 127.622554 198.72 
L 146.168643 198.72 
L 146.168643 214.354286 
L 146.930811 214.354286 
L 146.930811 229.988571 
L 149.725427 229.988571 
L 149.725427 245.622857 
L 157.093052 245.622857 
L 157.093052 261.257143 
L 162.682284 261.257143 
L 162.682284 276.891429 
L 192.152783 276.891429 
L 192.152783 292.525714 
L 202.823136 292.525714 
L 202.823136 308.16 
L 231.023354 308.16 
L 231.023354 323.794286 
L 249.315387 323.794286 
L 249.315387 339.428571 
L 259.223572 339.428571 
L 259.223572 355.062857 
L 270.402037 355.062857 
L 270.402037 370.697143 
L 331.121426 370.697143 
L 331.121426 386.331429 
L 409.37068 386.331429 
L 409.37068 401.965714 
L 443.668243 401.965714 
L 443.668243 417.6 
" clip-path="url(#p866c98bb5e)" style="fill: none; stroke: #e6862a; stroke-opacity: 0.964706; stroke-width: 2.5; stroke-linecap: square"/>
   </g>
   <g id="line2d_3">
    <path d="M 7.2 26.742857 
L 23.713641 26.742857 
L 23.713641 41.775824 
L 26.508258 41.775824 
L 26.508258 56.808791 
L 27.778538 56.808791 
L 27.778538 71.841758 
L 33.621826 71.841758 
L 33.621826 86.874725 
L 66.903165 86.874725 
L 66.903165 101.907692 
L 70.714005 101.907692 
L 70.714005 131.973626 
L 76.303238 131.973626 
L 76.303238 147.006593 
L 78.08163 147.006593 
L 78.08163 162.03956 
L 81.89247 162.03956 
L 81.89247 177.072527 
L 88.497927 177.072527 
L 88.497927 192.105495 
L 96.119607 192.105495 
L 96.119607 207.138462 
L 98.406111 207.138462 
L 98.406111 222.171429 
L 124.065769 222.171429 
L 124.065769 237.204396 
L 129.909058 237.204396 
L 129.909058 252.237363 
L 130.163114 252.237363 
L 130.163114 267.27033 
L 149.979483 267.27033 
L 149.979483 282.303297 
L 152.520044 282.303297 
L 152.520044 297.336264 
L 194.947399 297.336264 
L 194.947399 312.369231 
L 202.315024 312.369231 
L 202.315024 327.402198 
L 205.871808 327.402198 
L 205.871808 342.435165 
L 206.633976 342.435165 
L 206.633976 357.468132 
L 226.704402 357.468132 
L 226.704402 372.501099 
L 255.666788 372.501099 
L 255.666788 387.534066 
L 262.5263 387.534066 
L 262.5263 402.567033 
L 314.607785 402.567033 
L 314.607785 417.6 
" clip-path="url(#p866c98bb5e)" style="fill: none; stroke: #317ec2; stroke-width: 2.5; stroke-linecap: square"/>
   </g>
   <g id="patch_3">
    <path d="M 7.2 417.6 
L 7.2 7.2 
" style="fill: none; stroke: #000000; stroke-width: 0.8; stroke-linejoin: miter; stroke-linecap: square"/>
   </g>
   <g id="patch_4">
    <path d="M 7.2 417.6 
L 705.6 417.6 
" style="fill: none; stroke: #000000; stroke-width: 0.8; stroke-linejoin: miter; stroke-linecap: square"/>
   </g>
  </g>
 </g>
 <defs>
  <clipPath id="p866c98bb5e">
   <rect x="7.2" y="7.2" width="698.4" height="410.4"/>
  </clipPath>
 </defs>
</svg>
