<?xml version="1.0" encoding="utf-8" standalone="no"?>
<!DOCTYPE svg PUBLIC "-//W3C//DTD SVG 1.1//EN"
  "http://www.w3.org/Graphics/SVG/1.1/DTD/svg11.dtd">
<svg xmlns:xlink="http://www.w3.org/1999/xlink" width="712.8pt" height="424.8pt" viewBox="0 0 712.8 424.8" xmlns="http://www.w3.org/2000/svg" version="1.1">
 <metadata>
  <rdf:RDF xmlns:dc="http://purl.org/dc/elements/1.1/" xmlns:cc="http://creativecommons.org/ns#" xmlns:rdf="http://www.w3.org/1999/02/22-rdf-syntax-ns#">
   <cc:Work>
    <dc:type rdf:resource="http://purl.org/dc/dcmitype/StillImage"/>
    <dc:date>2025-04-04T10:39:44.352550</dc:date>
    <dc:format>image/svg+xml</dc:format>
    <dc:creator>
     <cc:Agent>
      <dc:title>Matplotlib v3.10.1, https://matplotlib.org/</dc:title>
     </cc:Agent>
    </dc:creator>
   </cc:Work>
  </rdf:RDF>
 </metadata>
 <defs>
  <style type="text/css">*{stroke-linejoin: round; stroke-linecap: butt}</style>
 </defs>
 <g id="figure_1">
  <g id="patch_1">
   <path d="M 0 424.8 
L 712.8 424.8 
L 712.8 0 
L 0 0 
z
" style="fill: #ffffff"/>
  </g>
  <g id="axes_1">
   <g id="patch_2">
    <path d="M 7.2 417.6 
L 705.6 417.6 
L 705.6 7.2 
L 7.2 7.2 
z
" style="fill: #ffffff"/>
   </g>
   <g id="line2d_1">
    <path d="M 7.2 26.742857 
L 22.697417 26.742857 
L 22.697417 41.775824 
L 70.714005 41.775824 
L 70.714005 56.808791 
L 112.379192 56.808791 
L 112.379192 71.841758 
L 149.725427 71.841758 
L 149.725427 86.874725 
L 152.520044 86.874725 
L 152.520044 101.907692 
L 162.682284 101.907692 
L 162.682284 116.940659 
L 192.152783 116.940659 
L 192.152783 131.973626 
L 194.947399 131.973626 
L 194.947399 147.006593 
L 215.525937 147.006593 
L 215.525937 162.03956 
L 231.023354 162.03956 
L 231.023354 177.072527 
L 249.315387 177.072527 
L 249.315387 192.105495 
L 255.158676 192.105495 
L 255.158676 207.138462 
L 259.223572 207.138462 
L 259.223572 222.171429 
L 262.272244 222.171429 
L 262.272244 237.204396 
L 269.893925 237.204396 
L 269.893925 252.237363 
L 277.515606 252.237363 
L 277.515606 267.27033 
L 280.310222 267.27033 
L 280.310222 282.303297 
L 300.634704 282.303297 
L 300.634704 297.336264 
L 314.607785 297.336264 
L 314.607785 312.369231 
L 386.251582 312.369231 
L 386.251582 327.402198 
L 401.494944 327.402198 
L 401.494944 342.435165 
L 409.37068 342.435165 
L 409.37068 357.468132 
L 508.198472 357.468132 
L 508.198472 372.501099 
L 511.755256 372.501099 
L 511.755256 387.534066 
L 602.453256 387.534066 
L 602.453256 402.567033 
L 705.6 402.567033 
L 705.6 417.6 
" clip-path="url(#pb71bc5bd89)" style="fill: none; stroke: #c13930; stroke-width: 2.5; stroke-linecap: square"/>
   </g>
   <g id="line2d_2">
    <path d="M 7.2 26.742857 
L 12.027064 26.742857 
L 12.027064 42.377143 
L 23.713641 42.377143 
L 23.713641 58.011429 
L 26.508258 58.011429 
L 26.508258 73.645714 
L 33.621826 73.645714 
L 33.621826 89.28 
L 34.129938 89.28 
L 34.129938 104.914286 
L 37.432666 104.914286 
L 37.432666 120.548571 
L 81.89247 120.548571 
L 81.89247 136.182857 
L 96.119607 136.182857 
L 96.119607 151.817143 
L 98.406111 151.817143 
L 98.406111 167.451429 
L 101.962896 167.451429 
L 101.962896 183.085714 
L 120.254929 183.085714 
L 120.254929 198.72 
L 129.14689 198.72 
L 129.14689 214.354286 
L 129.909058 214.354286 
L 129.909058 229.988571 
L 130.163114 229.988571 
L 130.163114 245.622857 
L 146.930811 245.622857 
L 146.930811 261.257143 
L 153.028156 261.257143 
L 153.028156 276.891429 
L 161.66606 276.891429 
L 161.66606 292.525714 
L 179.704038 292.525714 
L 179.704038 308.16 
L 202.823136 308.16 
L 202.823136 323.794286 
L 206.633976 323.794286 
L 206.633976 339.428571 
L 217.558385 339.428571 
L 217.558385 355.062857 
L 226.704402 355.062857 
L 226.704402 370.697143 
L 235.596362 370.697143 
L 235.596362 386.331429 
L 262.5263 386.331429 
L 262.5263 401.965714 
L 411.149072 401.965714 
L 411.149072 417.6 
" clip-path="url(#pb71bc5bd89)" style="fill: none; stroke: #e6862a; stroke-opacity: 0.964706; stroke-width: 2.5; stroke-linecap: square"/>
   </g>
   <g id="line2d_3">
    <path d="M 7.2 26.742857 
L 27.778538 26.742857 
L 27.778538 41.775824 
L 49.373299 41.775824 
L 49.373299 56.808791 
L 49.881411 56.808791 
L 49.881411 71.841758 
L 55.216588 71.841758 
L 55.216588 86.874725 
L 66.395053 86.874725 
L 66.395053 101.907692 
L 66.903165 101.907692 
L 66.903165 116.940659 
L 70.714005 116.940659 
L 70.714005 131.973626 
L 76.303238 131.973626 
L 76.303238 147.006593 
L 78.08163 147.006593 
L 78.08163 162.03956 
L 88.497927 162.03956 
L 88.497927 177.072527 
L 92.562823 177.072527 
L 92.562823 192.105495 
L 94.087159 192.105495 
L 94.087159 207.138462 
L 101.200728 207.138462 
L 101.200728 222.171429 
L 124.065769 222.171429 
L 124.065769 237.204396 
L 127.622554 237.204396 
L 127.622554 252.237363 
L 146.168643 252.237363 
L 146.168643 267.27033 
L 149.979483 267.27033 
L 149.979483 282.303297 
L 157.093052 282.303297 
L 157.093052 297.336264 
L 202.315024 297.336264 
L 202.315024 312.369231 
L 205.871808 312.369231 
L 205.871808 327.402198 
L 247.536995 327.402198 
L 247.536995 342.435165 
L 255.666788 342.435165 
L 255.666788 357.468132 
L 270.402037 357.468132 
L 270.402037 372.501099 
L 331.121426 372.501099 
L 331.121426 387.534066 
L 386.251582 387.534066 
L 386.251582 402.567033 
L 443.668243 402.567033 
L 443.668243 417.6 
" clip-path="url(#pb71bc5bd89)" style="fill: none; stroke: #317ec2; stroke-width: 2.5; stroke-linecap: square"/>
   </g>
   <g id="patch_3">
    <path d="M 7.2 417.6 
L 7.2 7.2 
" style="fill: none; stroke: #000000; stroke-width: 0.8; stroke-linejoin: miter; stroke-linecap: square"/>
   </g>
   <g id="patch_4">
    <path d="M 7.2 417.6 
L 705.6 417.6 
" style="fill: none; stroke: #000000; stroke-width: 0.8; stroke-linejoin: miter; stroke-linecap: square"/>
   </g>
  </g>
 </g>
 <defs>
  <clipPath id="pb71bc5bd89">
   <rect x="7.2" y="7.2" width="698.4" height="410.4"/>
  </clipPath>
 </defs>
</svg>
