<?xml version="1.0" encoding="utf-8" standalone="no"?>
<!DOCTYPE svg PUBLIC "-//W3C//DTD SVG 1.1//EN"
  "http://www.w3.org/Graphics/SVG/1.1/DTD/svg11.dtd">
<svg xmlns:xlink="http://www.w3.org/1999/xlink" width="712.8pt" height="424.8pt" viewBox="0 0 712.8 424.8" xmlns="http://www.w3.org/2000/svg" version="1.1">
 <metadata>
  <rdf:RDF xmlns:dc="http://purl.org/dc/elements/1.1/" xmlns:cc="http://creativecommons.org/ns#" xmlns:rdf="http://www.w3.org/1999/02/22-rdf-syntax-ns#">
   <cc:Work>
    <dc:type rdf:resource="http://purl.org/dc/dcmitype/StillImage"/>
    <dc:date>2025-03-26T13:49:12.131769</dc:date>
    <dc:format>image/svg+xml</dc:format>
    <dc:creator>
     <cc:Agent>
      <dc:title>Matplotlib v3.10.0, https://matplotlib.org/</dc:title>
     </cc:Agent>
    </dc:creator>
   </cc:Work>
  </rdf:RDF>
 </metadata>
 <defs>
  <style type="text/css">*{stroke-linejoin: round; stroke-linecap: butt}</style>
 </defs>
 <g id="figure_1">
  <g id="patch_1">
   <path d="M 0 424.8 
L 712.8 424.8 
L 712.8 0 
L 0 0 
z
" style="fill: #ffffff"/>
  </g>
  <g id="axes_1">
   <g id="patch_2">
    <path d="M 7.2 417.6 
L 705.6 417.6 
L 705.6 7.2 
L 7.2 7.2 
z
" style="fill: #ffffff"/>
   </g>
   <g id="line2d_1">
    <path d="M 7.2 26.742857 
L 22.697417 26.742857 
L 22.697417 41.775824 
L 49.373299 41.775824 
L 49.373299 56.808791 
L 70.714005 56.808791 
L 70.714005 71.841758 
L 81.89247 71.841758 
L 81.89247 86.874725 
L 112.379192 86.874725 
L 112.379192 101.907692 
L 129.14689 101.907692 
L 129.14689 116.940659 
L 149.725427 116.940659 
L 149.725427 131.973626 
L 152.520044 131.973626 
L 152.520044 147.006593 
L 153.028156 147.006593 
L 153.028156 162.03956 
L 162.682284 162.03956 
L 162.682284 177.072527 
L 192.152783 177.072527 
L 192.152783 192.105495 
L 215.525937 192.105495 
L 215.525937 207.138462 
L 217.558385 207.138462 
L 217.558385 222.171429 
L 231.023354 222.171429 
L 231.023354 237.204396 
L 249.315387 237.204396 
L 249.315387 252.237363 
L 255.158676 252.237363 
L 255.158676 267.27033 
L 259.223572 267.27033 
L 259.223572 282.303297 
L 262.272244 282.303297 
L 262.272244 297.336264 
L 280.310222 297.336264 
L 280.310222 312.369231 
L 300.634704 312.369231 
L 300.634704 327.402198 
L 314.607785 327.402198 
L 314.607785 342.435165 
L 386.251582 342.435165 
L 386.251582 372.501099 
L 401.494944 372.501099 
L 401.494944 387.534066 
L 409.37068 387.534066 
L 409.37068 402.567033 
L 705.6 402.567033 
L 705.6 417.6 
" clip-path="url(#p37861b9976)" style="fill: none; stroke: #c13930; stroke-width: 2.5; stroke-linecap: square"/>
   </g>
   <g id="line2d_2">
    <path d="M 7.2 26.742857 
L 12.027064 26.742857 
L 12.027064 42.377143 
L 27.778538 42.377143 
L 27.778538 58.011429 
L 33.621826 58.011429 
L 33.621826 73.645714 
L 49.881411 73.645714 
L 49.881411 89.28 
L 92.562823 89.28 
L 92.562823 104.914286 
L 96.119607 104.914286 
L 96.119607 120.548571 
L 124.065769 120.548571 
L 124.065769 136.182857 
L 129.909058 136.182857 
L 129.909058 151.817143 
L 130.163114 151.817143 
L 130.163114 167.451429 
L 161.66606 167.451429 
L 161.66606 183.085714 
L 179.704038 183.085714 
L 179.704038 198.72 
L 194.947399 198.72 
L 194.947399 214.354286 
L 202.823136 214.354286 
L 202.823136 229.988571 
L 206.633976 229.988571 
L 206.633976 245.622857 
L 226.704402 245.622857 
L 226.704402 261.257143 
L 235.596362 261.257143 
L 235.596362 276.891429 
L 247.536995 276.891429 
L 247.536995 292.525714 
L 262.5263 292.525714 
L 262.5263 308.16 
L 269.893925 308.16 
L 269.893925 323.794286 
L 277.515606 323.794286 
L 277.515606 339.428571 
L 411.149072 339.428571 
L 411.149072 355.062857 
L 443.668243 355.062857 
L 443.668243 370.697143 
L 508.198472 370.697143 
L 508.198472 386.331429 
L 511.755256 386.331429 
L 511.755256 401.965714 
L 602.453256 401.965714 
L 602.453256 417.6 
" clip-path="url(#p37861b9976)" style="fill: none; stroke: #e6862a; stroke-opacity: 0.964706; stroke-width: 2.5; stroke-linecap: square"/>
   </g>
   <g id="line2d_3">
    <path d="M 7.2 26.742857 
L 23.713641 26.742857 
L 23.713641 41.775824 
L 26.508258 41.775824 
L 26.508258 56.808791 
L 34.129938 56.808791 
L 34.129938 71.841758 
L 37.432666 71.841758 
L 37.432666 86.874725 
L 55.216588 86.874725 
L 55.216588 101.907692 
L 66.395053 101.907692 
L 66.395053 116.940659 
L 66.903165 116.940659 
L 66.903165 131.973626 
L 70.714005 131.973626 
L 70.714005 147.006593 
L 76.303238 147.006593 
L 76.303238 162.03956 
L 78.08163 162.03956 
L 78.08163 177.072527 
L 88.497927 177.072527 
L 88.497927 192.105495 
L 94.087159 192.105495 
L 94.087159 207.138462 
L 98.406111 207.138462 
L 98.406111 222.171429 
L 101.200728 222.171429 
L 101.200728 237.204396 
L 101.962896 237.204396 
L 101.962896 252.237363 
L 120.254929 252.237363 
L 120.254929 267.27033 
L 127.622554 267.27033 
L 127.622554 282.303297 
L 146.168643 282.303297 
L 146.168643 297.336264 
L 146.930811 297.336264 
L 146.930811 312.369231 
L 149.979483 312.369231 
L 149.979483 327.402198 
L 157.093052 327.402198 
L 157.093052 342.435165 
L 202.315024 342.435165 
L 202.315024 357.468132 
L 205.871808 357.468132 
L 205.871808 372.501099 
L 255.666788 372.501099 
L 255.666788 387.534066 
L 270.402037 387.534066 
L 270.402037 402.567033 
L 331.121426 402.567033 
L 331.121426 417.6 
" clip-path="url(#p37861b9976)" style="fill: none; stroke: #317ec2; stroke-width: 2.5; stroke-linecap: square"/>
   </g>
   <g id="patch_3">
    <path d="M 7.2 417.6 
L 7.2 7.2 
" style="fill: none; stroke: #000000; stroke-width: 0.8; stroke-linejoin: miter; stroke-linecap: square"/>
   </g>
   <g id="patch_4">
    <path d="M 7.2 417.6 
L 705.6 417.6 
" style="fill: none; stroke: #000000; stroke-width: 0.8; stroke-linejoin: miter; stroke-linecap: square"/>
   </g>
  </g>
 </g>
 <defs>
  <clipPath id="p37861b9976">
   <rect x="7.2" y="7.2" width="698.4" height="410.4"/>
  </clipPath>
 </defs>
</svg>
