<?xml version="1.0" encoding="utf-8" standalone="no"?>
<!DOCTYPE svg PUBLIC "-//W3C//DTD SVG 1.1//EN"
  "http://www.w3.org/Graphics/SVG/1.1/DTD/svg11.dtd">
<svg xmlns:xlink="http://www.w3.org/1999/xlink" width="712.8pt" height="424.8pt" viewBox="0 0 712.8 424.8" xmlns="http://www.w3.org/2000/svg" version="1.1">
 <metadata>
  <rdf:RDF xmlns:dc="http://purl.org/dc/elements/1.1/" xmlns:cc="http://creativecommons.org/ns#" xmlns:rdf="http://www.w3.org/1999/02/22-rdf-syntax-ns#">
   <cc:Work>
    <dc:type rdf:resource="http://purl.org/dc/dcmitype/StillImage"/>
    <dc:date>2025-04-04T10:39:46.772158</dc:date>
    <dc:format>image/svg+xml</dc:format>
    <dc:creator>
     <cc:Agent>
      <dc:title>Matplotlib v3.10.1, https://matplotlib.org/</dc:title>
     </cc:Agent>
    </dc:creator>
   </cc:Work>
  </rdf:RDF>
 </metadata>
 <defs>
  <style type="text/css">*{stroke-linejoin: round; stroke-linecap: butt}</style>
 </defs>
 <g id="figure_1">
  <g id="patch_1">
   <path d="M 0 424.8 
L 712.8 424.8 
L 712.8 0 
L 0 0 
z
" style="fill: #ffffff"/>
  </g>
  <g id="axes_1">
   <g id="patch_2">
    <path d="M 7.2 417.6 
L 705.6 417.6 
L 705.6 7.2 
L 7.2 7.2 
z
" style="fill: #ffffff"/>
   </g>
   <g id="line2d_1">
    <path d="M 7.2 26.742857 
L 33.621826 26.742857 
L 33.621826 41.775824 
L 37.432666 41.775824 
L 37.432666 56.808791 
L 49.373299 56.808791 
L 49.373299 71.841758 
L 55.216588 71.841758 
L 55.216588 86.874725 
L 66.395053 86.874725 
L 66.395053 101.907692 
L 66.903165 101.907692 
L 66.903165 116.940659 
L 70.714005 116.940659 
L 70.714005 131.973626 
L 88.497927 131.973626 
L 88.497927 147.006593 
L 92.562823 147.006593 
L 92.562823 162.03956 
L 101.200728 162.03956 
L 101.200728 177.072527 
L 120.254929 177.072527 
L 120.254929 192.105495 
L 153.028156 192.105495 
L 153.028156 207.138462 
L 162.682284 207.138462 
L 162.682284 222.171429 
L 194.947399 222.171429 
L 194.947399 237.204396 
L 206.633976 237.204396 
L 206.633976 252.237363 
L 226.704402 252.237363 
L 226.704402 267.27033 
L 255.158676 267.27033 
L 255.158676 282.303297 
L 259.223572 282.303297 
L 259.223572 297.336264 
L 277.515606 297.336264 
L 277.515606 312.369231 
L 314.607785 312.369231 
L 314.607785 327.402198 
L 331.121426 327.402198 
L 331.121426 342.435165 
L 386.251582 342.435165 
L 386.251582 372.501099 
L 411.149072 372.501099 
L 411.149072 387.534066 
L 511.755256 387.534066 
L 511.755256 402.567033 
L 602.453256 402.567033 
L 602.453256 417.6 
" clip-path="url(#p8d38580060)" style="fill: none; stroke: #c13930; stroke-width: 2.5; stroke-linecap: square"/>
   </g>
   <g id="line2d_2">
    <path d="M 7.2 26.742857 
L 23.713641 26.742857 
L 23.713641 42.377143 
L 34.129938 42.377143 
L 34.129938 58.011429 
L 49.881411 58.011429 
L 49.881411 73.645714 
L 70.714005 73.645714 
L 70.714005 89.28 
L 98.406111 89.28 
L 98.406111 104.914286 
L 101.962896 104.914286 
L 101.962896 120.548571 
L 124.065769 120.548571 
L 124.065769 136.182857 
L 127.622554 136.182857 
L 127.622554 151.817143 
L 129.14689 151.817143 
L 129.14689 167.451429 
L 146.168643 167.451429 
L 146.168643 183.085714 
L 149.725427 183.085714 
L 149.725427 198.72 
L 149.979483 198.72 
L 149.979483 214.354286 
L 157.093052 214.354286 
L 157.093052 229.988571 
L 192.152783 229.988571 
L 192.152783 245.622857 
L 215.525937 245.622857 
L 215.525937 261.257143 
L 217.558385 261.257143 
L 217.558385 276.891429 
L 235.596362 276.891429 
L 235.596362 292.525714 
L 247.536995 292.525714 
L 247.536995 308.16 
L 262.272244 308.16 
L 262.272244 323.794286 
L 262.5263 323.794286 
L 262.5263 339.428571 
L 269.893925 339.428571 
L 269.893925 355.062857 
L 270.402037 355.062857 
L 270.402037 370.697143 
L 280.310222 370.697143 
L 280.310222 386.331429 
L 300.634704 386.331429 
L 300.634704 401.965714 
L 705.6 401.965714 
L 705.6 417.6 
" clip-path="url(#p8d38580060)" style="fill: none; stroke: #e6862a; stroke-opacity: 0.964706; stroke-width: 2.5; stroke-linecap: square"/>
   </g>
   <g id="line2d_3">
    <path d="M 7.2 26.742857 
L 12.027064 26.742857 
L 12.027064 41.775824 
L 22.697417 41.775824 
L 22.697417 56.808791 
L 26.508258 56.808791 
L 26.508258 71.841758 
L 27.778538 71.841758 
L 27.778538 86.874725 
L 76.303238 86.874725 
L 76.303238 101.907692 
L 78.08163 101.907692 
L 78.08163 116.940659 
L 81.89247 116.940659 
L 81.89247 131.973626 
L 94.087159 131.973626 
L 94.087159 147.006593 
L 96.119607 147.006593 
L 96.119607 162.03956 
L 112.379192 162.03956 
L 112.379192 177.072527 
L 129.909058 177.072527 
L 129.909058 192.105495 
L 130.163114 192.105495 
L 130.163114 207.138462 
L 146.930811 207.138462 
L 146.930811 222.171429 
L 152.520044 222.171429 
L 152.520044 237.204396 
L 161.66606 237.204396 
L 161.66606 252.237363 
L 179.704038 252.237363 
L 179.704038 267.27033 
L 202.315024 267.27033 
L 202.315024 282.303297 
L 202.823136 282.303297 
L 202.823136 297.336264 
L 205.871808 297.336264 
L 205.871808 312.369231 
L 231.023354 312.369231 
L 231.023354 327.402198 
L 249.315387 327.402198 
L 249.315387 342.435165 
L 255.666788 342.435165 
L 255.666788 357.468132 
L 401.494944 357.468132 
L 401.494944 372.501099 
L 409.37068 372.501099 
L 409.37068 387.534066 
L 443.668243 387.534066 
L 443.668243 402.567033 
L 508.198472 402.567033 
L 508.198472 417.6 
" clip-path="url(#p8d38580060)" style="fill: none; stroke: #317ec2; stroke-width: 2.5; stroke-linecap: square"/>
   </g>
   <g id="patch_3">
    <path d="M 7.2 417.6 
L 7.2 7.2 
" style="fill: none; stroke: #000000; stroke-width: 0.8; stroke-linejoin: miter; stroke-linecap: square"/>
   </g>
   <g id="patch_4">
    <path d="M 7.2 417.6 
L 705.6 417.6 
" style="fill: none; stroke: #000000; stroke-width: 0.8; stroke-linejoin: miter; stroke-linecap: square"/>
   </g>
  </g>
 </g>
 <defs>
  <clipPath id="p8d38580060">
   <rect x="7.2" y="7.2" width="698.4" height="410.4"/>
  </clipPath>
 </defs>
</svg>
